<svg xmlns="http://www.w3.org/2000/svg" viewBox="0 0 175 36" width="100%" height="100%"><path d="m173.73,20.59c-.08-.28-.21-.45-.38-.52-.17-.07-.42-.06-.76.04-1.18.36-2.28.62-3.33.77-1.04.16-1.89.22-2.54.18-.65-.04-.97-.15-.97-.34,0-.17.25-.56.76-1.19.5-.62,1.06-1.27,1.66-1.94.84-.94,1.49-1.7,1.94-2.28.46-.59.68-.99.68-1.21,0-.24-.07-.53-.2-.88-.13-.35-.34-.65-.61-.9-.28-.25-.61-.38-.99-.38-1.25,0-3.14.35-5.67,1.06-2.32.65-5.7,1.76-10.15,3.32l3.9-4.27-5.83.61-5.45,6.2c-1.72.64-3.01,1.09-3.87,1.34-.86.25-1.44.38-1.73.38-.19,0-.37-.12-.54-.36-.17-.24-.31-.52-.41-.85-.11-.32-.16-.61-.16-.85,0-.19.11-.44.32-.76.22-.31.67-.84,1.35-1.58.68-.74,1.55-1.67,2.61-2.77l1.3-1.37h-4.61c-3.24,0-6.97.46-11.19,1.37-4.22.91-7.83,2.1-10.83,3.56-1.75.86-2.99,1.74-3.72,2.65-1.3.4-2.55.76-3.75,1.07-1.33.35-2.97.67-4.91.95-1.94.29-3.99.43-6.15.43-.98,0-1.76-.1-2.34-.31-.58-.2-.86-.61-.86-1.21,0-.72.88-1.48,2.63-2.27,1.75-.79,4.01-1.53,6.76-2.21,2.76-.68,5.65-1.25,8.67-1.71.34-.34.61-.64.81-.9.2-.26.32-.49.34-.68.05-.43-.25-.65-.9-.65-2.76,0-6.15.44-10.18,1.31-4.03.88-7.51,2.04-10.45,3.49-1.65.82-2.84,1.67-3.56,2.57-.83.3-1.51.52-2.03.67-.86.25-1.44.38-1.73.38-.19,0-.37-.12-.54-.36-.17-.24-.31-.52-.41-.85-.11-.32-.16-.61-.16-.85,0-.19.11-.44.32-.76.22-.31.67-.84,1.35-1.58.68-.74,1.55-1.67,2.61-2.77l1.3-1.37h-4.61c-3.24,0-6.97.46-11.19,1.37-4.22.91-7.83,2.1-10.83,3.56-2.85,1.39-4.34,2.85-4.48,4.39-.22.01-.67.07-1.35.18-1.97.26-3.62.43-4.97.5-1.34.07-2.01-.08-2.01-.47,0-.34.55-1.17,1.64-2.5,1.09-1.33,2.5-2.95,4.23-4.86s3.39-3.71,5-5.41c1.22-1.32,2.31-2.49,3.26-3.53.95-1.03,1.42-1.59,1.42-1.69,0-.24-.12-.54-.36-.9-.24-.36-.58-.67-1.01-.94-.43-.26-.92-.4-1.48-.4-2.11,0-4.95.89-8.53,2.68-3.57,1.79-6.99,3.74-10.25,5.86-3.26,2.12-6.66,4.42-10.18,6.89-.74.53-1.37.97-1.89,1.31-.52.35-.77.5-.77.45s.51-.55,1.53-1.51c1.02-.96,2.18-2.04,3.47-3.24,3.24-2.97,5.79-5.35,7.66-7.14,1.87-1.79,2.81-2.8,2.81-3.04,0-.26-.14-.58-.41-.95-.28-.37-.65-.7-1.12-.97-.47-.28-.98-.41-1.53-.41-2.14,0-5.81,1.27-11.01,3.81-5.21,2.54-10.9,5.67-17.09,9.39-6.19,3.72-11.89,7.33-17.09,10.83h.76c2.25-.05,3.83-.11,4.73-.2.9-.08,1.7-.26,2.41-.54.71-.28,1.6-.77,2.68-1.49,4.44-2.88,8.85-5.6,13.24-8.15,4.39-2.55,8.01-4.56,10.87-6.03,2.85-1.46,4.28-2.07,4.28-1.84,0,.02-.13.16-.38.41-.25.25-.57.57-.95.95-4.49,4.41-9.45,9.61-14.9,15.58,2.45,0,4.17-.04,5.18-.11s1.94-.28,2.79-.61c.85-.34,1.95-.95,3.29-1.84l7.23-4.71c3.72-2.37,6.79-4.31,9.23-5.79,2.43-1.49,4.27-2.55,5.51-3.18,1.24-.64,1.85-.82,1.85-.56,0,.02-.18.24-.54.65-.36.41-.79.88-1.3,1.4-1.94,2.14-3.63,4.02-5.07,5.67-1.44,1.64-2.76,3.3-3.98,4.98-1.21,1.68-1.82,2.9-1.82,3.67,0,.72,1.01,1.13,3.02,1.24,2.01.11,4.34-.01,6.98-.36,2.32-.31,4.18-.67,5.59-1.1.71.7,1.95,1.09,3.73,1.17,2.95.13,6.46-.54,10.52-2.01,1.89-.69,3.67-1.49,5.35-2.41.42,1.05.77,1.86,1.07,2.41.36.66.68,1.1.97,1.33.29.23.62.34,1.01.34.6,0,2.18-.46,4.73-1.37.55-.2,1.07-.39,1.59-.58.16.49.54.91,1.15,1.26.83.48,1.92.83,3.27,1.06,1.35.23,2.84.34,4.44.34,1.8,0,3.9-.21,6.31-.63,2.41-.42,4.76-.95,7.05-1.6.59-.17,1.16-.33,1.69-.5.29,1.45,1.75,2.24,4.37,2.35,2.95.13,6.46-.54,10.52-2.01,1.89-.69,3.67-1.49,5.35-2.41.42,1.05.77,1.86,1.07,2.41.36.66.68,1.1.97,1.33.29.23.62.34,1.01.34.6,0,2.18-.46,4.73-1.37.33-.12.65-.23.97-.35l-1.64,1.86h2.77c.84,0,1.55-.1,2.14-.29.59-.19,1.08-.5,1.49-.94l3.23-3.49c2.66-.89,4.97-1.63,6.9-2.21,2.29-.68,4-1.13,5.13-1.35,1.13-.22,1.69-.23,1.69-.04,0,.07-.19.34-.58.79-.38.46-.82.96-1.3,1.51-1.13,1.27-2.01,2.32-2.66,3.15-.65.83-.97,1.4-.97,1.71,0,.82.94,1.22,2.81,1.21,1.87-.01,4.05-.29,6.53-.83,2.48-.54,4.43-1.1,5.85-1.67-.1-.6-.19-1.04-.27-1.31Zm-103.62.38c-2.24.36-3.36.24-3.36-.36s1.05-1.37,3.15-2.32c2.1-.95,4.59-1.77,7.48-2.48,2.56-.63,4.84-.98,6.83-1.05l-.3.27c-1.54,1.42-3.66,2.67-6.37,3.76-2.71,1.09-5.19,1.82-7.43,2.18Zm53.54,0c-2.24.36-3.36.24-3.36-.36s1.05-1.37,3.15-2.32c2.1-.95,4.59-1.77,7.48-2.48,2.56-.63,4.84-.98,6.83-1.05l-.3.27c-1.54,1.42-3.66,2.67-6.37,3.76-2.71,1.09-5.19,1.82-7.43,2.18Z"/></svg>