<?xml version="1.0" encoding="utf-8"?>
<!-- Generator: Adobe Illustrator 22.0.1, SVG Export Plug-In . SVG Version: 6.00 Build 0)  -->
<svg version="1.1" id="Ebene_1" xmlns="http://www.w3.org/2000/svg" xmlns:xlink="http://www.w3.org/1999/xlink" x="0px" y="0px"
	 viewBox="0 0 37.9 65.6" style="enable-background:new 0 0 37.9 65.6;" xml:space="preserve">
<g>
	<path d="M0,4.4c0-1.2,0.4-2.2,1.3-3.1S3.2,0,4.4,0H33c1.2,0,2.3,0.4,3.1,1.3c0.8,0.9,1.2,1.9,1.2,3.1v56.1c0,1.2-0.4,2.2-1.2,3.1
		c-0.8,0.9-1.9,1.3-3.1,1.3H4.4c-1.2,0-2.2-0.4-3.1-1.3S0,61.7,0,60.5V4.4z M33.8,8.8V5.2c0-0.5-0.1-0.8-0.4-1.1
		c-0.3-0.3-0.6-0.4-1.1-0.4h-27C4.7,3.6,4.3,3.7,4,4C3.7,4.3,3.6,4.7,3.6,5.2L3.5,8.8H33.8z M33.8,53.8V11.1H3.6v42.7H33.8z M4,60.7
		c0.3,0.3,0.7,0.5,1.1,0.5h27c0.5,0,0.9-0.2,1.2-0.5c0.3-0.3,0.5-0.7,0.5-1.1v-3.5H3.6v3.5C3.6,60,3.7,60.4,4,60.7z M14.7,5.6
		c0.2-0.2,0.3-0.3,0.5-0.3h8.2c0.2,0,0.4,0.1,0.5,0.3c0.2,0.2,0.2,0.4,0.2,0.6c0,0.2-0.1,0.4-0.2,0.6c-0.2,0.2-0.3,0.3-0.5,0.3h-8.2
		c-0.2,0-0.4-0.1-0.5-0.3c-0.2-0.2-0.2-0.4-0.2-0.6C14.5,6,14.5,5.8,14.7,5.6z M18.4,57.7c0.3-0.3,0.6-0.4,0.9-0.4
		c0.4,0,0.7,0.1,0.9,0.4c0.3,0.3,0.4,0.6,0.4,0.9c0,0.4-0.1,0.7-0.4,0.9C20,59.9,19.7,60,19.3,60c-0.4,0-0.7-0.1-0.9-0.4
		C18.1,59.3,18,59,18,58.7C18,58.3,18.1,58,18.4,57.7z"/>
</g>
</svg>
