<svg xmlns="http://www.w3.org/2000/svg" viewBox="0 0 32 32" width="100%" height="100%"><title>icon_twitter</title><path d="M4 23.563q3.625 2.188 7.75 2.188 6 0 10.063-4.25t3.813-10.188v-.188q1.438-1 2.375-2.563-1.125.625-2.75.813.563-.313 1.219-1.125t.844-1.563q-.563.375-1.531.719t-1.531.344q-1.5-1.5-3.625-1.5-2 0-3.469 1.438t-1.469 3.5q0 .563.125 1.125-2.875-.063-5.781-1.438T5.314 7.187q-.938 2-.406 3.813t1.906 2.688q-1.438.125-2.125-.563-.063 1.563.844 2.938t2.969 1.938q-.688.375-2.063.125.125 1.188 1.469 2.281t2.969 1.094q-.813.938-2.719 1.688t-4.156.375z"/></svg>