<svg xmlns="http://www.w3.org/2000/svg" width="32" height="32" viewBox="0 0 32 32"><title>icon_details_next</title><path d="M12.287 11.338a6.443 6.443 0 0 0-6.444 6.444c0 1.369.431 2.637 1.162 3.681l-2.656 2.656a1.127 1.127 0 0 0 0 1.6 1.127 1.127 0 0 0 1.6 0l2.656-2.656a6.398 6.398 0 0 0 3.681 1.163 6.44 6.44 0 0 0 5.819-3.675h9.875V18.12h-9.256c.006-.113.006-.225.006-.337a6.412 6.412 0 0 0-.919-3.313H27.98v-2.431H15.199a6.34 6.34 0 0 0-2.912-.7zm4.6 6.443a4.6 4.6 0 1 1-4.6-4.6 4.592 4.592 0 0 1 4.6 4.6zM8.512 5.95v2.431h19.469V5.95H8.512z"/></svg>