<svg xmlns="http://www.w3.org/2000/svg" viewBox="0 0 32 32" width="100%" height="100%"><title>icon_closed_eye</title><path d="M28.992 14.164c-1.434-1.212-3.394-2.714-5.774-3.87l4.204-4.204-1.521-1.527-4.829 4.829c-1.5-.549-3.233-.885-5.038-.927h-.05c-5.725.111-10.281 3.419-12.977 5.7-.125.111-1.014.813-1.026 1.713-.012.637.278 1.101.68 1.496 1.25 1.25 3.333 3.063 6.053 4.389l-4.151 4.142 1.518 1.533 4.785-4.785c1.523.55 3.282.873 5.114.884h.036c6.306-.025 11.116-3.957 13.323-6.17.408-.396.692-.859.68-1.496-.011-.891-.889-1.596-1.025-1.707zM10.402 16c0-3.209 2.504-5.817 5.601-5.836a5.42 5.42 0 0 1 3.241 1.092l-2.62 2.587a1.998 1.998 0 0 0-.61-.105h-.039c-1.188.031-2.133 1.033-2.133 2.269v.028c0 .188.025.37.072.543l-2.618 2.594a5.914 5.914 0 0 1-.894-3.144v-.029zM16 21.836a5.445 5.445 0 0 1-3.25-1.096l2.611-2.587c.186.065.4.106.622.111h.04c1.193-.025 2.133-1.032 2.133-2.269v-.039c0-.189-.027-.371-.078-.543l2.61-2.597c.566.899.902 1.993.902 3.165v.013c.008 3.214-2.489 5.823-5.59 5.842z"/></svg>