<!-- Generated by IcoMoon.io -->
<svg version="1.1" xmlns="http://www.w3.org/2000/svg" width="100%" height="100%" viewBox="0 0 32 32">
<title>icon_settings</title>
<path d="M6.375 9.319h13.331c0.35 1.381 1.6 2.406 3.094 2.406 1.762 0 3.188-1.425 3.188-3.188s-1.425-3.188-3.188-3.188c-1.494 0-2.744 1.025-3.094 2.406h-13.331c-0.431 0-0.781 0.35-0.781 0.781s0.35 0.781 0.781 0.781z"></path>
<path d="M22.8 20.456c-1.494 0-2.744 1.025-3.094 2.406h-13.331c-0.431 0-0.781 0.35-0.781 0.781s0.35 0.781 0.781 0.781h13.331c0.35 1.381 1.6 2.406 3.094 2.406 1.762 0 3.188-1.425 3.188-3.188s-1.425-3.188-3.188-3.188z"></path>
<path d="M12 16.094c0 1.76-1.427 3.188-3.188 3.188s-3.188-1.427-3.188-3.188c0-1.76 1.427-3.188 3.188-3.188s3.188 1.427 3.188 3.188z"></path>
<path d="M14.006 16.094c0 0.345-0.28 0.625-0.625 0.625s-0.625-0.28-0.625-0.625c0-0.345 0.28-0.625 0.625-0.625s0.625 0.28 0.625 0.625z"></path>
<path d="M15.988 16.094c0 0.345-0.28 0.625-0.625 0.625s-0.625-0.28-0.625-0.625c0-0.345 0.28-0.625 0.625-0.625s0.625 0.28 0.625 0.625z"></path>
<path d="M17.969 16.094c0 0.345-0.28 0.625-0.625 0.625s-0.625-0.28-0.625-0.625c0-0.345 0.28-0.625 0.625-0.625s0.625 0.28 0.625 0.625z"></path>
<path d="M19.956 16.094c0 0.345-0.28 0.625-0.625 0.625s-0.625-0.28-0.625-0.625c0-0.345 0.28-0.625 0.625-0.625s0.625 0.28 0.625 0.625z"></path>
<path d="M21.938 16.094c0 0.345-0.28 0.625-0.625 0.625s-0.625-0.28-0.625-0.625c0-0.345 0.28-0.625 0.625-0.625s0.625 0.28 0.625 0.625z"></path>
<path d="M23.919 16.094c0 0.345-0.28 0.625-0.625 0.625s-0.625-0.28-0.625-0.625c0-0.345 0.28-0.625 0.625-0.625s0.625 0.28 0.625 0.625z"></path>
</svg>
