<!-- Generated by IcoMoon.io -->
<svg version="1.1" xmlns="http://www.w3.org/2000/svg" width="100%" height="100%" viewBox="0 0 32 32">
<title>icon_max-efficiency</title>
<path d="M19.557 5l1.644 3.378-17.434 8.419 1.356 2.786 17.434-8.419 1.644 3.378 4.033-7.863z"></path>
<path d="M21.573 17.164c-0-0-0-0-0-0-0.171-0.412-0.159-0.877 0.033-1.279l0.5-1.053-1.434-1.434-12.172 5.878v1.192l1.099 0.391c0.419 0.149 0.756 0.469 0.926 0.88 0 0 0 0 0 0 0.171 0.412 0.159 0.877-0.033 1.279l-0.5 1.053 1.438 1.438 1.053-0.5c0.402-0.191 0.868-0.203 1.279-0.033 0 0 0 0 0.001 0 0.411 0.17 0.73 0.507 0.879 0.926l0.391 1.099h2.033l0.388-1.092c0.15-0.423 0.473-0.763 0.887-0.935 0-0 0-0 0-0 0.408-0.17 0.868-0.158 1.267 0.032l1.059 0.503 1.438-1.438-0.501-1.053c-0.191-0.402-0.203-0.867-0.032-1.278 0-0 0-0 0-0 0.171-0.411 0.508-0.731 0.927-0.88l1.098-0.39v-2.033l-1.099-0.391c-0.419-0.149-0.756-0.469-0.926-0.88zM16.049 22.22c-1.529 0-2.769-1.239-2.769-2.768s1.24-2.769 2.769-2.769c1.529 0 2.768 1.24 2.768 2.769s-1.239 2.768-2.768 2.768z"></path>
</svg>
