<!-- Generated by IcoMoon.io -->
<svg version="1.1" xmlns="http://www.w3.org/2000/svg" width="100%" height="100%" viewBox="0 0 32 32">
<title>icon_extend_duration</title>
<path d="M27.238 22.206l-1.012-4.075c-0.075-0.337-0.375-0.563-0.712-0.563-0.075 0-0.113 0.038-0.188 0.038l-4.15 1.012c-0.413 0.075-0.675 0.488-0.563 0.9 0.075 0.413 0.488 0.675 0.9 0.563l2.806-0.675c-1.381 3.587-4.825 5.944-8.719 5.944-5.162 0-9.356-4.188-9.356-9.35s4.188-9.35 9.356-9.35c4.262 0 8.006 2.881 9.094 6.994 0.075 0.375 0.488 0.637 0.9 0.525 0.375-0.075 0.637-0.488 0.525-0.9-1.238-4.787-5.575-8.113-10.512-8.113-5.994 0-10.856 4.863-10.856 10.844s4.863 10.844 10.85 10.844c4.188 0 7.931-2.356 9.725-6.019l0.45 1.794c0.075 0.413 0.488 0.675 0.9 0.563s0.637-0.525 0.563-0.975z"></path>
<path d="M15.244 9.369c-0.431 0-0.787 0.35-0.787 0.787v6.031c0 0.325 0.2 0.6 0.475 0.725 0.119 0.075 0.256 0.113 0.406 0.113h3.825c0.431 0 0.788-0.35 0.788-0.788 0-0.431-0.35-0.787-0.788-0.787h-3.137v-5.3c0.006-0.431-0.344-0.781-0.781-0.781z"></path>
</svg>
