<svg xmlns="http://www.w3.org/2000/svg" viewBox="0 0 32 32" width="100%" height="100%"><title>icon_photo</title><path d="M26.268 9.434h-3.981l-2.383-2.422S19.892 7 19.886 7l-.012-.012a1.925 1.925 0 0 0-1.374-.582h-5.037c-.543 0-1.02.226-1.374.582L12.077 7c-.006 0-.018.012-.018.012L9.676 9.434H5.695a1.969 1.969 0 0 0-1.982 1.971v11.998l.001-.872.009.004a1.992 1.992 0 0 0 1.973 1.809H26.27a1.994 1.994 0 0 0 1.973-1.809l.009-.004.001.872V11.405a1.969 1.969 0 0 0-1.982-1.971zm-10.287 10.41c-2.027 0-3.682-1.658-3.701-3.699.019-2.045 1.669-3.77 3.701-3.77s3.682 1.725 3.701 3.77c-.019 2.04-1.674 3.699-3.701 3.699z"/></svg>