<svg xmlns="http://www.w3.org/2000/svg" viewBox="0 0 32 32" width="100%" height="100%"><title>icon_ar</title><path d="M25.578 26.469h-1.613V23.98h1.066v-1.066h2.49v1.655c0 1.048-.872 1.901-1.943 1.901zM8.106 26.469H6.543c-1.101 0-1.996-.852-1.996-1.901v-1.655h2.489v1.066h1.069zM27.531 9.086h-2.49V8.02h-1.066V5.531h1.613c1.071 0 1.943.853 1.943 1.901zM7.021 9.117h-2.49V7.462c0-1.048.896-1.899 1.996-1.899H8.09v2.489H7.021zM16.034 26.233c-.224 0-.435-.06-.616-.164l.006.003-7.959-4.548a1.246 1.246 0 0 1-.625-1.079V11.356v-.004c0-.243.07-.469.191-.66l-.003.005v-.004l.041-.059c.102-.129.227-.235.369-.314l.006-.003.025-.013 7.763-4.116a1.24 1.24 0 0 1 1.141-.01l-.007-.003 8.201 4.077c.265.141.468.367.578.64l.003.008c.016.039.032.089.046.141l.002.009c.024.092.038.197.038.305v.028-.001 9.064c0 .459-.249.86-.619 1.076l-.006.003-7.936 4.532a1.185 1.185 0 0 1-.189.092l-.008.003a1.143 1.143 0 0 1-.199.057l-.008.001c-.07.014-.151.022-.234.022zm1.247-9.96v6.569l5.462-3.125v-6.306zm-7.953 3.448l5.463 3.125v-6.572l-5.463-2.861zm1.433-8.369l5.275 2.763 5.214-2.732-5.422-2.696z"/></svg>