<!-- Generated by IcoMoon.io -->
<svg version="1.1" xmlns="http://www.w3.org/2000/svg" width="100%" height="100%" viewBox="0 0 32 32">
<title>icon_yahoo</title>
<path d="M15.782 11.491l0.218 1.091c0.291 0 2.327 0.291 2.909 0.436-0.145 0.945-4.073 3.636-4.509 4.291-0.8-1.164-3.273-4.218-4.873-6.545 0.582-0.145 2.982-0.218 3.418-0.364l0.145-0.8c-0.436-0.073-4.145-0.145-5.745-0.073-2.473 0.073-5.018-0.073-5.309 0.073v0.945c0.582 0.145 2.836 0.364 3.2 0.436 1.236 0.945 6.109 7.055 6.327 7.709 0.073 0.582 0.073 1.164 0.073 1.527v0.655c0 1.455 0.073 1.745-0.145 1.964-0.509 0.509-2.691 0.364-3.2 0.436l-0.145 1.018c0.945 0 4.073-0.073 5.091-0.073 1.891 0 5.236 0 5.745 0l0.073-1.091c-0.509-0.073-3.127 0-3.491-0.073-0.073-0.509-0.218-1.527-0.218-2.109l0.073-0.873c0-0.509 0.073-1.091 0.145-1.455 0.364-1.018 5.891-5.309 6.545-5.527 0.582-0.145 2.255-0.509 2.691-0.509l0.655-1.018c-0.727-0.073-3.418-0.073-4.655-0.073-1.6 0-4.436-0.073-5.018 0z"></path>
<path d="M28.145 11.127c-2.036-0.218-1.964-0.145-2.473-0.291l0.073 1.455c0 0.727 0.145 7.564 0 8.436l1.745 0.145c0.145-0.436 1.455-6.473 1.964-7.855l0.509-1.673c-0.364-0.073-0.582-0.073-1.818-0.218z"></path>
<path d="M25.309 22.327l0.073 2.036 0.945 0.145 0.945 0.073 0.291-2.036-1.018-0.073z"></path>
</svg>
