<!-- Generated by IcoMoon.io -->
<svg version="1.1" xmlns="http://www.w3.org/2000/svg" width="100%" height="100%" viewBox="0 0 32 32">
<title>icon_update-in-car</title>
<path d="M29.938 22.972v-0.039l-0.034-0.028c-0.005-0.008-0.004-0.022-0.011-0.028-0.025-0.020-0.059-0.011-0.063-0.056-0.016-0.017 0-0.11 0-0.134l0.051-0.341 0.006-0.129h0.006v-0.063h0.006v-0.078c0.005-0.033 0.008-0.071 0.008-0.109 0-0.021-0.001-0.041-0.003-0.062l-0.005-0.154c0.009-0.031 0.014-0.075 0.023-0.106v-0.056h0.006c0.001-0.015 0.002-0.032 0.002-0.050 0-0.034-0.003-0.067-0.008-0.099l-0.045-0.086-0.011-0.006v-0.011l-0.011-0.006v-0.011l-0.028-0.023v-0.011l-0.034-0.028v-0.007l-0.084-0.078-0.063-0.067h-0.011l-0.023-0.028h-0.011l-0.017-0.023h-0.011l-0.017-0.023h-0.011l-0.017-0.023-0.017-0.006-0.006-0.011h-0.011l-0.011-0.017h-0.011l-0.011-0.017-0.017-0.006-0.006-0.011h-0.011l-0.006-0.011h-0.011l-0.006-0.011-0.017-0.006-0.011-0.017h-0.011l-0.006-0.011h-0.011l-0.011-0.017h-0.011l-0.006-0.011h-0.011v-0.006l-0.017-0.006-0.006-0.011h-0.011l-0.011-0.017h-0.012l-0.006-0.011-0.017-0.006v-0.006h-0.011l-0.006-0.011h-0.011l-0.006-0.011h-0.006l-0.006-0.011h-0.011l-0.006-0.011h-0.011l-0.006-0.011h-0.011l-0.006-0.011h-0.011l-0.006-0.011h-0.011l-0.006-0.011h-0.011l-0.006-0.011h-0.011v-0.007l-0.023-0.006v-0.006h-0.023l-0.017-0.028-0.023-0.006-0.011-0.011h-0.011v-0.006h-0.011v-0.006h-0.014v-0.006h-0.011v-0.006h-0.011v-0.006h-0.011v-0.006h-0.011v-0.006h-0.017v-0.006l-0.034-0.011v-0.006h-0.011v-0.006h-0.011v-0.001h-0.006v-0.006h-0.011v-0.006h-0.011v-0.006h-0.011v-0.006h-0.011v-0.006h-0.011v-0.006h-0.017v-0.006l-0.034-0.011v-0.006h-0.011v-0.006h-0.011v-0.006h-0.011v-0.006h-0.011v-0.006h-0.011v-0.006h-0.011v-0.006h-0.013v-0.006h-0.017v-0.006l-0.023-0.006v-0.006h-0.011v-0.006h-0.012v-0.006h-0.011v-0.006l-0.034-0.011v-0.006h-0.017v-0.006l-0.023-0.006v-0.006h-0.011v-0.006h-0.011v-0.006l-0.034-0.011v-0.006h-0.017v-0.006h-0.011v-0.006h-0.011v-0.006l-0.034-0.011v-0.006h-0.017v-0.006h-0.011v-0.006h-0.008v-0.006l-0.034-0.011v-0.006h-0.017v-0.006h-0.012v-0.006l-0.034-0.011v-0.006h-0.017v-0.006h-0.012v-0.006h-0.011v-0.006l-0.034-0.011v-0.006h-0.017v-0.006l-0.023-0.006v-0.006h-0.017v-0.006h-0.011v-0.006l-0.023-0.006v-0.006h-0.017v-0.006l-0.023-0.006v-0.003h-0.012v-0.006l-0.023-0.006v-0.006h-0.017v-0.006l-0.023-0.006v-0.006h-0.017v-0.006h-0.011v-0.006h-0.017v-0.006h-0.011v-0.006l-0.028-0.006v-0.006h-0.017v-0.006h-0.011v-0.006h-0.017v-0.006h-0.011v-0.006h-0.017v-0.006h-0.011v-0.006l-0.051-0.011c-0.026-0.016-0.048-0.034-0.067-0.056l-0.012-0.017h-0.011l-0.045-0.051h-0.011l-0.028-0.034h-0.011l-0.017-0.023h-0.011l-0.017-0.023h-0.011l-0.017-0.023h-0.011l-0.011-0.017h-0.011l-0.011-0.017h-0.011l-0.006-0.011h-0.011l-0.011-0.017h-0.011l-0.006-0.011-0.017-0.006v-0.006h-0.011l-0.006-0.011h-0.011l-0.006-0.011h-0.011l-0.006-0.011h-0.011l-0.006-0.011h-0.011v-0.006h-0.011l-0.006-0.011-0.023-0.006-0.006-0.011-0.023-0.006-0.006-0.011-0.034-0.011-0.006-0.011h-0.011v-0.006h-0.011l-0.011-0.011h-0.011c-0.105-0.064-0.228-0.127-0.356-0.181l-0.063-0.013v-0.006h-0.017v-0.006h-0.017v-0.006h-0.017v-0.006h-0.017v-0.006l-0.039-0.006v-0.006l-0.045-0.006v-0.006h-0.028v-0.006h-0.023v-0.006h-0.023v-0.006h-0.028v-0.006l-0.051-0.006v-0.006h-0.028v-0.006h-0.028v-0.006h-0.028v-0.006h-0.028v-0.006l-0.063-0.006v-0.006h-0.028v-0.006h-0.034v-0.006c-0.006 0-0.015 0.011-0.028 0.006l-0.006-0.011h-0.017v-0.006h-0.028c-0.045-0.014-0.106-0.020-0.151-0.034h-0.034c-0.052-0.016-0.121-0.018-0.173-0.034l-0.084-0.006c-0.063-0.019-0.152-0.014-0.218-0.034l-0.106-0.006v-0.006h-0.056v-0.006h-0.056v-0.006h-0.063v-0.006h-0.063v-0.006h-0.063v-0.006h-0.063v-0.006h-0.064v-0.006h-0.063v-0.006l-0.14-0.006v-0.002h-0.073v-0.006h-0.067v-0.006h-0.078v-0.006h-0.080v-0.006h-0.078v-0.006h-0.078v-0.006l-0.168-0.006v-0.006h-0.045c-0.089-0.026-0.203-0.024-0.291-0.051l-0.112-0.011c-0.075-0.023-0.171-0.023-0.246-0.045l-0.073-0.006c-0.052-0.016-0.121-0.018-0.173-0.034l-0.067-0.006-0.521-0.106c-0.005-0.001-0.010-0.001-0.016-0.001-0.014 0-0.028 0.002-0.041 0.007l-0.092-0v0.006l-0.129 0.006v0.006h-0.067s0 0.004-0.011 0.006h-0.063c-0.024 0.005-0.053 0.008-0.082 0.008-0.017 0-0.033-0.001-0.049-0.003l0.002-0.005h-0.051l-0.006-0.011-0.023-0.006v-0.006l-0.034-0.011v-0.006h-0.017v-0.006l-0.023-0.006v-0.006l-0.028-0.006v-0.006l-0.063-0.011-0.011-0.017-0.023-0.006v-0.006l-0.034-0.011v-0.006h-0.028c-0.009 0-0.041-0.017-0.056-0.011l-0.006 0.011h-0.039l-0.006 0.011-0.028 0.006v-0.006l-0.023-0.006-0.006-0.011h-0.011v-0.006h-0.011v-0.006h-0.011l-0.006-0.011h-0.011l-0.011-0.011-0.023-0.006-0.006-0.011h-0.011l-0.011-0.011h-0.011l-0.006-0.011h-0.011v-0.006h-0.011l-0.011-0.011h-0.011l-0.006-0.011h-0.011v-0.006h-0.011v-0.006h-0.011l-0.011-0.011h-0.011l-0.006-0.011h-0.011v-0.006h-0.011l-0.011-0.011h-0.011l-0.006-0.011h-0.011v-0.006h-0.011l-0.011-0.011h-0.011l-0.006-0.011h-0.011v-0.006h-0.011l-0.011-0.011h-0.011l-0.006-0.011h-0.011v-0.006h-0.011v-0.006h-0.011l-0.011-0.011h-0.011l-0.006-0.011-0.023-0.006v-0.006h-0.011l-0.011-0.011h-0.011l-0.006-0.011h-0.011v-0.006h-0.011v-0.006h-0.011l-0.011-0.011h-0.011l-0.006-0.011h-0.011v-0.006h-0.011v-0.006h-0.011l-0.011-0.011h-0.011l-0.006-0.011h-0.011v-0.006h-0.011v-0.006h0.001l-0.011-0.011h-0.011l-0.006-0.011h-0.011l-0.011-0.011h-0.012v-0.006h-0.011v-0.003h-0.011v-0.006l-0.023-0.006-0.006-0.011h-0.012l-0.011-0.011h-0.011v-0.006h-0.011v-0.006l-0.023-0.006-0.006-0.012h-0.011l-0.011-0.011h-0.011v-0.006h-0.011v-0.006h-0.011v-0.006l-0.023-0.006-0.006-0.011h-0.011l-0.011-0.011h-0.011v-0.006h-0.011v-0.006l-0.023-0.006-0.006-0.011-0.089-0.039-0.006-0.011h-0.011l-0.011-0.011h-0.011v-0.006h-0.011v-0.006h-0.011v-0.006h-0.011l-0.084-0.051h-0.011v-0.006h-0.011v-0.006h-0.011v-0.006h-0.011l-0.011-0.011h-0.011l-0.006-0.011h-0.011l-0.011-0.011h-0.011v-0.006h-0.011v-0.006h-0.011v-0.006h-0.011v-0.006h-0.011v-0.006h-0.007v-0.006h-0.011v-0.006h-0.011v-0.006h-0.011v-0.003h-0.011l-0.011-0.011h-0.011l-0.006-0.011-0.034-0.011v-0.006l-0.023-0.006v-0.006h-0.011v-0.006h-0.011v-0.006h-0.011v-0.006h-0.011v-0.006l-0.023-0.006v-0.006h-0.011v-0.006h-0.011v-0.006h-0.011v-0.006h-0.011v-0.006h-0.011v-0.006l-0.023-0.006-0.006-0.011h-0.011l-0.011-0.011h-0.009v-0.006h-0.011v-0.006l-0.034-0.011v-0.006l-0.023-0.006v-0.006l-0.023-0.006v-0.006h-0.011v-0.006h-0.011v-0.006h-0.012v-0.006h-0.011v-0.006h-0.011v-0.006h-0.011v-0.006h-0.011v-0.006h-0.011v-0.006h-0.011v-0.006l-0.023-0.006v-0.002l-0.023-0.006v-0.006l-0.023-0.006v-0.006h-0.011v-0.006h-0.011v-0.006h-0.011v-0.006h-0.011v-0.006l-0.034-0.011v-0.006l-0.023-0.006v-0.006h-0.014v-0.006l-0.034-0.011v-0.006h-0.011v-0.006h-0.011v-0.006h-0.011v-0.006l-0.089-0.039v-0.006l-0.023-0.006v-0.006h-0.017v-0.006l-0.034-0.011v-0.006h-0.011v-0.006h-0.011v-0.006h-0.011v-0.006h-0.011v-0.006h-0.011v-0.006h-0.011v-0.006h-0.015v-0.006h-0.011v-0.006h-0.017v-0.006l-0.023-0.006v-0.006h-0.012v-0.006h-0.011v-0.006l-0.034-0.011v-0.006h-0.017v-0.006l-0.023-0.006v-0.006h-0.011v-0.006h-0.011v-0.008h-0.011v-0.006l-0.034-0.011v-0.006h-0.017v-0.006h-0.011v-0.006h-0.008v-0.006h-0.011v-0.006l-0.034-0.011v-0.006h-0.029v-0.006h-0.011v-0.006h-0.011v-0.006l-0.034-0.011v-0.006h-0.017v-0.006h-0.011v-0.006l-0.034-0.011v-0.006h-0.017v-0.006h-0.011v-0.006h-0.011v-0.006l-0.034-0.011v-0.006h-0.017v-0.006h-0.011v-0.006l-0.034-0.011v-0.006h-0.017v-0.006l-0.023-0.006v-0.006l-0.023-0.006v-0.006h-0.011v-0.006h-0.017v-0.006h-0.011v-0.006l-0.023-0.006v-0.006h-0.017v-0.006h-0.011v-0.006l-0.034-0.011v-0.006h-0.017v-0.006h-0.011v-0.006l-0.034-0.011v-0.006h-0.017v-0.006h-0.011v-0.006l-0.023-0.006v-0.006h-0.017v-0.006h-0.011v-0.006l-0.023-0.006v-0.006h-0.012v-0.006h-0.011v-0.006h-0.011v-0.006h-0.011v-0.006l-0.029-0.006v-0.006l-0.023-0.006v-0.006h-0.017v-0.006h-0.011v-0.006l-0.023-0.006v-0.006h-0.017v-0.006h-0.011v-0.006l-0.023-0.006v-0.006h-0.017l-0.023-0.006v-0.006h-0.017v-0.006h-0.008v-0.006l-0.023-0.006v-0.006h-0.017v-0.006l-0.023-0.006v-0.006h-0.017v-0.006l-0.023-0.006v-0.006h-0.017v-0.006l-0.023-0.006v-0.006h-0.017v-0.006h-0.011v-0.006l-0.023-0.006v-0.006h-0.017v-0.006l-0.023-0.006v-0.007h-0.019v-0.006l-0.023-0.006v-0.006h-0.017v-0.006l-0.023-0.006v-0.006h-0.017v-0.006l-0.023-0.006v-0.006h-0.017v-0.006h-0.007v-0.006h-0.017v-0.006l-0.023-0.006v-0.006h-0.017v-0.006l-0.023-0.006v-0.006l-0.056-0.017-0.017-0.028h-0.017v-0.006h-0.019v-0.006h-0.017v-0.006h-0.017v-0.006h-0.017v-0.006l-0.106-0.023c-0.104-0.038-0.227-0.055-0.336-0.089h-0.028v-0.006h-0.028v-0.006h-0.028v-0.006h-0.028v-0.006h-0.028c-0.054-0.017-0.125-0.023-0.179-0.039l-0.073-0.006c-0.041-0.012-0.099-0.016-0.14-0.028h-0.045v-0.006l-0.084-0.006v-0.006h-0.051v-0.006h-0.046v-0.006h-0.051v-0.006h-0.063v-0.006h-0.063v-0.006h-0.067v-0.006h-0.070v-0.006l-0.106-0.006h-0.056v-0.006l-0.319-0.011c-0.036-0.005-0.077-0.008-0.119-0.008-0.024 0-0.048 0.001-0.072 0.003l-0.053-0c-0.044-0.006-0.095-0.009-0.147-0.009-0.033 0-0.066 0.001-0.098 0.004-0.007-0.001-0.020-0.002-0.033-0.002-0.031 0-0.061 0.003-0.091 0.007l-0.293-0v0.006h-0.168v0.006c-0.035 0.010-0.094-0.004-0.129 0.006s-0.087 0-0.117 0.006h-0.063l-0.129 0.006v0.006h-0.078v0.006h-0.072v0.006h-0.076v0.006h-0.067v0.006h-0.067v0.006h-0.063v0.006h-0.063c-0.080 0.023-0.188 0.011-0.269 0.034h-0.051c-0.055 0.016-0.13 0.012-0.188 0.028h-0.051v0.006h-0.039v0.006h-0.045v0.008h-0.045v0.006h-0.039v0.006h-0.045v0.006h-0.045v0.006h-0.045v0.006h-0.039v0.006l-0.078 0.006c-0.067 0.019-0.152 0.019-0.218 0.039h-0.034v0.006h-0.034v0.006h-0.034v0.006h-0.039c-0.063 0.018-0.136 0.021-0.196 0.039l-0.067 0.006c-0.039 0.012-0.090 0.016-0.129 0.028h-0.034c-0.036 0.011-0.086 0.017-0.125 0.028h-0.034c-0.025 0.008-0.063 0.015-0.089 0.023h-0.034c-0.098 0.030-0.216 0.037-0.313 0.067l-0.063 0.006v0.006h-0.023v0.006h-0.018v0.006h-0.028v0.004h-0.028v0.006l-0.051 0.006v0.006l-0.056 0.006v0.006l-0.056 0.011-0.006 0.011h-0.011l-0.023 0.028h-0.011v0.006l-0.051 0.006-0.089 0.028h-0.027c-0.13 0.043-0.279 0.063-0.408 0.106l-0.112 0.023c-0.099 0.036-0.219 0.054-0.319 0.089h-0.023v0.006h-0.023v0.006h-0.023v0.006h-0.023c-0.088 0.032-0.192 0.052-0.28 0.084h-0.023v0.006h-0.017v0.006h-0.023v0.006h-0.023c-0.063 0.022-0.135 0.039-0.196 0.063h-0.023v0.006h-0.017v0.006h-0.023v0.006h-0.017v0.006l-0.039 0.006v0.006l-0.039 0.006v0.006l-0.056 0.011v0.006h-0.023v0.006h-0.017v0.006h-0.017v0.006l-0.072 0.017v0.006h-0.023v0.006h-0.017v0.002h-0.017v0.006h-0.017v0.006h-0.017v0.006h-0.016v0.006h-0.017v0.006h-0.017v0.006h-0.017v0.006h-0.017v0.006h-0.023v0.006h-0.017v0.006h-0.018v0.006h-0.023v0.006h-0.017v0.006h-0.017v0.006h-0.017v0.006h-0.017v0.006h-0.017v0.006h-0.023c-0.222 0.081-0.466 0.137-0.683 0.224h-0.017v0.006h-0.017v0.006h-0.017v0.006h-0.017v0.006l-0.051 0.011v0.006h-0.011v0.006h-0.017v0.006l-0.051 0.011v0.006l-0.051 0.011v0.006h-0.011v0.006h-0.017v0.006h-0.017v0.006h-0.017v0.006h-0.017c-0.024 0.010-0.054 0.024-0.078 0.034l-0.051 0.011v0.006l-0.034 0.006c-0.139 0.063-0.298 0.102-0.438 0.163h-0.012v0.006h-0.017v0.006h-0.017v0.006h-0.017v0.006h-0.012v0.006l-0.034 0.006c-0.024 0.010-0.054 0.024-0.078 0.034h-0.017v0.006h-0.017v0.006h-0.017v0.006h-0.017v0.006h-0.011v0.006h-0.017v0.006h-0.017v0.003h-0.017v0.006h-0.017v0.006h-0.017v0.006h-0.017v0.006c-0.017-0.003-0.033-0.007-0.047-0.012l-0.043 0.001v-0.006h-0.056v-0.006h-0.028v0.006h-0.028v0.006l-0.051 0.011v0.006h-0.018v0.006h-0.017v0.006h-0.017v0.006h-0.017v0.006h-0.012v0.006l-0.034 0.006v0.006l-0.034 0.006v0.006h-0.022v0.006l-0.034 0.006v0.006h-0.017v0.006h-0.017v0.006h-0.017v0.006h-0.017v0.006h-0.017v0.007h-0.017v0.006l-0.051 0.011v0.006h-0.018v0.006l-0.063 0.006v0.006h-0.019v0.006h-0.011v0.006l-0.034 0.006v0.006h-0.011v0.006l-0.034 0.006v0.006h-0.011v0.006h-0.017v0.006h-0.007v0.006h-0.017v0.006c-0.029 0.012-0.068 0.015-0.084 0.039-0.011 0.011-0.011 0.028-0.011 0.051-0.088 0-0.17 0.021-0.244 0.058l-0.047 0.010v0.006h-0.011v0.006l-0.034 0.006v0.006l-0.034 0.006v0.006h-0.011v0.006l-0.051 0.011v0.003h-0.011v0.006l-0.051 0.011v0.006h-0.011v0.006l-0.034 0.006v0.006h-0.011v0.006h-0.017v0.006h-0.009v0.006h-0.017v0.006h-0.017v0.006h-0.011v0.006h-0.018v0.006h-0.011v0.006h-0.017v0.006h-0.011v0.006h-0.017v0.006h-0.011v0.006h-0.017v0.006l-0.022 0.006v0.006h-0.018v0.006h-0.011v0.006h-0.017v0.006l-0.028 0.006v0.006h-0.011v0.006h-0.017v0.006l-0.022 0.006v0.006h-0.017v0.006h-0.011v0.006h-0.015v0.001l-0.022 0.006v0.006h-0.015v0.006l-0.022 0.006v0.006h-0.017v0.006h-0.011v0.006l-0.022 0.006v0.006h-0.017v0.006l-0.034 0.011v0.006h-0.011v0.006l-0.022 0.006-0.006 0.011h-0.012l-0.017 0.023h-0.011l-0.022 0.028h-0.045c-0.002-0-0.005-0-0.007-0-0.023 0-0.046 0.004-0.067 0.012l0.001 0.005-0.022 0.006-0.006 0.011h-0.011l-0.011 0.011h-0.011v0.006h-0.011v0.006h-0.011v0.006h-0.010v0.006h-0.011v0.006l-0.034 0.011v0.006l-0.028 0.006v0.008l-0.022 0.006v0.006l-0.022 0.006v0.006l-0.022 0.006v0.006h-0.011v0.006h-0.011v0.006h-0.011v0.006h-0.014v0.006h-0.011v0.006h-0.020v0.006h-0.011v0.006h-0.011v0.006l-0.034 0.011v0.006h-0.017v0.006l-0.022 0.006v0.006h-0.017v0.006h-0.011v0.006l-0.034 0.006c-0.103 0.045-0.227 0.073-0.336 0.112l-0.151 0.034-0.011 0.017-0.034 0.028v0.011l-0.022 0.017c-0.009 0.012-0.011 0.024-0.022 0.034 0.004 0.021 0.010 0.039 0.016 0.057l-0.006-0.002-0.101 0.106h-0.011l-0.070 0.070-0.034 0.006-0.011 0.017c-0.021 0.014-0.034 0.005-0.039 0.039h-0.017c-0.008 0.014-0.018 0.016-0.022 0.034h-0.011c-0.006 0.026-0.014 0.009-0.006 0.039l-0.028 0.023-0.067 0.073h-0.011l-0.011 0.017h-0.011v0.006l-0.011 0.006v0.017l-0.011 0.006v0.006h-0.011l-0.006 0.011-0.017 0.006-0.006 0.023-0.017 0.011v0.017l-0.011 0.006v0.011l-0.017 0.011-0.017 0.023-0.011 0.006v0.011l-0.033 0.027v0.011l-0.028 0.023v0.011l-0.011 0.006-0.006 0.017-0.022 0.017v0.011l-0.017 0.011v0.011h-0.006l-0.006 0.017-0.011 0.006v0.011l-0.017 0.011-0.006 0.023h-0.006l-0.006 0.017-0.011 0.006-0.006 0.023-0.011 0.006-0.039 0.089-0.011 0.106h-0.006v0.084c-0.006 0.037-0.009 0.080-0.009 0.123s0.003 0.086 0.009 0.128l-0.001 0.073h0.006v0.063c0.015 0.052 0.013 0.125 0.028 0.173v0.039l0.063 0.375h0.006v0.023h0.006v0.028h0.006v0.022h0.006v0.017c0.018 0.033 0.037 0.074 0.053 0.116 0.003 0.013 0.004 0.019 0.004 0.025 0 0.031-0.009 0.060-0.024 0.085l-0.011 0.005v0.011l-0.011 0.006v0.011l-0.011 0.006-0.006 0.017-0.017 0.011v0.011l-0.022 0.017v0.011l-0.022 0.017v0.009l-0.011 0.006v0.011l-0.011 0.006c-0.008 0.017-0.012 0.036-0.012 0.056 0 0.006 0 0.011 0.001 0.017l0.006-0.001v0.023l-0.045 0.034v0.011h-0.003v0.034h-0.006v0.017h-0.006v0.011h-0.006v0.011h-0.006l0.022 0.188c-0.007 0.004-0.007 0.009-0.011 0.011h-0.011l-0.011 0.017h-0.011c-0.010 0.011-0.017 0.026-0.017 0.043 0 0.001 0 0.002 0 0.002l0.028 0.101h0.006v0.017h0.006v0.017h0.006v0.017h0.006v0.017h0.006v0.017h0.006l0.006 0.034h0.006v0.011h0.006l0.011 0.051h0.006l0.006 0.023h0.006v0.011l0.011 0.006v0.011l0.034 0.028 0.017 0.023h0.011l0.006 0.011 0.028 0.006v0.006l0.022 0.006v0.006l0.056 0.011v0.006h0.017v0.006h0.022v0.003h0.039v0.006h0.039v0.006l0.118 0.006v0.006h0.063v0.006h0.063v0.006h0.034v0.006h0.017v0.006h0.028v0.006l0.051 0.006v0.006h0.034v0.006h0.039v0.006h0.039v0.006l0.151 0.017v0.006l0.034 0.011v0.006l0.051 0.017v0.006h0.011v0.006h0.017v0.006h0.017v0.006l0.039 0.006v0.006l0.039 0.006v0.006h0.017v0.006h0.011v0.001h0.011l0.006 0.011h0.013l0.056 0.063c0.054 0.037 0.116 0.068 0.183 0.088l0.038 0.001v0.006h0.028v0.006h0.045v0.006c0.014 0.001 0.030 0.002 0.046 0.002 0.031 0 0.061-0.003 0.091-0.008l0.114 0v-0.006l0.034-0.011v-0.006h0.078v-0.006l0.028-0.006 0.008-0.016 0.134 0.006v0.006h0.103c0.027 0.008 0.076 0 0.106 0.006s0.076 0 0.106 0.006v0.006l0.14 0.006h0.063v0.006h0.106v0.006h0.022v0.006h0.028v0.006h0.045v0.006l0.022-0.006 0.168 0.006c0.051 0.014 0.116 0.019 0.168 0.034h0.045v0.006l0.125 0.006v0.006h0.063v0.006h0.072c0.032 0.007 0.069 0.011 0.106 0.011 0.002 0 0.004 0 0.006-0 0.003 0.008 0.008 0.008 0.011 0.011 0.013 0.021 0 0.030 0.034 0.034 0.019 0.003 0.042 0.005 0.064 0.005 0.033 0 0.065-0.004 0.095-0.011l0.031 0.001c0.028-0.011 0.061-0.017 0.095-0.017l0 0.006h0.011v0.006h0.011v0.006h0.017v0.006h0.017v0.006h0.017v0.007h0.022l0.168 0.006c0.008 0.019 0.017 0.036 0.029 0.051l-0 0.011 0.011 0.006 0.006 0.023 0.011 0.006 0.006 0.023h0.006l0.006 0.017 0.011 0.006 0.006 0.023 0.017 0.011v0.011l0.011 0.006v0.011h0.006l0.006 0.017 0.011 0.006v0.011l0.017 0.011v0.011l0.017 0.011v0.011l0.022 0.017v0.011l0.022 0.017v0.011l0.022 0.017v0.006l0.011 0.006v0.011l0.051 0.045v0.010l0.028 0.023 0.045 0.051h0.011l0.051 0.056h0.011l0.028 0.034h0.011l0.017 0.023h0.011l0.017 0.023h0.011l0.011 0.017h0.011l0.011 0.017 0.017 0.006 0.006 0.011h0.011l0.006 0.011h0.011l0.011 0.017 0.022 0.006 0.006 0.011h0.011l0.006 0.011h0.011l0.006 0.011h0.011v0.006h-0.001l0.006 0.011 0.022 0.006 0.006 0.011 0.034 0.011c0.104 0.064 0.224 0.121 0.351 0.164l0.058 0.010v0.006h0.017v0.006l0.051 0.006v0.006h0.022v0.006h0.022v0.006h0.028v0.006h0.028v0.006l0.095 0.011v0.006l0.078 0.006c0.058 0.016 0.137 0.011 0.196 0.028h0.067v0.006h0.078c0.034 0.009 0.093-0.004 0.129 0.006v0.006c0.018 0.002 0.040 0.003 0.062 0.003 0.038 0 0.075-0.003 0.111-0.009l0.080 0.001v-0.006h0.051c0.047-0.014 0.111-0.014 0.157-0.028h0.034v-0.006l0.056-0.006v-0.006h0.028v-0.006h0.023v-0.006h0.023v-0.006h0.023v-0.006l0.045-0.006v-0.006l0.056-0.011v-0.006h0.017v-0.006h0.017v-0.006l0.034-0.006v-0.006h0.011v-0.006l0.034-0.006v-0.006h0.011v-0.006l0.030-0.006v-0.006l0.023-0.006v-0.006h0.017v-0.006h0.011v-0.006h0.017v-0.006l0.034-0.011v-0.006h0.011v-0.006h0.017v-0.006l0.034-0.011v-0.006h0.011v-0.006h0.013v-0.006h0.011v-0.006h0.011l0.011-0.011h0.011l0.006-0.011h0.012v-0.006h0.011l0.011-0.011h0.011l0.006-0.011h0.011v-0.006h0.012l0.006-0.011h0.011l0.006-0.011h0.011l0.006-0.011 0.023-0.006v-0.006l0.017-0.006 0.006-0.011h0.011l0.011-0.017h0.011l0.006-0.011h0.011l0.011-0.017h0.011l0.011-0.017h0.011l0.011-0.017h0.011l0.017-0.023h0.011l0.023-0.028h0.011l0.028-0.034h0.011l0.051-0.056c0.039-0.030 0.074-0.061 0.106-0.095l0.040-0.045 0.034-0.011 0.006-0.011 0.034-0.011 0.006-0.011h0.011l0.006-0.011h0.011l0.006-0.011h0.011l0.006-0.011h0.011v-0.006l0.017-0.006 0.006-0.011h0.011l0.011-0.017h0.011l0.006-0.011h0.011l0.006-0.011 0.017-0.006 0.011-0.017h0.002l0.011-0.017h0.011l0.006-0.011h0.33l-0.011 0.224 0.034 0.028c0.002 0 0.004 0 0.006 0 0.040 0 0.078-0.006 0.114-0.018l0.031 0.001c0.033-0.010 0.076-0.016 0.106-0.028 0.014-0.045 0.023-0.097 0.023-0.151 0-0 0-0 0-0l0.023-0.017v-0.006h1.529v0.006h0.034c0.027 0.007 0.058 0.012 0.090 0.012 0.006 0 0.011-0 0.017-0l0.407 0v-0.006l0.173-0.011h0.101c0.034-0.005 0.072-0.008 0.111-0.008 0.020 0 0.040 0.001 0.059 0.002l0.020-0v-0.006h0.213v0.006l0.023 0.006v0.006l0.593-0.006h0.403c0.030-0.005 0.065-0.008 0.101-0.008 0.018 0 0.035 0.001 0.053 0.002l0.428-0c0.034-0.005 0.074-0.008 0.114-0.008 0.023 0 0.045 0.001 0.067 0.003l0.343-0c0.015 0.001 0.033 0.002 0.050 0.002 0.036 0 0.070-0.003 0.105-0.008l0.914 0c0.016 0.001 0.035 0.002 0.053 0.002 0.037 0 0.072-0.003 0.108-0.008l0.729 0.006 1.645-0.006c0.010 0.001 0.022 0.001 0.033 0.001 0.030 0 0.059-0.002 0.087-0.007l0.657 0c0.019-0.002 0.041-0.002 0.063-0.002s0.044 0.001 0.065 0.003l0.048-0.006v0.006h0.023v-0.006h0.034v0.006c0.001 0 0.003 0.001 0.005 0.001 0.005 0 0.009-0.003 0.012-0.006 0.019-0.004 0.031 0.005 0.045 0.006l0.045-0.006v0.006c0.017 0.002 0.037 0.003 0.057 0.003 0.035 0 0.070-0.003 0.104-0.009l0.047 0c0.017 0.001 0.036 0.002 0.056 0.002 0.038 0 0.074-0.003 0.11-0.008l0.164 0v-0.006h0.14c0.031-0.009 0.084 0.004 0.117-0.006v-0.006h0.089l0.112-0.017c0.002-0.005 0.006-0.009 0.011-0.011l0-0.017 0.576-0.011c0.024 0.032 0.054 0.058 0.088 0.077l0.013 0.018h0.011l0.006 0.011h0.011l0.006 0.011h0.011l0.006 0.011 0.017 0.006v0.006l0.023 0.006 0.006 0.011h0.011v0.006h0.011l0.006 0.011h0.011l0.039 0.028v0.018l0.017 0.011v0.006l0.011 0.006v0.011l0.051 0.045v0.011l0.028 0.023 0.045 0.051h0.011l0.051 0.056h0.011l0.023 0.028h0.011l0.023 0.028h0.011l0.011 0.017h0.011l0.011 0.017h0.011l0.011 0.017h0.011l0.011 0.017h0.011l0.006 0.011h0.011l0.011 0.017h0.011l0.006 0.011h0.011l0.006 0.011 0.017 0.006v0.006l0.023 0.006v0.006l0.017 0.006 0.006 0.011h0.011v0.004h0.011l0.006 0.011h0.011v0.006h0.011l0.011 0.011h0.011l0.006 0.011h0.011l0.011 0.011h0.011v0.006h0.011v0.006h0.011v0.001h0.011v0.006l0.034 0.011v0.006h0.017v0.006l0.023 0.006v0.006h0.008v0.006l0.023 0.006v0.006h0.017v0.006h0.011v0.006h0.017v0.006h0.011v0.006l0.034 0.006v0.006h0.012v0.006l0.034 0.006v0.006h0.017v0.006h0.017v0.006h0.017v0.006h0.023v0.006h0.018v0.006h0.017v0.006l0.039 0.006v0.006l0.045 0.006v0.006l0.067 0.011v0.006h0.028c0.033 0.010 0.079 0.018 0.112 0.028l0.117 0.011v0.006h0.045v0.006h0.063v0.006h0.073c0.036 0.005 0.077 0.008 0.119 0.008 0.024 0 0.048-0.001 0.071-0.003 0.005 0.001 0.015 0.001 0.025 0.001 0.028 0 0.055-0.002 0.081-0.007l0.087 0v-0.006h0.063v-0.006h0.051v-0.006h0.045v-0.006h0.039v-0.006h0.034v-0.006h0.030v-0.006h0.034v-0.006h0.023v-0.005h0.028v-0.006h0.028v-0.006l0.045-0.006v-0.006l0.045-0.006v-0.006l0.039-0.006v-0.006h0.017v-0.006h0.023v-0.006h0.011v-0.006h0.020v-0.006h0.011v-0.006l0.051-0.011v-0.006l0.028-0.006v-0.006h0.011v-0.006h0.017v-0.006h0.011v-0.006h0.017v-0.006l0.034-0.011v-0.006h0.011v-0.006h0.011v-0.006h0.017v-0.006h0.011v-0.006h0.011l0.006-0.011h0.011v-0.006h0.011v-0.006h0.011l0.011-0.011h0.011l0.006-0.011 0.023-0.006 0.006-0.011 0.023-0.006 0.006-0.011h0.009l0.006-0.011h0.011l0.006-0.011h0.011l0.006-0.011h0.011l0.006-0.011h0.011l0.006-0.011h0.011l0.006-0.011h0.011v-0.001l0.017-0.006 0.006-0.011h0.011l0.011-0.017h0.011l0.006-0.011h0.011l0.006-0.011 0.017-0.006 0.017-0.023h0.011l0.011-0.017 0.017-0.006 0.034-0.039h0.011l0.063-0.067 0.073-0.067 0.006-0.017 0.039-0.034v-0.011l0.028-0.023v-0.011l0.023-0.017v-0.011l0.023-0.017v-0.011l0.017-0.011 0.006-0.017 0.011-0.006v-0.011l0.011-0.006 0.006-0.017h0.006v-0.011l0.011-0.006 0.006-0.017h0.001l0.006-0.017h0.291c0.005 0.022 0.007 0.047 0.007 0.073 0 0.012-0.001 0.024-0.002 0.035 0.012 0.012 0 0.039 0.006 0.061h0.006l0.006 0.067c0.007 0.015 0.015 0.034 0.021 0.053l0.242 0.026 0.006 0.028c0.017-0.001 0.032-0.005 0.046-0.012l-0.001-0.134c0.009-0.004 0.020-0.006 0.031-0.006 0.001 0 0.002 0 0.003 0 0.024 0.025 0.115 0.006 0.151 0.006 0.010 0.001 0.022 0.001 0.034 0.001 0.044 0 0.086-0.004 0.127-0.013l0.030 0.001v-0.006h0.023v-0.006l0.039-0.006v-0.006h0.017v-0.006h0.017v-0.006l0.095-0.023c0.15-0.057 0.325-0.084 0.481-0.134h0.028v-0.008h0.023v-0.006h0.028v-0.006h0.028v-0.006l0.258-0.023v-0.006h0.028v-0.006h0.023v-0.006h0.023v-0.006h0.017v-0.006h0.011v-0.006h0.017v-0.006h0.011v-0.006h0.014v-0.006l0.129-0.011v-0.006h0.051v-0.006h0.051v-0.006h0.051v-0.006l0.056-0.006v-0.006h0.028v-0.006h0.028v-0.006l0.063-0.006c0.082-0.025 0.181-0.031 0.263-0.056h0.031v-0.006h0.028v-0.006c0.007-0.003 0.016-0.004 0.025-0.004 0.023 0 0.044 0.010 0.059 0.027l0 0.011h0.011l0.006 0.011h0.011l0.006 0.011 0.067 0.023h0.038v-0.006h0.006l0.134-0.006v-0.006l0.117-0.006v-0.006h0.039v-0.006h0.034v-0.006h0.039c0.057-0.017 0.131-0.021 0.188-0.039h0.023v-0.006h0.017v-0.006h0.023v-0.006h0.006v-0.006h0.017v-0.006h0.011v-0.006h0.011v-0.006l0.023-0.017c0.006-0.009 0-0.012 0.011-0.023v-0.045h-0.006v-0.011h-0.005l-0.006-0.023-0.011-0.006c-0.007-0.013-0.011-0.028-0.011-0.045 0-0.002 0-0.004 0-0.006 0.008-0.005 0.008-0.011 0.017-0.017v-0.006l0.028-0.006v-0.006h0.023v-0.006h0.028v-0.006h0.017l0.006-0.011c0.041-0.033 0.067-0.084 0.067-0.14-0.014-0.008-0.016-0.017-0.032-0.021z"></path>
<path d="M21.35 7.341h-3.116v-5.831h-4.357v5.831h-3.159l5.316 6.144 5.317-6.144z"></path>
</svg>
