<!-- Generated by IcoMoon.io -->
<svg version="1.1" xmlns="http://www.w3.org/2000/svg" width="100%" height="100%" viewBox="0 0 32 32">
<title>icon_share</title>
<path d="M5.5 17.031q0 2.281 1.625 3.906t3.875 1.625q2 0 3.5-1.313l2.813 2.375q-0.313 0.625-0.313 1.375 0 1.438 1.031 2.469t2.469 1.031 2.469-1.031 1.031-2.469-1.031-2.469-2.469-1.031q-1.063 0-1.938 0.563l-2.75-2.313q0.688-1.25 0.688-2.688 0-1.875-1.125-3.375l3.625-4q0.688 0.313 1.5 0.313 1.438 0 2.469-1.031t1.031-2.469-1.031-2.469-2.469-1.031-2.469 1.031-1.031 2.469q0 1 0.5 1.813l-3.625 4.063q-1.313-0.813-2.875-0.813-2.25 0-3.875 1.594t-1.625 3.875z"></path>
</svg>
