<svg xmlns="http://www.w3.org/2000/svg" viewBox="0 0 32 32" width="100%" height="100%"><title>icon_park_next</title><path d="M16 6.4c-5.281 0-9.6 4.319-9.6 9.6s4.319 9.6 9.6 9.6 9.6-4.319 9.6-9.6-4.319-9.6-9.6-9.6zm0 18c-4.619 0-8.4-3.781-8.4-8.4s3.781-8.4 8.4-8.4 8.4 3.781 8.4 8.4-3.781 8.4-8.4 8.4zM29.2 16c0 3.663-1.5 6.962-3.837 9.363l-1.681-1.681a11 11 0 0 0 3.119-7.681c0-3-1.2-5.7-3.181-7.619l1.681-1.681c2.4 2.338 3.9 5.637 3.9 9.3zM8.381 23.619L6.7 25.3c-2.4-2.337-3.9-5.637-3.9-9.3s1.5-6.963 3.837-9.363l1.681 1.681a11 11 0 0 0-3.119 7.681c0 3 1.2 5.7 3.181 7.619zM19.3 16.481c.3-.3.538-.662.663-1.081.181-.481.238-1.019.238-1.738 0-.662-.063-1.262-.181-1.738-.119-.481-.363-.838-.6-1.137-.3-.3-.663-.481-1.081-.662-.419-.119-.962-.181-1.563-.181h-3.775v12h1.381v-4.738h2.337c.538 0 1.019-.063 1.438-.181.481-.063.844-.244 1.144-.544zm-2.581-.418h-2.338v-4.8h2.4c.363 0 .663.063.962.119.238.063.481.181.6.363.181.181.3.419.363.719s.119.719.119 1.2-.063.9-.119 1.2c-.063.3-.181.537-.363.719s-.363.3-.663.363c-.244.119-.544.119-.962.119z"/></svg>