<svg xmlns="http://www.w3.org/2000/svg" width="32" height="32" viewBox="0 0 32 32"><title>icon_igoogle</title><path d="M28.531 18.568l-.629.605c-.17.145-.195.194-.242.386-.024.219-.049.921-.049 1.163v2.954l-3.462.798c-1.404.219-2.663.412-3.995.412-6.682 0-9.224-4.915-9.224-8.764 0-4.697 3.607-9.055 9.781-9.055 1.307 0 2.566.194 3.704.508 1.816.509 2.663 1.138 3.196 1.502l-2.009 1.912-.847.194.605-.969c-.823-.799-2.325-2.276-5.181-2.276-3.826 0-6.707 2.906-6.707 7.143 0 4.552 3.293 8.837 8.57 8.837 1.55 0 2.349-.314 3.075-.605v-3.898l-3.655.194 1.937-1.041h5.133zM8.958 9.099c-.389 1.113-1.355 1.788-2.157 1.507s-1.136-1.41-.747-2.523c.389-1.113 1.355-1.788 2.157-1.507s1.136 1.41.747 2.523zM6.125 21.621s-.361 1.632.392 1.792c.616.131 1.161-.261 1.52-.588.299-.272.856-.841.856-.841l.485.003c-.817.768-2.027 2.776-4.031 2.538-2.465-.293-1.798-2.558-1.798-2.558l1.633-7.095s.04-.864-.808-1.07a82.944 82.944 0 0 0-.773-.186v-.408s1.447-.078 3.684-.471l.783-.003z"/></svg>