<!-- Generated by IcoMoon.io -->
<svg version="1.1" xmlns="http://www.w3.org/2000/svg" width="100%" height="100%" viewBox="0 0 32 32">
<title>icon_gps</title>
<path d="M19.728 16.062c0 2.024-1.641 3.665-3.665 3.665s-3.665-1.641-3.665-3.665c0-2.024 1.641-3.665 3.665-3.665s3.665 1.641 3.665 3.665z"></path>
<path d="M26.062 14.831h-1.441c-0.541-3.789-3.53-6.78-7.317-7.325v-1.442c0-0.598-0.543-1.082-1.212-1.082h-0.057c-0.669 0-1.212 0.484-1.212 1.082v1.442c-3.788 0.545-6.776 3.536-7.317 7.325h-1.488c-0.572 0-1.036 0.528-1.036 1.18v0.102c0 0.652 0.464 1.18 1.036 1.18h1.488c0.542 3.792 3.535 6.785 7.327 7.327v1.494c0 0.568 0.528 1.029 1.18 1.029h0.103c0.652 0 1.18-0.461 1.18-1.029v-1.494c3.792-0.541 6.785-3.534 7.327-7.327h1.441c0.598 0 1.082-0.528 1.082-1.18v-0.102c0-0.652-0.484-1.18-1.082-1.18zM16.063 22.289c-3.439 0-6.227-2.788-6.227-6.227s2.788-6.227 6.227-6.227 6.227 2.788 6.227 6.227c0 3.439-2.788 6.227-6.227 6.227z"></path>
</svg>
