<svg xmlns="http://www.w3.org/2000/svg" viewBox="0 0 32 32" width="100%" height="100%"><title>icon_morning</title><path d="M3.469 21.531h25.063v2.563H3.469v-2.563zM15.781 4.469h.563a.75.75 0 0 1 .75.75v2.063a.75.75 0 0 1-.75.75h-.563a.75.75 0 0 1-.75-.75V5.219a.75.75 0 0 1 .75-.75zM6.812 7.773l.398-.398a.75.75 0 0 1 1.061 0l1.458 1.458a.75.75 0 0 1 0 1.061l-.398.398a.75.75 0 0 1-1.061 0L6.812 8.834a.75.75 0 0 1 0-1.061zM5.156 13.906h2.063a.75.75 0 0 1 .75.75v.563a.75.75 0 0 1-.75.75H5.156a.75.75 0 0 1-.75-.75v-.563a.75.75 0 0 1 .75-.75zM24.719 13.969h2.063a.75.75 0 0 1 .75.75v.563a.75.75 0 0 1-.75.75h-2.063a.75.75 0 0 1-.75-.75v-.563a.75.75 0 0 1 .75-.75zM22.396 8.833l1.458-1.458a.75.75 0 0 1 1.061 0l.398.398a.75.75 0 0 1 0 1.061l-1.458 1.458a.75.75 0 0 1-1.061 0l-.398-.398a.75.75 0 0 1 0-1.061zM22.092 18.469a6.453 6.453 0 0 0 .533-2.59 6.563 6.563 0 1 0-12.577 2.632z"/></svg>