<svg xmlns="http://www.w3.org/2000/svg" viewBox="0 0 32 32" width="100%" height="100%"><title>icon_idea</title><path d="M4.458 13.82h2.099v2.115H4.458V13.82zM25.501 13.837h2.041v2.084h-2.041v-2.084zM17.794 26.335h-3.585a.6.6 0 0 0-.597.604.6.6 0 0 0 .597.603 1.2 1.2 0 0 0 1.195 1.204h1.195a1.2 1.2 0 0 0 1.195-1.204.6.6 0 0 0 .597-.603.599.599 0 0 0-.596-.604zM14.959 3.254h2.125v3.167h-2.125V3.254zM8.038 6.199L6.286 8.042l2.849 2.481 1.752-1.844zM17.794 24.528h-3.585a.598.598 0 0 0-.597.601c0 .337.267.604.597.604h3.585a.598.598 0 0 0 .597-.604.599.599 0 0 0-.597-.601zM23.886 5.888l-2.461 2.873 1.829 1.764 2.461-2.871zM16.001 9.472c-3.3 0-5.976 2.696-5.976 6.02 0 2.225 1.209 4.145 2.988 5.188v2.039a1.2 1.2 0 0 0 1.195 1.205h3.585a1.2 1.2 0 0 0 1.195-1.205V20.68a5.999 5.999 0 0 0 2.988-5.188c.001-3.324-2.673-6.02-5.975-6.02z"/></svg>