<svg xmlns="http://www.w3.org/2000/svg" width="32" height="32" viewBox="0 0 32 32"><title>icon_baidu</title><path d="M12.471 20.188c-.602.179-.893.645-.957.847-.069.201-.226.714-.089 1.157.265 1.001 1.134 1.046 1.134 1.046h1.248v-3.05h-1.336zM8.984 16.081c2.383-.512 2.058-3.363 1.988-3.986-.117-.961-1.247-2.639-2.779-2.505-1.929.172-2.211 2.959-2.211 2.959-.261 1.29.623 4.045 3.002 3.532z"/><path d="M23.391 19.892s-2.722-2.106-4.31-4.382c-2.157-3.357-5.218-1.99-6.241-.285-1.02 1.709-2.606 2.788-2.833 3.075-.229.281-3.287 1.933-2.609 4.951.68 3.015 3.065 2.958 3.065 2.958s1.758.172 3.796-.284c2.043-.455 3.8.112 3.8.112s4.765 1.598 6.067-1.477c1.304-3.072-.736-4.668-.736-4.668zm-8.157 4.575h-3.097c-1.339-.268-1.872-1.181-1.939-1.338s-.445-.892-.244-2.141c.577-1.87 2.227-2.007 2.227-2.007h1.65v-2.026l1.402.022v7.488zm5.772-.022h-3.564c-1.384-.357-1.448-1.339-1.448-1.339v-3.943l1.448.052v3.543c.088.302.557.371.557.371h1.468v-3.965h1.538v5.282zM26.053 13.916c0-.681-.564-2.733-2.663-2.733-2.103 0-2.381 1.936-2.381 3.305 0 1.306.109 3.127 2.721 3.071 2.609-.058 2.323-2.957 2.323-3.643zM19.08 11.525c1.761.231 2.889-1.648 3.115-3.071.231-1.421-.907-3.075-2.151-3.358-1.249-.287-2.809 1.713-2.949 3.017-.171 1.596.227 3.187 1.985 3.412zM13.409 11.302c1.315 0 2.379-1.516 2.379-3.388s-1.063-3.386-2.379-3.386-2.382 1.513-2.382 3.386 1.066 3.388 2.382 3.388z"/></svg>