<!-- Generated by IcoMoon.io -->
<svg version="1.1" xmlns="http://www.w3.org/2000/svg" width="100%" height="100%" viewBox="0 0 32 32">
<title>icon_pinterest</title>
<path d="M5.125 12.063q0 2.125 0.844 3.781t2.469 2.344q0.625 0.25 0.813-0.375 0-0.188 0.125-0.688t0.188-0.625q0.125-0.5-0.25-0.875-1.063-1.25-1.063-3.188 0-3.188 2.219-5.438t5.719-2.25q3.188 0 4.969 1.719t1.781 4.469q0 3.563-1.438 6.031t-3.688 2.469q-1.313 0-2.094-0.906t-0.469-2.156q0.188-0.75 0.563-1.969t0.625-2.156 0.25-1.625q0-1-0.563-1.688t-1.625-0.688q-1.313 0-2.219 1.188t-0.906 2.938q0 0.688 0.125 1.344t0.313 0.906l0.125 0.313q-1.813 7.5-2.125 8.75-0.563 2.375 0 6.125 0 0.125 0.125 0.156t0.25-0.031q2.25-3 2.875-5.313 1.188-4.063 1.188-4.375 0.438 0.813 1.531 1.406t2.406 0.594q3.813 0 6.25-3.125t2.438-7.938q0-3.688-2.875-6.438t-7.313-2.75q-5.375 0-8.469 3.125t-3.094 6.938z"></path>
</svg>
