<!-- Generated by IcoMoon.io -->
<svg version="1.1" xmlns="http://www.w3.org/2000/svg" width="32" height="32" viewBox="0 0 32 32">
<title>icon_digg</title>
<path d="M6.255 11.055h-4.145v8.873h7.127v-12.436h-2.982v3.564zM6.255 17.6h-1.236v-4.145h1.164l0.073 4.145z"></path>
<path d="M10.4 11.055h2.982v8.873h-2.982v-8.873z"></path>
<path d="M10.4 7.491h2.982v2.4h-2.982v-2.4z"></path>
<path d="M14.545 19.927h4.145v1.164h-4.145v2.4h7.127v-12.436h-7.127v8.873zM17.455 13.455h1.164v4.145h-1.164v-4.145z"></path>
<path d="M22.836 11.055v8.873h4.073v1.164h-4.145v2.4h7.127v-12.436h-7.055zM26.909 17.6h-1.164v-4.145h1.164v4.145z"></path>
</svg>
