<svg xmlns="http://www.w3.org/2000/svg" width="32" height="32" viewBox="0 0 32 32"><title>icon_sohu</title><path d="M7.274 16.662l-1.573.497v3.767c0 1.283-.524 1.531-2.525 1.504a5.13 5.13 0 0 0-.373-1.256c.317.014.621.014.869.014h.538c.193 0 .248-.069.248-.262v-3.38c-.51.166-.966.303-1.352.414-.014.124-.11.207-.221.235l-.386-1.476a77.3 77.3 0 0 0 1.959-.483V13.49H2.664v-1.2h1.794V9.517l1.559.069c-.014.124-.097.207-.317.235v2.47h1.49v1.2H5.7v2.428l1.421-.386.152 1.131zm6.857.442l.842.386c-.028.069-.097.11-.152.152-.538 1.173-1.38 2.097-2.414 2.814.98.4 2.083.69 3.256.855a5.198 5.198 0 0 0-.814 1.145c-1.366-.262-2.635-.676-3.739-1.256-1.255.593-2.69.98-4.208 1.228a4.405 4.405 0 0 0-.593-1.09c1.283-.166 2.525-.442 3.615-.869a8.085 8.085 0 0 1-1.863-1.89l.828-.331H7.233v-1.104h6.691l.207-.041zm-3.56-.235v-.938h-2.98v-5.27l.635.207c.579-.262 1.145-.579 1.504-.883l.842.773V9.503l1.476.097c-.014.11-.097.179-.303.207v5.077h1.973v-1.145h-1.435v-.966h1.435v-1.104h-1.476v-1.062h2.649v5.326h-3.146v.938h-1.173zm-1.835-1.986h1.835v-3.932h-.124c-.428.262-1.076.538-1.711.773v1.049h1.325v.966H8.736v1.145zm.552 3.366c.469.621 1.117 1.159 1.904 1.614.759-.428 1.407-.966 1.876-1.614h-3.78zM17.386 9.598c.538.497.98.993 1.338 1.504a10.22 10.22 0 0 0 .966-1.504l1.324.649c-.041.083-.138.138-.303.124-.345.607-.8 1.255-1.324 1.876.704 1.531.828 3.132.828 4.815 0 2.014-.124 3.946-.718 4.76-.29.359-.648.593-1.849.593-.193 0-.372 0-.566-.014-.014-.414-.124-.883-.345-1.256.331.028.635.028.883.028.51 0 .717 0 .924-.248.441-.566.441-3.187.441-4.056-.593.814-1.283 1.573-1.931 2.097-.193-.303-.552-.745-.855-.98.966-.621 2.042-1.849 2.677-2.98a7.508 7.508 0 0 0-.4-1.752c-.428.428-.869.828-1.325 1.187a5.223 5.223 0 0 0-.897-.842 11.54 11.54 0 0 0 1.669-1.531 7.726 7.726 0 0 0-1.462-1.78l.924-.69zm4.953 1.242c1.904-.345 3.946-.828 5.132-1.338l1.228.952c-.069.069-.193.069-.331.069-.276.097-.579.193-.924.29.235 4.346.704 8.568 2.056 10.693-.303.207-.759.635-.98.966-1.421-2.442-1.876-6.691-2.139-11.369-1.159.29-2.47.552-3.711.759v3.394c0 1.393-.097 3.215-.593 4.884l1.904-.11v-8.319l1.393.083c-.014.11-.083.179-.29.207v7.961l1.021-.069a22.958 22.958 0 0 0-.511-1.711l.869-.235c.428 1.2.855 2.746 1.021 3.794l-.924.262a13.63 13.63 0 0 0-.193-1.076c-1.449.166-2.87.317-3.808.4a.266.266 0 0 1-.221.193l-.331-1.173a7.948 7.948 0 0 1-1.049 2.152c-.166-.262-.621-.662-.924-.814 1.324-1.89 1.449-4.456 1.449-6.443v-4.65l.855.248z"/></svg>