<!-- Generated by IcoMoon.io -->
<svg version="1.1" xmlns="http://www.w3.org/2000/svg" width="100%" height="100%" viewBox="0 0 32 32">
<title>icon_foursquare</title>
<path d="M23.243 3.025c0 0-12.15 0-14.095 0s-2.517 1.46-2.517 2.379c0 0.92 0 22.351 0 22.351 0 1.036 0.558 1.42 0.871 1.546s1.178 0.234 1.697-0.363c0 0 6.654-7.706 6.769-7.82 0.173-0.173 0.173-0.173 0.346-0.173 0.346 0 2.911 0 4.305 0 1.809 0 2.1-1.288 2.289-2.046 0.157-0.635 1.922-9.653 2.512-12.514 0.45-2.183-0.106-3.36-2.176-3.36zM22.907 18.899c0.157-0.635 1.922-9.653 2.512-12.514zM22.41 6.832l-0.592 3.077c-0.071 0.333-0.49 0.683-0.88 0.683s-5.491 0-5.491 0c-0.618 0-1.060 0.42-1.060 1.036v0.671c0 0.617 0.445 1.053 1.063 1.053 0 0 4.223 0 4.659 0s0.864 0.477 0.77 0.942c-0.095 0.466-0.538 2.772-0.591 3.026s-0.346 0.69-0.864 0.69c-0.437 0-3.803 0-3.803 0-0.693 0-0.902 0.090-1.365 0.665s-4.63 5.569-4.63 5.569c-0.042 0.048-0.083 0.034-0.083-0.018v-17.441c0-0.393 0.343-0.855 0.857-0.855 0 0 10.87 0 11.311 0 0.416 0 0.805 0.39 0.699 0.901z"></path>
</svg>
