<!-- Generated by IcoMoon.io -->
<svg version="1.1" xmlns="http://www.w3.org/2000/svg" width="32" height="32" viewBox="0 0 32 32">
<title>icon_parklight_next</title>
<path d="M13.481 11.563c-0.363-0.363-0.781-0.6-1.262-0.781-0.537-0.181-1.137-0.238-1.863-0.238h-4.563v14.394h1.681v-5.7h2.819c0.662 0 1.262-0.063 1.738-0.181 0.537-0.119 0.963-0.363 1.319-0.719 0.363-0.3 0.6-0.781 0.781-1.319s0.3-1.262 0.3-2.037c0-0.781-0.063-1.5-0.238-2.037-0.175-0.606-0.412-1.081-0.713-1.381zM12.637 16.363c-0.063 0.363-0.238 0.663-0.419 0.9s-0.481 0.363-0.781 0.419c-0.3 0.063-0.719 0.119-1.137 0.119h-2.819v-5.762h2.881c0.419 0 0.838 0.063 1.137 0.119 0.3 0.063 0.537 0.238 0.719 0.481 0.181 0.238 0.363 0.481 0.419 0.9 0.063 0.363 0.119 0.838 0.119 1.381 0.006 0.6-0.056 1.081-0.119 1.444z"></path>
<path d="M16.837 14.738c0 0.063 0 0.119 0 0.181 0 0.363 0 0.662-0.063 1.019h9.419v-1.2h-9.356z"></path>
<path d="M16.6 12.581l7.8-4.5-0.6-1.019-7.619 4.375c0.119 0.238 0.238 0.537 0.3 0.838 0.056 0.063 0.056 0.188 0.119 0.306z"></path>
<path d="M15.819 19.063l7.981 4.619 0.6-1.019-8.037-4.681c-0.181 0.356-0.363 0.719-0.544 1.081z"></path>
</svg>
