<!-- Generated by IcoMoon.io -->
<svg version="1.1" xmlns="http://www.w3.org/2000/svg" width="100%" height="100%" viewBox="0 0 32 32">
<title>icon_wrench</title>
<path d="M27.875 10.025c0 3.244-2.656 5.9-5.9 5.9-0.706 0-1.356-0.119-2.006-0.356l-11.556 11.556c-1 1-2.537 1-3.537 0s-1-2.538 0-3.538l11.563-11.563c-0.238-0.65-0.356-1.3-0.356-2.006 0-3.244 2.656-5.9 5.9-5.9 0.706 0 1.356 0.119 2.006 0.356l-3.538 3.538c-0.469 0.469-0.469 1.181 0 1.65l1.887 1.887c0.469 0.469 1.181 0.469 1.65 0l3.538-3.537c0.231 0.656 0.35 1.3 0.35 2.012z"></path>
</svg>
