<!-- Generated by IcoMoon.io -->
<svg version="1.1" xmlns="http://www.w3.org/2000/svg" width="100%" height="100%" viewBox="0 0 32 32">
<title>icon_timer_pcm</title>
<path d="M17.494 7.069v-1.694h0.956v-1.5h-4.906v1.5h0.956v1.694c-5.119 0.725-9.063 5.138-9.063 10.475 0 5.844 4.725 10.581 10.563 10.581s10.563-4.738 10.563-10.581c0-5.338-3.944-9.75-9.069-10.475zM16 26.144c-4.738 0-8.581-3.85-8.581-8.6s3.844-8.6 8.581-8.6 8.581 3.85 8.581 8.6-3.844 8.6-8.581 8.6z"></path>
<path d="M14.606 16.85v0 0c0.006 0.769 0.631 1.394 1.394 1.394 0.769 0 1.387-0.619 1.394-1.394v0c0-0.006 0-0.006 0-0.012l-1.494-5.531-1.294 5.544z"></path>
</svg>
