<svg xmlns="http://www.w3.org/2000/svg" viewBox="0 0 32 32" width="100%" height="100%"><title>icon_morning-afternoon_next</title><path d="M22.944 21.9c0 .381-.313.694-.694.694s-.694-.313-.694-.694c0-3.063-2.494-5.556-5.556-5.556s-5.556 2.494-5.556 5.556c0 .381-.313.694-.694.694s-.694-.313-.694-.694c0-3.825 3.113-6.944 6.944-6.944 3.825 0 6.944 3.119 6.944 6.944zm4.856-.694h-2.775c-.381 0-.694.313-.694.694s.313.694.694.694H27.8c.381 0 .694-.313.694-.694s-.306-.694-.694-.694zm-5.419-4.994a.705.705 0 0 0 .494-.206l1.962-1.963c.269-.269.269-.713 0-.981s-.712-.269-.981 0l-1.962 1.963a.697.697 0 0 0 .488 1.187zM16 13.569a.697.697 0 0 0 .694-.694V10.1c0-.381-.313-.694-.694-.694s-.694.313-.694.694v2.775c0 .381.313.694.694.694zm-6.869 2.443a.693.693 0 0 0 .988 0 .697.697 0 0 0 0-.981l-1.975-1.969c-.269-.269-.713-.269-.981 0s-.269.713 0 .981l1.969 1.969zm-2.156 5.194H4.2c-.381 0-.694.313-.694.694s.313.694.694.694h2.775c.381 0 .694-.313.694-.694s-.313-.694-.694-.694z"/></svg>