<svg xmlns="http://www.w3.org/2000/svg" width="32" height="32" viewBox="0 0 32 32"><title>icon_suv-sunroof_pcm</title><path d="M2.875 15.363a.96.96 0 0 1 .263-.65c.694-.75 2.538-2.494 2.538-2.494 0-.519.419-.938.938-.938h2.831v.938H6.614v.406l-.294.275c-.019.019-1.825 1.725-2.487 2.444a.055.055 0 0 0-.019.044c-.013.938-.006 1.262-.006 1.363l.013.044v1.25c0 .031.019.056.044.063l2.712.837.156.444a1.868 1.868 0 0 0 2.219 1.206c.644-.163 1.125-.694 1.344-1.319l.175-.5h11.363l.181.512c.225.625.712 1.163 1.363 1.313.969.225 1.9-.331 2.206-1.238l.15-.444.444-.15 1.994-.65a.386.386 0 0 0 .025-.156v-.913c0-.363-.2-.694-.512-.837-2.2-1.025-6.05-1.188-6.088-1.188l-.212-.006-4.012-2.138a8.353 8.353 0 0 0-3.287-.669L7.174 8.937l.394-.85 6.719 3.2c.006.006.019.006.025.006a9.45 9.45 0 0 1 3.463.744l3.844 2.05c.012.006.012.006.019.006.194.006 4.063.181 6.406 1.256a1.92 1.92 0 0 1 1.094 1.744v.869c0 .544-.256.9-.644 1.025l-1.988.669a.058.058 0 0 0-.038.038 2.811 2.811 0 0 1-2.65 1.9 2.803 2.803 0 0 1-2.625-1.837c-.006-.025-.031-.038-.056-.038h-9.956c-.025 0-.05.019-.056.038A2.808 2.808 0 0 1 8.5 21.594a2.811 2.811 0 0 1-2.638-1.863.058.058 0 0 0-.037-.038l-2.231-.694a1.005 1.005 0 0 1-.706-.956v-1.137c-.025-.094-.013-1.031-.006-1.544z"/></svg>