<svg viewBox="0 0 79 26" xmlns="http://www.w3.org/2000/svg">
<path d="m74.562 16.267c-.06 2.354-1.56 4.199-3.619 5.614h-.004c-3.022 2.069-7.248 3.218-9.921 3.657-3.188.525-8.366.804-12.301-.289-2.709-.757-4.962-2.258-5.356-4.89-.349-2.349 1.349-4.301 3.652-5.925 3.554-2.51 7.442-3.018 7.442-3.018s-1.408-1.641-.876-3.626c1.567-5.851 11.197-7.572 15.219-7.764 7.859-.373 9.692 3.432 9.777 3.608l.003.005c.731 1.352.441 2.815-.323 4.172-1.727 3.063-6.166 4.666-6.166 4.666s2.474 1.212 2.474 3.792h-.001zm-3.055-12.308c-1.372-.301-6.015-.676-10.312 1.818l.004.005c-1.279.739-2.009 1.587-1.817 2.542.193.954 1.14 1.517 2.408 1.711 4.872.746 9.087-1.062 10.341-1.834 1.247-.767 1.919-1.759 1.817-2.504s-1.06-1.431-2.442-1.738zm-13.028 17.721c2.995-.369 5.087-1.142 6.614-2.049h-.005c2.705-1.613 2.269-3.062 2.269-3.062-.147-1.009-1.156-1.769-2.716-2.209-1.543-.435-3.63-.547-5.925-.268-2.543.305-5.01 1.147-6.516 2.064-1.522.923-2.37 1.952-2.274 3.083.09 1.057 1.144 1.786 2.683 2.205 1.522.418 3.584.52 5.871.235zm-49.434.957c2.403-4.199 9.921-13.138 21.621-18.794l-3.034-3.7c-3.038.441-5.813.676-9.318.757-2.925.063-5.313.122-7.673.096-2.67-.03-3.254.622-3.962 1.413l-.173.19s-.954 1.173-1.818 2.321c-.488.647-.944 1.284-1.187 1.7-.5.853.516 1.281 1.451.772 2.001-1.077 5.614-1.807 10.346-1.791 1.015 0 2.018-.021 2.994-.064.702-.03 1.403-.077 2.103-.139-9.49 4.859-15.663 12.011-20.395 20.36h4.134c1.92.02 3.334-.375 4.909-3.12h.001zm22.325 1.224 18.559-20.79-3.791-2.89c-.635.301-4.936 2.521-10.673 3.686l-3.603 4.096c3.657-.064 6.883-.129 6.883-.129l-16.109 17.957s3.198-.016 3.381-.022c2.194-.069 3.732-.209 5.35-1.904h.001v-.002z"/>
</svg>