<svg viewBox="0 0 94 25" xmlns="http://www.w3.org/2000/svg">
<path d="m78.294 7.045v17.955h15.706v-25l-7.616.045-16.384 2.557v-2.602l-7.616.045-16.508 2.58c-.26-1.466-1.537-2.591-3.073-2.591h-39.684c-1.718 0-3.119 1.409-3.119 3.136v9.114c0 1.727 2.068 3.136 3.785 3.136h27.345c2.52 0 2.249 3.136 0 3.136h-31.13v6.42h42.802c1.717 0 3.119-1.409 3.119-3.136v-13.705l8.373-1.102v17.955h15.706v-16.863l8.294-1.091zm-66.757-.864h19.65c.961 0 1.74.784 1.74 1.75s-.791 1.75-1.74 1.75h-19.65c-.96 0-1.74-.784-1.74-1.75s.791-1.75 1.74-1.75z"/>
</svg>