<svg viewBox="0 0 239 26" xmlns="http://www.w3.org/2000/svg">
<path d="m237.237 11.879c-.529-.811-1.056-1.338-1.658-1.622-.615-.282-1.328-.307-2.286-.147-.836.147-1.99.454-3.503.958-1.942.688-4.363 1.634-7.251 2.825 1.131-1.29 2.274-2.58 3.404-3.869-2.175.234-4.363.467-6.538.701-2.138 2.42-4.265 4.852-6.403 7.272-5.014 2.076-12.033 3.378-20.463 3.489-.565 0-1.488.012-2.126 0-.701-.025-1.364-.11-1.967-.344 9.439-1.867 17.464-4.066 20.721-5.601.394-.185.762-.381 1.032-.552.27-.184.454-.356.552-.541.098-.184.111-.392.037-.651-.074-.245-.234-.565-.467-.946-.761-1.216-1.868-2.321-3.072-3.095-.467-.307-.946-.552-1.585-.664-.652-.123-1.328-.074-2.077.012-1.021.123-2.041.282-3.282.565-5.261 1.253-11.639 3.734-16.039 6.928-.995.724-2.077 1.646-2.704 2.776-3.355.626-9.536 1.781-13.261 1.781-1.291 0-2.286-.16-2.557-.676-.123-.245-.062-.552.11-.872.185-.332.467-.663.737-.983 2.115-2.444 4.51-4.839 7.03-7.198 3.183-.392 6.268-.774 9.254-1.167 1.094-.147 2.102-.295 3.097-.749 1.021-.467 1.648-1.093 2.274-1.842.542-.651 1.021-1.29 1.463-1.941-3.675.552-7.546 1.093-11.577 1.658 2.557-2.211 5.174-4.385 7.744-6.498-2.557.27-5.114.552-7.682.823-2.654 2.199-5.346 4.447-7.951 6.756-1.807.245-3.638.491-5.481.749-1.021 1.228-2.04 2.444-3.061 3.673 1.463-.172 2.901-.356 4.338-.529-1.905 1.842-3.711 3.721-5.359 5.638-2.04.896-4.068 1.548-6.071 2.113-.209-1.13-1.463-2.039-2.802-2.653-2.15-.971-6.058-1.904-8.075-2.408-.357-.085-.701-.172-.971-.295-.27-.11-.417-.245-.417-.381s.147-.282.442-.43c.295-.147.712-.282 1.204-.405 2.839-.724 8.21-1.228 12.917-.86.32-.282.689-.614 1.069-1.02.16-.184.295-.344.369-.504.075-.16.075-.319 0-.454-.147-.295-.589-.454-1.168-.565-1.081-.222-2.47-.344-4.56-.344-6.157 0-12.462 1.24-15.424 2.433-.786.319-1.413.663-1.843 1.044-.43.38-.639.786-.639 1.18s.234.761.627 1.093c.392.332.921.577 1.462.786 2.52.958 7.644 1.83 9.809 2.568.442.147.811.307 1.081.491.258.184.405.369.405.565s-.123.392-.369.565c-.123.085-.27.172-.442.257-.173.085-.37.16-.578.222-3.183 1.02-10.016.541-13.433-1.203-1.696.344-3.454.724-5.261 1.044-1.131.197-2.065.319-3.072.147-.971-.172-1.819-.589-2.692-1.191s-1.843-1.425-3.072-2.616c6.083-2.948 11.971-5.38 16.752-6.83-1.093-.257-2.262-.541-3.478-.761-.712-.135-1.548-.222-2.752-.098-1.156.123-2.151.392-3.196.724-2.95.946-6.403 2.358-10.091 4.078-1.168-1.265-2.519-2.775-4.092-4.569-5.015 1.327-6.588 1.572-12.438 2.039-.614-.541-1.499-.934-2.667-1.18s-2.52-.332-4.018-.307c-6.6.098-14.563 2.149-19.812 5.245-.811.479-1.524.97-2.163 1.523-.627.552-1.143 1.155-1.499 1.794-1.708.369-3.441.701-5.187 1.008 1.069-1.155 1.229-2.296.737-3.279-.504-.983-1.61-1.732-3.036-2.346-2.2-.946-5.469-1.757-9.856-2.273 6.096-.577 11.098-1.51 14.453-2.702 1.683-.589 3.109-1.315 4.105-2.124.984-.811 1.451-1.658 1.328-2.469-.11-.823-.799-1.535-1.88-2.124-1.094-.602-2.434-.983-3.601-1.24-9.98-2.264-29.276-1.146-36.748.39-.836.172-1.548.357-2.31.749-.749.381-1.376.86-1.93 1.327-.712.602-1.339 1.191-1.955 1.794 2.741-.332 5.371-.614 7.915-.872-5.421 5.098-10.828 10.182-16.248 15.28 3.024-.062 6.047-.11 9.07-.172 2.028-2.064 4.068-4.14 6.096-6.203 8.111.049 16.469.454 21.545 1.487 1.168.234 2.225.529 3.024.971.774.43 1.179.958 1.118 1.498-.062.552-.565 1.056-1.389 1.487-.849.442-1.843.701-2.741.896-8.111 1.817-19.615 2.051-43.053 1.83-.652 0-1.291 0-1.991.049-.701.062-1.351.172-1.978.344-1.303.369-2.188.934-2.999 1.535-.749.564-1.426 1.118-2.212 1.806 12.795.491 43.446 1.867 69.342-3.611.307.823.996 1.51 2.065 1.966 1.081.467 2.458.676 4.178.724 8.48.27 18.496-3.169 22.418-6.252 1.352-1.068 2.532-2.518 2.777-3.992 2.617-.197 5.284-.442 7.878-.799 1.032 1.18 1.966 2.223 2.815 3.169-4.745 2.408-9.649 5.159-14.184 7.898 1.955 0 3.908 0 5.863-.085 1.057-.049 1.856-.123 2.642-.369.725-.234 1.339-.602 2.003-.971 2.115-1.203 4.278-2.383 6.44-3.513 1.549 1.597 2.815 2.74 3.97 3.636.824.639 1.488 1.044 2.385 1.203.872.16 1.966.074 3.453-.172 1.906-.307 4.855-.933 7.301-1.51 5.089 2.039 15.572 3.01 26.486-.983-.332.786-.282 1.51.357 2.002.32.245.75.417 1.303.541.565.123 1.192.172 1.918.197 6.354.245 14.822-1.327 19.934-2.531.382.761 1.168 1.375 2.385 1.806 1.216.431 2.765.639 4.572.712 5.776.258 14.244-.712 21.225-2.58-.774.872-1.536 1.744-2.31 2.616.996 0 2.323 0 3.663-.025h-.27c.799-.012 1.573-.062 2.421-.479.406-.197.787-.467 1.169-.799.381-.344.701-.688 1.031-1.068 1.217-1.375 2.422-2.752 3.639-4.127 3.244-1.216 7.546-2.603 10.078-3.255 1.031-.258 1.88-.442 2.532-.282.664.16 1.216.676 1.61 1.854 1.733-.184 3.65-.392 5.911-.651-.467-1.375-1.119-2.85-1.77-3.869h.012l-.005-.004zm-203.908-1.02c2.274-2.309 4.547-4.631 6.821-6.94 8.358-.577 14.908-.614 18.963-.098 1.241.16 2.2.369 2.864.626.652.257.983.565.983.909s-.344.701-.959 1.056c-.627.357-1.499.688-2.495 1.008-4.412 1.375-13.359 2.923-26.166 3.439h-.012zm58.367 6.756c-2.114 1.56-7.558 3.378-11.688 3.317-1.021-.012-1.795-.147-2.36-.405-.552-.257-.861-.627-.922-1.068-.061-.442.123-.946.479-1.437.369-.504.909-.958 1.511-1.363 2.63-1.744 7.484-2.972 11.294-2.997.689 0 1.376.037 1.978.234.59.184.996.504 1.156.933.344.884-.405 2.002-1.463 2.788h.014zm96.418 1.202c.442-.454 1.241-.995 2.262-1.548 3.121-1.707 8.295-3.648 11.466-4.348.627-.135 1.032-.197 1.364-.172.344.025.639.135.984.356.209.135.417.282.589.442.258.234.357.381.258.529-.099.147-.382.282-.836.454-2.999 1.13-10.791 3.022-16.089 4.287z"/>
</svg>