<svg viewBox="0 0 245 35" xmlns="http://www.w3.org/2000/svg">
<path d="m244.341 19.819c-.263-.323-.621-.43-1.088-.323-.622.166-1.889.405-3.778.715s-4.352.609-7.365.895c-3.014.287-6.206.43-9.589.43-.849 0-1.494-.059-1.961-.179-.18-.049-.335-.107-.478-.191 3.755-.74 7.186-1.516 10.294-2.303 3.575-.906 6.373-1.754 8.418-2.529s3.061-1.409 3.061-1.897-.311-1.145-.921-1.958-1.35-1.539-2.223-2.16-1.686-.943-2.451-.943c-2.26 0-5.284.633-9.075 1.898s-7.102 2.805-9.959 4.607c-2.188 1.384-3.527 2.72-4.029 3.985-.836.215-1.649.381-2.427.501-1.183.179-2.153.251-2.882.202-.741-.036-1.1-.166-1.1-.381 0-.191.286-.645.86-1.348s1.196-1.444 1.876-2.208c.957-1.063 1.686-1.921 2.212-2.59.514-.669.778-1.121.778-1.372 0-.274-.072-.609-.227-1.003s-.382-.74-.693-1.014c-.31-.286-.692-.43-1.123-.43-1.423 0-3.562.405-6.444 1.205-2.63.74-6.492 1.993-11.526 3.77l4.435-4.844-6.624.691-6.301 7.136c-1.686.574-3.204 1.038-4.555 1.409-1.351.37-2.403.609-3.168.715-.765.108-1.147.071-1.147-.12s.286-.645.86-1.348 1.196-1.444 1.877-2.208c.956-1.063 1.685-1.921 2.211-2.59.514-.669.778-1.121.778-1.372 0-.274-.071-.609-.227-1.003-.156-.395-.382-.74-.692-1.014-.311-.286-.693-.43-1.124-.43-1.423 0-3.562.405-6.444 1.205-2.63.74-6.492 1.993-11.526 3.77l4.435-4.844-6.624.691-6.11 6.933c-1.159.489-2.534.979-4.112 1.455-1.662.501-4.017.979-7.054 1.431-3.038.452-6.588.669-10.654.669-.849 0-1.494-.059-1.961-.179-.179-.049-.334-.107-.478-.191 3.754-.74 7.185-1.516 10.293-2.303 3.575-.906 6.373-1.754 8.418-2.529s3.061-1.409 3.061-1.897-.311-1.145-.921-1.958c-.609-.812-1.35-1.539-2.223-2.16s-1.686-.943-2.451-.943c-2.259 0-5.284.633-9.075 1.898s-7.101 2.805-9.959 4.607c-2.583 1.646-3.982 3.198-4.22 4.678-1.769.609-3.598 1.289-5.512 2.04-2.199.871-4.292 1.754-6.277 2.649-.49.227-.968.441-1.423.656 2.14-2.219 4.46-4.558 6.959-7.017 3.419-3.377 6.732-6.397 9.912-9.057l-7.604.656-1.47 1.587c-1.208 1.301-2.428 2.625-3.647 3.95-1.016.405-2.046.811-3.122 1.194-1.757.62-3.324 1.133-4.686 1.528-1.363.395-2.307.596-2.821.596-.191 0-.323-.059-.406-.166-.084-.108-.131-.227-.166-.37-.059-.298.562-1.205 1.841-2.733 1.279-1.526 3.026-3.389 5.236-5.584l-6.504.691c-2.069 2.173-4.112 4.475-6.144 6.897-1.949.728-3.419 1.24-4.4 1.528s-1.638.43-1.961.43c-.215 0-.418-.131-.61-.405-.191-.274-.347-.596-.467-.955-.12-.37-.179-.691-.179-.955 0-.215.12-.501.371-.859s.753-.955 1.531-1.79c.778-.848 1.768-1.885 2.965-3.138l1.47-1.551h-5.237c-3.682 0-7.915.513-12.721 1.551-4.794 1.038-8.895 2.386-12.303 4.045-2.069 1.003-3.503 2.053-4.316 3.127l-1.817.144c-7.388.596-14.455 1.098-21.221 1.491-6.755.394-12.972.476-18.628.251-5.655-.226-8.489-1.063-8.489-2.505 0-1.301 2.798-2.947 8.405-4.939 5.595-1.98 12.911-3.926 21.939-5.836s18.328-3.4 27.928-4.487c.705-.871 1.136-1.539 1.267-2.004.132-.466.049-.788-.263-.955-.311-.179-.813-.263-1.494-.263-6.157 0-14.719.955-25.68 2.876-10.951 1.921-20.611 4.414-28.968 7.506-8.334 3.046-12.507 6.28-12.507 9.681 0 2.78 3.527 4.487 10.569 5.143 7.043.656 15.459.609 25.25-.144 8.19-.633 15.937-1.455 23.242-2.493.621 1.194 2.199 1.85 4.723 1.969 3.347.144 7.341-.609 11.955-2.29 2.153-.776 4.173-1.694 6.073-2.733.467 1.194.885 2.112 1.22 2.733.406.751.778 1.253 1.101 1.516s.705.381 1.147.381c.682 0 2.475-.513 5.379-1.551.682-.239 1.339-.476 1.972-.715-.311.574-.455 1.014-.431 1.325.024.323.191.574.49.74.298.166.778.251 1.434.251 1.112 0 2.667-.251 4.638-.74 1.973-.489 4.053-1.133 6.229-1.921 1.208-.441 2.319-.884 3.359-1.336-.67.728-1.328 1.455-2.009 2.195-3.216 3.533-7.019 7.744-11.406 12.613l3.552-.37c2.045-1.468 4.113-2.805 6.216-3.997 2.104-1.192 4.807-2.518 8.129-3.974 2.535-1.11 5.607-2.351 9.23-3.712.048.036.083.084.131.12.683.525 1.674.906 2.965 1.145 1.291.227 2.893.346 4.807.346 2.666 0 5.619-.215 8.847-.633 3.229-.417 6.313-1.014 9.266-1.778.359-.095.705-.191 1.052-.286l-2.153 2.447h3.144c.956 0 1.768-.108 2.438-.322.67-.215 1.231-.574 1.698-1.063l3.67-3.962c3.026-1.014 5.643-1.85 7.843-2.505 2.606-.776 4.543-1.289 5.822-1.528 1.279-.251 1.925-.263 1.925-.036 0 .084-.215.381-.657.895s-.932 1.086-1.471 1.719c-1.278 1.444-2.294 2.637-3.025 3.568-.742.943-1.101 1.587-1.101 1.934 0 .93 1.101 1.301 3.288 1.121s4.758-.669 7.711-1.492c.873-.239 1.698-.489 2.487-.728l-2.116 2.398h3.143c.957 0 1.769-.108 2.439-.323s1.231-.574 1.698-1.062l3.67-3.962c3.026-1.014 5.643-1.85 7.843-2.505 2.606-.776 4.542-1.289 5.822-1.528 1.279-.251 1.925-.263 1.925-.036 0 .084-.215.381-.657.895-.443.514-.932 1.086-1.471 1.719-1.279 1.444-2.294 2.637-3.026 3.568-.741.943-1.1 1.586-1.1 1.934 0 .93 1.064 1.384 3.192 1.373s4.603-.323 7.424-.943c1.471-.322 2.762-.645 3.898-.966.371.525.957.943 1.781 1.253 1.483.561 3.67.835 6.564.835 2.153 0 4.638-.131 7.461-.405s5.631-.656 8.417-1.145 5.237-1.05 7.341-1.67c-.167-.68-.371-1.181-.634-1.516h-.036.011zm-174.124.654c-2.546.405-3.826.274-3.826-.405s1.196-1.551 3.574-2.637c2.38-1.074 5.225-2.016 8.5-2.815 2.918-.715 5.499-1.11 7.759-1.181l-.334.31c-1.746 1.611-4.161 3.03-7.233 4.26-3.085 1.24-5.895 2.065-8.442 2.47h.002zm60.424-3.331c2.057-1.05 4.353-2.004 6.863-2.852 2.522-.859 4.232-1.289 5.128-1.289.192 0 .431.071.729.227.299.156.563.323.778.525.215.203.323.359.323.466 0 .191-.717.513-2.164.979-1.448.466-3.562 1.05-6.36 1.754-2.295.584-4.974 1.229-8.023 1.958.467-.501 1.362-1.098 2.703-1.778l.023.011zm91.785 0c2.056-1.05 4.352-2.004 6.862-2.852 2.522-.859 4.232-1.289 5.129-1.289.191 0 .43.071.741.227.298.156.562.323.778.525.215.203.323.359.323.466 0 .274-1.627.859-4.866 1.754-2.857.788-6.754 1.765-11.68 2.947.467-.501 1.362-1.098 2.702-1.778h.012z"/>
</svg>