<svg viewBox="0 0 229 35" xmlns="http://www.w3.org/2000/svg">
<path d="m228.667 20.09c-.07-.246-.187-.504-.468-.62-.279-.117-.595-.047-.888.035-2.547.716-4.499 1.008-5.889 1.055-.817.023-1.472-.035-1.659-.293-.093-.129-.07-.304.047-.539.129-.234.35-.504.632-.844 1.519-1.816 3.329-3.716 4.381-5.239.187-.269.315-.48.362-.691s0-.457-.07-.704c-.164-.609-.398-1.02-.748-1.359-.164-.164-.338-.293-.56-.374-.234-.093-.421-.105-.667-.105-1.379 0-3.517.41-6.308 1.196-2.604.727-6.402 1.98-11.402 3.739 1.273-1.395 2.629-2.884 4.381-4.817-2.185.234-4.357.457-6.542.692-2.033 2.321-4.111 4.689-5.866 6.681-2.102.774-3.796 1.43-5.701 1.874-.386.093-.643.129-.877.035-.222-.093-.386-.316-.526-.562-.129-.223-.245-.48-.338-.774-.047-.141-.105-.351-.141-.539-.035-.199-.047-.374 0-.562.07-.374.349-.716.595-1.008 1.694-2.016 3.774-4.102 5.644-6.106-12.489-.422-22.654 2.146-29.885 5.544-.935.434-1.951.962-2.91 1.723-.934.739-1.648 1.593-1.985 2.497-1.227.304-2.384.492-3.505.585-.433.035-1.075.082-1.52.07-.478-.012-.794-.082-.9-.269s.023-.469.292-.856c.246-.363.654-.832.934-1.149 1.366-1.605 2.501-2.895 3.598-4.359.164-.211.292-.399.327-.634.035-.211-.023-.434-.093-.669-.152-.457-.386-.867-.806-1.242-.164-.153-.338-.269-.548-.339-.222-.082-.409-.093-.643-.093-.702 0-1.565.129-2.581.351-.982.211-2.267.55-3.4.892-2.63.774-5.153 1.723-7.711 2.696.398-.574.678-1.008.83-1.312.081-.164.152-.316.164-.469 0-.153-.035-.316-.082-.469-.129-.41-.304-.762-.702-1.102-.176-.153-.362-.258-.596-.339-.233-.07-.432-.093-.677-.093-.643 0-1.542.141-2.617.387-1.157.269-2.347.62-3.948 1.137-2.419.785-4.755 1.593-7.033 2.427l-.023.023c1.227-1.347 2.546-2.801 4.241-4.666-2.185.234-4.358.469-6.543.692-2.289 2.613-4.638 5.298-6.519 7.42-4.801 1.828-10.62 4.583-15.316 7.056 6.298-6.505 11.158-11.264 16.181-15.472-2.489.211-4.965.434-7.454.646-1.671 1.816-3.353 3.634-5.012 5.462-2.979 1.231-6.882 2.532-8.915 3.024-.432.105-.817.188-1.168.199-.339.012-.595-.023-.747-.141s-.199-.293-.116-.539c.082-.258.269-.562.548-.95 1.146-1.582 3.364-4.067 6.343-7.056-2.126.223-4.252.457-6.367.681-1.928 2.039-3.843 4.196-5.747 6.458-1.951.716-3.575 1.266-5.375 1.758-.386.105-.632.153-.877.035-.222-.105-.386-.328-.526-.574-.129-.223-.245-.48-.339-.774-.047-.141-.105-.351-.141-.539-.035-.199-.047-.374 0-.562.07-.374.35-.716.596-1.008 1.694-2.016 3.774-4.102 5.644-6.106-12.489-.422-22.654 2.146-29.885 5.544-.655.304-1.366.669-2.091 1.137-.713.469-1.366 1.008-1.893 1.605-20.269 2.356-36.392 2.907-45.493 1.746-.618-.082-1.437-.199-2.197-.48-.748-.269-1.331-.657-1.519-1.161s.047-1.102.829-1.758c.795-.669 2.068-1.347 3.844-2.11 10.667-4.559 33.061-9.4 52.538-11.568.374-.457.667-.856.877-1.196.456-.739.596-1.301.245-1.641-.335-.326-1.071-.361-1.62-.361-10.69-.035-36.999 3.892-53.682 10.279-4.218 1.605-7.15 3.105-9.16 4.642-1.998 1.524-3.037 3.037-3.2 4.408s.549 2.638 2.337 3.622c1.799.997 4.685 1.711 9.322 2.134 10.538.938 26.45 0 46.124-2.673.468.786 1.414 1.336 2.604 1.653 1.227.316 2.442.316 3.318.281 5.981-.246 11.917-2.52 16.531-4.993.374.927.69 1.734 1.203 2.696.35.669.771 1.383 1.379 1.699s1.261.176 1.787.047c1.928-.48 3.844-1.207 5.959-1.97-.211.387-.444.809-.538 1.219-.082.41-.012.751.304.985s.84.351 1.588.339c.748 0 1.612-.141 2.535-.316 3.166-.597 7.501-1.804 10.878-3.082-4.148 4.595-8.4 9.283-12.642 14.03l3.364-.351c5.176-4.219 12.899-8.276 21.285-11.627-.385.445-.782.903-1.168 1.336h2.768c1.029 0 1.905 0 2.793-.339.433-.164.817-.387 1.192-.681.374-.304.678-.62 1.004-.973.982-1.067 2.079-2.251 3.144-3.412 3.505-1.289 6.495-2.309 8.692-2.907.724-.199 1.285-.328 1.624-.374.349-.058.537-.058.595.035s-.012.269-.187.55c-.164.269-.455.716-.805 1.207-1.648 2.356-3.423 4.548-5.257 6.893h2.979c.409 0 .83 0 1.308-.07.468-.07.924-.199 1.356-.387.42-.188.782-.434 1.086-.704.304-.281.526-.55.736-.821.924-1.196 1.834-2.392 2.746-3.598 2.967-1.113 5.607-2.063 8.762-2.871 1.355-.351 2.009-.469 2.102-.246.047.117-.035.316-.246.597-.199.281-.513.657-.864 1.067-.877 1.008-1.729 1.935-2.803 3.259-.386.48-.865 1.09-1.181 1.664-.303.574-.409 1.055-.199 1.407.211.352.725.562 1.496.669.759.105 1.741.093 2.687.047 3.505-.188 6.963-1.02 9.836-1.804.549.739 1.495 1.242 2.641 1.523 1.18.281 2.336.293 3.178.258 5.981-.246 11.917-2.52 16.531-4.993.375.927.69 1.734 1.203 2.696.35.669.771 1.383 1.38 1.699.607.316 1.261.176 1.787.047 1.798-.457 3.597-1.113 5.548-1.816-.666.774-1.402 1.605-2.102 2.403h2.768c1.028 0 1.905 0 2.792-.339.433-.164.818-.387 1.192-.681.375-.304.678-.62 1.005-.973.958-1.032 2.021-2.192 3.06-3.317 4.989-1.676 9.299-3.024 12.325-3.751.864-.211 1.6-.363 2.067-.434.491-.07.76-.058.853.035.093.105 0 .304-.222.62-.211.293-.572.727-.959 1.184-1.192 1.395-2.277 2.567-3.703 4.371-.398.504-.76.985-.959 1.43s-.211.821 0 1.113c.456.597 1.822.727 3.049.739 4.475.035 9.58-1.336 14.008-2.719-.116-.739-.222-1.242-.315-1.558l-.023-.012.005-.002h.001zm-159.869.199c-.549.105-1.46.269-2.302.258-.817 0-1.355-.188-1.437-.539s.292-.832.981-1.347c.702-.515 1.577-.962 2.278-1.289 4.813-2.227 12.057-3.985 16.309-4.09-4.614 4.219-11.086 6.071-15.829 6.998v.011zm103.638 0c-.548.105-1.46.269-2.301.258-.818 0-1.356-.188-1.438-.539s.292-.832.982-1.347c.701-.515 1.577-.962 2.277-1.289 4.814-2.227 12.057-3.985 16.31-4.078-4.614 4.219-11.087 6.071-15.83 6.996z"/>
</svg>