<svg viewBox="0 0 238 25" xmlns="http://www.w3.org/2000/svg">
<path d="m137.7584 14.7567c.0819 1.6588-1.6595 3.0849-3.3791 4.099-3.9989 2.3579-8.8278 3.6766-15.9545 4.8333-7.993 1.2971-23.3614 1.3231-32.2225.3827 1.6232-1.2935 3.2468-2.5869 4.87-3.8807 7.8511 1.1052 25.1888.4635 32.2403-1.8989 3.6681-1.2286 5.1468-3.03-.1119-4.136-2.953-.6213-8.2505-.904-12.7633-.721 1.1267-1.0541 2.2535-2.1082 3.3802-3.1619 5.6733-.0649 12.876-.6977 16.2547-1.5632 1.7692-.4531 3.4161-1.1993 3.3954-1.9537-.0208-.7681-1.7336-1.2668-3.8215-1.5195-3.9689-.4802-11.2398-.3405-21.0628.6643 1.6721-1.3509 3.3442-2.7021 5.0167-4.053 8.2746-1.0645 21.972-1.156 26.9917.7555 3.7244 1.4179 4.1783 4.2738-.475 6.6725-1.6369.8437-3.9074 1.6358-6.9056 2.295 2.7881.4587 4.4713 1.6395 4.5473 3.1856zm-124.2636 1.096c12.5303-5.9007 28.324-9.2268 46.6887-10.0949 1.3579-1.352 2.7155-2.7044 4.0734-4.0563-22.0632.6536-40.243 3.6503-56.1301 11.2542-3.5276 1.6884-7.5666 4.1149-7.7633 6.8767-.1997 2.8062 3.8314 4.1919 8.1638 4.7292 7.6355.9467 20.2473.2308 26.7108-.9144 3.1227-.5532 6.5906-1.5217 9.7489-2.8689 4.1167-1.7555 6.415-4.0015 9.1097-6.6955 1.2097-1.2093 2.385-2.4298 3.4924-3.561-7.053.073-19.2495.8544-24.8105 2.4791-.7143.209-1.0422.3542-1.6643.7355-1.0849.6647-2.0797 1.445-2.9848 2.3412 4.4932-.3568 14.5922-1.5598 20.2688-1.8203-.6339.4661-1.3157.977-2.0156 1.4702-1.4439 1.0174-2.3868 1.5539-4.0941 2.1064-2.099.6784-4.8077 1.2857-7.581 1.7051-5.9952.907-16.1109 1.5154-21.344 1.0445-2.0304-.1827-3.9578-.6276-3.9322-1.6406.0252-1.0063 1.9122-2.0771 4.0634-3.0901zm88.543-10.0924c-.0055-.0001-.0112-.0002-.0168-.0004h-.0007l.0174.0004zm-.0168-.0004c2.6516.0588 3.7994-.4455 5.1346-1.7947.8551-.8644 1.6629-1.7529 2.4228-2.6658-13.3073-.3249-30.4837-.1671-41.1181.2916-1.3798 1.3253-2.7592 2.6506-4.139 3.976 4.2949-.0559 9.7514-.0778 15.5555-.0619-5.4465 6.4925-10.8986 12.9827-16.3513 19.4729 1.399 0 2.7981-.0104 4.1971-.0308.7114-.0104 1.5736-.1226 2.7814-.7799 1.1519-.6269 1.8777-1.3487 2.3783-1.8796 5.6225-5.9612 9.87-10.6763 14.9193-16.7378 4.9032.0422 9.7942.1113 14.2193.2101zm135.1448-3.2345c-1.1315 1.4516-2.2631 2.9037-3.395 4.3553-.2182.2801-.5006.3853-.91.3846-5.0386-.0111-10.9123.0067-16.0527.4276-1.681.1375-3.1001.425-4.0189.9682 6.1008-.0048 12.2016-.0096 18.3024-.0145 1.2672-.0007 1.5328.767 1.1445 1.5543-1.5047 3.0534-4.0112 6.5465-7.4977 9.4843-2.3049 1.9419-4.618 3.3557-8.9575 4.1679-4.2946.8036-10.0397.884-14.5688.9178-5.9048.0434-11.8126.0259-17.7182.0319-1.8203.0019-4.4372-.2631-8.2883-1.2323-4.6629-1.1738-10.1257-3.0526-12.5055-4.1808-1.0982-.5206-1.1178-1.1349-.4198-2.0196 1.9667-2.4924 3.933-4.9849 5.8993-7.4773.2256-.286.5739-.4524.9011-.4516 1.95.0045 3.5513.0078 5.0697.0089 1.2627.0007 3.5291-.4987 4.1042-1.1875-3.8237-.0159-7.6473-.0319-11.4706-.0478-4.1793 5.119-8.3583 10.2383-12.5377 15.3573-.6054.7418-1.2653 1.1553-2.369 1.1668-3.7877.0396-7.5754.0793-11.3632.1185-1.5554.0163-1.9426-.7221-1.0422-1.8422 5.7903-7.2068 11.5807-14.4136 17.371-21.6204.2846-.3542.5202-.4787.9719-.4794 9.837-.02 19.6741-.04 29.5111-.06 3.0089-.0059 5.4139.4172 6.631 2.4983 1.159 1.9815.2805 3.7006-.9111 5.3298-1.3053 1.7855-2.6547 3.5706-4.0478 5.3561-.7629.9774-1.4513 1.1775-2.6184 1.2612-.8918.0641-3.4409.2468-4.4617.3201-.7784.0556-1.2875.2379-1.894.7132 2.1627.2256 4.3153.2883 7.6036.3435 6.6006.1104 11.0386.0608 17.69-.1634 2.8281-.0952 4.5895-.5324 5.4717-1.2434-5.2761-.0471-10.5525-.0945-15.8286-.1415-2.7173-.0244-3.734-1.4828-1.8159-4.3005 1.7681-2.598 3.9756-5.0997 7.9919-7.2427 4.0804-2.1771 7.9145-2.8403 11.0945-3.0956 6.4093-.5146 17.1174-.5383 23.6769-.4524 1.7277.0226 2.2023 1.276 1.2579 2.4872zm-2.4787-.3394c-6.1286-.0697-16.1331-.03-22.1143.4476-3.2779.2619-7.1164.9648-11.1005 3.2557-3.9882 2.2931-5.7481 4.7937-6.9693 7.0193 6.305.0741 12.6103.1482 18.9153.2219.6276.0074 1.2301.1008 1.4594.6191.2286.5161-.113.9996-.4757 1.3987-.5724.6299-1.2953 1.2168-2.2686 1.8829-1.3409.9174-3.8644 1.5402-6.3291 1.6284-6.9997.2508-12.561.2994-18.647.1756-2.9674-.0604-6.4083-.1626-9.3517-.5895-1.0945-.1586-1.4313-.9907-.6595-1.9552.2204-.2749.668-.7973.89-1.0382 1.2408-1.3464 2.4958-1.7018 3.8344-1.7977 1.5291-.1097 3.0582-.2197 4.5877-.3294.4709-.0337.5758-.0885.7944-.3668 1.3149-1.6754 2.5862-3.3509 3.8133-5.026.8774-1.1975 1.6699-2.4624.8196-3.4969-.887-1.0786-3.0167-1.2282-4.9686-1.2238-9.5503.0222-19.1005.0441-28.6508.0663-5.2498 6.5317-10.4999 13.0638-15.7496 19.5955 3.1078-.03 6.2161-.06 9.3239-.0897.3553-.0037.5117-.113.6647-.3005 4.2705-5.2312 8.5414-10.4628 12.8123-15.6941.362-.4439.5687-.5428 1.1056-.5406 4.7155.0197 9.4313.0393 14.1472.0589 1.1593.0048 1.6102.8129.95 1.7366-.867 1.1975-1.9785 2.4754-3.1149 2.9485-1.6443.6843-3.0775.8129-4.219.8166-1.3805.0044-3.4013-.003-4.6017-.0033-1.6517 2.0934-3.3035 4.1871-4.9552 6.2805 2.0248.9133 6.6948 2.5124 11.6133 3.7029 3.458.837 5.7459 1.05 7.5288 1.0489 6.9937-.0056 13.5996-.0067 19.444-.0419 7.9441-.0482 15.3969-.6614 19.8708-4.3683 2.8144-2.3316 5.0045-5.0563 6.2768-7.4161-6.8682.0041-13.7363.0082-20.6041.0122-1.3086.0007-1.7781-1.0971-.7103-1.9422.8833-.6992 1.8985-1.3238 3.0071-1.8744 1.8207-.9044 3.1089-1.2423 5.1857-1.4368 4.7636-.4461 11.0483-.472 16.1746-.4706.7569-.9715 1.5139-1.9429 2.2712-2.9144z"/>
</svg>