<svg viewBox="0 0 151 25" xmlns="http://www.w3.org/2000/svg">
<path d="m106.7774 4.8591c-4.9869-.2179-9.8783-.0932-15.4804-.2258-5.3431 6.4043-9.8407 11.3854-15.8946 17.7929-1.3627 1.2299-2.8873 2.3173-4.8915 2.3338h-4.3888l16.9812-20.2131c-5.8524.0432-10.6114.0762-16.1551.0616l4.2966-4.1277c11.0399-.4758 28.8721-.6399 42.6868-.3027-.762.9454-1.8648 2.1047-2.6977 2.954-1.0218 1.0419-2.4134 1.8162-4.4564 1.7269zm-86.5109 7.8265c13.2029-4.9354 25.8297-6.9545 42.7481-7.9569l4.285-4.2674c-22.0357.7003-38.5082 3.4569-54.1789 9.6814-18.7406 7.4439-17.6505 15.2663 5.6476 14.8407 16.3869-.2993 24.8645-2.0972 32.5418-6.6391 3.0836-2.4692 6.2283-5.7977 8.9752-8.6036-5.5948.0312-11.7225.3843-19.6984 1.3686-2.2325.2755-4.2914.624-6.6016 1.2969-.9986.2747-2.1067 1.0421-3.0005 1.7273-.6311.4839-1.1557.9679-1.6911 1.4517 4.7267-.3751 15.351-1.6411 21.3228-1.9148-.9807.5642-2.9213 2.2821-4.5731 3.0926-5.3432 2.1263-9.8966 2.4902-15.4641 3.1411-27.202 2.1246-24.8721-1.7758-10.3129-7.2184zm127.6858-10.4426c-6.5146-2.3295-19.8766-1.6082-27.3309-.7648l-5.0794 4.1038c23.9422-2.4492 29.5378.3687 22.2152 2.7162-2.065.6618-10.1905 1.683-16.9152 1.7106l-3.4229 3.2018c.9878-.0316 1.4409-.0526 2.3717-.0556 20.1074-.0646 18.5712 5.7465-4.0449 7.2063-7.9428.5127-14.1817.0689-17.9352-.3097l-4.9312 3.9294c2.8756.3382 9.9408.8019 19.5572.6169 30.1914-.5808 39.2027-11.2326 28.0422-13.2748 11.8829-2.6115 12.4808-7.2895 7.4733-9.0801z"/>
</svg>