<svg viewBox="0 0 121 25" xmlns="http://www.w3.org/2000/svg">
<path d="m70.0096 3.8325c-2.0457 2.1096-4.0589 4.2566-6.0063 6.3334-3.8098 4.0628-7.7492 8.264-12.1314 12.3998-1.0476 1.0831-2.4917 1.7041-4.0626 1.7451-.3591.0051-.5918.0097-.776.0136-.2203.0047-.3719.0082-.5854.0082-.2869 0-.6856-.0059-1.5133-.0218l-.2456-.0047.1632-.1836c1.6478-1.8538 3.4067-3.892 5.2689-6.05 4.3517-5.0426 8.8494-10.2543 12.9181-14.2828-4.3349-.0698-6.848-.0238-13.4965.1719l-.3023.009 1.9181-1.7704c1.0053-.7084 1.7306-.9072 2.6492-1.1591l.1595-.0409c.8172-.1957 1.1901-.285 2.102-.3762 6.0771-.6715 9.2374-.6532 18.613-.6017l.8164.0047c6.1728-.0191 10.7791.1271 14.0606.4476l.2421.0238-2.6149 2.5556c-.8211.8398-2.4137 1.407-3.811 1.3548l-.0051-.0004c-3.4593-.2979-6.0586-.3692-9.6567-.4678-1.1178-.0308-2.3338-.0643-3.7041-.108zm-61.4027 9.4048c5.8541-5.3845 16.0634-8.3584 31.2108-9.0921 1.5899-.0678 2.1634-.1934 3.1722-.9497l2.7556-2.1759-.3107-.0094c-6.6319-.2004-29.1684-.1325-40.6932 9.0641l-.0018.0016c-3.4654 2.8775-4.9525 6.1606-4.0802 9.0079.9027 2.9458 4.2178 4.9782 8.8642 5.4363 2.3059.2959 4.5948.4292 6.8118.4292 7.806 0 14.7144-1.6562 18.2831-3.7186.723-.4632 1.292-.8476 1.7987-1.2164 1.8339-1.6195 3.6794-3.4839 4.933-4.9829.1131-.1236.2287-.2464.3433-.368.7215-.7669 1.4029-1.4909 1.1614-2.0889-.2353-.5829-1.3368-.9018-3.4725-1.0043-.7521.0031-1.4796-.0066-2.1833-.0168-2.8334-.039-5.5121-.0776-9.5912.7298-1.994.4616-3.4942.9415-4.3484 1.7985-.2349.347-.1998.568-.129.692.1212.2136.4259.3033.907.278 3.9539-.2292 8.2144-.4249 12.6146-.3205-.8743.8129-4.1377 3.4991-4.7845 3.6679-7.6968 2.0538-13.0442 2.4893-20.427 1.6663-2.6915-.4499-4.3266-1.3911-4.7291-2.7221-.3593-1.1875.2963-2.6078 1.8952-4.1061zm111.7556-12.5433c-6.2243-.6725-13.4513-1.1743-19.8623.1969-6.3751 1.3622-10.2356 3.6016-10.3257 5.9907-.0729 1.9228 2.3185 3.6971 6.7326 4.9958 2.3802.7263 3.9755 1.2242 6.0605 2.0125 1.0604.4012 1.7189 1.0702 1.761 1.7891.0351.5953-.3232 1.5123-2.2289 2.5014-3.333 1.7369-11.9152 2.7798-18.4786 3.0137-6.4083.2285-10.3541.1637-15.6443.0382l-.0487-.0012-3.0999 3.1123.246.0179c5.8792.4261 11.3237.6386 16.4299.6386 3.9295 0 7.659-.1259 11.2286-.3774 9.2598-.6359 14.1456-2.3217 16.2338-3.2702 3.354-1.5224 5.3572-3.7287 5.3583-5.9022.0008-1.5708-1.0784-2.9271-3.0386-3.8195-2.8453-1.2986-5.6843-2.0889-8.9713-3.0036l-1.0078-.2811c-1.3033-.3645-2.0024-.8901-1.9685-1.4795.0448-.7708 1.4768-1.8195 4.5162-2.3018 4.8734-.7743 7.6668-.8316 12.992-.2686l.0569.0059 3.2808-3.5837-.2222-.0242z"/>
</svg>