<svg viewBox="0 0 196 26" xmlns="http://www.w3.org/2000/svg">
<path d="m195.746 20.938c-.09-.303-.237-.486-.428-.562-.192-.076-.473-.065-.857.043-1.33.39-2.568.671-3.752.833-1.172.173-2.13.238-2.862.195s-1.093-.162-1.093-.368c0-.184.282-.606.856-1.288.563-.671 1.195-1.374 1.871-2.1.946-1.017 1.678-1.84 2.186-2.467.518-.638.766-1.071.766-1.309 0-.26-.079-.573-.226-.952-.146-.379-.383-.703-.687-.974-.316-.271-.687-.412-1.115-.412-1.408 0-3.538.379-6.389 1.147-2.614.703-6.422 1.905-11.435 3.592l4.394-4.621-6.569.66-6.14 6.708c-1.939.692-3.392 1.18-4.361 1.45s-1.622.412-1.949.412c-.214 0-.417-.13-.608-.39s-.35-.562-.461-.92c-.124-.347-.181-.66-.181-.92 0-.206.124-.476.361-.822.248-.336.755-.909 1.521-1.71s1.746-1.807 2.941-2.998l1.464-1.482h-5.194c-3.65 0-7.852.497-12.607 1.482s-8.822 2.272-12.202 3.852c-1.972.931-3.368 1.883-4.191 2.868-1.464.433-2.873.822-4.224 1.158-1.499.379-3.346.725-5.533 1.028-2.186.314-4.495.465-6.928.465-1.105 0-1.984-.108-2.637-.336-.653-.217-.969-.66-.969-1.309 0-.779.992-1.601 2.964-2.456s4.518-1.655 7.617-2.391c3.11-.736 6.365-1.352 9.768-1.85.383-.368.687-.692.912-.974.226-.282.361-.53.384-.736.056-.465-.282-.703-1.014-.703-3.11 0-6.929.476-11.47 1.417-4.54.952-8.461 2.207-11.773 3.777-1.86.887-3.2 1.807-4.012 2.781-.935.325-1.701.562-2.287.725-.969.271-1.622.412-1.949.412-.214 0-.417-.13-.608-.39s-.35-.562-.461-.92c-.124-.347-.18-.66-.18-.92 0-.206.124-.476.361-.822.248-.336.755-.909 1.521-1.71s1.746-1.807 2.941-2.998l1.464-1.482h-5.194c-3.651 0-7.853.497-12.608 1.482s-8.822 2.272-12.201 3.853c-3.21 1.504-4.89 3.083-5.047 4.751-.248.011-.755.076-1.521.195-2.22.282-4.078.465-5.6.541-1.509.076-2.264-.087-2.264-.508 0-.368.619-1.267 1.848-2.705 1.228-1.439 2.817-3.192 4.766-5.259s3.82-4.014 5.634-5.854c1.374-1.428 2.603-2.694 3.673-3.82 1.071-1.115 1.6-1.72 1.6-1.829 0-.26-.135-.584-.406-.974s-.653-.725-1.138-1.017c-.484-.282-1.037-.433-1.667-.433-2.377 0-5.577.963-9.61 2.9-4.023 1.937-7.875 4.046-11.548 6.341s-7.504 4.782-11.469 7.455c-.834.573-1.543 1.05-2.13 1.417-.585.379-.868.541-.868.486s.574-.595 1.724-1.634c1.149-1.039 2.456-2.207 3.91-3.506 3.651-3.213 6.524-5.788 8.63-7.726 2.106-1.937 3.166-3.03 3.166-3.289 0-.282-.158-.627-.461-1.028-.316-.401-.732-.757-1.262-1.05-.529-.303-1.104-.443-1.724-.443-2.411 0-6.546 1.374-12.404 4.122-5.87 2.749-12.281 6.135-19.256 10.16-6.974 4.025-13.396 7.931-19.256 11.718h.856c2.535-.054 4.315-.119 5.329-.217 1.014-.087 1.916-.282 2.715-.584.8-.302 1.803-.833 3.02-1.612 5.002-3.116 9.971-6.059 14.917-8.819 4.946-2.759 9.025-4.934 12.247-6.524 3.211-1.58 4.823-2.239 4.823-1.991 0 .022-.147.173-.429.443s-.642.616-1.071 1.028c-5.058 4.771-10.647 10.398-16.787 16.858 2.76 0 4.699-.043 5.837-.119s2.186-.303 3.144-.66c.958-.368 2.197-1.028 3.707-1.991l8.146-5.096c4.191-2.564 7.651-4.664 10.399-6.265 2.738-1.612 4.811-2.759 6.208-3.441 1.397-.692 2.085-.887 2.085-.606 0 .022-.203.26-.608.703-.406.443-.89.952-1.464 1.515-2.186 2.315-4.089 4.35-5.713 6.135-1.622 1.775-3.11 3.571-4.484 5.389-1.363 1.818-2.051 3.138-2.051 3.971 0 .779 1.138 1.223 3.402 1.341s4.89-.011 7.864-.39c2.614-.336 4.71-.725 6.298-1.191.8.757 2.198 1.18 4.202 1.266 3.323.141 7.278-.584 11.853-2.174 2.13-.747 4.134-1.612 6.027-2.608.473 1.136.868 2.013 1.206 2.608.406.714.766 1.191 1.093 1.439s.698.368 1.138.368c.676 0 2.456-.497 5.329-1.482.619-.217 1.206-.423 1.791-.627.181.53.608.985 1.296 1.363.935.519 2.164.898 3.685 1.147 1.52.249 3.199.368 5.002.368 2.028 0 4.394-.228 7.109-.682s5.363-1.028 7.943-1.731c.664-.184 1.307-.358 1.904-.541.327 1.569 1.972 2.424 4.924 2.543 3.324.141 7.279-.584 11.853-2.174 2.13-.746 4.135-1.612 6.027-2.608.473 1.137.868 2.013 1.206 2.608.407.714.766 1.191 1.094 1.439.327.248.698.368 1.138.368.676 0 2.456-.497 5.329-1.482.372-.13.732-.249 1.093-.379l-1.848 2.013h3.122c.946 0 1.746-.108 2.41-.314.665-.206 1.218-.541 1.679-1.017l3.639-3.777c2.998-.963 5.6-1.764 7.774-2.391 2.58-.736 4.507-1.223 5.78-1.46 1.274-.237 1.905-.249 1.905-.043 0 .076-.215.368-.654.855-.428.497-.924 1.039-1.464 1.634-1.273 1.374-2.264 2.51-2.997 3.408s-1.093 1.515-1.093 1.85c0 .887 1.059 1.32 3.165 1.309s4.563-.314 7.358-.898c2.794-.584 4.99-1.191 6.591-1.807-.113-.649-.214-1.126-.305-1.417l.057.087h-.006zm-116.748.413c-2.523.39-3.786.26-3.786-.39s1.183-1.482 3.549-2.51 5.171-1.915 8.428-2.683c2.885-.681 5.453-1.061 7.695-1.137l-.338.293c-1.735 1.536-4.123 2.889-7.177 4.068s-5.848 1.97-8.372 2.359zm60.323 0c-2.524.39-3.786.26-3.786-.39s1.184-1.482 3.549-2.51c2.366-1.028 5.171-1.915 8.428-2.683 2.885-.681 5.453-1.061 7.695-1.137l-.339.293c-1.735 1.536-4.123 2.889-7.176 4.068-3.054 1.179-5.849 1.97-8.372 2.359z"/>
</svg>