<svg viewBox="0 0 260 25" xmlns="http://www.w3.org/2000/svg">
<path d="m259.711 20.527c-.172-.569-.697-.687-.986-.612-1.491.429-3.003.987-4.816 1.127-.632.053-1.222-.15-1.479-.472-.268-.333-.482-.709-.643-1.137-.365-.934-.29-1.449.236-2.071 1.651-2.018 3.753-4.132 5.63-6.139-10.596-.354-19.474 1.717-26.103 4.432-.376-.956-.825-2.039-1.437-2.941-.546-.804-1.179-1.32-2.456-1.352-.933-.022-2.198.204-4.45.966-2.135.719-4.536 1.641-7.732 2.93.955-1.041 1.994-2.189 3.238-3.563-2.069.214-4.129.462-6.198.676-1.888 2.146-3.807 4.346-5.447 6.192-6.059 2.157-13.47 3.478-19.335 3.467-1.03 0-2.756-.011-3.304-.204 10.338-2.071 17.094-4.229 19.142-5.387 1.362-.773 1.03-1.288.612-2.018-.547-.945-1.438-1.964-2.606-2.79-.987-.698-1.651-.87-2.424-.859-1.233.011-2.724.236-4.439.654-3.914.966-9.051 2.812-13.255 5.516-2.091 1.341-3.356 2.586-3.785 3.821-1.319.344-2.531.558-3.711.654-.975.086-2.112.15-2.295-.193-.193-.344.537-1.17 1.158-1.899 1.298-1.513 2.37-2.736 3.41-4.121.343-.451.407-.698.225-1.234-.139-.429-.365-.826-.762-1.17-.343-.311-.675-.418-1.136-.418-1.308 0-3.314.483-5.663 1.17-2.487.729-4.879 1.632-7.302 2.544.375-.537.632-.956.794-1.245.193-.354.182-.547.075-.89-.119-.386-.29-.719-.665-1.041-.365-.3-.729-.408-1.202-.397-1.307.022-3.238.483-6.219 1.449-2.285.74-4.515 1.502-6.66 2.297 1.158-1.266 2.402-2.641 3.99-4.379-2.07.214-4.129.44-6.198.654-1.942 2.2-3.914 4.454-5.577 6.343-1.952.719-3.55 1.33-5.319 1.749-.773.183-1.009.064-1.33-.493-.128-.214-.236-.462-.322-.729-.214-.676-.075-1.395.429-1.996 1.609-1.899 3.582-3.885 5.351-5.773-11.828-.397-21.469 2.028-28.321 5.237-1.437.676-3.035 1.566-4.043 2.93-1.952.623-3.667 1.073-4.955 1.331-1.855.354-2.059.172-.783-1.341 1.437-1.707 3.163-3.509 4.151-4.947.385-.569.418-.762.268-1.32-.15-.569-.385-.966-.718-1.288-.343-.344-.686-.472-1.158-.462-1.351 0-3.303.376-5.973 1.116-2.467.687-6.07 1.857-10.799 3.52 1.201-1.309 2.488-2.726 4.151-4.54-2.069.214-4.14.418-6.198.633-1.941 2.2-3.914 4.443-5.577 6.321-1.952.719-3.55 1.32-5.319 1.727-.772.183-1.008.042-1.329-.504-.128-.214-.236-.462-.322-.729-.214-.676-.075-1.395.429-1.996 1.609-1.899 3.581-3.874 5.351-5.753-11.828-.397-21.459 1.943-28.322 5.152-2.402 1.127-5.137 3.037-4.804 5.344.343 2.328 3.678 2.822 5.951 2.736 5.663-.225 11.282-2.328 15.657-4.669.354.88.654 1.641 1.136 2.555.332.623.729 1.309 1.308 1.621.579.3 1.201.172 1.695.042 1.684-.418 3.367-1.02 5.179-1.674-.622.719-1.308 1.491-1.963 2.232h2.628c2.273 0 3.238-.269 4.719-1.868.9-.976 1.909-2.071 2.896-3.134 4.719-1.588 8.815-2.833 11.678-3.52 3.506-.848 3.26-.558 1.64 1.341-1.126 1.32-2.166 2.425-3.506 4.121-.783.987-1.351 1.846-.901 2.436.451.579 1.716.59 2.885.493 3.378-.279 6.97-1.256 10.21-2.275.611 2.104 3.742 2.522 5.887 2.436 5.663-.225 11.282-2.383 15.657-4.711.354.881.654 1.632 1.136 2.555.333.623.729 1.299 1.308 1.61.568.3 1.201.172 1.695.042 1.683-.419 3.356-1.041 5.179-1.696-.623.719-1.308 1.502-1.963 2.243h2.628c2.284 0 3.248-.29 4.718-1.889.933-1.009 1.963-2.125 2.971-3.22 3.324-1.223 6.156-2.189 8.236-2.747 2.734-.729 2.509-.59 1.169 1.331-1.556 2.232-3.249 4.304-4.976 6.504h2.82c1.822 0 3.292-.644 4.247-1.878.88-1.127 1.737-2.264 2.595-3.403 2.81-1.052 5.308-1.953 8.3-2.715 2.595-.665 2.412-.344.944 1.341-.826.956-1.641 1.835-2.66 3.08-.814 1.009-1.716 2.211-1.298 2.898.408.687 2.06.773 3.968.676 3.496-.183 6.949-1.041 9.759-1.835.74.912 3.689 1.996 9.716 1.76 5.244-.214 11.227-1.202 16.064-2.575-.676.784-1.459 1.674-2.209 2.522h2.627c2.295 0 3.249-.3 4.719-1.899 1.158-1.266 2.498-2.715 3.743-4.079 3.935-1.46 8.397-2.608 9.93-2.887 1.169-.204 2.113-.322 3.003 2.189.418-.042.847-.097 1.287-.139-2.005 1.471-3.002 3.412-1.974 4.916 1.083 1.577 3.722 1.824 5.566 1.749 5.577-.225 11.11-2.394 15.453-4.7.471 1.159.911 2.264 1.512 3.198.59.923 1.158 1.309 2.509 1.148 3.464-.419 6.928-1.46 10.049-2.479-.097-.504-.161-.923-.29-1.341v.013zm-204.514.472c-1.147.225-3.356.493-3.539-.269-.182-.74 1.63-1.813 3.077-2.489 4.558-2.103 11.421-3.713 15.453-3.81-4.375 3.982-10.499 5.687-14.992 6.557v.011zm61.16.139c-1.147.225-3.357.493-3.539-.268-.183-.74 1.63-1.813 3.088-2.489 4.558-2.103 11.421-3.756 15.453-3.853-4.376 3.993-10.499 5.731-14.993 6.61zm69.973-3.026c3.7-1.91 8.515-3.52 10.467-3.842.751-.128 1.061-.064 1.459.128.29.15.557.322.794.558.321.322.471.451-.504.848-1.716.698-8.365 2.544-14.746 3.993.462-.504 1.384-1.084 2.531-1.674v-.011zm48.943 2.747c-1.147.225-3.368.493-3.55-.258-.183-.74 1.64-1.813 3.088-2.489 4.558-2.114 11.421-3.852 15.453-3.949-4.365 4.003-10.499 5.817-14.992 6.696zm-232.013 3.863c1.662-.053 3.561-.483 4.772-1.438 2.478-1.953 5.555-4.357 7.421-5.881 18.305-1.652 30.349-3.423 39.432-6.343 5.48-1.76 8.3-3.724 8.397-6.117.097-2.308-2.295-4.314-10.285-4.808-13.297-.836-34.927 2.351-44.664 5.377-2.498.784-3.85 1.577-4.89 3.326 11.099-2.392 37.437-6.041 47.453-5.022 5.019.515 4.268 2.575 1.072 3.885-7.903 3.24-26.917 5.709-31.935 5.967 2.703-2.253 5.448-4.583 8.236-6.986-3.163.376-6.338.687-9.512 1.062-6.135 5.162-12.977 11.494-18.757 16.989 1.083 0 2.177.011 3.26-.022z"/>
</svg>