<svg viewBox="0 0 167 36" xmlns="http://www.w3.org/2000/svg">
<path d="m41.411 14.831c-2.517 2.313-5.476 3.794-9.533 5.039-1.407.432-2.63.73-3.596.957-6.719 1.471-5.301-.957 1.099-3.301 4.027-1.399 7.808-2.323 12.03-2.704m87.239-.031c-2.547 2.282-5.598 3.66-9.759 4.946-1.449.442-2.692.751-3.688.987-6.616 1.419-5.691-.658.853-3.023 4.119-1.419 8.249-2.467 12.594-2.91zm-24.542 9.181c.853.915 3.143 1.296 5.732 1.09 2.682-.154 6.287-.915 10.756-2.539 1.048-.391 2.075-.792 3.144-1.255.174-.072.359-.154.534-.236.185.422.36.812.555 1.203.883 1.881 2.075 2.838 4.674 2.056 1.418-.432 3.277-.885 5.804-1.769l-2.178 2.467h2.743c1.336-.052 2.466-.525 3.329-1.378l4.017-3.969c6.451-2.056 10.971-2.838 13.016-3.105.164-.021.226.082.051.247-1.839 1.891-4.13 4.699-5.362 6.704-.771 1.244.154 1.481 2.455 1.574 2.065.082 3.863-.093 5.907-.319 2.157-.247 4.376-.566 7.715-1.45l-.329-1.152c-.144-.586-.739-.833-1.428-.689-1.551.319-2.373.483-3.112.586-.863.123-1.696.206-2.035.216-1.592.072-1.715-.453-.996-1.389 1.459-1.902 3.596-4.123 5.208-6.015.35-.391.298-.833.196-1.142-.113-.308-.247-.607-.411-.936-.719-1.419-6.739.062-11.732 1.553-2.62.771-4.931 1.553-5.928 1.881l3.606-3.969-5.969.319-5.516 6.334c-1.49.566-2.887 1.018-4.294 1.522-2.055.751-3.257.442-3.832-.473-.452-.72-.555-1.419.02-2.118l5.044-5.583c-4.325-.134-12.03.38-18.748 2.2-3.555.967-7.232 2.498-8.486 3.167-2.065 1.101-4.047 2.406-4.582 3.599-8.793 1.697-13.026 1.378-15.831 1.07-6.421-.72-1.007-3.558.658-4.257 2.579-1.08 6.267-1.974 10.931-3.002 1.417-.309 3.236-.617 5.003-.905.061 0 .123-.021.185-.031.339-.062.503-.298.719-.555.883-1.07 1.006-1.563-.216-1.584-.277 0-.555 0-.853.021-3.503.206-9.122.864-14.208 2.303-8.311 2.395-12.739 5.316-12.492 7.804-4.89 1.563-11.835 4.247-15.358 6.035 2.866-2.827 10.756-10.189 17.629-16.092l-6.975.627-4.828 4.637c-2.394 1.244-7.458 3.136-10.427 3.599-1.007.154-.308-.72.154-1.306 1.623-2.056 4.644-5.183 6.39-6.93-3.082.319-4.674.329-6.903.699-.514.35-3.853 3.702-5.383 5.428-1.818.792-4.448 1.666-6.092 2.2-1.582.586-1.942.401-2.445-.494-.39-.699-.76-1.79-.329-2.292l4.993-5.83c-12.77-.113-20.259 1.779-26.34 5.459l-11.691 2.858.637-.658c1.777-1.85 3.565-3.702 5.332-5.562 1.325-1.399 2.63-2.817 3.924-4.236 1.377-1.512 2.712-3.043 4.037-4.607 2.507-.072 5.013-.175 7.52-.278 3.339-.144 6.678-.298 10.016-.329 1.161 0 2.137-.226 2.969-.586s1.52-.854 2.106-1.419c.257-.247.534-.504.822-.771.771-.71 1.603-1.491 2.26-2.221-4.13.154-8.27.35-12.4.566-4.14.216-8.28.463-12.42.73-3.709.237-7.407.514-11.105.802-3.041.237-6.082.504-9.123.802-1.274 1.234-2.568 2.498-3.822 3.784 2.466-.113 4.931-.226 7.397-.36 2.188-.113 4.428-.237 6.873-.37l1.305-.072c-1.438 1.687-2.876 3.373-4.315 5.059-1.377 1.615-2.753 3.228-4.14 4.843-1.346 1.563-2.681 3.136-4.017 4.699-1.274 1.502-2.548 3.002-3.822 4.504h3.339c1.089 0 2.291-.535 2.476-.638.308-.165.606-.35.894-.555l11.064-2.683c-1.9 2.848.36 5.234 8.979 3.578 3.493-.668 7.099-2.035 10.263-3.424.205.473.39.885.606 1.317.914 1.83 1.952 3.054 4.263 2.251 1.942-.586 5.27-1.759 7.705-2.889-.349.442-.709 1.029-.74 1.07-1.459 2.159-.863 3.013 3.113 2.375 3.678-.597 8.763-1.953 11.588-3.249-4.161 4.144-8.866 8.936-13.427 13.86l3.647-.792c1.726-.946 2.989-1.902 5.054-3.033 3.575-1.953 14.804-6.426 20.166-8.144 1.788 1.162 5.096 1.748 10.581 1.553 3.667-.123 8.455-.401 14.557-1.574l-.02-.041v.003z"/>
</svg>