<svg viewBox="0 0 199 25" xmlns="http://www.w3.org/2000/svg">
<path d="m198.999 4.82c-.067-.145-.224-.247-.471-.314-.259-.067-.584-.101-1.099-.145-1.032-.09-1.784-.134-2.816-.18-.831-.034-1.986-.067-2.828-.078-7.471-.123-14.495.661-20.093 2.151-1.66.438-3.612 1.065-5.262 1.905-1.616.841-2.67 1.759-2.906 2.679-.236.919.348 1.748 1.616 2.42 1.29.694 3.096 1.143 5.149 1.535 3.096.594 7.775 1.277 11.645 2.062 1.224.247 2.39.516 3.276.818.875.302 1.38.605 1.392.908.022.302-.438.594-1.291.851-.852.257-2.052.482-3.377.673-6.922.986-18.039 1.244-31.11.706-.976 1.065-2.121 2.365-3.208 3.518 20.003.728 34.33.336 42.474-1.155 1.795-.325 3.455-.751 4.746-1.367 1.267-.616 1.996-1.344 2.098-2.163.101-.807-.449-1.614-1.436-2.354-.999-.751-2.289-1.3-3.433-1.736-5.094-1.927-10.523-2.757-15.874-3.585-.875-.134-1.616-.258-2.199-.448-.561-.191-.853-.426-.831-.683.023-.269.348-.538.886-.784.561-.258 1.235-.459 1.84-.616 7.606-2.017 14.551-1.905 20.53-2.006h.393c.145 0 .269-.023.381-.067.235-.09.438-.314.605-.493.202-.224.438-.493.651-.751.236-.291.393-.526.482-.74.09-.214.09-.392.023-.526l.045-.034h.002zm-61.794 5.512c-5.161 0-12.061 2.05-16.885 5.188-2.613 1.692-4.342 3.552-4.734 5.188-1.817.415-3.276.683-4.208.773-.426.044-.752.044-1.02-.044-.269-.089-.527-.302-.718-.516-.247-.281-.438-.717-.482-1.143-.023-.235 0-.438.145-.616.134-.168.404-.314.617-.438 1.166-.694 2.064-1.233 3.298-2.387.517-.482 1.122-1.109 1.515-1.86.392-.74.516-1.49.235-2.14-.281-.661-.92-1.143-1.851-1.457-.942-.314-2.008-.392-2.973-.415-7.158-.112-14.08 2.992-16.536 4.191 3.68-4.079 8.269-9.178 12.015-13.335-1.828.044-4.397.101-6.069.134-3.365 3.832-8.178 9.312-11.41 12.998-.348-.841-.752-1.715-1.267-2.476-.247-.369-.561-.751-.999-1.019-.427-.258-.965-.392-1.582-.403-.438 0-1.021.034-1.817.201-.831.168-1.706.426-2.86.818-2.244.751-4.769 1.725-8.134 3.082.999-1.098 2.087-2.297 3.411-3.742-2.177.224-4.342.482-6.518.706-2.322 2.644-4.7 5.356-6.597 7.474-1.997.683-4.533 1.49-6.844 1.972-.381.078-.707.145-.942.101-.247-.044-.46-.213-.674-.459-.146-.168-.213-.291-.303-.459-.056-.123-.134-.325-.078-.594.056-.281.201-.482.482-.83 2.042-2.532 4.319-5.143 7.057-8.124-2.075.213-4.151.459-6.226.683-2.221 2.453-4.667 5.266-6.653 8.046-2.613.83-7.248 1.434-10.097 1.468-.517 0-.886-.011-.965-.212-.078-.201.146-.538.404-.897 1.436-1.927 5.351-6.04 8.369-9.077-2.131.224-4.263.47-6.394.694-3.029 2.801-6.44 6.107-8.841 9.3-7.079 1.132-13.956 1.333-19.544.897-.561-.044-1.066-.09-1.481-.201-.404-.112-.695-.269-.819-.516s-.079-.572.113-.952c.201-.392.527-.807.886-1.244 3.107-3.765 7.034-7.744 12.262-11.698 4.129-.078 8.246-.101 12.375-.134.494 0 .965-.011 1.537-.078.561-.056 1.122-.168 1.671-.325.55-.157 1.032-.359 1.436-.572.415-.224.684-.426.931-.616 1.066-.83 2.098-1.636 2.95-2.297-5.441.112-10.804.191-16.144.325 1.166-.863 3.208-2.354 4.365-3.294-2.232.023-4.555.034-7.001.056-1.56 1.109-3.13 2.252-4.69 3.429h-.023c-3.153.113-6.855.235-9.985.381-1.302 1.155-2.592 2.308-3.893 3.463 3.354-.134 6.463-.224 9.346-.281-4.409 3.463-8.986 7.507-12.621 11.901-.505.604-1.055 1.323-1.413 2.073-.348.74-.438 1.401-.201 1.95s.774.941 1.582 1.21c.808.281 1.828.426 3.029.538 7.349.706 18.545 0 24.929-1.165.056.426.359.694 1.032.862.674.157 1.717.213 3.276.157 2.939-.101 8.01-.583 13.967-2.017.224.336.517.763.864 1.132.36.369.741.639 1.212.807.953.325 2.11.123 3.467-.191 1.246-.281 2.95-.728 4.813-1.255-.483.549-.976 1.121-1.459 1.669h2.76c1.032 0 1.896 0 2.782-.348.427-.168.819-.392 1.189-.683.381-.302.674-.616.999-.975 1.223-1.323 2.625-2.847 3.938-4.281 4.139-1.524 8.829-2.734 10.445-3.025.584-.101 1.189-.168 1.694.09.527.258.965.83 1.459 2.207 1.122-.113 2.311-.235 3.534-.359-2.289 2.622-4.499 5.143-6.463 7.396 12.116-.078 17.951-.818 25.019-3.283.258.459.595 1.008.898 1.501.157.258.392.639.639.919.27.302.584.516 1.021.639.448.113.987.123 1.682.067.651-.056 1.47-.18 2.121-.291 1.526-.258 3.534-.673 5.688-1.155.651.65 1.706 1.087 3.04 1.333 1.325.247 2.985.291 4.78.123 5.688-.516 13.003-3.182 17.109-6.847 1.043-.93 1.817-1.872 2.221-2.79.392-.908.404-1.748 0-2.453-.797-1.446-3.142-2.207-6.249-2.218l.056.044v.003zm-29.056 5.413c-.359.403-.897.763-1.503 1.109-4.06 2.342-11.275 4.281-17.972 4.471 5.531-4.662 12.566-6.455 16.795-7.048.549-.078 1.223-.146 1.839-.09.596.056 1.021.224 1.178.516s.034.65-.325 1.042zm29.551-.269c-.416.549-1.167 1.199-2.29 1.939-3.164 2.062-7.19 3.407-10.938 3.799-.662.067-1.302.101-1.851.023-.538-.078-.921-.269-1.088-.56s-.101-.673.168-1.098c.281-.426.741-.874 1.313-1.311 2.816-2.14 7.865-3.889 11.062-4.415 1.761-.291 3.4-.281 3.871.336.224.302.157.728-.247 1.277v.011z"/>
</svg>