<svg viewBox="0 0 143 25" xmlns="http://www.w3.org/2000/svg">
<path d="m142.719 12.499c-.793-1.444-3.107-2.197-6.2-2.207-5.135 0-12.001 2.05-16.801 5.186-2.601 1.691-4.321 3.55-4.7 5.186-1.809.415-3.26.683-4.187.773-.424.044-.747.044-1.016-.044-.268-.089-.535-.302-.714-.505-.246-.291-.435-.717-.481-1.142-.022-.235 0-.436.145-.616.134-.168.402-.314.614-.436 1.161-.694 2.054-1.232 3.283-2.385.513-.482 1.117-1.098 1.508-1.859.39-.739.513-1.478.234-2.139-.279-.66-.915-1.142-1.842-1.456-.938-.314-1.998-.392-2.958-.415-7.123-.113-14.011 2.991-16.457 4.189 3.662-4.078 8.228-9.173 11.957-13.329-1.82.044-4.376.101-6.039.134-3.349 3.831-8.139 9.307-11.353 12.993-.347-.84-.748-1.714-1.262-2.475-.246-.369-.559-.75-.993-1.019-.425-.258-.961-.392-1.575-.403-.425 0-1.016.034-1.809.201-.826.168-1.697.426-2.847.817-2.233.75-4.745 1.725-8.094 3.08.993-1.098 2.088-2.296 3.394-3.741-2.166.224-4.32.482-6.486.717-2.311 2.643-4.678 5.354-6.564 7.471-1.987.683-4.511 1.49-6.81 1.972-.38.078-.703.145-.938.112-.257-.044-.458-.212-.669-.459-.145-.168-.212-.291-.301-.459-.056-.123-.134-.325-.078-.593.056-.28.201-.482.48-.828 2.032-2.531 4.299-5.141 7.022-8.121-2.065.212-4.131.459-6.196.683-2.21 2.452-4.644 5.264-6.621 8.043-2.601.828-7.212 1.434-10.047 1.467-.513 0-.882-.011-.96-.212s.145-.538.402-.896c1.43-1.926 5.325-6.037 8.329-9.072-2.122.224-4.242.47-6.364.694-3.014 2.8-6.408 6.104-8.797 9.296-7.044 1.131-13.888 1.333-19.448.896-.558-.044-1.06-.09-1.474-.201-.402-.112-.692-.269-.814-.526-.122-.247-.078-.572.112-.952.2-.392.524-.807.882-1.243 3.092-3.764 7-7.739 12.203-11.682 4.108-.078 8.205-.101 12.314-.134.492 0 .961-.011 1.529-.078.558-.056 1.117-.168 1.664-.325s1.027-.358 1.43-.572c.414-.224.681-.426.927-.616 1.06-.828 2.088-1.635 2.936-2.296-5.414.113-10.751.191-16.065.325 1.161-.863 3.193-2.352 4.343-3.293-2.221.023-4.533.034-6.966.056-1.552 1.109-3.115 2.251-4.667 3.427h-.023c-3.138.112-6.821.235-9.936.381-1.295 1.153-2.579 2.307-3.874 3.46 3.338-.134 6.43-.224 9.3-.28-4.387 3.46-8.943 7.504-12.56 11.895-.503.605-1.049 1.322-1.407 2.072-.347.739-.435 1.4-.2 1.949.234.549.782.941 1.574 1.221.804.279 1.82.426 3.014.538 7.313.706 18.454 0 24.795-1.165.056.426.357.694 1.027.862.669.157 1.708.213 3.26.157 2.925-.101 7.971-.583 13.9-2.016.223.336.513.761.86 1.131.357.369.736.639 1.205.807.949.325 2.099.123 3.449-.191 1.239-.28 2.936-.728 4.789-1.255-.48.549-.971 1.121-1.451 1.669h2.747c1.027 0 1.887 0 2.768-.336.425-.168.815-.392 1.172-.683.38-.302.669-.616.993-.974 1.217-1.322 2.612-2.844 3.918-4.279 4.12-1.523 8.787-2.733 10.394-3.024.581-.101 1.184-.168 1.686.09.524.258.961.828 1.451 2.207 1.117-.112 2.299-.235 3.517-.358-2.278 2.621-4.477 5.141-6.431 7.392 12.057-.078 17.863-.817 24.896-3.282.257.459.591 1.008.893 1.501.156.258.39.639.636.918.269.302.581.515 1.016.639.446.112.994.123 1.674.067.648-.056 1.463-.18 2.111-.291 1.517-.258 3.517-.672 5.66-1.142.648.65 1.697 1.086 3.025 1.333 1.329.247 2.97.291 4.757.134 5.66-.515 12.939-3.181 17.025-6.843 1.038-.93 1.809-1.871 2.21-2.789.402-.907.449-1.791.047-2.497l-.002-.002zm-35.115 3.202c-.357.403-.892.761-1.496 1.109-4.042 2.341-11.22 4.279-17.885 4.469 5.504-4.659 12.505-6.451 16.713-7.045.547-.078 1.216-.146 1.82-.09.591.056 1.016.224 1.172.515.157.28.034.65-.324 1.042zm29.396-.271c-.414.549-1.161 1.199-2.278 1.938-3.148 2.06-7.157 3.405-10.886 3.797-.658.067-1.294.101-1.842.023-.535-.078-.915-.269-1.082-.56-.168-.291-.101-.672.167-1.098.279-.426.737-.874 1.306-1.31 2.803-2.139 7.826-3.887 11.008-4.413 1.752-.291 3.382-.28 3.851.336.224.302.157.728-.245 1.277v.011h.001z"/>
</svg>