<svg xmlns="http://www.w3.org/2000/svg" viewBox="0 0 24 24"><defs><style>.cls-1{fill:none;}</style></defs><g id="HG"><rect class="cls-1" width="24" height="24"/></g><g id="Default"><path d="M4.5,11.1v.67H6.11a1.46,1.46,0,0,1-.37.85,1.67,1.67,0,0,1-1.24.49,1.79,1.79,0,0,1,0-3.58A1.72,1.72,0,0,1,5.71,10l.47-.47A2.31,2.31,0,0,0,4.5,8.85a2.47,2.47,0,1,0,0,4.93,2.27,2.27,0,0,0,1.72-.69,2.23,2.23,0,0,0,.58-1.57,1.76,1.76,0,0,0,0-.42Z"/><path d="M8.81,10.55a1.59,1.59,0,1,0,1.59,1.59A1.57,1.57,0,0,0,8.81,10.55Zm0,2.55a1,1,0,1,1,.9-1A.92.92,0,0,1,8.81,13.1Z"/><path d="M16.63,10.9h0a1.09,1.09,0,0,0-.83-.35,1.59,1.59,0,0,0,0,3.18,1.06,1.06,0,0,0,.83-.36h0v.22a.81.81,0,0,1-.85.93A.88.88,0,0,1,15,14l-.61.26a1.53,1.53,0,0,0,1.41.94,1.46,1.46,0,0,0,1.51-1.66V10.63h-.66Zm-.8,2.2a.89.89,0,0,1-.85-1,.89.89,0,0,1,.85-1,.9.9,0,0,1,.85,1A.89.89,0,0,1,15.83,13.1Z"/><path d="M12.37,10.55A1.59,1.59,0,1,0,14,12.14,1.57,1.57,0,0,0,12.37,10.55Zm0,2.55a1,1,0,0,1,0-1.92,1,1,0,0,1,0,1.92Z"/><path d="M17.84,8.92h.69v4.81h-.69Z"/><path d="M20.65,13.1a.82.82,0,0,1-.78-.48L22,11.74l-.07-.18a1.48,1.48,0,0,0-1.36-1,1.51,1.51,0,0,0-1.5,1.59,1.55,1.55,0,0,0,1.58,1.59A1.59,1.59,0,0,0,22,13l-.54-.36A.9.9,0,0,1,20.65,13.1Zm0-1.95a.62.62,0,0,1,.6.35l-1.44.59A.86.86,0,0,1,20.6,11.15Z"/></g></svg>