<svg height="24" width="24" xmlns="http://www.w3.org/2000/svg"><path d="m11.81 17.08h1.07a.91.91 0 0 0 .5-.21.77.77 0 0 0 .14-.47s0-1.42.65-1.63 1.51 1.38 2.41 2c.341.265.77.393 1.2.36h2.4s1.26-.07.66-1a8.069 8.069 0 0 0 -1.79-2c-1.51-1.38-1.3-1.15.51-3.54 1.11-1.59 1.55-2.48 1.44-2.86s-1-.27-1-.27h-2.71a.6.6 0 0 0 -.35.06.74.74 0 0 0 -.24.29 15.803 15.803 0 0 1 -1 2.08c-1.2 2-1.69 2.12-1.88 2-.46-.29-.35-1.18-.35-1.8 0-2 .3-2.77-.58-3a4.73 4.73 0 0 0 -1.23-.09 5.77 5.77 0 0 0 -2.25.23c-.31.15-.55.48-.4.5.306.026.59.165.8.39.188.375.28.79.27 1.21 0 0 .16 2.3-.38 2.59-.36.2-.86-.2-1.94-2-.38-.643-.714-1.31-1-2a.81.81 0 0 0 -.23-.3 1.15 1.15 0 0 0 -.41-.16h-2.53s-.39 0-.53.18 0 .45 0 .45 2 4.65 4.29 7a6.24 6.24 0 0 0 4.47 2z"/></svg>