<svg height="24" width="24" xmlns="http://www.w3.org/2000/svg"><path d="m10 9.72-.67 1.91h1.36z"/><path d="m12 3c-5.52 0-10 3.54-10 7.91 0 2.84 1.9 5.33 4.74 6.72-.21.78-.75 2.83-.86 3.27s.2.54.42.39l3.84-2.62c.616.092 1.237.14 1.86.14 5.52 0 10-3.54 10-7.9s-4.48-7.91-10-7.91zm-4.92 10.07a.48.48 0 0 1 -.49.49h-.1a.46.46 0 0 1 -.34-.14.47.47 0 0 1 -.15-.35v-3.5h-1a.5.5 0 1 1 0-1h3a.5.5 0 1 1 0 1h-.9zm4.79.46a.48.48 0 0 1 -.62-.29l-.25-.71h-2l-.25.71a.49.49 0 0 1 -.894.046.47.47 0 0 1 -.016-.366l1.44-3.85v-.06a.69.69 0 0 1 .71-.5.7.7 0 0 1 .68.42l1.46 4a.47.47 0 0 1 -.26.6zm3.13 0h-2a.45.45 0 0 1 -.45-.45v-4a.54.54 0 1 1 1.07 0v3.57h1.38a.47.47 0 0 1 .46.46.46.46 0 0 1 -.46.42zm4.25-.06a.48.48 0 0 1 -.67-.1l-1.44-1.88-.3.31v1.2a.54.54 0 1 1 -1.08 0v-4a.54.54 0 1 1 1.08 0v1.4l1.69-1.69a.474.474 0 1 1 .67.67l-1.37 1.42 1.52 2a.48.48 0 0 1 -.1.67z"/></svg>