<svg xmlns="http://www.w3.org/2000/svg" width="24" height="24">
<path d="M20.82 8.59a3.56 3.56 0 0 0-.72-1.69 2.66 2.66 0 0 0-1.8-.73C15.78 6 12 6 12 6s-3.78 0-6.3.17a2.69 2.69 0 0 0-1.81.73 3.51 3.51 0 0 0-.71 1.69A24.458 24.458 0 0 0 3 11.35v1.29c.008.926.068 1.85.18 2.77a3.6 3.6 0 0 0 .72 1.69 3.13 3.13 0 0 0 2 .73C7.32 18 12 18 12 18s3.78 0 6.3-.18a2.63 2.63 0 0 0 1.8-.72 3.6 3.6 0 0 0 .72-1.69 24.5 24.5 0 0 0 .18-2.77v-1.29a24.463 24.463 0 0 0-.18-2.76Zm-10.68 5.62V9.42l4.86 2.4-4.86 2.39Z"/>
</svg>