<svg xmlns="http://www.w3.org/2000/svg" width="24" height="24">
<path d="M8.93 14.38V10.8c0-.23-.07-.28-.28-.28H7.01c-.2 0-.28 0-.27-.28V8.41A.34.34 0 0 1 7 8.06 6.2 6.2 0 0 0 9.42 5.9a5 5 0 0 0 .81-2.62c0-.23.08-.28.28-.28h1.67c.21 0 .27.07.27.29v4.09c0 .25.06.32.3.32h3.78c.25 0 .3.08.3.32v2.26c0 .22-.07.26-.25.26h-3.83c-.23 0-.31 0-.31.31v5.2c.002.201.018.401.05.6a1.83 1.83 0 0 0 1.81 1.65 6.35 6.35 0 0 0 2.63-.63c.31-.13.31-.13.31.21v2.26c0 .13 0 .22-.15.26a12.779 12.779 0 0 1-5.17.54 4 4 0 0 1-1.73-.63 2.83 2.83 0 0 1-1.26-2.42V14.38Z"/>
</svg>