<svg xmlns="http://www.w3.org/2000/svg" height="24" width="24">
<path d="m9 15.86h1.12v2.5h-1.01a1.11 1.11 0 0 1 -.95-.86 1.64 1.64 0 0 1 .08-.95 1.2 1.2 0 0 1 .76-.69zm-2.88-3.37c-2 .42-2.74-1.85-2.52-2.9 0 0 .24-2.29 1.85-2.43a2.45 2.45 0 0 1 2.33 2.05c.06.51.34 2.86-1.66 3.28zm12.08 3.12a3.12 3.12 0 0 1 .61 3.84c-1.09 2.52-5.08 1.21-5.08 1.21a6.78 6.78 0 0 0 -3.19-.09 11.57 11.57 0 0 1 -3.18.23 2.74 2.74 0 0 1 -2.57-2.43c-.57-2.48 2-3.83 2.18-4.06a11.86 11.86 0 0 0 2.38-2.53c.86-1.4 3.42-2.52 5.23.24a20.164 20.164 0 0 0 3.62 3.59zm-6.84 3.76v-6.15h-1.18v1.67h-1.38a2.27 2.27 0 0 0 -1.87 1.64 2.9 2.9 0 0 0 .2 1.76 2.3 2.3 0 0 0 1.63 1.1zm4.84 0v-4.37h-1.29v3.25h-1.23s-.4-.05-.47-.3v-2.89l-1.21-.06v3.23s.06.81 1.22 1.1zm4.23-8.64c0 .56.24 2.94-1.95 3s-2.28-1.45-2.28-2.52.23-2.72 2-2.72a2.28 2.28 0 0 1 2.23 2.22zm-5.85-2c-1.47-.19-1.81-1.5-1.66-2.81.12-1.07 1.42-2.71 2.47-2.47a2.64 2.64 0 0 1 1.81 2.77c-.2 1.17-1.14 2.72-2.62 2.53zm-4.75-.17c-1.11 0-2-1.24-2-2.78s.89-2.78 2-2.78 2 1.24 2 2.78-.9 2.78-2 2.78z"/>
</svg>