<svg id="Default" xmlns="http://www.w3.org/2000/svg" viewBox="0 0 24 24"><path d="M6.18,12.46l-1,.34v2.61c0,.89-.34,1.06-1.68,1a3.84,3.84,0,0,0-.25-.87h.94c.13,0,.17-.05.17-.18V13.07c-.34.12-.65.21-.9.29a.2.2,0,0,1-.15.16L3,12.5c.36-.09.81-.2,1.31-.34v-1.9H3.11V9.43h1.2V7.51l1,0c0,.09-.07.14-.22.16V9.43h1v.83h-1V12l1-.27.1.78Zm4.58.3.56.27a.29.29,0,0,1-.11.11,4.7,4.7,0,0,1-1.6,1.95,9.31,9.31,0,0,0,2.17.59,3.38,3.38,0,0,0-.55.79,8.84,8.84,0,0,1-2.49-.87,10.28,10.28,0,0,1-2.8.85,3.19,3.19,0,0,0-.4-.75A10,10,0,0,0,8,15.09a5.45,5.45,0,0,1-1.24-1.3l.55-.23H6.16v-.77h4.46l.14,0ZM8.38,12.6V12h-2V8.3l.42.15a4.65,4.65,0,0,0,1-.62l.56.54V7.5l1,.07c0,.07-.07.12-.21.14v3.52h1.32v-.8h-1V9.76h1V9h-1V8.26h1.76V12H9.16v.65ZM7.16,11.23H8.38V8.5H8.3A7.18,7.18,0,0,1,7.16,9v.72H8v.67H7.16Zm.37,2.33a4.14,4.14,0,0,0,1.26,1.11,3.87,3.87,0,0,0,1.26-1.11Zm5.39-6a6.09,6.09,0,0,1,.9,1,7.91,7.91,0,0,0,.64-1l.88.45c0,.05-.09.09-.2.08a8.77,8.77,0,0,1-.88,1.3,8,8,0,0,1,.55,3.34A7,7,0,0,1,14.33,16c-.19.25-.43.41-1.23.41h-.38a2,2,0,0,0-.23-.87c.22,0,.43,0,.59,0,.34,0,.48,0,.62-.17A8.62,8.62,0,0,0,14,12.6a7.76,7.76,0,0,1-1.29,1.45,3,3,0,0,0-.57-.67,6.28,6.28,0,0,0,1.79-2.07,5.45,5.45,0,0,0-.27-1.21c-.29.29-.58.57-.88.82a3.67,3.67,0,0,0-.6-.58,8.45,8.45,0,0,0,1.11-1.06,5.6,5.6,0,0,0-1-1.24l.61-.47Zm3.31.86a17.93,17.93,0,0,0,3.42-.93l.82.66a.3.3,0,0,1-.22.05l-.62.2c.16,3,.47,5.93,1.37,7.4a3,3,0,0,0-.65.67c-1-1.69-1.25-4.63-1.43-7.87-.77.2-1.65.38-2.47.52v2.35a12.74,12.74,0,0,1-.4,3.39l1.27-.08V9l.93.06c0,.07-.06.12-.19.14v5.51l.68,0c-.1-.42-.22-.83-.34-1.19l.58-.16A17.63,17.63,0,0,1,19.66,16l-.62.18c0-.22-.07-.48-.13-.75-1,.12-1.91.22-2.54.28a.17.17,0,0,1-.14.13L16,15a5.62,5.62,0,0,1-.69,1.49,2.08,2.08,0,0,0-.62-.56,8.13,8.13,0,0,0,1-4.47V8.25l.57.18Z"/></svg>