<svg xmlns="http://www.w3.org/2000/svg" width="24" height="24">
<path d="m6.18 12.46-1 .34v2.61c0 .89-.34 1.06-1.68 1a3.839 3.839 0 0 0-.25-.87h.94c.13 0 .17-.05.17-.18v-2.29c-.34.12-.65.21-.9.29a.2.2 0 0 1-.15.16L3 12.5c.36-.09.81-.2 1.31-.34v-1.9h-1.2v-.83h1.2V7.51h1c0 .09-.07.14-.22.16v1.76h1v.83h-1V12l1-.27.1.78-.01-.05Zm4.58.3.56.27a.29.29 0 0 1-.11.11 4.7 4.7 0 0 1-1.6 1.95 9.313 9.313 0 0 0 2.17.59c-.22.236-.405.502-.55.79a8.842 8.842 0 0 1-2.49-.87c-.888.415-1.83.702-2.8.85a3.19 3.19 0 0 0-.4-.75c.843-.098 1.67-.303 2.46-.61a5.452 5.452 0 0 1-1.24-1.3l.55-.23H6.16v-.77h4.6v-.03Zm-2.38-.16V12h-2V8.3l.42.15a4.65 4.65 0 0 0 1-.62l.56.54V7.5l1 .07c0 .07-.07.12-.21.14v3.52h1.32v-.8h-1v-.67h1V9h-1v-.74h1.76V12H9.16v.65l-.78-.05Zm-1.22-1.37h1.22V8.5H8.3a7.18 7.18 0 0 1-1.14.5v.72H8v.67h-.84v.84Zm.37 2.33c.34.452.769.83 1.26 1.11a3.87 3.87 0 0 0 1.26-1.11H7.53Zm5.39-6c.336.3.638.634.9 1a7.91 7.91 0 0 0 .64-1l.88.45c0 .05-.09.09-.2.08a8.771 8.771 0 0 1-.88 1.3 8 8 0 0 1 .55 3.34 7 7 0 0 1-.48 3.27c-.19.25-.43.41-1.23.41h-.38a2 2 0 0 0-.23-.87h.59c.34 0 .48 0 .62-.17a8.62 8.62 0 0 0 .3-2.77 7.76 7.76 0 0 1-1.29 1.45 2.999 2.999 0 0 0-.57-.67 6.279 6.279 0 0 0 1.79-2.07 5.452 5.452 0 0 0-.27-1.21c-.29.29-.58.57-.88.82a3.671 3.671 0 0 0-.6-.58 8.45 8.45 0 0 0 1.11-1.06 5.6 5.6 0 0 0-1-1.24l.61-.47.02-.01Zm3.31.86a17.93 17.93 0 0 0 3.42-.93l.82.66a.3.3 0 0 1-.22.05l-.62.2c.16 3 .47 5.93 1.37 7.4-.25.188-.47.414-.65.67-1-1.69-1.25-4.63-1.43-7.87-.77.2-1.65.38-2.47.52v2.35a12.742 12.742 0 0 1-.4 3.39l1.27-.08V9l.93.06c0 .07-.06.12-.19.14v5.51h.68c-.1-.42-.22-.83-.34-1.19l.58-.16c.294.861.522 1.744.68 2.64l-.62.18c0-.22-.07-.48-.13-.75-1 .12-1.91.22-2.54.28a.17.17 0 0 1-.14.13L16 15a5.62 5.62 0 0 1-.69 1.49 2.08 2.08 0 0 0-.62-.56 8.13 8.13 0 0 0 1-4.47V8.25l.57.18-.03-.01Z"/>
</svg>