<svg xmlns="http://www.w3.org/2000/svg" width="24" height="24">
<path d="M3 17.82a10.88 10.88 0 0 0 5.81 1.68 9.9 9.9 0 0 0 7.55-3.27 10.451 10.451 0 0 0 2.86-7.84v-.14a6.26 6.26 0 0 0 1.78-2 5.31 5.31 0 0 1-2.06.62 3.35 3.35 0 0 0 .91-.87c.293-.352.51-.76.64-1.2a5.911 5.911 0 0 1-1.15.55 3.52 3.52 0 0 1-1.15.26 3.7 3.7 0 0 0-2.72-1.11 3.53 3.53 0 0 0-2.6 1.11 3.63 3.63 0 0 0-1.1 2.69c0 .289.03.577.09.86a10.4 10.4 0 0 1-4.33-1.1A9.6 9.6 0 0 1 4 5.22a4.17 4.17 0 0 0-.31 2.93 3.52 3.52 0 0 0 1.43 2.07 1.9 1.9 0 0 1-1.59-.43c-.03.8.19 1.59.63 2.26a3.72 3.72 0 0 0 2.23 1.49 2.38 2.38 0 0 1-1.55.09 2.72 2.72 0 0 0 1.1 1.76 3.41 3.41 0 0 0 2.23.84 5.31 5.31 0 0 1-2 1.3 5.71 5.71 0 0 1-3.17.29Z"/>
</svg>