<svg xmlns="http://www.w3.org/2000/svg" height="24" width="24">
<path d="m13.78 10.09v.13c-.18.56-.63 1-1 .9s-.53-.57-.35-1.13.63-1 1-.9a.39.39 0 0 1 .24.12 1.29 1.29 0 0 0 -.85-1 1.43 1.43 0 0 0 -1.41.79c0-.86-.33-1.53-.87-1.7-.8-.3-1.79.7-2.21 2.07-.42 1.4-.11 2.73.69 3a1.59 1.59 0 0 0 1.58-.81c0 1 .37 1.76 1 1.9.81.19 1.75-.79 2.08-2.22.09-.37.127-.75.11-1.13zm-.28-.66c-.35-.15-.69.14-.44.37.35.15.69-.13.44-.37zm-3.43.67c-.35-.1-.46-.6-.24-1.1s.69-.93 1-.85.45.59.23 1.15-.64.88-.99.8zm.63-1.73a.25.25 0 1 0 0 .48c.17 0 .32-.11.32-.24s-.14-.24-.32-.24zm10.3 2.24c.24.72-.4 2-1.39 3a9.3 9.3 0 0 1 -3.31 1.74l.3 3c.13 1.18.27 2.36-.84 2.59s-2.64-.49-4-1.49l-2-1.53s-1.31 1-2.35 1.68-1.63.9-2.41-.06-.83-3.45-.64-4.71c.13-.811.313-1.613.55-2.4a9.58 9.58 0 0 1 -1.91-5.27c.08-2.68 1.43-2.08 2.14-1.64a6.55 6.55 0 0 0 3 1s2.86-3.52 5.19-3.52c1.26 0 1.41 1.57 1.67 2.81s.51 3.19.51 3.19c.819.226 1.65.403 2.49.53 1.71.31 2.75.36 3 1.08zm-7.36 3.24.38.31a1.844 1.844 0 0 1 -.19-.44c-.07-.24-.16-.62-.16-.62l-.08.61s-2.9 2-4.56 1.38-2-3.52-2-3.52l.38-.44a2.281 2.281 0 0 1 -.52.27c-.155.07-.315.128-.48.17h.48s.08 3.34 2 3.95 4.71-1.67 4.72-1.67z"/>
</svg>