<svg id="Default" xmlns="http://www.w3.org/2000/svg" viewBox="0 0 24 24"><path d="M20.42,13.05a14.93,14.93,0,0,0-1.18-2,1.94,1.94,0,0,0,0-1.63,5.47,5.47,0,0,1-.37-.66c-.13-.37-.11-.8-.2-1.15a8.22,8.22,0,0,0-.31-1C17.54,4.45,15.79,3.26,13,3H11.92a7.72,7.72,0,0,0-2.28.53A5.26,5.26,0,0,0,8,4.65a6,6,0,0,0-1.86,3.6c0,.13,0,.25,0,.36S6,8.79,6,8.91a2.17,2.17,0,0,0-.12.69,1.64,1.64,0,0,0-.29,1.47,6.92,6.92,0,0,0-1.92,2.12A5,5,0,0,0,3,16c0,.31.08.77.34.83a.73.73,0,0,0,.41-.09A2.32,2.32,0,0,0,4.59,16c.09-.15.11-.34.26-.45A2.1,2.1,0,0,1,5,16a4.67,4.67,0,0,0,1.45,2c.1.08.26.16.29.27-.67.06-1.21.2-1.44.64a1.65,1.65,0,0,0-.14.82c.06.52.67.81,1.13,1A8.86,8.86,0,0,0,9.41,21a5,5,0,0,0,2.34-.67c.11-.06.19-.16.28-.17a3.94,3.94,0,0,1,.4,0c.11,0,.28,0,.38,0a6.6,6.6,0,0,1,.86.28c1.53.49,4.11.6,5.35-.18a1,1,0,0,0,.48-.63A.87.87,0,0,0,19,18.8a9.06,9.06,0,0,0-1.22-.71,5,5,0,0,0,1.1-1.67,1.78,1.78,0,0,1,.3-.62,6.59,6.59,0,0,0,.42.71c.14.2.33.52.6.51a.56.56,0,0,0,.41-.27A2.22,2.22,0,0,0,21,15.62a4.8,4.8,0,0,0-.57-2.56h0Z"/></svg>