<svg xmlns="http://www.w3.org/2000/svg" width="24" height="24">
<path d="M5.25 9.47a5.47 5.47 0 0 0 .52 2.44 3 3 0 0 0 1.54 1.5.32.32 0 0 0 .5-.24 2.44 2.44 0 0 1 .08-.44 2 2 0 0 1 .12-.4.56.56 0 0 0-.16-.56 3.13 3.13 0 0 1-.66-2 4.88 4.88 0 0 1 1.38-3.5 4.67 4.67 0 0 1 3.55-1.45 4.19 4.19 0 0 1 3.08 1.1 3.9 3.9 0 0 1 1.11 2.88 7.76 7.76 0 0 1-.9 3.88 2.6 2.6 0 0 1-2.28 1.59 1.612 1.612 0 0 1-1.3-.58 1.52 1.52 0 0 1-.3-1.39c.08-.32.2-.75.35-1.27.15-.52.29-1 .39-1.39.096-.325.15-.661.16-1a1.74 1.74 0 0 0-.35-1.09 1.23 1.23 0 0 0-1-.44 1.69 1.69 0 0 0-1.38.77 3.14 3.14 0 0 0-.56 1.89c.001.288.028.576.08.86.02.205.086.402.19.58l.08.2A3314.82 3314.82 0 0 0 8.16 17a11.2 11.2 0 0 0 0 3.94.09.09 0 0 0 .08.1.16.16 0 0 0 .15 0 10.54 10.54 0 0 0 1.79-3.41c.49-1.75.74-2.69.74-2.82.217.39.549.704.95.9.453.26.967.395 1.49.39a4.65 4.65 0 0 0 3.88-2 8.25 8.25 0 0 0 1.51-5.11A5.64 5.64 0 0 0 17 4.77 6.189 6.189 0 0 0 12.43 3a6.92 6.92 0 0 0-5.26 2 6.33 6.33 0 0 0-1.92 4.47Z"/>
</svg>