<svg id="Default" xmlns="http://www.w3.org/2000/svg" viewBox="0 0 24 24"><path d="M5.11,8h0s.68-1.53.78-1.73.35-.61.83-.37.2.82.2.82l-2,4.45s-.33.52-.77.28-.22-.8-.22-.8l.61-1.32S3.49,7.53,3.12,6.83A.69.69,0,0,1,3.18,6c.42-.27.71-.11.94.25S5.11,8,5.11,8ZM8.64,5.84h0A2,2,0,0,1,10.52,8,2,2,0,0,1,8.64,10a2,2,0,0,1-1.86-2.1A2,2,0,0,1,8.64,5.84Zm0,3.2c.49,0,.86-.45.86-1.1s-.35-1.08-.85-1.08-.87.43-.87,1.08S8.16,9,8.65,9Zm2-2.51h0c0-.25.09-.62.52-.62s.48.35.48.6,0,1.68,0,1.84c0,.37.15.84.71.84s.68-.52.68-.85V6.52c0-.26.09-.6.49-.6A.51.51,0,0,1,14,6.5v2c0,.83-.44,1.53-1.69,1.53a1.47,1.47,0,0,1-1.67-1.54v-2Zm7,0h0c0-.25.09-.62.52-.62s.47.35.47.6,0,1.68,0,1.84c0,.37.15.84.71.84s.69-.52.69-.85V6.52c0-.26.08-.6.48-.6A.51.51,0,0,1,21,6.5v2c0,.83-.44,1.53-1.68,1.53a1.47,1.47,0,0,1-1.67-1.54v-2Zm-3.5,2.89V6.6a.55.55,0,1,1,1.09,0v1s1.18-1.25,1.42-1.47a.53.53,0,0,1,.72,0,.48.48,0,0,1,0,.71c-.22.25-1,1.07-1,1.07L17.52,9.1a.5.5,0,0,1,0,.73.63.63,0,0,1-.83,0L15.24,8.45v1a.55.55,0,1,1-1.09,0ZM7.84,12.48A8.4,8.4,0,0,1,7.25,14v4.15H6.53V15.25a4.84,4.84,0,0,1-.38.58l-.64-.48A13.26,13.26,0,0,0,7.09,12.1l.75.38Zm-.07,5.71-.64-.56a4.19,4.19,0,0,0,1.58-3.19H7.49V13.8H8.78V12.16h.7V13.8h2.28v.64H10.39v2.93c0,.08,0,.12.11.12H11c.08,0,.14-.05.18-.16a8.23,8.23,0,0,0,.07-1.08l.76.23v.61a1,1,0,0,1-.79,1.1h-.94a.68.68,0,0,1-.6-.63v-3.1H9.5a5.21,5.21,0,0,1-1.73,3.75Zm3.87-5-.48.53-1.16-1,.49-.52,1.15,1Zm5.88,1.39h1.19v.6H15.64v-.6h1.24v-.86h-.59a5.24,5.24,0,0,1-.16.69l-.61-.1a12.18,12.18,0,0,0,.26-1.8h.67a2.86,2.86,0,0,1-.05.61h.47v-.84h.66v.84h.94v.61h-.95v.86Zm-1.75,3h0V15.51h2.69v2.17s-.07.51-.54.51H16.25C16,18.19,15.77,18,15.77,17.58Zm.69-1.47v1.31s0,.15.2.15h1a.14.14,0,0,0,.16-.15V16.11Zm-1.27-2.55c.2,0,.22.1.22.32V17.6s-.27.59-.49.59H13c-.37,0-.65-.16-.65-.56V13.79a.21.21,0,0,1,.23-.23h.73V13h-1v-.61H15.4V13h-.82v.6Zm-.61.73h0v.89c0,.08,0,.12.08.12h.16v-1ZM13.86,13v.6H14V13ZM13,14.29v1.19a1.33,1.33,0,0,0,.25-.75v-.44Zm0,1.46h0v.48h1.78v-.36h-.37a.47.47,0,0,1-.45-.5V14.29h-.13v.4A1.62,1.62,0,0,1,13.37,16Zm1.66,1.82c.16,0,.12-.11.12-.11v-.62H13v.62a.12.12,0,0,0,.13.11Z"/></svg>