<svg xmlns="http://www.w3.org/2000/svg" width="24" height="24">
<path d="M20.42 13.05a14.933 14.933 0 0 0-1.18-2 1.94 1.94 0 0 0 0-1.63 5.466 5.466 0 0 1-.37-.66c-.13-.37-.11-.8-.2-1.15a8.238 8.238 0 0 0-.31-1C17.54 4.45 15.79 3.26 13 3h-1.08a7.72 7.72 0 0 0-2.28.53A5.26 5.26 0 0 0 8 4.65a6 6 0 0 0-1.86 3.6v.36c0 .11-.14.18-.14.3a2.17 2.17 0 0 0-.12.69 1.64 1.64 0 0 0-.29 1.47 6.919 6.919 0 0 0-1.92 2.12A5 5 0 0 0 3 16c0 .31.08.77.34.83a.73.73 0 0 0 .41-.09 2.32 2.32 0 0 0 .84-.74c.09-.15.11-.34.26-.45A2.1 2.1 0 0 1 5 16a4.67 4.67 0 0 0 1.45 2c.1.08.26.16.29.27-.67.06-1.21.2-1.44.64a1.65 1.65 0 0 0-.14.82c.06.52.67.81 1.13 1a8.86 8.86 0 0 0 3.12.27 5 5 0 0 0 2.34-.67c.11-.06.19-.16.28-.17.133-.007.267-.007.4 0h.38c.293.074.58.167.86.28 1.53.49 4.11.6 5.35-.18a.999.999 0 0 0 .48-.63.871.871 0 0 0-.5-.83 9.068 9.068 0 0 0-1.22-.71 5 5 0 0 0 1.1-1.67c.059-.224.16-.435.3-.62.125.245.265.482.42.71.14.2.33.52.6.51a.56.56 0 0 0 .41-.27c.23-.334.366-.725.39-1.13a4.801 4.801 0 0 0-.57-2.56l-.01-.01Z"/>
</svg>