<svg xmlns="http://www.w3.org/2000/svg" width="24" height="24">
<path d="M22.997 6.614a8.517 8.517 0 0 0-.22-2.009c-.29-1.199-.973-2.117-1.998-2.789a4.577 4.577 0 0 0-1.72-.667 9.717 9.717 0 0 0-1.434-.137c-.038-.002-.077-.008-.114-.012H6.489l-.417.024c-.685.038-1.365.113-2.01.368-1.227.486-2.11 1.332-2.628 2.547-.175.412-.267.849-.333 1.292-.052.359-.081.719-.091 1.082-.002.028-.008.056-.01.084v11.205c.008.13.015.26.024.389.045.747.141 1.489.455 2.175.596 1.302 1.593 2.157 2.965 2.569a6.03 6.03 0 0 0 1.185.209c.509.048 1.018.056 1.528.056 3.37 0 6.74 0 10.111-.002.482 0 .96-.03 1.439-.09.755-.097 1.464-.322 2.104-.743a4.618 4.618 0 0 0 1.724-2.024c.17-.387.268-.797.338-1.214.104-.619.127-1.244.127-1.87-.002-3.482.001-6.962-.003-10.443ZM17.11 10.27c0 1.745 0 3.491-.002 5.236 0 .383-.052.758-.222 1.106-.264.542-.697.883-1.272 1.046-.32.091-.647.143-.98.158a1.711 1.711 0 0 1-1.783-1.408 1.723 1.723 0 0 1 .954-1.852c.296-.147.613-.229.933-.298.347-.075.694-.14 1.04-.22.251-.057.418-.211.467-.473a.911.911 0 0 0 .017-.177c.001-1.664.001-3.327-.001-4.99a.693.693 0 0 0-.023-.17c-.037-.137-.137-.222-.279-.214a3.136 3.136 0 0 0-.435.061c-.697.137-1.393.278-2.09.419l-2.133.431-1.26.255-.043.011c-.253.07-.345.187-.357.448-.002.04-.002.08-.002.12l-.001 7.155c0 .386-.043.767-.197 1.125-.256.588-.707.954-1.316 1.131a4.042 4.042 0 0 1-.985.157 1.687 1.687 0 0 1-1.759-1.415c-.13-.745.21-1.545 1.056-1.904.327-.137.671-.213 1.016-.284.263-.056.527-.106.789-.162.35-.077.534-.296.548-.655.002-.046.002-.091.002-.137l.001-8.142c0-.112.012-.229.038-.339.064-.261.25-.41.5-.476.234-.06.472-.103.71-.151l2.015-.406 2.083-.42c.614-.124 1.227-.25 1.841-.371.202-.04.407-.08.609-.097.284-.022.479.156.508.442.007.067.011.136.011.205.002 1.753.002 3.504.002 5.255Z"/>
</svg>