<svg xmlns="http://www.w3.org/2000/svg" width="24" height="24">
<path d="M9.37 4.69c3.13 0 5.88 1.9 6.43 4.46h-.61a5.22 5.22 0 0 0-5.42 5c0 .45.067.9.2 1.33h-.6c-.752-.029-1.5-.136-2.23-.32l-2.23 1.13.64-1.91A5.19 5.19 0 0 1 3 10.09c0-3.02 2.87-5.4 6.37-5.4ZM7.3 9a.76.76 0 0 0 .8-.8.75.75 0 0 0-.8-.79.89.89 0 0 0-1 .79.9.9 0 0 0 1 .8Zm4.46 0a.76.76 0 0 0 .8-.8.751.751 0 0 0-.8-.79.89.89 0 0 0-1 .79.898.898 0 0 0 1 .8ZM21 14.07a4.791 4.791 0 0 1-2.23 3.65l.48 1.59-1.75-.95a7.995 7.995 0 0 1-1.91.32c-3 0-5.42-2.07-5.42-4.61 0-2.54 2.39-4.61 5.42-4.61 2.86 0 5.41 2.07 5.41 4.61Zm-7.17-.8a.73.73 0 0 0 .8-.64.73.73 0 0 0-.8-.63.641.641 0 1 0 0 1.27Zm3.51 0a.72.72 0 0 0 .79-.64.73.73 0 0 0-.79-.63.641.641 0 1 0 0 1.27Z"/>
</svg>