<svg height="24" width="24" xmlns="http://www.w3.org/2000/svg"><path d="m5.11 8s.68-1.53.78-1.73.35-.61.83-.37.2.82.2.82l-2 4.45s-.33.52-.77.28-.22-.8-.22-.8l.61-1.32s-1.05-1.8-1.42-2.5a.69.69 0 0 1 .06-.83c.42-.27.71-.11.94.25s.99 1.75.99 1.75zm3.53-2.16a2 2 0 0 1 1.88 2.16 2 2 0 0 1 -1.88 2 2 2 0 0 1 -1.86-2.1 2 2 0 0 1 1.86-2.06zm0 3.2c.49 0 .86-.45.86-1.1s-.35-1.08-.85-1.08-.87.43-.87 1.08.38 1.06.87 1.06zm2-2.51c0-.25.09-.62.52-.62s.48.35.48.6v1.84c0 .37.15.84.71.84s.68-.52.68-.85v-1.82c0-.26.09-.6.49-.6a.51.51 0 0 1 .48.58v2c0 .83-.44 1.53-1.69 1.53a1.47 1.47 0 0 1 -1.67-1.54v-2zm7 0c0-.25.09-.62.52-.62s.47.35.47.6v1.84c0 .37.15.84.71.84s.69-.52.69-.85v-1.82c0-.26.08-.6.48-.6a.51.51 0 0 1 .49.58v2c0 .83-.44 1.53-1.68 1.53a1.47 1.47 0 0 1 -1.67-1.54v-2zm-3.5 2.89v-2.82a.55.55 0 1 1 1.09 0v1s1.18-1.25 1.42-1.47a.53.53 0 0 1 .836.16.48.48 0 0 1 -.116.55c-.22.25-1 1.07-1 1.07l1.15 1.19a.499.499 0 0 1 0 .73.63.63 0 0 1 -.83 0l-1.45-1.38v1a.549.549 0 0 1 -.96.436.55.55 0 0 1 -.13-.436zm-6.3 3.06a8.403 8.403 0 0 1 -.59 1.52v4.15h-.72v-2.9c-.113.202-.24.396-.38.58l-.64-.48a13.262 13.262 0 0 0 1.58-3.25zm-.07 5.71-.64-.56a4.19 4.19 0 0 0 1.58-3.19h-1.22v-.64h1.29v-1.64h.7v1.64h2.28v.64h-1.37v2.93c0 .08 0 .12.11.12h.5c.08 0 .14-.05.18-.16a8.23 8.23 0 0 0 .07-1.08l.76.23v.61a1 1 0 0 1 -.79 1.1h-.94a.68.68 0 0 1 -.6-.63v-3.1h-.18a5.21 5.21 0 0 1 -1.73 3.75zm3.87-5-.48.53-1.16-1 .49-.52 1.15 1zm5.88 1.39h1.19v.6h-3.07v-.6h1.24v-.86h-.59a5.248 5.248 0 0 1 -.16.69l-.61-.1c.131-.593.218-1.194.26-1.8h.67c.005.204-.012.409-.05.61h.47v-.84h.66v.84h.94v.61h-.95v.86zm-1.75 3v-2.07h2.69v2.17s-.07.51-.54.51h-1.67c-.25 0-.48-.19-.48-.61zm.69-1.47v1.31s0 .15.2.15h1a.14.14 0 0 0 .16-.15v-1.31zm-1.27-2.55c.2 0 .22.1.22.32v3.72s-.27.59-.49.59h-1.92c-.37 0-.65-.16-.65-.56v-3.84a.211.211 0 0 1 .138-.219.21.21 0 0 1 .092-.011h.73v-.56h-1v-.61h3.09v.61h-.82v.6zm-.61.73v.89c0 .08 0 .12.08.12h.16v-1zm-.72-1.29v.6h.14v-.6zm-.86 1.29v1.19a1.33 1.33 0 0 0 .25-.75v-.44zm0 1.46v.48h1.78v-.36h-.37a.47.47 0 0 1 -.45-.5v-1.08h-.13v.4a1.62 1.62 0 0 1 -.46 1.31zm1.66 1.82c.16 0 .12-.11.12-.11v-.62h-1.78v.62a.12.12 0 0 0 .13.11z"/></svg>