<svg id="Default" xmlns="http://www.w3.org/2000/svg" viewBox="0 0 24 24"><path d="M13.78,10.09s0,.08,0,.13c-.18.56-.63,1-1,.9s-.53-.57-.35-1.13.63-1,1-.9a.39.39,0,0,1,.24.12,1.29,1.29,0,0,0-.85-1A1.43,1.43,0,0,0,11.41,9c0-.86-.33-1.53-.87-1.7C9.74,7,8.75,8,8.33,9.37h0c-.42,1.4-.11,2.73.69,3a1.59,1.59,0,0,0,1.58-.81c0,1,.37,1.76,1,1.9.81.19,1.75-.79,2.08-2.22a4,4,0,0,0,.11-1.13Zm-.28-.66c-.35-.15-.69.14-.44.37l0,0c.35.15.69-.13.44-.37Zm-3.43.67C9.72,10,9.61,9.5,9.83,9s.69-.93,1-.85.45.59.23,1.15S10.42,10.18,10.07,10.1Zm.63-1.73a.25.25,0,1,0,0,.48c.17,0,.32-.11.32-.24S10.88,8.37,10.7,8.37ZM21,10.61h0c.24.72-.4,2-1.39,3a9.3,9.3,0,0,1-3.31,1.74l.3,3c.13,1.18.27,2.36-.84,2.59s-2.64-.49-4-1.49l-2-1.53s-1.31,1-2.35,1.68S5.78,20.5,5,19.54s-.83-3.45-.64-4.71a18.35,18.35,0,0,1,.55-2.4A9.58,9.58,0,0,1,3,7.16c.08-2.68,1.43-2.08,2.14-1.64a6.55,6.55,0,0,0,3,1S11,3,13.33,3C14.59,3,14.74,4.57,15,5.81S15.51,9,15.51,9A21.34,21.34,0,0,0,18,9.53c1.71.31,2.75.36,3,1.08Zm-7.36,3.24h0l.38.31a1.84,1.84,0,0,1-.19-.44c-.07-.24-.16-.62-.16-.62l-.08.61s-2.9,2-4.56,1.38-2-3.52-2-3.52l.38-.44a2.28,2.28,0,0,1-.52.27,2.87,2.87,0,0,1-.48.17h.48s.08,3.34,2,3.95,4.71-1.67,4.72-1.67Z"/></svg>