<svg xmlns="http://www.w3.org/2000/svg" width="24" height="24">
<path d="M12 4.62c-2.4 0-2.69 0-3.64.06A4.8 4.8 0 0 0 6.7 5a2.81 2.81 0 0 0-1 .68 2.74 2.74 0 0 0-.67 1 5 5 0 0 0-.31 1.67v7.27A5.06 5.06 0 0 0 5 17.3c.146.379.375.72.67 1 .28.297.621.529 1 .68a5.048 5.048 0 0 0 1.66.3c1 .05 1.24.06 3.64.06 2.4 0 2.69 0 3.64-.06a4.918 4.918 0 0 0 1.67-.3A2.999 2.999 0 0 0 19 17.3a5 5 0 0 0 .31-1.67c0-1 .05-1.23.05-3.64s0-2.68-.05-3.63A5.06 5.06 0 0 0 19 6.69 3 3 0 0 0 17.31 5a5.13 5.13 0 0 0-1.67-.3c-.95-.07-1.24-.08-3.64-.08ZM12 3c2.45 0 2.75 0 3.71.06a6.61 6.61 0 0 1 2.19.41 4.64 4.64 0 0 1 2.63 2.63c.259.702.397 1.442.41 2.19 0 1 .06 1.26.06 3.71s0 2.75-.06 3.71a6.61 6.61 0 0 1-.41 2.19 4.641 4.641 0 0 1-2.63 2.63 6.61 6.61 0 0 1-2.19.41c-1 0-1.26.06-3.71.06s-2.75 0-3.71-.06a6.659 6.659 0 0 1-2.19-.41 4.64 4.64 0 0 1-2.63-2.63 6.61 6.61 0 0 1-.41-2.19C3 14.75 3 14.45 3 12s0-2.75.06-3.71a6.54 6.54 0 0 1 .41-2.18 4.37 4.37 0 0 1 1-1.6 4.42 4.42 0 0 1 1.59-1 6.93 6.93 0 0 1 2.19-.41C9.25 3 9.55 3 12 3Zm0 4.38a4.62 4.62 0 1 1 0 9.24 4.62 4.62 0 0 1 0-9.24ZM12 15a3 3 0 1 0 0-5.999A3 3 0 0 0 12 15Zm5.89-7.81a1.08 1.08 0 1 1-2.16 0 1.08 1.08 0 0 1 2.16 0Z"/>
</svg>