<?xml version="1.0" encoding="utf-8"?>
<!-- Generator: Adobe Illustrator 25.4.1, SVG Export Plug-In . SVG Version: 6.00 Build 0)  -->
<svg version="1.1" id="Default" xmlns="http://www.w3.org/2000/svg" xmlns:xlink="http://www.w3.org/1999/xlink" x="0px" y="0px"
	 viewBox="0 0 24 24" style="enable-background:new 0 0 24 24;" xml:space="preserve">
<path d="M3.3,8H7v12H3.3V8z M5.2,2c1.2,0,2.2,1,2.2,2.2c0,1.2-1,2.2-2.2,2.2C4,6.3,3,5.4,3,4.2c0,0,0,0,0,0C3,3,4,2,5.2,2
	C5.2,2,5.2,2,5.2,2z M9.4,8H13v1.6l0,0c0.7-1.3,2.1-2,3.5-1.9c3.8,0,4.5,2.5,4.5,5.7V20h-3.7v-5.8c0-1.4,0-3.2-1.9-3.2
	s-2.2,1.5-2.2,3.1V20H9.4V8z"/>
</svg>
