<svg id="Default" xmlns="http://www.w3.org/2000/svg" viewBox="0 0 24 24"><path d="M8.93,14.38c0-1.19,0-2.38,0-3.58,0-.23-.07-.28-.28-.28-.54,0-1.09,0-1.64,0-.2,0-.28,0-.27-.28,0-.61,0-1.22,0-1.83A.34.34,0,0,1,7,8.06,6.2,6.2,0,0,0,9.42,5.9a5,5,0,0,0,.81-2.62c0-.23.08-.28.28-.28.56,0,1.11,0,1.67,0,.21,0,.27.07.27.29,0,1.36,0,2.73,0,4.09,0,.25.06.32.3.32h3.78c.25,0,.3.08.3.32,0,.75,0,1.51,0,2.26,0,.22-.07.26-.25.26H12.75c-.23,0-.31,0-.31.31,0,1.73,0,3.47,0,5.2a4,4,0,0,0,.05.6,1.83,1.83,0,0,0,1.81,1.65,6.35,6.35,0,0,0,2.63-.63c.31-.13.31-.13.31.21v2.26c0,.13,0,.22-.15.26a12.78,12.78,0,0,1-5.17.54,4,4,0,0,1-1.73-.63,2.83,2.83,0,0,1-1.26-2.42c0-1.16,0-2.32,0-3.49Z"/></svg>