<svg id="Default" xmlns="http://www.w3.org/2000/svg" viewBox="0 0 24 24"><path d="M16.53,3H7.6A1.54,1.54,0,0,0,6,4.62V19.88a1,1,0,0,0,.55,1.05,1,1,0,0,0,1.08-.25s4.21-5.25,4.29-5.33.11-.12.22-.12h2.73c1.14,0,1.33-.88,1.45-1.4s1.21-6.58,1.59-8.54C18.19,3.8,17.84,3,16.53,3Zm-.21,10.83c.09-.43,1.21-6.58,1.59-8.54ZM16,5.6l-.38,2.1a.62.62,0,0,1-.55.46H11.59a.66.66,0,0,0-.67.71v.46a.67.67,0,0,0,.67.72h2.95s.55.32.49.64-.34,1.89-.37,2.06a.6.6,0,0,1-.55.48H11.7a.85.85,0,0,0-.87.45c-.29.39-2.93,3.8-2.93,3.8s-.05,0-.05,0V5.56A.58.58,0,0,1,8.39,5h7.17A.49.49,0,0,1,16,5.6Z"/></svg>