<svg height="24" width="24" xmlns="http://www.w3.org/2000/svg"><path d="m22 12.03c0-1.21-.99-2.18-2.19-2.18-.59 0-1.13.23-1.52.61-1.51-1.07-3.57-1.77-5.86-1.86l1-4.68 3.26.7c.04.82.72 1.48 1.56 1.48.86 0 1.56-.7 1.56-1.55a1.56 1.56 0 0 0 -2.96-.68l-3.64-.77c-.11-.02-.22 0-.29.05-.09.05-.14.14-.16.25l-1.11 5.21c-2.33.07-4.43.77-5.95 1.86-.38-.37-.92-.6-1.51-.6-1.22 0-2.19.98-2.19 2.18 0 .89.54 1.64 1.29 1.98-.04.21-.05.43-.05.66 0 3.36 3.92 6.09 8.76 6.09s8.76-2.71 8.76-6.09c0-.21-.02-.45-.05-.66.75-.34 1.29-1.11 1.29-2zm-15.02 1.55c0-.86.7-1.55 1.56-1.55s1.56.7 1.56 1.55-.7 1.55-1.56 1.55c-.86.03-1.56-.69-1.56-1.55zm8.73 4.13c-1.08 1.07-3.12 1.14-3.71 1.14-.61 0-2.65-.09-3.71-1.14a.398.398 0 0 1 0-.57c.16-.16.41-.16.57 0 .68.68 2.11.91 3.14.91s2.47-.23 3.14-.91c.16-.16.41-.16.57 0 .14.16.14.41 0 .57zm-.29-2.55c-.86 0-1.56-.7-1.56-1.55 0-.86.7-1.55 1.56-1.55s1.56.7 1.56 1.55c0 .83-.7 1.55-1.56 1.55z"/></svg>