<svg id="Default" xmlns="http://www.w3.org/2000/svg" viewBox="0 0 24 24"><path d="M11.86,8.28h0c.38,0,2.2,0,3.23,0,.8,0,2.54,0,3,.05L17.67,9a12.82,12.82,0,0,0-1.73.34c-.42.14-4,3-4.22,3.71a5.37,5.37,0,0,0-.09,1l-.05.58A12.42,12.42,0,0,0,11.72,16c.23.05,1.92,0,2.25.05l-.05.73h-3.7c-.66,0-2.67.05-3.28.05L7,16.18c.33,0,1.74.05,2.06-.29.14-.15.1-.34.1-1.32v-.44a8.07,8.07,0,0,0,0-1A36.64,36.64,0,0,0,5.06,7.93c-.23,0-1.69-.19-2.06-.29V7c.19-.1,1.83,0,3.42,0,1,0,3.42,0,3.71,0l-.1.53c-.28.1-1.83.15-2.2.25,1,1.56,2.62,3.61,3.14,4.39.28-.44,2.81-2.24,2.9-2.88A16.67,16.67,0,0,0,12,9l-.14-.73Zm8-.25h0c.79.1.94.1,1.17.15L20.67,9.3c-.33.93-1.17,5-1.26,5.27l-1.13-.1c.1-.58,0-5.17,0-5.66l-.05-1A12.26,12.26,0,0,0,19.83,8ZM18,15.55l.8.1.65,0-.18,1.37-.61,0-.61-.09Z"/></svg>