<svg id="Default" xmlns="http://www.w3.org/2000/svg" viewBox="0 0 24 24"><path d="M19.61,16h0c.75.6,1.72,1.1,1.26,2.36A4.24,4.24,0,0,1,17.38,21a5.47,5.47,0,0,1-.93-.26A23.4,23.4,0,0,1,3.32,7.81c-.85-2,0-3.76,2.18-4.47a1.69,1.69,0,0,1,1.13,0c.91.33,3.23,3.45,3.28,4.38A1.62,1.62,0,0,1,9,9.15a1.62,1.62,0,0,0-.53,2.29,8.44,8.44,0,0,0,4.42,4.22,1.39,1.39,0,0,0,1.9-.45c.87-1.3,2-1.23,3.13-.42.59.4,1.19.8,1.74,1.24ZM12.73,4h0c-.37,0-.93,0-.91-.46,0-.71.72-.44,1-.49a8.44,8.44,0,0,1,8,8.18c0,.41.15,1-.48,1s-.44-.63-.49-1c-.57-4.43-2.64-6.52-7.13-7.2Zm.88,1.22h0a5.6,5.6,0,0,1,5,5.27c-.05.3.13.83-.37.91-.68.09-.55-.52-.62-.91-.46-2.69-1.42-3.69-4.19-4.29-.41-.09-1,0-.94-.65S13.18,5.12,13.61,5.18Zm.26,2.11h0A3,3,0,0,1,16.51,10c0,.34,0,.7-.44.75s-.49-.21-.52-.51A2,2,0,0,0,13.7,8.24c-.34-.05-.67-.16-.51-.61.11-.3.39-.33.68-.34Z"/></svg>