<svg height="24" width="24" xmlns="http://www.w3.org/2000/svg"><path d="m18.38 5.62a8.88 8.88 0 0 0 -6.32-2.62 9 9 0 0 0 -9 8.92 8.78 8.78 0 0 0 1.24 4.5l-1.3 4.58 4.75-1.24a8.909 8.909 0 0 0 4.25 1.08 9 9 0 0 0 9-8.91 8.789 8.789 0 0 0 -2.62-6.28zm-6.38 13.72a7.53 7.53 0 0 1 -3.83-1.05l-.17-.14-2.82.73.76-2.73-.18-.28a7.28 7.28 0 0 1 -1.14-3.94 7.45 7.45 0 0 1 14.9 0 7.45 7.45 0 0 1 -7.52 7.41zm4.09-5.55c-.23-.12-1.33-.65-1.53-.73s-.36-.11-.51.11-.58.73-.71.87-.26.17-.48.06a6.099 6.099 0 0 1 -1.77-1.1 6.85 6.85 0 0 1 -1.24-1.54.32.32 0 0 1 .15-.46c.117-.124.227-.254.33-.39.092-.113.169-.238.23-.37a.44.44 0 0 0 0-.39c-.06-.11-.51-1.21-.69-1.66s-.37-.37-.51-.38h-.49a.85.85 0 0 0 -.6.28 2.49 2.49 0 0 0 -.79 1.86 4.35 4.35 0 0 0 .92 2.31 10 10 0 0 0 3.82 3.36c.388.171.786.321 1.19.45a3.095 3.095 0 0 0 1.54.11 2.289 2.289 0 0 0 1.49-1.06 1.78 1.78 0 0 0 .11-1.12c-.05-.09-.2-.14-.42-.26z"/></svg>