<svg id="Default" xmlns="http://www.w3.org/2000/svg" viewBox="0 0 24 24"><path d="M11.81,17.08h1.07a.91.91,0,0,0,.5-.21.77.77,0,0,0,.14-.47s0-1.42.65-1.63,1.51,1.38,2.41,2a1.74,1.74,0,0,0,1.2.36l2.4,0s1.26-.07.66-1a8.07,8.07,0,0,0-1.79-2c-1.51-1.38-1.3-1.15.51-3.54C20.67,9,21.11,8.11,21,7.73S20,7.46,20,7.46l-2.71,0a.6.6,0,0,0-.35.06.74.74,0,0,0-.24.29,15.81,15.81,0,0,1-1,2.08c-1.2,2-1.69,2.12-1.88,2-.46-.29-.35-1.18-.35-1.8,0-2,.3-2.77-.58-3A4.73,4.73,0,0,0,11.66,7a5.77,5.77,0,0,0-2.25.23c-.31.15-.55.48-.4.5a1.24,1.24,0,0,1,.8.39,2.55,2.55,0,0,1,.27,1.21s.16,2.3-.38,2.59c-.36.2-.86-.2-1.94-2a15.92,15.92,0,0,1-1-2,.81.81,0,0,0-.23-.3,1.15,1.15,0,0,0-.41-.16H3.59s-.39,0-.53.18,0,.45,0,.45,2,4.65,4.29,7a6.24,6.24,0,0,0,4.47,2Z"/></svg>