<svg xmlns="http://www.w3.org/2000/svg" width="24" height="24">
<path d="M14.63 14.8a4.28 4.28 0 0 1-.42 1.93 3.86 3.86 0 0 1-1.14 1.42 5.19 5.19 0 0 1-1.84.94 9.475 9.475 0 0 1-2.54.28H3V4.5h5c.838-.016 1.677.024 2.51.12a5 5 0 0 1 1.57.53c.505.237.927.62 1.21 1.1.266.513.4 1.083.39 1.66a3.42 3.42 0 0 1-.54 1.91 3.61 3.61 0 0 1-1.53 1.29v.08a4 4 0 0 1 2.2 1.2 3.5 3.5 0 0 1 .82 2.41ZM9.94 8.69a1.43 1.43 0 0 0-.17-.64 1.12 1.12 0 0 0-.63-.5 3.33 3.33 0 0 0-1-.17H6.58v2.74h1.6c.341.01.68-.049 1-.17a1.13 1.13 0 0 0 .65-.51 1.67 1.67 0 0 0 .15-.73l-.04-.02Zm.89 6.06a1.86 1.86 0 0 0-.26-1.06 1.63 1.63 0 0 0-.89-.55A4.793 4.793 0 0 0 8.5 13H6.57v3.58h2a3.29 3.29 0 0 0 1.23-.25 1.46 1.46 0 0 0 .78-.64c.152-.282.228-.6.22-.92l.03-.02ZM21 4.5 20.56 15h-3.1L17 4.5h4Zm-.3 13.37a1.69 1.69 0 1 1-1.7-1.63 1.661 1.661 0 0 1 1.7 1.63Z"/>
</svg>