<svg xmlns="http://www.w3.org/2000/svg" width="24" height="24">
<path d="M12 2C6.477 2 2 6.477 2 12s4.477 10 10 10 10-4.477 10-10S17.523 2 12 2Zm4.586 14.424a.623.623 0 0 1-.857.207c-2.348-1.436-5.304-1.76-8.785-.965a.624.624 0 0 1-.277-1.214c3.809-.871 7.076-.496 9.712 1.114.294.18.386.563.207.857ZM17.81 13.7a.78.78 0 0 1-1.073.256c-2.687-1.652-6.785-2.13-9.964-1.166a.78.78 0 0 1-.454-1.492c3.632-1.101 8.148-.568 11.234 1.329a.78.78 0 0 1 .256 1.072Zm.106-2.836C14.692 8.95 9.375 8.775 6.298 9.709a.935.935 0 1 1-.543-1.79c3.532-1.073 9.404-.865 13.116 1.337a.935.935 0 1 1-.955 1.609Z"/>
</svg>