<svg xmlns="http://www.w3.org/2000/svg" height="24" width="24">
<path d="m19.61 16c.75.6 1.72 1.1 1.26 2.36a4.24 4.24 0 0 1 -3.49 2.64 5.474 5.474 0 0 1 -.93-.26 23.403 23.403 0 0 1 -13.13-12.93c-.85-2 0-3.76 2.18-4.47a1.69 1.69 0 0 1 1.13 0c.91.33 3.23 3.45 3.28 4.38a1.62 1.62 0 0 1 -.91 1.43 1.62 1.62 0 0 0 -.53 2.29 8.44 8.44 0 0 0 4.42 4.22 1.39 1.39 0 0 0 1.9-.45c.87-1.3 2-1.23 3.13-.42.59.4 1.19.8 1.74 1.24zm-6.88-12c-.37 0-.93 0-.91-.46 0-.71.72-.44 1-.49a8.44 8.44 0 0 1 8 8.18c0 .41.15 1-.48 1s-.44-.63-.49-1c-.57-4.43-2.64-6.52-7.13-7.2zm.88 1.22a5.6 5.6 0 0 1 5 5.27c-.05.3.13.83-.37.91-.68.09-.55-.52-.62-.91-.46-2.69-1.42-3.69-4.19-4.29-.41-.09-1 0-.94-.65s.69-.43 1.12-.37zm.26 2.11a3 3 0 0 1 2.64 2.67c0 .34 0 .7-.44.75s-.49-.21-.52-.51a2 2 0 0 0 -1.85-2c-.34-.05-.67-.16-.51-.61.11-.3.39-.33.68-.34z"/>
</svg>