<svg xmlns="http://www.w3.org/2000/svg" width="24" height="24">
<path d="M12 2C6.494 2 2 6.494 2 12s4.494 10 10 10 10-4.494 10-10S17.506 2 12 2Zm0 16.765c-1.976 0-3.58-.691-3.58-1.53 0-.864 1.605-1.531 3.58-1.531s3.58.666 3.58 1.53c0 .84-1.604 1.531-3.58 1.531Zm0-3.851a4.078 4.078 0 0 1-4.074-4.075A4.078 4.078 0 0 1 12 6.765a4.078 4.078 0 0 1 4.074 4.074A4.078 4.078 0 0 1 12 14.915Zm4.099-6.89a1.001 1.001 0 0 1-1.013-1.012c0-.568.47-1.012 1.013-1.012.543 0 1.012.444 1.012 1.013 0 .567-.445 1.011-1.012 1.011Z"/>
</svg>