<svg xmlns="http://www.w3.org/2000/svg" height="24" width="24">
<path d="m16.53 3h-8.93a1.54 1.54 0 0 0 -1.6 1.62v15.26a1 1 0 0 0 .55 1.05 1 1 0 0 0 1.08-.25s4.21-5.25 4.29-5.33.11-.12.22-.12h2.73c1.14 0 1.33-.88 1.45-1.4s1.21-6.58 1.59-8.54c.28-1.49-.07-2.29-1.38-2.29zm-.21 10.83c.09-.43 1.21-6.58 1.59-8.54zm-.32-8.23-.38 2.1a.62.62 0 0 1 -.55.46h-3.48a.66.66 0 0 0 -.67.71v.46a.67.67 0 0 0 .67.72h2.95s.55.32.49.64-.34 1.89-.37 2.06a.6.6 0 0 1 -.55.48h-2.41a.85.85 0 0 0 -.87.45c-.29.39-2.93 3.8-2.93 3.8h-.05v-11.92a.58.58 0 0 1 .54-.56h7.17a.49.49 0 0 1 .44.6z"/>
</svg>