<svg viewBox="0 0 24 24" xmlns="http://www.w3.org/2000/svg"><path d="m12 2c-5.523 0-10 4.477-10 10 0 5.5235 4.477 10 10 10s10-4.477 10-10-4.477-10-10-10zm4.586 14.4235c-.1795.2945-.5635.387-.857.2075-2.3485-1.4355-5.304-1.7595-8.785-.9645-.3355.077-.6695-.1335-.7465-.4685-.077-.3355.1325-.6695.469-.746 3.809-.871 7.077-.496 9.7125 1.1145.294.1795.3865.563.207.857zm1.2235-2.723c-.226.367-.706.482-1.0725.2565-2.6875-1.652-6.7855-2.1305-9.9645-1.1655-.4125.1245-.848-.108-.973-.5195-.124-.4125.1085-.847.52-.9725 3.632-1.102 8.147-.5685 11.2335 1.3285.3665.2265.482.7065.2565 1.0725zm.106-2.8355c-3.2235-1.9145-8.5405-2.0905-11.6175-1.1565-.494.15-1.0165-.129-1.1665-.623-.15-.4945.129-1.0165.6235-1.167 3.5325-1.0725 9.4045-.865 13.1155 1.3375.4445.264.5905.838.327 1.2815-.2645.445-.839.5915-1.282.3275z"/></svg>