<svg xmlns="http://www.w3.org/2000/svg" width="24" height="24">
<path d="M3 14.51A4 4 0 0 0 5.3 18a10.34 10.34 0 0 0 5.25 1.32 9.87 9.87 0 0 0 5.8-1.64c1.57-1.1 2.35-2.26 2.35-3.48a2.07 2.07 0 0 0-.64-1.57 3.8 3.8 0 0 0-1.55-.9c-.273-.087-.363-.237-.27-.45a1.86 1.86 0 0 0 0-1.79 1.78 1.78 0 0 0-1.55-.64 6.2 6.2 0 0 0-2.45.6c-.31.12-.46.09-.46-.09v-.1a2.09 2.09 0 0 0-.18-2.15c-.48-.49-1.3-.5-2.46-.05a10.67 10.67 0 0 0-3.45 2.38C3.897 11.24 3 12.93 3 14.51Zm1.84.71a3 3 0 0 1 1.32-2.67 6.83 6.83 0 0 1 3.71-1.42 6.76 6.76 0 0 1 3.91.66 3 3 0 0 1 1.82 2.36 3 3 0 0 1-1.34 2.67 6.65 6.65 0 0 1-3.71 1.42 6.94 6.94 0 0 1-3.89-.67 3 3 0 0 1-1.82-2.35Zm2.35.91a2.16 2.16 0 0 0 1.45 1.26 3.07 3.07 0 0 0 2.25-.11 2.841 2.841 0 0 0 1.57-1.53 2.07 2.07 0 0 0 0-1.92 2.3 2.3 0 0 0-1.57-1.19 3.22 3.22 0 0 0-2.11.18 2.88 2.88 0 0 0-1.53 1.42 2.19 2.19 0 0 0 0 1.9l-.06-.01Zm.81-.27a.82.82 0 0 1 .11-.69 1.17 1.17 0 0 1 .59-.48 1 1 0 0 1 .75 0 .74.74 0 0 1 .46.5.84.84 0 0 1-.14.69 1.32 1.32 0 0 1-.61.48.92.92 0 0 1-.73 0 .7.7 0 0 1-.43-.5Zm2.09-1.44a.36.36 0 0 1 .5-.18c.21.09.26.24.14.46a.36.36 0 0 1-.5.18c-.23-.09-.23-.25-.13-.46h-.01Zm4.63-8.82A.69.69 0 0 0 15 6a.64.64 0 0 0 .5.12 3.16 3.16 0 0 1 3.23 1 3.22 3.22 0 0 1 .73 3.34.67.67 0 0 0 0 .5.55.55 0 0 0 .39.34.87.87 0 0 0 .55 0 .51.51 0 0 0 .32-.39 4.75 4.75 0 0 0-1-4.69 4.65 4.65 0 0 0-2.1-1.35 5 5 0 0 0-2.43-.13.77.77 0 0 0-.43.32.56.56 0 0 0-.09.5l.05.04Zm.59 2.31c.07.38.31.52.7.43a1 1 0 0 1 1.07.37 1.09 1.09 0 0 1 .25 1.09.55.55 0 0 0 .37.78c.36.12.6 0 .72-.41A2.16 2.16 0 0 0 18 7.91a2.17 2.17 0 0 0-2.21-.71.53.53 0 0 0-.43.71h-.05Z"/>
</svg>