<svg id="kakaotalk" xmlns="http://www.w3.org/2000/svg" viewBox="0 0 24 24">
<path d="M10,9.72l-.67,1.91h1.36L10,9.72Z"/>
<path d="M12,3C6.48,3,2,6.54,2,10.91c0,2.84,1.9,5.33,4.74,6.72-.21.78-.75,2.83-.86,3.27s.2.54.42.39l3.84-2.62a12.62,12.62,0,0,0,1.86.14c5.52,0,10-3.54,10-7.9S17.52,3,12,3ZM7.08,13.07a.48.48,0,0,1-.49.49h-.1a.46.46,0,0,1-.34-.14A.47.47,0,0,1,6,13.07V9.57h-1a.5.5,0,1,1,0-1H8a.5.5,0,0,1,0,1h-.9Zm4.79.46a.48.48,0,0,1-.62-.29L11,12.53H9l-.25.71a.49.49,0,0,1-.62.29.47.47,0,0,1-.29-.61L9.28,9.07l0-.06a.69.69,0,0,1,.71-.5.7.7,0,0,1,.68.42h0l1.46,4A.47.47,0,0,1,11.87,13.53Zm3.13,0H13a.45.45,0,0,1-.45-.45v-4a.54.54,0,1,1,1.07,0v3.57H15a.47.47,0,0,1,.46.46A.46.46,0,0,1,15,13.53Zm4.25-.06a.48.48,0,0,1-.67-.1l-1.44-1.88-.3.31V13a.54.54,0,0,1-.54.54.54.54,0,0,1-.54-.54v-4a.54.54,0,0,1,.54-.54.54.54,0,0,1,.54.54v1.4l1.69-1.69a.47.47,0,1,1,.67.67L17.83,10.8l1.52,2A.48.48,0,0,1,19.25,13.47Z"/>
</svg>
