<svg id="Default" xmlns="http://www.w3.org/2000/svg" viewBox="0 0 24 24"><path d="M9,15.86h1.12v2.5H9.11a1.11,1.11,0,0,1-.95-.86,1.64,1.64,0,0,1,.08-.95A1.2,1.2,0,0,1,9,15.86ZM6.12,12.49c-2,.42-2.74-1.85-2.52-2.9,0,0,.24-2.29,1.85-2.43A2.45,2.45,0,0,1,7.78,9.21c.06.51.34,2.86-1.66,3.28ZM18.2,15.61h0a3.12,3.12,0,0,1,.61,3.84c-1.09,2.52-5.08,1.21-5.08,1.21a6.78,6.78,0,0,0-3.19-.09,11.57,11.57,0,0,1-3.18.23,2.74,2.74,0,0,1-2.57-2.43c-.57-2.48,2-3.83,2.18-4.06a11.86,11.86,0,0,0,2.38-2.53c.86-1.4,3.42-2.52,5.23.24a20.16,20.16,0,0,0,3.62,3.59Zm-6.84,3.76h0V13.22l-1.18,0v1.67H8.8a2.27,2.27,0,0,0-1.87,1.64,2.9,2.9,0,0,0,.2,1.76,2.3,2.3,0,0,0,1.63,1.1Zm4.84,0h0V15H14.91v3.25H13.68s-.4-.05-.47-.3V15.06L12,15v3.23s.06.81,1.22,1.1Zm4.23-8.64c0,.56.24,2.94-1.95,3s-2.28-1.45-2.28-2.52.23-2.72,2-2.72A2.28,2.28,0,0,1,20.43,10.71Zm-5.85-2c-1.47-.19-1.81-1.5-1.66-2.81.12-1.07,1.42-2.71,2.47-2.47A2.64,2.64,0,0,1,17.2,6.22C17,7.39,16.06,8.94,14.58,8.75ZM9.83,8.56c-1.11,0-2-1.24-2-2.78S8.72,3,9.83,3s2,1.24,2,2.78S10.93,8.56,9.83,8.56Z"/></svg>