<svg xmlns="http://www.w3.org/2000/svg" width="24" height="24">
<path d="M22.998 7.093a32.722 32.722 0 0 0-.01-.663 9.655 9.655 0 0 0-.127-1.446 4.864 4.864 0 0 0-.452-1.373 4.62 4.62 0 0 0-2.02-2.02 4.893 4.893 0 0 0-1.373-.453 9.655 9.655 0 0 0-1.445-.127 32.67 32.67 0 0 0-.665-.01L16.119 1H7.881c-.262 0-.525 0-.788.002-.221 0-.442.004-.664.009a9.721 9.721 0 0 0-1.445.127c-.478.082-.94.235-1.373.453a4.62 4.62 0 0 0-2.019 2.02 4.87 4.87 0 0 0-.454 1.374c-.078.478-.12.96-.126 1.444a32.62 32.62 0 0 0-.01.664C1 7.356 1 7.619 1 7.882v8.236c0 .263 0 .525.002.788.001.222.004.443.01.665.006.483.048.966.127 1.444.081.478.234.941.452 1.375a4.62 4.62 0 0 0 2.02 2.019c.432.218.895.371 1.373.453.478.079.961.121 1.446.127.221.005.442.009.663.01l.788.001h8.237c.263 0 .525 0 .788-.002.222 0 .443-.004.664-.01a9.602 9.602 0 0 0 1.445-.127c.478-.081.941-.233 1.373-.452a4.62 4.62 0 0 0 2.02-2.02c.218-.433.371-.896.453-1.374.078-.478.121-.961.127-1.445.006-.221.008-.442.01-.664.002-.262.002-.525.002-.788V7.882c0-.263 0-.526-.002-.788Zm-9.148 8.89a38.122 38.122 0 0 1-.308 2.488c-.101.652-.184 1.004-.258 1.256-.122.408-.575.765-1.284.765-.709 0-1.162-.357-1.284-.765-.075-.252-.157-.604-.258-1.256a38.513 38.513 0 0 1-.309-2.489c-.06-.707-.091-1.15-.035-1.663a1.01 1.01 0 0 1 .291-.634c.33-.349.91-.572 1.595-.572.684 0 1.264.224 1.595.572.172.182.263.368.291.633.056.514.025.957-.035 1.665Zm-4.717-1.71a.32.32 0 0 1 .1.251c-.016.288-.01.568.009.884a.102.102 0 0 1-.159.09 5.18 5.18 0 0 1-2.266-4.349c.035-2.744 2.236-5.005 4.978-5.111a5.188 5.188 0 0 1 5.388 5.178 5.18 5.18 0 0 1-2.267 4.282.102.102 0 0 1-.159-.09c.02-.316.026-.596.01-.884a.32.32 0 0 1 .1-.251 4.182 4.182 0 0 0 1.325-3.056 4.197 4.197 0 0 0-4.358-4.19 4.204 4.204 0 0 0-4.025 4.077 4.183 4.183 0 0 0 1.324 3.169Zm4.668-3.688a1.8 1.8 0 1 1-3.601 0 1.8 1.8 0 0 1 3.6 0Zm.76 7.932a.103.103 0 0 1-.137-.113c.04-.264.077-.53.112-.792a.264.264 0 0 1 .155-.21 6.756 6.756 0 0 0 4.056-6.185 6.754 6.754 0 0 0-6.803-6.747c-3.663.03-6.655 3.017-6.69 6.68a6.755 6.755 0 0 0 4.054 6.252.266.266 0 0 1 .156.21c.035.261.072.528.112.792a.103.103 0 0 1-.136.113c-3.041-1.07-5.218-3.987-5.176-7.398.052-4.21 3.502-7.627 7.713-7.639 4.276-.012 7.76 3.463 7.76 7.736 0 3.37-2.165 6.242-5.176 7.301Z"/>
</svg>