<svg id="Default" xmlns="http://www.w3.org/2000/svg" viewBox="0 0 24 24"><path d="M3,17.82A10.88,10.88,0,0,0,8.81,19.5a9.9,9.9,0,0,0,7.55-3.27,10.45,10.45,0,0,0,2.86-7.84V8.25a6.26,6.26,0,0,0,1.78-2,5.31,5.31,0,0,1-2.06.62A3.35,3.35,0,0,0,19.85,6a3.36,3.36,0,0,0,.64-1.2,5.91,5.91,0,0,1-1.15.55,3.52,3.52,0,0,1-1.15.26A3.7,3.7,0,0,0,15.47,4.5a3.53,3.53,0,0,0-2.6,1.11,3.63,3.63,0,0,0-1.1,2.69,4.12,4.12,0,0,0,.09.86,10.4,10.4,0,0,1-4.33-1.1A9.6,9.6,0,0,1,4,5.22a4.17,4.17,0,0,0-.31,2.93,3.52,3.52,0,0,0,1.43,2.07,1.9,1.9,0,0,1-1.59-.43,3.86,3.86,0,0,0,.63,2.26,3.72,3.72,0,0,0,2.23,1.49,2.38,2.38,0,0,1-1.55.09,2.72,2.72,0,0,0,1.1,1.76,3.41,3.41,0,0,0,2.23.84,5.31,5.31,0,0,1-2,1.3A5.71,5.71,0,0,1,3,17.82H3Z"/></svg>