<svg id="Default" xmlns="http://www.w3.org/2000/svg" viewBox="0 0 24 24"><path d="M14.63,14.8a4.28,4.28,0,0,1-.42,1.93,3.86,3.86,0,0,1-1.14,1.42,5.19,5.19,0,0,1-1.84.94,9.48,9.48,0,0,1-2.54.28H3V4.5H8a18.69,18.69,0,0,1,2.51.12,5,5,0,0,1,1.57.53,2.77,2.77,0,0,1,1.21,1.1,3.48,3.48,0,0,1,.39,1.66,3.42,3.42,0,0,1-.54,1.91,3.61,3.61,0,0,1-1.53,1.29v.08a4,4,0,0,1,2.2,1.2,3.5,3.5,0,0,1,.82,2.41ZM9.94,8.69a1.43,1.43,0,0,0-.17-.64,1.12,1.12,0,0,0-.63-.5,3.33,3.33,0,0,0-1-.17c-.4,0-.52,0-1.23,0H6.58v2.74h.13c.57,0,1.07,0,1.47,0a2.62,2.62,0,0,0,1-.17,1.13,1.13,0,0,0,.65-.51,1.67,1.67,0,0,0,.15-.73Zm.89,6.06a1.86,1.86,0,0,0-.26-1.06,1.63,1.63,0,0,0-.89-.55A4.79,4.79,0,0,0,8.5,13H6.57v3.58h2a3.29,3.29,0,0,0,1.23-.25,1.46,1.46,0,0,0,.78-.64,1.84,1.84,0,0,0,.22-.92ZM21,4.5,20.56,15h-3.1L17,4.5Zm-.3,13.37A1.69,1.69,0,1,1,19,16.24,1.66,1.66,0,0,1,20.7,17.87Z"/></svg>