<svg width="297" height="43" viewBox="0 0 297 43" fill="none" xmlns="http://www.w3.org/2000/svg">
<path fill-rule="evenodd" clip-rule="evenodd" d="M84.6386 0C86.7956 0.109738 87.0765 0.405611 87.788 2.21516C87.8999 2.49808 88.139 2.97653 87.5301 3.06846C87.4194 3.08497 87.3108 3.09922 87.2008 3.11249C86.2621 3.22636 85.262 3.34731 84.2764 3.46682L83.8551 3.51793C81.6851 3.78128 79.6392 4.03166 78.5411 4.17685C60.5847 6.55192 53.9766 7.95716 37.6977 12.4448C28.5881 14.9558 22.0185 17.3202 18.0864 19.0987C6.99244 24.1165 18.5364 26.5094 57.8428 24.5056C61.4992 24.2253 65.4498 23.8883 69.6791 23.4694C71.717 20.6787 77.1926 17.9793 85.6229 15.6311C94.5057 13.1569 105.391 12.4166 111.118 12.5529L104.483 20.0115C104.247 20.2779 104.117 20.557 104.064 20.6751C103.876 21.1008 103.974 21.6042 104.174 22.1173C104.4 22.6961 104.667 23.2597 104.865 23.6339C105.15 24.1758 105.668 24.3496 106.484 24.1091C108.577 23.4328 112.093 22.1111 114.815 20.9273C115.801 19.8164 117.384 18.1734 118.79 16.7647L119.023 16.5322C120.292 15.2669 121.375 14.2342 121.677 14.0245C124.524 13.5519 126.552 13.5341 130.484 13.133C128.251 15.3475 124.395 19.3217 122.33 21.9421C122.243 22.0521 122.15 22.1703 122.058 22.2913L121.989 22.3825L121.922 22.4741C121.456 23.1164 121.139 23.7586 122.134 23.6038C125.916 23.0146 132.381 20.6107 135.434 19.0291L141.589 13.1262L150.488 12.3295C149.698 13.0047 148.899 13.695 148.094 14.3948L147.557 14.8626C147.288 15.0972 147.019 15.3327 146.75 15.569L146.21 16.0423L145.671 16.5172C145.222 16.9134 144.773 17.3109 144.325 17.7087L143.788 18.186C137.085 24.1533 130.734 30.0949 127.996 32.791C133.257 30.1201 138.388 28.2843 144.783 26.2854C144.026 22.1976 151.264 17.0263 165.653 13.333C168.633 12.5681 175.112 11.1839 177.166 13.2764C177.97 14.1009 178.333 14.511 179.06 15.6851C179.244 15.9742 179.353 16.2144 179.452 16.5446C179.624 17.1188 179.358 17.945 178.495 18.3871C176.38 19.4711 171.403 21.2038 166.324 22.7585L165.798 22.9187C162.556 23.902 159.312 24.8012 156.781 25.4017C161.895 26.1423 173.881 25.4353 182.296 23.1522L190.574 13.7053L199.32 12.8475L195.003 17.6646C198.822 16.3801 216.926 10.0849 218.386 13.2411L218.939 14.4689C219.117 14.86 219.148 15.4543 218.693 15.9748L213.708 21.6366C211.189 24.281 212.255 24.5655 213.971 24.1466C216.337 23.7397 218.903 23.1878 221.408 22.5449L229.347 13.7053L238.093 12.8475L233.776 17.6646C234.273 17.4976 235.011 17.246 235.922 16.9414L236.355 16.7972C242.652 14.7042 255.918 10.5583 257.159 13.2411L257.712 14.4689C257.89 14.86 257.922 15.4543 257.466 15.9748L253.129 20.9059C253.072 20.973 251.889 22.3147 251.838 22.372C249.638 24.8494 249.821 25.402 250.994 25.333C252.747 25.2178 255.676 24.9203 257.397 24.6888C258.672 20.9393 265.751 16.688 278.085 13.5227C281.064 12.7578 287.522 11.3956 289.597 13.4661C290.446 14.3123 290.847 14.7023 291.517 15.9101C291.67 16.1859 291.763 16.4617 291.853 16.7443C292.034 17.316 291.789 18.1347 290.926 18.5768C288.957 19.586 284.507 21.1576 279.804 22.6243L279.28 22.7868C279.193 22.8138 279.106 22.8407 279.018 22.8676L278.493 23.0284C275.164 24.0428 271.812 24.9746 269.213 25.5914C274.132 26.3038 285.411 25.6768 293.818 23.5876C294.464 23.4215 294.947 23.4228 295.239 23.5436C295.902 23.8164 296.614 25.0323 296.705 25.2566C296.773 25.4221 296.73 25.5655 296.498 25.671C294.585 26.4919 292.911 27.0079 290.948 27.4579C285.884 28.6171 278.142 29.484 273.472 29.7549C270.721 29.9144 268.493 29.9551 267.061 29.9577L266.846 29.9578C266.189 29.9572 265.723 29.9487 265.482 29.9414C262.844 29.8608 259.481 29.5678 258.14 27.6372C250.954 28.8909 244.896 29.3739 242.649 29.3639C242.155 29.3616 241.615 29.3458 241.336 29.3179C239.335 29.1192 238.683 28.3804 239.508 27.0241C241.13 24.3577 244.472 20.7994 246.906 18.2849C247.068 18.0676 247.045 17.9602 246.846 17.9628C244.149 18.2942 237.26 19.5315 229.33 22.5342L224.635 26.9594C223.409 27.9994 222.016 28.6896 220.248 28.7864L216.006 28.8421L218.24 26.1841C213.538 27.3938 208.322 28.8087 204.014 29.0865C200.907 29.2865 199.748 28.6731 200.751 27.0241C202.373 24.3577 205.743 20.8257 208.141 18.2849C208.324 18.0916 208.271 17.9602 208.073 17.9628C205.375 18.2942 198.486 19.5315 190.556 22.5342L185.862 26.9594C184.636 27.9994 183.243 28.7462 181.475 28.8434L177.232 28.8421L178.89 27.2212C173.751 28.3591 165.995 29.2626 161.325 29.5338C158.574 29.6935 156.346 29.7408 154.913 29.7436L154.597 29.7435C153.993 29.7418 153.563 29.7317 153.334 29.72C150.718 29.5853 148.683 29.1667 146.994 28.507C142.005 29.9459 129.035 34.7349 123.677 37.6574C121.037 39.0976 119.431 40.405 117.224 41.6099L113.212 42.5266C119.033 36.2729 124.848 30.2696 130.16 24.9951C126.562 26.6496 119.623 28.5559 114.926 29.3137C109.856 30.1314 109.093 29.0408 110.957 26.297C110.992 26.2446 111.453 25.4978 111.894 24.9413C111.212 25.258 110.493 25.577 109.76 25.8898L109.393 26.0457C105.837 27.5469 102.084 28.8736 100.957 29.0858C99.9067 29.2836 99.0175 29.0428 98.6072 28.5323C97.7644 27.0607 97.0961 25.7027 96.3727 24.1097C96.1375 24.2185 95.8965 24.3279 95.6655 24.4302C94.253 25.0566 92.8983 25.5981 91.5124 26.1206C78.8847 30.7908 71.4354 30.2275 69.3365 27.6748C62.5782 28.5349 56.0466 29.2723 49.467 29.8517C36.4646 30.9164 27.8111 31.3829 15.3634 30.7882C-16.8315 29.2496 2.5442 9.29894 64.3796 1.81991C73.0606 0.77011 79.2337 0.149879 83.1123 0.0284872C83.6411 0.019747 84.1439 0.002266 84.6386 0ZM101.401 16.1444C95.7919 16.7771 90.4617 18.2072 85.1484 20.1282C76.7054 23.3384 75.5284 26.1093 84.0707 24.1583C85.35 23.8372 86.9641 23.404 88.8264 22.8074C94.1894 21.066 98.1232 19.2001 101.401 16.1444ZM284.375 16.7999C283.692 16.2407 282.232 16.7023 281.246 17.0303C274.588 19.2461 268.261 22.051 265.685 24.4134C270.29 23.1426 280.119 20.0887 285.194 18.1728C285.35 18.114 285.37 17.9643 285.292 17.7877C285.187 17.5535 284.953 17.2739 284.375 16.7999ZM171.581 16.4061C170.898 15.8469 169.437 16.3086 168.451 16.6366C161.792 18.8524 155.463 21.6569 152.887 24.0197C157.493 22.7488 167.324 19.6949 172.4 17.779C172.556 17.7203 172.567 17.5705 172.497 17.3943C172.404 17.1549 172.159 16.8801 171.581 16.4061Z" fill="#fff"/>
</svg>
