<svg width="204" height="28" viewBox="0 0 204 28" fill="none" xmlns="http://www.w3.org/2000/svg">
<path d="M144.835 22.779C142.265 23.1719 140.981 23.0409 140.981 22.3861C140.981 21.7317 142.183 20.8874 144.588 19.8528C146.991 18.8181 149.849 17.9149 153.16 17.1422C156.097 16.4572 158.703 16.0774 160.981 16L160.641 16.2975C158.882 17.8429 156.45 19.211 153.345 20.4025C150.24 21.5944 147.404 22.3861 144.835 22.779ZM82.835 22.779C80.2653 23.1719 78.9814 23.0409 78.9814 22.3861C78.9814 21.7317 80.183 20.8874 82.5872 19.8528C84.9915 18.8181 87.8488 17.9149 91.1604 17.1422C94.0974 16.4572 96.7034 16.0774 98.9814 16L98.6407 16.2975C96.8817 17.8429 94.4504 19.211 91.3458 20.4025C88.2402 21.5944 85.4037 22.3861 82.835 22.779ZM203.667 22.4877C203.568 22.1671 203.421 21.964 203.226 21.8803C203.03 21.7967 202.736 21.8107 202.344 21.9224C200.973 22.3412 199.679 22.642 198.461 22.8234C197.244 23.0052 196.258 23.0748 195.502 23.0328C194.747 22.9912 194.369 22.8587 194.369 22.6347C194.369 22.4394 194.662 21.9785 195.25 21.2516C195.838 20.5252 196.481 19.7708 197.181 18.9878C198.16 17.8982 198.916 17.0113 199.448 16.3264C199.979 15.6416 200.245 15.1735 200.245 14.922C200.245 14.643 200.168 14.3006 200.014 13.8948C199.86 13.4905 199.623 13.1409 199.301 12.8473C198.979 12.5537 198.594 12.4067 198.146 12.4067C196.691 12.4067 194.487 12.8198 191.535 13.6438C188.829 14.3993 184.881 15.6894 179.698 17.5127L184.252 12.5324L177.452 13.2453L171.091 20.4634C169.088 21.2132 167.584 21.7348 166.58 22.0268C165.573 22.3204 164.901 22.4669 164.565 22.4669C164.34 22.4669 164.131 22.3277 163.935 22.0476C163.739 21.7691 163.579 21.4402 163.453 21.063C163.327 20.6853 163.264 20.3574 163.264 20.0779C163.264 19.8544 163.39 19.5609 163.642 19.1972C163.893 18.8345 164.418 18.2198 165.216 17.3532C166.013 16.4875 167.027 15.4115 168.259 14.1255L169.77 12.5324H164.397C160.619 12.5324 156.267 13.064 151.343 14.1255C146.417 15.188 142.205 16.5712 138.707 18.2754C136.66 19.273 135.217 20.3039 134.368 21.368C132.85 21.833 131.391 22.2503 129.997 22.6134C128.444 23.0192 126.534 23.3892 124.268 23.7243C122.001 24.06 119.608 24.2273 117.09 24.2273C115.942 24.2273 115.033 24.1088 114.361 23.8714C113.69 23.6344 113.354 23.1658 113.354 22.4669C113.354 21.6288 114.375 20.7481 116.418 19.8264C118.461 18.9041 121.091 18.0447 124.31 17.2482C127.527 16.4522 130.9 15.7887 134.426 15.2571C134.817 14.8664 135.132 14.5172 135.37 14.2091C135.608 13.9021 135.741 13.6371 135.769 13.4131C135.825 12.9102 135.475 12.6587 134.719 12.6587C131.501 12.6587 127.541 13.1684 122.84 14.1883C118.139 15.2088 114.074 16.5639 110.646 18.2546C108.719 19.205 107.334 20.2015 106.49 21.2443C105.518 21.5883 104.725 21.8502 104.119 22.0268C103.111 22.3204 102.44 22.4669 102.104 22.4669C101.88 22.4669 101.669 22.3277 101.474 22.0476C101.278 21.7691 101.117 21.4402 100.991 21.063C100.866 20.6853 100.803 20.3574 100.803 20.0779C100.803 19.8544 100.929 19.5609 101.18 19.1972C101.432 18.8345 101.957 18.2198 102.754 17.3532C103.552 16.4875 104.566 15.4115 105.798 14.1255L107.309 12.5324H101.936C98.1577 12.5324 93.8062 13.064 88.8813 14.1255C83.9553 15.188 79.7437 16.5712 76.246 18.2754C72.9253 19.8934 71.1842 21.5997 71.0156 23.3939C70.7581 23.411 70.2367 23.4796 69.4458 23.5986C67.1511 23.9067 65.2202 24.1015 63.6529 24.1857C62.0857 24.2694 61.3026 24.088 61.3026 23.6407C61.3026 23.2494 61.9384 22.2783 63.2122 20.7273C64.4854 19.1764 66.1297 17.2903 68.1444 15.069C70.1597 12.8473 72.1042 10.7445 73.9794 8.76023C75.4067 7.22381 76.6722 5.85418 77.7784 4.65238C78.8836 3.45109 79.4362 2.79434 79.4362 2.68211C79.4362 2.40309 79.2962 2.05341 79.0168 1.63462C78.7363 1.21531 78.345 0.852122 77.8414 0.544527C77.3377 0.237451 76.7637 0.0836534 76.1201 0.0836534C73.6574 0.0836534 70.3413 1.1249 66.1718 3.20637C62.0014 5.28835 58.0135 7.5657 54.2084 10.0389C50.4021 12.5116 46.4424 15.188 42.3286 18.066C41.4613 18.6807 40.7265 19.1909 40.125 19.5957C39.523 20.001 39.2223 20.1761 39.2223 20.12C39.2223 20.0638 39.8165 19.4772 41.0065 18.3591C42.1954 17.242 43.5462 15.984 45.0573 14.5869C48.8354 11.1217 51.8154 8.3482 53.9987 6.26621C56.1809 4.18475 57.2726 3.00373 57.2726 2.72419C57.2726 2.41712 57.1113 2.04717 56.7897 1.61332C56.4676 1.1805 56.0342 0.803281 55.4884 0.481657C54.9431 0.161072 54.3478 0 53.7047 0C51.2133 0 46.932 1.48134 40.8597 4.44298C34.7864 7.40515 28.1407 11.0521 20.9206 15.3829C13.7005 19.7147 7.05425 23.9202 0.981445 28H1.86289C4.49369 27.9439 6.33359 27.867 7.3831 27.7693C8.43209 27.6711 9.36973 27.4617 10.1955 27.1406C11.0207 26.819 12.0635 26.2396 13.3227 25.401C18.4995 22.0476 23.6492 18.8828 28.7703 15.9071C33.8914 12.931 38.1165 10.5907 41.4472 8.88597C44.7773 7.18173 46.4424 6.46937 46.4424 6.74839C46.4424 6.77645 46.2957 6.937 46.0017 7.23005C45.7077 7.52361 45.3367 7.89408 44.8892 8.34144C39.6562 13.4828 33.8634 19.5328 27.5111 26.4911C30.3652 26.4911 32.3804 26.449 33.5553 26.3654C34.7307 26.2817 35.8151 26.0443 36.809 25.6525C37.8017 25.2618 39.0823 24.5489 40.6495 23.5149L49.0872 18.0239C53.4242 15.2571 57.0135 13.0084 59.854 11.275C62.694 9.54273 64.8351 8.30611 66.2764 7.5657C67.7178 6.82581 68.4384 6.60862 68.4384 6.91622C68.4384 6.94376 68.2287 7.19575 67.8088 7.67014C67.3889 8.14608 66.8852 8.69112 66.2978 9.30528C64.0307 11.7925 62.0581 13.9935 60.379 15.9071C58.6999 17.8213 57.1534 19.7568 55.7402 21.7125C54.327 23.6687 53.6204 25.094 53.6204 25.9882C53.6204 26.8263 54.7958 27.3084 57.1467 27.4342C59.4975 27.5599 62.2116 27.4196 65.2899 27.0149C67.992 26.6589 70.1654 26.2334 71.8112 25.7382C72.6344 26.5504 74.0814 27.0055 76.1622 27.099C79.6042 27.2518 83.6972 26.4703 88.44 24.7515C90.6452 23.9524 92.7218 23.0135 94.6819 21.9463C95.1658 23.1746 95.5842 24.1125 95.9333 24.7515C96.3527 25.5205 96.7305 26.037 97.0666 26.3025C97.4022 26.5675 97.794 26.7005 98.242 26.7005C98.9408 26.7005 100.781 26.17 103.762 25.108C104.401 24.8804 105.015 24.6565 105.613 24.4356C105.804 25.0067 106.248 25.4966 106.952 25.904C107.917 26.4636 109.19 26.8746 110.772 27.1406C112.352 27.4061 114.081 27.5386 115.956 27.5386C118.055 27.5386 120.511 27.2939 123.323 26.8055C126.136 26.3165 128.878 25.6946 131.551 24.9402C132.241 24.7453 132.899 24.5505 133.528 24.3556C133.87 26.0469 135.566 26.9619 138.623 27.099C142.065 27.2518 146.158 26.4703 150.901 24.7515C153.106 23.9524 155.183 23.0135 157.143 21.9463C157.627 23.1746 158.045 24.1125 158.395 24.7515C158.814 25.5205 159.192 26.037 159.528 26.3025C159.863 26.5675 160.255 26.7005 160.703 26.7005C161.402 26.7005 163.243 26.17 166.223 25.108C166.609 24.9703 166.987 24.8342 167.358 24.6985L165.447 26.8683H168.678C169.658 26.8683 170.49 26.7561 171.177 26.5332C171.862 26.3098 172.442 25.9461 172.919 25.4431L176.685 21.3732C179.791 20.3314 182.478 19.472 184.735 18.7992C187.407 18.0032 189.401 17.4789 190.717 17.2274C192.032 16.9759 192.69 16.9619 192.69 17.1853C192.69 17.269 192.465 17.5771 192.018 18.1076C191.57 18.6386 191.066 19.2257 190.506 19.8685C189.191 21.3498 188.156 22.5719 187.401 23.5357C186.645 24.5001 186.267 25.1641 186.267 25.5268C186.267 26.4771 187.358 26.9447 189.541 26.9312C191.724 26.9167 194.264 26.5961 197.16 25.9669C200.057 25.3382 202.33 24.6887 203.981 24.0179C203.869 23.3196 203.764 22.8099 203.667 22.4877Z" fill="#fff"/>
</svg>
