<svg viewBox="0 0 206 36" xmlns="http://www.w3.org/2000/svg"><path d="m204.37 20.28c-.22-.27-.52-.36-.91-.27-.52.14-1.58.34-3.16.6s-3.64.51-6.16.75-5.19.36-8.02.36c-.71 0-1.25-.05-1.64-.15-.15-.04-.28-.09-.4-.16 3.14-.62 6.01-1.27 8.61-1.93 2.99-.76 5.33-1.47 7.04-2.12s2.56-1.18 2.56-1.59-.26-.96-.77-1.64-1.13-1.29-1.86-1.81-1.41-.79-2.05-.79c-1.89 0-4.42.53-7.59 1.59s-5.94 2.35-8.33 3.86c-1.83 1.16-2.95 2.28-3.37 3.34-.7.18-1.38.32-2.03.42-.99.15-1.8.21-2.41.17-.62-.03-.92-.14-.92-.32 0-.16.24-.54.72-1.13s1-1.21 1.57-1.85c.8-.89 1.41-1.61 1.85-2.17.43-.56.65-.94.65-1.15 0-.23-.06-.51-.19-.84s-.32-.62-.58-.85c-.26-.24-.58-.36-.94-.36-1.19 0-2.98.34-5.39 1.01-2.2.62-5.43 1.67-9.64 3.16l3.71-4.06-5.54.58-5.27 5.98c-1.41.48-2.68.87-3.81 1.18s-2.01.51-2.65.6-.96.06-.96-.1.24-.54.72-1.13 1-1.21 1.57-1.85c.8-.89 1.41-1.61 1.85-2.17.43-.56.65-.94.65-1.15 0-.23-.06-.51-.19-.84s-.32-.62-.58-.85c-.26-.24-.58-.36-.94-.36-1.19 0-2.98.34-5.39 1.01-2.2.62-5.43 1.67-9.64 3.16l3.71-4.06-5.54.58-5.11 5.81c-.97.41-2.12.82-3.44 1.22-1.39.42-3.36.82-5.9 1.2s-5.51.56-8.91.56c-.71 0-1.25-.05-1.64-.15-.15-.04-.28-.09-.4-.16 3.14-.62 6.01-1.27 8.61-1.93 2.99-.76 5.33-1.47 7.04-2.12s2.56-1.18 2.56-1.59-.26-.96-.77-1.64-1.13-1.29-1.86-1.81-1.41-.79-2.05-.79c-1.89 0-4.42.53-7.59 1.59s-5.94 2.35-8.33 3.86c-2.16 1.38-3.33 2.68-3.53 3.92-1.48.51-3.01 1.08-4.61 1.71-1.84.73-3.59 1.47-5.25 2.22-.41.19-.81.37-1.19.55 1.79-1.86 3.73-3.82 5.82-5.88 2.86-2.83 5.63-5.36 8.29-7.59l-6.36.55-1.23 1.33c-1.01 1.09-2.03 2.2-3.05 3.31-.85.34-1.71.68-2.61 1-1.47.52-2.78.95-3.92 1.28s-1.93.5-2.36.5c-.16 0-.27-.05-.34-.14s-.11-.19-.14-.31c-.05-.25.47-1.01 1.54-2.29s2.53-2.84 4.38-4.68l-5.44.58c-1.73 1.82-3.44 3.75-5.14 5.78-1.63.61-2.86 1.04-3.68 1.28s-1.37.36-1.64.36c-.18 0-.35-.11-.51-.34s-.29-.5-.39-.8c-.1-.31-.15-.58-.15-.8 0-.18.1-.42.31-.72s.63-.8 1.28-1.5c.65-.71 1.48-1.58 2.48-2.63l1.23-1.3h-4.38c-3.08 0-6.62.43-10.64 1.3-4.01.87-7.44 2-10.29 3.39-1.73.84-2.93 1.72-3.61 2.62l-1.52.12c-6.18.5-12.09.92-17.75 1.25-5.65.33-10.85.4-15.58.21s-7.1-.89-7.1-2.1c0-1.09 2.34-2.47 7.03-4.14 4.68-1.66 10.8-3.29 18.35-4.89s15.33-2.85 23.36-3.76c.59-.73.95-1.29 1.06-1.68s.04-.66-.22-.8c-.26-.15-.68-.22-1.25-.22-5.15 0-12.31.8-21.48 2.41-9.16 1.61-17.24 3.7-24.23 6.29-6.97 2.55-10.46 5.26-10.46 8.11 0 2.33 2.95 3.76 8.84 4.31s12.93.51 21.12-.12c6.85-.53 13.33-1.22 19.44-2.09.52 1 1.84 1.55 3.95 1.65 2.8.12 6.14-.51 10-1.92 1.8-.65 3.49-1.42 5.08-2.29.39 1 .74 1.77 1.02 2.29.34.63.65 1.05.92 1.27s.59.32.96.32c.57 0 2.07-.43 4.5-1.3.57-.2 1.12-.4 1.65-.6-.26.48-.38.85-.36 1.11.02.27.16.48.41.62s.65.21 1.2.21c.93 0 2.23-.21 3.88-.62s3.39-.95 5.21-1.61c1.01-.37 1.94-.74 2.81-1.12-.56.61-1.11 1.22-1.68 1.84-2.69 2.96-5.87 6.49-9.54 10.57l2.97-.31c1.71-1.23 3.44-2.35 5.2-3.35s4.02-2.11 6.8-3.33c2.12-.93 4.69-1.97 7.72-3.11.04.03.07.07.11.1.57.44 1.4.76 2.48.96 1.08.19 2.42.29 4.02.29 2.23 0 4.7-.18 7.4-.53s5.28-.85 7.75-1.49c.3-.08.59-.16.88-.24l-1.8 2.05h2.63c.8 0 1.48-.09 2.04-.27s1.03-.48 1.42-.89l3.07-3.32c2.53-.85 4.72-1.55 6.56-2.1 2.18-.65 3.8-1.08 4.87-1.28 1.07-.21 1.61-.22 1.61-.03 0 .07-.18.32-.55.75s-.78.91-1.23 1.44c-1.07 1.21-1.92 2.21-2.53 2.99-.62.79-.92 1.33-.92 1.62 0 .78.92 1.09 2.75.94s3.98-.56 6.45-1.25c.73-.2 1.42-.41 2.08-.61l-1.77 2.01h2.63c.8 0 1.48-.09 2.04-.27s1.03-.48 1.42-.89l3.07-3.32c2.53-.85 4.72-1.55 6.56-2.1 2.18-.65 3.8-1.08 4.87-1.28 1.07-.21 1.61-.22 1.61-.03 0 .07-.18.32-.55.75s-.78.91-1.23 1.44c-1.07 1.21-1.92 2.21-2.53 2.99-.62.79-.92 1.33-.92 1.62 0 .78.89 1.16 2.67 1.15s3.85-.27 6.21-.79c1.23-.27 2.31-.54 3.26-.81.31.44.8.79 1.49 1.05 1.24.47 3.07.7 5.49.7 1.8 0 3.88-.11 6.24-.34s4.71-.55 7.04-.96 4.38-.88 6.14-1.4c-.14-.57-.31-.99-.53-1.27zm-145.64.55c-2.13.34-3.2.23-3.2-.34s1-1.3 2.99-2.21c1.99-.9 4.37-1.69 7.11-2.36 2.44-.6 4.6-.93 6.49-.99l-.28.26c-1.46 1.35-3.48 2.54-6.05 3.57-2.58 1.04-4.93 1.73-7.06 2.07zm50.54-2.79c1.72-.88 3.64-1.68 5.74-2.39 2.11-.72 3.54-1.08 4.29-1.08.16 0 .36.06.61.19s.47.27.65.44.27.3.27.39c0 .16-.6.43-1.81.82s-2.98.88-5.32 1.47c-1.92.49-4.16 1.03-6.71 1.64.39-.42 1.14-.92 2.26-1.49zm76.77 0c1.72-.88 3.64-1.68 5.74-2.39 2.11-.72 3.54-1.08 4.29-1.08.16 0 .36.06.62.19.25.13.47.27.65.44s.27.3.27.39c0 .23-1.36.72-4.07 1.47-2.39.66-5.65 1.48-9.77 2.47.39-.42 1.14-.92 2.26-1.49z"/></svg>