<svg viewBox="0 0 243 36" xmlns="http://www.w3.org/2000/svg"><path d="m242.18 20.51c-.16-.53-.65-.64-.92-.57-1.39.4-2.8.92-4.49 1.05-.59.05-1.14-.14-1.38-.44-.25-.31-.45-.66-.6-1.06-.34-.87-.27-1.35.22-1.93 1.54-1.88 3.5-3.85 5.25-5.72-9.88-.33-18.16 1.6-24.34 4.13-.35-.89-.77-1.9-1.34-2.74-.51-.75-1.1-1.23-2.29-1.26-.87-.02-2.05.19-4.15.9-1.99.67-4.23 1.53-7.21 2.73.89-.97 1.86-2.04 3.02-3.32-1.93.2-3.85.43-5.78.63-1.76 2-3.55 4.05-5.08 5.77-5.65 2.01-12.56 3.24-18.03 3.23-.96 0-2.57-.01-3.08-.19 9.64-1.93 15.94-3.94 17.85-5.02 1.27-.72.96-1.2.57-1.88-.51-.88-1.34-1.83-2.43-2.6-.92-.65-1.54-.81-2.26-.8-1.15.01-2.54.22-4.14.61-3.65.9-8.44 2.62-12.36 5.14-1.95 1.25-3.13 2.41-3.53 3.56-1.23.32-2.36.52-3.46.61-.91.08-1.97.14-2.14-.18-.18-.32.5-1.09 1.08-1.77 1.21-1.41 2.21-2.55 3.18-3.84.32-.42.38-.65.21-1.15-.13-.4-.34-.77-.71-1.09-.32-.29-.63-.39-1.06-.39-1.22 0-3.09.45-5.28 1.09-2.32.68-4.55 1.52-6.81 2.37.35-.5.59-.89.74-1.16.18-.33.17-.51.07-.83-.11-.36-.27-.67-.62-.97-.34-.28-.68-.38-1.12-.37-1.22.02-3.02.45-5.8 1.35-2.13.69-4.21 1.4-6.21 2.14 1.08-1.18 2.24-2.46 3.72-4.08-1.93.2-3.85.41-5.78.61-1.81 2.05-3.65 4.15-5.2 5.91-1.82.67-3.31 1.24-4.96 1.63-.72.17-.94.06-1.24-.46-.12-.2-.22-.43-.3-.68-.2-.63-.07-1.3.4-1.86 1.5-1.77 3.34-3.62 4.99-5.38-11.03-.37-20.02 1.89-26.41 4.88-1.34.63-2.83 1.46-3.77 2.73-1.82.58-3.42 1-4.62 1.24-1.73.33-1.92.16-.73-1.25 1.34-1.59 2.95-3.27 3.87-4.61.36-.53.39-.71.25-1.23-.14-.53-.36-.9-.67-1.2-.32-.32-.64-.44-1.08-.43-1.26 0-3.08.35-5.57 1.04-2.3.64-5.66 1.73-10.07 3.28 1.12-1.22 2.32-2.54 3.87-4.23-1.93.2-3.86.39-5.78.59-1.81 2.05-3.65 4.14-5.2 5.89-1.82.67-3.31 1.23-4.96 1.61-.72.17-.94.04-1.24-.47-.12-.2-.22-.43-.3-.68-.2-.63-.07-1.3.4-1.86 1.5-1.77 3.34-3.61 4.99-5.36-11.03-.37-20.01 1.81-26.41 4.8-2.24 1.05-4.79 2.83-4.48 4.98.32 2.17 3.43 2.63 5.55 2.55 5.28-.21 10.52-2.17 14.6-4.35.33.82.61 1.53 1.06 2.38.31.58.68 1.22 1.22 1.51.54.28 1.12.16 1.58.04 1.57-.39 3.14-.95 4.83-1.56-.58.67-1.22 1.39-1.83 2.08h2.45c2.12 0 3.02-.25 4.4-1.74.84-.91 1.78-1.93 2.7-2.92 4.4-1.48 8.22-2.64 10.89-3.28 3.27-.79 3.04-.52 1.53 1.25-1.05 1.23-2.02 2.26-3.27 3.84-.73.92-1.26 1.72-.84 2.27.42.54 1.6.55 2.69.46 3.15-.26 6.5-1.17 9.52-2.12.57 1.96 3.49 2.35 5.49 2.27 5.28-.21 10.52-2.22 14.6-4.39.33.82.61 1.52 1.06 2.38.31.58.68 1.21 1.22 1.5.53.28 1.12.16 1.58.04 1.57-.39 3.13-.97 4.83-1.58-.58.67-1.22 1.4-1.83 2.09h2.45c2.13 0 3.03-.27 4.4-1.76.87-.94 1.83-1.98 2.77-3 3.1-1.14 5.74-2.04 7.68-2.56 2.55-.68 2.34-.55 1.09 1.24-1.45 2.08-3.03 4.01-4.64 6.06h2.63c1.7 0 3.07-.6 3.96-1.75.82-1.05 1.62-2.11 2.42-3.17 2.62-.98 4.95-1.82 7.74-2.53 2.42-.62 2.25-.32.88 1.25-.77.89-1.53 1.71-2.48 2.87-.76.94-1.6 2.06-1.21 2.7.38.64 1.92.72 3.7.63 3.26-.17 6.48-.97 9.1-1.71.69.85 3.44 1.86 9.06 1.64 4.89-.2 10.47-1.12 14.98-2.4-.63.73-1.36 1.56-2.06 2.35h2.45c2.14 0 3.03-.28 4.4-1.77 1.08-1.18 2.33-2.53 3.49-3.8 3.67-1.36 7.83-2.43 9.26-2.69 1.09-.19 1.97-.3 2.8 2.04.39-.04.79-.09 1.2-.13-1.87 1.37-2.8 3.18-1.84 4.58 1.01 1.47 3.47 1.7 5.19 1.63 5.2-.21 10.36-2.23 14.41-4.38.44 1.08.85 2.11 1.41 2.98.55.86 1.08 1.22 2.34 1.07 3.23-.39 6.46-1.36 9.37-2.31-.09-.47-.15-.86-.27-1.25zm-190.71.44c-1.07.21-3.13.46-3.3-.25-.17-.69 1.52-1.69 2.87-2.32 4.25-1.96 10.65-3.46 14.41-3.55-4.08 3.71-9.79 5.3-13.98 6.11zm57.03.13c-1.07.21-3.13.46-3.3-.25-.17-.69 1.52-1.69 2.88-2.32 4.25-1.96 10.65-3.5 14.41-3.59-4.08 3.72-9.79 5.34-13.98 6.16zm65.25-2.82c3.45-1.78 7.94-3.28 9.76-3.58.7-.12.99-.06 1.36.12.27.14.52.3.74.52.3.3.44.42-.47.79-1.6.65-7.8 2.37-13.75 3.72.43-.47 1.29-1.01 2.36-1.56zm45.64 2.56c-1.07.21-3.14.46-3.31-.24-.17-.69 1.53-1.69 2.88-2.32 4.25-1.97 10.65-3.59 14.41-3.68-4.07 3.73-9.79 5.42-13.98 6.24z"/><path d="m3.04 24.42c1.55-.05 3.32-.45 4.45-1.34 2.31-1.82 5.18-4.06 6.92-5.48 17.07-1.54 28.3-3.19 36.77-5.91 5.11-1.64 7.74-3.47 7.83-5.7.09-2.15-2.14-4.02-9.59-4.48-12.4-.78-32.57 2.19-41.65 5.01-2.33.73-3.59 1.47-4.56 3.1 10.35-2.23 34.91-5.63 44.25-4.68 4.68.48 3.98 2.4 1 3.62-7.37 3.02-25.1 5.32-29.78 5.56 2.52-2.1 5.08-4.27 7.68-6.51-2.95.35-5.91.64-8.87.99-5.72 4.81-12.1 10.71-17.49 15.83 1.01 0 2.03.01 3.04-.02z"/></svg>