<svg xmlns="http://www.w3.org/2000/svg" viewBox="0 0 24 24">
<path d="m13.18,4l.4514,2.2537c.9297.2628,1.8108.7337,2.5498,1.4534l2.1569-.7291,1.18,2.044-1.7223,1.5132c.2425.9637.2424,1.966,0,2.9297l1.7224,1.5141-1.18,2.044-2.1564-.7306c-.7391.72-1.6204,1.191-2.5503,1.4539l-.4514,2.2537h-2.36l-.4514-2.2537c-.9296-.2628-1.8107-.7338-2.5497-1.4534l-2.1569.7291-1.18-2.044,1.7223-1.5132c-.2424-.9637-.2424-1.9659,0-2.9296l-1.7223-1.5132,1.18-2.044,2.1562.7297c.7392-.72,1.6205-1.1911,2.5505-1.454l.4514-2.2537h2.36m.8196-1h-3.9991l-.4979,2.4862c-.7036.264-1.3436.6281-1.9129,1.0884l-2.3837-.8067-1.9999,3.4641,1.9033,1.6722c-.1143.7249-.1143,1.4664,0,2.1913l-1.9033,1.6722,1.9997,3.4639,2.3845-.806c.5692.4601,1.209.8242,1.9122,1.088l.4979,2.4862h3.9991l.4979-2.4862c.7034-.2639,1.3433-.628,1.9125-1.0882l2.384.8077,1.9999-3.4642-1.9033-1.6731c.1144-.7251.1145-1.4666,0-2.1917l1.9033-1.6722-1.9997-3.4639-2.3844.806c-.5692-.4601-1.209-.8242-1.9123-1.088l-.4979-2.4861h0Z"/><path d="m12,10c1.1046,0,2,.8954,2,2s-.8954,2-2,2-2-.8954-2-2,.8954-2,2-2m0-1c-1.6542,0-3,1.3458-3,3s1.3458,3,3,3,3-1.3458,3-3-1.3458-3-3-3h0Z"/>
</svg>