<svg viewBox="0 0 24 24" xmlns="http://www.w3.org/2000/svg"><path d="m6.98 13.7143c0 1.4112-.74 2.236-2.48 2.236s-2.43-.7155-2.5-2.4546h1.17c.06 1.0832.46 1.4608 1.33 1.4608s1.29-.3478 1.29-1.2025-.29-1.2323-1.29-1.2323h-.69v-1.113h.63c.83 0 1.19-.2683 1.19-1.1031s-.38-1.1528-1.2-1.1528-1.17.318-1.23 1.4013h-1.2c.06-1.5603.83-2.554 2.5-2.554s2.34.8646 2.39 2.236c.015.3383-.0721.6732-.25.962-.1784.2887-.4396.5178-.75.6579.749.2979 1.1982 1.0638 1.09 1.8584zm3.6701-2.9317c-.2235-.0034-.4451.0406-.65.1292l1.8-2.9118h-1.36l-1.7 2.7925c-.5103.7535-.7723 1.646-.75 2.554 0 1.8981.87 2.6037 2.51 2.6037s2.52-.7056 2.52-2.6037-.83-2.564-2.37-2.564zm-.15 4.1739c-1 0-1.28-.4074-1.28-1.5404s.32-1.5006 1.28-1.5006 1.27.4174 1.27 1.5006-.27 1.5404-1.27 1.5404zm6-6.9565c-2 0-2.53 1.0833-2.53 3.9752 0 3.1006.63 4.0248 2.51 4.0248s2.52-1.0435 2.52-4.0248c0-2.9118-.5-3.9752-2.5-3.9752zm0 6.9565c-1.06 0-1.24-.5366-1.24-2.9814 0-2.2659.25-2.7727 1.24-2.7727s1.25.5068 1.25 2.7727c-.02 2.4149-.2 2.9814-1.25 2.9814zm5.3311-6.5151c-.3069-.4562-.9279-.5787-1.387-.2737-.459.305-.5823.9222-.2753 1.3784s.9279.5787 1.3869.2737.5824-.9222.2754-1.3784zm-.4993.9115c-.1915.1739-.4886.1605-.6637-.0299-.1639-.1783-.1639-.4514 0-.6297.175-.1903.4722-.2037.6637-.0298.0105.0095.0205.0194.0301.0298.175.1904.1616.4857-.0301.6596z"/></svg>