<svg xmlns="http://www.w3.org/2000/svg" viewBox="0 0 24 24"><path d="m7,2.5v1h4.065l.145-.249c.2646-.4632.7566-.7496,1.29-.751.537,0,1.02.288,1.29.751l.145.249h4.065v-1c0-.2761.2239-.5.5-.5h1c.2761,0,.5.2239.5.5v3c0,.2761-.2239.5-.5.5h-1c-.2761,0-.5-.2239-.5-.5v-1h-4.065l-.145.249c-.13.225-.316.41-.541.541l-.249.145v11.103l.3.131c.46.202.83.571,1.031,1.032l.131.299h4.538v-1.5c0-.2761.2239-.5.5-.5h1c.2761,0,.5.2239.5.5v4c0,.2761-.2239.5-.5.5h-1c-.2761,0-.5-.2239-.5-.5v-1.5h-4.538l-.131.3c-.4416,1.0112-1.6194,1.473-2.6307,1.0313-.4615-.2015-.8298-.5699-1.0313-1.0313l-.131-.3h-4.538v1.5c0,.2761-.2239.5-.5.5h-1c-.2761,0-.5-.2239-.5-.5v-4c0-.2761.2239-.5.5-.5h1c.2761,0,.5.2239.5.5v1.5h4.538l.131-.3c.202-.46.571-.83,1.032-1.031l.299-.131V5.435l-.249-.145c-.2242-.1303-.4107-.3168-.541-.541l-.145-.249h-4.065v1c0,.2761-.2239.5-.5.5h-1c-.2761,0-.5-.2239-.5-.5v-3c0-.2761.2239-.5.5-.5h1c.2761,0,.5.2239.5.5Z"/></svg>