<svg xmlns="http://www.w3.org/2000/svg" viewBox="0 0 24 24"><path d="m3.5,6v.0015h2.55c.1997.9838.9686,1.7527,1.9524,1.9525,1.3531.2747,2.6729-.5994,2.9475-1.9525h9.55v-.0015c.2761,0,.5-.2239.5-.5s-.2239-.5-.5-.5v-.0015l-9.55.003c-.1997-.9838-.9686-1.7527-1.9524-1.9525-1.3531-.2748-2.6729.5994-2.9475,1.9525h-2.55v-.0015c-.2761,0-.5.2238-.5.5s.2239.5.5.5Zm5-1.997c.8284,0,1.5.6716,1.5,1.5s-.6716,1.5-1.5,1.5-1.5-.6716-1.5-1.5.6716-1.5,1.5-1.5Zm12.5,7.997c0,.2761-.2239.5-.5.5v.0015h-3.55c-.2761,1.3528-1.5967,2.2256-2.9495,1.9495-1.012-.2065-1.7546-.9977-1.9495-1.9495H3.5v-.0015c-.2761,0-.5-.2239-.5-.5s.2239-.5.5-.5v.0015h8.551c.2761-1.3528,1.5967-2.2256,2.9495-1.9495.9818.2004,1.749.9677,1.9495,1.9495h3.55v-.0015c.2761,0,.5.2238.5.5Zm0,6.5c0,.2761-.2239.5-.5.5v.0015h-9.5508c-.2317,1.1408-1.24,1.9998-2.4492,2-1.1882.0002-2.2124-.8358-2.45-2h-2.55v-.0015c-.2761,0-.5-.2239-.5-.5s.2239-.5.5-.5v.0015h2.55c.2375-1.1638,1.2612-1.9998,2.449-2,1.2096-.0002,2.2183.8588,2.45,2h9.551v-.0015c.2761,0,.5.2238.5.5Z"/></svg>