<svg viewBox="0 0 24 24" xmlns="http://www.w3.org/2000/svg">
<path d="m4.0003 17.0522v3h3v1h-4v-4zm17 0v4h-4v-1h3v-3zm-11.2099-10.2304c.31-.1899.71.0304.71.4004-.0001.1599-.0905.3095-.2305.3994l-2.0693 1.2402-.2998.2998 4.0996 2.4004 1.7402-1.0205c.34-.1996.7598.0408.7598.4306-.0001.1799-.0903.3397-.2402.4297l-1.7598 1.0498v4.7002c.0999 0 .1999.0002.2998-.0996l3-1.7998c.45-.34.6099-.8605.6699-1.2305.04-.24.2503-.4199.4903-.4199v.0195c.3099 0 .5401.2704.4902.5704-.1.55-.3804 1.3402-1.1504 1.7802l-3 1.7998c-.4.3-.7999.4004-1.2998.4004s-.8999-.2004-1.2998-.4004l-3-1.7998c-.7-.4-1.2002-1.2006-1.2002-2.1006v-3.6992c0-.8.5002-1.7006 1.2002-2.1006l2.0898-1.25zm-2.29 7.1299c0 .5.3002 1.0008.7002 1.3008l3 1.8994c.0999 0 .1999.1006.2998.1006v-4.7002l-4-2.4004zm9.2919-12.1661c.104-.3116.312-.3116.416 0 .3245 1.7044.4869 2.5572.9941 3.0645.5073.5071 1.3595.6697 3.0635.9941.3121.1041.3121.312 0 .416-1.6901.3218-2.5421.4841-3.0508.9815-.517.5057-.6796 1.3579-1.0068 3.0761-.104.3121-.312.3121-.416 0-.3245-1.7042-.487-2.5562-.9941-3.0634-.5073-.5072-1.3594-.6696-3.0635-.9941-.3121-.104-.3121-.312 0-.416 1.704-.3245 2.5562-.487 3.0635-.9941.5072-.5072.6696-1.3601.9941-3.0644zm-9.792 1.2666v1h-3v3h-1v-4z"/>
</svg>