<svg viewBox="0 0 24 24" xmlns="http://www.w3.org/2000/svg">
<path d="m3.5 11.66v1.2l5.2 3.47-5.2 3.48v1.19l7-4.67zm15 9.34h-7v-1h7zm-5.7083-18.2663c.104-.3116.312-.3116.416 0 .3246 1.7044.4869 2.5572.9942 3.0645.5072.5071 1.3594.6697 3.0634.9941.3122.1041.3122.312 0 .416-1.6901.3218-2.5421.4841-3.0507.9815-.5171.5057-.6797 1.3579-1.0069 3.0761-.104.3121-.3119.3121-.416 0-.3245-1.7042-.487-2.5562-.9941-3.0634-.5072-.5072-1.3593-.6696-3.0635-.9941-.3121-.104-.3121-.312 0-.416 1.7041-.3245 2.5562-.487 3.0635-.9941.5072-.5072.6696-1.3601.9941-3.0644zm5.0927 6.8961c.0578-.1731.1734-.1731.2312 0 .1803.9469.2705 1.4207.5523 1.7025.2818.2817.7553.372 1.702.5523.1735.0578.1735.1733 0 .2311-.939.1788-1.4123.2689-1.6949.5453-.2873.2809-.3777.7544-.5594 1.709-.0578.1733-.1734.1733-.2312 0-.1803-.9468-.2705-1.4202-.5523-1.702s-.7552-.372-1.702-.5523c-.1735-.0578-.1735-.1733 0-.2311.9467-.1803 1.4202-.2706 1.702-.5523.2818-.2818.372-.7556.5523-1.7025z"/>
</svg>