<svg viewBox="0 0 24 24" xmlns="http://www.w3.org/2000/svg">
<path d="m8.35 4.5c-.52-.88-1.25-1.5-2.21-1.5-.48 0-1.03.16-1.64.52-1.82 1.07-1.78 2.51-.99 3.84l6.71 11.34 4.78 2.81v-5.51l-6.65-11.49zm-3.97 2.35c-.32-.55-.44-1.02-.34-1.4s.43-.74.98-1.07c.43-.25.81-.38 1.13-.38.19 0 .75 0 1.35 1.01l.72 1.25-3.16 1.74zm9.62 12.91-3.05-1.8-5.39-9.11 3.15-1.74 5.29 9.14zm2.7917-18.0263c.1041-.3116.312-.3116.416 0 .3246 1.7044.4869 2.5572.9942 3.0645.5072.5071 1.3594.6697 3.0635.9941.3121.1041.3121.312 0 .416-1.6901.3218-2.5422.4841-3.0508.9815-.5171.5057-.6797 1.3579-1.0069 3.0761-.104.3121-.3119.3121-.416 0-.3245-1.7042-.487-2.5562-.9941-3.0634-.5072-.5072-1.3593-.6696-3.0635-.9941-.3121-.104-.3121-.312 0-.416 1.7041-.3245 2.5562-.487 3.0635-.9941.5072-.5072.6696-1.3601.9941-3.0644z"/>
</svg>