<svg viewBox="0 0 24 24" xmlns="http://www.w3.org/2000/svg">
<path d="m10.6495 6.6312c.6409 4.2944 2.556 6.1232 6.7179 6.7212.1768.0254.1768.2697 0 .2951-4.1619.5981-6.0771 2.4269-6.7179 6.7212-.0261.175-.2729.175-.299 0-.6409-4.2944-2.556-6.1232-6.7179-6.7212-.1768-.0254-.1768-.2697 0-.2951 4.1619-.5981 6.0771-2.4269 6.7179-6.7212.0261-.175.2729-.175.299 0zm6.2758-4.0656c-.3204 2.1472-1.278 3.0616-3.359 3.3606-.0884.0127-.0884.1348 0 .1475 2.081.299 3.0385 1.2134 3.359 3.3606.0131.0875.1364.0875.1495 0 .3204-2.1472 1.278-3.0616 3.359-3.3606.0884-.0127.0884-.1348 0-.1475-2.081-.299-3.0385-1.2134-3.359-3.3606-.0131-.0875-.1364-.0875-.1495 0z"/>
</svg>