<svg viewBox="0 0 24 24" xmlns="http://www.w3.org/2000/svg"><path d="m10.8468 6.3902c.5409 2.8406.8113 4.2609 1.6567 5.1063s2.2657 1.1158 5.1063 1.6567c.5202.1734.5202.5202 0 .6936-2.8174.5365-4.2377.8069-5.0855 1.6361-.8618.8429-1.1322 2.2631-1.6775 5.1269-.1734.5202-.5202.5202-.6936 0-.5409-2.8406-.8113-4.2609-1.6567-5.1063s-2.2657-1.1158-5.1063-1.6567c-.5202-.1734-.5202-.5202 0-.6936 2.8406-.5409 4.2609-.8113 5.1063-1.6567s1.1158-2.2657 1.6567-5.1063c.1734-.5202.5202-.5202.6936 0zm6.815-3.2081c.2524 1.3256.3786 1.9884.7731 2.3829s1.0573.5207 2.383.7731c.2428.0809.2428.2428 0 .3237-1.3007.2477-1.9632.3738-2.3604.7511-.4124.3918-.5385 1.0544-.7957 2.405-.0809.2428-.2428.2428-.3237 0-.24-1.2604-.3659-1.9216-.7168-2.3227-.3872-.4426-1.0484-.5685-2.4393-.8334-.2428-.0809-.2428-.2428 0-.3237 1.3256-.2524 1.9884-.3786 2.3829-.7731s.5207-1.0573.7731-2.383c.0809-.2428.2428-.2428.3237 0z"/></svg>