<svg viewBox="0 0 24 24" xmlns="http://www.w3.org/2000/svg">
<path d="m10.4999 5c.28 0 .5.22.5.5s-.22.5-.5.5h-6.5c-.5499 0-1 .45-1 1v10c0 .5.58.9999 1 1h16c.55 0 1-.45 1-1v-7.0098c0-.28.2201-.5.5-.5.28 0 .5.22.5.5v7.0098c0 1.1-.9 2-2 2h-16c-1.0799 0-2.0002-1-1.9902-2v-10c-.01-.85.9903-1.9999 1.9902-2zm1.0703 9.0303 2.4297-2.0205 4.5303 4.9902h-1.3604l-3.2802-3.5996-1.6494 1.3799 2.0195 2.2197h-1.3594l-6.0107-6.6103-2.8897 2.4101v-1.2998l3-2.5zm5.7217-11.7969c.1041-.3112.312-.3112.416 0 .3246 1.7043.487 2.5572.9942 3.0645.5072.5071 1.3594.6697 3.0634.9942.312.104.3119.312 0 .416-1.6897.3218-2.542.4843-3.0507.9815-.5171.5057-.6797 1.3581-1.0069 3.0761-.104.3121-.3119.3121-.416 0-.3245-1.704-.487-2.5562-.9941-3.0634-.5072-.5072-1.3595-.6697-3.0635-.9941-.3121-.104-.3121-.312 0-.416 1.7039-.3245 2.5563-.4871 3.0635-.9942.507-.5073.6696-1.3604.9941-3.0645z"/>
</svg>