<svg viewBox="0 0 24 24" xmlns="http://www.w3.org/2000/svg"><path d="m10.5 9.609c.308 1.1728.6666 1.9647 1.2964 2.5945s1.4216.9883 2.5942 1.2963c-1.1553.3033-1.9388.6552-2.5655 1.2681-.6471.6329-1.0123 1.4332-1.325 2.6234-.308-1.173-.6666-1.9651-1.2965-2.5949-.6298-.6298-1.4218-.9884-2.5946-1.2964 1.1728-.308 1.9648-.6666 2.5946-1.2964s.9884-1.4218 1.2964-2.5946m0-3.609c-.1301 0-.2601.1301-.3468.3902-.5409 2.8406-.8113 4.261-1.6567 5.1063-.8454.8454-2.2657 1.1158-5.1063 1.6567-.5202.1734-.5202.5202 0 .6936 2.8406.5409 4.261.8113 5.1063 1.6567.8454.8454 1.1158 2.2657 1.6567 5.1063.0867.2601.2168.3902.3468.3902s.2601-.1301.3468-.3902c.5453-2.8638.8157-4.284 1.6775-5.1269.8478-.8292 2.2681-1.0996 5.0855-1.6361.5202-.1734.5202-.5202 0-.6936-2.8406-.5409-4.261-.8113-5.1063-1.6567-.8454-.8454-1.1158-2.2657-1.6567-5.1063-.0867-.2601-.2168-.3902-.3468-.3902zm7-.4765c.1079.2184.2381.4054.4046.5719s.3534.2966.5717.4045c-.2022.1001-.3775.2194-.5353.3693-.1838.1746-.3249.3727-.4406.6071-.0874-.1762-.1896-.3321-.3145-.4749-.1885-.2154-.4013-.3748-.6598-.5027.2173-.1077.4034-.2375.5693-.4033.1665-.1665.2967-.3536.4047-.5719m0-2.5234c-.0607 0-.1214.0607-.1618.1821-.2524 1.3256-.3786 1.9884-.7731 2.3829s-1.0573.5207-2.3829.7731c-.2428.0809-.2428.2428 0 .3237 1.3909.2648 2.0521.3907 2.4393.8334.3509.4011.4768 1.0623.7168 2.3227.0405.1214.1012.1821.1618.1821s.1214-.0607.1618-.1821c.2572-1.3506.3833-2.0132.7957-2.405.3971-.3773 1.0597-.5035 2.3604-.7511.2428-.0809.2428-.2428 0-.3237-1.3256-.2524-1.9884-.3786-2.383-.7731-.3945-.3945-.5207-1.0573-.7731-2.3829-.0405-.1214-.1012-.1821-.1618-.1821z"/></svg>