<svg viewBox="0 0 24 24" xmlns="http://www.w3.org/2000/svg">
<path d="m5.5 19.5h-1v-14h1zm-2.5-9h-1v4h1zm17.5.5c0-.28-.22-.5-.5-.5s-.5.22-.5.5v6.5h1zm-2.5 3c0-.28-.22-.5-.5-.5s-.5.22-.5.5v2.02h1zm-2.5-3c0-.28-.22-.5-.5-.5s-.5.22-.5.5v8.5h1zm-2.49-1.5c0-.28-.22-.5-.5-.5s-.5.22-.5.5v12h1zm0-5v-1h-1v1c0 .28.22.5.5.5s.5-.22.5-.5zm-2.51 2.5h-1v11h1zm-2.5 1.5h-1v8h1zm9.2917-6.2663c.104-.3116.312-.3116.416 0 .3246 1.7044.4869 2.5572.9942 3.0645.5072.5071 1.3594.6697 3.0634.9941.3122.1041.3122.312 0 .416-1.69.3218-2.5421.4841-3.0507.9815-.5171.5057-.6797 1.3579-1.0069 3.0761-.104.3121-.3119.3121-.416 0-.3245-1.7042-.487-2.5562-.9941-3.0634-.5072-.5072-1.3593-.6696-3.0635-.9941-.3121-.104-.3121-.312 0-.416 1.7041-.3245 2.5562-.487 3.0635-.9941.5072-.5072.6696-1.3601.9941-3.0644z"/>
</svg>