<svg viewBox="0 0 24 24" xmlns="http://www.w3.org/2000/svg">
<path d="m8 13v-1h2v1zm5.5 0v-1h-2.5v1zm-1-3v-1h-4.5v1zm6 .5c.28 0 .5.22.5.5v9c0 1.1-.9 2-2 2h-6l-6-6v-12c0-1.1.9-2 2-2h5.5c.28 0 .5.22.5.5s-.22.5-.5.5h-5.5c-.55 0-1 .45-1 1v11h6v6h5c.55 0 1-.45 1-1v-9c0-.28.22-.5.5-.5zm-7.5 5.5h-4.59l4.59 4.59zm4.7917-13.7663c.104-.3116.312-.3116.416 0 .3246 1.7044.4869 2.5572.9942 3.0645.5072.5071 1.3594.6697 3.0634.9941.3122.1041.3122.312 0 .416-1.6901.3218-2.5421.4841-3.0507.9815-.5171.5057-.6797 1.3579-1.0069 3.0761-.104.3121-.3119.3121-.416 0-.3245-1.7042-.487-2.5562-.9941-3.0634-.5072-.5072-1.3593-.6696-3.0635-.9941-.3121-.104-.3121-.312 0-.416 1.7041-.3245 2.5562-.487 3.0635-.9941.5072-.5072.6696-1.3601.9941-3.0644z"/>
</svg>