<svg viewBox="0 0 24 24" xmlns="http://www.w3.org/2000/svg">
<path d="m22 9.99v7.01c0 1.1-.9 2-2 2h-16c-1.08 0-2-1-1.99-2v-10c-.01-.85.99-2 1.99-2h6.5c.28 0 .5.22.5.5s-.22.5-.5.5h-6.5c-.55 0-1 .45-1 1v10c0 .5.58 1 1 1h16c.55 0 1-.45 1-1v-7.01c0-.28.22-.5.5-.5s.5.22.5.5zm-12.5-1.99 6 4-6 4zm1 6.13 3.2-2.13-3.2-2.13zm2.7341-7.4217c1.7042.3245 2.5563.4869 3.0635.9941.5071.5073.6696 1.3593.9941 3.0635.104.3121.312.3121.416 0 .3272-1.7183.4898-2.5704 1.0069-3.0762.5086-.4974 1.3606-.6596 3.0507-.9814.3122-.1041.3122-.312 0-.416-1.704-.3245-2.5562-.487-3.0634-.9941-.5073-.5073-.6696-1.3601-.9942-3.0645-.104-.3116-.312-.3116-.416 0-.3245 1.7043-.4869 2.5572-.9941 3.0645-.5073.5071-1.3594.6697-3.0635.9941-.3121.1041-.3121.312 0 .416z"/>
</svg>