<svg viewBox="0 0 24 24" xmlns="http://www.w3.org/2000/svg">
<path d="m17.3204 13c-3.9779-.6-5.7238-2.4-6.3204-6.4 0-.3-.2017-.6-.5-.6s-.5.2-.5.6c-.5967 4-2.4254 5.8-6.4033 6.4-.2983 0-.5967.2-.5967.5s.2253.5.5.5c3.9779.6 5.9033 2.4 6.5 6.4 0 .3.2017.6.5.6s.5-.2.5-.6c.5967-4 2.3425-5.8 6.3204-6.4.2983 0 .6796-.2.6796-.5s-.2818-.5-.6796-.5zm-6.8619 5.6c-.7956-2.8-2.2873-4.4-5.0718-5.1 2.7845-.8 4.2762-2.4 5.0718-5.1.7956 2.8 2.2873 4.4 5.0718 5.1-2.7845.8-4.2762 2.4-5.0718 5.1z"/><path d="m17.0078 4.1316c.3937.8634.9958 1.4718 1.8493 1.8684-.8583.3989-1.4625 1.012-1.856 1.8833-.4044-.8549-1.0254-1.4681-1.8947-1.871.8806-.3969 1.4994-1.0088 1.9015-1.8807m-.0078-2.1316c-.1591 0-.257.1067-.257.32-.3182 2.1333-1.2936 3.0933-3.4151 3.4133-.1591 0-.3279.1067-.3279.2667s.1298.2667.2763.2667c2.1215.32 3.1484 1.28 3.4667 3.4133 0 .16.0979.32.257.32s.2763-.1067.2763-.32c.3182-2.1333 1.2494-3.0933 3.3709-3.4133.1591 0 .3528-.1067.3528-.2667s-.1406-.2667-.3528-.2667c-2.1215-.32-3.0527-1.28-3.3709-3.4133 0-.16-.1172-.32-.2763-.32z"/>
</svg>