<svg fill="none" height="24" viewBox="0 0 24 24" width="24" xmlns="http://www.w3.org/2000/svg"><path d="m11.5556 22c-3.06316 0-5.5556-2.4924-5.5556-5.5556v-10.55551c0-.30711.24844-.55556.55556-.55556.30711 0 .55555.24845.55555.55556v10.55551c0 2.4513 1.99322 4.4445 4.44449 4.4445 2.4512 0 4.4444-1.9932 4.4444-4.4445v-10.55551c0-1.53211-1.2457-2.77778-2.7778-2.77778s-2.7778 1.24567-2.7778 2.77778v11.11111c0 .6131.498 1.1111 1.1112 1.1111.6131 0 1.1111-.498 1.1111-1.1111v-10c0-.30711.2484-.55556.5555-.55556s.5556.24845.5556.55556v10c0 1.225-.9972 2.2222-2.2222 2.2222s-2.22227-.9972-2.22227-2.2222v-11.11111c0-2.14411 1.74477-3.88889 3.88887-3.88889s3.8889 1.74478 3.8889 3.88889v10.55551c0 3.0632-2.4924 5.5556-5.5555 5.5556z" fill="#010205"/></svg>