<svg viewBox="0 0 24 24" xmlns="http://www.w3.org/2000/svg"><path d="m4 8h-1v-4h4v1h-3zm17-4v4h-1v-3h-3v-1zm-1 14h1v4h-4v-1h3zm-16 3h3v1h-4v-4h1zm12.2861-12.0116-3-1.7998c-.793-.4756-1.7803-.4756-2.5713 0l-3.001 1.7998c-.749.4497-1.2139 1.2715-1.2139 2.144v3.7349c0 .873.4658 1.6943 1.2139 2.1436l3 1.8008c.3965.2383.8418.3564 1.2861.3564s.8896-.1182 1.2871-.3564l2.999-1.8008c.749-.4492 1.2139-1.2705 1.2139-2.1436v-3.7349c0-.873-.4648-1.6948-1.2139-2.144zm-5.0566-.9424c.2373-.1426.5039-.2139.7705-.2139s.5342.0713.7725.2139l2.999 1.7998c.1113.0668.2117.1476.3005.2388l-4.072 2.443-4.0718-2.4429c.0887-.0912.1891-.1721.3004-.239l3.001-1.7998zm-3.001 8.1074c-.4492-.2695-.7285-.7627-.7285-1.2861v-3.7349c0-.0439.0131-.0854.017-.1288l3.983 2.3896v4.6768c-.092-.0329-.1848-.0644-.2705-.1159l-3.001-1.8008zm8.2715-1.2861c0 .5244-.2793 1.0166-.7285 1.2861l-2.999 1.8008c-.0865.0518-.1798.0835-.2725.1165v-4.677l3.983-2.39c.0038.0433.017.0849.017.1288v3.7349z"/></svg>