<svg viewBox="0 0 24 24" xmlns="http://www.w3.org/2000/svg"><path d="m4 7h-1v-4h4v1h-3zm17-4v4h-1v-3h-3v-1zm-1 14h1v4h-4v-1h3zm-16 3h3v1h-4v-4h1zm12.3-12-3-1.8c-.8-.5-1.8-.5-2.6 0l-3 1.8c-.7.4-1.2 1.3-1.2 2.1v3.7c0 .9.5 1.7 1.2 2.1l3 1.8c.4.2.8.4 1.3.4s.9-.1 1.3-.4l3-1.8c.7-.4 1.2-1.3 1.2-2.1v-3.7c0-.8-.5-1.7-1.2-2.1zm-5.1-1c.2-.1.5-.2.8-.2s.5.1.8.2l3 1.8c.1.1.2.2.3.3l-4.1 2.4-4.1-2.4.3-.3zm-3 8.2c-.4-.3-.7-.8-.7-1.3v-3.7-.1l4 2.4v4.7c-.1 0-.2-.1-.3-.1zm8.3-1.3c0 .5-.3 1-.7 1.3l-3 1.8c-.1.1-.2.1-.3.1v-4.7l4-2.4v.1z"/></svg>