<svg xmlns="http://www.w3.org/2000/svg" viewBox="0 0 24 24"><path d="m22.9956,9.4996l-.9997.4999v8.7476c0,1.2459-.4998,2.2518-1.9994,2.2518-1.4575,0-1.9714-.95-1.9984-2.1479l-.003-5.8516c-.0229-.723-.3354-.9789-.9952-.9986v8.9991h-7V6c0-2,1-3,3-3h1c2,0,3,1,3,3v4.9997c1.2481.0011,1.9968.7507,1.9968,1.9998v5.9996c0,.75.2499.9999.9997.9999s.9997-.2499.9997-.9999v-8.9995c-.018-1.4499-.2679-2.6179-.7498-3.4998-.4819-.884-1.2316-1.5499-2.2493-1.9999v-.9999c1.5895.774,2.7561,1.6069,3.4989,2.4999.7427.8909,1.2426,2.0579,1.4995,3.4998Zm-6.9956,10.5004v-7.9995h-.0022v-1.001h.0022v-4.9995c0-1.4393-.5607-2-2-2h-1c-1.4393,0-2,.5607-2,2v14h5Zm-7-14v13c0,1.1046-.8954,2-2,2h-3c-1.1046,0-2-.8954-2-2V6c0-1.1046.8954-2,2-2v-1h3v1c1.1046,0,2,.8954,2,2Zm-1,0c0-.5514-.4486-1-1-1h-3c-.5514,0-1,.4486-1,1v13c0,.5514.4486,1,1,1h3c.5514,0,1-.4486,1-1V6Zm-4,11.5h3v1c0,.2761-.2239.5-.5.5h-2c-.2761,0-.5-.2239-.5-.5v-1Z"/></svg>