<svg viewBox="0 0 24 24" xmlns="http://www.w3.org/2000/svg"><path d="m5 17.5h3v1c0 .2761-.2239.5-.5.5h-2c-.2761 0-.5-.2239-.5-.5zm5-11.5v13c0 1.1046-.8954 2-2 2h-3c-1.1046 0-2-.8954-2-2v-13c0-1.1046.8954-2 2-2v-1h3v1c1.1046 0 2 .8954 2 2zm-1 0c0-.5514-.4486-1-1-1h-3c-.5514 0-1 .4486-1 1v13c0 .5514.4486 1 1 1h3c.5514 0 1-.4486 1-1zm9.762 11h-6.762v3h6.762l1.8-1.5zm.0593-1c.1974 0 .3904.0731.5547.2099l2.124 1.7701c.2969.2474.2969.7927 0 1.04l-2.124 1.7701c-.1643.1369-.3573.2099-.5547.2099h-7.3213c-.2761 0-.5-.1548-.5-.5v-4c0-.3452.2239-.5.5-.5zm.6787-4.02-2.1241-1.7701c-.1642-.1368-.3572-.2099-.5547-.2099h-5.3212c-.2761 0-.5.1548-.5.5v4c0 .3452.2239.5.5.5h5.3212c.1974 0 .3904-.0731.5547-.21l2.1241-1.77c.2968-.2474.2968-.7927 0-1.04zm-2.738 2.02h-4.762v-3h4.762l1.8 1.5zm.238-8.02-2.1241-1.7701c-.1642-.1368-.3572-.2099-.5547-.2099h-2.8212c-.2761 0-.5.1548-.5.5v4c0 .3452.2239.5.5.5h2.8212c.1974 0 .3904-.0731.5547-.21l2.1241-1.77c.2968-.2474.2968-.7927 0-1.04zm-2.738 2.02h-2.262v-3h2.262l1.8 1.5z"/></svg>