<svg viewBox="0 0 24 24" xmlns="http://www.w3.org/2000/svg"><path d="m9 19c0 1.6569 1.3432 3 3 3s3-1.3431 3-3h-1c0 1.1028-.8972 2-2 2s-2-.8972-2-2zm10.2764-2.4473-1.2764-3.5527v-3.5c0-2.4189-1.7178-4.4358-4-4.8992v-.6008c0-1.1046-.8954-2-2-2s-2 .8954-2 2v.6008c-2.2822.4634-4 2.4802-4 4.8992v3.5l-1.2764 3.5527c-.3325.6649.151 1.4473.8944 1.4473h12.7639c.7434 0 1.2269-.7823.8944-1.4473zm-8.2764-12.5527c0-.5514.4486-1 1-1s1 .4486 1 1v.5h-2zm-5.382 13 1.3231-3.6619.0588-.3381v-3.5c0-2.2056 1.7944-4 4-4h2c2.2056 0 4 1.7944 4 4v3.5l.0588.3381 1.3231 3.6619z"/></svg>