<svg xmlns="http://www.w3.org/2000/svg" viewBox="0 0 24 24"><path d="m14.7353,4c.5591,0,1.0482.3871,1.1894.9413.1128.4431.5118.7532.9691.7532.0391,0,.0784-.0022.119-.0063.6617.0225,1.1931.5743,1.1931,1.2493,0,.0768-.0117.1673-.0359.2767-.1046.4737.146.9541.5942,1.1396.6792.281,1.1181.9394,1.1181,1.6775,0,.2664-.0635.5318-.1888.7889-.2298.4716-.056,1.0407.398,1.3035.5689.3293.9085.9139.9085,1.5638,0,.7366-.4357,1.3941-1.1099,1.6749-.4382.1825-.6877.6479-.5971,1.1139.0206.1059.0306.2057.0306.3049,0,.8443-.6795,1.5312-1.5147,1.5312-.0656,0-.1422-.0083-.2413-.0262-.0599-.0108-.1195-.0161-.1785-.0161-.4229,0-.8093.2693-.9476.6827-.2096.6263-.783,1.0471-1.4267,1.0471-.8352,0-1.5147-.6869-1.5147-1.5312V5.25c0-.6893.5541-1.25,1.2353-1.25m0-1c-1.2329,0-2.2353,1.0055-2.2353,2.25v13.2188c0,1.3992,1.1246,2.5312,2.5147,2.5312,1.1107,0,2.0397-.7277,2.375-1.7297.1362.0246.2759.0422.4191.0422,1.3901,0,2.5147-1.132,2.5147-2.5312,0-.1687-.0175-.334-.049-.4957,1.0129-.4219,1.7254-1.4273,1.7254-2.598,0-1.0441-.5693-1.9441-1.4075-2.4293.1816-.3727.2899-.784.2899-1.2269,0-1.1742-.716-2.1797-1.7358-2.6016.0349-.1582.0594-.3234.0594-.4922,0-1.241-1.0024-2.25-2.2353-2.25-.028,0-.0524.007-.0768.007-.248-.9738-1.1141-1.6945-2.1584-1.6945h0Zm-5.4706,1c.6812,0,1.2353.5607,1.2353,1.25v13.2188c0,.8443-.6795,1.5312-1.5147,1.5312-.6438,0-1.2171-.4208-1.4267-1.047-.1384-.4135-.5247-.6828-.9476-.6828-.059,0-.1187.0052-.1785.016-.0992.0179-.1758.0263-.2413.0263-.8352,0-1.5147-.6869-1.5147-1.5312,0-.0981.0103-.2007.0305-.3049.0906-.466-.1589-.9314-.5971-1.1139-.6742-.2808-1.1099-.9382-1.1099-1.6749,0-.65.3396-1.2346.9084-1.5638.4542-.2628.6279-.832.398-1.3036-.1253-.257-.1888-.5224-.1888-.7888,0-.7381.4389-1.3965,1.1181-1.6775.4482-.1854.6988-.6658.5942-1.1395-.0241-.1093-.0358-.1998-.0358-.2767,0-.6762.5333-1.2287,1.1967-1.2494.0405.0037.0855.0064.1155.0064.4573,0,.8563-.3102.9691-.7533.1411-.5542.6301-.9413,1.1893-.9413m0-1c-1.0443,0-1.9105.7207-2.1584,1.6945-.0245,0-.049-.007-.0768-.007-1.2329,0-2.2353,1.009-2.2353,2.25,0,.1687.0244.334.0593.4922-1.0198.4219-1.7358,1.4273-1.7358,2.6016,0,.443.1083.8543.2899,1.2269-.8383.4852-1.4075,1.3852-1.4075,2.4293,0,1.1707.7125,2.1762,1.7253,2.598-.0314.1617-.0489.327-.0489.4957,0,1.3992,1.1246,2.5312,2.5147,2.5312.1432,0,.2829-.0176.4191-.0422.3353,1.002,1.2643,1.7297,2.375,1.7297,1.3901,0,2.5147-1.132,2.5147-2.5312V5.25c0-1.2445-1.0024-2.25-2.2353-2.25h0Z"/></svg>