<svg viewBox="0 0 24 24" xmlns="http://www.w3.org/2000/svg"><path d="m21.75 11.8c-.35-.15-.7-.25-1.05-.4-.8-.3-1.6-.6-2.4-.9-1.45-.5-2.85-.95-4.25-1.2l-.55 1.75h-3.75c.6-.35 1.25-.7 1.75-.9l.3-1.1c-1.05.15-2.6 1.15-4.05 1.95-5.25.55-6.5 2.3-6.75 3.05 0 .7.2 1.25.5 1.5.1.1.3.25.45.25.6.05 1.9.15 1.9.15.4.65 1.1 1.05 1.9 1.05s1.45-.4 1.9-1h9c.4.6 1.1 1 1.85 1 .95 0 1.75-.6 2.1-1.4l1.9-.35c.2-.25.45-.55.5-1v-.75c0-.45-1-1.6-1.25-1.7zm-6.75-1.3c.6.15 1.2.35 1.85.55h-1.85zm7 3.7c0 .05-.05.15-.05.2l-1.5.3-.55.1-.2.5c-.25.45-.7.75-1.2.75-.4 0-.8-.2-1.05-.55l-.3-.45h-10.1l-.3.45c-.25.35-.6.55-1.05.55s-.85-.2-1.05-.6l-.2-.4-.5-.05s-1.1-.1-1.75-.15c-.1-.1-.15-.3-.2-.6.2-.4 1.25-1.75 5.85-2.2h9.15c.3 0 .65 0 1.45-.4.65.25 1.25.5 1.9.7.3.1.6.25.9.35.2.2.6.7.7.95.05.15.05.4.05.55z"/></svg>