<svg viewBox="0 0 24 24" xmlns="http://www.w3.org/2000/svg"><path d="m16.495 3h-9c-1.1 0-2 .9-2 2v14c0 1.1.9 2 2 2h9.01c1.1 0 2-.9 2-2v-14c0-1.1-.9-2-2-2zm1 16c0 .55-.45 1-1 1h-9c-.55 0-1-.45-1-1v-14c0-.55.45-1 1-1h9.01c.55 0 1 .45 1 1v14zm-2-14h-7c-.55 0-1 .45-1 1v3c0 .55.45 1 1 1h7c.55 0 1-.45 1-1v-3c0-.55-.45-1-1-1zm0 4h-7v-3h7zm-5.5 3c0 .5523-.4477 1-1 1s-1-.4477-1-1 .4477-1 1-1 1 .4477 1 1zm3 0c0 .5523-.4477 1-1 1s-1-.4477-1-1 .4477-1 1-1 1 .4477 1 1zm3 0c0 .5523-.4477 1-1 1s-1-.4477-1-1 .4477-1 1-1 1 .4477 1 1zm-6 3c0 .5523-.4477 1-1 1s-1-.4477-1-1 .4477-1 1-1 1 .4477 1 1zm3 0c0 .5523-.4477 1-1 1s-1-.4477-1-1 .4477-1 1-1 1 .4477 1 1zm3 0c0 .5523-.4477 1-1 1s-1-.4477-1-1 .4477-1 1-1 1 .4477 1 1zm-6 3c0 .5523-.4477 1-1 1s-1-.4477-1-1 .4477-1 1-1 1 .4477 1 1zm3 0c0 .5523-.4477 1-1 1s-1-.4477-1-1 .4477-1 1-1 1 .4477 1 1zm3 0c0 .5523-.4477 1-1 1s-1-.4477-1-1 .4477-1 1-1 1 .4477 1 1z"/></svg>