<svg viewBox="0 0 24 24" xmlns="http://www.w3.org/2000/svg"><path d="m20 6c1.1 0 2 1 2 2v10c0 1-1 2-2 2h-16c-1 0-2-1-2-2v-10c0-1 1-2 2-2v1c-.5 0-1 .5-1 1v10c0 .5.5 1 1 1h16c.5 0 1-.5 1-1v-10c0-.5-.5-1-1-1zm-4 0v1h-8v-1zm3-2v3h-2v-3zm-12 0v3h-2v-3zm.8 10.5c.1 1.3.6 1.8 1.7 1.8s1.6-.4 1.6-1.5c0-1-.4-1.5-1.6-1.5h-.8v-.8h.7c1 0 1.5-.5 1.5-1.3 0-1-.6-1.4-1.5-1.4-1 0-1.5.4-1.6 1.7h-.8c.1-1.5.7-2.5 2.4-2.5 1.6 0 2.4.8 2.4 2.2 0 .7-.3 1.4-1 1.7.7.2 1.2.8 1.2 1.9 0 1.4-.9 2.2-2.5 2.2-1.7 0-2.5-.8-2.5-2.5z"/><path d="m15.6 9.9-2.1.8v-.8l2.2-.9h.8v8h-.9z"/></svg>