<svg viewBox="0 0 24 24" xmlns="http://www.w3.org/2000/svg"><path d="m20 6c1.0659-.0003 1.9447.8354 1.998 1.9l.002.1v10c.0003 1.0659-.8354 1.9447-1.9 1.998l-.1.002h-16c-1.0659.0003-1.9447-.8354-1.998-1.9l-.002-.1v-10c-.0003-1.0659.8354-1.9447 1.9-1.998l.1-.002v1l-.075.003c-.4919.037-.8834.4272-.922.919l-.003.078v10c0 .5231.4034.9578.925.997l.075.003h16c.5231 0 .9578-.4034.997-.925l.003-.075v-10c0-.5231-.4034-.9578-.925-.997l-.075-.003zm-4 0v1h-8v-1zm3-2v3h-2v-3zm-12 0v3h-2v-3zm.8329 10.5213c.0871 1.2616.5544 1.7608 1.6955 1.7608 1.0546 0 1.5871-.4344 1.5871-1.4783 0-.9558-.446-1.4666-1.5871-1.4666h-.7827v-.7933h.7285c.9892 0 1.4671-.4896 1.4671-1.3477 0-.9569-.565-1.37-1.5218-1.37-.9669 0-1.4889.4344-1.5755 1.7395h-.8586c.0866-1.576.7386-2.5658 2.4341-2.5658 1.6413 0 2.4134.8156 2.4134 2.1962 0 .6956-.3372 1.3583-1.0222 1.6737.7391.2496 1.1958.8145 1.1958 1.9339 0 1.3594-.8586 2.1962-2.4782 2.1962-1.7279 0-2.467-.7933-2.5429-2.4787h.8475zm8.0573-4.4561-2.141.805v-.8262l2.2928-.9133h.7503v7.7387h-.9022v-6.8042z"/></svg>