<svg viewBox="0 0 24 24" xmlns="http://www.w3.org/2000/svg"><path d="m20 7.5c.58.436.967 1.227 1 2v4.5c0 2.168-1.727 3.902-3.878 3.968l-11.622.032c-.787.0006-1.5283-.37-2-1h13.498c1.6569.0011 3.0009-1.3411 3.002-2.998zm2 2c.58.436.967 1.227 1 2v2.977c-.002 3.015-2.485 5.492-5.5 5.523h-10c-.787.0006-1.5283-.37-2-1h11.997c2.4853-.0011 4.5002-2.0147 4.503-4.5l.001-5zm-9-4.51v-.99h3v1h.5c1.344 0 2.5 1 2.5 2.5v6c.0002 1.3388-1.0544 2.4402-2.392 2.498l-13.108.002c-1.3388.0002-2.4402-1.0544-2.498-2.392l-.002-6.108c-.0002-1.3388 1.0544-2.4402 2.392-2.498l.608-.002v-1h3v1zm-9.5 1.01c-.7941.0002-1.4504.6193-1.497 1.412l-.003 6.088c-.0003.7945.6189 1.4514 1.412 1.498l13.088.002c.7941-.0002 1.4504-.6193 1.497-1.412l.003-6.088c-.0002-.7941-.6193-1.4504-1.412-1.497zm12 1v1.5h1.5v1h-1.5v1.5h-1v-1.5h-1.5v-1h1.5v-1.5zm-8.5 1.5v1h-4v-1z"/></svg>