<svg viewBox="0 0 24 24" xmlns="http://www.w3.org/2000/svg"><path d="m21.8472 13.3296c-.0255-.3193-.0794-.6141-.1604-.8977l.0076.0321c-.2042-.6019-.5983-1.0948-1.1095-1.4191l-.0107-.0066c-.1421-.0586-.3126-.111-.4883-.1492l-.0209-.0036v-.0509c.2016-.002.3936-.0392.5718-.1054l-.0117.0036c.307-.0316.5525-.2602.6105-.5555l.0005-.0046c.0509-.3564-.4583-.4583-.4583-.4583-.2587-.0611-.5571-.0983-.8631-.1018h-.0025c-.3055 0-.3564.2037-.3564.2037.0081.2057.026.3992.0545.5891l-.0036-.029c-.0509.1528-.1018.3564-.1018.3564l-.2037-.0509-1.0184-2.0368c-.2312-.4455-.4847-.8295-.7735-1.1834l.0097.0122c-.2159-.2709-.5133-.469-.8544-.5576l-.0112-.0025c-.6849-.1319-1.4909-.223-2.3127-.2536l-.0295-.001h-4.6846c-.8514.0316-1.6574.1227-2.4436.2704l.1013-.0158c-.3569.0784-.6579.2801-.8631.556l-.0025.0041c-.279.3417-.5326.7256-.746 1.134l-.0178.0372-1.0184 2.0368-.2037.0509c-.053-.1034-.0891-.2246-.1013-.3524l-.0005-.0041c.025-.1609.0428-.3539.0504-.5499l.0005-.0102s0-.2037-.3564-.2037c-.3086.0036-.607.0407-.8936.1074l.028-.0056s-.5092.1018-.4583.4583c0 0 0 .4583.611.5601 0 0 .2546.0509.5601.1018v.0509c-.2037.0509-.3564.1018-.5092.1528-.5224.3305-.9165.8234-1.1146 1.4069l-.0056.0188c-.0733.2515-.1273.5464-.1517.8498l-.001.0158c-.058.4868-.0906 1.051-.0906 1.6228 0 .3788.0143.7541.0428 1.1253l-.0031-.0494s0 .3564.2037 2.6478c.0163.3732.1085.721.2612 1.0337l-.0066-.0153c.1171.1655.2979.279.5056.305l.0036.0005h2.1895s.5092 0 .5092-.9165h12.6279c0 .9165.5092.9165.5092.9165h2.1895c.2184-.0031.4079-.1242.5077-.3025l.0015-.0031c.1202-.2963.2093-.6406.2526-.999l.002-.0193c.2037-2.2914.2037-2.6478.2037-2.6478 0-1.1711-.1018-1.9858-.1528-2.6987zm-15.5303-4.7355c.1528-.2546.3055-.4583.3055-.4583.1558-.1843.3412-.3371.5499-.4532l.0102-.0051c.5601-.2546 2.4441-.2546 2.4441-.2546l2.2914-.0509 2.2914.0509s1.884 0 2.4441.2546c.2317.0983.4221.2556.5571.4537l.0025.0046s.1528.2037.3055.4583c0 0 .7129 1.3239 1.0693 2.0877 0 0-1.1711-.1018-6.6704-.1528-5.4993 0-6.6704.1528-6.6704.1528.3564-.7638 1.0693-2.0877 1.0693-2.0877zm-3.2079 5.7539v.3055l.0509.7638c.0509.611.1018 1.0184.1018 1.0184 0 .2546-.4074.4583-.4074.4583l-.0509-.3564c-.1385-.5851-.2179-1.2567-.2179-1.9466 0-.1752.0051-.3488.0153-.5209l-.001.0239c.0199-.3895.0743-.7556.1609-1.1095l-.0081.0402c.0881-.2612.3264-.4481.61-.4583h.001c.5825.0092 1.1431.083 1.6808.2144l-.0514-.0107c.2434.0575.4517.1833.61.3554l.001.001c.1502.1507.2846.3172.4002.4975l.0071.0117c.1461.224.2984.4909.4364.7663l.0219.0484c-.2037 0-1.1711-.1018-1.1711-.1018l-1.8331-.2037c-.4074-.0509-.3564.2037-.3564.2037v-.0005zm11.8641 4.2772-.6619-.4583h-4.7864l-.6619.4583h-4.9901v-.5601c.0015-.1813.0794-.3442.2032-.4578l.0005-.0005c.1859-.1079.4043-.2108.6314-.2953l.0306-.0102s.3055-.1018.7638-.2037h12.8316c.2821.029.5408.1013.7791.2098l-.0153-.0061c.2577.0947.4761.1976.6838.3172l-.0219-.0117c.1268.085.2088.2276.2088.3895 0 .0244-.002.0484-.0056.0713l.0005-.0025v.5601h-4.9901zm6.1103-2.0368-.0509.3564s-.4074-.2037-.4074-.4583c0 0 .0509-.3564.1018-1.0184l.0509-.7638v-.3055s.0509-.2037-.3564-.2037c-.4583.0509-1.884.2037-1.884.2037s-.9165.1018-1.1711.1018c.1599-.3238.3121-.5907.4781-.8478l-.0199.0331c.1227-.192.2571-.3585.4074-.5092.1594-.1731.3676-.2989.6029-.3549l.0081-.0015c.4863-.1207 1.0469-.1945 1.6233-.2037h.0061c.2846.0102.5229.1971.6095.4537l.0015.0046c.1003.2678.1584.5774.1584.9008 0 .0596-.002.1181-.0056.1767l.0005-.0081c.1018-.0509.1528.9165-.1528 2.4441h-.0005z"/></svg>