<svg id="Default" xmlns="http://www.w3.org/2000/svg" viewBox="0 0 24 24"><path d="M19.42,9.25l.25-.38h.93a.48.48,0,0,0,.4-.43A.49.49,0,0,0,20.51,8H19.43a.42.42,0,0,0-.38.24h0L18.53,9c-.11,0-.21,0-.32,0H18a3.43,3.43,0,0,0-3.75-3H9.81C7.69,6,6.28,7.17,6.06,9H5.8c-.11,0-.21,0-.32,0L5,8.24H5A.42.42,0,0,0,4.57,8H3.49A.49.49,0,0,0,3,8.43a.48.48,0,0,0,.4.43h.93l.25.38C3.54,9.76,3,11,3,13v3.23A.78.78,0,0,0,3.8,17H5.62C6.16,17,7,17,7,16H17c0,1,.85,1,1.4,1h1.82a.78.78,0,0,0,.78-.77V13C21,11,20.47,9.75,19.42,9.25ZM9.81,7h4.4A2.46,2.46,0,0,1,17,9H7.05C7.26,7.74,8.25,7,9.81,7ZM20,16H18.4a2.94,2.94,0,0,1-.4,0V15.5a.5.5,0,0,0-.5-.5H16a1,1,0,0,0-1-1H9a1,1,0,0,0-1,1H6.51a.5.5,0,0,0-.5.5V16a2.87,2.87,0,0,1-.39,0H4V13c0-2.64.91-3,1.79-3H18.21c.88,0,1.79.36,1.79,3Z"/><path d="M18.56,11H17.43A1.43,1.43,0,0,0,16,12.43a.07.07,0,0,0,.07.07h2.74a.2.2,0,0,0,.19-.2v-.64C19,11.1,18.92,11,18.56,11Z"/><path d="M6.58,11H5.45c-.36,0-.43.1-.43.66v.64a.2.2,0,0,0,.2.2H7.94A.07.07,0,0,0,8,12.43,1.43,1.43,0,0,0,6.58,11Z"/></svg>