<svg viewBox="0 0 24 24" xmlns="http://www.w3.org/2000/svg"><path d="m21.7 12.5c-.2-.6-.6-1.1-1.1-1.4 0 0-.5-.2-.5-.2v-.1c.6 0 1.1-.3 1.2-.7 0 0 .1-.3-.5-.5-.3-.1-.6-.1-.9-.1s-.4.2-.4.2c0 .2.1.6.1.6-.1.2-.1.4-.1.4l-.2-.1s-1.5-2.9-1.8-3.2c0 0-.3-.4-.8-.5 0 0-2.1-.3-4.7-.3s-4.9.4-4.7.3c-.4.1-.7.3-.9.6 0 0-.4.5-.7 1.1l-1 2.1-.2.1c-.1-.1-.1-.2-.1-.4s.1-.6.1-.6 0-.2-.4-.2c-.5 0-1.4.1-1.3.6 0 0 .1.6 1.2.7v.1c-.3-.1-.5 0-.6 0-.5.3-1 .9-1.1 1.4 0 0-.2 1.9-.2 2.6 0 .4.1 1.3.2 3.7 0 .4.1.7.3 1 0 0 .2.3.5.3h2.2s.5 0 .5-.9h12.6c0 .9.5.9.5.9h2.1c.2 0 .4-.1.5-.3.1-.3.2-.6.3-1 0 0 .2-3.7.2-3.7 0-1.3-.3-2.5-.3-2.5zm-14.5-4.8c1.3-.6 8.4-.5 9.5 0 .7.3 1.6 2.2 1.9 3 0 0-1.1-.1-6.6-.2-5.5 0-6.8.2-6.8.2.4-.8 1.4-2.8 2-3zm-4.1 6.6.1 1.1c.1.6.1 1 .1 1 0 .3-.4.5-.4.5s-.3-1.5-.3-2.3c0-.7.2-1.6.2-1.6.1-.3.3-.4.6-.5.6 0 1.6.2 1.6.2 1.1.1 1.5 1.7 1.5 1.7-.2 0-3-.3-3-.3-.4 0-.4.2-.4.2zm11.9 4.3-.7-.5h-4.8l-.7.5h-5v-.6c0-.2.1-.3.2-.5.2-.1.8-.4 1.4-.5h12.8c.3 0 1.4.5 1.4.5.1.1.2.2.2.4v.6zm6.1-2-.1.3s-.4-.2-.4-.5c0 0 .2-2.1.2-2.1s.1-.2-.4-.2-2.8.3-3.1.3c.2-.4.5-1.5 1.5-1.7 0 0 .7-.2 1.6-.2 0 0 .5.1.6.5.1.3.2.6.2.9 0 .1-.1 2.7-.1 2.7z"/></svg>