<svg viewBox="0 0 24 24" xmlns="http://www.w3.org/2000/svg"><path d="m14.1 11c.073.355.186.696.33 1.02-1.6493-.18-3.1322 1.011-3.3123 2.6603-.0116.1062-.0175.2129-.0177.3197 0 1.654 1.346 3 3 3s3-1.346 3-3c0-.131-.012-.26-.028-.388.325.137.668.237 1.024.302l.004.086c0 2.2091-1.7908 4-3.9999 4.0001-2.2091 0-4-1.7908-4.0001-3.9999 0-2.1609 1.7161-3.9312 3.876-3.9982zm1.8-7c.7818 0 1.492.4554 1.818 1.166-.3249.0857-.6402.2043-.941.354-.1622-.2974-.4642-.4921-.802-.517l-.075-.003h-12.9c-.5231 0-.9578.4034-.997.925l-.003.075v1h13c-.445.5915-.7524 1.2747-.9 2h-12.1v4c0 .5231.4034.9578.925.997l.075.003h6.2c-.0531.2624-.0852.5285-.096.796l-.004.204h-6.1c-1.0659.0003-1.9447-.8354-1.998-1.9l-.002-.1v-7c-.0003-1.0659.8354-1.9447 1.9-1.998l.1-.002zm3.1 2c2.2091 0 4 1.7909 4 4s-1.7909 4-4 4-4-1.7909-4-4 1.7909-4 4-4zm0 1c-1.654 0-3 1.346-3 3 0 1.655 1.346 3 3 3s3-1.345 3-3c0-1.654-1.346-3-3-3z"/></svg>