<svg xmlns="http://www.w3.org/2000/svg" viewBox="0 0 24 24"><path d="m8,3c3.141,0,3.97.91,4,2.047v5.953h1c1.25,0,2,.75,2,2v6c0,.75.25,1,1,1s1-.25,1-1v-7.5c-1.25-.25-2-1.25-1.989-2.263l-.011-2.737h1v-1.5c0-.2761.2239-.5.5-.5s.5.2239.5.5v1.5h1v-1.5c0-.2761.2239-.5.5-.5.237,0,.5.224.5.5v1.5h1v2.75c0,1.185-.75,2-2,2.25v7.249c0,1.245-.5,2.25-2,2.25-1.458,0-1.972-.95-1.999-2.147l-.003-5.852c-.023-.724-.336-.981-.998-.999h-1v9H4V5.11c0-1.165.8-2.11,4-2.11Zm0,1c-2,0-3,.37-3,1.11v14.89h6V5.06c0-.705-1-1.06-3-1.06Zm11,3.5h-2.996c-.003.667-.004,1.25-.004,1.75,0,.75.5,1.25,1.5,1.25s1.5-.5,1.5-1.25v-1.75Z"/></svg>