<svg id="Default" xmlns="http://www.w3.org/2000/svg" xmlns:xlink="http://www.w3.org/1999/xlink" viewBox="0 0 24 24"><defs><style>.cls-1{fill:none;clip-rule:evenodd;}.cls-2{clip-path:url(#clip-path);}</style><clipPath id="clip-path"><path id="SVGID" class="cls-1" d="M9,8v4h1L7,17V13H6ZM8,4c-2.82,0-3,.71-3,1V20h6V5.11C11,4.81,11,4,8,4ZM8,3c3.2,0,4,.94,4,2.11V11h1.05a2.37,2.37,0,0,1,.95.19,1.89,1.89,0,0,1,1,1.93v5.63C15,19.9,15.5,20,16,20s1-.1,1-1.25V11c-1-.12-2-1-2-3h1V6h1V8h1V6h1V8h1c0,2-1,2.9-2,3v7.75C18,20,17.52,21,16,21s-2-1-2-2.25V13c0-.73-.26-1-.92-1H12v9H4V5.11C4,3.94,4.82,3,8,3Z"/></clipPath></defs><g class="cls-2"><rect x="-0.98" y="-2" width="26" height="28"/></g></svg>