<svg viewBox="0 0 24 24" xmlns="http://www.w3.org/2000/svg"><path d="m19.1185 15.4999c-.1643.8677-1.0009 1.4379-1.8686 1.2736s-1.4379-1.0009-1.2736-1.8686l-3.4432-1.9828v3.9709c.4554.161.8136.5192.9746.9746.2944.8326-.142 1.7462-.9746 2.0406s-1.7462-.142-2.0406-.9746.142-1.7462.9746-2.0406v-3.9709l-3.4432 1.9828c.0887.4751-.0422.9649-.3563 1.3323-.5737.6713-1.5831.7505-2.2544.1767-.6713-.5737-.7505-1.5831-.1767-2.2544s1.5831-.7505 2.2544-.1767l3.4432-1.9828-3.4432-1.9828c-.3674.314-.8572.445-1.3323.3563-.8681-.1621-1.4405-.9972-1.2784-1.8653s.9972-1.4405 1.8653-1.2784 1.4405.9972 1.2784 1.8653l3.4432 1.9828v-3.9709c-.4554-.161-.8136-.5192-.9746-.9746-.2944-.8326.142-1.7462.9746-2.0406s1.7462.142 2.0406.9746-.142 1.7462-.9746 2.0406v3.9709l3.4432-1.9828c-.0887-.4751.0422-.9649.3563-1.3323.5737-.6713 1.5831-.7505 2.2544-.1767.6713.5737.7505 1.5831.1767 2.2544-.5737.6713-1.5831.7505-2.2544.1767l-3.4432 1.9828 3.4432 1.9828c.5128-.4359 1.2436-.5041 1.8282-.1706.5943.3378.9082 1.016.781 1.6877z"/></svg>