<svg viewBox="0 0 24 24" xmlns="http://www.w3.org/2000/svg"><path d="m17 19.999v1.001h-14.5v-1.001zm-12.75-16.499 2.25 2.5h-1.689c.332 2.236 1.46 3.368 1.46 5.95 0 2.58-1.5 4.553-1.5 6.55h-1c0-2.25 1.5-4.273 1.5-6.55s-1.292-3.837-1.476-5.95h-1.795zm5.5 0 2.25 2.5h-1.689c.332 2.236 1.46 3.368 1.46 5.95 0 2.58-1.5 4.553-1.5 6.55h-1c0-2.25 1.5-4.273 1.5-6.55s-1.292-3.837-1.476-5.95h-1.795zm6.75-.5v1.984l1.205-.696.5.866-1.205.696 2.5 1.4v-1.25h1v1.25l1.962-1.058.5.866-1.935 1.117 1.205.696-.5.866-1.205-.696v2.918l1.205-.696.5.867-1.205.695 1.935 1.117-.5.866-1.935-1.117-.027 1.309h-1l.027-1.309-2.527 1.459 1.205.695-.5.867-1.205-.696v1.984h-1v-1.984l-1.205.696-.5-.867 1.205-.695-1.85-1.023.35-.998 2.5 1.444 3.527-2.037v-4.071l-3.527-2.038-2.5 1.445-.35-.977 1.85-1.045-1.205-.696.5-.866 1.205.696v-1.984z"/></svg>