<svg viewBox="0 0 24 24" xmlns="http://www.w3.org/2000/svg"><path d="m11.5005 2c1.3388-.0002 2.4402 1.0544 2.498 2.392l.002 1.608h2v1h-2v2h2v1h-2v3h2v1h-2v2.051c1.3525 1.381 1.3295 3.5969-.0515 4.9495-1.381 1.3525-3.5969 1.3295-4.9495-.0515-1.3327-1.3607-1.3327-3.5373 0-4.898l.003-11.66c.0584-1.3372 1.1595-2.3912 2.498-2.391zm0 1c-.75 0-1.5.5-1.5 1.5v12c-1.1046.8284-1.3284 2.3954-.5 3.5s2.3954 1.3284 3.5.5 1.3284-2.3954.5-3.5c-.1421-.1895-.3105-.3579-.5-.5v-12c0-1-.75-1.5-1.5-1.5zm.5 7.5v6.585c.781.2761 1.1904 1.1332.9142 1.9142-.2761.781-1.1332 1.1904-1.9142.9142-.781-.2761-1.1904-1.1332-.9142-1.9142.151-.4272.487-.7632.9142-.9142v-6.585z"/></svg>