<svg viewBox="0 0 24 24" xmlns="http://www.w3.org/2000/svg"><path d="m15.4908 5.9967c2.4861 0 4.5014 2.0152 4.5014 4.5011 0 .6952-.163 1.3513-.4441 1.9395.8963.5426 1.4441 1.5139 1.4445 2.5616 0 1.6133-1.2756 2.938-2.8879 2.9987l-.113.002h-12.0039c-1.6574-.0032-2.9984-1.3493-2.9952-3.0065.0025-1.2918.8315-2.437 2.0579-2.8429-.3579-1.9001.8923-3.7305 2.7925-4.0884.216-.0407.433-.0606.6483-.0606 1.0218 0 2.006.448 2.6781 1.2463.5565-1.9245 2.318-3.2495 4.3214-3.2508m0-1h-.0006c-1.9378.0013-3.7095 1.0372-4.6923 2.6396-.689-.4116-1.4832-.635-2.3066-.635-.2787 0-.5591.0262-.8334.0779-1.1815.2225-2.2057.8918-2.8837 1.8846-.5251.7688-.7941 1.6604-.7853 2.5722-1.217.703-1.9935 2.0081-1.9963 3.4553-.0021 1.0687.4122 2.0742 1.1664 2.8313s1.7581 1.1752 2.8268 1.1772h12.0058l.1307-.0022c2.1791-.0819 3.8703-1.8381 3.8702-3.9986-.0004-1.0984-.4623-2.147-1.2431-2.8933.1613-.5212.2428-1.0593.2428-1.6078 0-3.0333-2.4679-5.5011-5.5014-5.5011z"/></svg>