<svg id="Default" xmlns="http://www.w3.org/2000/svg" viewBox="0 0 24 24"><path d="M6.68,7.45C8,7.45,8.37,8,8.45,9.78H10C9.89,7.18,9.39,6,6.68,6S3,7.13,3,11s.77,5,3.68,5c2.41,0,3.21-1.06,3.32-3.68H8.46c-.09,1.81-.42,2.39-1.78,2.39-1.68,0-2-.53-2-3.76C4.67,8.06,5,7.45,6.68,7.45Z"/><path d="M14.68,6C11.87,6,11,7.13,11,11s.77,5,3.68,5,3.67-1.26,3.67-5S17.48,6,14.68,6Zm0,8.71c-1.68,0-2-.53-2-3.76,0-2.89.33-3.5,2-3.5s2,.61,2,3.5C16.68,14.18,16.35,14.71,14.68,14.71Z"/><path d="M19.61,18.53l.51-.32A1.55,1.55,0,0,0,21,16.8c0-.86-.39-1.39-1.49-1.39S18,16,18,16.91h.84c0-.57.19-.71.66-.71s.63.15.63.6-.27.71-.65.95l-.52.32a1.56,1.56,0,0,0-.89,1.43V20h2.87v-.7h-2C18.93,19,19.17,18.81,19.61,18.53Z"/></svg>