<svg viewBox="0 0 24 24" xmlns="http://www.w3.org/2000/svg"><path d="m6.68 6.45c1.32 0 1.69.55 1.77 2.33h1.55c-.11-2.6-.61-3.78-3.32-3.78s-3.68 1.13-3.68 5 .77 5 3.68 5c2.41 0 3.21-1.06 3.32-3.68h-1.54c-.09 1.81-.42 2.39-1.78 2.39-1.68 0-2-.53-2-3.76-.01-2.89.32-3.5 2-3.5zm8-1.45c-2.81 0-3.68 1.13-3.68 5s.77 5 3.68 5 3.67-1.26 3.67-5-.87-5-3.67-5zm0 8.71c-1.68 0-2-.53-2-3.76 0-2.89.33-3.5 2-3.5s2 .61 2 3.5c0 3.23-.33 3.76-2 3.76zm4.93 3.82.51-.32c.5418-.2597.8848-.8092.88-1.41 0-.86-.39-1.39-1.49-1.39s-1.51.59-1.51 1.5h.84c0-.57.19-.71.66-.71s.63.15.63.6-.27.71-.65.95l-.52.32c-.5506.2618-.8983.8204-.89 1.43v.5h2.87v-.7h-2c-.01-.3.23-.49.67-.77z"/></svg>