<svg xmlns="http://www.w3.org/2000/svg" viewBox="0 0 24 24"><path d="m11.5648,4l1.8,1.5-1.8,1.5h-7.5648v-3h7.5648m.0593-1H3.5c-.2761,0-.5.1548-.5.5v4c0,.3452.2239.5.5.5h8.124c.1974,0,.3904-.0731.5547-.2099l2.124-1.7701c.2969-.2474.2969-.7927,0-1.04l-2.124-1.7701c-.1643-.1369-.3573-.2099-.5547-.2099h0Zm3.5393,7.5l1.8,1.5-1.8,1.5H4v-3h11.1634m.0593-1H3.5c-.2761,0-.5.1548-.5.5v4c0,.3452.2239.5.5.5h11.7226c.1974,0,.3904-.0731.5547-.2099l2.124-1.7701c.2969-.2474.2969-.7927,0-1.04l-2.124-1.7701c-.1643-.1369-.3573-.2099-.5547-.2099h0Zm3.0393,7.5l1.8,1.5-1.8,1.5H4v-3h14.262m.0593-1H3.5c-.2761,0-.5.1548-.5.5v4c0,.3452.2239.5.5.5h14.8213c.1974,0,.3904-.0731.5547-.2099l2.124-1.7701c.2969-.2474.2969-.7927,0-1.04l-2.124-1.7701c-.1643-.1369-.3573-.2099-.5547-.2099h0Z"/></svg>