<svg viewBox="0 0 24 24" xmlns="http://www.w3.org/2000/svg"><path d="m12 10.05c2.5 0 5.5 1.15 8.35 2.3.3.1.6.25.9.35.2.2.6.7.7.95v.55c0 .05-.05.15-.05.2l-1.5.3-.55.1-.2.5c-.2.45-.65.75-1.15.75-.4 0-.8-.2-1.05-.55l-.3-.45h-10.05l-.3.45c-.25.35-.6.55-1.05.55s-.85-.2-1.05-.6l-.25-.4-.5-.05s-1.1-.1-1.75-.15c-.1-.1-.15-.3-.2-.6.2-.4 1.25-1.75 5.85-2.2h.2l.2-.1c.25-.15.55-.3.8-.45 1-.65 2.35-1.45 2.95-1.45m0-1c-1.05 0-2.7 1.1-4.25 2-5.25.5-6.5 2.25-6.75 3 0 .7.2 1.25.5 1.5.1.1.3.25.45.25.6.05 1.9.15 1.9.15.4.65 1.1 1.05 1.9 1.05s1.45-.4 1.9-1h9c.4.6 1.1 1 1.85 1 .95 0 1.75-.6 2.1-1.4l1.9-.35c.2-.25.45-.55.5-1v-.75c0-.5-1-1.65-1.25-1.75-3.25-1.2-6.75-2.7-9.75-2.7z"/></svg>