<svg viewBox="0 0 24 24" xmlns="http://www.w3.org/2000/svg"><path d="m16.74 5-.72.71 3.46 3.68.72-.71zm-2.3 6.41 1.44 1.58 2.88-2.84-3.46-3.73-2.89 2.83 1.34 1.42-2.15 2-2.14-2 1.33-1.42-2.88-2.83-3.47 3.68 2.89 2.89 1.43-1.53 2.09 1.89-3.12 2.77c-.758-.3344-1.6435.009-1.9778.767-.3344.758.009 1.6434.767 1.9778s1.6435-.009 1.9778-.767c.0513-.1162.0876-.2385.108-.3638.0484-.3091-.0023-.6256-.145-.904l3.17-2.84 3.15 2.85c-.3723.7339-.0791 1.6306.6547 2.0029.5783.2934 1.28.179 1.7353-.2829.5845-.5871.5824-1.5368-.0047-2.1213-.4384-.4364-1.0996-.559-1.6653-.3087l-3.11-2.82zm.83-3.56 2.09 2.22-1.46 1.44-2.09-2.23zm-8 3.66-1.43-1.44 2.1-2.22 1.45 1.43zm-.8-6.51-3.47 3.68.72.71 3.47-3.68z"/></svg>