<svg viewBox="0 0 24 24" xmlns="http://www.w3.org/2000/svg"><path d="m18.05 13.51c1.18 0 2.02-.57 2.02-1.65 0-.47-.3-.94-.74-1.28.2-.24.34-.57.34-.84 0-.54-.4-.97-.77-1.24.1-.2.17-.47.17-.77 0-.61-.4-1.14-1.04-1.38.03-.1.03-.24.03-.37 0-.71-.74-1.51-1.75-1.51h-4.81c-.64 0-1.21.27-1.75.54-.26.14-.52.26-.78.35-.04-.53-.46-.92-1-.92h-3.02c-.57 0-1.01.44-1.01 1.01v7.06c0 .57.44 1.01 1.01 1.01h3.02c.41 0 .75-.22.91-.56 1.02.82 2.15 1.94 2.62 3.21l.5 2.72c.03.13.1.27.24.34.47.3.81.34 1.28.34.71 0 1.51-.61 1.51-3.53 0-.74-.13-1.61-.37-2.52h3.39zm-9.07-1.75v-5.34c.44-.1.84-.3 1.24-.5.44-.24.91-.44 1.28-.44h4.81c.4 0 .74.2.74.5 0 .23-.03.39-.06.52-.03.16-.05.26.02.39.05.07.18.12.33.18.27.1.61.23.67.56v.1c0 .3-.09.48-.16.64-.08.16-.14.29-.07.47.04.12.18.19.33.27.25.13.54.28.54.67 0 .32-.14.51-.26.67-.1.14-.19.25-.14.41.04.11.16.19.29.29.22.15.48.33.48.72s-.47.64-.97.64h-4.54c-.27 0-.5.24-.5.5s.24.5.5.5h.13c.27.94.4 1.78.4 2.52 0 1.92-.4 2.52-.5 2.52-.27 0-.4 0-.57-.07l-.47-2.52s-.03-.03-.03-.07c-.64-1.75-2.25-3.19-3.49-4.13zm-4.04-6.31v7.06h3.02v-7.06z" fill="#010205" fill-rule="evenodd"/></svg>