<svg xmlns="http://www.w3.org/2000/svg" viewBox="0 0 24 24">
<path d="m20.7778 7.5-1.2657 6.2651c-.3202 1.5847-1.741 2.7349-3.3779 2.7349l-13.1332-.0012-.001-2.3284c-.0004-1.2952.7279-2.4604 1.9004-3.041l6.6036-3.2686c.4775-.2361 1.0116-.3608 1.5446-.3608zm1.2222-1h-8.9514c-.6899 0-1.3704.1592-1.9877.4644l-6.6041 3.2688c-1.5063.7458-2.4573 2.2703-2.4568 3.9375l.0013 3.3281 14.1327.0012c2.1187 0 3.9427-1.4807 4.3583-3.5369zm-3.3241 6.0161.8228-4.01-6.1451.0007c-.4462 0-.8933.1132-1.2925.3072 0 0-7.5611 3.6921-7.5611 3.7028z"/>
</svg>