<svg viewBox="0 0 24 24" xmlns="http://www.w3.org/2000/svg"><path d="m12.494 3c4.6944.0003 8.4997 3.8062 8.4994 8.5006s-3.8062 8.4997-8.5006 8.4994c-2.6159-.0002-5.086-1.2048-6.6968-3.266l-1.302 1.301v-3.535h3.536l-1.521 1.52c2.497 3.3049 7.2003 3.9598 10.5052 1.4628s3.9598-7.2003 1.4628-10.5052c-1.5853-2.0982-4.1538-3.2129-6.7691-2.9376l-.104-.994c.292-.03.59-.046.89-.046zm.5 3.5v4.793l3.354 3.353-.707.707-3.5-3.5c-.0778-.0779-.128-.179-.143-.288l-.004-.065.004-5zm-8.976 4.363.996.09c-.009.12-.014.426-.014.65v.148c0 .042 0 .074.002.093l-1 .028c-.0011-.0307-.0018-.0613-.002-.092v-.149c0-.254.007-.623.018-.768zm1.286-3.898.839.544c-.141.224-.271.457-.388.696l-.892-.454c.133-.27.28-.533.44-.786zm2.913-2.812.496.868c-.2407.1409-.4734.2952-.697.462l-.589-.808c.2534-.1885.5172-.3628.79-.522z"/></svg>