<svg xmlns="http://www.w3.org/2000/svg" viewBox="0 0 24 24"><path d="m12,3c-3.5576,0-6.4512,2.9478-6.4512,6.5713v7.8389c0,1.9795,1.5596,3.5898,3.4756,3.5898,1.3408,0,2.4443-.5796,3.2783-1.7231.1543-.2109.3438-.5405.5674-.9321.5742-1.0093,1.3613-2.3911,2.3799-3.0972,2.0342-1.4092,3.2012-3.4785,3.2012-5.6763,0-3.6235-2.8936-6.5713-6.4512-6.5713Zm2.6797,11.4258v.0005c-1.2041.835-2.0918,2.3926-2.6787,3.4233-.2002.3511-.3672.6479-.5059.8374-.4111.5635-1.1152,1.313-2.4707,1.313-1.3652,0-2.4756-1.1616-2.4756-2.5898v-7.8389c0-3.0718,2.4453-5.5713,5.4512-5.5713s5.4512,2.4995,5.4512,5.5713c0,2.5537-1.7363,4.1377-2.7715,4.8545Zm1.3906-5.1577c0,.2764-.2236.5-.5.5s-.5-.2236-.5-.5c0-1.5654-1.377-2.8394-3.0703-2.8394s-3.0703,1.2739-3.0703,2.8394v1.3013c1.0462-.3427,2.3168-.2916,2.4971-.2828h.002c.5996,0,1.1709.3501,1.4639.9136.2998.5757.2539,1.2627-.1182,1.793-.5674.6689-1.374,1.748-1.4814,2.167-.0586.2256-.2617.3755-.4844.3755-.041,0-.083-.0049-.125-.0156-.2666-.0688-.4277-.3418-.3594-.6089.2041-.7925,1.4189-2.2466,1.6602-2.5298.1309-.1899.1494-.4731.0215-.7202-.123-.2349-.3496-.3755-.6074-.3755-.493-.028-1.7579-.0006-2.4688.3566v2.179c0,.2764-.2236.5-.5.5s-.5-.2236-.5-.5v-4.5532c0-2.1172,1.8262-3.8394,4.0703-3.8394s4.0703,1.7222,4.0703,3.8394Z"/></svg>