<?xml version="1.0" encoding="utf-8"?>
<!-- Generator: Adobe Illustrator 28.1.0, SVG Export Plug-In . SVG Version: 6.00 Build 0)  -->
<svg version="1.1" id="Layer_1" xmlns="http://www.w3.org/2000/svg" xmlns:xlink="http://www.w3.org/1999/xlink" x="0px" y="0px"
	 viewBox="0 0 24 24" style="enable-background:new 0 0 24 24;" xml:space="preserve">
<style type="text/css">
	.st0{fill:#030104;}
</style>
<path d="M13,2H7C5.9,2,5,2.9,5,4v16c0,1.1,0.9,2,2,2h10c1.1,0,2-0.9,2-2V8L13,2z M13,3.4L17.6,8H13V3.4z M6,20V4c0-0.6,0.4-1,1-1h5
	v6h6v11c0,0.6-0.4,1-1,1H7C6.4,21,6,20.6,6,20"/>
<g>
	<path class="st0" d="M16.3,11.4h-3.3v1.1h1.1v0.7h-1.1v0.7h1.1v0.7h-1.1v0.7h1.1v0.7h-1.1v0.7h1.1v0.7h-1.1v1.1h3.3
		c0.2,0,0.3-0.1,0.3-0.3v-6.5C16.6,11.6,16.5,11.4,16.3,11.4z M15.9,17.5h-1.4v-0.7h1.4V17.5z M15.9,16.1h-1.4v-0.7h1.4V16.1z
		 M15.9,14.6h-1.4v-0.7h1.4V14.6z M15.9,13.2h-1.4v-0.7h1.4V13.2z"/>
	<path class="st0" d="M7.4,11.4v7.2l5.3,1v-9.2L7.4,11.4z M10.8,16.8l-0.6-1.2c0,0,0-0.1-0.1-0.2h0c0,0.1,0,0.1-0.1,0.3l-0.6,1.2h-1
		L9.5,15l-1.1-1.8h1l0.5,1.1c0,0.1,0.1,0.2,0.1,0.3h0c0-0.1,0.1-0.2,0.1-0.3l0.6-1.1h0.9L10.6,15l1.1,1.8L10.8,16.8L10.8,16.8z"/>
</g>
</svg>
