<svg enable-background="new 0 0 24 24" viewBox="0 0 24 24" xmlns="http://www.w3.org/2000/svg"><path d="m13 2h-6c-1.1 0-2 .9-2 2v16c0 1.1.9 2 2 2h10c1.1 0 2-.9 2-2v-12zm0 1.4 4.6 4.6h-4.6zm-7 16.6v-16c0-.6.4-1 1-1h5v6h6v11c0 .6-.4 1-1 1h-10c-.6 0-1-.4-1-1"/><path d="m7.1 17.7c0-1.6.4-2.1 1.6-2.1s1.4.5 1.4 1.6h-.7c0-.8-.2-1-.8-1-.7 0-.9.3-.9 1.5 0 1.4.1 1.6.9 1.6.6 0 .7-.3.8-1h.7c0 1.1-.4 1.6-1.4 1.6-1.3-0-1.6-.6-1.6-2.2z"/><path d="m11.2 18.5c0 .6.2.8.7.8s.7-.2.7-.6-.2-.5-.7-.6l-.2-.1c-.7-.2-1.1-.4-1.1-1.2 0-.7.4-1.2 1.3-1.2 1 0 1.3.5 1.4 1.4h-.7c0-.6-.2-.8-.7-.8-.4 0-.7.2-.7.6s.2.5.7.6l.3.1c.7.2 1.1.5 1.1 1.2s-.4 1.2-1.4 1.2-1.3-.4-1.4-1.3h.7z"/><path d="m13.5 15.6h.7l1 3.4 1-3.4h.6l-1.2 4.2h-.8z"/></svg>