<svg viewBox="0 0 24 24" xmlns="http://www.w3.org/2000/svg"><path d="m21 4c.5 0 1 .5.997 1l.003 15h-1v-15h-18v15h-1v-15c0-.5.5-1 1-1zm-1 2v1h-16v-1zm-11.7813 3.8726c.3131-.0658 1.9317-.2618 3.7817-.2618s3.4686.196 3.7817.2618c.5409.1129 1.0362 1.5909 1.1255 1.7925.0353.0783.1101.241.1939.4093.0568-.1018.1344-.1385.2493-.1745.1531-.0485.7986.1004.9496.1572s.142.106.1468.1759c.0048.0706-.0568.2327-.0838.2764-.027.0436-.0713.0935-.1822.1448-.1586.0727-.3394.0568-.3394.0568.2383.0589.5112.1364.6511.2182.3553.2071.7847.7771.8734 1.2232.0893.446.1337 3.6397.1337 3.7727s-.0367 1.1394-.1087 1.6242c-.0665.453-.6275.4509-.6275.4509h-1.4178c-.4696 0-.5021-.4467-.5021-.4467s-.0485-.3733-.0977-.5645c-.0201-.079-.0769-.1295-.1614-.16-.5832-.2078-1.5709-.214-1.5709-.214h-6.0272s-.9877.0062-1.5715.2147c-.0845.0298-.1413.081-.1614.16-.0492.1912-.0977.5645-.0977.5645s-.0319.446-.5015.446h-1.4178s-.561.0021-.6282-.4516c-.072-.4848-.1087-1.4919-.1087-1.6242s.045-3.3259.1337-3.7727c.0893-.446.5181-1.0161.8734-1.2232.1399-.0817.4128-.1593.6511-.2182 0 0-.1808.0159-.3394-.0568-.1115-.0513-.1551-.1011-.1822-.1448s-.0893-.2064-.0838-.2764c.0048-.07-.0042-.1198.1468-.1759.151-.0568.7958-.2057.9496-.1572.115.0367.1932.0734.2493.1745.0838-.1683.1586-.3311.1939-.4093.09-.2009.5853-1.6789 1.1262-1.7918zm3.7817 3.4395c-4.7929-.0097-6.2259.2071-6.5321.2673-.0492.0097-.0741.0533-.079.1067-.0083.088-.0097.2334.0035.3061.0062.0339.0353.063.1164.0623 0 0 3.301-.1087 6.4912-.0942 3.1902-.0139 6.4912.0942 6.4912.0942.081.0014.1101-.0284.1164-.0623.0132-.0727.0111-.2182.0035-.3061-.0048-.0533-.0298-.097-.079-.1067-.3061-.0603-1.7392-.277-6.5321-.2673zm-4.0442-2.3459s.063.784.1177 1.1968c.0111.0817.0235.2507.3311.2528.3664.0021 3.0988-.0346 3.5954-.0346s3.229.0367 3.5954.0346c.3075-.0021.32-.1711.3311-.2528.0547-.4128.1177-1.1968.1177-1.1968.0111-.1302-.1115-.2299-.2944-.2819-.6497-.1856-2.2081-.2708-3.7498-.2646-1.5418-.0062-3.1002.079-3.7498.2646-.1829.0519-.3054.1517-.2944.2819z"/></svg>