<svg viewBox="0 0 24 24" xmlns="http://www.w3.org/2000/svg"><path d="m15.6465 9.6465.707.707-5.3535 5.3535-3.3535-3.3535.707-.707 2.6465 2.6465zm3.5411 5.8323.1405 3.0673-3.0562.2975-1.5401 2.6564-2.7318-1.402-2.7318 1.402-1.5401-2.6564-3.0562-.2975.1405-3.0673-2.4102-1.9025 1.7766-2.5045-.999-2.9035 2.8485-1.1464.7294-2.9827 3.0161.5756 2.2261-2.1149 2.2261 2.1149 3.0161-.5756.7294 2.9827 2.8485 1.1464-.999 2.9035 1.7766 2.5045-2.4102 1.9025zm-1.0225-.4669 2.0673-1.6319-1.5238-2.1482.8568-2.4905-2.4433-.9833-.6256-2.5584-2.587.4938-1.9095-1.814-1.9095 1.814-2.587-.4938-.6256 2.5584-2.4433.9833.8568 2.4905-1.5238 2.1482 2.0673 1.6319-.1205 2.631 2.6214.2551 1.321 2.2785 2.3432-1.2026 2.3432 1.2026 1.321-2.2785 2.6214-.2551z"/></svg>