<svg viewBox="0 0 24 24" xmlns="http://www.w3.org/2000/svg"><path d="m12 5.5c1.1046 0 2 .8954 2 2s-.8954 2-2 2-2-.8954-2-2 .8954-2 2-2zm0-2.5c2.4813 0 4.5 2.243 4.5 5 0 2.5402-2.79 6.4232-4.5 8.4759-1.71-2.0527-4.5-5.9357-4.5-8.4759 0-2.757 2.0187-5 4.5-5m0-1c-3.094 0-5.5 2.728-5.5 6 0 4 5.5 10 5.5 10s5.5-6 5.5-10c0-3.272-2.406-6-5.5-6zm4.2758 12.5c-.1943.3165-.3918.6256-.5908.924 3.2943.55 5.315 1.7603 5.315 2.6348 0 1.1656-3.5895 2.9277-9 2.9277s-9-1.7622-9-2.9277c0-.8745 2.0208-2.0848 5.3151-2.6348-.199-.2985-.3965-.6075-.5908-.924-3.3808.6322-5.7242 1.986-5.7242 3.5588 0 2.1767 4.4772 3.9412 10 3.9412s10-1.7645 10-3.9412c0-1.5728-2.3434-2.9266-5.7242-3.5588zm-1.2758 2c-.2391.328-.4581.6359-.6786.9193 1.4536.1694 2.4652.4719 2.9446.7246-.7039.3711-2.5307.8567-5.266.8567s-4.5621-.4856-5.266-.8567c.4794-.2527 1.4911-.5552 2.9446-.7246-.2205-.2834-.4396-.5913-.6786-.9193-2.0717.3103-3.5.9295-3.5 1.6439 0 1.0251 2.9102 1.8561 6.5 1.8561s6.5-.831 6.5-1.8561c0-.7144-1.4283-1.3336-3.5-1.6439z"/></svg>