<svg viewBox="0 0 24 24" xmlns="http://www.w3.org/2000/svg"><path d="m12.5 3c-4.6944 0-8.5 3.8055-8.5 8.5s3.8056 8.5 8.5 8.5 8.5-3.8056 8.5-8.5-3.8056-8.5-8.5-8.5zm6.876 5.5h-3.06c-.159-1.253-.416-2.391-.752-3.343-.073-.208-.151-.41-.234-.605 1.8104.7402 3.2616 2.1562 4.046 3.948zm-3.96 5h-5.832c-.0562-.6652-.0842-1.3325-.084-2 0-.689.029-1.359.084-2h5.832c.113 1.3309.113 2.6691 0 4zm-4.424-9.348c.9954-.2034 2.0216-.2034 3.017 0h.001c.591.977 1.054 2.51 1.299 4.348h-5.617c.245-1.837.708-3.371 1.3-4.348zm-1.3223.4006s.0002-.0004.0002-.0006h.001s-.0009.0004-.0013.0006c-.0829.1948-.1608.3965-.2338.6044-.336.953-.593 2.09-.752 3.343h-3.06c.7844-1.7916 2.2354-3.2072 4.0457-3.9474zm-4.6697 6.9474c-.0004-.6758.0904-1.3485.27-2h3.31c-.1082 1.3311-.1082 2.6688 0 4h-3.31c-.176-.637-.27-1.307-.27-2zm.624 3h3.06c.159 1.253.416 2.391.752 3.343.0715.2042.1495.4059.234.605-1.8104-.7402-3.2616-2.1562-4.046-3.948zm8.384 4.348c-.9954.2033-2.0216.2033-3.017 0-.591-.977-1.054-2.5099-1.299-4.348h5.616c-.245 1.837-.708 3.371-1.3 4.348zm1.322-.4c.083-.195.161-.397.234-.605.336-.9529.593-2.09.752-3.343h3.06c-.7844 1.7917-2.2355 3.2078-4.046 3.948zm1.09-4.948c.1082-1.3312.1082-2.6689 0-4h3.31c.176.637.27 1.307.27 2s-.094 1.363-.27 2z"/></svg>