<svg xmlns="http://www.w3.org/2000/svg" viewBox="0 0 24 24"><path d="m18,9.4212c0-.8693-.6013-1.4187-1.313-1.4187h-.2328c-.1036,0-.205.0166-.3046.041v-1.6242c0-.8693-.6013-1.4187-1.313-1.4187h-.3049c-.1035,0-.2049.0166-.3045.041v-1.6175c0-.8693-.6013-1.4187-1.313-1.4187h-.3653c-.5743,0-1.1179.3852-1.2643,1.0561-.1112-.0358-.2257-.0611-.3449-.0611h-.2869c-.6481.0004-1.1829.5025-1.2777,1.1826l-.8242,8.3906-.4524-1.4431c-.1079-.583-.4194-1.0878-.8809-1.4161-.3385-.2432-.7276-.3709-1.1418-.3709-.1477,0-.2986.0162-.4515.0493-.2069.0441-.3905.1795-.5032.3708-.1137.1925-.1495.4287-.0983.6508l1.7754,5.4177c.1137.4893.3489.9362.6802,1.2929l.9292,1.0004.2799,2.88h8.2969l-.0004-1.0003h-.0001v-.0103c0-.3678.2077-1.3602.4077-2.32.2759-1.3193.5883-2.8132.5906-3.6714h.0014l.0164-4.5821Zm-1.5856,8.0484c-.2302,1.1019-.4291,2.0538-.4291,2.5251v.0103h-6.3915l-.1921-1.9767c-.0212-.2184-.1136-.4237-.2628-.5844l-.9292-1.0003c-.2128-.2291-.3645-.5191-.4388-.8384-.0066-.0287-.0146-.0571-.0238-.0852l-1.6962-5.176c.0084-.0002.0166-.0003.0249-.0003.202,0,.3903.0617.5635.1861.2469.1756.4164.4537.4773.7829.0074.0397.0171.0788.0292.1173l.4524,1.4431c.1318.4203.5203.7007.9523.7007.0342,0,.0687-.0018.1034-.0054.4721-.0489.8447-.4239.8911-.897l.8194-8.3502c.0259-.1857.1475-.3206.2886-.3206h.2869c.1134,0,.2941.1791.2941.391l-.0016,6.6063h.0037c.0031.2736.2244.4947.4983.4947.2758,0,.4994-.2239.4994-.5001h-.0026l.011-7.5685c0-.3883.2349-.4185.307-.4185h.3653c.2837,0,.3143.2926.3143.4185l.0021,7.5785c0,.2762.2236.5001.4994.5001s.4994-.2239.4994-.5001c0,0-.0021-4.592-.0021-4.598,0-.3223.2336-.4037.3045-.4037h.3049c.2837,0,.3143.2926.3143.4185l-.0031,5.583c0,.2762.2235.5001.4994.5001s.4994-.2239.4994-.5001c0,0,.003-2.5895.0031-2.5954.0072-.3713.2337-.404.3046-.404h.2328c.2837,0,.2979.2926.2979.4185v4.5719h-.001c0,.7531-.3023,2.1998-.5696,3.4765Z"/></svg>