<svg xmlns="http://www.w3.org/2000/svg" viewBox="0 0 24 24">
<path d="m15.825,5c2.0607,0,3.675,1.5688,3.675,3.5714,0,.8327,0,1.7765-2.0066,3.8987l-5.4934,6.0432-5.5067-6.0576c-1.9933-2.1079-1.9933-3.0517-1.9933-3.8843,0-2.0027,1.6145-3.5714,3.6755-3.5714,1.1946,0,2.3171.5903,3.0028,1.579l.8217,1.1849.8217-1.1849c.6858-.9889,1.8084-1.5791,3.0032-1.579h0m0-1c-1.5238-.0002-2.9517.7498-3.825,2.0091-.8732-1.2591-2.3009-2.0091-3.8245-2.0091h-.0005c-2.582,0-4.675,1.9678-4.675,4.5714,0,1.0543.0589,2.2367,2.2667,4.5714l6.2333,6.8571,6.2333-6.8571c2.2077-2.3347,2.2667-3.5172,2.2667-4.5714,0-2.6037-2.093-4.5714-4.675-4.5714h0Z"/>
</svg>