<svg viewBox="0 0 24 24" xmlns="http://www.w3.org/2000/svg"><path d="m15.825 5c2.0608 0 3.675 1.5687 3.675 3.5714 0 .8328 0 1.7765-2.0067 3.8988l-5.4933 6.0431-5.5067-6.0576c-1.9933-2.1078-1.9933-3.0515-1.9933-3.8843 0-2.0027 1.6144-3.5714 3.6754-3.5714 1.1946 0 2.3171.5903 3.0028 1.579l.8218 1.1849.8218-1.1849c.6857-.9888 1.8083-1.5791 3.0031-1.579zm0-1c-1.5238-.0001-2.9517.7499-3.825 2.0092-.8733-1.2592-2.3009-2.0092-3.8246-2.0092h-.0004c-2.582 0-4.675 1.9678-4.675 4.5714 0 1.0543.059 2.2368 2.2667 4.5714l6.2333 6.8572 6.2333-6.8572c2.2078-2.3346 2.2667-3.5171 2.2667-4.5714 0-2.6036-2.093-4.5714-4.675-4.5714z"/></svg>