<svg viewBox="0 0 24 24" xmlns="http://www.w3.org/2000/svg"><path d="m15.5 5.36c-1.68-.88-3.62-1.1-5.45-.6s-3.4 1.66-4.4 3.27-1.36 3.53-1 5.39c.29 1.48 1.01 2.83 2.06 3.88v-1.81h1v3.5h-3.5v-1h1.78c-1.19-1.19-2-2.72-2.32-4.39-.41-2.11 0-4.29 1.13-6.11 1.14-1.82 2.92-3.15 4.99-3.71s4.28-.32 6.18.68 3.35 2.68 4.06 4.7.63 4.24-.23 6.21-2.43 3.54-4.39 4.4c-1.86.81-3.95.93-5.88.34v-1.05c1.79.63 3.75.55 5.48-.2 1.74-.76 3.12-2.14 3.88-3.88s.83-3.69.2-5.48-1.91-3.27-3.58-4.15zm-3.99 1.14v5.71l2.79 2.79.71-.71-2.5-2.5v-5.29z"/></svg>