<svg viewBox="0 0 24 24" xmlns="http://www.w3.org/2000/svg"><path d="m4 6h16c.5 0 1 .5 1 1v10c0 .5-.5 1-1 1l-16-.0029c-.425.0029-1-.4971-1-.9971v-10c0-.5.5-1 1-1m13.5 5c.8284 0 1.5-.6716 1.5-1.5s-.6716-1.5-1.5-1.5-1.5.6716-1.5 1.5.6716 1.5 1.5 1.5m-13.5 1.7961 2.8889-2.405 6.0114 6.6089h1.3578l-2.0211-2.2273 1.6536-1.3765 3.2781 3.6038h1.3643l-4.533-4.9949-2.4351 2.0271-4.5665-5.0322-2.9983 2.4961v1.3m.0001-7.7961s.9999 0-.0001 0-2 1.1499-1.9941 2c0 0-.0059 8.9995-.0059 9.9998s.9249 2.0002 2 2.0002h15.9999c1.0001 0 2.0001-1 2.0001-2v-9.9998c0-1.0002-1-2.0002-2-2.0002h-16zm13.4999 5c-.2758 0-.5-.2244-.5-.5s.2242-.5.5-.5.5.2244.5.5-.2242.5-.5.5z"/></svg>