<svg viewBox="0 0 24 24" xmlns="http://www.w3.org/2000/svg"><path d="m19 9c1.476 0 2 .4532 2 3s-.524 3-2 3c-4.0585 0-7.5-3-7.5-3s3.4171-3 7.5-3m0-1c-4.5 0-8 3-8 3h-9v2h9s3.5 3 8 3c2.5 0 3-1.5 3-4s-.5-4-3-4zm-.2383 1.5763c-.0492 0-.0992.0073-.1487.0225-.2487.0754-.3961.3309-.337.584.2993 1.1928.2993 2.4412 0 3.634-.0587.2532.0885.5087.337.585.0109.0033.0218.0062.0329.0088.0384.0089.0768.0132.1146.0132.2302 0 .4384-.1581.4925-.3919.3302-1.3342.3302-2.7288 0-4.063-.0028-.0124-.0061-.0247-.0099-.0369-.0668-.2165-.2661-.3556-.4814-.3556z"/></svg>