<svg xmlns="http://www.w3.org/2000/svg" viewBox="0 0 24 24"><path d="m16,18c-1.382,1.382-3.2398,2.0811-5.092,2.0811-1.4214,0-2.8361-.4179-4.0339-1.2482l.7164-.7164c.9644.6265,2.1072.9645,3.3175.9645,1.6502,0,3.2485-.6517,4.3849-1.7881,3.8162-3.8162,5.4554-11.1304,4-12.5858-.3242-.3242-1.1067-.5178-2.093-.5178-2.9907,0-7.73,1.6866-10.4843,4.5091-2.04,2.0905-2.3214,5.3779-.8293,7.7082l-.7188.7188c-1.9057-2.7535-1.5798-6.6535.8324-9.1254,2.9423-3.0151,7.9199-4.8107,11.1999-4.8107,1.2473,0,2.2491.2596,2.8001.8107,2,2,0,10-4,14Zm-4.6465-5.3535c-.1953-.1953-.5117-.1953-.707,0l-7.5,7.5c-.1953.1953-.1953.5117,0,.707s.5117.1953.707,0l7.5-7.5c.1953-.1953.1953-.5117,0-.707Z"/></svg>