<svg xmlns="http://www.w3.org/2000/svg" viewBox="0 0 24 24"><path d="m13.26,4c.404.9709,1.1038,1.7897,2,2.34,1.0145.4232,2.1009.6473,3.2.66l.26.42c-1.2074,1.3169-1.9151,3.0154-2,4.8-.0082,1.8768.7376,3.6782,2.07,5l-.34.67c-.6576-.1533-1.3264-.2537-2-.3-1.6665-.0203-3.2708.6322-4.45,1.81-1.1546-1.1753-2.7325-1.8381-4.38-1.84-.696.05-1.388.15-2.07.3l-.34-.67c1.3561-1.3057,2.1063-3.1178,2.07-5-.0895-1.7777-.7969-3.4683-2-4.78l.26-.41c1.0971-.0204,2.18-.2512,3.19-.68.9031-.5421,1.6051-1.3635,2-2.34h2.54l-.01.02Zm.74-1h-4c-.2398,1.0332-.88,1.9288-1.78,2.49-.9304.3345-1.9113.507-2.9.51-.1062.0147-.2138.0147-.32,0l-1,1.6c1.3705,1.1764,2.1953,2.8658,2.28,4.67.1,1.93-.93,3.41-2.28,4.73l1,2c.863-.202,1.738-.35,2.62-.44,1.7806.013,3.4317.9328,4.38,2.44.9586-1.5163,2.6261-2.4369,4.42-2.44.869.09,1.73.237,2.58.44l1-2c-1.4109-1.1707-2.243-2.897-2.28-4.73.0847-1.8042.9095-3.4936,2.28-4.67l-1-1.6c-.1062.0147-.2138.0147-.32,0-.9905-.0126-1.9714-.1953-2.9-.54-.8835-.565-1.5196-1.4442-1.78-2.46Z"/></svg>