<svg viewBox="0 0 24 24" xmlns="http://www.w3.org/2000/svg"><path d="m14 6.9221v-2.9221c0-.5523-.4477-1-1-1h-2c-.5522 0-1 .4477-1 1v2.9221c-1.7644.7722-3 2.5287-3 4.5779 0 2.7614 2.2386 5 5 5s5-2.2386 5-5c0-2.0492-1.2356-3.8057-3-4.5779zm-3-2.9221h2v2.6008c-.3232-.0656-.6575-.1008-1-.1008s-.6768.0352-1 .1008zm1 11.5c-2.2056 0-4-1.7944-4-4s1.7944-4 4-4 4 1.7944 4 4-1.7944 4-4 4zm-6.5-3.5h-2c-.2764 0-.5-.2236-.5-.5s.2236-.5.5-.5h2c.2764 0 .5.2236.5.5s-.2236.5-.5.5zm15.5-.5c0 .2764-.2236.5-.5.5h-2c-.2764 0-.5-.2236-.5-.5s.2236-.5.5-.5h2c.2764 0 .5.2236.5.5zm-13.2426 4.9497-1.4142 1.4142c-.1954.1954-.5117.1954-.7071 0s-.1954-.5117 0-.7071l1.4142-1.4142c.1954-.1954.5117-.1954.7071 0s.1954.5117 0 .7071zm10.6066-11.3137c.1954.1954.1954.5117 0 .7071l-1.4142 1.4142c-.1954.1954-.5117.1954-.7071 0s-.1954-.5117 0-.7071l1.4142-1.4142c.1954-.1954.5117-.1954.7071 0zm-5.864 12.864v2c0 .2764-.2236.5-.5.5s-.5-.2236-.5-.5v-2c0-.2764.2236-.5.5-.5s.5.2236.5.5zm4.4497-2.2574 1.4142 1.4142c.1954.1954.1954.5117 0 .7071s-.5117.1954-.7071 0l-1.4142-1.4142c-.1954-.1954-.1954-.5117 0-.7071s.5117-.1954.7071 0zm-11.3137-10.6066c.1954-.1954.5117-.1954.7071 0l1.4142 1.4142c.1954.1954.1954.5117 0 .7071s-.5117.1954-.7071 0l-1.4142-1.4142c-.1954-.1954-.1954-.5117 0-.7071z"/></svg>