<svg viewBox="0 0 24 24" xmlns="http://www.w3.org/2000/svg"><path d="m14.65 10.49c.24-.91.37-1.78.37-2.52 0-2.92-.81-3.53-1.51-3.53-.47 0-.81.03-1.28.34-.13.07-.2.2-.24.34l-.5 2.72c-.47 1.27-1.6 2.39-2.62 3.21-.16-.34-.5-.56-.91-.56h-3.02c-.57 0-1.01.44-1.01 1.01v7.06c0 .57.44 1.01 1.01 1.01h3.02c.54 0 .96-.39 1-.92.25.08.52.21.78.35.54.27 1.11.54 1.75.54h4.81c1.01 0 1.75-.81 1.75-1.51 0-.13 0-.27-.03-.37.64-.24 1.04-.77 1.04-1.38 0-.3-.07-.57-.17-.77.37-.27.77-.71.77-1.24 0-.27-.13-.61-.34-.84.44-.34.74-.81.74-1.28 0-1.08-.84-1.65-2.02-1.65h-3.39zm-2.18-2.39s0-.07.03-.07l.47-2.52c.17-.07.3-.07.57-.07.1 0 .5.61.5 2.52 0 .74-.13 1.58-.4 2.52h-.13c-.27 0-.5.24-.5.5s.24.5.5.5h4.54c.5 0 .97.24.97.64s-.26.57-.48.72c-.13.09-.25.17-.29.29-.05.16.04.27.14.41.12.16.26.35.26.67 0 .39-.29.54-.54.67-.16.08-.29.15-.33.27-.07.19 0 .32.07.47s.16.34.16.64v.1c-.06.32-.4.45-.67.56-.15.06-.29.11-.33.18-.08.13-.06.23-.02.39.02.12.06.28.06.52 0 .3-.34.5-.74.5h-4.81c-.37 0-.84-.2-1.28-.44-.4-.2-.81-.4-1.24-.5v-5.34c1.24-.94 2.86-2.39 3.49-4.13zm-4.5 10.45v-7.06h-3.02v7.06z" fill="#010205" fill-rule="evenodd"/></svg>