<svg viewBox="0 0 24 24" xmlns="http://www.w3.org/2000/svg"><g fill="#010205" fill-rule="evenodd"><path d="m8.24 18.65c0 .68-.64.91-1.04.91h-2.26c-.57 0-1.01-.44-1.01-1.01v-7.06c0-.57.44-1.01 1.01-1.01h2.36c.68 0 .94.47.94.87z"/><path d="m19.33 13.41c.2.24.34.57.34.84 0 .54-.4.97-.77 1.24.1.2.17.47.17.77 0 .61-.4 1.14-1.04 1.38.03.1.03.24.03.37 0 .71-.74 1.51-1.75 1.51h-4.81c-.64 0-1.2-.28-1.75-.54-.26-.12-.42-.18-.68-.31 0 0-.12-.06-.12-.2v-7.35c0-.06 0-.1.02-.14.02-.03.03-.05.06-.08.98-.81 2.01-1.87 2.46-3.08l.5-2.72c.03-.13.1-.27.24-.34.47-.3.81-.34 1.28-.34.71 0 1.51.61 1.51 3.53 0 .74-.13 1.61-.37 2.52h3.39c1.18 0 2.02.57 2.02 1.65 0 .47-.3.94-.74 1.28z"/></g></svg>