<svg viewBox="0 0 24 24" xmlns="http://www.w3.org/2000/svg"><path d="m14.1 10.5h.15c1.65 0 3.8.5 4.45.7 2.2.75 2.85 1.15 2.95 1.35.1.15.2.75.3 1.6-.05.1-.2.3-.3.4l-1.3.2-.5.05-.25.45c-.25.45-.7.75-1.2.75-.45 0-.85-.2-1.1-.6l-.35-.4h-10.65l-.3.45c-.25.35-.65.55-1.15.55s-1-.3-1.2-.75l-.2-.4-.45-.15c-.4-.1-.7-.15-.9-.25-.05-.2-.05-.4-.1-.7.25-.2.65-.55.95-.65.75-.35 2.4-.65 4.9-.9l.3-.05.25-.2c.1-.1 1.2-.9 2.85-1.3.4-.05 1.25-.15 2.85-.15m0-1c-.6 0-2.1 0-3.1.25-1.7.4-2.85 1.2-3.25 1.5-2.4.2-4.3.5-5.25 1-.5.25-1.5 1-1.5 1.25 0 1 .25 1.75.25 1.75s.45.2 1.5.45c.4.75 1.2 1.3 2.15 1.3.8 0 1.55-.35 1.95-1h9.6c.45.6 1.15 1 1.95 1 .9 0 1.7-.5 2.1-1.3l1.5-.2c.5-.25 1-1 1-1.25-.05-.8-.25-1.85-.5-2.25-.5-.75-2.45-1.4-3.5-1.75-.75-.25-3-.75-4.75-.75z"/></svg>