<svg viewBox="0 0 24 24" xmlns="http://www.w3.org/2000/svg"><path d="m8 17.4563h12v-1h-12zm0-5h12v-1h-12zm0-5h12v-1h-12zm-4-.5c.0247.5523.4924.98 1.0447.9553.5177-.0232.9321-.4376.9553-.9553-.0247-.5523-.4924-.98-1.0447-.9553-.5177.0232-.9321.4376-.9553.9553zm0 5c.0247.5523.4924.98 1.0447.9553.5177-.0232.9321-.4376.9553-.9553-.0247-.5523-.4924-.98-1.0447-.9553-.5177.0232-.9321.4376-.9553.9553zm0 5c.0247.5523.4924.98 1.0447.9553.5177-.0232.9321-.4376.9553-.9553-.0247-.5523-.4924-.98-1.0447-.9553-.5177.0232-.9321.4376-.9553.9553z"/></svg>