<svg xmlns="http://www.w3.org/2000/svg" viewBox="0 0 24 24">
<path d="m12,10c1.1028,0,2,.8972,2,2s-.8972,2-2,2-2-.8972-2-2,.8972-2,2-2m0-1c-1.6569,0-3,1.3431-3,3s1.3431,3,3,3,3-1.3431,3-3-1.3431-3-3-3h0Z"/><path d="m22,11.5h-1.5253c-.2505-4.2939-3.6808-7.7242-7.9747-7.9747v-1.5253h-1v1.5253c-4.2939.2505-7.7242,3.6808-7.9747,7.9747h-1.5253v1h1.5253c.2505,4.2939,3.6808,7.7242,7.9747,7.9747v1.5253h1v-1.5253c4.2939-.2505,7.7242-3.6808,7.9747-7.9747h1.5253v-1Zm-10,8c-4.1355,0-7.5-3.3645-7.5-7.5s3.3645-7.5,7.5-7.5,7.5,3.3645,7.5,7.5-3.3645,7.5-7.5,7.5Z"/>
</svg>