<svg viewBox="0 0 24 24" xmlns="http://www.w3.org/2000/svg"><path d="m16.5416 3.0013h-8.93c-.8498-.0343-1.5666.6268-1.6009 1.4766-.0019.0478-.0016.0956.0009.1434v15.26c-.0662.4326.1566.8581.55 1.05.3775.1421.8034.0435 1.08-.25 0 0 4.21-5.25 4.29-5.33s.11-.12.22-.12h2.73c1.14 0 1.33-.88 1.45-1.4s1.21-6.58 1.59-8.54c.28-1.49-.07-2.29-1.38-2.29zm-.21 10.83c.09-.43 1.21-6.58 1.59-8.54zm-.32-8.23-.38 2.1c-.0671.2545-.2876.439-.55.46h-3.48c-.3644-.0066-.6652.2835-.6718.648-.0004.0207.0002.0414.0018.062v.46c-.0276.369.2491.6905.6181.7181.0173.0013.0346.0019.0519.0019h2.95s.55.32.49.64-.34 1.89-.37 2.06c-.0537.266-.2792.4628-.55.48h-2.41c-.356-.049-.7043.1312-.87.45-.29.39-2.93 3.8-2.93 3.8h-.05v-11.92c.0096-.2976.2429-.5396.54-.56h7.17c.2698.0205.4719.2559.4514.5258-.0019.025-.0057.0498-.0114.0742z"/></svg>