<svg viewBox="0 0 24 24" xmlns="http://www.w3.org/2000/svg"><path d="m13.78 10.09v.13c-.18.56-.63 1-1 .9s-.53-.57-.35-1.13.63-1 1-.9c.0917.0104.1767.0529.24.12-.0799-.4633-.4056-.8465-.85-1-.588-.053-1.1481.2608-1.41.79 0-.86-.33-1.53-.87-1.7-.8-.3-1.79.7-2.21 2.07-.42 1.4-.11 2.73.69 3 .6424.0766 1.2672-.2437 1.58-.81 0 1 .37 1.76 1 1.9.81.19 1.75-.79 2.08-2.22.09-.37.127-.75.11-1.13zm-.28-.66c-.35-.15-.69.14-.44.37.35.15.69-.13.44-.37zm-3.43.67c-.35-.1-.46-.6-.24-1.1s.69-.93 1-.85.45.59.23 1.15-.64.88-.99.8zm.63-1.73c-.1325-.0387-.2713.0375-.31.17s.0375.2713.17.31c.0457.0133.0943.0133.14 0 .17 0 .32-.11.32-.24s-.14-.24-.32-.24zm10.3 2.24c.24.72-.4 2-1.39 3-.9741.7981-2.1002 1.3901-3.31 1.74l.3 3c.13 1.18.27 2.36-.84 2.59s-2.64-.49-4-1.49l-2-1.53s-1.31 1-2.35 1.68-1.63.9-2.41-.06-.83-3.45-.64-4.71c.13-.811.313-1.613.55-2.4-1.1479-1.5269-1.813-3.3622-1.91-5.27.08-2.68 1.43-2.08 2.14-1.64.9033.5733 1.9333.9167 3 1 0 0 2.86-3.52 5.19-3.52 1.26 0 1.41 1.57 1.67 2.81s.51 3.19.51 3.19c.819.226 1.65.403 2.49.53 1.71.31 2.75.36 3 1.08zm-7.36 3.24.38.31c-.0822-.1378-.1461-.2857-.19-.44-.07-.24-.16-.62-.16-.62l-.08.61s-2.9 2-4.56 1.38-2-3.52-2-3.52l.38-.44c-.161.112-.3358.2027-.52.27-.155.07-.315.128-.48.17h.48s.08 3.34 2 3.95 4.71-1.67 4.72-1.67z"/></svg>