<svg viewBox="0 0 24 24" xmlns="http://www.w3.org/2000/svg"><path d="m6.18 12.97-1 .34v2.61c0 .89-.34 1.06-1.68 1-.0487-.2988-.1326-.5909-.25-.87h.94c.13 0 .17-.05.17-.18v-2.29c-.34.12-.65.21-.9.29-.0137.0784-.0726.1413-.15.16l-.31-1.02c.36-.09.81-.2 1.31-.34v-1.9h-1.2v-.83h1.2v-1.92h1c0 .09-.07.14-.22.16v1.76h1v.83h-1v1.74l1-.27.1.78zm4.58.3.56.27c-.026.046-.064.084-.11.11-.3457.7836-.899 1.4579-1.6 1.95.6968.2836 1.4255.4817 2.17.59-.22.236-.405.502-.55.79-.8688-.1639-1.7082-.4571-2.49-.87-.888.415-1.83.702-2.8.85-.0993-.2667-.2338-.519-.4-.75.843-.098 1.67-.303 2.46-.61-.4824-.3618-.9014-.8011-1.24-1.3l.55-.23h-1.15v-.77h4.6zm-2.38-.16v-.6h-2v-3.7l.42.15c.3582-.1635.6943-.3718 1-.62l.56.54v-.87l1 .07c0 .07-.07.12-.21.14v3.52h1.32v-.8h-1v-.67h1v-.76h-1v-.74h1.76v3.74h-2.07v.65zm-1.22-1.37h1.22v-2.73h-.08c-.3648.1994-.7462.3667-1.14.5v.72h.84v.67h-.84zm.37 2.33c.34.452.769.83 1.26 1.11.4962-.2733.9263-.6522 1.26-1.11zm5.39-6c.336.3.638.634.9 1 .2381-.3168.452-.6511.64-1l.88.45c0 .05-.09.09-.2.08-.2539.4588-.5484.8938-.88 1.3.4195 1.0614.607 2.2002.55 3.34.1033 1.1127-.0613 2.2339-.48 3.27-.19.25-.43.41-1.23.41h-.38c-.0096-.3037-.0882-.6012-.23-.87h.59c.34 0 .48 0 .62-.17.2495-.901.3509-1.8365.3-2.77-.3676.5354-.801 1.0226-1.29 1.45-.156-.2501-.3481-.4759-.57-.67.7416-.55 1.3528-1.2568 1.79-2.07-.0437-.4123-.1343-.8182-.27-1.21-.29.29-.58.57-.88.82-.1773-.2155-.3786-.4101-.6-.58.4014-.3189.7729-.6737 1.11-1.06-.2725-.4589-.6093-.8764-1-1.24l.61-.47zm3.31.86c1.1679-.1963 2.3135-.5078 3.42-.93l.82.66c-.064.0447-.143.0626-.22.05l-.62.2c.16 3 .47 5.93 1.37 7.4-.25.188-.47.414-.65.67-1-1.69-1.25-4.63-1.43-7.87-.77.2-1.65.38-2.47.52v2.35c.0193 1.1428-.1152 2.2831-.4 3.39l1.27-.08v-5.78l.93.06c0 .07-.06.12-.19.14v5.51h.68c-.1-.42-.22-.83-.34-1.19l.58-.16c.294.861.522 1.744.68 2.64l-.62.18c0-.22-.07-.48-.13-.75-1 .12-1.91.22-2.54.28-.0156.0679-.0711.1195-.14.13l-.23-.84c-.1558.5278-.3883 1.0298-.69 1.49-.1667-.2267-.3776-.4172-.62-.56.7549-1.3634 1.102-2.915 1-4.47v-3.21l.57.18z"/></svg>