<svg viewBox="0 0 24 24" xmlns="http://www.w3.org/2000/svg"><path d="m12.3386 3c4.0427-.0109 7.3288 3.2576 7.3396 7.3003.0109 4.0427-3.2576 7.3288-7.3003 7.3396-.6724.0018-1.3418-.089-1.9893-.2699-.46-.2-.22-.74-.22-.74.2-.58.61-.41.61-.41 3.2656.8717 6.6196-1.069 7.4913-4.3346s-1.069-6.6196-4.3346-7.4913-6.6196 1.069-7.4913 4.3346c-.4184 1.5674-.1973 3.2368.6146 4.6413.18.6-.24.74-.24.74-.2146.1982-.5454.1982-.76 0-2.0932-3.4586-.9862-7.9593 2.4724-10.0525 1.1482-.6949 2.4654-1.0608 3.8076-1.0575zm0 4.88c1.3476-.0002 2.4402 1.0921 2.4404 2.4396.0002 1.3476-1.0921 2.4402-2.4396 2.4404h-.0007c-.5101.0008-1.0073-.1603-1.42-.46-1.633 1.8575-2.8199 4.0637-3.47 6.45-.1745.6172-.3081 1.2452-.4 1.88-.1983.2688-.5304.404-.86.35-.1605-.047-.2988-.1499-.39-.29.4953-3.4708 2.0012-6.7192 4.33-9.34-.5689-1.2216-.0397-2.6731 1.1819-3.2419.322-.1499.6729-.2278 1.0281-.2281z"/></svg>