<?xml version="1.0" encoding="utf-8"?>
<!-- Generator: Adobe Illustrator 25.3.1, SVG Export Plug-In . SVG Version: 6.00 Build 0)  -->
<svg version="1.1" id="reddit" xmlns="http://www.w3.org/2000/svg" xmlns:xlink="http://www.w3.org/1999/xlink" x="0px" y="0px"
	 viewBox="0 0 24 24" style="enable-background:new 0 0 24 24;" xml:space="preserve">
<path id="path" d="M22,12.03c0-1.21-0.99-2.18-2.19-2.18c-0.59,0-1.13,0.23-1.52,0.61c-1.51-1.07-3.57-1.77-5.86-1.86l1-4.68
	l3.26,0.7c0.04,0.82,0.72,1.48,1.56,1.48c0.86,0,1.56-0.7,1.56-1.55S19.11,3,18.25,3c-0.61,0-1.15,0.36-1.4,0.87l-3.64-0.77
	c-0.11-0.02-0.22,0-0.29,0.05c-0.09,0.05-0.14,0.14-0.16,0.25l-1.11,5.21c-2.33,0.07-4.43,0.77-5.95,1.86
	C5.32,10.1,4.78,9.87,4.19,9.87C2.97,9.87,2,10.85,2,12.05c0,0.89,0.54,1.64,1.29,1.98c-0.04,0.21-0.05,0.43-0.05,0.66
	c0,3.36,3.92,6.09,8.76,6.09s8.76-2.71,8.76-6.09c0-0.21-0.02-0.45-0.05-0.66C21.46,13.69,22,12.92,22,12.03z M6.98,13.58
	c0-0.86,0.7-1.55,1.56-1.55c0.86,0,1.56,0.7,1.56,1.55s-0.7,1.55-1.56,1.55C7.68,15.16,6.98,14.44,6.98,13.58z M15.71,17.71
	c-1.08,1.07-3.12,1.14-3.71,1.14c-0.61,0-2.65-0.09-3.71-1.14c-0.16-0.16-0.16-0.41,0-0.57c0.16-0.16,0.41-0.16,0.57,0
	c0.68,0.68,2.11,0.91,3.14,0.91s2.47-0.23,3.14-0.91c0.16-0.16,0.41-0.16,0.57,0C15.85,17.3,15.85,17.55,15.71,17.71z M15.42,15.16
	c-0.86,0-1.56-0.7-1.56-1.55c0-0.86,0.7-1.55,1.56-1.55c0.86,0,1.56,0.7,1.56,1.55C16.98,14.44,16.28,15.16,15.42,15.16z"/>
</svg>
