<svg viewBox="0 0 24 24" xmlns="http://www.w3.org/2000/svg"><path d="m14.63 14.3034c.0124.6673-.1314 1.3282-.42 1.93-.2613.5575-.6522 1.0444-1.14 1.42-.5441.4335-1.1699.7532-1.84.94-.8301.2076-1.6846.3018-2.54.28h-5.69v-14.87h5c.838-.016 1.677.024 2.51.12.5492.0881 1.0798.2672 1.57.53.505.237.927.62 1.21 1.1.266.513.4 1.083.39 1.66.0128.676-.1751 1.3407-.54 1.91-.3782.5656-.9086 1.0128-1.53 1.29v.08c.8429.154 1.6141.5747 2.2 1.2.5661.6719.8589 1.5322.82 2.41zm-4.69-6.11c-.0058-.2237-.064-.4429-.17-.64-.1408-.2389-.3653-.4171-.63-.5-.3227-.1074-.6599-.1647-1-.17h-1.56v2.74h1.6c.341.01.68-.049 1-.17.2733-.0819.5055-.264.65-.51.1043-.2289.1556-.4785.15-.73zm.89 6.06c.0213-.3714-.0693-.7406-.26-1.06-.2282-.2761-.541-.4694-.89-.55-.386-.0954-.7824-.1425-1.18-.14h-1.93v3.58h2c.4222-.0036.8398-.0885 1.23-.25.3278-.1139.6043-.3408.78-.64.152-.282.228-.6.22-.92zm10.17-10.25-.44 10.5h-3.1l-.46-10.5zm-.3 13.37c.0331.9328-.6962 1.7158-1.629 1.7489s-1.7158-.6962-1.7489-1.629.6962-1.7158 1.629-1.7489c.0163-.0006.0326-.0009.0489-.001.9171-.0217 1.6781.7042 1.6998 1.6213 0 .0029.0001.0058.0002.0087z"/></svg>