<svg viewBox="0 0 24 24" xmlns="http://www.w3.org/2000/svg"><path d="m20.9356 16.2378c-.1251-.3403-.3633-.5224-.6347-.6733-.051-.0299-.098-.0538-.138-.0722-.0809-.0419-.1637-.0823-.246-.1251-.8457-.4484-1.5062-1.0141-1.9642-1.6846-.1393-.2039-.3771-.7673-.3463-.831.03-.062.8137-.5722.9221-.648.3472-.2428.59-.5008.7418-.7892.2143-.4031.2426-.8795.0777-1.3052-.2299-.6052-.8016-.981-1.4942-.981-.1896 0-.5087.0624-.5482.0727.0064-.4139-.0028-1.1224-.0396-1.5524-.1306-1.5117-.6599-2.3041-1.2118-2.936-.5543-.7126-2.3776-1.7126-4.0544-1.7126-1.7795 0-3.2494.7944-4.053 1.7145-.5519.6319-1.0812 1.4257-1.2118 2.936-.0368.43-.046 1.1407-.04 1.5524-.0441-.0114-.3822-.0727-.5477-.0727-.6931 0-1.2656.3757-1.4947.981-.1656.4259-.138.9027.0759 1.3066.1522.2884.395.5464.7423.7892.0972.068.888.5969.9207.648.043.0671-.2111.6343-.3449.8301-.4479.6553-1.089 1.2109-1.9076 1.6556-.4337.2299-.8844.3836-1.0748.9009-.1435.3904-.0497.8347.315 1.2091.1568.161 1.7418.8528 1.8124.9.1469.0981.4927.796.6241.8867.3716.2566.7892.2727 1.2316.2897.4048.0156 1.8015.4093 2.0649.5712.6195.3808 1.4675.9019 2.8868.9019s2.2733-.5238 2.8973-.906c.292-.1788 1.6383-.5492 2.0557-.5652.4424-.017.86-.0331 1.2316-.2897.1636-.113.5031-.7818.6227-.8876.0717-.0634.9439-.3319 1.3539-.5519.1815-.0974.3448-.2252.4829-.378l.0046-.0055c.3422-.3661.4282-.7975.2879-1.1782zm-1.2615.6779c-.7694.4249-1.2808.3794-1.6786.6356-.338.2175-.138.6866-.3836.8559-.3017.2083-1.1934-.0147-2.3455.3656-.9501.3141-1.5563 1.2173-3.2652 1.2173s-2.3008-.9014-3.2666-1.2196c-1.1497-.3803-2.0433-.1573-2.3455-.3656-.2451-.1692-.046-.6383-.3836-.8559-.3983-.2562-.9097-.2106-1.6786-.6333-.4898-.2704-.212-.4378-.0487-.5169 2.787-1.3493 3.2317-3.4326 3.2514-3.5872.0239-.1872.0506-.3343-.1554-.5247-.1991-.184-1.0826-.7308-1.3277-.9019-.4056-.2833-.5841-.5661-.4525-.9138.092-.2405.3164-.3311.5519-.3311.0969 0 1.4029.4171 1.4404.4171.1334 0 .1803-.0671.1711-.2198-.0285-.487-.0975-1.7078-.0207-2.5949.1489-1.7204 1.2618-3.7316 4.2614-3.7316 2.4154 0 4.0535 1.2935 4.2641 3.7261.0768.8871.0106 2.1084-.0207 2.5949-.0106.1605.0377.2198.1711.2198.0436 0 1.3647-.4171 1.4408-.4171.2368 0 .4599.092.5519.3311.1315.3477-.046.6305-.4521.9138-.2451.1711-1.1286.7174-1.3277.9019-.2065.1904-.1794.3376-.1554.5247.0198.1568.464 2.2401 3.2514 3.5872.1646.0823.4424.2497-.0474.5224z"/></svg>