<svg viewBox="0 0 24 24" xmlns="http://www.w3.org/2000/svg"><path d="m19.6148 15.9604c.75.6 1.72 1.1 1.26 2.36-.5843 1.4587-1.9273 2.4747-3.49 2.64-.3171-.0591-.6283-.1461-.93-.26-5.9608-2.333-10.7058-7.0057-13.13-12.93-.85-2 0-3.76 2.18-4.47.3655-.1297.7645-.1297 1.13 0 .91.33 3.23 3.45 3.28 4.38-.0099.61-.3616 1.1627-.91 1.43-.7712.4536-1.0287 1.4464-.5752 2.2177.0144.0245.0295.0486.0452.0723.8945 1.9094 2.4713 3.4148 4.42 4.22.6498.395 1.4964.1945 1.9-.45.87-1.3 2-1.23 3.13-.42.59.4 1.19.8 1.74 1.24zm-6.88-12c-.37 0-.93 0-.91-.46 0-.71.72-.44 1-.49 4.39.2273 7.8705 3.786 8 8.18 0 .41.15 1-.48 1s-.44-.63-.49-1c-.57-4.43-2.64-6.52-7.13-7.2zm.88 1.22c2.7345.2907 4.8534 2.524 5 5.27-.05.3.13.83-.37.91-.68.09-.55-.52-.62-.91-.46-2.69-1.42-3.69-4.19-4.29-.41-.09-1 0-.94-.65s.69-.43 1.12-.37zm.26 2.11c1.397.1612 2.4946 1.2712 2.64 2.67 0 .34 0 .7-.44.75s-.49-.21-.52-.51c.003-1.0485-.8044-1.9214-1.85-2-.34-.05-.67-.16-.51-.61.11-.3.39-.33.68-.34z"/></svg>