<svg viewBox="0 0 24 24" xmlns="http://www.w3.org/2000/svg"><path d="m11.55 13.79c.2462.5376.3329 1.1346.25 1.72-.0576.5703-.2646 1.1152-.6 1.58-.4204.5426-1.007.9325-1.67 1.11-.5663.1794-1.156.2738-1.75.28-.6988.0317-1.3986-.0322-2.08-.19-.9627-.2083-1.7895-.8202-2.27-1.68-.2623-.4976-.4092-1.0479-.43-1.61v-.09h2.22v.14c.0344.2202.1054.4332.21.63.179.32.466.564.81.69.8011.3193 1.6881.3511 2.51.09.4089-.0991.7311-.4136.84-.82.1257-.3674-.0044-.7738-.32-1-.302-.23-.64-.41-1-.53-.46-.17-.94-.28-1.42-.41-.678-.1437-1.346-.3308-2-.56-.5291-.1711-.9796-.5258-1.27-1-.4894-.9323-.5262-2.0371-.1-3 .3475-.6931.9607-1.2162 1.7-1.45.5443-.1886 1.1142-.2931 1.69-.31.8026-.0645 1.6102.0237 2.38.26 1.1125.351 1.9325 1.2986 2.12 2.45.039.181.062.365.07.55v.07h-2c-.0307-.193-.095-.3792-.19-.55-.2546-.5191-.7557-.8732-1.33-.94-.5328-.1249-1.0872-.1249-1.62 0-.5388.1304-.9162.6156-.91 1.17 0 .2389.1108.4642.3.61.2956.229.6364.3926 1 .48l2.27.6c.4907.1146.9695.2753 1.43.48.522.2572.9338.6939 1.16 1.23zm3.46.33 2.29 6.88-.65-.46-4.44-3.15v-.07c.261-.403.447-.85.55-1.32l1.68 1.19-.13-.4-1.07-3.2 3.15-2.23h-3.91v-.16c-.0034-.3544-.0268-.7083-.07-1.06-.1081-.8496-.4747-1.6455-1.05-2.28-.3526-.3991-.7853-.7194-1.27-.94h-.08l1.29-3.92 2.28 6.87h7.42l-6 4.25z"/></svg>