<svg viewBox="0 0 24 24" xmlns="http://www.w3.org/2000/svg"><path d="m18.38 5.62c-1.6722-1.6824-3.948-2.6258-6.32-2.62-4.9395-.0002-8.9561 3.9807-9 8.92-.0003 1.5844.4282 3.1394 1.24 4.5l-1.3 4.58 4.75-1.24c1.3046.7085 2.7655 1.0797 4.25 1.08 4.9356.0002 8.9506-3.9746 9-8.91.0053-2.3602-.9389-4.6234-2.62-6.28zm-6.38 13.72c-1.3476-.001-2.6703-.3636-3.83-1.05l-.17-.14-2.82.73.76-2.73-.18-.28c-.7498-1.1769-1.1455-2.5445-1.14-3.94 0-4.1145 3.3355-7.45 7.45-7.45s7.45 3.3355 7.45 7.45c-.0219 4.1145-3.3751 7.4321-7.4896 7.4102-.0101 0-.0203-.0001-.0304-.0002zm4.09-5.55c-.23-.12-1.33-.65-1.53-.73s-.36-.11-.51.11-.58.73-.71.87-.26.17-.48.06c-.6487-.2624-1.2475-.6345-1.77-1.1-.4856-.4507-.9033-.9694-1.24-1.54-.0912-.1514-.0423-.348.1091-.4392.0131-.0079.0268-.0149.0409-.0208.117-.124.227-.254.33-.39.092-.113.169-.238.23-.37.0608-.1229.0608-.2671 0-.39-.06-.11-.51-1.21-.69-1.66s-.37-.37-.51-.38h-.49c-.2296.0084-.4461.1094-.6.28-.5144.4805-.8014 1.1562-.79 1.86.0754.8431.3951 1.6459.92 2.31.9624 1.4306 2.2783 2.588 3.82 3.36.388.171.786.321 1.19.45.4958.1662 1.0256.204 1.54.11.6224-.131 1.1622-.515 1.49-1.06.1568-.3516.1954-.7446.11-1.12-.05-.09-.2-.14-.42-.26z"/></svg>