<svg viewBox="0 0 24 24" xmlns="http://www.w3.org/2000/svg"><path d="m12 4.62c-2.4 0-2.69 0-3.64.06-.5679.0076-1.13.116-1.66.32-.3787.1514-.72.3834-1 .68-.2947.2796-.5236.6211-.67 1-.1978.5349-.3027 1.0997-.31 1.67v7.27c-.0023.5718.0924 1.1398.28 1.68.146.379.375.72.67 1 .28.297.621.529 1 .68.5326.1924 1.0938.2938 1.66.3 1 .05 1.24.06 3.64.06s2.69 0 3.64-.06c.5698-.0025 1.1349-.104 1.67-.3.7825-.2956 1.4061-.9046 1.72-1.68.1978-.5349.3027-1.0997.31-1.67 0-1 .05-1.23.05-3.64s0-2.68-.05-3.63c-.0085-.5702-.1133-1.1348-.31-1.67-.3049-.7731-.9169-1.3851-1.69-1.69-.5362-.192-1.1005-.2934-1.67-.3-.95-.07-1.24-.08-3.64-.08zm0-1.62c2.45 0 2.75 0 3.71.06.7479.0118 1.4885.1504 2.19.41 1.205.4716 2.1584 1.425 2.63 2.63.259.702.397 1.442.41 2.19 0 1 .06 1.26.06 3.71s0 2.75-.06 3.71c-.0118.7479-.1504 1.4885-.41 2.19-.4717 1.205-1.425 2.1583-2.63 2.63-.7015.2596-1.4421.3982-2.19.41-1 0-1.26.06-3.71.06s-2.75 0-3.71-.06c-.7478-.0127-1.4882-.1513-2.19-.41-1.205-.4716-2.1584-1.425-2.63-2.63-.2596-.7015-.3982-1.4421-.41-2.19-.06-.96-.06-1.26-.06-3.71s0-2.75.06-3.71c.0115-.7447.1502-1.482.41-2.18.2128-.5998.5541-1.1458 1-1.6.4522-.4434.9945-.7844 1.59-1 .7031-.2539 1.4427-.3923 2.19-.41 1-.1 1.3-.1 3.75-.1zm0 4.38c2.5516-.0011 4.6209 2.0665 4.622 4.618.0011 2.5516-2.0665 4.6209-4.618 4.622h-.004c-2.5516 0-4.62-2.0684-4.62-4.62s2.0684-4.62 4.62-4.62zm0 7.62c1.6566.0302 3.024-1.2882 3.0543-2.9447.0302-1.6566-1.2882-3.024-2.9447-3.0543-.0365-.0007-.073-.0007-.1095 0-1.6566.0302-2.975 1.3977-2.9447 3.0543.0295 1.614 1.3308 2.9153 2.9447 2.9447zm5.89-7.81c.0003.5965-.483 1.0802-1.0795 1.0805s-1.0802-.483-1.0805-1.0795v-.001c.0003-.5965.484-1.0798 1.0805-1.0795.5961.0003 1.0792.4834 1.0795 1.0795z"/></svg>