<svg id="Default" xmlns="http://www.w3.org/2000/svg" viewBox="0 0 24 24"><path d="M9.37,4.69c3.13,0,5.88,1.9,6.43,4.46-.2,0-.41,0-.61,0a5.22,5.22,0,0,0-5.42,5,4.51,4.51,0,0,0,.2,1.33l-.6,0a10.81,10.81,0,0,1-2.23-.32L4.91,16.29l.64-1.91A5.19,5.19,0,0,1,3,10.09C3,7.07,5.87,4.69,9.37,4.69ZM7.3,9a.76.76,0,0,0,.8-.8.75.75,0,0,0-.8-.79.89.89,0,0,0-1,.79A.9.9,0,0,0,7.3,9Zm4.46,0a.76.76,0,0,0,.8-.8.75.75,0,0,0-.8-.79.89.89,0,0,0-1,.79A.9.9,0,0,0,11.76,9ZM21,14.07h0a4.79,4.79,0,0,1-2.23,3.65l.48,1.59-1.75-.95a8,8,0,0,1-1.91.32c-3,0-5.42-2.07-5.42-4.61s2.39-4.61,5.42-4.61c2.86,0,5.41,2.07,5.41,4.61Zm-7.17-.8a.73.73,0,0,0,.8-.64.73.73,0,0,0-.8-.63.64.64,0,1,0,0,1.27Zm3.51,0a.72.72,0,0,0,.79-.64.73.73,0,0,0-.79-.63.64.64,0,1,0,0,1.27Z"/></svg>