<svg xmlns="http://www.w3.org/2000/svg" viewBox="0 0 24 24"><path d="m20.9975,7.5933c.0055-.5531-.055-1.1049-.18-1.6437-.2373-.981-.7961-1.7321-1.6347-2.2819-.4272-.2755-.906-.4612-1.4073-.5457-.3878-.0663-.7799-.1038-1.1733-.1121-.0311-.0016-.063-.0065-.0933-.0098H7.491l-.3412.0196c-.5605.0311-1.1168.0925-1.6445.3011-1.0039.3976-1.7264,1.0898-2.1502,2.0839-.1432.3371-.2185.6946-.2725,1.0571-.0425.2937-.0663.5883-.0745.8853-.0016.0229-.0065.0458-.0082.0687v9.1677c.0065.1064.0123.2127.0196.3183.0368.6112.1154,1.2183.3723,1.7795.4876,1.0653,1.3034,1.7648,2.4259,2.1019.3167.0892.6415.1465.9695.171.4165.0393.8329.0458,1.2502.0458,2.7573,0,5.5145,0,8.2726-.0016.3944,0,.7855-.0245,1.1774-.0736.6177-.0794,1.1978-.2635,1.7215-.6079.6224-.4018,1.1129-.9777,1.4105-1.656.1391-.3166.2193-.6521.2765-.9933.0851-.5065.1039-1.0178.1039-1.53-.0016-2.8489.0008-5.6962-.0025-8.5443Zm-4.8166,2.9913c0,1.4277,0,2.8563-.0016,4.284,0,.3134-.0425.6202-.1816.9049-.216.4435-.5703.7225-1.0407.8558-.2618.0745-.5294.117-.8018.1293-.7078.0408-1.3344-.454-1.4588-1.152-.1092-.623.2099-1.2425.7805-1.5153.2422-.1203.5015-.1874.7634-.2438.2839-.0614.5678-.1145.8509-.18.2054-.0466.342-.1726.3821-.387.0093-.0477.014-.0962.0139-.1448.0008-1.3615.0008-2.7221-.0008-4.0827-.0005-.047-.0068-.0937-.0188-.1391-.0303-.1121-.1121-.1816-.2283-.1751-.1197.0083-.2386.025-.3559.0499-.5703.1121-1.1397.2275-1.71.3428l-1.7452.3526-1.0309.2086-.0352.009c-.207.0573-.2823.153-.2921.3665-.0016.0327-.0016.0655-.0016.0982l-.0008,5.8541c0,.3158-.0352.6275-.1612.9205-.2095.4811-.5785.7805-1.0767.9254-.2623.0759-.533.1191-.8059.1285-.7053.0392-1.3264-.4604-1.4392-1.1577-.1064-.6095.1718-1.2641.864-1.5578.2675-.1121.549-.1743.8313-.2324.2152-.0458.4312-.0867.6455-.1325.2864-.063.4369-.2422.4484-.5359.0016-.0376.0016-.0745.0016-.1121l.0008-6.6616c0-.0916.0098-.1874.0311-.2774.0524-.2135.2045-.3355.4091-.3895.1915-.0491.3862-.0843.5809-.1235l1.6486-.3322,1.7043-.3436c.5024-.1015,1.0039-.2045,1.5063-.3035.1653-.0327.333-.0655.4983-.0794.2324-.018.3919.1276.4156.3616.0057.0548.009.1113.009.1677.0016,1.4343.0016,2.8669.0016,4.2995Z"/></svg>