<svg xmlns="http://www.w3.org/2000/svg" viewBox="0 0 24 24"><path d="m3,17.3208c1.739,1.0978,3.7535,1.6804,5.81,1.68,2.8719.0569,5.6269-1.1363,7.55-3.27,2.0006-2.1028,3.0367-4.9429,2.86-7.84v-.14c.7306-.5305,1.3378-1.2128,1.78-2-.6372.3451-1.3382.5561-2.06.62.3556-.2299.6644-.5251.91-.87.293-.352.51-.76.64-1.2-.3624.2243-.748.4087-1.15.55-.366.1507-.7548.2386-1.15.26-.7146-.7295-1.699-1.1312-2.72-1.11-.9835-.0083-1.9258.394-2.6,1.11-.7253.7044-1.1239,1.6793-1.1,2.69,0,.289.03.577.09.86-1.506-.0487-2.9834-.424-4.33-1.1-1.3864-.6515-2.5968-1.6253-3.53-2.84-.4564.9064-.5666,1.9481-.31,2.93.2054.8426.7146,1.5797,1.43,2.07-.5678.1058-1.1529-.0524-1.59-.43-.03.8.19,1.59.63,2.26.5322.7567,1.3273,1.2879,2.23,1.49-.4921.2024-1.0378.2341-1.55.09.1196.709.5151,1.3418,1.1,1.76.6181.5391,1.4098.8373,2.23.84-.5594.5794-1.2434,1.024-2,1.3-1.0078.3952-2.1072.4958-3.17.29Z"/></svg>