<svg viewBox="0 0 24 24" xmlns="http://www.w3.org/2000/svg"><path d="m11.8122 17.1062h1.07c.1841-.0176.3585-.0908.5-.21.0966-.1372.1458-.3023.14-.47 0 0 0-1.42.65-1.63s1.51 1.38 2.41 2c.341.265.77.393 1.2.36h2.4s1.26-.07.66-1c-.4808-.7619-1.0859-1.4379-1.79-2-1.51-1.38-1.3-1.15.51-3.54 1.11-1.59 1.55-2.48 1.44-2.86s-1-.27-1-.27h-2.71c-.12-.0158-.2421.0051-.35.06-.1037.0744-.1863.1743-.24.29-.2822.7168-.6164 1.412-1 2.08-1.2 2-1.69 2.12-1.88 2-.46-.29-.35-1.18-.35-1.8 0-2 .3-2.77-.58-3-.4043-.0836-.8178-.1138-1.23-.09-.7578-.0725-1.5225.0057-2.25.23-.31.15-.55.48-.4.5.306.026.59.165.8.39.188.375.28.79.27 1.21 0 0 .16 2.3-.38 2.59-.36.2-.86-.2-1.94-2-.38-.643-.714-1.31-1-2-.0519-.1167-.1307-.2195-.23-.3-.1251-.0792-.2643-.1336-.41-.16h-2.53s-.39 0-.53.18 0 .45 0 .45 2 4.65 4.29 7c1.1552 1.2479 2.7697 1.9703 4.47 2z"/></svg>