<svg xmlns="http://www.w3.org/2000/svg" viewBox="0 0 24 24"><path d="m18.7557,16.2621c-.1537.0004-.2996.0676-.4.184-.5857.6968-1.3013,1.2732-2.107,1.697-.403.213-.829.391-1.27.524-.442.137-.902.23-1.367.278-.472.048-.96.047-1.444.002-.4782-.0457-.9506-.1395-1.41-.28-.446-.1338-.8775-.312-1.288-.532-.4-.212-.782-.47-1.14-.756-.3503-.2858-.6731-.6039-.964-.95-.2899-.347-.5464-.7207-.766-1.116-.2171-.3964-.3959-.8126-.534-1.243-.1383-.4373-.2331-.8871-.283-1.343-.1475-1.4047.1398-2.8208.823-4.0569.4437-.7934,1.0365-1.4936,1.746-2.062.3538-.2859.7346-.5368,1.137-.749.8183-.4357,1.7136-.7078,2.6359-.801,1.4297-.1497,2.8714.1317,4.1399.808.8058.4292,1.5212,1.0098,2.107,1.71.1853.217.5094.2476.732.069.2176-.1727.2541-.489.0814-.7067-.0028-.0035-.0056-.0069-.0084-.0103-1.0207-1.2141-2.3715-2.1061-3.8889-2.5679-1.0585-.3217-2.1704-.4295-3.2709-.317-1.5828.165-3.0846.7822-4.3259,1.778-.8107.6526-1.4886,1.4548-1.997,2.363-.5218.9344-.8445,1.9667-.948,3.0319-.1079,1.0639.003,2.1386.326,3.1579.4763,1.4896,1.3784,2.8072,2.5949,3.7899.407.33.848.623,1.307.868.47.25.968.46,1.475.61.7865.2417,1.6052.3624,2.4279.358.28,0,.566-.014.843-.041,1.5827-.1644,3.0846-.7814,4.3259-1.777.4033-.3252.7753-.6874,1.111-1.082.1797-.2097.1554-.5253-.0542-.705-.0052-.0044-.0104-.0088-.0158-.013-.093-.0779-.2106-.1204-.332-.12h.001Zm-7.4298-7.7138c-.1073-.0594-.2377-.0594-.345,0-.1059.0592-.1719.1707-.173.292v6.2039c0,.12.067.233.173.292.1065.0627.2385.0627.345,0l5.4829-3.1029c.161-.0889.2194-.2915.1305-.4525-.0303-.0549-.0756-.1002-.1305-.1305l-5.4829-3.1019Z"/></svg>