<svg viewBox="0 0 24 24" xmlns="http://www.w3.org/2000/svg"><path d="m9.1908 14.38v-3.58c0-.23-.07-.28-.28-.28h-1.64c-.2 0-.28 0-.27-.28v-1.83c-.0094-.1642.1001-.3116.26-.35.9841-.4925 1.8193-1.238 2.42-2.16.5089-.7808.7895-1.6882.81-2.62 0-.23.08-.28.28-.28h1.67c.21 0 .27.07.27.29v4.09c0 .25.06.32.3.32h3.78c.25 0 .3.08.3.32v2.26c0 .22-.07.26-.25.26h-3.83c-.23 0-.31 0-.31.31v5.2c.002.201.018.401.05.6.0921.9322.8733 1.6443 1.81 1.65.9117-.0187 1.8087-.2336 2.63-.63q.31-.13.31.21v2.26c0 .13 0 .22-.15.26-1.6681.5323-3.4279.7161-5.17.54-.6178-.0726-1.2102-.2883-1.73-.63-.8068-.5376-1.2822-1.4508-1.26-2.42z"/></svg>