<svg viewBox="0 0 24 24" xmlns="http://www.w3.org/2000/svg"><path d="m6.9211 5.0106c1.3909-1.3817 3.3025-2.1085 5.26-2 1.702-.064 3.3551.5763 4.57 1.77 1.1524 1.0969 1.788 2.6295 1.75 4.22.0757 1.8235-.4553 3.6206-1.51 5.11-.8806 1.27-2.3347 2.0195-3.88 2-.523.005-1.037-.13-1.49-.39-.401-.196-.733-.51-.95-.9 0 .13-.25 1.07-.74 2.82-.3822 1.237-.989 2.3929-1.79 3.41-.0469.0249-.1031.0249-.15 0-.0004 0-.0007 0-.0011-.0001-.0494-.0058-.0847-.0505-.0789-.0999-.2328-1.303-.2328-2.637 0-3.94.4417-1.8637.8851-3.7271 1.33-5.59l-.08-.2c-.104-.178-.17-.375-.19-.58-.052-.284-.079-.572-.08-.86-.021-.6738.1753-1.3364.56-1.89.3043-.4692.8209-.7575 1.38-.77.3838-.0175.7537.1452 1 .44.2363.3135.3596.6976.35 1.09-.01.339-.064.675-.16 1-.1.39-.24.87-.39 1.39s-.27.95-.35 1.27c-.1363.4844-.0239 1.0049.3 1.39.3199.3846.8001.5988 1.3.58 1.0033-.0452 1.8909-.6641 2.28-1.59.6325-1.193.9427-2.5304.9-3.88.0418-1.0718-.3597-2.1135-1.11-2.88-.8353-.7688-1.9467-1.1657-3.08-1.1-1.3364-.0472-2.6288.4807-3.55 1.45-.9093.9353-1.4063 2.1958-1.38 3.5-.0176.7229.2156 1.4296.66 2 .1538.1421.2156.3581.16.56-.0538.1288-.0941.2628-.12.4-.0401.1439-.0669.2912-.08.44-.0042.0563-.0232.1104-.0551.1569-.0999.1458-.2991.183-.4449.0831-.681-.2926-1.2296-.8269-1.54-1.5-.359-.7624-.5369-1.5975-.52-2.44.019-1.6863.7101-3.2952 1.92-4.47z"/></svg>