<svg viewBox="0 0 24 24" xmlns="http://www.w3.org/2000/svg"><path d="m10.69 11.63h-1.36l.67-1.91zm11.31-.72c0 4.36-4.48 7.9-10 7.9-.623 0-1.244-.048-1.86-.14l-3.84 2.62c-.22.15-.53.05-.42-.39s.65-2.49.86-3.27c-2.84-1.39-4.74-3.88-4.74-6.72 0-4.37 4.48-7.91 10-7.91s10 3.55 10 7.91zm-14.9-1.34h.9c.2761 0 .5-.2239.5-.5s-.2239-.5-.5-.5h-3c-.2761 0-.5.2239-.5.5s.2239.5.5.5h1v3.5c-.0016.1326.0529.2597.15.35.0889.0919.2121.1426.34.14h.1c.0067.0001.0135.0001.0202 0 .265-.0056.4754-.225.4698-.49zm5.03 3.36-1.46-4c-.1166-.2684-.3878-.4359-.68-.42-.325-.0218-.621.1866-.71.5v.06l-1.44 3.85c-.0444.1191-.0386.2512.016.366.0549.1079.1477.1916.2606.2351.2525.0973.5361-.0286.6334-.2811l.25-.71h2l.25.71c.0009.0025.0018.005.0027.0075.0925.2485.3688.3749.6173.2825.2344-.0971.3495-.3626.26-.6zm3.33.18c-.0053-.2518-.2082-.4547-.46-.46h-1.38v-3.57c.0067-.0486.0067-.098 0-.1466-.0405-.2955-.3128-.5022-.6083-.4617s-.5022.3128-.4617.6083v4c0 .2485.2015.45.45.45h2c.2392.0009.4392-.1817.46-.42zm3.89-.31-1.52-2 1.37-1.42c.0073-.0069.0144-.0139.0213-.0213.1791-.1909.1696-.4909-.0213-.67s-.4909-.1696-.67.0213l-1.69 1.69v-1.4005c-.0001-.2982-.242-.5399-.5402-.5398s-.5399.242-.5398.5402v4.0005c.0001.2982.242.5399.5402.5398s.5399-.242.5398-.5402v-1.2l.3-.31 1.44 1.88c.1577.2121.4572.2568.67.1.2121-.1577.2568-.4572.1-.67z"/></svg>