<svg viewBox="0 0 24 24" xmlns="http://www.w3.org/2000/svg"><path d="m20.82 8.59c-.088-.6166-.3363-1.1994-.72-1.69-.4865-.4615-1.1294-.7223-1.8-.73-2.52-.17-6.3-.17-6.3-.17s-3.78 0-6.3.17c-.6734.0082-1.3193.2687-1.81.73-.3822.4905-.6272 1.0737-.71 1.69-.112.9159-.1721 1.8373-.18 2.76v1.29c.008.926.068 1.85.18 2.77.0898.6161.3379 1.1984.72 1.69.5609.4696 1.2685.7278 2 .73 1.42.17 6.1.17 6.1.17s3.78 0 6.3-.18c.6698-.002 1.3136-.2595 1.8-.72.3821-.4916.6302-1.0739.72-1.69.1123-.9192.1724-1.844.18-2.77v-1.29c-.0079-.9227-.068-1.8441-.18-2.76zm-10.68 5.62v-4.79l4.86 2.4z"/></svg>