<svg viewBox="0 0 24 24" xmlns="http://www.w3.org/2000/svg"><path d="m11.86 8.3244h3.23c.8 0 2.54 0 3 .05l-.42.67c-.5838.0735-1.1618.1871-1.73.34-.42.14-4 3-4.22 3.71-.061.33-.091.665-.09 1l-.05.58c.021.459.068.916.14 1.37.23.05 1.92 0 2.25.05l-.05.73h-3.7c-.66 0-2.67.05-3.28.05l.06-.65c.33 0 1.74.05 2.06-.29.14-.15.1-.34.1-1.32v-.44c.02-.333.02-.667 0-1-1.2069-1.8535-2.5792-3.594-4.1-5.2-.23 0-1.69-.19-2.06-.29v-.64c.19-.1 1.83 0 3.42 0h3.71l-.1.53c-.28.1-1.83.15-2.2.25 1 1.56 2.62 3.61 3.14 4.39.28-.44 2.81-2.24 2.9-2.88-.6173-.132-1.2417-.2288-1.87-.29l-.14-.73zm8-.25c.79.1.94.1 1.17.15l-.36 1.12c-.33.93-1.17 5-1.26 5.27l-1.13-.1c.1-.58 0-5.17 0-5.66l-.05-1c.5286.0983 1.0631.1618 1.6.19zm-1.86 7.52.8.1h.65l-.18 1.37h-.61l-.61-.09z"/></svg>