<svg viewBox="0 0 24 24" xmlns="http://www.w3.org/2000/svg"><path d="m9.5721 7.0024 1.75 3.11c-.07.13-1 1.78-2.74 5-.1147.2855-.383.4799-.69.5h-2.57c-.1275-.0024-.2447-.0705-.31-.18-.0161-.0657-.0161-.1343 0-.2-.0161-.0623-.0161-.1277 0-.19l2.7-4.88-1.72-3c-.0801-.1249-.0801-.2851 0-.41.0743-.1129.2056-.1747.34-.16h2.54c.2905-.0005.5584.1564.7.41zm10.33-3.43-5.62 10.16 3.58 6.69c.0754.1263.0754.2837 0 .41-.0772.1096-.2064.1704-.34.16h-2.54c-.3109-.007-.587-.2003-.7-.49l-3.61-6.77 5.65-10.24c.1122-.2816.3774-.4727.68-.49h2.57c.1318-.0156.2607.0468.33.16.0801.1249.0801.2851 0 .41z"/></svg>