<svg xmlns="http://www.w3.org/2000/svg" viewBox="0 0 24 24"><path d="m9.37,5c3.13,0,5.88,1.9,6.43,4.46h-.61c-2.8762-.1128-5.3009,2.124-5.42,5,0,.45.067.9.2,1.33h-.6c-.752-.029-1.5-.136-2.23-.32l-2.23,1.13.64-1.91c-1.5269-.9007-2.4884-2.5183-2.55-4.29,0-3.02,2.87-5.4,6.37-5.4Zm-2.07,4.31c.4191.0227.7773-.2987.8-.7178.0015-.0274.0015-.0548,0-.0822.0231-.4136-.2935-.7675-.7071-.7906-.031-.0017-.062-.0015-.0929.0006-.4874-.0634-.934.2803-.9974.7677-.001.0074-.0018.0148-.0026.0223.0518.4943.4946.8531.989.8012.0037-.0004.0074-.0008.011-.0012Zm4.46,0c.4191.0227.7773-.2987.8-.7178.0015-.0274.0015-.0548,0-.0822.0225-.4142-.2951-.7681-.7092-.7906-.0302-.0016-.0606-.0014-.0908.0006-.4874-.0634-.934.2803-.9974.7677-.001.0074-.0018.0148-.0026.0223.0506.4934.4916.8523.985.8017.005-.0005.01-.0011.015-.0017Zm9.24,5.07c-.1288,1.4994-.9547,2.8511-2.23,3.65l.48,1.59-1.75-.95c-.6213.1837-1.2627.2911-1.91.32-3,0-5.42-2.07-5.42-4.61s2.39-4.61,5.42-4.61c2.86,0,5.41,2.07,5.41,4.61Zm-7.17-.8c.3967.041.7529-.2439.8-.64-.052-.392-.4067-.6714-.8-.63-.3507-.0483-.6742.1968-.7225.5475s.1968.6742.5475.7225c.0581.008.1169.008.175,0Zm3.51,0c.3947.0408.748-.2454.79-.64-.052-.3878-.4004-.6656-.79-.63-.3507-.0483-.6742.1968-.7225.5475s.1968.6742.5475.7225c.0581.008.1169.008.175,0Z"/></svg>