<svg viewBox="0 0 24 24" xmlns="http://www.w3.org/2000/svg"><path d="m9.4374 15.86h1.12v2.5h-1.01c-.4669-.0565-.8475-.401-.95-.86-.068-.3176-.0402-.6482.08-.95.1372-.3322.4161-.5854.76-.69zm-2.88-3.37c-2 .42-2.74-1.85-2.52-2.9 0 0 .24-2.29 1.85-2.43 1.1656.0416 2.1403.8992 2.33 2.05.06.51.34 2.86-1.66 3.28zm12.08 3.12c1.0735.9813 1.3266 2.5743.61 3.84-1.09 2.52-5.08 1.21-5.08 1.21-1.041-.2834-2.1347-.3142-3.19-.09-1.0443.223-2.1145.3005-3.18.23-1.3348-.0746-2.4208-1.1015-2.57-2.43-.57-2.48 2-3.83 2.18-4.06.9132-.722 1.7151-1.5744 2.38-2.53.86-1.4 3.42-2.52 5.23.24 1.0499 1.345 2.2663 2.5513 3.62 3.59zm-6.84 3.76v-6.15h-1.18v1.67h-1.38c-.894.1261-1.6283.7701-1.87 1.64-.1185.5932-.0486 1.2085.2 1.76.3513.5922.9494.9958 1.63 1.1zm4.84 0v-4.37h-1.29v3.25h-1.23s-.4-.05-.47-.3v-2.89l-1.21-.06v3.23s.06.81 1.22 1.1zm4.23-8.64c0 .56.24 2.94-1.95 3s-2.28-1.45-2.28-2.52.23-2.72 2-2.72c1.2167.0263 2.1983 1.0034 2.23 2.22zm-5.85-2c-1.47-.19-1.81-1.5-1.66-2.81.12-1.07 1.42-2.71 2.47-2.47 1.1789.3838 1.9319 1.5362 1.81 2.77-.2 1.17-1.14 2.72-2.62 2.53zm-4.75-.17c-1.11 0-2-1.24-2-2.78s.89-2.78 2-2.78 2 1.24 2 2.78-.9 2.78-2 2.78z"/></svg>