<svg viewBox="0 0 24 24" xmlns="http://www.w3.org/2000/svg"><path d="m18.9979 11.0852c0-.9737.0035-2.0767.0015-3.0874-.0005-.2754-.2241-.4978-.4995-.4978h-3.6669c-.276 0-.4999.2237-.5.4997l-.0013 2.2503c0 .5-.1635.93-.8146.9262-.4662-.0028-.9332-.0121-1.3993 0-1.0353 0-1.8359.21-2.4515.5191.0016-3.0369 0-6.1505-.0002-9.1953 0-.2761-.2239-.4999-.5-.4999h-3.6662c-.2761 0-.5.2159-.5.4921v19.0158c0 .2761.2238.4921.5.4921h3.667c.2759 0 .4995-.2234.5002-.4993.0024-1.0208.0069-1.9961.0057-3.0346-.0009-.49.194-.9509.5494-1.2981.3553-.3473.8284-.5373 1.3312-.5373h.9021c1.0306 0 1.875.8173 1.8797 1.8246.0041 1.0415.0008 2.0198-.0017 3.0437-.0007.2765.2233.501.4999.501h3.6642c.2761 0 .5-.2239.5-.5v-4.5011c0-1.43-1.0261-2.5109-1.8142-3.1637.7798-.6863 1.8146-1.5772 1.8146-2.75z"/></svg>