<svg viewBox="0 0 24 24" xmlns="http://www.w3.org/2000/svg"><path d="m12 2c-5.523 0-10 4.477-10 10s4.477 10 10 10 10-4.477 10-10-4.477-10-10-10zm4.586 14.424c-.1792.2937-.5625.3866-.8563.2074l-.0007-.0004c-2.348-1.436-5.304-1.76-8.785-.965-.3404.054-.6601-.1781-.7141-.5185-.049-.3086.1378-.6058.4371-.6955 3.809-.871 7.076-.496 9.712 1.114.294.18.386.563.207.857zm1.224-2.724c-.2256.367-.706.4816-1.073.256-2.687-1.652-6.785-2.13-9.964-1.166-.415.1154-.845-.1275-.9605-.5425-.1115-.4009.1114-.8188.5065-.9495 3.632-1.101 8.148-.568 11.234 1.329.3664.2256.4809.7052.256 1.072zm.106-2.836c-3.224-1.914-8.541-2.089-11.618-1.155-.4943.1499-1.0166-.1292-1.1665-.6235s.1292-1.0166.6235-1.1665c3.532-1.073 9.404-.865 13.116 1.337.4443.2637.5907.8377.327 1.282s-.8377.5907-1.282.327z"/></svg>