<svg xmlns="http://www.w3.org/2000/svg" viewBox="0 0 24 24"><path d="m20.9984,7.9852c-.0009-.1808-.0036-.3617-.0082-.5425-.0049-.3964-.0396-.7919-.1039-1.1831-.0666-.3908-.1913-.7694-.3698-1.1234-.3625-.7117-.9411-1.2903-1.6527-1.6527-.354-.1785-.7326-.3034-1.1234-.3706-.3909-.0642-.7861-.099-1.1823-.1039-.1813-.0046-.3627-.0073-.5441-.0082l-.6439-.0008h-6.7402c-.2144,0-.4295,0-.6447.0016-.1808,0-.3616.0033-.5433.0074-.3961.0051-.7913.0399-1.1823.1039-.3911.0671-.7691.1923-1.1234.3706-.7114.3626-1.2896.9412-1.6519,1.6527-.1791.3541-.3043.733-.3715,1.1242-.0638.3911-.0982.7855-.1031,1.1815-.0046.1811-.0073.3622-.0082.5433-.0016.2152-.0016.4304-.0016.6455v6.7385c0,.2152,0,.4295.0016.6447.0008.1816.0033.3625.0082.5441.0049.3952.0393.7904.1039,1.1815.0663.3911.1915.7699.3698,1.125.3626.7114.9412,1.2896,1.6527,1.6519.3535.1784.7323.3035,1.1234.3706.3911.0646.7863.099,1.1831.1039.1808.0041.3616.0074.5425.0082l.6447.0008h6.7394c.2152,0,.4295,0,.6447-.0016.1816,0,.3625-.0033.5433-.0082.3961-.0048.7914-.0395,1.1823-.1039.3911-.0663.7699-.1906,1.1234-.3698.7117-.3625,1.2903-.9411,1.6527-1.6527.1784-.3543.3035-.7331.3706-1.1242.0638-.3911.099-.7863.1039-1.1823.0049-.1808.0065-.3616.0082-.5433.0016-.2144.0016-.4295.0016-.6447v-6.7385c0-.2152,0-.4304-.0016-.6447v-.0008Zm-7.4847,7.2736c-.0617.6811-.1457,1.36-.252,2.0356-.0826.5335-.1505.8215-.2111,1.0276-.0998.3338-.4705.6259-1.0505.6259s-.9507-.2921-1.0505-.6259c-.0614-.2062-.1285-.4942-.2111-1.0276-.1064-.6759-.1907-1.3551-.2528-2.0365-.0491-.5785-.0745-.9409-.0286-1.3606.0152-.1957.0996-.3796.2381-.5187.27-.2855.7445-.468,1.305-.468.5596,0,1.0342.1833,1.305.468.1407.1489.2152.3011.2381.5179.0458.4205.0205.783-.0286,1.3623h-.0008Zm-3.8594-1.3991c.0563.053.0862.1282.0818.2054-.0131.2356-.0082.4647.0074.7233.0025.046-.0328.0854-.0788.0878-.0182.001-.0362-.004-.0513-.0142-1.1759-.7999-1.8721-2.1362-1.854-3.5583.0286-2.2451,1.8295-4.095,4.0729-4.1817,2.3426-.0904,4.3148,1.7354,4.4052,4.0779.002.0528.0031.1057.0032.1586-.0004,1.4028-.6948,2.7146-1.8548,3.5035-.0382.0258-.0901.0158-.1159-.0224-.0102-.0151-.0152-.0331-.0142-.0513.0164-.2585.0213-.4876.0082-.7233-.0044-.0772.0256-.1523.0818-.2054.692-.6474,1.0846-1.5527,1.0841-2.5004-.0018-1.8965-1.5406-3.4325-3.4371-3.4307-.0429,0-.0857.0009-.1285.0025-1.8027.076-3.2403,1.5322-3.2932,3.3357-.0267.9795.3677,1.9235,1.0833,2.5928Zm3.8193-3.0175c0,.8136-.6595,1.4731-1.4731,1.4731s-1.4731-.6595-1.4731-1.4731c.0004-.8134.6601-1.4724,1.4735-1.472.8128.0004,1.4716.6592,1.472,1.472h.0008Zm.6218,6.4898c-.0437.0159-.0921-.0066-.108-.0503-.0049-.0135-.0063-.028-.004-.0422.0327-.216.063-.4336.0916-.648.009-.0756.0572-.1409.1268-.1718,2.0133-.8777,3.3159-2.8641,3.3185-5.0605-.0031-3.0519-2.4797-5.5235-5.5316-5.5204-.0115,0-.023,0-.0345.0001-2.997.0245-5.445,2.4685-5.4736,5.4655-.0198,2.2159,1.2858,4.2293,3.3169,5.1153.0697.0309.1181.0961.1276.1718.0286.2135.0589.432.0916.648.0072.046-.0243.0891-.0703.0962-.0138.0021-.0278.0008-.041-.0038-2.4881-.8755-4.2693-3.2621-4.2349-6.0529.0425-3.4445,2.8653-6.2403,6.3106-6.2501,3.4985-.0098,6.3491,2.8334,6.3491,6.3295,0,2.7573-1.7714,5.1071-4.2349,5.9735Z"/></svg>