<svg viewBox="0 0 24 24" xmlns="http://www.w3.org/2000/svg"><path d="m20.4287 13.05c-.3408-.6963-.7353-1.365-1.18-2 .2393-.517.2393-1.113 0-1.63-.1384-.2112-.2621-.4317-.37-.66-.13-.37-.11-.8-.2-1.15-.082-.3396-.1856-.6736-.31-1-.82-2.16-2.57-3.35-5.36-3.61h-1.08c-.7825.0597-1.5514.2385-2.28.53-.6128.2658-1.1694.6459-1.64 1.12-1.0187.948-1.6762 2.2206-1.86 3.6v.36c0 .11-.14.18-.14.3-.0771.222-.1176.455-.12.69-.3279.4146-.4359.9619-.29 1.47-.7807.5652-1.4346 1.2873-1.92 2.12-.4949.8503-.728 1.8278-.67 2.81 0 .31.08.77.34.83.1425.0108.2851-.0205.41-.09.3362-.1744.6246-.4285.84-.74.09-.15.11-.34.26-.45.0668.1439.1172.2948.15.45.295.7847.7959 1.4756 1.45 2 .1.08.26.16.29.27-.67.06-1.21.2-1.44.64-.1159.2569-.1641.5392-.14.82.06.52.67.81 1.13 1 1.0157.2745 2.0722.366 3.12.27.8233-.0272 1.6271-.2573 2.34-.67.11-.06.19-.16.28-.17.133-.007.267-.007.4 0h.38c.293.074.58.167.86.28 1.53.49 4.11.6 5.35-.18.24-.1349.4136-.3628.48-.63.0168-.3524-.1806-.6801-.5-.83-.3876-.268-.7955-.5054-1.22-.71.4754-.4769.8495-1.0449 1.1-1.67.059-.224.16-.435.3-.62.125.245.265.482.42.71.14.2.33.52.6.51.1709-.0221.3222-.1217.41-.27.23-.334.366-.725.39-1.13.0513-.8897-.1461-1.7761-.57-2.56z"/></svg>