<svg viewBox="0 0 24 24" xmlns="http://www.w3.org/2000/svg"><path d="m3 14.8622c.0496 1.5032.9382 2.8516 2.3 3.49 1.6017.8984 3.4138 1.354 5.25 1.32 2.057.0715 4.085-.5019 5.8-1.64 1.57-1.1 2.35-2.26 2.35-3.48.0206-.5907-.2123-1.162-.64-1.57-.4375-.4193-.969-.7279-1.55-.9-.273-.087-.363-.237-.27-.45.306-.5574.306-1.2326 0-1.79-.3775-.4586-.9589-.6986-1.55-.64-.8492.03-1.6831.2342-2.45.6-.31.12-.46.09-.46-.09v-.1c.3431-.6946.2739-1.5221-.18-2.15-.48-.49-1.3-.5-2.46-.05-1.296.5574-2.4687 1.3664-3.45 2.38-1.793 1.8-2.69 3.49-2.69 5.07zm1.84.71c-.0641-1.061.4381-2.0767 1.32-2.67 1.0687-.8305 2.36-1.3247 3.71-1.42 1.34-.1758 2.7019.0541 3.91.66.9821.4084 1.6746 1.3063 1.82 2.36.0597 1.0649-.4505 2.0815-1.34 2.67-1.0631.8403-2.3575 1.3357-3.71 1.42-1.3342.1579-2.6855-.0748-3.89-.67-.9794-.4066-1.6713-1.3001-1.82-2.35zm2.35.91c.2597.6236.7962 1.0899 1.45 1.26.7368.2498 1.541.2104 2.25-.11.7069-.2794 1.2724-.8305 1.57-1.53.3148-.6013.3148-1.3187 0-1.92-.3184-.6121-.8947-1.0489-1.57-1.19-.7035-.1796-1.4471-.1162-2.11.18-.6696.2654-1.2155.772-1.53 1.42-.289.6004-.289 1.2996 0 1.9zm.81-.27c-.0681-.2349-.0277-.4879.11-.69.1377-.2212.3454-.3902.59-.48.2405-.0973.5095-.0973.75 0 .2253.0823.3968.2686.46.5.0566.2394.0055.4916-.14.69-.1506.2175-.3632.3848-.61.48-.2329.1007-.4971.1007-.73 0-.2178-.0845-.3791-.272-.43-.5zm2.09-1.44c.0765-.1835.2873-.2702.4708-.1937.0099.0041.0197.0087.0292.0137.21.09.26.24.14.46-.0765.1835-.2873.2702-.4708.1937-.0099-.0041-.0197-.0087-.0292-.0137-.23-.09-.23-.25-.13-.46zm4.63-8.82c.0415.163.141.3052.28.4.1426.1081.3239.1517.5.12 1.1795-.3192 2.4372.0702 3.23 1 .8631.8816 1.1466 2.1788.73 3.34-.0645.1604-.0645.3396 0 .5.0652.1712.2115.2987.39.34.1785.0595.3715.0595.55 0 .168-.0644.2896-.2127.32-.39.5382-1.6292.1559-3.422-1-4.69-.5639-.633-1.29-1.0998-2.1-1.35-.7869-.2428-1.6217-.2874-2.43-.13-.177.0517-.3296.1653-.43.32-.1082.1427-.1417.3285-.09.5zm.59 2.31c.07.38.31.52.7.43.3989-.1099.8242.0372 1.07.37.2776.2896.3736.7083.25 1.09-.1347.2723-.0232.6022.249.7369.0385.0191.0791.0335.121.0431.36.12.6 0 .72-.41.3058-.7715.1425-1.6499-.42-2.26-.5375-.6439-1.398-.9203-2.21-.71-.2904.037-.4958.3023-.4588.5927.0051.0401.0148.0794.0288.1173z"/></svg>