<svg viewBox="0 0 24 24" xmlns="http://www.w3.org/2000/svg"><path d="m5.101 8.1732s.68-1.53.78-1.73.35-.61.83-.37.2.82.2.82l-2 4.45s-.33.52-.77.28-.22-.8-.22-.8l.61-1.32s-1.05-1.8-1.42-2.5c-.1679-.259-.1434-.5979.06-.83.42-.27.71-.11.94.25s.99 1.75.99 1.75zm3.53-2.16c1.1028.0626 1.946 1.0073 1.8835 2.1101-.0009.0166-.0021.0333-.0035.0499.0019 1.0594-.8226 1.9364-1.88 2-1.0893-.0749-1.9172-1.0096-1.86-2.1-.0349-1.0751.7869-1.9853 1.86-2.06zm0 3.2c.49 0 .86-.45.86-1.1s-.35-1.08-.85-1.08-.87.43-.87 1.08.38 1.06.87 1.06zm2-2.51c0-.25.09-.62.52-.62s.48.35.48.6v1.84c0 .37.15.84.71.84s.68-.52.68-.85v-1.82c0-.26.09-.6.49-.6.2813.0139.4982.2531.4843.5345-.0008.0152-.0022.0304-.0043.0455v2c0 .83-.44 1.53-1.69 1.53-.8041.1118-1.5466-.4495-1.6584-1.2536-.0132-.0949-.0171-.1908-.0116-.2864v-2zm7 0c0-.25.09-.62.52-.62s.47.35.47.6v1.84c0 .37.15.84.71.84s.69-.52.69-.85v-1.82c0-.26.08-.6.48-.6.2815.0084.503.2434.4946.5249-.0005.0184-.0021.0368-.0046.0551v2c0 .83-.44 1.53-1.68 1.53-.8041.1118-1.5466-.4495-1.6584-1.2536-.0132-.0949-.0171-.1908-.0116-.2864v-2zm-3.5 2.89v-2.82c-.0409-.301.17-.5781.471-.619s.5781.17.619.471c.0067.0491.0067.0989 0 .148v1s1.18-1.25 1.42-1.47c.2155-.1981.5508-.1839.7489.0316.0352.0383.0645.0815.0871.1284.0839.1892.0372.4108-.116.55-.22.25-1 1.07-1 1.07l1.15 1.19c.2016.1879.2127.5037.0247.7053-.008.0085-.0162.0168-.0247.0247-.2376.208-.5924.208-.83 0l-1.45-1.38v1c.0434.3001-.1648.5785-.4649.6219-.186.0269-.3728-.0433-.4951-.1859-.1042-.1198-.1516-.2787-.13-.436zm-6.3 3.06c-.1469.5246-.3445 1.0337-.59 1.52v4.15h-.72v-2.9c-.113.202-.24.396-.38.58l-.64-.48c.6725-1.0062 1.2041-2.0997 1.58-3.25zm-.07 5.71-.64-.56c.9746-.7756 1.5537-1.9447 1.58-3.19h-1.22v-.64h1.29v-1.64h.7v1.64h2.28v.64h-1.37v2.93c0 .08 0 .12.11.12h.5c.08 0 .14-.05.18-.16.047-.3581.0704-.7189.07-1.08l.76.23v.61c.0628.5163-.2807.9946-.79 1.1h-.94c-.3257-.0378-.5781-.3028-.6-.63v-3.1h-.18c-.0355 1.4349-.6614 2.7917-1.73 3.75zm3.87-5-.48.53-1.16-1 .49-.52 1.15 1zm5.88 1.39h1.19v.6h-3.07v-.6h1.24v-.86h-.59c-.0377.2333-.0912.4639-.16.69l-.61-.1c.131-.593.218-1.194.26-1.8h.67c.005.204-.012.409-.05.61h.47v-.84h.66v.84h.94v.61h-.95v.86zm-1.75 3v-2.07h2.69v2.17s-.07.51-.54.51h-1.67c-.25 0-.48-.19-.48-.61zm.69-1.47v1.31s0 .15.2.15h1c.0765.0113.1477-.0415.159-.118.0016-.0106.0019-.0213.001-.032v-1.31zm-1.27-2.55c.2 0 .22.1.22.32v3.72s-.27.59-.49.59h-1.92c-.37 0-.65-.16-.65-.56v-3.84c-.0094-.096.0474-.1861.138-.219.0295-.0105.0609-.0142.092-.011h.73v-.56h-1v-.61h3.09v.61h-.82v.6zm-.61.73v.89c0 .08 0 .12.08.12h.16v-1zm-.72-1.29v.6h.14v-.6zm-.86 1.29v1.19c.1574-.2189.2446-.4804.25-.75v-.44zm0 1.46v.48h1.78v-.36h-.37c-.2594-.0105-.4611-.2293-.4506-.4886.0002-.0038.0004-.0076.0006-.0114v-1.08h-.13v.4c.051.4836-.1178.9645-.46 1.31zm1.66 1.82c.16 0 .12-.11.12-.11v-.62h-1.78v.62c.0053.0661.0631.1153.1292.1101h.0008 1.53z"/></svg>