<svg id="Default" xmlns="http://www.w3.org/2000/svg" viewBox="0 0 24 24"><path d="M11.05,13.73,12,15,13,13.73s.74-1,1.47-2.15C15.84,9.31,16,8.34,16,7.81A3.91,3.91,0,0,0,12,4h0A3.91,3.91,0,0,0,8,7.81c0,.53.16,1.5,1.58,3.77C10.31,12.74,11,13.69,11.05,13.73ZM12,5h0a2.92,2.92,0,0,1,3,2.81,7.78,7.78,0,0,1-1.43,3.24c-.68,1.09-1.35,2-1.42,2.09l-.15.19-.15-.2s-.7-.94-1.42-2.08A7.78,7.78,0,0,1,9,7.81,2.92,2.92,0,0,1,12,5Z"/><polygon points="18 12 15.76 12 15.21 13 17.43 13 19.23 16 4.77 16 6.57 13 8.79 13 8.24 12 6 12 3 17 21 17 18 12"/></svg>