<svg viewBox="0 0 24 24" xmlns="http://www.w3.org/2000/svg"><path d="m12 3c2.531 0 4.5 2.068 4.5 4.727 0 3.25-4.5 8.273-4.5 8.273s-4.5-5.023-4.5-8.273c0-2.659 1.969-4.727 4.5-4.727zm0 1c-1.7479.0074-3.5 1.3898-3.5 3.757 0 2.238 2.373 5.378 3.5 6.743 1.127-1.365 3.5-4.505 3.5-6.743 0-2.3902-1.8376-3.7641-3.5-3.757zm0 2c.8284 0 1.5.6716 1.5 1.5s-.6716 1.5-1.5 1.5-1.5-.6716-1.5-1.5.6716-1.5 1.5-1.5zm10.0438 12.47-3.75-6c-.1827-.2924-.5032-.47-.848-.47h-1.3429c-.1908.3427-.3927.6753-.5979 1h1.9409l3.7499 6h-18.3915l3.75-6h1.9408c-.2052-.3247-.4071-.6573-.5979-1h-1.3429c-.3448 0-.6653.1776-.848.47l-3.75 6c-.4163.6661.0626 1.53.848 1.53h18.3915c.7855 0 1.2643-.864.848-1.53z"/></svg>