<svg xmlns="http://www.w3.org/2000/svg" viewBox="0 0 24 24"><path d="m15.4985,4.0147c-.6382.3958-1.2277.8662-1.7623,1.4075-3.6138,3.7079-3.5435,9.6709.1478,13.2839.4869.4885,1.0232.9175,1.6023,1.2825-.1413.0078-.4865.0117-.4865.0117-2.1208,0-4.1191-.8215-5.6267-2.3133-1.519-1.5029-2.3618-3.5074-2.3731-5.6443-.0114-2.1368.8101-4.1502,2.317-5.6732,1.4732-1.5059,3.5262-2.3694,5.65-2.3693,0,0,.3676.0048.5313.0146Zm-.5488-1.0146c-2.3888-.0001-4.6766.9623-6.3474,2.67-3.496,3.5333-3.4658,9.2318.0675,12.7277,1.6853,1.6675,3.9604,2.6024,6.33,2.6024.0143,0,1.1821-.0537,1.7325-.1602.2709-.0541.4765-.2758.51-.55.0376-.2672-.0937-.5298-.33-.66-.8625-.4038-1.6477-.9554-2.32-1.63-3.3143-3.244-3.3769-8.5588-.14-11.88.7134-.7222,1.5498-1.3114,2.47-1.74.2486-.1154.3941-.3781.36-.65-.0324-.2767-.2375-.5019-.51-.56-.582-.1132-1.8186-.17-1.8227-.17Z"/></svg>