<svg viewBox="0 0 24 24" xmlns="http://www.w3.org/2000/svg"><path d="m19.6 6h-8.48c-.18 0-.31.1-.37.28-.1.32.08.61.39.61h7.95.14v9.82h-.15c-.85 0-1.71 0-2.56 0-.28 0-.43.17-.43.49v1.28.16c-.04-.06-.06-.09-.08-.12-.35-.52-.7-1.05-1.05-1.57-.11-.17-.24-.24-.42-.24-2.52 0-5.05 0-7.57 0-.03 0-.07 0-.11-.01v-.23c0-1.51 0-3.01 0-4.52 0-.05 0-.1 0-.15-.03-.25-.23-.42-.44-.38s-.32.22-.32.5v5.14c0 .37.14.53.45.53h7.76c.09 0 .14.03.2.11.55.83 1.11 1.66 1.66 2.49.12.18.28.24.45.17.16-.06.25-.23.25-.45 0-.71 0-1.42 0-2.14v-.19h2.74c.26 0 .41-.17.41-.47v-10.64c0-.3-.15-.47-.4-.47z"/><path d="m6.35 9.19c.24.07.45-.12.45-.43 0-.59 0-1.19 0-1.78v-.16h.14 1.55c.23 0 .38-.17.38-.42s-.15-.41-.38-.41c-.52 0-1.05 0-1.57 0h-.11c0-.06 0-.1 0-.15 0-.59 0-1.19 0-1.78 0-.23-.11-.4-.28-.44-.24-.06-.45.13-.45.44v1.8.15h-.14c-.52 0-1.04 0-1.56 0-.08 0-.17.04-.24.09-.13.1-.16.29-.11.46s.18.27.35.27h1.58.12v.16 1.76c0 .24.1.4.27.45z"/></svg>