<svg viewBox="0 0 24 24" xmlns="http://www.w3.org/2000/svg"><path d="m19 3c1.1046 0 2 .8954 2 2v12.5c.0001 1.8585-1.4523 3.393-3.308 3.495l-.192.005h-12.112c-1.272-.0586-2.2974-1.0626-2.383-2.333l-.005-.167v-6.5h4v-7c0-1.1046.8954-2 2-2zm-12 10h-3v5.5c-.0002.7187.5094 1.3365 1.215 1.473l.14.02.145.007c.14 0 .275-.02.403-.055l.132-.043.067-.028.07-.032c.4613-.2312.7715-.6833.821-1.197l.007-.145zm13-7.75c0-.69-.56-1.25-1.25-1.25h-9.5c-.69 0-1.25.56-1.25 1.25v13.25l-.002.095-.007.123-.009.08-.018.124-.036.176c-.03.12-.068.238-.114.351l-.1.214-.061.109-.063.1-.07.1-.022.028h10.002c1.2548.0002 2.3154-.9299 2.479-2.174l.016-.162.005-.164zm-8 5.75v-1h-2v1zm6 0v-1h-5v1zm0-3v-1h-8v1zm-6 9v-1h-2v1zm6 0v-1h-5v1zm-6-3v-1h-2v1zm6 0v-1h-5v1z"/></svg>