<svg viewBox="0 0 24 24" xmlns="http://www.w3.org/2000/svg"><path d="m22 13c0 .5522-.4478 1-1 1s-1-.4478-1-1c0-.553.584-1.25 1-2 .416.75 1 1.447 1 2zm-1.557-3.0649-.8573-.9136-5.5791 7.6228c-.1899.2256-.4697.3557-.7646.3557h-8.242c-.5522 0-1-.4478-1-1v-4.387c-.104-.0002-.2103-.0166-.3163-.0518l-1-.3333c-.4083-.1362-.6837-.5183-.6837-.9487v-1.8918c0-.5706.467-1.0007.9985-1.0007.1045 0 .2113.0166.3177.052l1.6837.5613h2v-1h-.5c-.2761 0-.5-.2239-.5-.5s.2239-.5.5-.5h2c.2761 0 .5.2239.5.5s-.2239.5-.5.5h-.5v1h3.4141l.9749.9761 7.6111-.9761 1.172 1.25zm-16.443-1.2144-.9978-.3325-.0022 1.8911.9999.3333v-1.8918zm14.3693.4324-6.3452.8718-1.0229-1.0249h-6.001v7h8.293l5.0762-6.8469z"/></svg>