<svg viewBox="0 0 24 24" xmlns="http://www.w3.org/2000/svg"><path d="m10 11.5003c2.7614 0 5-2.2386 5-5s-2.2386-5-5-5-5 2.2386-5 5c0 1.019.514 2.21 1.037 3l-4.537 4.537.75.75 4.537-4.537c.0006.0004 1.176 1.25 3.213 1.25zm.037-9c2.206 0 3.963 1.795 3.963 4s-1.794 4-4 4-4-1.795-4-4 1.832-4 4.037-4zm5.888 2.84c.1763.8957.1462 1.8197-.088 2.702.2321.8051.4019 1.6268.508 2.458h-1.836c-.3407.3809-.7285.7169-1.154 1h3.098c.1183 1.3784.0922 2.9095 0 4h-5.832c-.0839-1.0051-.163-1.9923-.121-3-.1795.0147-.84.01-1-.012-.0158.3843.0589 2.2926.117 3.012h-3.31c-.2843-1.0347-.345-2.118-.178-3.178l-1.129 1.1777c0 6 5 8.5 8.5 8.5 6 0 8.5-4.4997 8.5-8.4997 0-3.6801-2.3649-7.0738-6.075-8.16zm.442 1.212c1.8104.7402 3.2616 2.1562 4.046 3.948h-3.06c-.167-1.3159-.8982-3.7418-.986-3.948zm-9.706 9.948h3.06c.167 1.3159.8966 3.7375.986 3.948-1.8104-.7402-3.2616-2.1562-4.046-3.948zm8.384 4.348c-.9954.2033-2.0216.2033-3.017 0-.591-.977-1.054-2.5099-1.299-4.348h5.616c-.245 1.837-.7079 3.371-1.3 4.348zm1.322-.4c.1035-.2432.806-2.5297.986-3.948h3.06c-.7844 1.7917-2.2356 3.2078-4.046 3.948zm4.4-4.948h-3.3101c.1082-1.3312.1082-2.6689 0-4h3.3101c.176.637.27 1.307.27 2s-.094 1.363-.27 2z"/></svg>