<svg viewBox="0 0 24 24" xmlns="http://www.w3.org/2000/svg"><path d="m12 6c3.3084 0 6 2.6916 6 6s-2.6916 6-6 6-6-2.6916-6-6 2.6916-6 6-6m0-1c-3.866 0-7 3.134-7 7s3.134 7 7 7 7-3.134 7-7-3.134-7-7-7zm.545 3.6654h-2.0985v6.6693h.7779v-2.6506h1.3019c1.2179 0 1.9202-.4501 1.9202-1.9763 0-1.4989-.5622-2.0425-1.9015-2.0425zm-.0187 3.3724h-1.3019v-2.6607h1.3206c.8145 0 1.1236.2811 1.1236 1.3308 0 1.0768-.3091 1.3299-1.1422 1.3299zm-6.1836 5.619c-1.5107-1.5107-2.3428-3.52-2.3428-5.6567s.832-4.146 2.3428-5.6567l-.707-.707c-1.7002 1.6997-2.6357 3.96-2.6357 6.3638s.9355 4.6641 2.6357 6.3638l.707-.707zm14.6572-5.6567c0-2.4038-.9355-4.6641-2.6357-6.3638l-.707.707c1.5107 1.5107 2.3428 3.52 2.3428 5.6567s-.832 4.146-2.3428 5.6567l.707.707c1.7002-1.6997 2.6357-3.96 2.6357-6.3638z"/></svg>