<svg viewBox="0 0 24 24" xmlns="http://www.w3.org/2000/svg"><path d="m17.0181 15.6461-1.0668 1.0668c-.4944.512-1.2809.605-1.881.2224-2.8059-1.7542-5.2616-4.2099-7.1023-7.1003-.3846-.6002-.2928-1.3883.2194-1.884l1.1071-1.1071-2.7495-3.3514c-.3704.4368-1.5891 2.3852-1.8971 3.4007-.2084.5723-.1812 1.2039.0755 1.7562 2.2302 5.2525 6.4612 9.4835 11.6121 11.6211.5486.2612 1.1783.2941 1.7512.0916 1.0677-.3846 2.0746-.9204 2.9901-1.5911.155-.1067.2677-.2204.4126-.3241m-5.5574 2.7455c-5.3743-2.2302-9.8025-6.6575-12.1294-12.1364-.3606-.7798-.4004-1.67-.1107-2.4788.3361-1.1101.9239-2.2141 1.7361-3.2598.0855-.1298.2013-.3029.3764-.4821.3885-.4579 1.1443-.4479 1.5217.0242l2.7636 3.3665c.3251.4328.2858.9601-.0835 1.3285l-1.1071 1.1071c-.1798.1633-.214.4331-.0805.6361 1.7582 2.7626 4.1052 5.1096 6.7843 6.7843.2113.1308.4539.1006.6361-.0805l1.1604-1.1534c.1832-.1349.6763-.4066 1.3365.0342l3.4118 2.7978c.4609.4408.4811 1.1473-.006 1.5368-.1912.1328-.31.2586-.4871.3774-1.2379.8404-2.7455 1.8146-4.3316 1.9072-.4809-.0007-.9559-.1061-1.3919-.309h.001z"/></svg>