<svg viewBox="0 0 24 24" xmlns="http://www.w3.org/2000/svg"><path d="m20.5 8.5h-3.5v-3h3.5c.2761 0 .5-.2239.5-.5s-.2239-.5-.5-.5h-3.5v-1.5h-4c-2.0378 0-3.701 1.5295-3.9496 3.5h-2.0504c-2.0654 0-3.7451 1.6797-3.7451 3.7568 0 2.0654 1.6807 3.7461 3.7461 3.7461h9.999c1.2393 0 2.248 1.0088 2.248 2.249 0 1.2393-1.0088 2.248-2.248 2.248h-6c-.0898 0-2.2314.0244-4.3535 2.1465l.707.707c1.8125-1.8125 3.6309-1.8535 3.6465-1.8535h6c1.791 0 3.248-1.457 3.248-3.248 0-1.792-1.457-3.249-3.248-3.249h-9.999c-1.5146 0-2.7461-1.2314-2.7461-2.7578 0-1.5137 1.2314-2.7451 2.7451-2.7451h2.0504c.2486 1.9705 1.9117 3.5 3.9496 3.5h4v-1.5h3.5c.2761 0 .5-.2239.5-.5s-.2239-.5-.5-.5zm-4.5 1.5h-3c-1.6542 0-3-1.3458-3-3s1.3458-3 3-3h3z"/></svg>