<svg viewBox="0 0 24 24" xmlns="http://www.w3.org/2000/svg"><path d="m19 19.499v1.001h-14.5v-1.001zm-10.5-13.999-2.25-2.5-2.25 2.5h1.795c.184 2.113 1.476 3.672 1.476 5.95s-1.5 4.3-1.5 6.55h1c0-1.997 1.5-3.97 1.5-6.55 0-2.582-1.128-3.714-1.46-5.95zm5.5 0-2.25-2.5-2.25 2.5h1.795c.184 2.113 1.476 3.672 1.476 5.95s-1.5 4.3-1.5 6.55h1c0-1.997 1.5-3.97 1.5-6.55 0-2.582-1.128-3.714-1.46-5.95zm5.5 0-2.25-2.5-2.25 2.5h1.795c.184 2.113 1.476 3.672 1.476 5.95s-1.5 4.3-1.5 6.55h1c0-1.997 1.5-3.97 1.5-6.55 0-2.582-1.128-3.714-1.46-5.95z"/></svg>