<svg viewBox="0 0 24 24" xmlns="http://www.w3.org/2000/svg"><path d="m18.6621 4c.7377 0 1.3379.604 1.3379 1.3462v4.4587c.0001.355-.1431.7024-.3912.9514l-8.8627 8.8511c-.2526.2532-.588.3926-.9445.3926-.3536 0-.687-.1375-.9391-.3875l-4.4634-4.4221c-.527-.522-.5322-1.3774-.0178-1.9004l8.9089-8.8972c.2526-.2532.5881-.3928.9451-.3928h4.4269m0-1h-4.4269c-.6201 0-1.2148.2471-1.6533.687l-8.9073 8.8955s-.0002.0002-.0005.0005c-.9071.9221-.8977 2.4075.0211 3.3179l4.4634 4.4221c.4554.4514 1.0492.677 1.6429.677.598 0 1.1962-.229 1.6525-.6865l8.8613-8.8496c.4385-.4399.6847-1.0369.6846-1.6592v-4.4585c0-1.2959-1.0466-2.3462-2.3379-2.3462zm-2.1436 4.0044c.2758 0 .5.2244.5.5s-.2242.5-.5.5-.5-.2244-.5-.5.2242-.5.5-.5m0-1c-.8284 0-1.5.6716-1.5 1.5s.6716 1.5 1.5 1.5 1.5-.6716 1.5-1.5-.6715-1.5-1.5-1.5z"/></svg>