<svg xmlns="http://www.w3.org/2000/svg" viewBox="0 0 24 24"><path d="m21,10.27v6.73l-4,3s-6.9909-7.2606-7.0657-7.3557c-.5188-.66-.3261-1.5526.2557-2.1343.8749-.8749,2.0825-.346,2.39,0l1.67,1.68,1.41-1.42-6.36-6.36-4.89,4.7,7.13,7.18-.71.71-7.83-7.89,6.3-6.11,7.78,7.77-2.83,2.83-2.38-2.38c-.123-.1545-.5953-.3747-.97,0-.3821.3821-.155.849,0,.97l6.23,6.49,2.87-2.18v-6.12c-.041-.478-.234-.93-.55-1.29-.53-.463-1.107-.872-1.72-1.22-.8095-.5317-1.7618-.8038-2.73-.78l-1.12-.91c.3647-.1051.7408-.1655,1.12-.18,1.1532.0177,2.2774.3646,3.24,1,.6756.3825,1.3091.835,1.89,1.35.5082.5168.8165,1.1972.87,1.92Z"/></svg>