<svg viewBox="0 0 24 24" xmlns="http://www.w3.org/2000/svg"><path d="m19 9h-1.8938l1.8938-1.8904zm2.9731-7.707-20.6452 20.6867.6453.7273 20.6989-20.6601zm-12.9731 15.7979-1.9126 1.9092h1.9126zm-2.1344-2.0908h-1.8656v1.8694zm9.9799-10h-1.8455v1.8491zm-2.8455-1h3.8435l.998-1h-5.8416v5.8533l1-1.002v-3.8513zm-10 9.9999h3.8635l.998-1h-5.8615v5.8733l1-1.002zm11-1h-2v1h2v3h1v-2h1v-1h-1v-1zm-5 7h-3.9146l-1.0018 1h5.9164v-5.9053l-1 .998v3.9072zm10-5h1v-2h-1zm-1 4h2v-1h-2zm1-9h-3.8958l-1.002 1h5.8977v-5.8867l-1 .9983v3.8884zm-1 3h-1v3h-1v1h4v-1h-2zm-4 6h2v-1h-2zm-1-4h-1v6h3v-1h-2zm4 6h3v-1h-3zm-9-16h-4v4h4zm1.8577 6h-7.8577v-8h8v8zm-.8577-7h-6v6h6z"/></svg>