<svg id="Default" xmlns="http://www.w3.org/2000/svg" viewBox="0 0 24 24"><path d="M12,3a9,9,0,1,0,9,9,9,9,0,0,0-9-9Zm0,17a8,8,0,1,1,8-8,8,8,0,0,1-8,8Z"/><path d="M12.26,6A3.82,3.82,0,0,0,9.45,7.19a3.55,3.55,0,0,0-.72,1.19l-.26.71,1.49.5.26-.71a2,2,0,0,1,.42-.69,2.22,2.22,0,0,1,1.62-.7,2.12,2.12,0,0,1,2.15,2.07A2,2,0,0,1,13.78,11a2.61,2.61,0,0,1-.39.26,3.25,3.25,0,0,0-1.93,3V15h1.59v-.76c0-1,.54-1.32,1.17-1.69a4.3,4.3,0,0,0,.68-.47A3.51,3.51,0,0,0,16,9.56,3.66,3.66,0,0,0,12.26,6Z"/><polygon points="13.01 16 11.01 16 11.01 18 13.01 18 13.01 16 13.01 16"/></svg>