<svg viewBox="0 0 24 24" xmlns="http://www.w3.org/2000/svg"><path d="m12 12-.002-10c1.3147-.0002 2.6165.2587 3.831.762zm8.486-.5c-.1702-2.8927-1.8022-5.4995-4.33-6.916l-.386.931c2.1561 1.2534 3.5481 3.4966 3.714 5.985h-2.006c-.1529-1.6796-1.0682-3.1961-2.483-4.114l-.392.944c1.0469.7416 1.7274 1.895 1.87 3.17h-2.023c-.096-.474-.326-.899-.648-1.234l-.45 1.084c.1.2079.1483.43.1482.65-.0003.7403-.6818 1.5003-1.5002 1.4999-.7311-.0003-1.5001-.6817-1.4999-1.4999.0001-.4118.1688-.8219.4999-1.118v-1.174c-.7459.3261-1.2867.9944-1.45 1.792h-2.023c.2138-1.9024 1.6068-3.4618 3.473-3.888v-1.022c-2.424.449-4.2536 2.4551-4.478 4.91h-2.006c.238-3.5582 2.9479-6.4571 6.482-6.934v-1.008c-4.0887.4858-7.2416 3.8317-7.484 7.942h-1.514v1h1.514c.2541 4.3007 3.6852 7.7315 7.986 7.985v1.515h1v-1.515c4.3004-.254 7.731-3.6846 7.985-7.985h1.515v-1zm-8.986 7.984c-3.7485-.2506-6.7335-3.2355-6.984-6.984h2.006c.2418 2.6427 2.3353 4.7363 4.978 4.978zm0-3.011c-2.0897-.234-3.739-1.8834-3.973-3.973h2.023c.201.9818.9683 1.749 1.95 1.95v2.0229zm1-2.0229c.9818-.201 1.749-.9683 1.95-1.95h2.023c-.234 2.0896-1.8834 3.739-3.973 3.973v-2.0229zm0 5.034v-2.006c2.6427-.2417 4.7363-2.3353 4.978-4.978h2.006c-.2505 3.7485-3.2355 6.7334-6.984 6.984z"/></svg>