<svg viewBox="0 0 24 24" xmlns="http://www.w3.org/2000/svg"><path d="m6.197 3c-1.4087 1.405-2.1994 3.3134-2.197 5.303 0 2.071.84 3.946 2.197 5.303l.707-.707c-1.2209-1.2177-1.9061-2.8717-1.904-4.596-.0021-1.7243.6831-3.3783 1.904-4.596zm9.899.707.707-.707c1.4087 1.405 2.1994 3.3134 2.197 5.303 0 2.071-.84 3.946-2.197 5.303l-.707-.707c1.2209-1.2177 1.9061-2.8717 1.904-4.596.0021-1.7243-.6831-3.3783-1.904-4.596zm-8.486.707c-1.0329 1.0308-1.6124 2.4308-1.61 3.89 0 1.518.616 2.893 1.61 3.888l.708-.707c-.8452-.843-1.3196-1.9882-1.318-3.182 0-1.243.504-2.368 1.318-3.182l-.707-.707zm7.072.707.707-.707c1.0333 1.0306 1.6131 2.4306 1.611 3.89.0018 1.4586-.5776 2.8577-1.61 3.888l-.708-.707c.8452-.843 1.3196-1.9882 1.318-3.182.0016-1.1938-.4728-2.339-1.318-3.182zm-5.657.707c-.6573.6558-1.0262 1.5465-1.025 2.475 0 .967.392 1.842 1.025 2.475l.707-.707c-.4696-.4684-.733-1.1047-.732-1.768 0-.69.28-1.315.732-1.768zm4.243.707.707-.707c.6573.6558 1.0262 1.5465 1.025 2.475.0012.9285-.3677 1.8192-1.025 2.475l-.707-.707c.4696-.4684.733-1.1047.732-1.768 0-.69-.28-1.315-.732-1.768zm-1.166 3.142c.7588-.3325 1.1044-1.2171.7719-1.9759s-1.2171-1.1044-1.9759-.7719-1.1044 1.2171-.7719 1.9759c.1512.3451.4268.6207.7719.7719l-3.898 12.126h2l2.5-3 2.5 3h2zm-3.57 11.126h-.16l3.128-9.732 3.128 9.732h-.16l-2.968-3.562z"/></svg>