<svg xmlns="http://www.w3.org/2000/svg" viewBox="0 0 24 24"><path d="m21,12c0,1.3024-.285,2.5352-.7839,3.6516l-.9125-.4056c.444-.993.6964-2.0896.6964-3.246,0-4.4113-3.5888-8-8-8-1.6956,0-3.2645.5369-4.5594,1.4406l1.5594,1.5594h-4V3l1.7216,1.7216c1.4821-1.08,3.3034-1.7216,5.2784-1.7216,4.9706,0,9,4.0294,9,9Zm-9,9c1.975,0,3.7963-.6416,5.2784-1.7216l1.7216,1.7216v-4h-4l1.5594,1.5594c-1.2949.9037-2.8638,1.4406-4.5594,1.4406-4.4112,0-8-3.5887-8-8,0-1.1564.2524-2.253.6964-3.246l-.9125-.4056c-.499,1.1165-.7839,2.3492-.7839,3.6516,0,4.9706,4.0294,9,9,9Z"/></svg>