<svg xmlns="http://www.w3.org/2000/svg" viewBox="0 0 24 24"><path d="m9.2241,7.0547c1.2292-.5922,4.1089-1.9785,7.7762-.4989l-.3771.933c-3.2519-1.3141-5.7589-.1086-6.9625.4719l-.7059.3351.0004.0007,2.0493.7319-.3382.947-3.6661-1.3093,1.3093-3.6661.947.3382-.7316,2.0483.6991-.332v.0002Zm8.4785,12.9434c.873,0,1.6423-.4976,2.0109-1.2689l1.5788-.2131c.7078-.1213.7078-1.3922.7078-1.8096,0-2.2113-2.443-3.0638-4.2819-3.5125-2.6033-.6579-4.4891-.8876-5.6045-.6754-.8943.0353-3.2424,1.2844-3.8825,1.8163-.4384.0049-1.6429.0352-2.5579.2052-2.1408.5055-1.6342.7914-3.0105,1.5661-1.5589,1.2129-.1936,3.2138,1.9435,2.9485.8427,1.282,2.9167,1.2253,3.7002-.087h7.5144c.4077.6354,1.1145,1.0304,1.8819,1.0304h-.0001Zm-9.693-2.0312c-.1974,0-.3763.1163-.457.2962-.1995.4458-.6423.7342-1.1282.7342-.4648,0-.8862-.263-1.0998-.6853-.0851-.1681-.2581-.2747-.4468-.2747-.9653.1176-1.6579-.1316-1.744-.3608-.2806-.4087-.0455-.6443.0611-.7216,1.3494-.7435.7934-.9783,2.661-1.4312,1.0255-.1897,2.554-.174,2.5393-.1887.4357-.0304.8431-.6278,2.1127-1.2025.9674-.4615,1.2005-.5192,1.7915-.6306.6646-.126,2.1221-.1104,5.1805.6637,3.6552.9932,3.6475,1.8675,3.443,3.3904,0,0-1.3354.1809-1.3354.1809-.2799-.0043-.6254.0575-.7048.3734-.1594.5309-.6335.8867-1.18.8867-.4859,0-.9288-.2884-1.1282-.7342-.0801-.1799-.259-.2962-.4565-.2962h-8.1083v.0003Z"/></svg>