<svg viewBox="0 0 24 24" xmlns="http://www.w3.org/2000/svg"><path d="m7.7441 9.8426-.744-.6857c2.6979-2.9277 5.9132-2.905 7.2856-2.8946l.7771.0004-1.5474-1.5473.7154-.7154 2.7693 2.7693-2.7693 2.7693-.7154-.7153 1.5481-1.5481v-.0007l-.7857-.0004c-1.3418-.0129-4.1401-.0297-6.5337 2.5685zm10.9712 3.7042.9747-.7097c.3133-.2136.2526-.7304-.1007-.8662 0 0-3.449-1.4488-3.449-1.4488l-.3871.9229 2.6298 1.1047-1.0979.7997c-.3417.2323-.2295.8065.176.8906 3.6433.9829 3.6756 1.7643 3.4617 3.318l-1.3354.1809c-.2861-.0043-.6207.0576-.7048.3734-.2861 1.0873-1.8833 1.1835-2.3082.1524-.0802-.1798-.2591-.2961-.4565-.2961h-8.1083c-.197 0-.3759.1154-.4565.2962-.2004.4458-.6433.7342-1.1286.7342-.4649 0-.8862-.263-1.0998-.6853-.1027-.2142-.3458-.3045-.5719-.2679-1.474.1883-2.1119-.5897-1.5578-1.0892 1.3471-.7423.8053-.9873 2.661-1.4313 1.0245-.1896 2.5384-.1739 2.5388-.1886.5066-.085.8111-.603 2.1131-1.2024.9541-.4547 1.7543-.6649 1.7621-.6668l-.2503-.9698c-.0362.0098-.8965.2336-1.9435.7332-.8222.393-1.5515.8945-1.8457 1.1057-.438.0049-1.6429.0352-2.5574.2053-2.1385.5058-1.6341.791-3.0106 1.5661-1.5583 1.2122-.1944 3.2142 1.9435 2.9485.8432 1.2822 2.9159 1.2251 3.7002-.087h7.5144c.8614 1.4545 3.2227 1.3157 3.8928-.2385l1.5788-.2131c.7078-.1212.7078-1.3921.7078-1.8096 0-1.7646-1.5945-2.6366-3.2848-3.1616z"/></svg>