<svg xmlns="http://www.w3.org/2000/svg" viewBox="0 0 24 24">
<path d="m9.2238,7.0564l-.6991.332.7316-2.0483-.947-.3382-1.3093,3.6661,3.6661,1.3093.3382-.947-2.0493-.7319-.0004-.0007.7059-.3351c1.2036-.5805,3.7106-1.786,6.9625-.4719l.3771-.933c-3.6673-1.4796-6.547-.0933-7.7762.4989Z"/><path d="m17.7024,20c-.7674,0-1.4742-.395-1.8819-1.0304h-7.5144c-.4077.6345-1.115,1.0304-1.8819,1.0304-.7313,0-1.4014-.3549-1.8183-.9434-1.1326.044-1.8975-.2278-2.2979-.8124-.3353-.4888-.3373-.9209-.2796-1.1985.1017-.4898.4463-.8202.634-.9375.436-.2737.7664-.5005.9067-.6227.2332-.2073.788-.7,2.1038-.9434.915-.1701,2.1195-.2004,2.5579-.2053.2943-.2112,1.0231-.7127,1.8452-1.1057,1.0441-.4976,1.353-.5817,2.0373-.7107,1.1155-.2121,3.0013.0176,5.6046.6755,1.8389.4487,4.2819,1.3012,4.2819,3.5125,0,.4174,0,1.6883-.7078,1.8096l-1.5788.2131c-.3686.7713-1.1379,1.2689-2.0109,1.2689Zm-9.693-2.0315h8.1083c.1975,0,.3764.1163.4565.2962.1994.4458.6423.7342,1.1282.7342.5465,0,1.0206-.3558,1.18-.8867.0596-.1994.2366-.3412.4448-.3558l.26-.0176,1.3354-.1809c.0332-.1242.0763-.3754.0763-.8495,0-.7215-.3646-1.7704-3.5194-2.5408-.002,0-.0029,0-.0049-.001-3.0638-.7752-4.5077-.788-5.1755-.6628-.591.1114-.8241.1691-1.7915.6306-.9532.4556-1.8008,1.0949-1.8096,1.1008-.0875.0655-.1706.1222-.3031.1017.0147.0147-1.5138-.001-2.5393.1887-1.0421.1936-1.4454.5523-1.5974.6873-.218.1897-.5646.4301-1.0636.744-.1066.0772-.3417.3128-.0611.7215.1476.2151.545.4565,1.6189.3676.0127-.001.1119-.0068.1251-.0068.1887,0,.3617.1066.4468.2747.2136.4223.635.6853,1.0998.6853.4859,0,.9287-.2884,1.1282-.7342.0807-.1799.2596-.2962.457-.2962Z"/>
</svg>