<svg viewBox="0 0 24 24" xmlns="http://www.w3.org/2000/svg"><path d="m15 11v1c-.932 0-1.758.434-2.018.853-.12.196-.082.329-.035.423.135.271.905.503 1.715.693l.244.056c.3287.0737.658.1444.988.212l.28.06.14.03.28.063c1.824.418 3.596 1.01 3.896 2.512.106.526-.027 1.035-.383 1.469-1.435 1.75-6.925 2.61-16.78 2.629h-.327v-1c12.598 0 15.64-1.418 16.334-2.263.169-.206.224-.403.176-.639-.225-1.124-2.373-1.578-4.1-1.941-1.649-.348-2.951-.623-3.357-1.434-.226-.451-.198-.948.08-1.396.483-.781 1.661-1.327 2.867-1.327zm-12-8 9.616 3.801c.2613.0894.4005.3737.3111.635-.0435.1269-.1361.2311-.2571.289l-8.67 3.52v7.755h-1zm13 .5 5.109 2.02c.1385.0489.2112.2008.1624.3393-.0233.0659-.0715.1201-.1344.1507l-4.13 1.677-.007 4.313h-1zm-12 .97v5.652l7.101-2.845zm13 .5v1.628l1.952-.856-1.952-.771z"/></svg>