<svg id="Default" xmlns="http://www.w3.org/2000/svg" viewBox="0 0 24 24"><path d="M18,12h0a3.07,3.07,0,0,0-3,3.12,6.47,6.47,0,0,0,1.19,3.08c.54.95,1.08,1.73,1.1,1.76L18,21l.71-1s.56-.81,1.1-1.76A6.47,6.47,0,0,0,21,15.12,3.07,3.07,0,0,0,18,12ZM19,17.7c-.39.67-.77,1.25-.95,1.53-.18-.27-.56-.85-.95-1.53A7.21,7.21,0,0,1,16,15.12,2.07,2.07,0,0,1,18,13h0a2.07,2.07,0,0,1,2,2.12A7.21,7.21,0,0,1,19,17.7Z"/><path d="M5.29,12,6,13l.71-1s.56-.81,1.1-1.76A6.47,6.47,0,0,0,9,7.12,3.07,3.07,0,0,0,6,4H6A3.07,3.07,0,0,0,3,7.12,6.47,6.47,0,0,0,4.19,10.2C4.73,11.15,5.27,11.93,5.29,12ZM6,5H6A2.07,2.07,0,0,1,8,7.12,7.21,7.21,0,0,1,7,9.7c-.39.67-.77,1.25-1,1.53-.18-.27-.56-.85-1-1.53A7.21,7.21,0,0,1,4,7.12,2.07,2.07,0,0,1,6,5Z"/><path d="M5,16H7.92C9,16,9.78,15.6,9.86,14.29c0-.21.24-.29.5-.29h2.28A2.52,2.52,0,0,0,15,11.46,2.45,2.45,0,0,0,12.64,9H10v1h2.64A1.44,1.44,0,0,1,14,11.46,1.54,1.54,0,0,1,12.64,13H10.36a1.59,1.59,0,0,0-1.18.42,1.11,1.11,0,0,0-.32.8A.83.83,0,0,1,8,15H5a2,2,0,0,0,0,4h9V18H5a1,1,0,0,1,0-2Z"/></svg>