<svg viewBox="0 0 24 24" xmlns="http://www.w3.org/2000/svg"><path d="m20.4972 7.5129-3.4003-3.839c-.3796-.4286-.9247-.674-1.4972-.674h-10.5997c-1.1046 0-2 .8954-2 2v14c0 1.1046.8954 2 2 2h14c1.1046 0 2-.8954 2-2v-10.161c0-.4886-.1788-.9603-.5028-1.326zm-6.9972-3.5129v3h-6.5v-3zm-6.5 16v-8h10v8zm13-1c0 .5514-.4486 1-1 1h-1v-8c0-.5523-.4478-1-1-1h-10c-.5522 0-1 .4477-1 1v8h-1c-.5514 0-1-.4486-1-1v-14c0-.5514.4486-1 1-1h1v3c0 .5523.4478 1 1 1h6.5c.5522 0 1-.4477 1-1v-3h1.0997c.286 0 .559.1228.7487.337l3.4003 3.839c.1621.183.2513.4185.2513.663z"/></svg>