<svg viewBox="0 0 24 24" xmlns="http://www.w3.org/2000/svg"><path d="m15.7255 17c.9708-.0134 1.7105.9552 1.448 1.888 0 0-.328.992-.328.992-.215.6453-.8372 1.0651-1.516 1.023-.8765-.0941-2.3295-.403-3.3295-.403s-3.011.3939-3.0115.394c-.6751.0844-1.3224-.2961-1.577-.927l-.334-.992c-.3348-.9496.4191-1.9892 1.423-1.975zm-7.225 1c-.3123-.0036-.5555.2949-.49.6l.318.964c.0683.2051.2608.3431.477.342.8777-.0958 2.1945-.406 3.1945-.406s3.36.4019 3.3605.402c.6093.0783.6337-.7946.839-1.244.1025-.2956-.1044-.6211-.415-.655zm4.729-15c.4747-.0003.8841.3331.98.798.181 1.45.271 2.192.27 2.224.6204.1085 1.1075.5923 1.22 1.212l.839 8.943c-.3157-.1484-.6749-.1899-1.021-.177 0 0-.8-8.57-.8-8.57-.0303-.2258-.2106-.4019-.437-.427l-4.278-.003c-.2316.0003-.4327.1596-.486.385l-.808 8.615c-.3479-.0159-.707.0316-1.021.177 0 0 .824-8.84.824-8.84.08-.68.59-1.204 1.234-1.315 0-.016.085-.731.258-2.146.0588-.4707.4401-.8354.913-.873zm-2.234 1-.25 2h2.735l-.25-2z"/></svg>