<svg viewBox="0 0 24 24" xmlns="http://www.w3.org/2000/svg"><path d="m19.1683 16.7463c-1.3878-.9398-2.6632-1.5464-4.1113-2.1094-.6442.8901-1.8529 1.3414-3.0571 1.3456-1.2042-.0042-2.4128-.4554-3.0571-1.3456-1.4481.563-2.7234 1.1696-4.1113 2.1094-.9082.5983-1.8317 3.7683-1.8317 4.2537h1c.0078-.2078.7879-3.0274 1.3924-3.4257.6768-.4583 1.3582-.8489 2.1076-1.2162v2.6419c0 .2764.2236.5.5.5h8c.2764 0 .5-.2236.5-.5v-2.6417c.7509.3681 1.435.7605 2.1182 1.2231.5939.3912 1.374 3.214 1.3818 3.4186h1c0-.4854-.9235-3.6555-1.8317-4.2537zm-3.6683-.7463v2.5h-7v-2.5c0-.0326-.0126-.061-.0186-.0919.067-.0286.1276-.0581.196-.0867.8284.7328 2.0166 1.1566 3.326 1.161 1.3038-.0045 2.4908-.4282 3.319-1.1609.0685.0285.129.058.196.0867-.0059.0308-.0185.0593-.0185.0919zm-8-6.762c-.0005.5388.3781 1.1383.3781 1.1383s.5488 1.9506 1.2515 3.0543c.7028 1.1037 1.5513 1.5694 2.8694 1.5694h.002c1.3181 0 2.1666-.4657 2.8694-1.5694s1.2515-3.0543 1.2515-3.0543.3786-.5995.3781-1.1383c-.0004-.3834.0004-2.238.0004-2.238 0-2.0921-1.8815-4-3.9995-4h-1.002c-2.1177 0-3.9819 1.9107-3.9819 4 0 0-.0167 1.8547-.0171 2.238zm7.5654-1.238-.5107.7666c-.04.0601-.3262.2334-.8486.2334h-3.4121c-.5225 0-.8086-.1733-.8486-.2334l-.5107-.7666h6.1309zm.2109 1.8423-.0776.1231-.0394.1397c-.1423.5043-.623 1.9882-1.1325 2.7883-.5202.817-1.0504 1.1065-2.0278 1.1065-.9755 0-1.5057-.2896-2.0259-1.1065-.5095-.8001-.9902-2.2841-1.1325-2.7883l-.0411-.1396-.0731-.1187c-.1072-.1741-.2266-.4666-.2264-.6079v-.0876l.1133.1699c.334.5005 1.0869.6787 1.6807.6787h3.4121c.5938 0 1.3467-.1782 1.6807-.6787l.1133-.1699v.0876c.0001.1414-.1193.4338-.2236.6034zm-6.7764-2.8428c0-1.6538 1.3457-2.9995 2.999-2.9995h1.002c1.6533 0 2.999 1.3457 2.999 2.9995l-7 .0005zm5-1.4995c0 .2764-.2236.5-.5.5h-2c-.2764 0-.5-.2236-.5-.5s.2236-.5.5-.5h2c.2764 0 .5.2236.5.5z"/></svg>