<svg viewBox="0 0 24 24" xmlns="http://www.w3.org/2000/svg"><path d="m19 18.5399c0 1.3807-1.1193 2.5-2.5 2.5s-2.5-1.1193-2.5-2.5c-.01-.143-.01-.287 0-.43l-2.53-1.95c-.7011.5625-1.5712.8725-2.47.88-2.2091 0-4-1.7909-4-4s1.7909-4 4-4c.7063.0035 1.398.2006 2 .57l3.18-3.14c-.2411-.6029-.2411-1.2755 0-1.8784.5187-1.2974 1.991-1.9287 3.2884-1.41s1.9287 1.991 1.41 3.2884-1.991 1.9287-3.2884 1.41l-3.16 3.16c.6562 1.0678.7532 2.3878.26 3.54l2.46 1.86c.402-.26.87-.4 1.35-.4 1.3807 0 2.5 1.1193 2.5 2.5z"/></svg>