<svg viewBox="0 0 24 24" xmlns="http://www.w3.org/2000/svg"><g fill-rule="evenodd"><path d="m17.1 3.5h-10.2c-1.88 0-3.4 1.52-3.4 3.4v10.2c0 1.88 1.52 3.4 3.4 3.4h10.2c1.88 0 3.4-1.52 3.4-3.4v-10.2c0-1.88-1.52-3.4-3.4-3.4zm-10.2 16.15c-1.41 0-2.55-1.14-2.55-2.55v-10.2c0-1.41 1.14-2.55 2.55-2.55h2.55v15.3zm12.75-2.55c0 1.41-1.14 2.55-2.55 2.55h-6.8v-15.3h6.8c1.41 0 2.55 1.14 2.55 2.55z"/><path d="m6.05 8.17h1.7c.23 0 .42-.19.42-.42s-.19-.42-.42-.42h-1.7c-.23 0-.42.19-.42.42s.19.42.42.42z"/><path d="m7.75 9.03h-1.7c-.23 0-.42.19-.42.42s.19.42.42.42h1.7c.23 0 .42-.19.42-.42s-.19-.42-.42-.42z"/><path d="m7.75 10.72h-1.7c-.23 0-.42.19-.42.43s.19.42.42.42h1.7c.23 0 .42-.19.42-.42s-.19-.43-.42-.43z"/></g></svg>