<svg viewBox="0 0 24 24" xmlns="http://www.w3.org/2000/svg"><path d="m-50.42 16v1h-12v-1zm0-5v1h-12v-1zm0-5v1h-12v-1z" fill="#010205"/><g fill-rule="evenodd"><path d="m17.1 3.5h-10.2c-1.88 0-3.4 1.52-3.4 3.4v10.2c0 1.88 1.52 3.4 3.4 3.4h10.2c1.88 0 3.4-1.52 3.4-3.4v-10.2c0-1.88-1.52-3.4-3.4-3.4zm-9.35 8.08h-1.7c-.23 0-.42-.19-.42-.42s.19-.43.42-.43h1.7c.23 0 .42.19.42.43s-.19.42-.42.42zm0-1.7h-1.7c-.23 0-.42-.19-.42-.42s.19-.42.42-.42h1.7c.23 0 .42.19.42.42s-.19.42-.42.42zm0-1.71h-1.7c-.23 0-.42-.19-.42-.42s.19-.42.42-.42h1.7c.23 0 .42.19.42.42s-.19.42-.42.42zm11.9 8.93c0 1.41-1.14 2.55-2.55 2.55h-6.8v-15.3h6.8c1.41 0 2.55 1.14 2.55 2.55z"/><path d="m-9.91 3.5h-10.2c-1.88 0-3.4 1.52-3.4 3.4v10.2c0 1.88 1.52 3.4 3.4 3.4h10.2c1.88 0 3.4-1.52 3.4-3.4v-10.2c0-1.88-1.52-3.4-3.4-3.4zm-10.2 16.15c-1.41 0-2.55-1.14-2.55-2.55v-10.2c0-1.41 1.14-2.55 2.55-2.55h2.55v15.3zm12.75-2.55c0 1.41-1.14 2.55-2.55 2.55h-6.8v-15.3h6.8c1.41 0 2.55 1.14 2.55 2.55z"/><path d="m-20.96 8.17h1.7c.23 0 .42-.19.42-.42s-.19-.42-.42-.42h-1.7c-.23 0-.42.19-.42.42s.19.42.42.42z"/><path d="m-19.26 9.03h-1.7c-.23 0-.42.19-.42.42s.19.42.42.42h1.7c.23 0 .42-.19.42-.42s-.19-.42-.42-.42z"/><path d="m-19.26 10.72h-1.7c-.23 0-.42.19-.42.43s.19.42.42.42h1.7c.23 0 .42-.19.42-.42s-.19-.43-.42-.43z"/></g></svg>