<svg viewBox="0 0 24 24" xmlns="http://www.w3.org/2000/svg"><path d="m5.516 11.184h-4.016v1h4.016c-.0073-.1722-.007-.836 0-1zm.38 3.446-3.24 1.87.5.867 3.1-1.79c-.0002-.0005-.2902-.7039-.359-.947zm.359-6.84-3.098-1.79-.5.867 3.24 1.87c.1164-.3979.3579-.9469.358-.947zm.92.394s-.675 1.1993-.675 3.5c0 1.9694.6751 3.498.676 3.5.0004 0 4.324-.4809 4.324-3.5 0-3.0234-4.325-3.5-4.325-3.5zm.668 5.816c-.136-.44-.343-1.147-.343-2.316 0-1.167.207-1.744.343-2.184 1.197.2 2.657 1 2.657 2.184 0 1.316-1.461 2.116-2.657 2.316zm10.64-2.816c.007.164.0073.8278 0 1h4.017v-1zm-.74 4.394 3.099 1.789.5-.866-3.24-1.87c-.1228.4221-.3589.9468-.359.947zm.359-6.84 3.24-1.87-.5-.867-3.099 1.79s.2372.5323.359.946zm-1.277-.554s-4.325.4792-4.325 3.5 4.325 3.5 4.325 3.5c.0002-.0005.675-1.2181.675-3.5 0-1.9644-.6741-3.498-.675-3.5zm-.668 5.816c-1.196-.2-2.657-1-2.657-2.316 0-1.184 1.461-1.985 2.659-2.184.136.436.341 1.007.341 2.184 0 1.17-.207 1.876-.343 2.316z"/></svg>