<svg viewBox="0 0 24 24" xmlns="http://www.w3.org/2000/svg"><path d="m22 12.41h-2.134l1.067 1.848-.866.5-1.356-2.348h-5.845l2.923 5.062h2.711v1h-2.134l1.067 1.848-.866.5-1.067-1.848-1.067 1.848-.866-.5 1.355-2.348-2.922-5.062-2.922 5.062 1.355 2.348-.866.5-1.067-1.848-1.067 1.848-.866-.5 1.067-1.848h-2.134v-1h2.711l2.923-5.062h-5.845l-1.355 2.348-.867-.5 1.068-1.848h-2.135v-1h2.134l-1.067-1.848.866-.5 1.356 2.348h5.845l-2.923-5.062h-2.711v-1h2.134l-1.067-1.848.866-.5 1.067 1.848 1.067-1.848.866.5-1.355 2.348 2.922 5.062 2.922-5.062-1.355-2.348.866-.5 1.067 1.848 1.067-1.848.866.5-1.067 1.848h2.134v1h-2.711l-2.923 5.062h5.845l1.356-2.348.866.5-1.067 1.848h2.134z"/></svg>