<svg viewBox="0 0 24 24" xmlns="http://www.w3.org/2000/svg"><path d="m12 3c4.9706 0 9 4.0294 9 9s-4.0294 9-9 9-9-4.0294-9-9 4.0294-9 9-9zm6.1706 9.0866-.063.0056-2.0666.2948c-.4084.0596-.7267.3555-.8651.7447-.1822.5141-.4871 2.0959-.8786 2.4615-.1744.162-.2812.387-.3274.621l-.6086 3.042c.7468-.0596 1.4913-.1455 2.232-.2576 1.2075-.6238 2.2342-1.5478 2.9812-2.6831.1168-.1822.1778-.3945.1755-.6109v-3.0555c.0001-.3107-.2516-.5626-.5623-.5627-.0272 0-.0543.0019-.0812.0059l.0641-.0056zm-5.2886 4.4629h-1.7696l.5108 2.7056.6795.0011.5794-2.7068zm-6.9908-4.4595c-.3076-.0435-.5922.1706-.6357.4782-.0037.0261-.0055.0523-.0055.0787v3.0566c0 .216.0574.4309.1755.6109.7471 1.1354 1.7737 2.0594 2.9812 2.6831.6424.0956 1.4299.1957 2.232.2576l-.6086-3.042c-.0419-.2366-.1567-.4541-.3285-.6221-.3915-.3645-.6953-1.9462-.8775-2.4615-.1384-.3892-.4568-.6851-.8663-.7436l-2.0666-.2948zm6.1088-1.215c-1.2409 0-2.25 1.0091-2.25 2.25s1.0091 2.25 2.25 2.25 2.25-1.0091 2.25-2.25-1.0091-2.25-2.25-2.25zm0-6.75c-.9482 0-1.8885.1735-2.7742.5119-.4815.1834-.8786.5366-1.134.9833l-.5209.9112c-.5197.909-1.539 2.2826-2.3895 2.8912-.3489.2469-.4317.73-.1847 1.0789.1635.2311.4402.3545.7214.3217l4.131-.459c.1654-.018.3206-.0787.4635-.162.5127-.297 1.095-.453 1.6875-.4522.6142 0 1.1914.1642 1.6875.4523.1429.0833.297.144.4624.162l4.1321.459c.4255.0471.8086-.2596.8558-.6851.0309-.2787-.0912-.5523-.3191-.7156-.8527-.6086-1.8709-1.9823-2.3895-2.8912l-.5209-.9112c-.2527-.4492-.6535-.7967-1.134-.9833-.8858-.3385-1.826-.512-2.7742-.5119z"/></svg>