<svg viewBox="0 0 24 24" xmlns="http://www.w3.org/2000/svg"><path d="m12 3c5 0 9 4 9 9s-4 9-9 9-9-4-9-9 4-9 9-9zm6.2 9.1-2.2.3c-.4.1-.7.4-.9.7-.2.5-.5 2.1-.9 2.5-.1.2-.2.4-.2.6l-.6 3c.7-.1 1.5-.1 2.2-.3 1.2-.6 2.2-1.5 3-2.7.1-.2.2-.4.2-.6v-3.1c0-.2-.3-.4-.6-.4zm-5.3 4.4h-1.8l.5 2.7h.7zm-7-4.4c-.3 0-.6.2-.6.5v3.1c0 .2.1.4.2.6.7 1.1 1.8 2.1 3 2.7.6.1 1.4.2 2.2.3l-.6-3c0-.2-.2-.5-.3-.6-.4-.4-.7-1.9-.9-2.5-.1-.4-.5-.7-.9-.7zm6.1-1.2c-1.2 0-2.2 1-2.2 2.2s1 2.2 2.2 2.2 2.2-1 2.2-2.2-1-2.2-2.2-2.2zm-2.8-6.3c-.5.2-1.6 1.9-1.6 1.9-.5.9-1.6 2.3-2.4 2.9s0 1.5.5 1.4l4.1-.5c.2 0 1.5-.6 2.2-.6s2 .6 2.1.6l4.1.5c1 .1 1-1.1.5-1.4-.9-.6-1.9-2-2.4-2.9 0 0-1.1-1.7-1.7-1.9-1.4-.6-3.3-.7-5.4 0z"/></svg>