<svg viewBox="0 0 24 24" xmlns="http://www.w3.org/2000/svg"><path d="m9.4995 3v-1h4v1h-1.5v1.014c1.452.0831 2.858.5395 4.082 1.325l1.034-1.034 2.475 2.475-1.012 1.013c2.5997 3.9088 1.5385 9.1851-2.3704 11.7848-3.9088 2.5997-9.1851 1.5385-11.7848-2.3704-2.5997-3.9088-1.5385-9.1851 2.3704-11.7848 1.2527-.8331 2.704-1.3189 4.2058-1.4076v-1.015h-1.5zm2 2c-4.1421 0-7.5 3.3579-7.5 7.5s3.3579 7.5 7.5 7.5 7.5-3.3579 7.5-7.5-3.3579-7.5-7.5-7.5zm.5 2.5v5c.0019.2761-.2204.5015-.4966.5034-.2563.0017-.4724-.1906-.5004-.4454l-.003-.058v-5z"/></svg>