<svg xmlns="http://www.w3.org/2000/svg" viewBox="0 0 24 24"><path d="m5.5,12.5h-3c-.2764,0-.5-.2236-.5-.5s.2236-.5.5-.5h3c.2764,0,.5.2236.5.5s-.2236.5-.5.5Zm16.5-.5c0,.2764-.2236.5-.5.5h-3c-.2764,0-.5-.2236-.5-.5s.2236-.5.5-.5h3c.2764,0,.5.2236.5.5Zm-14.2426,4.9497l-2.1213,2.1213c-.1954.1954-.5117.1954-.7071,0s-.1954-.5117,0-.7071l2.1213-2.1213c.1954-.1954.5117-.1954.7071,0s.1954.5117,0,.7071Zm11.3137-12.0208c.1954.1954.1954.5117,0,.7071l-2.1213,2.1213c-.1954.1954-.5117.1954-.7071,0s-.1954-.5117,0-.7071l2.1213-2.1213c.1954-.1954.5117-.1954.7071,0Zm-6.5711,13.5711v3c0,.2764-.2236.5-.5.5s-.5-.2236-.5-.5v-3c0-.2764.2236-.5.5-.5s.5.2236.5.5Zm-.5-16.5c.2764,0,.5.2236.5.5v3c0,.2764-.2236.5-.5.5s-.5-.2236-.5-.5v-3c0-.2764.2236-.5.5-.5Zm4.9497,14.2426l2.1213,2.1213c.1954.1954.1954.5117,0,.7071s-.5117.1954-.7071,0l-2.1213-2.1213c-.1954-.1954-.1954-.5117,0-.7071s.5117-.1954.7071,0ZM4.9289,4.9289c.1954-.1954.5117-.1954.7071,0l2.1213,2.1213c.1954.1954.1954.5117,0,.7071s-.5117.1954-.7071,0l-2.1213-2.1213c-.1954-.1954-.1954-.5117,0-.7071Zm7.0711,3.0711c2.2056,0,4,1.7944,4,4s-1.7944,4-4,4-4-1.7944-4-4,1.7944-4,4-4m0-1c-2.7614,0-5,2.2386-5,5s2.2386,5,5,5,5-2.2386,5-5-2.2386-5-5-5h0Z"/></svg>