<svg viewBox="0 0 24 24" xmlns="http://www.w3.org/2000/svg"><path d="m12.0435 9c1.9577 0 6.0237 0 7.5297.4v.45l.4518.25c1.1545.7 1.2047.75 1.8573 1.15.1506.5.1004 2-.1506 2.4-.1506.1-.6024.3-1.004.4l-.6024.15-.1506.6c-.1004.7-.7028 1.2-1.4055 1.2-.6024 0-1.1545-.35-1.3553-.9l-.3012-.6h-9.6882l-.251.6c-.251.55-.8032.9-1.3553.9-.6024 0-1.1545-.35-1.4055-.95l-.251-.65h-.7028c-.7028 0-1.1545-.3-1.2549-.45 0-.95 0-1.2.3012-1.65.3012-.4 1.2549-.85 6.2747-1.3l.3012-.05.251-.2.1506-.1c1.8573-1.45 2.5099-1.65 2.7609-1.65m0-1c-1.0542 0-2.8613 1.5-3.5138 2-5.5217.5-6.5257 1.05-7.0277 1.75s-.502 1.25-.502 2.25c0 .75 1.004 1.45 2.2589 1.45.3514.9 1.2549 1.55 2.3091 1.55 1.004 0 1.9075-.6 2.3091-1.5h8.383c.4016.9 1.2549 1.5 2.3091 1.5 1.2047 0 2.2087-.85 2.4597-2 0 0 1.2549-.3 1.5561-.75.502-.75.6024-3.35 0-3.75q-.753-.5-2.0079-1.25s-.0502-.6-.502-.75c-1.4055-.45-5.0198-.5-8.0316-.5z"/></svg>