<svg viewBox="0 0 24 24" xmlns="http://www.w3.org/2000/svg"><path d="m19.071 20.071-.4518.4645-2.8284-2.8284.7071-.7071 2.1028 2.1028c1.4308-1.5451 2.2602-3.5055 2.3759-5.6028h-.9766v-1h.9756c-.1119-2.0488-.9058-3.9654-2.2753-5.4932l-.6899.6899-.7072-.7071.6899-.6899c-1.5278-1.3695-3.4443-2.1635-5.4932-2.2753v.9756h-1v-.9756c-2.0488.1119-3.9654.9058-5.4932 2.2753l.6899.6899-.7072.7071-.6899-.6899c-1.3696 1.5278-2.1635 3.4445-2.2753 5.4932h.9756v1h-.9766c.1157 2.0974.9451 4.0577 2.3759 5.6028l2.1028-2.1028.7071.7071-2.8284 2.8284-.4518-.4645c-3.9053-3.9052-3.9053-10.2369 0-14.1422 1.9526-1.9526 4.5118-2.9289 7.071-2.9289s5.1184.9763 7.071 2.9289c3.9053 3.9053 3.9053 10.2369 0 14.1422zm-2.7175-10.7175.1465-.8535-.8535.1465-3.4027 3.4027c-.08-.0206-.1573-.0492-.2438-.0492-.5523 0-1 .4477-1 1s.4477 1 1 1 1-.4478 1-1c0-.0865-.0286-.1638-.0492-.2438z"/></svg>