<svg xmlns="http://www.w3.org/2000/svg" viewBox="0 0 24 24"><path d="m22.5,12c-.5-.75-2.45-1.3999-3.5-1.75-.75-.25-3-.75-4.75-.75h-.15c-.6,0-2.1,0-3.1.25-1.7.3999-2.85,1.2-3.25,1.5-2.4.2-4.3.5-5.25,1-.5.25-1.5,1-1.5,1.25,0,1,.25,1.75.25,1.75,0,0,.45.2,1.5.45.4.75,1.2,1.3,2.15,1.3.7999,0,1.5499-.3501,1.95-1h9.6c.4501.6001,1.15,1,1.9501,1,.9,0,1.7-.5,2.1-1.3l1.5-.2c.5-.25,1-1,1-1.25-.05-.8-.25-1.8501-.5-2.25Zm-.85,2.55l-1.3.2-.5.05-.25.45c-.25.45-.7.75-1.2.75-.4501,0-.85-.2-1.1-.6001l-.3501-.3999H6.3l-.3.45c-.25.3501-.65.55-1.15.55s-1-.3-1.2-.75l-.2001-.3999-.45-.1501c-.4-.0999-.7-.1499-.9-.25-.0499-.2-.0499-.3999-.1-.7.25-.2.65-.55.95-.6499.75-.3501,2.4-.6501,4.9-.9001l.3-.05.25-.2c.1-.0999,1.2-.8999,2.85-1.3.4-.0498,1.25-.1499,2.85-.1499h.15c1.65,0,3.8.5,4.45.7,2.2001.75,2.8501,1.1501,2.9501,1.3501.1.1499.2.75.2999,1.5999-.0499.1001-.2.3-.2999.4001Z"/></svg>