<svg viewBox="0 0 24 24" xmlns="http://www.w3.org/2000/svg"><path d="m12 3.5c.1136 0 .2944.1791.2945.4036l.0589 4.7969c.0033.2685.1144.5244.3084.7101l3.5637 3.4117c.7321.8022.9703 1.9986.6103 3.0642l-1.7234 4.0622c-.0085.0202-.0164.0406-.0236.0612-.0552.1584-.0851.323-.0887.4901h-4.4003l-.1923-1.9761c-.0212-.2184-.1137-.4237-.2631-.5843l-.9304-1c-.2131-.2291-.365-.5189-.4393-.8381-.0067-.0287-.0146-.0572-.0239-.0852l-1.6985-5.1746c.0084-.0002.0167-.0003.025-.0003.2022 0 .3907.0617.5641.186.2472.1756.4169.4536.4779.7827.0074.0397.0171.0788.0292.1173l.453 1.4427c.132.4203.5211.7005.9534.7005.036 0 .0723-.0019.1088-.0059.4744-.0516.8463-.4312.8881-.9066l.8224-9.3561c.0312-.176.1495-.3019.286-.302h.3398m0-1h-.3398c-.649.0004-1.1843.5024-1.2794 1.1822l-.8253 9.3883-.453-1.4427c-.108-.5829-.42-1.0875-.8821-1.4157-.3389-.2431-.7285-.3708-1.1432-.3708-.1479 0-.299.0162-.4521.0492-.2072.0441-.3911.1794-.5038.3708-.1138.1924-.1497.4286-.0984.6506l1.7778 5.4162c.1138.4892.3493.936.681 1.2926l.9304 1.0001.2802 2.8792h6.3077l-.0004-.9652c0-.0669.0114-.1326.0333-.1956l1.7371-4.0945c.4979-1.4272.1721-3.0456-.8305-4.1232l-3.5862-3.4333-.0589-4.7969c0-.7431-.6031-1.3913-1.2944-1.3913z"/></svg>