<svg viewBox="0 0 24 24" xmlns="http://www.w3.org/2000/svg"><path d="m19.1 8.6c-.2-.4-.6-.6-1.1-.6h-2c0-1.1-.9-2-2-2h-9c-1.1 0-2 .9-2 2v1h-1c-.3 0-.5.2-.5.5s.2.5.5.5h1v5c0 1.1.9 2 2 2h1.1c.2.6.8 1 1.4 1s1.2-.4 1.4-1h8.2c.2.6.8 1 1.4 1s1.2-.4 1.4-1h.9c.6 0 1.2-.5 1.2-1v-2.8c0-.1 0-.2-.1-.4zm-4.1 7.4h-6.1c-.2-.6-.8-1-1.4-1s-1.2.4-1.4 1h-1.1c-.6 0-1-.4-1-1v-5h4c.3 0 .5-.2.5-.5s-.2-.5-.5-.5h-4v-1c0-.6.4-1 1-1h9c.6 0 1 .4 1 1zm4.9 0c-.2-.6-.8-1-1.4-1s-1.2.4-1.4 1h-1.1v-7h2c.1 0 .2 0 .2.1v.1.1l2.8 4.1v2.6zm-8.9-4.5c0 .3-.2.5-.5.5h-3.5c-.3 0-.5-.2-.5-.5s.2-.5.5-.5h3.5c.3 0 .5.2.5.5z"/></svg>