<svg enable-background="new 0 0 24 24" viewBox="0 0 24 24" xmlns="http://www.w3.org/2000/svg"><g fill="#020202"><path d="m8.6 13.6h2.5v1.3h-2.5z" transform="matrix(.7071 -.7071 .7071 .7071 -7.2102 11.1136)"/><path d="m18.3 5.7c-1.6-1.6-4.3-1.6-5.9 0l-1.8 1.8.9.9 1.8-1.8c1.1-1.1 3-1.1 4.1 0s1.1 3 0 4.1l-1.8 1.8.9.9 1.8-1.8c1.6-1.6 1.6-4.3 0-5.9z"/><path d="m10.8 17.4c-1.1 1.1-3 1.1-4.1 0s-1.1-3 0-4.1l1.8-1.8-.9-.9-1.8 1.8c-1.6 1.6-1.6 4.3 0 5.9.8.8 1.8 1.2 2.9 1.2 1 0 2.1-.4 3-1.2l1.8-1.8-.9-.9z"/><path d="m11.3 3.6h1.3v16.6h-1.3z" transform="matrix(.7071 -.7071 .7071 .7071 -4.9405 11.9275)"/><path d="m13 9.2h2.5v1.3h-2.5z" transform="matrix(.7071 -.7071 .7071 .7071 -2.7604 12.9568)"/></g></svg>