<svg viewBox="0 0 24 24" xmlns="http://www.w3.org/2000/svg"><path d="m10.5 6.5c3.5 0 2.9191 3.8492 2.9191 3.8501l.5288.2243c.0213.0338.0521 1.4256-.1715 1.8071l-.1181.2666c-.6583 3.3519-2.1583 3.8518-3.1592 3.8518-.999 0-2.499-.5-3.1573-3.8518l-.1153-.2621c-.2264-.386-.1927-1.7824-.1743-1.8116l.5288-.2243c0-.0006-.5809-3.8501 2.9191-3.8501m0-1c-4.1418 0-3.9191 3.7932-3.9191 4.188 0 0-.5809.2464-.5809 1.153 0 .3188.0005.3973 0 .9361s.3781 1.1383.3781 1.1383c.0006.002.6219 4.5845 4.1209 4.5845 3.501 0 4.1228-4.5842 4.1229-4.5845 0 0 .3786-.5995.3781-1.1383s0-.6173 0-.9361c0-.9066-.5809-1.153-.5809-1.153 0-.3948.2227-4.188-3.9191-4.188zm6.01 9.0884c-.43.5962-1.11.9957-1.874 1.1965-.1016.2046-.2134.4036-.335.5962.275.1128.54.2256.795.3416.631-.1967 1.207-.5072 1.674-.9191.2223.0932 4.23 1.6964 4.23 2.6964h1c0-1.3974-2.5-2.5-5.49-3.9116zm.938-7.4731c-.125-2.627-1.021-4.1154-3.98-4.1154-1.793 0-2.828.5465-3.394 1.5609.4223-.0182.8454-.0058 1.266.0373.483-.385 1.254-.561 2.127-.561.972 0 1.816.2174 2.278.6976.5796.6025.718 2.7994.718 2.9778.537 0 .5903 1.3077.57 1.4418-.0438.2894-.6676 1.8182-1.004 2.6207-.029 1.2249-.4487 1.5313-.449 1.5319 0 0-.405 1.2265-.405 1.2265.667-.3478.997-.8612 1.205-1.1841l.002-.0031c.275-.3757.667-1.2058.91-1.919.0741-.2174.3969-1.1788.416-1.2141.118-.2174.264-.4865.317-.9315.0074-.0618.013-1.0929.013-1.093-.007-.3861-.064-.5983-.59-1.0733zm1.552 13.8846h-1.0026c0-1-2.7172-2.031-4.1737-2.6383-.8286.7321-2.0159 1.1554-3.3237 1.1599-1.3079-.0045-2.4951-.4279-3.3237-1.1599-1.4786.6166-4.1737 1.6383-4.1737 2.6383h-1.0026c0-2 2.5-2.5 5.4429-3.824.6442.8901 1.8529 1.3414 3.0571 1.3456 1.2042-.0042 2.4128-.4554 3.0571-1.3456 2.9429 1.324 5.4429 2.324 5.4429 3.824z"/></svg>