<svg viewBox="0 0 24 24" xmlns="http://www.w3.org/2000/svg"><path d="m16.5 9.9h1v5.6h-1zm0-1.2h1v-1h-1zm5.5-4.7v16.9s-.5.1-1 .1c-2.3 0-4.2-1.1-6.4-1.1-.8 0-1.9.4-2.6 1-.7-.6-1.8-1-2.6-1-2.2 0-4.1 1.1-6.4 1.1-.5 0-1-.1-1-.1v-16.9s.5.1 1 .1c2.3 0 4.2-1.1 6.4-1.1.8 0 1.9.4 2.6 1 .7-.6 1.8-1 2.6-1 2.2 0 4.1 1.1 6.4 1.1.5 0 1-.1 1-.1zm-12.6 14.9c.6 0 1.4.2 2.1.5v-14.5s-.7-.9-2.1-.9c-2 0-3.9 1.1-6.4 1.1v14.9c1.9 0 3.7-1.1 6.4-1.1zm11.6-13.8c-2.9 0-4.9-1.1-6.4-1.1-1.2 0-2.1.9-2.1.9v14.5c.7-.3 1.5-.5 2.1-.5 2 0 3.9 1.1 6.4 1.1z"/></svg>