<svg viewBox="0 0 24 24" xmlns="http://www.w3.org/2000/svg"><path d="m16.5 9.941h1v5.559h-1zm0-1.257h1v-1.037h-1zm5.5-4.6915v16.8723s-.5175.1352-1 .1352c-2.3123 0-4.174-1.1277-6.3734-1.1277-.782 0-1.9176.4297-2.6266.9925-.709-.5627-1.8446-.9925-2.6266-.9925-2.1994 0-4.0612 1.1277-6.3734 1.1277-.4825 0-1-.1352-1-.1352v-16.8723s.5175.1351 1 .1351c2.3123 0 4.174-1.1276 6.3734-1.1276.782 0 1.9176.4297 2.6266.9925.709-.5627 1.8446-.9925 2.6266-.9925 2.1994 0 4.0612 1.1276 6.3734 1.1276.4825 0 1-.1351 1-.1351zm-12.6266 14.8798c.6349 0 1.4136.2113 2.1266.5406v-14.5405l-.1217-.0966c-.5846-.4641-1.5087-.7758-2.0049-.7758-.9515 0-1.8696.2515-2.8416.5177-1.0947.2999-2.2267.6099-3.5318.6099v14.8724c1.0361 0 1.9918-.2618 3.0035-.5389 1.0568-.2894 2.1495-.5887 3.3699-.5887zm11.6266-13.7447c-1.3051 0-2.4371-.3101-3.5318-.6099-.972-.2662-1.8901-.5177-2.8416-.5177-.4962 0-1.4203.3117-2.0049.7758l-.1217.0966v14.5406c.713-.3293 1.4916-.5406 2.1266-.5406 1.2205 0 2.3132.2993 3.3699.5887 1.0117.2772 1.9673.5389 3.0035.5389z"/></svg>