<svg viewBox="0 0 24 24" xmlns="http://www.w3.org/2000/svg"><path d="m10.5 6.5c3.5 0 2.9 3.8 2.9 3.9l.5.2s.1 1.4-.2 1.8c0 0-.7 4.1-3.3 4.1s-3.3-4.1-3.3-4.1c-.1-.4-.1-1.8-0-1.8l.5-.2c0-.1-.6-3.9 2.9-3.9m0-1c-4.1 0-3.9 3.8-3.9 4.2 0 0-.6.2-.6 1.2v.9s.4 1.1.4 1.1.6 4.6 4.1 4.6 4.1-4.6 4.1-4.6.4-.6.4-1.1 0-.6 0-.9c0-.9-.6-1.2-.6-1.2 0-.4.2-4.2-3.9-4.2zm6 9.1c-.4.6-1.1 1-1.9 1.2-.1.2-.2.4-.3.6.3.1.5.2.8.3.6-.2 1.2-.5 1.7-.9.2.1 4.2 1.7 4.2 2.7h1c0-1.4-2.5-2.5-5.5-3.9zm.9-7.5c-.1-2.6-1-4.1-4-4.1-1.8 0-2.8.5-3.4 1.6h1.3c.5-.4 1.3-.6 2.2-.6 3 0 3 2.7 3 3.7.5 0 .6 1.3.5 1.5 0 .3-.7 1.8-1 2.6 0 1.2-.9 2.8-.9 2.8.7-.3 1-.9 1.2-1.2.3-.4 1.3-3.1 1.3-3.1.2-.3.4-.6.4-1 0-.1.2-1.7-.6-2.2zm1.6 13.9h-1c0-1-2.7-2-4.2-2.6-.8.7-2 1.2-3.3 1.2s-2.5-.4-3.3-1.2c-1.5.6-4.2 1.3-4.2 2.6h-1c0-2 2.5-2.5 5.4-3.8.6.9 1.9 1.3 3.1 1.3s2.4-.5 3.1-1.3c2.9 1.3 5.4 2.3 5.4 3.8z"/></svg>