<svg id="Default" xmlns="http://www.w3.org/2000/svg" viewBox="0 0 24 24"><path d="M10,16a2.69,2.69,0,0,0,3-3V11a2.69,2.69,0,0,0-3-3,2.69,2.69,0,0,0-3,3v2A2.69,2.69,0,0,0,10,16ZM8,11c0-1.4.6-2,2-2s2,.6,2,2v2c0,1.4-.6,2-2,2s-2-.6-2-2Z"/><path d="M16.5,10C18.36,10,19,9,19,7.75V6.25C19,5,18.37,4,16.5,4S14,5,14,6.25v1.5C14,9,14.63,10,16.5,10ZM15,6.25C15,5.5,15.26,5,16.5,5S18,5.5,18,6.25v1.5C18,8.5,17.74,9,16.5,9S15,8.5,15,7.75Z"/><path d="M14,14a4.78,4.78,0,0,1-.22,1A4,4,0,0,1,16,18.87V19H4v-.13A3.89,3.89,0,0,1,6.19,15,4.54,4.54,0,0,1,6,14H6a4.9,4.9,0,0,0-3,4.87H3V20H17V18.87h0A5.07,5.07,0,0,0,14,14Z"/><path d="M21,12.25a3.32,3.32,0,0,0-1.61-3.09,2.56,2.56,0,0,1-.5.86A2.16,2.16,0,0,1,20,12H15v1h6v-.75Z"/></svg>