<svg viewBox="0 0 24 24" xmlns="http://www.w3.org/2000/svg"><path d="m12 5.5c3.5 0 2.9191 3.8492 2.9191 3.8501l.5288.2243c.0213.0338.0521 1.4256-.1715 1.8071l-.1181.2666c-.6583 3.3519-2.1583 3.8518-3.1592 3.8518-.999 0-2.499-.5-3.1573-3.8518l-.1153-.2621c-.2264-.386-.1927-1.7824-.1743-1.8116l.5288-.2243c0-.0006-.5809-3.8501 2.9191-3.8501m0-1c-4.1418 0-3.9191 3.7932-3.9191 4.188 0 0-.5809.2464-.5809 1.153 0 .3188.0005.3973 0 .9361s.3781 1.1383.3781 1.1383c.0006.002.6219 4.5845 4.1209 4.5845 3.501 0 4.1228-4.5842 4.1229-4.5845 0 0 .3786-.5995.3781-1.1383s0-.6173 0-.9361c0-.9066-.5809-1.153-.5809-1.153 0-.3948.2227-4.188-3.9191-4.188zm3.0571 11.676c-.6442.8901-1.8529 1.3414-3.0571 1.3456-1.2042-.0042-2.4128-.4554-3.0571-1.3456-2.9429 1.324-5.4429 1.824-5.4429 3.824h1.0026c0-1 2.6951-2.0217 4.1737-2.6383.8286.7321 2.0159 1.1554 3.3237 1.1599 1.3079-.0045 2.4951-.4279 3.3237-1.1599 1.4565.6073 4.1737 1.6383 4.1737 2.6383h1.0026c0-1.5-2.5-2.5-5.4429-3.824z"/></svg>