<svg viewBox="0 0 24 24" xmlns="http://www.w3.org/2000/svg"><path d="m13.9854 12.1455.8999-.8999c.0682.2461.1106.4988.1147.7544 0 1.6569-1.3431 3-3 3-.2556-.0042-.5083-.0465-.7544-.1147l.8999-.8999c.9863-.0723 1.7676-.8535 1.8398-1.8398zm-3.9839-.2778-.9204.9204c-.2581-.8745-.1206-1.8521.469-2.6381.7697-1.0262 2.0647-1.3971 3.2267-1.0576l-.9078.9078c-.3496.0188-.6981.126-1.0089.3386-.5299.3625-.8237.9346-.8585 1.5288zm11.9985.1323s-3.042 5.9913-10 6c-1.1389.0015-2.2703-.1733-3.3577-.5115l.8169-.8169c.8307.2114 1.6831.326 2.5408.3284 3.6104-.0553 6.9464-1.938 8.86-5-.8531-1.3604-1.9965-2.5131-3.3439-3.3853l.731-.731c1.8088 1.2031 3.7529 4.1162 3.7529 4.1162zm-20 0s3-6 10-6c1.1437 0 2.2729.1761 3.3562.5129l-.7947.7947c-.8345-.2115-1.6951-.3171-2.5615-.3076-3.6145.05-6.9558 1.9336-8.87 5 .8662 1.3661 2.0348 2.4937 3.3876 3.3516l-.7178.7178c-2.9329-1.9099-3.7993-4.0686-3.7998-4.0693zm19.2828-10-19.2828 19.2828.7172.7172 19.2828-19.2828z"/></svg>