<svg viewBox="0 0 24 24" xmlns="http://www.w3.org/2000/svg"><path d="m21.504 11.992c0 2.9-1.175 5.524-3.075 7.425l-.708-.707c1.7847-1.7798 2.7863-4.1975 2.783-6.718.0033-2.52-.9979-4.9373-2.782-6.717l.707-.707c1.9 1.9 3.075 4.525 3.075 7.424zm-4 0c.0021 1.7243-.6831 3.3783-1.904 4.596l-.707-.707c1.0327-1.0305 1.6121-2.4301 1.61-3.889.0018-1.4586-.5776-2.8577-1.61-3.888l.708-.708c1.2205 1.2178 1.9054 2.8718 1.903 4.596zm-4.508-7.992v16l-5-5h-4.996v-6h4.996zm-1 2.414-3.586 3.586h-4.414v4h4.414l3.586 3.585z"/></svg>