<svg viewBox="0 0 24 24" xmlns="http://www.w3.org/2000/svg"><path d="m19.25 12c2.2567-.0436 3.8899 2.389 3.014 4.462.446.366.736.916.736 1.538.0003 1.0659-.8354 1.9447-1.9 1.998l-8.6.002c-2.3308.005-2.7543-3.3601-.493-3.931-.1309-2.1693 2.6518-3.4045 4.182-1.902.431-1.222 1.266-2.167 3.061-2.167zm-3.739 2.902c-.8737-.8671-2.475-.2207-2.509 1.01 0 0-.002.93-.002.93l-.746.196c-1.0896.2516-.9481 1.9008.1711 1.96h8.6259c1.2117-.2037 1.2923-1.3996.011-2.2289 0 0 .274-.6801.274-.6801.6111-1.4378-.5285-3.1153-2.086-3.089-1.1365 0-1.8516.5052-1.978 1.4006-.1294.9167-1.2517 1.1781-1.761.5015zm-.511-3.902c0-.2764-.2236-.5-.5-.5h-2c-.2764 0-.5.2236-.5.5s.2236.5.5.5h2c.2764 0 .5-.2236.5-.5zm-11 0c0-.2764-.2236-.5-.5-.5h-2c-.2764 0-.5.2236-.5.5s.2236.5.5.5h2c.2764 0 .5-.2236.5-.5zm8.9497-4.9497c-.1954-.1954-.5117-.1954-.7071 0l-1.4142 1.4142c-.1954.1954-.1954.5117 0 .7071s.5117.1954.7071 0l1.4142-1.4142c.1954-.1954.1954-.5117 0-.7071zm-7.7782 7.7782c-.1954-.1954-.5117-.1954-.7071 0l-1.4142 1.4142c-.1954.1954-.1954.5117 0 .7071s.5117.1954.7071 0l1.4142-1.4142c.1954-.1954.1954-.5117 0-.7071zm2.8284-9.8284c-.2764 0-.5.2236-.5.5v2c0 .2764.2236.5.5.5s.5-.2236.5-.5v-2c0-.2764-.2236-.5-.5-.5zm0 11c-.2764 0-.5.2236-.5.5v2c0 .2764.2236.5.5.5s.5-.2236.5-.5v-2c0-.2764-.2236-.5-.5-.5zm-4.9496-8.9498c-.1954.1954-.1954.5117 0 .7071l1.4142 1.4142c.1954.1954.5117.1954.7071 0s.1954-.5117 0-.7071l-1.4142-1.4142c-.1954-.1954-.5117-.1954-.7071 0zm4.9497 2.6997c1.2406 0 2.25 1.0093 2.25 2.25s-1.0094 2.25-2.25 2.25-2.25-1.0093-2.25-2.25 1.0094-2.25 2.25-2.25m0-.75c-1.6569 0-3 1.3433-3 3s1.3431 3 3 3 3-1.3433 3-3-1.3431-3-3-3z"/></svg>