<svg viewBox="0 0 24 24" xmlns="http://www.w3.org/2000/svg"><path d="m20.005 18.58-2.14-10c-.2-.92-1.01-1.58-1.96-1.58h-2.39c.32-.42.51-.93.51-1.5 0-1.3807-1.1193-2.5-2.5-2.5s-2.5 1.1193-2.5 2.5c0 .57.19 1.08.51 1.5h-2.39c-.94 0-1.76.66-1.96 1.58l-2.14 10c-.232 1.0799.4555 2.1434 1.5354 2.3754.1395.03.2819.0449.4246.0446h13.05c1.27 0 2.22-1.17 1.96-2.42zm-9.98-13.08c0-.83.67-1.5 1.5-1.5s1.5.67 1.5 1.5-.67 1.5-1.5 1.5-1.5-.67-1.5-1.5zm8.8 14.13c-.19.24-.47.37-.78.37h-13.05c-.3 0-.59-.14-.78-.37-.19-.24-.26-.54-.2-.84l2.14-10c.1-.46.51-.79.98-.79h8.77c.47 0 .88.33.98.79l2.14 10c.06.3 0 .6-.2.84z"/></svg>