<svg xmlns="http://www.w3.org/2000/svg" viewBox="0 0 24 24"><path d="m11.793,17c.552,0,1.052.224,1.414.586l-1.414,1.414-1.414-1.414c.3746-.3757.8835-.5865,1.414-.586Zm0-4c1.651,0,3.14.696,4.189,1.811l-.708.707c-.8979-.9693-2.1597-1.5196-3.481-1.518-1.3213-.0016-2.5831.5487-3.481,1.518l-.708-.707c1.0856-1.1573,2.6022-1.8129,4.189-1.811Zm0-4c2.643-.0031,5.1672,1.0978,6.963,3.037l-.708.707c-1.6079-1.7514-3.8775-2.747-6.255-2.744-2.3777-.0027-4.6472.9933-6.255,2.745l-.708-.708c1.7958-1.9393,4.32-3.0402,6.963-3.037Zm0-4c3.855,0,7.333,1.616,9.793,4.207l-.708.708c-2.3587-2.5023-5.6463-3.919-9.085-3.915-3.4387-.004-6.7263,1.4127-9.085,3.915l-.708-.708c2.5465-2.6899,6.0889-4.2117,9.793-4.207Z"/></svg>