<svg viewBox="0 0 24 24" xmlns="http://www.w3.org/2000/svg"><path d="m14 17h-4v-1h4zm7-9v10c0 1.1046-.8954 2-2 2h-14c-1.1046 0-2-.8954-2-2v-10zm-1 3.86c-1.26 1.21-3.74 2.14-8 2.14s-6.74-.93-8-2.14v6.14c0 .5523.4477 1 1 1h14c.5523 0 1-.4477 1-1zm0-2.53v-.33h-16v.33c0 1.59 1.39 3.67 8 3.67s8-2.08 8-3.67zm-12-2.33h-1c.04-.13.13-.26.13-.38.63-1.62 2.04-2.62 4.87-2.62s4.25 1.06 4.88 2.63c.05.12.12.25.12.37h-1c-.09-.24-.205-.471-.34-.69-.66-.91-1.95-1.31-3.66-1.31s-3 .4-3.65 1.3c-.142.22-.26.454-.35.7z"/></svg>