<svg viewBox="0 0 24 24" xmlns="http://www.w3.org/2000/svg"><path d="m17.5923 11.783c3.1324.1106 5.3801-3.5282 3.9424-6.2779l-.1397-.1397-3.104 3.104h-1.1977l-.5988-.5988v-1.1977l3.104-3.104-.1397-.1397c-3.6625-1.8198-7.6671 2.2148-5.8487 5.8487l-1.6268 1.6269-1.6268-1.6269c1.8185-3.6365-2.1875-7.6675-5.8487-5.8487l-.1397.1397 3.104 3.104v1.1977l-.5988.5988h-1.1977l-3.104-3.104-.1397.1397c-1.8185 3.6365 2.1875 7.6675 5.8487 5.8487l1.6268 1.6269-4.4813 4.4813c-1.3345 1.3899.6873 3.4176 2.076 2.076l4.4813-4.4813 4.4813 4.4813c1.3897 1.3423 3.4101-.6876 2.076-2.076l-4.4813-4.4813 1.6268-1.6269c.5988.2894 1.2576.4292 1.9063.4292zm-10.7991 7.0464c-.4451.4378-1.0764-.2287-.6587-.6687l4.4813-4.4813.6687.6687-4.4813 4.4813zm11.0386-.6687c.1797.1797.1797.4791 0 .6687-.248.195-.4107.1951-.6587 0l-8.6932-8.6932-.6388.2994c-2.2165 1.1692-5.0811-.7603-4.8406-3.2437l2.2556 2.2556h2.0261l1.1777-1.1777v-2.0261l-2.2556-2.2556h.2096c2.4236-.0682 4.1367 2.6934 3.0341 4.8606l-.2994.6388 8.6932 8.6932zm-4.4813-5.8886-.6687-.6687 2.1259-2.1259s-1.5743-2.5877.3493-4.5113c.6388-.6388 1.4871-.9881 2.3854-.9881h.2096l-2.2556 2.2556v2.0261l1.1777 1.1777h2.0261l2.2556-2.2556c.0499.9482-.2894 1.8963-.9781 2.595-1.8468 1.8736-4.5008.3496-4.5013.3493z"/></svg>