<svg id="Default" xmlns="http://www.w3.org/2000/svg" viewBox="0 0 24 24"><path d="M15.75,11.53a3.94,3.94,0,0,0,1.79.48,4.06,4.06,0,0,0,2.83-1.44c.82-.81,2.29-2.27,1.41-4.09a4.66,4.66,0,0,0-.85-1.14L18,8.25a.52.52,0,0,1-.34.2c-.17,0-.34-.14-.62-.42-.48-.48-.52-.56-.17-.9l2.91-2.9a4.38,4.38,0,0,0-1.16-.86,2.73,2.73,0,0,0-1.19-.29,4.51,4.51,0,0,0-3,1.66,3.72,3.72,0,0,0-1.43,2.8,3.28,3.28,0,0,0,.46,1.8L12,10.84,10.52,9.32h0c1.13-2.23,0-3.63-1-4.61A4.49,4.49,0,0,0,6.62,3a2.56,2.56,0,0,0-1.13.27,4.26,4.26,0,0,0-1.14.84L7.25,7c.32.31.25.48-.22,1-.27.26-.41.39-.55.39s-.2-.08-.35-.23L3.24,5.26a4.61,4.61,0,0,0-.86,1.16c-.9,1.84.55,3.3,1.37,4.13A3.74,3.74,0,0,0,6.54,12a3.3,3.3,0,0,0,1.8-.46L9.84,13,4.54,18.3A1.56,1.56,0,0,0,4,19.39a1.53,1.53,0,0,0,.55,1.09A1.57,1.57,0,0,0,5.63,21a1.55,1.55,0,0,0,1.1-.54L12,15.22l5.24,5.27a1.59,1.59,0,0,0,1.09.54,1.57,1.57,0,0,0,1.09-.54,1.4,1.4,0,0,0,0-2.2L14.22,13l1.52-1.51ZM15.18,11l-1.52,1.51-.57.57.56.56,5.23,5.26c.4.41.4.66,0,1.06a.89.89,0,0,1-.52.31.9.9,0,0,1-.53-.31L12.6,14.66,12,14.09l-.56.56-5.3,5.27a.93.93,0,0,1-.54.3.9.9,0,0,1-.53-.3.92.92,0,0,1-.31-.53,1,1,0,0,1,.31-.53l5.31-5.27L11,13l-.56-.56L8.9,10.94l-.44-.44-.53.32a2.5,2.5,0,0,1-1.39.35A3,3,0,0,1,4.32,10C3.33,9,2.5,8,3.1,6.77c.06-.11.12-.22.19-.33L5.57,8.73a1.3,1.3,0,0,0,.91.46,1.6,1.6,0,0,0,1.11-.63c.35-.35,1.15-1.16.23-2.09L5.54,4.19,5.84,4a1.72,1.72,0,0,1,.78-.19A3.86,3.86,0,0,1,9,5.26c1.1,1.1,1.62,2.1.83,3.67h0l-.28.52.42.42,1.52,1.52L12,12l.57-.56,1.51-1.5.44-.44-.32-.54a2.5,2.5,0,0,1-.35-1.39,3,3,0,0,1,1.19-2.23,3.88,3.88,0,0,1,2.39-1.43,1.82,1.82,0,0,1,.83.21c.11,0,.22.12.34.19l-2.3,2.28a1.3,1.3,0,0,0-.46.92,1.6,1.6,0,0,0,.63,1.11,1.72,1.72,0,0,0,1.19.66,1.28,1.28,0,0,0,.9-.43l2.29-2.29a2.38,2.38,0,0,1,.18.3C21.64,8,20.8,9,19.81,10a3.29,3.29,0,0,1-2.27,1.21,3.21,3.21,0,0,1-1.41-.38h0l-.52-.29Z"/></svg>