<svg viewBox="0 0 24 24" xmlns="http://www.w3.org/2000/svg"><path d="m16.3126 4c.102 0 .2039.0044.3055.013l-1.8096 1.8089c-.2704.2673-.4206.6239-.4229 1.0041-.0023.3803.1437.7386.4187 1.0168l1.3536 1.3535c.2692.2684.6268.4161 1.0069.4161.3817 0 .7402-.1488 1.0088-.418l1.8132-1.813c.0089.1018.0132.2038.0132.3057 0 2.0331-1.6542 3.687-3.6866 3.687-.354-.0003-.7054-.0521-1.0447-.1538l-.572-.1716-.4224.4223-8.171 8.1694c-.2274.2286-.5427.3597-.8702.3597-.3297 0-.6398-.1284-.872-.3606-.4802-.4816-.4803-1.2653-.001-1.7458l8.1689-8.1683.4229-.4229-.1724-.5726c-.1021-.3389-.154-.6901-.1544-1.0428 0-2.0331 1.6542-3.687 3.6875-3.687m0-1c-2.5841 0-4.6875 2.1024-4.6875 4.687.0005.451.0669.8994.1969 1.3311l-8.169 8.1683c-.8707.873-.8707 2.2859 0 3.1591.4219.4218.9835.6545 1.5801.6545h.005c.5909 0 1.1575-.2355 1.5742-.6545l8.169-8.1674c.4319.1296.8803.1956 1.3312.196 2.584 0 4.6874-2.1024 4.6874-4.687 0-.5377-.0955-1.0729-.283-1.5919l-.2275-.6306-3.023 3.0227c-.0833.0834-.1924.1252-.3017.1252-.1088 0-.2177-.0414-.3008-.1243l-1.3525-1.3524c-.0012-.0012-.0024-.0023-.0035-.0035-.1644-.1664-.1628-.4345.0035-.599l3.0239-3.0227-.6307-.2284c-.5182-.1875-1.0543-.2821-1.592-.2821z"/></svg>