<svg xmlns="http://www.w3.org/2000/svg" width="800" height="500" viewBox="0 0 800 500"><rect width="100%" height="100%" fill="#DDDDDD"/><path fill="#999999" d="M189.055 278.94q3.23 0 5.67-.93t4.11-2.57q1.67-1.64 2.52-3.92.85-2.28.85-4.93 0-6.31-3.5-9.54-3.5-3.23-9.65-3.23t-9.64 3.23q-3.5 3.23-3.5 9.54 0 2.65.85 4.93.84 2.28 2.51 3.92 1.67 1.64 4.11 2.57 2.44.93 5.67.93Zm0-58.25q-2.91 0-5.03.9t-3.53 2.41q-1.4 1.52-2.06 3.48-.67 1.96-.67 4.13 0 2.28.56 4.43.56 2.14 1.88 3.81 1.33 1.67 3.5 2.68 2.17 1.01 5.35 1.01 3.18 0 5.35-1.01 2.18-1.01 3.5-2.68 1.33-1.67 1.88-3.81.56-2.15.56-4.43 0-2.17-.69-4.13t-2.07-3.48q-1.37-1.51-3.49-2.41-2.12-.9-5.04-.9Zm12.93 27.67q7 2.28 10.34 6.97 3.34 4.69 3.34 11.47 0 5.09-1.94 9.22-1.93 4.14-5.43 7.05-3.5 2.92-8.4 4.51-4.9 1.59-10.84 1.59-5.93 0-10.84-1.59-4.9-1.59-8.4-4.51-3.5-2.91-5.43-7.05-1.93-4.13-1.93-9.22 0-6.78 3.33-11.47 3.34-4.69 10.34-6.97-5.57-2.33-8.35-6.63-2.78-4.29-2.78-10.33 0-4.35 1.78-8.11 1.77-3.76 4.95-6.55 3.18-2.78 7.61-4.34 4.42-1.57 9.72-1.57 5.3 0 9.73 1.57 4.42 1.56 7.6 4.34 3.18 2.79 4.96 6.55 1.77 3.76 1.77 8.11 0 6.04-2.78 10.33-2.78 4.3-8.35 6.63Zm76.64 1.64q0 10.02-2.14 17.41-2.15 7.4-5.94 12.22-3.79 4.82-8.96 7.18-5.17 2.36-11.15 2.36-5.99 0-11.11-2.36-5.11-2.36-8.88-7.18-3.76-4.82-5.88-12.22-2.12-7.39-2.12-17.41 0-10.07 2.12-17.44 2.12-7.36 5.88-12.19 3.77-4.82 8.88-7.18 5.12-2.36 11.11-2.36 5.98 0 11.15 2.36t8.96 7.18q3.79 4.83 5.94 12.19 2.14 7.37 2.14 17.44Zm-13.51 0q0-8.32-1.22-13.78-1.22-5.46-3.26-8.69-2.04-3.23-4.69-4.53-2.65-1.3-5.51-1.3-2.81 0-5.44 1.3-2.62 1.3-4.63 4.53-2.02 3.23-3.21 8.69-1.19 5.46-1.19 13.78t1.19 13.78q1.19 5.46 3.21 8.69 2.01 3.24 4.63 4.53 2.63 1.3 5.44 1.3 2.86 0 5.51-1.3 2.65-1.29 4.69-4.53 2.04-3.23 3.26-8.69 1.22-5.46 1.22-13.78Zm74.99 0q0 10.02-2.14 17.41-2.15 7.4-5.94 12.22-3.79 4.82-8.96 7.18-5.17 2.36-11.15 2.36-5.99 0-11.11-2.36-5.11-2.36-8.88-7.18-3.76-4.82-5.88-12.22-2.12-7.39-2.12-17.41 0-10.07 2.12-17.44 2.12-7.36 5.88-12.19 3.77-4.82 8.88-7.18 5.12-2.36 11.11-2.36 5.98 0 11.15 2.36t8.96 7.18q3.79 4.83 5.94 12.19 2.14 7.37 2.14 17.44Zm-13.51 0q0-8.32-1.22-13.78-1.22-5.46-3.26-8.69-2.04-3.23-4.69-4.53-2.65-1.3-5.51-1.3-2.81 0-5.44 1.3-2.62 1.3-4.63 4.53-2.02 3.23-3.21 8.69-1.19 5.46-1.19 13.78t1.19 13.78q1.19 5.46 3.21 8.69 2.01 3.24 4.63 4.53 2.63 1.3 5.44 1.3 2.86 0 5.51-1.3 2.65-1.29 4.69-4.53 2.04-3.23 3.26-8.69 1.22-5.46 1.22-13.78Zm97.68 20.78-6.95 6.83-17.96-17.96-18.13 18.07-6.94-6.84 18.12-18.18-17.28-17.27 6.89-6.89 17.28 17.27 17.17-17.17 7 6.89-17.22 17.23 18.02 18.02Zm55.7-47.23-2.7 15.96q2.54-.53 4.87-.77t4.51-.24q6.04 0 10.65 1.8t7.74 4.98q3.12 3.18 4.71 7.45 1.59 4.27 1.59 9.2 0 6.09-2.14 11.13-2.15 5.03-5.96 8.61-3.82 3.58-9.04 5.54-5.22 1.96-11.37 1.96-3.6 0-6.84-.74-3.23-.75-6.06-1.99-2.84-1.25-5.25-2.86-2.41-1.62-4.32-3.42l4.03-5.57q1.27-1.8 3.34-1.8 1.32 0 2.7.85 1.38.85 3.15 1.85 1.78 1.01 4.19 1.86 2.41.85 5.8.85 3.61 0 6.36-1.17 2.76-1.17 4.59-3.26t2.75-4.98q.93-2.89.93-6.28 0-6.25-3.63-9.78-3.63-3.52-10.73-3.52-5.46 0-11.19 2.01l-8.16-2.33 6.36-37.21h37.84v5.57q0 2.81-1.74 4.55-1.75 1.75-5.94 1.75h-21.04Zm96.09 26.45q0 10.02-2.15 17.41-2.15 7.4-5.93 12.22-3.79 4.82-8.96 7.18-5.17 2.36-11.16 2.36t-11.1-2.36q-5.12-2.36-8.88-7.18-3.76-4.82-5.88-12.22-2.12-7.39-2.12-17.41 0-10.07 2.12-17.44 2.12-7.36 5.88-12.19 3.76-4.82 8.88-7.18 5.11-2.36 11.1-2.36 5.99 0 11.16 2.36t8.96 7.18q3.78 4.83 5.93 12.19 2.15 7.37 2.15 17.44Zm-13.52 0q0-8.32-1.22-13.78-1.22-5.46-3.26-8.69-2.04-3.23-4.69-4.53-2.65-1.3-5.51-1.3-2.81 0-5.43 1.3-2.62 1.3-4.64 4.53-2.01 3.23-3.2 8.69-1.2 5.46-1.2 13.78t1.2 13.78q1.19 5.46 3.2 8.69 2.02 3.24 4.64 4.53 2.62 1.3 5.43 1.3 2.86 0 5.51-1.3 2.65-1.29 4.69-4.53 2.04-3.23 3.26-8.69 1.22-5.46 1.22-13.78Zm75 0q0 10.02-2.15 17.41-2.15 7.4-5.93 12.22-3.79 4.82-8.96 7.18-5.17 2.36-11.16 2.36t-11.1-2.36q-5.12-2.36-8.88-7.18-3.76-4.82-5.88-12.22-2.12-7.39-2.12-17.41 0-10.07 2.12-17.44 2.12-7.36 5.88-12.19 3.76-4.82 8.88-7.18 5.11-2.36 11.1-2.36 5.99 0 11.16 2.36t8.96 7.18q3.78 4.83 5.93 12.19 2.15 7.37 2.15 17.44Zm-13.52 0q0-8.32-1.22-13.78-1.22-5.46-3.26-8.69-2.04-3.23-4.69-4.53-2.65-1.3-5.51-1.3-2.81 0-5.43 1.3-2.62 1.3-4.64 4.53-2.01 3.23-3.2 8.69-1.2 5.46-1.2 13.78t1.2 13.78q1.19 5.46 3.2 8.69 2.02 3.24 4.64 4.53 2.62 1.3 5.43 1.3 2.86 0 5.51-1.3 2.65-1.29 4.69-4.53 2.04-3.23 3.26-8.69 1.22-5.46 1.22-13.78Z"/></svg>