<?xml version="1.0" standalone="no"?>
<!DOCTYPE svg PUBLIC "-//W3C//DTD SVG 1.1//EN" "http://www.w3.org/Graphics/SVG/1.1/DTD/svg11.dtd" >
<svg xmlns="http://www.w3.org/2000/svg" xmlns:xlink="http://www.w3.org/1999/xlink" version="1.1">
<metadata></metadata>
<defs>
<font id="pag-iconfontregular" horiz-adv-x="2048" >
<font-face units-per-em="2048" ascent="1920" descent="-128" />
<missing-glyph horiz-adv-x="1024" />
<glyph horiz-adv-x="0" d="M0 0z" />
<glyph horiz-adv-x="0" d="M0 0z" />
<glyph horiz-adv-x="0" d="M0 0z" />
<glyph unicode=" " horiz-adv-x="1024" d="M0 0z" />
<glyph unicode="&#xa0;" horiz-adv-x="1024" d="M0 0z" />
<glyph unicode="&#x2000;" horiz-adv-x="960" />
<glyph unicode="&#x2001;" horiz-adv-x="1920" />
<glyph unicode="&#x2002;" horiz-adv-x="960" />
<glyph unicode="&#x2003;" horiz-adv-x="1920" />
<glyph unicode="&#x2004;" horiz-adv-x="640" />
<glyph unicode="&#x2005;" horiz-adv-x="480" />
<glyph unicode="&#x2006;" horiz-adv-x="320" />
<glyph unicode="&#x2007;" horiz-adv-x="320" />
<glyph unicode="&#x2008;" horiz-adv-x="240" />
<glyph unicode="&#x2009;" horiz-adv-x="384" />
<glyph unicode="&#x200a;" horiz-adv-x="106" />
<glyph unicode="&#x202f;" horiz-adv-x="384" />
<glyph unicode="&#x205f;" horiz-adv-x="480" />
<glyph unicode="&#x25fc;" horiz-adv-x="1000" d="M0 0z" />
<glyph unicode="&#xe001;" d="M256 412q232 -140 496 -140q384 0 644 272t244 652v12q92 64 152 164q-72 -40 -176 -52q36 20 78 72t54 100q-36 -24 -98 -46t-98 -22q-96 96 -232 96q-128 0 -222 -92t-94 -224q0 -36 8 -72q-184 4 -370 92t-302 236q-60 -128 -26 -244t122 -172q-92 -8 -136 36 q-4 -100 54 -188t190 -124q-44 -24 -132 -8q8 -76 94 -146t190 -70q-52 -60 -174 -108t-266 -24z" />
<glyph unicode="&#xe002;" d="M352 830q0 -146 104 -250t248 -104q128 0 224 84l180 -152q-20 -40 -20 -88q0 -92 66 -158t158 -66t158 66t66 158t-66 158t-158 66q-68 0 -124 -36l-176 148q44 80 44 172q0 120 -72 216l232 256q44 -20 96 -20q92 0 158 66t66 158t-66 158t-158 66t-158 -66t-66 -158 q0 -64 32 -116l-232 -260q-84 52 -184 52q-144 0 -248 -102t-104 -248z" />
<glyph unicode="&#xe003;" d="M160 1024q0 -280 196 -476t476 -196q212 0 384 120l280 -276q32 -36 82 -36t84 34t34 84t-36 82l-276 280q120 172 120 384q0 280 -196 476t-476 196t-476 -196t-196 -476zM352 1024q0 200 140 340t340 140t340 -140t140 -340t-140 -340t-340 -140t-340 140t-140 340z " />
<glyph unicode="&#xe004;" d="M320 800h612v-608h184v608h612v192h-612v608h-184v-608h-612v-192z" />
<glyph unicode="&#xe005;" d="M768 352v1088l704 -544z" />
<glyph unicode="&#xe006;" d="M328 1148q0 -136 54 -242t158 -150q40 -16 52 24q0 12 8 44t12 40q8 32 -16 56q-68 80 -68 204q0 204 142 348t366 144q204 0 318 -110t114 -286q0 -228 -92 -386t-236 -158q-84 0 -134 58t-30 138q12 48 36 126t40 138t16 104q0 64 -36 108t-104 44q-84 0 -142 -76 t-58 -188q0 -44 8 -86t20 -58l8 -20q-116 -480 -136 -560q-36 -152 0 -392q0 -8 8 -10t16 2q144 192 184 340q76 260 76 280q28 -52 98 -90t154 -38q244 0 400 200t156 508q0 236 -184 412t-468 176q-344 0 -542 -200t-198 -444z" />
<glyph unicode="&#xe007;" d="M384 448h1280v896h-1280v-896zM512 576v256h256v-256h-256zM512 960v256h256v-256h-256zM896 576v256h256v-256h-256zM896 960v256h256v-256h-256zM1280 576v256h256v-256h-256zM1280 960v256h256v-256h-256z" />
<glyph unicode="&#xe008;" d="M112 942q2 114 50 218q50 102 131 179t187 121q104 44 218 40q110 6 210 -36t184 -108q-36 -40 -73 -79t-77 -75q-100 68 -228 79t-230 -67q-70 -50 -108 -128t-40 -162t30 -164q34 -80 102 -134q68 -60 158 -78q90 -16 175 7t151 83q64 62 84 154q-86 2 -170 2t-168 2 v102v100h282t280 -2q10 -118 -11 -237t-95 -217q-54 -76 -134 -126q-78 -50 -169 -73t-185 -17t-180 38q-88 34 -158 92q-72 60 -123 137t-75 167q-26 90 -18 182zM1458 830v84v84h84h84v84v84h84h84v-84v-84h84h84v-84v-84h-84h-84v-85v-83h-84h-84v84v84h-84h-84z" />
<glyph unicode="&#xe009;" d="M536 852h228v-852h308v852h264l48 320h-312v224q0 48 36 68t72 20h200v308h-228q-112 0 -194 -36t-122 -98t-56 -120t-16 -122v-244h-228v-320z" />
<glyph unicode="&#xe00a;" d="M320 384h1408v352h-192v-192h-1024v192h-192v-352zM608 1184l416 -448l416 448h-288v352h-256v-352h-288z" />
<glyph unicode="&#xe00b;" d="M304 338l162 -162l558 558l558 -558l162 162l-558 558l558 558l-162 162l-558 -558l-558 558l-162 -162l558 -558z" />
<glyph unicode="&#xe00c;" d="M256 352v512l768 608l768 -608v-512l-768 608z" />
<glyph unicode="&#xe00d;" d="M480 128l608 768l-608 768h512l608 -768l-608 -768h-512z" />
<glyph unicode="&#xe00e;" d="M480 896l608 768h512l-608 -768l608 -768h-512z" />
<glyph unicode="&#xe00f;" d="M256 960v512l768 -608l768 608v-512l-768 -608z" />
<glyph unicode="&#xe010;" d="M512 1132q0 -172 204 -528q92 -164 188 -300l120 -176l120 176q92 136 188 300q204 356 204 528q0 220 -150 376t-362 156t-362 -156t-150 -376z" />
<glyph unicode="&#xe011;" d="M288 384v192h1472v-192h-1472zM288 800v192h1472v-192h-1472zM288 1216v192h1472v-192h-1472z" />
<glyph unicode="&#xe012;" d="M224 896q0 -332 234 -566t566 -234t566 234t234 566t-234 566t-566 234t-566 -234t-234 -566zM424 800h152v192h-152q32 192 172 332t332 172v-152h192v152q192 -32 332 -172t172 -332h-152v-192h152q-32 -192 -172 -332t-332 -172v152h-192v-152q-192 32 -332 172 t-172 332z" />
<glyph unicode="&#xe013;" d="M640 384v1024h288v-1024h-288zM1120 384v1024h288v-1024h-288z" />
<glyph unicode="&#xe014;" d="M384 896q0 -264 188 -452t452 -188t452 188t188 452h-192q0 -184 -132 -316t-316 -132t-316 132t-132 316t132 316t316 132v-128l292 224l-292 224v-128q-264 0 -452 -188t-188 -452z" />
<glyph unicode="&#xe015;" d="M222 990l670 640v-382l130 -18q130 -16 285 -91t285 -229q130 -152 130 -424q0 -68 -28 -149t-66 -111l-4 106q-4 108 -68 221t-216 181t-448 -10v-370z" />
<glyph unicode="&#xe016;" d="M224 608v576h288v-576h-288zM608 608v576l416 320v-1216zM1216 640h172l116 148l116 -148h172l-204 252l204 260h-160l-128 -156l-128 156h-160l204 -260z" />
<glyph unicode="&#xe017;" d="M292 836l732 -676l732 676l-184 184l-420 -424v1036h-256v-1036l-420 424z" />
<glyph unicode="&#xe018;" d="M288 644l152 -260q64 40 144 40q120 0 204 -86t84 -206h300q0 80 40 144q60 104 176 136t220 -28l152 260q-68 40 -108 104q-60 104 -28 222t136 178l-148 260q-68 -40 -148 -40q-120 0 -204 84t-84 208h-300q0 -80 -40 -148q-60 -104 -176 -134t-224 30l-148 -260 q68 -40 108 -108q60 -104 28 -220t-136 -176zM716 896q0 128 90 218t218 90t218 -90t90 -218t-90 -218t-218 -90t-218 90t-90 218z" />
<glyph unicode="&#xe019;" d="M224 608v576h288v-576h-288zM608 608v576l416 320v-1216zM1216 608q0 32 24 52q96 100 96 238t-96 234q-24 24 -24 56t22 54t54 22t56 -24q144 -140 144 -342t-144 -346q-24 -20 -56 -20t-54 22t-22 54zM1492 464q0 32 20 52q160 160 160 382t-160 382q-20 20 -20 52 t22 54t54 22t52 -20q204 -204 204 -490t-204 -490q-20 -24 -52 -24t-54 24t-22 56z" />
<glyph unicode="&#xe01a;" d="M288 640v192h672v-192h-672zM768 160v672h192v-672h-192zM1088 960v672h192v-672h-192zM1088 960v192h672v-192h-672z" />
<glyph unicode="&#xe01b;" d="M352 224v672h192v-672h-192zM352 224v192h672v-192h-672zM1024 1376v192h672v-192h-672zM1504 896v672h192v-672h-192z" />
<glyph unicode="&#xe01c;" d="M292 956l184 -184l420 424v-1036h256v1036l420 -424l184 184l-732 676z" />
<glyph unicode="&#xe01d;" d="M320 1216v224h1408v-224h-1408zM448 320v224h224v-224h-224zM448 736v224h224v-224h-224zM832 320v224h896v-224h-896zM832 736v224h896v-224h-896z" />
<glyph unicode="&#xe01e;" d="M256 576v288l768 608l768 -608v-288l-768 608z" />
<glyph unicode="&#xe01f;" d="M704 128l608 768l-608 768h288l608 -768l-608 -768h-288z" />
<glyph unicode="&#xe020;" d="M480 896l608 768h288l-608 -768l608 -768h-288z" />
<glyph unicode="&#xe021;" d="M256 960v288l768 -608l768 608v-288l-768 -608z" />
<glyph unicode="&#xe022;" d="M256 672v192l768 608l768 -608v-192l-768 608z" />
<glyph unicode="&#xe023;" d="M384 128h800l-192 192h-416v1152h544l288 -256v-64h192v128l-416 384h-800v-1536zM992 544l448 -416l448 416h-224v416h-448v-416h-224z" />
<glyph unicode="&#xe024;" d="M800 128l608 768l-608 768h192l608 -768l-608 -768h-192z" />
<glyph unicode="&#xe025;" d="M480 896l608 768h192l-608 -768l608 -768h-192z" />
<glyph unicode="&#xe026;" d="M256 960v192l768 -608l768 608v-192l-768 -608z" />
<glyph unicode="&#xe027;" d="M232 676q0 -188 202 -304t462 -116q304 0 510 144t206 304q0 84 -56 138t-136 78q-36 12 -24 40q40 100 0 156t-136 56t-216 -52q-40 -16 -40 8v8q40 128 -16 188q-64 64 -216 4t-304 -208q-236 -236 -236 -444zM394 614q-14 130 116 234t326 124t344 -58t160 -206 t-118 -234t-326 -124t-342 58t-160 206zM600 534q36 -82 128 -110q100 -32 198 10t138 134q40 88 -2 168t-138 104q-92 24 -186 -16t-134 -124t-4 -166zM672 558q-8 30 10 60t52 42t66 -2t40 -44t-12 -60t-54 -42t-64 2t-38 44zM856 684q16 28 44 16t12 -40t-44 -16t-12 40z M1262 1456q6 -24 26 -38t44 -10q168 36 284 -92t64 -292q-8 -20 2 -44t34 -30t48 4t28 34q36 104 14 214t-100 196t-184 118t-214 12q-24 -8 -38 -28t-8 -44zM1314 1254q10 -50 62 -38q56 12 94 -32t22 -96t32 -68t64 36q36 112 -42 198t-194 62q-48 -12 -38 -62z" />
<glyph unicode="&#xe028;" d="M128 1180l428 -420l-88 -620l548 288l532 -292l-64 508q-196 -40 -416 -40t-340 16l-124 20l556 404q-80 16 -250 26t-298 14h-128q756 104 984 12l-588 -408l600 -16l-12 88l452 420l-628 76l-284 560l-292 -560zM1480 672l4 -28l104 24z" />
<glyph unicode="&#xe029;" d="M32 900q0 -204 132 -364q152 72 244 224t92 340v352q-200 -32 -334 -188t-134 -364zM324 408q124 -68 268 -68t272 68q-220 136 -272 352q-48 -216 -268 -352zM688 1100q0 -184 92 -336t244 -228q-136 160 -136 364t136 364q-136 156 -336 188v-352zM1024 536 q148 76 242 226t94 338v352q-204 -32 -336 -188q136 -164 136 -364t-136 -364zM1184 408q128 -68 272 -68t268 68q-220 136 -268 352q-52 -216 -272 -352zM1548 1100q0 -184 92 -336t244 -228q132 160 132 364q0 208 -134 364t-334 188v-352z" />
<glyph unicode="&#xe02a;" d="M480 480h1120v832h-1120v-832zM576 576v96h160v-96h-160zM576 1120v96h160v-96h-160zM832 576v96h160v-96h-160zM832 1120v96h160v-96h-160zM1088 576v96h160v-96h-160zM1088 1120v96h160v-96h-160zM1344 576v96h160v-96h-160zM1344 1120v96h160v-96h-160z" />
<glyph unicode="&#xe02b;" d="M384 384h1280v992l-192 192h-96v-640h-832v640h-160v-1184zM640 1024h640v544h-640v-544z" />
<glyph unicode="&#xe02c;" d="M512 160h1024v1472h-1024v-1472zM608 1216v256h832v-256h-832zM672 320v192h192v-192h-192zM672 576v192h192v-192h-192zM672 832v192h192v-192h-192zM928 320v192h192v-192h-192zM928 576v192h192v-192h-192zM928 832v192h192v-192h-192zM1184 320v448h192v-448h-192z M1184 832v192h192v-192h-192z" />
<glyph unicode="&#xe02d;" d="M320 800v192h1408v-192h-1408z" />
<glyph unicode="&#xe02e;" d="M224 680q8 -68 40 -148q44 4 92 12q20 -40 24 -44l28 -44q-28 -32 -56 -72q48 -60 112 -108l72 56l44 -28q4 -4 44 -24q-8 -48 -8 -88q80 -32 152 -40q20 44 36 84l52 -4l48 4q16 -40 36 -84q72 8 156 40q-4 40 -12 88q40 20 44 24l44 28l72 -56q64 48 112 108 q-24 40 -56 72q4 8 10 14t10 14t8 14t24 46q48 -8 92 -12q32 80 40 148q-44 20 -84 36l4 48l-4 48q36 16 80 32q40 8 92 28q-4 24 -8 56q28 12 28 16l12 6l16 10q24 -16 48 -36q40 32 72 72q-16 24 -36 48q4 0 8 6t6 12t4 8t18 26q28 -4 56 -4q24 52 28 96q-28 12 -56 20 l4 32l-4 32l56 24q-4 44 -28 96q-28 0 -56 -8q-16 28 -16 32l-8 10l-12 14q20 24 36 48q-32 40 -72 72q-24 -20 -48 -36q-4 4 -8 6t-10 6t-10 6l-28 14q4 32 8 56q-56 20 -100 28q-16 -28 -24 -56l-32 4l-36 -4q-8 28 -24 56q-44 -8 -96 -28q0 -24 4 -56q-24 -12 -28 -16 l-12 -6q-12 -6 -16 -10q-24 16 -48 36q-40 -32 -72 -72q16 -24 36 -48l-20 -24q0 -4 -12 -32q-32 8 -60 8q-8 -16 -12 -32q-40 12 -80 16q-20 -44 -36 -84l-48 4l-52 -4q-16 40 -36 84q-72 -8 -152 -40q0 -40 8 -88q-40 -20 -44 -24l-18 -10l-26 -18l-72 56 q-64 -48 -112 -108q24 -40 56 -72l-28 -44q-4 -4 -24 -44q-48 8 -92 12q-32 -80 -40 -148q44 -20 84 -36l-4 -48l4 -48q-40 -16 -84 -36zM544 764q4 84 44 148q40 72 112 112q64 36 156 40q88 -4 152 -40q72 -40 112 -112q40 -64 44 -148q-4 -84 -44 -148q-40 -72 -112 -112 q-64 -36 -152 -40q-92 4 -156 40q-72 40 -112 112t-44 148zM1212 1228v12q4 56 28 100q28 44 76 72q40 24 100 24q56 0 100 -24q44 -28 72 -72q24 -44 28 -100q-4 -52 -28 -96q-28 -44 -72 -72q-44 -24 -100 -24q-60 0 -100 24q-4 4 -8 4q24 32 48 68q-48 60 -112 108 q-12 -12 -32 -24z" />
<glyph unicode="&#xe02f;" d="M320 416v288h608v-288h-608zM320 896v288h1408v-288h-1408zM320 1376v288h1408v-288h-1408zM1056 352h224v-224h224v224h224v224h-224v224h-224v-224h-224v-224z" />
<glyph unicode="&#xe031;" d="M296 1368l52 -156q88 -160 222 -318t260 -274t238 -206t182 -138l70 -48l128 -60q56 -16 108 2t82 56t54 82t34 72t10 32l24 96l-428 152q-8 -48 -12 -56q-4 -16 -8 -18t-8 2q-4 0 -4 4q-212 64 -336 192l-64 60q-164 196 -176 340q0 12 8 12l68 32l-220 404l-40 -20 q-12 0 -32 -4t-70 -20t-84 -40t-54 -72t-4 -108z" />
<glyph unicode="&#xe032;" d="M256 896q0 -320 226 -544t544 -224t542 224t224 544q0 324 -216 546t-552 222q-316 0 -542 -224t-226 -544zM380 1096q56 140 144 236t138 124t62 28l16 -72l-60 -4l-28 8l-28 -40q-12 -24 -16 -36l8 -36q48 -4 48 12l-8 20l-4 24l8 2l38 8q38 8 66 -2q48 -4 62 -38 t22 -38q12 -12 8 -22t-24 -34t-24 -32q-12 -24 -36 32q24 24 -12 32q-32 4 -32 -24q4 -8 8 -12q12 4 16 -8t0 -28q-8 -56 -20 -76q-8 -16 -28 -26t-36 -10h-16q8 -20 20 -40q4 -12 2 -26t-4 -32t-2 -22q0 -20 -32 24q-12 16 -16 32q-4 28 -40 20q-60 -16 -68 4q0 8 -16 0 t-42 -26l-26 -18q-24 -16 -4 -24q8 -4 20 0q20 12 36 4t8 -28q-4 -16 -18 -18t-12 -10t18 -26t20 -30q8 -24 92 20q20 8 48 10t40 -18q4 -28 108 -56q0 -4 26 -8t42 -12t28 -20q12 -16 8 -32t-16 -38t-16 -26q0 -8 -22 -40t-26 -44q-16 -36 -36 -52l-28 -36l4 -60 q16 -36 28 -56q4 -4 -2 -32t-14 -52l-4 -24q-60 12 -72 40q0 8 -10 24t-10 36q0 12 -12 30t-28 34l-20 20q-24 40 -24 60q0 8 -8 18t-20 14l-8 8q-68 32 -80 44q-12 16 -24 96l12 84q4 4 6 8t8 14t-6 18q-4 4 -8 12t-6 16t-2 16t-4 12v4l-28 36q-24 32 -28 52q-4 12 4 44 q0 8 -4 32t-4 32zM808 1480q0 8 4 28q32 32 92 44t104 8t48 -12q-8 -16 -30 -28t-26 -32q0 -12 -16 -34t-30 -40t-10 -22q16 -32 -4 -72q-12 -24 -40 0q-96 108 -92 160zM1080 1288q-4 8 2 14t14 10l8 4q28 -8 30 -28t-6 -32q-4 -20 -44 24q-4 4 -4 8zM1108 788q-4 44 2 72 t6 52q0 32 54 38t106 -2l52 -8q68 -40 102 -34t42 30l12 24l100 40l8 44l-52 64l-84 36q-36 -24 0 -84l-2 -4q-2 -4 -4 -16t-8 -18t-14 -12t-16 2l-84 104q-28 -48 -72 -76q-28 -12 -54 -12t-50 8l-20 4q-28 80 20 104h72q0 4 -2 12t-6 28t4 36q4 20 26 20t38 12 q20 16 56 -16t60 -28q20 4 30 8t10 8t6 10t18 10q16 8 32 0t24 -24l8 -12l76 -8q-48 124 -64 140h-4q0 4 4 0q40 -8 108 -158t36 -250l-28 12h-88l52 -64l10 -10l22 -18q22 -18 32 -8q-8 -128 -76 -246t-128 -170l-60 -56q-16 16 -20 34t0 26l4 8l20 56l8 92q-4 4 -4 10 t-8 22t-18 22t-30 10t-44 -12q-40 -12 -60 -22t-36 -14t-60 -8q-96 0 -64 192zM1156 1308q0 16 8 32l4 16q8 12 40 28q8 -4 8 -6t-4 -22t-4 -24q-8 -32 16 -56q12 -12 -4 -12q-32 0 -60 20q-4 8 -4 24zM1300 1356l28 68q12 44 16 72q24 12 112 -80q-12 -52 -38 -78t-46 -26 l-20 -4q-4 0 -14 2t-26 14t-12 32z" />
<glyph unicode="&#xe033;" d="M800 128v80q68 0 100 52q28 48 28 188v500q4 104 -28 144q-20 24 -44 38t-40 18l-16 4v64h352v-768q0 -140 32 -192q16 -24 40 -36t40 -12h16v-80h-480zM896 1400v264h256v-264h-256z" />
<glyph unicode="&#xe034;" d="M512 1132q0 -172 204 -528q92 -164 188 -300l120 -176l120 176q92 136 188 300q204 356 204 528q0 220 -150 376t-362 156t-362 -156t-150 -376zM680 1154q0 142 100 244t244 102t244 -102t100 -244t-100 -244t-244 -102t-244 102t-100 244z" />
<glyph unicode="&#xe035;" d="M192 832h516l-208 -208l88 -92l340 364l-340 368l-88 -92l208 -212h-516v-128zM1120 896l340 368l88 -92l-208 -212h516v-128h-516l208 -208l-88 -92z" />
<glyph unicode="&#xe036;" d="M256 864h132q12 -256 196 -432t440 -176q312 0 504 240l-140 140q-20 -32 -44 -56q-132 -132 -318 -132t-318 132q-116 116 -128 284h124l-224 288zM520 1296l140 -136q20 28 44 56q132 128 318 128t318 -128q116 -120 128 -288h-124l224 -288l224 288h-132 q-12 256 -196 432t-440 176q-312 0 -504 -240z" />
<glyph unicode="&#xe037;" d="M256 1088l472 -364l-184 -596l480 368l480 -368l-184 592l472 368h-576l-192 576l-192 -576h-576z" />
<glyph unicode="&#xe050;" d="M416 256v1280h192v-1280h-192zM928 256v1280h192v-1280h-192zM1440 256v1280h192v-1280h-192z" />
<glyph unicode="&#xe600;" d="M181 1383q-13 -21 7 -61q28 -48 82 -138l54 -90l-56 -122l-5 -29q-5 -29 25 -45q30 -18 51 4l21 22l190 410l7 30q7 30 -27 46t-52 -2t-26 -32t-41 -87l-33 -73l-39 70t-55 94q-16 26 -38 34t-52 -10zM416 536q46 66 84 141t66 159l72 -34q-16 -56 -36 -99l-20 -43 l-2 -384h-68v270q-6 -10 -17 -28t-19 -26zM536 1220q0 -80 52 -137t126 -57q72 0 125 57t53 137t-53 137t-125 57q-74 0 -126 -57t-52 -137zM570 324q52 44 99 115t51 181h-116v60h122v150h68v-150h216v-60h-132v-270q0 -6 3 -9t9 -3h42q6 0 11 4t7 12t4 41t2 59l72 -22v-21 v-35q0 -56 -30 -79t-44 -23l-90 2q-22 0 -39 19t-17 39l-2 286h-2h-8q-4 -128 -61 -217t-105 -129zM632 1220q0 46 24 73t60 27q34 0 57 -27t23 -73q0 -44 -23 -72t-59 -28q-34 0 -58 28t-24 72zM842 778l46 50l110 -88l-46 -50zM902 1168q0 -54 35 -98t123 -44t124 42 t36 100v98v88q0 20 -11 37t-35 17q-28 0 -37 -19t-9 -37v-86v-82q0 -24 -13 -52t-53 -28t-53 26t-13 52v83v87q0 18 -9 37t-35 19q-32 0 -41 -20t-9 -38v-80v-102zM1062 326q0 -28 18 -40t44 -12h98h88t31 13t15 41v183v161q0 14 -3 22t-17 8h-37h-23v54h80v56h-294v-56h92 v-54h-70l-11 -3q-11 -3 -11 -19v-171v-183zM1130 342v56h170v-56v-6q0 -6 -12 -6h-146q-8 0 -10 6zM1130 454v44l32 -24q12 12 29 37t19 85v38h12v-100q-2 -16 9 -30t33 -16h36v-34h-170zM1130 524v110h24v-40q0 -22 -8 -42t-16 -28zM1210 702v54h12v-54h-12zM1236 1084 q0 -18 12 -37t40 -19q24 0 38 16t14 38v92l59 -55q59 -55 77 -71q16 -14 39 -15t39 13q14 14 16 32t-14 36l-108 102l40 41q40 41 54 59q16 18 16 34t-14 30q-12 12 -32 16t-36 -12q-18 -14 -77 -75l-59 -61v56v42q0 22 -14 38t-38 16q-28 0 -40 -19t-12 -37v-86v-82v-88v-4 zM1276 552v82h24v-94h-16q-4 0 -6 3t-2 9zM1366 636l58 -10q4 10 7 23t9 41h56v-80h-118v-54h292v54h-114v80h90v56h-88v78h-62v-78h-46q4 16 5 31t-1 25h-64q-4 -56 -9 -93t-15 -73zM1390 330q0 -28 12 -42t34 -14h72h86t43 13t9 33v111v91h-256v-82v-110zM1456 344v122 h132v-122l-2 -7q-2 -7 -14 -7h-51h-47t-16 7zM1568 1168q0 -54 35 -98t123 -44q90 0 125 42t35 100v98v88q0 20 -11 37t-35 17q-28 0 -37 -19t-9 -37v-86v-82q0 -24 -12 -52t-52 -28t-54 26t-14 52v83v87q0 18 -8 37t-36 19q-30 0 -40 -20t-10 -36v-82v-102z" />
<glyph unicode="&#xe601;" d="M254 896q0 -156 1 -206t3 -112q4 -62 13 -106t23 -80q16 -38 37 -71t53 -65t65 -53t71 -37q36 -14 80 -23t106 -13q62 -2 112 -3t206 -1t206 1t112 3q62 4 106 13t80 23q38 16 71 37t65 53t53 65t37 71q14 36 23 80t13 106q2 62 3 112t1 206t-1 206t-3 112q-4 62 -13 106 t-23 80q-16 38 -37 71t-53 65t-65 53t-71 37q-36 14 -80 23t-106 13q-62 2 -112 3t-206 1t-206 -1t-112 -3q-62 -4 -106 -13t-80 -23q-38 -16 -71 -37t-65 -53t-53 -65t-37 -71q-14 -36 -23 -80t-13 -106q-2 -62 -3 -112t-1 -206zM394 694v202v202t4 110q2 56 10 89t16 53 q10 28 24 48t34 40t40 34t48 24q20 8 53 16t89 10q62 4 110 5t202 1t202 -1t110 -5q56 -2 89 -10t53 -16q26 -10 47 -24t41 -34t34 -40t24 -48q8 -20 16 -53t10 -89q4 -62 4 -110v-202v-202t-4 -108q-2 -58 -10 -91t-16 -53q-10 -26 -24 -47t-34 -41t-40 -34t-48 -24 q-20 -8 -53 -16t-89 -10q-62 -2 -110 -3t-202 -1t-202 1t-110 3q-56 2 -89 10t-53 16q-26 10 -47 24t-41 34t-34 41t-24 47q-8 20 -16 54t-10 90q-4 60 -4 108zM628 896q0 -82 32 -154q30 -72 84 -126t126 -84q72 -32 154 -32t154 32q72 30 126 84t84 126q32 72 32 154 t-32 154q-30 72 -84 126t-126 84q-72 32 -154 32t-154 -32q-72 -30 -126 -84t-84 -126q-32 -72 -32 -154zM768 896q0 106 75 181t181 75t181 -75t75 -181t-75 -181t-181 -75t-181 75t-75 181zM1342 1308q0 38 27 65t67 27q38 0 65 -27t27 -65q0 -40 -27 -67t-65 -27 q-40 0 -67 27t-27 67z" />
<glyph unicode="&#xe602;" d="M298 1456q0 72 51 123t123 51t123 -51t51 -123t-51 -123t-123 -51t-123 51t-51 123zM322 180v968h302v-968h-302zM812 180v968h288v-132h4q30 58 103 107t183 49q228 0 294 -132t66 -328v-532h-300v472q0 84 -21 170t-137 86t-148 -77t-32 -171v-480h-300z" />
<glyph unicode="&#xe603;" d="M130 1246q28 -8 108 -17t98 -11q28 -24 94 -98q64 -74 132 -157t120 -153t58 -86q4 -28 4 -54v-44v-42q0 -70 1 -93t-9 -33q-26 -24 -103 -24t-103 -4l-8 -64q44 0 160 2t166 2h216h150l6 70q-24 4 -115 3t-109 1q-4 24 -9 66t-5 70l4 56q0 24 3 49t7 43q8 24 70 82 q60 56 132 115t138 105q64 46 78 52q28 8 90 20t84 12l42 66q-36 4 -138 4h-160q-78 0 -186 2t-136 -2l14 -70q14 0 86 -10t100 -18q-4 -22 -44 -62q-42 -40 -93 -82t-95 -78q-46 -36 -56 -52q-38 56 -137 182t-175 238q28 6 113 11t105 11l10 52q-22 4 -157 6t-211 -2 q-118 -4 -222 -1t-118 -3v-60zM1620 492l4 -132l60 -8l62 -6l18 132l-66 4zM1644 1226l4 -92q0 -18 2 -96q0 -80 1 -171t1 -173q0 -80 -4 -100l112 -10q2 10 18 78t36 151t40 161q18 80 32 112l32 108q-18 4 -38 5t-78 9q-98 10 -116 11t-42 7z" />
<glyph unicode="&#xe604;" d="M134 644h458v796h-192v-228h-266v-568zM322 794v264h74l4 -264h-78zM666 644v568h190v-568h-190zM666 1286v154h190v-154h-190zM930 416h458v796h-458v-568h266v-74h-266v-154zM1118 794v264h74v-264h-74zM1456 416h458v796h-452v-568h260v-74h-266v-154zM1648 794v264 h74v-264h-74z" />
<glyph unicode="&#xe605;" d="M382 1116q-12 -62 33 -156t159 -70q116 26 124 126t4 130q-6 46 -55 106t-123 54q-92 -8 -117 -99zM474 432q32 -144 114 -167l82 -23l72 -2q72 -2 170 20t171 8l73 -14l48 -14q50 -12 115 -13t129 23t96 98q62 148 34 186l-82 112l-99 86t-175 196q-104 160 -228 130 t-172 -112q-50 -82 -110 -133t-72 -65q-10 -12 -105 -92t-61 -224zM638 576q26 90 84 110l58 20h106v128h88v-480h-198q-64 12 -92 45t-32 41q-2 8 -13 42t-1 94zM706 1414q0 -90 45 -154t107 -64q64 0 108 64t44 154t-44 153t-108 63q-62 0 -107 -63t-45 -153zM729 542 q-5 -22 3 -42q12 -48 42 -58l30 -10h80v196h-86q-28 -8 -43 -26t-19 -28q-2 -10 -7 -32zM1024 442v252l92 -4v-226q4 -16 20 -20l16 -4h94v254h98v-338h-228q-66 16 -79 51zM1094 1400q-8 -76 17 -141t111 -77q84 -10 136 59t62 137q12 70 -33 136t-105 80t-121 -58 t-67 -136zM1344 992q0 -62 25 -130t149 -66q126 4 138 102t12 132q0 32 -35 103t-137 71q-100 0 -126 -73t-26 -139z" />
<glyph unicode="&#xe606;" d="M380 1268q-4 -154 73 -280l77 -126l-15 -56q-15 -56 -27 -128q-10 -72 -2 -190t52 -172q44 -56 82 -51t98 45q60 38 121 84l61 46l41 -31q41 -31 119 -89q78 -56 161 -91t147 -23q66 14 70 73t-4 127q-6 68 -15 149l-9 81l100 36q100 36 158 98q58 60 90 126t18 108 q-14 40 -73 52t-159 30t-145 30l-45 12l-15 86q-15 86 -29 158q-12 72 -32 145t-94 71q-70 0 -142 -42t-130 -92t-96 -92l-36 -42l-74 10t-160 64q-42 26 -102 28t-64 -154zM642 930l9 2q9 2 29 10q22 8 31 14l9 6l-30 -32q2 -2 29 -119t127 -153q96 -36 225 35l129 71l6 46 l4 -16q4 -16 8 -30t9 -24l5 -10l-28 24l-125 -83q-125 -83 -241 -47q-114 36 -136 171l-22 135h-38zM786 951q-16 67 8 147q26 82 76 129t96 33q32 -10 50 -46t18 -84q24 30 52 46t54 8q48 -10 68 -78t2 -150q-20 -82 -68 -132t-94 -40q-36 10 -56 50t-20 98 q-28 -36 -61 -54t-63 -8q-46 14 -62 81zM904 1073q4 -25 20 -31q14 -4 32 15t28 51t6 58t-20 30t-34 -15t-26 -51q-10 -32 -6 -57zM942 1158q0 6 5 12t13 6t13 -6t5 -12q0 -8 -5 -14t-13 -6t-13 6t-5 14zM1107 993q5 -25 21 -29t32 16t24 54q8 32 2 57t-22 29q-14 4 -31 -16 t-25 -54q-6 -32 -1 -57zM1146 1066q-10 12 0 24t24 4q2 0 2 -1t2 -1q10 -14 0 -26t-26 -2h-1t-1 2z" />
<glyph unicode="&#xe607;" d="M160 850q26 6 58 14t68 16v176h-116v78h116v178l100 -6q-2 -6 -6 -10t-16 -4v-158h96v-78h-96v-154l92 24l10 -72l-102 -32v-242q0 -60 -32 -78t-128 -18q-2 16 -9 40t-15 40h29h27h34q8 0 12 4t4 12v218q-26 -8 -47 -15t-41 -13q0 -6 -4 -10t-10 -4zM404 554 q62 8 120 22t112 34q-36 26 -66 56t-54 64l52 22h-106v70h430l12 4l54 -26q-2 -2 -4 -5t-6 -5q-26 -56 -65 -100t-89 -80q48 -18 100 -32t108 -22q-12 -14 -28 -35t-24 -39q-66 14 -126 34t-114 48q-60 -30 -128 -49t-140 -31q-6 16 -17 37t-21 33zM486 900v338l40 -14 q28 14 54 28t42 28l54 -48v80l96 -6q-2 -6 -6 -9t-14 -5v-324h126v72h-92v62h92v72h-94v68h168v-342h-200v-60h-76v60h-190zM560 968h116v252h-8q-20 -14 -49 -27t-59 -23v-68h84v-62h-84v-72zM594 752q22 -30 53 -56t69 -48q36 22 67 47t53 57h-242zM1036 768q48 30 95 84 t77 108q-4 28 -10 56t-16 56q-20 -20 -41 -39t-43 -37q-10 12 -27 28t-31 26q28 20 55 45t53 53q-18 28 -41 57t-53 57l58 44q26 -24 48 -48t38 -48q18 24 34 48t28 48l84 -42q-2 -4 -6 -6t-12 -2q-18 -28 -39 -59t-47 -61q34 -74 44 -151t10 -157q0 -96 -9 -181t-37 -123 q-14 -18 -37 -28t-81 -10h-19h-17q-2 20 -7 41t-15 39q16 0 30 -1t26 -1q24 0 36 2t22 14q22 28 26 123t4 137q-30 -38 -62 -73t-62 -61q-10 14 -25 33t-31 29zM1282 532q64 90 78 204t14 208v298l56 -16q92 16 182 39t146 47l78 -62q-2 -2 -8 -3t-12 -1q-14 -4 -29 -9 t-31 -9q6 -104 16 -206q8 -100 23 -189t39 -165q22 -74 54 -124q-14 -10 -33 -28t-29 -34q-34 58 -58 138q-24 78 -39 172t-25 200t-16 218q-56 -14 -117 -27t-121 -23v-216q0 -68 -7 -150t-31 -162l122 6v532l90 -4q0 -6 -4 -9t-14 -5v-510l64 6q-6 28 -15 56t-17 52l56 16 q20 -58 39 -125t27 -119l-60 -16q-2 16 -5 33t-7 35q-70 -8 -135 -14t-109 -10q-2 -6 -6 -9t-8 -5l-22 76q-12 -38 -28 -72t-38 -66q-8 12 -27 28t-33 24z" />
<glyph unicode="&#xe608;" d="M448 420v988h320q54 0 95 -2t65 -6q26 -4 51 -13t51 -23t45 -31t31 -41q14 -24 20 -52t6 -58q0 -36 -9 -68t-25 -60q-18 -28 -43 -49t-55 -37v-4q44 -10 79 -30t61 -50q26 -32 39 -72t13 -88q0 -36 -7 -69t-19 -61q-14 -28 -32 -51t-42 -43q-26 -22 -55 -37t-63 -25 q-32 -10 -72 -14t-90 -4h-364zM666 606h84h56q22 0 42 4t38 12t30 19t20 25q6 12 10 28t4 32q0 24 -5 41t-13 29t-22 22t-34 16q-14 4 -33 7t-43 3h-49h-51h-24v-238h-10zM676 1034h10h50t44 2q20 0 35 3t27 7q16 8 26 16t14 20q6 10 8 22t2 26q0 10 -3 21t-7 21 q-6 10 -16 19t-24 15q-14 4 -30 7t-34 3h-32h-48h-22v-182zM1346 1408h254l-28 -696h-198zM1364 518q0 46 32 78t76 32q46 0 77 -32t31 -78q0 -44 -31 -76t-77 -32q-44 0 -76 32t-32 76z" />
<glyph unicode="&#xe609;" d="M340 656q2 -18 7 -39t17 -23q8 -2 17 0t15 6q16 8 32 24t28 34q4 8 7 18t11 16q4 -8 6 -16t6 -16q16 -48 43 -86t63 -66q6 -6 13 -10t7 -10q-36 -4 -64 -14t-40 -36q-6 -10 -9 -28t-3 -32q4 -30 31 -47t53 -25q48 -16 108 -21t122 -1q54 4 94 17t76 33q6 4 11 8t9 6 q4 0 13 -1t17 -1q6 -2 14 -2h14q16 -2 32 -9t32 -13q84 -26 204 -28t188 42q10 6 21 19t13 29q4 24 -8 39t-26 25q-20 16 -42 27t-46 25q26 26 46 58t34 68q4 12 9 24t13 22q8 -14 15 -27t15 -25t19 -26t25 -14q10 0 18 7t14 15q10 14 16 37t8 47q4 56 -9 103t-33 89 q-20 40 -42 79t-44 71q14 26 13 61t-13 61q-6 14 -15 26t-13 24q-6 20 -8 43t-6 43q-6 20 -11 39t-11 39q-46 120 -143 187t-247 81h-42h-42q-46 -4 -89 -14t-77 -24q-38 -18 -65 -38t-53 -48q-46 -44 -88 -115t-48 -153q-2 -8 -1 -15t1 -13q-2 -6 -7 -11t-7 -11 q-6 -12 -7 -25t-3 -27q-14 -18 -23 -49t3 -61q-40 -34 -77 -71t-65 -89q-20 -40 -36 -94t-10 -118z" />
<glyph unicode="&#xe60a;" d="M254 686q4 -38 12 -76t28 -72q34 -64 88 -103t122 -55q48 -14 96 -17t98 -3q40 2 81 8t81 18q46 16 85 41t69 65q24 34 37 71t19 79q4 42 -1 83t-23 79t-46 66t-68 46q-32 16 -65 27t-67 19l-210 56q-26 8 -49 18t-43 28q-12 12 -20 26t-8 32q0 40 23 69t63 41 q36 10 74 11t76 -7q40 -8 71 -29t51 -61q12 -24 15 -38l3 -14l190 2v6q0 14 -2 26t-4 26q-18 84 -66 143t-130 87q-54 20 -110 25t-112 1q-40 -2 -79 -9t-77 -21q-54 -18 -94 -52t-66 -86q-18 -36 -23 -75t-3 -79q0 -36 10 -68t26 -62q18 -38 50 -60t68 -38q46 -20 94 -30 t94 -24q34 -8 67 -17t65 -21q26 -10 49 -21t43 -29q22 -18 30 -41t0 -51q-8 -32 -28 -51t-50 -27q-58 -18 -117 -16t-115 24q-24 10 -43 26t-33 40q-6 14 -11 29t-7 29l-1 6t-1 8h-40h-62h-52h-52v-8zM902 1458l8 -4q34 -16 64 -39t54 -51q40 -46 64 -100t34 -114 q2 -26 3 -51t3 -51v-12h182h182l-294 -210l100 -302q2 -10 7 -24l5 -14l-59 42q-59 42 -97 70q-6 -36 -18 -68t-30 -60l-2 -6q100 -74 205 -149t205 -149q16 -10 38 -27l22 -17l-212 650l556 402h-688l-210 650z" />
<glyph unicode="&#xe60b;" d="M428 1002q0 -84 22 -161t62 -145q10 -8 26 -13t38 11l15 12t3 48q-32 54 -49 117t-17 131q0 102 38 194q40 90 107 157t157 107q92 38 194 38t194 -38q90 -40 157 -107t107 -157q38 -92 38 -194t-38 -194q-40 -90 -107 -157t-157 -107q-92 -38 -194 -38q-32 0 -64 4 t-62 12l-19 1t-31 -35l-6 -24q-6 -24 24 -36q38 -10 77 -16t81 -6q124 0 232 46q108 48 189 129t129 189q46 108 46 232t-46 232q-48 108 -129 189t-189 129q-108 46 -232 46t-232 -46q-108 -48 -189 -129t-129 -189q-46 -108 -46 -232zM492 158q6 -10 14 -16t16 -8 q18 -4 36 3t34 25q6 40 14 78t20 76q40 148 112 280t170 244q24 -16 54 -26t62 -10q82 0 140 58t58 140t-58 140t-140 58t-140 -58t-58 -140q0 -22 4 -43t14 -41q-54 -60 -102 -128q-48 -66 -87 -138t-71 -148q-32 -78 -54 -158q-12 -46 -22 -93t-16 -95z" />
<glyph unicode="&#xe60c;" d="M192 1261l4 -15l32 -70q32 -70 85 -169t123 -209t146 -190q142 -148 272 -166l130 -18h98l16 4t28 16q10 12 11 27l1 15l7 68q7 68 53 82q44 14 100 -63t116 -119q46 -30 77 -31l31 -1l216 2l50 15q50 15 10 81l-34 51t-128 135q-102 96 -89 128t135 196q76 100 106 161 t22 87q-10 26 -48 25l-38 -1h-244h-10q-10 0 -20 -6t-16 -16l-6 -10l-26 -62q-26 -62 -64 -128q-82 -138 -119 -165t-51 -17q-30 20 -30 70v94q0 134 3 196t-57 76q-20 4 -41 7t-71 3q-66 2 -119 -1t-85 -19q-20 -10 -32 -27t-4 -19q12 0 35 -8t37 -28q20 -24 22 -67l2 -43 l2 -108q2 -108 -34 -128q-26 -14 -64 23t-112 163q-36 64 -61 122l-25 58l-5 10q-5 10 -15 18q-12 8 -25 11l-13 3l-232 -2l-19 -2q-19 -2 -27 -14q-10 -10 -6 -25z" />
<glyph unicode="&#xe60d;" d="M224 1052q0 -118 60 -213t166 -169l-56 -172l198 100q54 -10 100 -19t98 -9h27t27 2q-10 28 -14 58t-4 60q0 94 38 174q36 82 101 143t153 97q88 34 190 34q12 0 26 -1t28 -1q-18 84 -72 158q-52 72 -128 125t-172 83t-200 30q-116 0 -220 -36q-102 -38 -179 -103 t-123 -153q-44 -88 -44 -188zM522 1222q0 32 26 51t58 19t52 -19t20 -51t-20 -52t-52 -20t-58 20t-26 52zM862 698q0 -86 36 -160q38 -76 103 -132t153 -88t188 -32q44 0 86 9t84 19l156 -84l-42 142q84 64 141 147t57 179q0 84 -40 158q-38 76 -105 132t-153 88 q-88 32 -184 32q-100 0 -188 -32t-153 -88t-103 -132q-36 -74 -36 -158zM918 1222q0 32 26 51t58 19t52 -19t20 -51t-20 -52t-52 -20t-58 20t-26 52zM1130 824q0 22 18 40t38 18q32 0 52 -18t20 -40q0 -20 -20 -38t-52 -18q-20 0 -38 18t-18 38zM1442 824q0 22 18 40t38 18 q32 0 52 -18t20 -40q0 -20 -20 -38t-52 -18q-20 0 -38 18t-18 38z" />
<glyph unicode="&#xe60e;" d="M448 320h1152v1152h-1152v-1152zM496 896v528h528v-528h528v-528h-528v528h-528z" />
<glyph unicode="&#xe60f;" d="M288 346h1472v1100h-1472v-1100zM516 358v202h2l4 2l388 312l118 -98l104 90l416 -294v-214h-1032zM516 596v614l372 -316zM578 1436l906 -2l-462 -440zM1154 886l394 342v-618z" />
<glyph unicode="&#xe610;" d="M226 439l2 75l104 454l-6 29q-6 29 -46 39q-30 8 -40 10l-10 2v26l64 6q64 6 172 24l50 2l-124 -570l-6 -53t32 -61q28 -6 54 8t42 30q14 12 35 33l21 21l30 -2q-38 -36 -100 -104t-158 -58q-118 14 -116 89zM382 1302q-14 48 6 100q18 54 59 82t79 16q38 -14 52 -61 t-4 -101q-20 -54 -60 -82t-78 -14q-40 12 -54 60zM700 888q0 112 42 218q42 104 122 185t198 129q116 48 264 48q62 0 122 -9t114 -23q88 -26 134 -53t72 -43l-130 -124l-54 -12l40 62q-40 38 -118 92t-214 54q-92 0 -170 -34q-80 -32 -137 -93t-91 -145q-32 -84 -32 -186 q0 -108 38 -210t109 -181t173 -127q102 -46 228 -46q76 0 119 12t79 26v250l-234 -12l124 66h328l-40 -40q-8 -6 -11 -10t-5 -14q0 -10 -1 -36t-1 -38v-190l-222 -50q-68 -10 -130 -18t-126 -8q-160 0 -272 52q-114 54 -184 136t-102 180q-32 100 -32 192z" />
<glyph unicode="&#xe611;" d="M544 1060q2 36 1 73t-1 73q0 10 4 16t14 12q62 30 114 71t92 99q32 46 49 98t19 108q0 14 5 18t19 4h69h71q12 0 17 -5t5 -17v-162v-162q-2 -14 4 -19t20 -5h159h159q14 0 19 -5t5 -19v-90v-88q0 -14 -5 -18t-17 -4q-80 2 -160 1t-160 1q-14 0 -20 -4t-4 -20v-205v-205 q0 -12 1 -24t3 -24q10 -58 51 -93t101 -37q58 0 112 15t108 35q20 8 23 6t3 -22v-89v-89q0 -8 -2 -13t-10 -9q-108 -26 -216 -41t-218 -1q-38 6 -75 17t-69 33q-54 34 -80 82t-26 108q-2 70 -1 138t1 138h-2v140t2 142q0 14 -5 18t-19 4q-34 -2 -68 -1t-68 -1q-14 0 -19 4 t-5 18z" />
<glyph unicode="&#xe612;" d="M254 1184h482l288 386l288 -386h482l-384 -384l96 -578l-482 288l-482 -288l96 578z" />
<glyph unicode="&#xe613;" d="M160 896l864 672v-384l118 -14q116 -14 267 -72t291 -172q140 -116 188 -318l-70 36q-68 34 -186 66t-276 40q-156 8 -332 -46v-480z" />
<glyph unicode="&#xe614;" d="M164 982h258v-602h774v86l-172 172h-344v344h344l-430 430zM852 1326l172 -172h344v-344h-344l430 -430l430 430h-258v602h-774v-86z" />
<glyph unicode="&#xe615;" d="M192 754l524 -528l1086 1086l-168 168l-914 -914l-360 356z" />
<glyph unicode="&#xe617;" d="M384 256h1280v896v384h-1280v-896v-384zM512 384v256h256v-256h-256zM512 768v256h256v-256h-256zM512 1152v256h256v-256h-256zM896 384v256h256v-256h-256zM896 768v256h256v-256h-256zM896 1152v256h256v-256h-256zM1280 384v256h256v-256h-256zM1280 768v256h256 v-256h-256zM1280 1152v256h256v-256h-256z" />
<glyph unicode="&#xe618;" d="M290 640h316v-322h868v322h286v608h-1470v-608zM610 1342v130h862v-130h-862zM708 416v412h666v-410zM1506 990v128h126v-128h-126z" />
<glyph unicode="&#xe619;" d="M196 896q0 -172 64 -322q66 -150 178 -262t262 -178q150 -64 322 -64t322 64q150 66 262 178t178 262q64 150 64 322q0 170 -64 320q-66 152 -178 264t-262 176q-150 66 -322 66t-322 -66q-150 -64 -262 -176t-178 -264q-64 -150 -64 -320zM386 1094q-10 22 0 41t26 39 q34 42 62 82t36 54q10 14 10 17t-4 9l5 2q5 2 11 12q2 4 34 40q34 34 95 74t151 72q92 32 212 32t212 -34q90 -32 153 -73t95 -77q32 -34 36 -38l5 -5l7 -7l-1 -8q-1 -8 3 -14q6 -8 46 -63t64 -87t26 -46t-2 -26q-4 -14 -18 -19t-28 -7q-16 0 -23 -1t-11 -5q-2 -2 -4 -6 l-2 -4h-2l4 9q4 9 -18 15t-42 8t-24 0t-2 -5t6 -5q2 -2 3 -6l1 -4h-31h-91q-58 0 -92 1t-64 21q-32 20 -81 43t-125 23t-124 -24t-62 -32q-16 -8 -39 -15t-91 -9l-77 -3q-77 -3 -83 -1q-8 0 -2 5t0 11t-39 -2t-37 -12q-4 -2 -1 -7l3 -5h-2l-3 7q-3 7 -17 9q-8 0 -32 2 t-32 22zM390 708l12 116q2 -4 22 -10l20 -6l7 -35t9 -37q4 -4 12 -6t20 -6q14 -2 19 3t3 13q0 10 -3 32l-3 22l23 -5q23 -5 77 -17t73 -19t29 -33q10 -28 31 -65t51 -69t44 -43t24 -35q8 -26 23 -134t17 -116l-69 9q-69 9 -167 67q-36 22 -76 55t-78 71q-132 132 -120 248z M1148 258q2 8 17 116t23 134q10 24 24 35t44 43t51 69t31 65q10 26 29 33t73 19t77 17l23 5l-3 -23q-3 -23 -3 -31q-2 -10 3 -14t19 -2q12 4 20 6t12 6q2 2 9 37l7 35l20 6q20 6 22 10l12 -116q12 -116 -120 -248q-38 -38 -78 -71t-76 -55q-98 -58 -167 -67z" />
<glyph unicode="&#xe61a;" d="M290 640h252l2 192h96v-542h512l254 254h2v288h98v-192h254v608h-1470v-608zM418 992v128h126v-128h-126zM610 1342v130h830v-130h-830zM642 992v128h126v-128h-126zM736 386v446h574v-192h-254v-254h-320zM1152 416v128h128z" />
<glyph unicode="&#xe61b;" d="M320 474h1404l8 748l-704 -352l-708 352v-748zM322 1330l712 -344l692 344v44h-1404v-44z" />
<glyph unicode="&#xe61c;" d="M448 252h426q-36 56 -57 122t-21 138q0 100 38 188q38 86 103 152t153 102q88 38 188 38q50 0 99 -10t93 -30v618h-1022v-1318zM542 1056v160h160v-160h-160zM542 1312v160h160v-160h-160zM800 1086v100h544v-100h-544zM800 1346v98h544v-98h-544zM890 512q0 -80 30 -150 q32 -70 84 -122t122 -84q72 -30 152 -30t150 30q70 32 123 84t83 122t30 150t-30 152q-30 70 -83 122t-123 82q-70 32 -150 32t-152 -32q-70 -30 -122 -82t-84 -122q-30 -72 -30 -152zM990 650q0 12 2 24t4 22l94 -92q10 -12 25 -12t27 12l56 56q10 10 10 25t-10 25l-94 94 q12 4 24 5t24 1q66 0 113 -47t47 -113q0 -22 -4 -41t-14 -35l258 -222q12 -8 12 -23t-10 -25l-56 -56q-12 -10 -26 -10t-24 12l-220 258q-18 -10 -37 -15t-39 -5q-68 0 -115 47t-47 115z" />
<glyph unicode="&#xe61d;" d="M492 788q0 -112 42 -210q42 -96 115 -169t171 -115t208 -42q112 0 210 42q96 42 169 115t115 169q42 98 42 210q0 110 -42 208q-42 96 -115 169t-169 115q-98 42 -210 42q-110 0 -208 -42t-171 -115t-115 -169q-42 -98 -42 -208zM640 790q0 80 30 150t83 123t123 83 t150 30q82 0 152 -30t123 -83t83 -123t30 -150t-30 -150q-30 -72 -83 -124t-123 -82t-152 -30q-80 0 -150 30t-123 82t-83 124q-30 70 -30 150zM932 1398v140h198v-140h-198zM974 788v342h120v-342h-120zM1332 1326l102 -70l64 92l-102 70z" />
<glyph unicode="&#xe61e;" d="M318 888q0 -30 20 -52t48 -22h94q14 -92 54 -172t102 -142t142 -102t172 -54v-96q0 -26 22 -46t52 -20h8q30 0 52 20t22 46v96q92 14 172 54t142 102t102 142t54 172h92q28 0 49 22t21 52v8q0 30 -21 52t-49 22h-92q-14 92 -54 172t-102 141t-142 103q-80 40 -170 54v92 q0 28 -23 49t-55 21h-4q-32 0 -55 -21t-23 -49v-92q-90 -14 -170 -54q-80 -42 -142 -103t-102 -141t-54 -172h-94q-28 0 -48 -22t-20 -52v-8zM630 892q0 82 30 156q32 72 86 126t126 86q74 30 156 30t156 -30q72 -32 126 -86t86 -126q30 -74 30 -156t-30 -156 q-32 -72 -86 -126t-126 -86q-74 -30 -156 -30t-156 30q-72 32 -126 86t-86 126q-30 74 -30 156zM794 892q0 98 68 166t166 68t166 -68t68 -166t-68 -166t-166 -68t-166 68t-68 166z" />
<glyph unicode="&#xe61f;" d="M586 968h50v-202q0 -142 90 -249t226 -133v-128h-34v-74h220v74h-34v128q134 28 222 135t88 247v202h56v98h-56h-74v-304q0 -130 -91 -221t-221 -91t-221 91t-91 221v304h-130v-98zM780 770q0 -104 73 -176t175 -72t175 72t73 176v584q0 104 -73 176t-175 72t-175 -72 t-73 -176v-584z" />
<glyph unicode="&#xe620;" d="M474 892q0 -114 44 -216q42 -100 118 -176t176 -118q102 -44 216 -44t216 44q100 42 176 118t118 176q44 102 44 216t-44 216q-42 100 -118 176t-176 118q-102 44 -216 44t-216 -44q-100 -42 -176 -118t-118 -176q-44 -102 -44 -216zM940 652v480l310 -240z" />
<glyph unicode="&#xe621;" horiz-adv-x="2062" d="M350 242l125 -24q125 -24 551 -24t547 24l121 24q0 76 -62 152q-62 74 -145 136t-167 104q-82 42 -124 48q-26 4 -31 52l-5 48q30 50 59 107t53 119q22 54 38 158q16 106 -1 209t-81 181t-206 78q-140 0 -202 -86q-62 -84 -78 -192t-2 -208q12 -100 22 -130 q16 -58 69 -147l53 -89l-4 -48t-30 -52q-42 -6 -126 -48q-82 -42 -166 -104t-146 -136q-62 -76 -62 -152z" />
<glyph unicode="&#xe622;" horiz-adv-x="2062" d="M286 894q0 154 58 288q58 136 158 236t234 158t286 58q154 0 288 -58t234 -158t158 -236q58 -134 58 -288q0 -152 -58 -286q-58 -136 -158 -236t-234 -158t-286 -58q-154 0 -288 58t-234 158t-158 236q-58 134 -58 286z" />
<glyph unicode="&#xe623;" horiz-adv-x="2062" d="M424 144q0 -50 21 -72t35 -28q16 -6 50 -5t58 29l68 78q66 76 147 169t149 173q68 78 70 80q8 8 11 10t11 2h112h164q86 0 111 47t35 83q4 16 24 116q20 102 46 231t52 257q24 128 38 198q22 104 -9 159t-129 55h-124h-281h-305h-192q-94 0 -128 -54t-34 -98v-248v-489 v-479v-214zM610 370v1116q0 18 15 36t41 18h108h243h247h126q20 0 35 -16t9 -42l-38 -196q-2 -16 -20 -30t-36 -14h-66h-119h-115h-52q-28 0 -48 -18t-20 -48v-44q0 -28 20 -47t48 -19h139h161q20 0 36 -19t12 -41q-4 -24 -19 -103t-19 -91q-2 -12 -16 -28t-38 -16h-133 h-111q-34 0 -50 -8t-38 -36q-10 -14 -58 -70q-48 -58 -101 -121t-95 -115l-42 -50q-2 -2 -4 -2t-2 4zM1466 710q4 16 24 116q20 102 46 231t52 257q24 128 38 198z" />
<glyph unicode="&#xe624;" d="M482 1370v136h1084v-136h-1084zM550 286h948v948h-134v-812h-678v812h-136v-948zM822 526v640h134v-640h-134zM1092 526v642h136v-642h-136z" />
<glyph unicode="&#xe625;" d="M418 302l406 74l838 840l5 79t-87 171t-171 87l-79 -5l-840 -840zM526 412l46 252q28 -10 61 -28t67 -50q32 -34 51 -67t27 -61z" />
<glyph unicode="&#xe626;" d="M350 1412l572 -764v-454h188v454l588 764h-1348z" />
<glyph unicode="&#xe627;" d="M414 888q124 0 234 -48q110 -46 191 -128t129 -192q46 -108 46 -234h248q0 176 -66 330q-68 154 -183 269t-269 183q-154 66 -330 66v-246zM414 1324q214 0 404 -82q188 -82 329 -223t223 -329q82 -190 82 -404h246q0 266 -100 500q-102 234 -276 408t-408 276 q-234 100 -500 100v-246zM416 458q0 -70 50 -120t120 -50t120 50t50 120t-50 120t-120 50h-2q-70 0 -119 -50t-49 -120z" />
<glyph unicode="&#xe628;" d="M21 776q-1 -2 1 -4v-2q0 -8 2 -14l4 -12t4 -9t6 -5q0 -4 2 -6l2 -2l14 2h2h4h6h6q4 -2 7 -3t7 -1l1 -1l1 -1h2h8h1h1h4h4q36 -2 80 -13t80 -13q2 0 30 -6l28 -6q10 -18 24 -33t32 -25q16 -10 37 -14t41 -4q16 0 31 1t29 7l20 12l20 12l60 -12q0 4 1 23t3 35h2q4 0 4 -13 v-13h20q2 0 3 3t1 5q12 12 32 16t50 6l698 -6l36 -6q12 -16 25 -29t29 -23q18 -10 38 -14t40 -4q16 0 32 1t28 7q14 6 26 14t22 16l40 -4l30 -10v8v10q0 2 1 4l1 2h6h6q12 0 22 1t20 3q6 2 11 4t9 4q10 4 22 8t20 6h11t11 2h-2h2q4 0 9 1t11 1q4 2 10 0t10 -2l15 5t19 5 q6 0 8 6t4 10q0 2 5 3t7 5q0 4 1 8t-3 8q-4 6 -8 10l-8 8q4 14 9 34t7 40q0 10 -1 18t-3 14q-8 20 -21 31t-29 21h-2l-6 4q-32 20 -56 32t-58 30q-8 4 -20 12l-24 16q-6 2 -12 5t-12 7q-8 4 -15 5t-13 1q-28 4 -60 6t-60 6q-32 6 -68 13t-70 13q-6 0 -12 -1t-12 -3h-12h2 l-22 10h-20q-62 38 -137 82t-151 74l-6 4h-2q-2 0 -5 2t-5 2q-84 24 -161 23t-157 -11q-30 -4 -65 -10t-67 -14q-84 -20 -163 -46t-163 -54q-2 2 -9 1t-9 1l-12 -4t-10 -4q-6 -2 4 -3t6 -3l-6 -2l-2 2h-48q-8 0 -6 -4t16 -10q-2 0 -2 1t-4 -1q-4 0 -8 -2t-4 2l-32 -4 q-6 -2 -5 -4t11 -6l-46 -6q-8 -2 -7 -5t13 -7l-2 -2q-8 -4 -17 -8t-19 -8t-20 -7t-20 -3q-8 -2 -9 -8t3 -10q-18 -14 -35 -34t-25 -42q-2 -10 -1 -20t1 -20q2 -6 2 -13v-9q2 -6 2 -13v-13v-7v-7h-1h-1q-2 0 -2 -1v-1v-3v-1v-3v-1q0 -2 1 -3l1 -1q0 -10 -2 -18t-4 -14v-1v-1 l1 -1l1 -1v-1t2 -1h-2q-2 -2 -3 -4z" />
<glyph unicode="&#xe629;" d="M318 1406h142l258 -498l-92 -162q-8 -14 -12 -34t-4 -38q0 -56 39 -94t97 -38h858v132h-828q-6 0 -12 5t-6 13l2 8l66 112h532q40 0 73 19t51 51l234 408h-1010l-154 280h-234v-164zM604 332q0 -58 42 -98t100 -40q60 0 102 40t42 98q0 56 -42 96t-102 40q-58 0 -100 -40 t-42 -96zM1318 332q0 -58 42 -98t100 -40q60 0 102 40t42 98q0 56 -42 96t-102 40q-58 0 -100 -40t-42 -96z" />
<glyph unicode="&#xe62a;" d="M0 896l608 768h288l-608 -768l608 -768h-288zM814 896l608 768h288l-608 -768l608 -768h-288z" />
<glyph unicode="&#xe62b;" d="M338 128l608 768l-608 768h288l608 -768l-608 -768h-288zM1152 128l608 768l-608 768h288l608 -768l-608 -768h-288z" />
<glyph unicode="&#xe62c;" d="M318 198v366h366v-366h-366zM318 720v364h364v-364h-364zM318 1238v364h364v-364h-364zM836 198v366h366v-366h-366zM836 718v366h366v-366h-366zM836 1238v364h364v-364h-364zM1352 202v366h366v-366h-366zM1352 1238v364h366v-364h-366zM1356 718v366h366v-366h-366z " />
<glyph unicode="&#xe62d;" d="M524 830l326 -328l674 676l-104 104l-568 -568l-222 222z" />
<glyph unicode="&#xe62e;" d="M162 466q0 -2 1 -3t1 -3v-45t2 -45q0 -14 -1 -27t-1 -25q0 -20 1 -39t1 -39q2 -12 3 -25t3 -25q2 -4 4 -9t4 -9q2 -8 8 -11t12 -5h2h2h64h64q8 2 12 8t6 14q2 4 4 10t2 10v3v1h6h6q2 2 5 2h7t6 2l4 4t3 4t3 4h8h8q6 -2 12 -2h12t13 -1t13 -1q8 -2 17 -3t17 -3q14 0 27 -1 t27 -3h15h15q38 -2 76 -2h76q42 2 84 1t86 -1h60t60 2h31t29 2q18 0 36 2t36 6q10 2 21 2h23h1t1 -2l1 -1l1 -1q2 -4 5 -7t9 -3h5t7 -2q2 -2 2 -5t2 -7q0 -4 2 -8l4 -8q2 -6 8 -10t12 -6h2h60h60h4h4q8 2 14 7t10 13t6 16l4 16q2 10 3 22t3 22v19t2 19v3v3v24v24v35v35v4v4 v9v9q-2 18 -2 36v36v9v11q-2 12 -2 26v26q-2 6 -2 12v12q-2 10 -3 19t-3 19t-7 19t-13 17h-2v2q-12 10 -23 19t-23 17h-1h-1v1v1h8t8 2q4 0 9 1t9 3t7 5t3 7q2 0 2 2v4q2 2 1 5t-1 5q-4 12 -10 20t-14 14l-8 4l-8 4q-8 4 -16 5t-16 3h-6t-4 -2q-4 0 -8 -4t-6 -8l-3 -6t-1 -4 v-5v-5q-2 -6 -1 -12t1 -12v-1v-1l-2 -2h-2h-18h-18q0 2 -1 3t-1 3q-4 8 -9 16t-9 16q-6 14 -13 27t-15 25q0 2 -1 2t-1 2q-2 2 -3 4t-3 4q-6 12 -13 22t-15 20q-6 10 -12 18t-14 18t-19 16t-23 10q-4 0 -6 1t-6 1q-6 0 -12 2t-10 2l-32 4t-32 6q-14 0 -26 1t-24 3h-15t-15 2 h-3h-1q-22 0 -43 1t-41 1h-7h-7h-3h-1h-28h-28h-3h-3h-31h-33q-16 -2 -31 -3t-31 -1q-12 0 -23 -1t-23 -3q-16 0 -32 -3t-32 -5q-8 -2 -16 -3t-16 -3q-6 -2 -12 -3t-12 -3l-16 -8t-14 -12q-10 -12 -20 -25t-18 -27q-20 -28 -37 -60t-33 -64l-1 -1t-1 -3q-4 0 -9 1t-9 -1h-10 t-10 -2q-2 2 -2 4v4v15t-2 13q0 4 -1 7t-3 7q-4 6 -8 9t-12 3q-12 0 -24 -3t-24 -9t-18 -16t-10 -22v-2v-4q-2 -8 1 -12t11 -8t18 -6t20 -2h4h6q-2 -2 -3 -2h-1q-10 -6 -18 -11t-16 -13q-6 -4 -12 -10t-10 -12q-2 -4 -4 -7t-4 -5q0 -8 -2 -16t-2 -16q-2 -12 -3 -25t-3 -25 v-12v-12q0 -2 -1 -3t-1 -3v-42v-42zM544 852q2 6 6 10l8 4t10 4q8 0 16 1t16 3q10 0 21 1t23 3q20 0 39 1t39 3q2 0 3 -1l1 -1q6 -6 12 -9t14 -3q6 -2 12 -2t12 -2h3h1q12 0 24 1t24 3q8 0 14 3t10 7q2 2 3 2h3h15t13 -2q10 0 19 -1t19 -1q8 -2 17 -3t19 -1t20 -2t18 -4 q6 0 10 -2l8 -4t5 -6t3 -6l-1 -1t-1 -3l-1 1t-3 1q-2 4 -6 6t-8 2q-12 2 -24 3t-24 -1q-4 0 -7 -1t-5 -3q-6 -2 -10 -6t-8 -10q0 -2 -1 -4t-1 -4q-2 -4 -4 -9t-4 -9q-2 -8 -5 -17t-5 -19h-1q-1 0 -1 -2h-4h-4h-3h-1q-2 -2 -3 -2h-3h-19h-19h-35h-35h-27h-27q-2 0 -3 -1 t-3 -1h-8h-6q-4 2 -7 2t-5 -2h-1h-1h-9h-9h-3h-3q-2 8 -4 15t-4 13q-4 8 -6 16t-6 18q0 2 -1 4t-1 4q-4 8 -9 12t-13 6q-12 2 -25 3t-25 -1q-8 -2 -15 -6t-11 -10v-2q-4 6 -2 12zM834 1046q22 -2 43 -3t43 -1l102 -11q102 -11 122 -31l9 -9t7 -9v16h188v-144l34 -21t34 -49 v804l-582 2v-544zM904 1062v156h188v-156h-188zM904 1286v156h188v-156h-188zM1160 1062v156h188v-156h-188zM1160 1286v156h188v-156h-188zM1512 278h370v1004h-370v-1004zM1592 358v144h210v-144h-210zM1592 726h208l2 -144h-208zM1592 806v144h210v-144h-210zM1592 1030 v144h210v-144h-210z" />
<glyph unicode="&#xe62f;" d="M478 254h1092v1312h-1092v-1312zM630 470v78h784v-78h-784zM630 626v78h784v-78h-784zM630 782v80h784v-80h-784zM630 940v78h784v-78h-784zM630 1096v78h784v-78h-784zM630 1252v158h392v-158h-392z" />
<glyph unicode="&#xe630;" d="M350 492h1078v1078h-1078v-1078zM484 356h1080v1080h-68v-1012h-1012v-68zM620 222h1078v1078h-68v-1010h-1010v-68z" />
<glyph unicode="&#xe631;" d="M386 1120v162h574v-162h-574zM474 356v642h486v-642h-486zM630 1610l82 84l248 -248l-82 -84zM1086 356v642h486v-642h-486zM1086 1122v158h570v-158h-570zM1094 1448l248 248l82 -84l-248 -248z" />
<glyph unicode="&#xe632;" d="M450 130v1534h218v-1534h-218zM784 894l606 768h288l-606 -766l606 -768l-288 -2z" />
<glyph unicode="&#xe633;" d="M370 130l606 766l-606 768h286l608 -766l-606 -768h-288zM1378 1664h220v-1536h-218z" />
<glyph unicode="&#xe634;" d="M226 486q0 -56 40 -96t96 -40h1324q56 0 96 40t40 96v812q0 56 -40 96t-96 40h-1324q-56 0 -96 -40t-40 -96v-812zM350 486v410h1348v-410q0 -6 -3 -9t-9 -3h-1324q-6 0 -9 3t-3 9zM350 1084v214q0 6 3 9t9 3h1324q6 0 9 -3t3 -9v-28v-186h-1348z" />
<glyph unicode="&#xe635;" d="M418 252q0 -10 4 -18t10 -16q6 -6 14 -9t16 -3h326q10 0 18 3t16 9q6 8 9 16t3 18v512h386v-512q0 -10 3 -18t9 -16q8 -6 16 -9t18 -3h324q10 0 19 3t15 9t9 15t3 19v828q0 10 -5 53t-13 49l-574 386q-12 10 -26 10t-30 -10l-554 -386q-8 -6 -12 -48t-4 -54v-828z" />
<glyph unicode="&#xe636;" d="M320 896q0 -146 56 -274q54 -128 150 -224t224 -150q128 -56 274 -56t274 56q128 54 224 150t150 224q56 128 56 274t-56 274q-54 128 -150 224t-224 150q-128 56 -274 56t-274 -56q-128 -54 -224 -150t-150 -224q-56 -128 -56 -274zM926 798v612h164v-448h460v-164h-428 h-196z" />
<glyph unicode="&#xe637;" d="M250 528q0 -38 27 -65t65 -27h108v-202l354 202h406q38 0 65 27t27 65v580q0 38 -27 65t-65 27h-868q-38 0 -65 -27t-27 -65v-580zM594 912q2 52 20 89t52 57q42 28 106 28q82 0 136 -38q54 -40 54 -116q0 -24 -7 -44t-21 -36q-6 -10 -21 -22l-35 -28l-28 -20 q-10 -8 -19 -18t-13 -20q0 -6 -2 -8t-2 -12q0 -4 -2 -7t-6 -3h-1h-1h-80q-8 0 -10 3t0 5q0 28 3 44t13 28q18 22 50 44l32 22q6 4 11 10t9 12q8 10 13 21t5 23q0 14 -4 27t-12 23q-16 22 -58 22t-60 -28q-8 -12 -12 -26t-4 -30v-2h-106zM710 566v74q0 6 5 10t11 4h72 q6 0 11 -4t5 -10v-74q0 -6 -5 -10t-11 -4h-72q-6 0 -11 4t-5 10zM886 1320h364q76 0 124 -48t48 -124v-276l258 -4q36 4 61 30t25 62v442q0 38 -27 65t-65 27h-696q-38 0 -65 -27t-27 -65v-82z" />
<glyph unicode="&#xe638;" d="M126 904q0 -30 13 -53t31 -43q60 -60 159 -139t229 -141l-266 -266l98 -98l306 306q72 -26 155 -41t171 -15h2q152 0 284 42t241 103t193 129q82 68 136 120q20 20 32 43t12 53q-2 44 -31 74t-35 36q-70 58 -163 125t-207 123l268 268l-96 98l-310 -310q-72 28 -154 43 t-168 17h-2q-138 -2 -262 -40q-122 -36 -227 -90t-191 -116q-86 -64 -152 -118q-6 -6 -35 -36t-31 -74zM666 894v1v1q0 154 105 263t253 111q58 0 111 -19t97 -51l-168 -166q-8 4 -18 5t-22 1h-2q-56 0 -96 -43t-40 -101v-1v-1q0 -10 1 -18t3 -16l-168 -166q-26 42 -41 93 t-15 107zM816 592l168 166q8 -2 18 -4t20 -2h4q56 0 96 42t40 102v1v1q0 10 -1 19t-5 17l168 166q28 -44 43 -95t15 -107v-1v-1q0 -154 -105 -263t-253 -111q-58 0 -111 19t-97 51z" />
<glyph unicode="&#xe639;" d="M124 904q0 -30 12 -53t32 -43q54 -52 138 -120q82 -68 191 -129t243 -103q132 -42 282 -44h2q152 2 286 44q132 42 241 103t193 129q82 68 136 120q20 20 32 43t12 53q-2 44 -31 74t-35 36h-2q-64 54 -150 118q-88 62 -193 116t-227 92q-124 36 -260 40h-2 q-138 -4 -262 -40q-122 -38 -228 -92t-192 -116q-86 -64 -152 -118q-6 -6 -35 -36t-31 -74zM666 896q0 154 105 264t253 110t253 -110t105 -264t-104 -264t-254 -110q-148 0 -253 110t-105 264zM886 896q0 -60 40 -102t96 -44h2q58 2 98 44t40 102t-40 102t-98 44h-2 q-56 -2 -96 -44t-40 -102z" />
<glyph unicode="&#xe63a;" d="M316 374l110 -22q110 -22 486 -22q60 0 113 1t99 3q-42 38 -65 85t-23 101q0 62 31 116t83 92q-28 14 -51 22t-37 10q-24 4 -28 46l-4 42q26 44 51 95t47 103q18 48 34 140q14 92 -1 184t-71 160q-58 68 -182 68t-178 -74q-54 -76 -68 -171t-2 -183q10 -88 18 -114 q16 -52 63 -129l47 -77l-5 -43t-27 -47q-36 -6 -110 -42t-147 -91t-127 -121q-56 -66 -56 -132zM1222 568h128q0 20 6 38t16 34q20 32 72 32t72 -28q8 -12 13 -27t5 -33q0 -14 -6 -28t-14 -26q-6 -8 -12 -14t-14 -12q-8 -4 -43 -28t-57 -52q-14 -16 -17 -39t-3 -57 q0 -2 2 -6t10 -4h98h1h1q4 0 7 3t3 9q0 8 2 17t4 17q4 12 15 24t23 22l34 24q24 18 42 33t26 27q16 20 25 45t9 51q0 94 -66 142t-166 48q-76 0 -128 -34q-82 -52 -88 -178zM1368 150v92q0 8 6 14t14 6h92q8 0 13 -6t5 -14v-92q0 -8 -5 -13t-13 -5h-92q-8 0 -14 5t-6 13z " />
<glyph unicode="&#xe63c;" d="M536 1108h258q0 74 44 142q42 70 146 70q106 0 144 -56q20 -26 30 -57t10 -65v-1v-1q0 -30 -12 -57t-30 -51q-12 -14 -25 -27t-27 -25q-14 -10 -85 -59t-117 -103q-26 -32 -33 -79t-9 -115q0 -6 4 -13t20 -7h202q14 0 19 8t5 14q0 24 3 39t7 29q10 26 31 50t47 44l70 48 q48 38 85 68t53 56q30 38 48 87t18 107q0 190 -134 286t-334 96q-154 0 -260 -68q-168 -106 -178 -360zM832 264v186q0 16 11 27t27 11h188q14 0 25 -11t11 -27v-186q0 -16 -11 -27t-25 -11h-188q-16 0 -27 11t-11 27z" />
<glyph unicode="&#xe63d;" d="M322 192h1404v1284h-1404v-1284zM450 318v898h1154v-898h-1154zM576 542v226h226v-226h-226zM576 864v224h226v-224h-226zM576 1406v194h128v-194h-128zM914 542v226h226v-226h-226zM914 864v224h226v-224h-226zM1246 542v226h226v-226h-226zM1246 864v224h226v-224h-226 zM1344 1408v192h128v-192h-128z" />
<glyph unicode="&#xe63e;" d="M210 478h196v192h-196v-192zM210 862h196v192h-196v-192zM210 1246h196v192h-196v-192zM530 478v192h494v-192h-494zM530 862h988v192h-988v-192zM530 1246h988v192h-988v-192zM1084 666l298 -304l624 634l-88 90l-526 -546l-212 216z" />
<glyph unicode="&#xe63f;" d="M886 1504h276l-38 -850h-200zM894 260v184q0 16 11 26t25 10h184q16 0 26 -10t10 -26v-184q0 -16 -10 -26t-26 -10h-184q-14 0 -25 10t-11 26z" />
<glyph unicode="&#xe640;" d="M388 672l638 -504l638 504v2h-300l-338 -266l-338 266h-300v-2zM388 1122h298l338 266l338 -266h300l-638 506l-636 -504v-2z" />
<glyph unicode="&#xe641;" d="M232 894q0 160 62 302q60 142 165 247t247 165q142 62 302 62t302 -62q142 -60 247 -165t165 -247q62 -142 62 -302t-62 -302q-60 -142 -165 -247t-247 -165q-142 -62 -302 -62t-302 62q-142 60 -247 165t-165 247q-62 142 -62 302zM400 894q0 -126 48 -236 q48 -112 130 -194t194 -130q110 -48 236 -48t236 48q112 48 194 130t130 194q48 110 48 236t-48 236q-48 112 -130 194t-194 130q-110 48 -236 48t-236 -48q-112 -48 -194 -130t-130 -194q-48 -110 -48 -236zM466 472l964 964l120 -120l-964 -964z" />
<glyph unicode="&#xe642;" d="M238 898q0 70 50 121t122 51q70 0 121 -51t51 -121q0 -72 -51 -122t-121 -50q-72 0 -122 50t-50 122zM850 898q0 70 50 121t122 51q70 0 121 -51t51 -121q0 -72 -51 -122t-121 -50q-72 0 -122 50t-50 122zM1468 898q0 70 50 121t122 51q70 0 121 -51t51 -121 q0 -72 -51 -122t-121 -50q-72 0 -122 50t-50 122z" />
<glyph unicode="&#xe643;" d="M304 896q0 -144 54 -270q56 -126 150 -220t220 -150q126 -54 270 -54q100 0 194 28q94 26 175 76t145 122q66 72 108 160l30 -116q4 -20 21 -30t37 -6q18 6 28 24t8 38l-66 262q-4 16 -16 26t-30 10q-2 0 -5 -1t-7 -1l-264 -66q-20 -4 -31 -21t-5 -37q2 -20 20 -30t36 -6 l180 44q-32 -86 -90 -156q-56 -70 -129 -120t-159 -78q-86 -26 -180 -26q-124 0 -232 46q-110 48 -191 129t-129 191q-46 108 -46 232t46 232q48 110 129 191t191 129q108 46 232 46q102 0 196 -32q94 -34 171 -93t133 -141t82 -182q4 -18 21 -28t37 -4q18 2 28 19t6 37 q-30 116 -94 212q-64 94 -154 163t-198 107t-228 38q-144 0 -270 -54q-126 -56 -220 -150t-150 -220q-54 -126 -54 -270zM926 884q0 -16 8 -28t22 -18q6 -4 12 -6t14 -2h244q22 0 36 15t14 35q0 22 -14 37t-36 15h-200v338q0 22 -15 36t-35 14q-22 0 -36 -14t-14 -36v-386z " />
<glyph unicode="&#xe644;" d="M144 1090q0 -6 2 -12t6 -10l84 -82q2 -4 8 -6t12 -2t11 2t9 6q72 70 158 124q84 56 179 95t199 59q104 22 212 22t212 -22q104 -20 199 -59t179 -95q86 -54 160 -124q2 -4 7 -6t11 -2t12 2t8 6l84 82q4 4 6 10t2 12t-3 11t-7 9q-84 82 -184 146q-98 64 -209 109t-231 69 t-246 24t-246 -24t-231 -69t-211 -109q-98 -66 -184 -146q-2 -4 -5 -9t-3 -11zM384 750q0 -6 2 -12t6 -10l86 -84q4 -4 9 -6t11 -2t11 2t9 6q100 92 230 145t278 53q146 0 276 -53t230 -147q4 -2 9 -4t11 -2t12 2t10 6l84 84q4 4 6 10t2 12t-2 12t-8 10q-60 58 -132 104 q-74 46 -154 78t-166 50q-88 16 -178 16q-92 0 -180 -16q-86 -18 -166 -50t-152 -78q-74 -48 -136 -106q-2 -2 -5 -8t-3 -12zM636 422q0 -6 3 -12t7 -10l84 -84q4 -4 9 -6t11 -2t11 2t9 4q52 46 117 71t139 25q72 0 138 -26t116 -70q4 -2 9 -4t11 -2t11 2t9 6l86 84 q4 4 6 10t2 12t-3 12t-7 10q-74 68 -172 106t-206 38h-2q-108 0 -205 -38t-173 -106q-4 -4 -7 -10t-3 -12z" />
<glyph unicode="&#xe645;" d="M348 542h1352v390h-324l-2 -130h-698l-2 130h-326v-390zM686 1450l340 -394l340 394h-198v374h-280v-374h-202z" />
<glyph unicode="&#xe646;" d="M348 542h1352v390h-324l-2 -130h-698l-2 130h-326v-390zM686 1450h200v-374h278v374h202l-340 394z" />
<glyph unicode="&#xe647;" d="M368 270h1036v248h-172v-100h-716v952h716v-80h172v224h-1024zM1106 770h416v-228l388 360l-388 352v-224h-416v-260z" />
<glyph unicode="&#xe900;" d="M282 1056q0 -116 42 -220q44 -102 118 -179t174 -125q100 -46 216 -52q-8 22 -15 44t-11 44q-30 2 -58 9t-54 17q2 6 6 13t10 13l72 118l8 12t20 26q20 78 64 146q42 66 104 115t138 77t160 28q40 0 79 -6t75 -20q-12 110 -60 204q-50 94 -126 163t-176 109 q-98 40 -210 40q-120 0 -224 -46q-106 -46 -184 -124t-124 -182q-44 -106 -44 -224zM374 1056v8v8l184 -44l41 -22q41 -22 19 -68l-29 -56q-29 -56 -111 -130q-48 64 -76 141t-28 163zM454 1324q46 72 116 124t154 78q2 -28 8 -116t0 -112l-13 -29q-13 -29 -75 -15zM880 662 q0 82 32 154q30 72 84 126t126 86q72 30 154 30t154 -30q72 -32 126 -86t86 -126q30 -72 30 -154t-30 -154q-32 -72 -86 -126t-126 -84q-72 -32 -154 -32t-154 32q-72 30 -126 84t-84 126q-32 72 -32 154zM980 1312v86q0 86 4 92l4 42q88 -22 160 -72t122 -122q-2 -2 -4 -3 t-4 -1l-168 -72l-52 -5q-52 -5 -62 55zM1000 662q0 -114 81 -195t195 -81t195 81t81 195t-81 195t-195 81t-195 -81t-81 -195zM1074 662q0 -34 11 -65t31 -55q90 46 161 120t111 168q-16 10 -34 18t-36 12q-12 -28 -28 -55t-34 -51q-4 4 -9 10t-9 12l-16 20q-16 20 -38 44 q-48 -24 -79 -72t-31 -106zM1476 366l84 86l188 -188q18 -18 18 -43t-18 -43q-8 -8 -19 -13t-23 -5q-10 0 -21 5t-21 13l-2 2z" />
<glyph unicode="&#xe901;" d="M288 1066q0 -84 26 -162q24 -78 68 -144t106 -118q62 -50 134 -82q-20 52 -32 107t-12 113q0 40 6 78t14 74q-10 -24 -39 -65t-83 -91q-46 60 -73 134t-27 156v8t2 8l174 -42l30 -15q30 -15 32 -45q44 120 133 212t209 138v89t4 63l4 40q72 -18 135 -58t109 -96 q26 -2 51 -6t49 -10q-72 120 -196 192t-272 72q-114 0 -216 -42q-100 -44 -174 -119t-118 -175t-44 -214zM452 1322q46 70 112 120t146 74q4 -26 9 -110t-1 -106l-12 -29q-12 -29 -70 -15zM690 780q0 -98 38 -186q38 -86 103 -151t151 -103q88 -36 186 -36q100 0 186 36 q88 38 152 103t102 151q38 88 38 186q0 100 -38 186q-36 88 -101 153t-153 101q-86 38 -186 38q-98 0 -186 -38q-86 -36 -151 -101t-103 -153q-38 -86 -38 -186zM818 780q0 146 102 249t248 103t249 -103t103 -249q0 -144 -103 -247t-249 -103t-248 103t-102 247zM928 780 q0 -6 1 -13t1 -13l42 -56l26 -46l6 -7q6 -7 10 -19l-12 -4t-10 -4q14 -16 33 -30t39 -24q110 50 190 142t114 210q-12 18 -27 33t-33 27q-10 -54 -33 -104t-55 -92q-4 4 -8 9t-10 11l-55 65t-63 83q-6 16 -12 28t-2 24q-64 -28 -103 -87t-39 -133zM1426 424l84 86l230 -230 v-1v-1h2q22 -24 17 -48t-17 -36q-10 -10 -21 -14t-21 -4q-12 0 -23 4t-21 14l-119 119z" />
<glyph unicode="&#xe902;" d="M320 896q0 -146 56 -274q54 -128 150 -224t224 -150q128 -56 274 -56t274 56q128 54 224 150t150 224q56 128 56 274t-56 274q-54 128 -150 224t-224 150q-128 56 -274 56t-274 -56q-128 -54 -224 -150t-150 -224q-56 -128 -56 -274zM924 444v504h200v-504h-200z M924 1148v200h200v-200h-200z" />
<glyph unicode="&#xe903;" d="M482 424q0 -62 44 -107t108 -45h758q64 0 109 45t45 107v506q0 64 -45 109t-107 45v176q0 158 -112 270t-268 112q-158 0 -269 -112t-111 -270v-176q-64 0 -108 -45t-44 -109v-506zM786 1084v176q0 96 66 163t162 67q94 0 161 -67t67 -163v-176h-456zM906 786q0 44 31 76 t77 32q44 0 75 -32t31 -76q0 -36 -16 -63t-50 -39v-170q0 -14 -12 -26t-28 -12t-28 11t-12 27v170q-36 12 -52 39t-16 63z" />
<glyph unicode="&#xe904;" d="M156 566h402v152zM626 566h284v286l-284 -94v-192zM1014 566h316v456l-316 -130v-326zM1434 566h456v660l-456 -164v-496z" />
<glyph unicode="&#xe905;" d="M158 524l2 -6v-2v-2h2v-2v-2l2 -4v-2h2l2 -2v-2h2h2v-2h2h2v-2h2h2h2h2h8v-2h4h4h2h2l4 -2h2h2h4l10 -2h2v-2h2h2v-2h2h2h2v-2h2h2l4 -4q2 -2 5 -4t7 -2h2h2v-2h2h1h3h2h4h6v2h2h6h2v2h8h8q0 -2 2 -1t4 -1h4h2h10h4h6h2v-2h2h2h2h10q4 0 7 -1t5 -1h2h8v-2h4h6h2h4h2v-2 l2 -2h1h3h2q2 0 4 2h2h2h4h2v-2h2h2h10q0 -2 1 -2t1 -2l2 -2v-2v-2h2v-2h2v-2h2v-2l2 -2v-2l2 -2h2v-2l4 -4l2 -2l2 -2l4 -4l2 -2h2v-2h2v-2h2v-2h2l2 -2h2v-2h2h2v-2h2v-2h2q6 -2 11 -5t11 -5h4v-2h2h2h2h2h2v-2h2h6h4q4 -2 7 -2h7h4v-2h4q2 0 4 1t4 -1h3h1h4h4h4h4 q2 2 5 2h5h2v2h4h2h2h2v2h2h4v2h2h2h2l2 2h2l2 2h2l2 2h2l2 2h2h2v2h2h2v2h2l2 2h2v2h2h2v2h2v2h2l2 2l2 2l2 2h2l2 4q2 2 4 3t4 3l2 2l2 2h2v2h2l2 2h2v2h2h2v2h2v2h2h22l-2 -14l2 -2h1h1q2 0 3 1t3 1h2q2 0 4 1t4 1v4v6h2h98h2h3h3h28h10h6q2 2 4 2h4h1h3h14l2 -2h38h26 q2 2 3 2h3h1h3h26h4h4h3h1h22h2h2h3h3h58h3h1h4h4h46h104h2h2h2h2h42h3h1h3h1l4 2v-2h2v2h2v-2v2q2 0 2 -1t2 -1l2 2v-2h3h1h4t2 2h4l1 -1t3 -1t3 1t3 1h10h10h4h4h6l6 2v2h38q0 -2 2 -3t4 -1v-2h2v-2h2l2 -2h2l4 -2v-2h2v-2l2 -2v-2h2l4 -4l4 -4l2 -2l2 -2h2v-2h2l2 -2 l2 -2h2v-2h2h2v-2h2l2 -2h2v-2h2h2v-2h2h2h2v-2h2h2l2 -2h2h2v-2h2h2h2l2 -2h2h6v-2h4t4 -2h8h2h4h4q2 -2 4 -2h4h3h1h2h3t3 2h6h4h2h4h2h2v2h2h2h2h2h2v2h2h4h2v2h2h2v2h4h2v2h2h2l2 2h2h2v2h2v2h2h2l2 2h2v2h2v2h2h2v2h2v2h2l2 2h2v2l2 2h2l4 4l4 4v2l2 2l2 2l2 2l2 2v2h2 v2h2v2v2h20v-3v-3v-2v-1v-3v-4q2 0 2 -1v-1l16 -2v-2h1h3v10h2q0 -2 4 -2t4 2l2 -2h2q2 0 4 1t4 1h2h4v2h2l6 2q6 2 14 4l16 4h2h2h2v2h18v2h2h2h2v2h2h8v2h4h4h2h4h2v2h2h4q4 2 8 2t8 2h2h2h1h1h1t3 -2h2v-2h4h2h10h8v2h2h2h2q2 0 6 1t6 1h2v2h2h2v2h2v1v1v2v2v2q-2 0 -2 1 v1l1 1l1 1h2h2v2h2q2 2 3 4t1 4t-1 2h-1v2l-2 2v1v1q-2 2 -3 2t-1 2q-2 0 -1 4l1 4l2 22v8h2v4v6v2v4v3v1v10v4t2 2v4v2v2v3v3l-4 6h-2v2h-2v2l-2 2l-4 6l-4 4h-2v2h-2h-2v2h-2v2h-2l-2 2l-2 2h-2v2h-2v2h-2h-2v2h-2v2h-2v2h-2h-2v2h-2h-2v2h-2v2h-2h-2l-2 2l-2 2h-2v2h-2 h-2l-2 2h-2v2h-2h-2l-2 2h-2v2h-2h-2l-2 2h-2l-2 2h-2h-2v2h-2h-2v2h-2h-2v2h-2h-2v2h-2h-2h-2v2h-2v2h-2h-2l-2 2h-2h-2l-2 2h-2v2h-2h-2h-2v2h-2h-2l-4 2l-2 1t-2 3h-2l-2 4h-2v2h-2v2h-2h-2v2l-2 2h-2l-2 2h-2v2h-2l-2 2h-2v2h-2h-2v2h-2v2h-2q-6 4 -12 6t-12 6h-4v2h-2 h-2h-2v2h-4h-2h-2h-2v2h-4h-2h-2h-2v2h-4h-2h-2h-1h-1v2h-2h-2h-4t-6 2h-2q-2 0 -5 1t-5 1h-6q-2 2 -6 2h-8h-6h-4v2h-4h-4h-4h-4h-4v2h-4h-4h-10h-4v2h-4h-4h-6h-4h-6l-10 2h-4q-4 0 -9 1t-9 1l-8 2q-2 0 -7 1t-9 1h-4q-2 2 -5 2h-5l-6 2l-32 6h-1h-1h-1h-1h-6h-8v-2h-4h-4 h-3h-3h-1h-3h-2v2h-2h-2h-2v2h-2l-4 2h-2v2h-4q-2 0 -3 1t-1 -1h-4h-2h-2v2h-2h-2v2h-2h-2v2h-2v2h-2h-2v2h-2h-2v2h-2h-2v2h-2h-2v2h-2l-2 2h-2v2h-2h-2v2h-2h-2v2h-2h-2v2h-2h-2v2h-2v2h-2h-2l-2 2h-2l-2 2h-2v2h-2l-6 2v2h-2h-2v2l-6 2v2h-2h-2v2h-2h-2v2h-2h-2l-2 2h-2 v2h-2h-2v2h-2h-2v2h-2h-2v2h-2l-2 2h-2h-2v2h-2h-2v2h-2h-2l-2 2h-2v2h-2h-2l-2 2h-2v2h-2l-6 2l-2 2h-2v2h-2h-2h-2v2h-2h-2v2h-2h-2v2h-2h-2v2h-2h-2v2h-2h-2v2h-2h-2v2h-2h-2h-2v2h-2v2h-2h-2h-2v2h-2h-2v2h-2h-2v2h-2h-2v2h-2h-2l-2 2h-2h-2v2h-2h-2v2h-2h-2v2h-2h-2v2 h-2h-2h-2v2h-2h-2v2h-2h-2v2h-2h-2h-2v2h-2h-2v2h-2h-2h-2v2h-2h-2l-2 2l-2 2h-2h-2v2h-2h-6q-4 2 -10 4t-12 2h-2v2h-2h-2h-2q-2 2 -6 2h-6l-4 2h-5t-5 2h-2h-6h-2h-4h-4v2h-4h-4h-8h-6h-4v2h-20h-4h-4h-3h-1h-4h-4h-6h-2h-4h-1h-1h-3h-3h-18h-12q0 -2 -3 -1t-5 1 q-2 -2 -4 -2h-2h-4h-10h-8h-6h-4v-2h-4h-4h-4h-9t-9 -2h-2q-4 0 -7 -1t-5 -1h-4h-2h-4h-2v-2h-2h-4h-2h-4h-2v-2h-4q-4 0 -8 -1t-6 -1h-2h-2h-4v-2h-2h-6t-6 -2h-4q-2 0 -4 -1t-4 -1h-2h-4t-4 -2h-2h-4h-2h-2q-6 -2 -11 -3t-9 -3h-4h-2h-2h-2v-2h-2h-2h-4l-4 -2l-2 -2h-2h-2 l-6 -2h-2q-6 -2 -13 -4t-13 -4h-8q-4 -2 -9 -3t-11 -3h-2v-2h-2h-2q-4 -2 -9 -3t-9 -1v-2h-2h-2q-4 -2 -7 -2t-7 -2h-2h-2v-2h-2h-4l-2 -2h-2h-2v-2h-4h-2h-2v-2h-2h-2h-2v-2h-2h-2h-2v-2h-2h-2h-2v-2h-2q-12 -4 -23 -7t-21 -7h-2h-2v-2h-4h-2l-2 -2h-4v-2h-2h-2 q-2 -2 -3 -2h-3l-2 -2h-4q-6 -4 -13 -6t-15 -4h-2v-2h-2h-2q-2 -2 -3 -2h-3v-2h-2h-2h-2v-2h-2h-2h-3h-1h-2h-4h-2h-2h-2v-2h-2h-2h-2l-2 -2h-2h-2l-2 -2h-2h-2h-2v-2h-4v-2h-4h-2h-2v-2h-2h-2h-2v-2h-2l-2 -1l-2 -1l-1 -1t-1 -3q-4 0 -8 -1t-6 -3h-4h-2v-2h-2h-2h-2v-2h-2 h-2h-2v-2h-2h-2h-2v-2h-2h-2v-2h-2h-2v-2h-2h-2h-2v-2h-2h-2v-2h-2h-2l-2 -2h-2h-2v-2h-2l-2 -2h-2v-2h-2h-4l-2 -1l-2 -1h-2v-2h-2h-2v-2h-4v-2h-2h-2l-2 -2h-2v-2h-2h-2l-2 -2h-2h-2v-2h-2q-6 -2 -11 -4t-11 -4l-10 -2l-2 -2l-2 -2v-1v-1v-1v-3l-6 -6h-2l-4 -4l-2 -2 q-2 0 -3 -1l-1 -1q0 -2 -1 -2h-1q0 -2 -1 -2t1 -2h-2l-6 -6h-2v-2v-2h-2l-2 -2v-2l-2 -2h-2v-2l-2 -2l-2 -2v-2h-2v-2h-2v-2v-2h-2v-2h-2v-2l-4 -6v-8v-4v-4v-4v-4v-4v-6v-4q0 -2 1 -5t1 -5v-2l4 -24v-2v-2v-2h2q0 -2 1 -4t1 -4v-1v-1v-2v-2l-2 -2v-2h-2v-2l-2 -2h-2v-2v-2 l-1 -1l-1 -1v-1v-1h2v-2l-4 -2v-2v-2h-2l2 -12v-1v-1h-2q-2 0 -2 -1v-3zM580 1400q0 -6 2 -12t8 -12l40 -40q4 -4 10 -7t14 -3q6 0 12 3t10 7q68 64 159 102t191 38q102 0 192 -38t160 -102q4 -4 10 -7t12 -3q8 0 14 3t10 7l40 40q6 6 8 12t2 12q0 8 -3 14t-7 12 q-86 80 -198 127t-240 47q-126 0 -239 -47t-197 -127q-6 -6 -8 -12t-2 -14zM654 1346zM704 1236q0 -8 3 -14t7 -10l40 -40q6 -4 12 -7t12 -3q8 0 14 2t10 6q44 42 102 65t122 23q66 0 124 -23t102 -65q4 -4 10 -6t14 -2q6 0 12 3t12 7l38 40q6 4 8 10t2 14q0 6 -2 13t-8 11 q-60 58 -140 91t-172 33q-90 0 -170 -33t-140 -91q-6 -4 -9 -11t-3 -13zM778 1182h2h-1h-1zM824 1078q0 -8 3 -14t7 -12l40 -40q4 -4 10 -7t14 -3q6 0 12 3t10 7q22 18 49 28t57 10q32 0 59 -10t49 -30l10 -5t12 -3q8 0 14 3t10 7l40 40q6 6 8 12t2 14t-3 14t-7 10 q-38 34 -88 54t-104 20h-1h-1q-54 0 -104 -20t-88 -54q-4 -4 -7 -10t-3 -14zM1274 1182h1h1h-2zM1400 1346z" />
<glyph unicode="&#xe906;" d="M318 226h588v108l334 158l490 836l-14 71t-114 129q-102 58 -170 35l-68 -23l-490 -838l32 -364h-588v-112zM956 682q26 0 59 -9t69 -29t60 -45t38 -47l-208 -98z" />
<glyph unicode="&#xe907;" d="M544 966q0 -14 2 -27t4 -27q6 -92 64 -168t148 -124q18 -10 35 -17t33 -13q22 -6 43 -12t45 -10v-418h212v416q160 28 267 131t107 239v7t-2 7q2 4 2 8v8v304h-140v302q0 30 -21 50t-49 20q-30 0 -50 -20t-20 -50v-302h-400v302q0 30 -20 50t-50 20q-28 0 -49 -20 t-21 -50v-302h-140v-304z" />
<glyph unicode="&#xe908;" d="M112 574h550v106h-388q8 52 23 103t37 99l98 -62q26 -14 53 -6t41 32q6 12 8 25t-2 25q-4 14 -12 24t-18 18l-100 62q34 46 73 88t85 76l64 -102q14 -24 41 -32t51 6q12 8 20 18t12 24q2 12 1 26t-9 26l-66 108q64 34 135 55t145 27l-2 -128q0 -28 20 -48t48 -20t48 20 t20 48v128q78 -6 152 -28t142 -58l-68 -104q-6 -12 -8 -25t2 -27t12 -24t20 -18q12 -6 25 -8t25 2q14 4 25 12t17 18l62 100q46 -36 84 -77t70 -87l-92 -58q-24 -14 -31 -41t5 -51q8 -12 18 -20t24 -12q14 -2 27 -1t25 9l90 56q22 -46 37 -96t23 -102h-386v-106h548l-2 32 q-4 88 -24 172t-56 163t-86 149q-50 72 -114 132q-64 62 -138 108q-72 48 -152 80t-166 48q-86 18 -174 18t-174 -18q-86 -16 -166 -48t-152 -80q-74 -46 -138 -108q-64 -60 -114 -132q-50 -70 -86 -149t-56 -163t-24 -172zM766 568l384 424l-106 -310h234l-384 -424 l108 310h-236z" />
<glyph unicode="&#xe909;" d="M112 468h550v106h-388q8 54 23 104t37 98l98 -60q26 -14 53 -7t41 31q6 12 8 25t-2 27q-4 12 -12 23t-18 17l-100 62q34 48 73 89t85 75l64 -102q14 -24 41 -31t51 5q12 8 20 18t12 24q2 14 1 27t-9 25l-66 108q64 34 135 55t145 27l-2 -128q0 -28 20 -47t48 -19t48 19 t20 47v128q78 -6 152 -28t142 -58l-68 -104q-6 -12 -8 -25t2 -27q4 -12 12 -23t20 -17q12 -8 25 -10t25 2q14 4 25 12t17 20l62 98q46 -36 84 -76t70 -86l-92 -58q-24 -14 -31 -41t5 -53q8 -10 18 -19t24 -11q14 -4 27 -2t25 8l90 58q22 -48 37 -98t23 -102h-386v-106h548 l-2 32q-4 88 -24 172q-20 86 -56 164t-86 148q-50 72 -114 132q-64 62 -138 108q-72 48 -152 80t-166 48q-86 18 -174 18t-174 -18q-86 -16 -166 -48t-152 -80q-74 -46 -138 -108q-64 -60 -114 -132q-50 -70 -86 -148t-56 -164q-20 -84 -24 -172zM953 496q-3 -28 15 -50 q10 -12 24 -18t28 -6q12 0 23 4t21 12l266 222q10 10 16 22t6 24q2 14 -2 27t-12 23q-18 22 -46 24t-50 -16l-266 -222q-20 -18 -23 -46z" />
<glyph unicode="&#xe90a;" d="M286 900v136h134v-136h-134zM402 1406l182 -160l112 118l-182 160zM642 928q0 -106 53 -194t137 -138v-130q0 -32 23 -55t55 -23h228q32 0 55 23t23 55v130q84 50 137 138t53 194q0 160 -112 273t-270 113t-270 -113t-112 -273zM872 196q0 -16 11 -27t27 -11 q0 -32 22 -55t54 -23h76q32 0 54 23t22 55q16 0 27 11t11 27q2 16 -10 27t-28 11h-228q-16 0 -27 -11t-11 -27zM872 312q0 -16 11 -27t27 -11h228q16 0 28 11t12 27t-12 27t-28 11h-228q-16 0 -27 -11t-11 -27zM958 1510v202h136v-202h-136zM1372 1360l116 -114l158 184 l-118 114zM1632 902v132h130v-132h-130z" />
<glyph unicode="&#xe90b;" d="M186 618l104 -48l17 30t49 68q2 4 5 7l5 5l7 7t5 7q4 2 7 5t5 7l3 3t3 1l4 4l4 4l3 3l3 3q2 0 3 2t3 2l4 4t4 2q0 2 1 2h1q6 6 11 9t11 7q2 2 5 4t5 4q2 0 2 1v1q4 2 7 3t5 3q38 22 79 35t85 15q58 2 111 10t103 22q2 0 4 1t4 1t5 1t7 3q2 0 4 1t4 1q10 4 20 7t20 7 q2 0 4 1t4 1l6 3t6 1q2 2 4 3t4 1q4 2 7 3t5 3q4 0 8 2l8 4q2 0 5 1t5 3q2 0 5 2t5 2q2 2 4 3t6 1q2 2 4 3l6 3q2 0 4 1t4 3l8 4t10 4q2 2 4 3t4 3q2 0 5 2t5 2q2 2 4 3t4 3q4 0 6 2t6 4q46 26 92 58t92 68l2 2l5 5t7 5q2 0 3 2t3 2l5 5t7 5q2 2 4 3t4 3l4 4t6 4l5 5l5 5 t4 3t4 3q4 4 9 8t9 8q2 2 4 3t4 3q48 38 103 43t117 -25h1h1q2 -2 4 -3t4 -1q2 -2 4 -3t4 -1l2 -2h2l1 -1t3 -1q0 -2 1 -2h3q0 -2 1 -2t3 -2h1h1l3 -3t3 -1l1 -1l1 -1q2 0 3 -1l1 -1l2 -2t4 -3t4 -1v-1v-1q2 0 3 -1l3 -3h1h1l3 -3l1 -1q2 0 2 -1v-1q2 0 3 -1l1 -1l2 -2t3 -2 t3 -2l3 -3t3 -1v-2q2 0 3 -1l3 -3l3 -3t3 -1v-2q2 0 3 -1l1 -1v-1t2 -1l1 -1l3 -3l1 -1l3 -3q12 -10 19 -18l7 -8l88 76l-33 33t-81 65q-2 2 -5 3t-5 3q-2 0 -2 1v1l-6 3l-6 3q-2 2 -5 4t-5 4h-2h-2q-2 2 -5 4t-7 2q-2 2 -5 3t-5 3l-1 1t-3 1t-4 1t-2 3h-3t-3 2l-2 1 q-2 1 -4 1l-2 1l-2 1q-2 0 -3 1t-3 1q-2 2 -3 2h-3q0 2 -2 2h-4q0 2 -1 2h-3t-3 1t-3 1t-3 1l-1 1q-2 0 -4 1l-2 1h-3t-3 2h-3h-3q0 2 -2 2h-2q-2 0 -3 1t-3 1h-3h-3l-2 1l-2 1h-3h-3t-3 1t-3 1h-2h-2q-2 0 -3 1t-3 1h-3h-3h-2h-2h-3h-3t-3 1t-3 1h-1h-3h-3h-3h-2h-2h-3h-1 h-2h-2h-6h-6h-3h-3q-2 -2 -4 -2h-4h-4h-4h-2t-4 -2h-4h-4l-1 -1q-1 -1 -3 -1h-4t-6 -2h-1h-1q-4 0 -6 -1t-4 -1t-2 -1t-2 -1t-4 -1t-6 -1l-1 -1l-1 -1q-2 0 -5 -1t-5 -3h-1h-1q-2 0 -5 -2t-7 -2q-2 -2 -5 -3t-7 -3q-2 -2 -5 -3t-7 -3q-14 -8 -28 -18t-28 -22q-2 0 -2 -1 t-2 -1q-24 -22 -49 -43t-49 -39q-6 -4 -11 -8t-11 -8v-1t-2 -1q-4 -4 -9 -7t-9 -7h-2v-2q-28 -18 -55 -36t-53 -34q-6 -2 -12 -6t-10 -6q-54 -28 -110 -50t-118 -34q-4 0 -7 -1t-5 -1t-4 -1t-4 -1t-5 -1t-7 -1h-4t-4 -2h-5h-5q-6 -2 -10 -2t-8 -2h-4h-4q-4 0 -7 -1t-7 -1h-4 h-4q-4 0 -8 -1t-6 -1h-4h-4q-6 0 -11 -1t-11 -1h-8h-8h-1h-3q-4 0 -8 -1t-8 -1h-1h-1q-4 -2 -8 -2h-6t-3 -1l-1 -1q-4 0 -8 -1t-8 -1h-1h-1q-4 -2 -8 -3t-8 -1h-2q-4 -2 -8 -3t-8 -1l-1 -1l-1 -1q-8 -2 -16 -5t-16 -5h-1t-1 -2q-4 0 -8 -2l-8 -4h-2q-2 -2 -6 -3t-8 -3l-1 -1 l-1 -1l-8 -4l-8 -4h-2q-2 -2 -6 -4l-8 -4h-2q-2 -2 -6 -5t-8 -5h-1h-1q-8 -6 -15 -11t-15 -9l-1 -1l-1 -1q-4 -2 -7 -5t-7 -5q-16 -14 -33 -29t-31 -31q-54 -56 -80 -103t-26 -49zM356 250h1336v740l-24 28q-2 2 -34 32t-78 52q-22 12 -43 18t-39 6q-22 0 -42 -8t-40 -26 q-18 -16 -35 -30t-35 -28h250v-84h-360q-42 -28 -82 -52t-80 -44q-6 -4 -12 -7t-12 -5h546v-84h-834q-24 -4 -49 -6t-51 -2q-58 -4 -111 -30t-99 -74q-30 -30 -48 -57t-24 -41v-298zM356 912q28 18 57 33t59 25v64h352q62 20 120 49t114 67h-586v84h698q14 12 29 24t29 24 q22 20 47 36t51 28h-854v84h1100v-64q26 -8 51 -18t51 -22q4 -4 9 -6t9 -4v226h-1336v-630zM472 362v84h1100v-84h-1100zM472 558v84h1100v-84h-1100z" />
<glyph unicode="&#xe90c;" d="M514 336v1120h188v-1120h-188zM792 336v474h188v-474h-188zM1068 336v710h188v-710h-188zM1346 336v1044h188v-1044h-188z" />
<glyph unicode="&#xe90d;" d="M442 366q0 -20 14 -34t34 -14h1066q20 0 34 14t14 34l-156 554q-6 20 -20 34t-34 14h-312v94q96 22 160 100t64 182q0 118 -84 203t-204 85t-204 -85t-84 -203q0 -104 64 -182t160 -100v-94h-308q-20 0 -34 -15t-20 -33zM824 1344q0 80 57 137t137 57t137 -57t57 -137 t-57 -137t-137 -57t-137 57t-57 137z" />
<glyph unicode="&#xe90e;" d="M242 844l86 -178l1116 540l104 -216l258 502l-554 108l104 -216zM544 610l70 -24q20 -8 36 -23t24 -35t7 -41t-9 -41l-32 -66l92 -92l66 32q20 8 41 9t41 -7t35 -24t23 -36l24 -70h130l26 70q6 20 21 36t35 24t41 7t39 -9l68 -32l92 92l-32 66q-8 20 -9 41t7 41t24 35 t36 23l70 24v130l-70 26q-20 6 -36 21t-24 35t-7 41t9 41l32 66l-90 92l-780 -376v-76zM850 676q0 72 52 124t126 52q72 0 124 -52t52 -124q0 -74 -52 -126t-124 -52q-74 0 -126 52t-52 126z" />
<glyph unicode="&#xe90f;" d="M222 878v36q0 20 14 34t34 14h132q20 0 34 -14t14 -34v-36q0 -20 -14 -34t-34 -14h-132q-20 0 -34 14t-14 34zM430 376q0 20 14 34l94 92q14 14 34 14t34 -14l24 -24q14 -14 14 -34t-14 -34l-92 -94q-14 -14 -34 -14t-34 14l-26 26q-14 14 -14 34zM430 1416q0 20 14 34 l26 26q14 14 34 14t34 -14l92 -94q14 -14 14 -34t-14 -34l-24 -24q-14 -14 -34 -14t-34 14l-94 92q-14 14 -14 34zM604 896q0 86 34 164q32 76 89 133t133 89q78 34 164 34t164 -34q76 -32 133 -89t89 -133q34 -78 34 -164t-34 -164q-32 -76 -89 -133t-133 -89 q-78 -34 -164 -34t-164 34q-76 32 -133 89t-89 133q-34 78 -34 164zM958 142v132q0 20 14 34t34 14h36q20 0 34 -14t14 -34v-132q0 -20 -14 -34t-34 -14h-36q-20 0 -34 14t-14 34zM958 1518v132q0 20 14 34t34 14h36q20 0 34 -14t14 -34v-132q0 -20 -14 -34t-34 -14h-36 q-20 0 -34 14t-14 34zM1404 444q0 20 14 34l24 24q14 14 34 14t34 -14l94 -92q14 -14 14 -34t-14 -34l-26 -26q-14 -14 -34 -14t-34 14l-92 94q-14 14 -14 34zM1404 1348q0 20 14 34l92 94q14 14 34 14t34 -14l26 -26q14 -14 14 -34t-14 -34l-94 -92q-14 -14 -34 -14t-34 14 l-24 24q-14 14 -14 34zM1598 878v36q0 20 14 34t34 14h132q20 0 34 -14t14 -34v-36q0 -20 -14 -34t-34 -14h-132q-20 0 -34 14t-14 34z" />
<glyph unicode="&#xe910;" d="M262 1368l52 -156q120 -212 286 -392q168 -182 320 -313t258 -205l108 -72l130 -62q150 -46 217 98l67 144l26 96l-428 154l-5 -26t-7 -30q-6 -20 -10 -18t-12 4l-121 50q-121 50 -215 144l-60 62l-85 116q-85 116 -93 224q0 4 -2 6l-2 2q4 0 7 1t5 3q10 4 39 16l29 12 l-220 406l-40 -18l-144 -42t-100 -204zM830 1410l388 -352v220h416v260h-416v224z" />
<glyph unicode="&#xe911;" d="M320 896q0 -146 56 -274q54 -128 150 -224t224 -150q128 -56 274 -56t274 56q128 54 224 150t150 224q56 128 56 274t-56 274q-54 128 -150 224t-224 150q-128 56 -274 56t-274 -56q-128 -54 -224 -150t-150 -224q-56 -128 -56 -274zM632 854l122 122l152 -152l388 390 l26 -26l96 -96l-24 -26l-488 -488l-26 26z" />
<glyph unicode="&#xe912;" d="M320 896q0 -146 56 -274q54 -128 150 -224t224 -150q128 -56 274 -56t274 56q128 54 224 150t150 224q56 128 56 274t-56 274q-54 128 -150 224t-224 150q-128 56 -274 56t-274 -56q-128 -54 -224 -150t-150 -224q-56 -128 -56 -274zM606 802v160h836v-160h-836z" />
<glyph unicode="&#xe913;" d="M238 326l112 -22q112 -22 494 -22t490 22l108 22q0 68 -56 136q-56 66 -130 122t-148 94q-74 36 -112 42q-24 4 -28 47l-4 43q28 46 53 97t47 105q20 48 34 142t-1 187t-73 163t-184 70t-180 -76q-56 -78 -70 -174t-4 -186q12 -90 20 -116q16 -52 64 -132l48 -80l-5 -43 t-27 -47q-38 -6 -112 -42q-76 -38 -150 -94t-130 -122q-56 -68 -56 -136zM1214 716q54 -26 118 -67t116 -91h26q220 0 282 12l62 12q0 78 -107 149t-149 77q-14 2 -16 27l-2 25q16 26 30 56l28 60q22 56 19 189t-149 133q-144 0 -143 -143t9 -173q10 -30 37 -76l27 -46 l-2 -25q-2 -25 -16 -27q-24 -4 -74 -29t-96 -63z" />
<glyph unicode="&#xe914;" d="M526 262h1000v946l-342 316h-658v-1262zM684 420v946h408v-2v-300h276v-644h-684z" />
<glyph unicode="&#xe915;" d="M308 726q24 -104 74 -193t122 -159q108 -108 244 -162t278 -54t280 54q136 54 244 164q100 100 158 234t58 288q0 130 -44 246q-42 118 -117 213t-177 161q-104 68 -226 98q-30 6 -45 -18t5 -44l8 -8q76 -76 119 -177t43 -217t-44 -218t-120 -178t-178 -120t-218 -44 q-118 0 -221 45t-179 123h-2q-20 20 -45 6t-17 -40z" />
<glyph unicode="&#xe916;" d="M386 370v220h220v-220h-220zM386 786v220h220v-220h-220zM386 1202v220h220v-220h-220zM770 370v220h892v-220h-892zM770 786v220h892v-220h-892zM770 1202v220h892v-220h-892z" />
<glyph unicode="&#xe917;" d="M320 474h1404l8 748l-704 -352l-708 352v-748zM322 1330l712 -344l692 344v44h-1404v-44z" />
<glyph unicode="&#xe918;" d="M348 542h1352v390h-324l-2 -130h-698l-2 130h-326v-390zM574 1090h194l-2 -124h514v124h194v332l-450 -194l-450 194v-332zM574 1482l450 -188l450 188v72h-900v-72z" />
<glyph unicode="&#xe919;" d="M352 384v158h1344v-158h-1344zM644 1356q0 -42 25 -133t125 -267q52 -90 95 -153t45 -65l90 -132l90 132q2 2 45 65t95 153q100 176 125 267t25 133q0 80 -30 152t-82 126t-120 84q-70 32 -148 32t-148 -32q-68 -30 -120 -84t-82 -126t-30 -152zM792 1372q0 96 68 164 t164 68t164 -68t68 -164t-68 -164t-164 -68t-164 68t-68 164z" />
<glyph unicode="&#xe91a;" d="M270 562h416l204 180l248 -256l384 376v364l-624 -352l-628 352v-664zM270 1334l628 -344l624 344v44h-1252v-44zM762 456l386 -386l802 802l-112 114h-2l-676 -690l-274 274z" />
<glyph unicode="&#xe91b;" d="M222 378v164h1604v-164h-1604zM282 946v36q0 20 14 34t34 14h132q20 0 34 -14t14 -34v-36q0 -20 -14 -34t-34 -14h-132q-20 0 -34 14t-14 34zM422 1388q0 20 14 34l26 26q14 14 34 14t34 -14l92 -94q14 -14 14 -34t-14 -34l-24 -24q-14 -14 -34 -14t-34 14l-94 92 q-14 14 -14 34zM608 904q0 -46 9 -88t27 -80l770 2q16 36 25 78t9 88q0 86 -34 164q-32 76 -89 133t-133 89q-78 34 -164 34q-88 0 -164 -34q-76 -32 -133 -89t-91 -133q-32 -78 -32 -164zM962 1454v132q0 20 14 34t34 14h36q20 0 34 -14t14 -34v-132q0 -20 -14 -34t-34 -14 h-36q-20 0 -34 14t-14 34zM1420 1320q0 20 14 34l92 94q14 14 34 14t34 -14l26 -26q14 -14 14 -34t-14 -34l-94 -92q-14 -14 -34 -14t-34 14l-24 24q-14 14 -14 34zM1534 942v36q0 20 14 34t34 14h132q20 0 34 -14t14 -34v-36q0 -20 -14 -34t-34 -14h-132q-20 0 -34 14 t-14 34z" />
<glyph unicode="&#xe91c;" d="M384 896h192q0 -92 36 -174q34 -82 95 -143t143 -95q82 -36 174 -36t174 36q82 34 143 95t95 143q36 82 36 174t-36 174q-34 82 -95 143t-143 95q-82 36 -174 36v-128l-292 224l292 226v-130q132 0 250 -50q116 -50 203 -137t137 -203q50 -118 50 -250t-50 -250 q-50 -116 -137 -203t-203 -137q-118 -50 -250 -50t-250 50q-116 50 -203 137t-137 203q-50 118 -50 250z" />
<glyph unicode="&#xe91d;" d="M546 210q0 -46 33 -79t79 -33h734q48 0 80 33t32 79v1436q0 46 -32 79t-80 33h-734q-46 0 -79 -33t-33 -79v-1436zM636 1534l2 92q0 18 11 29t33 11h692q18 0 28 -11t10 -29v-92h-776zM638 232v90h774v-90q0 -16 -12 -29t-30 -13h-692q-18 0 -29 13t-11 29zM638 382v1092 h774v-1092h-774zM916 1598q0 -8 6 -16t14 -8h210q8 0 14 8t6 16t-6 16t-14 8h-210q-8 0 -14 -8t-6 -16zM1006 256q0 -14 10 -24t24 -10t24 10t10 24t-10 24t-24 10t-24 -10t-10 -24z" />
<glyph unicode="&#xe91e;" d="M350 582q0 -44 30 -74t74 -30h120v-288l548 288h472q44 0 74 30t30 74v788q0 44 -30 74t-74 30h-1140q-44 0 -74 -30t-30 -74v-788zM638 662v116h772v-116h-772zM638 918v116h772v-116h-772zM638 1174v116h772v-116h-772z" />
<glyph unicode="&#xe91f;" d="M128 476l2 -6v-2v-2h2v-2v-2h2v-4v-2h2l2 -2v-2h2l2 -2h2l2 -2h2h2h2h2l8 -2h4h4h2h2v-2h4h2h2h4v-2h8l4 -2h2v-2h2h2h2l2 -2h2h2l4 -4q2 -2 5 -4t7 -2h2h2v-2h2h2h2h2h4h6v2h2h6h2v2h8h8q0 -2 2 -1t4 -1h4h2h10h4h6h2v-2h2h2h2h10q4 0 7 -1t5 -1h2h8v-2h4h6h2h4l2 -2v-1 t2 -1h1h3h2q2 0 4 2h2h2h4h2v-2h2h2h10q0 -2 1 -2t1 -2l2 -2v-2l2 -2l2 -2v-2h2v-2l2 -2v-2l2 -2l2 -2l4 -4l2 -2l2 -2h2l2 -4h2v-2h2v-2h2v-2h2l2 -2h2v-2h2l2 -2h2v-2h2v-2h2q6 -2 11 -5t11 -5h4v-2h2h2h2h2v-2h2h2h6l4 -2h7t5 -2h6h4h4h4h3h1h4h4h4h4q2 2 5 2h5h2l4 2h2 h2h2l2 2h4h2v2h2h2h2v2h2h2v2h2h2v2h2h2v2h2h2l2 2h2v2h2h2v2h2l2 2h2v2h2v2h2l2 2l2 2l2 2h2l2 4q2 2 4 3t4 3l2 2l2 2h2l2 2l2 2h2v2h2v2h2h2v2h2h20v-14l2 -2q2 0 4 1t4 1h2q2 0 4 1l2 1q2 2 2 4v6h2h98h2h3h3h26h12h6q2 2 4 2h4h1h3h14l2 -2h38h26q0 2 2 2h4h1h3h26h4h4 h2h2h22h1h3h2h4h58h2h2h4h2h48h104h2h3h3h42h3h1h3h1l4 2v-2h2v2h2v-2v2q2 0 2 -1t2 -1l2 2v-2h1h3h3t3 2h4q0 -2 1 -2h1q2 0 4 1t4 1h10h10h3h3h6l8 2v2h38q0 -2 2 -3t4 -1v-2h2v-2h2l2 -2h2v-2h4v-2v-2l4 -4l2 -2l2 -2h2l2 -4h2v-2h2l2 -2h2v-2h2v-2h2l2 -2h2v-2h2h2v-2h2 v-2h2h2v-2h2l2 -2h2h2l2 -2h2h2v-2h2h2h2v-2h2h2h2v-2h2h2l4 -2h2h4t4 -2h8h2h4v-2h4h4h4h3h1h2h3h3h6v2h4h2h4h2h2h2v2h2h2h2h2l2 2h2h4v2h2h2l4 2h2h2v2h2h2v2h2h2v2h2h2v2h2h2v2h2v2h2v2h2h2v2h2h2v2l2 2h2l2 4h2l4 4l4 4v2l2 2l2 2l2 2h2v2v2h2v2l2 2v2h18q2 -2 2 -3v-3 v-1v-1v-1v-3v-4l1 -1q1 -1 1 -3h16v-2h1h1v8h1h1h5h5h1h1h4t4 2h2h2h2h2v2h6q8 4 16 6l16 4h2h2h2v2h16h2v2h2h2h2v2h2h8h4v2h2h4h4h2v2h2h4q4 0 8 1t8 3h2h2h2h1t3 -2l2 -2h4h2h8h8h2v2h4h2q2 0 5 1t7 1h2h2v2h2l2 2v2v2v2h-2v2v2h2v2h2h2h2v2q2 2 3 4t1 4l-1 1l-1 1v2 l-2 2v1v1q-2 0 -3 1t-1 3q-2 0 -1 3t1 5l2 22v8h2v4v6v2v4v3v1v10v4v2v4h2v2v2v3t-2 3l-2 6h-2v2l-2 2l-2 2l-4 4l-4 6h-2v2h-2h-2v2h-2v2h-2l-2 2h-2v2h-2v2h-2l-2 2h-2v2h-2l-2 2h-2v2h-2v2h-2h-2v2h-2v2h-2h-2l-2 2l-2 2h-2v2h-2h-2l-2 2h-2h-2v2h-2l-2 2h-2h-2v2h-2h-2 v2h-2l-2 2h-2h-2v2h-4v2h-2h-2h-2v2h-2h-2v2h-2h-2v2h-2h-2l-2 2h-2v2h-2h-2h-2v2h-2h-2v2h-2h-2h-2v2h-2l-4 2q-2 0 -3 1l-1 1v2h-2l-2 4h-2l-2 2h-2v2h-2v2h-2l-2 2h-2v2h-2l-2 2l-2 2h-2l-2 2h-2v2h-2h-2v2h-2l-10 5t-12 7h-4h-2v2h-2h-2h-4v2h-2h-2h-2l-4 2h-2h-2h-2 l-4 2h-2h-2h-1h-1h-2v2h-2h-5t-5 2h-2h-5t-5 2h-6h-6t-8 2h-6h-4h-4v2h-4h-4h-4h-4h-4v2h-4h-8h-6h-4h-4v2h-6h-4h-6h-10h-4q-4 2 -9 2t-9 2h-8q-2 2 -7 2t-9 2h-4q-2 0 -5 1t-5 1h-6l-32 8h-1h-1h-1h-1h-6v-2h-8h-4h-2h-4h-2h-2h-2h-2h-2h-2v2h-2h-2h-2v2h-4l-2 2h-2l-2 2 h-2h-1h-1h-2h-2v-2h-2l-2 2h-2v2h-2l-2 2h-2h-2v2h-2v2h-2h-2l-2 2h-2v2h-2l-2 2h-2l-2 2h-2l-2 2h-2l-2 2h-2v2h-2h-2v2h-2l-2 2h-2l-2 2h-2l-2 2h-2v2h-2h-2v2h-2h-2v2l-6 2l-2 2h-2l-6 4h-2l-2 2h-2v2h-2h-2v2h-2h-2v2h-2h-2v2h-2h-2v2h-2h-2v2h-2l-2 2h-2l-2 2h-2h-2v2 h-2h-2v2h-2h-2v2h-2h-2l-2 2h-2v2h-2h-2v2l-6 2h-2v2h-2h-2v2h-2h-2v2h-2h-2l-2 2h-2h-2v2h-2l-2 2h-2l-2 2h-2h-2v2h-2h-2l-2 2h-2v2h-2h-2l-2 2h-2h-2v2h-2h-2v2h-2l-2 2h-2h-2v2h-2h-2h-2v2h-2h-2v2h-2h-2v2h-2h-2v2h-2h-2h-2v2h-2h-2v2h-2h-2v2h-2h-2h-2v2h-2h-2v2h-2 h-2v2h-2h-2v2h-2h-2l-2 2l-2 2h-2h-2h-2l-6 2q-6 2 -11 3t-11 3h-2h-2v2h-2h-2q-4 0 -7 1t-5 1h-4q-2 0 -5 1t-5 1h-2h-6v2h-4h-2h-4h-4h-4h-4v2h-4h-6h-4l-20 2h-4h-4h-3h-1h-4h-5h-5h-3h-3h-1h-1h-3h-3h-18h-12v-2h-4h-4h-4h-4h-4h-8h-4v-2h-6h-4h-4h-4h-4h-4q-4 -2 -9 -2 h-9h-2q-4 -2 -7 -2h-5h-4v-2h-2h-4h-2h-4h-2v-2h-2h-4h-2h-6q-2 -2 -6 -2t-8 -2h-2h-2h-2h-2q-4 0 -7 -1t-5 -1l-4 -2h-5h-5h-2q-2 -2 -4 -2h-4h-2l-2 -1t-4 -1h-2q-4 -2 -9 -2t-11 -2h-4v-2h-2h-2h-2h-2v-2h-4h-4v-2h-2v-2h-2h-2l-6 -2h-2q-6 -2 -13 -3t-13 -3l-8 -2 q-4 -2 -9 -3t-11 -3h-2h-2h-2q-4 -2 -9 -3t-9 -3h-2h-2v-2q-4 0 -7 -1t-7 -3h-2h-2h-2v-2h-4h-2v-2h-2h-2l-6 -2h-2h-2v-2h-2h-2h-2h-2v-2h-2h-2h-2v-2h-2h-2q-10 -4 -22 -7t-22 -7h-2v-2h-2h-4v-2h-2h-2l-4 -2h-2h-2v-2q-2 0 -3 -1t-3 -1h-4h-2q-6 -4 -13 -6t-15 -6h-2h-2 v-2h-2q-2 0 -3 -1t-3 -1h-2h-2v-2h-2h-2h-2v-2q-2 0 -2 1t-2 1h-2h-4h-2h-2l-2 -2h-2h-2h-2v-2h-2h-2v-2h-2h-2h-2h-2v-2h-2l-4 -2h-4h-2v-2h-2h-2h-2v-2h-2h-2q0 -2 -2 -2t-2 -2l-1 -1l-1 -1q-4 0 -8 -1t-6 -3h-4v-2h-2h-2h-2v-2h-2h-2l-2 -2h-2h-2h-2v-2h-2h-2v-2h-2h-2 h-2v-2h-2h-2v-2h-2h-2v-2h-2h-2h-2v-2h-2h-2v-2h-2h-2v-2h-2h-2v-2l-2 -2h-4h-2h-2h-2v-2h-2h-2v-2h-2v-2h-2h-2l-2 -2h-2h-2v-2h-2h-2v-2h-2h-2v-2h-2h-2q-4 -2 -10 -4l-12 -4l-10 -2l-2 -2v-2h-2v-1v-1v-3v-1l-6 -6h-2l-4 -6h-2q-2 -2 -3 -2t-1 -2h-1t-1 -2h-1q-1 0 1 -2 l-2 -2l-6 -4v-2h-2v-2h-2l-2 -2v-2v-2h-2l-2 -2l-2 -2l-2 -2v-2l-2 -2h-2v-2v-2h-2v-2l-2 -2v-2l-4 -4v-8v-6v-2v-4v-5v-5v-4v-4q0 -2 1 -5t1 -5v-4l4 -24v-2v-2h2v-2l1 -2q1 -2 1 -4v-2v-3v-3h-2v-2l-2 -2l-2 -2l-2 -2v-2l-1 -1t-1 -3h2v-2l-4 -2v-2v-2h-2v-2l2 -12h-2 l-2 -2v-2zM686 1450l340 -394l340 394h-198v374h-280v-374h-202z" />
<glyph unicode="&#xe920;" d="M542 286v132h964v-132h-964zM546 1106l118 -118l278 276v-690h164v690l278 -276l118 118l-478 444z" />
<glyph unicode="&#xe921;" d="M446 354q0 -52 38 -90t90 -38h544q52 0 90 38t38 90v604h116l11 -2q11 -2 17 -6t7 -14l1 -10v-524l20 -74q20 -74 144 -74t144 74l20 74v782l-96 -100v-682l-8 -25t-56 -27t-56 25l-8 27v524l-1 35q-1 35 -31 65t-69 31l-39 1h-116v384q0 52 -38 90t-90 38h-544 q-52 0 -90 -38t-38 -90v-1088zM542 1186v208q0 34 24 57t56 23h452q34 0 57 -24t23 -56v-208h-612zM1528 1192l64 -64l130 130l22 23q22 23 22 77q0 38 -19 64l-19 26l-94 94l-64 -70l86 -88l7 -8q7 -8 7 -26q0 -16 -6 -22l-6 -6z" />
<glyph unicode="&#xe922;" d="M318 1024q0 -46 29 -79t73 -41v28q0 22 14 39t34 21l394 -608q-12 -22 -18 -47t-6 -53q0 -90 64 -154t154 -64t154 64t64 154q0 24 -5 46t-15 42l58 72q58 70 129 157t133 165q62 76 72 86q20 -4 33 -20t13 -38v-28q44 6 73 40t29 78v62h-98v56h98v52h-98v56h98v54h-98 v56h98v56q0 50 -35 86t-85 36h-280q-50 0 -85 -36t-35 -86v-56h98v-58h-98v-52h98v-58h-98v-50h98v-58h-98v-60q0 -44 29 -78t73 -40v28q0 26 18 43t42 17h10l-278 -384q-24 16 -53 24t-59 8q-24 0 -48 -5t-44 -15l-294 512h6q24 0 42 -18t18 -44v-28q44 8 73 41t29 79v60 h-49h-49v58h98v50h-98v56h98v54h-98v56h98v58q0 50 -35 85t-85 35h-280q-50 0 -85 -35t-35 -85v-58h98v-56h-98v-54h98v-56h-98v-52h98v-56h-98v-60zM936 284q0 50 35 85t85 35t85 -35t35 -85t-35 -85t-85 -35t-85 35t-35 85z" />
<glyph unicode="&#xe923;" d="M160 522h1h1v-2v-2v-2h1h1v-1v-1v-1v-1v-1v-1h2v-1v-1v-2h2l2 -2q0 -2 1 -2h1h2v-2h3h1h2h2v-2h2h2h4h4h1h1h3h1v-1v-1h2h2h1h1h2h2v-1v-1h1h1h1h1h1h1q4 0 6 -1t4 -1h1h1l2 -2h2h1h1v-1v-1h2h2h2v-2h1h1h1h1q0 -2 1 -3l1 -1q4 -2 7 -4t5 -2h2h2h3h1v-2h4t4 2h4h4h1h1h3 h3v1v1h2h4h4h3h3h4h4q0 -2 2 -1t4 -1h4h6h1h3h2h4h2v-1v-1h2h1h1h2h5h5t5 -1t5 -1h2h2h4h4v-1v-1h1h3h2h2h4h4v-2l2 -2h6t4 2h1h1h4h2h1h1h2v-1v-1h2h6h6v-3t2 -1v-2l2 -2v-1v-1h1t1 -2h2v-2v-1v-1h1h1v-1v-1q2 0 2 -1v-1l1 -1l1 -1v-1v-1h2q0 -2 1 -2t1 -2q2 0 2 -1v-1 q2 0 2 -1t2 -1q0 -2 1 -3t3 -1q0 -2 1 -2h1q0 -2 1 -2h1l1 -1l1 -1h2v-1v-1h1h1v-2h2h1h1v-2h1h1v-2h2h1h1v-1v-1h1h1q6 -4 12 -6l12 -4l1 -1l1 -1h2h1h1h1h1v-2h2h2h4h2v-1v-1h3h3h6t6 -2h3h1h3h3h4h4h6h4h3h3h1h3t5 1t5 1h2h1h3v1v1h2h1h1h2h1t1 2h1h3h1h1v1v1h1h1h2v1v1 h2h1h1h2v1v1h2h1h1v2h2h1h1v1v1h2l2 2h1h1h2v2h1h1v1v1h2h2v1v1h1h1l2 2h1h1v2h2q0 2 1 2h1l1 1l1 1l1 1l1 1l3 3l1 1l3 3l3 3q2 0 2 1t2 1v2h2h1h1v2h2v2h2h2v1v1h2v2h1h1l2 2h2v2h10h10v-8v-8h1t1 -2q2 0 4 1t4 1h1h1q2 0 4 1l2 1q2 2 2 5v5h1h1h13h13h36h36h2h2h4h13h13 h5h7h2h4q2 2 5 2h5h1h1h4h6h1h3v-2h20h18h14h12q2 2 5 2h5h10h10h4h4h5h7h10h12h5h5h29h29h5h5h24h22h54h52h4h4h21h21q2 0 4 1t4 -1l1 1l1 1v-1v-1h2v1v1h1h1v-1v-1q2 0 2 1v1l1 -1l1 -1q2 0 2 1t2 1v-1v-1h4t6 2h1h1h6h4h7h5h4h4h4h4h3h3q2 2 4 2h4v1v1h19h17l3 -3t3 -1 v-1t2 -1h2v-2h1h1q0 -2 1 -2h1h2q0 -2 1 -2h1v-1v-1h1h1v-1v-1l1 -1t3 -1v-2h2q0 -2 1 -2t1 -2q2 0 3 -1t1 -3h1t1 -2h1h1q0 -2 1 -2h1h2v-2h2v-2h1h1q0 -2 1 -2h1h1h1v-1v-1h2h2v-2h2v-2h2h1h1v-2h2h1h1v-1v-1h2h1h1v-1v-1h1h1h1h1v-2h1h1h2h2v-2h1h1h1h1h2v-1v-1h1h1h2h2 l1 -1t3 -1h1h1q2 0 4 -1l2 -1h4h4h2h2v-1v-1h1h3h1h3h6h6h4h2h4h2h3h1v1v1h2h2h1h1h2h2h2h2v1v1h1h1h2h2h2l2 2h1h1h1h1h2v2h1h1h1h1q0 2 1 2h3h2v1v1h2h2v2h2h1h1q0 2 1 2h1h1h1v2h1h1q2 0 2 1v1h1h1v1v1h2h2v1v1h1h1h2v2h1h1v1v1h2v1t2 1v2h1h1l1 1l1 1q2 0 3 2l1 2l3 3 t3 1v1v1l1 1l1 1l1 1l1 1v1t2 1v1v1h1h1v2v2h2v1v1h2v1v1h9h9q2 -2 2 -4v-2v-3v-1v-3v-3l1 -1l1 -1q4 -2 8 -2h8v-1v-1h1h1v5v5h1h1q2 -2 5 -1t5 1h5h5h1h1h1h1l1 1l1 1h1h1q2 0 4 1l2 1l16 4l16 4h2v2h2h1h1h8t8 2h2h1h1h2v1v1h2h2t4 1t4 1h2h2h1h1h3h1l1 1t3 1h2h3h1 q4 2 9 3t9 1h1h1h2v1v1h1h1l2 -2h1h1v-1v-1q2 0 3 -1t3 -1h1h1q2 2 4 2h4h4h4h1h1h2v1v1h2h2h5t7 2h1h1h2v1v1h2l1 1l1 1v3v1v1v1h-1h-1v2v2l2 2h2h1h1q2 0 2 1v1q2 0 3 3t1 5l-1 1l-1 1l-2 -4v1v1l-1 1l-1 1v1v1q-2 2 -3 2t-1 2q-2 0 -1 4l1 4q0 6 1 11t1 11v4v4h1h1v3v1v3 v3v5v5v5v5v4t2 2v3v1v5v5l-3 3t-1 3h-1h-1v2l-2 2v1t-2 1q0 2 -2 3t-2 3q-2 0 -3 1t-1 3h-1h-1v2h-1h-1h-2v2q-2 0 -2 1v1h-2v1v1h-2l-1 1l-1 1h-2v1v1h-2v1v1h-2t-2 1v1h-2v2h-2h-2v2h-2v1v1h-2h-1h-1v2h-1h-1v2h-2h-2q0 2 -1 2h-1l-2 2h-2v1v1h-2h-1h-1l-1 1l-1 1h-1h-1v2 h-1h-1h-1h-1v2h-2h-1h-1v1v1h-2h-2v2h-2h-2v2h-1h-1h-1h-1v1v1h-2h-1t-1 2h-1h-1h-2v1t-2 1h-2q0 2 -1 2h-1h-2l-1 1l-1 1h-2q0 2 -1 2h-1h-1h-1h-2v1v1h-2h-1h-1v1v1h-1h-1h-2v2h-1h-1h-1h-1v2h-1h-1h-2v1v1h-2h-1h-1q-2 0 -2 1t-2 1l-2 1t-2 3h-1h-1l-1 1t-1 3h-2v2h-1h-1 h-1h-1v2h-2v1v1h-1h-1v2h-2l-1 1l-1 1h-1h-1v1v1h-1h-1v1v1h-2h-1h-1v2h-2q-2 0 -2 1v1h-2v2h-1h-1q-6 4 -12 6t-12 6h-3h-1v1v1h-2h-2h-1h-1v2h-2h-2h-2h-2h-1h-1v2h-1h-3h-2h-2v1v1h-2h-3h-1h-1h-1h-1h-1v1v1l-1 -1l-1 -1v1v1h-1h-1h-2q-2 0 -4 1t-6 1h-2q-2 0 -5 1t-5 1 h-3h-3q-2 2 -6 2h-8q-2 0 -3 1t-3 1h-3h-1h-1h-3h-1h-3h-1h-3v2h-1h-3h-1h-3h-1h-3h-1h-3h-4t-4 2h-3h-3h-1h-3h-3h-1h-3h-3h-3h-1v2h-3h-3h-5h-5h-2h-2q-4 2 -9 2t-9 2h-4h-4q-2 2 -7 2t-9 2h-1h-3t-5 1t-5 1h-3h-3l-16 4t-16 2q-2 2 -3 1l-1 -1h-3h-3h-4h-4h-3h-1h-2h-1 h-3q0 -2 -3 -2h-5v2h-1h-1h-2l-1 1l-1 1h-1h-1q-2 0 -2 1v1h-3h-1l-1 1l-1 1h-2v1v1h-2h-3h-1h-2h-2v-2h-2q0 2 -1 2h-1h-1h-1v2h-2h-2v2h-2l-2 2h-1h-1l-2 2h-1h-1v2h-1h-1h-2v2h-2h-2v2h-1h-1v2h-2h-1h-1v2h-2h-1h-1v2h-1h-1h-1h-1v2h-1h-1h-2v2h-1h-1l-2 2h-2v1v1h-2h-2 v1t-2 1h-2v2h-2h-2v2h-2h-2v1v1l-2 1t-4 1l-2 2h-2q-2 2 -3 2t-3 2h-1h-1v2h-1h-1h-2v2h-1h-1h-1h-1v2h-2v2h-2h-1h-1q0 2 -1 2h-1h-2v1v1h-1h-1h-1h-1v1v1h-1h-1h-1t-1 2h-1h-1l-1 1l-1 1h-1h-1v1v1h-2h-2v2h-1h-1h-1h-1v2h-2h-1h-1v1v1h-2h-1t-1 2h-1h-1h-2v1t-2 1h-1h-1 q0 2 -2 2t-4 2h-1h-1q0 2 -1 2h-1h-2v1v1h-1h-1h-1h-1v2h-1h-1h-1h-1v2h-2h-1h-1v1v1h-1h-1h-1t-1 2h-1h-1h-1h-1v2h-1h-1h-1h-1v1v1h-2h-2v1v1h-2h-2v2h-1h-1h-1h-1v1v1h-1h-1h-1h-1v2h-2h-1h-1h-1h-1v2h-1h-1h-1h-1v2h-2h-2v1v1h-2h-2v2h-1h-1h-1h-1v2h-2t-2 1v1h-2h-2v1 v1h-1h-1h-2v2h-1h-1h-2v2h-2h-1h-1v2h-2h-2l-1 1l-1 1h-2v1v1h-2h-1h-1h-1t-1 2h-2h-1h-1v2h-2h-1h-1v1t-2 1h-1h-1q0 2 -1 2h-3v1v1h-1h-1h-1h-1v1v1h-2h-3t-3 2q-6 0 -11 2t-11 2h-1h-1v1v1h-1h-1h-1h-1h-2h-2q-2 2 -5 2h-5t-3 1t-3 1h-4h-4h-1h-3v2h-2h-2h-2h-2h-1h-1h-3 h-1v1v1h-1h-3h-1h-3h-2h-2h-3h-1q-2 0 -4 1t-4 1h-1h-1h-11h-11h-5h-7h-1h-3q-2 2 -7 2h-7h-4t-4 -2h-8h-8h-2h-2h-5h-5h-4h-4q-2 -2 -4 -1t-4 1h-1h-3q-2 -2 -4 -2h-4h-3h-1h-3h-3h-2h-2h-3h-1v-1v-1h-3h-3h-1h-3h-1h-3q-4 -2 -8 -2h-8h-2h-2q-2 0 -5 -1t-7 -1h-1h-1h-2h-2 h-1h-1v-1v-1h-1h-1h-2h-2h-1h-1h-1h-3h-1h-1v-2h-1h-1h-3h-3t-6 -1t-8 -1h-1h-1h-1h-1v-2h-1h-1h-1h-1q-4 0 -7 -1t-7 -1h-1h-3t-4 -1t-4 -1h-1h-1q-2 0 -4 -1t-4 -1h-1h-1h-2t-4 -2h-1h-1q-4 0 -10 -1t-10 -3h-1h-3h-2v-1v-1h-2h-2h-2h-2h-1t-3 -2h-1h-1h-1h-1v-2h-2v-2h-1 h-3h-2q-2 0 -2 -2h-2q-6 -2 -13 -3t-13 -3q-2 0 -4 -1t-4 -1q-4 -2 -10 -3t-10 -3h-1h-1h-2h-1h-1q-4 -2 -9 -3t-9 -3h-1h-1h-1h-1h-2q-2 -2 -5 -3t-7 -1h-2v-1v-1h-1h-1h-2h-2v-1v-1h-1h-1h-1h-3v-2h-2h-3t-3 -2h-2h-2v-1v-1h-1h-1h-2h-2v-2h-2h-1h-1h-2h-2v-2h-1h-1h-1h-1 q-12 -4 -23 -8t-21 -8h-1h-1h-2h-2l-1 -1l-1 -1h-2l-1 -1t-3 -1h-1h-1h-2v-1v-1h-1h-1h-1h-1l-2 -1l-2 -1q-2 0 -2 -1t-2 -1h-1h-1q-6 -2 -14 -5t-14 -5h-2v-1v-1h-2h-2h-2q0 -2 -1 -2h-3h-2v-1v-1h-2h-2v-1v-1h-2h-1h-1h-1h-1v-2l-1 1l-1 1h-2h-2h-1h-1h-2h-2h-2l-2 -2h-2 h-2h-2v-2h-2h-2v-1v-1h-2h-2h-2v-1v-1h-1h-1h-1h-1h-1t-1 -2h-2h-1h-3h-2v-2h-1h-1h-2v-1v-1h-1h-1h-1h-1q-2 -2 -3 -2t-3 -2v-1v-1q-6 0 -9 -1t-7 -3h-1h-3v-1v-1h-1h-1h-1h-1v-2h-3h-1q-2 -2 -3 -2h-1h-2v-1v-1h-1h-1h-1h-1h-1h-1v-1v-1h-2h-2v-2h-1h-1h-1h-1h-2v-2h-2h-1 h-1v-1v-1h-1h-1h-2v-1v-1h-2h-2v-2h-1h-1h-1h-1v-2h-2h-2v-1t-2 -1l-1 -1l-1 -1h-1t-1 -2h-1h-1h-3h-3v-1v-1h-2h-2v-1v-1h-2h-1h-1v-2h-1h-1h-2v-2h-1h-1h-1h-1v-1v-1h-1h-1h-2v-1v-1h-1h-1h-1h-1v-2h-2h-2q-6 -4 -12 -5t-10 -3q-2 0 -5 -1t-5 -1v-1v-1h-2l-2 -2 q0 -2 -1 -2t-1 -2v-1v-1q-2 -2 -3 -4t-3 -4q-2 0 -3 -1t-1 -3h-2h-2v-2h-1t-1 -2h-1h-1v-1v-1h-2v-2l-1 -1l-1 -1q0 -2 -1 -3t-3 -1l-1 -1l-1 -1v-1v-1h-2q0 -2 -1 -2h-1v-1t-2 -1v-2q-2 0 -2 -1v-1l-2 -2v-1v-1h-2v-1v-1h-1h-1v-2h-2v-1v-1l-2 -2q0 -2 -1 -2h-1v-1v-1h-1 t-1 -2t-1 -3t-1 -3v-3t-2 -3v-3v-3v-8v-8v-2v-2v-3v-1q2 -2 2 -5v-7v-1v-1q2 -6 3 -12t1 -12h1h1v-2v-2v-1v-1q2 -2 3 -4t1 -4l-1 -3l-1 -3v-2h-2v-1v-1h-2v-2t-1 -2h-1v-2h-1h-1v-2v-2v-1v-1l-1 -1l-1 -1v-2v-2h-2v-2v-5v-7v-1t-2 -1v-1v-1v-4v-2zM322 942l68 34 q66 32 173 68t241 62q134 24 266 8q138 -18 259 -93l121 -75l64 -8t150 -31t170 -67q86 -42 128 -114l-134 71t-394 79l-130 78q-130 78 -244 92q-58 6 -140 6t-180 -10t-206 -34t-212 -66zM358 1104l68 34q66 32 173 68t241 62q134 24 266 8q138 -18 259 -93l121 -75l60 -8 q60 -10 140 -34t160 -68q82 -44 124 -116l-120 74t-380 82l-130 78q-130 78 -244 92q-58 6 -140 6q-84 0 -181 -10t-205 -34t-212 -66z" />
<glyph unicode="&#xe924;" d="M254 418h1540v960h-1540v-960zM354 514v764h1340v-764h-1340zM580 712v98q0 14 11 25t25 11h98q16 0 27 -11t11 -25v-98q0 -16 -11 -27t-27 -11h-98q-14 0 -25 11t-11 27zM580 988v98q0 14 11 25t25 11h98q16 0 27 -11t11 -25v-98q0 -16 -11 -27t-27 -11h-98 q-14 0 -25 11t-11 27zM818 712v98q0 14 11 25t27 11h98q14 0 25 -11t11 -25v-98q0 -16 -11 -27t-25 -11h-98q-16 0 -27 11t-11 27zM818 988v98q0 14 11 25t27 11h98q14 0 25 -11t11 -25v-98q0 -16 -11 -27t-25 -11h-98q-16 0 -27 11t-11 27zM1058 712v98q0 14 11 25t25 11 h98q16 0 27 -11t11 -25v-98q0 -16 -11 -27t-27 -11h-98q-14 0 -25 11t-11 27zM1058 988v98q0 14 11 25t25 11h98q16 0 27 -11t11 -25v-98q0 -16 -11 -27t-27 -11h-98q-14 0 -25 11t-11 27zM1296 712v98q0 14 11 25t27 11h98q14 0 25 -11t11 -25v-98q0 -16 -11 -27t-25 -11 h-98q-16 0 -27 11t-11 27zM1296 988v98q0 14 11 25t27 11h98q14 0 25 -11t11 -25v-98q0 -16 -11 -27t-25 -11h-98q-16 0 -27 11t-11 27z" />
<glyph unicode="&#xe925;" d="M238 422v29v27q4 -48 41 -82t85 -34h1318q48 0 84 34t42 82v-27v-29v768q0 54 -37 90t-89 36h-256l-152 156h-1h-1q-18 18 -40 28t-48 10h-322q-26 0 -49 -10t-39 -28h-2l-152 -156h-256q-52 0 -89 -36t-37 -90v-768zM786 886q0 98 70 170t166 72q98 0 167 -72t71 -170 q-2 -98 -71 -167t-167 -69q-96 0 -166 69t-70 167z" />
<glyph unicode="&#xe926;" d="M222 348q0 -24 17 -41t41 -17h1456q24 0 41 17t17 41v1066q0 26 -17 43t-41 17h-1456q-24 0 -41 -17t-17 -43v-1066zM386 450v860h1246v-860h-130l-298 356l-132 -162l-328 432l-226 -626h-132zM1270 1078q0 40 29 69t71 29q40 0 69 -29t29 -69t-29 -69t-69 -29 q-42 0 -71 29t-29 69z" />
<glyph unicode="&#xe927;" d="M606 298q0 -32 122 -54t296 -22t296 22t122 54v3t-2 3q2 2 2 5v5v800q0 14 -9 25t-23 15l-71 20t-97 44q-14 14 -33 43t-19 85t44 86l44 30h-4q20 14 30 28t10 30q0 48 -85 81t-205 33t-205 -33t-85 -81q0 -16 10 -30t30 -28h-4l44 -30q44 -30 44 -86t-19 -85t-33 -43 q-26 -24 -97 -44l-71 -20q-14 -4 -23 -15t-9 -25v-800v-5t2 -5q-2 -2 -2 -3v-3z" />
<glyph unicode="&#xe928;" d="M362 900q0 -138 52 -258t142 -210t210 -142t258 -52t258 52t210 142t142 210t52 258t-52 258t-142 210t-210 142t-258 52t-258 -52t-210 -142t-142 -210t-52 -258zM362 900q0 -138 52 -258t142 -210t210 -142t258 -52t258 52t210 142t142 210t52 258t-52 258t-142 210 t-210 142t-258 52t-258 -52t-210 -142t-142 -210t-52 -258zM418 862l106 106l496 -66l-570 194l138 56l432 -250l-452 398h150l304 -398l-266 542l138 -58l128 -484l-40 602l106 -106l-64 -496l192 570l58 -138l-250 -432l396 452v-148l-396 -306l540 268l-56 -138 l-484 -130l602 40l-106 -106l-496 66l570 -194l-138 -58l-432 250l452 -396h-150l-304 396l266 -540l-138 58l-128 482l40 -600l-106 106l64 496l-192 -572l-58 138l250 434l-396 -454v150l396 304l-540 -266l56 138l484 130zM420 862l106 104l496 -64h2l-454 396h150 l304 -396l-40 602l106 -106l-64 -496v-2l396 454v-150l-396 -304l602 40l-106 -106l-498 64l454 -396h-150l-304 396l38 -602l-104 106l64 498l-396 -454v150l396 304zM1022 900v2v-2zM1022 900zM1022 900zM1024 898zM1024 898zM1024 900zM1024 902zM1024 902zM1026 900z M1026 900z" />
<glyph unicode="&#xe929;" d="M962 130v1532h124v-1532h-124z" />
<glyph unicode="&#xe92a;" d="M316 374l110 -22q110 -22 486 -22q60 0 113 1t99 3q-42 38 -65 85t-23 101q0 62 31 116t83 92q-28 14 -51 22t-37 10q-24 4 -28 46l-4 42q26 44 51 95t47 103q18 48 34 140q14 92 -1 184t-71 160q-58 68 -182 68t-178 -74q-54 -76 -68 -171t-2 -183q10 -88 18 -114 q16 -52 63 -129l47 -77l-5 -43t-27 -47q-36 -6 -110 -42t-147 -91t-127 -121q-56 -66 -56 -132zM1180 462q0 -6 3 -9t9 -3h234q4 0 8 -4t4 -8v-234q0 -6 3 -9t9 -3h100q6 0 9 3t3 9v234q0 4 4 8t8 4h234q6 0 9 3t3 9v100q0 6 -3 9t-9 3h-234q-4 0 -8 4t-4 8v234q0 6 -3 9 t-9 3h-100q-6 0 -9 -3t-3 -9v-234q0 -4 -4 -8t-8 -4h-234q-6 0 -9 -3t-3 -9v-100z" />
<glyph unicode="&#xe92b;" horiz-adv-x="2038" d="M0 -128l538 142q106 -60 229 -92t255 -32h2q210 0 394 80t322 218t218 322t80 394v2v2q0 104 -20 204q-22 98 -60 189t-92 171q-56 82 -124 150q-70 70 -150 124q-82 56 -172 94t-190 60q-100 20 -204 20h-1h-1q-210 0 -396 -80q-184 -80 -322 -218t-218 -322t-80 -394 v-2q0 -140 36 -269t102 -241zM180 904v2q0 174 66 328q66 152 181 267t269 181t328 66t328 -66t268 -181t180 -267q66 -154 66 -330q0 -174 -66 -328q-66 -152 -181 -267t-267 -181q-154 -66 -328 -66h-1h-1q-118 0 -228 31t-204 87l-28 16l-318 -84l84 312l-20 32 q-60 96 -94 210t-34 238zM508 1130q0 -92 47 -170t57 -92q4 -6 36 -50q32 -46 89 -106t135 -122q76 -64 172 -104q28 -12 63 -26t71 -26q32 -8 58 -13t54 -5q16 0 31 2t29 4q36 6 95 41t75 79t18 79t-4 43q-4 8 -16 14t-32 14q-18 10 -87 44t-87 40q-16 6 -30 6t-26 -20 q-12 -18 -41 -52t-39 -46q-12 -14 -24 -15t-32 9q-18 8 -75 34t-129 90q-56 52 -93 105t-47 71q-12 20 -6 31t16 21q10 8 20 21t18 23q10 12 15 21t11 21q6 14 4 25t-6 21q-4 8 -33 79t-45 109q-16 36 -31 39t-27 5h-23h-25q-20 0 -38 -9t-30 -23q-18 -18 -53 -68t-35 -144z " />
<glyph unicode="&#xe92c;" d="M194 468q0 -48 33 -81t81 -33h558v-136q0 -12 8 -20t20 -8h292q12 0 20 8t8 20v136h524q48 0 81 33t33 81v888q0 48 -33 81t-81 33h-1430q-48 0 -81 -33t-33 -81v-888zM286 504v10h1474v-10q0 -24 -17 -41t-41 -17h-1358q-24 0 -41 17t-17 41zM286 574v746q0 24 17 41 t41 17h1358q24 0 41 -17t17 -41v-746h-1474zM742 94q0 -10 8 -21t20 -11h516q10 0 19 11t9 21q0 12 -9 24t-19 12h-516q-12 0 -20 -12t-8 -24zM926 254v100h228v-100h-228z" />
<glyph unicode="&#xe92d;" d="M386 230q0 -54 39 -93t93 -39h1008q54 0 93 39t39 93v1332q0 54 -39 93t-93 39h-1008q-54 0 -93 -39t-39 -93v-1332zM478 260v62h1092v-62q0 -30 -21 -50t-49 -20h-952q-30 0 -50 20t-20 50zM478 382v1150q0 30 20 50t50 20h952q28 0 49 -20t21 -50v-1150h-1092zM984 256 q0 16 12 28t28 12t28 -12t12 -28t-12 -28t-28 -12t-28 12t-12 28z" />
<glyph unicode="&#xe92e;" d="M352 784v252l672 -532l672 532v-252l-672 -534zM352 1288v254l672 -534l672 534v-252l-672 -534z" />
<glyph unicode="&#xe92f;" d="M238 600l388 352v-220h656v-260h-656v-224zM762 1056h656v-224l388 352l-388 352v-220h-656v-260z" />
<glyph unicode="&#xe930;" d="M328 1450l110 4l464 -1212l-110 -4zM464 1370l63 55t159 87l98 -252l-76 -35q-76 -35 -154 -107l-88 242zM658 834l88 -254l77 63t165 89l-98 258q-86 -32 -159 -94zM780 1258l4 2l106 -270l49 15q49 15 91 15q30 0 60 -3t58 -7l-82 288q-10 2 -22 3t-26 1 q-62 0 -122 -11t-116 -33zM996 1564l72 -266q42 0 129 -39l87 -39l-64 274q-26 12 -90 39t-134 31zM1144 1012l72 -274q28 0 91 -22t97 -22l-62 268q-44 12 -105 28t-93 22zM1284 1220l58 -258l35 -6q35 -6 65 -6t61 5l31 5l-20 238q-20 -6 -42 -9t-44 -3q-56 0 -78 8z M1494 1454l20 -256l62 22q62 22 142 82v266q-92 -70 -125 -81zM1534 960q52 12 98 30t88 42l-2 -282q-74 -34 -119 -44l-45 -10z" />
<glyph unicode="&#xe931;" d="M358 406q0 -20 15 -35t35 -15h854q16 -66 71 -110t127 -44q84 0 144 60t60 144q0 86 -60 145t-144 59q-72 0 -127 -43t-71 -111h-854q-20 0 -35 -14t-15 -36zM358 1374q0 -22 15 -36t35 -14h854q16 -66 71 -110t127 -44q84 0 144 59t60 145q0 84 -60 144t-144 60 q-72 0 -127 -44t-71 -110h-854q-20 0 -35 -15t-15 -35zM360 890q0 84 60 144t144 60t144 -60t60 -144t-60 -144t-144 -60t-144 60t-60 144zM816 890q0 16 12 28t28 12t28 -12t12 -28t-12 -28t-28 -12t-28 12t-12 28zM944 890q0 16 11 28t29 12q16 0 28 -12t12 -28t-12 -28 t-28 -12q-18 0 -29 12t-11 28zM1070 890q0 16 12 28t28 12t28 -12t12 -28t-12 -28t-28 -12t-28 12t-12 28zM1198 890q0 16 11 28t29 12q16 0 28 -12t12 -28t-12 -28t-28 -12q-18 0 -29 12t-11 28zM1324 890q0 16 12 28t28 12t28 -12t12 -28t-12 -28t-28 -12t-28 12t-12 28z M1450 890q0 16 12 28t28 12q18 0 29 -12t11 -28t-11 -28t-29 -12q-16 0 -28 12t-12 28z" />
<glyph unicode="&#xe932;" d="M544 800h442l-154 -578l672 770h-440l152 578z" />
<glyph unicode="&#xe933;" d="M324 372q0 -24 12 -44t32 -32t44 -12h1224q24 0 44 12t32 32t12 44t-12 44l-612 1048q-12 20 -32 32t-44 12t-44 -12t-32 -32l-612 -1048q-12 -20 -12 -44zM936 546q0 36 26 62t62 26t62 -26t26 -62t-26 -62t-62 -26t-62 26t-26 62zM936 808v262q0 38 26 63t62 25t62 -25 t26 -63v-262q0 -36 -26 -62t-62 -26t-62 26t-26 62z" />
<glyph unicode="&#xe934;" d="M240 308v72q396 0 501 63t105 115q0 64 -59 104t-133 76q-84 40 -160 95t-76 151q0 94 64 146q62 50 149 73t177 27t144 4h4q14 104 94 177t188 73h286v-106h248q16 0 26 -10t10 -26t-10 -26t-26 -10h-248v-214h248q16 0 26 -10t10 -26t-10 -26t-26 -10h-250v-106h-284 q-110 0 -189 73t-93 177h-4q-48 0 -126 -4q-78 -2 -153 -19t-129 -53t-54 -102q0 -64 58 -104t134 -78q82 -40 158 -95t76 -151q0 -94 -82 -144q-82 -52 -193 -75t-225 -27t-176 -4z" />
<glyph unicode="&#xe935;" d="M348 798q0 -142 54 -264q52 -124 144 -216t214 -144q124 -54 264 -54t264 54q122 52 214 144t144 216q54 122 54 264q0 128 -44 242q-46 114 -124 203t-184 149q-106 58 -228 76v108h60v96h-314v-96h62v-108q-122 -18 -228 -76q-106 -60 -184 -149t-124 -203 q-44 -114 -44 -242zM474 798q0 114 44 214t118 175t174 117q100 44 214 44t214 -44q100 -42 174 -117t118 -175t44 -214t-44 -216q-44 -100 -118 -174t-174 -118t-214 -44t-214 44t-174 118t-118 174q-44 102 -44 216zM934 842q2 -38 28 -64t62 -26t62 26t28 64l-96 354z " />
<glyph unicode="&#xe936;" horiz-adv-x="1744" d="M0 528q0 -6 2 -12t4 -10q6 -10 15 -16t21 -6h1h1h296q48 0 80 58q306 542 320 564l-204 354q-32 56 -82 56h-296q-28 0 -40 -18t2 -46l200 -346l-314 -556q-2 -4 -4 -10t-2 -12zM664 698l420 -770q30 -56 82 -56h296q26 0 38 18q14 22 0 46l-416 762v2l654 1156 q12 26 0 46q-12 18 -40 18h-298q-48 0 -78 -56q-636 -1126 -658 -1166z" />
<glyph unicode="&#xe937;" d="M128 82q0 -34 24 -58t58 -24t58 24l514 514q24 24 24 58t-24 58q-24 26 -58 25t-58 -25l-514 -514q-24 -24 -24 -58zM128 1710q0 -34 24 -58l484 -484q24 -24 58 -24t58 24t24 58t-24 58l-484 484q-24 24 -58 24t-58 -24t-24 -58zM1242 596q0 -34 24 -58l514 -514 q24 -24 58 -24t58 24q22 24 23 58t-23 58l-514 514q-24 24 -58 24t-58 -24t-24 -58zM1242 1196q0 -34 24 -58t58 -24t58 24l514 514q24 24 24 58t-24 58t-58 24t-58 -24l-514 -514q-24 -24 -24 -58z" />
<glyph unicode="&#xe938;" d="M264 297q0 65 48 113l740 740q-12 32 -17 63t-5 65q0 156 111 267t265 111q34 0 66 -5t64 -17l-228 -226q-22 -24 -22 -54t22 -52l122 -122q22 -22 52 -22t54 22l226 228q10 -32 16 -64t6 -66q0 -156 -111 -267t-267 -111q-34 0 -65 6t-63 18l-740 -740q-48 -48 -113 -48 t-113 48t-48 113z" />
<glyph unicode="&#xe939;" d="M180 512h1536v230h152v308h-152v230h-1536v-768zM256 588v616h1382v-616h-1382z" />
<glyph unicode="&#xe93a;" d="M180 858h306v17v21v21v17h-306v-76zM268 528l38 -66l238 138l-12 24l-5 13t-9 33zM272 1268l248 -142q4 18 9 31t7 15l12 24l-238 138zM560 896q0 -112 19 -177t23 -69l12 -22h26q100 0 204 82t104 186t-104 186t-204 82h-26l-12 -22q0 -4 -21 -69t-21 -177zM640 896 q0 66 9 116t17 72q70 -12 137 -68t67 -120t-67 -120t-137 -68q-8 24 -17 73t-9 115zM1100 896q0 -104 104 -186t204 -82h24l10 22q0 4 22 69t22 177t-20 177t-24 69l-8 22h-26q-100 0 -204 -82t-104 -186zM1178 896q0 64 67 120t137 68q8 -26 17 -74t9 -114t-9 -116t-17 -72 q-70 12 -137 68t-67 120zM1500 596l238 -138l38 66l-250 142q-2 -18 -7 -31t-7 -15zM1504 1192l12 -24l5 -13q5 -13 9 -33l250 142l-38 66zM1562 858h306v76h-306v-17v-21v-21v-17z" />
<glyph unicode="&#xe93b;" d="M410 204h844v78h-76v690q2 0 39 -14t37 -100v-308q0 -50 39 -121t153 -71t153 71t39 121q0 56 -12 105t-28 95q-14 44 -25 89t-11 95v154l56 28l20 10q-10 118 -68 204q-60 86 -129 143t-125 85q-58 28 -62 30v-78q24 -8 127 -93t103 -329v-154q0 -60 13 -110t29 -98 q14 -44 25 -86t11 -90q0 -14 -17 -65t-99 -51q-80 0 -97 51t-17 65v308q0 114 -57 153t-97 39v460q0 32 -23 55t-55 23h-536q-32 0 -55 -23t-23 -55v-1228h-76v-78zM564 282v768h536v-78v-690h-536zM564 1126v384h536v-384h-536z" />
<glyph unicode="&#xe93c;" d="M180 358h76q0 94 36 176q34 84 95 146t141 100q82 36 174 40q-30 -36 -46 -74t-16 -80q0 -66 38 -122q38 -58 105 -99t159 -63q90 -24 198 -24q106 0 198 24q90 22 157 63t105 99q38 56 38 122q0 42 -16 80t-46 74h140q56 0 66 -39l10 -39h76v308h-76l-10 -39t-66 -39 h-1000q-94 0 -178 38q-84 36 -147 98t-99 146t-36 180h-76v-1076zM794 666q0 46 93 100t253 54q158 0 251 -54t93 -100t-93 -100t-251 -54q-160 0 -253 54t-93 100z" />
<glyph unicode="&#xe93d;" d="M524 628q0 -104 40 -196q40 -90 107 -158t159 -106q90 -40 194 -40t194 40q92 38 159 106t107 158q40 92 40 196v344h-116v308q0 158 -113 271t-271 113t-271 -113t-113 -271v-308h-116v-344zM602 628v268h844v-268q0 -88 -32 -166q-34 -76 -91 -134t-135 -90 q-76 -34 -164 -34t-164 34q-78 32 -135 90t-91 134q-32 78 -32 166zM716 972v308q0 126 91 217t217 91t217 -91t91 -217v-308h-616zM948 512q0 -32 22 -54t54 -22t54 22t22 54v76q0 32 -22 55t-54 23t-54 -23t-22 -55v-76z" />
<glyph unicode="&#xe93e;" d="M410 616h152v76h-76q6 84 38 165t92 151l56 -54l54 54l-52 52q68 58 149 90t165 40v-76h76v76q84 -6 165 -38t151 -92l-54 -56l54 -54l52 52q58 -68 90 -149t40 -165h-76v-76h152q8 130 -37 255t-143 223q-90 88 -202 134q-114 44 -232 44t-232 -44q-112 -46 -202 -134 q-98 -98 -143 -222t-37 -252zM948 600q0 -32 22 -54t54 -22t54 22t22 54t-22 54l-7 7t-9 5v314l-38 54l-38 -54v-314q-4 -4 -8 -6t-8 -6q-22 -22 -22 -54z" />
<glyph unicode="&#xe93f;" d="M180 976l230 -76v-358h822l464 466h4l66 -70l56 54l-88 96l-690 -80l-78 72h-172v76h76v78h-230v-78h76v-76h-230v66l-306 102v-272zM256 1030v112l154 -50v-112zM486 620v384h446l76 -78l562 66l-370 -372h-714zM1716 696q0 -32 22 -54t54 -22t54 22t22 54t-26 71 t-50 83q-24 -44 -50 -83t-26 -71z" />
<glyph unicode="&#xe940;" d="M180 896q0 88 16 170q18 84 50 160t78 144q44 68 100 126l108 -108q-92 -96 -146 -222t-54 -270t55 -270t149 -218l-108 -108q-56 56 -104 124q-46 68 -78 143t-50 159q-16 82 -16 170zM410 896q0 -126 48 -238t132 -196t196 -132t238 -48t238 48t196 132t132 196t48 238 t-48 238t-132 196t-196 132t-238 48t-238 -48t-196 -132t-132 -196t-48 -238zM486 896q0 110 42 208q44 98 117 171t171 117q98 42 208 42t208 -42q98 -44 171 -117t117 -171q42 -98 42 -208t-42 -208q-44 -98 -117 -171t-171 -117q-98 -42 -208 -42t-208 42 q-98 44 -171 117t-117 171q-42 98 -42 208zM832 516h88v302h150q26 0 49 3t43 9q24 4 41 12t33 24q14 14 25 31t17 37q8 24 11 51t3 61q0 32 -3 60t-7 50q-6 24 -17 42t-23 32q-14 14 -31 24t-37 18q-20 6 -46 9t-54 3h-242v-768zM920 892v308h154q18 0 33 -3t29 -5 q10 -4 21 -9t17 -15q8 -8 14 -20t10 -26q2 -14 4 -34t2 -42q0 -24 -2 -43t-4 -35q-4 -14 -10 -25t-14 -21q-8 -8 -18 -14t-24 -8q-12 -6 -27 -7t-35 -1h-150zM1512 1384l108 108q56 -56 102 -124q48 -66 80 -142t50 -160q16 -82 16 -170t-16 -170q-18 -84 -50 -160t-78 -144 q-44 -68 -100 -126l-108 108q92 96 146 222t54 270t-55 270t-149 218z" />
<glyph unicode="&#xe941;" d="M370 324h108v364h180q32 0 61 3t51 9q26 6 47 18t37 28q18 14 30 36t20 48q10 26 15 60t5 72q0 36 -4 70t-12 60q-8 28 -19 51t-27 37q-16 18 -36 30t-44 20q-26 8 -55 12t-65 4h-292v-922zM478 780v370h186q20 0 39 -3t33 -5t26 -11t20 -19q8 -12 16 -25t10 -33 q4 -18 6 -40t2 -48q0 -30 -2 -53t-6 -41q-2 -16 -10 -31t-16 -25q-8 -12 -22 -18t-28 -10q-14 -2 -33 -5t-39 -3h-182zM1012 700l512 -296l38 66l-514 300q-10 -18 -18 -35t-18 -35zM1036 1188q6 -12 11 -26t7 -28q4 -2 5 -8t3 -12l500 288l-38 66zM1074 900h602v76h-598v-5 v-5q0 -18 -1 -33t-3 -33z" />
<glyph unicode="&#xe942;" d="M524 628q0 -104 40 -196q40 -90 107 -158t159 -106q90 -40 194 -40t194 40q92 38 159 106t107 158q40 92 40 196v344h-116v308q0 158 -113 271t-271 113t-271 -113t-113 -271h76q0 126 91 217t217 91t217 -91t91 -217v-308h-808v-344zM602 628v268h844v-268 q0 -88 -32 -166q-34 -76 -91 -134t-135 -90q-76 -34 -164 -34t-164 34q-78 32 -135 90t-91 134q-32 78 -32 166zM948 512q0 -32 22 -54t54 -22t54 22t22 54v76q0 32 -22 55t-54 23t-54 -23t-22 -55v-76z" />
</font>
</defs>
</svg>
