<svg width="24" height="24" viewBox="0 0 24 24" fill="none" xmlns="http://www.w3.org/2000/svg">
    <g clip-path="url(#clip0_9076_30199)">
        <path d="M22.3946 18C20.3198 21.5868 16.4417 24 12 24C7.55831 24 3.68024 21.5868 1.60539 18H22.3946Z" fill="#002B7F"/>
        <path d="M23.6219 15H0.378052C0.131259 14.0411 0 13.0359 0 12C0 5.37258 5.37258 0 12 0C18.6274 0 24 5.37258 24 12C24 13.0359 23.8687 14.0411 23.6219 15Z" fill="#002B7F"/>
        <path d="M1.60535 18C1.06824 17.0715 0.651978 16.0643 0.378052 15H23.6219C23.348 16.0643 22.9318 17.0715 22.3947 18H1.60535Z" fill="#F9E814"/>
        <path d="M10.0308 7L10.4615 8.54839H12L10.7692 9.45161L11.2615 11L10.0308 10.0968L8.73846 11L9.23077 9.45161L8 8.54839H9.53846L10.0308 7Z" fill="#F0F0F0"/>
        <path d="M6.52308 4L6.84615 5.16129H8L7.07692 5.83871L7.44615 7L6.52308 6.32258L5.55385 7L5.92308 5.83871L5 5.16129H6.15385L6.52308 4Z" fill="#F0F0F0"/>
    </g>
    <defs>
        <clipPath id="clip0_9076_30199">
            <rect width="24" height="24" fill="white"/>
        </clipPath>
    </defs>
</svg>
