<svg xmlns="http://www.w3.org/2000/svg" viewBox="0 0 512 512" width="512" height="512">
  <g fill="none" fill-rule="evenodd">
    <ellipse cx="256" cy="256.5" fill="#FFF" rx="256" ry="256.5"/>
    <path fill="#000" fill-rule="nonzero" d="M512.466 256.479c0 141.143-114.833 256-256 256-141.144 0-256-114.857-256-256 0-141.155 114.856-256 256-256 141.16 0 256 114.845 256 256zm-21.371 9.237c-.793 5.66-2.017 11.029-5.667 14.904.164-9.858-3.973-23.282-5.472-33.476-1.694-11.516-12.052-12.07-14.733-23.781-9.993-1.907-37.32-2.425-38.07-16.756-5.216-1.846-7.622-7.02-13.356-7.11-.89 12.082 8.841 27.796 21.204 21.465 3.035 2.62 14.033 8.269 14.46 12.692.444 5.04-9.713 11.48-13.686 14.666-7.513 6.045-24.726 19.102-34.225 18.694-2.797-12.29-12.187-22.045-16.171-34.42-4.266-13.277-10.03-19.468-18.621-29.893-7.025 10.176 2.522 21.814 6.453 31.77 4.009 10.17 8.835 24.957 17.006 32.08 4.283 3.747 9.316 6.74 13.819 10.98 22.258-10.931 22.672 8.299 12.424 24.543-4.016 6.374-7.678 7.403-14.386 11.017-8.622 4.624-8.464 6.83-13.155 15.007-7.733 13.484-8.695 17.067-5.972 33.013 3.157 18.352-7.628 14.58-17.018 26.56-6.099 7.78-7.708 25.932-16.738 40.123-10.967 8.39-36.309 21.107-45.796 19.358-15.55-2.858-24.933-46.68-25.055-63.308-.176-21.387 13.582-27.9-3.93-46.076-7.05-7.349-6.842-10.547-6.873-19.79-.06-11.803-1.913-12.053-13.13-15.179-22.454-6.24-42.22-4.32-64.582-2.358-13.77-12.692-28.918-31.252-26.535-50.963-6.892-12.936-1.042-26.846 9-35.864 9.73-8.725 14.342-21.6 24.902-28.741 11.388-7.727 22.642-8.257 35.352-11.498 11.602-2.937 27.584-15.22 38.24-3.589 5.46 5.965 3.565 11.37 11.438 16.061 6.05 3.595 15.16 3.041 15.354 12.254v.646c10.645-3.68 14.94-13.497 27.036-12.004 10.925 1.347 28.394 11.138 39.465 4.095 7.342-4.668 1.517-13.058 8.28-18.414-7.317-2.943-22.794-3.363-30.666-2.65-.073.822.408 2.047.426 2.955-4.283-4.747-3.528-16.464-8.366-20.059-11.583-8.579-8.085 6.124-10.395 9.908-8.152 13.35-16.78-16.628-23.208-22.368-5.478-4.923-13.015-10.87-20.54-11.047-.33 7.41 13.923 24.068 21.204 23.782-7.745 2.577-7.769 8.682-15.105 8.262 3.589-8.03-5.691-22.222-15.848-25.013-14.484-4.003-29.552 3.486-37.449 14.667-7.464 10.571-16.817 21.545-31.276 17.054-14.148-4.387-11.918-28.479.695-32.275 6.647-2.005 22.58 6.422 24.53-5.679 1.146-6.995-9.182-11.309-13.227-15.617 12.582-.048 23.5-5.934 33.944-12.484 3.163-1.968 12.315-6.41 14.325-8.835 4.058-4.966-.706-14.185 7.824-14.837.518 14.556 11.888 14.514 24.007 13.453 13.344-1.163 14.416-8.487 24.5-15.342 4.802-3.266 10.554-4.21 16.604-4.65l-.64.659c1.036-.902 1.963-1.426 2.535-2.474-7.92-2.973-29.759 1.913-27.041-11.193.268-1.292 13.99-8.013 5.124-12.125-3.68-1.7-12.198 7.324-18.553 6.525.377 7.83 1.383 36.096-14.149 29.802-5.483-2.224-5.307-9.865-11.967-11.943-5.355-1.67-16.092 4.412-18.535-3.424-2.742-8.817 27.041-22.74 33.512-27.352 10.377-7.41 27.292-9.847 39.74-6.58 8.31 2.175 15.61 7.275 23.94 9.65 7.141 2.048 12.497 2.286 17.652 8.458h-.64c-1.92 3.266-15.105 1.34-19.242-.56 8.768 11.607 20.247 5.58 32.586 4.807-35.633-21.826-77.517-34.42-122.29-34.42-29.247 0-57.287 5.386-83.147 15.214-.219.293-.45.591-.712.89-3.595 4.095-9.981 3.741-14.417 7.08-9.097 6.825-19.26 17.512-26.974 26.512-3.552 4.155-7.416 14.203-11.924 16.67-3.102 1.719-19.748 1.761-22.49-.14a7.427 7.427 0 0 1-1.828-1.76 236.197 236.197 0 0 0-32.056 37.509c3.796 5.55 7.22 11.302 7.031 16.817-.371 12.052-10.224 14.233-21.734 15.848 9.268 13.326-5.855 19.9-12.79 31.227-6.556 10.676-7.427 23.977-11.436 35.322a234.994 234.994 0 0 0-2.425 33.726c0 17.658 1.962 34.883 5.678 51.432 2.237 2.925 4.881 5.831 8.305 9.115 9.037 8.701 21.686 13.162 28.437 23.8 8.732 13.795 13.844 18.633 27.876 27.17 9.06 5.526 26.207 11.546 23.989 23.44-.902 4.856-5.46 8.975-6.757 13.923-1.25 4.722 1.9 14.459-.159 18.005-2.687 4.606-8.494 2.212-12.594 4.826 41.988 39.185 98.306 63.21 160.127 63.21 126.409 0 229.803-100.36 234.727-225.599zm-78.151-95.004c4.222 8.488 13.533 7.336 15.586-.323 1.712-6.398-3.747-13.57-5.307-18.846-1.785-6.02 1.292-16.957-7.58-16.659l3.242-1.291c-12.12.761-14.837 3.735-11.041 13.94 1.456 3.974 4.302 6.435 5.124 10.901.72 3.827-1.846 8.616-.024 12.278zm-36.754-46.125c-9.231 6.002-13.514.61-22.776 1.066-11.004.524-21.314 19.078-7.489 23.946 7.47 2.633 46.558 6.526 40.672-3.747l-.633.646c-3.029-3.522-5.052-5.124-6.24-9.079-1.48-4.887 6.118-8.75-3.534-12.832zm35.133 239.668c1.408 7.238 1.054 16.122-2.126 22.74-1.694 3.509-8.36 15.086-11.267 17.103-10.303 7.238-8.481-3.09-6.477-9.621 1.481-4.79 2.42-14.557 5.21-18.48 3.625-5.083 10.42-6.155 14.66-11.742zM235.804 96.869c1.34 9.238-18.37 11.669-25.22 13.417-.359-9.462 9.055-13.002 5.716-24.244-1.347-4.533-8.092-3.723-3.845-10.712 2.498-4.119 7.318-5.18 9.658-1.133.128.335.329.652.469.962a7.059 7.059 0 0 0-.47-.962 21.09 21.09 0 0 1-.67-1.895l1.158 2.912c1.426 2.992 3.473 5.606 4.954 8.604 1.018 2.126 8.104 12.052 8.25 13.051zm-29.296-8.981c.14 11.04-5.155 12.387-14.008 15.915-.426-6.708 2.638-16.183 9.64-16.677h-.701c.39-.024.786-.024 1.164-.018h.243l.518.018h-.298c1.17.074 2.285.305 3.442.762z"/>
  </g>
</svg>
