<svg width="326" height="32" viewBox="0 0 326 32" fill="none" xmlns="http://www.w3.org/2000/svg">
<path fill-rule="evenodd" clip-rule="evenodd" d="M30.6364 21.3338C95.2558 14.8258 88.5908 -2.45547 51.4609 0.293864C47.4284 0.592448 39.0157 1.33518 31.2667 2.58322C24.0007 3.75304 17.4023 5.14757 12.7277 6.59673C9.63821 7.55425 7.74282 8.54777 6.41334 9.92306C5.08386 11.2983 4.57316 11.8179 4.81432 11.7605C11.5684 10.1586 18.3485 8.95561 25.1976 7.82458C71.6628 0.150466 86.9064 9.04903 33.2516 16.8513C30.5365 17.1431 27.6178 17.5944 24.6952 17.7378C28.3136 14.6461 31.9276 11.5376 35.4856 8.42269C32.4297 8.80569 27.0815 9.37245 24.0143 9.82156C14.8553 17.4758 7.29319 24.4792 0 31.5012L5.18686 31.4894C6.88919 31.3948 8.75251 30.6368 9.95802 29.6591C12.9704 27.2164 16.1521 24.9153 19.0707 22.495C22.9105 22.0741 26.9369 21.7063 30.6364 21.3338ZM253.664 15.2838C254.502 16.0936 254.867 16.4988 255.494 17.646C255.621 17.8792 255.75 18.2267 255.836 18.5041C256.011 19.0656 255.775 19.8698 254.944 20.3042C253.008 21.3165 248.582 22.9046 243.949 24.3709L243.434 24.5333C240.079 25.5851 236.66 26.5599 234.038 27.1949C238.962 27.9228 250.502 27.2279 258.662 24.9944L266.877 15.5751L274.639 15.1177L270.938 19.2916C275.618 17.2913 290.667 12.6385 292.688 15.598C292.935 15.9602 293.292 16.8597 293.417 17.6394C293.538 18.3952 293.528 18.8713 293.499 19.3368C294.608 18.9228 295.856 18.5374 297.178 18.1617C305.731 15.731 316.211 15.0041 321.726 15.1378L315.674 22.0791C315.021 22.6632 315.105 23.8117 315.69 24.7138C316.438 25.8679 317.132 26.2477 319.42 25.3676C320.27 25.033 321.276 24.5857 323.125 23.7483C323.938 23.3695 324.756 23.5233 325.094 24.2222L325.818 25.5945C323.313 27.227 317.753 29.4928 314.184 30.7361C310.922 31.8406 309.376 30.5367 308.25 28.1071C308.023 27.597 307.786 27.0681 307.528 26.4906C307.302 26.5973 307.07 26.705 306.847 26.8054C302.957 28.5653 298.06 30.3528 293.942 31.167C277.841 34.3525 277.144 26.3682 288.762 21.055C287.516 21.356 286.188 21.6284 285.263 21.8384C282.708 22.419 281.872 22.0785 282.992 20.6529C283.04 20.5932 283.056 20.5732 283.139 20.4592C283.287 20.2458 283.264 20.1403 283.073 20.1425C280.445 20.517 274.711 21.345 266.214 24.6331L261.363 29.2721C260.185 30.2938 258.844 31.0276 257.143 31.1231L253.335 31.1218L255.287 28.9702C250.377 30.1001 242.909 30.9875 238.413 31.2539C235.72 31.4133 233.546 31.4587 232.17 31.46L231.965 31.4599C231.368 31.4586 230.944 31.4486 230.72 31.4369C230.45 31.4228 230.164 31.4278 229.913 31.4081C227.94 31.2791 225.039 30.9554 223.592 29.661C221.239 30.1752 218.002 30.7455 215.126 31.1566C212.405 31.5458 210.024 31.7138 207.564 31.6253C204.621 31.5201 203.456 31.2194 204.422 29.5995C205.984 26.9806 208.872 23.4668 211.207 20.9969C211.355 20.7828 211.333 20.678 211.142 20.6802C208.987 20.9868 204.614 22.2794 198.457 24.2916L193.93 29.2938C192.882 30.4514 191.711 30.99 190.01 31.0857L185.829 31.1262C187.704 28.0998 190.999 23.5976 192.805 21.4755C192.941 21.2549 192.912 21.1523 192.719 21.167C190.673 21.5838 185.296 23.0907 179.552 25.2778L175.396 29.3519C174.216 30.3735 172.875 31.1074 171.172 31.2028L167.717 31.1723L170.836 27.5779C168.26 28.79 165.545 29.812 163.637 30.4514C160.366 31.5487 158.82 30.2448 157.689 27.8321C157.466 27.3356 157.235 26.8092 156.985 26.2571C156.759 26.3638 156.526 26.4715 156.304 26.5719C154.944 27.1871 153.64 27.7188 152.306 28.232C140.148 32.8199 132.975 32.2662 130.935 29.7445C128.888 30.1513 126.768 30.5261 124.321 30.8767C121.6 31.2659 119.218 31.4332 116.759 31.3453C113.815 31.2398 112.652 30.9391 113.617 29.3192C115.179 26.7 118.003 23.2427 120.338 20.7728C120.518 20.5757 120.463 20.4539 120.272 20.4561C117.664 20.8274 112.041 21.8368 103.831 24.5631L99.1649 29.2976C97.9847 30.3189 96.6431 31.0527 94.9413 31.1485L91.4366 31.1312L93.9763 27.958C91.7505 28.9329 89.4056 29.839 87.6789 30.4413C84.3952 31.5487 82.8495 30.2448 81.6999 27.817C81.4575 27.3142 81.2273 26.7979 80.9865 26.2571C80.7599 26.3638 80.5277 26.4715 80.3055 26.5719C78.9456 27.1871 77.6412 27.7188 76.3069 28.232C70.619 30.3785 66.0223 31.3996 62.608 31.6196C53.1666 32.4661 50.7286 26.4062 60.4318 21.5804C62.7091 20.4473 66.2381 19.027 70.6365 17.7769C79.1888 15.3466 89.6692 14.6196 95.1836 14.7533L88.7961 22.0462C88.1237 22.6739 88.2076 23.8604 88.7924 24.7922C89.5403 25.9843 90.2337 26.3767 92.598 25.4373C94.2757 24.801 96.4183 23.9482 98.2277 23.1993L104.843 15.3707L112.449 14.9093L107.882 20.0895C111.546 18.8368 128.78 12.7254 130.201 15.8183C130.39 16.2279 130.576 16.6281 130.734 17.0242C130.89 17.4147 130.931 17.9881 130.501 18.5003C128.494 20.8873 125.964 23.6297 124.201 25.9972C123.292 27.2169 123.449 27.7662 125.48 27.6444C126.379 27.5907 127.889 27.398 130.44 26.9121C130.652 26.2492 131.086 25.6717 131.603 25.0672C133.804 22.4934 138.923 19.9686 146.635 17.7769C155.187 15.3466 165.668 14.6196 171.182 14.7533L164.804 22.0716C164.147 22.6805 164.232 23.8673 164.816 24.7988C165.564 25.9906 166.251 26.356 168.595 25.43C170.415 24.7452 172.823 23.7784 174.744 22.9762L180.95 15.5694L188.511 15.1654L183.937 20.3239C188.206 18.7445 199.781 13.3503 201.204 16.3023C201.39 16.6868 201.572 17.0713 201.74 17.5082C201.891 17.9015 201.942 18.4762 201.502 18.9878L200.988 19.5575C203.101 18.8519 205.879 17.9357 208.697 17.1106L209.21 16.9617C214.765 15.3605 220.328 14.1838 221.124 15.7376C221.342 16.1626 221.506 16.539 221.657 16.9439C221.804 17.3381 221.858 17.9118 221.42 18.4231C219.373 20.8974 216.679 23.7935 214.828 26.2775C213.92 27.4972 214.077 28.0465 216.108 27.9247C216.909 27.8766 219.148 27.5686 221.432 27.1582L221.766 27.0975L222.101 27.0353C222.156 27.0249 222.212 27.0144 222.267 27.0038C222.464 25.1651 224.479 22.9868 228.324 20.7869C231.557 18.9373 238.09 16.5016 243.516 15.0926C246.601 14.291 251.877 13.426 253.664 15.2838ZM313.241 18.9007C307.633 19.5046 302.302 20.8698 296.989 22.7037C288.546 25.7677 287.369 28.4128 295.911 26.5503C297.191 26.2438 298.805 25.8307 300.667 25.2612C306.03 23.5987 309.964 21.8179 313.241 18.9007ZM86.0726 18.507C80.464 19.1111 75.1335 20.476 69.8208 22.3098C61.3775 25.3744 60.2003 28.0191 68.7424 26.1563C70.022 25.8498 71.6361 25.437 73.4984 24.8673C78.8617 23.2048 82.7952 21.4241 86.0726 18.507ZM162.32 18.507C156.711 19.1111 151.381 20.476 146.068 22.3098C137.624 25.3744 136.447 28.0191 144.989 26.1563C146.269 25.8498 147.883 25.437 149.745 24.8673C155.109 23.2048 159.042 21.4241 162.32 18.507ZM245.255 18.9501C238.861 20.9445 232.786 23.4686 230.313 25.5947C234.735 24.4511 244.172 21.7024 249.046 19.9781C249.195 19.9253 249.206 19.7908 249.139 19.6318C249.049 19.4164 248.814 19.1692 248.259 18.7426C247.604 18.2392 246.201 18.6547 245.255 18.9501Z" fill="#fff"/>
</svg>
