<svg xmlns="http://www.w3.org/2000/svg" width="2000" height="500" viewBox="0 0 2000 500"><rect width="100%" height="100%" fill="#DDDDDD"/><path fill="#999999" d="M467.845 307.92h43.59q4.7 0 7.46 2.65 2.77 2.64 2.77 6.99v17.39h-116.57v-9.63q0-2.94 1.24-6.17 1.23-3.24 3.94-5.82l51.58-51.7q6.46-6.58 11.57-12.57 5.11-6 8.52-11.87 3.41-5.88 5.23-11.93 1.82-6.05 1.82-12.75 0-6.11-1.76-10.75t-5-7.81q-3.23-3.17-7.75-4.76-4.52-1.58-10.16-1.58-5.17 0-9.58 1.46-4.41 1.47-7.81 4.12-3.41 2.64-5.76 6.17-2.35 3.52-3.53 7.75-1.99 5.4-5.17 7.17-3.17 1.76-9.16.82l-15.28-2.7q1.77-12.22 6.82-21.45 5.05-9.22 12.63-15.39 7.58-6.17 17.39-9.28 9.81-3.11 21.09-3.11 11.75 0 21.5 3.46 9.76 3.47 16.69 9.81 6.93 6.35 10.81 15.28 3.88 8.93 3.88 19.85 0 9.4-2.77 17.4-2.76 7.98-7.4 15.27-4.64 7.28-10.87 14.1-6.22 6.81-13.04 13.86l-38.3 39.13q5.52-1.64 10.98-2.52 5.47-.89 10.4-.89ZM662.895 250q0 22.2-4.76 38.6-4.76 16.39-13.16 27.08-8.4 10.69-19.86 15.92-11.45 5.23-24.73 5.23-13.28 0-24.62-5.23-11.33-5.23-19.68-15.92-8.34-10.69-13.04-27.08-4.7-16.4-4.7-38.6 0-22.33 4.7-38.66t13.04-27.03q8.35-10.69 19.68-15.92 11.34-5.22 24.62-5.22 13.28 0 24.73 5.22 11.46 5.23 19.86 15.92 8.4 10.7 13.16 27.03 4.76 16.33 4.76 38.66Zm-29.96 0q0-18.45-2.7-30.55-2.71-12.11-7.23-19.27-4.52-7.17-10.4-10.05-5.87-2.88-12.22-2.88-6.23 0-12.04 2.88-5.82 2.88-10.28 10.05-4.47 7.16-7.11 19.27-2.65 12.1-2.65 30.55 0 18.44 2.65 30.55 2.64 12.1 7.11 19.27 4.46 7.16 10.28 10.04 5.81 2.88 12.04 2.88 6.35 0 12.22-2.88 5.88-2.88 10.4-10.04 4.52-7.17 7.23-19.27 2.7-12.11 2.7-30.55Zm166.26 0q0 22.2-4.76 38.6-4.76 16.39-13.16 27.08-8.4 10.69-19.86 15.92-11.45 5.23-24.73 5.23-13.28 0-24.62-5.23-11.33-5.23-19.68-15.92-8.34-10.69-13.04-27.08-4.7-16.4-4.7-38.6 0-22.33 4.7-38.66t13.04-27.03q8.35-10.69 19.68-15.92 11.34-5.22 24.62-5.22 13.28 0 24.73 5.22 11.46 5.23 19.86 15.92 8.4 10.7 13.16 27.03 4.76 16.33 4.76 38.66Zm-29.96 0q0-18.45-2.7-30.55-2.71-12.11-7.23-19.27-4.52-7.17-10.4-10.05-5.87-2.88-12.22-2.88-6.23 0-12.04 2.88-5.82 2.88-10.28 10.05-4.47 7.16-7.11 19.27-2.65 12.1-2.65 30.55 0 18.44 2.65 30.55 2.64 12.1 7.11 19.27 4.46 7.16 10.28 10.04 5.81 2.88 12.04 2.88 6.35 0 12.22-2.88 5.88-2.88 10.4-10.04 4.52-7.17 7.23-19.27 2.7-12.11 2.7-30.55Zm166.26 0q0 22.2-4.76 38.6-4.76 16.39-13.16 27.08-8.4 10.69-19.86 15.92-11.45 5.23-24.73 5.23-13.28 0-24.62-5.23-11.33-5.23-19.68-15.92-8.34-10.69-13.04-27.08-4.7-16.4-4.7-38.6 0-22.33 4.7-38.66t13.04-27.03q8.35-10.69 19.68-15.92 11.34-5.22 24.62-5.22 13.28 0 24.73 5.22 11.46 5.23 19.86 15.92 8.4 10.7 13.16 27.03 4.76 16.33 4.76 38.66Zm-29.96 0q0-18.45-2.7-30.55-2.71-12.11-7.23-19.27-4.52-7.17-10.4-10.05-5.87-2.88-12.22-2.88-6.23 0-12.04 2.88-5.82 2.88-10.28 10.05-4.47 7.16-7.11 19.27-2.65 12.1-2.65 30.55 0 18.44 2.65 30.55 2.64 12.1 7.11 19.27 4.46 7.16 10.28 10.04 5.81 2.88 12.04 2.88 6.35 0 12.22-2.88 5.88-2.88 10.4-10.04 4.52-7.17 7.23-19.27 2.7-12.11 2.7-30.55Zm216.55 46.06-15.39 15.15-39.83-39.83-40.19 40.07-15.39-15.16 40.18-40.3-38.3-38.31 15.27-15.27 38.31 38.31 38.07-38.08 15.51 15.28-38.19 38.19 39.95 39.95Zm123.49-104.7-5.99 35.37q5.64-1.17 10.81-1.7 5.17-.53 9.99-.53 13.39 0 23.62 3.99 10.22 4 17.15 11.05 6.93 7.05 10.46 16.51 3.52 9.46 3.52 20.38 0 13.52-4.76 24.68-4.75 11.16-13.21 19.09t-20.04 12.28q-11.57 4.35-25.2 4.35-7.99 0-15.16-1.64-7.17-1.65-13.45-4.41-6.29-2.76-11.64-6.35-5.34-3.58-9.57-7.58l8.93-12.33q2.82-4 7.4-4 2.94 0 5.99 1.88 3.06 1.88 6.99 4.11 3.94 2.24 9.29 4.12 5.34 1.88 12.86 1.88 7.99 0 14.1-2.59 6.11-2.58 10.17-7.22 4.05-4.65 6.11-11.05 2.05-6.4 2.05-13.92 0-13.87-8.05-21.68-8.04-7.82-23.79-7.82-12.1 0-24.79 4.47l-18.1-5.17 14.1-82.49h83.9v12.34q0 6.23-3.88 10.11-3.88 3.87-13.16 3.87h-46.65Zm213.03 58.64q0 22.2-4.76 38.6-4.76 16.39-13.16 27.08-8.4 10.69-19.86 15.92-11.45 5.23-24.73 5.23-13.28 0-24.62-5.23-11.33-5.23-19.68-15.92-8.34-10.69-13.04-27.08-4.7-16.4-4.7-38.6 0-22.33 4.7-38.66t13.04-27.03q8.35-10.69 19.68-15.92 11.34-5.22 24.62-5.22 13.28 0 24.73 5.22 11.46 5.23 19.86 15.92 8.4 10.7 13.16 27.03 4.76 16.33 4.76 38.66Zm-29.96 0q0-18.45-2.7-30.55-2.71-12.11-7.23-19.27-4.52-7.17-10.4-10.05-5.87-2.88-12.22-2.88-6.23 0-12.04 2.88-5.82 2.88-10.28 10.05-4.47 7.16-7.11 19.27-2.65 12.1-2.65 30.55 0 18.44 2.65 30.55 2.64 12.1 7.11 19.27 4.46 7.16 10.28 10.04 5.81 2.88 12.04 2.88 6.35 0 12.22-2.88 5.88-2.88 10.4-10.04 4.52-7.17 7.23-19.27 2.7-12.11 2.7-30.55Zm166.26 0q0 22.2-4.76 38.6-4.76 16.39-13.16 27.08-8.4 10.69-19.86 15.92-11.45 5.23-24.73 5.23-13.28 0-24.62-5.23-11.33-5.23-19.68-15.92-8.34-10.69-13.04-27.08-4.7-16.4-4.7-38.6 0-22.33 4.7-38.66t13.04-27.03q8.35-10.69 19.68-15.92 11.34-5.22 24.62-5.22 13.28 0 24.73 5.22 11.46 5.23 19.86 15.92 8.4 10.7 13.16 27.03 4.76 16.33 4.76 38.66Zm-29.96 0q0-18.45-2.7-30.55-2.71-12.11-7.23-19.27-4.52-7.17-10.4-10.05-5.87-2.88-12.22-2.88-6.23 0-12.04 2.88-5.82 2.88-10.28 10.05-4.47 7.16-7.11 19.27-2.65 12.1-2.65 30.55 0 18.44 2.65 30.55 2.64 12.1 7.11 19.27 4.46 7.16 10.28 10.04 5.81 2.88 12.04 2.88 6.35 0 12.22-2.88 5.88-2.88 10.4-10.04 4.52-7.17 7.23-19.27 2.7-12.11 2.7-30.55Z"/></svg>