<svg xmlns="http://www.w3.org/2000/svg" width="24" height="24">
<path  d="M6.5 3v1h4.065l.145-.249A1.49 1.49 0 0 1 12 3c.537 0 1.02.288 1.29.751l.145.249H17.5V3a.5.5 0 0 1 .5-.5h1a.5.5 0 0 1 .5.5v3a.5.5 0 0 1-.5.5h-1a.5.5 0 0 1-.5-.5V5h-4.065l-.145.249c-.13.225-.316.41-.541.541l-.249.145v11.103l.3.131c.46.202.83.571 1.031 1.032l.131.299H18.5V17a.5.5 0 0 1 .5-.5h1a.5.5 0 0 1 .5.5v4a.5.5 0 0 1-.5.5h-1a.5.5 0 0 1-.5-.5v-1.5h-4.538l-.131.3a1.998 1.998 0 0 1-3.662 0l-.131-.3H5.5V21a.5.5 0 0 1-.5.5H4a.5.5 0 0 1-.5-.5v-4a.5.5 0 0 1 .5-.5h1a.5.5 0 0 1 .5.5v1.5h4.538l.131-.3c.202-.46.571-.83 1.032-1.031l.299-.131V5.935l-.249-.145a1.494 1.494 0 0 1-.541-.541L10.565 5H6.5v1a.5.5 0 0 1-.5.5H5a.5.5 0 0 1-.5-.5V3a.5.5 0 0 1 .5-.5h1a.5.5 0 0 1 .5.5Z"/>
</svg>