<svg height="24" width="24" xmlns="http://www.w3.org/2000/svg"><path d="m15.964 19.499.036.001h.05l2.95-.001v1.001h-14.5v-1.001zm-1.964-8.999c.6 0 1 .4 1 .8s-.2 1-.2 1.6c0 .353.069.634.126.807.025-.002.049-.007.074-.007.071 0 .139.012.205.03.036-.738.323-2.43 1.795-2.43 1.6 0 2 1.6 2 2.2s-.4 1-.8 1-1-.2-1.6-.2c-.353 0-.634.069-.807.126.002.025.007.049.007.074a.785.785 0 0 1 -.03.205c.738.036 2.43.323 2.43 1.795 0 1.6-1.6 2-2.2 2s-1-.4-1-.8.2-1 .2-1.6c0-.353-.069-.634-.126-.807-.025.002-.049.007-.074.007a.785.785 0 0 1 -.205-.03c-.036.738-.323 2.43-1.795 2.43-1.6 0-2-1.6-2-2.2s.4-1 .8-1 1 .2 1.6.2c.353 0 .634-.069.807-.126-.002-.025-.007-.049-.007-.074 0-.071.012-.139.03-.205-.738-.036-2.43-.323-2.43-1.795 0-1.6 1.6-2 2.2-2zm-7.75-7.5 2.25 2.5h-1.689c.332 2.236 1.46 3.368 1.46 5.95 0 2.485-1.39 4.406-1.494 6.328l-.006.221h-1c0-2.249 1.5-4.272 1.5-6.55 0-2.186-1.19-3.71-1.449-5.698l-.027-.251h-1.795zm11 0 2.25 2.5h-1.689c.32 2.159 1.383 3.289 1.456 5.687l.003.205-.072-.09a2.741 2.741 0 0 0 -.996-.76c-.252-1.706-1.135-3.055-1.37-4.725l-.037-.317h-1.795zm-5.5 0 2.25 2.5h-1.689c.237 1.6.883 2.635 1.231 4.04-.293.049-.638.141-.981.295-.351-1.402-1.04-2.608-1.236-4.06l-.03-.275h-1.795z"/></svg>