<svg xmlns="http://www.w3.org/2000/svg" width="24" height="24">
<path d="M18.05 16.262a.53.53 0 0 0-.4.184 7.024 7.024 0 0 1-2.107 1.697c-.403.213-.829.391-1.27.524-.442.137-.902.23-1.367.278-.472.048-.96.047-1.444.002a7.139 7.139 0 0 1-1.41-.28 6.96 6.96 0 0 1-1.288-.532c-.4-.212-.782-.47-1.14-.756a7.226 7.226 0 0 1-.964-.95 7.17 7.17 0 0 1-.766-1.116 7.11 7.11 0 0 1-.534-1.243 6.967 6.967 0 0 1-.283-1.343A6.898 6.898 0 0 1 5.9 8.67a7.054 7.054 0 0 1 1.746-2.062 7.014 7.014 0 0 1 1.137-.749 7.135 7.135 0 0 1 2.636-.801 7.205 7.205 0 0 1 4.14.808 7.097 7.097 0 0 1 2.107 1.71.528.528 0 0 0 .732.069.503.503 0 0 0 .073-.717 8.2 8.2 0 0 0-3.889-2.568 8.333 8.333 0 0 0-3.271-.317 8.287 8.287 0 0 0-4.326 1.778 8.133 8.133 0 0 0-1.997 2.363 7.757 7.757 0 0 0-.948 3.032 7.836 7.836 0 0 0 .326 3.158 8.007 8.007 0 0 0 2.595 3.79c.407.33.848.623 1.307.868.47.25.968.46 1.475.61a8.115 8.115 0 0 0 2.428.358c.28 0 .566-.014.843-.041a8.282 8.282 0 0 0 4.326-1.777 8.293 8.293 0 0 0 1.111-1.082.5.5 0 0 0-.07-.718.514.514 0 0 0-.332-.12Zm-7.43-7.714a.356.356 0 0 0-.345 0 .338.338 0 0 0-.173.292v6.204c0 .12.067.233.173.292a.34.34 0 0 0 .345 0l5.483-3.103a.333.333 0 0 0 0-.583L10.62 8.548Z"/>
</svg>