<svg id="Default" xmlns="http://www.w3.org/2000/svg" viewBox="0 0 24 24"><path d="M21.79,12c-1.12-1.72-4.22-2-5.63-2.05A7.72,7.72,0,0,0,12.89,8.2L9.5,6H8l3.06,2h-.22a28.29,28.29,0,0,0-3.44.27l-.58.06a12.86,12.86,0,0,0-4.17,2c-.6.64-.92,3.64-.33,4.53A3.21,3.21,0,0,0,4.65,16,2.33,2.33,0,0,0,6.57,17,2.27,2.27,0,0,0,8.4,16h7.39a2.12,2.12,0,0,0,3.61,0c2.18-.09,2.49-1.41,2.54-1.82C22.11,12.51,21.89,12.15,21.79,12Zm-.85,2.09c0,.26-.22.9-1.7.92l-.4,0a1.53,1.53,0,0,1-1.24,1,1.52,1.52,0,0,1-1.24-1H7.82a1.5,1.5,0,0,1-1.25,1,1.38,1.38,0,0,1-1.28-1l-.44,0s-1.34-.09-1.7-.63A6,6,0,0,1,3.38,11,13.34,13.34,0,0,1,6.89,9.33a38.6,38.6,0,0,1,4-.33,9,9,0,0,1,1.6.12,6.69,6.69,0,0,1,3.32,1.82h0c.25,0,4.15,0,5.17,1.58A5.43,5.43,0,0,1,20.94,14.08Z"/></svg>