<svg id="Default" xmlns="http://www.w3.org/2000/svg" viewBox="0 0 24 24"><path d="M19.43,7.5A6.33,6.33,0,0,0,17,7a6.82,6.82,0,0,0-1.2.11L12.5,5H11l3.57,2.34H8.69A7.61,7.61,0,0,0,6.54,7,4.1,4.1,0,0,0,3.16,8.51,5.36,5.36,0,0,0,2,12a5.37,5.37,0,0,0,1.18,3.51A4.07,4.07,0,0,0,6.54,17a7.61,7.61,0,0,0,2.15-.34h5.9L11,19h1.5l3.29-2.14A6.8,6.8,0,0,0,17,17a6.33,6.33,0,0,0,2.45-.48c2-.84,2.57-3.31,2.57-4.5S21.46,8.34,19.43,7.5Zm-.38,8.07a5.52,5.52,0,0,1-3.94.09H8.52a6.32,6.32,0,0,1-2,.34A3.12,3.12,0,0,1,4,14.88,4.42,4.42,0,0,1,3,12,4.42,4.42,0,0,1,4,9.12,3.12,3.12,0,0,1,6.54,8a6.32,6.32,0,0,1,2,.34h6.59a5.52,5.52,0,0,1,3.94.09C20.81,9.15,21,11.58,21,12S20.81,14.85,19.05,15.57Z"/><path d="M5,12a5,5,0,0,0,.43,2.25L8,15V9l-2.55.75A5,5,0,0,0,5,12Zm1.18-1.43.8-.23v3.32l-.8-.23A5.48,5.48,0,0,1,6,12,5.41,5.41,0,0,1,6.18,10.57Z"/><path d="M11,9.5a12.75,12.75,0,0,1,.42,2.5A12.75,12.75,0,0,1,11,14.5l4,.5a4.2,4.2,0,0,0,1-3,4.2,4.2,0,0,0-1-3Zm3.55,4.44-2.33-.3a9.41,9.41,0,0,0,.2-1.64,9.41,9.41,0,0,0-.2-1.64l2.33-.3A3.94,3.94,0,0,1,15,12,3.9,3.9,0,0,1,14.55,13.94Z"/></svg>