<svg id="Default" xmlns="http://www.w3.org/2000/svg" viewBox="0 0 24 24"><path d="M21.88,13.42a1.88,1.88,0,0,0-1.18-1.08,2.48,2.48,0,0,1-.65-.37A2.81,2.81,0,0,0,18,11l-2.61-.23a18,18,0,0,0-2.37-1.67A2,2,0,0,0,12.24,9h0c-.29,0-.66,0-1.05.07l1.63,1.06h0c.61.36,2.22,1.64,2.22,1.64L18,12h0a1.73,1.73,0,0,1,1.32.62c.71.67,1.46.61,1.63,1.1a1,1,0,0,1-.2,1,12.93,12.93,0,0,1-2.46.17A1.26,1.26,0,0,1,17,16,1.29,1.29,0,0,1,15.78,15H9.46A1.76,1.76,0,0,1,8,16,1.51,1.51,0,0,1,6.72,15s-.44,0-1,0a3.1,3.1,0,0,1-1.46-.2c-.55-.45-.28-2.2.15-2.52a17.24,17.24,0,0,1,2.34-1s1.67-.61,2.41-.81L8.12,9.7c-.77.25-1.62.56-1.67.58a15,15,0,0,0-2.6,1.18A3.24,3.24,0,0,0,3,13.7a2.25,2.25,0,0,0,.65,1.83c.37.33.93.44,2.12.44h.36A2.28,2.28,0,0,0,8,17,2.52,2.52,0,0,0,10,16h5.12a2.26,2.26,0,0,0,3.82,0c2,0,2.25-.23,2.46-.42A2,2,0,0,0,21.88,13.42Z"/></svg>