<svg height="24" width="24" xmlns="http://www.w3.org/2000/svg"><path d="m12.046 7 .937.007.223.001c.52.004 1.029.008 1.115.01h.031c.17.004 1.479.04 2.327.24 0 0 .504.103.837.541 0 0 .324.356.704 1.04l.057.104.947 1.87.33.055.125-.37s-.052-.352-.027-.579c0 0 .022-.206.332-.2 0 0 .453.007.84.117 0 0 .512.117.474.463 0 0-.017.433-.597.553 0 0-.226.052-.511.08l-.073.005-.003.028c.182.039.37.088.493.148 0 0 .779.415 1.099 1.405 0 0 .135.545.148.842.027.637.13 1.401.078 2.498l-.011.21v.043c-.002.146-.022.72-.192 2.607 0 0-.063.75-.24 1.009 0 0-.14.23-.438.273l-.077.006-2.168-.003s-.49 0-.527-.837l-.002-.1-6.306-.016-6.302.015c0 .902-.49.936-.527.937h-.002l-2.168.004a.648.648 0 0 1 -.515-.28c-.177-.259-.24-1.009-.24-1.009-.17-1.888-.19-2.46-.192-2.607v-.043c-.075-1.21.038-2.031.067-2.707.013-.297.148-.842.148-.842.32-.99 1.1-1.406 1.1-1.406a2.01 2.01 0 0 1 .383-.123l.109-.025-.003-.027c-.318-.024-.584-.085-.584-.085-.58-.12-.597-.553-.597-.553-.038-.347.474-.464.474-.464.387-.109.84-.117.84-.117.31-.005.332.201.332.201.025.226-.027.579-.027.579l.12.357.005.013.225-.055 1.012-1.87c.404-.752.756-1.144.756-1.144.333-.438.885-.542.885-.542.848-.2 2.157-.236 2.327-.24h.019c.05-.002 1.92-.015 2.294-.017zm-.07 4.585c-5.067.016-6.02.123-6.057.127h-.001l-1.143.092-1.03.237a1.61 1.61 0 0 0 -.543.753 4.735 4.735 0 0 0 -.11.609c-.008.181-.022.372-.036.577-.04.558-.085 1.19-.033 2.024l.077 1.096.013.192a204.692 204.692 0 0 0 .055.745v.008l17.615.011.14-2.05c.052-.833.007-1.464-.032-2.021a20.855 20.855 0 0 1 -.036-.58 4.713 4.713 0 0 0 -.11-.61 1.601 1.601 0 0 0 -.594-.789c-.031-.01-.94-.178-1.04-.197l-.01-.002-1.17-.092c-.034-.005-.882-.113-5.954-.129zm-.003 4.462 5.952.01c.437.055.711.179.711.179.347.145.57.277.624.31l.013.008c.174.119.198.338.2.426v.039l.002.582h-4.673l-.594-.467h-4.466l-.594.466h-4.673l.001-.582s-.022-.314.2-.465c0 0 .237-.15.637-.318 0 0 .274-.123.71-.179zm-7.567-3.456c.925.024 1.39.152 1.492.184l.019.006h.002c.355.098.552.335.552.335.23.242.38.465.38.465.153.208.436.755.436.755a93.635 93.635 0 0 0 -.444-.042l-.163-.015-.46-.043s-1.293-.157-1.728-.198c-.346-.034-.32.176-.32.176 0 .07.018.302.018.302l.05.7c.052.58.079.929.079.929 0 .257-.388.446-.388.446l-.054-.308a10.56 10.56 0 0 1 -.21-1.916v-.114c.003-.156.01-.238.01-.238.044-.676.163-.981.163-.981.161-.444.566-.443.566-.443zm15.808.443s.12.305.163.981c0 0 .076.851-.2 2.268l-.054.308s-.388-.189-.388-.446c0 0 .027-.35.078-.93l.05-.699s.02-.232.02-.302c0 0 .025-.21-.32-.176-.436.041-1.73.198-1.73.198s-.87.08-1.066.1c0 0 .283-.548.435-.755 0 0 .15-.223.38-.465 0 0 .198-.237.553-.334 0 0 .456-.164 1.513-.191 0 0 .404-.001.566.443zm-8.244-5.285-2.292.025h-.085c-.322.004-1.476.029-2.009.231l-.083.036-.014.006-.04.02c-.094.05-.297.174-.487.41 0 0-.163.208-.315.467 0 0-.27.503-.552 1.068l-.089.18c-.088.181-.176.364-.253.534 0 0 .73-.124 6.223-.14 5.42.017 6.095.137 6.112.14l-.04-.086c-.35-.754-.869-1.696-.869-1.696-.152-.259-.315-.468-.315-.468a1.6 1.6 0 0 0 -.487-.409l-.04-.02-.014-.006c-.482-.234-1.647-.263-1.97-.266h-.084z"/></svg>