<svg id="Default" xmlns="http://www.w3.org/2000/svg" viewBox="0 0 24 24"><path d="M19.34,9.22l.32-.31.82.16h.09a.43.43,0,0,0,.08-.86L19.59,8a.41.41,0,0,0-.42.16h0l-.8.8.05,0-.21,0H18c-.22-1.83-1.63-3-3.75-3H9.8C7.68,6,6.27,7.17,6.05,9H5.79L5.58,9l0,0-.8-.8h0A.41.41,0,0,0,4.41,8l-1.06.21a.43.43,0,0,0,.08.86h.09l.82-.16.32.31C3.56,9.7,3,11,3,13v3.23a.78.78,0,0,0,.78.77H5.61C6.15,17,7,17,7,16H17c0,1,.85,1,1.39,1h1.83a.78.78,0,0,0,.78-.77V13C21,11,20.44,9.7,19.34,9.22ZM9.8,7h4.4c1.56,0,2.55.74,2.76,2H7C7.25,7.74,8.24,7,9.8,7ZM20,16H18.39A2.87,2.87,0,0,1,18,16V15.5a.5.5,0,0,0-.5-.5H16a1,1,0,0,0-1-1H9a1,1,0,0,0-1,1H6.5a.5.5,0,0,0-.5.5V16a2.87,2.87,0,0,1-.39,0H4V13c0-2.64.91-3,1.79-3H18.21c.88,0,1.79.36,1.79,3Z"/><path d="M18.56,11H17.43A1.43,1.43,0,0,0,16,12.43a.07.07,0,0,0,.07.07H18.8a.2.2,0,0,0,.2-.2v-.64C19,11.1,18.92,11,18.56,11Z"/><path d="M6.57,11H5.44c-.36,0-.43.1-.43.66v.64a.2.2,0,0,0,.2.2H7.93A.07.07,0,0,0,8,12.43,1.43,1.43,0,0,0,6.57,11Z"/></svg>