<svg xmlns="http://www.w3.org/2000/svg" width="24" height="24">
<path d="M16.5 19.499V20.5H2v-1.001h14.5ZM3.75 3 6 5.5H4.311c.332 2.236 1.46 3.368 1.46 5.95 0 2.58-1.5 4.553-1.5 6.55h-1c0-2.25 1.5-4.273 1.5-6.55 0-2.278-1.292-3.837-1.476-5.95H1.5L3.75 3Zm5.5 0 2.25 2.5H9.811c.332 2.236 1.46 3.368 1.46 5.95 0 2.58-1.5 4.553-1.5 6.55h-1c0-2.25 1.5-4.273 1.5-6.55 0-2.278-1.292-3.837-1.476-5.95H7L9.25 3ZM16 2.5v1.984l1.205-.696.5.866-1.205.696 2.5 1.4V5.5h1v1.25l1.962-1.058.5.866-1.935 1.117 1.205.696-.5.866-1.205-.696v2.918l1.205-.696.5.867-1.205.695 1.935 1.117-.5.866-1.935-1.117L20 14.5h-1l.027-1.309L16.5 14.65l1.205.695-.5.867L16 15.516V17.5h-1v-1.984l-1.205.696-.5-.867 1.205-.695-1.85-1.023.35-.998 2.5 1.444 3.527-2.037V7.965L15.5 5.927 13 7.372l-.35-.977L14.5 5.35l-1.205-.696.5-.866L15 4.484V2.5h1Z"/>
</svg>