<svg id="Default" xmlns="http://www.w3.org/2000/svg" viewBox="0 0 24 24"><polygon points="17.11 5.01 16.39 5.72 19.85 9.4 20.57 8.69 17.11 5.01"/><path d="M14.81,11.42,16.25,13l2.88-2.84L15.67,6.43,12.78,9.26l1.34,1.42-2.15,2-2.14-2,1.33-1.42L8.28,6.43,4.81,10.11,7.7,13l1.43-1.53,2.09,1.89L8.1,16.13a1.5,1.5,0,1,0,.46,2.43,1.48,1.48,0,0,0,.27-1.72L12,14l3.15,2.85a1.49,1.49,0,0,0,2.39,1.72,1.5,1.5,0,0,0-1.67-2.43l-3.11-2.82Zm.83-3.56,2.09,2.22-1.46,1.44L14.18,9.29Zm-8,3.66L6.21,10.08l2.1-2.22L9.76,9.29Z"/><polygon points="6.84 5.01 3.37 8.69 4.09 9.4 7.56 5.72 6.84 5.01"/></svg>