<svg height="24" width="24" xmlns="http://www.w3.org/2000/svg"><path d="m17.11 5.01-.72.71 3.46 3.68.72-.71zm-2.3 6.41 1.44 1.58 2.88-2.84-3.46-3.73-2.89 2.83 1.34 1.42-2.15 2-2.14-2 1.33-1.42-2.88-2.83-3.47 3.68 2.89 2.89 1.43-1.53 2.09 1.89-3.12 2.77a1.5 1.5 0 1 0 .875 1.614 1.48 1.48 0 0 0 -.145-.904l3.17-2.84 3.15 2.85a1.49 1.49 0 0 0 2.39 1.72 1.5 1.5 0 0 0 -1.67-2.43l-3.11-2.82zm.83-3.56 2.09 2.22-1.46 1.44-2.09-2.23zm-8 3.66-1.43-1.44 2.1-2.22 1.45 1.43zm-.8-6.51-3.47 3.68.72.71 3.47-3.68z"/></svg>