<svg xmlns="http://www.w3.org/2000/svg" width="24" height="24">
<path d="M6 3v1.825c0 .237-.128.425-.275.605l-.167.2C3.966 7.57 3 9.4 3 12c0 2.956 1.805 5.535 4.488 6.92l.158.08h8.707C19.123 17.636 21 15.014 21 12c0-2.442-1.014-4.274-2.304-6.031l-.417-.542c-.127-.158-.245-.319-.273-.515L18 4.825V3h1v1.468c0 .259.105.504.283.692A9.941 9.941 0 0 1 22 12c0 2.649-1.535 5.05-3.218 6.837-.157.169-.258.38-.278.607l-.003.898c-.006.363-.062.627-.432.655L18 21h-1v-1h-1v1h-2v-1h-1v1h-2v-1h-1v1H8v-1H7v1H6c-.408 0-.486-.244-.5-.595L5.5 20.21l.001-.68a1.01 1.01 0 0 0-.282-.692C3.535 17.05 2 14.648 2 12a9.941 9.941 0 0 1 2.717-6.84c.158-.167.259-.38.28-.606L5 3h1Z"/>
<path d="M13 15v2h-2v-2h2ZM13 5l-.4 8h-1.2L11 5h2Z"/>
</svg>