<svg xmlns="http://www.w3.org/2000/svg" width="24" height="24">
<path d="M22 4c.526 0 .959.409.997.925L23 5v15h-1V5H2v15H1V5c0-.526.409-.959.925-.997L2 4h20ZM11.998 8.201h.223c2.282.015 3.592.24 3.717.262l.01.002a1.27 1.27 0 0 1 1.025.647l.042.082.039.091.982 2.614v-.996l.005-.037a.155.155 0 0 1 .154-.122c.566 0 .91.13 1.1.207.184.074.33.252.33.428 0 .317-.23.432-.318.476a1.95 1.95 0 0 1-.477.146l-.076.01-.082.003h-.318v.246l.073.076c.174.174.377.31.443.471.062.153.104.59.116.926l.003.09V18.37l-.004.073a.636.636 0 0 1-.417.525l-.062.019-.07.013h-1.514a.638.638 0 0 1-.539-.491l-.01-.066-.005-.073v-1.112H7.632v1.112c0 .3-.21.553-.493.619L7.078 19H5.565a.638.638 0 0 1-.54-.491l-.01-.066-.005-.073v-4.45c0-.336.045-.93.12-1.113.058-.14.22-.263.377-.407l.066-.064.073-.076v-.246h-.318c-.24 0-.548-.115-.635-.159-.089-.044-.318-.159-.318-.476 0-.176.146-.354.33-.428.19-.076.534-.207 1.1-.207.065 0 .118.036.143.088l.012.034.004.037v.996l.982-2.614a1.27 1.27 0 0 1 1.013-.81l.093-.01.01-.002c.121-.022 1.363-.235 3.53-.26l.187-.001H12Zm-.003 4.053h-1.03c-1.34.002-2.487.011-3.242.057l-.129.009-.127.01c-1.222.103-1.618.268-1.785.406l-.018.016-.019.018v.3c.14.027.323.045.551.052l.118.003.146.002 4.906-.001h6.32c.189-.004.35-.013.486-.028l.096-.013.087-.014v-.301l-.019-.018c-.143-.129-.473-.288-1.51-.395l-.132-.013-.161-.014-.127-.01c-.662-.047-1.675-.061-2.88-.065h-.491l-1.04-.002Zm-.007-3.417c-1.708 0-2.974.093-3.593.178-.442.061-.615.348-.79.759-.264.569-.395.955-.395 1.162 0 .26.117.395.29.432l.048.008.056.003h8.792l.056-.003c.198-.022.338-.157.338-.44 0-.207-.131-.593-.394-1.162-.176-.41-.35-.698-.792-.759-.567-.078-1.678-.163-3.174-.176l-.198-.002h-.244ZM21 6v1H3V6h18Z"/>
</svg>