<svg id="Default" xmlns="http://www.w3.org/2000/svg" viewBox="0 0 24 24"><path d="M20,4H3V20H4V9H20V20h1V4Zm0,4H4V5H20Z"/><path d="M18.63,13.68h.07a.36.36,0,0,0,.3-.33.38.38,0,0,0-.37-.34h-.84a.35.35,0,0,0-.3.19h0l-.27.41-.27,0A3.15,3.15,0,0,0,13.71,11H10.29a3.15,3.15,0,0,0-3.24,2.55l-.27,0-.27-.41h0a.35.35,0,0,0-.3-.19H5.37a.38.38,0,0,0-.37.34.36.36,0,0,0,.3.33H6l.09.13C5,14.44,5,16.05,5,16.76v2.51a.73.73,0,0,0,.72.73H7c.39,0,1.19,0,1.19-.95L15.78,19v.05c0,.95.8.95,1.19.95h1.28a.76.76,0,0,0,.75-.73V16.76c0-.71,0-2.32-1.12-3l.09-.13ZM10.29,12h3.42a2.15,2.15,0,0,1,2.21,1.53H8.08A2.15,2.15,0,0,1,10.29,12ZM18,16.76V19H16.78v-.5a.5.5,0,0,0-.5-.5H14.83a.5.5,0,0,0-.5-.5H9.67a.5.5,0,0,0-.5.5H7.72a.5.5,0,0,0-.5.5V19H6V16.76c0-1.86.43-2.23,1.17-2.23h9.66C17.57,14.53,18,14.9,18,16.76Z"/><path d="M17.1,15.2h-.88a1.12,1.12,0,0,0-1.11,1.12.05.05,0,0,0,.05.05h2.13a.15.15,0,0,0,.15-.16v-.5C17.44,15.28,17.38,15.2,17.1,15.2Z"/><path d="M7.78,15.2H6.9c-.28,0-.34.08-.34.51v.5a.15.15,0,0,0,.15.16H8.84a.05.05,0,0,0,.05-.05A1.12,1.12,0,0,0,7.78,15.2Z"/></svg>