<svg id="Default" xmlns="http://www.w3.org/2000/svg" xmlns:xlink="http://www.w3.org/1999/xlink" viewBox="0 0 24 24"><defs><style>.cls-1{fill:none;clip-rule:evenodd;}.cls-2{clip-path:url(#clip-path);}</style><clipPath id="clip-path"><path id="SVGID" class="cls-1" d="M19,9a1.33,1.33,0,0,0,1,1l-1,4H17A6.74,6.74,0,0,0,19,9ZM13.21,6c1.76,0,3.35.32,4.11,1.28,2.13,2.67-1.12,6.79-3,7.51a4.61,4.61,0,0,1-1.62.21,20.48,20.48,0,0,1-2.07-.13,6.72,6.72,0,0,1,.25-1,17.41,17.41,0,0,0,1.82.11A3.61,3.61,0,0,0,14,13.9a6.27,6.27,0,0,0,2.92-3.69,2.45,2.45,0,0,0-.36-2.27C16.08,7.35,14.89,7,13.21,7a25,25,0,0,0-7,1.19A3.68,3.68,0,0,0,4,11.11c0,1.2,1.71,1.91,2.05,2l.31,0a8.16,8.16,0,0,0-.49.93H5.82S3,13.21,3,11.08a4.57,4.57,0,0,1,2.8-3.77A25.48,25.48,0,0,1,13.21,6ZM12,11c-3.16,2.46-3,4.79-3,5h2L8,19,5,16H7A5,5,0,0,1,12,11Z"/></clipPath></defs><g class="cls-2"><rect x="-1.98" y="1.03" width="27" height="23"/></g></svg>