<svg id="Default" xmlns="http://www.w3.org/2000/svg" viewBox="0 0 24 24"><path d="M12,3a9,9,0,1,0,9,9A9,9,0,0,0,12,3Zm0,1a7.92,7.92,0,0,1,5.28,2L13,10.29a12.52,12.52,0,0,1-3.6.61c-1.1,0-3.6-2.78-4.07-3.31A8,8,0,0,1,12,4ZM4,12c0-.11,0-.21,0-.32a34.55,34.55,0,0,1,4.69,2.25l.37.28L6,17.28A7.92,7.92,0,0,1,4,12Zm8,8a7.92,7.92,0,0,1-5.28-2L10,14.74A2.53,2.53,0,0,0,11,15a8,8,0,0,1,2,.42s1.44,1,1.74.38-.43-.89-.43-.89-2.65-1.48-1-2.43,4.37.14,4.7.33,1.05.35,1-.06A5.76,5.76,0,0,0,14.72,10L18,6.72A7.92,7.92,0,0,1,20,12,8,8,0,0,1,12,20Z"/></svg>