<svg id="Default" xmlns="http://www.w3.org/2000/svg" viewBox="0 0 24 24"><path d="M11.89,3a9,9,0,1,0,9,9A9,9,0,0,0,11.89,3Zm0,17a8,8,0,1,1,8-8A8,8,0,0,1,11.89,20Z"/><path d="M16.37,8.35l-1.81,1.82a.35.35,0,0,1-.22.11c-.13,0-.24-.12-.37-.25s-.29-.35-.09-.55l1.81-1.8a2.5,2.5,0,0,0-.53-.38h0A2.14,2.14,0,0,0,14.11,7a2.64,2.64,0,0,0-1.82.89c-.81.81-1.31,1.48-.6,2.86h0l-4.4,4.39a1,1,0,0,0,.09,1.45,1.15,1.15,0,0,0,.8.4.93.93,0,0,0,.66-.31l4.4-4.39a2.19,2.19,0,0,0,1.13.35,2.56,2.56,0,0,0,1.74-1,2.24,2.24,0,0,0,.59-2.86A2,2,0,0,0,16.37,8.35Zm-.81,2.8c-.52.51-.86.72-1.19.72a1.49,1.49,0,0,1-.73-.24l-.52-.31-.43.43-4.4,4.39a.27.27,0,0,1-.11.08s-.11,0-.24-.17-.16-.21-.16-.24a.2.2,0,0,1,.07-.11l4.4-4.39.41-.41-.28-.52c-.47-.93-.25-1.22.46-1.94a1.88,1.88,0,0,1,1.27-.66,1.26,1.26,0,0,1,.33,0l-1.11,1.1A1.07,1.07,0,0,0,13,9.7a1.28,1.28,0,0,0,.45.9,1.28,1.28,0,0,0,.9.46,1.07,1.07,0,0,0,.77-.34l1.08-1.08A1.63,1.63,0,0,1,15.56,11.15Z"/></svg>