<svg xmlns="http://www.w3.org/2000/svg" width="24" height="24">
<path d="M12 3.5a8.5 8.5 0 1 1-.001 17.001A8.5 8.5 0 0 1 12 3.5Zm-7.778.722.76.76A9.968 9.968 0 0 0 2 12.103a9.96 9.96 0 0 0 2.733 6.866l.147.152-.658.658A10.968 10.968 0 0 1 1 12c0-3.037 1.232-5.787 3.222-7.778Zm15.556 0A10.967 10.967 0 0 1 23 12c0 2.961-1.171 5.65-3.074 7.627l-.148.15-.658-.657A9.963 9.963 0 0 0 22 12.103a9.966 9.966 0 0 0-2.835-6.972l-.147-.149.76-.76ZM12 4.562C7.899 4.563 4.562 7.9 4.562 12c0 4.101 3.337 7.438 7.438 7.438 4.101 0 7.438-3.337 7.438-7.438 0-4.101-3.337-7.438-7.438-7.438Zm.364 3.585c1.577 0 2.239.64 2.239 2.405 0 1.797-.827 2.327-2.261 2.327h-1.533V16h-.916V8.147h2.471Zm0 .838h-1.555v3.133h1.533c.981 0 1.345-.298 1.345-1.566 0-1.236-.364-1.567-1.323-1.567Z"/>
</svg>