<svg xmlns="http://www.w3.org/2000/svg" width="24" height="24">
<path d="M19 19.499V20.5H4.5v-1.001H19ZM8.5 5.5 6.25 3 4 5.5h1.795c.184 2.113 1.476 3.672 1.476 5.95 0 2.277-1.5 4.3-1.5 6.55h1c0-1.997 1.5-3.97 1.5-6.55 0-2.582-1.128-3.714-1.46-5.95H8.5Zm5.5 0L11.75 3 9.5 5.5h1.795c.184 2.113 1.476 3.672 1.476 5.95 0 2.277-1.5 4.3-1.5 6.55h1c0-1.997 1.5-3.97 1.5-6.55 0-2.582-1.128-3.714-1.46-5.95H14Zm5.5 0L17.25 3 15 5.5h1.795c.184 2.113 1.476 3.672 1.476 5.95 0 2.277-1.5 4.3-1.5 6.55h1c0-1.997 1.5-3.97 1.5-6.55 0-2.582-1.128-3.714-1.46-5.95H19.5Z"/>
</svg>