<svg height="24" width="24" xmlns="http://www.w3.org/2000/svg"><path d="m6.697 2.197a7.477 7.477 0 0 0 -2.197 5.303c0 2.071.84 3.946 2.197 5.303l.707-.707a6.48 6.48 0 0 1 -1.904-4.596 6.48 6.48 0 0 1 1.904-4.596zm9.899.707.707-.707a7.477 7.477 0 0 1 2.197 5.303c0 2.071-.84 3.946-2.197 5.303l-.707-.707a6.48 6.48 0 0 0 1.904-4.596 6.48 6.48 0 0 0 -1.904-4.596z"/><path d="m8.11 3.611a5.483 5.483 0 0 0 -1.61 3.89c0 1.518.616 2.893 1.61 3.888l.708-.707a4.486 4.486 0 0 1 -1.318-3.182c0-1.243.504-2.368 1.318-3.182l-.707-.707zm7.072.707.707-.707a5.483 5.483 0 0 1 1.611 3.89 5.483 5.483 0 0 1 -1.61 3.888l-.708-.707a4.486 4.486 0 0 0 1.318-3.182 4.486 4.486 0 0 0 -1.318-3.182z"/><path d="m9.525 5.025a3.49 3.49 0 0 0 -1.025 2.475c0 .967.392 1.842 1.025 2.475l.707-.707a2.492 2.492 0 0 1 -.732-1.768c0-.69.28-1.315.732-1.768zm4.243.707.707-.707a3.49 3.49 0 0 1 1.025 2.475 3.49 3.49 0 0 1 -1.025 2.475l-.707-.707a2.492 2.492 0 0 0 .732-1.768c0-.69-.28-1.315-.732-1.768z"/><path d="m12.602 8.874a1.5 1.5 0 1 0 -1.204 0l-3.898 12.126h2l2.5-3 2.5 3h2zm-3.57 11.126h-.16l3.128-9.732 3.128 9.732h-.16l-2.968-3.562z"/></svg>