<svg viewBox="0 0 24 24" xmlns="http://www.w3.org/2000/svg"><path d="m14.2777 7.2741.7857.0004v.0007l-1.5481 1.5481.7154.7153 2.7693-2.7693-2.7693-2.7693-.7154.7154 1.5474 1.5473-.7771-.0004c-1.3724-.0104-4.5877-.0331-7.2856 2.8946l.744.6857c2.3936-2.5982 5.1919-2.5814 6.5337-2.5685z"/><path d="m18.7152 13.5468.9747-.7097c.1466-.1066.2239-.2835.2033-.4624-.0215-.1799-.1369-.3334-.304-.4038l-3.449-1.4488-.3871.9229 2.6298 1.1047-1.0979.7997c-.1574.1144-.2346.3109-.1965.5015.0371.1916.1828.3431.3725.3891 3.1362.7664 3.538 1.7216 3.538 2.4685 0 .4741-.043.7254-.0763.8495l-1.3354.1809-.26.0176c-.2082.0147-.3852.1564-.4448.3558-.1594.5308-.6335.8867-1.18.8867-.4859 0-.9287-.2884-1.1282-.7342-.0802-.1799-.2591-.2962-.4565-.2962h-8.1083c-.197 0-.3759.1154-.4565.2962-.2004.4458-.6433.7342-1.1286.7342-.4649 0-.8862-.263-1.0998-.6853-.0851-.1681-.2581-.2747-.4468-.2747-.0132 0-.1124.0059-.1251.0068-1.0749.089-1.4723-.1525-1.6189-.3676-.2806-.4086-.0455-.6442.0611-.7215.4991-.3138.8456-.5543 1.0631-.744.1667-.1476.5572-.4937 1.5979-.6873 1.0245-.1897 2.5384-.174 2.5388-.1887h.001c.109 0 .2151-.0362.3021-.1017.0083-.0059.8569-.6452 1.81-1.1008.9541-.4546 1.7543-.6648 1.7621-.6667l-.2503-.9698c-.0362.0098-.8965.2336-1.9435.7332-.8222.393-1.5515.8945-1.8457 1.1057-.438.0049-1.6429.0352-2.5574.2053-1.3139.2434-1.8697.7361-2.1048.9444-.1398.1212-.4697.348-.9058.6218-.1877.1173-.5323.4477-.634.9375-.0577.2776-.0557.7097.2796 1.1985.4003.5846 1.1643.8564 2.2979.8124.4169.5885 1.0871.9434 1.8183.9434.7664 0 1.4737-.3959 1.8819-1.0304h7.5144c.4077.6354 1.1145 1.0304 1.8819 1.0304.873 0 1.6424-.4976 2.0109-1.2689l1.5788-.2131c.7078-.1212.7078-1.3921.7078-1.8096 0-1.7646-1.5945-2.6366-3.2848-3.1616z"/></svg>