<svg xmlns="http://www.w3.org/2000/svg" height="24" width="24">
<path d="m15.613 17a1.5 1.5 0 0 1 1.448 1.888l-.328.992a1.5 1.5 0 0 1 -1.516 1.023l-2.287-.283a7.488 7.488 0 0 0 -1.628-.026l-2.426.3a1.5 1.5 0 0 1 -1.577-.927l-.334-.992a1.5 1.5 0 0 1 1.333-1.972l.09-.003zm-7.225 1a.5.5 0 0 0 -.49.6l.318.964a.5.5 0 0 0 .477.342l2.253-.279a8.49 8.49 0 0 1 1.846-.028l2.456.303a.5.5 0 0 0 .515-.283l.324-.961a.5.5 0 0 0 -.415-.655zm4.729-15a1 1 0 0 1 .98.798c.181 1.45.271 2.192.27 2.224a1.503 1.503 0 0 1 1.22 1.212l.839 8.943a2.014 2.014 0 0 0 -.692-.173l-.121-.004h-.208l-.8-8.57a.496.496 0 0 0 -.437-.427l-4.278-.003a.5.5 0 0 0 -.486.385l-.808 8.615h-.208c-.244 0-.481.047-.703.132l-.11.045.824-8.84c.08-.68.59-1.204 1.234-1.315 0-.016.085-.731.258-2.146a1 1 0 0 1 .913-.873zm-2.234 1-.25 2h2.735l-.25-2z"/>
</svg>