<svg xmlns="http://www.w3.org/2000/svg" width="24" height="24">
<path d="M5 11.5c0-.175.009-.336.016-.5H1v1h4.016c-.007-.164-.016-.325-.016-.5Zm.396 2.946-3.24 1.87.5.867 3.1-1.79-.127-.283a5.83 5.83 0 0 1-.232-.664Zm.232-6.554.127-.286-3.098-1.79-.5.867 3.24 1.87c.11-.376.207-.605.231-.66ZM7 8h-.325l-.132.297C6.52 8.347 6 9.545 6 11.5c0 1.96.521 3.153.543 3.203l.133.297H7c1.746 0 4-1.698 4-3.5C11 9.697 8.746 8 7 8Zm.343 5.97C7.207 13.53 7 12.669 7 11.5c0-1.167.207-2.03.343-2.47C8.54 9.23 10 10.4 10 11.5s-1.461 2.27-2.657 2.47ZM18.983 11c.007.164.016.325.016.5s-.009.336-.016.5H23v-1h-4.016Zm-.614 4.11-.126.284 3.099 1.789.5-.866-3.24-1.87c-.11.378-.208.607-.233.663Zm.233-6.556 3.24-1.87-.5-.867-3.099 1.79.128.286c.024.055.12.283.231.66ZM17.325 8H17c-1.746 0-4 1.697-4 3.5 0 1.802 2.254 3.5 4 3.5h.325l.132-.297c.022-.05.543-1.244.543-3.203 0-1.955-.52-3.153-.543-3.203L17.325 8Zm-.668 5.97C15.461 13.77 14 12.6 14 11.5s1.461-2.271 2.659-2.47c.136.436.341 1.293.341 2.47 0 1.17-.207 2.03-.343 2.47Z"/>
</svg>