<svg height="24" width="24" xmlns="http://www.w3.org/2000/svg"><path d="m12 4a8 8 0 1 1 0 16 8 8 0 0 1 0-16zm5.485 8.077-.056.005-1.837.262c-.363.053-.646.316-.769.662-.162.457-.433 1.863-.781 2.188-.155.144-.25.344-.291.552l-.541 2.704a28.264 28.264 0 0 0 1.984-.229 7.04 7.04 0 0 0 2.65-2.385.987.987 0 0 0 .156-.543v-2.716a.5.5 0 0 0 -.572-.495zm-4.701 3.967h-1.573l.454 2.405.604.001zm-6.214-3.964a.5.5 0 0 0 -.57.495v2.717c0 .192.051.383.156.543a7.04 7.04 0 0 0 2.65 2.385c.571.085 1.271.174 1.984.229l-.541-2.704a1.023 1.023 0 0 0 -.292-.553c-.348-.324-.618-1.73-.78-2.188-.123-.346-.406-.609-.77-.661l-1.837-.262zm5.43-1.08c-1.103 0-2 .897-2 2s.897 2 2 2 2-.897 2-2-.897-2-2-2zm0-6a6.91 6.91 0 0 0 -2.466.455c-.428.163-.781.477-1.008.874l-.463.81c-.462.808-1.368 2.029-2.124 2.57a.688.688 0 0 0 .477 1.245l3.672-.408c.147-.016.285-.07.412-.144a2.985 2.985 0 0 1 1.5-.402c.546 0 1.059.146 1.5.402.127.074.264.128.411.144l3.673.408a.689.689 0 0 0 .477-1.245c-.758-.541-1.663-1.762-2.124-2.57l-.463-.81a1.978 1.978 0 0 0 -1.008-.874 6.905 6.905 0 0 0 -2.466-.455z"/></svg>