<svg id="Default" xmlns="http://www.w3.org/2000/svg" viewBox="0 0 24 24"><path d="M12,3a9,9,0,1,0,9,9A9,9,0,0,0,12,3ZM16,12.48A4,4,0,0,0,15.44,11h4.49A8.26,8.26,0,0,1,20,12v.05ZM12,16a3,3,0,1,1,3-3A3,3,0,0,1,12,16ZM12,4a8,8,0,0,1,7.74,6H14.62a3.93,3.93,0,0,0-5.24,0H4.26A8,8,0,0,1,12,4ZM4.07,11H8.56a4,4,0,0,0-.51,1.48L4,12.05V12A8.26,8.26,0,0,1,4.07,11Zm0,2.06,4,.42a4,4,0,0,0,2,3l.37,3.37A8,8,0,0,1,4.08,13.06ZM11.44,20l-.34-3.08a3.74,3.74,0,0,0,1.8,0L12.56,20c-.18,0-.37,0-.56,0S11.62,20,11.44,20Zm2.14-.13L14,16.47a4,4,0,0,0,2-3l4-.42A8,8,0,0,1,13.58,19.84Z"/></svg>