<svg xmlns="http://www.w3.org/2000/svg" viewBox="0 0 24 24"><defs><style>.cls-1{fill:none;}</style></defs><g id="HG"><rect class="cls-1" width="24" height="24"/></g><g id="Default"><path d="M12,3a9,9,0,1,0,9,9A9,9,0,0,0,12,3Zm-2,9a2,2,0,1,1,2,2A2,2,0,0,1,10,12Zm-.84.91L4.05,11.14A8.92,8.92,0,0,1,4.3,9.85l5.29.38A3,3,0,0,0,9,12,2.76,2.76,0,0,0,9.16,12.91Zm5.25-2.68,5.29-.38A9.19,9.19,0,0,1,20,11.14l-5.11,1.77A2.76,2.76,0,0,0,15,12,3,3,0,0,0,14.41,10.23ZM12,4a8,8,0,0,1,7.36,4.87l-6,.44a2.92,2.92,0,0,0-2.62,0l-6-.44A8,8,0,0,1,12,4ZM4,12.18l5.55,1.93.74,5.71A8,8,0,0,1,4,12.18ZM11.33,20l-.69-5.31a2.89,2.89,0,0,0,2.7,0L12.65,20c-.22,0-.43,0-.65,0S11.55,20,11.33,20Zm2.35-.15.74-5.7L20,12.19A8,8,0,0,1,13.68,19.82Z"/></g></svg>