<svg xmlns="http://www.w3.org/2000/svg" width="24" height="24">
<path d="m1.354 11.229.95.392a9.937 9.937 0 0 0-.279 1.879h1.25l-.02.332L3.25 14c0 .169.015.334.025.5H2.019a9.858 9.858 0 0 0 1.863 5.33l.98-.78 1.358-1.082.624.782-1.356 1.08-1.382 1.102-.39.311-.312-.39A10.878 10.878 0 0 1 1 14c0-.957.123-1.886.354-2.771ZM12 3c6.066 0 11 4.934 11 11 0 2.512-.831 4.883-2.404 6.852l-.311.39-.392-.312-1.381-1.101-1.355-1.08.623-.782 2.337 1.863a9.859 9.859 0 0 0 1.864-5.33h-1.256c.009-.167.025-.332.025-.5 0-.17-.015-.334-.025-.5h1.25A9.943 9.943 0 0 0 19.404 7.3l-.88.881a8.734 8.734 0 0 0-.707-.707l.88-.88a9.947 9.947 0 0 0-6.198-2.57v1.25c-.167-.009-.33-.025-.499-.025-.056 0-.112.002-.168.005l-.333.02v-1.25a9.946 9.946 0 0 0-6.197 2.571l.88.881a8.734 8.734 0 0 0-.707.707l-.88-.88c-.43.475-.809.995-1.142 1.546l-.949-.392C4.415 5.197 7.954 3 12 3ZM2.67 9.6l8.213 3.407c.147-.165.326-.302.542-.391a1.5 1.5 0 1 1-.811 1.96 1.484 1.484 0 0 1-.109-.644l-8.218-3.408-.462-.732.845-.192Z"/>
</svg>