<svg xmlns="http://www.w3.org/2000/svg" viewBox="0 0 24 24"><defs><style>.cls-1{fill:none;}</style></defs><g id="HG"><rect class="cls-1" width="24" height="24"/></g><g id="Default"><rect x="6" y="11.02" width="5" height="1"/><path d="M21.81,12.45,20.43,10a2.22,2.22,0,0,0-2.1-1H17V7H3.93V9H2v1H3.93v6H6.09a1.49,1.49,0,0,0,2.82,0h8.18a1.49,1.49,0,0,0,2.82,0H21a1,1,0,0,0,1-1V13.16A1.38,1.38,0,0,0,21.81,12.45ZM16,15H8.91a1.49,1.49,0,0,0-2.82,0H5V10H9V9H5V8H16v7Zm5,0H19.91a1.49,1.49,0,0,0-2.82,0H17V10h1.33c1,0,1.16.37,1.23.49l1.38,2.45a.43.43,0,0,1,.06.22Z"/></g></svg>