<svg xmlns="http://www.w3.org/2000/svg" height="24" width="24" >
<path d="m21.92 12.82-2.83-4.19c-.18-.38-.61-.63-1.08-.63h-2c0-1.1-.9-2-2-2h-9.01c-1.1 0-2 .9-2 2v1h-1c-.28 0-.5.22-.5.5s.22.5.5.5h1v5c0 1.1.9 2 2 2h1.09c.21.58.76 1 1.41 1s1.2-.42 1.41-1h8.18c.21.58.76 1 1.41 1s1.2-.42 1.41-1h.93c.64 0 1.17-.45 1.17-1v-2.81c0-.13-.03-.25-.08-.37zm-6.92 3.18h-6.09c-.21-.58-.76-1-1.41-1s-1.2.42-1.41 1h-1.09c-.55 0-1-.45-1-1v-5h4c.28 0 .5-.22.5-.5s-.22-.5-.5-.5h-4v-1c0-.55.45-1 1-1h9c.55 0 1 .45 1 1zm6-.05s-.08.05-.17.05h-.93c-.21-.58-.76-1-1.41-1s-1.2.42-1.41 1h-1.09v-7h2c.1 0 .17.04.18.05l.03.07.04.07 2.75 4.06v2.7zm-9.98-4.45c0 .28-.22.5-.5.5h-3.52c-.28 0-.5-.22-.5-.5s.22-.5.5-.5h3.52c.28 0 .5.22.5.5z"/>
</svg>