<svg id="Default" xmlns="http://www.w3.org/2000/svg" viewBox="0 0 24 24"><path d="M10.83,7c3.57,1.27,7.59,2.94,8.24,3.59A2.83,2.83,0,0,1,20,12.32V15H5.61A71.12,71.12,0,0,1,4.14,7h6.69M11,6H3s1.22,9.3,2,10H21V12.32a3.78,3.78,0,0,0-1.22-2.44C18.55,8.66,11,6,11,6Z"/><path d="M10.83,7c3.57,1.27,7.59,2.94,8.24,3.59A2.83,2.83,0,0,1,20,12.32V15H5.61A71.12,71.12,0,0,1,4.14,7h6.69M11,6H3s1.22,9.3,2,10H21V12.32a3.78,3.78,0,0,0-1.22-2.44C18.55,8.66,11,6,11,6Z"/><path d="M17.9,11a60.92,60.92,0,0,0-7.24-3H5.3c.16,1.07.32,2.09.48,3Z"/></svg>