<!-- Generated by IcoMoon.io -->
<svg version="1.1" xmlns="http://www.w3.org/2000/svg" width="32" height="32" viewBox="0 0 32 32">
<title>morning</title>
<path d="M8 21.099h16v1.567h-16v-1.567zM15.86 10.667h0.359c0.264 0 0.479 0.205 0.479 0.459v1.261c0 0.253-0.215 0.459-0.479 0.459h-0.359c-0.264 0-0.479-0.205-0.479-0.459v-1.261c0-0.253 0.214-0.459 0.479-0.459zM10.134 12.687l0.254-0.243c0.187-0.179 0.49-0.179 0.677 0l0.931 0.892c0.187 0.179 0.187 0.47 0 0.649l-0.254 0.243c-0.187 0.179-0.49 0.179-0.677 0l-0.931-0.892c-0.187-0.179-0.187-0.47 0-0.649zM9.077 16.437h1.317c0.264 0 0.479 0.205 0.479 0.459v0.344c0 0.253-0.214 0.459-0.479 0.459h-1.317c-0.264 0-0.479-0.205-0.479-0.459v-0.344c0-0.253 0.214-0.459 0.479-0.459zM21.566 16.476h1.317c0.264 0 0.479 0.205 0.479 0.459v0.344c0 0.253-0.215 0.459-0.479 0.459h-1.317c-0.264 0-0.479-0.205-0.479-0.459v-0.344c0-0.253 0.215-0.459 0.479-0.459zM20.083 13.335l0.931-0.892c0.187-0.179 0.49-0.179 0.677 0l0.254 0.243c0.187 0.179 0.187 0.47 0 0.649l-0.931 0.892c-0.187 0.179-0.49 0.179-0.677 0l-0.254-0.243c-0.187-0.179-0.187-0.47 0-0.649zM19.889 19.227l-7.689 0.026c-0.225-0.492-0.35-1.037-0.35-1.609 0-2.217 1.876-4.013 4.19-4.013s4.19 1.797 4.19 4.013c0 0.572-0.125 1.117-0.34 1.584z"></path>
</svg>
