<svg xmlns="http://www.w3.org/2000/svg" width="100%" height="100%" viewBox="0 0 32 32"><path d="M17.029 13.881c1.463.338 2.533.99 3.088 1.385 2.523.21 4.095.518 4.941.954.26.128.628.369.939.62.591.467.669.698.669.877 0 .975-.244 1.708-.254 1.739l-.052.159-.156.066c-.016.005-.415.18-1.308.4-.487.775-1.34 1.251-2.263 1.251-.83 0-1.573-.344-2.025-.923h-8.579c-.514.59-1.236.923-2.009.923-.913 0-1.739-.467-2.206-1.231l-1.271-.169-.057-.031c-.54-.262-1.153-1.057-1.153-1.493v-.025c.042-.636.213-1.764.524-2.257l.005-.01c.498-.739 2.055-1.303 3.472-1.769.399-.133 1.23-.333 2.17-.487l.14.754c-.898.149-1.682.338-2.06.462-.8.262-2.668.877-3.068 1.461-.171.277-.353 1.118-.404 1.856.046.154.358.611.664.795l1.536.2.093.185c.306.61.929.99 1.614.99.586 0 1.142-.282 1.511-.77l.12-.154h9.379l.114.185c.291.462.846.739 1.49.739.695 0 1.334-.379 1.666-.995l.083-.154.171-.041c.591-.139.971-.262 1.168-.333.062-.236.156-.698.166-1.256-.15-.195-.784-.682-1.183-.882l-.005-.005c-.752-.39-2.305-.677-4.754-.882l-.114-.01-.094-.057c-.473-.354-1.479-.99-2.891-1.318h-.005c-.42-.103-.95-.159-1.448-.185l-.187-.005-3.721-1.723.364-.718 3.582 1.693s.618-.052 1.599.19v-.002z"/></svg>