<!-- Generated by IcoMoon.io -->
<svg version="1.1" xmlns="http://www.w3.org/2000/svg" width="32" height="32" viewBox="0 0 32 32">
<title>loader</title>
<path d="M8 16.333h1.375c0.084 1.778 0.764 3.278 2.042 4.5s2.805 1.833 4.583 1.833c2.167 0 3.916-0.833 5.25-2.5l-1.459-1.459c-0.139 0.222-0.292 0.417-0.459 0.583-0.917 0.917-2.021 1.375-3.313 1.375s-2.396-0.458-3.313-1.375c-0.806-0.806-1.25-1.792-1.333-2.959h1.292l-2.333-3-2.333 3.001zM10.75 11.833l1.459 1.417c0.139-0.195 0.292-0.389 0.459-0.583 0.917-0.889 2.021-1.333 3.313-1.333s2.396 0.444 3.313 1.333c0.806 0.833 1.25 1.833 1.333 3h-1.292l2.333 3 2.333-3h-1.375c-0.084-1.778-0.764-3.278-2.042-4.5s-2.805-1.833-4.583-1.833c-2.167 0-3.917 0.833-5.25 2.5v0z"></path>
</svg>
