<!-- Generated by IcoMoon.io -->
<svg version="1.1" xmlns="http://www.w3.org/2000/svg" width="32" height="32" viewBox="0 0 32 32">
<title>replacement-car</title>
<path d="M10.34 21.333h-1.571c-0.037 0-0.070-0.007-0.092-0.015-0.191-0.033-0.353-0.152-0.441-0.335-0.004-0.007-0.008-0.015-0.011-0.023-0.004-0.015-0.011-0.026-0.018-0.041-0.026-0.067-0.062-0.149-0.077-0.246-0.044-0.2-0.070-0.423-0.077-0.662-0.015-0.312-0.022-0.632-0.029-0.944 0-0.004 0-0.004 0-0.007 0-0.112 0.004-0.219 0.004-0.327 0-0.104 0.004-0.208 0.004-0.312v-0.011c-0.008-0.368-0.015-0.732-0.022-1.108-0.004-0.018-0.008-0.048-0.008-0.086v-1.029c0-0.037 0.004-0.067 0.008-0.086 0-0.108 0.008-0.205 0.015-0.301 0-0.004 0-0.007 0-0.007 0.011-0.1 0.018-0.208 0.029-0.309 0.008-0.104 0.018-0.212 0.029-0.319 0.011-0.096 0.029-0.19 0.048-0.279 0.008-0.041 0.015-0.081 0.022-0.122 0-0.007 0.004-0.011 0.004-0.018 0.026-0.108 0.077-0.182 0.125-0.249 0.004-0.004 0.004-0.007 0.008-0.011 0.077-0.1 0.169-0.186 0.258-0.264-0.004 0-0.004-0.004-0.008-0.004 0 0-0.004 0-0.004 0-0.213-0.1-0.317-0.279-0.305-0.513 0-0.041 0-0.093 0.022-0.149 0.074-0.271 0.228-0.479 0.464-0.617 0.228-0.137 0.478-0.205 0.747-0.193 0.004 0 0.008 0 0.008 0 0.199 0.015 0.357 0.112 0.456 0.286 0.004 0.004 0.008 0.011 0.008 0.015 0.044 0.089 0.062 0.164 0.081 0.227 0.004 0.011 0.004 0.018 0.008 0.030 0.008 0.059 0.015 0.115 0.015 0.167 0.018 0 0.033 0 0.048 0 0.268-0.554 0.53-1.029 0.806-1.445 0.18-0.275 0.342-0.487 0.504-0.672 0.118-0.137 0.272-0.241 0.463-0.316 0.103-0.041 0.221-0.071 0.357-0.089 0.059-0.011 0.114-0.022 0.177-0.033 0.062-0.015 0.129-0.026 0.195-0.037 0.294-0.052 0.563-0.086 0.813-0.108 0.095-0.008 0.188-0.015 0.28-0.022 0.095-0.008 0.191-0.015 0.291-0.022 0 0 0.004 0 0.004 0 0.247-0.015 0.504-0.030 0.761-0.037 0.132-0.004 0.268-0.008 0.397-0.008 0.125 0 0.254-0.004 0.379-0.008 0.018-0.004 0.041-0.008 0.074-0.008h0.68c0.029 0 0.055 0.004 0.074 0.008l0.154 0.004c0.383 0.008 0.706 0.015 1.033 0.033l0.051 0.004c0.121 0.008 0.235 0.015 0.35 0.022l0.055 0.004c0.188 0.015 0.386 0.030 0.581 0.048 0.004 0 0.007 0 0.007 0 0.18 0.026 0.353 0.052 0.526 0.074l0.25 0.037c0 0 0.004 0 0.004 0 0.103 0.015 0.202 0.037 0.298 0.056l0.018 0.004c0.041 0.008 0.077 0.015 0.118 0.026 0.276 0.059 0.504 0.201 0.68 0.416 0.118 0.145 0.228 0.297 0.335 0.446 0.132 0.186 0.247 0.364 0.353 0.543 0.011 0.022 0.022 0.041 0.033 0.059 0.007 0.015 0.015 0.030 0.026 0.045 0.004 0.007 0.011 0.018 0.015 0.026l0.007 0.015c0.118 0.201 0.235 0.416 0.364 0.658 0.059 0.112 0.111 0.216 0.162 0.312 0.011 0 0.022 0 0.029 0 0-0.022 0-0.045 0.004-0.067 0-0.059 0.007-0.119 0.018-0.175 0.011-0.059 0.029-0.112 0.055-0.164 0.074-0.178 0.214-0.301 0.386-0.331 0.062-0.011 0.111-0.011 0.154-0.011 0.011 0 0.022 0 0.029 0 0.158 0.018 0.317 0.052 0.464 0.1 0.007 0.004 0.018 0.007 0.026 0.011 0.088 0.037 0.154 0.074 0.217 0.115 0 0 0.004 0 0.004 0.004 0.198 0.13 0.338 0.327 0.408 0.576 0.029 0.093 0.037 0.178 0.022 0.26 0 0.007-0.004 0.015-0.004 0.022-0.011 0.041-0.022 0.074-0.029 0.096-0.004 0.007-0.004 0.015-0.007 0.022-0.041 0.093-0.107 0.171-0.195 0.23 0.055 0.048 0.111 0.096 0.154 0.142 0.004 0.004 0.007 0.007 0.007 0.007l0.015 0.015c0.169 0.156 0.283 0.357 0.331 0.595 0 0.004 0 0.004 0 0.007 0.029 0.156 0.051 0.316 0.070 0.487 0.011 0.112 0.018 0.205 0.026 0.294 0.015 0.216 0.022 0.435 0.029 0.647v0.015c0.007 0.086 0.007 0.171 0.007 0.256 0 0.294 0.007 0.602 0.015 0.873 0 0.004 0 0.004 0 0.007 0 0.078 0 0.145 0.007 0.212 0 0.007 0 0.018 0 0.026v1.542c0 0.026 0 0.063-0.007 0.112l-0.022 0.431c0 0.004 0 0.007 0 0.007-0.018 0.219-0.044 0.409-0.077 0.587-0.026 0.163-0.074 0.312-0.14 0.457 0 0.004-0.004 0.004-0.004 0.007-0.103 0.208-0.265 0.335-0.478 0.386-0.029 0.007-0.059 0.011-0.081 0.015-0.004 0-0.011 0-0.015 0-0.022 0.004-0.041 0.007-0.062 0.007h-1.445c-0.041 0-0.074-0.007-0.099-0.018-0.191-0.045-0.342-0.163-0.427-0.342-0.041-0.074-0.059-0.142-0.077-0.197-0.004-0.007-0.004-0.015-0.007-0.023-0.121-0.018-0.228-0.078-0.301-0.175-0.121 0-0.232 0.004-0.338 0.026-0.28 0.059-0.566 0.093-0.905 0.112h-0.015c-0.25 0.015-0.489 0.030-0.743 0.030-0.489 0.007-0.986 0.007-1.471 0.007-0.232 0-0.464 0-0.695 0-0.448 0-0.912-0.004-1.368 0-0.158 0-0.312 0-0.467 0-0.46 0-0.93 0.004-1.394-0.007-0.004 0-0.007 0-0.011 0-0.059-0.004-0.118-0.004-0.18-0.007s-0.129-0.004-0.195-0.007c-0.214-0.015-0.434-0.030-0.655-0.052-0.066-0.007-0.136-0.015-0.206-0.026-0.074-0.011-0.154-0.018-0.228-0.026-0.004 0-0.011 0-0.015-0.004-0.022-0.004-0.044-0.007-0.066-0.011-0.070-0.011-0.136-0.023-0.195-0.023-0.114 0-0.217-0.007-0.316-0.015-0.004 0-0.008 0-0.008 0-0.008 0-0.018 0-0.029 0-0.074 0.097-0.184 0.156-0.305 0.171-0.029 0.004-0.059 0-0.088 0.004-0.011 0.048-0.026 0.089-0.037 0.13 0 0.004-0.004 0.011-0.008 0.015-0.081 0.205-0.206 0.345-0.375 0.42-0.029 0.011-0.066 0.018-0.103 0.018v0.002zM8.803 20.776h1.456c0.015-0.015 0.029-0.041 0.048-0.086 0.026-0.074 0.037-0.13 0.041-0.178 0-0.026 0.004-0.071 0.022-0.126 0.037-0.115 0.144-0.19 0.261-0.19h0.121c0.033-0.004 0.062-0.007 0.092-0.007 0.015-0.023 0.029-0.041 0.044-0.059 0.052-0.071 0.136-0.112 0.221-0.112 0.022 0 0.044 0 0.062 0 0.052 0 0.107-0.004 0.169 0.004 0.092 0.007 0.177 0.015 0.268 0.015 0.103 0 0.199 0.015 0.287 0.030 0.018 0.004 0.037 0.007 0.052 0.007 0.081 0.007 0.158 0.018 0.235 0.030 0.066 0.007 0.129 0.018 0.195 0.023 0.21 0.023 0.423 0.037 0.633 0.052 0.055 0.004 0.114 0.004 0.177 0.007 0.062 0 0.125 0.004 0.191 0.007 0.453 0.011 0.923 0.011 1.376 0.007 0.154 0 0.309 0 0.463 0 0.456-0.004 0.923-0.004 1.372 0 0.232 0 0.46 0 0.691 0 0.482 0 0.979 0 1.464-0.007 0 0 0.004 0 0.004 0 0.235 0 0.467-0.015 0.71-0.030h0.018c0.312-0.015 0.574-0.048 0.824-0.1 0.18-0.037 0.35-0.037 0.511-0.037 0.026 0 0.048 0 0.074 0 0.121 0 0.228 0.067 0.283 0.171 0.004 0.004 0.004 0.007 0.007 0.011 0.011 0 0.022 0 0.033 0.004 0.029 0.004 0.059 0.004 0.096 0.007 0.107 0.015 0.195 0.086 0.228 0.19 0.011 0.037 0.022 0.074 0.029 0.108 0.004 0.015 0.007 0.033 0.011 0.048 0.004 0.018 0.011 0.033 0.015 0.052 0.011 0.041 0.022 0.074 0.037 0.097 0.004 0.007 0.007 0.011 0.007 0.018 0.011 0.026 0.026 0.037 0.051 0.045 0.007 0 0.015 0.004 0.018 0.004h1.383c0.018-0.004 0.033-0.004 0.044-0.007 0.004 0 0.011 0 0.015 0 0 0 0.004 0 0.004 0 0.048-0.011 0.077-0.026 0.107-0.089 0.044-0.097 0.074-0.197 0.096-0.312 0-0.004 0-0.007 0-0.007 0.029-0.156 0.051-0.327 0.070-0.524l0.022-0.45c0-0.018 0.004-0.033 0.007-0.048 0-0.004 0-0.007 0-0.011v-1.531c-0.007-0.089-0.007-0.167-0.007-0.246-0.007-0.275-0.015-0.583-0.015-0.885 0-0.078 0-0.149-0.007-0.212 0-0.007 0-0.011 0-0.018v-0.026c-0.007-0.205-0.015-0.42-0.029-0.628-0.004-0.081-0.011-0.167-0.022-0.271-0.015-0.152-0.037-0.297-0.062-0.439-0.026-0.122-0.077-0.216-0.162-0.294-0.004-0.004-0.007-0.007-0.011-0.011l-0.018-0.018c-0.188-0.175-0.338-0.294-0.489-0.394-0.022-0.011-0.059-0.030-0.096-0.063-0.059-0.059-0.088-0.13-0.088-0.212 0-0.145 0.107-0.264 0.25-0.279 0.048-0.004 0.088-0.011 0.129-0.015l0.067-0.007c0 0 0.004 0 0.004 0 0.048-0.004 0.092-0.018 0.132-0.037 0-0.004-0.004-0.007-0.004-0.011-0.033-0.122-0.092-0.208-0.177-0.264-0.041-0.026-0.081-0.045-0.136-0.071-0.103-0.033-0.214-0.059-0.32-0.071-0.007 0-0.011 0-0.015 0-0.004 0.007-0.007 0.015-0.011 0.026-0.007 0.011-0.011 0.030-0.015 0.045-0.004 0.022-0.007 0.045-0.007 0.067 0 0.007 0 0.015 0 0.022-0.004 0.048-0.004 0.1 0 0.16 0 0.026 0 0.052 0 0.081 0.011 0.071-0.004 0.127-0.026 0.171-0.077 0.182-0.239 0.197-0.287 0.197-0.015 0-0.026 0-0.041-0.004-0.096-0.015-0.198-0.015-0.309-0.011-0.029 0-0.062 0-0.092 0-0.103 0-0.198-0.059-0.247-0.152v-0.004c-0.007-0.015-0.022-0.041-0.033-0.071-0.059-0.119-0.125-0.245-0.195-0.386-0.121-0.234-0.235-0.442-0.35-0.636l-0.022-0.037c-0.011-0.022-0.022-0.041-0.033-0.059-0.007-0.015-0.015-0.030-0.026-0.045-0.099-0.167-0.206-0.331-0.327-0.505-0.099-0.142-0.206-0.282-0.312-0.42-0.096-0.115-0.217-0.19-0.368-0.223-0.037-0.008-0.074-0.015-0.114-0.022l-0.018-0.004c-0.088-0.018-0.18-0.037-0.272-0.052l-0.247-0.037c-0.169-0.026-0.342-0.048-0.518-0.074-0.188-0.018-0.375-0.033-0.559-0.048l-0.048-0.004c-0.114-0.008-0.228-0.015-0.35-0.022l-0.048-0.004c-0.32-0.015-0.64-0.026-1.015-0.030l-0.169-0.004c-0.029 0-0.051-0.004-0.067-0.008h-0.647c-0.018 0.004-0.041 0.008-0.070 0.008-0.132 0.004-0.265 0.008-0.397 0.008-0.129 0-0.261 0.004-0.39 0.008-0.247 0.008-0.5 0.022-0.743 0.037-0.095 0.008-0.191 0.015-0.287 0.022-0.092 0.008-0.184 0.015-0.28 0.022-0.235 0.018-0.486 0.052-0.765 0.1-0.059 0.011-0.118 0.022-0.18 0.037s-0.129 0.026-0.195 0.037c-0.004 0-0.007 0-0.007 0-0.099 0.015-0.177 0.033-0.242 0.059 0 0-0.004 0-0.004 0-0.103 0.037-0.18 0.089-0.242 0.16-0.147 0.167-0.294 0.36-0.46 0.613-0.276 0.424-0.544 0.91-0.82 1.494 0 0 0 0.004-0.004 0.004-0.011 0.026-0.033 0.078-0.081 0.127-0.059 0.059-0.139 0.089-0.221 0.078-0.066-0.007-0.121-0.011-0.177-0.007-0.066 0.007-0.132 0.015-0.206 0.026-0.059 0.011-0.118 0.004-0.173-0.026-0.070-0.037-0.191-0.127-0.191-0.345 0-0.011 0-0.026 0.004-0.037 0.008-0.067 0.008-0.152-0.004-0.253-0.011-0.037-0.018-0.063-0.029-0.089 0 0-0.004-0.004-0.004-0.004s-0.004 0-0.008 0c-0.158-0.004-0.302 0.033-0.441 0.119-0.111 0.067-0.177 0.156-0.213 0.286 0 0 0 0 0 0.004s0 0.004 0 0.007c0.092 0.037 0.195 0.059 0.342 0.067h0.111c0.095 0 0.184 0.048 0.235 0.134 0.052 0.081 0.055 0.186 0.011 0.271-0.052 0.1-0.125 0.142-0.162 0.16l-0.022 0.011c-0.118 0.074-0.228 0.145-0.327 0.23-0.092 0.081-0.18 0.156-0.243 0.238-0.018 0.022-0.029 0.041-0.033 0.052-0.008 0.041-0.015 0.078-0.022 0.119-0.015 0.081-0.029 0.16-0.041 0.23-0.011 0.1-0.018 0.205-0.029 0.304-0.008 0.104-0.018 0.208-0.029 0.312-0.008 0.093-0.015 0.182-0.015 0.271 0 0.030-0.004 0.052-0.008 0.071v1.026c0.004 0.015 0.008 0.041 0.008 0.071 0.008 0.375 0.015 0.743 0.022 1.111v0.011c0 0 0 0.004 0 0.004 0 0.112-0.004 0.219-0.004 0.327 0 0.1-0.004 0.208-0.004 0.312 0.008 0.304 0.015 0.621 0.029 0.929 0.008 0.212 0.029 0.401 0.066 0.572 0 0.004 0.004 0.011 0.004 0.015 0.008 0.037 0.026 0.081 0.044 0.13 0.004 0.011 0.011 0.026 0.015 0.037 0.011 0.018 0.022 0.026 0.041 0.026 0.022 0 0.033 0 0.044 0.004l-0.001 0.001zM12.153 12.262c0.121-0.186 0.327-0.297 0.548-0.297 0 0 1.070-0.275 3.258-0.275 2.097 0 3.222 0.275 3.222 0.275 0.221 0 0.427 0.112 0.548 0.297l1.015 1.702h-9.603l1.012-1.702zM22.12 16.429v-0.001c0 0-1.365 0.137-1.582 0.056-0.147-0.055-0.184-0.055-0.221-0.241-0.022-0.119 0.28-0.654 0.754-1.022 0.265-0.205 0.585-0.338 0.92-0.372 0.445-0.045 0.633 0.112 0.791 0.353 0.147 0.223 0.221 0.78 0.147 0.966s-0.551 0.223-0.809 0.26zM9.828 16.429c-0.258-0.037-0.736-0.074-0.809-0.26s0-0.743 0.147-0.966c0.158-0.241 0.346-0.398 0.791-0.353 0.335 0.033 0.654 0.167 0.92 0.372 0.474 0.368 0.776 0.903 0.754 1.022-0.037 0.186-0.074 0.186-0.221 0.241-0.221 0.081-1.582-0.056-1.582-0.056v0.001z"></path>
</svg>
