<!-- Generated by IcoMoon.io -->
<svg version="1.1" xmlns="http://www.w3.org/2000/svg" width="32" height="32" viewBox="0 0 32 32">
<title>closed-eye</title>
<path d="M25.885 15.275c-1.091-0.918-2.582-2.056-4.393-2.932l3.199-3.186-1.157-1.157-3.674 3.659c-1.141-0.416-2.46-0.671-3.833-0.702h-0.038c-4.356 0.084-7.822 2.591-9.874 4.319-0.095 0.084-0.771 0.616-0.781 1.298-0.009 0.483 0.212 0.834 0.517 1.134 0.951 0.947 2.536 2.321 4.605 3.326l-3.158 3.139 1.155 1.162 3.641-3.626c1.159 0.417 2.497 0.662 3.891 0.67h0.027c4.798-0.019 8.458-2.998 10.137-4.675 0.31-0.3 0.526-0.651 0.517-1.134-0.008-0.675-0.676-1.209-0.78-1.293h-0.002zM11.741 16.666c0-2.432 1.905-4.408 4.262-4.422 0.926 0.005 1.779 0.312 2.466 0.827l-1.993 1.96c-0.138-0.048-0.298-0.077-0.464-0.080h-0.030c-0.904 0.024-1.623 0.783-1.623 1.719 0 0.006 0 0.014 0 0.021 0 0.142 0.019 0.28 0.055 0.411l-1.992 1.966c-0.427-0.677-0.68-1.5-0.68-2.382 0-0.008 0-0.014 0-0.022v0.001zM16 21.088c-0.929-0.006-1.784-0.314-2.473-0.831l1.987-1.96c0.142 0.049 0.304 0.080 0.473 0.084h0.030c0.908-0.019 1.623-0.782 1.623-1.719 0-0.009 0-0.019 0-0.030 0-0.143-0.021-0.281-0.059-0.411l1.986-1.968c0.431 0.681 0.686 1.51 0.686 2.398 0 0.003 0 0.007 0 0.010 0.006 2.435-1.894 4.412-4.253 4.427v0z"></path>
</svg>
