<!-- Generated by IcoMoon.io -->
<svg version="1.1" xmlns="http://www.w3.org/2000/svg" width="32" height="32" viewBox="0 0 32 32">
<title>door-left2-next</title>
<path d="M25.29 14.739c-0.564-0.556-1.27-0.819-2.103-0.772l-2.271 0.241c-0.020 0-3.749 0-6.136 0l-4.714-4.874-0.538 0.556 4.928 5.094 0.005-0.005 0.015 0.016c2.037 0 6.314-0.005 6.477-0.005l2.291-0.241c0.605-0.031 1.108 0.147 1.514 0.556 1.153 1.14 1.127 3.593 1.148 3.624v0c0 0.095-0.015 2.505-1.148 3.63-0.411 0.404-0.914 0.588-1.534 0.551l-2.23-0.236c-0.117 0-3.073-0.005-4.206-0.005-1.595 0-4.475 0-4.664 0.005-0.254 0.005-0.783 0.079-1.341 0.163-0.533 0.073-1.133 0.163-1.412 0.173-0.315 0.010-0.503-0.105-0.65-0.2-0.081-0.053-0.153-0.1-0.249-0.121l-0.091-0.010c-0.538 0-0.97-0.184-1.321-0.557-1.016-1.082-0.96-3.351-0.966-3.372v-0.026c0-0.026-0.051-2.29 0.966-3.372 0.35-0.378 0.783-0.556 1.321-0.556l0.091-0.010c0.091-0.026 0.167-0.074 0.249-0.121 0.147-0.095 0.335-0.21 0.65-0.2 0.28 0.010 0.883 0.095 1.412 0.173 0.559 0.079 1.153 0.158 1.407 0.163v-0.788c-0.213-0.005-0.792-0.084-1.305-0.152-0.579-0.084-1.174-0.168-1.488-0.179-0.549-0.021-0.894 0.2-1.077 0.315-0.686 0.016-1.31 0.284-1.808 0.814-1.107 1.182-1.178 3.309-1.178 3.829 0 0.095 0 0.105 0 0.194 0 0.509 0.066 2.652 1.178 3.835 0.478 0.509 1.082 0.777 1.793 0.793 0.214 0.147 0.553 0.357 1.092 0.336 0.32-0.010 0.914-0.095 1.488-0.178 0.513-0.073 1.041-0.147 1.255-0.152 0.178-0.005 3.058-0.005 4.643-0.005 1.438 0 4.14 0.005 4.165 0.005l2.21 0.236c0.853 0.047 1.56-0.215 2.124-0.772 1.391-1.376 1.382-4.092 1.382-4.197 0.015-0.1 0.015-2.826-1.372-4.197h-0.002zM16.385 21.456l2.032 0.236c0.127 0.016 0.249-0.073 0.274-0.205l0.071-0.336c0.3-1.461 0.3-2.972 0-4.433l-0.066-0.331c-0.025-0.131-0.147-0.22-0.274-0.205l-2.027 0.247 0.066 0.546c0.158 1.303 0.163 2.621 0 3.924l-0.076 0.557h0.001zM9.938 16.419l-0.919-0.241c-0.127-0.016-0.249 0.074-0.275 0.205l-0.066 0.336c-0.305 1.461-0.305 2.972 0 4.433l0.066 0.331c0.025 0.131 0.147 0.22 0.275 0.205l0.914-0.242-0.066-0.546c-0.163-1.303-0.163-2.621 0-3.924l0.072-0.556-0.001-0.001z"></path>
</svg>
