<svg xmlns="http://www.w3.org/2000/svg" width="100%" height="100%" viewBox="0 0 32 32"><path d="M20.953 14.519v-2.075C20.953 9.99 19.029 8 16.667 8c-2.367 0-4.286 1.989-4.286 4.444v2.075c-.947.003-1.714.794-1.714 1.783v5.915c0 .985.769 1.783 1.719 1.783h8.561c.95 0 1.719-.792 1.719-1.783v-5.915c0-.984-.767-1.781-1.714-1.783h.001zm-3.838 4.662v1.982c0 .245-.201.456-.448.456-.24 0-.448-.204-.448-.456v-1.982c-.522-.191-.761-.637-.761-1.183 0-.693.541-1.254 1.21-1.254s1.21.562 1.21 1.254c0 .546-.24.992-.762 1.183zm2.124-4.662h-5.143v-2.073c0-1.476 1.151-2.667 2.572-2.667 1.417 0 2.572 1.194 2.572 2.667v2.073h-.001z"/></svg>