<!-- Generated by IcoMoon.io -->
<svg version="1.1" xmlns="http://www.w3.org/2000/svg" width="32" height="32" viewBox="0 0 32 32">
<title>sohu</title>
<path d="M9.106 16.543l-1.243 0.408v3.092c0 1.053-0.414 1.256-1.995 1.234-0.032-0.272-0.164-0.736-0.295-1.031 0.25 0.012 0.491 0.012 0.687 0.012h0.425c0.152 0 0.196-0.057 0.196-0.215v-2.774c-0.403 0.136-0.763 0.249-1.068 0.34-0.011 0.102-0.087 0.17-0.175 0.193l-0.305-1.211c0.425-0.102 0.959-0.238 1.548-0.396v-2.254h-1.417v-0.985h1.417v-2.276l1.232 0.057c-0.011 0.102-0.077 0.17-0.25 0.193v2.027h1.177v0.985h-1.177v1.993l1.123-0.317 0.12 0.928 0.001-0.002zM14.524 16.906l0.665 0.317c-0.022 0.057-0.077 0.090-0.12 0.125-0.425 0.963-1.090 1.721-1.907 2.309 0.774 0.328 1.646 0.566 2.573 0.702-0.218 0.227-0.502 0.645-0.643 0.94-1.079-0.215-2.082-0.555-2.954-1.031-0.992 0.487-2.125 0.804-3.325 1.008-0.087-0.26-0.294-0.668-0.469-0.895 1.014-0.136 1.995-0.363 2.856-0.713-0.578-0.442-1.079-0.963-1.472-1.551l0.654-0.272h-1.308v-0.906h5.287l0.164-0.034v0.001zM11.711 16.713v-0.77h-2.354v-4.325l0.502 0.17c0.457-0.215 0.905-0.475 1.188-0.725l0.665 0.634v-1.030l1.166 0.080c-0.011 0.090-0.077 0.147-0.239 0.17v4.167h1.559v-0.94h-1.134v-0.793h1.134v-0.906h-1.166v-0.872h2.093v4.371h-2.486v0.77h-0.927l-0.001-0.002zM10.261 15.083h1.45v-3.227h-0.098c-0.338 0.215-0.85 0.442-1.352 0.634v0.861h1.047v0.793h-1.047v0.939zM10.697 17.845c0.371 0.51 0.883 0.951 1.504 1.325 0.6-0.351 1.112-0.793 1.482-1.325h-2.987zM17.095 10.745c0.425 0.408 0.774 0.815 1.057 1.234 0.305-0.408 0.556-0.826 0.763-1.234l1.046 0.533c-0.032 0.068-0.109 0.113-0.239 0.102-0.273 0.498-0.632 1.030-1.046 1.54 0.556 1.256 0.654 2.57 0.654 3.952 0 1.653-0.098 3.239-0.567 3.907-0.229 0.295-0.512 0.487-1.461 0.487-0.152 0-0.294 0-0.447-0.012-0.011-0.34-0.098-0.725-0.273-1.031 0.262 0.023 0.502 0.023 0.698 0.023 0.403 0 0.567 0 0.73-0.204 0.348-0.465 0.348-2.616 0.348-3.329-0.469 0.668-1.014 1.291-1.526 1.721-0.152-0.249-0.436-0.611-0.676-0.804 0.763-0.51 1.613-1.517 2.115-2.446-0.055-0.498-0.152-0.974-0.316-1.438-0.338 0.351-0.687 0.68-1.047 0.974-0.164-0.215-0.48-0.521-0.709-0.691 0.457-0.351 0.905-0.781 1.319-1.257-0.284-0.498-0.654-0.985-1.155-1.461l0.731-0.566zM21.009 11.765c1.504-0.283 3.118-0.68 4.055-1.098l0.97 0.781c-0.055 0.057-0.152 0.057-0.262 0.057-0.218 0.080-0.457 0.158-0.73 0.238 0.186 3.567 0.556 7.032 1.624 8.776-0.239 0.17-0.6 0.521-0.774 0.793-1.123-2.004-1.482-5.491-1.69-9.331-0.916 0.238-1.952 0.453-2.932 0.623v2.785c0 1.143-0.077 2.639-0.469 4.008l1.504-0.090v-6.827l1.101 0.068c-0.011 0.090-0.066 0.147-0.229 0.17v6.534l0.807-0.057c-0.12-0.487-0.262-0.973-0.404-1.404l0.687-0.193c0.338 0.985 0.676 2.254 0.807 3.114l-0.73 0.215c-0.032-0.26-0.087-0.566-0.152-0.883-1.145 0.136-2.268 0.26-3.009 0.328-0.022 0.090-0.098 0.147-0.175 0.158l-0.262-0.963c-0.196 0.634-0.469 1.234-0.829 1.766-0.131-0.215-0.491-0.543-0.73-0.668 1.046-1.551 1.145-3.657 1.145-5.288v-3.816l0.676 0.204z"></path>
</svg>
