<svg xmlns="http://www.w3.org/2000/svg" width="100%" height="100%" viewBox="0 0 32 32"><path d="M18.549 17.479l-.001-.001c.335-.27.837-.229 1.118.094.136.156.201.354.182.558s-.118.389-.28.519l-3.102 2.506c-.148.12-.329.178-.509.178-.227 0-.452-.093-.609-.273-.281-.322-.237-.805.098-1.076l3.102-2.506zm1.701 3.346h.001V19.62h4.531c-.124-.773-.357-1.522-.695-2.235l-1.069.644c-.183.102-.397.128-.602.075s-.376-.18-.482-.356c-.217-.363-.089-.828.285-1.04l1.084-.652c-.498-.691-1.099-1.307-1.793-1.836l-.736 1.115c-.106.172-.276.296-.479.347-.205.052-.419.025-.602-.077s-.314-.267-.368-.465c-.055-.198-.026-.404.08-.58l.777-1.181c-1.052-.541-2.222-.874-3.422-.972l-.003 1.445c-.001.421-.356.763-.794.763h-.002c-.437-.001-.793-.345-.792-.766l.003-1.436c-1.155.102-2.252.413-3.272.927l.785 1.223c.106.177.133.382.078.58s-.186.362-.37.464c-.377.209-.861.085-1.081-.275l-.748-1.164c-.711.531-1.327 1.151-1.836 1.85l1.158.704c.18.102.308.266.362.461.055.198.026.404-.08.58-.219.365-.705.489-1.084.278l-1.148-.697c-.348.725-.588 1.489-.715 2.279h4.534v1.205H5.334l.018-.372c.13-2.641 1.293-5.104 3.278-6.935 1.992-1.838 4.61-2.851 7.371-2.851s5.379 1.013 7.371 2.851c1.984 1.831 3.148 4.294 3.278 6.935l.018.372h-6.417z"/></svg>