<!-- Generated by IcoMoon.io -->
<svg version="1.1" xmlns="http://www.w3.org/2000/svg" width="32" height="32" viewBox="0 0 32 32">
<title>suv-sunroof-pcm</title>
<path d="M5.335 16.413c0.005-0.193 0.076-0.375 0.214-0.513 0.564-0.592 2.061-1.97 2.061-1.97 0-0.41 0.34-0.741 0.762-0.741h2.299v0.741h-2.299v0.321l-0.239 0.217c-0.015 0.015-1.482 1.362-2.020 1.93-0.011 0.009-0.015 0.020-0.015 0.035-0.011 0.741-0.005 0.997-0.005 1.076l0.011 0.035v0.987c0 0.024 0.015 0.044 0.036 0.050l2.203 0.661 0.127 0.351c0.254 0.711 1.020 1.14 1.802 0.952 0.523-0.129 0.914-0.548 1.092-1.042l0.142-0.395h9.229l0.147 0.404c0.183 0.494 0.578 0.918 1.107 1.037 0.787 0.178 1.543-0.261 1.792-0.978l0.122-0.351 0.361-0.118 1.62-0.513c0.005-0.009 0.020-0.050 0.020-0.123v-0.721c0-0.287-0.162-0.548-0.416-0.661-1.787-0.809-4.914-0.938-4.945-0.938l-0.172-0.005-3.259-1.688c-0.848-0.351-1.746-0.528-2.67-0.528v0l-5.614-2.586 0.32-0.671 5.457 2.527c0.005 0.005 0.015 0.005 0.020 0.005 0.965 0.024 1.919 0.217 2.813 0.588l3.122 1.619c0.010 0.005 0.010 0.005 0.015 0.005 0.158 0.005 3.3 0.143 5.203 0.992 0.548 0.247 0.889 0.794 0.889 1.377v0.686c0 0.43-0.208 0.711-0.523 0.809l-1.615 0.528c-0.015 0.005-0.025 0.015-0.031 0.030-0.309 0.869-1.153 1.5-2.152 1.5-0.98 0-1.812-0.607-2.132-1.451-0.005-0.020-0.025-0.030-0.046-0.030h-8.087c-0.020 0-0.041 0.015-0.046 0.030-0.325 0.844-1.153 1.451-2.132 1.451-0.99 0-1.823-0.617-2.143-1.471-0.005-0.015-0.015-0.024-0.030-0.030l-1.812-0.548c-0.34-0.103-0.573-0.41-0.573-0.755v-0.898c-0.020-0.074-0.011-0.814-0.005-1.219l-0.006 0.001z"></path>
</svg>
