<!-- Generated by IcoMoon.io -->
<svg version="1.1" xmlns="http://www.w3.org/2000/svg" width="32" height="32" viewBox="0 0 32 32">
<title>photo</title>
<path d="M22.706 12.692h-2.596l-1.554-1.62c0 0-0.008-0.008-0.012-0.008l-0.008-0.008c-0.231-0.238-0.542-0.389-0.896-0.389h-3.284c-0.354 0-0.665 0.151-0.896 0.389l-0.008 0.008c-0.004 0-0.012 0.008-0.012 0.008l-1.554 1.62h-2.596c-0.711 0-1.292 0.58-1.292 1.319v8.026c0-0.030 0.001-0.589 0.001-0.583 0.002 0.001 0.004 0.002 0.006 0.003 0.063 0.678 0.616 1.21 1.286 1.21h13.414c0.67 0 1.223-0.532 1.286-1.21 0.002-0.001 0.004-0.002 0.006-0.003 0-0.005 0.001 0.554 0.001 0.583v-8.026c0-0.739-0.581-1.319-1.292-1.319h-0.002zM15.999 19.656c-1.322 0-2.401-1.109-2.413-2.475 0.012-1.368 1.088-2.522 2.413-2.522s2.401 1.154 2.413 2.522c-0.012 1.365-1.091 2.475-2.413 2.475z"></path>
</svg>
