<svg xmlns="http://www.w3.org/2000/svg" width="100%" height="100%" viewBox="0 0 32 32"><path d="M5.333 19.644c0 1.698.908 3.07 2.723 4.117s3.892 1.571 6.229 1.572c2.732 0 5.024-.65 6.876-1.95s2.777-2.673 2.777-4.117c0-.759-.252-1.382-.755-1.869s-1.114-.839-1.833-1.057c-.324-.109-.432-.289-.324-.542.36-.903.36-1.608 0-2.113s-.971-.758-1.833-.758c-.863 0-1.833.235-2.912.705-.36.144-.539.108-.539-.108v-.108c.36-1.156.288-2.005-.216-2.547-.575-.578-1.546-.596-2.912-.055s-2.732 1.481-4.098 2.817c-2.121 2.131-3.182 4.136-3.182 6.014zm2.184.839c-.126-1.174.395-2.23 1.564-3.169s2.634-1.499 4.395-1.68c1.761-.181 3.307.081 4.638.785s2.049 1.635 2.157 2.79c.108 1.156-.423 2.212-1.591 3.169s-2.633 1.517-4.395 1.68c-1.762.163-3.299-.099-4.611-.785s-2.031-1.617-2.157-2.79zm2.777 1.084c.324.74.899 1.237 1.726 1.49.899.289 1.789.244 2.67-.135s1.501-.984 1.86-1.815c.36-.795.351-1.553-.027-2.275s-.997-1.192-1.86-1.409c-.827-.217-1.663-.144-2.507.217s-1.447.921-1.807 1.68c-.36.759-.378 1.508-.054 2.249v-.001zm.971-.325c-.072-.271-.027-.542.135-.813s.395-.461.701-.569c.306-.108.603-.099.89.027s.467.325.539.596c.072.272.018.543-.162.813s-.423.46-.728.569c-.305.109-.592.1-.863-.027s-.441-.325-.512-.596h.001zm2.481-1.706c.144-.253.342-.325.594-.217s.306.289.162.542c-.144.253-.342.325-.594.217s-.306-.289-.162-.542zm5.473-10.457c.054.217.171.388.35.515s.377.172.594.135c1.51-.325 2.786.09 3.829 1.247s1.33 2.475.863 3.955c-.072.181-.063.38.027.596s.242.352.458.407c.216.054.431.036.647-.055s.342-.244.378-.46c.324-.939.387-1.905.189-2.899s-.647-1.878-1.349-2.655c-.701-.777-1.528-1.309-2.481-1.598s-1.914-.343-2.885-.163c-.216.072-.387.199-.512.38s-.162.38-.108.596v-.001zm.701 2.736c.09.451.368.623.836.515.503-.109.926.036 1.267.433s.441.831.297 1.3c-.144.469 0 .776.431.921s.719-.018.863-.488c.324-1.011.135-1.905-.566-2.682s-1.573-1.057-2.615-.84c-.431.109-.602.389-.512.84h-.001z"/></svg>