<!-- Generated by IcoMoon.io -->
<svg version="1.1" xmlns="http://www.w3.org/2000/svg" width="32" height="32" viewBox="0 0 32 32">
<title>grid-view</title>
<path d="M23.998 12.798v-4.798h-15.998v11.198h0.002v4.798h15.998v-11.198h-0.002zM19.2 14.4h3.197v3.199h-3.197v-3.199zM14.401 14.4h3.197v3.199h-3.197v-3.199zM9.601 14.4h3.197v3.199h-3.197v-3.199zM22.398 9.601v3.199h-3.2v-3.199h3.2zM17.599 9.601v3.199h-3.2v-3.199h3.2zM12.799 9.601v3.199h-3.2v-3.199h3.2zM9.601 22.398v-3.199h3.2v3.199h-3.2zM14.401 22.398v-3.199h3.2v3.199h-3.2zM19.2 22.398v-3.199h3.2v3.199h-3.2z"></path>
</svg>
