<svg xmlns="http://www.w3.org/2000/svg" width="100%" height="100%" viewBox="0 0 32 32"><path d="M10.667 13.755c0 .81.155 1.531.466 2.162s.764 1.078 1.362 1.34c.23.095.379.024.449-.214 0-.072.023-.203.069-.393s.081-.31.104-.357c.046-.191 0-.357-.138-.5-.391-.477-.586-1.084-.586-1.823 0-1.215.408-2.252 1.224-3.11s1.868-1.287 3.155-1.287c1.173 0 2.086.328 2.741.983s.983 1.507.983 2.556c0 1.358-.264 2.508-.793 3.449s-1.207 1.411-2.035 1.412c-.483 0-.868-.173-1.155-.518s-.373-.756-.259-1.233c.069-.286.173-.661.311-1.126s.253-.876.345-1.233c.092-.357.138-.667.138-.929 0-.381-.104-.703-.311-.965s-.506-.393-.896-.393c-.483 0-.891.226-1.224.679s-.5 1.013-.5 1.68c0 .262.023.518.069.769s.104.423.173.518l.069.179c-.667 2.859-1.058 4.527-1.172 5.003-.207.905-.207 2.073 0 3.502 0 .048.023.077.069.089s.092.006.138-.018c.828-1.144 1.356-2.156 1.586-3.038.437-1.549.655-2.383.655-2.502.161.31.443.578.845.804s.844.339 1.327.34c1.402 0 2.552-.596 3.448-1.787s1.345-2.704 1.345-4.539c0-1.406-.529-2.633-1.586-3.681s-2.402-1.573-4.035-1.573c-1.977 0-3.534.596-4.672 1.787s-1.707 2.514-1.707 3.967v.001z"/></svg>