<!-- Generated by IcoMoon.io -->
<svg version="1.1" xmlns="http://www.w3.org/2000/svg" width="32" height="32" viewBox="0 0 32 32">
<title>electricity-consumption-next</title>
<path d="M25.89 15.274h-3.81v-3.34h3.81c0 0 0.762 0.062 0.762-0.468s-0.824-0.458-0.824-0.458l-3.748-0.014v-1.66h-4.567c-2.286 0-4.113 1.541-4.494 3.526l-0.077 0.191c-1.673 0-5.73-0.191-5.73 2.648 0 1.393 1.343 2.276 2.357 2.748 1.142 0.568 1.75 1.069 1.75 1.637 0 0.215-0.201 1.47-5.987 1.47v1.112c1.905 0 7.331 0.167 7.331-2.672 0-1.493-1.24-2.009-2.455-2.581-1.143-0.568-1.699-1.308-1.699-1.875 0-1.422 3.3-1.446 4.443-1.446l0.077 0.215c0.381 1.989 2.208 3.55 4.494 3.55h4.571v-1.637h3.81c0.458 0 0.762-0.086 0.762-0.496s-0.325-0.449-0.778-0.449l0.001 0.001zM21.057 16.887h-3.295c-2.487 0-3.707-1.732-3.707-3.293s1.493-3.316 3.707-3.316h3.295v6.609z"></path>
</svg>
