<svg xmlns="http://www.w3.org/2000/svg" width="100%" height="100%" viewBox="0 0 32 32"><path d="M8.001 14.998c0 1.944.681 3.597 2.042 4.958s3.014 2.042 4.958 2.042c1.472 0 2.805-.417 4-1.25l2.916 2.875c.222.25.507.375.854.375s.639-.118.875-.354.354-.528.354-.875-.126-.632-.375-.854l-2.875-2.916C21.583 17.804 22 16.471 22 15c0-1.944-.681-3.597-2.042-4.958S16.944 8 15 8c-1.944 0-3.597.681-4.958 2.042S8 13.056 8 15l.001-.001zm2 0c0-1.389.486-2.569 1.458-3.542s2.153-1.458 3.542-1.458c1.389 0 2.569.486 3.542 1.458s1.458 2.153 1.458 3.542c0 1.389-.486 2.569-1.458 3.542s-2.153 1.458-3.542 1.458c-1.389 0-2.569-.486-3.542-1.458s-1.458-2.153-1.458-3.542z"/></svg>