<svg xmlns="http://www.w3.org/2000/svg" width="100%" height="100%" viewBox="0 0 32 32"><path d="M20.025 8h-7.94c-1.095 0-1.418.886-1.418 1.443v13.559c0 .628.314.861.491.938s.664.142.956-.22c0 0 3.748-4.675 3.813-4.744.097-.105.097-.105.195-.105h2.425c1.019 0 1.183-.781 1.289-1.241.088-.385 1.083-5.856 1.415-7.592C21.504 8.714 21.191 8 20.025 8h-.001zm-.189 9.63c.088-.385 1.083-5.856 1.415-7.592l-1.415 7.592zm-.28-7.321l-.334 1.867c-.04.202-.276.414-.496.414h-3.093c-.348 0-.597.255-.597.628v.407c0 .374.251.639.599.639h2.625c.246 0 .487.289.434.571-.054.283-.303 1.682-.333 1.836s-.195.419-.487.419h-2.142c-.39 0-.508.055-.769.403s-2.608 3.378-2.608 3.378c-.024.029-.047.021-.047-.011V10.28c0-.238.193-.519.483-.519h6.372c.234 0 .453.237.394.547v.001z"/></svg>