<!-- Generated by IcoMoon.io -->
<svg version="1.1" xmlns="http://www.w3.org/2000/svg" width="32" height="32" viewBox="0 0 32 32">
<title>foursquare</title>
<path d="M20.025 8c0 0-6.845 0-7.94 0s-1.418 0.886-1.418 1.443c0 0.558 0 13.559 0 13.559 0 0.628 0.314 0.861 0.491 0.938s0.664 0.142 0.956-0.22c0 0 3.748-4.675 3.813-4.744 0.097-0.105 0.097-0.105 0.195-0.105 0.195 0 1.64 0 2.425 0 1.019 0 1.183-0.781 1.289-1.241 0.088-0.385 1.083-5.856 1.415-7.592 0.253-1.324-0.060-2.038-1.226-2.038h-0.001zM19.836 17.63c0.088-0.385 1.083-5.856 1.415-7.592l-1.415 7.592zM19.556 10.309l-0.334 1.867c-0.040 0.202-0.276 0.414-0.496 0.414s-3.093 0-3.093 0c-0.348 0-0.597 0.255-0.597 0.628v0.407c0 0.374 0.251 0.639 0.599 0.639 0 0 2.379 0 2.625 0s0.487 0.289 0.434 0.571c-0.054 0.283-0.303 1.682-0.333 1.836s-0.195 0.419-0.487 0.419c-0.246 0-2.142 0-2.142 0-0.39 0-0.508 0.055-0.769 0.403s-2.608 3.378-2.608 3.378c-0.024 0.029-0.047 0.021-0.047-0.011v-10.58c0-0.238 0.193-0.519 0.483-0.519 0 0 6.123 0 6.372 0 0.234 0 0.453 0.237 0.394 0.547v0.001z"></path>
</svg>
