<!-- Generated by IcoMoon.io -->
<svg version="1.1" xmlns="http://www.w3.org/2000/svg" width="32" height="32" viewBox="0 0 32 32">
<title>limousine-trunk-pcm</title>
<path d="M10.769 14.105c0.939-0.187 2.123-0.354 3.13-0.354h0.14c0.602 0 2.009 0 2.99 0.238 1.463 0.333 2.533 0.975 3.088 1.365 2.523 0.207 4.095 0.51 4.941 0.94 0.26 0.126 0.628 0.364 0.939 0.611 0.591 0.46 0.669 0.687 0.669 0.865 0 0.961-0.244 1.683-0.254 1.714l-0.052 0.157-0.156 0.066c-0.016 0.005-0.415 0.177-1.308 0.395-0.487 0.763-1.34 1.233-2.263 1.233-0.83 0-1.573-0.339-2.025-0.91h-8.579c-0.514 0.581-1.236 0.91-2.009 0.91-0.913 0-1.739-0.46-2.206-1.213l-1.271-0.167-0.057-0.031c-0.54-0.258-1.153-1.042-1.153-1.471v-0.025c0.042-0.627 0.213-1.739 0.524-2.224l0.659 0.404c-0.171 0.273-0.353 1.102-0.404 1.829 0.046 0.152 0.358 0.602 0.664 0.784l1.536 0.197 0.093 0.182c0.306 0.602 0.929 0.975 1.614 0.975 0.586 0 1.142-0.278 1.511-0.759l0.12-0.152h9.379l0.114 0.182c0.291 0.455 0.846 0.728 1.49 0.728 0.695 0 1.334-0.374 1.666-0.98l0.083-0.152 0.171-0.040c0.591-0.137 0.971-0.258 1.168-0.328 0.062-0.233 0.156-0.687 0.166-1.238-0.15-0.192-0.784-0.672-1.183-0.869l-0.005-0.005c-0.752-0.384-2.305-0.667-4.754-0.869l-0.114-0.010-0.094-0.056c-0.473-0.349-1.479-0.975-2.891-1.299h-0.005c-0.888-0.218-2.279-0.218-2.803-0.218h-0.14c-1.276 0-2.849 0.283-3.774 0.51l-0.198-0.713-3.167-3.084 0.519-0.556 3.49 3.438z"></path>
</svg>
