<!-- Generated by IcoMoon.io -->
<svg version="1.1" xmlns="http://www.w3.org/2000/svg" width="32" height="32" viewBox="0 0 32 32">
<title>climate-next</title>
<path d="M18.333 11.637v-0.728h-1.333v-1.455c0-0.804-0.595-1.455-1.333-1.455s-1.333 0.65-1.333 1.455v9.915c-0.604 0.461-1 1.222-1 2.085 0 1.406 1.045 2.545 2.333 2.545s2.333-1.14 2.333-2.545c0-0.863-0.395-1.629-1-2.085v-1.915h1.333v-0.728h-1.333v-2.182h1.333v-0.728h-1.333v-2.182h1.333v0.002zM15 9.455c0-0.403 0.298-0.728 0.667-0.728s0.667 0.325 0.667 0.728v5.454h-1.333v-5.454h-0.001z"></path>
</svg>
