<!-- Generated by IcoMoon.io -->
<svg version="1.1" xmlns="http://www.w3.org/2000/svg" width="32" height="32" viewBox="0 0 32 32">
<title>highspeed</title>
<path d="M18.549 17.479l-0.001-0.001c0.335-0.27 0.837-0.229 1.118 0.094 0.136 0.156 0.201 0.354 0.182 0.558s-0.118 0.389-0.28 0.519l-3.102 2.506c-0.148 0.12-0.329 0.178-0.509 0.178-0.227 0-0.452-0.093-0.609-0.273-0.281-0.322-0.237-0.805 0.098-1.076l3.102-2.506zM20.25 20.825h0.001v-1.205h4.531c-0.124-0.773-0.357-1.522-0.695-2.235l-1.069 0.644c-0.183 0.102-0.397 0.128-0.602 0.075s-0.376-0.18-0.482-0.356c-0.217-0.363-0.089-0.828 0.285-1.040l1.084-0.652c-0.498-0.691-1.099-1.307-1.793-1.836l-0.736 1.115c-0.106 0.172-0.276 0.296-0.479 0.347-0.205 0.052-0.419 0.025-0.602-0.077s-0.314-0.267-0.368-0.465c-0.055-0.198-0.026-0.404 0.080-0.58l0.777-1.181c-1.052-0.541-2.222-0.874-3.422-0.972l-0.003 1.445c-0.001 0.421-0.356 0.763-0.794 0.763-0.001 0-0.001 0-0.002 0-0.437-0.001-0.793-0.345-0.792-0.766l0.003-1.436c-1.155 0.102-2.252 0.413-3.272 0.927l0.785 1.223c0.106 0.177 0.133 0.382 0.078 0.58s-0.186 0.362-0.37 0.464c-0.377 0.209-0.861 0.085-1.081-0.275l-0.748-1.164c-0.711 0.531-1.327 1.151-1.836 1.85l1.158 0.704c0.18 0.102 0.308 0.266 0.362 0.461 0.055 0.198 0.026 0.404-0.080 0.58-0.219 0.365-0.705 0.489-1.084 0.278l-1.148-0.697c-0.348 0.725-0.588 1.489-0.715 2.279h4.534v1.205h-6.421l0.018-0.372c0.13-2.641 1.293-5.104 3.278-6.935 1.992-1.838 4.61-2.851 7.371-2.851s5.379 1.013 7.371 2.851c1.984 1.831 3.148 4.294 3.278 6.935l0.018 0.372h-6.417z"></path>
</svg>
