<!-- Generated by IcoMoon.io -->
<svg version="1.1" xmlns="http://www.w3.org/2000/svg" width="32" height="32" viewBox="0 0 32 32">
<title>hatena-bookmark</title>
<path d="M18.336 18.488c0 0.642-0.123 1.215-0.369 1.721s-0.582 0.924-1.011 1.257c-0.497 0.392-1.043 0.672-1.637 0.838s-1.35 0.25-2.264 0.25h-5.055v-13.22h4.445c1.016 0 1.759 0.035 2.23 0.107s0.938 0.229 1.401 0.472c0.48 0.256 0.836 0.547 1.070 0.977s0.351 0.923 0.351 1.475c0 0.642-0.161 1.208-0.483 1.698s-0.776 0.873-1.363 1.146v0.072c0.824 0.172 1.477 0.529 1.959 1.069s0.724 1.253 0.724 2.139v-0.001zM14.172 13.058c0-0.188-0.052-0.377-0.156-0.566s-0.289-0.357-0.555-0.448c-0.237-0.081-0.532-0.143-0.884-0.151s-0.457 0.006-1.094 0.006h-0.305v2.438h0.117c0.513 0 0.951-0.008 1.312-0.023s0.646-0.066 0.854-0.153c0.293-0.117 0.485-0.269 0.575-0.455s0.136-0.401 0.136-0.647zM14.959 18.444c0-0.406-0.077-0.718-0.232-0.938s-0.419-0.384-0.79-0.493c-0.253-0.074-0.603-0.133-1.047-0.139s-0.909 0.010-1.394 0.010h-0.319v3.178h-0.155c0.912 0 1.565-0.003 1.959-0.009s0.757-0.080 1.090-0.222c0.338-0.143 0.57-0.333 0.697-0.569s0.19-0.509 0.19-0.818l0.001-0.001zM24 9.333l-0.389 9.308h-2.759l-0.389-9.308h3.538zM23.736 21.219c0 0.8-0.674 1.448-1.504 1.448s-1.504-0.649-1.504-1.448c0-0.8 0.674-1.448 1.504-1.448s1.504 0.649 1.504 1.448z"></path>
</svg>
