<!-- Generated by IcoMoon.io -->
<svg version="1.1" xmlns="http://www.w3.org/2000/svg" width="32" height="32" viewBox="0 0 32 32">
<title>window-next</title>
<path d="M24.046 14.741v0.001c1.605 0.811 2.621 2.475 2.621 4.293v3.632h-15.076c-2.26 0-4.206-1.611-4.648-3.856l-1.61-8.144h9.549c0.731 0 1.457 0.171 2.118 0.507l7.045 3.568zM25.905 21.866v0.001-2.832c0-1.521-0.838-2.891-2.189-3.574l-7.045-3.568c-0.549-0.277-1.169-0.427-1.788-0.427h-8.615l1.422 7.178c0.366 1.867 2.007 3.221 3.901 3.221h14.314zM15.325 13.066h-0.001c0.417 0 0.839 0.102 1.209 0.294l7.086 3.707h-14.466l-0.772-4h6.944z"></path>
</svg>
