<!-- Generated by IcoMoon.io -->
<svg version="1.1" xmlns="http://www.w3.org/2000/svg" width="32" height="32" viewBox="0 0 32 32">
<title>advisor-not-available</title>
<path d="M11.692 21.607l-0.234 0.234-2.124 2.159v-1.115l1.418-1.439c-0.132-0.034-0.18-0.055-0.18-0.055 0-1.592 2.697-3.325 3.975-3.796l0.681-0.691c0.022-0.171 0.023-0.314 0.023-0.314s-0.882-1.395-1.081-2.091c-0.199-0.7-0.99-5.465 2.289-5.465 2.43 0 2.729 2.35 2.534 4.049l5.008-5.083v1.115l-5.335 5.415c-0.456 1.167-0.999 2.060-0.999 2.060s0.007 0.842 0.308 0.891c0.973 0.156 4.357 2.123 4.357 3.909h0.001c0 0-0.875 0.426-5.845 0.426-2.46 0-3.933-0.104-4.795-0.21z"></path>
</svg>
