<!-- Generated by IcoMoon.io -->
<svg version="1.1" xmlns="http://www.w3.org/2000/svg" width="32" height="32" viewBox="0 0 32 32">
<title>idea</title>
<path d="M5.333 14.176h1.819v1.77h-1.819v-1.77zM23.565 14.19h1.768v1.744h-1.768v-1.744zM16.888 24.649h0.001c0.287 0 0.517 0.227 0.516 0.505s-0.23 0.505-0.517 0.505c0 0.556-0.464 1.008-1.035 1.008h-1.035c-0.571 0-1.035-0.452-1.035-1.008-0.286 0-0.517-0.227-0.517-0.505s0.23-0.505 0.517-0.505h3.106zM14.431 5.333h1.841v2.65h-1.841v-2.65zM8.435 7.798l2.468 2.075-1.518 1.543-2.468-2.076 1.518-1.542zM16.888 23.137c0.286 0 0.517 0.225 0.517 0.503 0 0.281-0.23 0.505-0.517 0.505h-3.106c-0.286 0-0.517-0.223-0.517-0.505 0-0.278 0.23-0.503 0.517-0.503h3.106zM22.166 7.538l1.585 1.478-2.132 2.403-1.585-1.476 2.132-2.404zM15.334 10.537c2.861 0 5.178 2.256 5.177 5.038 0 1.862-1.047 3.47-2.589 4.342v1.706c0 0.557-0.464 1.008-1.035 1.008h-3.106c-0.571 0-1.035-0.45-1.035-1.008v-1.706c-1.541-0.873-2.589-2.48-2.589-4.342 0-2.782 2.319-5.038 5.178-5.038z"></path>
</svg>
