<svg xmlns="http://www.w3.org/2000/svg" width="100%" height="100%" viewBox="0 0 32 32"><path d="M16.043 13.039c1.921 0 5.841 0 7.312.413l.021.457.445.286c1.12.715 1.193.765 1.781 1.176.165.523.093 2.056-.124 2.508-.15.115-.594.303-.961.401l-.594.154-.129.638c-.145.715-.739 1.232-1.42 1.232-.578 0-1.105-.369-1.338-.935l-.253-.621h-9.408l-.253.621c-.232.567-.759.935-1.338.935-.599 0-1.125-.385-1.353-.979l-.248-.649h-.661c-.702 0-1.141-.33-1.219-.484 0-.99.016-1.249.315-1.705.269-.413 1.209-.902 6.103-1.375l.284-.027.227-.187.145-.121c1.797-1.513 2.442-1.738 2.665-1.738l.001.001zm0-1.039c-1.002 0-2.773 1.545-3.408 2.073-5.355.517-6.331 1.066-6.816 1.815s-.485 1.298-.485 2.332c0 .753.976 1.485 2.189 1.485.362.951 1.234 1.628 2.256 1.628.996 0 1.854-.643 2.231-1.557h8.138c.377.913 1.229 1.557 2.231 1.557 1.172 0 2.137-.88 2.37-2.051 0 0 1.219-.319 1.524-.797.485-.775.563-3.486 0-3.888-.728-.517-.728-.517-1.947-1.298 0 0-.062-.627-.485-.775-1.358-.484-4.875-.523-7.798-.523L16.042 12z"/></svg>