<svg xmlns="http://www.w3.org/2000/svg" width="100%" height="100%" viewBox="0 0 32 32"><path d="M10.667 16.804c0 .954.351 1.771 1.054 2.451s1.541 1.02 2.514 1.02c.865 0 1.622-.275 2.27-.824l1.825 1.49c-.135.261-.203.549-.203.863 0 .602.223 1.118.669 1.549s.98.647 1.602.647c.622 0 1.156-.216 1.602-.647s.669-.948.669-1.549c0-.602-.223-1.118-.669-1.549s-.98-.647-1.602-.647c-.46 0-.879.118-1.257.353l-1.784-1.451c.297-.523.446-1.085.446-1.687 0-.784-.243-1.49-.73-2.118l2.351-2.51c.297.131.622.196.973.196.622 0 1.156-.216 1.602-.647s.669-.948.669-1.549c0-.602-.223-1.118-.669-1.549s-.98-.647-1.602-.647c-.622 0-1.156.216-1.602.647s-.669.948-.669 1.549c0 .418.108.797.324 1.138l-2.351 2.549c-.568-.34-1.189-.51-1.865-.51-.973 0-1.811.333-2.514 1s-1.054 1.477-1.054 2.431z"/></svg>