<!-- Generated by IcoMoon.io -->
<svg version="1.1" xmlns="http://www.w3.org/2000/svg" width="32" height="32" viewBox="0 0 32 32">
<title>e-route</title>
<path d="M16.439 20.251h-0.001c1.912 0.425 4.081 0.906 4.401 2.59 0.095 0.501-0.025 0.985-0.346 1.397-1.086 1.396-4.751 2.197-11.158 2.429 0-0.029-0.002-0.639-0.002-0.954 7.816-0.292 9.924-1.386 10.462-2.078 0.152-0.196 0.202-0.383 0.159-0.608-0.203-1.069-2.143-1.5-3.701-1.846-1.489-0.33-2.665-0.591-3.031-1.362-0.203-0.429-0.178-0.902 0.072-1.327 0.437-0.744 1.501-1.262 2.589-1.262v0.951c-0.842 0-1.587 0.413-1.821 0.811-0.109 0.186-0.074 0.313-0.032 0.402 0.171 0.361 1.464 0.648 2.409 0.858zM21.079 18.204h-3.411v-3.459c-0.153-0.035-0.303-0.075-0.43-0.122l-0.030-0.010c-0.191-0.060-0.451-0.142-0.648-0.259-1.078-0.598-1.77-1.608-1.851-2.704-0.010-0.132-0.022-0.61 0.002-2.745l0.005-0.478h1.014v-1.369c0-0.241 0.018-0.6 0.17-0.942 0.226-0.505 0.667-0.783 1.241-0.783 0.893 0 1.449 0.661 1.449 1.725v1.369h1.569v-1.369c0-0.243 0.019-0.605 0.178-0.948 0.233-0.501 0.684-0.777 1.271-0.777 0.584 0 1.028 0.273 1.249 0.77 0.163 0.365 0.162 0.753 0.162 0.94v1.384h0.981v3.185c0 0.825-0.353 1.573-1.021 2.165-0.503 0.445-1.154 0.776-1.9 0.968v3.459zM18.586 17.238h1.576v-3.289l0.379-0.071c1.265-0.236 2.542-1.028 2.542-2.265v-2.219h-0.981v-2.352c0-0.125 0-0.359-0.075-0.527-0.033-0.075-0.096-0.215-0.42-0.215-0.269 0-0.531 0.059-0.531 0.759v2.336h-3.404v-2.336c0-0.759-0.372-0.759-0.531-0.759-0.25 0-0.494 0.059-0.494 0.759v2.336h-1.024c-0.009 0.995-0.013 1.976-0.002 2.149l0.001 0.007 0.002 0.025c0.056 0.764 0.569 1.484 1.369 1.927l0.013 0.007c0.107 0.064 0.324 0.133 0.467 0.178l0.063 0.020c0.183 0.069 0.504 0.131 0.675 0.164l0.376 0.073v3.293z"></path>
</svg>
