<!-- Generated by IcoMoon.io -->
<svg version="1.1" xmlns="http://www.w3.org/2000/svg" width="32" height="32" viewBox="0 0 32 32">
<title>rss</title>
<path d="M10.128 19.736c1.176 0 2.129 0.952 2.133 2.127-0.001 1.172-0.951 2.122-2.125 2.122s-2.125-0.951-2.125-2.125c0-1.17 0.946-2.12 2.116-2.125zM8.003 8h-0.001c8.82 0 15.998 7.181 15.998 16.003h-3.076c0-7.132-5.795-12.935-12.92-12.935v-3.068zM8 13.437v0.001c5.822 0 10.562 4.739 10.562 10.566h-3.080c0-0.002 0-0.006 0-0.008 0-4.134-3.348-7.486-7.482-7.491v-3.068z"></path>
</svg>
