<svg xmlns="http://www.w3.org/2000/svg" width="100%" height="100%" viewBox="0 0 32 32"><path d="M20.25 20.201h.001v-1.289h4.531c-.124-.827-.357-1.629-.695-2.391l-1.069.689c-.183.109-.397.137-.602.08s-.376-.192-.482-.381c-.217-.389-.089-.885.285-1.112l1.084-.698c-.498-.74-1.099-1.398-1.793-1.964l-.736 1.193c-.106.184-.276.316-.479.372-.205.056-.419.027-.602-.082s-.314-.286-.368-.497c-.055-.211-.026-.432.08-.62l.777-1.264c-1.052-.579-2.222-.935-3.422-1.04l-.003 1.545c-.001.45-.356.816-.794.816h-.002c-.437-.001-.793-.369-.792-.819l.003-1.536c-1.155.109-2.252.442-3.272.992l.785 1.309c.106.189.133.409.078.62s-.186.387-.37.496c-.377.224-.861.091-1.081-.295l-.748-1.245c-.711.568-1.327 1.232-1.836 1.979l1.158.753c.18.11.308.284.362.493.055.211.026.432-.08.62-.219.39-.705.524-1.084.298l-1.148-.746c-.348.776-.588 1.593-.715 2.438h4.534v1.289H5.334l.018-.398c.13-2.826 1.293-5.46 3.278-7.419 1.992-1.966 4.61-3.05 7.371-3.05s5.379 1.083 7.371 3.05c1.984 1.959 3.148 4.594 3.278 7.419l.018.398h-6.417zm-2.779-5.042l-1.247 3.731h2.748L14.486 24l1.247-3.731h-2.748l4.486-5.11z"/></svg>