<!-- Generated by IcoMoon.io -->
<svg version="1.1" xmlns="http://www.w3.org/2000/svg" width="32" height="32" viewBox="0 0 32 32">
<title>wind-tunnel</title>
<path d="M16 8c-4.418 0-8 3.582-8 8s3.582 8 8 8c4.418 0 8-3.582 8-8s-3.582-8-8-8zM16.012 16.015l-0.001 0.006 5.476 4.798h-1.805l-3.685-4.8-0.005 0.004 0.48 7.265-1.276-1.276 0.789-6.001-0.006-0.001-4.798 5.476v-1.805l4.8-3.685-0.004-0.005-7.265 0.48 1.276-1.276 6.001 0.789 0.001-0.006-5.476-4.798h1.805l3.685 4.8 0.005-0.004-0.479-7.265 1.276 1.276-0.789 6.001 0.006 0.001 4.798-5.476v1.805l-4.8 3.685 0.004 0.005 7.265-0.479-1.276 1.276-6.001-0.789z"></path>
</svg>
