<!-- Generated by IcoMoon.io -->
<svg version="1.1" xmlns="http://www.w3.org/2000/svg" width="32" height="32" viewBox="0 0 32 32">
<title>duration-next</title>
<path d="M12.643 9.853l0.001 0.001c-0.253 0.142-0.502 0.297-0.733 0.471l-0.587-0.809c0-0.004 0.004-0.004 0.004-0.004 0-0.004 0.004-0.004 0.004-0.004 0-0.004 0.004-0.004 0.004-0.004s0.004-0.004 0.004-0.004c0 0 0.004-0.004 0.004-0.004 0-0.005 0.004-0.005 0.009-0.009 0.262-0.187 0.533-0.356 0.809-0.507l0.48 0.876zM10.105 12.218l0.004-0.004c-0.156 0.245-0.298 0.502-0.409 0.747l-0.902-0.431c0.062-0.134 0.133-0.267 0.204-0.4 0 0 0.004-0.004 0.004-0.004 0-0.004 0.004-0.004 0.004-0.009s0.004-0.004 0.004-0.009c0.004 0 0.004-0.004 0.004-0.004 0-0.004 0-0.004 0-0.004 0.004 0 0.004-0.004 0.004-0.004 0-0.004 0-0.004 0-0.004 0-0.004 0-0.004 0-0.004 0-0.004 0-0.004 0-0.004 0-0.004 0-0.004 0-0.004 0-0.004 0-0.004 0-0.004s0-0.004 0-0.004 0-0.004 0-0.004 0-0.004 0-0.004 0-0.004 0-0.004c0-0.004 0-0.004 0-0.004 0.004 0 0.004-0.004 0.004-0.004 0.004 0 0.004-0.004 0.004-0.004 0.004 0 0.004-0.004 0.004-0.004 0.004 0 0.004-0.004 0.004-0.004 0.004 0 0.004-0.004 0.004-0.004 0.004 0 0.004-0.004 0.004-0.004 0.004 0 0.004-0.004 0.004-0.004 0.004 0 0.004-0.004 0.004-0.004s0.004-0.004 0.004-0.009c0.066-0.111 0.133-0.223 0.204-0.334l0.84 0.542zM9.015 15.503h-0.001c-0.022 0.289-0.022 0.587-0.004 0.875l-1 0.053c-0.017-0.333-0.013-0.666 0.009-1l0.996 0.071zM15.999 11.001l-0.001 0.001c0.169 0 0.338 0.009 0.498 0.026v4.769l3.356 3.356c0.005 0.009 0.009 0.018 0.014 0.022-0.208 0.253-0.445 0.489-0.698 0.698-0.009-0.005-0.018-0.009-0.022-0.014l-3.503-3.503c-0.044-0.048-0.080-0.102-0.107-0.164s-0.040-0.124-0.040-0.191v-4.974c0.169-0.018 0.333-0.026 0.502-0.026zM21.657 10.343h-0.001c3.125 3.124 3.125 8.192 0 11.317-1.565 1.56-3.609 2.343-5.658 2.343s-4.094-0.782-5.658-2.347l-1.769 1.769v-4.245h4.263l-1.769 1.769c1.325 1.32 3.081 2.049 4.952 2.049s3.626-0.729 4.951-2.049c2.729-2.73 2.729-7.17 0-9.899-1.325-1.32-3.081-2.049-4.952-2.049-0.293 0-0.587 0.018-0.876 0.053l-0.124-0.991c0.284-0.036 0.565-0.058 0.849-0.063h0.031c0.005 0 0.009 0 0.014 0h0.026c0 0 0.004 0 0.009 0h0.053c2.049 0 4.094 0.782 5.658 2.343z"></path>
</svg>
