<!-- Generated by IcoMoon.io -->
<svg version="1.1" xmlns="http://www.w3.org/2000/svg" width="32" height="32" viewBox="0 0 32 32">
<title>testdrive</title>
<path d="M16 8c-4.418 0-8 3.582-8 8s3.582 8 8 8c4.418 0 8-3.582 8-8s-3.582-8-8-8zM12.525 21.437c-0.467-0.277-0.989-0.726-1.485-1.221-1.706-1.7-1.049-3.522-1.049-3.522 0.029 0.048 0.41 0.145 0.41 0.145s0.123 0.671 0.161 0.71c0.038 0.039 0.142 0.058 0.31 0.104s0.226-0.032 0.213-0.149c-0.013-0.117-0.064-0.516-0.064-0.516s0.265 0.051 0.969 0.206c0.704 0.155 0.865 0.161 0.994 0.51s0.394 0.872 0.781 1.285c0.387 0.413 0.549 0.452 0.665 0.769s0.374 2.305 0.381 2.421c0 0-1.007 0.016-2.286-0.743h0.001zM20.999 20.217c-0.496 0.494-1.018 0.943-1.485 1.221-1.279 0.759-2.286 0.743-2.286 0.743 0.006-0.117 0.265-2.105 0.381-2.421s0.278-0.355 0.665-0.769c0.387-0.413 0.652-0.936 0.781-1.285s0.291-0.355 0.994-0.51c0.704-0.155 0.969-0.206 0.969-0.206s-0.051 0.4-0.064 0.516c-0.013 0.117 0.045 0.194 0.213 0.149s0.271-0.064 0.31-0.104c0.038-0.039 0.161-0.71 0.161-0.71s0.381-0.097 0.41-0.145c0 0 0.657 1.822-1.049 3.522h0.001zM21.806 14.36c-0.198 0.021-0.28 0.026-0.321 0.064s-0.053 0.107-0.053 0.107l-0.022-0.006c0 0 0.144-0.169-0.137-0.236s-0.583-0.115-0.636-0.081c-0.053 0.034-0.008 0.074 0.029 0.104s0.050 0.095 0.050 0.095c0 0-0.425 0.003-1.181-0.003s-1.124 0.045-1.529-0.21c-0.405-0.255-1.005-0.638-1.985-0.638s-1.606 0.428-1.808 0.539c-0.201 0.112-0.369 0.205-1.253 0.233 0 0-1.466 0.066-1.555 0.045s0.071-0.086-0.014-0.16c-0.086-0.074-0.684 0.086-0.735 0.126s0.026 0.129 0.026 0.129l-0.022 0.003c0 0-0.016-0.145-0.195-0.16-0.096-0.008-0.516 0.017-0.622-0.231-0.123-0.291 0.043-0.525 0.245-0.775 0.436-0.537 0.847-1.133 0.959-1.317s0.107-0.174 0.058-0.262c0 0 0.063-0.005 0.145-0.131s1.661-2.116 4.77-2.111c3.109 0.005 4.717 2.049 4.81 2.155 0 0 0.074 0.091 0.108 0.115 0 0-0.039 0.12 0.029 0.219s0.757 1.038 1.058 1.446c0.3 0.409 0.294 0.532 0.237 0.699s-0.255 0.219-0.454 0.241l-0.002-0.001z"></path>
</svg>
