<svg xmlns="http://www.w3.org/2000/svg" width="100%" height="100%" viewBox="0 0 32 32"><path d="M25.848 16.643c-1.858-.844-4.993-.961-4.993-.961l-2.985-1.55c-.905-.377-1.877-.57-2.86-.57H9.238c-.107 0-.218.038-.324.094l-3.067-2.988-.513.499 3.169 3.087.3.316h.445v-.306h5.758c.88 0 1.737.17 2.55.505l3.106 1.611.164.005c.029 0 3.015.122 4.713.896.242.109.396.358.396.631v.689c0 .071-.015.109-.019.118l-1.544.49-.344.113-.116.335c-.198.58-.75.971-1.369.971-.61 0-1.157-.382-1.364-.943l-.17-.471h-8.787l-.17.471c-.208.566-.755.943-1.364.943s-1.161-.382-1.365-.952l-.121-.335-.348-.103-1.781-.542v-1.607h-.726v1.607c0 .311.208.584.508.674l1.781.542c.295.829 1.099 1.423 2.047 1.423s1.746-.594 2.047-1.414h7.771c.3.82 1.099 1.414 2.047 1.414.963 0 1.771-.613 2.056-1.452l1.563-.509c.295-.094.499-.368.499-.773v-.689c.005-.537-.31-1.041-.817-1.268l-.001-.001z"/></svg>