<!-- Generated by IcoMoon.io -->
<svg version="1.1" xmlns="http://www.w3.org/2000/svg" width="32" height="32" viewBox="0 0 32 32">
<title>whatsapp</title>
<path d="M21.669 10.325c-1.434-1.437-3.42-2.325-5.615-2.325-0.007 0-0.015 0-0.022 0-4.388 0-7.964 3.556-7.965 7.928 0 0.002 0 0.005 0 0.009 0 1.456 0.395 2.82 1.084 3.992l-1.152 4.071 4.223-1.103c1.1 0.608 2.412 0.965 3.807 0.965h0.003c4.389 0 7.965-3.557 7.967-7.928 0-0.007 0-0.015 0-0.024 0-2.182-0.891-4.157-2.331-5.584zM16.034 22.522h-0.003c0 0 0 0 0 0-1.243 0-2.406-0.341-3.399-0.935l-0.213-0.123-2.506 0.654 0.669-2.431-0.157-0.25c-0.635-0.992-1.012-2.201-1.012-3.498 0-0.004 0-0.007 0-0.010 0-3.633 2.971-6.588 6.624-6.588 3.655 0.004 6.617 2.953 6.617 6.591 0 0.001 0 0.002 0 0.003 0 3.632-2.971 6.588-6.62 6.588l-0-0.001zM19.666 17.587c-0.199-0.099-1.178-0.578-1.36-0.645s-0.315-0.099-0.448 0.099c-0.133 0.199-0.514 0.645-0.631 0.776s-0.232 0.148-0.432 0.049c-0.199-0.099-0.843-0.309-1.601-0.983-0.592-0.526-0.991-1.174-1.108-1.373s-0.013-0.306 0.089-0.404c0.089-0.088 0.199-0.231 0.298-0.348s0.133-0.198 0.199-0.331c0.066-0.133 0.033-0.248-0.017-0.348s-0.448-1.075-0.613-1.471c-0.161-0.386-0.326-0.334-0.448-0.34s-0.249-0.007-0.381-0.007c-0.212 0.005-0.401 0.1-0.532 0.247-0.183 0.2-0.697 0.678-0.697 1.653s0.713 1.917 0.813 2.049c0.099 0.132 1.404 2.133 3.401 2.991 0.293 0.133 0.669 0.275 1.054 0.398 0.319 0.097 0.591 0.14 0.875 0.14 0.163 0 0.322-0.014 0.477-0.041 0.366-0.055 1.161-0.477 1.327-0.939s0.166-0.86 0.116-0.942c-0.050-0.082-0.182-0.132-0.381-0.231l-0-0.003z"></path>
</svg>
