<svg xmlns="http://www.w3.org/2000/svg" width="100%" height="100%" viewBox="0 0 32 32"><path d="M25.25 13.901v-.825h1.416v-.738H25.25v-.824h1.416v-.772H25.25v-.824h1.416v-.82c0-.966-.781-1.75-1.743-1.75h-4.03c-.962 0-1.743.784-1.743 1.75v.831h1.427v.824H19.15v.772h1.427v.824H19.15v.738h1.427v.824H19.15v.876c0 .873.637 1.595 1.471 1.727V16.1c0-.484.39-.875.871-.875h.145l-4.004 5.579c-.476-.292-1.035-.463-1.634-.463-.475 0-.926.109-1.33.299l-4.259-7.431h.098c.482 0 .871.392.871.875v.414c.832-.132 1.471-.854 1.471-1.727v-.887h-1.418v-.824h1.416v-.738h-1.416v-.824h1.416v-.772h-1.416v-.824h1.416v-.82c0-.966-.781-1.75-1.743-1.75h-4.03c-.962 0-1.743.784-1.743 1.75v.831h1.427v.824H5.332v.772h1.427v.824H5.332v.738h1.427v.824H5.332v.876c0 .873.637 1.595 1.471 1.727v-.414c0-.425.302-.778.701-.858l5.7 8.821c-.226.437-.356.932-.356 1.457 0 1.747 1.41 3.163 3.15 3.163s3.15-1.416 3.15-3.163c0-.456-.098-.889-.271-1.281l5.644-6.975c.387.09.674.437.674.852v.414c.832-.132 1.471-.854 1.471-1.727V13.9l-1.416.001zM16 25.245c-.957 0-1.733-.779-1.733-1.741s.776-1.741 1.733-1.741c.957 0 1.733.779 1.733 1.741s-.775 1.741-1.733 1.741z"/></svg>