<!-- Generated by IcoMoon.io -->
<svg version="1.1" xmlns="http://www.w3.org/2000/svg" width="32" height="32" viewBox="0 0 32 32">
<title>help-and-contact</title>
<path d="M18.125 12.453c0.535 0.001 0.969 0.434 0.971 0.97v6.137c0 0.538-0.435 0.974-0.971 0.974h-4.268l-3.754 2.133v-2.129h-1.131c-0.536 0-0.971-0.436-0.971-0.974v-6.137c0-0.538 0.435-0.974 0.971-0.974h9.153zM13.946 19.145v-0.778c0-0.085-0.068-0.154-0.153-0.154h-0.766c-0.002 0-0.003 0-0.005 0-0.084 0-0.153 0.066-0.157 0.15v0.786c0.005 0.083 0.073 0.15 0.157 0.15 0.002 0 0.004 0 0.005 0h0.766c0.084 0 0.153-0.068 0.153-0.154zM15.228 16.127l-0.002 0.005c0.176-0.235 0.282-0.526 0.283-0.843-0-0.543-0.191-0.952-0.572-1.228s-0.858-0.414-1.435-0.414c-0.439 0-0.809 0.098-1.11 0.291-0.478 0.304-0.729 0.817-0.76 1.545l1.122 0.001c0-0.007 0-0.016 0-0.023 0-0.218 0.063-0.421 0.169-0.588 0.123-0.198 0.333-0.297 0.628-0.297 0.301 0 0.507 0.079 0.618 0.236 0.107 0.148 0.171 0.329 0.171 0.526 0 0.002 0 0.005 0 0.007 0 0.169-0.084 0.325-0.188 0.469-0.060 0.085-0.134 0.159-0.22 0.223 0 0-0.6 0.385-0.865 0.698-0.153 0.179-0.166 0.372-0.18 0.758-0.001 0.028 0.009 0.085 0.105 0.085h0.86c0.003 0.001 0.007 0.001 0.010 0.001 0.051 0 0.093-0.041 0.095-0.092 0.005-0.14 0.022-0.135 0.047-0.216 0.049-0.154 0.18-0.287 0.328-0.402l0.305-0.212c0.275-0.215 0.494-0.391 0.591-0.529zM23.027 9.333h-0.001c0.536 0.001 0.971 0.435 0.973 0.972v4.678c-0.003 0.51-0.396 0.927-0.898 0.968l-2.723-0.034v-2.918c0-1.071-0.759-1.833-1.828-1.833h-3.842l-0.003-0.861c0.003-0.537 0.437-0.972 0.973-0.973h7.348z"></path>
</svg>
