<svg xmlns="http://www.w3.org/2000/svg" width="100%" height="100%" viewBox="0 0 32 32"><path d="M5.335 16.413c.005-.193.076-.375.214-.513.564-.592 2.061-1.97 2.061-1.97 0-.41.34-.741.762-.741h2.299v.741H8.372v.321l-.239.217c-.015.015-1.482 1.362-2.02 1.93-.011.009-.015.02-.015.035-.011.741-.005.997-.005 1.076l.011.035v.987c0 .024.015.044.036.05l2.203.661.127.351c.254.711 1.02 1.14 1.802.952.523-.129.914-.548 1.092-1.042l.142-.395h9.229l.147.404c.183.494.578.918 1.107 1.037.787.178 1.543-.261 1.792-.978l.122-.351.361-.118 1.62-.513c.005-.009.02-.05.02-.123v-.721c0-.287-.162-.548-.416-.661-1.787-.809-4.914-.938-4.945-.938l-.172-.005-3.259-1.688c-.848-.351-1.746-.528-2.67-.528l-5.614-2.586.32-.671 5.457 2.527c.005.005.015.005.02.005.965.024 1.919.217 2.813.588l3.122 1.619c.01.005.01.005.015.005.158.005 3.3.143 5.203.992.548.247.889.794.889 1.377v.686c0 .43-.208.711-.523.809l-1.615.528c-.015.005-.025.015-.031.03-.309.869-1.153 1.5-2.152 1.5-.98 0-1.812-.607-2.132-1.451-.005-.02-.025-.03-.046-.03h-8.087c-.02 0-.041.015-.046.03-.325.844-1.153 1.451-2.132 1.451-.99 0-1.823-.617-2.143-1.471-.005-.015-.015-.024-.03-.03l-1.812-.548c-.34-.103-.573-.41-.573-.755v-.898c-.02-.074-.011-.814-.005-1.219l-.006.001z"/></svg>