<!-- Generated by IcoMoon.io -->
<svg version="1.1" xmlns="http://www.w3.org/2000/svg" width="32" height="32" viewBox="0 0 32 32">
<title>door-right1-next</title>
<path d="M26.667 14.395c0-0.105 0.010-2.824-1.382-4.193-0.564-0.556-1.27-0.819-2.123-0.772l-2.21 0.236c-0.031 0-2.727 0.005-4.165 0.005-1.585 0-4.46 0-4.643-0.005-0.213-0.005-0.741-0.079-1.255-0.152-0.579-0.084-1.174-0.168-1.488-0.179-0.533-0.021-0.874 0.189-1.092 0.336-0.711 0.016-1.316 0.284-1.793 0.793-1.117 1.181-1.183 3.322-1.183 3.832 0 0.095 0 0.1 0 0.194 0 0.52 0.071 2.645 1.178 3.826 0.497 0.53 1.128 0.798 1.808 0.814 0.183 0.121 0.528 0.341 1.077 0.315 0.32-0.010 0.914-0.095 1.488-0.178 0.513-0.073 1.041-0.152 1.255-0.152 0.183-0.005 3.057-0.005 4.642-0.005v-0.788c-1.595 0-4.475 0-4.663 0.005-0.254 0.005-0.783 0.079-1.341 0.163-0.533 0.073-1.133 0.163-1.417 0.173-0.315 0.010-0.503-0.105-0.65-0.2-0.081-0.053-0.158-0.1-0.249-0.121l-0.091-0.010c-0.538 0-0.97-0.184-1.321-0.557-1.016-1.082-0.965-3.343-0.965-3.369v-0.021c0-0.021-0.056-2.283 0.965-3.369 0.35-0.373 0.783-0.556 1.321-0.556l0.091-0.010c0.091-0.021 0.167-0.074 0.249-0.121 0.147-0.095 0.335-0.215 0.65-0.2 0.28 0.010 0.884 0.095 1.417 0.173 0.559 0.079 1.087 0.158 1.341 0.163 0.188 0.005 3.068 0.005 4.663 0.005 1.138 0 4.089-0.005 4.206-0.005l2.23-0.236c0.619-0.037 1.122 0.147 1.534 0.551 1.138 1.118 1.148 3.532 1.148 3.627v0c-0.020 0.032 0.005 2.482-1.148 3.622-0.411 0.41-0.914 0.588-1.514 0.557l-2.291-0.242c-0.167 0 0.102-0.005-1.935-0.005l-0.005 0.005-0.015-0.021-4.957 5.122 0.538 0.557 4.718-4.875c1.26 0 1.6 0 1.62 0l2.271 0.242c0.833 0.047 1.539-0.215 2.102-0.772 1.386-1.386 1.386-4.104 1.382-4.198l0.002-0.002zM16.382 16.898l2.027 0.247c0.127 0.016 0.249-0.073 0.274-0.205l0.071-0.331c0.3-1.459 0.3-2.97 0-4.429l-0.071-0.336c-0.025-0.131-0.147-0.22-0.274-0.205l-2.032 0.236 0.071 0.556c0.158 1.302 0.158 2.619 0 3.921l-0.066 0.546v0.001zM9.935 11.876l-0.914-0.241c-0.127-0.016-0.249 0.074-0.275 0.205l-0.066 0.331c-0.3 1.459-0.3 2.97 0 4.429l0.066 0.336c0.025 0.131 0.147 0.22 0.275 0.205l0.919-0.242-0.066-0.557c-0.158-1.302-0.158-2.619 0-3.921l0.061-0.546z"></path>
</svg>
