<svg xmlns="http://www.w3.org/2000/svg" width="100%" height="100%" viewBox="0 0 32 32"><path d="M25.89 15.274h-3.81v-3.34h3.81s.762.062.762-.468-.824-.458-.824-.458l-3.748-.014v-1.66h-4.567c-2.286 0-4.113 1.541-4.494 3.526l-.077.191c-1.673 0-5.73-.191-5.73 2.648 0 1.393 1.343 2.276 2.357 2.748 1.142.568 1.75 1.069 1.75 1.637 0 .215-.201 1.47-5.987 1.47v1.112c1.905 0 7.331.167 7.331-2.672 0-1.493-1.24-2.009-2.455-2.581-1.143-.568-1.699-1.308-1.699-1.875 0-1.422 3.3-1.446 4.443-1.446l.077.215c.381 1.989 2.208 3.55 4.494 3.55h4.571V16.22h3.81c.458 0 .762-.086.762-.496s-.325-.449-.778-.449l.001.001zm-4.833 1.613h-3.295c-2.487 0-3.707-1.732-3.707-3.293s1.493-3.316 3.707-3.316h3.295v6.609z"/></svg>