<!-- Generated by IcoMoon.io -->
<svg version="1.1" xmlns="http://www.w3.org/2000/svg" width="32" height="32" viewBox="0 0 32 32">
<title>share</title>
<path d="M10.667 16.804c0 0.954 0.351 1.771 1.054 2.451s1.541 1.020 2.514 1.020c0.865 0 1.622-0.275 2.27-0.824l1.825 1.49c-0.135 0.261-0.203 0.549-0.203 0.863 0 0.602 0.223 1.118 0.669 1.549s0.98 0.647 1.602 0.647c0.622 0 1.156-0.216 1.602-0.647s0.669-0.948 0.669-1.549c0-0.602-0.223-1.118-0.669-1.549s-0.98-0.647-1.602-0.647c-0.46 0-0.879 0.118-1.257 0.353l-1.784-1.451c0.297-0.523 0.446-1.085 0.446-1.687 0-0.784-0.243-1.49-0.73-2.118l2.351-2.51c0.297 0.131 0.622 0.196 0.973 0.196 0.622 0 1.156-0.216 1.602-0.647s0.669-0.948 0.669-1.549c0-0.602-0.223-1.118-0.669-1.549s-0.98-0.647-1.602-0.647c-0.622 0-1.156 0.216-1.602 0.647s-0.669 0.948-0.669 1.549c0 0.418 0.108 0.797 0.324 1.138l-2.351 2.549c-0.568-0.34-1.189-0.51-1.865-0.51-0.973 0-1.811 0.333-2.514 1s-1.054 1.477-1.054 2.431z"></path>
</svg>
