<svg xmlns="http://www.w3.org/2000/svg" width="100%" height="100%" viewBox="0 0 32 32"><path d="M25.204 6.667c.807 0 1.463.676 1.463 1.508v11.78c0 .831-.656 1.508-1.463 1.508h-6.757v1.803c0 .201-.158.365-.354.365h-3.761c-.196 0-.355-.163-.355-.365v-1.803H6.796c-.807 0-1.463-.676-1.463-1.508V8.175c0-.832.656-1.508 1.463-1.508h18.408zM7.27 7.887c-.416 0-.754.349-.754.777v9.882h18.967V8.664c0-.428-.338-.777-.754-.777H7.27zm10.411 14.901v-1.326h-2.933v1.326h2.933zm7.049-2.546c.416 0 .754-.349.754-.777v-.131H6.517v.131c0 .428.338.777.754.777H24.73zm-5.358 4.19c.195 0 .354.269.354.471s-.158.43-.354.43h-6.629c-.196 0-.355-.229-.355-.43s.159-.471.355-.471h6.629z"/></svg>