<!-- Generated by IcoMoon.io -->
<svg version="1.1" xmlns="http://www.w3.org/2000/svg" width="32" height="32" viewBox="0 0 32 32">
<title>search</title>
<path d="M8.001 14.998c0 1.944 0.681 3.597 2.042 4.958s3.014 2.042 4.958 2.042c1.472 0 2.805-0.417 4-1.25l2.916 2.875c0.222 0.25 0.507 0.375 0.854 0.375s0.639-0.118 0.875-0.354c0.236-0.236 0.354-0.528 0.354-0.875s-0.126-0.632-0.375-0.854l-2.875-2.916c0.833-1.195 1.25-2.528 1.25-3.999 0-1.944-0.681-3.597-2.042-4.958s-3.014-2.042-4.958-2.042c-1.944 0-3.597 0.681-4.958 2.042s-2.042 3.014-2.042 4.958l0.001-0.001zM10.001 14.998c0-1.389 0.486-2.569 1.458-3.542s2.153-1.458 3.542-1.458c1.389 0 2.569 0.486 3.542 1.458s1.458 2.153 1.458 3.542c0 1.389-0.486 2.569-1.458 3.542s-2.153 1.458-3.542 1.458c-1.389 0-2.569-0.486-3.542-1.458s-1.458-2.153-1.458-3.542z"></path>
</svg>
