<!-- Generated by IcoMoon.io -->
<svg version="1.1" xmlns="http://www.w3.org/2000/svg" width="32" height="32" viewBox="0 0 32 32">
<title>porsche-driving-experience</title>
<path d="M23.805 15.808c0 0-0.773 0.139-1.398 0.139s-1.534-0.165-1.534-0.165l-0.907-3.896c-0.033-0.016-2.443-1.171-3.314-1.171l-1.084-3.995c1.443 0.064 2.886 0.836 3.438 1.041l0.96 4.123c0.029 0.014 1.090 0.537 2.214 0.535 0.473-0.002 0.931-0.067 1.33-0.181l0.295 3.569 0.321 3.976c0 0 1.016-0.125 2.493-0.82l0.048-4.23c-0.859 0.485-1.8 0.848-2.862 1.074zM10.575 17.532c0.521-0.455 1.967-1.649 3.359-2.175l1.508 3.887c-1.378 0.383-2.81 1.513-3.408 2.024l2.083 5.337-1.669 0.061-7.114-18.227 1.669-0.061 0.467 1.197c0.308-0.3 1.634-1.52 3.348-2.061l1.499 3.772c1.124-0.39 2.331-0.607 3.594-0.618 0.261 0 0.518 0.016 0.741 0.045l1.246 4.335c-0.592-0.083-1.196-0.128-1.816-0.134-0.875 0-2.147 0.443-2.147 0.443l-1.617-4.069c0 0-1.834 0.646-3.389 2.023l1.647 4.22zM17.824 15.039h-0.001c0.673 0.092 2.141 0.511 3.049 0.742l0.942 4.042c-0.701 0-2.312-0.673-2.874-0.673l-1.116-4.111zM23.19 8.372c0 0 1.56-0.301 3.43-1.705v4c-1.629 1.207-3.111 1.572-3.111 1.572l-0.319-3.867z"></path>
</svg>
