<svg xmlns="http://www.w3.org/2000/svg" width="100%" height="100%" viewBox="0 0 32 32"><path d="M24.143 22.884l2.269 2.291c.339.348.339.888 0 1.23-.15.157-.368.261-.603.261-.207 0-.419-.075-.61-.255l-.029-.029-.006-.006-2.266-2.288c-.926.658-2.054 1.045-3.27 1.045-3.139 0-5.691-2.577-5.691-5.746s2.552-5.746 5.691-5.746 5.691 2.577 5.691 5.746c0 1.315-.439 2.528-1.177 3.497zm-11.28-2.115l.001.001c.086.43.212.853.373 1.254-4.397-.198-7.904-3.848-7.904-8.334 0-4.614 3.707-8.357 8.278-8.357 4.271 0 7.783 3.267 8.232 7.463-.695-.238-1.438-.371-2.207-.371-3.254 0-5.967 2.269-6.703 5.322-.241.261-.396.545-.396.545l-1.058 1.7c-.109.146-.184.273-.23.384.511.191 1.051.325 1.615.395zm2.564-13.382c-.086.116-.052 2.582-.046 2.577.184 1.173 1.633.714 1.633.714l2.403-1.033c.046-.018.086-.034.12-.052-.96-1.382-2.386-2.397-4.047-2.826l-.063.621zm-5.266 8.015h-.001c.419-.9-.856-1.323-.856-1.323l-2.632-.644c-.006.087-.006.168-.006.255 0 1.654.557 3.175 1.495 4.387 1.546-1.416 2-2.675 2-2.675zm.385-4.585h.001c1.196.272 1.247-.662 1.247-.662.132-.464-.063-2.768-.109-3.302-1.61.493-2.984 1.55-3.88 2.948l2.742 1.016zm10.681 6.134l.001-.001c-.764 1.823-2.161 3.308-3.903 4.196-.368-.493-.592-1.098-.592-1.759 0-1.125.644-2.095 1.569-2.582.403.488.776.923.776.923.092.139.185.244.265.319.35-.464.649-.975.885-1.52.361.075.701.22 1 .423zm-1.598-1.566c-2.184 0-3.967 1.799-3.967 4.004s1.782 4.005 3.967 4.005c2.184 0 3.967-1.8 3.967-4.005s-1.776-4.005-3.967-4.005v.001z"/></svg>