<svg xmlns="http://www.w3.org/2000/svg" width="100%" height="100%" viewBox="0 0 32 32"><path d="M10.769 14.105c.939-.187 2.123-.354 3.13-.354h.14c.602 0 2.009 0 2.99.238 1.463.333 2.533.975 3.088 1.365 2.523.207 4.095.51 4.941.94.26.126.628.364.939.611.591.46.669.687.669.865 0 .961-.244 1.683-.254 1.714l-.052.157-.156.066c-.016.005-.415.177-1.308.395-.487.763-1.34 1.233-2.263 1.233-.83 0-1.573-.339-2.025-.91h-8.579c-.514.581-1.236.91-2.009.91-.913 0-1.739-.46-2.206-1.213l-1.271-.167-.057-.031c-.54-.258-1.153-1.042-1.153-1.471v-.025c.042-.627.213-1.739.524-2.224l.659.404c-.171.273-.353 1.102-.404 1.829.046.152.358.602.664.784l1.536.197.093.182c.306.602.929.975 1.614.975.586 0 1.142-.278 1.511-.759l.12-.152h9.379l.114.182c.291.455.846.728 1.49.728.695 0 1.334-.374 1.666-.98l.083-.152.171-.04c.591-.137.971-.258 1.168-.328.062-.233.156-.687.166-1.238-.15-.192-.784-.672-1.183-.869l-.005-.005c-.752-.384-2.305-.667-4.754-.869l-.114-.01-.094-.056c-.473-.349-1.479-.975-2.891-1.299h-.005c-.888-.218-2.279-.218-2.803-.218h-.14c-1.276 0-2.849.283-3.774.51l-.198-.713-3.167-3.084.519-.556 3.49 3.438z"/></svg>