<svg xmlns="http://www.w3.org/2000/svg" width="100%" height="100%" viewBox="0 0 32 32"><path d="M21.669 10.325C20.235 8.888 18.249 8 16.054 8h-.022c-4.388 0-7.964 3.556-7.965 7.928v.009c0 1.456.395 2.82 1.084 3.992L7.999 24l4.223-1.103c1.1.608 2.412.965 3.807.965h.003c4.389 0 7.965-3.557 7.967-7.928v-.024c0-2.182-.891-4.157-2.331-5.584zm-5.635 12.197h-.003c-1.243 0-2.406-.341-3.399-.935l-.213-.123-2.506.654.669-2.431-.157-.25c-.635-.992-1.012-2.201-1.012-3.498v-.01c0-3.633 2.971-6.588 6.624-6.588 3.655.004 6.617 2.953 6.617 6.591v.003c0 3.632-2.971 6.588-6.62 6.588v-.001zm3.632-4.935c-.199-.099-1.178-.578-1.36-.645s-.315-.099-.448.099c-.133.199-.514.645-.631.776s-.232.148-.432.049c-.199-.099-.843-.309-1.601-.983-.592-.526-.991-1.174-1.108-1.373s-.013-.306.089-.404c.089-.088.199-.231.298-.348s.133-.198.199-.331.033-.248-.017-.348-.448-1.075-.613-1.471c-.161-.386-.326-.334-.448-.34s-.249-.007-.381-.007c-.212.005-.401.1-.532.247-.183.2-.697.678-.697 1.653s.713 1.917.813 2.049c.099.132 1.404 2.133 3.401 2.991.293.133.669.275 1.054.398.319.097.591.14.875.14.163 0 .322-.014.477-.041.366-.055 1.161-.477 1.327-.939s.166-.86.116-.942c-.05-.082-.182-.132-.381-.231v-.003z"/></svg>