<!-- Generated by IcoMoon.io -->
<svg version="1.1" xmlns="http://www.w3.org/2000/svg" width="32" height="32" viewBox="0 0 32 32">
<title>kaixin</title>
<path d="M17.578 14.306c-0.008 0.035-0.018 0.071-0.030 0.107-0.16 0.499-0.557 0.858-0.889 0.802s-0.472-0.505-0.312-1.004 0.557-0.858 0.889-0.802c0.085 0.014 0.157 0.054 0.215 0.114-0.145-0.454-0.407-0.777-0.756-0.858-0.412-0.096-0.856 0.164-1.216 0.64-0.012-0.76-0.293-1.357-0.778-1.506-0.711-0.217-1.589 0.616-1.963 1.861l-0.001-0.001c-0.373 1.244-0.099 2.43 0.611 2.648 0.459 0.14 0.986-0.157 1.404-0.718 0.001 0.876 0.328 1.564 0.874 1.692 0.723 0.169 1.56-0.707 1.851-1.974 0.079-0.345 0.111-0.685 0.1-1.001zM17.331 13.718c-0.312-0.132-0.613 0.118-0.393 0.326 0.010 0.010 0.024 0.018 0.040 0.025 0.312 0.132 0.613-0.118 0.393-0.326-0.010-0.010-0.024-0.018-0.040-0.025zM14.284 14.308c-0.312-0.072-0.406-0.527-0.21-1.017s0.607-0.829 0.919-0.757c0.312 0.072 0.406 0.527 0.21 1.017s-0.607 0.829-0.919 0.757zM14.846 12.772c-0.154 0-0.279 0.095-0.279 0.212s0.126 0.212 0.279 0.212 0.279-0.095 0.279-0.212c0-0.117-0.125-0.212-0.279-0.212zM23.955 14.763v0.001c0.214 0.636-0.356 1.762-1.235 2.698s-2.944 1.547-2.944 1.547 0.166 1.595 0.273 2.65c0.107 1.055 0.238 2.099-0.748 2.303s-2.35-0.432-3.537-1.319c-1.187-0.887-1.816-1.367-1.816-1.367s-1.164 0.899-2.089 1.499c-0.925 0.6-1.388 0.78-2.053-0.072s-0.736-3.070-0.571-4.186 0.488-2.135 0.488-2.135c0 0-1.792-2.303-1.721-4.689 0.071-2.378 1.266-1.849 1.899-1.451 1.317 0.827 2.659 0.863 2.659 0.863s2.503-3.101 4.618-3.106c1.128-0.003 1.259 1.394 1.46 2.494 0.203 1.109 0.486 2.818 0.486 2.818s0.653 0.216 2.172 0.491c1.519 0.276 2.445 0.324 2.659 0.959zM17.414 17.641h0.001l0.332 0.276c0 0-0.114-0.182-0.167-0.384-0.058-0.221-0.142-0.552-0.142-0.552l-0.072 0.538c0 0-2.571 1.772-4.047 1.224-1.519-0.564-1.764-3.124-1.769-3.13l0.332-0.384c0 0-0.129 0.101-0.463 0.24-0.293 0.122-0.427 0.144-0.427 0.144h0.427c0 0 0.072 2.974 1.802 3.515 1.785 0.557 4.188-1.488 4.193-1.488z"></path>
</svg>
