<svg xmlns="http://www.w3.org/2000/svg" width="100%" height="100%" viewBox="0 0 32 32"><path d="M26.661 13.816c0 .288-.196.484-.484.484h-3.395v1.453h-3.879c-1.986 0-3.586-1.502-3.83-3.395h-.049c-1.746 0-6.3 0-6.3 2.421 0 1.165 1.262 1.796 2.617 2.471 1.502.729 3.199 1.599 3.199 3.346.005 3.4-6.926 3.4-9.206 3.4v-.969c7.177 0 8.243-1.502 8.243-2.421 0-1.164-1.262-1.796-2.617-2.47-1.502-.729-3.199-1.599-3.199-3.346 0-3.395 5.283-3.395 7.269-3.395h.049C15.324 9.507 16.967 8 18.909 8h3.879v1.453h3.395c.288 0 .484.196.484.484s-.196.484-.484.484h-3.395v2.911h3.395c.283 0 .479.196.479.484h-.001z"/></svg>