<svg xmlns="http://www.w3.org/2000/svg" width="100%" height="100%" viewBox="0 0 32 32"><path d="M21.841 19.999c-.764 0-1.48-.339-1.95-.911l-.423.005h-7.595c-.471.572-1.187.906-1.945.906-.941 0-1.788-.506-2.216-1.306l-1.726-.308-.089-.101c-.319-.355-.497-.724-.539-1.133-.021-.223-.026-.652-.026-.703 0-.288.198-.683.585-1.164.125-.157.554-.668.836-.774.319-.117.638-.238.957-.359 2.807-1.057 5.708-2.15 8.29-2.15.909 0 2.133.703 3.434 1.442.219.126.439.253.659.375 2.149.207 3.827.648 4.987 1.306 1.118.637 1.464 1.32 1.568 1.67l.016.051v.056c0 .733-.225 1.356-.596 1.659-.162.132-.408.294-.637.313-.434.036-1.239.106-1.6.137-.46.627-1.197.992-1.991.992l-.001-.001zm-1.542-1.675l.12.172c.319.465.852.744 1.427.744.59 0 1.134-.294 1.448-.784l.105-.162.193-.015c.01 0 1.187-.106 1.767-.152.037-.015.125-.066.214-.142.151-.121.304-.511.314-1.017-.157-.414-1.061-1.943-5.949-2.393l-.084-.01-.073-.04c-.246-.137-.497-.278-.742-.42-1.098-.627-2.342-1.34-3.037-1.34-2.436 0-5.269 1.068-8.009 2.1-.314.121-.632.238-.941.355-.24.157-.925.992-.936 1.234 0 .121.005.465.021.622.021.212.11.41.267.607l1.861.329.084.193c.267.622.883 1.027 1.578 1.027.57 0 1.103-.273 1.422-.733l.115-.167 8.835-.006z"/></svg>