<svg xmlns="http://www.w3.org/2000/svg" width="100%" height="100%" viewBox="0 0 32 32"><path d="M8 21.171c1.611.997 3.333 1.496 5.166 1.496 2.667 0 4.903-.969 6.708-2.906s2.653-4.259 2.542-6.966v-.129c.639-.456 1.167-1.04 1.583-1.752-.5.285-1.111.47-1.833.556.25-.143.521-.399.813-.769s.479-.726.563-1.069c-.25.171-.59.335-1.021.492s-.77.235-1.021.235c-.667-.684-1.472-1.026-2.417-1.026-.889 0-1.66.328-2.313.983s-.979 1.453-.979 2.393c0 .257.028.513.083.769-1.278-.029-2.562-.356-3.854-.983s-2.34-1.467-3.146-2.522c-.417.912-.507 1.781-.271 2.607s.66 1.439 1.271 1.838c-.639.057-1.111-.071-1.417-.385-.028.712.16 1.382.563 2.009s1.063 1.068 1.979 1.325c-.306.171-.764.199-1.375.085.056.541.382 1.061.979 1.56s1.257.748 1.979.748c-.361.428-.966.812-1.813 1.154s-1.771.427-2.771.256l-.001-.001z"/></svg>