<svg xmlns="http://www.w3.org/2000/svg" width="100%" height="100%" viewBox="0 0 32 32"><path d="M13.94 18.119c0-1.061-.005-2.122.005-3.184.002-.205-.058-.255-.242-.25-.486.013-.972-.004-1.458.009-.18.004-.25-.035-.244-.246.015-.543.012-1.088.001-1.631-.003-.168.049-.248.191-.321.879-.443 1.625-1.059 2.178-1.922.449-.701.703-1.476.726-2.325.005-.208.065-.252.246-.248.494.012.989.014 1.483-.001.191-.005.24.058.239.256-.007 1.213.004 2.425-.005 3.638-.001.222.054.282.261.281 1.122-.009 2.246.006 3.368-.006.218-.002.266.069.263.285-.011.669-.01 1.338.003 2.006.003.197-.062.233-.23.232-1.131-.007-2.263.001-3.393-.008-.198-.001-.273.035-.271.271.011 1.543.004 3.085.007 4.628 0 .177.014.357.042.532.146.889.761 1.44 1.61 1.462.823.022 1.584-.24 2.335-.556.276-.116.276-.117.276.187.001.669 0 1.338.003 2.006.001.116-.005.202-.137.238-1.509.414-3.031.685-4.596.473-.544-.074-1.066-.236-1.534-.555-.738-.501-1.099-1.236-1.117-2.151-.02-1.034-.005-2.068-.005-3.103h-.003l-.001.001z"/></svg>