<!-- Generated by IcoMoon.io -->
<svg version="1.1" xmlns="http://www.w3.org/2000/svg" width="32" height="32" viewBox="0 0 32 32">
<title>teq-finder-02</title>
<path d="M22.224 23.388c-1.153 0.874-2.582 1.392-4.128 1.392-3.825 0-6.931-3.168-6.931-7.070s3.1-7.070 6.931-7.070v0.001c3.831 0 6.93 3.169 6.93 7.070 0 1.685-0.579 3.234-1.546 4.449l2.898 2.961c0.011 0.011 0.018 0.018 0.023 0.024l0.006 0.006c0.436 0.479 0.243 1.013 0 1.255-0.163 0.171-0.384 0.261-0.609 0.261l0.001 0.001c-0.227 0-0.453-0.089-0.621-0.261-0.122-0.125-2.090-2.135-2.954-3.018zM20.993 15.708l0.001-0.001c-0.65 2.328-2.275 4.228-4.411 5.199-0.401-0.196-0.761-0.468-1.057-0.8 0.11-0.036 0.22-0.071 0.331-0.113-0.087-0.213-0.238-0.385-0.238-0.385l-0.371-0.663-0.604-0.829c-0.018-0.135-0.041-0.266-0.041-0.408 0-1.445 0.848-2.688 2.061-3.245-0.058 0.231 0.082 0.468 0.203 0.758 0.163 0.367 1.724 2.203 1.724 2.203 0.093 0.13 0.175 0.231 0.255 0.308 0.632-0.84 1.079-1.829 1.288-2.913 0.336 0.243 0.627 0.545 0.859 0.889zM9.54 17.709l0.001-0.001c0 1.155 0.227 2.256 0.639 3.268-2.85-1.249-4.847-4.132-4.847-7.495 0-4.5 3.576-8.147 7.987-8.147 2.885 0 5.404 1.569 6.809 3.908-0.471-0.113-0.958-0.19-1.452-0.225-0.905-1.101-2.136-1.912-3.547-2.279l-0.059 0.604c-0.063 0.088-0.058 1.604-0.052 2.238-2.311 0.911-4.127 2.812-4.963 5.192-0.046-0.609-0.9-0.906-0.9-0.906l-2.542-0.627c-0.006 0.082-0.006 0.165-0.006 0.248 0 1.616 0.534 3.097 1.44 4.281 1.034-0.959 1.556-1.835 1.782-2.285-0.18 0.71-0.291 1.456-0.291 2.226zM11.456 6.814c-1.561 0.485-2.885 1.515-3.749 2.877l2.652 0.989c1.155 0.267 1.202-0.645 1.202-0.645 0.127-0.45-0.059-2.7-0.105-3.221zM18.096 22.908c2.816 0 5.097-2.327 5.097-5.199s-2.281-5.199-5.097-5.199c-2.816 0-5.097 2.327-5.097 5.199s2.282 5.199 5.097 5.199z"></path>
</svg>
