<svg xmlns="http://www.w3.org/2000/svg" width="100%" height="100%" viewBox="0 0 32 32"><path d="M13.373 11.367l-.001.001c.315.313.563.809.746 1.442.183.561.249 1.312.249 2.127 0 .809-.124 1.565-.314 2.127s-.437 1.064-.817 1.377c-.372.372-.818.627-1.379.751-.498.123-1.125.189-1.818.189H7.091v5.952H5.333V10.302h4.772c.759 0 1.387.06 1.948.249.503.189.94.437 1.32.816zm-.883 5.012v.001c.066-.379.131-.881.124-1.508 0-.567-.059-1.063-.124-1.442-.059-.438-.249-.691-.438-.94-.19-.254-.438-.437-.752-.502-.313-.058-.751-.124-1.189-.124H7.098v6.017h2.948c.437 0 .875-.058 1.189-.124.314-.058.627-.19.817-.438s.372-.561.438-.94zm4.393-1.697h9.784v1.253h-9.85c.066-.373.066-.685.066-1.064v-.189zm-.248-2.252c-.066-.123-.066-.254-.124-.32-.065-.314-.189-.627-.314-.875l7.968-4.569.627 1.064-8.157 4.699zm-.817 6.768c.189-.378.38-.757.569-1.129l8.405 4.888-.627 1.064-8.346-4.823z"/></svg>