<!-- Generated by IcoMoon.io -->
<svg version="1.1" xmlns="http://www.w3.org/2000/svg" width="32" height="32" viewBox="0 0 32 32">
<title>gps</title>
<path d="M18.645 15.999c0 1.461-1.185 2.646-2.646 2.646s-2.646-1.185-2.646-2.646c0-1.461 1.185-2.646 2.646-2.646s2.646 1.185 2.646 2.646zM23.217 15.11h0.001c0.432 0 0.781 0.381 0.781 0.852v0.074c0 0.471-0.349 0.852-0.781 0.852h-1.040c-0.391 2.738-2.552 4.899-5.289 5.289v1.078c0 0.41-0.381 0.743-0.852 0.743h-0.074c-0.471 0-0.852-0.333-0.852-0.743v-1.078c-2.737-0.391-4.898-2.552-5.289-5.289h-1.074c-0.413 0-0.748-0.381-0.748-0.852v-0.074c0-0.471 0.335-0.852 0.748-0.852h1.074c0.391-2.735 2.548-4.894 5.282-5.288v-1.041c0-0.432 0.392-0.781 0.875-0.781h0.041c0.483 0 0.875 0.349 0.875 0.781v1.041c2.734 0.393 4.892 2.553 5.282 5.288h1.040zM15.999 20.494c2.483 0 4.495-2.013 4.495-4.495s-2.013-4.495-4.495-4.495c-2.483 0-4.495 2.013-4.495 4.495s2.013 4.495 4.495 4.495z"></path>
</svg>
