<svg xmlns="http://www.w3.org/2000/svg" width="100%" height="100%" viewBox="0 0 32 32"><path d="M16 9.444c-2.136 0-2.39.009-3.233.046-.777.033-1.201.166-1.483.274-.374.146-.64.32-.918.598s-.453.544-.598.918c-.108.278-.237.702-.274 1.483-.037.844-.046 1.097-.046 3.233s.009 2.39.046 3.233c.033.777.166 1.201.274 1.483.146.374.32.64.598.918s.544.453.918.598c.278.108.702.237 1.483.275.844.038 1.097.046 3.233.046s2.39-.009 3.233-.046c.777-.033 1.201-.166 1.483-.275.374-.146.64-.32.918-.598s.453-.544.598-.918c.108-.278.237-.702.275-1.483.038-.844.046-1.097.046-3.233s-.009-2.39-.046-3.233c-.033-.777-.166-1.201-.275-1.483-.146-.374-.32-.64-.598-.918s-.544-.453-.918-.598c-.278-.108-.702-.237-1.483-.274-.844-.037-1.098-.046-3.233-.046zm0-1.443V8c2.174 0 2.444.008 3.3.05.852.037 1.434.17 1.941.37.528.204.973.479 1.417.923s.719.889.922 1.417c.195.507.332 1.089.37 1.941.042.856.05 1.126.05 3.3s-.013 2.448-.05 3.3c-.037.852-.17 1.434-.37 1.941-.203.528-.477.973-.922 1.417s-.889.719-1.417.922c-.507.195-1.089.332-1.941.37-.856.042-1.126.05-3.3.05s-2.448-.013-3.3-.05c-.852-.037-1.434-.17-1.941-.37-.527-.203-.972-.477-1.417-.922s-.719-.889-.923-1.417c-.195-.507-.332-1.089-.37-1.941-.041-.856-.05-1.126-.05-3.299s.013-2.447.05-3.299c.037-.852.17-1.434.37-1.941.204-.527.479-.972.923-1.417s.889-.719 1.417-.923c.507-.195 1.089-.332 1.941-.37.856-.041 1.126-.05 3.3-.05zm0 3.89c2.269 0 4.11 1.841 4.11 4.11s-1.841 4.11-4.11 4.11-4.11-1.841-4.11-4.11 1.841-4.11 4.11-4.11zm0 6.778c1.471 0 2.668-1.197 2.668-2.668 0-1.475-1.197-2.668-2.668-2.668-1.475 0-2.668 1.196-2.668 2.668 0 1.475 1.196 2.668 2.668 2.668zm5.233-6.94c0 .53-.43.96-.96.96s-.96-.43-.96-.96.43-.96.96-.96.96.43.96.96z"/></svg>