<!-- Generated by IcoMoon.io -->
<svg version="1.1" xmlns="http://www.w3.org/2000/svg" width="32" height="32" viewBox="0 0 32 32">
<title>park-next</title>
<path d="M16 8c-4.267 0-7.757 3.599-7.757 8s3.49 8 7.757 8c4.267 0 7.757-3.599 7.757-8s-3.49-8-7.757-8zM16 23c-3.732 0-6.788-3.151-6.788-7s3.055-7 6.788-7c3.732 0 6.788 3.151 6.788 7s-3.055 7-6.788 7zM26.666 16c0 3.053-1.212 5.802-3.101 7.803l-1.358-1.401c1.551-1.651 2.52-3.901 2.52-6.401s-0.97-4.75-2.57-6.349l1.358-1.401c1.939 1.948 3.151 4.697 3.151 7.75l-0.001-0.001zM9.843 22.349l-1.358 1.401c-1.939-1.948-3.151-4.697-3.151-7.75s1.212-5.803 3.1-7.803l1.358 1.401c-1.551 1.651-2.52 3.901-2.52 6.401s0.97 4.75 2.57 6.349l0.001 0.001zM18.666 16.401c0.242-0.25 0.435-0.552 0.536-0.901 0.146-0.401 0.192-0.849 0.192-1.448 0-0.552-0.051-1.052-0.146-1.448-0.096-0.401-0.293-0.698-0.485-0.947-0.242-0.25-0.536-0.401-0.873-0.552-0.339-0.099-0.777-0.151-1.263-0.151h-3.050v10h1.116v-3.948h1.888c0.435 0 0.823-0.052 1.162-0.151 0.389-0.052 0.682-0.203 0.924-0.453h-0.001zM16.581 16.052h-1.889v-4h1.939c0.293 0 0.536 0.053 0.777 0.099 0.192 0.053 0.389 0.151 0.485 0.303 0.146 0.151 0.242 0.349 0.293 0.599s0.096 0.599 0.096 1c0 0.401-0.051 0.75-0.096 1-0.051 0.25-0.146 0.447-0.293 0.599s-0.293 0.25-0.536 0.303c-0.197 0.099-0.44 0.099-0.777 0.099l0.001-0.002z"></path>
</svg>
