<!-- Generated by IcoMoon.io -->
<svg version="1.1" xmlns="http://www.w3.org/2000/svg" width="32" height="32" viewBox="0 0 32 32">
<title>xing</title>
<path d="M13.432 11.589l1.552 2.766c-0.063 0.116-0.874 1.586-2.433 4.411-0.171 0.297-0.376 0.445-0.615 0.445h-2.261c-0.006 0-0.012 0-0.018 0-0.118 0-0.221-0.066-0.275-0.163-0.030-0.051-0.048-0.111-0.048-0.175s0.018-0.125 0.047-0.174l2.393-4.334c0.006 0 0.006-0.003 0-0.009l-1.524-2.699c-0.076-0.142-0.079-0.261-0.009-0.358 0.057-0.097 0.158-0.145 0.303-0.145h2.262c0.253 0 0.462 0.145 0.626 0.435zM22.615 8.503l-4.999 9.035v0.009l3.183 5.947c0.069 0.13 0.073 0.25 0.009 0.36-0.063 0.097-0.164 0.145-0.303 0.145h-2.262c-0.266 0-0.475-0.145-0.626-0.435l-3.21-6.017c0.114-0.205 1.789-3.243 5.027-9.113 0.158-0.29 0.359-0.435 0.606-0.435h2.281c0.139 0 0.237 0.048 0.294 0.145 0.069 0.103 0.069 0.223 0 0.358z"></path>
</svg>
