<svg xmlns="http://www.w3.org/2000/svg" width="100%" height="100%" viewBox="0 0 32 32"><path d="M16.903 20.238h-.001c2.037.426 4.347.908 4.688 2.595.101.502-.026.987-.369 1.4-1.157 1.399-5.061 2.201-11.887 2.434l-.002-.956c8.327-.293 10.572-1.389 11.145-2.082.162-.197.215-.384.17-.609-.216-1.071-2.283-1.503-3.943-1.85-1.586-.331-2.839-.592-3.229-1.365-.216-.43-.19-.904.077-1.33.465-.745 1.599-1.265 2.759-1.265v.953c-.897 0-1.691.413-1.94.813-.116.187-.079.314-.034.403.182.362 1.56.649 2.567.86zm1.475-14.905h.002c2.363 0 4.287 1.98 4.287 4.415 0 .616-.176 1.737-1.696 4.364-.778 1.342-1.544 2.452-1.576 2.498l-1.016 1.466-1.016-1.466c-.033-.047-.799-1.155-1.576-2.498-1.52-2.626-1.696-3.748-1.696-4.364 0-2.434 1.923-4.415 4.287-4.415zm.005 7.089c1.597 0 2.891-1.282 2.891-2.864s-1.294-2.864-2.891-2.864-2.891 1.282-2.891 2.864 1.294 2.864 2.891 2.864z"/></svg>