<!-- Generated by IcoMoon.io -->
<svg version="1.1" xmlns="http://www.w3.org/2000/svg" width="32" height="32" viewBox="0 0 32 32">
<title>cubic-capacity</title>
<path d="M25.25 13.901v-0.825h1.416v-0.738h-1.416v-0.824h1.416v-0.772h-1.416v-0.824h1.416v-0.82c0-0.966-0.781-1.75-1.743-1.75h-4.030c-0.962 0-1.743 0.784-1.743 1.75v0.831h1.427v0.824h-1.427v0.772h1.427v0.824h-1.427v0.738h1.427v0.824h-1.427v0.876c0 0.873 0.637 1.595 1.471 1.727v-0.414c0-0.484 0.39-0.875 0.871-0.875h0.145l-4.004 5.579c-0.476-0.292-1.035-0.463-1.634-0.463-0.475 0-0.926 0.109-1.33 0.299l-4.259-7.431h0.098c0.482 0 0.871 0.392 0.871 0.875v0.414c0.832-0.132 1.471-0.854 1.471-1.727v-0.887c0 0-1.418 0-1.418 0v-0.824h1.416v-0.738h-1.416v-0.824h1.416v-0.772h-1.416v-0.824h1.416v-0.82c0-0.966-0.781-1.75-1.743-1.75h-4.030c-0.962 0-1.743 0.784-1.743 1.75v0.831h1.427v0.824h-1.427v0.772h1.427v0.824h-1.427v0.738h1.427v0.824h-1.427v0.876c0 0.873 0.637 1.595 1.471 1.727v-0.414c0-0.425 0.302-0.778 0.701-0.858l5.7 8.821c-0.226 0.437-0.356 0.932-0.356 1.457 0 1.747 1.41 3.163 3.15 3.163s3.15-1.416 3.15-3.163c0-0.456-0.098-0.889-0.271-1.281 0 0 5.299-6.549 5.644-6.975 0.387 0.090 0.674 0.437 0.674 0.852v0.414c0.832-0.132 1.471-0.854 1.471-1.727v-0.887l-1.416 0.001zM16 25.245c-0.957 0-1.733-0.779-1.733-1.741s0.776-1.741 1.733-1.741c0.957 0 1.733 0.779 1.733 1.741s-0.775 1.741-1.733 1.741z"></path>
</svg>
