<svg xmlns="http://www.w3.org/2000/svg" width="100%" height="100%" viewBox="0 0 32 32"><path d="M25.809 16.127c-.634-.303-1.401-.521-2.157-.678-.234-.047-.553-.114-.776-.151v.792c.228.037.543.104.776.157.655.141 1.304.334 1.837.589.254.12.422.396.422.698v.762c0 .078-.015.12-.02.13l-1.62.542-.361.125-.122.37c-.208.641-.787 1.074-1.437 1.074-.64 0-1.213-.422-1.426-1.043l-.183-.521h-9.234l-.183.521c-.219.626-.792 1.043-1.431 1.043s-1.218-.422-1.432-1.053l-.127-.37-.365-.12-1.868-.6v-1.116c-.005-.083-.011-.36.005-1.157.533-.589 2.02-2.039 2.035-2.049l.239-.229v-.339h6.056c.923 0 1.823.188 2.675.558l3.259 1.783.223-.021v.005l5.132-3.159-.391-.672-4.878 3.008-3.015-1.647c-.949-.417-1.97-.631-3-.631H8.376c-.422 0-.762.35-.762.782 0 0-1.518 1.47-2.071 2.09-.127.141-.198.323-.203.516-.005.422-.015 1.22.005 1.304v.991c0 .345.218.646.533.746l1.868.6c.309.913 1.153 1.574 2.147 1.574s1.832-.657 2.148-1.564h8.158c.314.907 1.153 1.564 2.148 1.564 1.01 0 1.858-.678 2.157-1.606l1.64-.558c.309-.104.523-.407.523-.855v-.762c0-.616-.33-1.173-.858-1.423v-.003z"/></svg>