<!-- Generated by IcoMoon.io -->
<svg version="1.1" xmlns="http://www.w3.org/2000/svg" width="32" height="32" viewBox="0 0 32 32">
<title>car-suv</title>
<path d="M16.043 13.039c1.921 0 5.841 0 7.312 0.413l0.021 0.457 0.445 0.286c1.12 0.715 1.193 0.765 1.781 1.176 0.165 0.523 0.093 2.056-0.124 2.508-0.15 0.115-0.594 0.303-0.961 0.401l-0.594 0.154-0.129 0.638c-0.145 0.715-0.739 1.232-1.42 1.232-0.578 0-1.105-0.369-1.338-0.935l-0.253-0.621h-9.408l-0.253 0.621c-0.232 0.567-0.759 0.935-1.338 0.935-0.599 0-1.125-0.385-1.353-0.979l-0.248-0.649h-0.661c-0.702 0-1.141-0.33-1.219-0.484 0-0.99 0.016-1.249 0.315-1.705 0.269-0.413 1.209-0.902 6.103-1.375l0.284-0.027 0.227-0.187 0.145-0.121c1.797-1.513 2.442-1.738 2.665-1.738l0.001 0.001zM16.043 12c-1.002 0-2.773 1.545-3.408 2.073-5.355 0.517-6.331 1.066-6.816 1.815s-0.485 1.298-0.485 2.332c0 0.753 0.976 1.485 2.189 1.485 0.362 0.951 1.234 1.628 2.256 1.628 0.996 0 1.854-0.643 2.231-1.557h8.138c0.377 0.913 1.229 1.557 2.231 1.557 1.172 0 2.137-0.88 2.37-2.051 0 0 1.219-0.319 1.524-0.797 0.485-0.775 0.563-3.486 0-3.888-0.728-0.517-0.728-0.517-1.947-1.298 0 0-0.062-0.627-0.485-0.775-1.358-0.484-4.875-0.523-7.798-0.523v0l-0.001-0.001z"></path>
</svg>
