<svg xmlns="http://www.w3.org/2000/svg" width="100%" height="100%" viewBox="0 0 32 32"><path d="M12.411 12.94h.001l-.52-.511c-.714.823-1.175 1.876-1.257 3.029h.723v.75h-.723c.082 1.153.542 2.206 1.257 3.029l.511-.511.524.524-1.035 1.035c-1.234-1.089-2.015-2.676-2.015-4.452 0-3.282 2.663-5.944 5.944-5.944 1.776 0 3.363.782 4.452 2.015l-1.035 1.035-.524-.524.511-.511c-.823-.714-1.876-1.175-3.029-1.257v.723h-.741v-.723c-1.153.082-2.201.542-3.029 1.257l.511.511-.524.524zm3.046 3.258l.001-.001c0-.067.009-.131.027-.189l-2.147-2.147-.108-.633.633.108 2.147 2.147c.059-.013.122-.027.189-.027.407 0 .741.33.741.741 0 .407-.33.741-.741.741-.406 0-.741-.33-.741-.741zm-4.831-5.572H8.525l.524-.524L8 9.049 9.049 8l1.053 1.049.524-.524v2.101zM24 19.543h-.015v.37h-.438c.041.095.068.199.068.307v3.408c0 .203-.167.37-.37.37h-.741c-.203 0-.37-.167-.37-.37v-.741h-5.202v.741c0 .203-.167.37-.37.37h-.741c-.203 0-.37-.167-.37-.37V20.22c0-.108.022-.213.068-.307h-.438v-.37l1.117-.37.524-.782c.14-.208.37-.33.619-.33h4.402c.249 0 .483.122.619.33l.524.782 1.117.37zm-6.798-.578l-.633.95h5.939l-.633-.95c-.068-.104-.185-.167-.307-.167h-4.059c-.122 0-.239.063-.307.167zm.483 2.34v-.556c0-.054-.045-.095-.095-.095h-1.302c-.054 0-.095.045-.095.095v.556c0 .054.045.095.095.095h1.302c.054 0 .095-.045.095-.095zm5.198 0v-.556c0-.054-.045-.095-.095-.095h-1.302c-.054 0-.095.045-.095.095v.556c0 .054.045.095.095.095h1.302c.054 0 .095-.045.095-.095z"/></svg>