<svg xmlns="http://www.w3.org/2000/svg" width="100%" height="100%" viewBox="0 0 32 32"><path d="M22.224 23.388c-1.153.874-2.582 1.392-4.128 1.392-3.825 0-6.931-3.168-6.931-7.07s3.1-7.07 6.931-7.07v.001c3.831 0 6.93 3.169 6.93 7.07 0 1.685-.579 3.234-1.546 4.449l2.898 2.961.023.024.006.006c.436.479.243 1.013 0 1.255-.163.171-.384.261-.609.261l.001.001c-.227 0-.453-.089-.621-.261l-2.954-3.018zm-1.231-7.68l.001-.001c-.65 2.328-2.275 4.228-4.411 5.199-.401-.196-.761-.468-1.057-.8.11-.036.22-.071.331-.113-.087-.213-.238-.385-.238-.385l-.371-.663-.604-.829c-.018-.135-.041-.266-.041-.408 0-1.445.848-2.688 2.061-3.245-.058.231.082.468.203.758.163.367 1.724 2.203 1.724 2.203.093.13.175.231.255.308.632-.84 1.079-1.829 1.288-2.913.336.243.627.545.859.889zM9.54 17.709l.001-.001c0 1.155.227 2.256.639 3.268-2.85-1.249-4.847-4.132-4.847-7.495 0-4.5 3.576-8.147 7.987-8.147 2.885 0 5.404 1.569 6.809 3.908-.471-.113-.958-.19-1.452-.225-.905-1.101-2.136-1.912-3.547-2.279l-.059.604c-.063.088-.058 1.604-.052 2.238-2.311.911-4.127 2.812-4.963 5.192-.046-.609-.9-.906-.9-.906l-2.542-.627c-.006.082-.006.165-.006.248 0 1.616.534 3.097 1.44 4.281 1.034-.959 1.556-1.835 1.782-2.285-.18.71-.291 1.456-.291 2.226zm1.916-10.895c-1.561.485-2.885 1.515-3.749 2.877l2.652.989c1.155.267 1.202-.645 1.202-.645.127-.45-.059-2.7-.105-3.221zm6.64 16.094c2.816 0 5.097-2.327 5.097-5.199s-2.281-5.199-5.097-5.199c-2.816 0-5.097 2.327-5.097 5.199s2.282 5.199 5.097 5.199z"/></svg>