<!-- Generated by IcoMoon.io -->
<svg version="1.1" xmlns="http://www.w3.org/2000/svg" width="32" height="32" viewBox="0 0 32 32">
<title>map-view</title>
<path d="M14.929 19.864c-0.035-0.049-0.843-1.158-1.663-2.566-1.604-2.75-1.79-4.026-1.79-4.672 0-2.551 2.030-4.626 4.524-4.626s4.524 2.076 4.524 4.626c0 0.645-0.185 1.92-1.789 4.672-0.821 1.407-1.63 2.519-1.663 2.566l-1.072 1.536-1.071-1.536zM16.005 9.707c-0.001 0-0.001 0-0.002 0-1.527 0-2.765 1.218-2.765 2.72 0 0.001 0 0.001 0 0.001 0.001 1.502 1.238 2.72 2.765 2.72s2.765-1.218 2.765-2.72c0-1.502-1.237-2.72-2.763-2.72zM8 22.149h16v1.851h-16v-1.851z"></path>
</svg>
