<!-- Generated by IcoMoon.io -->
<svg version="1.1" xmlns="http://www.w3.org/2000/svg" width="32" height="32" viewBox="0 0 32 32">
<title>delivery-adress</title>
<path d="M9.145 16.897h5.753v0.693h-5.753v-0.693zM23.829 13.505v0.001l2.838 3.701v3.222c0 0.503-0.345 0.854-0.839 0.854-0.124 0-0.226 0-0.307 0-0.226 0.591-0.839 1.385-2.043 1.385-1.189 0-1.783-0.932-2.004-1.385h-8.063c-0.268 0.572-0.92 1.362-2.037 1.362-1.155 0-1.783-0.785-2.033-1.362h-1.754c-0.518 0-0.935-0.402-0.935-0.9v-5.838h-1.319v-0.693h1.319v-2.285c0-0.498 0.417-0.9 0.935-0.9h12.272c0.518 0 0.935 0.402 0.935 0.9v1.938h3.034zM20.075 20.59v-9.023c0-0.111-0.1-0.207-0.216-0.207h-12.272c-0.115 0-0.216 0.097-0.216 0.207v2.285h5.585v0.693h-5.585v5.838c0 0.111 0.1 0.207 0.216 0.207h2.296l0.068 0.263c0.009 0.042 0.311 1.099 1.424 1.099 1.078 0 1.433-1.070 1.447-1.116l0.077-0.244h7.176zM25.948 20.428h0.002v-2.986l-2.484-3.239h-2.642c0 0.6 0 1.897 0 3.194 0 0.886 0 1.772 0 2.437 0 0.309 0 0.572 0 0.761h1.151l0.081 0.24c0.015 0.046 0.412 1.145 1.424 1.145 1.174 0 1.41-1.061 1.419-1.108l0.058-0.281h0.297c0 0 0.143 0 0.575 0 0.058 0 0.12 0 0.12-0.162z"></path>
</svg>
