<!-- Generated by IcoMoon.io -->
<svg version="1.1" xmlns="http://www.w3.org/2000/svg" width="32" height="32" viewBox="0 0 32 32">
<title>horn-next</title>
<path d="M23.272 14.476c0 0 0 0.762-0.727 0.762h-9.454c-2.402 0-4.363-2.055-4.363-4.571h-0.727v10.667h0.727c0-2.476 1.89-4.496 4.22-4.571-0.364 0.456-0.584 0.952-0.584 1.524 0 1.754 2.037 3.048 4.727 3.048s4.727-1.294 4.727-3.048c0-0.571-0.22-1.067-0.583-1.524h1.311c0.727 0 0.727 0.762 0.727 0.762h0.727v-3.048h-0.728zM20.363 18.286c0 0.611-1.273 1.524-3.273 1.524s-3.273-0.913-3.273-1.524c0-0.611 1.273-1.524 3.273-1.524s3.273 0.913 3.273 1.524v0z"></path>
</svg>
