<!-- Generated by IcoMoon.io -->
<svg version="1.1" xmlns="http://www.w3.org/2000/svg" width="32" height="32" viewBox="0 0 32 32">
<title>fax</title>
<path d="M11.476 9.333h9.042v1.463h-9.042v-1.463zM8 11.864h16v6.847h-2.775l0.002-2.165h-1.069v3.242l0.002 0.001-0.002 0.002v0.004h-0.004l-2.77 2.867-5.572 0.004v-6.12h-1.053l-0.005 2.168h-2.753v-6.851zM10.756 14.755v-1.442h-1.371v1.442h1.371zM11.826 13.311v1.442h1.371v-1.442h-1.371zM17.382 21.238l0.001 0.001 1.394-1.443h-1.394v1.442zM19.112 18.715v-2.168h-6.257v5.038h3.482v-2.87h2.775z"></path>
</svg>
