<!-- Generated by IcoMoon.io -->
<svg version="1.1" xmlns="http://www.w3.org/2000/svg" width="32" height="32" viewBox="0 0 32 32">
<title>home2</title>
<path d="M22.656 13.809c0-0.178-0.066-1.096-0.193-1.194l-6.281-4.496c-0.184-0.159-0.39-0.159-0.613 0l-6.070 4.496c-0.109 0.098-0.166 1.017-0.166 1.194v9.65c0 0.158 0.048 0.284 0.14 0.387 0.092 0.098 0.206 0.149 0.333 0.149h3.57c0.149 0 0.267-0.052 0.364-0.149 0.092-0.098 0.14-0.228 0.14-0.387v-5.974h4.227v5.979c0 0.158 0.048 0.284 0.14 0.387 0.092 0.098 0.214 0.149 0.364 0.149h3.552c0.149 0 0.267-0.052 0.364-0.149 0.092-0.098 0.14-0.228 0.14-0.387v-9.655l-0.011 0.001z"></path>
</svg>
