<svg xmlns="http://www.w3.org/2000/svg" width="100%" height="100%" viewBox="0 0 32 32"><path d="M5.333 14.176h1.819v1.77H5.333v-1.77zm18.232.014h1.768v1.744h-1.768V14.19zm-6.677 10.459h.001c.287 0 .517.227.516.505s-.23.505-.517.505c0 .556-.464 1.008-1.035 1.008h-1.035c-.571 0-1.035-.452-1.035-1.008-.286 0-.517-.227-.517-.505s.23-.505.517-.505h3.106zM14.431 5.333h1.841v2.65h-1.841v-2.65zM8.435 7.798l2.468 2.075-1.518 1.543L6.917 9.34l1.518-1.542zm8.453 15.339c.286 0 .517.225.517.503 0 .281-.23.505-.517.505h-3.106c-.286 0-.517-.223-.517-.505 0-.278.23-.503.517-.503h3.106zm5.278-15.599l1.585 1.478-2.132 2.403-1.585-1.476 2.132-2.404zm-6.832 2.999c2.861 0 5.178 2.256 5.177 5.038 0 1.862-1.047 3.47-2.589 4.342v1.706c0 .557-.464 1.008-1.035 1.008h-3.106c-.571 0-1.035-.45-1.035-1.008v-1.706c-1.541-.873-2.589-2.48-2.589-4.342 0-2.782 2.319-5.038 5.178-5.038z"/></svg>