<svg xmlns="http://www.w3.org/2000/svg" width="100%" height="100%" viewBox="0 0 32 32"><path d="M9.145 16.897h5.753v.693H9.145v-.693zm14.684-3.392v.001l2.838 3.701v3.222c0 .503-.345.854-.839.854h-.307c-.226.591-.839 1.385-2.043 1.385-1.189 0-1.783-.932-2.004-1.385h-8.063c-.268.572-.92 1.362-2.037 1.362-1.155 0-1.783-.785-2.033-1.362H7.587c-.518 0-.935-.402-.935-.9v-5.838H5.333v-.693h1.319v-2.285c0-.498.417-.9.935-.9h12.272c.518 0 .935.402.935.9v1.938h3.034zm-3.754 7.085v-9.023c0-.111-.1-.207-.216-.207H7.587c-.115 0-.216.097-.216.207v2.285h5.585v.693H7.371v5.838c0 .111.1.207.216.207h2.296l.068.263c.009.042.311 1.099 1.424 1.099 1.078 0 1.433-1.07 1.447-1.116l.077-.244h7.176zm5.873-.162h.002v-2.986l-2.484-3.239h-2.642v6.392h1.151l.081.24c.015.046.412 1.145 1.424 1.145 1.174 0 1.41-1.061 1.419-1.108l.058-.281H25.829c.058 0 .12 0 .12-.162z"/></svg>