<!-- Generated by IcoMoon.io -->
<svg version="1.1" xmlns="http://www.w3.org/2000/svg" width="32" height="32" viewBox="0 0 32 32">
<title>door-right2-next</title>
<path d="M26.667 14.398c0-0.11 0.010-2.826-1.382-4.196-0.564-0.556-1.27-0.819-2.124-0.772l-2.21 0.236c-0.031 0-2.728 0.005-4.166 0.005-1.585 0-4.466 0-4.644-0.005-0.213-0.005-0.741-0.079-1.255-0.152-0.58-0.084-1.174-0.168-1.488-0.179-0.533-0.021-0.874 0.189-1.092 0.336-0.711 0.016-1.316 0.284-1.793 0.793-1.113 1.181-1.179 3.33-1.179 3.834 0 0.089 0 0.1 0 0.194 0 0.52 0.071 2.647 1.179 3.828 0.497 0.53 1.128 0.798 1.809 0.814 0.183 0.121 0.528 0.336 1.077 0.315 0.32-0.010 0.914-0.095 1.488-0.178 0.513-0.073 1.092-0.147 1.305-0.152v-0.788c-0.254 0.005-0.849 0.084-1.407 0.163-0.533 0.079-1.133 0.163-1.412 0.173-0.315 0.010-0.503-0.105-0.65-0.2-0.081-0.053-0.153-0.1-0.249-0.121l-0.091-0.010c-0.538 0-0.971-0.184-1.321-0.557-1.016-1.082-0.966-3.345-0.966-3.371v-0.026c0-0.021-0.056-2.285 0.966-3.371 0.35-0.373 0.783-0.556 1.321-0.556l0.091-0.010c0.091-0.021 0.167-0.068 0.249-0.121 0.147-0.095 0.335-0.215 0.65-0.2 0.28 0.010 0.884 0.095 1.412 0.173 0.559 0.079 1.088 0.158 1.341 0.163 0.188 0.005 3.069 0.005 4.664 0.005 1.138 0 4.089-0.005 4.206-0.005l2.23-0.236c0.619-0.037 1.123 0.147 1.534 0.551 1.133 1.118 1.149 3.534 1.149 3.629v0c-0.020 0.032 0.005 2.484-1.149 3.624-0.411 0.41-0.914 0.588-1.514 0.557l-2.291-0.242c-0.167 0-4.441 0-6.478-0.005l-0.015 0.016-0.005-0.005-4.928 5.094 0.538 0.557 4.715-4.873c2.388 0 6.117 0 6.137 0l2.271 0.242c0.833 0.042 1.54-0.215 2.103-0.772 1.377-1.375 1.377-4.101 1.372-4.196l0.002-0.003zM16.379 16.903l2.027 0.247c0.127 0.016 0.249-0.073 0.274-0.205l0.066-0.331c0.3-1.46 0.3-2.972 0-4.432l-0.071-0.336c-0.025-0.131-0.147-0.22-0.274-0.205l-2.032 0.236 0.066 0.556c0.158 1.302 0.158 2.621 0 3.923l-0.056 0.546v0.001zM9.932 11.882l-0.914-0.241c-0.127-0.016-0.249 0.074-0.275 0.205l-0.066 0.331c-0.305 1.46-0.305 2.973 0 4.432l0.066 0.336c0.025 0.131 0.147 0.22 0.275 0.205l0.919-0.242-0.066-0.557c-0.158-1.302-0.158-2.621 0-3.923l0.061-0.546z"></path>
</svg>
