<svg xmlns="http://www.w3.org/2000/svg" width="100%" height="100%" viewBox="0 0 32 32"><path d="M13.159 20.571h1.328v2.968h-1.24s-.864-.044-1.127-1.018c-.136-.431.02-.93.088-1.126.064-.197.353-.65.951-.824zm-3.465-3.996c-2.364.499-3.243-2.182-2.983-3.437 0 0 .28-2.712 2.197-2.879 1.523-.13 2.646 1.502 2.762 2.438.07.606.393 3.38-1.976 3.879zm14.318 3.708h-.001s2.027 1.553.731 4.542c-1.294 2.992-6.029 1.437-6.029 1.437s-1.746-.552-3.777-.109c-2.025.444-3.773.276-3.773.276s-2.37.055-3.046-2.878c-.674-2.937 2.365-4.544 2.593-4.818.226-.279 1.802-1.329 2.816-2.992 1.017-1.659 4.059-2.989 6.202.277 1.578 2.215 4.283 4.264 4.283 4.264zm-8.107 4.452l-.001-.002v-7.286l-1.393-.021v1.971h-1.64s-1.64.133-2.213 1.953c-.2 1.215.176 1.931.242 2.083s.596 1.041 1.927 1.302h3.078zm5.737-.021l-.001.001v-5.14h-1.529v3.858h-1.459s-.466-.067-.554-.361v-3.448l-1.439-.051v3.837s.064.956 1.439 1.303h3.542zm5.015-10.246c0 .668.284 3.488-2.309 3.545-2.596.055-2.704-1.717-2.704-2.988 0-1.332.276-3.216 2.366-3.216 2.086 0 2.647 1.997 2.647 2.659zm-6.929-2.326c-1.747-.219-2.143-1.767-1.973-3.32.139-1.269 1.689-3.215 2.931-2.936 1.236.275 2.367 1.885 2.138 3.268-.225 1.385-1.346 3.213-3.096 2.988zm-5.636-.217c-1.308 0-2.367-1.474-2.367-3.297s1.059-3.295 2.367-3.295 2.364 1.473 2.364 3.295-1.057 3.297-2.364 3.297z"/></svg>