<!-- Generated by IcoMoon.io -->
<svg version="1.1" xmlns="http://www.w3.org/2000/svg" width="32" height="32" viewBox="0 0 32 32">
<title>microphone</title>
<path d="M15.999 20.172c-1.649 0-2.986-1.248-2.986-2.788v-6.596c0-1.54 1.337-2.788 2.986-2.788s2.986 1.248 2.986 2.788v6.596c0 1.54-1.337 2.788-2.986 2.788zM20.653 14.038h0.68v1.096h-0.679v2.289c0 2.112-1.599 3.874-3.727 4.29v1.46h0.391v0.827h-2.636v-0.827h0.391v-1.446c-2.169-0.387-3.809-2.165-3.809-4.304v-2.289h-0.597v-1.096h1.565v3.423c0 1.943 1.687 3.519 3.768 3.519s3.768-1.575 3.768-3.519v-3.423h0.885z"></path>
</svg>
