<svg xmlns="http://www.w3.org/2000/svg" width="100%" height="100%" viewBox="0 0 32 32"><path d="M24 9.333H8v13.333h16V9.333zm-4.639 10.615c-2.211 0-2.751-.937-2.751-3.854 0-3.031.64-3.813 2.751-3.813 2.081 0 2.411.896 2.491 2.917h-1.331c-.05-1.281-.25-1.625-1.16-1.625-1.15 0-1.32.354-1.32 2.5 0 2.448.168 2.729 1.32 2.729.911 0 1.111-.376 1.16-1.677h1.331c-.08 1.999-.62 2.823-2.491 2.823zm-6.382 0c-2.211 0-2.751-.937-2.751-3.854 0-3.031.64-3.813 2.751-3.813 2.081 0 2.411.896 2.491 2.917h-1.331c-.05-1.281-.25-1.625-1.16-1.625-1.15 0-1.32.354-1.32 2.5 0 2.448.168 2.729 1.32 2.729.911 0 1.111-.376 1.16-1.677h1.331c-.08 1.999-.62 2.823-2.491 2.823z"/></svg>