<!-- Generated by IcoMoon.io -->
<svg version="1.1" xmlns="http://www.w3.org/2000/svg" width="32" height="32" viewBox="0 0 32 32">
<title>payment</title>
<path d="M24.854 9.333h-17.708c-1 0.003-1.81 0.823-1.813 1.836v10.994c0.003 1.013 0.813 1.834 1.813 1.836h17.708c1-0.003 1.81-0.823 1.813-1.836v-10.994c-0.003-1.013-0.813-1.834-1.813-1.836zM25.019 22.164c-0.001 0.092-0.074 0.166-0.164 0.166h-17.708c-0.091-0.001-0.163-0.075-0.164-0.166v-5.542h18.037l-0.001 5.542zM25.019 11.536v2.532h-18.037v-2.898c0.002-0.092 0.074-0.165 0.164-0.167h17.708c0.091 0.002 0.163 0.075 0.164 0.166l0.001 0.367z"></path>
</svg>
