<!-- Generated by IcoMoon.io -->
<svg version="1.1" xmlns="http://www.w3.org/2000/svg" width="32" height="32" viewBox="0 0 32 32">
<title>emission-next</title>
<path d="M9.816 19.698c2.025 0 2.535-0.974 2.731-3.576h1.339c-0.138 3.404-1.323 4.73-4.064 4.73-3.426 0-4.489-1.715-4.489-6.515 0-4.61 1.078-6.336 4.489-6.336 3.118 0 3.905 1.537 4.042 4.767h-1.355c-0.139-2.586-0.685-3.441-2.694-3.441-2.401 0-3.034 1.114-3.034 5.010 0 4.28 0.632 5.362 3.034 5.362zM19.946 8.005c3.373 0 4.473 1.726 4.473 6.336 0 4.805-1.046 6.515-4.473 6.515s-4.489-1.715-4.489-6.515c0-4.61 1.079-6.336 4.489-6.336zM19.946 19.698c2.396 0 3.017-1.082 3.017-5.362 0-3.896-0.616-5.010-3.017-5.010s-3.034 1.114-3.034 5.010c0 4.28 0.632 5.362 3.034 5.362zM24.073 23.594c0-0.682 0.361-1.044 0.84-1.369l0.467-0.314c0.383-0.26 0.776-0.525 0.776-1.131 0-0.563-0.303-0.796-0.84-0.796-0.558 0-0.829 0.243-0.876 0.99h-0.473c0.032-0.92 0.383-1.467 1.355-1.467 0.919 0 1.344 0.466 1.344 1.266 0 0.768-0.457 1.125-0.882 1.407l-0.467 0.314c-0.547 0.379-0.749 0.596-0.749 1.012v0.081h2.061v0.411h-2.545v-0.406h-0.011z"></path>
</svg>
