<!-- Generated by IcoMoon.io -->
<svg version="1.1" xmlns="http://www.w3.org/2000/svg" width="32" height="32" viewBox="0 0 32 32">
<title>wrench</title>
<path d="M23.999 11.979c0 2.185-1.789 3.975-3.975 3.975-0.476 0-0.914-0.080-1.351-0.24l-7.785 7.785c-0.674 0.674-1.709 0.674-2.383 0s-0.674-1.71 0-2.384l7.79-7.79c-0.16-0.438-0.24-0.876-0.24-1.351 0-2.185 1.789-3.975 3.975-3.975 0.476 0 0.914 0.080 1.351 0.24l-2.384 2.383c-0.316 0.316-0.316 0.796 0 1.112l1.271 1.271c0.316 0.316 0.796 0.316 1.112 0l2.384-2.383c0.156 0.442 0.236 0.876 0.236 1.355l-0.001 0.001z"></path>
</svg>
