<!-- Generated by IcoMoon.io -->
<svg version="1.1" xmlns="http://www.w3.org/2000/svg" width="32" height="32" viewBox="0 0 32 32">
<title>basket-next</title>
<path d="M12.977 18.342c-0.217 0.373-0.088 0.66-0.023 0.766 0.152 0.249 0.428 0.332 0.65 0.332 0.009 0 0.018 0 0.027 0h8.889v-1.102h-8.203c0.231-0.318 0.53-0.715 0.788-1.061h4.092c0.733 0 1.424-0.392 1.798-1.023l3.005-5.238h-11.498l-1.663-3.016h-2.839v1.102h2.189l0.871 1.577 3.106 6.021c-0.383 0.508-1.051 1.397-1.189 1.641v0zM13.037 12.118h9.060l-2.050 3.574c-0.18 0.3-0.498 0.48-0.848 0.48h-4.069l-2.092-4.053zM14.332 20.173c-1.083 0-1.968 0.858-1.968 1.914s0.88 1.914 1.968 1.914c1.083 0 1.968-0.858 1.968-1.914s-0.885-1.914-1.968-1.914zM14.332 22.898c-0.475 0-0.866-0.364-0.866-0.811s0.387-0.811 0.866-0.811c0.475 0 0.866 0.364 0.866 0.811s-0.392 0.811-0.866 0.811zM20.801 20.173c-1.083 0-1.968 0.858-1.968 1.914s0.88 1.914 1.968 1.914c1.083 0 1.968-0.858 1.968-1.914s-0.88-1.914-1.968-1.914zM20.801 22.898c-0.475 0-0.866-0.364-0.866-0.811s0.387-0.811 0.866-0.811c0.475 0 0.866 0.364 0.866 0.811s-0.387 0.811-0.866 0.811z"></path>
</svg>
