<!-- Generated by IcoMoon.io -->
<svg version="1.1" xmlns="http://www.w3.org/2000/svg" width="32" height="32" viewBox="0 0 32 32">
<title>pcm</title>
<path d="M5.333 9.333h21.333v13.333h-21.333v-13.333zM25.281 21.333v-10.612h-18.563v10.612h18.563zM12.225 18.588c0 0.281-0.229 0.51-0.509 0.51h-1.357c-0.28 0-0.509-0.229-0.509-0.51v-1.361c0-0.281 0.229-0.51 0.509-0.51h1.357c0.28 0 0.509 0.229 0.509 0.51v1.361zM12.225 14.76c0 0.281-0.229 0.51-0.509 0.51h-1.357c-0.28 0-0.509-0.229-0.509-0.51v-1.361c0-0.281 0.229-0.51 0.509-0.51h1.357c0.28 0 0.509 0.229 0.509 0.51v1.361zM15.533 18.588c0 0.281-0.229 0.51-0.509 0.51h-1.357c-0.28 0-0.509-0.229-0.509-0.51v-1.361c0-0.281 0.229-0.51 0.509-0.51h1.357c0.28 0 0.509 0.229 0.509 0.51v1.361zM15.533 14.76c0 0.281-0.229 0.51-0.509 0.51h-1.357c-0.28 0-0.509-0.229-0.509-0.51v-1.361c0-0.281 0.229-0.51 0.509-0.51h1.357c0.28 0 0.509 0.229 0.509 0.51v1.361zM18.842 18.588c0 0.281-0.229 0.51-0.509 0.51h-1.357c-0.28 0-0.509-0.229-0.509-0.51v-1.361c0-0.281 0.229-0.51 0.509-0.51h1.357c0.28 0 0.509 0.229 0.509 0.51v1.361zM18.842 14.76c0 0.281-0.229 0.51-0.509 0.51h-1.357c-0.28 0-0.509-0.229-0.509-0.51v-1.361c0-0.281 0.229-0.51 0.509-0.51h1.357c0.28 0 0.509 0.229 0.509 0.51v1.361zM22.151 18.588c0 0.281-0.229 0.51-0.509 0.51h-1.357c-0.28 0-0.509-0.229-0.509-0.51v-1.361c0-0.281 0.229-0.51 0.509-0.51h1.357c0.28 0 0.509 0.229 0.509 0.51v1.361zM22.151 14.76c0 0.281-0.229 0.51-0.509 0.51h-1.357c-0.28 0-0.509-0.229-0.509-0.51v-1.361c0-0.281 0.229-0.51 0.509-0.51h1.357c0.28 0 0.509 0.229 0.509 0.51v1.361z"></path>
</svg>
