<svg xmlns="http://www.w3.org/2000/svg" width="100%" height="100%" viewBox="0 0 32 32"><path d="M5.333 16.624c0 1.468.473 2.777 1.42 3.928 1.09-.518 1.964-1.324 2.624-2.417s.99-2.317.99-3.669v-3.798c-1.434.23-2.631.907-3.591 2.029s-1.441 2.432-1.441 3.928l-.001-.001zm3.14 5.309c.889.489 1.85.734 2.882.734s2.007-.245 2.925-.734c-1.577-.978-2.552-2.244-2.925-3.798-.344 1.554-1.305 2.82-2.882 3.798zm3.914-7.467c0 1.324.33 2.532.99 3.626s1.534 1.914 2.624 2.461c-.975-1.151-1.462-2.46-1.462-3.928s.487-2.777 1.462-3.928c-.975-1.122-2.179-1.799-3.613-2.029v3.798l-.001.001zm3.612 6.085c1.061-.547 1.928-1.36 2.602-2.439s1.01-2.294 1.011-3.647v-3.798c-1.462.23-2.667.907-3.613 2.029.975 1.18 1.462 2.489 1.462 3.928s-.487 2.748-1.462 3.928v-.001zm1.721 1.382c.918.489 1.892.734 2.925.734s1.993-.245 2.882-.734c-1.577-.978-2.538-2.244-2.882-3.798-.373 1.554-1.348 2.82-2.925 3.798zm3.914-7.467c0 1.324.33 2.532.99 3.626s1.534 1.914 2.624 2.461c.946-1.151 1.42-2.46 1.42-3.928 0-1.496-.48-2.806-1.441-3.928s-2.158-1.799-3.591-2.029v3.798l-.001.001z"/></svg>