<svg xmlns="http://www.w3.org/2000/svg" width="100%" height="100%" viewBox="0 0 32 32"><path d="M26.644 24.115l-.002-.022c.012.003.014.01.024.016 0 .042-.02.08-.051.105l-.005.008h-.013v.005h-.021v.005h-.018v.005l-.021.005v.005c-.007.005-.007.009-.013.013v.005c0 .013.003.024.008.034l.008.005.005.017h.004v.008h.005v.034c-.008.008-.004.011-.008.017l-.018.013v.005h-.008v.005h-.008v.005h-.013v.005h-.005v.005h-.018v.005h-.013v.005h-.018c-.043.014-.1.017-.143.029h-.03v.005h-.026v.005h-.03v.005l-.089.005v.005l-.102.005h-.005v.005h-.029l-.051-.017-.005-.008h-.008l-.005-.008h-.008v-.008c-.011-.013-.027-.02-.045-.02-.007 0-.014.001-.019.003v.005h-.021v.005h-.024c-.063.019-.138.023-.2.042l-.048.005v.005h-.021v.005h-.021v.005l-.043.005v.005h-.039v.005h-.039v.005h-.039v.005l-.098.008v.005h-.011v.005h-.008v.005h-.013v.005h-.008v.005h-.013v.005h-.018v.005h-.018v.005h-.021v.005l-.197.017v.005h-.021v.005h-.021v.005h-.018v.006h-.021c-.119.038-.252.058-.367.101l-.072.017v.005h-.013v.005h-.013v.005l-.03.005v.005h-.018v.005l-.023-.001c-.031.007-.063.01-.097.01l-.026-.001c-.027 0-.097.014-.115-.005h-.002c-.008 0-.017.002-.024.005l.001.101c-.011.005-.022.008-.035.009l-.005-.021-.184-.02-.016-.04-.005-.05h-.005c-.005-.017.005-.037-.005-.046l.002-.026c0-.02-.002-.038-.005-.055h-.222l-.005.013h-.001l-.005.013-.008.005v.008h-.005l-.005.013-.008.005v.008l-.008.005-.005.013-.013.008v.008l-.018.013v.008l-.018.013v.008l-.021.017v.008l-.03.026-.005.013-.056.05-.048.05h-.008l-.026.029-.013.005-.008.013h-.008l-.013.017-.013.005-.005.008h-.008l-.005.008h-.008l-.008.013H23.2l-.005.008-.013.005v.001h-.008l-.005.008h-.008l-.005.008h-.008l-.005.008h-.008l-.005.008h-.008l-.005.008h-.008l-.005.008h-.007l-.005.008-.018.005-.005.008-.018.005-.005.008h-.008l-.008.008h-.008v.005h-.008v.005h-.008l-.005.008h-.008v.005h-.008v.005h-.013v.005h-.008v.005h-.008v.005l-.026.008v.005h-.013v.005h-.008v.005h-.013v.005h-.008v.005l-.021.005v.005l-.039.008v.005h-.008v.005h-.015v.005h-.008v.005h-.018v.005h-.013v.005l-.03.005v.005l-.034.005v.005l-.034.005v.005h-.021v.005h-.021v.004h-.018v.005h-.026v.005h-.023v.005h-.026v.005h-.03v.005h-.034v.005h-.039v.005h-.048v.005h-.066c-.02.004-.04.005-.062.005l-.019-.001c-.018.002-.036.002-.054.002-.032 0-.063-.002-.091-.006h-.056v-.005h-.048v-.005h-.034v-.005l-.089-.008c-.025-.008-.06-.014-.085-.021h-.021v-.005l-.051-.008v-.005l-.034-.005v-.005l-.03-.005v-.005h-.013v-.005h-.014v-.005h-.018v-.005h-.013v-.005h-.013v-.005h-.013v-.005l-.026-.005v-.005h-.009v-.005l-.026-.005v-.005h-.008v-.005h-.013v-.005h-.008v-.005h-.013v-.005l-.018-.005v-.005h-.006v-.005l-.018-.005v-.005H21.4v-.005l-.026-.008v-.005h-.008v-.001h-.008v-.005h-.008v-.005h-.008l-.008-.008h-.008l-.005-.008h-.008l-.008-.008h-.008V25.1h-.008l-.005-.008h-.008v-.003h-.008l-.005-.008-.013-.005v-.005l-.018-.005v-.005l-.013-.005-.005-.008h-.008l-.005-.008h-.008l-.008-.013h-.008l-.005-.008h-.008l-.008-.013h-.008l-.008-.013h-.008l-.008-.013h-.008l-.008-.013H21.1l-.018-.021h-.008l-.018-.021h-.008l-.039-.042h-.008l-.034-.038-.021-.017v-.008l-.039-.034v-.008l-.008-.005v-.005l-.013-.008v-.014l-.03-.021h-.008l-.005-.008h-.008v-.005h-.008l-.005-.008-.018-.005v-.005l-.013-.005-.005-.008h-.008l-.005-.008h-.008l-.005-.008h-.008l-.01-.014c-.026-.014-.049-.034-.067-.058l-.439.008v.013c-.004.002-.007.005-.008.008l-.085.013h-.068v.005c-.025.008-.066-.002-.089.005h-.107v.005h-.125c-.027.004-.055.006-.084.006l-.043-.002h-.036c-.026.005-.053.007-.079.007l-.043-.002v-.005l-.034.005c-.011-.001-.02-.008-.034-.005-.002.002-.005.005-.009.005l-.004-.001v-.005h-.026v.005h-.018v-.005l-.037.005c-.016-.002-.033-.002-.05-.002s-.034 0-.048.002h-.501c-.021.004-.043.005-.066.005l-.025-.001-1.254.005-.556-.005c-.027.004-.054.006-.082.006l-.04-.002h-.697c-.027.004-.053.006-.08.006l-.038-.002h-.261c-.017-.002-.034-.002-.051-.002-.03 0-.061.002-.087.006h-.326l-.04-.002c-.027 0-.054.002-.077.006h-.307l-.452.005v-.005l-.018-.005v-.005h-.162v.005h-.015l-.045-.002c-.03 0-.059.002-.085.006h-.077l-.132.008v.005h-.323c-.024 0-.048-.004-.069-.009h-.026v-.005h-1.166v.005l-.018.013c0 .041-.007.08-.018.113-.023.009-.056.014-.081.021l-.024-.001c-.027.009-.056.014-.087.014h-.005l-.026-.021.008-.168h-.252l-.005.008h-.008l-.008.013h-.002l-.008.013-.013.005-.005.008h-.008l-.005.008h-.008l-.008.013h-.008l-.005.008-.013.005v.005h-.008l-.005.008h-.008l-.005.008h-.008l-.005.008h-.008l-.005.008-.026.008-.005.008-.026.008-.03.034c-.024.026-.051.049-.081.071l-.039.042h-.008l-.021.026h-.008l-.018.021h-.008l-.013.017h-.008l-.008.013h-.008l-.008.013h-.008l-.008.013h-.008l-.005.008h-.008l-.008.013h-.008l-.005.008-.013.005v.005l-.018.005-.005.008h-.008l-.005.008h-.008l-.005.008h-.009v.005h-.008l-.005.008h-.008l-.008.008h-.008v.005h-.009l-.005.008h-.008l-.008.008h-.008v.005h-.008v.005h-.01v.005h-.008v.005l-.026.008v.005h-.013v.005H10.9v.005l-.026.008v.005h-.013v.005h-.008v.005h-.013v.005l-.018.005v.005l-.023.005v.005h-.008v.005l-.026.005v.005h-.008v.005l-.026.005v.005h-.013v.005h-.013v.005l-.043.008v.005l-.034.005v.005h-.018v.005h-.018v.005h-.018v.005h-.021v.005l-.043.005v.005h-.026c-.035.011-.084.011-.12.021h-.039v.005l-.061-.001c-.027.005-.056.007-.085.007l-.047-.002v-.005c-.027-.008-.072.002-.098-.005h-.059v-.005h-.051c-.045-.013-.105-.009-.149-.021l-.059-.005v-.005l-.072-.008v-.005h-.021v-.005h-.021v-.005h-.017v-.005h-.017v-.005l-.039-.005v-.005h-.013v-.005l-.044-.008c-.097-.032-.188-.075-.268-.123l-.026-.008-.005-.008-.017-.005-.005-.008h.001v-.005h-.008l-.005-.008h-.008l-.005-.008h-.008l-.005-.008-.017-.005-.008-.013H9.08l-.005-.008h-.008l-.005-.008-.013-.005-.008-.013h-.008l-.008-.013h-.008l-.013-.017h-.008l-.013-.017h-.008l-.021-.026h-.008l-.039-.042h-.008l-.034-.038-.021-.017v-.008l-.039-.034v-.008l-.008-.005v-.005l-.017-.013v-.008l-.017-.013v-.008l-.017-.013v-.008l-.013-.008v-.008l-.013-.008v-.008l-.008-.005-.005-.013h-.005v-.008l-.008-.005v-.008l-.013-.008-.005-.017-.008-.005-.005-.013h-.005l-.005-.017-.008-.005-.005-.017-.008-.005v-.008c-.009-.011-.016-.024-.022-.038l-.128-.005h-.017v-.005h-.013v-.005h-.013v-.005h-.013v-.005h-.008v-.005H8.41v-.005c-.026 0-.051.005-.072.013l-.024-.001c-.023.005-.047.008-.072.008-.017 0-.034-.002-.049-.004-.026-.003-.016-.01-.026-.026-.002-.002-.006-.002-.008-.008h-.005c-.028 0-.056-.003-.081-.008h-.055v-.005H7.97v-.005l-.095-.005v-.005h-.034c-.04-.011-.089-.015-.128-.026l-.128-.005-.017.005v-.005h-.034v-.005h-.021v-.005h-.017v-.005h-.081v-.005h-.048l-.107-.005v-.005c-.023-.005-.058 0-.081-.005s-.06.002-.081-.005h-.079v-.005l-.102-.005-.006.012-.021.005v.005h-.059v.005l-.026.008v.005h-.087c-.023.004-.046.006-.069.006l-.035-.002v-.005H6.58v-.005h-.021v-.005l-.029-.001c-.051-.015-.098-.038-.139-.066l-.043-.047h-.01l-.005-.008h-.008v-.001h-.008v-.005h-.013v-.005l-.03-.005v-.005l-.03-.005v-.005h-.013v-.005h-.013v-.005H6.21v-.005l-.039-.013v-.005l-.026-.008v-.005l-.115-.013v-.005H6v-.005h-.03v-.005h-.026v-.005l-.039-.005v-.005h-.021v-.005h-.013v-.005h-.026v-.005h-.048v-.005h-.048v-.005l-.09-.005v-.005h-.03v-.005h-.03v-.002h-.017v-.005h-.013v-.005l-.043-.008v-.005l-.017-.005v-.005l-.021-.005-.005-.008h-.008l-.013-.017-.026-.021v-.008l-.008-.005v-.008h-.005l-.005-.017h-.005l-.008-.038H5.4v-.008h-.005l-.005-.026h-.005v-.013H5.38v-.013h-.005v-.013H5.37v-.013h-.005v-.013H5.36l-.021-.076v-.002c0-.013.005-.024.013-.032h.008l.008-.013h.008c.003-.002.003-.005.008-.008l-.017-.141h.005v-.008h.005v-.008h.005v-.013h.005v-.026h.002v-.008l.034-.026v-.017l-.005.001-.001-.013c0-.015.003-.029.009-.042l.008-.005v-.008l.008-.005v-.007l.017-.013v-.008l.017-.013v-.008l.013-.008.005-.013.008-.005v-.008l.008-.005v-.008l.008-.004c.011-.019.018-.041.018-.064l-.003-.019c-.012-.032-.027-.062-.04-.087v-.013h-.005v-.017h-.005v-.021h-.005v-.017h-.005l-.048-.282v-.029c-.011-.036-.01-.091-.021-.13v-.047h-.005l.001-.055c-.005-.032-.007-.064-.007-.096s.002-.065.007-.092v-.063h.005l.008-.08.03-.067.008-.005.005-.017.008-.005.005-.013h.005l.005-.017.013-.008v-.008l.008-.005.005-.013h.005v-.008l.013-.008v-.008l.017-.013.005-.013.008-.005v-.008l.021-.017v-.008l.025-.02v-.008l.008-.005.013-.017.013-.008v-.008l.008-.005v-.013l.013-.008.005-.017.013-.005.005-.008h.008v-.005l.008-.005v-.013l.008-.005v-.005h.008l.008-.013h.008l.051-.055.021-.017c-.006-.023 0-.01.005-.029h.008c.003-.014.011-.015.017-.026h.013c.004-.026.014-.019.03-.029l.008-.013.026-.005.053-.053h.008l.077-.08.005.002c-.005-.014-.009-.027-.012-.043.008-.008.01-.017.017-.026l.017-.013v-.008l.026-.021.008-.013.115-.026c.083-.029.178-.05.256-.084l.026-.005v-.005h.008v-.005h.013v-.005l.017-.005v-.005h.013v-.005l.026-.008v-.005h.008v-.005h.008v-.005h.015v-.005h.008v-.005h.011v-.005h.008v-.005h.008v-.005h.008v-.005l.017-.005v-.005l.017-.005v-.005l.017-.005v-.006l.021-.005v-.005l.026-.008v-.005h.008v-.005h.008v-.005h.008v-.005h.008v-.005h.008l.008-.008h.008l.005-.008.017-.005-.001-.004c.016-.006.034-.009.051-.009h.039l.017-.021h.008l.013-.017h.009l.005-.008.017-.005v-.005h.008v-.005l.026-.008v-.005h.013v-.005l.017-.005v-.005h.008v-.005h.013v-.005l.017-.005v-.005h.011v-.005l.017-.005v-.001h.011v-.005h.008v-.005h.013v-.005l.017-.005v-.005h.013v-.005h.008v-.005l.021-.005v-.005h.013v-.005h.008v-.005h.014v-.005l.017-.005v-.005h.013v-.005h.008v-.005h.013v-.005H7.3v-.005h.013v-.005h.008v-.005h.014v-.005h.008v-.005h.013v-.005h.013v-.005h.007v-.005h.013v-.005h.008v-.005l.026-.005v-.005h.008v-.005l.039-.008v-.005h.008v-.002l.039-.008v-.005h.008v-.005l.026-.005v-.005l.026-.005v-.005h.008v-.005l.036-.008c.056-.028.119-.044.186-.044 0-.017 0-.03.008-.038.012-.018.042-.02.064-.029v-.005h.013v-.005h.005v-.005h.013v-.005h.008v-.005l.026-.005v-.005h.008v-.005l.026-.005v-.005h.008v-.005H8v-.005l.048-.005v-.005h.014v-.005l.039-.008v-.005h.013v-.005h.013v-.005h.013v-.005h.013v-.005h.013v-.005h.013v-.005l.026-.005v-.005h.017v-.005l.026-.005v-.005l.026-.005v-.005h.009v-.005h.013v-.005h.013v-.005h.013v-.005h.014v-.005l.039-.008v-.005h.021v-.005h.021v.005h.043v.005l.033-.001c.011.004.023.007.036.009v-.005h.013v-.005h.013v-.005h.013v-.005h.013v-.002h.013v-.005h.013v-.005h.008v-.005h.013v-.005h.013v-.005h.013v-.005h.013l.059-.026.026-.005v-.005h.009v-.005h.013v-.005h.013v-.005H8.8v-.005h.009c.107-.046.228-.075.334-.122l.026-.005v-.005l.039-.008.059-.026h.013v-.005h.013v-.005h.013v-.005h.013v-.005h.008v-.005l.039-.008v-.005l.039-.008v-.005h.013v-.005h.008v-.005l.039-.008v-.005h.013v-.005h.013v-.005h.013v-.005h.013c.165-.065.351-.107.521-.168h.018v-.005h.013v-.005h.013v-.005h.013v-.005h.013v-.005h.013v-.005h.018v-.005h.014v-.005h.013v-.005h.018v-.005h.013v-.005h.013v-.005h.013v-.005h.013v-.005h.012v-.005h.013v-.005h.013v-.005h.013v-.002h.013v-.005h.018v-.005l.055-.013v-.005h.013v-.005h.013v-.005h.018v-.005l.043-.008v-.005l.03-.005v-.005l.03-.005v-.005h.013v-.005h.018v-.005h.013v-.005h.018c.046-.018.101-.031.149-.047h.018v-.005h.018v-.005h.013v-.005h.018c.067-.024.146-.039.213-.063h.018v-.005h.018v-.005h.018v-.005h.018c.076-.026.168-.04.243-.067l.085-.017c.098-.032.212-.047.311-.08h.021l.068-.021.039-.005v-.005h.008l.018-.021h.008l.005-.008.043-.008v-.005l.043-.005v-.005l.039-.005v-.005h.021v-.003h.021v-.005h.014v-.005h.018V19.3l.048-.005c.074-.023.164-.028.239-.05h.026c.02-.006.049-.011.068-.017h.026c.03-.008.068-.013.095-.021h.026c.03-.009.069-.012.098-.021l.051-.005c.046-.014.101-.016.149-.029h.03v-.005h.026v-.005h.026v-.005h.026c.05-.015.115-.015.166-.029l.059-.005v-.005h.03v-.005h.034v-.005h.034v-.005h.034v-.005h.03v-.005h.034v-.006h.034v-.005h.03v-.005h.039c.044-.012.101-.009.143-.021h.039c.062-.017.144-.008.205-.026h.048v-.005h.048V19h.051v-.005h.051v-.005h.058v-.005h.055v-.005h.059v-.005l.098-.005h.048c.023-.005.063.003.089-.005s.072.003.098-.005v-.005h.128v-.005h.223c.023-.003.046-.005.069-.005l.025.002c.024-.002.05-.003.075-.003.04 0 .079.002.112.007h.04c.018-.002.037-.002.055-.002.032 0 .063.002.091.006l.243.008v.005h.043l.081.005v.005h.053v.005h.051v.005h.048v.005h.048v.005h.039v.005h.035v.005h.039v.005l.064.005v.005h.034c.031.009.075.012.107.021l.056.005c.041.012.095.017.136.029h.021v.005h.021v.005h.021v.005h.021v.005h.021c.083.026.177.038.256.067l.081.017v.005h.013v.005h.013v.005h.013v.005h.014v.005h.013l.013.021.043.013v.005l.018.005v.005h.013v.005l.018.005v.005h.013v.005h.005v.005h.013v.005l.018.005v.005h.013v.005l.018.005v.005h.013v.005l.018.005v.005h.014v.005l.018.005v.005h.013v.005l.018.005v.005h.008v.005h.013v.005l.018.005v.005h.013v.005l.018.005v.005h.013v.005l.018.005v.005h.013v.005l.018.005v.005h.006v.005h.013v.005l.018.005h.013v.005l.018.005v.005h.008v.005h.013v.005l.018.005v.005h.008v.005h.013v.005l.018.005v.005l.022.005v.005h.008v.005h.008v.005h.008v.005h.009v.005l.018.005v.005h.008v.005h.013v.005l.018.005v.005h.008v.005h.013v.005l.026.008v.005h.008v.005h.013v.005l.026.008v.005h.008v.005h.013v.005l.018.005v.005h.008v.005h.013v.005h.008v.005l.018.005v.005l.018.005v.005h.013v.005l.026.008v.005h.008v.005h.013v.005l.026.008v.005H18v.005h.008v.005h.013v.005l.026.008v.005h.008v.005h.013v.005l.026.008v.005h.008v.005h.008v.005h.022v.005l.026.008v.005h.008v.005h.006v.005h.008v.005h.013v.005l.026.008v.005h.008v.006h.008v.005h.008v.005l.018.005v.005h.013v.005l.026.008v.005h.008v.005h.009v.005l.018.005v.005h.013v.005h.008v.005h.011v.005h.008v.005h.008v.005h.008v.005h.008v.005h.008v.005h.008v.005l.026.008v.005h.013v.005l.018.005v.005l.068.029v.005h.008v.005h.008v.005h.008v.005l.026.008v.005h.011v.005l.018.005v.005l.026.008v.005h.008v.005h.008v.005h.008v.005h.008v.005l.018.005v.005l.018.005v.002l.018.005v.005h.008v.005h.008v.005h.008v.005h.008v.005h.008v.005h.008v.005h.009v.005h.008v.005h.008v.005l.018.005v.005l.018.005v.005l.026.008v.005h.008v.005h.007l.008.008h.008l.005.008.018.005v.005h.008v.005h.008v.005h.008v.005h.008v.005h.008v.005l.018.005v.005h.008v.005h.008v.005h.008v.005h.008v.005l.018.005v.005l.026.008.005.008h.008l.008.008h.008v.002h.008v.005h.008v.005h.008v.005h.005v.005h.008v.005h.008v.005h.008v.005h.008v.005h.008l.008.008h.008l.005.008h.008l.008.008h.008v.005h.008v.005h.008v.005h.008l.064.038h.008v.005h.008v.005h.008v.005h.008l.008.008h.008l.005.008.068.029.005.008.018.005v.005h.008v.005h.008l.008.008h.008l.005.008.018.005v.005h.008v.005h.008v.005h.008l.008.008h.008l.005.009.018.005v.005h.008v.005h.008l.008.008h.009l.005.008.018.005v.005h.008v.002h.008v.005h.009l.008.008h.008l.005.008h.008l.008.008h-.001v.005h.008v.005h.008l.005.008h.008l.008.008h.008v.005h.008v.005h.008l.005.008h.008l.008.008h.008v.005h.008v.005h.008l.005.008h.008l.008.008h.008v.005l.018.005.005.008h.008l.008.008h.008v.005h.008v.005h.008l.005.008h.008l.008.008h.008v.005h.008l.005.008h.008l.008.008h.008v.005h.008l.005.008h.008l.008.008h.008v.005h.008l.005.008h.008l.008.008h.008v.005h.008v.005h.008l.005.008h.008l.008.008h.008v.005h.008l.005.008h.008l.008.008h.008l.005.008.018.005.008.008h.008l.005.008h.008v.005h.008v.005h.008l.005.008.018.005v.005l.021-.005.005-.008h.03l.005-.008c.011-.005.036.008.043.008h.021v.005l.026.008v.005l.018.005.008.013.048.008v.005l.021.005v.005l.018.005v.005h.013v.005l.026.008v.005l.018.005.005.008h.039l-.002.004c.012.002.024.002.037.002.022 0 .044-.002.063-.006h.048c.008-.002.008-.005.008-.005h.051v-.005l.098-.005v-.005h.07c.01-.004.021-.005.031-.005l.012.001.397.08.051.005c.04.012.092.014.132.026l.056.005c.057.017.13.017.188.034l.085.008c.067.02.154.019.222.038h.034v.005l.128.005v.005h.059v.005h.059v.005h.061v.005h.059v.005h.051v.005h.056v.002l.107.005v.005h.048v.005h.049v.005h.048v.005h.048v.005h.048v.005h.048v.005h.043v.005h.043v.005l.081.005c.05.015.118.011.166.026l.064.005c.04.012.092.014.132.026h.026c.034.011.081.015.115.026h.021v.005h.013l.005.008c.01.004.017-.005.021-.005v.005h.026v.005h.021v.005l.048.005v.005h.021v.005h.021v.005h.021v.005h.021v.005l.039.005v.005h.021v.005h.018v.005h.018v.005h.021v.005l.034.005v.005l.03.005v.005h.013v.005h.013v.005h.013v.005h.013v.005l.048.01c.098.041.191.088.271.136h.008l.008.008h.008v.005h.008l.005.008.026.008.005.008.018.005.005.008.018.005.005.008h.008v.005h.008l.005.008h.008l.005.008h.008l.005.008h.008l.005.008h.008v.005l.013.005.005.008h.008l.008.013h.008l.005.008h.008l.008.013h.008l.008.013h.008l.013.017h.008l.013.017h.008l.013.017h.008l.021.026h.008l.034.038h.008l.009.013c.014.017.031.03.051.042l.039.008v.005h.008v.005h.013v.005h.008v.005h.013v.005h.008v.005h.013v.005l.021.005v.005h.008v.005h.013v.005h.008v.005h.013v.005l.018.005v.005h.013v.005l.018.005v.005h.009v.002l.018.005v.005h.013v.005l.018.005v.005h.008v.005h.013v.005l.018.005v.005h.013v.005l.026.008v.005h.008v.005h.009v.005h.013v.005l.026.008v.005h.009v.005h.013v.005l.026.008v.005h.006v.005h.008v.005h.013v.005l.026.008v.005h.008v.005h.008v.005h.013v.005l.026.008v.005h.008v.005h.008v.005l.018.005v.005h.013v.005l.026.008v.005h.008v.005h.009v.005h.008v.005l.018.005v.005h.013v.005h.01v.005h.008v.005h.008v.005h.008v.005h.008v.005h.008v.005h.008v.005l.026.008v.005h.013v.005h.008v.005h.008v.005h.008v.005h.008v.005h.008v.005h.005v.001h.008v.005h.008v.005l.026.008v.005h.013v.005h.008v.005h.008v.005h.008v.005h.008v.005h.011v.005h.008v.005h.008l.008.008.018.005.013.021h.018v.005l.018.005v.005h.008l.005.008h.008l.005.008h.008l.005.008h.008l.005.008h.008l.005.008h.008l.005.008h.008l.005.008h.005l.005.008h.008l.005.008h.008v.005l.013.005.005.008h.009l.008.013h.008l.005.008.013.005v.005h.008l.005.008h.008l.008.013h.008l.005.008h.008l.008.013.013.005.005.008h.008l.005.008h.008l.005.008.013.005.008.013h.008l.008.013h.008l.005.008.013.005.013.017h.008l.013.017h.008l.013.017h.008l.018.021h.008l.048.05.064.059v.005l.026.021v.008l.021.017v.008l.008.005v.008l.008.005.034.065c.004.024.006.049.006.074l-.002.038h-.005v.042c-.007.023-.011.056-.018.08l.004.116c.002.016.002.031.002.047 0 .029-.002.057-.006.082v.059h-.005v.047h-.005l-.005.097-.039.256c0 .018-.012.088 0 .101.003.034.029.027.048.042.005.005.005.015.008.021l.026.021v.029zm-6.547-11.737h.001l-4.053 4.613-4.052-4.613h2.408V8h3.321v4.378h2.375z"/></svg>