<svg xmlns="http://www.w3.org/2000/svg" width="100%" height="100%" viewBox="0 0 32 32"><path d="M19.101 6.667l7.566 1.526-3.516 7.148-1.433-3.071-15.201 7.653-1.182-2.533 15.201-7.653-1.433-3.071zm1.758 11.057l-.001.002c.148.374.442.665.807.8l.958.355v1.848l-.957.355c-.365.135-.659.426-.808.8s-.139.796.028 1.162l.437.957-1.254 1.307-.923-.457c-.348-.173-.749-.184-1.105-.029-.361.156-.643.465-.773.85l-.338.993h-1.773l-.341-.999c-.13-.381-.408-.687-.766-.842h-.001c-.358-.155-.765-.144-1.115.03l-.918.455-1.254-1.307.436-.957c.167-.365.178-.788.029-1.163s-.442-.665-.807-.8l-.958-.355v-1.084l10.613-5.343 1.25 1.304-.436.957c-.167.365-.178.788-.029 1.163zm-4.817 4.596c1.333 0 2.413-1.126 2.413-2.516s-1.08-2.517-2.413-2.517c-1.333 0-2.414 1.127-2.414 2.517s1.081 2.516 2.414 2.516z"/></svg>