<svg xmlns="http://www.w3.org/2000/svg" width="100%" height="100%" viewBox="0 0 32 32"><path d="M15.772 22.616h1.275s.385-.042.582-.251c.181-.192.175-.553.175-.553s-.025-1.687.769-1.935c.783-.245 1.788 1.63 2.853 2.352.806.546 1.417.426 1.417.426l2.848-.039s1.49-.091.784-1.246c-.058-.095-.411-.854-2.119-2.416-1.787-1.635-1.547-1.37.605-4.198 1.31-1.722 1.835-2.774 1.67-3.224-.156-.429-1.12-.316-1.12-.316l-3.207.02s-.238-.032-.415.072c-.173.101-.283.339-.283.339s-.508 1.333-1.185 2.466c-1.428 2.392-1.999 2.518-2.233 2.369-.544-.346-.407-1.39-.407-2.132 0-2.318.356-3.284-.694-3.534-.349-.083-.605-.138-1.497-.147-1.144-.012-2.113.003-2.661.268-.365.176-.646.568-.474.592.212.028.692.128.946.47.329.441.317 1.431.317 1.431s.189 2.728-.441 3.067c-.432.233-1.026-.242-2.299-2.412-.652-1.111-1.145-2.34-1.145-2.34s-.095-.229-.265-.352c-.206-.149-.493-.196-.493-.196l-3.048.02s-.458.012-.625.209c-.15.175-.012.535-.012.535s2.386 5.505 5.088 8.279c2.478 2.544 5.29 2.377 5.29 2.377h.002z"/></svg>