<!-- Generated by IcoMoon.io -->
<svg version="1.1" xmlns="http://www.w3.org/2000/svg" width="32" height="32" viewBox="0 0 32 32">
<title>favorite-next</title>
<path d="M16 11.433l1.537 3.226 0.214 0.445 4.177 0.467-3.109 2.755 0.119 0.493 0.814 3.44-3.75-2.056-0.45 0.249-3.295 1.807 0.814-3.44 0.118-0.493-0.386-0.341-2.723-2.414 4.177-0.467 0.214-0.445 1.532-3.226-0.001 0.001zM16 9.333l-2.364 4.959-5.636 0.629 4.182 3.702-1.273 5.378 5.091-2.794 5.091 2.794-1.273-5.378 4.182-3.702-5.636-0.629-2.364-4.959z"></path>
</svg>
