<svg xmlns="http://www.w3.org/2000/svg" width="100%" height="100%" viewBox="0 0 32 32"><path d="M15.479 8.71c2.927-.781 11.188-3.377 11.188-3.377s-2.647 9.087-3.219 11.378c-1.038 4.29-3.576 7.995-7.987 7.995-1.603 0-3.093-.477-4.345-1.289l.912-.71c1.252.668 2.283.907 3.285.918 1.747.018 3.404-.68 4.62-2.029 1.114-1.234 1.972-3.013 2.485-5.143.4-1.652 1.848-6.694 2.659-9.499-2.623.817-7.248 2.238-9.322 2.792-2.157.573-3.945 1.45-5.156 2.53-.65.584-1.151 1.234-1.491 1.939-.358.751-.543 1.587-.543 2.488 0 1.337.275 2.231.733 3.126l-.787.788c-.561-.984-1.019-2.315-1.019-3.914 0-4.415 3.725-6.861 7.987-7.995zM5.333 25.908l10.465-10.475.759.759L6.092 26.667l-.758-.76-.001.001z"/></svg>