<!-- Generated by IcoMoon.io -->
<svg version="1.1" xmlns="http://www.w3.org/2000/svg" width="32" height="32" viewBox="0 0 32 32">
<title>early-morning-next</title>
<path d="M23.82 13.978h0.001c0.237 0.243 0.237 0.645 0.005 0.888l-1.737 1.778c-0.122 0.124-0.282 0.187-0.437 0.187-0.16 0-0.316-0.063-0.437-0.187-0.238-0.243-0.238-0.645 0-0.888l1.737-1.778c0.238-0.244 0.63-0.244 0.869 0zM15.997 14.437c-0.337 0-0.614-0.283-0.614-0.628v-2.513c0-0.345 0.277-0.628 0.614-0.628s0.614 0.283 0.614 0.628v2.513c0 0.345-0.277 0.628-0.614 0.628zM10.785 16.643c-0.122 0.124-0.277 0.187-0.432 0.187-0.16 0-0.316-0.063-0.437-0.187l-1.737-1.778c-0.238-0.243-0.237-0.645 0-0.888s0.63-0.244 0.869 0l1.738 1.778c0.238 0.243 0.238 0.645 0 0.888zM19.815 17.091v0.001c1.062 0.888 1.798 2.128 2.075 3.492 0.066 0.334-0.143 0.663-0.47 0.736-0.044 0.005-0.083 0.011-0.128 0.011-0.282 0-0.537-0.198-0.598-0.493-0.465-2.258-2.446-3.899-4.709-3.899s-4.244 1.641-4.709 3.899c-0.066 0.34-0.393 0.554-0.72 0.481-0.332-0.068-0.542-0.402-0.47-0.736 0.282-1.364 1.023-2.604 2.081-3.492 1.074-0.9 2.429-1.398 3.824-1.398s2.751 0.498 3.824 1.398z"></path>
</svg>
