<svg xmlns="http://www.w3.org/2000/svg" width="100%" height="100%" viewBox="0 0 32 32"><path d="M8.013 15.732c.041-2.75 2.455-5.155 5.071-5.061 1.255-.062 2.434.511 3.395 1.317-.408.49-.833.961-1.286 1.4-1.155-.838-2.8-1.074-3.954-.109-1.652 1.197-1.728 4.031-.138 5.326 1.545 1.473 4.469.744 4.895-1.513-.971-.015-1.942 0-2.907-.037-.003-.609-.003-1.212-.003-1.817 1.621-.003 3.236-.007 4.86.003.097 1.426-.083 2.946-.916 4.121-1.265 1.868-3.802 2.412-5.787 1.614-1.988-.795-3.395-2.997-3.229-5.245l-.001.001zM21.1 13.704h1.445c.003.508.003 1.019.007 1.52.484.003.971.003 1.448.007v1.517c-.484.003-.968.007-1.448.015-.003.511-.007 1.019-.007 1.52H21.1c-.003-.508-.003-1.016-.007-1.52-.484-.003-.971-.007-1.448-.015v-1.517c.484-.003.968-.007 1.448-.007 0-.504.003-1.012.007-1.52z"/></svg>