<svg xmlns="http://www.w3.org/2000/svg" width="100%" height="100%" viewBox="0 0 32 32"><path d="M16.439 20.251h-.001c1.912.425 4.081.906 4.401 2.59.095.501-.025.985-.346 1.397-1.086 1.396-4.751 2.197-11.158 2.429l-.002-.954c7.816-.292 9.924-1.386 10.462-2.078.152-.196.202-.383.159-.608-.203-1.069-2.143-1.5-3.701-1.846-1.489-.33-2.665-.591-3.031-1.362-.203-.429-.178-.902.072-1.327.437-.744 1.501-1.262 2.589-1.262v.951c-.842 0-1.587.413-1.821.811-.109.186-.074.313-.032.402.171.361 1.464.648 2.409.858zm4.64-2.047h-3.411v-3.459c-.153-.035-.303-.075-.43-.122l-.03-.01c-.191-.06-.451-.142-.648-.259-1.078-.598-1.77-1.608-1.851-2.704-.01-.132-.022-.61.002-2.745l.005-.478h1.014V7.058c0-.241.018-.6.17-.942.226-.505.667-.783 1.241-.783.893 0 1.449.661 1.449 1.725v1.369h1.569V7.058c0-.243.019-.605.178-.948.233-.501.684-.777 1.271-.777.584 0 1.028.273 1.249.77.163.365.162.753.162.94v1.384H24v3.185c0 .825-.353 1.573-1.021 2.165-.503.445-1.154.776-1.9.968v3.459zm-2.493-.966h1.576v-3.289l.379-.071c1.265-.236 2.542-1.028 2.542-2.265V9.394h-.981V7.042c0-.125 0-.359-.075-.527-.033-.075-.096-.215-.42-.215-.269 0-.531.059-.531.759v2.336h-3.404V7.059c0-.759-.372-.759-.531-.759-.25 0-.494.059-.494.759v2.336h-1.024c-.009.995-.013 1.976-.002 2.149l.001.007.002.025c.056.764.569 1.484 1.369 1.927l.013.007c.107.064.324.133.467.178l.063.02c.183.069.504.131.675.164l.376.073v3.293z"/></svg>