<!-- Generated by IcoMoon.io -->
<svg version="1.1" xmlns="http://www.w3.org/2000/svg" width="32" height="32" viewBox="0 0 32 32">
<title>weight-2</title>
<path d="M21.333 13.893c0-0.218-0.154-0.402-0.357-0.444v-0.009c0 0-1.488-0.355-1.875-0.725-0.219-0.209-0.581-0.612-0.581-1.45s0.982-1.315 0.982-1.315l-0.036-0.009c0.278-0.191 0.437-0.412 0.437-0.648 0-0.714-1.45-1.291-3.237-1.291s-3.237 0.579-3.237 1.291c0 0.236 0.16 0.458 0.437 0.648l-0.036 0.009c0 0 0.982 0.476 0.982 1.315s-0.361 1.241-0.581 1.45c-0.387 0.37-1.875 0.725-1.875 0.725v0.009c-0.203 0.042-0.357 0.226-0.357 0.444v9.065c0 0.039 0.006 0.077 0.015 0.113-0.010 0.022-0.015 0.046-0.015 0.068 0 0.476 2.089 0.861 4.666 0.861s4.666-0.386 4.666-0.861c0-0.023-0.005-0.046-0.014-0.068 0.009-0.036 0.014-0.074 0.014-0.113v-9.065h0.001z"></path>
</svg>
