<!-- Generated by IcoMoon.io -->
<svg version="1.1" xmlns="http://www.w3.org/2000/svg" width="32" height="32" viewBox="0 0 32 32">
<title>rfid-card</title>
<path d="M13.316 9.837h5.109v0.924h-5.109v-0.924zM16.955 13.533h6.641v0.924h-6.641v-0.924zM25.524 6.669l-0.001-0.002c0.664 0 1.137 0.547 1.143 1.168 0 0.165 0 9.497 0 9.669 0 0.667-0.543 1.175-1.13 1.175-0.224 0-8.704 0-8.704 0v2.66c0 1.498-1.304 2.475-1.852 2.819v2.508h-0.894v-3.042l0.236-0.126c0.018-0.006 1.615-0.851 1.615-2.159v-2.666h-3.193l-0.409 0.522c0.377 0.461 1.016 1.274 1.016 2.257 0 1.354-1.163 2.634-1.214 2.687l-0.313-0.31-0.313-0.304c0.012-0.013 0.977-1.075 0.977-2.072 0-0.66-0.479-1.399-0.817-1.822-0.083-0.098-0.198-0.224-0.198-0.488s0.159-0.469 0.159-0.469l0.703-0.891c0 0-0.039 0.053 1.124-1.558s0.249-2.27 0.249-2.27l-3.321 3.399-1.941 2.047-0.607-0.634 2.542-2.666v-4.244l-2.912 3.023c-1.079 1.115-1.354 2.402-1.258 3.168 0.115 0.905 1.366 8.541 1.379 8.62h-0.849c-0.051-0.317-1.271-7.583-1.385-8.507-0.122-0.963 0.198-2.567 1.501-3.914l3.519-3.637c0 0 0-2.33 0-2.772 0-0.502 0.376-1.168 1.13-1.168 0.307 0 13.851 0 14.017 0zM25.768 17.585l0.001-0.001c0-0.040 0-8.633 0-9.894 0-0.079-0.070-0.158-0.167-0.158-1.577 0-14.151 0-14.234 0-0.089 0-0.159 0.086-0.159 0.165s0 7.485 0 7.485c0 0 1.967-2.006 2.024-2.066 0.255-0.264 0.613-0.185 0.613-0.185 0.147 0.026 0.409 0.119 0.536 0.383 0 0 0.574 0.66 0.562 1.446-0.019 1.050-0.735 1.888-0.862 2.026l-0.658 0.97c0 0 12.12 0 12.171 0 0.108 0 0.173-0.106 0.173-0.172z"></path>
</svg>
