<svg xmlns="http://www.w3.org/2000/svg" width="100%" height="100%" viewBox="0 0 32 32"><path d="M9.106 16.543l-1.243.408v3.092c0 1.053-.414 1.256-1.995 1.234-.032-.272-.164-.736-.295-1.031.25.012.491.012.687.012h.425c.152 0 .196-.057.196-.215v-2.774c-.403.136-.763.249-1.068.34-.011.102-.087.17-.175.193l-.305-1.211c.425-.102.959-.238 1.548-.396v-2.254H5.464v-.985h1.417V10.68l1.232.057c-.011.102-.077.17-.25.193v2.027H9.04v.985H7.863v1.993l1.123-.317.12.928.001-.002zm5.418.363l.665.317c-.022.057-.077.09-.12.125-.425.963-1.09 1.721-1.907 2.309.774.328 1.646.566 2.573.702-.218.227-.502.645-.643.94-1.079-.215-2.082-.555-2.954-1.031-.992.487-2.125.804-3.325 1.008-.087-.26-.294-.668-.469-.895 1.014-.136 1.995-.363 2.856-.713-.578-.442-1.079-.963-1.472-1.551l.654-.272H9.074v-.906h5.287l.164-.034v.001zm-2.813-.193v-.77H9.357v-4.325l.502.17c.457-.215.905-.475 1.188-.725l.665.634v-1.03l1.166.08c-.011.09-.077.147-.239.17v4.167h1.559v-.94h-1.134v-.793h1.134v-.906h-1.166v-.872h2.093v4.371h-2.486v.77h-.927l-.001-.002zm-1.45-1.63h1.45v-3.227h-.098c-.338.215-.85.442-1.352.634v.861h1.047v.793h-1.047v.939zm.436 2.762c.371.51.883.951 1.504 1.325.6-.351 1.112-.793 1.482-1.325h-2.987zm6.398-7.1c.425.408.774.815 1.057 1.234.305-.408.556-.826.763-1.234l1.046.533c-.032.068-.109.113-.239.102-.273.498-.632 1.03-1.046 1.54.556 1.256.654 2.57.654 3.952 0 1.653-.098 3.239-.567 3.907-.229.295-.512.487-1.461.487-.152 0-.294 0-.447-.012-.011-.34-.098-.725-.273-1.031.262.023.502.023.698.023.403 0 .567 0 .73-.204.348-.465.348-2.616.348-3.329-.469.668-1.014 1.291-1.526 1.721-.152-.249-.436-.611-.676-.804.763-.51 1.613-1.517 2.115-2.446-.055-.498-.152-.974-.316-1.438-.338.351-.687.68-1.047.974-.164-.215-.48-.521-.709-.691.457-.351.905-.781 1.319-1.257-.284-.498-.654-.985-1.155-1.461l.731-.566zm3.914 1.02c1.504-.283 3.118-.68 4.055-1.098l.97.781c-.055.057-.152.057-.262.057-.218.08-.457.158-.73.238.186 3.567.556 7.032 1.624 8.776-.239.17-.6.521-.774.793-1.123-2.004-1.482-5.491-1.69-9.331-.916.238-1.952.453-2.932.623v2.785c0 1.143-.077 2.639-.469 4.008l1.504-.09V12.48l1.101.068c-.011.09-.066.147-.229.17v6.534l.807-.057c-.12-.487-.262-.973-.404-1.404l.687-.193c.338.985.676 2.254.807 3.114l-.73.215c-.032-.26-.087-.566-.152-.883-1.145.136-2.268.26-3.009.328-.022.09-.098.147-.175.158l-.262-.963c-.196.634-.469 1.234-.829 1.766-.131-.215-.491-.543-.73-.668 1.046-1.551 1.145-3.657 1.145-5.288v-3.816l.676.204z"/></svg>