<!-- Generated by IcoMoon.io -->
<svg version="1.1" xmlns="http://www.w3.org/2000/svg" width="32" height="32" viewBox="0 0 32 32">
<title>deactivate</title>
<path d="M19.776 11c-1.051-0.795-2.359-1.268-3.776-1.268-3.456 0-6.268 2.812-6.268 6.268 0 1.416 0.472 2.725 1.268 3.776l8.776-8.776zM21 12.224l-8.776 8.776c1.051 0.795 2.359 1.268 3.776 1.268 3.456 0 6.268-2.812 6.268-6.268 0-1.416-0.472-2.725-1.268-3.776zM16 24c-4.413 0-8-3.588-8-8s3.588-8 8-8c4.412 0 8 3.588 8 8s-3.588 8-8 8z"></path>
</svg>
