<svg xmlns="http://www.w3.org/2000/svg" width="100%" height="100%" viewBox="0 0 32 32"><path d="M16.002 12.467c.909 0 2.133.781 3.434 1.6.219.14.439.281.659.416 2.149.23 3.827.719 4.987 1.449 1.118.707 1.464 1.465 1.568 1.853l.016.057v.062c0 .814-.225 1.505-.596 1.842-.162.146-.408.326-.637.348-.434.04-1.239.118-1.6.152-.471.685-1.203 1.089-2.002 1.089-.764 0-1.48-.376-1.95-1.011l-.423.005h-7.585c-.471.634-1.187 1.005-1.945 1.005-.941 0-1.788-.561-2.216-1.449l-1.726-.342-.089-.112c-.319-.393-.497-.803-.539-1.258-.021-.247-.026-.724-.026-.781 0-.32.198-.758.585-1.292.125-.174.554-.741.836-.859.319-.129.638-.264.957-.399 1.396-.584 2.818-1.179 4.213-1.629l.24.803c-1.369.444-2.781 1.033-4.166 1.612-.314.135-.632.264-.941.393-.24.174-.925 1.1-.936 1.37 0 .135.005.517.021.691.021.235.11.455.267.674l1.861.365.084.214c.267.691.883 1.14 1.578 1.14.57 0 1.103-.303 1.422-.814l.115-.185h7.999l.831-.011.12.19c.319.517.852.826 1.427.826.59 0 1.134-.326 1.448-.87l.105-.18.193-.017c.01 0 1.187-.118 1.767-.169.037-.017.125-.073.214-.157.151-.135.304-.567.314-1.128-.157-.46-1.061-2.156-5.949-2.655l-.084-.011-.073-.045c-.246-.152-.497-.309-.742-.466-1.098-.696-2.342-1.488-3.037-1.488h-.199l-3.722-1.864.33-.764 3.591 1.8z"/></svg>