<!-- Generated by IcoMoon.io -->
<svg version="1.1" xmlns="http://www.w3.org/2000/svg" width="32" height="32" viewBox="0 0 32 32">
<title>car-suv-spoiler</title>
<path d="M26.667 11.167h-3.88l1.94-1.834 1.94 1.834zM26.667 12.082h-3.88l1.94 1.834 1.94-1.834zM26.178 21.48c-0.299 0.428-1.518 0.705-1.518 0.705-0.231 1.036-1.199 1.814-2.362 1.814-0.993 0-1.847-0.564-2.218-1.377h-8.099c-0.375 0.808-1.225 1.377-2.218 1.377-1.018 0-1.889-0.593-2.248-1.44-1.214 0-2.182-0.642-2.182-1.314 0-0.915 0-1.401 0.483-2.063 0.484-0.657 1.456-1.148 6.787-1.6 0.633-0.467 2.392-1.834 3.396-1.834 2.907 0 6.412 0.034 7.759 0.458 0.139 0.044 0.237 0.132 0.304 0.233l2.604-1.367v1.046l-1.971 1.036c0.766 0.438 0.864 0.496 1.482 0.885 0.566 0.355 0.489 2.748 0 3.44h0.001zM25.514 18.722c-0.586-0.37-0.659-0.409-1.775-1.041l-0.443-0.253-0.021-0.399c-1.466-0.365-5.367-0.365-7.281-0.365-0.221 0-0.864 0.199-2.655 1.533l-0.144 0.107-0.226 0.165-0.283 0.024c-4.878 0.419-5.809 0.846-6.077 1.211-0.298 0.404-0.309 0.633-0.309 1.508 0.077 0.132 0.515 0.428 1.214 0.428h0.654l0.242 0.574c0.221 0.525 0.751 0.866 1.348 0.866 0.576 0 1.102-0.326 1.333-0.827l0.252-0.55h9.365l0.252 0.55c0.231 0.501 0.757 0.827 1.333 0.827 0.679 0 1.271-0.457 1.415-1.090l0.128-0.564 0.592-0.136c0.366-0.082 0.808-0.253 0.957-0.355 0.221-0.394 0.293-1.751 0.128-2.214v-0.001z"></path>
</svg>
