<svg xmlns="http://www.w3.org/2000/svg" width="100%" height="100%" viewBox="0 0 32 32"><path d="M15.156 12.961c-.646 0-1.269.223-1.75.624-.063.055-.102.127-.102.205 0 .082.029.16.093.214l.365.342c.058.055.136.087.219.087.073 0 .146-.023.204-.068.272-.219.618-.342.977-.342s.705.123.977.342c.058.046.127.068.204.068.082 0 .16-.032.219-.087l.365-.342c.058-.055.093-.137.093-.214s-.039-.155-.102-.205c-.491-.401-1.113-.624-1.76-.624zm2.267.118c.082 0 .16-.032.219-.087l.365-.342c.058-.055.093-.132.093-.209s-.039-.155-.097-.209c-.773-.678-1.785-1.052-2.84-1.052s-2.066.373-2.84 1.052c-.063.055-.097.127-.097.209 0 .077.034.155.093.209l.365.342c.058.055.136.087.219.087.078 0 .156-.027.209-.077.564-.487 1.293-.751 2.057-.751s1.493.269 2.057.751c.044.05.121.077.199.077h-.001zm-5.894-1.493c.058.055.136.087.219.087.078 0 .156-.027.214-.077.866-.769 2.003-1.192 3.194-1.192s2.329.423 3.194 1.192c.058.05.131.077.214.077s.16-.032.219-.087l.365-.342c.058-.055.093-.132.093-.209s-.034-.155-.097-.209c-1.079-.961-2.494-1.493-3.987-1.493s-2.908.528-3.987 1.493c-.063.055-.097.127-.097.209 0 .077.029.155.093.209l.365.342zm13.683 6.765c-.934-.437-2.781-.715-5.096-.911-.384-.282-1.522-.993-3.156-1.361-.958-.219-2.422-.228-2.995-.228h-.16c-1.697 0-3.885.455-4.61.683-1.031.323-2.913.911-3.399 1.589-.244.342-.394 1.321-.462 2.026-.024.245.462.924.948 1.152l1.483.2c.384.688 1.148 1.166 2.038 1.166.778 0 1.463-.355 1.882-.911h9.316c.413.569 1.113.911 1.901.911.895 0 1.663-.483 2.047-1.179 1.046-.21 1.474-.41 1.474-.41s.244-.683.244-1.589c0-.228-.968-.911-1.454-1.139l-.001.001zm.393 2.044c-.204.059-.486.132-.86.21l-.447.091-.209.382c-.233.423-.685.688-1.182.688-.462 0-.866-.186-1.104-.514l-.287-.396H11.179l-.292.387c-.253.332-.646.524-1.089.524-.491 0-.944-.259-1.177-.678l-.223-.414-.491-.063-1.274-.168c-.112-.091-.244-.241-.311-.355.087-.801.224-1.334.296-1.466.131-.182.749-.551 2.888-1.22.598-.186 2.689-.637 4.303-.637h.16c1.551 0 2.358.109 2.767.2 1.624.369 2.669 1.111 2.786 1.198l.224.164.287.023c2.436.205 4.036.483 4.75.815.258.123.685.41.909.601-.019.245-.054.46-.088.633l.002-.001z"/></svg>