<svg xmlns="http://www.w3.org/2000/svg" width="100%" height="100%" viewBox="0 0 32 32"><path d="M19.735 19.001L24 20.542l-.256.959s-.833 3.042-2.836 2.413l-1.296-.604s-6.483-4.154-9.685-9.814l-.518-1.562c-.582-2.15 2.427-2.449 2.427-2.449l.404-.188 2.201 4.052s-.543.225-.675.282c-.038.02-.08.033-.126.038-.005 0-.011-.003 0 0s.035.02.04.087c.114 1.443 1.766 3.397 1.766 3.397l.605.61c1.261 1.27 3.354 1.942 3.354 1.942.101.026.129.127.204-.134.03-.072.127-.57.127-.57zm-.796-6.166v-.001 2.198l-3.866-3.516L18.939 8v2.238h4.145v2.597h-4.145z"/></svg>