<!-- Generated by IcoMoon.io -->
<svg version="1.1" xmlns="http://www.w3.org/2000/svg" width="32" height="32" viewBox="0 0 32 32">
<title>smartphone</title>
<path d="M19.939 5.333c0.769 0 1.394 0.642 1.394 1.431v18.471c0 0.79-0.626 1.431-1.394 1.431h-9.211c-0.769 0-1.394-0.642-1.394-1.431v-18.471c0-0.79 0.626-1.431 1.394-1.431h9.211zM10.478 8.983v14.034h9.712v-14.034h-9.712zM11.041 6.516c-0.363 0-0.563 0.21-0.563 0.514l-0.006 1.171h9.718v-1.171c0-0.304-0.175-0.514-0.476-0.514h-8.673zM10.979 25.484h8.673c0.297 0 0.539-0.248 0.539-0.552v-1.144h-9.712v1.144c0 0.304 0.204 0.552 0.501 0.552zM14.229 7.698c-0.142 0-0.256-0.16-0.256-0.305s0.115-0.312 0.256-0.312h2.614c0.142 0 0.256 0.166 0.256 0.312s-0.115 0.305-0.256 0.305h-2.614zM15.519 24.199c0.235 0 0.426 0.196 0.426 0.437s-0.191 0.437-0.426 0.437c-0.235 0-0.426-0.196-0.426-0.437s0.191-0.437 0.426-0.437z"></path>
</svg>
