<svg xmlns="http://www.w3.org/2000/svg" width="100%" height="100%" viewBox="0 0 32 32"><path d="M26.385 20.097l.017-.04c.014.004.015.012.024.014 0 .045-.024.09-.05.108l-.005.008h-.013v.005h-.021v.005h-.017v.005l-.021.005v.005c-.007.005-.008.008-.013.013.001.017.002.027.008.038l.008.005.005.017h.005v.008h.005v.035c-.008.007-.004.01-.008.017l-.017.013v.005h-.008v.005h-.008v.005h-.013v.005h-.008v.005h-.017v.005h-.013v.005h-.017c-.041.014-.096.017-.139.03h-.029v.005h-.026v.005h-.029v.005l-.088.005v.005l-.101.005h-.005v.005h-.029l-.05-.017-.005-.008h-.008l-.005-.008h-.008v-.005c-.009-.007-.014-.013-.026-.017-.005-.005-.026-.004-.038 0v.005h-.021v.005h-.021c-.062.019-.136.024-.198.043l-.047.005v.005h-.021v.005h-.021v.005l-.042.005v.005h-.038v.005h-.038v.005h-.038v.005l-.097.008v.005h-.013v.005h-.008v.005h-.013v.005h-.008v.005h-.013v.005h-.017v.005h-.017v.005h-.021v.005l-.194.017v.005h-.021v.005h-.021v.005h-.017v.005h-.021c-.118.038-.25.059-.363.103l-.072.017v.005h-.013v.005h-.013v.005l-.029.005v.005h-.017v.005h-.026c-.032.01-.078.008-.118.008-.027 0-.096.015-.114-.005-.012.001-.018.002-.026.005v.103c-.002.003-.027.008-.034.008l-.005-.022-.182-.017c-.003-.015-.012-.03-.017-.043l-.005-.052h-.005c-.005-.016.005-.037-.005-.048 0-.026.002-.062-.005-.082h-.219l-.005.013h-.005l-.005.013-.008.005v.008h-.005l-.005.013-.008.005v.008l-.008.005-.005.013-.013.008v.008l-.017.013v.008l-.017.013v.008l-.021.017v.008l-.029.026-.005.013-.055.052-.047.052h-.008l-.026.03-.013.005-.008.013h-.008l-.013.017-.013.005-.005.008h-.008l-.005.008h-.008l-.008.013h-.008l-.005.008-.013.005v.005h-.008l-.005.008h-.008l-.005.008h-.008l-.005.008h-.008l-.005.008h-.008l-.005.008h-.008l-.005.008h-.008l-.005.008-.017.005-.005.008-.017.005-.005.008h-.008l-.008.008h-.008v.005h-.008v.005h-.008l-.005.008h-.008v.005h-.008v.005h-.013v.005h-.008v.005h-.008v.005l-.026.008v.005h-.013v.005h-.008v.005h-.013v.005h-.008v.005l-.021.005v.005l-.038.008v.005h-.008v.005h-.017v.005h-.008v.005h-.017v.005h-.013v.005l-.029.005v.005l-.034.005v.005l-.034.005v.005h-.021v.005h-.021v.005h-.017v.005h-.026v.005h-.026v.005h-.026v.005h-.029v.005h-.034v.005h-.038v.005h-.047v.005h-.068c-.02.006-.054.005-.08.005-.045 0-.106.006-.143-.005h-.055v-.005h-.047v-.005h-.034v-.005l-.088-.008c-.025-.008-.06-.014-.084-.022h-.021v-.005l-.05-.008v-.005l-.034-.005v-.005l-.029-.005v-.005h-.013v-.005h-.013v-.005h-.017v-.005h-.013v-.005h-.013v-.005h-.013v-.005l-.026-.005v-.005h-.008v-.005l-.026-.005v-.005h-.008v-.005h-.013v-.005h-.008v-.005h-.013v-.005l-.017-.005v-.005h-.013v-.005l-.017-.005v-.005h-.013v-.005l-.026-.008v-.005h-.008v-.005h-.008v-.005h-.008V21.1h-.008l-.008-.008h-.008l-.005-.008h-.008l-.008-.008h-.008v-.005h-.008l-.005-.008h-.008v-.005h-.008l-.005-.008-.013-.005v-.005l-.017-.005v-.005l-.013-.005-.005-.008h-.008l-.005-.008h-.008l-.008-.013h-.008l-.005-.008h-.008l-.008-.013h-.008l-.008-.013h-.008l-.008-.013h-.008l-.008-.013h-.008l-.017-.022h-.008l-.017-.022h-.008l-.038-.043h-.008l-.034-.038-.021-.017v-.008l-.038-.035v-.008l-.008-.005v-.005l-.013-.008v-.008l-.029-.022h-.008l-.005-.008h-.008v-.005h-.008l-.005-.008-.017-.005v-.005l-.013-.005-.005-.008h-.008l-.005-.008h-.008l-.005-.008h-.008l-.008-.013c-.025-.018-.052-.033-.068-.06l-.434.008v.013c-.005.003-.005.003-.008.008l-.084.013h-.068v.005c-.025.008-.066-.002-.088.005h-.106v.005h-.127c-.032.009-.083.005-.122.005h-.038c-.016.005-.097.01-.118.005v-.005l-.034.005c-.011-.001-.02-.008-.034-.005 0 0-.004.007-.013.005v-.005h-.026v.005h-.017v-.005l-.038.005c-.02-.005-.061 0-.093 0h-.498c-.022.007-.06.005-.088.005l-1.24.005-.553-.005c-.031.009-.081.005-.118.005h-.692c-.029.008-.078.005-.114.005h-.262c-.042 0-.1-.005-.135.005h-.324c-.036 0-.084-.004-.114.005H14.6l-.447.005v-.005l-.017-.005v-.005h-.159v.005h-.017c-.041.002-.094-.005-.127.005h-.076l-.13.008v.005h-.308c-.033 0-.057-.002-.08-.008h-.026v-.005h-1.151v.005l-.017.013c-.002.038-.005.088-.017.116-.023.01-.055.014-.08.022h-.026c-.026.008-.054.014-.088.013l-.026-.022.008-.172h-.249l-.005.008h-.008l-.008.013h-.008l-.008.013-.013.005-.005.008h-.008l-.005.008h-.008l-.008.013h-.008l-.005.008-.013.005v.005h-.008l-.005.008h-.008l-.005.008h-.008l-.005.008h-.008l-.005.008-.026.008-.005.008-.026.008-.029.035c-.026.026-.05.052-.08.073l-.038.043h-.008l-.021.026h-.008l-.017.022h-.008l-.013.017h-.008L11.11 21h-.008l-.008.013h-.008l-.008.013h-.008l-.005.008h-.008l-.008.013h-.008l-.005.008-.013.005v.005l-.017.005-.005.008h-.008l-.005.008h-.008l-.005.008h-.008v.005h-.008l-.005.008h-.008l-.008.008h-.008v.005h-.008l-.005.008h-.008l-.008.008h-.008v.005h-.008v.005h-.008v.005h-.008v.005l-.026.008v.005h-.013v.005h-.008v.005l-.026.008v.005h-.013v.005h-.008v.005h-.013v.005l-.017.005v.005l-.026.005v.005h-.008v.005l-.026.005v.005h-.008v.005l-.026.005v.005h-.013v.005h-.013v.005l-.042.008v.005l-.034.005v.005h-.017v.005h-.017v.005h-.017v.005h-.021v.005l-.042.005v.005h-.026c-.035.011-.083.011-.118.022h-.038v.005h-.063c-.016.005-.106.011-.127.005v-.005c-.027-.008-.071.003-.097-.005h-.059v-.005h-.05c-.044-.013-.105-.009-.148-.022l-.059-.005v-.005l-.072-.008v-.005h-.021v-.005h-.021v-.005h-.017v-.005h-.017v-.005l-.038-.005v-.005h-.013v-.005l-.034-.005c-.098-.035-.193-.077-.274-.129l-.026-.008-.005-.008-.017-.005-.005-.008h-.008v-.005h-.008l-.005-.008h-.008l-.005-.008h-.008l-.005-.008-.017-.005-.008-.013H9.01l-.005-.008h-.008l-.005-.008-.013-.005-.008-.013h-.008L8.955 21h-.008l-.013-.017h-.008l-.013-.017h-.008l-.021-.026h-.008l-.038-.043H8.83l-.034-.038-.021-.017v-.008l-.038-.035v-.008l-.008-.005v-.005l-.017-.013v-.008l-.017-.013v-.008l-.017-.013v-.008l-.013-.008v-.008l-.013-.008v-.008l-.008-.005-.005-.013h-.005v-.008l-.008-.005v-.008l-.013-.008-.005-.017-.008-.005-.005-.013H8.59l-.005-.017-.008-.005-.005-.017-.008-.005v-.008c-.007-.012-.017-.024-.021-.038l-.127-.005v-.005h-.017v-.005h-.013v-.005h-.013v-.005H8.36v-.005h-.008v-.005h-.008v-.005c-.014-.005-.062.01-.072.013h-.026c-.015.005-.106.016-.118.005-.026-.003-.016-.011-.026-.026-.002-.002-.005-.003-.008-.008-.027 0-.063-.002-.084-.008H7.954v-.005h-.047v-.005l-.093-.005v-.005H7.78c-.039-.012-.088-.015-.127-.026l-.127-.005-.017.005v-.005h-.034v-.005h-.021v-.005h-.017v-.005h-.08v-.005H7.31l-.106-.005v-.005c-.023-.007-.06.002-.08-.005-.023-.007-.06.002-.08-.005h-.076v-.005l-.101-.005-.008.013-.021.005v.005h-.059v.005l-.026.008v.005h-.088c-.023.002-.073.012-.101.005v-.005H6.53v-.005h-.021v-.005h-.026c-.052-.017-.103-.04-.143-.069l-.042-.048H6.29l-.005-.008h-.008v-.005h-.008v-.005h-.013v-.005l-.029-.005v-.005l-.029-.005v-.005h-.013v-.005h-.013v-.005h-.008v-.005l-.038-.013v-.005l-.026-.008v-.005l-.114-.013v-.005h-.029v-.005h-.029v-.005h-.026v-.005l-.038-.005v-.005h-.021v-.005H5.83v-.005h-.029v-.005h-.047v-.005h-.047v-.005l-.089-.005v-.005h-.029v-.005H5.56v-.005h-.017v-.005H5.53v-.005l-.042-.008v-.005l-.017-.005v-.005l-.021-.005-.005-.008h-.008l-.013-.017-.026-.022v-.008l-.008-.005v-.008h-.005l-.005-.017h-.005l-.008-.038h-.005v-.008h-.005l-.005-.026h-.005v-.013h-.005v-.013h-.005v-.013h-.005v-.013h-.005v-.013h-.005l-.021-.078c.002-.014.005-.028.013-.035h.008l.008-.013h.008c.003-.002.003-.005.008-.008l-.017-.146h.005v-.008h.005v-.008h.005v-.013h.005v-.026h.005v-.008l.034-.026v-.017h-.005c-.005-.016.003-.048.008-.056l.008-.005v-.008l.008-.005v-.008l.017-.013v-.008l.017-.013v-.008l.013-.008.005-.013.008-.005v-.008l.008-.005v-.008l.008-.005c.007-.012.024-.054.017-.078-.011-.034-.029-.064-.042-.095v-.013h-.005v-.017h-.005v-.022h-.005v-.017h-.005l-.047-.289v-.03c-.011-.039-.01-.093-.021-.133v-.048h-.005v-.06c-.009-.031-.008-.158 0-.189v-.065h.005l.008-.082.029-.069.008-.005.005-.017.008-.005.005-.013h.005L5.443 18l.013-.008v-.008l.008-.005.005-.013h.005v-.008l.013-.008v-.008l.017-.013.005-.013.008-.005v-.008l.021-.017v-.008l.026-.022v-.008l.008-.005.013-.017.013-.008v-.008l.008-.005v-.013l.013-.008.005-.017.013-.005.005-.008h.008v-.005l.008-.005v-.013l.008-.005v-.005h.008l.008-.013h.008l.051-.056.021-.017c-.006-.023 0-.01.005-.03h.008c.003-.014.011-.015.017-.026h.013c.004-.026.014-.018.029-.03l.008-.013.026-.005.051-.056h.008l.076-.082h.005S6 17.366 6 17.355c.008-.008.01-.016.017-.026l.017-.013v-.008l.026-.022.008-.013.114-.026c.082-.03.176-.052.253-.086l.026-.005v-.005h.008v-.005h.013v-.005l.017-.005v-.005h.013v-.005l.026-.008v-.005h.008v-.005h.008v-.005h.008v-.005h.008v-.005h.008v-.005h.008v-.005h.008v-.005h.008v-.005h.008v-.005l.017-.005v-.005l.017-.005v-.005l.017-.005v-.005l.021-.005v-.005l.026-.008v-.005h.008v-.005h.008v-.005h.008V17h.008v-.005h.008l.008-.008h.008l.005-.008.017-.005v-.005c.014-.006.035-.008.055-.008h.034l.017-.022H6.9l.013-.017h.008l.005-.008.017-.005v-.005h.008v-.005l.026-.008v-.005h.013v-.005l.017-.005v-.005h.008v-.005h.013v-.005l.017-.005v-.005h.013v-.005l.017-.005v-.005h.013v-.005h.008v-.005h.013v-.005l.017-.005v-.005h.013v-.005h.008v-.005l.021-.005v-.005h.013v-.005h.008v-.005h.013v-.005l.017-.005v-.005h.013v-.005h.008v-.005h.013v-.005h.008v-.005h.013v-.005h.008v-.005h.013v-.005h.008v-.005h.013v-.005h.013v-.005h.008v-.005h.013v-.005h.008v-.005l.026-.005v-.005h.008v-.005l.038-.008v-.005h.008v-.005l.038-.008v-.005h.008v-.005l.026-.005v-.005l.026-.005v-.005h.008v-.005l.038-.008c.053-.022.106-.045.182-.043 0-.017 0-.03.008-.038.012-.018.041-.021.063-.03v-.005h.013v-.005h.008v-.005h.013v-.005h.008v-.005l.026-.005v-.005h.008v-.005l.026-.005v-.005h.008v-.005h.013v-.005l.047-.005v-.005h.013v-.005l.038-.008v-.005h.013v-.005h.013v-.005h.013v-.005h.013v-.005h.013v-.005h.013v-.005l.026-.005v-.005h.017v-.005l.026-.005v-.005l.026-.005v-.005h.013v-.005h.013v-.005h.013v-.005h.013v-.005h.013v-.005l.038-.008v-.005h.021v-.005h.021v.005h.042v.005h.034c.003.001.03.009.034.008v-.005h.013v-.005h.013v-.005h.013v-.005h.013v-.005h.013v-.005h.013v-.005h.008v-.005h.013v-.005h.013v-.005h.013v-.005h.013l.059-.026.026-.005v-.005h.008v-.005h.013v-.005h.013v-.005h.013v-.005h.013c.104-.046.224-.078.329-.125l.026-.005v-.005l.038-.008.059-.026h.013v-.005h.013v-.005h.013v-.005h.013v-.005h.008v-.005l.038-.008v-.005l.038-.008v-.005h.013v-.005h.008v-.005l.038-.008v-.005h.013v-.005h.013v-.005h.013v-.005h.013c.164-.067.348-.11.515-.172h.017v-.005h.013v-.005h.013v-.005h.013v-.005h.013v-.005h.013v-.005h.017v-.005h.013v-.005h.013v-.005h.017v-.005h.013v-.005h.013v-.005h.013v-.005h.013v-.005h.017v-.005h.013v-.005h.013v-.005h.013v-.005h.013v-.005h.017v-.005l.055-.013v-.005h.013v-.005h.013v-.005h.017v-.005l.042-.008v-.005l.029-.005v-.005l.029-.005v-.005h.013v-.005h.017v-.005h.013v-.005h.017c.046-.017.102-.031.148-.048h.017v-.005h.017v-.005h.013v-.005h.017c.066-.025.145-.04.211-.065h.017v-.005h.017v-.005h.017v-.005h.017c.075-.028.165-.042.241-.069l.084-.017c.097-.034.21-.049.308-.082h.021l.067-.022.038-.005v-.005h.008l.017-.022h.008l.005-.008.042-.008v-.005l.042-.005v-.005l.038-.005V15.2h.021v-.005h.021v-.005h.021v-.005h.017v-.005l.047-.005c.073-.023.162-.028.236-.052h.026c.019-.005.048-.011.067-.017h.026c.028-.008.066-.013.093-.022h.026c.029-.009.068-.012.097-.022l.05-.005c.045-.014.103-.016.148-.03h.029v-.005h.026v-.005h.026v-.005h.026c.05-.015.114-.015.164-.03l.059-.005v-.005h.029v-.005h.034v-.005h.034v-.005h.034v-.005h.029v-.005h.034v-.005h.034v-.005h.029v-.005h.038c.041-.012.098-.009.139-.022h.038c.061-.018.143-.008.203-.026h.047v-.005h.047v-.005h.05v-.005h.05v-.005h.059v-.005h.055v-.005h.059v-.005l.097-.005h.047c.023-.007.062.003.088-.005s.071.003.097-.005v-.005h.127v-.005h.223c.023-.007.063-.005.093-.005.054 0 .136-.008.182.005h.042c.045 0 .106-.006.143.005l.241.008v.005h.042l.08.005v.005h.05v.005h.05v.005h.047v.005h.047v.005h.038v.005h.038v.005h.038v.005l.063.005v.005h.034c.031.009.075.012.106.022l.055.005c.041.012.094.017.135.03h.021v.005h.021v.005h.021v.005h.021v.005h.021c.081.026.175.04.253.069l.08.017v.005h.013v.005h.013v.005h.013v.005h.013v.005h.013l.013.022.042.013v.005l.017.005v.005h.013v.005l.017.005v.005h.013v.005h.008v.005h.013v.005l.017.005v.005h.013v.005l.017.005v.005h.013v.005l.017.005v.005h.013v.005l.017.005v.005h.013v.005l.017.005v.005h.008v.005h.013v.005l.017.005v.005h.013v.005l.017.005v.005h.013v.005l.017.005v.005h.013v.005l.017.005v.005h.008v.005h.013v.005l.017.005v.005h.013v.005l.017.005v.005h.008v.005h.013v.005l.017.005v.005h.008v.005h.013v.005l.017.005v.005l.021.005v.005h.008v.005h.008v.005h.008v.005h.013v.005l.017.005v.005h.008v.005h.013v.005l.017.005v.005h.008v.005h.013v.005l.026.008v.005h.008v.005h.013v.005l.026.008v.005h.008v.005h.013v.005l.017.005v.005h.008v.005h.013v.005h.008v.005l.017.005v.005l.017.005v.005h.013v.005l.026.008v.005h.008v.005h.013v.005l.026.008v.005h.008v.005h.008v.005h.013v.005l.026.008v.005h.008v.005h.013v.005l.026.008v.005h.008v.005h.008v.005h.008v.005h.013v.005l.026.008v.005h.008v.005h.008v.005h.008v.005h.013v.005l.026.008v.005h.008v.005h.008v.005h.008v.005l.017.005v.005h.013v.005l.026.008v.005h.008v.005h.008v.005l.017.005v.005h.013v.005h.008v.005h.008v.005h.008v.005h.008v.005h.008v.005h.008v.005h.008v.005h.008v.005l.026.008v.005h.013v.005l.017.005v.005l.068.03v.005h.008v.005h.008v.005h.008v.005l.026.008v.005h.013v.005l.017.005v.005l.026.008v.005h.008v.005h.008v.005h.008v.005h.008v.005l.017.005v.005l.017.005v.005l.017.005v.005h.008v.005h.008v.005h.008v.005h.008v.005h.008v.005h.008v.005h.008v.005h.008v.005h.008v.005l.017.005v.005l.017.005v.005l.026.008v.005h.008v.005h.008l.008.008h.008l.005.008.017.005v.005h.008v.005h.008v.005h.008v.005h.008v.005h.008v.005l.017.005v.005h.008v.005h.008v.005h.008v.005h.008v.005l.017.005v.005l.026.008.005.008h.008l.008.008h.008v.005h.008v.005h.008v.005h.008v.005h.008v.005h.008v.005h.008v.005h.008v.005h.008v.005h.008l.008.008h.008l.005.008h.008l.008.008h.008v.005h.008v.005h.008v.005h.008l.063.038h.008v.005h.008v.005h.008v.005h.008l.008.008h.008l.005.008.068.03.005.008.017.005v.005h.008v.005h.008l.008.008h.008l.005.008.017.005v.005h.008v.005h.008v.005h.008l.008.008h.008l.005.008.017.005v.005h.008v.005h.008l.008.008h.008l.005.008.017.005v.005h.008v.005h.008v.005h.008l.008.008h.008l.005.008h.008l.008.008h.008v.005h.008v.005h.008l.005.008h.008l.008.008h.008v.005h.008v.005h.008l.005.008h.008l.008.008h.008v.005h.008v.005h.008l.005.008h.008l.008.008h.008v.005l.017.005.005.008h.008l.008.008h.008v.005h.008v.005h.008l.005.008h.008l.008.008h.008v.005h.008l.005.008h.008l.008.008h.008v.005h.008l.005.008h.008l.008.008h.008v.005h.008l.005.008h.008l.008.008h.008v.005h.008v.005h.008l.005.008h.008l.008.008h.008v.005h.008l.005.008h.008l.008.008h.008l.005.008.017.005.008.008h.008l.005.008h.008v.005h.008v.005h.008l.005.008.017.005v.005l.021-.005.005-.008h.029l.005-.008c.011-.005.035.006.042.008h.021v.005l.026.008v.005l.017.005.008.013.047.008v.005l.021.005v.005l.017.005v.005h.013v.005l.026.008v.005l.017.005.005.008h.038v.005c.021.006.082 0 .097-.005h.047c.008-.001.008-.005.008-.005h.05v-.005l.097-.005v-.005h.068c.008-.002.029-.008.042-.005l.392.082.05.005c.039.012.091.015.13.026l.055.005c.057.018.129.018.185.035l.084.008c.067.02.152.018.219.038h.034v.005l.127.005v.005h.059v.005h.059v.005h.059v.005h.059v.005h.052v.005h.055v.005l.106.005v.005h.05v.005h.05v.005h.047v.005h.047v.005h.047v.005h.047v.005h.042v.005h.042v.005l.08.005c.05.015.115.012.164.026l.063.005c.039.012.091.014.13.026h.026c.034.011.08.015.114.026h.021v.005h.013l.005.008c.01.004.017-.005.021-.005v.005h.026v.005h.021v.005l.047.005v.005h.021v.005h.021v.005h.021v.005h.021v.005l.038.005v.005h.021v.005h.017v.005h.017v.005h.021v.005l.034.005v.005l.029.005v.005h.013v.005h.013v.005h.013v.005h.013v.005l.038.008c.098.044.197.087.283.142h.008l.008.008h.008v.005h.008l.005.008.026.008.005.008.017.005.005.008.017.005.005.008h.008v.005h.008l.005.008h.008l.005.008h.008l.005.008h.008l.005.008h.008v.005l.013.005.005.008h.008l.008.013h.008l.005.008h.008l.008.013h.008l.008.013h.008l.013.017h.008l.013.017h.008l.013.017h.008l.021.026h.008l.034.038h.008l.008.013c.014.014.033.035.05.043l.038.008v.005h.008v.005h.013v.005h.008v.005h.013v.005h.008v.005h.013v.005l.021.005v.005h.008v.005h.013v.005h.008v.005h.013v.005l.017.005v.005h.013v.005l.017.005v.005h.013v.005l.017.005v.005h.013v.005l.017.005v.005h.008v.005h.013v.005l.017.005V18h.013v.005l.026.008v.005h.008v.005h.008v.005h.013v.005l.026.008v.005h.008v.005h.013v.005l.026.008v.005h.008v.005h.008v.005h.013v.005l.026.008v.005h.008v.005h.008v.005h.013v.005l.026.008v.005h.008v.005h.008v.005l.017.005v.005h.013v.005l.026.008v.005h.008v.005h.008v.005h.008v.005l.017.005v.005h.013v.005h.008v.005h.008v.005h.008v.005h.008v.005h.008v.005h.008v.005h.008v.005l.026.008v.005h.013v.005h.008v.005h.008v.005h.008v.005h.008v.005h.008v.005h.008v.005h.008v.005h.008v.005l.026.008v.005h.013v.005h.008v.005h.008v.005h.008v.005h.008v.005h.008v.005h.008v.005h.008l.008.008.017.005.013.022h.017v.005l.017.005v.005h.008l.005.008h.008l.005.008h.008l.005.008h.008l.005.008h.008l.005.008h.008l.005.008h.008l.005.008h.008l.005.008h.008l.005.008h.008v.005l.013.005.005.008h.008l.008.013h.008l.005.008.013.005v.005h.008l.005.008h.008l.008.013h.008l.005.008h.008l.008.013.013.005.005.008h.008l.005.008h.008l.005.008.013.005.008.013h.008l.008.013h.008l.005.008.013.005.013.017h.008l.013.017h.008l.013.017h.008l.017.022h.008l.047.052.063.06v.008l.026.022v.008l.021.017v.008l.008.005v.008l.008.005.034.069c.005.012.009.095.005.112h-.005v.043c-.006.024-.01.058-.017.082l.005.121c0 .041.005.095-.005.129v.06h-.005v.048h-.005l-.005.099-.038.262c-.002.018-.011.09 0 .103.002.034.028.028.047.043.005.005.005.015.008.022l.026.022v.03zm.187-2.743s-2.122-1.665-6.216-1.809c0 0-2.618-1.825-4.413-2.04-1.781-.213-5.391-.072-8.69 1.251 0 0 4.641-2.598 8.812-2.069 2.172.276 4.477 2.021 4.477 2.021s4.7.361 6.031 2.647h-.001zm.094-1.88s-1.792-1.735-5.886-1.878c0 0-2.618-1.825-4.413-2.04-1.781-.213-5.391-.072-8.69 1.251 0 0 4.641-2.598 8.812-2.069 2.172.276 4.477 2.021 4.477 2.021s4.37.43 5.702 2.716h-.001z"/></svg>