<!-- Generated by IcoMoon.io -->
<svg version="1.1" xmlns="http://www.w3.org/2000/svg" width="32" height="32" viewBox="0 0 32 32">
<title>rennen</title>
<path d="M5.333 16.624c0 1.468 0.473 2.777 1.42 3.928 1.090-0.518 1.964-1.324 2.624-2.417s0.99-2.317 0.99-3.669v-3.798c-1.434 0.23-2.631 0.907-3.591 2.029s-1.441 2.432-1.441 3.928l-0.001-0.001zM8.473 21.933c0.889 0.489 1.85 0.734 2.882 0.734s2.007-0.245 2.925-0.734c-1.577-0.978-2.552-2.244-2.925-3.798-0.344 1.554-1.305 2.82-2.882 3.798zM12.387 14.466c0 1.324 0.33 2.532 0.99 3.626s1.534 1.914 2.624 2.461c-0.975-1.151-1.462-2.46-1.462-3.928s0.487-2.777 1.462-3.928c-0.975-1.122-2.179-1.799-3.613-2.029v3.798l-0.001 0.001zM15.999 20.551c1.061-0.547 1.928-1.36 2.602-2.439s1.010-2.294 1.011-3.647v-3.798c-1.462 0.23-2.667 0.907-3.613 2.029 0.975 1.18 1.462 2.489 1.462 3.928s-0.487 2.748-1.462 3.928v-0.001zM17.72 21.933c0.918 0.489 1.892 0.734 2.925 0.734s1.993-0.245 2.882-0.734c-1.577-0.978-2.538-2.244-2.882-3.798-0.373 1.554-1.348 2.82-2.925 3.798zM21.634 14.466c0 1.324 0.33 2.532 0.99 3.626s1.534 1.914 2.624 2.461c0.946-1.151 1.42-2.46 1.42-3.928 0-1.496-0.48-2.806-1.441-3.928s-2.158-1.799-3.591-2.029v3.798l-0.001 0.001z"></path>
</svg>
