<!-- Generated by IcoMoon.io -->
<svg version="1.1" xmlns="http://www.w3.org/2000/svg" width="32" height="32" viewBox="0 0 32 32">
<title>morning-afternoon-next</title>
<path d="M21.928 20.772c0 0.308-0.267 0.561-0.593 0.561s-0.593-0.253-0.593-0.561c0-2.477-2.129-4.494-4.743-4.494s-4.743 2.017-4.743 4.494c0 0.308-0.267 0.561-0.592 0.561s-0.592-0.253-0.592-0.561c0-3.094 2.658-5.616 5.928-5.616 3.266 0 5.928 2.523 5.928 5.616zM26.074 20.211h-2.369c-0.325 0-0.593 0.253-0.593 0.561s0.267 0.561 0.593 0.561h2.369c0.325 0 0.593-0.253 0.593-0.561s-0.261-0.561-0.593-0.561zM21.448 16.171c0.149 0 0.304-0.056 0.422-0.167l1.675-1.588c0.23-0.218 0.23-0.577 0-0.793s-0.608-0.218-0.838 0l-1.675 1.588c-0.23 0.218-0.23 0.577 0 0.793 0.112 0.111 0.267 0.167 0.417 0.167h-0.001zM16 14.034c0.325 0 0.593-0.253 0.593-0.561v-2.244c0-0.308-0.267-0.561-0.593-0.561s-0.592 0.253-0.592 0.561v2.244c0 0.308 0.267 0.561 0.592 0.561v0zM10.136 16.010c0.117 0.111 0.267 0.167 0.422 0.167 0.149 0 0.304-0.056 0.422-0.167 0.23-0.218 0.23-0.577 0-0.793l-1.686-1.593c-0.23-0.218-0.609-0.218-0.838 0s-0.23 0.577 0 0.793l1.68 1.593zM8.295 20.211h-2.369c-0.325 0-0.593 0.253-0.593 0.561s0.267 0.561 0.593 0.561h2.369c0.325 0 0.592-0.253 0.592-0.561s-0.267-0.561-0.592-0.561z"></path>
</svg>
