<svg xmlns="http://www.w3.org/2000/svg" width="100%" height="100%" viewBox="0 0 32 32"><path d="M23.862 22.423L16.863 9.851c-.178-.321-.508-.518-.864-.518s-.686.196-.864.518L8.136 22.423c-.178.326-.183.724-.004 1.05s.508.528.869.528h13.997c.357 0 .69-.201.869-.528s.178-.724-.004-1.05h-.001zm-7.863-.518c-.553 0-1.001-.47-1.001-1.05s.448-1.05 1.001-1.05c.553 0 1.001.47 1.001 1.05s-.448 1.05-1.001 1.05zM17 17.716c0 .58-.448 1.05-1.001 1.05s-1.001-.47-1.001-1.05v-3.144c0-.58.448-1.05 1.001-1.05s1.001.47 1.001 1.05v3.144z"/></svg>