<svg xmlns="http://www.w3.org/2000/svg" width="100%" height="100%" viewBox="0 0 32 32"><path d="M17.578 14.306c-.008.035-.018.071-.03.107-.16.499-.557.858-.889.802s-.472-.505-.312-1.004.557-.858.889-.802c.085.014.157.054.215.114-.145-.454-.407-.777-.756-.858-.412-.096-.856.164-1.216.64-.012-.76-.293-1.357-.778-1.506-.711-.217-1.589.616-1.963 1.861l-.001-.001c-.373 1.244-.099 2.43.611 2.648.459.14.986-.157 1.404-.718.001.876.328 1.564.874 1.692.723.169 1.56-.707 1.851-1.974.079-.345.111-.685.1-1.001zm-.247-.588c-.312-.132-.613.118-.393.326.01.01.024.018.04.025.312.132.613-.118.393-.326-.01-.01-.024-.018-.04-.025zm-3.047.59c-.312-.072-.406-.527-.21-1.017s.607-.829.919-.757c.312.072.406.527.21 1.017s-.607.829-.919.757zm.562-1.536c-.154 0-.279.095-.279.212s.126.212.279.212.279-.095.279-.212c0-.117-.125-.212-.279-.212zm9.109 1.991v.001c.214.636-.356 1.762-1.235 2.698s-2.944 1.547-2.944 1.547.166 1.595.273 2.65c.107 1.055.238 2.099-.748 2.303s-2.35-.432-3.537-1.319c-1.187-.887-1.816-1.367-1.816-1.367s-1.164.899-2.089 1.499c-.925.6-1.388.78-2.053-.072s-.736-3.07-.571-4.186.488-2.135.488-2.135-1.792-2.303-1.721-4.689c.071-2.378 1.266-1.849 1.899-1.451 1.317.827 2.659.863 2.659.863s2.503-3.101 4.618-3.106c1.128-.003 1.259 1.394 1.46 2.494.203 1.109.486 2.818.486 2.818s.653.216 2.172.491c1.519.276 2.445.324 2.659.959zm-6.541 2.878h.001l.332.276s-.114-.182-.167-.384c-.058-.221-.142-.552-.142-.552l-.072.538s-2.571 1.772-4.047 1.224c-1.519-.564-1.764-3.124-1.769-3.13l.332-.384s-.129.101-.463.24c-.293.122-.427.144-.427.144h.427s.072 2.974 1.802 3.515c1.785.557 4.188-1.488 4.193-1.488z"/></svg>