<!-- Generated by IcoMoon.io -->
<svg version="1.1" xmlns="http://www.w3.org/2000/svg" width="32" height="32" viewBox="0 0 32 32">
<title>suv-engine-pcm</title>
<path d="M8.745 14.112h5.926c0.906 0 1.788 0.173 2.625 0.515l3.197 1.646 0.169 0.005c0.030 0 3.103 0.125 4.85 0.915 0.249 0.111 0.408 0.366 0.408 0.645v0.703c0 0.072-0.015 0.111-0.020 0.12l-1.589 0.501-0.354 0.116-0.119 0.342c-0.204 0.592-0.772 0.992-1.409 0.992-0.628 0-1.19-0.39-1.404-0.963l-0.174-0.481h-9.048l-0.175 0.481c-0.214 0.578-0.777 0.963-1.404 0.963s-1.195-0.39-1.405-0.972l-0.124-0.342-0.359-0.105-1.833-0.554v-1.641h-0.747v1.641c0 0.318 0.214 0.597 0.523 0.689l1.833 0.554c0.304 0.847 1.131 1.453 2.107 1.453s1.797-0.607 2.107-1.444h7.998c0.308 0.837 1.131 1.444 2.107 1.444 0.991 0 1.823-0.626 2.116-1.483l1.609-0.52c0.304-0.096 0.513-0.376 0.513-0.789v-0.703c0-0.554-0.323-1.064-0.841-1.3-1.912-0.862-5.139-0.982-5.139-0.982l-3.072-1.583c-0.931-0.385-1.932-0.582-2.943-0.582h-5.941c-0.11 0-0.224 0.039-0.334 0.096l-0.498 0.481-2.037-1.968-0.528 0.51 2.142 2.070 0.309 0.323h0.458v-0.313l0.503-0.477v-0.002z"></path>
</svg>
