<!-- Generated by IcoMoon.io -->
<svg version="1.1" xmlns="http://www.w3.org/2000/svg" width="32" height="32" viewBox="0 0 32 32">
<title>evening</title>
<path d="M10.165 21.625c3.167 3.17 8.305 3.167 11.47-0.008 1.462-1.466 2.365-3.49 2.365-5.726 0-3.81-2.626-7.007-6.167-7.877-0.458-0.107-0.733 0.387-0.439 0.679 0.029 0.029 0.059 0.059 0.088 0.088 1.090 1.109 1.764 2.632 1.764 4.312 0 3.396-2.752 6.15-6.147 6.15-1.716 0-3.267-0.703-4.382-1.837l-0.012-0.012c-0.293-0.294-0.789-0.022-0.693 0.383 0.368 1.516 1.122 2.821 2.153 3.848v-0.001z"></path>
</svg>
