<!-- Generated by IcoMoon.io -->
<svg version="1.1" xmlns="http://www.w3.org/2000/svg" width="32" height="32" viewBox="0 0 32 32">
<title>payment-calculator</title>
<path d="M10.667 8v16h10.667v-16h-10.667zM14.333 22.261h-2v-2.087h2v2.087zM14.333 19.478h-2v-2.087h2v2.087zM14.333 16.696h-2v-2.087h2v2.087zM17 22.261h-2v-2.087h2v2.087zM17 19.478h-2v-2.087h2v2.087zM17 16.696h-2v-2.087h2v2.087zM19.667 22.261h-2v-4.87h2v4.87zM19.667 16.696h-2v-2.087h2v2.087zM20.333 12.522h-8.667v-2.783h8.667v2.783z"></path>
</svg>
