<svg xmlns="http://www.w3.org/2000/svg" width="100%" height="100%" viewBox="0 0 32 32"><path d="M20.195 22.222s-.908.444-6.061.444S8 22.222 8 22.222c0-1.861 3.519-3.912 4.532-4.077.314-.051.321-.931.321-.931s-.914-1.456-1.122-2.182c-.208-.726-1.027-5.699 2.374-5.699s2.777 4.463 2.265 5.801c-.296.748-.648 1.466-1.015 2.08 0 0 .007.88.321.931 1.01.164 4.519 2.216 4.519 4.077zm.323-2.395l-.268-.001c-.715-.684-1.628-1.274-2.361-1.637.617-.518 1.386-.906 1.71-.958.18-.029.184-.534.184-.534s-.524-.836-.644-1.253c-.12-.417-.59-3.272 1.362-3.272s1.594 2.562 1.3 3.33c-.169.429-.372.841-.582 1.195 0 0 .004.505.184.534.58.094 2.595 1.272 2.595 2.341 0 0-.523.255-3.482.255z"/></svg>