<!-- Generated by IcoMoon.io -->
<svg version="1.1" xmlns="http://www.w3.org/2000/svg" width="32" height="32" viewBox="0 0 32 32">
<title>weight</title>
<path d="M22.829 16.903c-0.157-0.436-0.465-0.785-0.892-0.785h-4.995v-1.547c2.059-0.473 3.596-2.335 3.596-4.56 0-2.583-2.071-4.678-4.624-4.678s-4.624 2.095-4.624 4.678c0 2.226 1.537 4.087 3.596 4.56v1.547h-4.942c-0.426 0-0.756 0.364-0.873 0.785l-2.406 8.978c0 0.431 0.349 0.785 0.776 0.785h17.115c0.426 0 0.776-0.353 0.776-0.785l-2.503-8.978h-0.001zM12.8 10.012c0-1.74 1.394-3.151 3.115-3.151s3.115 1.411 3.115 3.151c0 1.74-1.394 3.151-3.115 3.151s-3.115-1.411-3.115-3.151z"></path>
</svg>
