<!-- Generated by IcoMoon.io -->
<svg version="1.1" xmlns="http://www.w3.org/2000/svg" width="32" height="32" viewBox="0 0 32 32">
<title>work-next</title>
<path d="M8 12.475v8.804c0 0.765 0.602 1.387 1.342 1.387h13.317c0.74 0 1.342-0.621 1.342-1.387v-8.804h-16zM22.797 21.279c0 0.095-0.064 0.174-0.138 0.174h-13.317c-0.074 0-0.138-0.080-0.138-0.174v-7.591h13.593v7.591zM13.273 10.72c0-0.095 0.064-0.174 0.138-0.174h5.179c0.074 0 0.138 0.080 0.138 0.174v0.8h1.203v-0.8c0-0.766-0.601-1.387-1.342-1.387h-5.179c-0.74 0-1.342 0.621-1.342 1.387v0.8h1.203v-0.8zM16 19.484c0.844 0 1.563-0.462 1.844-1.114h4.044v-1.213h-5.12v0.606c0 0.239-0.316 0.507-0.769 0.507s-0.769-0.268-0.769-0.507v-0.606h-5.12v1.213h4.044c0.281 0.651 1.001 1.114 1.845 1.114h0.001z"></path>
</svg>
