<svg xmlns="http://www.w3.org/2000/svg" width="100%" height="100%" viewBox="0 0 32 32"><path d="M8 16.333h1.375c.084 1.778.764 3.278 2.042 4.5s2.805 1.833 4.583 1.833c2.167 0 3.916-.833 5.25-2.5l-1.459-1.459c-.139.222-.292.417-.459.583-.917.917-2.021 1.375-3.313 1.375s-2.396-.458-3.313-1.375c-.806-.806-1.25-1.792-1.333-2.959h1.292l-2.333-3-2.333 3.001zm2.75-4.5l1.459 1.417c.139-.195.292-.389.459-.583.917-.889 2.021-1.333 3.313-1.333s2.396.444 3.313 1.333c.806.833 1.25 1.833 1.333 3h-1.292l2.333 3 2.333-3h-1.375c-.084-1.778-.764-3.278-2.042-4.5s-2.805-1.833-4.583-1.833c-2.167 0-3.917.833-5.25 2.5z"/></svg>