<svg xmlns="http://www.w3.org/2000/svg" width="100%" height="100%" viewBox="0 0 32 32"><path d="M8 21.099h16v1.567H8v-1.567zm7.86-10.432h.359c.264 0 .479.205.479.459v1.261c0 .253-.215.459-.479.459h-.359c-.264 0-.479-.205-.479-.459v-1.261c0-.253.214-.459.479-.459zm-5.726 2.02l.254-.243c.187-.179.49-.179.677 0l.931.892c.187.179.187.47 0 .649l-.254.243c-.187.179-.49.179-.677 0l-.931-.892c-.187-.179-.187-.47 0-.649zm-1.057 3.75h1.317c.264 0 .479.205.479.459v.344c0 .253-.214.459-.479.459H9.077c-.264 0-.479-.205-.479-.459v-.344c0-.253.214-.459.479-.459zm12.489.039h1.317c.264 0 .479.205.479.459v.344c0 .253-.215.459-.479.459h-1.317c-.264 0-.479-.205-.479-.459v-.344c0-.253.215-.459.479-.459zm-1.483-3.141l.931-.892c.187-.179.49-.179.677 0l.254.243c.187.179.187.47 0 .649l-.931.892c-.187.179-.49.179-.677 0l-.254-.243c-.187-.179-.187-.47 0-.649zm-.194 5.892l-7.689.026c-.225-.492-.35-1.037-.35-1.609 0-2.217 1.876-4.013 4.19-4.013s4.19 1.797 4.19 4.013c0 .572-.125 1.117-.34 1.584z"/></svg>