<!-- Generated by IcoMoon.io -->
<svg version="1.1" xmlns="http://www.w3.org/2000/svg" width="32" height="32" viewBox="0 0 32 32">
<title>twitter</title>
<path d="M8 21.171c1.611 0.997 3.333 1.496 5.166 1.496 2.667 0 4.903-0.969 6.708-2.906s2.653-4.259 2.542-6.966v-0.129c0.639-0.456 1.167-1.040 1.583-1.752-0.5 0.285-1.111 0.47-1.833 0.556 0.25-0.143 0.521-0.399 0.813-0.769s0.479-0.726 0.563-1.069c-0.25 0.171-0.59 0.335-1.021 0.492s-0.77 0.235-1.021 0.235c-0.667-0.684-1.472-1.026-2.417-1.026-0.889 0-1.66 0.328-2.313 0.983s-0.979 1.453-0.979 2.393c0 0.257 0.028 0.513 0.083 0.769-1.278-0.029-2.562-0.356-3.854-0.983s-2.34-1.467-3.146-2.522c-0.417 0.912-0.507 1.781-0.271 2.607s0.66 1.439 1.271 1.838c-0.639 0.057-1.111-0.071-1.417-0.385-0.028 0.712 0.16 1.382 0.563 2.009s1.063 1.068 1.979 1.325c-0.306 0.171-0.764 0.199-1.375 0.085 0.056 0.541 0.382 1.061 0.979 1.56s1.257 0.748 1.979 0.748c-0.361 0.428-0.966 0.812-1.813 1.154s-1.771 0.427-2.771 0.256l-0.001-0.001z"></path>
</svg>
