<!-- Generated by IcoMoon.io -->
<svg version="1.1" xmlns="http://www.w3.org/2000/svg" width="32" height="32" viewBox="0 0 32 32">
<title>pinterest</title>
<path d="M10.667 13.755c0 0.81 0.155 1.531 0.466 2.162s0.764 1.078 1.362 1.34c0.23 0.095 0.379 0.024 0.449-0.214 0-0.072 0.023-0.203 0.069-0.393s0.081-0.31 0.104-0.357c0.046-0.191 0-0.357-0.138-0.5-0.391-0.477-0.586-1.084-0.586-1.823 0-1.215 0.408-2.252 1.224-3.11s1.868-1.287 3.155-1.287c1.173 0 2.086 0.328 2.741 0.983s0.983 1.507 0.983 2.556c0 1.358-0.264 2.508-0.793 3.449s-1.207 1.411-2.035 1.412c-0.483 0-0.868-0.173-1.155-0.518s-0.373-0.756-0.259-1.233c0.069-0.286 0.173-0.661 0.311-1.126s0.253-0.876 0.345-1.233c0.092-0.357 0.138-0.667 0.138-0.929 0-0.381-0.104-0.703-0.311-0.965s-0.506-0.393-0.896-0.393c-0.483 0-0.891 0.226-1.224 0.679s-0.5 1.013-0.5 1.68c0 0.262 0.023 0.518 0.069 0.769s0.104 0.423 0.173 0.518l0.069 0.179c-0.667 2.859-1.058 4.527-1.172 5.003-0.207 0.905-0.207 2.073 0 3.502 0 0.048 0.023 0.077 0.069 0.089s0.092 0.006 0.138-0.018c0.828-1.144 1.356-2.156 1.586-3.038 0.437-1.549 0.655-2.383 0.655-2.502 0.161 0.31 0.443 0.578 0.845 0.804s0.844 0.339 1.327 0.34c1.402 0 2.552-0.596 3.448-1.787s1.345-2.704 1.345-4.539c0-1.406-0.529-2.633-1.586-3.681s-2.402-1.573-4.035-1.573c-1.977 0-3.534 0.596-4.672 1.787s-1.707 2.514-1.707 3.967v0.001z"></path>
</svg>
