<!-- Generated by IcoMoon.io -->
<svg version="1.1" xmlns="http://www.w3.org/2000/svg" width="32" height="32" viewBox="0 0 32 32">
<title>informationen-anfordern</title>
<path d="M13.333 24v-0.833c0.504 0 0.874-0.181 1.111-0.542 0.208-0.333 0.311-0.986 0.311-1.959v-5.209c0.030-0.722-0.074-1.222-0.311-1.5-0.148-0.167-0.311-0.299-0.489-0.396s-0.326-0.16-0.444-0.187l-0.178-0.042v-0.667h3.911v8c0 0.972 0.119 1.639 0.356 2 0.119 0.167 0.267 0.292 0.444 0.375s0.326 0.125 0.444 0.125h0.178v0.833l-5.333 0.001zM14.4 10.75v-2.75h2.844v2.75h-2.844z"></path>
</svg>
