<svg xmlns="http://www.w3.org/2000/svg" width="100%" height="100%" viewBox="0 0 32 32"><path d="M22.768 19.579l.001.001c.675.533 1.53.976 1.127 2.096-.417 1.162-1.87 2.339-3.113 2.324-.175-.043-.52-.095-.831-.229-5.454-2.3-9.417-6.072-11.666-11.492-.758-1.815.029-3.348 1.933-3.977.34-.114.675-.119 1.01 0 .811.295 2.866 3.066 2.91 3.896.033.639-.408.982-.846 1.272-.826.552-.831 1.252-.476 2.029.801 1.757 2.166 2.967 3.929 3.753.641.28 1.253.252 1.69-.395.777-1.158 1.734-1.1 2.778-.381.525.357 1.059.715 1.554 1.105zM16.653 8.858v-.001c-.33-.052-.831.02-.811-.409.034-.633.636-.396.923-.438 3.833.129 7.131 3.563 7.082 7.273-.005.362.131.9-.423.891-.53-.009-.389-.557-.438-.919-.51-3.939-2.346-5.797-6.334-6.397zm.782 1.077h.001c2.457.29 4.469 2.381 4.454 4.687-.039.271.121.738-.326.805-.607.086-.49-.457-.549-.805-.408-2.395-1.263-3.277-3.726-3.815-.364-.081-.928-.024-.835-.572.092-.524.597-.348.981-.3zm.224 1.88v.001c1.093-.028 2.37 1.257 2.351 2.358.009.305-.024.624-.389.667-.267.033-.437-.186-.466-.453-.103-.986-.632-1.572-1.642-1.729-.301-.048-.597-.143-.456-.543.097-.267.345-.296.602-.3z"/></svg>