<svg xmlns="http://www.w3.org/2000/svg" width="100%" height="100%" viewBox="0 0 32 32"><path d="M9.816 19.698c2.025 0 2.535-.974 2.731-3.576h1.339c-.138 3.404-1.323 4.73-4.064 4.73-3.426 0-4.489-1.715-4.489-6.515 0-4.61 1.078-6.336 4.489-6.336 3.118 0 3.905 1.537 4.042 4.767h-1.355c-.139-2.586-.685-3.441-2.694-3.441-2.401 0-3.034 1.114-3.034 5.01 0 4.28.632 5.362 3.034 5.362zm10.13-11.693c3.373 0 4.473 1.726 4.473 6.336 0 4.805-1.046 6.515-4.473 6.515s-4.489-1.715-4.489-6.515c0-4.61 1.079-6.336 4.489-6.336zm0 11.693c2.396 0 3.017-1.082 3.017-5.362 0-3.896-.616-5.01-3.017-5.01s-3.034 1.114-3.034 5.01c0 4.28.632 5.362 3.034 5.362zm4.127 3.896c0-.682.361-1.044.84-1.369l.467-.314c.383-.26.776-.525.776-1.131 0-.563-.303-.796-.84-.796-.558 0-.829.243-.876.99h-.473c.032-.92.383-1.467 1.355-1.467.919 0 1.344.466 1.344 1.266 0 .768-.457 1.125-.882 1.407l-.467.314c-.547.379-.749.596-.749 1.012v.081h2.061v.411h-2.545v-.406h-.011z"/></svg>