<svg xmlns="http://www.w3.org/2000/svg" width="100%" height="100%" viewBox="0 0 32 32"><path d="M25.784 15.155c-1.905-.834-5.043-.97-5.206-.974-.005 0-.01 0-.015-.005l-3.124-1.59c-.889-.364-1.844-.558-2.808-.577-.005 0-.015 0-.02-.005l-6.232-.005c-.422 0-.762.325-.762.728 0 0-1.503 1.353-2.062 1.934-.132.14-.208.315-.214.504-.005.397-.015 1.12.005 1.198v.882c0 .34.234.64.574.742l1.803.538c.015.005.025.015.03.029.32.838 1.153 1.445 2.144 1.445.98 0 1.813-.596 2.133-1.425.005-.019.025-.029.046-.029h8.09c.02 0 .041.015.046.029.325.829 1.153 1.425 2.133 1.425 1 0 1.844-.621 2.153-1.474.005-.015.015-.024.031-.029l1.615-.514c.31-.097.523-.378.523-.795v-.674c.005-.577-.336-1.115-.883-1.357l.001-.001zm.127 2.032c0 .073-.015.112-.02.121l-1.62.504-.361.116-.122.344c-.244.703-1.006 1.134-1.793.96-.528-.116-.924-.534-1.108-1.018l-.147-.397h-9.234l-.142.388c-.183.485-.574.897-1.092 1.023-.783.189-1.549-.237-1.803-.935l-.127-.344-.366-.106-1.833-.548c-.025-.005-.036-.024-.036-.049v-.97l-.011-.034c-.005-.078-.011-.33.005-1.057 0-.015.005-.024.015-.034.544-.558 2.006-1.881 2.021-1.896l.239-.213v-.315h6.059c.924 0 1.824.175 2.672.519l3.26 1.658.172.005c.031 0 3.164.126 4.947.921.254.112.422.368.422.65v.708l.002-.001z"/></svg>