<svg xmlns="http://www.w3.org/2000/svg" width="100%" height="100%" viewBox="0 0 32 32"><path d="M15.834 12.253v-.002c.445-.058 2.611 0 3.833 0 .945 0 3.001 0 3.556.058l-.5.81c-.333 0-1.611.29-2.056.405-.5.173-4.722 3.587-5 4.397-.055.29-.111.753-.111 1.158l-.056.695c0 .463.111 1.273.167 1.678.278.058 2.278 0 2.667.058l-.056.868h-4.389c-.778 0-3.167.058-3.889.058l.111-.81c.389-.057 2.056.058 2.444-.347.167-.174.111-.405.111-1.562v-.521c0-.289 0-.752-.056-1.215-.167-.52-3.889-5.381-4.833-6.133-.278-.057-2-.232-2.444-.347v-.752c.222-.116 2.166 0 4.056-.058 1.222-.057 4.056 0 4.389.058l-.111.636c-.333.116-2.166.174-2.611.29 1.222 1.851 3.111 4.281 3.722 5.207.333-.521 3.334-2.662 3.444-3.414-.445-.115-2-.347-2.222-.347l-.167-.868zm9.444-.29v-.001c.944.115 1.111.115 1.389.173l-.389 1.331c-.389 1.099-1.39 5.902-1.5 6.249l-1.333-.115c.111-.694 0-6.133 0-6.711l-.056-1.158c.389.116.334.058 1.889.232zm-2.167 8.91l.944.115.778.058-.222 1.62-.722-.058-.722-.115-.056-1.62z"/></svg>