<!-- Generated by IcoMoon.io -->
<svg version="1.1" xmlns="http://www.w3.org/2000/svg" width="32" height="32" viewBox="0 0 32 32">
<title>limousine-pcm</title>
<path d="M22.635 19.999c-0.831 0-1.573-0.298-2.025-0.799h-8.58c-0.514 0.511-1.236 0.799-2.009 0.799-0.914 0-1.739-0.404-2.206-1.066l-1.271-0.146-0.057-0.027c-0.54-0.227-1.153-0.915-1.153-1.293v-0.022c0.042-0.551 0.213-1.528 0.524-1.954l0.005-0.009c0.498-0.64 2.056-1.128 3.472-1.532 0.732-0.209 2.886-0.617 4.563-0.617h0.14c0.602 0 2.009 0 2.99 0.209 1.463 0.293 2.533 0.857 3.089 1.199 2.523 0.182 4.095 0.448 4.942 0.826 0.26 0.111 0.628 0.32 0.939 0.537 0.591 0.404 0.669 0.604 0.669 0.76 0 0.844-0.244 1.479-0.254 1.506l-0.052 0.138-0.156 0.058c-0.016 0.004-0.415 0.156-1.308 0.347-0.488 0.675-1.34 1.088-2.263 1.088l0.002-0.001zM11.645 18.533h9.38l0.114 0.16c0.291 0.4 0.846 0.64 1.49 0.64 0.695 0 1.334-0.328 1.666-0.861l0.083-0.134 0.171-0.036c0.591-0.12 0.971-0.227 1.168-0.288 0.062-0.205 0.156-0.604 0.166-1.088-0.15-0.169-0.784-0.59-1.183-0.764l-0.005-0.004c-0.752-0.338-2.305-0.586-4.755-0.764l-0.114-0.009-0.088-0.049c-0.473-0.306-1.479-0.857-2.891-1.141h-0.005c-0.888-0.191-2.279-0.191-2.803-0.191h-0.14c-1.588 0-3.624 0.387-4.314 0.582-0.8 0.227-2.668 0.76-3.068 1.266-0.171 0.24-0.353 0.968-0.404 1.608 0.046 0.134 0.358 0.529 0.664 0.689l1.536 0.173 0.093 0.16c0.306 0.529 0.929 0.857 1.614 0.857 0.586 0 1.142-0.244 1.511-0.667l0.114-0.138v-0.001z"></path>
</svg>
