<svg xmlns="http://www.w3.org/2000/svg" width="100%" height="100%" viewBox="0 0 32 32"><path d="M26.667 14.395c0-.105.01-2.824-1.382-4.193-.564-.556-1.27-.819-2.123-.772l-2.21.236c-.031 0-2.727.005-4.165.005-1.585 0-4.46 0-4.643-.005-.213-.005-.741-.079-1.255-.152-.579-.084-1.174-.168-1.488-.179-.533-.021-.874.189-1.092.336-.711.016-1.316.284-1.793.793-1.117 1.181-1.183 3.322-1.183 3.832v.194c0 .52.071 2.645 1.178 3.826.497.53 1.128.798 1.808.814.183.121.528.341 1.077.315.32-.01.914-.095 1.488-.178.513-.073 1.041-.152 1.255-.152.183-.005 3.057-.005 4.642-.005v-.788c-1.595 0-4.475 0-4.663.005-.254.005-.783.079-1.341.163-.533.073-1.133.163-1.417.173-.315.01-.503-.105-.65-.2-.081-.053-.158-.1-.249-.121l-.091-.01c-.538 0-.97-.184-1.321-.557-1.016-1.082-.965-3.343-.965-3.369v-.021c0-.021-.056-2.283.965-3.369.35-.373.783-.556 1.321-.556l.091-.01c.091-.021.167-.074.249-.121.147-.095.335-.215.65-.2.28.01.884.095 1.417.173.559.079 1.087.158 1.341.163.188.005 3.068.005 4.663.005 1.138 0 4.089-.005 4.206-.005l2.23-.236c.619-.037 1.122.147 1.534.551 1.138 1.118 1.148 3.532 1.148 3.627-.02.032.005 2.482-1.148 3.622-.411.41-.914.588-1.514.557l-2.291-.242c-.167 0 .102-.005-1.935-.005l-.005.005-.015-.021-4.957 5.122.538.557 4.718-4.875h1.62l2.271.242c.833.047 1.539-.215 2.102-.772 1.386-1.386 1.386-4.104 1.382-4.198l.002-.002zm-10.285 2.503l2.027.247c.127.016.249-.073.274-.205l.071-.331c.3-1.459.3-2.97 0-4.429l-.071-.336c-.025-.131-.147-.22-.274-.205l-2.032.236.071.556c.158 1.302.158 2.619 0 3.921l-.066.546v.001zm-6.447-5.022l-.914-.241c-.127-.016-.249.074-.275.205l-.066.331c-.3 1.459-.3 2.97 0 4.429l.066.336c.025.131.147.22.275.205l.919-.242-.066-.557c-.158-1.302-.158-2.619 0-3.921l.061-.546z"/></svg>