<svg xmlns="http://www.w3.org/2000/svg" width="100%" height="100%" viewBox="0 0 32 32"><path d="M26.667 14.398c0-.11.01-2.826-1.382-4.196-.564-.556-1.27-.819-2.124-.772l-2.21.236c-.031 0-2.728.005-4.166.005-1.585 0-4.466 0-4.644-.005-.213-.005-.741-.079-1.255-.152-.58-.084-1.174-.168-1.488-.179-.533-.021-.874.189-1.092.336-.711.016-1.316.284-1.793.793-1.113 1.181-1.179 3.33-1.179 3.834v.194c0 .52.071 2.647 1.179 3.828.497.53 1.128.798 1.809.814.183.121.528.336 1.077.315.32-.01.914-.095 1.488-.178.513-.073 1.092-.147 1.305-.152v-.788c-.254.005-.849.084-1.407.163-.533.079-1.133.163-1.412.173-.315.01-.503-.105-.65-.2-.081-.053-.153-.1-.249-.121l-.091-.01c-.538 0-.971-.184-1.321-.557-1.016-1.082-.966-3.345-.966-3.371v-.026c0-.021-.056-2.285.966-3.371.35-.373.783-.556 1.321-.556l.091-.01c.091-.021.167-.068.249-.121.147-.095.335-.215.65-.2.28.01.884.095 1.412.173.559.079 1.088.158 1.341.163.188.005 3.069.005 4.664.005 1.138 0 4.089-.005 4.206-.005l2.23-.236c.619-.037 1.123.147 1.534.551 1.133 1.118 1.149 3.534 1.149 3.629-.02.032.005 2.484-1.149 3.624-.411.41-.914.588-1.514.557l-2.291-.242c-.167 0-4.441 0-6.478-.005l-.015.016-.005-.005-4.928 5.094.538.557 4.715-4.873h6.137l2.271.242c.833.042 1.54-.215 2.103-.772 1.377-1.375 1.377-4.101 1.372-4.196l.002-.003zm-10.288 2.505l2.027.247c.127.016.249-.073.274-.205l.066-.331c.3-1.46.3-2.972 0-4.432l-.071-.336c-.025-.131-.147-.22-.274-.205l-2.032.236.066.556c.158 1.302.158 2.621 0 3.923l-.056.546v.001zm-6.447-5.021l-.914-.241c-.127-.016-.249.074-.275.205l-.066.331c-.305 1.46-.305 2.973 0 4.432l.066.336c.025.131.147.22.275.205l.919-.242-.066-.557c-.158-1.302-.158-2.621 0-3.923l.061-.546z"/></svg>