<svg xmlns="http://www.w3.org/2000/svg" width="100%" height="100%" viewBox="0 0 32 32"><path d="M23.874 20.009l.001.001h.001c.069 0 .125.055.125.122v1.058c0 .067-.056.122-.125.122h-2.493c-.069 0-.125.055-.125.122v2.443c0 .067-.056.122-.125.122h-1.08c-.069 0-.125-.055-.125-.122v-2.443c0-.067-.056-.122-.125-.122H17.31c-.069 0-.125-.055-.125-.122v-1.058c0-.067.056-.122.125-.122h2.493c.069 0 .125-.055.125-.122v-2.443c0-.067.056-.122.125-.122h1.08c.069 0 .125.055.125.122v2.443c0 .067.056.122.125.122h2.493zm-8.219.568l.001.001c0 .74.35 1.418.928 1.942-.646.019-1.392.031-2.253.031-5.32 0-6.331-.441-6.331-.441 0-1.845 3.635-3.878 4.678-4.041.323-.051.331-.923.331-.923s-.945-1.442-1.159-2.163c-.214-.721-1.06-5.648 2.45-5.648s2.865 4.424 2.337 5.75c-.305.741-.669 1.453-1.047 2.062 0 0 .007.872.331.923.221.033.556.151.949.334-.746.547-1.215 1.319-1.215 2.174z"/></svg>