<!-- Generated by IcoMoon.io -->
<svg version="1.1" xmlns="http://www.w3.org/2000/svg" width="32" height="32" viewBox="0 0 32 32">
<title>details-next</title>
<path d="M12.696 12.646c-3.165 0-5.736 2.484-5.736 5.556 0 1.18 0.384 2.274 1.034 3.174l-2.364 2.29c-0.395 0.383-0.395 1.003 0 1.38 0.395 0.383 1.029 0.383 1.424 0l2.364-2.29c0.929 0.63 2.059 1.003 3.277 1.003 2.287 0 4.256-1.293 5.18-3.169h8.791v-2.096h-8.24c0.005-0.097 0.005-0.194 0.005-0.291 0-1.045-0.3-2.021-0.818-2.857h9.052v-2.096h-11.377c-0.779-0.388-1.658-0.604-2.592-0.604v-0.001zM16.791 18.201c0 2.194-1.836 3.966-4.095 3.966-2.265 0-4.095-1.773-4.095-3.966s1.836-3.966 4.095-3.966c2.265-0.005 4.095 1.773 4.095 3.966zM9.336 8v2.096h17.331v-2.096h-17.331z"></path>
</svg>
