<svg xmlns="http://www.w3.org/2000/svg" width="100%" height="100%" viewBox="0 0 32 32"><path d="M25.176 12.111l.001-.001c.888.603 1.462 1.266 1.49 1.301l-1.149 1.021c-.003-.003-.126-.145-.341-.348l-.056-.052-.009-.009-.051-.047-.013-.011-.053-.047-.013-.011-.065-.057-.003-.003-.074-.063-.005-.004-.068-.056-.022-.018-.055-.044-.028-.021-.053-.041-.029-.022-.057-.042-.028-.021-.073-.052-.014-.009-.089-.062-.025-.017-.066-.044-.035-.022-.061-.038-.037-.023-.062-.037-.037-.022-.067-.038-.033-.019-.101-.054h-.001l-.106-.053-.035-.016c-1.102-.529-2.057-.446-2.911.254-.032.026-.063.052-.095.081l-.244.214-.097.083-.142.123-.126.106-.109.092-.147.122-.078.064-.171.14-.019.015c-.797.643-1.596 1.214-2.425 1.697l-.143.082-.115.064-.136.074-.114.061c-.074.04-.148.078-.223.116l-.115.058-.133.065-.128.061-.126.058-.131.059-.201.087c-.054.022-.107.045-.161.066l-.115.046-.147.057-.11.041c-.176.064-.355.125-.536.182l-.105.033-.162.048-.104.029c-.875.243-1.805.394-2.818.438-.765.033-1.485.252-2.152.651-.051.03-.103.063-.153.095-.008.004-.014.009-.021.014l-.148.1-.006.004c-.094.066-.186.137-.278.21l-.035.028-.095.081-.087.075-.08.072-.107.1-.062.06c-.056.057-.112.113-.168.173-.051.055-.101.109-.149.164l-.003.003c-.047.055-.094.109-.137.162-.575.697-.86 1.315-.863 1.322l-1.386-.647c.019-.041.468-1.03 1.396-2.034.271-.293.555-.558.852-.794.063-.05.126-.098.19-.145l.029-.021c.126-.093.255-.181.386-.264l.03-.018c.065-.041.13-.081.196-.118l.019-.01c.062-.036.125-.07.188-.104l.025-.014c.067-.035.133-.068.2-.1.011-.004.021-.009.032-.015.064-.031.129-.06.194-.088.004-.003.008-.004.013-.006.067-.029.136-.057.204-.083l.039-.015c.137-.052.276-.1.416-.142.014-.003.027-.008.041-.012.069-.02.138-.04.207-.057l.028-.007.191-.044.04-.009c.07-.015.139-.027.209-.04l.042-.007c.064-.01.129-.02.193-.028l.029-.004c.071-.009.142-.016.212-.022l.049-.004c.072-.006.144-.01.217-.014h.002c.096-.004.191-.01.285-.016l.094-.007c.063-.004.126-.009.188-.015l.108-.01.178-.02.102-.012c.082-.01.163-.021.243-.033l.141-.022.116-.019c.051-.009.101-.017.151-.027l.098-.019.158-.032c1.076-.228 2.052-.61 2.991-1.127.097-.053.194-.108.291-.165l.001-.001c.481-.282.954-.598 1.427-.947l.021-.015.26-.195.024-.019c.091-.07.183-.141.275-.214.428-.338.859-.702 1.299-1.089l.044-.037c.241-.208.491-.385.749-.529l.002-.001c.051-.028.103-.056.154-.082l.005-.003c.051-.025.101-.049.152-.072l.01-.004c.05-.021.099-.043.149-.063l.017-.006c.048-.019.096-.037.144-.053l.024-.008.138-.045.035-.009c.043-.012.087-.025.131-.035l.046-.01.121-.027.058-.01c.037-.007.073-.014.11-.019l.076-.009c.032-.004.063-.009.095-.012l.102-.008.072-.006c.058-.003.116-.005.175-.006h.041l.051.001.066.001c.024.001.047.003.072.003l.066.003.073.006.066.006.073.009.066.008.074.011.066.01.075.014.065.012.076.016.065.015.077.019.064.016.077.021.064.019.078.025.064.021.078.027.063.022.08.031c.02.009.041.015.062.024l.083.034.06.025c.029.012.057.026.086.039l.056.026.095.046.048.023c.048.024.095.048.143.074l.153.084.037.021c.048.027.096.056.143.084l.003.002c.05.03.099.061.147.092l.025.016c.047.03.094.061.139.092zm-1.792 1.78l.002.001c.818.427 1.436 1.116 1.462 1.145l.329.381v9.915H7.582v-4.008c.117-.222.432-.768.936-1.306.818-.872 1.754-1.338 2.781-1.382.446-.019.883-.059 1.312-.118h10.985v-1.127h-7.199c.11-.052.22-.106.33-.161.7-.353 1.395-.773 2.122-1.288h4.747v-1.127h-3.28c.296-.244.6-.504.915-.781.352-.311.694-.456 1.073-.456.319 0 .682.105 1.081.313zm.211 9.94v-1.127H9.108v1.127h14.487zm0-2.63v-1.127H9.108v1.127h14.487zM9.108 14.816l.001-.001v.853c-.531.192-1.042.452-1.528.774V8h17.595v3.038c-.077-.044-.154-.088-.233-.13-.449-.238-.899-.416-1.347-.535v-.871H9.109v1.127h11.239c-.45.209-.879.492-1.286.85-.257.226-.511.444-.762.652H9.109v1.127h7.719c-.989.684-1.987 1.213-3.077 1.557H9.109z"/></svg>