<!-- Generated by IcoMoon.io -->
<svg version="1.1" xmlns="http://www.w3.org/2000/svg" width="32" height="32" viewBox="0 0 32 32">
<title>yahoo</title>
<path d="M15.834 12.253v-0.002c0.445-0.058 2.611 0 3.833 0 0.945 0 3.001 0 3.556 0.058l-0.5 0.81c-0.333 0-1.611 0.29-2.056 0.405-0.5 0.173-4.722 3.587-5 4.397-0.055 0.29-0.111 0.753-0.111 1.158l-0.056 0.695c0 0.463 0.111 1.273 0.167 1.678 0.278 0.058 2.278 0 2.667 0.058l-0.056 0.868c-0.389 0-2.944 0-4.389 0-0.778 0-3.167 0.058-3.889 0.058l0.111-0.81c0.389-0.057 2.056 0.058 2.444-0.347 0.167-0.174 0.111-0.405 0.111-1.562v-0.521c0-0.289 0-0.752-0.056-1.215-0.167-0.52-3.889-5.381-4.833-6.133-0.278-0.057-2-0.232-2.444-0.347v-0.752c0.222-0.116 2.166 0 4.056-0.058 1.222-0.057 4.056 0 4.389 0.058l-0.111 0.636c-0.333 0.116-2.166 0.174-2.611 0.29 1.222 1.851 3.111 4.281 3.722 5.207 0.333-0.521 3.334-2.662 3.444-3.414-0.445-0.115-2-0.347-2.222-0.347l-0.167-0.868zM25.278 11.963v-0.001c0.944 0.115 1.111 0.115 1.389 0.173l-0.389 1.331c-0.389 1.099-1.39 5.902-1.5 6.249l-1.333-0.115c0.111-0.694 0-6.133 0-6.711l-0.056-1.158c0.389 0.116 0.334 0.058 1.889 0.232zM23.111 20.873l0.944 0.115 0.778 0.058-0.222 1.62-0.722-0.058-0.722-0.115-0.056-1.62z"></path>
</svg>
