<!-- Generated by IcoMoon.io -->
<svg version="1.1" xmlns="http://www.w3.org/2000/svg" width="32" height="32" viewBox="0 0 32 32">
<title>car-connect</title>
<path d="M26.641 21.519v-0.021c0.014 0.004 0.015 0.011 0.026 0.011 0 0.040-0.020 0.076-0.051 0.099l-0.005 0.010h-0.013v0.004h-0.021v0.004h-0.018v0.004l-0.021 0.004v0.004c-0.007 0.004-0.007 0.009-0.013 0.012 0 0.001 0 0.003 0 0.004 0 0.012 0.003 0.023 0.008 0.032l0.008 0.004 0.005 0.016h0.005v0.008h0.005v0.032c-0.008 0.008-0.004 0.010-0.008 0.016l-0.018 0.012v0.004h-0.008v0.004h-0.009v0.004h-0.013v0.004h-0.008v0.004h-0.018v0.004h-0.005v0.004h-0.018c-0.043 0.013-0.1 0.016-0.143 0.028h-0.030v0.005h-0.026v0.004h-0.030v0.004l-0.089 0.004v0.004l-0.102 0.004h-0.005v0.004h-0.030l-0.051-0.016-0.005-0.008h-0.008l-0.005-0.008h-0.008v-0.004c-0.011-0.012-0.027-0.019-0.045-0.019-0.007 0-0.014 0.001-0.019 0.003v0.004h-0.021v0.004h-0.021c-0.063 0.018-0.138 0.022-0.2 0.040l-0.048 0.004v0.004h-0.021v0.004h-0.021v0.004l-0.043 0.004h-0.039v0.004h-0.039v0.004h-0.039v0.004l-0.098 0.008v0.004h-0.013v0.004h-0.008v0.004h-0.013v0.004h-0.008v0.004h-0.013v0.004h-0.018v0.006h-0.018v0.004h-0.021v0.004l-0.197 0.016v0.004h-0.021v0.004h-0.021v0.004h-0.018v0.004h-0.021c-0.119 0.035-0.252 0.055-0.367 0.095l-0.072 0.016v0.004h-0.013v0.004h-0.011v0.004l-0.030 0.004v0.004h-0.018v0.003l-0.023-0.001c-0.031 0.006-0.063 0.009-0.097 0.009-0.009 0-0.018 0-0.026-0.001-0.027 0-0.097 0.013-0.115-0.004-0.001 0-0.002 0-0.002 0-0.008 0-0.017 0.001-0.024 0.004l0.001 0.095c-0.011 0.005-0.022 0.008-0.035 0.009l-0.005-0.020-0.184-0.018c-0.005-0.013-0.011-0.026-0.016-0.037l-0.005-0.047h-0.005c-0.005-0.016 0.005-0.035-0.005-0.043 0.001-0.009 0.002-0.016 0.002-0.025 0-0.018-0.002-0.036-0.005-0.052h-0.222l-0.005 0.012h-0.005l-0.005 0.012-0.008 0.004v0.008h-0.005l-0.005 0.012-0.008 0.004v0.008l-0.008 0.004-0.005 0.012-0.013 0.008v0.008l-0.018 0.012v0.008l-0.018 0.012v0.008l-0.021 0.016v0.008l-0.030 0.024-0.005 0.012-0.056 0.047-0.048 0.047h-0.008l-0.026 0.028-0.013 0.004-0.008 0.012h-0.008l-0.013 0.016-0.013 0.004-0.005 0.008h-0.008l-0.005 0.008h-0.008l-0.008 0.012h-0.008l-0.005 0.008-0.013 0.004v0.004h-0.008l-0.006 0.005h-0.008l-0.005 0.008h-0.008l-0.005 0.008h-0.008l-0.005 0.008h-0.008l-0.005 0.008h-0.008l-0.005 0.008h-0.008l-0.005 0.008-0.018 0.004-0.005 0.008-0.018 0.004-0.005 0.008h-0.008l-0.008 0.008h-0.009v0.004h-0.008v0.004h-0.008l-0.005 0.008h-0.008v0.004h-0.008v0.004h-0.011v0.004h-0.008v0.004h-0.008v0.004l-0.026 0.008v0.004h-0.013v0.004h-0.008v0.004h-0.013v0.004h-0.008v0.004l-0.021 0.004v0.004l-0.039 0.008v0.004h-0.008v0.004h-0.018v0.004h-0.008v0.004h-0.015v0.004h-0.013v0.004l-0.030 0.004v0.004l-0.034 0.004v0.004l-0.034 0.004v0.004h-0.021v0.004h-0.021v0.004h-0.018v0.004h-0.026v0.004h-0.026v0.004h-0.026v0.004h-0.030v0.004h-0.034v0.004h-0.039v0.004h-0.048v0.004h-0.066c-0.020 0.004-0.040 0.005-0.062 0.005-0.008 0-0.015 0-0.019-0.001-0.018 0.001-0.036 0.002-0.054 0.002-0.032 0-0.063-0.002-0.091-0.006h-0.056v-0.004h-0.048v-0.004h-0.030v-0.004l-0.089-0.008c-0.025-0.007-0.060-0.013-0.085-0.020h-0.021v-0.004l-0.051-0.008v-0.004l-0.034-0.004v-0.004l-0.030-0.004v-0.004h-0.013v-0.004h-0.013v-0.004h-0.018v-0.004h-0.013v-0.004h-0.013v-0.004h-0.013v-0.004l-0.026-0.004v-0.004h-0.008v-0.004l-0.026-0.004v-0.004h-0.008v-0.004h-0.013v-0.004h-0.008v-0.004h-0.013v-0.004l-0.018-0.004v-0.004h-0.013v-0.004l-0.018-0.004v-0.004h-0.013v-0.004l-0.026-0.008h-0.008v-0.006h-0.008v-0.004h-0.008v-0.004h-0.008l-0.008-0.008h-0.008l-0.005-0.008h-0.008l-0.008-0.008h-0.008v-0.004h-0.008l-0.005-0.008h-0.008v-0.004h-0.002l-0.005-0.008-0.013-0.004v-0.004l-0.018-0.004v-0.004l-0.013-0.004-0.005-0.008h-0.008l-0.005-0.008h-0.008l-0.008-0.012h-0.008l-0.005-0.008h-0.008l-0.008-0.012h-0.008l-0.008-0.012h-0.008l-0.008-0.012h-0.008l-0.008-0.012h-0.008l-0.018-0.020h-0.008l-0.018-0.020h-0.008l-0.039-0.040h-0.008l-0.034-0.036-0.021-0.016v-0.008l-0.039-0.032v-0.008l-0.008-0.004v-0.004l-0.013-0.008v-0.008l-0.030-0.020h-0.008l-0.005-0.008h-0.008v-0.004h-0.008l-0.005-0.008-0.018-0.004v-0.004l-0.013-0.004-0.005-0.008h-0.008l-0.005-0.008h-0.008l-0.005-0.008h-0.008l-0.010-0.013c-0.026-0.013-0.049-0.032-0.067-0.055l-0.439 0.008v0.012c-0.004 0.001-0.007 0.004-0.008 0.008l-0.085 0.012h-0.068v0.004c-0.025 0.007-0.066-0.002-0.089 0.004h-0.107v0.004h-0.125c-0.027 0.004-0.055 0.006-0.084 0.006-0.015 0-0.030-0.001-0.043-0.001h-0.036c-0.026 0.004-0.053 0.006-0.079 0.006-0.015 0-0.030-0.001-0.043-0.002v-0.004l-0.034 0.004c-0.011-0.001-0.020-0.007-0.034-0.004-0.002 0.002-0.005 0.004-0.009 0.004-0.002 0-0.003-0.001-0.004-0.001v-0.004h-0.026v0.004h-0.018v-0.004l-0.037 0.004c-0.016-0.001-0.033-0.002-0.050-0.002s-0.034 0-0.048 0.001h-0.501c-0.021 0.004-0.043 0.005-0.066 0.005-0.008 0-0.018 0-0.025-0.001l-1.254 0.004-0.556-0.004c-0.027 0.004-0.053 0.006-0.082 0.006-0.014 0-0.028-0.001-0.040-0.001l-0.697-0.001c-0.027 0.004-0.055 0.006-0.083 0.006-0.011 0-0.023 0-0.033-0.001h-0.262c-0.018-0.001-0.034-0.002-0.052-0.002-0.031 0-0.062 0.002-0.088 0.006h-0.326c-0.014-0.001-0.027-0.001-0.040-0.001-0.027 0-0.054 0.002-0.077 0.006h-0.307l-0.452 0.004v-0.004l-0.018-0.004v-0.004h-0.162v0.004h-0.015c-0.014-0.001-0.030-0.001-0.045-0.001-0.030 0-0.059 0.002-0.085 0.006h-0.077l-0.132 0.008v0.004h-0.311c-0.005 0-0.008 0-0.013 0-0.024 0-0.048-0.004-0.069-0.009h-0.026v-0.004h-1.164v0.004l-0.018 0.012c0 0.001 0 0.001 0 0.001 0 0.038-0.007 0.075-0.018 0.107-0.023 0.009-0.056 0.013-0.081 0.020l-0.024-0.001c-0.027 0.009-0.056 0.013-0.086 0.013-0.002 0-0.004 0-0.005 0l-0.026-0.020 0.008-0.159h-0.252l-0.005 0.008h-0.008l-0.008 0.012h-0.008l-0.008 0.012-0.013 0.004-0.005 0.008h-0.008l-0.005 0.008h-0.008l-0.008 0.012h-0.008l-0.005 0.008-0.013 0.004v0.004h-0.008l-0.005 0.008h-0.008l-0.005 0.008h-0.008l-0.005 0.008h-0.008l-0.005 0.008-0.026 0.008-0.005 0.008-0.026 0.008-0.030 0.032c-0.024 0.024-0.051 0.046-0.081 0.067l-0.039 0.040h-0.008l-0.021 0.024h-0.008l-0.018 0.020h-0.008l-0.013 0.016h-0.008l-0.008 0.012h-0.008l-0.008 0.012h-0.009l-0.008 0.012h-0.008l-0.005 0.008h-0.008l-0.008 0.012h-0.009l-0.005 0.008-0.013 0.004v0.004l-0.018 0.004-0.005 0.008h-0.009l-0.005 0.008h-0.008l-0.005 0.008h-0.008v0.004h-0.008l-0.005 0.008h-0.007l-0.008 0.008h-0.008v0.001h-0.008l-0.005 0.008h-0.008l-0.008 0.008h-0.008v0.004h-0.008v0.004h-0.008v0.004h-0.008v0.004l-0.026 0.008v0.004h-0.013v0.004h-0.008v0.004l-0.026 0.008v0.004h-0.013v0.004h-0.008v0.004h-0.013v0.004l-0.018 0.004v0.004l-0.026 0.004v0.004h-0.007v0.004l-0.026 0.004v0.004h-0.008v0.004l-0.026 0.004v0.004h-0.013v0.004h-0.013v0.004l-0.043 0.008v0.004l-0.034 0.004v0.004h-0.018v0.004h-0.018v0.004h-0.018v0.004h-0.021v0.004l-0.043 0.004v0.004h-0.024c-0.035 0.010-0.084 0.010-0.12 0.020h-0.040v0.004l-0.061-0.001c-0.027 0.004-0.055 0.006-0.084 0.006-0.017 0-0.034-0.001-0.047-0.002v-0.004c-0.027-0.007-0.072 0.002-0.098-0.004h-0.059v-0.004h-0.051c-0.045-0.012-0.106-0.009-0.149-0.020l-0.059-0.004v-0.004l-0.072-0.008v-0.004h-0.021v-0.004h-0.021v-0.004h-0.018v-0.004h-0.018v-0.001l-0.039-0.004v-0.004h-0.013v-0.004l-0.044-0.007c-0.097-0.031-0.188-0.071-0.268-0.116l-0.026-0.008-0.005-0.008-0.017-0.004-0.005-0.008h-0.008v-0.004h-0.008l-0.005-0.008h-0.008l-0.005-0.008h-0.008l-0.005-0.008-0.017-0.004-0.008-0.012h-0.009l-0.005-0.008h-0.008l-0.005-0.008-0.013-0.004-0.008-0.012h-0.003l-0.008-0.012h-0.008l-0.013-0.016h-0.008l-0.013-0.016h-0.008l-0.021-0.024h-0.008l-0.039-0.040h-0.008l-0.034-0.036-0.021-0.016v-0.009l-0.039-0.032v-0.008l-0.008-0.004v-0.004l-0.017-0.012v-0.008l-0.017-0.012v-0.009l-0.017-0.012v-0.008l-0.013-0.008v-0.008l-0.013-0.008v-0.008l-0.008-0.004-0.005-0.012h-0.004v-0.008l-0.008-0.004v-0.006l-0.013-0.008-0.005-0.016-0.008-0.004-0.005-0.012h-0.005l-0.005-0.016-0.008-0.004-0.005-0.016-0.008-0.004v-0.008c-0.009-0.011-0.016-0.023-0.022-0.036l-0.128-0.004v-0.002h-0.017v-0.004h-0.013v-0.004h-0.013v-0.004h-0.013v-0.004h-0.008v-0.004h-0.007v-0.004c-0.026 0-0.051 0.004-0.072 0.012l-0.024-0.001c-0.023 0.005-0.047 0.008-0.072 0.008-0.017 0-0.034-0.001-0.049-0.004-0.026-0.003-0.016-0.009-0.026-0.024-0.002-0.002-0.006-0.002-0.008-0.008-0.002 0-0.003 0-0.005 0-0.028 0-0.056-0.003-0.081-0.008h-0.055v-0.004h-0.048v-0.004l-0.095-0.004v-0.004h-0.034c-0.040-0.011-0.089-0.014-0.128-0.024l-0.128-0.004-0.017 0.004v-0.004h-0.034v-0.004h-0.021v-0.004h-0.017v-0.004h-0.081v-0.004h-0.048l-0.107-0.004v-0.004c-0.023-0.004-0.058 0-0.081-0.004s-0.060 0.001-0.081-0.004h-0.079v-0.004l-0.102-0.004-0.008 0.012-0.021 0.004v0.004h-0.059v0.004l-0.026 0.008v0.004h-0.087c-0.023 0.004-0.046 0.006-0.069 0.006-0.012 0-0.024-0.001-0.035-0.001v-0.004h-0.034v-0.004h-0.021v-0.004l-0.029-0.001c-0.051-0.014-0.098-0.036-0.139-0.062l-0.043-0.045h-0.008l-0.005-0.008h-0.008v-0.005h-0.010v-0.004h-0.013v-0.004l-0.030-0.004v-0.004l-0.030-0.004v-0.004h-0.013v-0.004h-0.010v-0.004h-0.008v-0.004l-0.039-0.012v-0.004l-0.026-0.008v-0.004l-0.115-0.012v-0.004h-0.030v-0.004h-0.030v-0.004h-0.026v-0.004l-0.039-0.004v-0.004h-0.021v-0.004h-0.013v-0.004h-0.030v-0.004h-0.048v-0.004h-0.048v-0.004l-0.090-0.004v-0.004h-0.028v-0.002h-0.030v-0.004h-0.017v-0.004h-0.013v-0.004l-0.043-0.008v-0.004l-0.017-0.004v-0.004l-0.021-0.004-0.005-0.008h-0.008l-0.013-0.016-0.026-0.020v-0.008l-0.008-0.004v-0.008h-0.005l-0.005-0.016h-0.005l-0.008-0.036h-0.005v-0.008h-0.005l-0.005-0.024h-0.005v-0.012h-0.005v-0.012h-0.005v-0.012h-0.005v-0.014h-0.005v-0.012h-0.002l-0.021-0.071c0 0 0-0.001 0-0.001 0-0.012 0.005-0.023 0.013-0.030h0.008l0.008-0.012h0.008c0.003-0.001 0.003-0.005 0.008-0.008l-0.017-0.133h0.005v-0.008h0.005v-0.008h0.005v-0.012h0.003v-0.022h0.005v-0.008l0.034-0.024v-0.016l-0.005 0.001c-0.001-0.004-0.001-0.008-0.001-0.012 0-0.014 0.003-0.028 0.009-0.040l0.008-0.004v-0.008l0.008-0.004v-0.008l0.017-0.012v-0.008l0.017-0.012v-0.009l0.013-0.008 0.005-0.012 0.008-0.004v-0.008l0.008-0.004v-0.010l0.008-0.004c0.011-0.018 0.018-0.038 0.018-0.060 0-0.004-0.001-0.008-0.003-0.018-0.012-0.030-0.027-0.059-0.040-0.082v-0.012h-0.005v-0.016h-0.005v-0.020h-0.005v-0.014h-0.005l-0.048-0.265v-0.028c-0.011-0.034-0.010-0.086-0.021-0.122v-0.045h-0.003l0.001-0.052c-0.005-0.030-0.007-0.060-0.007-0.091s0.002-0.061 0.007-0.087v-0.059h0.005l0.008-0.075 0.030-0.063 0.008-0.004 0.005-0.016 0.008-0.004 0.005-0.012h0.005l0.005-0.016 0.013-0.008v-0.008l0.008-0.004 0.003-0.010h0.005v-0.008l0.013-0.008v-0.008l0.017-0.012 0.005-0.012 0.008-0.004v-0.008l0.021-0.016v-0.008l0.026-0.020v-0.008l0.008-0.004 0.013-0.016 0.013-0.008v-0.008l0.008-0.004v-0.012l0.013-0.008 0.005-0.016 0.013-0.004 0.005-0.008h0.008v-0.004l0.008-0.004v-0.012l0.008-0.004v-0.004h0.008l0.008-0.012h0.008l0.051-0.052 0.021-0.016c-0.006-0.021 0-0.009 0.005-0.028h0.008c0.003-0.013 0.011-0.014 0.017-0.024h0.013c0.004-0.024 0.014-0.018 0.030-0.028l0.008-0.012 0.026-0.004 0.051-0.053h0.008l0.077-0.075 0.005 0.001c-0.004-0.012-0.007-0.024-0.009-0.038 0.008-0.007 0.010-0.016 0.017-0.024l0.017-0.012v-0.008l0.024-0.018 0.008-0.012 0.115-0.024c0.083-0.028 0.178-0.047 0.256-0.079l0.026-0.004v-0.004h0.010v-0.004h0.013v-0.004l0.017-0.004v-0.004h0.013v-0.004l0.026-0.008v-0.004h0.008v-0.004h0.008v-0.004h0.008v-0.004h0.008v-0.004h0.008v-0.004h0.008v-0.004h0.008v-0.004h0.006v-0.004h0.008v-0.004l0.017-0.004v-0.004l0.017-0.004v-0.004l0.017-0.004v-0.004l0.021-0.004v-0.004l0.026-0.008v-0.004h0.008v-0.004h0.008v-0.004h0.008v-0.004h0.008v-0.002h0.010l0.008-0.008h0.008l0.005-0.008 0.017-0.004-0.001-0.004c0.016-0.006 0.034-0.009 0.051-0.009 0.002 0 0.004 0 0.005 0h0.034l0.017-0.020h0.008l0.013-0.016h0.006l0.005-0.008 0.017-0.004v-0.004h0.008v-0.004l0.026-0.008v-0.004h0.014v-0.004l0.017-0.004v-0.004h0.008v-0.004h0.013v-0.004l0.017-0.004v-0.004h0.013v-0.004l0.017-0.004v-0.004h0.013v-0.004h0.008v-0.004h0.013v-0.004l0.017-0.004v-0.004h0.013v-0.004h0.008v-0.004l0.021-0.004v-0.004h0.013v-0.004h0.008v-0.004h0.013v-0.004l0.017-0.004v-0.004h0.013v-0.004h0.008v-0.004h0.011v-0.004h0.008v-0.004h0.015v-0.004h0.008v-0.004h0.011v-0.005h0.008v-0.004h0.013v-0.004h0.013v-0.004h0.008v-0.004h0.013v-0.004h0.008v-0.004l0.026-0.004v-0.004h0.008v-0.004l0.039-0.008v-0.004h0.008v-0.004l0.039-0.008v-0.004h0.008v-0.004l0.026-0.004v-0.004l0.026-0.004v-0.004h0.008v-0.003l0.036-0.007c0.056-0.025 0.119-0.040 0.185-0.040 0-0.016 0-0.028 0.008-0.036 0.012-0.017 0.042-0.019 0.064-0.028v-0.004h0.013v-0.004h0.008v-0.004h0.013v-0.004h0.008v-0.004l0.026-0.004v-0.004h0.008v-0.004l0.026-0.004v-0.004h0.008v-0.004h0.013v-0.004l0.048-0.004v-0.004h0.013v-0.004l0.039-0.008v-0.004h0.013v-0.004h0.013v-0.004h0.013v-0.004h0.013v-0.004h0.009v-0.004h0.013v-0.004l0.026-0.004v-0.004h0.018v-0.004l0.026-0.004v-0.004l0.026-0.004v-0.004h0.013v-0.004h0.013v-0.004h0.010v-0.004h0.013v-0.004h0.013v-0.004l0.039-0.008v-0.004h0.021v-0.004h0.021v0.004h0.043v0.004l0.033-0.001c0.011 0.004 0.023 0.006 0.036 0.009v-0.004h0.013v-0.004h0.013v-0.003h0.013v-0.004h0.013v-0.004h0.013v-0.004h0.013v-0.004h0.008v-0.004h0.013v-0.004h0.013v-0.004h0.013v-0.004h0.013c0.018-0.007 0.041-0.017 0.059-0.024l0.026-0.004v-0.004h0.008v-0.004h0.013v-0.004h0.013v-0.004h0.013v-0.004h0.013c0.107-0.043 0.228-0.071 0.334-0.115l0.026-0.004v-0.004l0.039-0.008c0.018-0.007 0.041-0.017 0.059-0.024h0.013v-0.004h0.013v-0.004h0.013v-0.004h0.013v-0.004h0.008v-0.004l0.039-0.008v-0.004l0.039-0.008v-0.004h0.013v-0.004h0.008v-0.004l0.039-0.008v-0.004h0.013v-0.004h0.013v-0.004h0.010v-0.003h0.013c0.165-0.062 0.352-0.101 0.521-0.159h0.018v-0.004h0.013v-0.004h0.013v-0.004h0.013v-0.004h0.013v-0.004h0.013v-0.004h0.018v-0.004h0.013v-0.004h0.013v-0.004h0.020v-0.004h0.013v-0.004h0.013v-0.004h0.013v-0.004h0.013v-0.004h0.018v-0.004h0.013v-0.004h0.013v-0.004h0.013v-0.004h0.013v-0.004h0.018v-0.004l0.055-0.012v-0.004h0.013v-0.004h0.013v-0.004h0.012v-0.004l0.043-0.008v-0.004l0.030-0.004v-0.004l0.030-0.004v-0.004h0.013v-0.004h0.018v-0.004h0.013v-0.004h0.018c0.046-0.016 0.101-0.029 0.149-0.045h0.018v-0.004h0.018v-0.004h0.013v-0.004h0.018c0.067-0.023 0.146-0.037 0.213-0.059h0.018v-0.004h0.018v-0.004h0.018v-0.004h0.018c0.076-0.025 0.168-0.038 0.243-0.063l0.085-0.016c0.098-0.030 0.213-0.045 0.312-0.075h0.021l0.068-0.020 0.039-0.004v-0.004h0.008l0.018-0.020h0.008l0.005-0.008 0.043-0.008v-0.004l0.043-0.004v-0.003l0.039-0.004v-0.004h0.021v-0.004h0.021v-0.004h0.021v-0.004h0.014v-0.004l0.048-0.004c0.074-0.021 0.164-0.026 0.239-0.047h0.026c0.020-0.006 0.049-0.011 0.068-0.016h0.026c0.030-0.008 0.068-0.012 0.095-0.020h0.026c0.030-0.009 0.069-0.011 0.098-0.020l0.051-0.004c0.046-0.013 0.101-0.015 0.149-0.028h0.030v-0.004h0.026v-0.004h0.026v-0.004h0.026c0.050-0.014 0.115-0.014 0.166-0.028l0.059-0.004v-0.004h0.030v-0.004h0.034v-0.004h0.034v-0.005h0.034v-0.004h0.030v-0.004h0.031v-0.004h0.034v-0.004h0.030v-0.004h0.039c0.044-0.011 0.101-0.009 0.143-0.020h0.039c0.062-0.016 0.144-0.008 0.205-0.024h0.048v-0.004h0.048v-0.004h0.051v-0.004h0.048v-0.004h0.063v-0.004h0.115v-0.004l0.098-0.004h0.048c0.023-0.004 0.063 0.003 0.089-0.004s0.071 0.003 0.098-0.004v-0.004h0.128v-0.004h0.223c0.023-0.004 0.046-0.005 0.069-0.005 0.010 0 0.020 0.001 0.025 0.001 0.024-0.002 0.050-0.003 0.075-0.003 0.040 0 0.079 0.002 0.112 0.006h0.040c0.018-0.001 0.036-0.002 0.054-0.002 0.032 0 0.063 0.002 0.091 0.006l0.243 0.008v0.004h0.039l0.081 0.004v0.004h0.102v0.005h0.048v0.004h0.048v0.004h0.039v0.004h0.039v0.004h0.039v0.004l0.064 0.004v0.004h0.034c0.031 0.009 0.075 0.011 0.107 0.020l0.056 0.004c0.041 0.011 0.095 0.016 0.136 0.028h0.021v0.004h0.021v0.006h0.021v0.004h0.021v0.004h0.021c0.083 0.024 0.177 0.037 0.256 0.063l0.081 0.016v0.004h0.013v0.004h0.012v0.004h0.013v0.004h0.013v0.004h0.013l0.013 0.020 0.043 0.012v0.004l0.018 0.004v0.004h0.013v0.004l0.018 0.004v0.004h0.013v0.004h0.008v0.004h0.013v0.004l0.018 0.004v0.004h0.013v0.004l0.018 0.004v0.004h0.013v0.004l0.018 0.004v0.004h0.013v0.004l0.018 0.004h0.013v0.005l0.018 0.004v0.004h0.008v0.004h0.011v0.004l0.018 0.004v0.004h0.013v0.004l0.018 0.004v0.004h0.013v0.004l0.018 0.004v0.004h0.013v0.004l0.018 0.004v0.004h0.008v0.004h0.013v0.004l0.018 0.004v0.004h0.013v0.004l0.018 0.004v0.004h0.008v0.004h0.013v0.004l0.018 0.004v0.004h0.008v0.004h0.013v0.004l0.018 0.004v0.004l0.021 0.004v0.004h0.009v0.004h0.008v0.004h0.008v0.004h0.013v0.004l0.018 0.004v0.004h0.008v0.004h0.013v0.004l0.018 0.004v0.004h0.009v0.004h0.013v0.002l0.026 0.008v0.004h0.003v0.004h0.013v0.004l0.026 0.008v0.004h0.008v0.004h0.013v0.004l0.018 0.004v0.004h0.008v0.004h0.013v0.004h0.008v0.004l0.018 0.004v0.004l0.018 0.004v0.004h0.013v0.004l0.026 0.008v0.004h0.008v0.004h0.013v0.004l0.026 0.008v0.004h0.008v0.004h0.008v0.004h0.013v0.004l0.026 0.008v0.004h0.009v0.004h0.013v0.004l0.026 0.008v0.004h0.006v0.004h0.008v0.004h0.008v0.004h0.013v0.004l0.026 0.008v0.004h0.008v0.004h0.008v0.004h0.008v0.004h0.013v0.004l0.026 0.008v0.004h0.008v0.004h0.008v0.004h0.008v0.004l0.018 0.004v0.004h0.013v0.004l0.026 0.008v0.004h0.008v0.004h0.008v0.004l0.018 0.004v0.004h0.013v0.004h0.008v0.004h0.008v0.004h0.008v0.004h0.008v0.004h0.008v0.004h0.008v0.004h0.008v0.004h0.008v0.004l0.026 0.008v0.004h0.013v0.004l0.018 0.004v0.004l0.068 0.028v0.005h0.008v0.004h0.008v0.004h0.008v0.004l0.026 0.008v0.004h0.013v0.004l0.018 0.004v0.004l0.026 0.008v0.004h0.008v0.004h0.008v0.004h0.009v0.004h0.008v0.004l0.018 0.004v0.004l0.018 0.004v0.004l0.018 0.004v0.004h0.008v0.004h0.008v0.004h0.008v0.004h0.006v0.004h0.008v0.004h0.008v0.004h0.008v0.004h0.008v0.004h0.008v0.004l0.018 0.004v0.001l0.018 0.004v0.004l0.026 0.008v0.004h0.008v0.004h0.008l0.008 0.008h0.008l0.005 0.008 0.018 0.004v0.004h0.008v0.004h0.008v0.004h0.008v0.004h0.010v0.004h0.008v0.004l0.018 0.004v0.004h0.008v0.004h0.008v0.004h0.008v0.004h0.008v0.004l0.018 0.004v0.004l0.026 0.008 0.005 0.008h0.008l0.008 0.008h0.008v0.004h0.005v0.004h0.008v0.001h0.008v0.004h0.008v0.004h0.008v0.004h0.008v0.004h0.009v0.004h0.008v0.004h0.008l0.008 0.008h0.008l0.005 0.008h0.011l0.008 0.008h0.008v0.004h0.008v0.004h0.008v0.004h0.008l0.064 0.036h0.008v0.004h0.008v0.004h0.008v0.004h0.006l0.008 0.008h0.008l0.005 0.008 0.068 0.028 0.005 0.008 0.018 0.004v0.004h0.008v0.004h0.008l0.008 0.008h0.009l0.005 0.008 0.018 0.004v0.004h0.008v0.004h0.008v0.004h0.009l0.008 0.008h0.008l0.005 0.008 0.018 0.004v0.004h0.005v0.004h0.008l0.008 0.008h0.008l0.005 0.008 0.018 0.004v0.004h0.008v0.004h0.008v0.004h0.008l0.008 0.008h0.008l0.005 0.008h0.008l0.008 0.008h0.008v0.004h0.008v0.004h0.008l0.005 0.008h0.008l0.008 0.008h0.008v0.004h0.008v0.004h0.008l0.005 0.008h0.008l0.008 0.008h0.008v0.004h0.008v0.004h0.008l0.005 0.008h0.008l0.008 0.008h0.008v0.004l0.018 0.004 0.005 0.008h0.008l0.008 0.008h0.008v0.004h0.008v0.004h0.008l0.005 0.008h0.008l0.008 0.008h0.008v0.004h0.008l0.005 0.008h0.008l0.008 0.008h0.008v0.004h0.008l0.005 0.008h0.008l0.008 0.008h0.009v0.004h0.008l0.005 0.008h0.008l0.008 0.008h0.008v0.004h0.009v0.004h0.008l0.005 0.008h0.008l0.008 0.008h0.008v0.004h0.006l0.005 0.008h0.008l0.008 0.008h0.008l0.005 0.008 0.018 0.004 0.008 0.008h0.008l0.005 0.008h0.008v0.004h0.008v0.004h0.008l0.005 0.008 0.018 0.004v0.004l0.021-0.004 0.005-0.008h0.030l0.005-0.008c0.011-0.004 0.036 0.008 0.043 0.008h0.021v0.004l0.026 0.008v0.004l0.018 0.004 0.008 0.012 0.048 0.008v0.004l0.021 0.004v0.004l0.018 0.004v0.004h0.013v0.004l0.026 0.008v0.004l0.018 0.004 0.005 0.008h0.039l-0.002 0.004c0.012 0.001 0.024 0.002 0.037 0.002 0.022 0 0.043-0.002 0.063-0.006h0.048c0.008-0.001 0.008-0.004 0.008-0.004h0.051v-0.004l0.098-0.004v-0.004h0.067c0.010-0.004 0.021-0.005 0.031-0.005 0.005 0 0.008 0 0.012 0.001l0.397 0.075 0.051 0.004c0.040 0.011 0.092 0.013 0.132 0.024l0.056 0.004c0.057 0.016 0.13 0.016 0.187 0.032l0.085 0.008c0.068 0.019 0.154 0.018 0.222 0.036h0.034v0.004l0.128 0.004v0.004h0.059v0.004h0.059v0.004h0.059v0.004h0.059v0.004h0.053v0.004h0.053v0.004l0.107 0.004v0.006h0.051v0.004h0.051v0.004h0.048v0.004h0.048v0.004h0.048v0.004h0.048v0.004h0.043v0.004h0.043v0.004l0.081 0.004c0.050 0.014 0.118 0.011 0.166 0.024l0.064 0.004c0.040 0.011 0.092 0.013 0.132 0.024h0.026c0.034 0.010 0.081 0.014 0.115 0.024h0.021v0.004h0.013l0.005 0.008c0.010 0.004 0.017-0.004 0.021-0.004v0.004h0.026v0.004h0.021v0.004l0.048 0.004v0.004h0.021v0.004h0.021v0.004h0.021v0.004h0.021v0.004l0.039 0.004v0.004h0.021v0.004h0.018v0.004h0.018v0.001h0.021v0.004l0.034 0.004v0.004l0.030 0.004v0.004h0.013v0.004h0.013v0.004h0.008v0.004h0.013v0.004l0.053 0.013c0.098 0.038 0.191 0.083 0.271 0.128h0.008l0.008 0.008h0.008v0.004h0.008l0.005 0.008 0.026 0.008 0.005 0.008 0.018 0.004 0.005 0.008 0.018 0.004 0.005 0.008h0.008v0.004h0.008l0.005 0.008h0.008l0.005 0.008h0.008l0.005 0.008h0.008l0.005 0.008h0.008v0.004l0.013 0.004 0.005 0.008h0.008l0.008 0.012h0.008l0.005 0.008h0.008l0.008 0.012h0.008l0.008 0.012h0.008l0.013 0.016h0.008l0.013 0.016h0.008l0.013 0.016h0.008l0.021 0.024h0.008l0.034 0.036h0.008l0.009 0.012c0.014 0.015 0.031 0.028 0.051 0.039l0.039 0.008v0.004h0.008v0.004h0.013v0.004h0.008v0.004h0.013v0.004h0.008v0.004h0.013v0.004l0.021 0.004v0.001h0.008v0.004h0.013v0.004h0.008v0.004h0.013v0.004l0.018 0.004v0.004h0.013v0.004l0.018 0.004v0.004h0.013v0.004l0.018 0.004v0.004h0.013v0.004l0.018 0.004v0.004h0.008v0.004h0.009v0.004l0.018 0.004v0.004h0.013v0.004l0.026 0.008v0.004h0.008v0.004h0.008v0.004h0.013v0.004l0.026 0.008v0.004h0.008v0.004h0.013v0.004l0.026 0.008v0.005h0.008v0.004h0.008v0.004h0.013v0.004l0.026 0.008v0.004h0.008v0.004h0.008v0.004h0.013v0.004l0.026 0.008v0.004h0.008v0.004h0.008v0.004l0.018 0.004v0.004h0.013v0.004l0.026 0.008v0.004h0.008v0.004h0.008v0.004h0.008v0.004l0.018 0.004v0.004h0.013v0.004h0.008v0.004h0.008v0.004h0.008v0.004h0.008v0.004h0.008v0.004h0.008v0.004h0.008v0.004l0.026 0.008v0.004h0.013v0.004h0.008v0.004h0.008v0.004h0.005v0.004h0.008v0.004h0.008v0.004h0.008v0.004h0.008v0.004h0.008v0.004l0.026 0.008v0.004h0.013v0.004h0.008v0.004h0.011v0.004h0.008v0.004h0.008v0.004h0.008v0.004h0.008v0.004h0.008l0.008 0.008 0.018 0.004 0.013 0.020h0.018v0.004l0.018 0.004v0.002h0.008l0.005 0.008h0.008l0.005 0.008h0.008l0.005 0.008h0.008l0.005 0.008h0.008l0.005 0.008h0.009l0.005 0.008h0.008l0.005 0.008h0.008l0.005 0.008h0.008l0.005 0.008h0.008v0.004l0.013 0.004 0.005 0.008h0.008l0.008 0.012h0.005l0.005 0.008 0.013 0.004v0.004h0.008l0.005 0.008h0.008l0.008 0.012h0.008l0.005 0.008h0.008l0.008 0.012 0.013 0.004 0.005 0.008h0.008l0.005 0.008h0.008l0.005 0.008 0.013 0.004 0.008 0.012h0.008l0.008 0.012h0.008l0.005 0.008 0.013 0.004 0.013 0.016h0.008l0.013 0.016h0.008l0.013 0.016h0.008l0.018 0.020h0.008l0.048 0.047 0.064 0.055v0.008l0.026 0.020v0.008l0.021 0.016v0.008l0.008 0.004v0.008l0.008 0.004 0.034 0.061c0.004 0.023 0.006 0.046 0.006 0.070 0 0.013-0.001 0.025-0.002 0.035h-0.005v0.040c-0.007 0.022-0.011 0.053-0.018 0.075l0.004 0.108c0.001 0.014 0.002 0.028 0.002 0.043 0 0.028-0.002 0.054-0.006 0.077v0.055h-0.005v0.045h-0.005c-0.003 0.031-0.005 0.062-0.005 0.091l-0.039 0.241c0 0.017-0.011 0.083 0 0.095 0.003 0.032 0.029 0.025 0.048 0.040 0.005 0.004 0.005 0.014 0.008 0.020l0.026 0.020v0.028zM15.695 14.027c0.002 0 0.002 0 0.004 0 0.879 0 1.681 0.307 2.286 0.81 0.079 0.067 0.13 0.161 0.133 0.268 0 0.004 0 0.007 0 0.011 0 0.104-0.045 0.199-0.119 0.268l-0.476 0.442c-0.073 0.068-0.175 0.11-0.287 0.11-0.101 0-0.194-0.035-0.261-0.089-0.342-0.276-0.79-0.443-1.278-0.443s-0.936 0.167-1.275 0.441c-0.071 0.057-0.163 0.091-0.264 0.091-0.112 0-0.213-0.042-0.287-0.11l-0.476-0.442c-0.073-0.069-0.119-0.163-0.119-0.268 0-0.004 0-0.007 0-0.011 0.003-0.106 0.054-0.201 0.13-0.265 0.607-0.506 1.409-0.813 2.289-0.813 0 0 0.001 0 0.001 0zM18.652 14.179v-0.001c-0.001 0-0.001 0-0.001 0-0.107 0-0.203-0.037-0.273-0.098-0.705-0.607-1.648-0.977-2.685-0.977s-1.98 0.371-2.682 0.975c-0.072 0.062-0.169 0.101-0.276 0.101-0.112 0-0.213-0.042-0.287-0.11l-0.473-0.44c-0.073-0.069-0.119-0.163-0.119-0.267 0-0.108 0.050-0.206 0.126-0.273 0.971-0.844 2.276-1.361 3.711-1.361s2.741 0.517 3.708 1.359c0.078 0.069 0.128 0.167 0.128 0.275 0 0.104-0.046 0.199-0.119 0.267l-0.473 0.44c-0.072 0.069-0.174 0.11-0.285 0.11 0 0-0.001 0-0.001 0zM10.959 12.246l-0.475-0.441c-0.073-0.068-0.119-0.162-0.119-0.266 0-0.108 0.048-0.205 0.123-0.27 1.354-1.2 3.189-1.936 5.207-1.936s3.853 0.736 5.204 1.933c0.078 0.069 0.126 0.165 0.126 0.273 0 0.104-0.046 0.198-0.119 0.266l-0.476 0.442c-0.073 0.068-0.175 0.11-0.287 0.11-0.107 0-0.206-0.040-0.276-0.101-1.087-0.96-2.556-1.549-4.173-1.549s-3.087 0.589-4.17 1.546c-0.072 0.064-0.171 0.103-0.279 0.103-0.112 0-0.213-0.042-0.287-0.11z"></path>
</svg>
