<!-- Generated by IcoMoon.io -->
<svg version="1.1" xmlns="http://www.w3.org/2000/svg" width="32" height="32" viewBox="0 0 32 32">
<title>timer</title>
<path d="M15.333 8.922c4.786 0 8.667 3.973 8.667 8.872s-3.88 8.872-8.667 8.872c-4.786 0-8.667-3.973-8.667-8.872s3.88-8.872 8.667-8.872zM15.306 24.155c3.46 0 6.264-2.866 6.264-6.402 0-3.535-2.805-6.402-6.264-6.402s-6.264 2.867-6.264 6.402c0 3.535 2.805 6.402 6.264 6.402zM14.443 12.095h1.944v5.685h-1.944v-5.685zM13.768 5.333h3.213v2.318h-3.213v-2.318zM22.922 8.509l-1.035 1.51-1.644-1.176 1.035-1.511 1.644 1.177z"></path>
</svg>
