<!-- Generated by IcoMoon.io -->
<svg version="1.1" xmlns="http://www.w3.org/2000/svg" width="32" height="32" viewBox="0 0 32 32">
<title>parklight-next</title>
<path d="M13.373 11.367l-0.001 0.001c0.315 0.313 0.563 0.809 0.746 1.442 0.183 0.561 0.249 1.312 0.249 2.127 0 0.809-0.124 1.565-0.314 2.127s-0.437 1.064-0.817 1.377c-0.372 0.372-0.818 0.627-1.379 0.751-0.498 0.123-1.125 0.189-1.818 0.189h-2.948v5.952h-1.758v-15.031h4.772c0.759 0 1.387 0.060 1.948 0.249 0.503 0.189 0.94 0.437 1.32 0.816zM12.49 16.379v0.001c0.066-0.379 0.131-0.881 0.124-1.508 0-0.567-0.059-1.063-0.124-1.442-0.059-0.438-0.249-0.691-0.438-0.94-0.19-0.254-0.438-0.437-0.752-0.502-0.313-0.058-0.751-0.124-1.189-0.124h-3.013v6.017h2.948c0.437 0 0.875-0.058 1.189-0.124 0.314-0.058 0.627-0.19 0.817-0.438s0.372-0.561 0.438-0.94zM16.883 14.682h9.784v1.253h-9.85c0.066-0.373 0.066-0.685 0.066-1.064 0-0.065 0-0.123 0-0.189zM16.635 12.43c-0.066-0.123-0.066-0.254-0.124-0.32-0.065-0.314-0.189-0.627-0.314-0.875l7.968-4.569 0.627 1.064-8.157 4.699zM15.818 19.198c0.189-0.378 0.38-0.757 0.569-1.129l8.405 4.888-0.627 1.064-8.346-4.823z"></path>
</svg>
