<!-- Generated by IcoMoon.io -->
<svg version="1.1" xmlns="http://www.w3.org/2000/svg" width="32" height="32" viewBox="0 0 32 32">
<title>consumption</title>
<path d="M23.515 12.587l0.001-0.001v9.319c0 0 0.006 1.762-1.988 1.762s-1.988-1.762-1.988-1.762v-6.238c0 0 0-0.208-0.097-0.286s-0.34-0.095-0.34-0.095h-1.406v7.191c0 0.838-0.698 1.524-1.551 1.524h-6.594c-0.853 0-1.551-0.686-1.551-1.524v-12.952c0-0.838 0.698-1.524 1.551-1.524h6.594c0.853 0 1.551 0.686 1.551 1.524v4.571h1.406c0 0 0.812-0.090 1.309 0.381s0.388 1.191 0.388 1.191v6.238c0 0 0.006 0.644 0.776 0.619s0.776-0.619 0.776-0.619v-8.128l1.164-1.191zM10.134 9.144c-0.533 0-0.97 0.428-0.97 0.952v2.476h7.418v-2.476c0-0.523-0.436-0.952-0.97-0.952h-5.479zM23.528 9.442h0.001c0 0 0.472 0.472 0.472 1.083 0 0.842-0.523 1.18-0.523 1.18l-1.577 1.549-0.781-0.76 1.577-1.549c0 0 0.14-0.075 0.14-0.325 0-0.292-0.17-0.405-0.17-0.405l-1.033-1.058 0.766-0.823 1.128 1.108z"></path>
</svg>
