<!-- Generated by IcoMoon.io -->
<svg version="1.1" xmlns="http://www.w3.org/2000/svg" width="32" height="32" viewBox="0 0 32 32">
<title>cw-value</title>
<path d="M26.385 20.097l0.017-0.040c0.014 0.004 0.015 0.012 0.024 0.014 0 0.045-0.024 0.090-0.050 0.108-0.002 0.003-0.003 0.005-0.005 0.008-0.005 0-0.008 0-0.013 0 0 0.002 0 0.003 0 0.005-0.007 0-0.014 0-0.021 0 0 0.002 0 0.003 0 0.005-0.005 0-0.011 0-0.017 0 0 0.002 0 0.003 0 0.005-0.007 0.002-0.014 0.003-0.021 0.005 0 0.002 0 0.003 0 0.005-0.007 0.005-0.008 0.008-0.013 0.013 0.001 0.017 0.002 0.027 0.008 0.038 0.003 0.002 0.005 0.003 0.008 0.005 0.002 0.005 0.003 0.012 0.005 0.017 0.002 0 0.003 0 0.005 0 0 0.003 0 0.005 0 0.008 0.002 0 0.003 0 0.005 0 0 0.012 0 0.023 0 0.035-0.008 0.007-0.004 0.010-0.008 0.017-0.005 0.005-0.011 0.008-0.017 0.013 0 0.002 0 0.003 0 0.005-0.003 0-0.005 0-0.008 0 0 0.002 0 0.003 0 0.005-0.003 0-0.005 0-0.008 0 0 0.002 0 0.003 0 0.005-0.005 0-0.008 0-0.013 0 0 0.002 0 0.003 0 0.005-0.003 0-0.005 0-0.008 0 0 0.002 0 0.003 0 0.005-0.005 0-0.011 0-0.017 0 0 0.002 0 0.003 0 0.005-0.005 0-0.008 0-0.013 0 0 0.002 0 0.003 0 0.005-0.005 0-0.011 0-0.017 0-0.041 0.014-0.096 0.017-0.139 0.030-0.010 0-0.020 0-0.029 0 0 0.002 0 0.003 0 0.005-0.009 0-0.017 0-0.026 0 0 0.002 0 0.003 0 0.005-0.010 0-0.020 0-0.029 0 0 0.002 0 0.003 0 0.005-0.029 0.002-0.059 0.003-0.088 0.005 0 0.002 0 0.003 0 0.005-0.033 0.002-0.067 0.003-0.101 0.005-0.002 0-0.003 0-0.005 0 0 0.002 0 0.003 0 0.005-0.010 0-0.020 0-0.029 0-0.017-0.005-0.034-0.012-0.050-0.017-0.002-0.003-0.003-0.005-0.005-0.008-0.003 0-0.005 0-0.008 0-0.002-0.003-0.003-0.005-0.005-0.008-0.003 0-0.005 0-0.008 0 0-0.002 0-0.003 0-0.005-0.009-0.007-0.014-0.013-0.026-0.017-0.005-0.005-0.026-0.004-0.038 0 0 0.002 0 0.003 0 0.005-0.007 0-0.014 0-0.021 0 0 0.002 0 0.003 0 0.005-0.007 0-0.014 0-0.021 0-0.062 0.019-0.136 0.024-0.198 0.043-0.016 0.002-0.032 0.003-0.047 0.005 0 0.002 0 0.003 0 0.005-0.007 0-0.014 0-0.021 0 0 0.002 0 0.003 0 0.005-0.007 0-0.014 0-0.021 0 0 0.002 0 0.003 0 0.005-0.014 0.002-0.028 0.003-0.042 0.005 0 0.002 0 0.003 0 0.005-0.012 0-0.025 0-0.038 0 0 0.002 0 0.003 0 0.005-0.012 0-0.025 0-0.038 0 0 0.002 0 0.003 0 0.005-0.012 0-0.025 0-0.038 0 0 0.002 0 0.003 0 0.005-0.032 0.003-0.065 0.005-0.097 0.008 0 0.002 0 0.003 0 0.005-0.005 0-0.008 0-0.013 0 0 0.002 0 0.003 0 0.005-0.003 0-0.005 0-0.008 0 0 0.002 0 0.003 0 0.005-0.005 0-0.008 0-0.013 0 0 0.002 0 0.003 0 0.005-0.003 0-0.005 0-0.008 0 0 0.002 0 0.003 0 0.005-0.005 0-0.008 0-0.013 0 0 0.002 0 0.003 0 0.005-0.005 0-0.011 0-0.017 0 0 0.002 0 0.003 0 0.005-0.005 0-0.011 0-0.017 0 0 0.002 0 0.003 0 0.005-0.007 0-0.014 0-0.021 0 0 0.002 0 0.003 0 0.005-0.064 0.005-0.129 0.012-0.194 0.017 0 0.002 0 0.003 0 0.005-0.007 0-0.014 0-0.021 0 0 0.002 0 0.003 0 0.005-0.007 0-0.014 0-0.021 0 0 0.002 0 0.003 0 0.005-0.005 0-0.011 0-0.017 0 0 0.002 0 0.003 0 0.005-0.007 0-0.014 0-0.021 0-0.118 0.038-0.25 0.059-0.363 0.103-0.024 0.005-0.047 0.012-0.072 0.017 0 0.002 0 0.003 0 0.005-0.005 0-0.008 0-0.013 0 0 0.002 0 0.003 0 0.005-0.005 0-0.008 0-0.013 0 0 0.002 0 0.003 0 0.005-0.010 0.002-0.020 0.003-0.029 0.005 0 0.002 0 0.003 0 0.005-0.005 0-0.011 0-0.017 0 0 0.002 0 0.003 0 0.005-0.009 0-0.017 0-0.026 0-0.032 0.010-0.078 0.008-0.118 0.008-0.027 0-0.096 0.015-0.114-0.005-0.012 0.001-0.018 0.002-0.026 0.005 0 0.034 0 0.069 0 0.103-0.002 0.003-0.027 0.008-0.034 0.008-0.002-0.007-0.003-0.015-0.005-0.022-0.061-0.005-0.121-0.012-0.182-0.017-0.003-0.015-0.012-0.030-0.017-0.043-0.002-0.017-0.003-0.035-0.005-0.052-0.002 0-0.003 0-0.005 0-0.005-0.016 0.005-0.037-0.005-0.048 0-0.026 0.002-0.062-0.005-0.082-0.073 0-0.146 0-0.219 0-0.002 0.005-0.003 0.008-0.005 0.013-0.002 0-0.003 0-0.005 0-0.002 0.005-0.003 0.008-0.005 0.013-0.003 0.002-0.005 0.003-0.008 0.005 0 0.003 0 0.005 0 0.008-0.002 0-0.003 0-0.005 0-0.002 0.005-0.003 0.008-0.005 0.013-0.003 0.002-0.005 0.003-0.008 0.005 0 0.003 0 0.005 0 0.008-0.003 0.002-0.005 0.003-0.008 0.005-0.002 0.005-0.003 0.008-0.005 0.013-0.005 0.003-0.008 0.005-0.013 0.008 0 0.003 0 0.005 0 0.008-0.005 0.005-0.011 0.008-0.017 0.013 0 0.003 0 0.005 0 0.008-0.005 0.005-0.011 0.008-0.017 0.013 0 0.003 0 0.005 0 0.008-0.007 0.005-0.014 0.012-0.021 0.017 0 0.003 0 0.005 0 0.008-0.010 0.009-0.020 0.018-0.029 0.026-0.002 0.005-0.003 0.008-0.005 0.013-0.018 0.017-0.037 0.035-0.055 0.052-0.016 0.017-0.032 0.035-0.047 0.052-0.003 0-0.005 0-0.008 0-0.009 0.010-0.017 0.020-0.026 0.030-0.005 0.002-0.008 0.003-0.013 0.005-0.003 0.005-0.005 0.008-0.008 0.013-0.003 0-0.005 0-0.008 0-0.005 0.005-0.008 0.012-0.013 0.017-0.005 0.002-0.008 0.003-0.013 0.005-0.002 0.003-0.003 0.005-0.005 0.008-0.003 0-0.005 0-0.008 0-0.002 0.003-0.003 0.005-0.005 0.008-0.003 0-0.005 0-0.008 0-0.003 0.005-0.005 0.008-0.008 0.013-0.003 0-0.005 0-0.008 0-0.002 0.003-0.003 0.005-0.005 0.008-0.005 0.002-0.008 0.003-0.013 0.005 0 0.002 0 0.003 0 0.005-0.003 0-0.005 0-0.008 0-0.002 0.003-0.003 0.005-0.005 0.008-0.003 0-0.005 0-0.008 0-0.002 0.003-0.003 0.005-0.005 0.008-0.003 0-0.005 0-0.008 0-0.002 0.003-0.003 0.005-0.005 0.008-0.003 0-0.005 0-0.008 0-0.002 0.003-0.003 0.005-0.005 0.008-0.003 0-0.005 0-0.008 0-0.002 0.003-0.003 0.005-0.005 0.008-0.003 0-0.005 0-0.008 0-0.002 0.003-0.003 0.005-0.005 0.008-0.003 0-0.005 0-0.008 0-0.002 0.003-0.003 0.005-0.005 0.008-0.005 0.002-0.011 0.003-0.017 0.005-0.002 0.003-0.003 0.005-0.005 0.008-0.005 0.002-0.011 0.003-0.017 0.005-0.002 0.003-0.003 0.005-0.005 0.008-0.003 0-0.005 0-0.008 0l-0.008 0.008c-0.003 0-0.005 0-0.008 0 0 0.002 0 0.003 0 0.005-0.003 0-0.005 0-0.008 0 0 0.002 0 0.003 0 0.005-0.003 0-0.005 0-0.008 0-0.002 0.003-0.003 0.005-0.005 0.008-0.003 0-0.005 0-0.008 0 0 0.002 0 0.003 0 0.005-0.003 0-0.005 0-0.008 0 0 0.002 0 0.003 0 0.005-0.005 0-0.008 0-0.013 0 0 0.002 0 0.003 0 0.005-0.003 0-0.005 0-0.008 0 0 0.002 0 0.003 0 0.005-0.003 0-0.005 0-0.008 0 0 0.002 0 0.003 0 0.005-0.009 0.003-0.017 0.005-0.026 0.008 0 0.002 0 0.003 0 0.005-0.005 0-0.008 0-0.013 0 0 0.002 0 0.003 0 0.005-0.003 0-0.005 0-0.008 0 0 0.002 0 0.003 0 0.005-0.005 0-0.008 0-0.013 0 0 0.002 0 0.003 0 0.005-0.003 0-0.005 0-0.008 0 0 0.002 0 0.003 0 0.005-0.007 0.002-0.014 0.003-0.021 0.005 0 0.002 0 0.003 0 0.005-0.012 0.003-0.025 0.005-0.038 0.008 0 0.002 0 0.003 0 0.005-0.003 0-0.005 0-0.008 0 0 0.002 0 0.003 0 0.005-0.005 0-0.011 0-0.017 0 0 0.002 0 0.003 0 0.005-0.003 0-0.005 0-0.008 0 0 0.002 0 0.003 0 0.005-0.005 0-0.011 0-0.017 0 0 0.002 0 0.003 0 0.005-0.005 0-0.008 0-0.013 0 0 0.002 0 0.003 0 0.005-0.010 0.002-0.020 0.003-0.029 0.005 0 0.002 0 0.003 0 0.005-0.011 0.002-0.023 0.003-0.034 0.005 0 0.002 0 0.003 0 0.005-0.011 0.002-0.023 0.003-0.034 0.005 0 0.002 0 0.003 0 0.005-0.007 0-0.014 0-0.021 0 0 0.002 0 0.003 0 0.005-0.007 0-0.014 0-0.021 0 0 0.002 0 0.003 0 0.005-0.005 0-0.011 0-0.017 0 0 0.002 0 0.003 0 0.005-0.009 0-0.017 0-0.026 0 0 0.002 0 0.003 0 0.005-0.009 0-0.017 0-0.026 0 0 0.002 0 0.003 0 0.005-0.009 0-0.017 0-0.026 0 0 0.002 0 0.003 0 0.005-0.010 0-0.020 0-0.029 0 0 0.002 0 0.003 0 0.005-0.011 0-0.023 0-0.034 0 0 0.002 0 0.003 0 0.005-0.012 0-0.025 0-0.038 0 0 0.002 0 0.003 0 0.005-0.016 0-0.032 0-0.047 0 0 0.002 0 0.003 0 0.005-0.023 0-0.045 0-0.068 0-0.020 0.006-0.054 0.005-0.080 0.005-0.045 0-0.106 0.006-0.143-0.005-0.018 0-0.037 0-0.055 0 0-0.002 0-0.003 0-0.005-0.016 0-0.032 0-0.047 0 0-0.002 0-0.003 0-0.005-0.011 0-0.023 0-0.034 0 0-0.002 0-0.003 0-0.005-0.029-0.003-0.059-0.005-0.088-0.008-0.025-0.008-0.060-0.014-0.084-0.022-0.007 0-0.014 0-0.021 0 0-0.002 0-0.003 0-0.005-0.017-0.003-0.034-0.005-0.050-0.008 0-0.002 0-0.003 0-0.005-0.011-0.002-0.023-0.003-0.034-0.005 0-0.002 0-0.003 0-0.005-0.010-0.002-0.020-0.003-0.029-0.005 0-0.002 0-0.003 0-0.005-0.005 0-0.008 0-0.013 0 0-0.002 0-0.003 0-0.005-0.005 0-0.008 0-0.013 0 0-0.002 0-0.003 0-0.005-0.005 0-0.011 0-0.017 0 0-0.002 0-0.003 0-0.005-0.005 0-0.008 0-0.013 0 0-0.002 0-0.003 0-0.005-0.005 0-0.008 0-0.013 0 0-0.002 0-0.003 0-0.005-0.005 0-0.008 0-0.013 0 0-0.002 0-0.003 0-0.005-0.009-0.002-0.017-0.003-0.026-0.005 0-0.002 0-0.003 0-0.005-0.003 0-0.005 0-0.008 0 0-0.002 0-0.003 0-0.005-0.009-0.002-0.017-0.003-0.026-0.005 0-0.002 0-0.003 0-0.005-0.003 0-0.005 0-0.008 0 0-0.002 0-0.003 0-0.005-0.005 0-0.008 0-0.013 0 0-0.002 0-0.003 0-0.005-0.003 0-0.005 0-0.008 0 0-0.002 0-0.003 0-0.005-0.005 0-0.008 0-0.013 0 0-0.002 0-0.003 0-0.005-0.005-0.002-0.011-0.003-0.017-0.005 0-0.002 0-0.003 0-0.005-0.005 0-0.008 0-0.013 0 0-0.002 0-0.003 0-0.005-0.005-0.002-0.011-0.003-0.017-0.005 0-0.002 0-0.003 0-0.005-0.005 0-0.008 0-0.013 0 0-0.002 0-0.003 0-0.005-0.009-0.003-0.017-0.005-0.026-0.008 0-0.002 0-0.003 0-0.005-0.003 0-0.005 0-0.008 0 0-0.002 0-0.003 0-0.005-0.003 0-0.005 0-0.008 0 0-0.002 0-0.003 0-0.005-0.003 0-0.005 0-0.008 0 0-0.002 0-0.003 0-0.005-0.003 0-0.005 0-0.008 0l-0.008-0.008c-0.003 0-0.005 0-0.008 0-0.002-0.003-0.003-0.005-0.005-0.008-0.003 0-0.005 0-0.008 0l-0.008-0.008c-0.003 0-0.005 0-0.008 0 0-0.002 0-0.003 0-0.005-0.003 0-0.005 0-0.008 0-0.002-0.003-0.003-0.005-0.005-0.008-0.003 0-0.005 0-0.008 0 0-0.002 0-0.003 0-0.005-0.003 0-0.005 0-0.008 0-0.002-0.003-0.003-0.005-0.005-0.008-0.005-0.002-0.008-0.003-0.013-0.005 0-0.002 0-0.003 0-0.005-0.005-0.002-0.011-0.003-0.017-0.005 0-0.002 0-0.003 0-0.005-0.005-0.002-0.008-0.003-0.013-0.005-0.002-0.003-0.003-0.005-0.005-0.008-0.003 0-0.005 0-0.008 0-0.002-0.003-0.003-0.005-0.005-0.008-0.003 0-0.005 0-0.008 0-0.003-0.005-0.005-0.008-0.008-0.013-0.003 0-0.005 0-0.008 0-0.002-0.003-0.003-0.005-0.005-0.008-0.003 0-0.005 0-0.008 0-0.003-0.005-0.005-0.008-0.008-0.013-0.003 0-0.005 0-0.008 0-0.003-0.005-0.005-0.008-0.008-0.013-0.003 0-0.005 0-0.008 0-0.003-0.005-0.005-0.008-0.008-0.013-0.003 0-0.005 0-0.008 0-0.003-0.005-0.005-0.008-0.008-0.013-0.003 0-0.005 0-0.008 0-0.005-0.007-0.011-0.015-0.017-0.022-0.003 0-0.005 0-0.008 0-0.005-0.007-0.011-0.015-0.017-0.022-0.003 0-0.005 0-0.008 0-0.012-0.015-0.025-0.028-0.038-0.043-0.003 0-0.005 0-0.008 0-0.011-0.012-0.023-0.025-0.034-0.038-0.007-0.005-0.014-0.012-0.021-0.017 0-0.003 0-0.005 0-0.008-0.012-0.012-0.025-0.023-0.038-0.035 0-0.003 0-0.005 0-0.008-0.003-0.002-0.005-0.003-0.008-0.005 0-0.002 0-0.003 0-0.005-0.005-0.003-0.008-0.005-0.013-0.008 0-0.003 0-0.005 0-0.008-0.010-0.007-0.020-0.015-0.029-0.022-0.003 0-0.005 0-0.008 0-0.002-0.003-0.003-0.005-0.005-0.008-0.003 0-0.005 0-0.008 0 0-0.002 0-0.003 0-0.005-0.003 0-0.005 0-0.008 0-0.002-0.003-0.003-0.005-0.005-0.008-0.005-0.002-0.011-0.003-0.017-0.005 0-0.002 0-0.003 0-0.005-0.005-0.002-0.008-0.003-0.013-0.005-0.002-0.003-0.003-0.005-0.005-0.008-0.003 0-0.005 0-0.008 0-0.002-0.003-0.003-0.005-0.005-0.008-0.003 0-0.005 0-0.008 0-0.002-0.003-0.003-0.005-0.005-0.008-0.003 0-0.005 0-0.008 0-0.003-0.005-0.005-0.008-0.008-0.013-0.025-0.018-0.052-0.033-0.068-0.060-0.145 0.003-0.29 0.005-0.434 0.008 0 0.005 0 0.008 0 0.013-0.005 0.003-0.005 0.003-0.008 0.008-0.028 0.005-0.057 0.008-0.084 0.013-0.023 0-0.045 0-0.068 0 0 0.002 0 0.003 0 0.005-0.025 0.008-0.066-0.002-0.088 0.005-0.035 0-0.070 0-0.106 0 0 0.002 0 0.003 0 0.005-0.042 0-0.084 0-0.127 0-0.032 0.009-0.083 0.005-0.122 0.005-0.012 0-0.025 0-0.038 0-0.016 0.005-0.097 0.010-0.118 0.005 0-0.002 0-0.003 0-0.005-0.011 0.002-0.023 0.003-0.034 0.005-0.011-0.001-0.020-0.008-0.034-0.005 0 0-0.004 0.007-0.013 0.005 0-0.002 0-0.003 0-0.005-0.009 0-0.017 0-0.026 0 0 0.002 0 0.003 0 0.005-0.005 0-0.011 0-0.017 0 0-0.002 0-0.003 0-0.005-0.012 0.002-0.025 0.003-0.038 0.005-0.020-0.005-0.061 0-0.093 0-0.166 0-0.332 0-0.498 0-0.022 0.007-0.060 0.005-0.088 0.005-0.413 0.002-0.827 0.003-1.24 0.005-0.184-0.002-0.369-0.003-0.553-0.005-0.031 0.009-0.081 0.005-0.118 0.005-0.231 0-0.461 0-0.692 0-0.029 0.008-0.078 0.005-0.114 0.005-0.087 0-0.174 0-0.262 0-0.042 0-0.1-0.005-0.135 0.005-0.034 0-0.067 0-0.101 0-0.074 0-0.149 0-0.223 0-0.036 0-0.084-0.004-0.114 0.005-0.101 0-0.203 0-0.304 0-0.149 0.002-0.298 0.003-0.447 0.005 0-0.002 0-0.003 0-0.005-0.005-0.002-0.011-0.003-0.017-0.005 0-0.002 0-0.003 0-0.005-0.017 0-0.034 0-0.050 0-0.036 0-0.072 0-0.109 0 0 0.002 0 0.003 0 0.005-0.005 0-0.011 0-0.017 0-0.041 0.002-0.094-0.005-0.127 0.005-0.026 0-0.050 0-0.076 0-0.043 0.003-0.087 0.005-0.13 0.008 0 0.002 0 0.003 0 0.005-0.103 0-0.205 0-0.308 0-0.033 0-0.057-0.002-0.080-0.008-0.009 0-0.017 0-0.026 0 0-0.002 0-0.003 0-0.005-0.277 0-0.554 0-0.831 0-0.106 0-0.213 0-0.32 0 0 0.002 0 0.003 0 0.005-0.005 0.005-0.011 0.008-0.017 0.013-0.002 0.038-0.005 0.088-0.017 0.116-0.023 0.010-0.055 0.014-0.080 0.022-0.009 0-0.017 0-0.026 0-0.026 0.008-0.054 0.014-0.088 0.013-0.009-0.007-0.017-0.015-0.026-0.022 0.003-0.058 0.005-0.115 0.008-0.172-0.083 0-0.166 0-0.249 0-0.002 0.003-0.003 0.005-0.005 0.008-0.003 0-0.005 0-0.008 0-0.003 0.005-0.005 0.008-0.008 0.013-0.003 0-0.005 0-0.008 0-0.003 0.005-0.005 0.008-0.008 0.013-0.005 0.002-0.008 0.003-0.013 0.005-0.002 0.003-0.003 0.005-0.005 0.008-0.003 0-0.005 0-0.008 0-0.002 0.003-0.003 0.005-0.005 0.008-0.003 0-0.005 0-0.008 0-0.003 0.005-0.005 0.008-0.008 0.013-0.003 0-0.005 0-0.008 0-0.002 0.003-0.003 0.005-0.005 0.008-0.005 0.002-0.008 0.003-0.013 0.005 0 0.002 0 0.003 0 0.005-0.003 0-0.005 0-0.008 0-0.002 0.003-0.003 0.005-0.005 0.008-0.003 0-0.005 0-0.008 0-0.002 0.003-0.003 0.005-0.005 0.008-0.003 0-0.005 0-0.008 0-0.002 0.003-0.003 0.005-0.005 0.008-0.003 0-0.005 0-0.008 0-0.002 0.003-0.003 0.005-0.005 0.008-0.009 0.003-0.017 0.005-0.026 0.008-0.002 0.003-0.003 0.005-0.005 0.008-0.009 0.003-0.017 0.005-0.026 0.008-0.010 0.012-0.020 0.023-0.029 0.035-0.026 0.026-0.050 0.052-0.080 0.073-0.012 0.015-0.025 0.028-0.038 0.043-0.003 0-0.005 0-0.008 0-0.007 0.009-0.014 0.018-0.021 0.026-0.003 0-0.005 0-0.008 0-0.005 0.007-0.011 0.015-0.017 0.022-0.003 0-0.005 0-0.008 0-0.005 0.005-0.008 0.012-0.013 0.017-0.003 0-0.005 0-0.008 0-0.003 0.005-0.005 0.008-0.008 0.013-0.003 0-0.005 0-0.008 0-0.003 0.005-0.005 0.008-0.008 0.013-0.003 0-0.005 0-0.008 0-0.003 0.005-0.005 0.008-0.008 0.013-0.003 0-0.005 0-0.008 0-0.002 0.003-0.003 0.005-0.005 0.008-0.003 0-0.005 0-0.008 0-0.003 0.005-0.005 0.008-0.008 0.013-0.003 0-0.005 0-0.008 0-0.002 0.003-0.003 0.005-0.005 0.008-0.005 0.002-0.008 0.003-0.013 0.005 0 0.002 0 0.003 0 0.005-0.005 0.002-0.011 0.003-0.017 0.005-0.002 0.003-0.003 0.005-0.005 0.008-0.003 0-0.005 0-0.008 0-0.002 0.003-0.003 0.005-0.005 0.008-0.003 0-0.005 0-0.008 0-0.002 0.003-0.003 0.005-0.005 0.008-0.003 0-0.005 0-0.008 0 0 0.002 0 0.003 0 0.005-0.003 0-0.005 0-0.008 0-0.002 0.003-0.003 0.005-0.005 0.008-0.003 0-0.005 0-0.008 0l-0.008 0.008c-0.003 0-0.005 0-0.008 0 0 0.002 0 0.003 0 0.005-0.003 0-0.005 0-0.008 0-0.002 0.003-0.003 0.005-0.005 0.008-0.003 0-0.005 0-0.008 0l-0.008 0.008c-0.003 0-0.005 0-0.008 0 0 0.002 0 0.003 0 0.005-0.003 0-0.005 0-0.008 0 0 0.002 0 0.003 0 0.005-0.003 0-0.005 0-0.008 0 0 0.002 0 0.003 0 0.005-0.003 0-0.005 0-0.008 0 0 0.002 0 0.003 0 0.005-0.009 0.003-0.017 0.005-0.026 0.008 0 0.002 0 0.003 0 0.005-0.005 0-0.008 0-0.013 0 0 0.002 0 0.003 0 0.005-0.003 0-0.005 0-0.008 0 0 0.002 0 0.003 0 0.005-0.009 0.003-0.017 0.005-0.026 0.008 0 0.002 0 0.003 0 0.005-0.005 0-0.008 0-0.013 0 0 0.002 0 0.003 0 0.005-0.003 0-0.005 0-0.008 0 0 0.002 0 0.003 0 0.005-0.005 0-0.008 0-0.013 0 0 0.002 0 0.003 0 0.005-0.005 0.002-0.011 0.003-0.017 0.005 0 0.002 0 0.003 0 0.005-0.009 0.002-0.017 0.003-0.026 0.005 0 0.002 0 0.003 0 0.005-0.003 0-0.005 0-0.008 0 0 0.002 0 0.003 0 0.005-0.009 0.002-0.017 0.003-0.026 0.005 0 0.002 0 0.003 0 0.005-0.003 0-0.005 0-0.008 0 0 0.002 0 0.003 0 0.005-0.009 0.002-0.017 0.003-0.026 0.005 0 0.002 0 0.003 0 0.005-0.005 0-0.008 0-0.013 0 0 0.002 0 0.003 0 0.005-0.005 0-0.008 0-0.013 0 0 0.002 0 0.003 0 0.005-0.014 0.003-0.028 0.005-0.042 0.008 0 0.002 0 0.003 0 0.005-0.011 0.002-0.023 0.003-0.034 0.005 0 0.002 0 0.003 0 0.005-0.005 0-0.011 0-0.017 0 0 0.002 0 0.003 0 0.005-0.005 0-0.011 0-0.017 0 0 0.002 0 0.003 0 0.005-0.005 0-0.011 0-0.017 0 0 0.002 0 0.003 0 0.005-0.007 0-0.014 0-0.021 0 0 0.002 0 0.003 0 0.005-0.014 0.002-0.028 0.003-0.042 0.005 0 0.002 0 0.003 0 0.005-0.009 0-0.017 0-0.026 0-0.035 0.011-0.083 0.011-0.118 0.022-0.012 0-0.025 0-0.038 0 0 0.002 0 0.003 0 0.005-0.021 0-0.042 0-0.063 0-0.016 0.005-0.106 0.011-0.127 0.005 0-0.002 0-0.003 0-0.005-0.027-0.008-0.071 0.003-0.097-0.005-0.020 0-0.039 0-0.059 0 0-0.002 0-0.003 0-0.005-0.017 0-0.034 0-0.050 0-0.044-0.013-0.105-0.009-0.148-0.022-0.020-0.002-0.039-0.003-0.059-0.005 0-0.002 0-0.003 0-0.005-0.024-0.003-0.047-0.005-0.072-0.008 0-0.002 0-0.003 0-0.005-0.007 0-0.014 0-0.021 0 0-0.002 0-0.003 0-0.005-0.007 0-0.014 0-0.021 0 0-0.002 0-0.003 0-0.005-0.005 0-0.011 0-0.017 0 0-0.002 0-0.003 0-0.005-0.005 0-0.011 0-0.017 0 0-0.002 0-0.003 0-0.005-0.012-0.002-0.025-0.003-0.038-0.005 0-0.002 0-0.003 0-0.005-0.005 0-0.008 0-0.013 0 0-0.002 0-0.003 0-0.005-0.011-0.002-0.023-0.003-0.034-0.005-0.098-0.035-0.193-0.077-0.274-0.129-0.009-0.003-0.017-0.005-0.026-0.008-0.002-0.003-0.003-0.005-0.005-0.008-0.005-0.002-0.011-0.003-0.017-0.005-0.002-0.003-0.003-0.005-0.005-0.008-0.003 0-0.005 0-0.008 0 0-0.002 0-0.003 0-0.005-0.003 0-0.005 0-0.008 0-0.002-0.003-0.003-0.005-0.005-0.008-0.003 0-0.005 0-0.008 0-0.002-0.003-0.003-0.005-0.005-0.008-0.003 0-0.005 0-0.008 0-0.002-0.003-0.003-0.005-0.005-0.008-0.005-0.002-0.011-0.003-0.017-0.005-0.003-0.005-0.005-0.008-0.008-0.013-0.003 0-0.005 0-0.008 0-0.002-0.003-0.003-0.005-0.005-0.008-0.003 0-0.005 0-0.008 0-0.002-0.003-0.003-0.005-0.005-0.008-0.005-0.002-0.008-0.003-0.013-0.005-0.003-0.005-0.005-0.008-0.008-0.013-0.003 0-0.005 0-0.008 0-0.003-0.005-0.005-0.008-0.008-0.013-0.003 0-0.005 0-0.008 0-0.005-0.005-0.008-0.012-0.013-0.017-0.003 0-0.005 0-0.008 0-0.005-0.005-0.008-0.012-0.013-0.017-0.003 0-0.005 0-0.008 0-0.007-0.009-0.014-0.018-0.021-0.026-0.003 0-0.005 0-0.008 0-0.012-0.015-0.025-0.028-0.038-0.043-0.003 0-0.005 0-0.008 0-0.011-0.012-0.023-0.025-0.034-0.038-0.007-0.005-0.014-0.012-0.021-0.017 0-0.003 0-0.005 0-0.008-0.012-0.012-0.025-0.023-0.038-0.035 0-0.003 0-0.005 0-0.008-0.003-0.002-0.005-0.003-0.008-0.005 0-0.002 0-0.003 0-0.005-0.005-0.005-0.011-0.008-0.017-0.013 0-0.003 0-0.005 0-0.008-0.005-0.005-0.011-0.008-0.017-0.013 0-0.003 0-0.005 0-0.008-0.005-0.005-0.011-0.008-0.017-0.013 0-0.003 0-0.005 0-0.008-0.005-0.003-0.008-0.005-0.013-0.008 0-0.003 0-0.005 0-0.008-0.005-0.003-0.008-0.005-0.013-0.008 0-0.003 0-0.005 0-0.008-0.003-0.002-0.005-0.003-0.008-0.005-0.002-0.005-0.003-0.008-0.005-0.013-0.002 0-0.003 0-0.005 0 0-0.003 0-0.005 0-0.008-0.003-0.002-0.005-0.003-0.008-0.005 0-0.003 0-0.005 0-0.008-0.005-0.003-0.008-0.005-0.013-0.008-0.002-0.005-0.003-0.012-0.005-0.017-0.003-0.002-0.005-0.003-0.008-0.005-0.002-0.005-0.003-0.008-0.005-0.013-0.002 0-0.003 0-0.005 0-0.002-0.005-0.003-0.012-0.005-0.017-0.003-0.002-0.005-0.003-0.008-0.005-0.002-0.005-0.003-0.012-0.005-0.017-0.003-0.002-0.005-0.003-0.008-0.005 0-0.003 0-0.005 0-0.008-0.007-0.012-0.017-0.024-0.021-0.038-0.042-0.002-0.084-0.003-0.127-0.005 0-0.002 0-0.003 0-0.005-0.005 0-0.011 0-0.017 0 0-0.002 0-0.003 0-0.005-0.005 0-0.008 0-0.013 0 0-0.002 0-0.003 0-0.005-0.005 0-0.008 0-0.013 0 0-0.002 0-0.003 0-0.005-0.005 0-0.008 0-0.013 0 0-0.002 0-0.003 0-0.005-0.003 0-0.005 0-0.008 0 0-0.002 0-0.003 0-0.005-0.003 0-0.005 0-0.008 0 0-0.002 0-0.003 0-0.005-0.014-0.005-0.062 0.010-0.072 0.013-0.009 0-0.017 0-0.026 0-0.015 0.005-0.106 0.016-0.118 0.005-0.026-0.003-0.016-0.011-0.026-0.026-0.002-0.002-0.005-0.003-0.008-0.008-0.027 0-0.063-0.002-0.084-0.008-0.017 0-0.034 0-0.051 0-0.002 0-0.003 0-0.005 0 0-0.002 0-0.003 0-0.005-0.016 0-0.031 0-0.047 0 0-0.002 0-0.003 0-0.005-0.031-0.002-0.062-0.003-0.093-0.005 0-0.002 0-0.003 0-0.005-0.011 0-0.023 0-0.034 0-0.039-0.012-0.088-0.015-0.127-0.026-0.042-0.002-0.084-0.003-0.127-0.005-0.005 0.002-0.011 0.003-0.017 0.005 0-0.002 0-0.003 0-0.005-0.011 0-0.023 0-0.034 0 0-0.002 0-0.003 0-0.005-0.007 0-0.014 0-0.021 0 0-0.002 0-0.003 0-0.005-0.005 0-0.011 0-0.017 0 0-0.002 0-0.003 0-0.005-0.026 0-0.054 0-0.080 0 0-0.002 0-0.003 0-0.005-0.016 0-0.031 0-0.047 0-0.035-0.002-0.070-0.003-0.106-0.005 0-0.002 0-0.003 0-0.005-0.023-0.007-0.060 0.002-0.080-0.005-0.023-0.007-0.060 0.002-0.080-0.005-0.026 0-0.051 0-0.076 0 0-0.002 0-0.003 0-0.005-0.033-0.002-0.067-0.003-0.101-0.005-0.003 0.005-0.005 0.008-0.008 0.013-0.007 0.002-0.014 0.003-0.021 0.005 0 0.002 0 0.003 0 0.005-0.020 0-0.039 0-0.059 0 0 0.002 0 0.003 0 0.005-0.009 0.003-0.017 0.005-0.026 0.008 0 0.002 0 0.003 0 0.005-0.029 0-0.059 0-0.088 0-0.023 0.002-0.073 0.012-0.101 0.005 0-0.002 0-0.003 0-0.005-0.011 0-0.023 0-0.034 0 0-0.002 0-0.003 0-0.005-0.007 0-0.014 0-0.021 0 0-0.002 0-0.003 0-0.005-0.009 0-0.017 0-0.026 0-0.052-0.017-0.103-0.040-0.143-0.069-0.014-0.016-0.028-0.032-0.042-0.048-0.003 0-0.005 0-0.008 0-0.002-0.003-0.003-0.005-0.005-0.008-0.003 0-0.005 0-0.008 0 0-0.002 0-0.003 0-0.005-0.003 0-0.005 0-0.008 0 0-0.002 0-0.003 0-0.005-0.005 0-0.008 0-0.013 0 0-0.002 0-0.003 0-0.005-0.010-0.002-0.020-0.003-0.029-0.005 0-0.002 0-0.003 0-0.005-0.010-0.002-0.020-0.003-0.029-0.005 0-0.002 0-0.003 0-0.005-0.005 0-0.008 0-0.013 0 0-0.002 0-0.003 0-0.005-0.005 0-0.008 0-0.013 0 0-0.002 0-0.003 0-0.005-0.003 0-0.005 0-0.008 0 0-0.002 0-0.003 0-0.005-0.012-0.005-0.025-0.008-0.038-0.013 0-0.002 0-0.003 0-0.005-0.009-0.003-0.017-0.005-0.026-0.008 0-0.002 0-0.003 0-0.005-0.038-0.005-0.076-0.008-0.114-0.013 0-0.002 0-0.003 0-0.005-0.010 0-0.020 0-0.029 0 0-0.002 0-0.003 0-0.005-0.010 0-0.020 0-0.029 0 0-0.002 0-0.003 0-0.005-0.009 0-0.017 0-0.026 0 0-0.002 0-0.003 0-0.005-0.012-0.002-0.025-0.003-0.038-0.005 0-0.002 0-0.003 0-0.005-0.007 0-0.014 0-0.021 0 0-0.002 0-0.003 0-0.005-0.005 0-0.008 0-0.013 0 0-0.002 0-0.003 0-0.005-0.010 0-0.020 0-0.029 0 0-0.002 0-0.003 0-0.005-0.016 0-0.031 0-0.047 0 0-0.002 0-0.003 0-0.005-0.016 0-0.031 0-0.047 0 0-0.002 0-0.003 0-0.005-0.030-0.002-0.060-0.003-0.089-0.005 0-0.002 0-0.003 0-0.005-0.010 0-0.020 0-0.029 0 0-0.002 0-0.003 0-0.005-0.010 0-0.020 0-0.029 0 0-0.002 0-0.003 0-0.005-0.005 0-0.011 0-0.017 0 0-0.002 0-0.003 0-0.005-0.005 0-0.008 0-0.013 0 0-0.002 0-0.003 0-0.005-0.014-0.003-0.028-0.005-0.042-0.008 0-0.002 0-0.003 0-0.005-0.005-0.002-0.011-0.003-0.017-0.005 0-0.002 0-0.003 0-0.005-0.007-0.002-0.014-0.003-0.021-0.005-0.002-0.003-0.003-0.005-0.005-0.008-0.003 0-0.005 0-0.008 0-0.005-0.005-0.008-0.012-0.013-0.017-0.009-0.007-0.017-0.015-0.026-0.022 0-0.003 0-0.005 0-0.008-0.003-0.002-0.005-0.003-0.008-0.005 0-0.003 0-0.005 0-0.008-0.002 0-0.003 0-0.005 0-0.002-0.005-0.003-0.012-0.005-0.017-0.002 0-0.003 0-0.005 0-0.003-0.012-0.005-0.025-0.008-0.038-0.002 0-0.003 0-0.005 0 0-0.003 0-0.005 0-0.008-0.002 0-0.003 0-0.005 0-0.002-0.009-0.003-0.018-0.005-0.026-0.002 0-0.003 0-0.005 0 0-0.005 0-0.008 0-0.013-0.002 0-0.003 0-0.005 0 0-0.005 0-0.008 0-0.013-0.002 0-0.003 0-0.005 0 0-0.005 0-0.008 0-0.013-0.002 0-0.003 0-0.005 0 0-0.005 0-0.008 0-0.013-0.002 0-0.003 0-0.005 0 0-0.005 0-0.008 0-0.013-0.002 0-0.003 0-0.005 0-0.007-0.026-0.014-0.052-0.021-0.078 0.002-0.014 0.005-0.028 0.013-0.035 0.003 0 0.005 0 0.008 0 0.003-0.005 0.005-0.008 0.008-0.013 0.003 0 0.005 0 0.008 0 0.003-0.002 0.003-0.005 0.008-0.008-0.005-0.049-0.011-0.098-0.017-0.146 0.002 0 0.003 0 0.005 0 0-0.003 0-0.005 0-0.008 0.002 0 0.003 0 0.005 0 0-0.003 0-0.005 0-0.008 0.002 0 0.003 0 0.005 0 0-0.005 0-0.008 0-0.013 0.002 0 0.003 0 0.005 0 0-0.009 0-0.018 0-0.026 0.002 0 0.003 0 0.005 0 0-0.003 0-0.005 0-0.008 0.011-0.009 0.023-0.018 0.034-0.026 0-0.005 0-0.012 0-0.017-0.002 0-0.003 0-0.005 0-0.005-0.016 0.003-0.048 0.008-0.056 0.003-0.002 0.005-0.003 0.008-0.005 0-0.003 0-0.005 0-0.008 0.003-0.002 0.005-0.003 0.008-0.005 0-0.003 0-0.005 0-0.008 0.005-0.005 0.011-0.008 0.017-0.013 0-0.003 0-0.005 0-0.008 0.005-0.005 0.011-0.008 0.017-0.013 0-0.003 0-0.005 0-0.008 0.005-0.003 0.008-0.005 0.013-0.008 0.002-0.005 0.003-0.008 0.005-0.013 0.003-0.002 0.005-0.003 0.008-0.005 0-0.003 0-0.005 0-0.008 0.003-0.002 0.005-0.003 0.008-0.005 0-0.003 0-0.005 0-0.008 0.003-0.002 0.005-0.003 0.008-0.005 0.007-0.012 0.024-0.054 0.017-0.078-0.011-0.034-0.029-0.064-0.042-0.095 0-0.005 0-0.008 0-0.013-0.002 0-0.003 0-0.005 0 0-0.005 0-0.012 0-0.017-0.002 0-0.003 0-0.005 0 0-0.007 0-0.015 0-0.022-0.002 0-0.003 0-0.005 0 0-0.005 0-0.012 0-0.017-0.002 0-0.003 0-0.005 0-0.016-0.096-0.031-0.192-0.047-0.289 0-0.010 0-0.020 0-0.030-0.011-0.039-0.010-0.093-0.021-0.133 0-0.016 0-0.032 0-0.048-0.002 0-0.003 0-0.005 0 0-0.020 0-0.040 0-0.060-0.009-0.031-0.008-0.158 0-0.189 0-0.022 0-0.043 0-0.065 0.002 0 0.003 0 0.005 0 0.003-0.027 0.005-0.055 0.008-0.082 0.010-0.023 0.020-0.046 0.029-0.069 0.003-0.002 0.005-0.003 0.008-0.005 0.002-0.005 0.003-0.012 0.005-0.017 0.003-0.002 0.005-0.003 0.008-0.005 0.002-0.005 0.003-0.008 0.005-0.013 0.002 0 0.003 0 0.005 0 0.002-0.005 0.003-0.012 0.005-0.017 0.005-0.003 0.008-0.005 0.013-0.008 0-0.003 0-0.005 0-0.008 0.003-0.002 0.005-0.003 0.008-0.005 0.002-0.005 0.003-0.008 0.005-0.013 0.002 0 0.003 0 0.005 0 0-0.003 0-0.005 0-0.008 0.005-0.003 0.008-0.005 0.013-0.008 0-0.003 0-0.005 0-0.008 0.005-0.005 0.011-0.008 0.017-0.013 0.002-0.005 0.003-0.008 0.005-0.013 0.003-0.002 0.005-0.003 0.008-0.005 0-0.003 0-0.005 0-0.008 0.007-0.005 0.014-0.012 0.021-0.017 0-0.003 0-0.005 0-0.008 0.009-0.007 0.017-0.015 0.026-0.022 0-0.003 0-0.005 0-0.008 0.003-0.002 0.005-0.003 0.008-0.005 0.005-0.005 0.008-0.012 0.013-0.017 0.005-0.003 0.008-0.005 0.013-0.008 0-0.003 0-0.005 0-0.008 0.003-0.002 0.005-0.003 0.008-0.005 0-0.005 0-0.008 0-0.013 0.005-0.003 0.008-0.005 0.013-0.008 0.002-0.005 0.003-0.012 0.005-0.017 0.005-0.002 0.008-0.003 0.013-0.005 0.002-0.003 0.003-0.005 0.005-0.008 0.003 0 0.005 0 0.008 0 0-0.002 0-0.003 0-0.005 0.003-0.002 0.005-0.003 0.008-0.005 0-0.005 0-0.008 0-0.013 0.003-0.002 0.005-0.003 0.008-0.005 0-0.002 0-0.003 0-0.005 0.003 0 0.005 0 0.008 0 0.003-0.005 0.005-0.008 0.008-0.013 0.003 0 0.005 0 0.008 0 0.017-0.018 0.034-0.038 0.051-0.056 0.007-0.005 0.014-0.012 0.021-0.017-0.006-0.023 0-0.010 0.005-0.030 0.003 0 0.005 0 0.008 0 0.003-0.014 0.011-0.015 0.017-0.026 0.005 0 0.008 0 0.013 0 0.004-0.026 0.014-0.018 0.029-0.030 0.003-0.005 0.005-0.008 0.008-0.013 0.009-0.002 0.017-0.003 0.026-0.005 0.017-0.018 0.034-0.038 0.051-0.056 0.003 0 0.005 0 0.008 0 0.026-0.027 0.051-0.055 0.076-0.082 0.002 0 0.003 0 0.005 0 0 0-0.008-0.027-0.008-0.038 0.008-0.008 0.010-0.016 0.017-0.026 0.005-0.005 0.011-0.008 0.017-0.013 0-0.003 0-0.005 0-0.008 0.009-0.007 0.017-0.015 0.026-0.022 0.003-0.005 0.005-0.008 0.008-0.013 0.038-0.009 0.076-0.018 0.114-0.026 0.082-0.030 0.176-0.052 0.253-0.086 0.009-0.002 0.017-0.003 0.026-0.005 0-0.002 0-0.003 0-0.005 0.003 0 0.005 0 0.008 0 0-0.002 0-0.003 0-0.005 0.005 0 0.008 0 0.013 0 0-0.002 0-0.003 0-0.005 0.005-0.002 0.011-0.003 0.017-0.005 0-0.002 0-0.003 0-0.005 0.005 0 0.008 0 0.013 0 0-0.002 0-0.003 0-0.005 0.009-0.003 0.017-0.005 0.026-0.008 0-0.002 0-0.003 0-0.005 0.003 0 0.005 0 0.008 0 0-0.002 0-0.003 0-0.005 0.003 0 0.005 0 0.008 0 0-0.002 0-0.003 0-0.005 0.003 0 0.005 0 0.008 0 0-0.002 0-0.003 0-0.005 0.003 0 0.005 0 0.008 0 0-0.002 0-0.003 0-0.005 0.003 0 0.005 0 0.008 0 0-0.002 0-0.003 0-0.005 0.003 0 0.005 0 0.008 0 0-0.002 0-0.003 0-0.005 0.003 0 0.005 0 0.008 0 0-0.002 0-0.003 0-0.005 0.003 0 0.005 0 0.008 0 0-0.002 0-0.003 0-0.005 0.003 0 0.005 0 0.008 0 0-0.002 0-0.003 0-0.005 0.005-0.002 0.011-0.003 0.017-0.005 0-0.002 0-0.003 0-0.005 0.005-0.002 0.011-0.003 0.017-0.005 0-0.002 0-0.003 0-0.005 0.005-0.002 0.011-0.003 0.017-0.005 0-0.002 0-0.003 0-0.005 0.007-0.002 0.014-0.003 0.021-0.005 0-0.002 0-0.003 0-0.005 0.009-0.003 0.017-0.005 0.026-0.008 0-0.002 0-0.003 0-0.005 0.003 0 0.005 0 0.008 0 0-0.002 0-0.003 0-0.005 0.003 0 0.005 0 0.008 0 0-0.002 0-0.003 0-0.005 0.003 0 0.005 0 0.008 0 0-0.002 0-0.003 0-0.005 0.003 0 0.005 0 0.008 0 0-0.002 0-0.003 0-0.005 0.003 0 0.005 0 0.008 0l0.008-0.008c0.003 0 0.005 0 0.008 0 0.002-0.003 0.003-0.005 0.005-0.008 0.005-0.002 0.011-0.003 0.017-0.005 0-0.002 0-0.003 0-0.005 0.014-0.006 0.035-0.008 0.055-0.008 0.011 0 0.023 0 0.034 0 0.005-0.007 0.011-0.015 0.017-0.022 0.003 0 0.005 0 0.008 0 0.005-0.005 0.008-0.012 0.013-0.017 0.003 0 0.005 0 0.008 0 0.002-0.003 0.003-0.005 0.005-0.008 0.005-0.002 0.011-0.003 0.017-0.005 0-0.002 0-0.003 0-0.005 0.003 0 0.005 0 0.008 0 0-0.002 0-0.003 0-0.005 0.009-0.003 0.017-0.005 0.026-0.008 0-0.002 0-0.003 0-0.005 0.005 0 0.008 0 0.013 0 0-0.002 0-0.003 0-0.005 0.005-0.002 0.011-0.003 0.017-0.005 0-0.002 0-0.003 0-0.005 0.003 0 0.005 0 0.008 0 0-0.002 0-0.003 0-0.005 0.005 0 0.008 0 0.013 0 0-0.002 0-0.003 0-0.005 0.005-0.002 0.011-0.003 0.017-0.005 0-0.002 0-0.003 0-0.005 0.005 0 0.008 0 0.013 0 0-0.002 0-0.003 0-0.005 0.005-0.002 0.011-0.003 0.017-0.005 0-0.002 0-0.003 0-0.005 0.005 0 0.008 0 0.013 0 0-0.002 0-0.003 0-0.005 0.003 0 0.005 0 0.008 0 0-0.002 0-0.003 0-0.005 0.005 0 0.008 0 0.013 0 0-0.002 0-0.003 0-0.005 0.005-0.002 0.011-0.003 0.017-0.005 0-0.002 0-0.003 0-0.005 0.005 0 0.008 0 0.013 0 0-0.002 0-0.003 0-0.005 0.003 0 0.005 0 0.008 0 0-0.002 0-0.003 0-0.005 0.007-0.002 0.014-0.003 0.021-0.005 0-0.002 0-0.003 0-0.005 0.005 0 0.008 0 0.013 0 0-0.002 0-0.003 0-0.005 0.003 0 0.005 0 0.008 0 0-0.002 0-0.003 0-0.005 0.005 0 0.008 0 0.013 0 0-0.002 0-0.003 0-0.005 0.005-0.002 0.011-0.003 0.017-0.005 0-0.002 0-0.003 0-0.005 0.005 0 0.008 0 0.013 0 0-0.002 0-0.003 0-0.005 0.003 0 0.005 0 0.008 0 0-0.002 0-0.003 0-0.005 0.005 0 0.008 0 0.013 0 0-0.002 0-0.003 0-0.005 0.003 0 0.005 0 0.008 0 0-0.002 0-0.003 0-0.005 0.005 0 0.008 0 0.013 0 0-0.002 0-0.003 0-0.005 0.003 0 0.005 0 0.008 0 0-0.002 0-0.003 0-0.005 0.005 0 0.008 0 0.013 0 0-0.002 0-0.003 0-0.005 0.003 0 0.005 0 0.008 0 0-0.002 0-0.003 0-0.005 0.005 0 0.008 0 0.013 0 0-0.002 0-0.003 0-0.005 0.005 0 0.008 0 0.013 0 0-0.002 0-0.003 0-0.005 0.003 0 0.005 0 0.008 0 0-0.002 0-0.003 0-0.005 0.005 0 0.008 0 0.013 0 0-0.002 0-0.003 0-0.005 0.003 0 0.005 0 0.008 0 0-0.002 0-0.003 0-0.005 0.009-0.002 0.017-0.003 0.026-0.005 0-0.002 0-0.003 0-0.005 0.003 0 0.005 0 0.008 0 0-0.002 0-0.003 0-0.005 0.012-0.003 0.025-0.005 0.038-0.008 0-0.002 0-0.003 0-0.005 0.003 0 0.005 0 0.008 0 0-0.002 0-0.003 0-0.005 0.012-0.003 0.025-0.005 0.038-0.008 0-0.002 0-0.003 0-0.005 0.003 0 0.005 0 0.008 0 0-0.002 0-0.003 0-0.005 0.009-0.002 0.017-0.003 0.026-0.005 0-0.002 0-0.003 0-0.005 0.009-0.002 0.017-0.003 0.026-0.005 0-0.002 0-0.003 0-0.005 0.003 0 0.005 0 0.008 0 0-0.002 0-0.003 0-0.005 0.012-0.003 0.025-0.005 0.038-0.008 0.053-0.022 0.106-0.045 0.182-0.043 0-0.017 0-0.030 0.008-0.038 0.012-0.018 0.041-0.021 0.063-0.030 0-0.002 0-0.003 0-0.005 0.005 0 0.008 0 0.013 0 0-0.002 0-0.003 0-0.005 0.003 0 0.005 0 0.008 0 0-0.002 0-0.003 0-0.005 0.005 0 0.008 0 0.013 0 0-0.002 0-0.003 0-0.005 0.003 0 0.005 0 0.008 0 0-0.002 0-0.003 0-0.005 0.009-0.002 0.017-0.003 0.026-0.005 0-0.002 0-0.003 0-0.005 0.003 0 0.005 0 0.008 0 0-0.002 0-0.003 0-0.005 0.009-0.002 0.017-0.003 0.026-0.005 0-0.002 0-0.003 0-0.005 0.003 0 0.005 0 0.008 0 0-0.002 0-0.003 0-0.005 0.005 0 0.008 0 0.013 0 0-0.002 0-0.003 0-0.005 0.016-0.002 0.031-0.003 0.047-0.005 0-0.002 0-0.003 0-0.005 0.005 0 0.008 0 0.013 0 0-0.002 0-0.003 0-0.005 0.012-0.003 0.025-0.005 0.038-0.008 0-0.002 0-0.003 0-0.005 0.005 0 0.008 0 0.013 0 0-0.002 0-0.003 0-0.005 0.005 0 0.008 0 0.013 0 0-0.002 0-0.003 0-0.005 0.005 0 0.008 0 0.013 0 0-0.002 0-0.003 0-0.005 0.005 0 0.008 0 0.013 0 0-0.002 0-0.003 0-0.005 0.005 0 0.008 0 0.013 0 0-0.002 0-0.003 0-0.005 0.005 0 0.008 0 0.013 0 0-0.002 0-0.003 0-0.005 0.009-0.002 0.017-0.003 0.026-0.005 0-0.002 0-0.003 0-0.005 0.005 0 0.011 0 0.017 0 0-0.002 0-0.003 0-0.005 0.009-0.002 0.017-0.003 0.026-0.005 0-0.002 0-0.003 0-0.005 0.009-0.002 0.017-0.003 0.026-0.005 0-0.002 0-0.003 0-0.005 0.005 0 0.008 0 0.013 0 0-0.002 0-0.003 0-0.005 0.005 0 0.008 0 0.013 0 0-0.002 0-0.003 0-0.005 0.005 0 0.008 0 0.013 0 0-0.002 0-0.003 0-0.005 0.005 0 0.008 0 0.013 0 0-0.002 0-0.003 0-0.005 0.005 0 0.008 0 0.013 0 0-0.002 0-0.003 0-0.005 0.012-0.003 0.025-0.005 0.038-0.008 0-0.002 0-0.003 0-0.005 0.007 0 0.014 0 0.021 0 0-0.002 0-0.003 0-0.005 0.007 0 0.014 0 0.021 0 0 0.002 0 0.003 0 0.005 0.014 0 0.028 0 0.042 0 0 0.002 0 0.003 0 0.005 0.011 0 0.023 0 0.034 0 0.003 0.001 0.030 0.009 0.034 0.008 0-0.002 0-0.003 0-0.005 0.005 0 0.008 0 0.013 0 0-0.002 0-0.003 0-0.005 0.005 0 0.008 0 0.013 0 0-0.002 0-0.003 0-0.005 0.005 0 0.008 0 0.013 0 0-0.002 0-0.003 0-0.005 0.005 0 0.008 0 0.013 0 0-0.002 0-0.003 0-0.005 0.005 0 0.008 0 0.013 0 0-0.002 0-0.003 0-0.005 0.005 0 0.008 0 0.013 0 0-0.002 0-0.003 0-0.005 0.003 0 0.005 0 0.008 0 0-0.002 0-0.003 0-0.005 0.005 0 0.008 0 0.013 0 0-0.002 0-0.003 0-0.005 0.005 0 0.008 0 0.013 0 0-0.002 0-0.003 0-0.005 0.005 0 0.008 0 0.013 0 0-0.002 0-0.003 0-0.005 0.005 0 0.008 0 0.013 0 0.018-0.008 0.041-0.018 0.059-0.026 0.009-0.002 0.017-0.003 0.026-0.005 0-0.002 0-0.003 0-0.005 0.003 0 0.005 0 0.008 0 0-0.002 0-0.003 0-0.005 0.005 0 0.008 0 0.013 0 0-0.002 0-0.003 0-0.005 0.005 0 0.008 0 0.013 0 0-0.002 0-0.003 0-0.005 0.005 0 0.008 0 0.013 0 0-0.002 0-0.003 0-0.005 0.005 0 0.008 0 0.013 0 0.104-0.046 0.224-0.078 0.329-0.125 0.009-0.002 0.017-0.003 0.026-0.005 0-0.002 0-0.003 0-0.005 0.012-0.003 0.025-0.005 0.038-0.008 0.018-0.008 0.041-0.018 0.059-0.026 0.005 0 0.008 0 0.013 0 0-0.002 0-0.003 0-0.005 0.005 0 0.008 0 0.013 0 0-0.002 0-0.003 0-0.005 0.005 0 0.008 0 0.013 0 0-0.002 0-0.003 0-0.005 0.005 0 0.008 0 0.013 0 0-0.002 0-0.003 0-0.005 0.003 0 0.005 0 0.008 0 0-0.002 0-0.003 0-0.005 0.012-0.003 0.025-0.005 0.038-0.008 0-0.002 0-0.003 0-0.005 0.012-0.003 0.025-0.005 0.038-0.008 0-0.002 0-0.003 0-0.005 0.005 0 0.008 0 0.013 0 0-0.002 0-0.003 0-0.005 0.003 0 0.005 0 0.008 0 0-0.002 0-0.003 0-0.005 0.012-0.003 0.025-0.005 0.038-0.008 0-0.002 0-0.003 0-0.005 0.005 0 0.008 0 0.013 0 0-0.002 0-0.003 0-0.005 0.005 0 0.008 0 0.013 0 0-0.002 0-0.003 0-0.005 0.005 0 0.008 0 0.013 0 0-0.002 0-0.003 0-0.005 0.005 0 0.008 0 0.013 0 0.164-0.067 0.348-0.11 0.515-0.172 0.005 0 0.011 0 0.017 0 0-0.002 0-0.003 0-0.005 0.005 0 0.008 0 0.013 0 0-0.002 0-0.003 0-0.005 0.005 0 0.008 0 0.013 0 0-0.002 0-0.003 0-0.005 0.005 0 0.008 0 0.013 0 0-0.002 0-0.003 0-0.005 0.005 0 0.008 0 0.013 0 0-0.002 0-0.003 0-0.005 0.005 0 0.008 0 0.013 0 0-0.002 0-0.003 0-0.005 0.005 0 0.011 0 0.017 0 0-0.002 0-0.003 0-0.005 0.005 0 0.008 0 0.013 0 0-0.002 0-0.003 0-0.005 0.005 0 0.008 0 0.013 0 0-0.002 0-0.003 0-0.005 0.005 0 0.011 0 0.017 0 0-0.002 0-0.003 0-0.005 0.005 0 0.008 0 0.013 0 0-0.002 0-0.003 0-0.005 0.005 0 0.008 0 0.013 0 0-0.002 0-0.003 0-0.005 0.005 0 0.008 0 0.013 0 0-0.002 0-0.003 0-0.005 0.005 0 0.008 0 0.013 0 0-0.002 0-0.003 0-0.005 0.005 0 0.011 0 0.017 0 0-0.002 0-0.003 0-0.005 0.005 0 0.008 0 0.013 0 0-0.002 0-0.003 0-0.005 0.005 0 0.008 0 0.013 0 0-0.002 0-0.003 0-0.005 0.005 0 0.008 0 0.013 0 0-0.002 0-0.003 0-0.005 0.005 0 0.008 0 0.013 0 0-0.002 0-0.003 0-0.005 0.005 0 0.011 0 0.017 0 0-0.002 0-0.003 0-0.005 0.018-0.005 0.037-0.008 0.055-0.013 0-0.002 0-0.003 0-0.005 0.005 0 0.008 0 0.013 0 0-0.002 0-0.003 0-0.005 0.005 0 0.008 0 0.013 0 0-0.002 0-0.003 0-0.005 0.005 0 0.011 0 0.017 0 0-0.002 0-0.003 0-0.005 0.014-0.003 0.028-0.005 0.042-0.008 0-0.002 0-0.003 0-0.005 0.010-0.002 0.020-0.003 0.029-0.005 0-0.002 0-0.003 0-0.005 0.010-0.002 0.020-0.003 0.029-0.005 0-0.002 0-0.003 0-0.005 0.005 0 0.008 0 0.013 0 0-0.002 0-0.003 0-0.005 0.005 0 0.011 0 0.017 0 0-0.002 0-0.003 0-0.005 0.005 0 0.008 0 0.013 0 0-0.002 0-0.003 0-0.005 0.005 0 0.011 0 0.017 0 0.046-0.017 0.102-0.031 0.148-0.048 0.005 0 0.011 0 0.017 0 0-0.002 0-0.003 0-0.005 0.005 0 0.011 0 0.017 0 0-0.002 0-0.003 0-0.005 0.005 0 0.008 0 0.013 0 0-0.002 0-0.003 0-0.005 0.005 0 0.011 0 0.017 0 0.066-0.025 0.145-0.040 0.211-0.065 0.005 0 0.011 0 0.017 0 0-0.002 0-0.003 0-0.005 0.005 0 0.011 0 0.017 0 0-0.002 0-0.003 0-0.005 0.005 0 0.011 0 0.017 0 0-0.002 0-0.003 0-0.005 0.005 0 0.011 0 0.017 0 0.075-0.028 0.165-0.042 0.241-0.069 0.028-0.005 0.057-0.012 0.084-0.017 0.097-0.034 0.21-0.049 0.308-0.082 0.007 0 0.014 0 0.021 0 0.020-0.006 0.047-0.015 0.067-0.022 0.012-0.002 0.025-0.003 0.038-0.005 0-0.002 0-0.003 0-0.005 0.003 0 0.005 0 0.008 0 0.005-0.007 0.011-0.015 0.017-0.022 0.003 0 0.005 0 0.008 0 0.002-0.003 0.003-0.005 0.005-0.008 0.014-0.003 0.028-0.005 0.042-0.008 0-0.002 0-0.003 0-0.005 0.014-0.002 0.028-0.003 0.042-0.005 0-0.002 0-0.003 0-0.005 0.012-0.002 0.025-0.003 0.038-0.005 0-0.002 0-0.003 0-0.005 0.007 0 0.014 0 0.021 0 0-0.002 0-0.003 0-0.005 0.007 0 0.014 0 0.021 0 0-0.002 0-0.003 0-0.005 0.007 0 0.014 0 0.021 0 0-0.002 0-0.003 0-0.005 0.005 0 0.011 0 0.017 0 0-0.002 0-0.003 0-0.005 0.016-0.002 0.031-0.003 0.047-0.005 0.073-0.023 0.162-0.028 0.236-0.052 0.009 0 0.017 0 0.026 0 0.019-0.005 0.048-0.011 0.067-0.017 0.009 0 0.017 0 0.026 0 0.028-0.008 0.066-0.013 0.093-0.022 0.009 0 0.017 0 0.026 0 0.029-0.009 0.068-0.012 0.097-0.022 0.017-0.002 0.034-0.003 0.050-0.005 0.045-0.014 0.103-0.016 0.148-0.030 0.010 0 0.020 0 0.029 0 0-0.002 0-0.003 0-0.005 0.009 0 0.017 0 0.026 0 0-0.002 0-0.003 0-0.005 0.009 0 0.017 0 0.026 0 0-0.002 0-0.003 0-0.005 0.009 0 0.017 0 0.026 0 0.050-0.015 0.114-0.015 0.164-0.030 0.020-0.002 0.039-0.003 0.059-0.005 0-0.002 0-0.003 0-0.005 0.010 0 0.020 0 0.029 0 0-0.002 0-0.003 0-0.005 0.011 0 0.023 0 0.034 0 0-0.002 0-0.003 0-0.005 0.011 0 0.023 0 0.034 0 0-0.002 0-0.003 0-0.005 0.011 0 0.023 0 0.034 0 0-0.002 0-0.003 0-0.005 0.010 0 0.020 0 0.029 0 0-0.002 0-0.003 0-0.005 0.011 0 0.023 0 0.034 0 0-0.002 0-0.003 0-0.005 0.011 0 0.023 0 0.034 0 0-0.002 0-0.003 0-0.005 0.010 0 0.020 0 0.029 0 0-0.002 0-0.003 0-0.005 0.012 0 0.025 0 0.038 0 0.041-0.012 0.098-0.009 0.139-0.022 0.012 0 0.025 0 0.038 0 0.061-0.018 0.143-0.008 0.203-0.026 0.016 0 0.031 0 0.047 0 0-0.002 0-0.003 0-0.005 0.016 0 0.031 0 0.047 0 0-0.002 0-0.003 0-0.005 0.017 0 0.034 0 0.050 0 0-0.002 0-0.003 0-0.005 0.017 0 0.034 0 0.050 0 0-0.002 0-0.003 0-0.005 0.020 0 0.039 0 0.059 0 0-0.002 0-0.003 0-0.005 0.018 0 0.037 0 0.055 0 0-0.002 0-0.003 0-0.005 0.020 0 0.039 0 0.059 0 0-0.002 0-0.003 0-0.005 0.032-0.002 0.065-0.003 0.097-0.005 0.016 0 0.031 0 0.047 0 0.023-0.007 0.062 0.003 0.088-0.005s0.071 0.003 0.097-0.005c0-0.002 0-0.003 0-0.005 0.042 0 0.084 0 0.127 0 0-0.002 0-0.003 0-0.005 0.010 0 0.020 0 0.029 0 0.064 0 0.129 0 0.194 0 0.023-0.007 0.063-0.005 0.093-0.005 0.054 0 0.136-0.008 0.182 0.005 0.014 0 0.028 0 0.042 0 0.045 0 0.106-0.006 0.143 0.005 0.080 0.003 0.161 0.005 0.241 0.008 0 0.002 0 0.003 0 0.005 0.014 0 0.028 0 0.042 0 0.026 0.002 0.054 0.003 0.080 0.005 0 0.002 0 0.003 0 0.005 0.017 0 0.034 0 0.050 0 0 0.002 0 0.003 0 0.005 0.017 0 0.034 0 0.050 0 0 0.002 0 0.003 0 0.005 0.016 0 0.032 0 0.047 0 0 0.002 0 0.003 0 0.005 0.016 0 0.032 0 0.047 0 0 0.002 0 0.003 0 0.005 0.012 0 0.025 0 0.038 0 0 0.002 0 0.003 0 0.005 0.012 0 0.025 0 0.038 0 0 0.002 0 0.003 0 0.005 0.012 0 0.025 0 0.038 0 0 0.002 0 0.003 0 0.005 0.021 0.002 0.042 0.003 0.063 0.005 0 0.002 0 0.003 0 0.005 0.011 0 0.023 0 0.034 0 0.031 0.009 0.075 0.012 0.106 0.022 0.018 0.002 0.037 0.003 0.055 0.005 0.041 0.012 0.094 0.017 0.135 0.030 0.007 0 0.014 0 0.021 0 0 0.002 0 0.003 0 0.005 0.007 0 0.014 0 0.021 0 0 0.002 0 0.003 0 0.005 0.007 0 0.014 0 0.021 0 0 0.002 0 0.003 0 0.005 0.007 0 0.014 0 0.021 0 0 0.002 0 0.003 0 0.005 0.007 0 0.014 0 0.021 0 0.081 0.026 0.175 0.040 0.253 0.069 0.026 0.005 0.054 0.012 0.080 0.017 0 0.002 0 0.003 0 0.005 0.005 0 0.008 0 0.013 0 0 0.002 0 0.003 0 0.005 0.005 0 0.008 0 0.013 0 0 0.002 0 0.003 0 0.005 0.005 0 0.008 0 0.013 0 0 0.002 0 0.003 0 0.005 0.005 0 0.008 0 0.013 0 0 0.002 0 0.003 0 0.005 0.005 0 0.008 0 0.013 0 0.005 0.007 0.008 0.015 0.013 0.022 0.014 0.005 0.028 0.008 0.042 0.013 0 0.002 0 0.003 0 0.005 0.005 0.002 0.011 0.003 0.017 0.005 0 0.002 0 0.003 0 0.005 0.005 0 0.008 0 0.013 0 0 0.002 0 0.003 0 0.005 0.005 0.002 0.011 0.003 0.017 0.005 0 0.002 0 0.003 0 0.005 0.005 0 0.008 0 0.013 0 0 0.002 0 0.003 0 0.005 0.003 0 0.005 0 0.008 0 0 0.002 0 0.003 0 0.005 0.005 0 0.008 0 0.013 0 0 0.002 0 0.003 0 0.005 0.005 0.002 0.011 0.003 0.017 0.005 0 0.002 0 0.003 0 0.005 0.005 0 0.008 0 0.013 0 0 0.002 0 0.003 0 0.005 0.005 0.002 0.011 0.003 0.017 0.005 0 0.002 0 0.003 0 0.005 0.005 0 0.008 0 0.013 0 0 0.002 0 0.003 0 0.005 0.005 0.002 0.011 0.003 0.017 0.005 0 0.002 0 0.003 0 0.005 0.005 0 0.008 0 0.013 0 0 0.002 0 0.003 0 0.005 0.005 0.002 0.011 0.003 0.017 0.005 0 0.002 0 0.003 0 0.005 0.005 0 0.008 0 0.013 0 0 0.002 0 0.003 0 0.005 0.005 0.002 0.011 0.003 0.017 0.005 0 0.002 0 0.003 0 0.005 0.003 0 0.005 0 0.008 0 0 0.002 0 0.003 0 0.005 0.005 0 0.008 0 0.013 0 0 0.002 0 0.003 0 0.005 0.005 0.002 0.011 0.003 0.017 0.005 0 0.002 0 0.003 0 0.005 0.005 0 0.008 0 0.013 0 0 0.002 0 0.003 0 0.005 0.005 0.002 0.011 0.003 0.017 0.005 0 0.002 0 0.003 0 0.005 0.005 0 0.008 0 0.013 0 0 0.002 0 0.003 0 0.005 0.005 0.002 0.011 0.003 0.017 0.005 0 0.002 0 0.003 0 0.005 0.005 0 0.008 0 0.013 0 0 0.002 0 0.003 0 0.005 0.005 0.002 0.011 0.003 0.017 0.005 0 0.002 0 0.003 0 0.005 0.003 0 0.005 0 0.008 0 0 0.002 0 0.003 0 0.005 0.005 0 0.008 0 0.013 0 0 0.002 0 0.003 0 0.005 0.005 0.002 0.011 0.003 0.017 0.005 0 0.002 0 0.003 0 0.005 0.005 0 0.008 0 0.013 0 0 0.002 0 0.003 0 0.005 0.005 0.002 0.011 0.003 0.017 0.005 0 0.002 0 0.003 0 0.005 0.003 0 0.005 0 0.008 0 0 0.002 0 0.003 0 0.005 0.005 0 0.008 0 0.013 0 0 0.002 0 0.003 0 0.005 0.005 0.002 0.011 0.003 0.017 0.005 0 0.002 0 0.003 0 0.005 0.003 0 0.005 0 0.008 0 0 0.002 0 0.003 0 0.005 0.005 0 0.008 0 0.013 0 0 0.002 0 0.003 0 0.005 0.005 0.002 0.011 0.003 0.017 0.005 0 0.002 0 0.003 0 0.005 0.007 0.002 0.014 0.003 0.021 0.005 0 0.002 0 0.003 0 0.005 0.003 0 0.005 0 0.008 0 0 0.002 0 0.003 0 0.005 0.003 0 0.005 0 0.008 0 0 0.002 0 0.003 0 0.005 0.003 0 0.005 0 0.008 0 0 0.002 0 0.003 0 0.005 0.005 0 0.008 0 0.013 0 0 0.002 0 0.003 0 0.005 0.005 0.002 0.011 0.003 0.017 0.005 0 0.002 0 0.003 0 0.005 0.003 0 0.005 0 0.008 0 0 0.002 0 0.003 0 0.005 0.005 0 0.008 0 0.013 0 0 0.002 0 0.003 0 0.005 0.005 0.002 0.011 0.003 0.017 0.005 0 0.002 0 0.003 0 0.005 0.003 0 0.005 0 0.008 0 0 0.002 0 0.003 0 0.005 0.005 0 0.008 0 0.013 0 0 0.002 0 0.003 0 0.005 0.009 0.003 0.017 0.005 0.026 0.008 0 0.002 0 0.003 0 0.005 0.003 0 0.005 0 0.008 0 0 0.002 0 0.003 0 0.005 0.005 0 0.008 0 0.013 0 0 0.002 0 0.003 0 0.005 0.009 0.003 0.017 0.005 0.026 0.008 0 0.002 0 0.003 0 0.005 0.003 0 0.005 0 0.008 0 0 0.002 0 0.003 0 0.005 0.005 0 0.008 0 0.013 0 0 0.002 0 0.003 0 0.005 0.005 0.002 0.011 0.003 0.017 0.005 0 0.002 0 0.003 0 0.005 0.003 0 0.005 0 0.008 0 0 0.002 0 0.003 0 0.005 0.005 0 0.008 0 0.013 0 0 0.002 0 0.003 0 0.005 0.003 0 0.005 0 0.008 0 0 0.002 0 0.003 0 0.005 0.005 0.002 0.011 0.003 0.017 0.005 0 0.002 0 0.003 0 0.005 0.005 0.002 0.011 0.003 0.017 0.005 0 0.002 0 0.003 0 0.005 0.005 0 0.008 0 0.013 0 0 0.002 0 0.003 0 0.005 0.009 0.003 0.017 0.005 0.026 0.008 0 0.002 0 0.003 0 0.005 0.003 0 0.005 0 0.008 0 0 0.002 0 0.003 0 0.005 0.005 0 0.008 0 0.013 0 0 0.002 0 0.003 0 0.005 0.009 0.003 0.017 0.005 0.026 0.008 0 0.002 0 0.003 0 0.005 0.003 0 0.005 0 0.008 0 0 0.002 0 0.003 0 0.005 0.003 0 0.005 0 0.008 0 0 0.002 0 0.003 0 0.005 0.005 0 0.008 0 0.013 0 0 0.002 0 0.003 0 0.005 0.009 0.003 0.017 0.005 0.026 0.008 0 0.002 0 0.003 0 0.005 0.003 0 0.005 0 0.008 0 0 0.002 0 0.003 0 0.005 0.005 0 0.008 0 0.013 0 0 0.002 0 0.003 0 0.005 0.009 0.003 0.017 0.005 0.026 0.008 0 0.002 0 0.003 0 0.005 0.003 0 0.005 0 0.008 0 0 0.002 0 0.003 0 0.005 0.003 0 0.005 0 0.008 0 0 0.002 0 0.003 0 0.005 0.003 0 0.005 0 0.008 0 0 0.002 0 0.003 0 0.005 0.005 0 0.008 0 0.013 0 0 0.002 0 0.003 0 0.005 0.009 0.003 0.017 0.005 0.026 0.008 0 0.002 0 0.003 0 0.005 0.003 0 0.005 0 0.008 0 0 0.002 0 0.003 0 0.005 0.003 0 0.005 0 0.008 0 0 0.002 0 0.003 0 0.005 0.003 0 0.005 0 0.008 0 0 0.002 0 0.003 0 0.005 0.005 0 0.008 0 0.013 0 0 0.002 0 0.003 0 0.005 0.009 0.003 0.017 0.005 0.026 0.008 0 0.002 0 0.003 0 0.005 0.003 0 0.005 0 0.008 0 0 0.002 0 0.003 0 0.005 0.003 0 0.005 0 0.008 0 0 0.002 0 0.003 0 0.005 0.003 0 0.005 0 0.008 0 0 0.002 0 0.003 0 0.005 0.005 0.002 0.011 0.003 0.017 0.005 0 0.002 0 0.003 0 0.005 0.005 0 0.008 0 0.013 0 0 0.002 0 0.003 0 0.005 0.009 0.003 0.017 0.005 0.026 0.008 0 0.002 0 0.003 0 0.005 0.003 0 0.005 0 0.008 0 0 0.002 0 0.003 0 0.005 0.003 0 0.005 0 0.008 0 0 0.002 0 0.003 0 0.005 0.005 0.002 0.011 0.003 0.017 0.005 0 0.002 0 0.003 0 0.005 0.005 0 0.008 0 0.013 0 0 0.002 0 0.003 0 0.005 0.003 0 0.005 0 0.008 0 0 0.002 0 0.003 0 0.005 0.003 0 0.005 0 0.008 0 0 0.002 0 0.003 0 0.005 0.003 0 0.005 0 0.008 0 0 0.002 0 0.003 0 0.005 0.003 0 0.005 0 0.008 0 0 0.002 0 0.003 0 0.005 0.003 0 0.005 0 0.008 0 0 0.002 0 0.003 0 0.005 0.003 0 0.005 0 0.008 0 0 0.002 0 0.003 0 0.005 0.003 0 0.005 0 0.008 0 0 0.002 0 0.003 0 0.005 0.003 0 0.005 0 0.008 0 0 0.002 0 0.003 0 0.005 0.009 0.003 0.017 0.005 0.026 0.008 0 0.002 0 0.003 0 0.005 0.005 0 0.008 0 0.013 0 0 0.002 0 0.003 0 0.005 0.005 0.002 0.011 0.003 0.017 0.005 0 0.002 0 0.003 0 0.005 0.023 0.010 0.045 0.020 0.068 0.030 0 0.002 0 0.003 0 0.005 0.003 0 0.005 0 0.008 0 0 0.002 0 0.003 0 0.005 0.003 0 0.005 0 0.008 0 0 0.002 0 0.003 0 0.005 0.003 0 0.005 0 0.008 0 0 0.002 0 0.003 0 0.005 0.009 0.003 0.017 0.005 0.026 0.008 0 0.002 0 0.003 0 0.005 0.005 0 0.008 0 0.013 0 0 0.002 0 0.003 0 0.005 0.005 0.002 0.011 0.003 0.017 0.005 0 0.002 0 0.003 0 0.005 0.009 0.003 0.017 0.005 0.026 0.008 0 0.002 0 0.003 0 0.005 0.003 0 0.005 0 0.008 0 0 0.002 0 0.003 0 0.005 0.003 0 0.005 0 0.008 0 0 0.002 0 0.003 0 0.005 0.003 0 0.005 0 0.008 0 0 0.002 0 0.003 0 0.005 0.003 0 0.005 0 0.008 0 0 0.002 0 0.003 0 0.005 0.005 0.002 0.011 0.003 0.017 0.005 0 0.002 0 0.003 0 0.005 0.005 0.002 0.011 0.003 0.017 0.005 0 0.002 0 0.003 0 0.005 0.005 0.002 0.011 0.003 0.017 0.005 0 0.002 0 0.003 0 0.005 0.003 0 0.005 0 0.008 0 0 0.002 0 0.003 0 0.005 0.003 0 0.005 0 0.008 0 0 0.002 0 0.003 0 0.005 0.003 0 0.005 0 0.008 0 0 0.002 0 0.003 0 0.005 0.003 0 0.005 0 0.008 0 0 0.002 0 0.003 0 0.005 0.003 0 0.005 0 0.008 0 0 0.002 0 0.003 0 0.005 0.003 0 0.005 0 0.008 0 0 0.002 0 0.003 0 0.005 0.003 0 0.005 0 0.008 0 0 0.002 0 0.003 0 0.005 0.003 0 0.005 0 0.008 0 0 0.002 0 0.003 0 0.005 0.003 0 0.005 0 0.008 0 0 0.002 0 0.003 0 0.005 0.005 0.002 0.011 0.003 0.017 0.005 0 0.002 0 0.003 0 0.005 0.005 0.002 0.011 0.003 0.017 0.005 0 0.002 0 0.003 0 0.005 0.009 0.003 0.017 0.005 0.026 0.008 0 0.002 0 0.003 0 0.005 0.003 0 0.005 0 0.008 0 0 0.002 0 0.003 0 0.005 0.003 0 0.005 0 0.008 0l0.008 0.008c0.003 0 0.005 0 0.008 0 0.002 0.003 0.003 0.005 0.005 0.008 0.005 0.002 0.011 0.003 0.017 0.005 0 0.002 0 0.003 0 0.005 0.003 0 0.005 0 0.008 0 0 0.002 0 0.003 0 0.005 0.003 0 0.005 0 0.008 0 0 0.002 0 0.003 0 0.005 0.003 0 0.005 0 0.008 0 0 0.002 0 0.003 0 0.005 0.003 0 0.005 0 0.008 0 0 0.002 0 0.003 0 0.005 0.003 0 0.005 0 0.008 0 0 0.002 0 0.003 0 0.005 0.005 0.002 0.011 0.003 0.017 0.005 0 0.002 0 0.003 0 0.005 0.003 0 0.005 0 0.008 0 0 0.002 0 0.003 0 0.005 0.003 0 0.005 0 0.008 0 0 0.002 0 0.003 0 0.005 0.003 0 0.005 0 0.008 0 0 0.002 0 0.003 0 0.005 0.003 0 0.005 0 0.008 0 0 0.002 0 0.003 0 0.005 0.005 0.002 0.011 0.003 0.017 0.005 0 0.002 0 0.003 0 0.005 0.009 0.003 0.017 0.005 0.026 0.008 0.002 0.003 0.003 0.005 0.005 0.008 0.003 0 0.005 0 0.008 0l0.008 0.008c0.003 0 0.005 0 0.008 0 0 0.002 0 0.003 0 0.005 0.003 0 0.005 0 0.008 0 0 0.002 0 0.003 0 0.005 0.003 0 0.005 0 0.008 0 0 0.002 0 0.003 0 0.005 0.003 0 0.005 0 0.008 0 0 0.002 0 0.003 0 0.005 0.003 0 0.005 0 0.008 0 0 0.002 0 0.003 0 0.005 0.003 0 0.005 0 0.008 0 0 0.002 0 0.003 0 0.005 0.003 0 0.005 0 0.008 0 0 0.002 0 0.003 0 0.005 0.003 0 0.005 0 0.008 0 0 0.002 0 0.003 0 0.005 0.003 0 0.005 0 0.008 0 0 0.002 0 0.003 0 0.005 0.003 0 0.005 0 0.008 0l0.008 0.008c0.003 0 0.005 0 0.008 0 0.002 0.003 0.003 0.005 0.005 0.008 0.003 0 0.005 0 0.008 0l0.008 0.008c0.003 0 0.005 0 0.008 0 0 0.002 0 0.003 0 0.005 0.003 0 0.005 0 0.008 0 0 0.002 0 0.003 0 0.005 0.003 0 0.005 0 0.008 0 0 0.002 0 0.003 0 0.005 0.003 0 0.005 0 0.008 0 0.021 0.012 0.042 0.025 0.063 0.038 0.003 0 0.005 0 0.008 0 0 0.002 0 0.003 0 0.005 0.003 0 0.005 0 0.008 0 0 0.002 0 0.003 0 0.005 0.003 0 0.005 0 0.008 0 0 0.002 0 0.003 0 0.005 0.003 0 0.005 0 0.008 0l0.008 0.008c0.003 0 0.005 0 0.008 0 0.002 0.003 0.003 0.005 0.005 0.008 0.023 0.010 0.045 0.020 0.068 0.030 0.002 0.003 0.003 0.005 0.005 0.008 0.005 0.002 0.011 0.003 0.017 0.005 0 0.002 0 0.003 0 0.005 0.003 0 0.005 0 0.008 0 0 0.002 0 0.003 0 0.005 0.003 0 0.005 0 0.008 0l0.008 0.008c0.003 0 0.005 0 0.008 0 0.002 0.003 0.003 0.005 0.005 0.008 0.005 0.002 0.011 0.003 0.017 0.005 0 0.002 0 0.003 0 0.005 0.003 0 0.005 0 0.008 0 0 0.002 0 0.003 0 0.005 0.003 0 0.005 0 0.008 0 0 0.002 0 0.003 0 0.005 0.003 0 0.005 0 0.008 0l0.008 0.008c0.003 0 0.005 0 0.008 0 0.002 0.003 0.003 0.005 0.005 0.008 0.005 0.002 0.011 0.003 0.017 0.005 0 0.002 0 0.003 0 0.005 0.003 0 0.005 0 0.008 0 0 0.002 0 0.003 0 0.005 0.003 0 0.005 0 0.008 0l0.008 0.008c0.003 0 0.005 0 0.008 0 0.002 0.003 0.003 0.005 0.005 0.008 0.005 0.002 0.011 0.003 0.017 0.005 0 0.002 0 0.003 0 0.005 0.003 0 0.005 0 0.008 0 0 0.002 0 0.003 0 0.005 0.003 0 0.005 0 0.008 0 0 0.002 0 0.003 0 0.005 0.003 0 0.005 0 0.008 0l0.008 0.008c0.003 0 0.005 0 0.008 0 0.002 0.003 0.003 0.005 0.005 0.008 0.003 0 0.005 0 0.008 0l0.008 0.008c0.003 0 0.005 0 0.008 0 0 0.002 0 0.003 0 0.005 0.003 0 0.005 0 0.008 0 0 0.002 0 0.003 0 0.005 0.003 0 0.005 0 0.008 0 0.002 0.003 0.003 0.005 0.005 0.008 0.003 0 0.005 0 0.008 0l0.008 0.008c0.003 0 0.005 0 0.008 0 0 0.002 0 0.003 0 0.005 0.003 0 0.005 0 0.008 0 0 0.002 0 0.003 0 0.005 0.003 0 0.005 0 0.008 0 0.002 0.003 0.003 0.005 0.005 0.008 0.003 0 0.005 0 0.008 0l0.008 0.008c0.003 0 0.005 0 0.008 0 0 0.002 0 0.003 0 0.005 0.003 0 0.005 0 0.008 0 0 0.002 0 0.003 0 0.005 0.003 0 0.005 0 0.008 0 0.002 0.003 0.003 0.005 0.005 0.008 0.003 0 0.005 0 0.008 0l0.008 0.008c0.003 0 0.005 0 0.008 0 0 0.002 0 0.003 0 0.005 0.005 0.002 0.011 0.003 0.017 0.005 0.002 0.003 0.003 0.005 0.005 0.008 0.003 0 0.005 0 0.008 0l0.008 0.008c0.003 0 0.005 0 0.008 0 0 0.002 0 0.003 0 0.005 0.003 0 0.005 0 0.008 0 0 0.002 0 0.003 0 0.005 0.003 0 0.005 0 0.008 0 0.002 0.003 0.003 0.005 0.005 0.008 0.003 0 0.005 0 0.008 0l0.008 0.008c0.003 0 0.005 0 0.008 0 0 0.002 0 0.003 0 0.005 0.003 0 0.005 0 0.008 0 0.002 0.003 0.003 0.005 0.005 0.008 0.003 0 0.005 0 0.008 0l0.008 0.008c0.003 0 0.005 0 0.008 0 0 0.002 0 0.003 0 0.005 0.003 0 0.005 0 0.008 0 0.002 0.003 0.003 0.005 0.005 0.008 0.003 0 0.005 0 0.008 0l0.008 0.008c0.003 0 0.005 0 0.008 0 0 0.002 0 0.003 0 0.005 0.003 0 0.005 0 0.008 0 0.002 0.003 0.003 0.005 0.005 0.008 0.003 0 0.005 0 0.008 0l0.008 0.008c0.003 0 0.005 0 0.008 0 0 0.002 0 0.003 0 0.005 0.003 0 0.005 0 0.008 0 0 0.002 0 0.003 0 0.005 0.003 0 0.005 0 0.008 0 0.002 0.003 0.003 0.005 0.005 0.008 0.003 0 0.005 0 0.008 0l0.008 0.008c0.003 0 0.005 0 0.008 0 0 0.002 0 0.003 0 0.005 0.003 0 0.005 0 0.008 0 0.002 0.003 0.003 0.005 0.005 0.008 0.003 0 0.005 0 0.008 0l0.008 0.008c0.003 0 0.005 0 0.008 0 0.002 0.003 0.003 0.005 0.005 0.008 0.005 0.002 0.011 0.003 0.017 0.005l0.008 0.008c0.003 0 0.005 0 0.008 0 0.002 0.003 0.003 0.005 0.005 0.008 0.003 0 0.005 0 0.008 0 0 0.002 0 0.003 0 0.005 0.003 0 0.005 0 0.008 0 0 0.002 0 0.003 0 0.005 0.003 0 0.005 0 0.008 0 0.002 0.003 0.003 0.005 0.005 0.008 0.005 0.002 0.011 0.003 0.017 0.005 0 0.002 0 0.003 0 0.005 0.007-0.002 0.014-0.003 0.021-0.005 0.002-0.003 0.003-0.005 0.005-0.008 0.010 0 0.020 0 0.029 0 0.002-0.003 0.003-0.005 0.005-0.008 0.011-0.005 0.035 0.006 0.042 0.008 0.007 0 0.014 0 0.021 0 0 0.002 0 0.003 0 0.005 0.009 0.003 0.017 0.005 0.026 0.008 0 0.002 0 0.003 0 0.005 0.005 0.002 0.011 0.003 0.017 0.005 0.003 0.005 0.005 0.008 0.008 0.013 0.016 0.003 0.032 0.005 0.047 0.008 0 0.002 0 0.003 0 0.005 0.007 0.002 0.014 0.003 0.021 0.005 0 0.002 0 0.003 0 0.005 0.005 0.002 0.011 0.003 0.017 0.005 0 0.002 0 0.003 0 0.005 0.005 0 0.008 0 0.013 0 0 0.002 0 0.003 0 0.005 0.009 0.003 0.017 0.005 0.026 0.008 0 0.002 0 0.003 0 0.005 0.005 0.002 0.011 0.003 0.017 0.005 0.002 0.003 0.003 0.005 0.005 0.008 0.012 0 0.025 0 0.038 0 0 0.002 0 0.003 0 0.005 0.021 0.006 0.082 0 0.097-0.005 0.016 0 0.032 0 0.047 0 0.008-0.001 0.008-0.005 0.008-0.005 0.017 0 0.034 0 0.050 0 0-0.002 0-0.003 0-0.005 0.032-0.002 0.065-0.003 0.097-0.005 0-0.002 0-0.003 0-0.005 0.023 0 0.045 0 0.068 0 0.008-0.002 0.029-0.008 0.042-0.005 0.13 0.027 0.262 0.055 0.392 0.082 0.017 0.002 0.034 0.003 0.050 0.005 0.039 0.012 0.091 0.015 0.13 0.026 0.018 0.002 0.037 0.003 0.055 0.005 0.057 0.018 0.129 0.018 0.185 0.035 0.028 0.003 0.057 0.005 0.084 0.008 0.067 0.020 0.152 0.018 0.219 0.038 0.011 0 0.023 0 0.034 0 0 0.002 0 0.003 0 0.005 0.042 0.002 0.084 0.003 0.127 0.005 0 0.002 0 0.003 0 0.005 0.020 0 0.039 0 0.059 0 0 0.002 0 0.003 0 0.005 0.020 0 0.039 0 0.059 0 0 0.002 0 0.003 0 0.005 0.020 0 0.039 0 0.059 0 0 0.002 0 0.003 0 0.005 0.020 0 0.039 0 0.059 0 0 0.002 0 0.003 0 0.005 0.016 0 0.032 0 0.047 0 0.002 0 0.003 0 0.005 0 0 0.002 0 0.003 0 0.005 0.018 0 0.037 0 0.055 0 0 0.002 0 0.003 0 0.005 0.035 0.002 0.070 0.003 0.106 0.005 0 0.002 0 0.003 0 0.005 0.017 0 0.034 0 0.050 0 0 0.002 0 0.003 0 0.005 0.017 0 0.034 0 0.050 0 0 0.002 0 0.003 0 0.005 0.016 0 0.032 0 0.047 0 0 0.002 0 0.003 0 0.005 0.016 0 0.032 0 0.047 0 0 0.002 0 0.003 0 0.005 0.016 0 0.032 0 0.047 0 0 0.002 0 0.003 0 0.005 0.016 0 0.032 0 0.047 0 0 0.002 0 0.003 0 0.005 0.014 0 0.028 0 0.042 0 0 0.002 0 0.003 0 0.005 0.014 0 0.028 0 0.042 0 0 0.002 0 0.003 0 0.005 0.026 0.002 0.054 0.003 0.080 0.005 0.050 0.015 0.115 0.012 0.164 0.026 0.021 0.002 0.042 0.003 0.063 0.005 0.039 0.012 0.091 0.014 0.13 0.026 0.009 0 0.017 0 0.026 0 0.034 0.011 0.080 0.015 0.114 0.026 0.007 0 0.014 0 0.021 0 0 0.002 0 0.003 0 0.005 0.005 0 0.008 0 0.013 0 0.002 0.003 0.003 0.005 0.005 0.008 0.010 0.004 0.017-0.005 0.021-0.005 0 0.002 0 0.003 0 0.005 0.009 0 0.017 0 0.026 0 0 0.002 0 0.003 0 0.005 0.007 0 0.014 0 0.021 0 0 0.002 0 0.003 0 0.005 0.016 0.002 0.032 0.003 0.047 0.005 0 0.002 0 0.003 0 0.005 0.007 0 0.014 0 0.021 0 0 0.002 0 0.003 0 0.005 0.007 0 0.014 0 0.021 0 0 0.002 0 0.003 0 0.005 0.007 0 0.014 0 0.021 0 0 0.002 0 0.003 0 0.005 0.007 0 0.014 0 0.021 0 0 0.002 0 0.003 0 0.005 0.012 0.002 0.025 0.003 0.038 0.005 0 0.002 0 0.003 0 0.005 0.007 0 0.014 0 0.021 0 0 0.002 0 0.003 0 0.005 0.005 0 0.011 0 0.017 0 0 0.002 0 0.003 0 0.005 0.005 0 0.011 0 0.017 0 0 0.002 0 0.003 0 0.005 0.007 0 0.014 0 0.021 0 0 0.002 0 0.003 0 0.005 0.011 0.002 0.023 0.003 0.034 0.005 0 0.002 0 0.003 0 0.005 0.010 0.002 0.020 0.003 0.029 0.005 0 0.002 0 0.003 0 0.005 0.005 0 0.008 0 0.013 0 0 0.002 0 0.003 0 0.005 0.005 0 0.008 0 0.013 0 0 0.002 0 0.003 0 0.005 0.005 0 0.008 0 0.013 0 0 0.002 0 0.003 0 0.005 0.005 0 0.008 0 0.013 0 0 0.002 0 0.003 0 0.005 0.012 0.003 0.025 0.005 0.038 0.008 0.098 0.044 0.197 0.087 0.283 0.142 0.003 0 0.005 0 0.008 0l0.008 0.008c0.003 0 0.005 0 0.008 0 0 0.002 0 0.003 0 0.005 0.003 0 0.005 0 0.008 0 0.002 0.003 0.003 0.005 0.005 0.008 0.009 0.003 0.017 0.005 0.026 0.008 0.002 0.003 0.003 0.005 0.005 0.008 0.005 0.002 0.011 0.003 0.017 0.005 0.002 0.003 0.003 0.005 0.005 0.008 0.005 0.002 0.011 0.003 0.017 0.005 0.002 0.003 0.003 0.005 0.005 0.008 0.003 0 0.005 0 0.008 0 0 0.002 0 0.003 0 0.005 0.003 0 0.005 0 0.008 0 0.002 0.003 0.003 0.005 0.005 0.008 0.003 0 0.005 0 0.008 0 0.002 0.003 0.003 0.005 0.005 0.008 0.003 0 0.005 0 0.008 0 0.002 0.003 0.003 0.005 0.005 0.008 0.003 0 0.005 0 0.008 0 0.002 0.003 0.003 0.005 0.005 0.008 0.003 0 0.005 0 0.008 0 0 0.002 0 0.003 0 0.005 0.005 0.002 0.008 0.003 0.013 0.005 0.002 0.003 0.003 0.005 0.005 0.008 0.003 0 0.005 0 0.008 0 0.003 0.005 0.005 0.008 0.008 0.013 0.003 0 0.005 0 0.008 0 0.002 0.003 0.003 0.005 0.005 0.008 0.003 0 0.005 0 0.008 0 0.003 0.005 0.005 0.008 0.008 0.013 0.003 0 0.005 0 0.008 0 0.003 0.005 0.005 0.008 0.008 0.013 0.003 0 0.005 0 0.008 0 0.005 0.005 0.008 0.012 0.013 0.017 0.003 0 0.005 0 0.008 0 0.005 0.005 0.008 0.012 0.013 0.017 0.003 0 0.005 0 0.008 0 0.005 0.005 0.008 0.012 0.013 0.017 0.003 0 0.005 0 0.008 0 0.007 0.009 0.014 0.018 0.021 0.026 0.003 0 0.005 0 0.008 0 0.011 0.012 0.023 0.025 0.034 0.038 0.003 0 0.005 0 0.008 0 0.003 0.005 0.005 0.008 0.008 0.013 0.014 0.014 0.033 0.035 0.050 0.043 0.012 0.003 0.025 0.005 0.038 0.008 0 0.002 0 0.003 0 0.005 0.003 0 0.005 0 0.008 0 0 0.002 0 0.003 0 0.005 0.005 0 0.008 0 0.013 0 0 0.002 0 0.003 0 0.005 0.003 0 0.005 0 0.008 0 0 0.002 0 0.003 0 0.005 0.005 0 0.008 0 0.013 0 0 0.002 0 0.003 0 0.005 0.003 0 0.005 0 0.008 0 0 0.002 0 0.003 0 0.005 0.005 0 0.008 0 0.013 0 0 0.002 0 0.003 0 0.005 0.007 0.002 0.014 0.003 0.021 0.005 0 0.002 0 0.003 0 0.005 0.003 0 0.005 0 0.008 0 0 0.002 0 0.003 0 0.005 0.005 0 0.008 0 0.013 0 0 0.002 0 0.003 0 0.005 0.003 0 0.005 0 0.008 0 0 0.002 0 0.003 0 0.005 0.005 0 0.008 0 0.013 0 0 0.002 0 0.003 0 0.005 0.005 0.002 0.011 0.003 0.017 0.005 0 0.002 0 0.003 0 0.005 0.005 0 0.008 0 0.013 0 0 0.002 0 0.003 0 0.005 0.005 0.002 0.011 0.003 0.017 0.005 0 0.002 0 0.003 0 0.005 0.005 0 0.008 0 0.013 0 0 0.002 0 0.003 0 0.005 0.005 0.002 0.011 0.003 0.017 0.005 0 0.002 0 0.003 0 0.005 0.005 0 0.008 0 0.013 0 0 0.002 0 0.003 0 0.005 0.005 0.002 0.011 0.003 0.017 0.005 0 0.002 0 0.003 0 0.005 0.003 0 0.005 0 0.008 0 0 0.002 0 0.003 0 0.005 0.005 0 0.008 0 0.013 0 0 0.002 0 0.003 0 0.005 0.005 0.002 0.011 0.003 0.017 0.005 0 0.002 0 0.003 0 0.005 0.005 0 0.008 0 0.013 0 0 0.002 0 0.003 0 0.005 0.009 0.003 0.017 0.005 0.026 0.008 0 0.002 0 0.003 0 0.005 0.003 0 0.005 0 0.008 0 0 0.002 0 0.003 0 0.005 0.003 0 0.005 0 0.008 0 0 0.002 0 0.003 0 0.005 0.005 0 0.008 0 0.013 0 0 0.002 0 0.003 0 0.005 0.009 0.003 0.017 0.005 0.026 0.008 0 0.002 0 0.003 0 0.005 0.003 0 0.005 0 0.008 0 0 0.002 0 0.003 0 0.005 0.005 0 0.008 0 0.013 0 0 0.002 0 0.003 0 0.005 0.009 0.003 0.017 0.005 0.026 0.008 0 0.002 0 0.003 0 0.005 0.003 0 0.005 0 0.008 0 0 0.002 0 0.003 0 0.005 0.003 0 0.005 0 0.008 0 0 0.002 0 0.003 0 0.005 0.005 0 0.008 0 0.013 0 0 0.002 0 0.003 0 0.005 0.009 0.003 0.017 0.005 0.026 0.008 0 0.002 0 0.003 0 0.005 0.003 0 0.005 0 0.008 0 0 0.002 0 0.003 0 0.005 0.003 0 0.005 0 0.008 0 0 0.002 0 0.003 0 0.005 0.005 0 0.008 0 0.013 0 0 0.002 0 0.003 0 0.005 0.009 0.003 0.017 0.005 0.026 0.008 0 0.002 0 0.003 0 0.005 0.003 0 0.005 0 0.008 0 0 0.002 0 0.003 0 0.005 0.003 0 0.005 0 0.008 0 0 0.002 0 0.003 0 0.005 0.005 0.002 0.011 0.003 0.017 0.005 0 0.002 0 0.003 0 0.005 0.005 0 0.008 0 0.013 0 0 0.002 0 0.003 0 0.005 0.009 0.003 0.017 0.005 0.026 0.008 0 0.002 0 0.003 0 0.005 0.003 0 0.005 0 0.008 0 0 0.002 0 0.003 0 0.005 0.003 0 0.005 0 0.008 0 0 0.002 0 0.003 0 0.005 0.003 0 0.005 0 0.008 0 0 0.002 0 0.003 0 0.005 0.005 0.002 0.011 0.003 0.017 0.005 0 0.002 0 0.003 0 0.005 0.005 0 0.008 0 0.013 0 0 0.002 0 0.003 0 0.005 0.003 0 0.005 0 0.008 0 0 0.002 0 0.003 0 0.005 0.003 0 0.005 0 0.008 0 0 0.002 0 0.003 0 0.005 0.003 0 0.005 0 0.008 0 0 0.002 0 0.003 0 0.005 0.003 0 0.005 0 0.008 0 0 0.002 0 0.003 0 0.005 0.003 0 0.005 0 0.008 0 0 0.002 0 0.003 0 0.005 0.003 0 0.005 0 0.008 0 0 0.002 0 0.003 0 0.005 0.003 0 0.005 0 0.008 0 0 0.002 0 0.003 0 0.005 0.009 0.003 0.017 0.005 0.026 0.008 0 0.002 0 0.003 0 0.005 0.005 0 0.008 0 0.013 0 0 0.002 0 0.003 0 0.005 0.003 0 0.005 0 0.008 0 0 0.002 0 0.003 0 0.005 0.003 0 0.005 0 0.008 0 0 0.002 0 0.003 0 0.005 0.003 0 0.005 0 0.008 0 0 0.002 0 0.003 0 0.005 0.003 0 0.005 0 0.008 0 0 0.002 0 0.003 0 0.005 0.003 0 0.005 0 0.008 0 0 0.002 0 0.003 0 0.005 0.003 0 0.005 0 0.008 0 0 0.002 0 0.003 0 0.005 0.003 0 0.005 0 0.008 0 0 0.002 0 0.003 0 0.005 0.003 0 0.005 0 0.008 0 0 0.002 0 0.003 0 0.005 0.009 0.003 0.017 0.005 0.026 0.008 0 0.002 0 0.003 0 0.005 0.005 0 0.008 0 0.013 0 0 0.002 0 0.003 0 0.005 0.003 0 0.005 0 0.008 0 0 0.002 0 0.003 0 0.005 0.003 0 0.005 0 0.008 0 0 0.002 0 0.003 0 0.005 0.003 0 0.005 0 0.008 0 0 0.002 0 0.003 0 0.005 0.003 0 0.005 0 0.008 0 0 0.002 0 0.003 0 0.005 0.003 0 0.005 0 0.008 0 0 0.002 0 0.003 0 0.005 0.003 0 0.005 0 0.008 0 0 0.002 0 0.003 0 0.005 0.003 0 0.005 0 0.008 0l0.008 0.008c0.005 0.002 0.011 0.003 0.017 0.005 0.005 0.007 0.008 0.015 0.013 0.022 0.005 0 0.011 0 0.017 0 0 0.002 0 0.003 0 0.005 0.005 0.002 0.011 0.003 0.017 0.005 0 0.002 0 0.003 0 0.005 0.003 0 0.005 0 0.008 0 0.002 0.003 0.003 0.005 0.005 0.008 0.003 0 0.005 0 0.008 0 0.002 0.003 0.003 0.005 0.005 0.008 0.003 0 0.005 0 0.008 0 0.002 0.003 0.003 0.005 0.005 0.008 0.003 0 0.005 0 0.008 0 0.002 0.003 0.003 0.005 0.005 0.008 0.003 0 0.005 0 0.008 0 0.002 0.003 0.003 0.005 0.005 0.008 0.003 0 0.005 0 0.008 0 0.002 0.003 0.003 0.005 0.005 0.008 0.003 0 0.005 0 0.008 0 0.002 0.003 0.003 0.005 0.005 0.008 0.003 0 0.005 0 0.008 0 0.002 0.003 0.003 0.005 0.005 0.008 0.003 0 0.005 0 0.008 0 0.002 0.003 0.003 0.005 0.005 0.008 0.003 0 0.005 0 0.008 0 0 0.002 0 0.003 0 0.005 0.005 0.002 0.008 0.003 0.013 0.005 0.002 0.003 0.003 0.005 0.005 0.008 0.003 0 0.005 0 0.008 0 0.003 0.005 0.005 0.008 0.008 0.013 0.003 0 0.005 0 0.008 0 0.002 0.003 0.003 0.005 0.005 0.008 0.005 0.002 0.008 0.003 0.013 0.005 0 0.002 0 0.003 0 0.005 0.003 0 0.005 0 0.008 0 0.002 0.003 0.003 0.005 0.005 0.008 0.003 0 0.005 0 0.008 0 0.003 0.005 0.005 0.008 0.008 0.013 0.003 0 0.005 0 0.008 0 0.002 0.003 0.003 0.005 0.005 0.008 0.003 0 0.005 0 0.008 0 0.003 0.005 0.005 0.008 0.008 0.013 0.005 0.002 0.008 0.003 0.013 0.005 0.002 0.003 0.003 0.005 0.005 0.008 0.003 0 0.005 0 0.008 0 0.002 0.003 0.003 0.005 0.005 0.008 0.003 0 0.005 0 0.008 0 0.002 0.003 0.003 0.005 0.005 0.008 0.005 0.002 0.008 0.003 0.013 0.005 0.003 0.005 0.005 0.008 0.008 0.013 0.003 0 0.005 0 0.008 0 0.003 0.005 0.005 0.008 0.008 0.013 0.003 0 0.005 0 0.008 0 0.002 0.003 0.003 0.005 0.005 0.008 0.005 0.002 0.008 0.003 0.013 0.005 0.005 0.005 0.008 0.012 0.013 0.017 0.003 0 0.005 0 0.008 0 0.005 0.005 0.008 0.012 0.013 0.017 0.003 0 0.005 0 0.008 0 0.005 0.005 0.008 0.012 0.013 0.017 0.003 0 0.005 0 0.008 0 0.005 0.007 0.011 0.015 0.017 0.022 0.003 0 0.005 0 0.008 0 0.016 0.017 0.032 0.035 0.047 0.052 0.021 0.020 0.042 0.040 0.063 0.060 0 0.003 0 0.005 0 0.008 0.009 0.007 0.017 0.015 0.026 0.022 0 0.003 0 0.005 0 0.008 0.007 0.005 0.014 0.012 0.021 0.017 0 0.003 0 0.005 0 0.008 0.003 0.002 0.005 0.003 0.008 0.005 0 0.003 0 0.005 0 0.008 0.003 0.002 0.005 0.003 0.008 0.005 0.011 0.023 0.023 0.046 0.034 0.069 0.005 0.012 0.009 0.095 0.005 0.112-0.002 0-0.003 0-0.005 0 0 0.015 0 0.028 0 0.043-0.006 0.024-0.010 0.058-0.017 0.082 0.002 0.041 0.003 0.081 0.005 0.121 0 0.041 0.005 0.095-0.005 0.129 0 0.020 0 0.040 0 0.060-0.002 0-0.003 0-0.005 0 0 0.016 0 0.032 0 0.048-0.002 0-0.003 0-0.005 0-0.002 0.033-0.003 0.066-0.005 0.099-0.012 0.087-0.025 0.175-0.038 0.262-0.002 0.018-0.011 0.090 0 0.103 0.002 0.034 0.028 0.028 0.047 0.043 0.005 0.005 0.005 0.015 0.008 0.022 0.009 0.007 0.017 0.015 0.026 0.022 0 0.010 0 0.020 0 0.030zM26.572 17.354c0 0-2.122-1.665-6.216-1.809 0 0-2.618-1.825-4.413-2.040-1.781-0.213-5.391-0.072-8.69 1.251 0 0 4.641-2.598 8.812-2.069 2.172 0.276 4.477 2.021 4.477 2.021s4.7 0.361 6.031 2.647h-0.001zM26.666 15.474c0 0-1.792-1.735-5.886-1.878 0 0-2.618-1.825-4.413-2.040-1.781-0.213-5.391-0.072-8.69 1.251 0 0 4.641-2.598 8.812-2.069 2.172 0.276 4.477 2.021 4.477 2.021s4.37 0.43 5.702 2.716h-0.001z"></path>
</svg>
