<svg xmlns="http://www.w3.org/2000/svg" width="100%" height="100%" viewBox="0 0 32 32"><path d="M23.805 15.808s-.773.139-1.398.139-1.534-.165-1.534-.165l-.907-3.896c-.033-.016-2.443-1.171-3.314-1.171L15.568 6.72c1.443.064 2.886.836 3.438 1.041l.96 4.123c.029.014 1.09.537 2.214.535.473-.002.931-.067 1.33-.181l.295 3.569.321 3.976s1.016-.125 2.493-.82l.048-4.23c-.859.485-1.8.848-2.862 1.074zm-13.23 1.724c.521-.455 1.967-1.649 3.359-2.175l1.508 3.887c-1.378.383-2.81 1.513-3.408 2.024l2.083 5.337-1.669.061L5.334 8.439l1.669-.061.467 1.197c.308-.3 1.634-1.52 3.348-2.061l1.499 3.772c1.124-.39 2.331-.607 3.594-.618.261 0 .518.016.741.045l1.246 4.335c-.592-.083-1.196-.128-1.816-.134-.875 0-2.147.443-2.147.443l-1.617-4.069s-1.834.646-3.389 2.023l1.647 4.22zm7.249-2.493h-.001c.673.092 2.141.511 3.049.742l.942 4.042c-.701 0-2.312-.673-2.874-.673l-1.116-4.111zm5.366-6.667s1.56-.301 3.43-1.705v4c-1.629 1.207-3.111 1.572-3.111 1.572l-.319-3.867z"/></svg>