<!-- Generated by IcoMoon.io -->
<svg version="1.1" xmlns="http://www.w3.org/2000/svg" width="32" height="32" viewBox="0 0 32 32">
<title>lock-next</title>
<path d="M21.333 15.2v3.6c0 2.879-2.38 5.2-5.333 5.2s-5.333-2.321-5.333-5.2v-3.6h1.231v-3.2c0-2.2 1.846-4 4.103-4s4.103 1.8 4.103 4v3.2h1.231zM12.718 12v3.2h6.564v-3.2c0-1.758-1.478-3.2-3.282-3.2s-3.282 1.441-3.282 3.2zM20.513 18.8v-2.8h-9.026v2.8c0 2.441 2.009 4.4 4.513 4.4s4.513-1.958 4.513-4.4zM16 18.4c0.453 0 0.82 0.358 0.82 0.8v0.8c0 0.441-0.367 0.8-0.82 0.8s-0.82-0.358-0.82-0.8v-0.8c0-0.441 0.368-0.8 0.82-0.8z"></path>
</svg>
