<!-- Generated by IcoMoon.io -->
<svg version="1.1" xmlns="http://www.w3.org/2000/svg" width="32" height="32" viewBox="0 0 32 32">
<title>tecent</title>
<path d="M16.667 5.333l-0.001 0.001c4.787 0 8.667 3.884 8.667 8.674s-3.881 8.673-8.667 8.673c-0.799 0-1.57-0.11-2.304-0.312-0.555-0.244-0.267-0.878-0.267-0.878 0.232-0.694 0.726-0.495 0.726-0.495s0.004-0.006 0.005-0.006c0.589 0.155 1.204 0.246 1.842 0.246 3.989 0 7.222-3.236 7.222-7.228s-3.234-7.228-7.222-7.228c-3.988 0-7.222 3.236-7.222 7.228 0 1.315 0.356 2.546 0.971 3.608 0.218 0.71-0.277 0.871-0.277 0.871-0.424 0.297-0.738 0.13-0.909-0.027-0.78-1.302-1.229-2.825-1.229-4.453 0-4.791 3.881-8.674 8.667-8.674zM16.667 11.115v0.002c1.595 0 2.889 1.295 2.889 2.891s-1.294 2.891-2.889 2.891c-0.629 0-1.212-0.202-1.686-0.545-1.899 2.176-3.324 4.776-4.113 7.641-0.201 0.727-0.36 1.473-0.476 2.232-0.299 0.338-0.671 0.507-1.013 0.414-0.186-0.050-0.341-0.172-0.457-0.343 0.129-0.938 0.321-1.855 0.57-2.749 0.872-3.131 2.452-5.967 4.557-8.324-0.173-0.371-0.27-0.784-0.27-1.22 0-1.596 1.294-2.891 2.889-2.891z"></path>
</svg>
