<!-- Generated by IcoMoon.io -->
<svg version="1.1" xmlns="http://www.w3.org/2000/svg" width="32" height="32" viewBox="0 0 32 32">
<title>desktop</title>
<path d="M25.204 6.667c0.807 0 1.463 0.676 1.463 1.508v11.78c0 0.831-0.656 1.508-1.463 1.508h-6.757v1.803c0 0.201-0.158 0.365-0.354 0.365h-3.761c-0.196 0-0.355-0.163-0.355-0.365v-1.803h-7.181c-0.807 0-1.463-0.676-1.463-1.508v-11.78c0-0.832 0.656-1.508 1.463-1.508h18.408zM7.27 7.887c-0.416 0-0.754 0.349-0.754 0.777v9.882h18.967v-9.882c0-0.428-0.338-0.777-0.754-0.777h-17.459zM17.681 22.788v-1.326h-2.933v1.326h2.933zM24.73 20.242c0.416 0 0.754-0.349 0.754-0.777v-0.131h-18.967v0.131c0 0.428 0.338 0.777 0.754 0.777h17.459zM19.372 24.432c0.195 0 0.354 0.269 0.354 0.471s-0.158 0.43-0.354 0.43h-6.629c-0.196 0-0.355-0.229-0.355-0.43s0.159-0.471 0.355-0.471h6.629z"></path>
</svg>
