<!-- Generated by IcoMoon.io -->
<svg version="1.1" xmlns="http://www.w3.org/2000/svg" width="32" height="32" viewBox="0 0 32 32">
<title>ownerservice</title>
<path d="M18.199 15.431c2.283 0 4.135 1.918 4.135 4.285s-1.851 4.285-4.135 4.285c-2.283 0-4.135-1.918-4.135-4.285s1.851-4.285 4.135-4.285zM20.548 22.656l0.001 0.001 0.608-0.629c0.149-0.155 0.14-0.397-0.020-0.539l-2.758-2.45c0.128-0.25 0.201-0.535 0.201-0.838 0-0.987-0.773-1.787-1.725-1.787-0.174 0-0.343 0.027-0.501 0.077l0.996 1.032c0.149 0.154 0.149 0.407 0 0.561l-0.608 0.629c-0.149 0.155-0.393 0.155-0.542 0l-0.996-1.032c-0.048 0.164-0.074 0.338-0.074 0.519 0 0.987 0.772 1.787 1.725 1.787 0.292 0 0.567-0.075 0.809-0.209l2.364 2.858c0.137 0.165 0.371 0.175 0.52 0.021zM13.066 19.715h-0.001c0 1.064 0.302 2.055 0.821 2.886h-4.553v-14.601h10.932v6.846c-0.632-0.289-1.331-0.449-2.067-0.449-2.835 0-5.133 2.381-5.133 5.318zM13.105 9.399v1.086h5.806v-1.086h-5.806zM13.105 12.257v1.101h5.806v-1.101h-5.806zM10.341 9.079v1.782h1.706v-1.782h-1.706zM12.049 13.692v-1.784h-1.715v1.784h1.715z"></path>
</svg>
