<!-- Generated by IcoMoon.io -->
<svg version="1.1" xmlns="http://www.w3.org/2000/svg" width="32" height="32" viewBox="0 0 32 32">
<title>wechat</title>
<path d="M12.884 8c3.713 0 6.965 2.255 7.619 5.289-0.241-0.026-0.482-0.044-0.727-0.044-3.587 0-6.42 2.67-6.42 5.961 0 0.547 0.085 1.075 0.233 1.578-0.233 0.018-0.468 0.030-0.705 0.030-0.942 0-1.7-0.192-2.644-0.378l-2.639 1.32 0.755-2.266c-1.891-1.318-3.022-3.016-3.022-5.085 0-3.583 3.4-6.405 7.55-6.405zM10.431 13.084c0.567 0 0.943-0.378 0.943-0.943 0-0.567-0.377-0.94-0.943-0.94s-1.137 0.374-1.137 0.94c0 0.565 0.571 0.943 1.137 0.943zM15.715 13.084c0.569 0 0.945-0.378 0.945-0.943 0-0.567-0.377-0.94-0.945-0.94-0.567 0-1.134 0.374-1.134 0.94s0.568 0.943 1.134 0.943zM26.667 19.115h-0.001c0 1.699-1.129 3.203-2.644 4.337l0.568 1.882-2.071-1.131c-0.755 0.189-1.514 0.378-2.266 0.378-3.593 0-6.422-2.449-6.422-5.465 0-3.011 2.83-5.465 6.422-5.465 3.393 0 6.414 2.454 6.414 5.465zM18.171 18.172c0.572 0 0.945-0.372 0.945-0.753 0-0.375-0.375-0.753-0.945-0.753-0.375 0-0.755 0.378-0.755 0.753 0 0.381 0.379 0.753 0.755 0.753zM22.324 18.172c0.567 0 0.945-0.372 0.945-0.753 0-0.375-0.38-0.753-0.945-0.753-0.374 0-0.75 0.378-0.75 0.753 0 0.381 0.376 0.753 0.75 0.753z"></path>
</svg>
