<svg xmlns="http://www.w3.org/2000/svg" width="100%" height="100%" viewBox="0 0 32 32"><path d="M25.212 15.779c-.934-.428-2.781-.699-5.096-.891-.384-.276-1.522-.971-3.156-1.332-.958-.214-2.422-.223-2.995-.223h-.16c-1.697 0-3.885.445-4.61.668-1.031.316-2.913.891-3.399 1.554-.244.334-.394 1.292-.462 1.982-.024.24.462.904.948 1.127l1.483.196c.384.673 1.148 1.14 2.038 1.14.778 0 1.463-.348 1.882-.891h9.316c.413.556 1.113.891 1.901.891.895 0 1.663-.472 2.047-1.154 1.046-.205 1.474-.401 1.474-.401s.244-.668.244-1.554c0-.223-.968-.891-1.454-1.114l-.001.001zm.393 1.995c-.204.058-.486.129-.86.205l-.447.089-.209.374c-.233.414-.685.673-1.182.673-.462 0-.866-.182-1.104-.503l-.287-.388H11.179l-.292.378c-.253.325-.646.512-1.089.512-.491 0-.944-.254-1.177-.663l-.229-.405-.491-.062-1.274-.165c-.112-.089-.244-.236-.311-.348.087-.784.224-1.305.296-1.434.131-.178.749-.539 2.889-1.194.598-.182 2.689-.623 4.303-.623h.16c1.551 0 2.358.107 2.767.196 1.624.361 2.669 1.087 2.786 1.171l.224.16.287.022c2.436.2 4.036.472 4.75.797.258.12.685.401.909.588-.015.245-.049.454-.082.619l.001-.001z"/></svg>