<svg xmlns="http://www.w3.org/2000/svg" width="100%" height="100%" viewBox="0 0 32 32"><path d="M21.839 6.902l-.001.004C23.279 7.95 24 9.499 24 11.552c0 1.257-.439 2.316-1.063 3.179-.366.524-1.197 1.191-2.233 2.005l-1.15.793c-.559.436-1.054.942-1.237 1.523-.097.306-.157.579-.179 1.112-.006.105-.07.346-.395.346h-3.252c-.363 0-.402-.215-.398-.319.051-1.463.103-2.483.68-3.164.997-1.174 2.959-2.411 3.274-2.643s.591-.515.826-.845c.384-.534.704-1.119.704-1.758v-.021c0-.748-.241-1.44-.643-1.991-.429-.604-1.21-.906-2.344-.906-1.117-.001-1.908.372-2.374 1.117s-.7 1.519-.7 2.322H9.335c.115-2.758 1.075-4.713 2.879-5.865 1.137-.736 2.535-1.103 4.194-1.103 2.179 0 3.99.523 5.433 1.569zm-7.102 15.503h3.034c.333 0 .602.271.602.605v3.051c0 .334-.269.605-.602.605h-3.034c-.333 0-.602-.271-.602-.605V23.01c0-.334.269-.605.602-.605z"/></svg>