<svg xmlns="http://www.w3.org/2000/svg" width="100%" height="100%" viewBox="0 0 32 32"><path d="M5.333 19.569c.071.61.249 1.273.533 1.989.391-.036.8-.09 1.227-.162.178.358.285.556.32.592l.374.592c-.249.287-.498.609-.747.968.427.538.924 1.022 1.493 1.452l.96-.753.587.377c.036.036.231.144.587.323-.071.43-.107.824-.107 1.183.711.287 1.386.466 2.026.538.178-.394.338-.771.48-1.129l.694.054.64-.054c.142.358.302.735.48 1.129.64-.072 1.333-.251 2.08-.538-.036-.358-.089-.753-.16-1.183.355-.179.551-.287.587-.323l.587-.377.96.753c.569-.43 1.066-.914 1.493-1.452-.213-.358-.462-.681-.747-.968.036-.072.08-.134.133-.188s.097-.117.133-.188c.036-.072.071-.134.107-.188s.142-.26.32-.618c.427.072.835.126 1.227.162.284-.717.462-1.38.533-1.989-.391-.179-.765-.341-1.12-.484l.054-.645-.054-.645c.32-.143.676-.287 1.066-.43.355-.072.764-.197 1.227-.377-.036-.215-.071-.466-.107-.753.249-.108.374-.179.374-.215l.16-.081.213-.134c.213.143.427.305.64.484.355-.287.675-.609.96-.968-.142-.215-.302-.43-.48-.645.036 0 .071-.027.107-.081s.062-.108.08-.162c.018-.054.036-.09.054-.107s.098-.134.24-.349c.249.036.498.054.747.054.213-.466.338-.896.374-1.29-.249-.108-.498-.198-.747-.269l.054-.43-.054-.43.747-.323c-.036-.394-.16-.825-.374-1.29-.249 0-.498.036-.747.107-.142-.251-.213-.394-.213-.43l-.107-.134-.16-.188c.178-.215.338-.43.48-.645-.284-.358-.604-.681-.96-.968-.213.179-.427.341-.64.484-.036-.036-.071-.063-.107-.081s-.08-.045-.133-.081c-.053-.036-.098-.063-.133-.081l-.374-.188c.036-.287.071-.538.107-.753-.498-.179-.942-.305-1.333-.377-.142.251-.249.502-.32.753l-.427-.054-.48.054c-.071-.251-.178-.502-.32-.753-.391.072-.818.197-1.28.377 0 .215.018.466.054.753-.213.108-.338.179-.374.215l-.16.081c-.107.054-.178.099-.213.134-.213-.143-.427-.305-.64-.484-.355.287-.675.609-.96.968.142.215.302.43.48.645l-.267.323c0 .036-.053.179-.16.43-.284-.072-.551-.107-.8-.107-.071.143-.125.287-.16.43-.355-.108-.711-.179-1.066-.215-.178.394-.338.771-.48 1.129l-.64-.054-.694.054c-.142-.358-.302-.735-.48-1.129-.64.072-1.315.251-2.026.538 0 .358.036.753.107 1.183-.355.179-.551.287-.587.323l-.24.134-.346.242-.96-.753c-.569.43-1.066.914-1.493 1.452.213.358.462.681.747.968l-.374.592c-.036.036-.142.233-.32.592-.427-.072-.835-.126-1.227-.162-.284.717-.462 1.38-.533 1.989.391.179.765.341 1.12.484l-.054.645.054.645c-.355.143-.729.305-1.12.484zm4.266-1.128c.036-.753.231-1.416.587-1.989.355-.645.853-1.147 1.493-1.505.569-.323 1.262-.502 2.08-.538.782.036 1.457.215 2.026.538.64.358 1.137.86 1.493 1.505.355.573.551 1.236.587 1.989-.036.753-.231 1.416-.587 1.989-.355.645-.853 1.147-1.493 1.505-.569.323-1.244.502-2.026.538-.818-.036-1.511-.215-2.08-.538-.64-.358-1.137-.86-1.493-1.505s-.551-1.308-.587-1.989zm8.905-6.235v-.162c.036-.502.16-.95.374-1.344.249-.394.587-.717 1.014-.968.355-.215.8-.323 1.333-.323.498 0 .942.107 1.333.323.391.251.711.574.96.968.213.394.338.843.374 1.344-.036.466-.16.896-.374 1.29-.249.394-.569.717-.96.968-.391.215-.836.323-1.333.323-.534 0-.978-.107-1.333-.323-.036-.036-.071-.054-.107-.054.213-.287.427-.591.64-.914-.427-.538-.924-1.022-1.493-1.452-.107.108-.249.215-.427.323l-.001.002z"/></svg>