<svg xmlns="http://www.w3.org/2000/svg" width="100%" height="100%" viewBox="0 0 32 32"><path d="M21.928 20.772c0 .308-.267.561-.593.561s-.593-.253-.593-.561c0-2.477-2.129-4.494-4.743-4.494s-4.743 2.017-4.743 4.494c0 .308-.267.561-.592.561s-.592-.253-.592-.561c0-3.094 2.658-5.616 5.928-5.616 3.266 0 5.928 2.523 5.928 5.616zm4.146-.561h-2.369c-.325 0-.593.253-.593.561s.267.561.593.561h2.369c.325 0 .593-.253.593-.561s-.261-.561-.593-.561zm-4.626-4.04c.149 0 .304-.056.422-.167l1.675-1.588c.23-.218.23-.577 0-.793s-.608-.218-.838 0l-1.675 1.588c-.23.218-.23.577 0 .793.112.111.267.167.417.167h-.001zM16 14.034c.325 0 .593-.253.593-.561v-2.244c0-.308-.267-.561-.593-.561s-.592.253-.592.561v2.244c0 .308.267.561.592.561zm-5.864 1.976c.117.111.267.167.422.167.149 0 .304-.056.422-.167.23-.218.23-.577 0-.793l-1.686-1.593c-.23-.218-.609-.218-.838 0s-.23.577 0 .793l1.68 1.593zm-1.841 4.201H5.926c-.325 0-.593.253-.593.561s.267.561.593.561h2.369c.325 0 .592-.253.592-.561s-.267-.561-.592-.561z"/></svg>