<svg xmlns="http://www.w3.org/2000/svg" width="100%" height="100%" viewBox="0 0 32 32"><path d="M10.153 22.183H8.77c-.037 0-.07-.007-.092-.015-.191-.034-.353-.158-.441-.347l-.011-.023c-.004-.015-.011-.027-.018-.042-.026-.07-.062-.154-.077-.254-.044-.207-.07-.438-.077-.685-.015-.323-.022-.654-.029-.977v-.007c0-.116.004-.227.004-.339 0-.108.004-.215.004-.323v-.012l-.022-1.147c-.004-.019-.008-.05-.008-.089v-1.065c0-.039.004-.07.008-.089 0-.111.008-.212.015-.311v-.007c.011-.104.018-.215.029-.319.008-.108.018-.219.029-.331.011-.1.029-.196.048-.289l.022-.127c0-.007.004-.012.004-.019.026-.111.077-.188.125-.258.004-.004.004-.007.008-.012.077-.104.169-.193.258-.273-.004 0-.004-.004-.008-.004h-.004c-.213-.104-.317-.289-.305-.531 0-.042 0-.096.022-.154.074-.281.228-.496.464-.638.228-.142.478-.212.747-.2h.008c.199.015.357.116.456.296.004.004.008.012.008.015.044.092.062.169.081.235l.008.031c.008.062.015.119.015.173h.048c.268-.573.53-1.065.806-1.496.18-.285.342-.504.504-.696.118-.142.272-.25.463-.327.103-.042.221-.073.357-.092.059-.012.114-.023.177-.034.062-.015.129-.027.195-.039.294-.054.563-.089.813-.111l.28-.023.291-.023h.004c.247-.015.504-.031.761-.039.132-.004.268-.008.397-.008.125 0 .254-.004.379-.008.018-.004.041-.008.074-.008h.68c.029 0 .055.004.074.008l.154.004c.383.008.706.015 1.033.034l.051.004.35.023.055.004c.188.015.386.031.581.05h.007c.18.027.353.054.526.077l.25.039h.004c.103.015.202.039.298.058l.018.004c.041.008.077.015.118.027.16.036.303.1.43.191l3.501-3.662v1.208l-2.959 3.095.042.061c.132.193.247.377.353.561.011.023.022.042.033.062.007.015.015.031.026.046l.015.027.007.015c.118.208.235.431.364.681l.162.323h.029c0-.023 0-.046.004-.07 0-.062.007-.123.018-.181.011-.062.029-.116.055-.169.074-.185.214-.311.386-.342.062-.012.111-.012.154-.012h.029c.158.019.317.054.464.104.007.004.018.007.026.012.088.039.154.077.217.119 0 0 .004 0 .004.004.198.135.338.339.408.596.029.096.037.185.022.27 0 .007-.004.015-.004.023-.011.042-.022.077-.029.1-.004.007-.004.015-.007.023-.041.096-.107.177-.195.238.055.05.111.1.154.146l.007.007.015.015c.169.161.283.369.331.616v.007c.029.161.051.327.07.504.011.116.018.212.026.304.015.223.022.45.029.67v.015c.007.089.007.177.007.265 0 .304.007.623.015.904v.007c0 .081 0 .15.007.219V20.1c0 .027 0 .065-.007.116l-.022.446v.007c-.018.227-.044.423-.077.608-.026.169-.074.323-.14.473 0 .004-.004.004-.004.007-.103.215-.265.347-.478.4-.029.007-.059.012-.081.015h-.015c-.022.004-.041.007-.062.007h-1.445c-.041 0-.074-.007-.099-.019-.191-.046-.342-.169-.427-.354-.041-.077-.059-.146-.077-.204-.004-.007-.004-.015-.007-.023-.121-.019-.228-.081-.301-.181-.121 0-.232.004-.338.027-.28.062-.566.096-.905.116h-.015c-.25.015-.489.031-.743.031-.489.007-.986.007-1.471.007h-.695c-.448 0-.912-.004-1.368 0h-.467c-.46 0-.93.004-1.394-.007h-.011c-.059-.004-.118-.004-.18-.007l-.195-.007c-.214-.015-.434-.031-.655-.054-.066-.007-.136-.015-.206-.027-.037-.006-.075-.011-.114-.015l-.976 1.021-.235.242-2.493 2.608v-1.208l1.858-1.943zm9.648-10.091c-.041-.019-.084-.033-.131-.044l-.114-.023-.018-.004c-.088-.019-.18-.039-.272-.054l-.247-.039c-.169-.027-.342-.05-.518-.077-.188-.019-.375-.034-.559-.05l-.048-.004-.35-.023-.048-.004c-.32-.015-.64-.027-1.015-.031l-.169-.004c-.029 0-.051-.004-.067-.008h-.647c-.018.004-.041.008-.07.008-.132.004-.265.008-.397.008-.129 0-.261.004-.39.007-.247.007-.5.023-.743.039l-.287.023-.28.023c-.235.019-.486.054-.765.104-.059.012-.118.023-.18.039s-.129.027-.195.039h-.007c-.099.015-.177.034-.242.062h-.004c-.103.039-.18.092-.242.166-.147.173-.294.373-.46.635-.276.439-.544.942-.82 1.546 0 0 0 .004-.004.004-.011.027-.033.081-.081.131-.059.062-.139.092-.221.081-.066-.007-.121-.012-.177-.007-.066.007-.132.015-.206.027-.059.012-.118.004-.173-.027-.07-.039-.191-.131-.191-.358 0-.012 0-.027.004-.039.008-.07.008-.158-.004-.262-.011-.039-.018-.065-.029-.092l-.004-.004h-.008c-.158-.004-.302.034-.441.123-.111.07-.177.161-.213.296v.011c.092.039.195.062.342.07h.111c.095 0 .184.05.235.139.052.084.055.193.011.281-.052.104-.125.146-.162.166l-.022.012c-.118.077-.228.15-.327.238-.092.084-.18.161-.243.246-.018.023-.029.042-.033.054l-.022.123-.041.238c-.011.104-.018.212-.029.315-.008.108-.018.215-.029.323-.008.096-.015.188-.015.281 0 .031-.004.054-.008.073v1.062c.004.015.008.042.008.073l.022 1.15v.016c0 .116-.004.227-.004.339 0 .104-.004.215-.004.323.008.315.015.643.029.962.008.219.029.415.066.592 0 .004.004.012.004.015.008.039.026.084.044.135l.015.039c.011.019.022.027.041.027.022 0 .033 0 .044.004l-.001.001h1.456c.015-.015.029-.042.048-.089.026-.077.037-.135.041-.185 0-.027.004-.073.022-.13.037-.119.144-.196.261-.196h.121c.033-.004.062-.007.092-.007.015-.023.029-.042.044-.062.052-.073.136-.116.221-.116h.062c.052 0 .107-.004.169.004l.103.008 6.003-6.278h-6.305l1.012-1.762h.001c.121-.193.327-.308.548-.308 0 0 1.07-.285 3.258-.285 2.097 0 3.222.285 3.222.285.072 0 .143.012.209.036l.41-.429zm.554.628l-.417.436.806 1.399h-2.142l-6.108 6.39c.172.017.345.029.516.041.055.004.114.004.177.007.062 0 .125.004.191.007.453.012.923.012 1.376.007h.463c.456-.004.923-.004 1.372 0h.691c.482 0 .979 0 1.464-.007h.004c.235 0 .467-.015.71-.031h.018c.312-.015.574-.05.824-.104.18-.039.35-.039.511-.039h.074c.121 0 .228.07.283.177.004.004.004.007.007.012.011 0 .022 0 .033.004.029.004.059.004.096.007.107.015.195.089.228.196.011.039.022.077.029.111l.011.05c.004.019.011.034.015.054.011.042.022.077.037.1.004.007.007.012.007.019.011.027.026.039.051.046.007 0 .015.004.018.004h1.383c.018-.004.033-.004.044-.007h.019c.048-.012.077-.027.107-.092.044-.1.074-.204.096-.323v-.007c.029-.161.051-.339.07-.542l.022-.465c0-.019.004-.034.007-.05v-1.597c-.007-.092-.007-.173-.007-.254-.007-.284-.015-.604-.015-.916 0-.081 0-.154-.007-.219v-.046c-.007-.212-.015-.435-.029-.65-.004-.084-.011-.173-.022-.281-.015-.158-.037-.308-.062-.454-.026-.127-.077-.223-.162-.304l-.011-.012-.018-.019c-.188-.181-.338-.304-.489-.407-.022-.012-.059-.031-.096-.065-.059-.062-.088-.135-.088-.219 0-.15.107-.273.25-.289.048-.004.088-.012.129-.015l.067-.007h.004c.048-.004.092-.019.132-.039 0-.004-.004-.007-.004-.012-.033-.127-.092-.215-.177-.273-.041-.027-.081-.046-.136-.073-.103-.034-.214-.062-.32-.073h-.015c-.004.007-.007.015-.011.027-.007.012-.011.031-.015.046-.004.023-.007.046-.007.07v.023c-.004.05-.004.104 0 .166v.084c.011.073-.004.131-.026.177-.077.188-.239.204-.287.204-.015 0-.026 0-.041-.004-.096-.015-.198-.015-.309-.012h-.092c-.103 0-.198-.062-.247-.158v-.004c-.007-.015-.022-.042-.033-.073-.059-.123-.125-.254-.195-.4-.121-.242-.235-.458-.35-.658l-.022-.039c-.011-.023-.022-.042-.033-.062-.007-.015-.015-.031-.026-.046-.098-.171-.203-.338-.322-.516zm1.765 4.385v-.001s-1.365.142-1.582.058c-.147-.057-.184-.057-.221-.25-.022-.123.28-.677.754-1.058.265-.212.585-.35.92-.385.445-.046.633.116.791.366.147.231.221.808.147 1s-.551.231-.809.27zm-12.292 0c-.258-.039-.736-.077-.809-.27s0-.769.147-1c.158-.25.346-.412.791-.366.335.034.654.173.92.385.474.381.776.935.754 1.058-.037.193-.074.193-.221.25-.221.084-1.582-.058-1.582-.058v.001z"/></svg>