<svg xmlns="http://www.w3.org/2000/svg" width="100%" height="100%" viewBox="0 0 32 32"><path d="M23.515 12.587l.001-.001v9.319s.006 1.762-1.988 1.762-1.988-1.762-1.988-1.762v-6.238s0-.208-.097-.286-.34-.095-.34-.095h-1.406v7.191c0 .838-.698 1.524-1.551 1.524H9.552c-.853 0-1.551-.686-1.551-1.524V9.525c0-.838.698-1.524 1.551-1.524h6.594c.853 0 1.551.686 1.551 1.524v4.571h1.406s.812-.09 1.309.381.388 1.191.388 1.191v6.238s.006.644.776.619.776-.619.776-.619v-8.128l1.164-1.191zM10.134 9.144c-.533 0-.97.428-.97.952v2.476h7.418v-2.476c0-.523-.436-.952-.97-.952h-5.479zm13.394.298h.001s.472.472.472 1.083c0 .842-.523 1.18-.523 1.18l-1.577 1.549-.781-.76 1.577-1.549s.14-.075.14-.325c0-.292-.17-.405-.17-.405l-1.033-1.058.766-.823 1.128 1.108z"/></svg>