<!-- Generated by IcoMoon.io -->
<svg version="1.1" xmlns="http://www.w3.org/2000/svg" width="32" height="32" viewBox="0 0 32 32">
<title>picture</title>
<path d="M23.406 10.667c0.328 0 0.594 0.267 0.594 0.596v10.807c0 0.329-0.266 0.596-0.594 0.596h-14.812c-0.328 0-0.594-0.267-0.594-0.596v-10.807c0-0.329 0.266-0.596 0.594-0.596h14.812zM22.35 21.046h0.001v-8.73h-12.691v8.73h1.359l2.287-6.347 3.355 4.381 1.334-1.648 3.024 3.614h1.331zM20.679 14.676c0 0.551-0.448 0.997-1.001 0.997s-1.001-0.446-1.001-0.997c0-0.551 0.448-0.997 1.001-0.997s1.001 0.446 1.001 0.997z"></path>
</svg>
