<svg xmlns="http://www.w3.org/2000/svg" width="100%" height="100%" viewBox="0 0 32 32"><path d="M23.487 16.938c-.319-.642-.683-1.27-1.052-1.777.248-.416.187-1.017 0-1.442-.092-.211-.262-.388-.328-.588-.109-.33-.099-.714-.178-1.028-.079-.318-.161-.616-.274-.909-.731-1.906-2.284-2.967-4.728-3.193h-.997c-.763.077-1.469.22-2.023.468-.612.274-.999.576-1.434 1.002-.734.717-1.553 1.892-1.654 3.192-.009.118.022.224 0 .321-.02.092-.119.16-.164.267-.079.193-.101.395-.109.614-.227.292-.437.83-.259 1.31-.637.513-1.267 1.053-1.708 1.884-.345.651-.653 1.488-.561 2.525.026.279.076.683.301.734.116.027.267-.031.368-.08.277-.132.552-.414.725-.681.085-.133.101-.306.232-.401.074.118.092.254.137.374.28.749.721 1.354 1.285 1.803.095.077.237.14.26.241-.593.055-1.072.182-1.284.574-.085.157-.149.496-.123.721.053.466.601.727 1.011.855.773.241 1.777.322 2.773.254.897-.061 1.48-.256 2.078-.601.094-.055.164-.137.246-.147.064-.008.217.017.355.027.096.007.251 0 .342.014.238.034.502.169.766.254 1.355.432 3.654.534 4.756-.161.158-.099.379-.311.424-.561.068-.375-.204-.603-.41-.761-.334-.258-.694-.41-1.08-.628.412-.407.737-.908.971-1.483.074-.184.126-.4.273-.548.113.209.223.415.369.628.123.18.293.458.532.454.143-.002.277-.117.369-.24.182-.244.276-.639.3-1.002.06-.882-.18-1.628-.505-2.284l.002.001z"/></svg>