<!-- Generated by IcoMoon.io -->
<svg version="1.1" xmlns="http://www.w3.org/2000/svg" width="32" height="32" viewBox="0 0 32 32">
<title>skyrock</title>
<path d="M15.47 18.126l0.001 0.001c0.309 0.646 0.363 1.333 0.287 2.034-0.074 0.681-0.287 1.312-0.702 1.871-0.499 0.672-1.189 1.070-1.979 1.322-0.675 0.215-1.37 0.302-2.075 0.324-0.831 0.026-1.657-0.021-2.466-0.227-1.175-0.299-2.108-0.921-2.693-1.985-0.319-0.581-0.453-1.214-0.499-1.869l-0.008-0.106c0.403 0.003 0.919 0.002 1.322 0.002 0.37 0 1.303 0 1.303 0-0.002 0.042 0.022 0.173 0.022 0.173 0.047 0.259 0.127 0.51 0.254 0.744 0.212 0.392 0.547 0.654 0.954 0.817 0.963 0.386 1.993 0.408 2.982 0.113 0.496-0.148 0.855-0.462 0.99-0.981 0.12-0.465 0.001-0.847-0.375-1.155-0.351-0.289-0.76-0.473-1.182-0.631-0.547-0.205-1.117-0.331-1.681-0.481-0.809-0.216-1.645-0.346-2.421-0.672-0.622-0.262-1.182-0.601-1.505-1.223-0.268-0.514-0.445-1.047-0.468-1.629-0.027-0.674 0.047-1.328 0.348-1.943 0.422-0.863 1.129-1.411 2.032-1.734 0.647-0.232 1.319-0.333 2.004-0.367 0.96-0.049 1.911 0 2.827 0.316 1.413 0.487 2.211 1.491 2.514 2.903 0.047 0.214 0.070 0.426 0.080 0.645l-0.001 0.087-2.434 0.002c0 0-0.011-0.221-0.226-0.654-0.325-0.652-0.865-0.993-1.568-1.121-0.643-0.117-1.287-0.124-1.92 0.057-0.679 0.194-1.085 0.723-1.085 1.379 0 0.301 0.14 0.534 0.363 0.726 0.335 0.286 0.738 0.449 1.157 0.567l2.689 0.714c0.587 0.136 1.153 0.321 1.702 0.567 0.663 0.299 1.15 0.77 1.457 1.414zM19.562 18.511l0.002-0.001 2.714 8.157c0 0-0.525-0.374-0.769-0.547-1.723-1.222-3.539-2.511-5.263-3.731l0.047-0.079c0.285-0.468 0.498-1.018 0.604-1.603 0.656 0.465 1.996 1.411 1.996 1.411s-0.112-0.332-0.16-0.477l-1.27-3.795 3.742-2.638c-1.432-0.001-3.208-0.002-4.64 0.002l-0.006-0.155c-0.020-0.421-0.023-0.843-0.084-1.262-0.148-1.017-0.548-1.921-1.242-2.695-0.426-0.475-0.93-0.85-1.514-1.121l-0.092-0.043 1.541-4.597 2.705 8.142 8.791-0.002-7.104 5.038z"></path>
</svg>
