<svg xmlns="http://www.w3.org/2000/svg" width="100%" height="100%" viewBox="0 0 32 32"><path d="M23.82 13.978h.001c.237.243.237.645.005.888l-1.737 1.778c-.122.124-.282.187-.437.187-.16 0-.316-.063-.437-.187-.238-.243-.238-.645 0-.888l1.737-1.778c.238-.244.63-.244.869 0zm-7.823.459c-.337 0-.614-.283-.614-.628v-2.513c0-.345.277-.628.614-.628s.614.283.614.628v2.513c0 .345-.277.628-.614.628zm-5.212 2.206c-.122.124-.277.187-.432.187-.16 0-.316-.063-.437-.187l-1.737-1.778c-.238-.243-.237-.645 0-.888s.63-.244.869 0l1.738 1.778c.238.243.238.645 0 .888zm9.03.448v.001c1.062.888 1.798 2.128 2.075 3.492.066.334-.143.663-.47.736-.044.005-.083.011-.128.011-.282 0-.537-.198-.598-.493-.465-2.258-2.446-3.899-4.709-3.899s-4.244 1.641-4.709 3.899c-.066.34-.393.554-.72.481-.332-.068-.542-.402-.47-.736.282-1.364 1.023-2.604 2.081-3.492 1.074-.9 2.429-1.398 3.824-1.398s2.751.498 3.824 1.398z"/></svg>