<!-- Generated by IcoMoon.io -->
<svg version="1.1" xmlns="http://www.w3.org/2000/svg" width="32" height="32" viewBox="0 0 32 32">
<title>e-fuel-next</title>
<path d="M24 12.817v-1.925h-0.485v-1.444c0-0.265-0.217-0.481-0.485-0.481s-0.485 0.216-0.485 0.481v1.444h-0.969v-1.444c0-0.265-0.217-0.481-0.485-0.481s-0.485 0.216-0.485 0.481v1.444h-0.485v1.925c0 0.897 0.621 1.644 1.454 1.86v1.513c0 1.003 0.262 1.825 0.514 2.617 0.233 0.727 0.455 1.413 0.455 2.196-0.005 0.241-0.086 1.448-1.454 1.448s-1.454-1.208-1.454-1.444v-3.85c0-1.905-1.267-2.406-1.938-2.406v-5.79c0-0.531-0.434-0.962-0.969-0.962h-6.793c-0.535 0-0.969 0.431-0.969 0.962v15.408h-0.969v0.962h10.665v-0.962h-0.969v-8.667c0.040 0 0.969 0.015 0.969 1.444v3.85c0 0.832 0.505 2.406 2.423 2.406s2.423-1.574 2.423-2.406c0-0.938-0.253-1.724-0.5-2.491-0.242-0.757-0.469-1.468-0.469-2.326v-1.513c0.838-0.21 1.459-0.958 1.459-1.849v-0.001zM16.727 24.371h-6.789v-9.629h6.789v9.629zM16.727 13.779h-6.789v-4.817h6.789v4.817zM22.062 13.779c-0.535 0-0.969-0.431-0.969-0.962v-0.962h1.938v0.962c0 0.531-0.434 0.962-0.969 0.962z"></path>
</svg>
