<svg xmlns="http://www.w3.org/2000/svg" width="100%" height="100%" viewBox="0 0 32 32"><path d="M5.333 9.333h21.333v13.333H5.333V9.333zm19.948 12V10.721H6.718v10.612h18.563zm-13.056-2.745c0 .281-.229.51-.509.51h-1.357c-.28 0-.509-.229-.509-.51v-1.361c0-.281.229-.51.509-.51h1.357c.28 0 .509.229.509.51v1.361zm0-3.828c0 .281-.229.51-.509.51h-1.357c-.28 0-.509-.229-.509-.51v-1.361c0-.281.229-.51.509-.51h1.357c.28 0 .509.229.509.51v1.361zm3.308 3.828c0 .281-.229.51-.509.51h-1.357c-.28 0-.509-.229-.509-.51v-1.361c0-.281.229-.51.509-.51h1.357c.28 0 .509.229.509.51v1.361zm0-3.828c0 .281-.229.51-.509.51h-1.357c-.28 0-.509-.229-.509-.51v-1.361c0-.281.229-.51.509-.51h1.357c.28 0 .509.229.509.51v1.361zm3.309 3.828c0 .281-.229.51-.509.51h-1.357c-.28 0-.509-.229-.509-.51v-1.361c0-.281.229-.51.509-.51h1.357c.28 0 .509.229.509.51v1.361zm0-3.828c0 .281-.229.51-.509.51h-1.357c-.28 0-.509-.229-.509-.51v-1.361c0-.281.229-.51.509-.51h1.357c.28 0 .509.229.509.51v1.361zm3.309 3.828c0 .281-.229.51-.509.51h-1.357c-.28 0-.509-.229-.509-.51v-1.361c0-.281.229-.51.509-.51h1.357c.28 0 .509.229.509.51v1.361zm0-3.828c0 .281-.229.51-.509.51h-1.357c-.28 0-.509-.229-.509-.51v-1.361c0-.281.229-.51.509-.51h1.357c.28 0 .509.229.509.51v1.361z"/></svg>