<svg xmlns="http://www.w3.org/2000/svg" width="100%" height="100%" viewBox="0 0 32 32"><path d="M16 12.364c2.008 0 3.636 1.628 3.636 3.636S18.008 19.636 16 19.636 12.364 18.008 12.364 16s1.628-3.636 3.636-3.636zm0 6.544c1.604 0 2.908-1.304 2.908-2.908S17.604 13.092 16 13.092c-1.604 0-2.908 1.304-2.908 2.908s1.304 2.908 2.908 2.908zm7.636-3.272c.2 0 .364.164.364.364s-.164.364-.364.364h-2.18c-.2 0-.364-.164-.364-.364s.164-.364.364-.364h2.18zm-3.78-3.128h.001c-.092 0-.184-.036-.256-.104-.144-.144-.144-.372 0-.516l1.54-1.548c.144-.14.376-.14.516 0 .144.144.144.376 0 .516L20.113 12.4c-.068.072-.164.108-.256.108zM16 10.908c-.2 0-.364-.16-.364-.364v-2.18c0-.2.164-.364.364-.364s.364.164.364.364v2.18c0 .2-.164.364-.364.364zM11.888 12.4h.001l-1.548-1.544c-.14-.144-.14-.372 0-.516.144-.14.376-.14.516 0l1.544 1.544c.144.144.144.372 0 .516-.068.072-.164.108-.256.108s-.184-.036-.256-.108zm-.98 3.6c0 .2-.16.364-.364.364h-2.18C8.164 16.364 8 16.2 8 16s.164-.364.364-.364h2.18c.2 0 .364.164.364.364zm.98 3.6c.14-.144.372-.144.512 0 .144.144.144.372 0 .516l-1.544 1.544c-.068.072-.164.108-.256.108s-.184-.036-.256-.108c-.14-.144-.14-.372 0-.516l1.544-1.544zM16 21.092c.2 0 .364.16.364.364v2.18c0 .2-.164.364-.364.364s-.364-.164-.364-.364v-2.18c0-.2.164-.364.364-.364zm4.112-1.492h.001l1.54 1.544c.144.144.144.376 0 .516-.068.072-.164.108-.256.108s-.184-.036-.256-.108l-1.544-1.544c-.144-.144-.144-.372 0-.516s.372-.144.516 0z"/></svg>