<!-- Generated by IcoMoon.io -->
<svg version="1.1" xmlns="http://www.w3.org/2000/svg" width="32" height="32" viewBox="0 0 32 32">
<title>update-in-car</title>
<path d="M26.644 24.115l-0.002-0.022c0.012 0.003 0.014 0.010 0.024 0.016 0 0.042-0.020 0.080-0.051 0.105l-0.005 0.008h-0.013v0.005h-0.021v0.005h-0.018v0.005l-0.021 0.005v0.005c-0.007 0.005-0.007 0.009-0.013 0.013 0 0.002 0 0.003 0 0.005 0 0.013 0.003 0.024 0.008 0.034l0.008 0.005 0.005 0.017h0.004v0.008h0.005v0.034c-0.008 0.008-0.004 0.011-0.008 0.017l-0.018 0.013v0.005h-0.008v0.005h-0.008v0.005h-0.013v0.005h-0.005v0.005h-0.018v0.005h-0.013v0.005h-0.018c-0.043 0.014-0.1 0.017-0.143 0.029h-0.030v0.005h-0.026v0.005h-0.030v0.005l-0.089 0.005v0.005l-0.102 0.005h-0.005v0.005h-0.029l-0.051-0.017-0.005-0.008h-0.008l-0.005-0.008h-0.008v-0.008c-0.011-0.013-0.027-0.020-0.045-0.020-0.007 0-0.014 0.001-0.019 0.003v0.005h-0.021v0.005h-0.024c-0.063 0.019-0.138 0.023-0.2 0.042l-0.048 0.005v0.005h-0.021v0.005h-0.021v0.005l-0.043 0.005v0.005h-0.039v0.005h-0.039v0.005h-0.039v0.005l-0.098 0.008v0.005h-0.011v0.005h-0.008v0.005h-0.013v0.005h-0.008v0.005h-0.013v0.005h-0.018v0.005h-0.018v0.005h-0.021v0.005l-0.197 0.017v0.005h-0.021v0.005h-0.021v0.005h-0.018v0.006h-0.021c-0.119 0.038-0.252 0.058-0.367 0.101l-0.072 0.017v0.005h-0.013v0.005h-0.013v0.005l-0.030 0.005v0.005h-0.018v0.005l-0.023-0.001c-0.031 0.007-0.063 0.010-0.097 0.010-0.009 0-0.018 0-0.026-0.001-0.027 0-0.097 0.014-0.115-0.005-0.001 0-0.002 0-0.002 0-0.008 0-0.017 0.002-0.024 0.005l0.001 0.101c-0.011 0.005-0.022 0.008-0.035 0.009l-0.005-0.021-0.184-0.020c-0.005-0.014-0.011-0.029-0.016-0.040l-0.005-0.050h-0.005c-0.005-0.017 0.005-0.037-0.005-0.046 0.001-0.008 0.002-0.017 0.002-0.026 0-0.020-0.002-0.038-0.005-0.055h-0.222l-0.005 0.013h-0.001l-0.005 0.013-0.008 0.005v0.008h-0.005l-0.005 0.013-0.008 0.005v0.008l-0.008 0.005-0.005 0.013-0.013 0.008v0.008l-0.018 0.013v0.008l-0.018 0.013v0.008l-0.021 0.017v0.008l-0.030 0.026-0.005 0.013-0.056 0.050-0.048 0.050h-0.008l-0.026 0.029-0.013 0.005-0.008 0.013h-0.008l-0.013 0.017-0.013 0.005-0.005 0.008h-0.008l-0.005 0.008h-0.008l-0.008 0.013h-0.008l-0.005 0.008-0.013 0.005v0.001h-0.008l-0.005 0.008h-0.008l-0.005 0.008h-0.008l-0.005 0.008h-0.008l-0.005 0.008h-0.008l-0.005 0.008h-0.008l-0.005 0.008h-0.007l-0.005 0.008-0.018 0.005-0.005 0.008-0.018 0.005-0.005 0.008h-0.008l-0.008 0.008h-0.008v0.005h-0.008v0.005h-0.008l-0.005 0.008h-0.008v0.005h-0.008v0.005h-0.013v0.005h-0.008v0.005h-0.008v0.005l-0.026 0.008v0.005h-0.013v0.005h-0.008v0.005h-0.013v0.005h-0.008v0.005l-0.021 0.005v0.005l-0.039 0.008v0.005h-0.008v0.005h-0.015v0.005h-0.008v0.005h-0.018v0.005h-0.013v0.005l-0.030 0.005v0.005l-0.034 0.005v0.005l-0.034 0.005v0.005h-0.021v0.005h-0.021v0.004h-0.018v0.005h-0.026v0.005h-0.023v0.005h-0.026v0.005h-0.030v0.005h-0.034v0.005h-0.039v0.005h-0.048v0.005h-0.066c-0.020 0.004-0.040 0.005-0.062 0.005-0.008 0-0.015 0-0.019-0.001-0.018 0.002-0.036 0.002-0.054 0.002-0.032 0-0.063-0.002-0.091-0.006h-0.056v-0.005h-0.048v-0.005h-0.034v-0.005l-0.089-0.008c-0.025-0.008-0.060-0.014-0.085-0.021h-0.021v-0.005l-0.051-0.008v-0.005l-0.034-0.005v-0.005l-0.030-0.005v-0.005h-0.013v-0.005h-0.014v-0.005h-0.018v-0.005h-0.013v-0.005h-0.013v-0.005h-0.013v-0.005l-0.026-0.005v-0.005h-0.009v-0.005l-0.026-0.005v-0.005h-0.008v-0.005h-0.013v-0.005h-0.008v-0.005h-0.013v-0.005l-0.018-0.005v-0.005h-0.006v-0.005l-0.018-0.005v-0.005h-0.013v-0.005l-0.026-0.008v-0.005h-0.008v-0.001h-0.008v-0.005h-0.008v-0.005h-0.008l-0.008-0.008h-0.008l-0.005-0.008h-0.008l-0.008-0.008h-0.008v-0.005h-0.008l-0.005-0.008h-0.008v-0.003h-0.008l-0.005-0.008-0.013-0.005v-0.005l-0.018-0.005v-0.005l-0.013-0.005-0.005-0.008h-0.008l-0.005-0.008h-0.008l-0.008-0.013h-0.008l-0.005-0.008h-0.008l-0.008-0.013h-0.008l-0.008-0.013h-0.008l-0.008-0.013h-0.008l-0.008-0.013h-0.008l-0.018-0.021h-0.008l-0.018-0.021h-0.008l-0.039-0.042h-0.008l-0.034-0.038-0.021-0.017v-0.008l-0.039-0.034v-0.008l-0.008-0.005v-0.005l-0.013-0.008v-0.014l-0.030-0.021h-0.008l-0.005-0.008h-0.008v-0.005h-0.008l-0.005-0.008-0.018-0.005v-0.005l-0.013-0.005-0.005-0.008h-0.008l-0.005-0.008h-0.008l-0.005-0.008h-0.008l-0.010-0.014c-0.026-0.014-0.049-0.034-0.067-0.058l-0.439 0.008v0.013c-0.004 0.002-0.007 0.005-0.008 0.008l-0.085 0.013h-0.068v0.005c-0.025 0.008-0.066-0.002-0.089 0.005h-0.107v0.005h-0.125c-0.027 0.004-0.055 0.006-0.084 0.006-0.015 0-0.030-0.001-0.043-0.002h-0.036c-0.026 0.005-0.053 0.007-0.079 0.007-0.015 0-0.030-0.001-0.043-0.002v-0.005l-0.034 0.005c-0.011-0.001-0.020-0.008-0.034-0.005-0.002 0.002-0.005 0.005-0.009 0.005-0.002 0-0.003-0.001-0.004-0.001v-0.005h-0.026v0.005h-0.018v-0.005l-0.037 0.005c-0.016-0.002-0.033-0.002-0.050-0.002s-0.034 0-0.048 0.002h-0.501c-0.021 0.004-0.043 0.005-0.066 0.005-0.008 0-0.018 0-0.025-0.001l-1.254 0.005-0.556-0.005c-0.027 0.004-0.054 0.006-0.082 0.006-0.014 0-0.028-0.001-0.040-0.002h-0.697c-0.027 0.004-0.053 0.006-0.080 0.006-0.013 0-0.027-0.001-0.038-0.002h-0.261c-0.017-0.002-0.034-0.002-0.051-0.002-0.030 0-0.061 0.002-0.087 0.006h-0.326c-0.014-0.001-0.027-0.002-0.040-0.002-0.027 0-0.054 0.002-0.077 0.006h-0.307l-0.452 0.005v-0.005l-0.018-0.005v-0.005h-0.162v0.005h-0.015c-0.014-0.001-0.030-0.002-0.045-0.002-0.030 0-0.059 0.002-0.085 0.006h-0.077l-0.132 0.008v0.005h-0.31c-0.005 0-0.008 0-0.013 0-0.024 0-0.048-0.004-0.069-0.009h-0.026v-0.005h-1.166v0.005l-0.018 0.013c0 0.041-0.007 0.080-0.018 0.113-0.023 0.009-0.056 0.014-0.081 0.021l-0.024-0.001c-0.027 0.009-0.056 0.014-0.087 0.014-0.002 0-0.003 0-0.005 0l-0.026-0.021 0.008-0.168h-0.252l-0.005 0.008h-0.008l-0.008 0.013h-0.002l-0.008 0.013-0.013 0.005-0.005 0.008h-0.008l-0.005 0.008h-0.008l-0.008 0.013h-0.008l-0.005 0.008-0.013 0.005v0.005h-0.008l-0.005 0.008h-0.008l-0.005 0.008h-0.008l-0.005 0.008h-0.008l-0.005 0.008-0.026 0.008-0.005 0.008-0.026 0.008-0.030 0.034c-0.024 0.026-0.051 0.049-0.081 0.071l-0.039 0.042h-0.008l-0.021 0.026h-0.008l-0.018 0.021h-0.008l-0.013 0.017h-0.008l-0.008 0.013h-0.008l-0.008 0.013h-0.008l-0.008 0.013h-0.008l-0.005 0.008h-0.008l-0.008 0.013h-0.008l-0.005 0.008-0.013 0.005v0.005l-0.018 0.005-0.005 0.008h-0.008l-0.005 0.008h-0.008l-0.005 0.008h-0.009v0.005h-0.008l-0.005 0.008h-0.008l-0.008 0.008h-0.008v0.005h-0.009l-0.005 0.008h-0.008l-0.008 0.008h-0.008v0.005h-0.008v0.005h-0.010v0.005h-0.008v0.005l-0.026 0.008v0.005h-0.013v0.005h-0.008v0.005l-0.026 0.008v0.005h-0.013v0.005h-0.008v0.005h-0.013v0.005l-0.018 0.005v0.005l-0.023 0.005v0.005h-0.008v0.005l-0.026 0.005v0.005h-0.008v0.005l-0.026 0.005v0.005h-0.013v0.005h-0.013v0.005l-0.043 0.008v0.005l-0.034 0.005v0.005h-0.018v0.005h-0.018v0.005h-0.018v0.005h-0.021v0.005l-0.043 0.005v0.005h-0.026c-0.035 0.011-0.084 0.011-0.12 0.021h-0.039v0.005l-0.061-0.001c-0.027 0.005-0.056 0.007-0.085 0.007-0.017 0-0.034-0.001-0.047-0.002v-0.005c-0.027-0.008-0.072 0.002-0.098-0.005h-0.059v-0.005h-0.051c-0.045-0.013-0.105-0.009-0.149-0.021l-0.059-0.005v-0.005l-0.072-0.008v-0.005h-0.021v-0.005h-0.021v-0.005h-0.017v-0.005h-0.017v-0.005l-0.039-0.005v-0.005h-0.013v-0.005l-0.044-0.008c-0.097-0.032-0.188-0.075-0.268-0.123l-0.026-0.008-0.005-0.008-0.017-0.005-0.005-0.008h0.001v-0.005h-0.008l-0.005-0.008h-0.008l-0.005-0.008h-0.008l-0.005-0.008-0.017-0.005-0.008-0.013h-0.008l-0.005-0.008h-0.008l-0.005-0.008-0.013-0.005-0.008-0.013h-0.008l-0.008-0.013h-0.008l-0.013-0.017h-0.008l-0.013-0.017h-0.008l-0.021-0.026h-0.008l-0.039-0.042h-0.008l-0.034-0.038-0.021-0.017v-0.008l-0.039-0.034v-0.008l-0.008-0.005v-0.005l-0.017-0.013v-0.008l-0.017-0.013v-0.008l-0.017-0.013v-0.008l-0.013-0.008v-0.008l-0.013-0.008v-0.008l-0.008-0.005-0.005-0.013h-0.005v-0.008l-0.008-0.005v-0.008l-0.013-0.008-0.005-0.017-0.008-0.005-0.005-0.013h-0.005l-0.005-0.017-0.008-0.005-0.005-0.017-0.008-0.005v-0.008c-0.009-0.011-0.016-0.024-0.022-0.038l-0.128-0.005h-0.017v-0.005h-0.013v-0.005h-0.013v-0.005h-0.013v-0.005h-0.008v-0.005h-0.008v-0.005c-0.026 0-0.051 0.005-0.072 0.013l-0.024-0.001c-0.023 0.005-0.047 0.008-0.072 0.008-0.017 0-0.034-0.002-0.049-0.004-0.026-0.003-0.016-0.010-0.026-0.026-0.002-0.002-0.006-0.002-0.008-0.008-0.002 0-0.003 0-0.005 0-0.028 0-0.056-0.003-0.081-0.008h-0.055v-0.005h-0.048v-0.005l-0.095-0.005v-0.005h-0.034c-0.040-0.011-0.089-0.015-0.128-0.026l-0.128-0.005-0.017 0.005v-0.005h-0.034v-0.005h-0.021v-0.005h-0.017v-0.005h-0.081v-0.005h-0.048l-0.107-0.005v-0.005c-0.023-0.005-0.058 0-0.081-0.005s-0.060 0.002-0.081-0.005h-0.079v-0.005l-0.102-0.005-0.006 0.012-0.021 0.005v0.005h-0.059v0.005l-0.026 0.008v0.005h-0.087c-0.023 0.004-0.046 0.006-0.069 0.006-0.012 0-0.024-0.001-0.035-0.002v-0.005h-0.034v-0.005h-0.021v-0.005l-0.029-0.001c-0.051-0.015-0.098-0.038-0.139-0.066l-0.043-0.047h-0.010l-0.005-0.008h-0.008v-0.001h-0.008v-0.005h-0.013v-0.005l-0.030-0.005v-0.005l-0.030-0.005v-0.005h-0.013v-0.005h-0.013v-0.005h-0.008v-0.005l-0.039-0.013v-0.005l-0.026-0.008v-0.005l-0.115-0.013v-0.005h-0.030v-0.005h-0.030v-0.005h-0.026v-0.005l-0.039-0.005v-0.005h-0.021v-0.005h-0.013v-0.005h-0.026v-0.005h-0.048v-0.005h-0.048v-0.005l-0.090-0.005v-0.005h-0.030v-0.005h-0.030v-0.002h-0.017v-0.005h-0.013v-0.005l-0.043-0.008v-0.005l-0.017-0.005v-0.005l-0.021-0.005-0.005-0.008h-0.008l-0.013-0.017-0.026-0.021v-0.008l-0.008-0.005v-0.008h-0.005l-0.005-0.017h-0.005l-0.008-0.038h-0.005v-0.008h-0.005l-0.005-0.026h-0.005v-0.013h-0.005v-0.013h-0.005v-0.013h-0.005v-0.013h-0.005v-0.013h-0.005l-0.021-0.076c0 0 0-0.001 0-0.002 0-0.013 0.005-0.024 0.013-0.032h0.008l0.008-0.013h0.008c0.003-0.002 0.003-0.005 0.008-0.008l-0.017-0.141h0.005v-0.008h0.005v-0.008h0.005v-0.013h0.005v-0.026h0.002v-0.008l0.034-0.026v-0.017l-0.005 0.001c-0.001-0.005-0.001-0.008-0.001-0.013 0-0.015 0.003-0.029 0.009-0.042l0.008-0.005v-0.008l0.008-0.005v-0.007l0.017-0.013v-0.008l0.017-0.013v-0.008l0.013-0.008 0.005-0.013 0.008-0.005v-0.008l0.008-0.005v-0.008l0.008-0.004c0.011-0.019 0.018-0.041 0.018-0.064 0-0.005-0.001-0.009-0.003-0.019-0.012-0.032-0.027-0.062-0.040-0.087v-0.013h-0.005v-0.017h-0.005v-0.021h-0.005v-0.017h-0.005l-0.048-0.282v-0.029c-0.011-0.036-0.010-0.091-0.021-0.13v-0.047h-0.005l0.001-0.055c-0.005-0.032-0.007-0.064-0.007-0.096s0.002-0.065 0.007-0.092v-0.063h0.005l0.008-0.080 0.030-0.067 0.008-0.005 0.005-0.017 0.008-0.005 0.005-0.013h0.005l0.005-0.017 0.013-0.008v-0.008l0.008-0.005 0.005-0.013h0.005v-0.008l0.013-0.008v-0.008l0.017-0.013 0.005-0.013 0.008-0.005v-0.008l0.021-0.017v-0.008l0.025-0.020v-0.008l0.008-0.005 0.013-0.017 0.013-0.008v-0.008l0.008-0.005v-0.013l0.013-0.008 0.005-0.017 0.013-0.005 0.005-0.008h0.008v-0.005l0.008-0.005v-0.013l0.008-0.005v-0.005h0.008l0.008-0.013h0.008l0.051-0.055 0.021-0.017c-0.006-0.023 0-0.010 0.005-0.029h0.008c0.003-0.014 0.011-0.015 0.017-0.026h0.013c0.004-0.026 0.014-0.019 0.030-0.029l0.008-0.013 0.026-0.005 0.053-0.053h0.008l0.077-0.080 0.005 0.002c-0.005-0.014-0.009-0.027-0.012-0.043 0.008-0.008 0.010-0.017 0.017-0.026l0.017-0.013v-0.008l0.026-0.021 0.008-0.013 0.115-0.026c0.083-0.029 0.178-0.050 0.256-0.084l0.026-0.005v-0.005h0.008v-0.005h0.013v-0.005l0.017-0.005v-0.005h0.013v-0.005l0.026-0.008v-0.005h0.008v-0.005h0.008v-0.005h0.015v-0.005h0.008v-0.005h0.011v-0.005h0.008v-0.005h0.008v-0.005h0.008v-0.005l0.017-0.005v-0.005l0.017-0.005v-0.005l0.017-0.005v-0.006l0.021-0.005v-0.005l0.026-0.008v-0.005h0.008v-0.005h0.008v-0.005h0.008v-0.005h0.008v-0.005h0.008l0.008-0.008h0.008l0.005-0.008 0.017-0.005-0.001-0.004c0.016-0.006 0.034-0.009 0.051-0.009 0.002 0 0.004 0 0.005 0h0.034l0.017-0.021h0.008l0.013-0.017h0.009l0.005-0.008 0.017-0.005v-0.005h0.008v-0.005l0.026-0.008v-0.005h0.013v-0.005l0.017-0.005v-0.005h0.008v-0.005h0.013v-0.005l0.017-0.005v-0.005h0.011v-0.005l0.017-0.005v-0.001h0.011v-0.005h0.008v-0.005h0.013v-0.005l0.017-0.005v-0.005h0.013v-0.005h0.008v-0.005l0.021-0.005v-0.005h0.013v-0.005h0.008v-0.005h0.014v-0.005l0.017-0.005v-0.005h0.013v-0.005h0.008v-0.005h0.013v-0.005h0.008v-0.005h0.013v-0.005h0.008v-0.005h0.014v-0.005h0.008v-0.005h0.013v-0.005h0.013v-0.005h0.007v-0.005h0.013v-0.005h0.008v-0.005l0.026-0.005v-0.005h0.008v-0.005l0.039-0.008v-0.005h0.008v-0.002l0.039-0.008v-0.005h0.008v-0.005l0.026-0.005v-0.005l0.026-0.005v-0.005h0.008v-0.005l0.036-0.008c0.056-0.028 0.119-0.044 0.186-0.044 0-0.017 0-0.030 0.008-0.038 0.012-0.018 0.042-0.020 0.064-0.029v-0.005h0.013v-0.005h0.005v-0.005h0.013v-0.005h0.008v-0.005l0.026-0.005v-0.005h0.008v-0.005l0.026-0.005v-0.005h0.008v-0.005h0.014v-0.005l0.048-0.005v-0.005h0.014v-0.005l0.039-0.008v-0.005h0.013v-0.005h0.013v-0.005h0.013v-0.005h0.013v-0.005h0.013v-0.005h0.013v-0.005l0.026-0.005v-0.005h0.017v-0.005l0.026-0.005v-0.005l0.026-0.005v-0.005h0.009v-0.005h0.013v-0.005h0.013v-0.005h0.013v-0.005h0.014v-0.005l0.039-0.008v-0.005h0.021v-0.005h0.021v0.005h0.043v0.005l0.033-0.001c0.011 0.004 0.023 0.007 0.036 0.009v-0.005h0.013v-0.005h0.013v-0.005h0.013v-0.005h0.013v-0.002h0.013v-0.005h0.013v-0.005h0.008v-0.005h0.013v-0.005h0.013v-0.005h0.013v-0.005h0.013c0.018-0.008 0.041-0.018 0.059-0.026l0.026-0.005v-0.005h0.009v-0.005h0.013v-0.005h0.013v-0.005h0.013v-0.005h0.009c0.107-0.046 0.228-0.075 0.334-0.122l0.026-0.005v-0.005l0.039-0.008c0.018-0.008 0.041-0.018 0.059-0.026h0.013v-0.005h0.013v-0.005h0.013v-0.005h0.013v-0.005h0.008v-0.005l0.039-0.008v-0.005l0.039-0.008v-0.005h0.013v-0.005h0.008v-0.005l0.039-0.008v-0.005h0.013v-0.005h0.013v-0.005h0.013v-0.005h0.013c0.165-0.065 0.351-0.107 0.521-0.168h0.018v-0.005h0.013v-0.005h0.013v-0.005h0.013v-0.005h0.013v-0.005h0.013v-0.005h0.018v-0.005h0.014v-0.005h0.013v-0.005h0.018v-0.005h0.013v-0.005h0.013v-0.005h0.013v-0.005h0.013v-0.005h0.012v-0.005h0.013v-0.005h0.013v-0.005h0.013v-0.002h0.013v-0.005h0.018v-0.005l0.055-0.013v-0.005h0.013v-0.005h0.013v-0.005h0.018v-0.005l0.043-0.008v-0.005l0.030-0.005v-0.005l0.030-0.005v-0.005h0.013v-0.005h0.018v-0.005h0.013v-0.005h0.018c0.046-0.018 0.101-0.031 0.149-0.047h0.018v-0.005h0.018v-0.005h0.013v-0.005h0.018c0.067-0.024 0.146-0.039 0.213-0.063h0.018v-0.005h0.018v-0.005h0.018v-0.005h0.018c0.076-0.026 0.168-0.040 0.243-0.067l0.085-0.017c0.098-0.032 0.212-0.047 0.311-0.080h0.021l0.068-0.021 0.039-0.005v-0.005h0.008l0.018-0.021h0.008l0.005-0.008 0.043-0.008v-0.005l0.043-0.005v-0.005l0.039-0.005v-0.005h0.021v-0.003h0.021v-0.005h0.014v-0.005h0.018v-0.005l0.048-0.005c0.074-0.023 0.164-0.028 0.239-0.050h0.026c0.020-0.006 0.049-0.011 0.068-0.017h0.026c0.030-0.008 0.068-0.013 0.095-0.021h0.026c0.030-0.009 0.069-0.012 0.098-0.021l0.051-0.005c0.046-0.014 0.101-0.016 0.149-0.029h0.030v-0.005h0.026v-0.005h0.026v-0.005h0.026c0.050-0.015 0.115-0.015 0.166-0.029l0.059-0.005v-0.005h0.030v-0.005h0.034v-0.005h0.034v-0.005h0.034v-0.005h0.030v-0.005h0.034v-0.006h0.034v-0.005h0.030v-0.005h0.039c0.044-0.012 0.101-0.009 0.143-0.021h0.039c0.062-0.017 0.144-0.008 0.205-0.026h0.048v-0.005h0.048v-0.005h0.051v-0.005h0.051v-0.005h0.058v-0.005h0.055v-0.005h0.059v-0.005l0.098-0.005h0.048c0.023-0.005 0.063 0.003 0.089-0.005s0.072 0.003 0.098-0.005v-0.005h0.128v-0.005h0.223c0.023-0.003 0.046-0.005 0.069-0.005 0.010 0 0.020 0.001 0.025 0.002 0.024-0.002 0.050-0.003 0.075-0.003 0.040 0 0.079 0.002 0.112 0.007h0.040c0.018-0.002 0.037-0.002 0.055-0.002 0.032 0 0.063 0.002 0.091 0.006l0.243 0.008v0.005h0.043l0.081 0.005v0.005h0.053v0.005h0.051v0.005h0.048v0.005h0.048v0.005h0.039v0.005h0.035v0.005h0.039v0.005l0.064 0.005v0.005h0.034c0.031 0.009 0.075 0.012 0.107 0.021l0.056 0.005c0.041 0.012 0.095 0.017 0.136 0.029h0.021v0.005h0.021v0.005h0.021v0.005h0.021v0.005h0.021c0.083 0.026 0.177 0.038 0.256 0.067l0.081 0.017v0.005h0.013v0.005h0.013v0.005h0.013v0.005h0.014v0.005h0.013l0.013 0.021 0.043 0.013v0.005l0.018 0.005v0.005h0.013v0.005l0.018 0.005v0.005h0.013v0.005h0.005v0.005h0.013v0.005l0.018 0.005v0.005h0.013v0.005l0.018 0.005v0.005h0.013v0.005l0.018 0.005v0.005h0.014v0.005l0.018 0.005v0.005h0.013v0.005l0.018 0.005v0.005h0.008v0.005h0.013v0.005l0.018 0.005v0.005h0.013v0.005l0.018 0.005v0.005h0.013v0.005l0.018 0.005v0.005h0.013v0.005l0.018 0.005v0.005h0.006v0.005h0.013v0.005l0.018 0.005h0.013v0.005l0.018 0.005v0.005h0.008v0.005h0.013v0.005l0.018 0.005v0.005h0.008v0.005h0.013v0.005l0.018 0.005v0.005l0.022 0.005v0.005h0.008v0.005h0.008v0.005h0.008v0.005h0.009v0.005l0.018 0.005v0.005h0.008v0.005h0.013v0.005l0.018 0.005v0.005h0.008v0.005h0.013v0.005l0.026 0.008v0.005h0.008v0.005h0.013v0.005l0.026 0.008v0.005h0.008v0.005h0.013v0.005l0.018 0.005v0.005h0.008v0.005h0.013v0.005h0.008v0.005l0.018 0.005v0.005l0.018 0.005v0.005h0.013v0.005l0.026 0.008v0.005h0.008v0.005h0.013v0.005l0.026 0.008v0.005h0.008v0.005h0.008v0.005h0.013v0.005l0.026 0.008v0.005h0.008v0.005h0.013v0.005l0.026 0.008v0.005h0.008v0.005h0.008v0.005h0.022v0.005l0.026 0.008v0.005h0.008v0.005h0.006v0.005h0.008v0.005h0.013v0.005l0.026 0.008v0.005h0.008v0.006h0.008v0.005h0.008v0.005l0.018 0.005v0.005h0.013v0.005l0.026 0.008v0.005h0.008v0.005h0.009v0.005l0.018 0.005v0.005h0.013v0.005h0.008v0.005h0.011v0.005h0.008v0.005h0.008v0.005h0.008v0.005h0.008v0.005h0.008v0.005h0.008v0.005l0.026 0.008v0.005h0.013v0.005l0.018 0.005v0.005l0.068 0.029v0.005h0.008v0.005h0.008v0.005h0.008v0.005l0.026 0.008v0.005h0.011v0.005l0.018 0.005v0.005l0.026 0.008v0.005h0.008v0.005h0.008v0.005h0.008v0.005h0.008v0.005l0.018 0.005v0.005l0.018 0.005v0.002l0.018 0.005v0.005h0.008v0.005h0.008v0.005h0.008v0.005h0.008v0.005h0.008v0.005h0.008v0.005h0.009v0.005h0.008v0.005h0.008v0.005l0.018 0.005v0.005l0.018 0.005v0.005l0.026 0.008v0.005h0.008v0.005h0.007l0.008 0.008h0.008l0.005 0.008 0.018 0.005v0.005h0.008v0.005h0.008v0.005h0.008v0.005h0.008v0.005h0.008v0.005l0.018 0.005v0.005h0.008v0.005h0.008v0.005h0.008v0.005h0.008v0.005l0.018 0.005v0.005l0.026 0.008 0.005 0.008h0.008l0.008 0.008h0.008v0.002h0.008v0.005h0.008v0.005h0.008v0.005h0.005v0.005h0.008v0.005h0.008v0.005h0.008v0.005h0.008v0.005h0.008l0.008 0.008h0.008l0.005 0.008h0.008l0.008 0.008h0.008v0.005h0.008v0.005h0.008v0.005h0.008l0.064 0.038h0.008v0.005h0.008v0.005h0.008v0.005h0.008l0.008 0.008h0.008l0.005 0.008 0.068 0.029 0.005 0.008 0.018 0.005v0.005h0.008v0.005h0.008l0.008 0.008h0.008l0.005 0.008 0.018 0.005v0.005h0.008v0.005h0.008v0.005h0.008l0.008 0.008h0.008l0.005 0.009 0.018 0.005v0.005h0.008v0.005h0.008l0.008 0.008h0.009l0.005 0.008 0.018 0.005v0.005h0.008v0.002h0.008v0.005h0.009l0.008 0.008h0.008l0.005 0.008h0.008l0.008 0.008h-0.001v0.005h0.008v0.005h0.008l0.005 0.008h0.008l0.008 0.008h0.008v0.005h0.008v0.005h0.008l0.005 0.008h0.008l0.008 0.008h0.008v0.005h0.008v0.005h0.008l0.005 0.008h0.008l0.008 0.008h0.008v0.005l0.018 0.005 0.005 0.008h0.008l0.008 0.008h0.008v0.005h0.008v0.005h0.008l0.005 0.008h0.008l0.008 0.008h0.008v0.005h0.008l0.005 0.008h0.008l0.008 0.008h0.008v0.005h0.008l0.005 0.008h0.008l0.008 0.008h0.008v0.005h0.008l0.005 0.008h0.008l0.008 0.008h0.008v0.005h0.008v0.005h0.008l0.005 0.008h0.008l0.008 0.008h0.008v0.005h0.008l0.005 0.008h0.008l0.008 0.008h0.008l0.005 0.008 0.018 0.005 0.008 0.008h0.008l0.005 0.008h0.008v0.005h0.008v0.005h0.008l0.005 0.008 0.018 0.005v0.005l0.021-0.005 0.005-0.008h0.030l0.005-0.008c0.011-0.005 0.036 0.008 0.043 0.008h0.021v0.005l0.026 0.008v0.005l0.018 0.005 0.008 0.013 0.048 0.008v0.005l0.021 0.005v0.005l0.018 0.005v0.005h0.013v0.005l0.026 0.008v0.005l0.018 0.005 0.005 0.008h0.039l-0.002 0.004c0.012 0.002 0.024 0.002 0.037 0.002 0.022 0 0.044-0.002 0.063-0.006h0.048c0.008-0.002 0.008-0.005 0.008-0.005h0.051v-0.005l0.098-0.005v-0.005h0.070c0.010-0.004 0.021-0.005 0.031-0.005 0.005 0 0.008 0 0.012 0.001l0.397 0.080 0.051 0.005c0.040 0.012 0.092 0.014 0.132 0.026l0.056 0.005c0.057 0.017 0.13 0.017 0.188 0.034l0.085 0.008c0.067 0.020 0.154 0.019 0.222 0.038h0.034v0.005l0.128 0.005v0.005h0.059v0.005h0.059v0.005h0.061v0.005h0.059v0.005h0.051v0.005h0.056v0.002l0.107 0.005v0.005h0.048v0.005h0.049v0.005h0.048v0.005h0.048v0.005h0.048v0.005h0.048v0.005h0.043v0.005h0.043v0.005l0.081 0.005c0.050 0.015 0.118 0.011 0.166 0.026l0.064 0.005c0.040 0.012 0.092 0.014 0.132 0.026h0.026c0.034 0.011 0.081 0.015 0.115 0.026h0.021v0.005h0.013l0.005 0.008c0.010 0.004 0.017-0.005 0.021-0.005v0.005h0.026v0.005h0.021v0.005l0.048 0.005v0.005h0.021v0.005h0.021v0.005h0.021v0.005h0.021v0.005l0.039 0.005v0.005h0.021v0.005h0.018v0.005h0.018v0.005h0.021v0.005l0.034 0.005v0.005l0.030 0.005v0.005h0.013v0.005h0.013v0.005h0.013v0.005h0.013v0.005l0.048 0.010c0.098 0.041 0.191 0.088 0.271 0.136h0.008l0.008 0.008h0.008v0.005h0.008l0.005 0.008 0.026 0.008 0.005 0.008 0.018 0.005 0.005 0.008 0.018 0.005 0.005 0.008h0.008v0.005h0.008l0.005 0.008h0.008l0.005 0.008h0.008l0.005 0.008h0.008l0.005 0.008h0.008v0.005l0.013 0.005 0.005 0.008h0.008l0.008 0.013h0.008l0.005 0.008h0.008l0.008 0.013h0.008l0.008 0.013h0.008l0.013 0.017h0.008l0.013 0.017h0.008l0.013 0.017h0.008l0.021 0.026h0.008l0.034 0.038h0.008l0.009 0.013c0.014 0.017 0.031 0.030 0.051 0.042l0.039 0.008v0.005h0.008v0.005h0.013v0.005h0.008v0.005h0.013v0.005h0.008v0.005h0.013v0.005l0.021 0.005v0.005h0.008v0.005h0.013v0.005h0.008v0.005h0.013v0.005l0.018 0.005v0.005h0.013v0.005l0.018 0.005v0.005h0.009v0.002l0.018 0.005v0.005h0.013v0.005l0.018 0.005v0.005h0.008v0.005h0.013v0.005l0.018 0.005v0.005h0.013v0.005l0.026 0.008v0.005h0.008v0.005h0.009v0.005h0.013v0.005l0.026 0.008v0.005h0.009v0.005h0.013v0.005l0.026 0.008v0.005h0.006v0.005h0.008v0.005h0.013v0.005l0.026 0.008v0.005h0.008v0.005h0.008v0.005h0.013v0.005l0.026 0.008v0.005h0.008v0.005h0.008v0.005l0.018 0.005v0.005h0.013v0.005l0.026 0.008v0.005h0.008v0.005h0.009v0.005h0.008v0.005l0.018 0.005v0.005h0.013v0.005h0.010v0.005h0.008v0.005h0.008v0.005h0.008v0.005h0.008v0.005h0.008v0.005h0.008v0.005l0.026 0.008v0.005h0.013v0.005h0.008v0.005h0.008v0.005h0.008v0.005h0.008v0.005h0.008v0.005h0.005v0.001h0.008v0.005h0.008v0.005l0.026 0.008v0.005h0.013v0.005h0.008v0.005h0.008v0.005h0.008v0.005h0.008v0.005h0.011v0.005h0.008v0.005h0.008l0.008 0.008 0.018 0.005 0.013 0.021h0.018v0.005l0.018 0.005v0.005h0.008l0.005 0.008h0.008l0.005 0.008h0.008l0.005 0.008h0.008l0.005 0.008h0.008l0.005 0.008h0.008l0.005 0.008h0.008l0.005 0.008h0.005l0.005 0.008h0.008l0.005 0.008h0.008v0.005l0.013 0.005 0.005 0.008h0.009l0.008 0.013h0.008l0.005 0.008 0.013 0.005v0.005h0.008l0.005 0.008h0.008l0.008 0.013h0.008l0.005 0.008h0.008l0.008 0.013 0.013 0.005 0.005 0.008h0.008l0.005 0.008h0.008l0.005 0.008 0.013 0.005 0.008 0.013h0.008l0.008 0.013h0.008l0.005 0.008 0.013 0.005 0.013 0.017h0.008l0.013 0.017h0.008l0.013 0.017h0.008l0.018 0.021h0.008l0.048 0.050 0.064 0.059v0.005l0.026 0.021v0.008l0.021 0.017v0.008l0.008 0.005v0.008l0.008 0.005 0.034 0.065c0.004 0.024 0.006 0.049 0.006 0.074 0 0.014-0.001 0.026-0.002 0.038h-0.005v0.042c-0.007 0.023-0.011 0.056-0.018 0.080l0.004 0.116c0.002 0.016 0.002 0.031 0.002 0.047 0 0.029-0.002 0.057-0.006 0.082v0.059h-0.005v0.047h-0.005l-0.005 0.097-0.039 0.256c0 0.018-0.012 0.088 0 0.101 0.003 0.034 0.029 0.027 0.048 0.042 0.005 0.005 0.005 0.015 0.008 0.021l0.026 0.021v0.029zM20.097 12.378h0.001l-4.053 4.613-4.052-4.613h2.408v-4.378h3.321v4.378h2.375z"></path>
</svg>
