<!-- Generated by IcoMoon.io -->
<svg version="1.1" xmlns="http://www.w3.org/2000/svg" width="32" height="32" viewBox="0 0 32 32">
<title>route-next</title>
<path d="M16.903 20.238h-0.001c2.037 0.426 4.347 0.908 4.688 2.595 0.101 0.502-0.026 0.987-0.369 1.4-1.157 1.399-5.061 2.201-11.887 2.434 0-0.029-0.002-0.64-0.002-0.956 8.327-0.293 10.572-1.389 11.145-2.082 0.162-0.197 0.215-0.384 0.17-0.609-0.216-1.071-2.283-1.503-3.943-1.85-1.586-0.331-2.839-0.592-3.229-1.365-0.216-0.43-0.19-0.904 0.077-1.33 0.465-0.745 1.599-1.265 2.759-1.265v0.953c-0.897 0-1.691 0.413-1.94 0.813-0.116 0.187-0.079 0.314-0.034 0.403 0.182 0.362 1.56 0.649 2.567 0.86zM18.378 5.333h0.002c2.363 0 4.287 1.98 4.287 4.415 0 0.616-0.176 1.737-1.696 4.364-0.778 1.342-1.544 2.452-1.576 2.498l-1.016 1.466-1.016-1.466c-0.033-0.047-0.799-1.155-1.576-2.498-1.52-2.626-1.696-3.748-1.696-4.364 0-2.434 1.923-4.415 4.287-4.415zM18.383 12.422c1.597 0 2.891-1.282 2.891-2.864s-1.294-2.864-2.891-2.864c-1.597 0-2.891 1.282-2.891 2.864s1.294 2.864 2.891 2.864z"></path>
</svg>
