<svg xmlns="http://www.w3.org/2000/svg" width="100%" height="100%" viewBox="0 0 32 32"><path d="M25.29 14.739c-.564-.556-1.27-.819-2.103-.772l-2.271.241H14.78l-4.714-4.874-.538.556 4.928 5.094.005-.005.015.016c2.037 0 6.314-.005 6.477-.005l2.291-.241c.605-.031 1.108.147 1.514.556 1.153 1.14 1.127 3.593 1.148 3.624 0 .095-.015 2.505-1.148 3.63-.411.404-.914.588-1.534.551l-2.23-.236c-.117 0-3.073-.005-4.206-.005-1.595 0-4.475 0-4.664.005-.254.005-.783.079-1.341.163-.533.073-1.133.163-1.412.173-.315.01-.503-.105-.65-.2-.081-.053-.153-.1-.249-.121l-.091-.01c-.538 0-.97-.184-1.321-.557-1.016-1.082-.96-3.351-.966-3.372v-.026c0-.026-.051-2.29.966-3.372.35-.378.783-.556 1.321-.556l.091-.01c.091-.026.167-.074.249-.121.147-.095.335-.21.65-.2.28.01.883.095 1.412.173.559.079 1.153.158 1.407.163v-.788c-.213-.005-.792-.084-1.305-.152-.579-.084-1.174-.168-1.488-.179-.549-.021-.894.2-1.077.315-.686.016-1.31.284-1.808.814-1.107 1.182-1.178 3.309-1.178 3.829v.194c0 .509.066 2.652 1.178 3.835.478.509 1.082.777 1.793.793.214.147.553.357 1.092.336.32-.01.914-.095 1.488-.178.513-.073 1.041-.147 1.255-.152.178-.005 3.058-.005 4.643-.005 1.438 0 4.14.005 4.165.005l2.21.236c.853.047 1.56-.215 2.124-.772 1.391-1.376 1.382-4.092 1.382-4.197.015-.1.015-2.826-1.372-4.197h-.002zm-8.905 6.717l2.032.236c.127.016.249-.073.274-.205l.071-.336c.3-1.461.3-2.972 0-4.433l-.066-.331c-.025-.131-.147-.22-.274-.205l-2.027.247.066.546c.158 1.303.163 2.621 0 3.924l-.076.557h.001zm-6.447-5.037l-.919-.241c-.127-.016-.249.074-.275.205l-.066.336c-.305 1.461-.305 2.972 0 4.433l.066.331c.025.131.147.22.275.205l.914-.242-.066-.546c-.163-1.303-.163-2.621 0-3.924l.072-.556-.001-.001z"/></svg>