<svg xmlns="http://www.w3.org/2000/svg" width="24" height="24">
<path d="M20 7.5c.58.436.967 1.227 1 2V14c0 2.168-1.727 3.902-3.878 3.968L5.5 18a2.496 2.496 0 0 1-2-1h13.498A3 3 0 0 0 20 14.002V7.5Zm2 2c.58.436.967 1.227 1 2v2.977c-.002 3.015-2.485 5.492-5.5 5.523h-10a2.496 2.496 0 0 1-2-1h11.997A4.505 4.505 0 0 0 22 14.5l.001-5Zm-9-4.51V4h3v1h.5C17.844 5 19 6 19 7.5v6a2.5 2.5 0 0 1-2.392 2.498L3.5 16a2.5 2.5 0 0 1-2.498-2.392L1 7.5a2.5 2.5 0 0 1 2.392-2.498L4 5V4h3v1l6-.01ZM3.5 6a1.5 1.5 0 0 0-1.497 1.412L2 13.5a1.5 1.5 0 0 0 1.412 1.498L16.5 15a1.5 1.5 0 0 0 1.497-1.412L18 7.5a1.5 1.5 0 0 0-1.412-1.497L3.5 6Zm12 1v1.5H17v1h-1.5V11h-1V9.5H13v-1h1.5V7h1ZM7 8.5v1H3v-1h4Z"/>
</svg>