<svg xmlns="http://www.w3.org/2000/svg" width="24" height="24">
<path d="M8 3c3.141 0 3.97.91 4 2.047V11L13 11c1.25 0 2 .75 2 2v6c0 .75.25 1 1 1s1-.25 1-1v-7.5c-1.25-.25-2-1.25-1.989-2.263L15 6.5h1V5a.5.5 0 0 1 1 0v1.5h1V5a.5.5 0 0 1 .5-.5c.237 0 .5.224.5.5v1.5h1v2.75c0 1.185-.75 2-2 2.25v7.249c0 1.245-.5 2.25-2 2.25-1.458 0-1.972-.95-1.999-2.147L13.998 13c-.023-.724-.336-.981-.998-.999h-1v9H4V5.11C4 3.945 4.8 3 8 3Zm0 1c-2 0-3 .37-3 1.11V20h6V5.06C11 4.355 10 4 8 4Zm11 3.5h-2.996C16.001 8.167 16 8.75 16 9.25c0 .75.5 1.25 1.5 1.25S19 10 19 9.25V7.5Z"/>
</svg>