<svg id="Default" xmlns="http://www.w3.org/2000/svg" viewBox="0 0 24 24"><defs><style>.cls-1{fill-rule:evenodd;}</style></defs><circle cx="11.5" cy="10.5" r="0.5"/><circle cx="11.5" cy="12.5" r="0.5"/><path class="cls-1" d="M15,10a2,2,0,0,0-2-2H10a2,2,0,0,0-2,2v3a2,2,0,0,0,2,2h3a2,2,0,0,0,2-2Zm-1,3a1,1,0,0,1-1,1H10a1,1,0,0,1-1-1V10a1,1,0,0,1,1-1h3a1,1,0,0,1,1,1Z"/><path class="cls-1" d="M5.73,17H7V7H17.12c.26,0,.43,0,.76.42l.91,1.07c.21.26.38.59-.11,1.49l-2.15,4h1.13l1.9-3.55a2.14,2.14,0,0,0,0-2.59l-.91-1.08A1.82,1.82,0,0,0,17.12,6H5.75A1.8,1.8,0,0,0,4,7.84v8.33A1.79,1.79,0,0,0,5.75,18H14V17H5.73ZM5,7.84v0Z"/><path class="cls-1" d="M20,17c-.1-1-1-2-3-2v1H15v1h2v1H15v1h2v1c2,0,2.88-1,3-2h2V17Z"/></svg>