<svg xmlns="http://www.w3.org/2000/svg" width="24" height="24">
<path d="M12 3.5c2.338 0 4.456.944 5.993 2.472L19.5 4.464V8h-3.536l1.321-1.321A7.5 7.5 0 1 0 19.5 12h1A8.5 8.5 0 1 1 12 3.5ZM13.5 6c.237 0 .5.224.5.5V8h1v2.75c0 1.185-.75 2-2 2.25v3.249c0 1.245-.5 2.25-2 2.25-1.458 0-1.971-.95-1.999-2.147L8.998 14.5c-.023-.724-.336-.981-.998-.999v-1c1.25 0 2 .75 2 2v2c0 .75.25 1 1 1s1-.25 1-1V13c-1.25-.25-2-1.25-1.989-2.263L10 8h1V6.5a.5.5 0 0 1 1 0V8h1V6.5a.5.5 0 0 1 .5-.5Zm.5 3h-2.996L11 10.75c0 .75.5 1.25 1.5 1.25s1.5-.5 1.5-1.25V9Z"/>
</svg>