<svg xmlns="http://www.w3.org/2000/svg" width="24" height="24">
<path d="M19 6v1.5h3.5a.5.5 0 0 1 0 1H19v3h3.5a.5.5 0 0 1 0 1H19V14h-4a3.998 3.998 0 0 1-3.966-3.5h-.298c-1.94.005-6.236.115-6.236 2.5 0 1.191 1.323 1.852 2.723 2.553C8.76 16.32 10.5 17.19 10.5 19c0 3.337-6.5 3.492-9.142 3.5H1v-1c7.396 0 8.5-1.567 8.5-2.5 0-1.155-1.244-1.812-2.596-2.489l-.127-.063C5.24 15.679 3.5 14.809 3.5 13c0-3.362 5.027-3.495 7.242-3.5h.292A3.998 3.998 0 0 1 15 6h4Zm-1 1h-3a2.998 2.998 0 0 0-2.966 2.567v.866A2.998 2.998 0 0 0 15 13h3V7Z"/>
</svg>