<svg xmlns="http://www.w3.org/2000/svg" viewBox="0 0 32 32" width="100%" height="100%"><path d="M12.588 21.137a7.757 7.757 0 0 1-1.756-.425 1.96 1.96 0 0 1 .25-.413l1.15-1.831s.169-.306.431-.587c.8-3.287 3.75-5.731 7.288-5.731.837 0 1.644.144 2.4.4-.488-4.519-4.306-8.037-8.95-8.037-4.969 0-9 4.031-9 9 0 4.831 3.813 8.762 8.594 8.975a7.566 7.566 0 0 1-.406-1.35zm2.787-14.412l.069-.669a7.714 7.714 0 0 1 4.4 3.044 1.43 1.43 0 0 1-.131.056L17.1 10.269s-1.575.494-1.775-.769c-.006.006-.044-2.65.05-2.775zM9.65 15.356s-.494 1.356-2.175 2.881a7.65 7.65 0 0 1-1.619-5l2.862.694s1.387.456.931 1.425zm.419-4.937L7.088 9.325a7.698 7.698 0 0 1 4.219-3.175c.05.575.262 3.056.119 3.556 0 0-.056 1.006-1.356.713z"/><path d="M21.681 17.025a3.045 3.045 0 0 0-1.087-.456 7.942 7.942 0 0 1-.962 1.637 1.94 1.94 0 0 1-.288-.344s-.406-.469-.844-.994a3.144 3.144 0 0 0-1.706 2.781c0 .712.244 1.363.644 1.894a9.024 9.024 0 0 0 4.244-4.519z"/><path d="M19.944 25.837c-3.413 0-6.188-2.775-6.188-6.188s2.775-6.188 6.188-6.188 6.188 2.775 6.188 6.188-2.775 6.188-6.188 6.188zm0-10.499c-2.375 0-4.313 1.937-4.313 4.312s1.938 4.313 4.313 4.313 4.313-1.938 4.313-4.313-1.931-4.313-4.313-4.313z"/><path d="M26.663 27.488a.955.955 0 0 1-.663-.275l-.031-.031-.006-.006-2.9-2.9 1.325-1.325 2.931 2.931a.931.931 0 0 1 0 1.325.92.92 0 0 1-.656.281z"/></svg>