<!-- Generated by IcoMoon.io -->
<svg version="1.1" xmlns="http://www.w3.org/2000/svg" width="32" height="32" viewBox="0 0 32 32">
<title>icon_qq-share</title>
<path d="M25.256 16.275c-0.411-0.846-0.881-1.675-1.356-2.343 0.32-0.549 0.241-1.341 0-1.902-0.119-0.278-0.338-0.512-0.423-0.776-0.14-0.435-0.128-0.942-0.229-1.356-0.102-0.419-0.207-0.812-0.353-1.198-0.942-2.513-2.944-3.912-6.095-4.21-0.428 0-0.857 0-1.285 0-0.984 0.101-1.893 0.29-2.608 0.617-0.789 0.361-1.288 0.76-1.849 1.321-0.946 0.945-2.002 2.495-2.132 4.209-0.012 0.155 0.028 0.296 0 0.423-0.026 0.121-0.154 0.211-0.212 0.352-0.102 0.254-0.13 0.521-0.141 0.81-0.292 0.385-0.563 1.094-0.334 1.727-0.821 0.676-1.633 1.388-2.202 2.484-0.445 0.858-0.842 1.962-0.723 3.329 0.033 0.368 0.098 0.901 0.388 0.968 0.149 0.036 0.344-0.041 0.475-0.105 0.357-0.174 0.712-0.546 0.934-0.898 0.11-0.175 0.13-0.404 0.299-0.529 0.096 0.156 0.119 0.335 0.176 0.493 0.361 0.987 0.93 1.785 1.656 2.378 0.123 0.101 0.306 0.185 0.335 0.318-0.765 0.073-1.382 0.24-1.655 0.757-0.11 0.207-0.192 0.654-0.159 0.951 0.068 0.614 0.775 0.959 1.303 1.127 0.996 0.318 2.291 0.424 3.575 0.335 1.156-0.080 1.908-0.338 2.678-0.793 0.121-0.072 0.212-0.18 0.317-0.194 0.082-0.011 0.28 0.023 0.458 0.035 0.124 0.009 0.324 0 0.441 0.018 0.307 0.045 0.647 0.223 0.987 0.335 1.746 0.57 4.71 0.704 6.13-0.212 0.204-0.131 0.488-0.41 0.546-0.74 0.088-0.494-0.263-0.795-0.529-1.004-0.431-0.34-0.895-0.54-1.392-0.828 0.531-0.536 0.95-1.197 1.251-1.955 0.096-0.242 0.163-0.527 0.352-0.722 0.146 0.275 0.288 0.547 0.476 0.828 0.158 0.237 0.378 0.604 0.686 0.599 0.184-0.003 0.357-0.154 0.476-0.317 0.234-0.322 0.356-0.843 0.387-1.321 0.077-1.163-0.232-2.147-0.651-3.012z"></path>
</svg>
