<!-- Generated by IcoMoon.io -->
<svg version="1.1" xmlns="http://www.w3.org/2000/svg" width="100%" height="100%" viewBox="0 0 32 32">
<title>icon_sport-hood_pcm</title>
<path d="M5.275 14.575c0 0 0 0 0 0s0 0 0 0z"></path>
<path d="M21.125 13.75l4.275-2.981-0.531-0.775-4.056 2.819c0 0-0.45-0.281-0.706-0.431-1.556-0.919-3.019-1.781-4.106-1.781-3.088 0-6.556 1.35-9.912 2.656-0.388 0.15-0.769 0.3-1.144 0.444-0.338 0.131-0.85 0.762-1 0.956-0.462 0.594-0.7 1.081-0.7 1.438 0 0.063 0 0.587 0.031 0.869 0.050 0.506 0.263 0.962 0.644 1.4l0.106 0.125 2.063 0.381c0.506 0.988 1.519 1.613 2.65 1.613 0.912 0 1.762-0.413 2.325-1.119l9.587-0.006c0.563 0.706 1.419 1.125 2.331 1.125 0.95 0 1.831-0.45 2.394-1.212 0.431-0.038 1.387-0.125 1.913-0.169 0.275-0.025 0.563-0.225 0.762-0.387 0.444-0.375 0.712-1.137 0.712-2.050v-0.069l-0.019-0.063c-0.125-0.431-0.544-1.269-1.875-2.063l-0.525 0.775c1.063 0.613 1.387 1.231 1.481 1.487-0.012 0.631-0.194 1.106-0.375 1.256-0.106 0.087-0.212 0.156-0.256 0.175-0.694 0.056-2.1 0.188-2.113 0.188l-0.231 0.019-0.125 0.2c-0.375 0.606-1.025 0.969-1.731 0.969-0.688 0-1.325-0.344-1.706-0.919l-0.144-0.212-0.994 0.012h-9.563l-0.137 0.206c-0.381 0.569-1.019 0.906-1.7 0.906-0.831 0-1.575-0.5-1.888-1.269l-0.1-0.238-2.225-0.406c-0.188-0.244-0.294-0.494-0.319-0.75-0.019-0.194-0.025-0.625-0.025-0.769 0.013-0.3 0.831-1.331 1.119-1.525 0.375-0.144 0.75-0.287 1.125-0.438 3.275-1.275 6.662-2.594 9.575-2.594 0.831 0 2.319 0.881 3.631 1.656 0.294 0.175 0.975 0.569 0.975 0.569z"></path>
</svg>
