<!-- Generated by IcoMoon.io -->
<svg version="1.1" xmlns="http://www.w3.org/2000/svg" width="100%" height="100%" viewBox="0 0 32 32">
<title>icon_menu_dots</title>
<path d="M9.079 15.979c0 1.484-1.203 2.687-2.688 2.687s-2.688-1.203-2.688-2.688c0-1.484 1.203-2.688 2.688-2.688s2.688 1.203 2.688 2.688z"></path>
<path d="M18.642 15.979c0 1.484-1.203 2.687-2.688 2.687s-2.688-1.203-2.688-2.688c0-1.484 1.203-2.688 2.688-2.688s2.688 1.203 2.688 2.688z"></path>
<path d="M28.306 15.979c0 1.484-1.203 2.687-2.688 2.687s-2.688-1.203-2.688-2.688c0-1.484 1.203-2.688 2.688-2.688s2.688 1.203 2.688 2.688z"></path>
</svg>
