<svg xmlns="http://www.w3.org/2000/svg" viewBox="0 0 32 32" width="100%" height="100%"><title>icon_corporate_sales</title><path d="M23.631 9.957v15.701h5.778V9.957h-5.778zm4.52 14.443h-3.262v-2.243h3.261V24.4zm0-3.501h-3.248l-.014-2.243h3.248l.014 2.243zm0-3.501h-3.262v-2.243h3.261v2.243zm0-3.491h-3.262v-2.254h3.261v2.254zM17.882 14.364c.163.163.108.12.24.305v-.251h2.947v2.241s1.066.503 1.066 1.082V5.201l-9.091-.052-.001 8.517c.441.008.881.041 1.317.063 0 0 3.099.213 3.522.636zm.241-6.905h2.947v2.445h-2.947V7.459zm0 3.511h2.947v2.445h-2.947V10.97zm-3.995-3.511h2.929v2.445h-2.929V7.459zm-.018 3.511h2.947v2.445H14.11V10.97z"/><path d="M22.341 23.421c-.009-.104-.009-.198-.009-.302-.009-.368-.019-.746-.019-1.115 0-.104 0-.208-.009-.302a24.767 24.767 0 0 0-.038-.841 8.262 8.262 0 0 0-.113-.945 1.006 1.006 0 0 0-.321-.567l-.028-.028a4.879 4.879 0 0 0-.709-.557c-.019-.009-.028-.009-.038-.019s-.009-.009-.009-.019c.095-.009.17-.019.255-.028a.842.842 0 0 0 .302-.085.331.331 0 0 0 .161-.161c.009-.028.019-.057.028-.095a.356.356 0 0 0-.019-.17.898.898 0 0 0-.378-.538 1.947 1.947 0 0 0-.236-.123 2.484 2.484 0 0 0-.52-.113c-.047 0-.085 0-.132.009-.104.019-.189.094-.236.217a.73.73 0 0 0-.066.303c-.009.123 0 .236 0 .359 0 .019.009.028 0 .038-.009.028-.019.047-.047.047-.189-.028-.378-.019-.567-.019-.009-.019-.028-.047-.038-.076a27.25 27.25 0 0 0-.263-.511 19.658 19.658 0 0 0-.456-.821l-.027-.047c-.028-.047-.047-.085-.076-.132a10.237 10.237 0 0 0-.436-.663c-.132-.185-.27-.367-.414-.547a1.162 1.162 0 0 0-.671-.406l-.173-.036a8.04 8.04 0 0 0-.365-.068c-.331-.047-.652-.095-.992-.142-.264-.028-.529-.047-.784-.066l-.463-.028-.063-.003a40.664 40.664 0 0 0-1.313-.04l-.22-.004c-.019 0-.047-.009-.066-.009h-.879c-.019 0-.038.009-.066.009-.331.009-.671.009-1.011.019-.321.009-.642.028-.964.047l-.727.057c-.34.028-.68.076-1.011.132-.161.028-.321.066-.482.095a1.808 1.808 0 0 0-.387.094 1.068 1.068 0 0 0-.453.302 7.328 7.328 0 0 0-.614.812 16.073 16.073 0 0 0-1.077 1.937c-.009.019-.019.047-.038.066-.094-.009-.189-.019-.293-.009a3.321 3.321 0 0 0-.293.038c-.038-.019-.047-.066-.047-.123a1.713 1.713 0 0 0-.009-.435.968.968 0 0 0-.076-.217.355.355 0 0 0-.302-.189 1.374 1.374 0 0 0-.765.198.918.918 0 0 0-.435.586c-.009.019-.009.047-.009.085-.009.161.047.255.189.321.189.085.387.113.595.123h.151c-.019.038-.038.038-.057.047-.179.113-.35.217-.51.35a2.663 2.663 0 0 0-.368.359.58.58 0 0 0-.104.198c-.028.161-.066.321-.085.482-.028.265-.047.529-.076.794-.009.123-.019.246-.019.378 0 .019-.009.047-.009.085v1.304c0 .038.009.066.009.095l.028 1.427c0 .274-.009.538-.009.812.009.397.019.794.038 1.19.009.265.038.529.095.784.019.113.066.208.104.302a.415.415 0 0 0 .331.236c.009 0 .019.009.038.009h2.012c.151-.066.236-.198.293-.34.038-.113.066-.217.076-.331 0-.019 0-.038.009-.066h.179c.066-.009.132-.009.189-.009a.23.23 0 0 0 .17-.104.7.7 0 0 1 .076-.113c.095 0 .179-.009.264 0 .123.009.246.019.378.019s.264.028.387.047c.189.019.378.047.557.066.274.028.548.047.822.066.161.009.321.009.482.019.784.019 1.578.009 2.371.009.879-.009 1.757 0 2.645 0 .623 0 1.256 0 1.88-.009.321 0 .633-.019.954-.038a7.28 7.28 0 0 0 1.105-.132c.227-.047.453-.038.68-.038.019 0 .038.009.047.028s.019.028.019.047a.257.257 0 0 0 .217.151c.066.009.132.009.208.019.019.057.028.123.047.189.028.085.047.17.094.255.066.142.18.227.331.255.009 0 .019.009.028.009h1.861c.038-.009.085-.009.123-.019a.529.529 0 0 0 .378-.302c.076-.161.123-.321.151-.491.047-.236.076-.472.095-.709l.028-.576c.009-.038.009-.066.009-.095v-.746-1.115-.095zm-6.357-6.603a.235.235 0 0 1-.066-.047.453.453 0 0 0-.236-.113 2.204 2.204 0 0 0-.746-.028c-.066.009-.123.028-.189.047a.467.467 0 0 0-.264.255c-.019.047-.038.085-.057.132-.038.095-.066.18-.104.274-.066.18-.123.368-.18.557 0 .009-.009.019-.009.028-.047 0-.095 0-.142.009a.1.1 0 0 0-.057.019.107.107 0 0 1-.076.028c-.208-.009-.406-.009-.614-.009h-1.077c-.293 0-.576.009-.869.009-.028 0-.057.009-.076.009a.668.668 0 0 1-.236 0c-.057-.019-.123-.028-.179.009-.009.009-.019.009-.028.009-.095-.028-.198-.009-.293-.009h-.066c-.047-.151-.104-.293-.151-.444-.057-.17-.104-.34-.161-.51-.009-.047-.038-.095-.057-.142a.449.449 0 0 0-.331-.265c-.264-.066-.529-.095-.794-.038a.522.522 0 0 0-.387.255c0 .009-.009.009-.009.019h-.009c-.076-.113-.009-.255.076-.331a.492.492 0 0 1 .274-.123c.161-.019.331-.047.501-.066.227-.019.453-.047.69-.066l1.209-.057c.038 0 .057 0 .085.028.104.113.246.17.387.189.123.019.255.019.387.038.019 0 .047.009.066.009.246.009.501-.009.746-.047a.812.812 0 0 0 .378-.17.16.16 0 0 1 .095-.028c.151.009.293.009.444.019.189.019.378.028.567.047l.576.057c.208.019.406.047.605.085a.527.527 0 0 1 .283.113.337.337 0 0 1 .104.189c.009-.009-.009.019-.009.057z"/></svg>