<svg xmlns="http://www.w3.org/2000/svg" viewBox="0 0 32 32" width="100%" height="100%"><path d="M16 10.319c-3.137 0-5.681 2.544-5.681 5.681s2.544 5.681 5.681 5.681 5.681-2.544 5.681-5.681-2.544-5.681-5.681-5.681zm.006 10.225v-9.088c2.5.006 4.538 2.044 4.538 4.544 0 2.506-2.031 4.544-4.538 4.544zM27.931 15.431h-3.406c-.313 0-.569.256-.569.569s.256.569.569.569h3.406c.313 0 .569-.256.569-.569s-.256-.569-.569-.569zM22.025 10.544c.144 0 .294-.056.4-.169l2.413-2.412c.225-.219.225-.581 0-.806-.219-.219-.581-.219-.806 0l-2.406 2.419c-.225.225-.225.581 0 .806.113.106.256.162.4.162zM16 8.044c.313 0 .569-.256.569-.569V4.069c0-.313-.256-.569-.569-.569s-.569.256-.569.569v3.406c0 .319.256.569.569.569zM9.575 10.375c.113.113.256.169.4.169s.294-.056.4-.169c.225-.225.225-.581 0-.806L7.963 7.157c-.219-.219-.581-.219-.806 0-.219.225-.219.581 0 .806l2.419 2.412zM8.044 16c0-.313-.256-.569-.569-.569H4.069c-.313 0-.569.256-.569.569s.256.569.569.569h3.406c.319 0 .569-.256.569-.569zM9.575 21.625l-2.412 2.413c-.219.225-.219.581 0 .806.112.113.256.169.4.169s.294-.056.4-.169l2.412-2.413c.225-.225.225-.581 0-.806-.219-.225-.581-.225-.8 0zM16 23.956c-.313 0-.569.256-.569.569v3.406c0 .313.256.569.569.569s.569-.256.569-.569v-3.406c0-.319-.256-.569-.569-.569zM22.425 21.625c-.225-.225-.581-.225-.806 0s-.225.581 0 .806l2.413 2.413c.113.113.256.169.4.169s.294-.056.4-.169c.225-.219.225-.581 0-.806l-2.406-2.413z"/></svg>