<svg xmlns="http://www.w3.org/2000/svg" viewBox="0 0 32 32" width="100%" height="100%"><path d="M25.906 11.2V8.8h-.6V7c0-.331-.269-.6-.6-.6s-.6.269-.6.6v1.8h-1.2V7c0-.331-.269-.6-.6-.6s-.6.269-.6.6v1.8h-.6v2.4c0 1.119.769 2.05 1.8 2.319v1.887c0 1.25.325 2.275.637 3.263.288.906.563 1.762.563 2.738-.006.3-.106 1.806-1.8 1.806s-1.8-1.506-1.8-1.8v-4.8c0-2.375-1.569-3-2.4-3V6.394c0-.662-.538-1.2-1.2-1.2H8.494c-.662 0-1.2.537-1.2 1.2v19.212h-1.2v1.2H19.3v-1.2h-1.2V14.8c.05 0 1.2.019 1.2 1.8v4.8c0 1.038.625 3 3 3s3-1.962 3-3c0-1.169-.313-2.15-.619-3.106-.3-.944-.581-1.831-.581-2.9v-1.887c1.038-.262 1.806-1.194 1.806-2.306zM16.9 25.606H8.494V13.6H16.9v12.006zm0-13.206H8.494V6.394H16.9V12.4zm6.606 0c-.663 0-1.2-.537-1.2-1.2V10h2.4v1.2c0 .662-.538 1.2-1.2 1.2z"/></svg>