<svg xmlns="http://www.w3.org/2000/svg" viewBox="0 0 32 32" width="100%" height="100%"><path d="M24.837 13.769a.697.697 0 0 0-.981 0l-1.962 1.963a.697.697 0 0 0 .988.981l1.962-1.963a.705.705 0 0 0-.006-.981zM16 14.275a.697.697 0 0 0 .694-.694v-2.775c0-.381-.313-.694-.694-.694s-.694.313-.694.694v2.775c0 .381.313.694.694.694zM10.113 16.712a.697.697 0 0 0 0-.981L8.15 13.768c-.269-.269-.713-.269-.981 0s-.269.713 0 .981l1.962 1.963a.691.691 0 0 0 .982 0zM20.313 17.206c-1.212-.994-2.744-1.544-4.319-1.544s-3.106.55-4.319 1.544a6.853 6.853 0 0 0-2.35 3.856.681.681 0 0 0 .531.813.681.681 0 0 0 .813-.531c.525-2.494 2.763-4.306 5.319-4.306s4.794 1.813 5.319 4.306a.688.688 0 0 0 .675.544c.05 0 .094-.006.144-.012a.693.693 0 0 0 .531-.813 6.779 6.779 0 0 0-2.344-3.856z"/></svg>