<svg xmlns="http://www.w3.org/2000/svg" viewBox="0 0 32 32" width="100%" height="100%"><path d="M15.869 26.194c-2.756 0-5.344-1.075-7.294-3.019-1.35-1.35-2.3-3.044-2.737-4.894-.112-.462.094-.931.513-1.163s.931-.163 1.269.181l.013.012c1.319 1.319 3.075 2.031 4.944 2s3.6-.794 4.881-2.156c2.5-2.662 2.469-6.8-.069-9.425-.031-.031-.063-.069-.1-.1-.337-.338-.413-.844-.181-1.263s.7-.625 1.169-.513c1.831.438 3.512 1.369 4.863 2.7 1.969 1.95 3.063 4.544 3.069 7.3s-1.063 5.356-3.019 7.319c-1.95 1.956-4.537 3.031-7.3 3.031-.012-.012-.012-.012-.019-.012zm-8.882-7.95c.412 1.556 1.237 2.981 2.381 4.125 1.738 1.738 4.044 2.694 6.5 2.694h.006c2.456 0 4.769-.962 6.5-2.7 1.744-1.75 2.7-4.063 2.694-6.519s-.981-4.769-2.738-6.506c-1.144-1.131-2.55-1.938-4.094-2.35 2.9 3.063 2.919 7.838.025 10.919-1.494 1.587-3.506 2.481-5.681 2.512-2.1.038-4.075-.731-5.594-2.175z"/></svg>