<svg xmlns="http://www.w3.org/2000/svg" viewBox="0 0 32 32" width="100%" height="100%"><path d="M6.375 9.319h13.331c.35 1.381 1.6 2.406 3.094 2.406 1.762 0 3.188-1.425 3.188-3.188S24.563 5.349 22.8 5.349c-1.494 0-2.744 1.025-3.094 2.406H6.375c-.431 0-.781.35-.781.781s.35.781.781.781zM22.8 20.456c-1.494 0-2.744 1.025-3.094 2.406H6.375c-.431 0-.781.35-.781.781s.35.781.781.781h13.331c.35 1.381 1.6 2.406 3.094 2.406 1.762 0 3.188-1.425 3.188-3.188s-1.425-3.188-3.188-3.188zM12 16.094c0 1.76-1.427 3.188-3.188 3.188s-3.188-1.427-3.188-3.188c0-1.76 1.427-3.188 3.188-3.188S12 14.333 12 16.094zM14.006 16.094c0 .345-.28.625-.625.625s-.625-.28-.625-.625.28-.625.625-.625.625.28.625.625zM15.988 16.094c0 .345-.28.625-.625.625s-.625-.28-.625-.625.28-.625.625-.625.625.28.625.625zM17.969 16.094c0 .345-.28.625-.625.625s-.625-.28-.625-.625.28-.625.625-.625.625.28.625.625zM19.956 16.094c0 .345-.28.625-.625.625s-.625-.28-.625-.625.28-.625.625-.625.625.28.625.625zM21.938 16.094c0 .345-.28.625-.625.625s-.625-.28-.625-.625.28-.625.625-.625.625.28.625.625zM23.919 16.094c0 .345-.28.625-.625.625s-.625-.28-.625-.625.28-.625.625-.625.625.28.625.625z"/></svg>