<svg xmlns="http://www.w3.org/2000/svg" viewBox="0 0 32 32" width="100%" height="100%"><path d="M19.958 15.95c-3.34 0-6.048 2.703-6.048 6.038s2.708 6.038 6.048 6.038 6.048-2.703 6.048-6.038-2.708-6.038-6.048-6.038zm3.437 10.182c-.218.218-.561.204-.761-.029l-3.458-4.027c-.353.188-.756.294-1.183.294-1.393 0-2.523-1.127-2.523-2.518 0-.254.038-.5.108-.731l1.457 1.455c.218.218.575.218.793 0l.889-.887c.218-.218.218-.574 0-.791l-1.457-1.455c.232-.07.478-.108.733-.108 1.393 0 2.523 1.127 2.523 2.518 0 .427-.107.829-.294 1.181l4.034 3.452c.234.2.247.542.029.76l-.889.887z"/><path d="M12.45 21.987c0-4.139 3.361-7.494 7.508-7.494 1.076 0 2.098.226 3.023.633V5.478H6.99v20.576h6.66c-.759-1.171-1.201-2.567-1.201-4.067zm.057-14.538H21V8.98h-8.493V7.449zm0 4.028H21v1.551h-8.493v-1.551zM8.464 6.999h2.495V9.51H8.464V6.999zm2.498 6.501H8.454v-2.514h2.508V13.5z"/></svg>