<!-- Generated by IcoMoon.io -->
<svg version="1.1" xmlns="http://www.w3.org/2000/svg" width="100%" height="100%" viewBox="0 0 32 32">
<title>icon_hatena-bookmark</title>
<path d="M18.628 18.7c0 0.75-0.138 1.42-0.415 2.011s-0.655 1.080-1.137 1.469c-0.559 0.458-1.173 0.785-1.842 0.979s-1.519 0.292-2.547 0.292h-5.687v-15.451h5.001c1.143 0 1.979 0.041 2.509 0.125s1.055 0.268 1.576 0.552c0.54 0.299 0.941 0.639 1.204 1.142s0.395 1.079 0.395 1.724c0 0.75-0.181 1.412-0.543 1.985s-0.873 1.020-1.533 1.339v0.084c0.927 0.201 1.662 0.618 2.204 1.25s0.815 1.465 0.815 2.5zM13.943 12.353c0-0.22-0.059-0.441-0.176-0.662s-0.325-0.417-0.624-0.524c-0.267-0.095-0.599-0.167-0.995-0.176s-0.514 0.007-1.231 0.007h-0.343v2.849h0.132c0.577 0 1.070-0.009 1.476-0.027s0.727-0.077 0.961-0.179c0.33-0.137 0.546-0.314 0.647-0.532s0.153-0.469 0.153-0.756zM14.829 18.649c0-0.474-0.087-0.839-0.261-1.096s-0.471-0.449-0.889-0.576c-0.285-0.087-0.678-0.156-1.178-0.162s-1.023 0.012-1.568 0.012h-0.359v3.714h-0.174c1.026 0 1.761-0.003 2.204-0.010s0.852-0.093 1.226-0.26c0.38-0.167 0.641-0.389 0.784-0.665s0.214-0.595 0.214-0.956z"></path>
<path d="M25 8l-0.438 10.879h-3.104l-0.438-10.879h3.98z"></path>
<path d="M24.703 21.892c0 0.935-0.758 1.692-1.692 1.692s-1.692-0.758-1.692-1.692c0-0.935 0.758-1.692 1.692-1.692s1.692 0.758 1.692 1.692z"></path>
</svg>
