<!-- Generated by IcoMoon.io -->
<svg version="1.1" xmlns="http://www.w3.org/2000/svg" width="100%" height="100%" viewBox="0 0 32 32">
<title>icon_evening</title>
<path d="M7.866 24.148c4.514 4.515 11.837 4.511 16.347-0.011 2.083-2.089 3.371-4.972 3.371-8.156 0-5.428-3.743-9.981-8.789-11.22-0.653-0.153-1.045 0.552-0.625 0.967q0.063 0.063 0.125 0.125c1.554 1.58 2.514 3.749 2.514 6.142 0 4.838-3.922 8.761-8.761 8.761-2.445 0-4.656-1.002-6.246-2.617l-0.017-0.017c-0.417-0.419-1.125-0.031-0.987 0.545 0.525 2.159 1.599 4.018 3.068 5.482z"></path>
</svg>
