<svg xmlns="http://www.w3.org/2000/svg" width="32" height="32" viewBox="0 0 32 32"><title>icon_instagram</title><path d="M16 6.138c3.212 0 3.594.013 4.863.069 1.175.056 1.813.25 2.231.412.563.219.962.481 1.381.9s.681.819.9 1.381c.163.425.363 1.063.413 2.231.056 1.269.069 1.65.069 4.863s-.012 3.594-.069 4.863c-.056 1.175-.25 1.813-.413 2.231-.219.563-.481.962-.9 1.381s-.819.681-1.381.9c-.425.163-1.063.363-2.231.413-1.269.056-1.65.069-4.863.069s-3.594-.012-4.863-.069c-1.175-.056-1.813-.25-2.231-.413-.563-.219-.963-.481-1.381-.9s-.681-.819-.9-1.381c-.162-.425-.362-1.063-.412-2.231-.056-1.269-.069-1.65-.069-4.863s.013-3.594.069-4.863c.056-1.175.25-1.813.412-2.231.219-.563.481-.963.9-1.381s.819-.681 1.381-.9c.425-.162 1.063-.362 2.231-.412 1.269-.056 1.65-.069 4.863-.069zm0-2.169c-3.269 0-3.675.013-4.963.075-1.281.056-2.156.263-2.919.556-.794.306-1.463.719-2.131 1.388S4.906 7.326 4.599 8.119c-.3.762-.5 1.637-.556 2.919S3.968 12.732 3.968 16s.013 3.675.075 4.962c.056 1.281.263 2.156.556 2.919.306.794.719 1.462 1.388 2.131s1.338 1.081 2.131 1.387c.762.3 1.637.5 2.919.556s1.694.075 4.963.075 3.675-.012 4.963-.075c1.281-.056 2.156-.262 2.919-.556.794-.306 1.462-.719 2.131-1.387s1.081-1.337 1.387-2.131c.3-.762.5-1.637.556-2.919s.075-1.694.075-4.963-.012-3.675-.075-4.963c-.056-1.281-.262-2.156-.556-2.919-.306-.794-.719-1.463-1.387-2.131s-1.337-1.081-2.131-1.388c-.762-.3-1.637-.5-2.919-.556-1.288-.063-1.694-.075-4.963-.075z"/><path d="M16 9.819c-3.412 0-6.181 2.769-6.181 6.181s2.769 6.181 6.181 6.181 6.181-2.769 6.181-6.181S19.412 9.819 16 9.819zm0 10.193a4.012 4.012 0 1 1 0-8.025 4.012 4.012 0 0 1 0 8.025zM23.869 9.575a1.444 1.444 0 1 1-2.888 0 1.444 1.444 0 0 1 2.888 0z"/></svg>