<!-- Generated by IcoMoon.io -->
<svg version="1.1" xmlns="http://www.w3.org/2000/svg" width="100%" height="100%" viewBox="0 0 32 32">
<title>icon_performance</title>
<path d="M26.438 10.693v0c0 0-0-0-0-0-0.054-0.036-0.109-0.072-0.165-0.107-0.010-0.006-0.020-0.013-0.030-0.019-0.057-0.036-0.115-0.072-0.174-0.107-0.001-0.001-0.002-0.001-0.003-0.002-0.056-0.033-0.113-0.066-0.17-0.098-0.015-0.008-0.029-0.016-0.044-0.024-0.059-0.033-0.12-0.066-0.181-0.098-0.057-0.030-0.113-0.058-0.17-0.086-0.019-0.009-0.038-0.018-0.057-0.027-0.038-0.018-0.075-0.036-0.113-0.053-0.022-0.010-0.045-0.020-0.067-0.030-0.034-0.015-0.068-0.031-0.102-0.045-0.024-0.010-0.048-0.020-0.071-0.029-0.033-0.013-0.065-0.027-0.098-0.040-0.024-0.010-0.049-0.018-0.073-0.028-0.032-0.012-0.064-0.024-0.095-0.036-0.025-0.009-0.050-0.017-0.075-0.026-0.031-0.011-0.062-0.022-0.093-0.032-0.025-0.008-0.050-0.016-0.076-0.024-0.031-0.010-0.062-0.020-0.092-0.029-0.025-0.008-0.051-0.014-0.076-0.022-0.030-0.009-0.061-0.017-0.091-0.025-0.026-0.007-0.051-0.013-0.076-0.019-0.030-0.008-0.061-0.015-0.091-0.022-0.026-0.006-0.051-0.011-0.077-0.017-0.030-0.007-0.060-0.013-0.090-0.019-0.026-0.005-0.052-0.010-0.077-0.014-0.029-0.005-0.059-0.011-0.089-0.016-0.026-0.004-0.052-0.008-0.078-0.012-0.029-0.004-0.059-0.009-0.088-0.013-0.026-0.003-0.052-0.006-0.078-0.009-0.029-0.003-0.058-0.007-0.087-0.010-0.026-0.003-0.052-0.005-0.078-0.007-0.029-0.002-0.057-0.005-0.086-0.007-0.026-0.002-0.052-0.003-0.078-0.004-0.029-0.001-0.057-0.003-0.085-0.004-0.026-0.001-0.052-0.001-0.078-0.001-0.020-0-0.040-0.001-0.060-0.001-0.016 0-0.033 0-0.049 0-0.070 0.001-0.139 0.003-0.208 0.007-0.028 0.002-0.056 0.004-0.085 0.007-0.040 0.003-0.081 0.005-0.121 0.009-0.038 0.004-0.075 0.009-0.113 0.014-0.030 0.004-0.060 0.007-0.090 0.011-0.044 0.006-0.087 0.014-0.131 0.022-0.023 0.004-0.046 0.007-0.069 0.012-0.048 0.009-0.096 0.020-0.144 0.031-0.018 0.004-0.036 0.008-0.054 0.012-0.052 0.012-0.104 0.027-0.155 0.041-0.014 0.004-0.027 0.007-0.041 0.011-0.055 0.016-0.11 0.033-0.164 0.052-0.010 0.003-0.020 0.006-0.029 0.009-0.057 0.019-0.114 0.040-0.171 0.062-0.007 0.003-0.013 0.005-0.020 0.007-0.059 0.023-0.118 0.048-0.177 0.073-0.004 0.002-0.008 0.003-0.012 0.005-0.060 0.027-0.12 0.055-0.18 0.084-0.002 0.001-0.004 0.002-0.006 0.003-0.061 0.030-0.122 0.062-0.183 0.095-0.001 0-0.001 0.001-0.002 0.001-0.306 0.168-0.603 0.374-0.889 0.616-0 0-0 0-0 0v0c-0.017 0.015-0.035 0.028-0.052 0.043-0.522 0.451-1.033 0.875-1.541 1.269v0c-0.109 0.085-0.218 0.168-0.326 0.249-0.010 0.007-0.020 0.015-0.029 0.022-0.103 0.077-0.205 0.153-0.308 0.227-0.008 0.006-0.017 0.012-0.025 0.018-0.561 0.406-1.122 0.775-1.693 1.103-0.001 0-0.001 0.001-0.001 0.001-0.115 0.066-0.23 0.13-0.345 0.192v0c-1.114 0.602-2.272 1.047-3.549 1.313v0c-0.062 0.013-0.125 0.025-0.188 0.037-0.039 0.007-0.077 0.015-0.116 0.022-0.059 0.011-0.119 0.021-0.179 0.031-0.046 0.008-0.092 0.015-0.138 0.022-0.056 0.009-0.111 0.018-0.167 0.026-0.095 0.014-0.191 0.027-0.288 0.039-0.040 0.005-0.081 0.009-0.121 0.014-0.070 0.008-0.14 0.016-0.211 0.023-0.043 0.004-0.085 0.008-0.128 0.012-0.074 0.007-0.148 0.013-0.223 0.018-0.037 0.003-0.074 0.006-0.111 0.008-0.112 0.007-0.224 0.014-0.338 0.019-0 0-0.001 0-0.001 0s-0 0-0.001 0c-0.086 0.004-0.172 0.009-0.257 0.016-0.019 0.002-0.039 0.003-0.058 0.005-0.084 0.007-0.168 0.016-0.252 0.026-0.011 0.001-0.023 0.003-0.034 0.005-0.076 0.010-0.153 0.021-0.229 0.033-0.017 0.003-0.033 0.005-0.050 0.008-0.083 0.014-0.165 0.029-0.248 0.046-0.016 0.003-0.031 0.007-0.047 0.010-0.076 0.016-0.151 0.033-0.226 0.051-0.011 0.003-0.022 0.005-0.033 0.008-0.082 0.020-0.164 0.043-0.246 0.066-0.017 0.005-0.033 0.010-0.049 0.014-0.166 0.049-0.33 0.104-0.493 0.165-0.016 0.006-0.031 0.012-0.046 0.018-0.081 0.031-0.162 0.063-0.242 0.097-0.005 0.002-0.010 0.004-0.015 0.007-0.077 0.033-0.154 0.067-0.23 0.103-0.013 0.006-0.025 0.012-0.038 0.017-0.079 0.038-0.158 0.076-0.237 0.117-0.010 0.005-0.020 0.010-0.030 0.016-0.075 0.039-0.149 0.079-0.223 0.121-0.007 0.004-0.014 0.008-0.022 0.012-0.078 0.044-0.155 0.090-0.232 0.138-0.012 0.007-0.023 0.014-0.035 0.021-0.155 0.096-0.308 0.199-0.458 0.307-0.011 0.008-0.023 0.017-0.035 0.025-0.075 0.055-0.15 0.111-0.225 0.169l-0-0c-0.352 0.275-0.69 0.584-1.011 0.925-1.101 1.169-1.634 2.321-1.656 2.369l1.644 0.754c0.004-0.008 0.342-0.728 1.024-1.54 0.052-0.062 0.107-0.125 0.163-0.189 0.001-0.001 0.002-0.002 0.003-0.003 0.057-0.064 0.116-0.127 0.177-0.191 0.066-0.069 0.132-0.135 0.199-0.201 0.024-0.024 0.049-0.047 0.074-0.070 0.042-0.040 0.084-0.079 0.127-0.117 0.031-0.028 0.063-0.056 0.095-0.084 0.034-0.030 0.068-0.058 0.103-0.087 0.038-0.032 0.075-0.063 0.113-0.094 0.014-0.011 0.028-0.022 0.042-0.033 0.109-0.086 0.218-0.168 0.33-0.245 0.002-0.002 0.004-0.003 0.007-0.005 0.058-0.040 0.117-0.079 0.175-0.117 0.008-0.005 0.016-0.011 0.025-0.016 0.060-0.038 0.121-0.076 0.182-0.111 0.791-0.465 1.645-0.72 2.553-0.758 1.201-0.051 2.305-0.227 3.343-0.51 0.041-0.011 0.082-0.022 0.123-0.034 0.064-0.018 0.129-0.037 0.192-0.056 0.041-0.012 0.083-0.025 0.124-0.038 0.215-0.066 0.427-0.137 0.636-0.212 0.044-0.016 0.088-0.032 0.131-0.048 0.058-0.022 0.116-0.044 0.174-0.066 0.046-0.018 0.092-0.036 0.137-0.054 0.064-0.025 0.127-0.051 0.191-0.077 0.080-0.033 0.16-0.067 0.239-0.101 0.052-0.022 0.103-0.046 0.155-0.069 0.050-0.022 0.099-0.044 0.149-0.067 0.051-0.023 0.102-0.047 0.152-0.071 0.053-0.025 0.106-0.051 0.158-0.076 0.046-0.022 0.092-0.044 0.137-0.067 0.089-0.044 0.177-0.089 0.265-0.135 0.045-0.023 0.090-0.047 0.135-0.071 0.054-0.029 0.107-0.057 0.161-0.086 0.046-0.025 0.091-0.050 0.137-0.075 0.057-0.032 0.113-0.064 0.17-0.096 0.984-0.563 1.931-1.228 2.877-1.977 0.008-0.006 0.015-0.012 0.023-0.018 0.068-0.054 0.136-0.108 0.203-0.163 0.031-0.025 0.062-0.050 0.093-0.075 0.058-0.047 0.116-0.094 0.174-0.142 0.043-0.035 0.086-0.071 0.129-0.107 0.050-0.041 0.1-0.083 0.15-0.124 0.056-0.047 0.113-0.095 0.169-0.143 0.038-0.032 0.077-0.065 0.115-0.097 0.097-0.082 0.193-0.165 0.29-0.249 0.038-0.033 0.075-0.064 0.113-0.094 1.013-0.815 2.146-0.912 3.454-0.296 0.014 0.007 0.028 0.013 0.041 0.019 0.042 0.020 0.084 0.041 0.126 0.062 0 0 0.001 0 0.001 0 0.040 0.021 0.080 0.042 0.12 0.063 0.013 0.007 0.026 0.014 0.039 0.022 0.027 0.015 0.053 0.029 0.079 0.044 0.015 0.008 0.030 0.017 0.044 0.026 0.024 0.014 0.049 0.028 0.073 0.043 0.015 0.009 0.030 0.018 0.044 0.027 0.024 0.015 0.048 0.030 0.072 0.044 0.014 0.009 0.027 0.017 0.041 0.026 0.026 0.017 0.052 0.034 0.078 0.051 0.010 0.007 0.020 0.013 0.030 0.020 0.036 0.024 0.071 0.048 0.106 0.072 0.005 0.004 0.011 0.008 0.016 0.011 0.029 0.020 0.058 0.041 0.087 0.061 0.011 0.008 0.022 0.016 0.033 0.024 0.023 0.016 0.045 0.033 0.068 0.049 0.012 0.009 0.023 0.017 0.035 0.026 0.021 0.016 0.042 0.032 0.063 0.048 0.011 0.008 0.022 0.017 0.033 0.025 0.022 0.017 0.044 0.034 0.065 0.051 0.009 0.007 0.017 0.014 0.026 0.021 0.028 0.022 0.055 0.044 0.081 0.065 0.002 0.002 0.004 0.003 0.006 0.005 0.030 0.025 0.059 0.049 0.088 0.073 0.001 0.001 0.003 0.002 0.004 0.003 0.026 0.022 0.052 0.044 0.077 0.066 0.005 0.004 0.010 0.008 0.015 0.013 0.022 0.019 0.043 0.037 0.063 0.055 0.005 0.004 0.010 0.009 0.015 0.013 0.021 0.018 0.041 0.037 0.061 0.055 0.004 0.003 0.007 0.006 0.011 0.010 0.023 0.021 0.045 0.041 0.066 0.061v0c0.255 0.236 0.402 0.401 0.405 0.405l1.363-1.189c-0.034-0.040-0.715-0.813-1.768-1.515z"></path>
<path d="M24.312 12.767c-0.473-0.242-0.904-0.364-1.282-0.364-0.45 0-0.855 0.169-1.273 0.531-0.374 0.323-0.735 0.626-1.086 0.91h3.892v1.313h-5.632c-0.863 0.6-1.687 1.089-2.518 1.5-0.13 0.064-0.26 0.127-0.391 0.187h8.541v1.313h-13.033c-0.509 0.069-1.027 0.116-1.556 0.138-1.218 0.052-2.328 0.594-3.299 1.61-0.599 0.627-0.972 1.262-1.111 1.521v4.668h20.875v-11.548l-0.39-0.444c-0.031-0.034-0.764-0.837-1.735-1.334zM24.563 24.344h-17.188v-1.313h17.188v1.313zM24.563 21.281h-17.188v-1.313h17.188v1.313z"></path>
<path d="M7.375 13.844h5.507c1.294-0.4 2.478-1.016 3.651-1.813h-9.158v-1.313h10.904c0.298-0.243 0.599-0.497 0.904-0.76 0.483-0.417 0.992-0.747 1.526-0.99h-13.334v-1.313h17.188v1.015c0.531 0.138 1.065 0.346 1.598 0.623 0.094 0.049 0.186 0.1 0.277 0.151v-3.539h-20.875v9.833c0.577-0.376 1.183-0.678 1.813-0.902v-0.993z"></path>
</svg>
