<!-- Generated by IcoMoon.io -->
<svg version="1.1" xmlns="http://www.w3.org/2000/svg" width="32" height="32" viewBox="0 0 32 32">
<title>icon_home2</title>
<path d="M25.556 13.131c0-0.238-0.094-1.469-0.275-1.6l-8.962-6.025c-0.262-0.213-0.556-0.213-0.875 0l-8.662 6.025c-0.156 0.131-0.237 1.363-0.237 1.6v12.931c0 0.212 0.069 0.381 0.2 0.519 0.131 0.131 0.294 0.2 0.475 0.2h5.094c0.213 0 0.381-0.069 0.519-0.2 0.131-0.131 0.2-0.306 0.2-0.519v-8.006h6.031v8.012c0 0.212 0.069 0.381 0.2 0.519 0.131 0.131 0.306 0.2 0.519 0.2h5.069c0.212 0 0.381-0.069 0.519-0.2 0.131-0.131 0.2-0.306 0.2-0.519v-12.938z"></path>
</svg>
