<!-- Generated by IcoMoon.io -->
<svg version="1.1" xmlns="http://www.w3.org/2000/svg" width="32" height="32" viewBox="0 0 32 32">
<title>icon_globe</title>
<path d="M4 16q0 5 3.531 8.5t8.5 3.5 8.469-3.5 3.5-8.5q0-5.063-3.375-8.531t-8.625-3.469q-4.938 0-8.469 3.5t-3.531 8.5zM5.938 12.875q0.875-2.188 2.25-3.688t2.156-1.938 0.969-0.438l0.25 1.125-0.938 0.063-0.438-0.125-0.438 0.625q-0.188 0.375-0.25 0.563l0.125 0.563q0.75 0.063 0.75-0.188l-0.125-0.313-0.063-0.375 0.125-0.031t0.594-0.125 1.031 0.031q0.75 0.063 0.969 0.594t0.344 0.594q0.188 0.188 0.125 0.344t-0.375 0.531-0.375 0.5q-0.188 0.375-0.563-0.5 0.375-0.375-0.188-0.5-0.5-0.063-0.5 0.375 0.063 0.125 0.125 0.188 0.188-0.063 0.25 0.125t0 0.438q-0.125 0.875-0.313 1.188-0.125 0.25-0.438 0.406t-0.563 0.156h-0.25q0.125 0.313 0.313 0.625 0.063 0.188 0.031 0.406t-0.063 0.5-0.031 0.344q0 0.313-0.5-0.375-0.188-0.25-0.25-0.5-0.063-0.438-0.625-0.313-0.938 0.25-1.063-0.063 0-0.125-0.25 0t-0.656 0.406l-0.406 0.281q-0.375 0.25-0.063 0.375 0.125 0.063 0.313 0 0.313-0.188 0.563-0.063t0.125 0.438q-0.063 0.25-0.281 0.281t-0.188 0.156 0.281 0.406 0.313 0.469q0.125 0.375 1.438-0.313 0.313-0.125 0.75-0.156t0.625 0.281q0.063 0.438 1.688 0.875 0 0.063 0.406 0.125t0.656 0.188 0.438 0.313q0.188 0.25 0.125 0.5t-0.25 0.594-0.25 0.406q0 0.125-0.344 0.625t-0.406 0.688q-0.25 0.563-0.563 0.813l-0.438 0.563 0.063 0.938q0.25 0.563 0.438 0.875 0.063 0.063-0.031 0.5t-0.219 0.813l-0.063 0.375q-0.938-0.188-1.125-0.625 0-0.125-0.156-0.375t-0.156-0.563q0-0.188-0.188-0.469t-0.438-0.531l-0.313-0.313q-0.375-0.625-0.375-0.938 0-0.125-0.125-0.281t-0.313-0.219l-0.125-0.125q-1.063-0.5-1.25-0.688-0.188-0.25-0.375-1.5l0.188-1.313q0.063-0.063 0.094-0.125t0.125-0.219-0.094-0.281q-0.063-0.063-0.125-0.188t-0.094-0.25-0.031-0.25-0.063-0.188v-0.063l-0.438-0.563q-0.375-0.5-0.438-0.813-0.063-0.188 0.063-0.688 0-0.125-0.063-0.5t-0.063-0.5zM12.625 6.875q0-0.125 0.063-0.438 0.5-0.5 1.438-0.688t1.625-0.125 0.75 0.188q-0.125 0.25-0.469 0.438t-0.406 0.5q0 0.188-0.25 0.531t-0.469 0.625-0.156 0.344q0.25 0.5-0.063 1.125-0.188 0.375-0.625 0-1.5-1.688-1.438-2.5zM16.875 9.875q-0.063-0.125 0.031-0.219t0.219-0.156l0.125-0.063q0.438 0.125 0.469 0.438t-0.094 0.5q-0.063 0.313-0.688-0.375-0.063-0.063-0.063-0.125zM17.313 17.688q-0.063-0.688 0.031-1.125t0.094-0.813q0-0.5 0.844-0.594t1.656 0.031l0.813 0.125q1.063 0.625 1.594 0.531t0.656-0.469l0.188-0.375 1.563-0.625 0.125-0.688-0.813-1-1.313-0.563q-0.563 0.375 0 1.313l-0.031 0.063q-0.031 0.063-0.063 0.25t-0.125 0.281-0.219 0.188-0.25-0.031l-1.313-1.625q-0.438 0.75-1.125 1.188-0.438 0.188-0.844 0.188t-0.781-0.125l-0.313-0.063q-0.438-1.25 0.313-1.625h1.125q0-0.063-0.031-0.188t-0.094-0.438 0.063-0.563q0.063-0.313 0.406-0.313t0.594-0.188q0.313-0.25 0.875 0.25t0.938 0.438q0.313-0.063 0.469-0.125t0.156-0.125 0.094-0.156 0.281-0.156q0.25-0.125 0.5 0t0.375 0.375l0.125 0.188 1.188 0.125q-0.75-1.938-1-2.188h-0.063q0-0.063 0.063 0 0.625 0.125 1.688 2.469t0.563 3.906l-0.438-0.188h-1.375l0.813 1 0.156 0.156t0.344 0.281 0.5 0.125q-0.125 2-1.188 3.844t-2 2.656l-0.938 0.875q-0.25-0.25-0.313-0.531t0-0.406l0.063-0.125 0.313-0.875 0.125-1.438q-0.063-0.063-0.063-0.156t-0.125-0.344-0.281-0.344-0.469-0.156-0.688 0.188q-0.625 0.188-0.938 0.344t-0.563 0.219-0.938 0.125q-1.5 0-1-3zM18.063 9.563q0-0.25 0.125-0.5l0.063-0.25q0.125-0.188 0.625-0.438 0.125 0.063 0.125 0.094t-0.063 0.344-0.063 0.375q-0.125 0.5 0.25 0.875 0.188 0.188-0.063 0.188-0.5 0-0.938-0.313-0.063-0.125-0.063-0.375zM20.313 8.813l0.438-1.063q0.188-0.688 0.25-1.125 0.375-0.188 1.75 1.25-0.188 0.813-0.594 1.219t-0.719 0.406l-0.313 0.063q-0.063 0-0.219-0.031t-0.406-0.219-0.188-0.5z"></path>
</svg>
