<!-- Generated by IcoMoon.io -->
<svg version="1.1" xmlns="http://www.w3.org/2000/svg" width="32" height="32" viewBox="0 0 32 32">
<title>icon_youku</title>
<path d="M5.906 11c0 0-1.128-2.045-1.472-2.576s-0.778-0.752-1.399-0.372c0 0-0.535 0.449-0.083 1.283 0.543 1 2.125 3.588 2.125 3.588l-0.906 1.906c0 0-0.313 0.802 0.328 1.151s1.141-0.401 1.141-0.401l2.953-6.425c0 0 0.406-0.841-0.304-1.188s-1.064 0.239-1.221 0.535-1.163 2.5-1.163 2.5z"></path>
<path d="M11.143 7.893c-1.524 0-2.76 1.368-2.76 3.033s1.236 3.033 2.76 3.033c1.524 0 2.795-1.35 2.795-3.015s-1.271-3.050-2.795-3.050zM11.159 12.513c-0.731 0-1.271-0.638-1.271-1.577s0.557-1.559 1.289-1.559c0.731 0 1.253 0.62 1.253 1.559s-0.54 1.577-1.271 1.577z"></path>
<path d="M14.088 8.891c0 0.359 0 2.050 0 2.866 0 1.099 0.631 2.22 2.475 2.22s2.5-1.012 2.5-2.212c0-0.672 0-2.473 0-2.91s-0.234-0.845-0.727-0.845c-0.585 0-0.717 0.501-0.717 0.876s0 2.334 0 2.62c0 0.48-0.181 1.232-1.017 1.232s-1.053-0.674-1.053-1.213c0-0.234 0.009-2.305 0.009-2.664s-0.121-0.859-0.699-0.859c-0.641 0-0.772 0.531-0.772 0.891z"></path>
<path d="M24.509 8.891c0 0.359 0 2.050 0 2.866 0 1.099 0.631 2.22 2.475 2.22s2.5-1.012 2.5-2.212c0-0.672 0-2.473 0-2.91s-0.234-0.845-0.727-0.845c-0.585 0-0.717 0.501-0.717 0.876s0 2.334 0 2.62c0 0.48-0.181 1.232-1.017 1.232s-1.052-0.674-1.052-1.213c0-0.234 0.009-2.305 0.009-2.664s-0.121-0.859-0.699-0.859c-0.641 0-0.772 0.531-0.772 0.891z"></path>
<path d="M19.323 13.068c0 0.375 0.22 0.876 0.805 0.876 0.493 0 0.816-0.409 0.816-0.845v-1.438c0 0 1.749 1.65 2.108 1.963s0.885 0.336 1.217 0.032c0.309-0.284 0.381-0.692 0.053-1.051l-1.697-1.616c0 0 1.156-1.191 1.484-1.551s0.297-0.719 0-1.016c-0.243-0.243-0.698-0.369-1.057-0.056s-2.108 2.122-2.108 2.122c0-0.672 0-1.090 0-1.527s-0.323-0.845-0.816-0.845c-0.585 0-0.805 0.501-0.805 0.876s0 2.334 0 2.62v1.39"></path>
<path d="M9.959 17.48c-0.319 1.161-0.881 2.22-0.881 2.22l-0.018 5.993h-1.047v-4.212c-0.132 0.211-0.41 0.677-0.563 0.843l-0.95-0.696c0.953-1.395 1.76-2.946 2.346-4.687l1.114 0.538zM9.854 25.726l-0.948-0.799c1.073-0.885 2.271-2.313 2.344-4.615h-1.81v-0.925h1.911v-2.359h1.042v2.359h3.375v0.925l-2.035-0.008v4.221c0 0.123 0.055 0.185 0.166 0.185h0.668c0.127 0 0.218-0.081 0.273-0.242s0.088-1.026 0.097-1.552l1.136 0.333c0 0.322-0.002 0.243-0.002 0.885 0 1.156-0.863 1.575-1.176 1.575l-1.395-0.014c-0.44 0-0.886-0.485-0.886-0.909l-0.007-4.477c0 0-0.043 0.002-0.184 0.002-0.069 2.688-1.569 4.574-2.569 5.415zM15.589 18.447l-0.702 0.772-1.723-1.389 0.726-0.756 1.7 1.372z"></path>
<path d="M24.32 20.466l-0.001-1.246h1.406v-0.875h-1.392v-1.223h-0.974v1.222l-0.698 0.007c0.057-0.323 0.081-0.66 0.071-0.875l-0.999-0c-0.094 1.169-0.202 1.836-0.379 2.597l0.906 0.135c0.088-0.208 0.108-0.401 0.238-0.988h0.876l0.001 1.246h-1.848v0.862h4.557v-0.862h-1.764z"></path>
<path d="M21.719 24.844c0 0.583 0.281 0.882 0.719 0.882s1.76 0 2.469 0 0.813-0.309 0.813-0.726c0-0.417 0-3.147 0-3.147h-3.995c0 0-0.005 2.408-0.005 2.991zM22.75 22.727h2.062l-0.002 1.898c0 0 0.010 0.213-0.238 0.213-0.386 0-1.241 0.001-1.533 0s-0.289-0.213-0.289-0.213v-1.898z"></path>
<path d="M20.865 19.041c-0.292 0-0.914 0-0.914 0v-0.864h1.229v-0.88h-4.571v0.88h1.421v0.864h-1.083c0 0-0.338-0.020-0.338 0.334s0 4.958 0 5.542c0 0.583 0.412 0.809 0.954 0.809s2.563 0 2.896 0c0.333 0 0.729-0.257 0.729-0.851s0-5.24 0-5.375c0-0.313-0.031-0.459-0.323-0.459zM19.95 20.098h0.352v1.453h-0.237c-0.077 0-0.116-0.055-0.116-0.166v-1.286zM18.892 18.177h0.196v0.864h-0.196v-0.864zM17.662 20.098h0.368v0.636c0 0.42-0.203 0.904-0.368 1.079v-1.715zM17.662 22.208l0.505 0.385c0.238-0.259 0.719-0.646 0.725-1.91v-0.586h0.196v1.558c-0.015 0.344 0.214 0.698 0.666 0.719h0.549v0.526h-2.641v-0.693zM20.125 24.84h-2.269c-0.2 0-0.195-0.171-0.195-0.171v-0.89h2.641v0.89c0 0 0.055 0.171-0.177 0.171z"></path>
</svg>
