<svg xmlns="http://www.w3.org/2000/svg" viewBox="0 0 32 32" width="100%" height="100%"><path d="M21.771 13.072v-2.774c0-3.281-2.665-5.942-5.938-5.942-3.279 0-5.938 2.659-5.938 5.942v2.774c-1.312.004-2.375 1.061-2.375 2.384v7.908c0 1.317 1.065 2.384 2.382 2.384h11.861c1.316 0 2.382-1.059 2.382-2.384v-7.908c0-1.315-1.062-2.381-2.375-2.384zm-5.317 6.233v2.65c0 .327-.278.61-.621.61-.333 0-.621-.273-.621-.61v-2.65c-.723-.256-1.055-.852-1.055-1.582 0-.926.75-1.677 1.676-1.677s1.676.751 1.676 1.677c0 .73-.332 1.326-1.055 1.582zm2.942-6.233h-7.125V10.3c0-1.974 1.595-3.566 3.563-3.566 1.963 0 3.563 1.597 3.563 3.566v2.772z"/></svg>