<svg xmlns="http://www.w3.org/2000/svg" width="32" height="32" viewBox="0 0 32 32"><title>icon_hatena-bookmark</title><path d="M18.628 18.7c0 .75-.138 1.42-.415 2.011s-.655 1.08-1.137 1.469c-.559.458-1.173.785-1.842.979s-1.519.292-2.547.292H7V8h5.001c1.143 0 1.979.041 2.509.125s1.055.268 1.576.552c.54.299.941.639 1.204 1.142s.395 1.079.395 1.724c0 .75-.181 1.412-.543 1.985s-.873 1.02-1.533 1.339v.084c.927.201 1.662.618 2.204 1.25s.815 1.465.815 2.5zm-4.685-6.347c0-.22-.059-.441-.176-.662s-.325-.417-.624-.524c-.267-.095-.599-.167-.995-.176s-.514.007-1.231.007h-.343v2.849h.132c.577 0 1.07-.009 1.476-.027s.727-.077.961-.179c.33-.137.546-.314.647-.532s.153-.469.153-.756zm.886 6.296c0-.474-.087-.839-.261-1.096s-.471-.449-.889-.576c-.285-.087-.678-.156-1.178-.162s-1.023.012-1.568.012h-.359v3.714H10.4c1.026 0 1.761-.003 2.204-.01s.852-.093 1.226-.26c.38-.167.641-.389.784-.665s.214-.595.214-.956zM25 8l-.438 10.879h-3.104L21.02 8H25zM24.703 21.892a1.692 1.692 0 1 1-3.384 0 1.692 1.692 0 0 1 3.384 0z"/></svg>