<!-- Generated by IcoMoon.io -->
<svg version="1.1" xmlns="http://www.w3.org/2000/svg" width="32" height="32" viewBox="0 0 32 32">
<title>icon_basket_next</title>
<path d="M11.9 19.175c-0.294 0.506-0.119 0.894-0.031 1.038 0.206 0.337 0.581 0.45 0.881 0.45 0.012 0 0.025 0 0.037 0h12.056v-1.494h-11.125c0.313-0.431 0.719-0.969 1.069-1.438h5.55c0.994 0 1.931-0.531 2.438-1.387l4.075-7.1h-15.594l-2.256-4.088h-3.85v1.494h2.969l1.181 2.138 4.213 8.162c-0.519 0.688-1.425 1.894-1.613 2.225zM11.981 10.738h12.287l-2.781 4.844c-0.244 0.406-0.675 0.65-1.15 0.65h-5.519l-2.838-5.494zM13.738 21.656c-1.469 0-2.669 1.163-2.669 2.594s1.194 2.594 2.669 2.594c1.469 0 2.669-1.163 2.669-2.594s-1.2-2.594-2.669-2.594zM13.738 25.35c-0.644 0-1.175-0.494-1.175-1.1s0.525-1.1 1.175-1.1c0.644 0 1.175 0.494 1.175 1.1s-0.531 1.1-1.175 1.1zM22.512 21.656c-1.469 0-2.669 1.163-2.669 2.594s1.194 2.594 2.669 2.594c1.469 0 2.669-1.163 2.669-2.594s-1.194-2.594-2.669-2.594zM22.512 25.35c-0.644 0-1.175-0.494-1.175-1.1s0.525-1.1 1.175-1.1c0.644 0 1.175 0.494 1.175 1.1s-0.525 1.1-1.175 1.1z"></path>
</svg>
