<svg xmlns="http://www.w3.org/2000/svg" viewBox="0 0 32 32" width="100%" height="100%"><path d="M9.238 21.994c-2.825 0-3.569-1.25-3.569-6.194 0-4.5.744-5.787 3.569-5.787 2.363 0 3.006.988 3.169 3.975h1.594c-.162-3.731-1.088-5.506-4.756-5.506-4.013 0-5.281 1.994-5.281 7.319 0 5.544 1.25 7.525 5.281 7.525 3.225 0 4.619-1.531 4.781-5.463h-1.575c-.231 3.006-.831 4.131-3.213 4.131zM21.156 8.488c-4.012 0-5.281 1.994-5.281 7.319 0 5.544 1.25 7.525 5.281 7.525s5.262-1.975 5.262-7.525c0-5.325-1.294-7.319-5.262-7.319zm0 13.506c-2.825 0-3.569-1.25-3.569-6.194 0-4.5.744-5.787 3.569-5.787s3.55 1.287 3.55 5.787c0 4.944-.731 6.194-3.55 6.194zM26.012 26.494c0-.788.425-1.206.988-1.581l.55-.363c.45-.3.913-.606.913-1.306 0-.65-.356-.919-.988-.919-.656 0-.975.281-1.031 1.144h-.556c.038-1.063.45-1.694 1.594-1.694 1.081 0 1.581.538 1.581 1.462 0 .887-.538 1.3-1.038 1.625l-.55.363c-.644.438-.881.688-.881 1.169v.094h2.425v.475h-2.994v-.469z"/></svg>