<!-- Generated by IcoMoon.io -->
<svg version="1.1" xmlns="http://www.w3.org/2000/svg" width="100%" height="100%" viewBox="0 0 32 32">
<title>icon_skyrock</title>
<path d="M16.353 17.443c-0.375-0.802-0.97-1.39-1.78-1.762-0.67-0.307-1.362-0.537-2.079-0.707l-3.285-0.89c-0.512-0.148-1.004-0.35-1.413-0.707-0.273-0.239-0.444-0.53-0.444-0.905-0.001-0.818 0.496-1.477 1.325-1.719 0.773-0.226 1.559-0.217 2.345-0.071 0.858 0.159 1.518 0.584 1.915 1.397 0.263 0.54 0.276 0.815 0.276 0.815l2.973-0.003 0.001-0.108c-0.012-0.273-0.041-0.537-0.098-0.804-0.37-1.76-1.345-3.011-3.071-3.618-1.12-0.394-2.281-0.455-3.454-0.394-0.837 0.043-1.658 0.169-2.448 0.458-1.103 0.403-1.966 1.085-2.482 2.161-0.367 0.767-0.458 1.582-0.425 2.422 0.028 0.725 0.245 1.39 0.572 2.030 0.395 0.775 1.079 1.198 1.839 1.524 0.948 0.406 1.969 0.568 2.957 0.837 0.689 0.187 1.385 0.345 2.053 0.6 0.516 0.197 1.015 0.426 1.444 0.786 0.459 0.384 0.605 0.86 0.458 1.44-0.165 0.647-0.603 1.039-1.209 1.223-1.208 0.367-2.466 0.34-3.643-0.141-0.498-0.203-0.907-0.53-1.166-1.018-0.155-0.292-0.252-0.604-0.31-0.927 0 0-0.029-0.164-0.027-0.216 0 0-1.14 0-1.592 0-0.492 0-1.123 0.002-1.615-0.002l0.010 0.132c0.057 0.816 0.22 1.605 0.61 2.329 0.715 1.326 1.855 2.101 3.29 2.474 0.989 0.257 1.998 0.315 3.013 0.283 0.861-0.028 1.711-0.136 2.535-0.404 0.965-0.314 1.808-0.809 2.418-1.647 0.507-0.697 0.768-1.483 0.858-2.332 0.093-0.874 0.027-1.73-0.35-2.535z"></path>
<path d="M21.353 17.923l8.679-6.278-10.739 0.003-3.305-10.147-1.883 5.729 0.112 0.054c0.713 0.338 1.329 0.805 1.849 1.397 0.847 0.965 1.336 2.091 1.517 3.359 0.075 0.523 0.078 1.048 0.103 1.573l0.007 0.193c1.749-0.006 3.919-0.004 5.668-0.003l-4.572 3.288 1.552 4.73c0.059 0.181 0.196 0.595 0.196 0.595s-1.637-1.179-2.438-1.758c-0.13 0.729-0.39 1.415-0.738 1.998l-0.058 0.099c2.106 1.521 4.324 3.127 6.429 4.65 0.299 0.216 0.94 0.682 0.94 0.682l-3.316-10.165z"></path>
</svg>
