<svg xmlns="http://www.w3.org/2000/svg" viewBox="0 0 32 32" width="100%" height="100%"><path d="M28.075 15.369c-.781-.363-1.725-.625-2.656-.813-.288-.056-.681-.137-.956-.181v.95c.281.044.669.125.956.188.806.169 1.606.4 2.262.706.313.144.519.475.519.837v.913c0 .094-.019.144-.025.156l-1.994.65-.444.15-.15.444c-.256.769-.969 1.288-1.769 1.288-.788 0-1.494-.506-1.756-1.25l-.225-.625H10.468l-.225.625c-.269.75-.975 1.25-1.762 1.25s-1.5-.506-1.763-1.262l-.156-.444-.45-.144-2.3-.719V16.75c-.006-.1-.013-.431.006-1.387.656-.706 2.487-2.444 2.506-2.456l.294-.275v-.406h7.456c1.137 0 2.244.225 3.294.669l4.012 2.138.275-.025v.006l6.319-3.787-.481-.806-6.006 3.606-3.712-1.975c-1.169-.5-2.425-.756-3.694-.756H6.612c-.519 0-.938.419-.938.938 0 0-1.869 1.762-2.55 2.506-.156.169-.244.387-.25.619-.006.506-.019 1.462.006 1.563v1.188c0 .413.269.775.656.894l2.3.719c.381 1.094 1.419 1.887 2.644 1.887s2.256-.788 2.644-1.875h10.044c.387 1.087 1.419 1.875 2.644 1.875 1.244 0 2.288-.813 2.656-1.925l2.019-.669c.381-.125.644-.488.644-1.025v-.913c0-.738-.406-1.406-1.056-1.706z"/></svg>