<svg xmlns="http://www.w3.org/2000/svg" viewBox="0 0 32 32" width="100%" height="100%"><path d="M15 11.85c-.831 0-1.631.306-2.25.856-.081.075-.131.175-.131.281 0 .113.037.219.119.294l.469.469c.075.075.175.119.281.119.094 0 .188-.031.262-.094.35-.3.794-.469 1.256-.469s.906.169 1.256.469c.075.063.163.094.262.094.106 0 .206-.044.281-.119l.469-.469c.075-.075.119-.188.119-.294s-.05-.213-.131-.281c-.631-.55-1.431-.856-2.262-.856zm-1.512 1.794c-.006 0-.006-.006 0 0h.012c-.006-.006-.012 0-.012 0zm3.024 0H16.5c.006-.006.012-.006.012 0 .006-.006.006 0 0 0zm1.401-1.632c.106 0 .206-.044.281-.119l.469-.469c.075-.075.119-.181.119-.287s-.05-.213-.125-.287c-.994-.931-2.294-1.444-3.65-1.444s-2.656.512-3.65 1.444c-.081.075-.125.175-.125.287 0 .106.044.213.119.287l.469.469c.075.075.175.119.281.119.1 0 .2-.037.269-.106.725-.669 1.662-1.031 2.644-1.031s1.919.369 2.644 1.031c.056.069.156.106.256.106zm0-.231h-.019.019zm-5.825 0h.019-.019zm-1.75-1.818c.075.075.175.119.281.119.1 0 .2-.037.275-.106C12.007 8.92 13.469 8.339 15 8.339s2.994.581 4.106 1.637c.075.069.169.106.275.106s.206-.044.281-.119l.469-.469c.075-.075.119-.181.119-.287s-.044-.213-.125-.287C18.738 7.601 16.919 6.87 15 6.87s-3.738.725-5.125 2.05c-.081.075-.125.175-.125.287 0 .106.037.213.119.287l.469.469zm9.043-.119h-.019.019zm-8.744 0h-.019.019zm17.288 9.406c-1.2-.6-3.575-.981-6.55-1.25-.494-.387-1.956-1.363-4.056-1.869-1.231-.3-3.113-.313-3.85-.313h-.206c-2.181 0-4.994.625-5.925.938-1.325.444-3.744 1.25-4.369 2.181-.313.469-.506 1.813-.594 2.781-.031.337.594 1.269 1.219 1.581l1.906.275c.494.944 1.475 1.6 2.619 1.6 1 0 1.881-.488 2.419-1.25h11.975c.531.781 1.431 1.25 2.444 1.25 1.15 0 2.137-.663 2.631-1.619 1.344-.288 1.894-.563 1.894-.563s.313-.938.313-2.181c0-.313-1.244-1.25-1.869-1.563zm.506 2.806c-.262.081-.625.181-1.106.288l-.575.125-.269.525c-.3.581-.881.944-1.519.944-.594 0-1.113-.256-1.419-.706l-.369-.544H9.887l-.375.531c-.325.456-.831.719-1.4.719-.631 0-1.213-.356-1.513-.931l-.287-.569-.631-.087-1.638-.231c-.144-.125-.313-.331-.4-.488.112-1.1.288-1.831.381-2.012.169-.25.963-.756 3.712-1.675.769-.256 3.456-.875 5.531-.875h.206c1.994 0 3.031.15 3.556.275 2.087.506 3.431 1.525 3.581 1.644l.288.225.369.031c3.131.281 5.188.663 6.106 1.119.331.169.881.563 1.169.825-.025.337-.069.631-.113.869z"/></svg>