<!-- Generated by IcoMoon.io -->
<svg version="1.1" xmlns="http://www.w3.org/2000/svg" width="32" height="32" viewBox="0 0 32 32">
<title>icon_telegram</title>
<path d="M13.044 24.8c-0.713 0-0.588-0.269-0.838-0.944l-2.094-6.881 16.1-9.55z"></path>
<path d="M13.044 24.8c0.55 0 0.794-0.25 1.1-0.55l2.925-2.844-3.65-2.2z"></path>
<path d="M13.419 19.2l8.85 6.537c1.012 0.556 1.738 0.269 1.988-0.938l3.6-16.975c0.369-1.481-0.563-2.15-1.531-1.713l-21.15 8.162c-1.444 0.581-1.438 1.387-0.263 1.744l5.425 1.694 12.562-7.925c0.594-0.363 1.137-0.169 0.694 0.231z"></path>
</svg>
