<svg xmlns="http://www.w3.org/2000/svg" viewBox="0 0 32 32" width="100%" height="100%"><title>icon_weight-2</title><path d="M22.531 12.594a.627.627 0 0 0-.5-.612v-.013s-2.083-.49-2.625-1c-.306-.288-.813-.844-.813-2s1.375-1.813 1.375-1.813l-.05-.013c.389-.263.612-.568.612-.894 0-.984-2.029-1.781-4.531-1.781s-4.531.798-4.531 1.781c0 .326.224.631.612.894l-.05.013s1.375.656 1.375 1.813-.506 1.712-.813 2c-.542.51-2.625 1-2.625 1v.013a.627.627 0 0 0-.5.612v12.5c0 .054.008.106.021.156a.229.229 0 0 0-.021.094c0 .656 2.924 1.188 6.531 1.188s6.531-.532 6.531-1.188a.24.24 0 0 0-.02-.094.618.618 0 0 0 .02-.156v-12.5z"/></svg>