<svg xmlns="http://www.w3.org/2000/svg" width="32" height="32" viewBox="0 0 32 32"><title>icon_whatsapp</title><path d="M27.206 4.651A15.705 15.705 0 0 0 16.03 0h-.043C7.253 0 .136 7.113.133 15.856v.018c0 2.912.786 5.641 2.158 7.984L-.001 32l8.406-2.206c2.189 1.215 4.8 1.93 7.578 1.93h.006c8.737 0 15.853-7.114 15.857-15.857v-.048c0-4.364-1.774-8.314-4.64-11.168zM15.99 29.044h-.005c-2.474 0-4.789-.683-6.766-1.87l-.423-.247-4.988 1.309 1.332-4.863-.313-.499a13.022 13.022 0 0 1-2.015-6.995v-.02c0-7.265 5.913-13.177 13.185-13.177 7.275.007 13.17 5.906 13.17 13.182v.006c0 7.264-5.913 13.176-13.176 13.176zm7.229-9.871c-.396-.199-2.344-1.157-2.707-1.289s-.627-.199-.891.199-1.024 1.289-1.255 1.553-.462.297-.859.099-1.677-.618-3.186-1.966c-1.178-1.051-1.973-2.348-2.206-2.745s-.025-.611.177-.808c.177-.177.396-.462.594-.695s.265-.396.396-.661.066-.496-.033-.695-.891-2.149-1.221-2.942c-.321-.772-.649-.668-.891-.68s-.495-.014-.759-.014c-.422.011-.799.2-1.058.494-.365.399-1.388 1.357-1.388 3.307s1.42 3.834 1.618 4.098 2.794 4.266 6.769 5.982c.583.265 1.331.55 2.097.796.634.194 1.177.28 1.741.28.324 0 .641-.028.949-.083.729-.109 2.311-.954 2.641-1.879s.33-1.719.231-1.884-.362-.264-.758-.462z"/></svg>