<!-- Generated by IcoMoon.io -->
<svg version="1.1" xmlns="http://www.w3.org/2000/svg" width="32" height="32" viewBox="0 0 32 32">
<title>icon_twitter</title>
<path d="M4 23.563q3.625 2.188 7.75 2.188 6 0 10.063-4.25t3.813-10.188v-0.188q1.438-1 2.375-2.563-1.125 0.625-2.75 0.813 0.563-0.313 1.219-1.125t0.844-1.563q-0.563 0.375-1.531 0.719t-1.531 0.344q-1.5-1.5-3.625-1.5-2 0-3.469 1.438t-1.469 3.5q0 0.563 0.125 1.125-2.875-0.063-5.781-1.438t-4.719-3.688q-0.938 2-0.406 3.813t1.906 2.688q-1.438 0.125-2.125-0.563-0.063 1.563 0.844 2.938t2.969 1.938q-0.688 0.375-2.063 0.125 0.125 1.188 1.469 2.281t2.969 1.094q-0.813 0.938-2.719 1.688t-4.156 0.375z"></path>
</svg>
