<!-- Generated by IcoMoon.io -->
<svg version="1.1" xmlns="http://www.w3.org/2000/svg" width="32" height="32" viewBox="0 0 32 32">
<title>icon_fuel_next</title>
<path d="M24.4 15.4v-2.4c0.769-0.394 1.2-0.6 1.2-0.6-0.394-4.875-5.819-7.15-6-7.2v1.2c0.512 0.181 3.6 1.531 3.6 6.6v2.4c0 1.25 0.325 2.275 0.637 3.263 0.288 0.906 0.563 1.756 0.563 2.738-0.006 0.3-0.106 1.806-1.8 1.806s-1.794-1.5-1.8-1.8v-4.8c0-2.375-1.569-3-2.4-3v-7.206c0-0.662-0.538-1.2-1.2-1.2h-8.4c-0.662 0-1.2 0.537-1.2 1.2v19.2h-1.2v1.2h13.2v-1.2h-1.2v-10.8c0.050 0 1.2 0.019 1.2 1.8v4.8c0 1.038 0.625 3 3 3s3-1.962 3-3c0-1.169-0.313-2.15-0.619-3.106-0.3-0.938-0.581-1.831-0.581-2.894zM17.2 14.8v10.8h-8.4v-12h8.4v1.2zM17.2 12.4h-8.4v-6h8.4v6z"></path>
</svg>
