<!-- Generated by IcoMoon.io -->
<svg version="1.1" xmlns="http://www.w3.org/2000/svg" width="100%" height="100%" viewBox="0 0 32 32">
<title>icon_ownerservice</title>
<path d="M19.958 15.95c-3.34 0-6.048 2.703-6.048 6.038s2.708 6.038 6.048 6.038c3.34 0 6.048-2.703 6.048-6.038s-2.708-6.038-6.048-6.038zM23.395 26.132c-0.218 0.218-0.561 0.204-0.761-0.029l-0 0-3.458-4.027c-0.353 0.188-0.756 0.294-1.183 0.294-1.393 0-2.523-1.127-2.523-2.518 0-0.254 0.038-0.5 0.108-0.731l1.457 1.455c0.218 0.218 0.575 0.218 0.793 0l0.889-0.887c0.218-0.218 0.218-0.574 0-0.791l-1.457-1.455c0.232-0.070 0.478-0.108 0.733-0.108 1.393 0 2.523 1.127 2.523 2.518 0 0.427-0.107 0.829-0.294 1.181l4.034 3.452c0.234 0.2 0.247 0.542 0.029 0.76l-0.889 0.887z"></path>
<path d="M12.45 21.987c0-4.139 3.361-7.494 7.508-7.494 1.076 0 2.098 0.226 3.023 0.633v-9.648h-15.991v20.576h6.66c-0.759-1.171-1.201-2.567-1.201-4.067zM12.507 7.449h8.493v1.531h-8.493v-1.531zM12.507 11.477h8.493v1.551h-8.493v-1.551zM8.464 6.999h2.495v2.511h-2.495v-2.511zM10.962 13.5h-2.508v-2.514h2.508v2.514z"></path>
</svg>
