<svg xmlns="http://www.w3.org/2000/svg" viewBox="0 0 32 32" width="100%" height="100%"><path d="M11.281 7.356l-.675-1.231c-.387.213-.769.45-1.137.713-.006.006-.012.006-.012.013l-.006.006-.006.006s-.006 0-.006.006c0 0-.006 0-.006.006 0 0-.006 0-.006.006l.825 1.138c.325-.244.675-.463 1.031-.662zM7.713 10.681l-1.181-.762c-.1.156-.194.313-.287.469 0 .006-.006.012-.006.012s0 .006-.006.006c0 0 0 .006-.006.006 0 0 0 .006-.006.006s0 .006-.006.006c0 0 0 .006-.006.006s0 .006-.006.006c0 0 0 .006-.006.006s0 .006-.006.006 0 0 0 .006V10.508s0 .006-.006.006 0 0 0 .006 0 .006-.006.006c0 .006-.006.006-.006.012s-.006.006-.006.012l-.006.006c-.1.188-.2.375-.287.563l1.269.606c.156-.344.356-.706.575-1.05zM6.181 15.3l-1.4-.1c-.031.469-.037.938-.013 1.406l1.406-.075c-.025-.406-.025-.825.006-1.231zM16 8.969c-.238 0-.469.012-.706.037V16c0 .094.019.181.056.269s.088.163.15.231l4.925 4.925c.006.006.019.012.031.019.356-.294.688-.625.981-.981-.006-.006-.012-.019-.019-.031l-4.719-4.719V9.007c-.225-.025-.462-.037-.7-.037z"/><path d="M23.956 8.044C21.756 5.85 18.881 4.75 16 4.75h-.187c-.4.006-.794.037-1.194.088l.175 1.394c.406-.05.819-.075 1.231-.075 2.631 0 5.1 1.025 6.963 2.881 3.837 3.838 3.837 10.081 0 13.919-1.863 1.856-4.331 2.881-6.962 2.881s-5.1-1.025-6.963-2.881l2.487-2.488H5.556v5.969l2.487-2.488c2.2 2.2 5.075 3.3 7.956 3.3s5.756-1.1 7.956-3.294c4.394-4.394 4.394-11.519 0-15.912z"/></svg>