<svg xmlns="http://www.w3.org/2000/svg" viewBox="0 0 32 32" width="100%" height="100%"><path d="M23.988 20.688c-1 0-1.894-.419-2.438-1.125H11.219c-.619.719-1.488 1.125-2.419 1.125-1.1 0-2.094-.569-2.656-1.5l-1.531-.206-.069-.038c-.65-.319-1.388-1.288-1.388-1.819v-.031c.05-.775.256-2.15.631-2.75l.006-.012c.6-.9 2.475-1.588 4.181-2.156.881-.294 3.475-.869 5.494-.869h.169c.725 0 2.419 0 3.6.294 1.762.412 3.05 1.206 3.719 1.688 3.038.256 4.931.631 5.95 1.162.313.156.756.45 1.131.756.712.569.806.85.806 1.069 0 1.188-.294 2.081-.306 2.119l-.063.194-.188.081c-.019.006-.5.219-1.575.488-.587.95-1.613 1.531-2.725 1.531zm-13.232-2.063H22.05l.137.225c.35.563 1.019.9 1.794.9.837 0 1.606-.462 2.006-1.212l.1-.188.206-.05c.712-.169 1.169-.319 1.406-.406.075-.288.188-.85.2-1.531-.181-.238-.944-.831-1.425-1.075l-.006-.006c-.906-.475-2.775-.825-5.725-1.075l-.137-.012-.106-.069c-.569-.431-1.781-1.206-3.481-1.606h-.006c-1.069-.269-2.744-.269-3.375-.269h-.169c-1.912 0-4.363.544-5.194.819-.963.319-3.213 1.069-3.694 1.781-.206.338-.425 1.362-.487 2.263.056.188.431.744.8.969l1.85.244.112.225c.369.744 1.119 1.206 1.944 1.206.706 0 1.375-.344 1.819-.938l.137-.194zm-6.662-1.531z"/></svg>