<!-- Generated by IcoMoon.io -->
<svg version="1.1" xmlns="http://www.w3.org/2000/svg" width="100%" height="100%" viewBox="0 0 32 32">
<title>icon_consumption</title>
<path d="M26.969 11.488l-1.5 1.563v10.668c0 0-0.008 0.781-1 0.813s-1-0.813-1-0.813v-8.188c0 0 0.141-0.945-0.5-1.563s-1.688-0.5-1.688-0.5h-1.813v-6c0-1.1-0.9-2-2-2h-8.5c-1.1 0-2 0.9-2 2v17c0 1.1 0.9 2 2 2h8.5c1.1 0 2-0.9 2-2v-9.438h1.813c0 0 0.313 0.023 0.438 0.125s0.125 0.375 0.125 0.375v8.188c0 0-0.008 2.313 2.563 2.313s2.563-2.313 2.563-2.313v-12.231zM9.719 6.969h7.063c0.688 0 1.25 0.563 1.25 1.25v3.25h-9.563v-3.25c0-0.688 0.563-1.25 1.25-1.25z"></path>
<path d="M26.985 7.36l-1.454-1.454-0.988 1.080 1.332 1.389c0 0 0.219 0.148 0.219 0.531 0 0.328-0.181 0.427-0.181 0.427l-2.033 2.033 1.007 0.997 2.033-2.033c0 0 0.674-0.444 0.674-1.549 0-0.802-0.608-1.421-0.608-1.421z"></path>
</svg>
