<svg xmlns="http://www.w3.org/2000/svg" viewBox="0 0 32 32" width="100%" height="100%"><path d="M11.664 22.683c-1.227 0-2.221.964-2.221 2.143s.994 2.143 2.221 2.143 2.232-.964 2.232-2.143-1.004-2.143-2.232-2.143zM11.854 19.201l.034-.129 1.004-1.746h8.337c.818 0 1.533-.439 1.923-1.094l3.666-6.389H11.031L8.618 5.468H4.969v2.563h2.232l4.018 7.785-1.438 2.527c-.179.3-.25.75-.25 1.125 0 1.179.906 2.063 2.133 2.063h13.393v-2.063H12.134h-.001a.279.279 0 0 1-.278-.267zM22.824 22.683c-1.227 0-2.221.964-2.221 2.143s.993 2.142 2.221 2.142 2.232-.964 2.232-2.142-1.004-2.142-2.232-2.142z"/></svg>