<svg xmlns="http://www.w3.org/2000/svg" viewBox="0 0 32 32" width="100%" height="100%"><path d="M23.84 3.531H8.094c-1.139 0-2.066.927-2.066 2.066v20.806c0 1.139.927 2.066 2.066 2.066H23.84c1.139 0 2.066-.927 2.066-2.066V5.597c0-1.139-.927-2.066-2.066-2.066zM8.554 4.969h14.878c.598 0 1.085.486 1.085 1.084v17.978H7.47V6.053c0-.598.487-1.084 1.085-1.084zm14.877 22.062H8.553c-.598 0-1.085-.486-1.085-1.084v-.976h17.047v.976c0 .598-.487 1.084-1.085 1.084z"/><path d="M16.625 26c0 .345-.28.625-.625.625s-.625-.28-.625-.625.28-.625.625-.625.625.28.625.625z"/></svg>