<svg xmlns="http://www.w3.org/2000/svg" width="32" height="32" viewBox="0 0 32 32"><title>icon_tablet</title><path d="M23.84 3.531H8.094a2.069 2.069 0 0 0-2.066 2.066v20.806c0 1.139.927 2.066 2.066 2.066H23.84a2.069 2.069 0 0 0 2.066-2.066V5.597a2.069 2.069 0 0 0-2.066-2.066zM8.554 4.969h14.878c.598 0 1.085.486 1.085 1.084v17.978H7.47V6.053c0-.598.487-1.084 1.085-1.084zm14.877 22.062H8.553a1.086 1.086 0 0 1-1.085-1.084v-.976h17.047v.976c0 .598-.487 1.084-1.085 1.084z"/><path d="M16.625 26a.625.625 0 1 1-1.25 0 .625.625 0 0 1 1.25 0z"/></svg>