<svg xmlns="http://www.w3.org/2000/svg" viewBox="0 0 32 32" width="100%" height="100%"><path d="M19.728 16.062c0 2.024-1.641 3.665-3.665 3.665s-3.665-1.641-3.665-3.665 1.641-3.665 3.665-3.665 3.665 1.641 3.665 3.665z"/><path d="M26.062 14.831h-1.441c-.541-3.789-3.53-6.78-7.317-7.325V6.064c0-.598-.543-1.082-1.212-1.082h-.057c-.669 0-1.212.484-1.212 1.082v1.442c-3.788.545-6.776 3.536-7.317 7.325H6.018c-.572 0-1.036.528-1.036 1.18v.102c0 .652.464 1.18 1.036 1.18h1.488c.542 3.792 3.535 6.785 7.327 7.327v1.494c0 .568.528 1.029 1.18 1.029h.103c.652 0 1.18-.461 1.18-1.029V24.62c3.792-.541 6.785-3.534 7.327-7.327h1.441c.598 0 1.082-.528 1.082-1.18v-.102c0-.652-.484-1.18-1.082-1.18zm-9.999 7.458c-3.439 0-6.227-2.788-6.227-6.227s2.788-6.227 6.227-6.227 6.227 2.788 6.227 6.227c0 3.439-2.788 6.227-6.227 6.227z"/></svg>