<!-- Generated by IcoMoon.io -->
<svg version="1.1" xmlns="http://www.w3.org/2000/svg" width="32" height="32" viewBox="0 0 32 32">
<title>icon_configurator</title>
<path d="M3.5 19.375q0.125 1.063 0.625 2.313 0.688-0.063 1.438-0.188 0.313 0.625 0.375 0.688l0.438 0.688q-0.438 0.5-0.875 1.125 0.75 0.938 1.75 1.688l1.125-0.875 0.688 0.438q0.063 0.063 0.688 0.375-0.125 0.75-0.125 1.375 1.25 0.5 2.375 0.625 0.313-0.688 0.563-1.313l0.813 0.063 0.75-0.063q0.25 0.625 0.563 1.313 1.125-0.125 2.438-0.625-0.063-0.625-0.188-1.375 0.625-0.313 0.688-0.375l0.688-0.438 1.125 0.875q1-0.75 1.75-1.688-0.375-0.625-0.875-1.125 0.063-0.125 0.156-0.219t0.156-0.219 0.125-0.219 0.375-0.719q0.75 0.125 1.438 0.188 0.5-1.25 0.625-2.313-0.688-0.313-1.313-0.563l0.063-0.75-0.063-0.75q0.563-0.25 1.25-0.5 0.625-0.125 1.438-0.438-0.063-0.375-0.125-0.875 0.438-0.188 0.438-0.25l0.188-0.094t0.25-0.156q0.375 0.25 0.75 0.563 0.625-0.5 1.125-1.125-0.25-0.375-0.563-0.75 0.063 0 0.125-0.094t0.094-0.188 0.063-0.125 0.281-0.406q0.438 0.063 0.875 0.063 0.375-0.813 0.438-1.5-0.438-0.188-0.875-0.313l0.063-0.5-0.063-0.5 0.875-0.375q-0.063-0.688-0.438-1.5-0.438 0-0.875 0.125-0.25-0.438-0.25-0.5l-0.125-0.156t-0.188-0.219q0.313-0.375 0.563-0.75-0.5-0.625-1.125-1.125-0.375 0.313-0.75 0.563-0.063-0.063-0.125-0.094t-0.156-0.094-0.156-0.094l-0.438-0.219q0.063-0.5 0.125-0.875-0.875-0.313-1.563-0.438-0.25 0.438-0.375 0.875l-0.5-0.063-0.563 0.063q-0.125-0.438-0.375-0.875-0.688 0.125-1.5 0.438 0 0.375 0.063 0.875-0.375 0.188-0.438 0.25l-0.188 0.094q-0.188 0.094-0.25 0.156-0.375-0.25-0.75-0.563-0.625 0.5-1.125 1.125 0.25 0.375 0.563 0.75l-0.313 0.375q0 0.063-0.188 0.5-0.5-0.125-0.938-0.125-0.125 0.25-0.188 0.5-0.625-0.188-1.25-0.25-0.313 0.688-0.563 1.313l-0.75-0.063-0.813 0.063q-0.25-0.625-0.563-1.313-1.125 0.125-2.375 0.625 0 0.625 0.125 1.375-0.625 0.313-0.688 0.375l-0.281 0.156t-0.406 0.281l-1.125-0.875q-1 0.75-1.75 1.688 0.375 0.625 0.875 1.125l-0.438 0.688q-0.063 0.063-0.375 0.688-0.75-0.125-1.438-0.188-0.5 1.25-0.625 2.313 0.688 0.313 1.313 0.563l-0.063 0.75 0.063 0.75q-0.625 0.25-1.313 0.563zM8.5 18.063q0.063-1.313 0.688-2.313 0.625-1.125 1.75-1.75 1-0.563 2.438-0.625 1.375 0.063 2.375 0.625 1.125 0.625 1.75 1.75 0.625 1 0.688 2.313-0.063 1.313-0.688 2.313-0.625 1.125-1.75 1.75-1 0.563-2.375 0.625-1.438-0.063-2.438-0.625-1.125-0.625-1.75-1.75t-0.688-2.313zM18.938 10.813v-0.188q0.063-0.875 0.438-1.563 0.438-0.688 1.188-1.125 0.625-0.375 1.563-0.375 0.875 0 1.563 0.375 0.688 0.438 1.125 1.125 0.375 0.688 0.438 1.563-0.063 0.813-0.438 1.5-0.438 0.688-1.125 1.125-0.688 0.375-1.563 0.375-0.938 0-1.563-0.375-0.063-0.063-0.125-0.063 0.375-0.5 0.75-1.063-0.75-0.938-1.75-1.688-0.188 0.188-0.5 0.375z"></path>
</svg>
