<!-- Generated by IcoMoon.io -->
<svg version="1.1" xmlns="http://www.w3.org/2000/svg" width="32" height="32" viewBox="0 0 32 32">
<title>icon_car</title>
<path d="M3.98 13.012c-0.063-0.012-0.034-0.037-0.105-0.015s-0.168 0.086-0.196 0.014l-0.482 0.059c-0.141 0.018-0.125 0.063 0.078 0.164l-0.726 0.085c-0.146 0.018-0.14 0.080 0.108 0.196l-0.045 0.016c-0.153 0.079-0.347 0.165-0.546 0.242-0.213 0.097-0.411 0.148-0.621 0.155-0.19 0.058-0.179 0.2-0.086 0.29-0.379 0.291-0.802 0.711-0.946 1.191-0.057 0.192-0.011 0.418 0.008 0.625 0.011 0.125 0.026 0.288 0.031 0.347 0.011 0.122 0.017 0.264 0.017 0.407 0 0.071-0.002 0.142-0.005 0.212-0.012-0.008-0.022-0.006-0.032-0.004-0.018 0.008-0.032 0.026-0.035 0.048-0.004 0.018-0.006 0.038-0.006 0.059s0.002 0.041 0.006 0.061c0.007 0.028 0.024 0.054 0.042 0.061h0.004c-0.025 0.185-0.062 0.349-0.111 0.508 0.005-0.018 0.005-0.014 0.005-0.009 0 0.013 0.004 0.025 0.011 0.035-0.005-0 0.013 0.020 0.013 0.020 0.011 0.014 0.023 0.029 0.033 0.045-0.007 0.001-0.013 0.002-0.019 0.005-0.038 0.016-0.053 0.062-0.046 0.117v0s0 0.006 0 0.009 0 0.013 0.004 0.021c0.030 0.146 0.069 0.274 0.118 0.396 0.043 0.117 0.068 0.189 0.133 0.239 0.026 0.063 0.051 0.101 0.073 0.099l0.213-0.009c0.027 0.002 0.059 0.002 0.091 0.002 0.070 0 0.139-0.004 0.207-0.013 0.050 0.037 0.12 0.062 0.194 0.072 0.019 0.007 0.039 0.010 0.059 0.010 0.001 0 0.002 0 0.002 0l0.134 0.020c0.005 0.001 0.010 0.001 0.015 0.001s0.011-0 0.016-0.001c0.007 0.003 0.009 0 0.009 0 0.033-0.012 0.070-0.019 0.109-0.021 0.761 0.072 1.78 0.354 2.52 0.422 0.031 0.003 0.897 0.193 0.897 0.193 0.214 0.373 0.51 0.677 0.864 0.895 0.363 0.215 0.802 0.294 1.229 0.294 0.321 0 0.651-0.027 0.933-0.149 0.233-0.101 0.435-0.224 0.616-0.37l0.94 0.18c0.006-0.056 0.049-0.555 0.078-0.904h0.028c0.086 0 0.046 0.413 0.075 0.413h0.295c0.047 0 0.049-0.084 0.083-0.119 0.25-0.262 0.644-0.306 1.277-0.359l10.884 0.125 0.587 0.077c0.213 0.341 0.497 0.619 0.832 0.819 0.363 0.211 0.802 0.288 1.229 0.288 0.321 0 0.651-0.026 0.933-0.146 0.288-0.121 0.536-0.278 0.753-0.471l0.622 0.085 0.448 0.132c0.006-0.071 0.009-0.161 0.012-0.261 0.012-0.063 0.025-0.108 0.035-0.108 0.055 0.003 0.12 0.005 0.186 0.005 0.228 0 0.451-0.023 0.667-0.066 0.087-0.018 0.198-0.085 0.313-0.126 0.198-0.071 0.469-0.188 0.652-0.201 0.113-0.003 0.221-0.015 0.326-0.034l-0.013 0.002h0.007c0.122-0.022 0.211-0.048 0.324-0.058 0.075-0.007 0.23 0.049 0.309 0.034 0.146-0.027 0.313-0.108 0.544-0.142 0.133-0.019 0.137-0.188 0.176-0.254 0.027-0.049 0.168-0.027 0.188-0.117 0.021-0.108 0.053-0.165-0.017-0.261-0.083-0.098-0.166-0.187-0.253-0.271 0.070-0.285 0.2-0.751 0.232-1.149 0.017-0.207 0.007-0.394-0.052-0.524-0.173-0.381-0.453-0.604-0.786-0.807h0.007l-0.019-0.007-0.096-0.057c-0.688-0.401-1.081-0.61-1.796-0.952-0.166-0.113-0.421-0.284-0.684-0.434-0.114-0.070-0.248-0.138-0.387-0.197-0.142-0.068-0.284-0.105-0.434-0.111-0.568-0.063-1.293-0.111-1.859-0.171-0.688-0.125-1.471-0.287-2.158-0.412-0.137 0.014-0.26 0.036-0.379 0.066l-0.173 0.010 0.027-0.005-0.367-0.154-0.307-0.019c-1.287-0.772-2.906-1.793-4.506-2.41l-0.096-0.087-0.031 0.023c-0.041-0.032-0.087-0.061-0.137-0.083-1.761-0.502-3.289-0.402-4.974-0.189-0.609 0.076-1.405 0.23-2.059 0.381-1.77 0.409-3.362 0.969-5.091 1.553-0.046-0.025-0.235 0-0.285-0.010-0.137 0.037-0.25 0.075-0.361 0.12-0.091 0.033 0.276 0.038 0.164 0.078l-0.103 0.036-0.019-0.029-0.75 0.011c-0.177 0-0.135 0.087 0.168 0.227z"></path>
</svg>
