<!-- Generated by IcoMoon.io -->
<svg version="1.1" xmlns="http://www.w3.org/2000/svg" width="100%" height="100%" viewBox="0 0 32 32">
<title>icon_teq_finder_02</title>
<path d="M21.375 15.688c-0.25-0.363-0.563-0.681-0.925-0.938-0.225 1.144-0.706 2.188-1.387 3.075-0.087-0.081-0.175-0.188-0.275-0.325 0 0-1.681-1.938-1.856-2.325-0.131-0.306-0.281-0.556-0.219-0.8-1.306 0.588-2.219 1.9-2.219 3.425 0 0.15 0.025 0.288 0.044 0.431l0.65 0.875 0.4 0.7c0 0 0.162 0.181 0.256 0.406-0.119 0.044-0.238 0.081-0.356 0.119 0.319 0.35 0.706 0.637 1.138 0.844 2.3-1.025 4.050-3.031 4.75-5.488z"></path>
<path d="M9.044 17.8c0-0.813 0.119-1.6 0.313-2.35-0.244 0.475-0.806 1.4-1.919 2.412-0.975-1.25-1.55-2.813-1.55-4.519 0-0.088 0-0.175 0.006-0.262l2.737 0.662c0 0 0.919 0.313 0.969 0.956 0.9-2.513 2.856-4.519 5.344-5.481-0.006-0.669-0.012-2.269 0.056-2.362l0.063-0.638c1.519 0.388 2.844 1.244 3.819 2.406 0.531 0.037 1.056 0.119 1.563 0.238-1.512-2.469-4.225-4.125-7.331-4.125-4.75 0-8.6 3.85-8.6 8.6 0 3.55 2.15 6.594 5.219 7.912-0.444-1.069-0.688-2.231-0.688-3.45zM11.106 6.3c0.050 0.55 0.25 2.925 0.113 3.4 0 0-0.050 0.963-1.294 0.681l-2.856-1.044c0.931-1.438 2.356-2.525 4.037-3.037z"></path>
<path d="M18.256 10.338c-4.125 0-7.463 3.344-7.463 7.463s3.344 7.463 7.463 7.463 7.462-3.344 7.462-7.462-3.337-7.463-7.462-7.463zM18.256 23.288c-3.031 0-5.488-2.456-5.488-5.488s2.456-5.488 5.488-5.488 5.488 2.456 5.488 5.488-2.456 5.488-5.488 5.488z"></path>
<path d="M26.55 27.256c-0.244 0-0.488-0.094-0.669-0.275-0.169-0.169-3.613-3.619-3.613-3.619l1.325-1.325 3.581 3.587c0.012 0.012 0.019 0.019 0.025 0.025l0.006 0.006c0.469 0.506 0.262 1.069 0 1.325-0.175 0.181-0.413 0.275-0.656 0.275z"></path>
</svg>
