<svg xmlns="http://www.w3.org/2000/svg" viewBox="0 0 32 32" width="100%" height="100%"><path d="M23.631 9.957v15.701h5.778V9.957h-5.778zm4.52 14.443h-3.262v-2.243h3.261V24.4zm0-3.501h-3.248l-.014-2.243h3.248l.014 2.243zm0-3.501h-3.262v-2.243h3.261v2.243zm0-3.491h-3.262v-2.254h3.261v2.254zM17.882 14.364c.163.163.108.12.24.305v-.251h2.947v2.241s1.066.503 1.066 1.082V5.201l-9.091-.052-.001 8.517c.441.008.881.041 1.317.063 0 0 3.099.213 3.522.636zm.241-6.905h2.947v2.445h-2.947V7.459zm0 3.511h2.947v2.445h-2.947V10.97zm-3.995-3.511h2.929v2.445h-2.929V7.459zm-.018 3.511h2.947v2.445H14.11V10.97z"/><path d="M22.341 23.421c-.009-.104-.009-.198-.009-.302-.009-.368-.019-.746-.019-1.115 0-.104 0-.208-.009-.302-.009-.274-.019-.557-.038-.841-.007-.12-.018-.238-.03-.356-.021-.198-.048-.393-.083-.589-.047-.227-.151-.416-.321-.567l-.028-.028c-.227-.208-.453-.397-.709-.557-.019-.009-.028-.009-.038-.019s-.009-.009-.009-.019c.095-.009.17-.019.255-.028.104-.009.208-.038.302-.085.076-.038.132-.094.161-.161.009-.028.019-.057.028-.095.009-.057 0-.113-.019-.17-.066-.236-.189-.416-.378-.538-.076-.047-.151-.085-.236-.123-.17-.057-.35-.095-.52-.113-.047 0-.085 0-.132.009-.104.019-.189.094-.236.217-.023.045-.038.092-.049.141-.012.053-.017.107-.017.162-.009.123 0 .236 0 .359 0 .019.009.028 0 .038-.009.028-.019.047-.047.047-.189-.028-.378-.019-.567-.019-.009-.019-.028-.047-.038-.076-.086-.172-.174-.342-.263-.511-.147-.279-.298-.553-.456-.821l-.027-.047c-.028-.047-.047-.085-.076-.132-.137-.228-.283-.448-.436-.663-.132-.185-.27-.367-.414-.547-.18-.217-.406-.35-.671-.406l-.173-.036c-.122-.025-.244-.049-.365-.068-.331-.047-.652-.095-.992-.142-.264-.028-.529-.047-.784-.066l-.463-.028-.063-.003c-.436-.022-.872-.032-1.313-.04l-.22-.004c-.019 0-.047-.009-.066-.009h-.879c-.019 0-.038.009-.066.009-.331.009-.671.009-1.011.019-.321.009-.642.028-.964.047l-.727.057c-.34.028-.68.076-1.011.132-.161.028-.321.066-.482.095-.132.019-.264.047-.387.094-.179.066-.331.161-.453.302-.227.255-.425.529-.614.812-.406.614-.756 1.266-1.077 1.937-.009.019-.019.047-.038.066-.094-.009-.189-.019-.293-.009-.095.009-.189.019-.293.038-.038-.019-.047-.066-.047-.123.019-.142.009-.293-.009-.435-.019-.076-.038-.142-.076-.217-.066-.113-.161-.18-.302-.189-.274-.009-.529.057-.765.198-.227.132-.368.331-.435.586-.009.019-.009.047-.009.085-.009.161.047.255.189.321.189.085.387.113.595.123h.151c-.019.038-.038.038-.057.047-.179.113-.35.217-.51.35-.132.113-.264.227-.368.359-.047.066-.085.123-.104.198-.028.161-.066.321-.085.482-.028.265-.047.529-.076.794-.009.123-.019.246-.019.378 0 .019-.009.047-.009.085v1.304c0 .038.009.066.009.095l.028 1.427c0 .274-.009.538-.009.812.009.397.019.794.038 1.19.009.265.038.529.095.784.019.113.066.208.104.302.066.132.179.217.331.236.009 0 .019.009.038.009h2.012c.151-.066.236-.198.293-.34.038-.113.066-.217.076-.331 0-.019 0-.038.009-.066h.179c.066-.009.132-.009.189-.009.076-.009.132-.047.17-.104.019-.038.047-.076.076-.113.095 0 .179-.009.264 0 .123.009.246.019.378.019s.264.028.387.047c.189.019.378.047.557.066.274.028.548.047.822.066.161.009.321.009.482.019.784.019 1.578.009 2.371.009.879-.009 1.757 0 2.645 0 .623 0 1.256 0 1.88-.009.321 0 .633-.019.954-.038.378-.019.737-.057 1.105-.132.227-.047.453-.038.68-.038.019 0 .038.009.047.028s.019.028.019.047c.047.095.123.142.217.151.066.009.132.009.208.019.019.057.028.123.047.189.028.085.047.17.094.255.066.142.18.227.331.255.009 0 .019.009.028.009h1.861c.038-.009.085-.009.123-.019.17-.038.293-.132.378-.302.076-.161.123-.321.151-.491.047-.236.076-.472.095-.709l.028-.576c.009-.038.009-.066.009-.095v-.746-1.115-.095zm-6.357-6.603c-.038-.019-.057-.038-.066-.047-.066-.066-.151-.095-.236-.113-.246-.047-.501-.066-.746-.028-.066.009-.123.028-.189.047-.123.047-.217.142-.264.255-.019.047-.038.085-.057.132-.038.095-.066.18-.104.274-.066.18-.123.368-.18.557 0 .009-.009.019-.009.028-.047 0-.095 0-.142.009-.019 0-.047.009-.057.019-.019.019-.047.028-.076.028-.208-.009-.406-.009-.614-.009h-1.077c-.293 0-.576.009-.869.009-.028 0-.057.009-.076.009-.076.009-.161.019-.236 0-.057-.019-.123-.028-.179.009-.009.009-.019.009-.028.009-.095-.028-.198-.009-.293-.009h-.066c-.047-.151-.104-.293-.151-.444-.057-.17-.104-.34-.161-.51-.009-.047-.038-.095-.057-.142-.066-.151-.179-.227-.331-.265-.264-.066-.529-.095-.794-.038-.161.028-.302.104-.387.255 0 .009-.009.009-.009.019h-.009c-.076-.113-.009-.255.076-.331.076-.066.17-.113.274-.123.161-.019.331-.047.501-.066.227-.019.453-.047.69-.066l1.209-.057c.038 0 .057 0 .085.028.104.113.246.17.387.189.123.019.255.019.387.038.019 0 .047.009.066.009.246.009.501-.009.746-.047.142-.019.264-.085.378-.17.028-.019.057-.028.095-.028.151.009.293.009.444.019.189.019.378.028.567.047l.576.057c.208.019.406.047.605.085.104.009.198.047.283.113.057.047.085.113.104.189.009-.009-.009.019-.009.057z"/></svg>