<svg xmlns="http://www.w3.org/2000/svg" viewBox="0 0 32 32" width="100%" height="100%"><path d="M3.5 19.375q.125 1.063.625 2.313.688-.063 1.438-.188.313.625.375.688l.438.688q-.438.5-.875 1.125.75.938 1.75 1.688l1.125-.875.688.438q.063.063.688.375-.125.75-.125 1.375 1.25.5 2.375.625.313-.688.563-1.313l.813.063.75-.063q.25.625.563 1.313 1.125-.125 2.438-.625-.063-.625-.188-1.375.625-.313.688-.375l.688-.438 1.125.875q1-.75 1.75-1.688-.375-.625-.875-1.125.063-.125.156-.219t.156-.219.125-.219.375-.719q.75.125 1.438.188.5-1.25.625-2.313-.688-.313-1.313-.563l.063-.75-.063-.75q.563-.25 1.25-.5.625-.125 1.438-.438-.063-.375-.125-.875.438-.188.438-.25l.188-.094.25-.156q.375.25.75.563.625-.5 1.125-1.125-.25-.375-.563-.75.063 0 .125-.094t.094-.188.063-.125.281-.406q.438.063.875.063.375-.813.438-1.5-.438-.188-.875-.313l.063-.5-.063-.5.875-.375q-.063-.688-.438-1.5-.438 0-.875.125-.25-.438-.25-.5l-.125-.156-.188-.219q.313-.375.563-.75-.5-.625-1.125-1.125-.375.313-.75.563-.063-.063-.125-.094t-.156-.094-.156-.094l-.438-.219q.063-.5.125-.875-.875-.313-1.563-.438-.25.438-.375.875l-.5-.063-.563.063q-.125-.438-.375-.875-.688.125-1.5.438 0 .375.063.875-.375.188-.438.25l-.188.094q-.188.094-.25.156-.375-.25-.75-.563-.625.5-1.125 1.125.25.375.563.75l-.313.375q0 .063-.188.5-.5-.125-.938-.125-.125.25-.188.5-.625-.188-1.25-.25-.313.688-.563 1.313l-.75-.063-.813.063q-.25-.625-.563-1.313-1.125.125-2.375.625 0 .625.125 1.375-.625.313-.688.375l-.281.156-.406.281-1.125-.875q-1 .75-1.75 1.688.375.625.875 1.125l-.438.688q-.063.063-.375.688-.75-.125-1.438-.188-.5 1.25-.625 2.313.688.313 1.313.563l-.063.75.063.75q-.625.25-1.313.563zm5-1.312q.063-1.313.688-2.313.625-1.125 1.75-1.75 1-.563 2.438-.625 1.375.063 2.375.625 1.125.625 1.75 1.75.625 1 .688 2.313-.063 1.313-.688 2.313-.625 1.125-1.75 1.75-1 .563-2.375.625-1.438-.063-2.438-.625-1.125-.625-1.75-1.75T8.5 18.063zm10.438-7.25v-.188q.063-.875.438-1.563.438-.688 1.188-1.125.625-.375 1.563-.375.875 0 1.563.375.688.438 1.125 1.125.375.688.438 1.563-.063.813-.438 1.5-.438.688-1.125 1.125-.688.375-1.563.375-.938 0-1.563-.375-.063-.063-.125-.063.375-.5.75-1.063-.75-.938-1.75-1.688-.188.188-.5.375z"/></svg>