<!-- Generated by IcoMoon.io -->
<svg version="1.1" xmlns="http://www.w3.org/2000/svg" width="32" height="32" viewBox="0 0 32 32">
<title>icon_basket</title>
<path d="M11.664 22.683c-1.227 0-2.221 0.964-2.221 2.143s0.994 2.143 2.221 2.143 2.232-0.964 2.232-2.143-1.004-2.143-2.232-2.143z"></path>
<path d="M11.854 19.201l0.034-0.129 1.004-1.746h8.313c0.007 0 0.016 0 0.024 0 0.818 0 1.533-0.439 1.923-1.094l3.666-6.389h-15.787l-2.413-4.375h-3.649v2.563h2.232l4.018 7.785-1.438 2.527c-0.179 0.3-0.25 0.75-0.25 1.125 0 1.179 0.906 2.063 2.133 2.063h13.393v-2.063h-12.923c-0 0-0.001 0-0.001 0-0.15 0-0.272-0.119-0.278-0.267z"></path>
<path d="M22.824 22.683c-1.227 0-2.221 0.964-2.221 2.143s0.993 2.142 2.221 2.142 2.232-0.964 2.232-2.142-1.004-2.142-2.232-2.142z"></path>
</svg>
