<!-- Generated by IcoMoon.io -->
<svg version="1.1" xmlns="http://www.w3.org/2000/svg" width="100%" height="100%" viewBox="0 0 32 32">
<title>icon_timer</title>
<path d="M16.070 9.34c-4.627 0-8.377 3.744-8.377 8.362s3.751 8.362 8.377 8.362c4.627 0 8.377-3.744 8.377-8.362s-3.751-8.362-8.377-8.362zM16.044 23.697c-3.344 0-6.055-2.702-6.055-6.034s2.711-6.034 6.055-6.034 6.055 2.702 6.055 6.034c0 3.333-2.711 6.034-6.055 6.034z"></path>
<path d="M15.209 12.331h1.879v5.358h-1.879v-5.358z"></path>
<path d="M14.557 5.958h3.106v2.185h-3.106v-2.185z"></path>
<path d="M23.405 8.951l-1.589-1.109-1 1.424 1.589 1.108z"></path>
</svg>
