<svg xmlns="http://www.w3.org/2000/svg" viewBox="0 0 32 32" width="100%" height="100%"><title>icon_foursquare</title><path d="M23.243 3.025H9.148c-1.945 0-2.517 1.46-2.517 2.379v22.351c0 1.036.558 1.42.871 1.546s1.178.234 1.697-.363c0 0 6.654-7.706 6.769-7.82.173-.173.173-.173.346-.173h4.305c1.809 0 2.1-1.288 2.289-2.046.157-.635 1.922-9.653 2.512-12.514.45-2.183-.106-3.36-2.176-3.36zm-.336 15.874c.157-.635 1.922-9.653 2.512-12.514zM22.41 6.832l-.592 3.077c-.071.333-.49.683-.88.683h-5.491c-.618 0-1.06.42-1.06 1.036v.671c0 .617.445 1.053 1.063 1.053h4.659c.436 0 .864.477.77.942-.095.466-.538 2.772-.591 3.026s-.346.69-.864.69h-3.803c-.693 0-.902.09-1.365.665s-4.63 5.569-4.63 5.569c-.042.048-.083.034-.083-.018V6.785c0-.393.343-.855.857-.855h11.311c.416 0 .805.39.699.901z"/></svg>