<svg xmlns="http://www.w3.org/2000/svg" viewBox="0 0 32 32" width="100%" height="100%"><path d="M21.765 2.531H10.271c-.959 0-1.74.78-1.74 1.74v22.458c0 .959.781 1.74 1.74 1.74h11.494c.959 0 1.74-.78 1.74-1.74V4.271c0-.959-.781-1.74-1.74-1.74zM9.959 6.969h12.119v17.063H9.959V6.969zm.703-3h10.822c.375 0 .594.255.594.625v1.424H9.951l.008-1.424c0-.37.25-.625.703-.625zm-.078 23.062c-.37 0-.625-.301-.625-.671v-1.391h12.119v1.391c0 .37-.301.671-.672.671H10.584z"/><path d="M14.64 5.406h3.262c.177 0 .32-.194.32-.371s-.143-.379-.32-.379H14.64c-.177 0-.32.202-.32.379s.143.371.32.371zM16.25 25.469c-.293 0-.531.238-.531.531s.238.531.531.531.531-.238.531-.531-.238-.531-.531-.531z"/></svg>