<svg xmlns="http://www.w3.org/2000/svg" viewBox="0 0 32 32" width="100%" height="100%"><path d="M17.363 21.344L16 22.707v.744l2.106-2.106L16 19.239v.744l1.363 1.363M27.188 12.55l-.406.306c.938.813 1.431 1.719 1.431 2.65 0 1.469-1.225 2.869-3.456 3.938-.181.087-.375.175-.563.256l.65.256c.044-.019.087-.038.131-.063 2.413-1.156 3.738-2.712 3.738-4.387.006-1.056-.525-2.063-1.525-2.956z"/><path d="M18.106 21.344l-.25-.25c-.55.038-1.1.056-1.663.056-3.244 0-6.287-.606-8.575-1.7-2.225-1.069-3.456-2.469-3.456-3.938 0-.887.444-1.744 1.281-2.519l-.35-.35c-.938.869-1.431 1.85-1.431 2.869 0 1.675 1.325 3.231 3.737 4.387 2.35 1.125 5.475 1.75 8.794 1.75.563 0 1.119-.019 1.669-.056l.244-.25z"/><path d="M9.006 13.637c.075 1.125.494 1.575 1.519 1.575.944 0 1.419-.387 1.419-1.325 0-.856-.4-1.313-1.419-1.313h-.7v-.713h.65c.887 0 1.313-.438 1.313-1.206 0-.856-.506-1.225-1.363-1.225-.863 0-1.331.387-1.412 1.556h-.769c.075-1.412.662-2.294 2.175-2.294 1.469 0 2.156.731 2.156 1.963 0 .625-.3 1.213-.912 1.5.662.225 1.069.731 1.069 1.731 0 1.213-.769 1.963-2.219 1.963-1.544 0-2.206-.713-2.275-2.219h.769v.006zM14.344 11.5l1.75-2.681h.863l-1.787 2.713a1.96 1.96 0 0 1 .862-.188c1.45 0 2.175.713 2.175 2.219 0 1.625-.819 2.294-2.256 2.294-1.469 0-2.269-.669-2.269-2.294.006-.856.244-1.419.662-2.063zm1.612 3.713c1.087 0 1.45-.537 1.45-1.613 0-1.081-.369-1.588-1.45-1.588S14.5 12.518 14.5 13.6s.356 1.613 1.456 1.613zM19.094 12.2c0-2.481.538-3.5 2.294-3.5 1.762 0 2.294.981 2.294 3.5 0 2.762-.613 3.656-2.294 3.656s-2.294-.844-2.294-3.656zm3.762 0c0-2.137-.331-2.762-1.469-2.762-1.156 0-1.469.625-1.469 2.762 0 2.356.262 3.012 1.469 3.012s1.469-.656 1.469-3.012zM24.619 9.869c0-.625.494-1.125 1.156-1.125.65 0 1.137.506 1.137 1.125s-.488 1.137-1.137 1.137a1.137 1.137 0 0 1-1.156-1.137zm1.75 0c0-.363-.25-.625-.594-.625-.363 0-.613.262-.613.625s.25.625.613.625c.344-.006.594-.269.594-.625z"/></svg>