<svg xmlns="http://www.w3.org/2000/svg" width="32" height="32" viewBox="0 0 32 32"><title>icon_performance</title><path d="M26.438 10.693a6.69 6.69 0 0 0-.165-.107l-.03-.019a7.322 7.322 0 0 0-.174-.107l-.003-.002a9.398 9.398 0 0 0-.17-.098l-.044-.024a7.71 7.71 0 0 0-.351-.184l-.057-.027-.113-.053-.067-.03-.102-.045a3.58 3.58 0 0 0-.071-.029l-.098-.04-.073-.028a9.708 9.708 0 0 1-.095-.036l-.075-.026-.093-.032-.076-.024a4.749 4.749 0 0 0-.092-.029l-.076-.022-.091-.025-.076-.019-.091-.022-.077-.017-.09-.019-.077-.014-.089-.016-.078-.012-.088-.013-.078-.009-.087-.01a2.053 2.053 0 0 0-.078-.007l-.086-.007a2.036 2.036 0 0 0-.078-.004l-.085-.004-.078-.001-.06-.001h-.049a4.762 4.762 0 0 0-.293.014c-.04.003-.081.005-.121.009l-.113.014-.09.011c-.044.006-.087.014-.131.022l-.069.012c-.048.009-.096.02-.144.031l-.054.012c-.052.012-.104.027-.155.041l-.041.011a3.121 3.121 0 0 0-.193.061 3.91 3.91 0 0 0-.191.069c-.059.023-.118.048-.177.073l-.012.005-.18.084-.006.003c-.061.03-.122.062-.183.095l-.002.001a5.411 5.411 0 0 0-.889.616l-.052.043c-.522.451-1.033.875-1.541 1.269a21.81 21.81 0 0 1-.326.249l-.029.022c-.103.077-.205.153-.308.227l-.025.018a19.23 19.23 0 0 1-1.693 1.103l-.001.001c-.115.066-.23.13-.345.192a12.911 12.911 0 0 1-3.549 1.313l-.188.037-.116.022a9.516 9.516 0 0 1-.179.031l-.138.022-.167.026c-.095.014-.191.027-.288.039l-.121.014-.211.023-.128.012a8.045 8.045 0 0 1-.223.018l-.111.008c-.112.007-.224.014-.338.019h-.001-.001a7.232 7.232 0 0 0-.257.016l-.058.005a7.17 7.17 0 0 0-.515.064l-.05.008a7.19 7.19 0 0 0-.248.046l-.047.01a8.242 8.242 0 0 0-.226.051l-.033.008c-.082.02-.164.043-.246.066l-.049.014c-.166.049-.33.104-.493.165l-.046.018a7.178 7.178 0 0 0-.242.097l-.015.007a6.728 6.728 0 0 0-.23.103l-.038.017c-.079.038-.158.076-.237.117a6.891 6.891 0 0 0-.253.137l-.022.012c-.078.044-.155.09-.232.138l-.035.021a7.95 7.95 0 0 0-.458.307l-.035.025a9.002 9.002 0 0 0-1.236 1.094c-1.101 1.169-1.634 2.321-1.656 2.369l1.644.754c.004-.008.342-.728 1.024-1.54.052-.062.107-.125.163-.189l.003-.003a7.704 7.704 0 0 1 .376-.392l.074-.07c.042-.04.084-.079.127-.117l.095-.084.103-.087.113-.094.042-.033c.109-.086.218-.168.33-.245l.007-.005c.058-.04.117-.079.175-.117l.025-.016a5.424 5.424 0 0 1 2.735-.869 15.048 15.048 0 0 0 3.343-.51l.123-.034a10.753 10.753 0 0 0 .316-.094c.215-.066.427-.137.636-.212l.131-.048.174-.066.137-.054.191-.077.239-.101c.052-.022.103-.046.155-.069a9.755 9.755 0 0 0 .301-.138l.158-.076.137-.067c.089-.044.177-.089.265-.135l.135-.071.161-.086.137-.075.17-.096a23.262 23.262 0 0 0 2.877-1.977l.023-.018.203-.163.093-.075.174-.142.129-.107.15-.124a21.4 21.4 0 0 0 .169-.143l.115-.097.29-.249c.038-.033.075-.064.113-.094 1.013-.815 2.146-.912 3.454-.296l.041.019.126.062h.001l.12.063.039.022.079.044.044.026.073.043.044.027.072.044.041.026.078.051.03.02.106.072a.153.153 0 0 0 .016.011l.087.061.033.024.068.049.035.026.063.048.033.025.065.051.026.021.081.065.006.005.088.073.004.003.077.066.015.013.063.055.015.013.061.055a.1.1 0 0 1 .011.01l.066.061c.255.236.402.401.405.405l1.363-1.189a9.613 9.613 0 0 0-1.768-1.515z"/><path d="M24.312 12.767c-.473-.242-.904-.364-1.282-.364-.45 0-.855.169-1.273.531-.374.323-.735.626-1.086.91h3.892v1.313h-5.632a19.62 19.62 0 0 1-2.909 1.687h8.541v1.313H11.53a16.75 16.75 0 0 1-1.556.138c-1.218.052-2.328.594-3.299 1.61a7.299 7.299 0 0 0-1.111 1.521v4.668h20.875V14.546l-.39-.444c-.031-.034-.764-.837-1.735-1.334zm.251 11.577H7.375v-1.313h17.188v1.313zm0-3.063H7.375v-1.313h17.188v1.313zM7.375 13.844h5.507c1.294-.4 2.478-1.016 3.651-1.813H7.375v-1.313h10.904c.298-.243.599-.497.904-.76a6.378 6.378 0 0 1 1.526-.99H7.375V7.655h17.188V8.67a7.635 7.635 0 0 1 1.875.774V5.905H5.563v9.833a8.589 8.589 0 0 1 1.813-.902v-.993z"/></svg>