<svg xmlns="http://www.w3.org/2000/svg" viewBox="0 0 32 32" width="100%" height="100%"><path d="M28.038 14.912c-2.344-1.075-6.206-1.25-6.406-1.256-.006 0-.012 0-.019-.006l-3.844-2.05c-1.094-.469-2.269-.719-3.456-.744-.006 0-.019 0-.025-.006l-7.669-.006c-.519 0-.938.419-.938.938 0 0-1.85 1.744-2.538 2.494-.163.181-.256.406-.263.65-.006.512-.019 1.444.006 1.544v1.137c0 .438.288.825.706.956l2.219.694c.019.006.031.019.037.038.394 1.081 1.419 1.863 2.638 1.863 1.206 0 2.231-.769 2.625-1.837.006-.025.031-.038.056-.038h9.956c.025 0 .05.019.056.038.4 1.069 1.419 1.837 2.625 1.837 1.231 0 2.269-.8 2.65-1.9.006-.019.019-.031.038-.038l1.988-.663c.381-.125.644-.488.644-1.025v-.869c.006-.744-.413-1.438-1.087-1.75zm.156 2.619c0 .094-.019.144-.025.156l-1.994.65-.444.15-.15.444c-.3.906-1.238 1.462-2.206 1.238-.65-.15-1.137-.688-1.363-1.313l-.181-.512H10.468l-.175.5c-.225.625-.706 1.156-1.344 1.319-.963.244-1.906-.306-2.219-1.206l-.156-.444-.45-.137-2.256-.706c-.031-.006-.044-.031-.044-.063v-1.25l-.013-.044c-.006-.1-.013-.425.006-1.363 0-.019.006-.031.019-.044.669-.719 2.469-2.425 2.487-2.444l.294-.275v-.406h7.456c1.137 0 2.244.225 3.288.669l4.012 2.137.212.006c.038 0 3.894.162 6.088 1.188.313.144.519.475.519.838v.913z"/></svg>