<!-- Generated by IcoMoon.io -->
<svg version="1.1" xmlns="http://www.w3.org/2000/svg" width="100%" height="100%" viewBox="0 0 32 32">
<title>icon_plug_pcm</title>
<path d="M28.25 13.494c0 0.331-0.225 0.556-0.556 0.556h-3.9v1.669h-4.456c-2.281 0-4.119-1.725-4.4-3.9h-0.056c-2.006 0-7.237 0-7.237 2.781 0 1.338 1.45 2.063 3.006 2.838 1.725 0.837 3.675 1.837 3.675 3.844 0.006 3.906-7.956 3.906-10.575 3.906v-1.113c8.244 0 9.469-1.725 9.469-2.781 0-1.337-1.45-2.063-3.006-2.837-1.725-0.837-3.675-1.837-3.675-3.844 0-3.9 6.069-3.9 8.35-3.9h0.056c0.281-2.169 2.169-3.9 4.4-3.9h4.456v1.669h3.9c0.331 0 0.556 0.225 0.556 0.556s-0.225 0.556-0.556 0.556h-3.9v3.344h3.9c0.325 0 0.55 0.225 0.55 0.556z"></path>
</svg>
