<svg xmlns="http://www.w3.org/2000/svg" viewBox="0 0 32 32" width="100%" height="100%"><path d="M16.017 20.804h-.01c-2.275 0-4.349.857-5.919 2.265-.085.078-.144.2-.144.336 0 .129.053.246.138.33l1.321 1.321c.084.085.2.137.329.137.115 0 .221-.042.302-.112 1.061-.922 2.457-1.484 3.984-1.484s2.923.562 3.992 1.491c.073.063.179.105.294.105.129 0 .245-.052.329-.137l1.321-1.321c.084-.084.136-.2.136-.329 0-.137-.059-.259-.153-.344-1.562-1.402-3.636-2.259-5.911-2.259h-.01zM6.137 18.616l1.318 1.321c.084.084.201.136.329.136.123 0 .234-.047.318-.125 2.072-1.921 4.857-3.099 7.917-3.099s5.844 1.178 7.924 3.106c.075.07.187.118.31.118.128 0 .245-.052.329-.136l1.318-1.318c.085-.084.137-.201.137-.33 0-.134-.057-.255-.147-.34-2.576-2.413-6.05-3.896-9.871-3.896s-7.294 1.482-9.878 3.903c-.082.078-.138.198-.138.332 0 .128.052.244.135.328z"/><path d="M2.389 13.299l1.284 1.284c.082.082.194.132.319.132.12 0 .229-.047.31-.124C7.342 11.7 11.463 9.922 16 9.922s8.659 1.778 11.706 4.676c.073.07.183.117.303.117.125 0 .237-.051.319-.132l1.284-1.284c.082-.082.132-.195.132-.32 0-.129-.054-.245-.14-.328-3.533-3.368-8.326-5.44-13.604-5.44S5.929 9.283 2.388 12.659c-.078.075-.132.191-.132.319 0 .125.051.239.133.321z"/></svg>