<svg xmlns="http://www.w3.org/2000/svg" viewBox="0 0 32 32" width="100%" height="100%"><path d="M11.359 18.51c0-1.469-.008-2.938.007-4.408.003-.284-.086-.353-.357-.346-.716.018-1.432-.006-2.148.012-.265.006-.368-.049-.36-.341a45.98 45.98 0 0 0 .002-2.259c-.005-.232.072-.344.282-.444 1.295-.613 2.395-1.467 3.21-2.661.662-.971 1.036-2.043 1.069-3.219.008-.288.096-.349.363-.343.728.017 1.457.019 2.185-.001.281-.007.353.08.352.355-.01 1.679.006 3.358-.008 5.037-.002.307.079.391.385.389 1.654-.012 3.309.008 4.963-.008.321-.003.392.096.387.394-.016.926-.015 1.852.004 2.778.005.273-.092.323-.339.321-1.666-.01-3.334.002-5-.011-.292-.002-.402.049-.399.375.016 2.136.006 4.272.01 6.408 0 .245.02.494.062.736.215 1.231 1.121 1.994 2.372 2.025 1.212.03 2.334-.332 3.44-.77.406-.161.407-.162.407.259.002.926 0 1.852.005 2.778.001.16-.008.28-.202.33-2.223.573-4.466.949-6.772.655-.801-.102-1.57-.327-2.26-.768-1.087-.694-1.62-1.711-1.646-2.978-.03-1.431-.007-2.864-.007-4.296h-.005z"/></svg>