<svg xmlns="http://www.w3.org/2000/svg" viewBox="0 0 32 32" width="100%" height="100%"><path d="M28.719 15.369c-2.4-1.119-6.45-1.275-6.45-1.275l-3.856-2.056c-1.169-.5-2.425-.756-3.694-.756H7.263c-.138 0-.281.05-.419.125L2.882 7.444l-.663.662L6.313 12.2l.388.419h.575v-.406h7.438c1.137 0 2.244.225 3.294.669l4.012 2.137.212.006c.038 0 3.894.162 6.088 1.188.313.144.512.475.512.837v.913c0 .094-.019.144-.025.156l-1.994.65-.444.15-.15.444c-.256.769-.969 1.288-1.769 1.288-.788 0-1.494-.506-1.762-1.25l-.219-.625h-11.35l-.219.625c-.269.75-.975 1.25-1.762 1.25s-1.5-.506-1.763-1.262l-.156-.444-.45-.137-2.3-.719v-2.131h-.938v2.131c0 .413.269.775.656.894l2.3.719c.381 1.1 1.419 1.887 2.644 1.887s2.256-.788 2.644-1.875h10.038c.387 1.087 1.419 1.875 2.644 1.875 1.244 0 2.288-.813 2.656-1.925l2.019-.675c.381-.125.644-.488.644-1.025v-.913c.006-.712-.4-1.381-1.056-1.681z"/></svg>