<svg xmlns="http://www.w3.org/2000/svg" width="32" height="32" viewBox="0 0 32 32"><title>icon_update-in-car</title><path d="M29.938 22.972v-.039l-.034-.028c-.005-.008-.004-.022-.011-.028-.025-.02-.059-.011-.063-.056-.016-.017 0-.11 0-.134l.051-.341.006-.129h.006v-.063h.006v-.078a.744.744 0 0 0 .005-.171l-.005-.154c.009-.031.014-.075.023-.106v-.056h.006a.745.745 0 0 0-.006-.149l-.045-.086-.011-.006v-.011l-.011-.006v-.011l-.028-.023v-.011l-.034-.028v-.007l-.084-.078-.063-.067h-.011l-.023-.028h-.011l-.017-.023h-.011l-.017-.023h-.011l-.017-.023-.017-.006-.006-.011h-.011l-.011-.017h-.011l-.011-.017-.017-.006-.006-.011h-.011l-.006-.011h-.011l-.006-.011-.017-.006-.011-.017h-.011l-.006-.011h-.011l-.011-.017h-.011l-.006-.011h-.011v-.006l-.017-.006-.006-.011h-.011l-.011-.017h-.012l-.006-.011-.017-.006v-.006h-.011l-.006-.011h-.011l-.006-.011h-.006l-.006-.011h-.011l-.006-.011h-.011l-.006-.011h-.011l-.006-.011h-.011l-.006-.011h-.011l-.006-.011h-.011l-.006-.011h-.011v-.007l-.023-.006v-.006h-.023l-.017-.028-.023-.006-.011-.011h-.011v-.006h-.011v-.006h-.014v-.006h-.011v-.006h-.011v-.006h-.011v-.006h-.011v-.006h-.017v-.006l-.034-.011v-.006h-.011v-.006h-.011v-.001h-.006v-.006h-.011v-.006h-.011v-.006h-.011v-.006h-.011v-.006h-.011v-.006h-.017v-.006l-.034-.011V20.5h-.011v-.006h-.011v-.006h-.011v-.006h-.011v-.006h-.011v-.006h-.011v-.006h-.013v-.006h-.017v-.006l-.023-.006v-.006h-.011v-.006h-.012v-.006h-.011v-.006l-.034-.011v-.006h-.017v-.006l-.023-.006v-.006h-.011v-.006h-.011v-.006l-.034-.011v-.006h-.017v-.006h-.011v-.006h-.011v-.006l-.034-.011v-.006h-.017v-.006h-.011v-.006h-.008v-.006l-.034-.011v-.006h-.017v-.006h-.012v-.006l-.034-.011v-.006h-.017v-.006h-.012v-.006h-.011v-.006l-.034-.011v-.006h-.017v-.006l-.023-.006v-.006h-.017V20.2h-.011v-.006l-.023-.006v-.006h-.017v-.006l-.023-.006v-.003h-.012v-.006l-.023-.006v-.006h-.017v-.006l-.023-.006v-.006h-.017v-.006h-.011v-.006h-.017v-.006h-.011v-.006l-.028-.006v-.006h-.017v-.006h-.011v-.006h-.017v-.006h-.011v-.006h-.017v-.006h-.011v-.006l-.051-.011a.281.281 0 0 1-.067-.056l-.012-.017h-.011l-.045-.051h-.011l-.028-.034h-.011l-.017-.023h-.011l-.017-.023h-.011l-.017-.023h-.011l-.011-.017h-.011l-.011-.017h-.011l-.006-.011h-.011l-.011-.017h-.011l-.006-.011-.017-.006v-.006h-.011l-.006-.011h-.011l-.006-.011H27.3l-.006-.011h-.011l-.006-.011h-.011v-.006h-.011l-.006-.011-.023-.006-.006-.011-.023-.006-.006-.011-.034-.011-.006-.011h-.011v-.006h-.011l-.011-.011h-.011a2.75 2.75 0 0 0-.356-.181l-.063-.013v-.006h-.017v-.006h-.017v-.006h-.017v-.006h-.017v-.006l-.039-.006v-.006l-.045-.006v-.006h-.028v-.006h-.023v-.006h-.023v-.006h-.028v-.006l-.051-.006v-.006h-.028v-.006h-.028v-.006h-.028V19.3h-.028v-.006l-.063-.006v-.006h-.028v-.006h-.034v-.006c-.006 0-.015.011-.028.006l-.006-.011h-.017v-.006h-.028c-.045-.014-.106-.02-.151-.034h-.034c-.052-.016-.121-.018-.173-.034l-.084-.006c-.063-.019-.152-.014-.218-.034l-.106-.006v-.006h-.056v-.006h-.056v-.006h-.063v-.006h-.063v-.006H25v-.006h-.063v-.006h-.064v-.006h-.063v-.006l-.14-.006v-.002h-.073v-.006h-.067v-.006h-.078v-.006h-.08v-.006h-.078v-.006h-.078v-.006l-.168-.006v-.006h-.045c-.089-.026-.203-.024-.291-.051l-.112-.011c-.075-.023-.171-.023-.246-.045l-.073-.006c-.052-.016-.121-.018-.173-.034l-.067-.006-.521-.106-.016-.001a.114.114 0 0 0-.041.007h-.092v.006l-.129.006v.006h-.067s0 .004-.011.006h-.063a.415.415 0 0 1-.131.005l.002-.005h-.051l-.006-.011-.023-.006v-.006l-.034-.011v-.006h-.017v-.006l-.023-.006v-.006l-.028-.006v-.006l-.063-.011-.011-.017-.023-.006v-.006l-.034-.011v-.006h-.028c-.009 0-.041-.017-.056-.011l-.006.011h-.039l-.006.011-.028.006v-.006l-.023-.006-.006-.011h-.011v-.006h-.011v-.006h-.011l-.006-.011h-.011l-.011-.011-.023-.006-.006-.011h-.011l-.011-.011h-.011l-.006-.011h-.011v-.006h-.011l-.011-.011h-.011l-.006-.011h-.011v-.006h-.011v-.006h-.011l-.011-.011h-.011l-.006-.011h-.011v-.006h-.011l-.011-.011h-.011l-.006-.011h-.011v-.006h-.011l-.011-.011h-.011l-.006-.011h-.011v-.006h-.011l-.011-.011h-.011l-.006-.011h-.011v-.006h-.011v-.006h-.011l-.011-.011h-.011l-.006-.011-.023-.006v-.006h-.011l-.011-.011h-.011l-.006-.011h-.011v-.006h-.011v-.006h-.011l-.011-.011h-.011l-.006-.011h-.011v-.006h-.011v-.006h-.011l-.011-.011h-.011l-.006-.011h-.011v-.006h-.011v-.006h.001l-.011-.011h-.011l-.006-.011h-.011l-.011-.011h-.012v-.006h-.011v-.003h-.011v-.006l-.023-.006-.006-.011h-.012l-.011-.011h-.011v-.006h-.011v-.006l-.023-.006-.006-.012h-.011l-.011-.011h-.011v-.006h-.011v-.006h-.011v-.006l-.023-.006-.006-.011h-.011l-.011-.011h-.011v-.006h-.011v-.006l-.023-.006-.006-.011-.089-.039-.006-.011h-.011l-.011-.011h-.011v-.006h-.011v-.006h-.011v-.006h-.011l-.084-.051h-.011v-.006H20.2v-.006h-.011v-.006h-.011l-.011-.011h-.011l-.006-.011h-.011l-.011-.011h-.011v-.006h-.011v-.006h-.011v-.006h-.011v-.006h-.011v-.006h-.007v-.006h-.011v-.006h-.011v-.006h-.011v-.003h-.011l-.011-.011H20l-.006-.011-.034-.011v-.006l-.023-.006v-.006h-.011v-.006h-.011v-.006h-.011v-.006h-.011v-.006l-.023-.006v-.006h-.011v-.006h-.011v-.006h-.011v-.006h-.011v-.006h-.011v-.006l-.023-.006-.006-.011h-.011l-.011-.011h-.009v-.006h-.011v-.006l-.034-.011v-.006l-.023-.006v-.006l-.023-.006v-.006h-.011v-.006h-.011v-.006h-.012v-.006h-.011v-.006h-.011v-.006h-.011v-.006h-.011v-.006h-.011v-.006h-.011v-.006l-.023-.006v-.002l-.023-.006v-.006l-.023-.006v-.006h-.011v-.006h-.011v-.006h-.011v-.006h-.011v-.006l-.034-.011v-.006l-.023-.006v-.006h-.014v-.006l-.034-.011v-.006h-.011v-.006h-.011v-.006h-.011v-.006l-.089-.039v-.006l-.023-.006v-.006h-.017v-.006l-.034-.011v-.006h-.011v-.006h-.011v-.006h-.011v-.006h-.011V17.4h-.011v-.006h-.011v-.006h-.015v-.006h-.011v-.006h-.017v-.006l-.023-.006v-.006h-.012v-.006h-.011v-.006l-.034-.011v-.006h-.017v-.006l-.023-.006v-.006h-.011v-.006h-.011v-.008h-.011v-.006l-.034-.011v-.006h-.017v-.006h-.011v-.006h-.008v-.006h-.011v-.006l-.034-.011v-.006h-.029v-.006h-.011v-.006h-.011v-.006l-.034-.011v-.006h-.017v-.006h-.011v-.006l-.034-.011v-.006h-.017v-.006h-.011v-.006h-.011v-.006l-.034-.011v-.006h-.017v-.006h-.011v-.006l-.034-.011v-.006h-.017v-.006l-.023-.006v-.006l-.023-.006v-.006h-.011v-.006H18.4v-.006h-.011v-.006l-.023-.006v-.006h-.017v-.006h-.011v-.006l-.034-.011v-.006h-.017v-.006h-.011v-.006l-.034-.011v-.006h-.017v-.006h-.011v-.006l-.023-.006v-.006h-.017v-.006h-.011v-.006l-.023-.006v-.006h-.012v-.006h-.011v-.006h-.011v-.006h-.011v-.006l-.029-.006v-.006l-.023-.006v-.006h-.017v-.006h-.011v-.006l-.023-.006v-.006h-.017v-.006h-.011v-.006l-.023-.006v-.006h-.017l-.023-.006v-.006h-.017v-.006h-.008v-.006l-.023-.006v-.006h-.017v-.006l-.023-.006v-.006h-.017v-.006l-.023-.006v-.006h-.017v-.006l-.023-.006v-.006h-.017v-.006h-.011v-.006l-.023-.006v-.006h-.017v-.006l-.023-.006v-.007h-.019v-.006l-.023-.006v-.006h-.017v-.006l-.023-.006v-.006h-.017v-.006l-.023-.006v-.006h-.017v-.006h-.007v-.006h-.017v-.006l-.023-.006v-.006h-.017v-.006l-.023-.006v-.006l-.056-.017-.017-.028h-.017v-.006h-.019v-.006h-.017v-.006h-.017v-.006h-.017v-.006l-.106-.023c-.104-.038-.227-.055-.336-.089h-.028v-.006h-.028v-.006h-.028v-.006h-.028v-.006h-.028c-.054-.017-.125-.023-.179-.039l-.073-.006c-.041-.012-.099-.016-.14-.028h-.045v-.006l-.084-.006v-.006h-.051V16.3h-.046v-.006h-.051v-.006h-.063v-.006h-.063v-.006h-.067v-.006h-.07v-.006l-.106-.006h-.056v-.006l-.319-.011a.88.88 0 0 0-.191-.005h-.053a1.116 1.116 0 0 0-.245-.005.684.684 0 0 0-.124.005h-.293v.006h-.168v.006c-.035.01-.094-.004-.129.006s-.087 0-.117.006h-.063l-.129.006v.006h-.078v.006h-.072v.006h-.076v.006h-.067v.006h-.067v.006h-.063v.006h-.063c-.08.023-.188.011-.269.034h-.051c-.055.016-.13.012-.188.028h-.051v.006h-.039v.006h-.045v.008h-.045v.006h-.039v.006h-.045v.006h-.045v.006h-.045v.006h-.039v.006l-.078.006c-.067.019-.152.019-.218.039h-.034v.006h-.034v.006h-.034v.006h-.039c-.063.018-.136.021-.196.039l-.067.006c-.039.012-.09.016-.129.028h-.034c-.036.011-.086.017-.125.028h-.034c-.025.008-.063.015-.089.023h-.034c-.098.03-.216.037-.313.067l-.063.006v.006h-.023v.006H10.8v.006h-.028v.004h-.028v.006l-.051.006v.006l-.056.006v.006l-.056.011-.006.011h-.011l-.023.028h-.011v.006l-.051.006-.089.028h-.027c-.13.043-.279.063-.408.106l-.112.023c-.099.036-.219.054-.319.089h-.023v.006h-.023v.006h-.023v.006h-.023c-.088.032-.192.052-.28.084h-.023v.006h-.017v.006h-.023v.006h-.023c-.063.022-.135.039-.196.063h-.023v.006H8.83v.006h-.023v.006H8.79v.006l-.039.006v.006l-.039.006v.006l-.056.011v.006h-.023v.006h-.017v.006h-.017v.006l-.072.017v.006h-.023v.006h-.017v.002H8.47v.006h-.017v.006h-.017v.006H8.42v.006h-.017v.006h-.017v.006h-.017v.006h-.017v.006h-.023v.006h-.017v.006h-.018v.006h-.023v.006h-.017v.006h-.017v.006H8.22v.006h-.017v.006h-.017v.006h-.023c-.222.081-.466.137-.683.224h-.017v.006h-.017v.006h-.017v.006h-.017v.006l-.051.011v.006H7.35v.006h-.017v.006l-.051.011v.006l-.051.011v.006H7.22v.006h-.017v.006h-.017v.006h-.017v.006h-.017l-.078.034-.051.011v.006l-.034.006c-.139.063-.298.102-.438.163h-.012v.006h-.017v.006h-.017v.006h-.017v.006h-.012v.006l-.034.006-.078.034h-.017v.006H6.33v.006h-.017v.006h-.017v.006h-.011v.006h-.017v.006h-.017v.003h-.017v.006h-.017v.006H6.2v.006h-.017v.006a.293.293 0 0 1-.047-.012l-.043.001v-.006h-.056v-.006h-.028v.006h-.028v.006l-.051.011v.006h-.018v.006h-.017v.006h-.017v.006h-.017v.006h-.012v.006l-.034.006v.006l-.034.006v.006h-.022v.006l-.034.006v.006h-.017v.006h-.017v.006h-.017v.006h-.017v.006H5.64v.007h-.017v.006l-.051.011v.006h-.018v.006l-.063.006v.006h-.019v.006h-.011v.006l-.034.006v.006h-.011v.006l-.034.006v.006h-.011v.006h-.017v.006h-.007v.006H5.33v.006c-.029.012-.068.015-.084.039-.011.011-.011.028-.011.051a.542.542 0 0 0-.244.058l-.047.01v.006h-.011v.006l-.034.006v.006l-.034.006v.006h-.011v.006l-.051.011v.003h-.011v.006l-.051.011v.006H4.73v.006l-.034.006v.006h-.011v.006h-.017v.006h-.009v.006h-.017v.006h-.017v.006h-.011v.006h-.018v.006h-.011v.006h-.017v.006h-.011v.006H4.54v.006h-.011v.006h-.017v.006l-.022.006v.006h-.018v.006h-.011v.006h-.017v.006l-.028.006v.006h-.011v.006h-.017v.006l-.022.006v.006h-.017v.006h-.011v.006h-.015v.001l-.022.006v.006h-.015v.006l-.022.006v.006h-.017v.006h-.011v.006l-.022.006v.006h-.017v.006l-.034.011v.006h-.011v.006l-.022.006-.006.011h-.012l-.017.023h-.011l-.022.028H4.01a.19.19 0 0 0-.067.012l.001.005-.022.006-.006.011h-.011l-.011.011h-.011v.006h-.011v.006h-.011v.006h-.01v.006H3.84v.006l-.034.011v.006l-.028.006v.008l-.022.006v.006l-.022.006v.006l-.022.006v.006h-.011v.006H3.69v.006h-.011v.006h-.014v.006h-.011v.006h-.02v.006h-.011v.006h-.011v.006l-.034.011v.006h-.017v.006l-.022.006v.006h-.017v.006h-.011v.006l-.034.006c-.103.045-.227.073-.336.112l-.151.034-.011.017-.034.028v.011l-.022.017c-.009.012-.011.024-.022.034.004.021.01.039.016.057l-.006-.002-.101.106h-.011l-.07.07-.034.006-.011.017c-.021.014-.034.005-.039.039h-.017c-.008.014-.018.016-.022.034h-.011c-.006.026-.014.009-.006.039l-.028.023-.067.073h-.011l-.011.017h-.011v.006l-.011.006v.017l-.011.006v.006h-.011l-.006.011-.017.006-.006.023-.017.011v.017l-.011.006v.011l-.017.011-.017.023-.011.006v.011l-.033.027v.011l-.028.023v.011l-.011.006-.006.017-.022.017v.011l-.017.011v.011h-.006l-.006.017-.011.006v.011l-.017.011-.006.023h-.006l-.006.017-.011.006-.006.023-.011.006-.039.089-.011.106h-.006v.084a.79.79 0 0 0 0 .251l-.001.073h.006v.063c.015.052.013.125.028.173v.039l.063.375h.006v.023h.006v.028h.006v.022h.006v.017a.974.974 0 0 1 .053.116.11.11 0 0 1 .004.025c0 .031-.009.06-.024.085l-.011.005v.011l-.011.006v.011l-.011.006-.006.017-.017.011v.011l-.022.017v.011l-.022.017v.009l-.011.006v.011l-.011.006a.13.13 0 0 0-.011.073l.006-.001v.023l-.045.034v.011h-.003v.034h-.006v.017h-.006v.011h-.006v.011h-.006l.022.188c-.007.004-.007.009-.011.011h-.011l-.011.017h-.011a.064.064 0 0 0-.017.043v.002l.028.101h.006v.017h.006v.017h.006v.017h.006v.017h.006v.017h.006l.006.034h.006v.011h.006l.011.051h.006l.006.023h.006v.011l.011.006v.011l.034.028.017.023h.011l.006.011.028.006v.006l.022.006v.006l.056.011v.006h.017v.006h.022v.003h.039v.006h.039v.006l.118.006v.006h.063v.006h.063v.006h.034v.006h.017v.006h.028v.006l.051.006v.006h.034v.006h.039v.006h.039v.006l.151.017v.006l.034.011v.006l.051.017v.006h.011v.006h.017v.006h.017v.006l.039.006v.006l.039.006v.006h.017v.006h.011v.001h.011l.006.011h.013l.056.063a.66.66 0 0 0 .183.088l.038.001v.006h.028v.006h.045v.006a.65.65 0 0 0 .137-.006h.114v-.006l.034-.011v-.006h.078v-.006l.028-.006.008-.016.134.006v.006h.103c.027.008.076 0 .106.006s.076 0 .106.006v.006l.14.006h.063v.006h.106v.006h.022v.006h.028v.006H4.9v.006l.022-.006.168.006c.051.014.116.019.168.034h.045v.006l.125.006v.006h.063v.006h.072a.507.507 0 0 0 .106.011h.006c.003.008.008.008.011.011.013.021 0 .03.034.034a.426.426 0 0 0 .159-.006l.031.001a.263.263 0 0 1 .095-.017v.006h.011v.006h.011v.006h.017v.006h.017v.006h.017v.007H6.1l.168.006a.211.211 0 0 0 .029.051v.011l.011.006.006.023.011.006.006.023h.006l.006.017.011.006.006.023.017.011v.011l.011.006v.011h.006l.006.017.011.006v.011l.017.011v.011l.017.011v.011l.022.017v.011l.022.017v.011l.022.017v.006l.011.006v.011l.051.045v.01l.028.023.045.051h.011l.051.056h.011l.028.034h.011l.017.023h.011l.017.023h.011l.011.017h.011l.011.017.017.006.006.011h.011l.006.011h.011l.011.017.022.006.006.011h.011l.006.011h.011l.006.011h.011v.006h-.001l.006.011.022.006.006.011.034.011c.104.064.224.121.351.164l.058.01v.006h.017v.006l.051.006v.006h.022v.006h.022v.006h.028v.006h.028v.006l.095.011v.006l.078.006c.058.016.137.011.196.028h.067v.006h.078c.034.009.093-.004.129.006v.006a.585.585 0 0 0 .173-.006l.08.001v-.006h.051c.047-.014.111-.014.157-.028h.034v-.006l.056-.006v-.006h.028v-.006h.023v-.006h.023v-.006h.023v-.006l.045-.006v-.006l.056-.011v-.006h.017v-.006h.017v-.006l.034-.006v-.006h.011v-.006l.034-.006v-.006h.011v-.006l.03-.006v-.006l.023-.006v-.006h.017v-.006h.011v-.006h.017v-.006l.034-.011v-.006h.011v-.006h.017v-.006l.034-.011v-.006h.011v-.006h.013v-.006h.011v-.006h.011l.011-.011h.011l.006-.011h.012v-.006h.011l.011-.011h.011l.006-.011h.011v-.006h.012l.006-.011h.011l.006-.011h.011l.006-.011.023-.006v-.006l.017-.006.006-.011h.011l.011-.017h.011l.006-.011h.011l.011-.017h.011l.011-.017h.011l.011-.017h.011l.017-.023h.011l.023-.028h.011l.028-.034h.011l.051-.056a.884.884 0 0 0 .106-.095l.04-.045.034-.011.006-.011.034-.011.006-.011h.011l.006-.011h.011l.006-.011h.011l.006-.011h.011v-.006l.017-.006.006-.011h.011l.011-.017h.011l.006-.011h.011l.006-.011.017-.006.011-.017h.002l.011-.017h.011l.006-.011h.33l-.011.224.034.028h.006c.04 0 .078-.006.114-.018l.031.001c.033-.01.076-.016.106-.028a.514.514 0 0 0 .023-.151l.023-.017v-.006h1.529v.006h.034a.363.363 0 0 0 .09.012h.424v-.006l.173-.011h.101a.772.772 0 0 1 .17-.006h.02v-.006h.213v.006l.023.006v.006l.593-.006h.403a.627.627 0 0 1 .101-.008l.053.002h.428a.805.805 0 0 1 .181-.005h.343a.773.773 0 0 0 .155-.006h.914a.872.872 0 0 0 .161-.006l.729.006 1.645-.006.033.001c.03 0 .059-.002.087-.007h.657c.019-.002.041-.002.063-.002s.044.001.065.003l.048-.006v.006h.023v-.006h.034v.006l.005.001c.005 0 .009-.003.012-.006.019-.004.031.005.045.006l.045-.006v.006a.504.504 0 0 0 .161-.006h.047a.945.945 0 0 0 .166-.006h.164v-.006h.14c.031-.009.084.004.117-.006v-.006h.089l.112-.017a.02.02 0 0 1 .011-.011v-.017l.576-.011a.281.281 0 0 0 .088.077l.013.018h.011l.006.011h.011l.006.011h.011l.006.011.017.006v.006l.023.006.006.011h.011v.006h.011l.006.011h.011l.039.028v.018l.017.011v.006l.011.006v.011l.051.045v.011l.028.023.045.051h.011l.051.056h.011l.023.028h.011l.023.028h.011l.011.017h.011l.011.017h.011l.011.017h.011l.011.017h.011l.006.011h.011l.011.017h.011l.006.011h.011l.006.011.017.006v.006l.023.006v.006l.017.006.006.011h.011v.004h.011l.006.011h.011v.006h.011l.011.011h.011l.006.011h.011l.011.011h.011v.006h.011v.006h.011v.001h.011v.006l.034.011v.006h.017v.006l.023.006v.006h.008v.006l.023.006v.006h.017v.006h.011v.006h.017v.006h.011v.006l.034.006v.006h.012v.006l.034.006v.006h.017v.006h.017v.006h.017v.006h.023v.006h.018v.006h.017v.006l.039.006v.006l.045.006v.006l.067.011v.006h.028c.033.01.079.018.112.028l.117.011v.006h.045v.006h.063v.006h.073a.88.88 0 0 0 .19.005l.025.001a.428.428 0 0 0 .081-.007h.087v-.006h.063v-.006h.051v-.006h.045v-.006h.039v-.006h.034v-.006h.03v-.006h.034V24.5h.023v-.005h.028v-.006h.028v-.006l.045-.006v-.006l.045-.006v-.006l.039-.006v-.006h.017v-.006h.023v-.006h.011v-.006h.02v-.006h.011v-.006l.051-.011V24.4l.028-.006v-.006h.011v-.006h.017v-.006h.011v-.006h.017v-.006l.034-.011v-.006h.011v-.006h.011v-.006h.017v-.006h.011v-.006h.011l.006-.011h.011v-.006h.011V24.3h.011l.011-.011h.011l.006-.011.023-.006.006-.011.023-.006.006-.011h.009l.006-.011h.011l.006-.011h.011l.006-.011h.011l.006-.011h.011l.006-.011h.011l.006-.011h.011v-.001l.017-.006.006-.011h.011l.011-.017h.011l.006-.011h.011l.006-.011.017-.006.017-.023h.011l.011-.017.017-.006.034-.039h.011l.063-.067.073-.067.006-.017.039-.034v-.011l.028-.023V23.8l.023-.017v-.011l.023-.017v-.011l.017-.011.006-.017.011-.006v-.011l.011-.006.006-.017h.006v-.011l.011-.006.006-.017h.001l.006-.017h.291a.335.335 0 0 1 .005.108c.012.012 0 .039.006.061h.006l.006.067a.45.45 0 0 1 .021.053l.242.026.006.028a.116.116 0 0 0 .046-.012l-.001-.134a.078.078 0 0 1 .031-.006h.003c.024.025.115.006.151.006l.034.001a.588.588 0 0 0 .127-.013l.03.001v-.006h.023v-.006l.039-.006v-.006h.017v-.006h.017v-.006l.095-.023c.15-.057.325-.084.481-.134h.028v-.008h.023v-.006h.028v-.006h.028v-.006l.258-.023v-.006h.028v-.006h.023v-.006h.023v-.006h.017v-.006h.011v-.006h.017v-.006h.011v-.006h.014v-.006l.129-.011v-.006h.051v-.006h.051v-.006h.051v-.006l.056-.006v-.006h.028v-.006h.028v-.006l.063-.006c.082-.025.181-.031.263-.056h.031v-.006h.028v-.006a.078.078 0 0 1 .084.023v.011h.011l.006.011h.011l.006.011.067.023h.038v-.006h.006l.134-.006v-.006l.117-.006v-.006h.039v-.006h.034v-.006h.039c.057-.017.131-.021.188-.039h.023v-.006h.017v-.006h.023v-.006h.006v-.006h.017v-.006h.011v-.006h.011v-.006l.023-.017c.006-.009 0-.012.011-.023v-.045h-.006v-.011h-.005l-.006-.023-.011-.006a.094.094 0 0 1-.011-.045v-.006c.008-.005.008-.011.017-.017v-.006l.028-.006v-.006h.023v-.006h.028v-.006h.017l.006-.011a.18.18 0 0 0 .067-.14c-.014-.008-.016-.017-.032-.021zM21.35 7.341h-3.116V1.51h-4.357v5.831h-3.159l5.316 6.144 5.317-6.144z"/></svg>