<svg xmlns="http://www.w3.org/2000/svg" viewBox="0 0 32 32" width="100%" height="100%"><path d="M6.375 24.962H3.706c-.063 0-.119-.012-.156-.025-.325-.056-.6-.256-.75-.563l-.019-.038c-.006-.025-.019-.044-.031-.069-.044-.113-.106-.25-.131-.413-.075-.337-.119-.712-.131-1.113-.025-.525-.038-1.063-.05-1.587v-.012c0-.188.006-.369.006-.55 0-.175.006-.35.006-.525v-.019l-.038-1.863c-.006-.031-.013-.081-.013-.144V16.31c0-.063.006-.113.013-.144 0-.181.013-.344.025-.506v-.012c.019-.169.031-.35.05-.519.013-.175.031-.356.05-.537.019-.162.05-.319.081-.469l.038-.206c0-.012.006-.019.006-.031.044-.181.131-.306.212-.419.006-.006.006-.012.013-.019.131-.169.288-.313.438-.444-.006 0-.006-.006-.013-.006h-.006c-.362-.169-.538-.469-.519-.863 0-.069 0-.156.038-.25.125-.456.388-.806.788-1.037.388-.231.813-.344 1.269-.325h.013c.338.025.606.188.775.481.006.006.013.019.013.025.075.15.106.275.138.381.006.019.006.031.013.05.013.1.025.194.025.281h.081c.456-.931.9-1.731 1.369-2.431.306-.463.581-.819.856-1.131.2-.231.463-.406.787-.531.175-.069.375-.119.606-.15l.3-.056c.106-.025.219-.044.331-.063.5-.088.956-.144 1.381-.181l.475-.037.494-.037h.006c.419-.025.856-.05 1.294-.063.225-.006.456-.013.675-.013.213 0 .431-.006.644-.013.031-.006.069-.013.125-.013h1.156c.05 0 .094.006.125.013l.262.006c.65.013 1.2.025 1.756.056l.087.006.594.037.094.006c.319.025.656.05.988.081h.012c.306.044.6.088.894.125l.425.063h.006c.175.025.344.063.506.094l.031.006c.069.013.131.025.2.044.469.1.856.338 1.156.7.2.244.387.5.569.75.225.313.419.613.6.912.019.037.038.069.056.1.012.025.025.05.044.075.006.012.019.031.025.044l.012.025c.2.338.4.7.619 1.106.1.188.188.363.275.525h.05c0-.037 0-.075.006-.113 0-.1.012-.2.031-.294.019-.1.05-.188.094-.275.125-.3.363-.506.656-.556.106-.019.188-.019.262-.019h.05c.269.031.538.088.788.169.012.006.031.012.044.019.15.063.262.125.369.194 0 0 .006 0 .006.006.337.219.575.55.694.969.05.156.063.3.038.438 0 .012-.006.025-.006.037-.019.069-.038.125-.05.162-.006.012-.006.025-.012.037-.069.156-.181.287-.331.387.094.081.188.162.262.238l.012.012.025.025c.288.262.481.6.563 1v.012c.05.262.087.531.119.819.019.188.031.344.044.494.025.363.038.731.05 1.088v.025c.012.144.012.288.012.431 0 .494.012 1.012.025 1.469v.012c0 .131 0 .244.012.356v2.638c0 .044 0 .106-.012.188l-.038.725v.012c-.031.369-.075.688-.131.988-.044.275-.125.525-.238.769 0 .006-.006.006-.006.012-.175.35-.45.563-.813.65-.05.012-.1.019-.137.025h-.025c-.038.006-.069.012-.106.012h-2.456c-.069 0-.125-.012-.169-.031-.325-.075-.581-.275-.725-.575-.069-.125-.1-.238-.131-.331-.006-.012-.006-.025-.012-.038-.206-.031-.387-.131-.512-.294-.206 0-.394.006-.575.044-.475.1-.962.156-1.538.188h-.025c-.425.025-.831.05-1.262.05-.831.012-1.675.012-2.5.012h-1.181c-.762 0-1.55-.006-2.325 0h-.794c-.781 0-1.581.006-2.369-.012h-.019c-.1-.006-.2-.006-.306-.012s-.219-.006-.331-.012c-.363-.025-.738-.05-1.113-.087-.113-.012-.231-.025-.35-.044-.125-.019-.262-.031-.387-.044-.006 0-.019 0-.025-.006l-.113-.019c-.119-.019-.231-.038-.331-.038-.194 0-.369-.012-.537-.025h-.063c-.125.163-.313.262-.519.288-.05.006-.1 0-.15.006-.019.081-.044.15-.063.219 0 .006-.006.019-.013.025-.138.344-.35.581-.638.706-.05.019-.112.031-.175.031zm19.212-.012zm0 0zm0 0zm-21.824-.925h2.475c.025-.025.05-.069.081-.144.044-.125.063-.219.069-.3 0-.044.006-.119.037-.212.063-.194.244-.319.444-.319h.206c.056-.006.106-.012.156-.012.025-.038.05-.069.075-.1.088-.119.231-.188.375-.188h.106c.088 0 .181-.006.287.006.156.012.3.025.456.025.175 0 .338.025.488.05.031.006.063.012.088.012.137.012.269.031.4.05.113.012.219.031.331.038.356.038.719.063 1.075.087.094.006.194.006.3.012.106 0 .213.006.325.012.769.019 1.569.019 2.338.012h.787c.775-.006 1.569-.006 2.331 0h1.175c.819 0 1.663 0 2.488-.012h.006c.4 0 .794-.025 1.206-.05h.031c.531-.025.975-.081 1.4-.169.306-.063.594-.063.869-.063h.125c.206 0 .387.113.481.288.006.006.006.012.012.019.019 0 .038 0 .056.006.05.006.1.006.163.012.181.025.331.144.387.319.019.063.038.125.05.181.006.025.012.056.019.081.006.031.019.056.025.087.019.069.038.125.063.163.006.012.012.019.012.031.019.044.044.063.087.075.012 0 .025.006.031.006h2.35c.031-.006.056-.006.075-.012h.031c.081-.019.131-.044.181-.15.075-.163.125-.331.163-.525v-.012c.05-.262.087-.55.119-.881l.038-.756c0-.031.006-.056.012-.081V19.017c-.012-.15-.012-.281-.012-.413-.012-.462-.025-.981-.025-1.488 0-.131 0-.25-.012-.356v-.075c-.012-.344-.025-.706-.05-1.056-.006-.137-.019-.281-.038-.456-.025-.256-.063-.5-.106-.738-.044-.206-.131-.363-.275-.494l-.019-.019-.031-.031c-.319-.294-.575-.494-.831-.662-.038-.019-.1-.05-.163-.106-.1-.1-.15-.219-.15-.356 0-.244.181-.444.425-.469.081-.006.15-.019.219-.025l.113-.012h.006c.081-.006.156-.031.225-.063 0-.006-.006-.012-.006-.019-.056-.206-.156-.35-.3-.444-.069-.044-.137-.075-.231-.119-.175-.056-.363-.1-.544-.119h-.025c-.006.012-.012.025-.019.044-.012.019-.019.05-.025.075-.006.037-.012.075-.012.113v.037c-.006.081-.006.169 0 .269v.137c.019.119-.006.213-.044.287-.131.306-.406.331-.488.331-.025 0-.044 0-.069-.006-.163-.025-.337-.025-.525-.019h-.156c-.175 0-.337-.1-.419-.256v-.006c-.012-.025-.038-.069-.056-.119-.1-.2-.212-.412-.331-.65-.206-.394-.4-.744-.594-1.069l-.038-.063c-.019-.037-.038-.069-.056-.1-.012-.025-.025-.05-.044-.075-.169-.281-.35-.556-.556-.85-.169-.238-.35-.475-.531-.706-.163-.194-.369-.319-.625-.375-.063-.012-.125-.025-.194-.037l-.031-.006c-.15-.031-.306-.063-.462-.088l-.419-.063c-.288-.044-.581-.081-.881-.125-.319-.031-.637-.056-.95-.081l-.081-.006-.594-.037-.081-.006c-.544-.025-1.087-.044-1.725-.05l-.288-.006c-.05 0-.087-.006-.113-.013h-1.1c-.031.006-.069.013-.119.013-.225.006-.45.013-.675.013-.219 0-.444.006-.662.012-.419.012-.85.037-1.262.063l-.488.037-.475.037c-.4.031-.825.088-1.3.169-.1.019-.2.037-.306.063s-.219.044-.331.063h-.012c-.169.025-.3.056-.412.1h-.006c-.175.063-.306.15-.412.269-.25.281-.5.606-.781 1.031-.469.713-.925 1.531-1.394 2.512 0 0 0 .006-.006.006-.019.044-.056.131-.138.213-.1.1-.237.15-.375.131-.112-.012-.206-.019-.3-.012-.112.012-.225.025-.35.044-.1.019-.2.006-.294-.044-.119-.063-.325-.213-.325-.581 0-.019 0-.044.006-.063.013-.113.013-.256-.006-.425-.019-.063-.031-.106-.05-.15l-.006-.006h-.013c-.269-.006-.513.056-.75.2-.188.113-.3.262-.362.481V12.172c.156.063.331.1.581.113h.188c.162 0 .313.081.4.225.088.137.094.313.019.456-.088.169-.213.238-.275.269l-.037.019c-.2.125-.388.244-.556.387-.156.137-.306.262-.413.4-.031.037-.05.069-.056.088l-.038.2c-.025.137-.05.269-.069.387-.019.169-.031.344-.05.512-.013.175-.031.35-.05.525-.013.156-.025.306-.025.456 0 .05-.006.087-.013.119v1.725c.006.025.013.069.013.119l.038 1.869v.025c0 .188-.006.369-.006.55 0 .169-.006.35-.006.525.013.512.025 1.044.05 1.563.013.356.05.675.112.962 0 .006.006.019.006.025.013.063.044.137.075.219.006.019.019.044.025.063.019.031.038.044.069.044.038 0 .056 0 .075.006zm24.387-.013s-.006 0 0 0c-.006 0 0 0 0 0zm-4.219-.687zM2.406 18.181zm0-.006zm1.275-6.025zm12.844-5.1zm-1.337 0z"/><path d="M9.456 9.706c.206-.313.556-.5.931-.5 0 0 1.819-.463 5.537-.463 3.563 0 5.475.463 5.475.463.375 0 .725.188.931.5l1.725 2.863H7.736l1.719-2.863zM26.394 16.712c.438-.063 1.25-.125 1.375-.438s0-1.25-.25-1.625c-.269-.406-.587-.669-1.344-.594-.569.056-1.113.281-1.563.625-.806.619-1.319 1.519-1.281 1.719.063.313.125.313.375.406.369.137 2.688-.094 2.688-.094zM5.506 16.712c-.438-.063-1.25-.125-1.375-.438s0-1.25.25-1.625c.269-.406.588-.669 1.344-.594.569.056 1.112.281 1.563.625.806.619 1.319 1.519 1.281 1.719-.063.313-.125.313-.375.406-.375.137-2.688-.094-2.688-.094z"/><path d="M7.537 25.45L29.1 3.881V1.919l-26.2 26.2v1.962l4.237-4.238z"/></svg>