<svg xmlns="http://www.w3.org/2000/svg" viewBox="0 0 32 32" width="100%" height="100%"><title>icon_rfid-card</title><path d="M13.438 9.563h5v.875h-5v-.875zM17 13.063h6.5v.875H17v-.875z"/><path d="M25.387 6.563H11.668c-.738 0-1.106.631-1.106 1.106v2.625l-3.444 3.444c-1.275 1.275-1.588 2.794-1.469 3.706.112.875 1.306 7.756 1.356 8.056h.831c-.013-.075-1.237-7.306-1.35-8.163-.094-.725.175-1.944 1.231-3l2.85-2.863v4.019l-2.488 2.525.594.6 1.9-1.938.844-.838 2.406-2.381s.894.625-.244 2.15l-1.1 1.475-.688.844s-.156.194-.156.444.113.369.194.462c.331.4.8 1.1.8 1.725 0 .944-.944 1.95-.956 1.962l.306.288.306.294c.05-.05 1.188-1.262 1.188-2.544 0-.931-.625-1.7-.994-2.137l.4-.494h3.125v2.525c0 1.238-1.563 2.038-1.581 2.044l-.231.119v2.881h.875v-2.375c.537-.325 1.813-1.25 1.813-2.669v-2.519h8.519c.575 0 1.106-.481 1.106-1.113V7.667a1.11 1.11 0 0 0-1.119-1.106zm.238 10.337c0 .063-.063.163-.169.163H13.544l.644-.919c.125-.131.825-.925.844-1.919.012-.744-.55-1.369-.55-1.369-.125-.25-.381-.338-.525-.363 0 0-.35-.075-.6.175l-1.981 1.956V7.536c0-.075.069-.156.156-.156h13.931c.094 0 .163.075.163.15v9.369z"/></svg>