<!-- Generated by IcoMoon.io -->
<svg version="1.1" xmlns="http://www.w3.org/2000/svg" width="32" height="32" viewBox="0 0 32 32">
<title>icon_grid_view</title>
<path d="M25.999 11.999v-5.999h-20v14h0.003v5.999h20v-14h-0.003zM20.001 14.001h3.997v3.999h-3.997v-3.999zM14.001 14.001h3.997v3.999h-3.997v-3.999zM8.001 14.001h3.997v3.999h-3.997v-3.999zM23.999 8.001v3.999h-4v-3.999h4zM17.999 8.001v3.999h-4v-3.999h4zM11.999 8.001v3.999h-4v-3.999h4zM8.001 24v-3.999h4v3.999h-4zM14.001 24v-3.999h4v3.999h-4zM20.001 24v-3.999h4v3.999h-4z"></path>
</svg>
