<svg xmlns="http://www.w3.org/2000/svg" viewBox="0 0 32 32" width="100%" height="100%"><path d="M16.062 21.851c2.136 0 3.868-1.732 3.868-3.868v-9.15c0-2.136-1.732-3.868-3.868-3.868s-3.868 1.732-3.868 3.868v9.15c0 2.136 1.732 3.868 3.868 3.868z"/><path d="M22.092 13.341h-1.147v4.748c0 2.697-2.186 4.882-4.882 4.882s-4.882-2.186-4.882-4.882v-4.748H9.154v1.521h.774v3.175c0 2.967 2.125 5.434 4.935 5.971v2.006h-.507v1.147h3.415v-1.147h-.507v-2.025c2.757-.578 4.829-3.022 4.829-5.952v-3.175h.88v-1.521h-.88z"/></svg>