<!-- Generated by IcoMoon.io -->
<svg version="1.1" xmlns="http://www.w3.org/2000/svg" width="100%" height="100%" viewBox="0 0 32 32">
<title>icon_corporate_sales</title>
<path d="M23.631 9.957v15.701h5.778v-15.701h-5.778zM28.151 24.4h-3.262v-2.243h3.261v2.243zM28.151 20.899h-3.248l-0.014-2.243h3.248l0.014 2.243zM28.151 17.398h-3.262v-2.243h3.261v2.243zM28.151 13.907h-3.262v-2.254h3.261v2.254z"></path>
<path d="M17.882 14.364c0.163 0.163 0.108 0.12 0.24 0.305v-0.251h2.947v2.241c0 0 1.066 0.503 1.066 1.082v-12.54l-9.091-0.052-0.001 8.517c0.441 0.008 0.881 0.041 1.317 0.063-0 0 3.099 0.213 3.522 0.636zM18.123 7.459h2.947v2.445h-2.947v-2.445zM18.123 10.97h2.947v2.445h-2.947v-2.445zM14.128 7.459h2.929v2.445h-2.929v-2.445zM14.11 10.97h2.947v2.445h-2.947v-2.445z"></path>
<path d="M22.341 23.421c-0.009-0.104-0.009-0.198-0.009-0.302-0.009-0.368-0.019-0.746-0.019-1.115 0-0.104 0-0.208-0.009-0.302-0.009-0.274-0.019-0.557-0.038-0.841-0.007-0.12-0.018-0.238-0.030-0.356-0.021-0.198-0.048-0.393-0.083-0.589-0.047-0.227-0.151-0.416-0.321-0.567-0.009-0.009-0.019-0.019-0.028-0.028-0.227-0.208-0.453-0.397-0.709-0.557-0.019-0.009-0.028-0.009-0.038-0.019s-0.009-0.009-0.009-0.019c0.095-0.009 0.17-0.019 0.255-0.028 0.104-0.009 0.208-0.038 0.302-0.085 0.076-0.038 0.132-0.094 0.161-0.161 0.009-0.028 0.019-0.057 0.028-0.095 0.009-0.057 0-0.113-0.019-0.17-0.066-0.236-0.189-0.416-0.378-0.538-0.076-0.047-0.151-0.085-0.236-0.123-0.17-0.057-0.35-0.095-0.52-0.113-0.047 0-0.085 0-0.132 0.009-0.104 0.019-0.189 0.094-0.236 0.217-0.023 0.045-0.038 0.092-0.049 0.141-0.012 0.053-0.017 0.107-0.017 0.162-0.009 0.123 0 0.236 0 0.359 0 0.019 0.009 0.028 0 0.038-0.009 0.028-0.019 0.047-0.047 0.047-0.189-0.028-0.378-0.019-0.567-0.019-0.009-0.019-0.028-0.047-0.038-0.076-0.086-0.172-0.174-0.342-0.263-0.511-0.147-0.279-0.298-0.553-0.456-0.821-0.009-0.016-0.018-0.032-0.027-0.047-0.028-0.047-0.047-0.085-0.076-0.132-0.137-0.228-0.283-0.448-0.436-0.663-0.132-0.185-0.27-0.367-0.414-0.547-0.18-0.217-0.406-0.35-0.671-0.406-0.058-0.012-0.115-0.024-0.173-0.036-0.122-0.025-0.244-0.049-0.365-0.068-0.331-0.047-0.652-0.095-0.992-0.142-0.264-0.028-0.529-0.047-0.784-0.066-0.151-0.009-0.302-0.019-0.463-0.028-0.021-0.001-0.042-0.002-0.063-0.003-0.436-0.022-0.872-0.032-1.313-0.040-0.073-0.001-0.147-0.003-0.22-0.004-0.019 0-0.047-0.009-0.066-0.009-0.293 0-0.586 0-0.879 0-0.019 0-0.038 0.009-0.066 0.009-0.331 0.009-0.671 0.009-1.011 0.019-0.321 0.009-0.642 0.028-0.964 0.047-0.246 0.019-0.482 0.038-0.727 0.057-0.34 0.028-0.68 0.076-1.011 0.132-0.161 0.028-0.321 0.066-0.482 0.095-0.132 0.019-0.264 0.047-0.387 0.094-0.179 0.066-0.331 0.161-0.453 0.302-0.227 0.255-0.425 0.529-0.614 0.812-0.406 0.614-0.756 1.266-1.077 1.937-0.009 0.019-0.019 0.047-0.038 0.066-0.094-0.009-0.189-0.019-0.293-0.009-0.095 0.009-0.189 0.019-0.293 0.038-0.038-0.019-0.047-0.066-0.047-0.123 0.019-0.142 0.009-0.293-0.009-0.435-0.019-0.076-0.038-0.142-0.076-0.217-0.066-0.113-0.161-0.18-0.302-0.189-0.274-0.009-0.529 0.057-0.765 0.198-0.227 0.132-0.368 0.331-0.435 0.586-0.009 0.019-0.009 0.047-0.009 0.085-0.009 0.161 0.047 0.255 0.189 0.321 0.189 0.085 0.387 0.113 0.595 0.123 0.047 0 0.095 0 0.151 0-0.019 0.038-0.038 0.038-0.057 0.047-0.179 0.113-0.35 0.217-0.51 0.35-0.132 0.113-0.264 0.227-0.368 0.359-0.047 0.066-0.085 0.123-0.104 0.198-0.028 0.161-0.066 0.321-0.085 0.482-0.028 0.265-0.047 0.529-0.076 0.794-0.009 0.123-0.019 0.246-0.019 0.378 0 0.019-0.009 0.047-0.009 0.085 0 0.435 0 0.869 0 1.304 0 0.038 0.009 0.066 0.009 0.095 0.009 0.482 0.019 0.954 0.028 1.427 0 0.274-0.009 0.538-0.009 0.812 0.009 0.397 0.019 0.794 0.038 1.19 0.009 0.265 0.038 0.529 0.095 0.784 0.019 0.113 0.066 0.208 0.104 0.302 0.066 0.132 0.179 0.217 0.331 0.236 0.009 0 0.019 0.009 0.038 0.009 0.671 0 1.341 0 2.012 0 0.151-0.066 0.236-0.198 0.293-0.34 0.038-0.113 0.066-0.217 0.076-0.331 0-0.019 0-0.038 0.009-0.066 0.066 0 0.123 0 0.179 0 0.066-0.009 0.132-0.009 0.189-0.009 0.076-0.009 0.132-0.047 0.17-0.104 0.019-0.038 0.047-0.076 0.076-0.113 0.095 0 0.179-0.009 0.264 0 0.123 0.009 0.246 0.019 0.378 0.019s0.264 0.028 0.387 0.047c0.189 0.019 0.378 0.047 0.557 0.066 0.274 0.028 0.548 0.047 0.822 0.066 0.161 0.009 0.321 0.009 0.482 0.019 0.784 0.019 1.578 0.009 2.371 0.009 0.879-0.009 1.757 0 2.645 0 0.623 0 1.256 0 1.88-0.009 0.321 0 0.633-0.019 0.954-0.038 0.378-0.019 0.737-0.057 1.105-0.132 0.227-0.047 0.453-0.038 0.68-0.038 0.019 0 0.038 0.009 0.047 0.028s0.019 0.028 0.019 0.047c0.047 0.095 0.123 0.142 0.217 0.151 0.066 0.009 0.132 0.009 0.208 0.019 0.019 0.057 0.028 0.123 0.047 0.189 0.028 0.085 0.047 0.17 0.094 0.255 0.066 0.142 0.18 0.227 0.331 0.255 0.009 0 0.019 0.009 0.028 0.009 0.614 0 1.238 0 1.861 0 0.038-0.009 0.085-0.009 0.123-0.019 0.17-0.038 0.293-0.132 0.378-0.302 0.076-0.161 0.123-0.321 0.151-0.491 0.047-0.236 0.076-0.472 0.095-0.709 0.009-0.189 0.019-0.387 0.028-0.576 0.009-0.038 0.009-0.066 0.009-0.095 0-0.255 0-0.501 0-0.746 0-0.368 0-0.737 0-1.115 0-0.038 0-0.066 0-0.095zM15.984 16.818c-0.038-0.019-0.057-0.038-0.066-0.047-0.066-0.066-0.151-0.095-0.236-0.113-0.246-0.047-0.501-0.066-0.746-0.028-0.066 0.009-0.123 0.028-0.189 0.047-0.123 0.047-0.217 0.142-0.264 0.255-0.019 0.047-0.038 0.085-0.057 0.132-0.038 0.095-0.066 0.18-0.104 0.274-0.066 0.18-0.123 0.368-0.18 0.557 0 0.009-0.009 0.019-0.009 0.028-0.047 0-0.095 0-0.142 0.009-0.019 0-0.047 0.009-0.057 0.019-0.019 0.019-0.047 0.028-0.076 0.028-0.208-0.009-0.406-0.009-0.614-0.009-0.359 0-0.718 0-1.077 0-0.293 0-0.576 0.009-0.869 0.009-0.028 0-0.057 0.009-0.076 0.009-0.076 0.009-0.161 0.019-0.236 0-0.057-0.019-0.123-0.028-0.179 0.009-0.009 0.009-0.019 0.009-0.028 0.009-0.095-0.028-0.198-0.009-0.293-0.009-0.019 0-0.038 0-0.066 0-0.047-0.151-0.104-0.293-0.151-0.444-0.057-0.17-0.104-0.34-0.161-0.51-0.009-0.047-0.038-0.095-0.057-0.142-0.066-0.151-0.179-0.227-0.331-0.265-0.264-0.066-0.529-0.095-0.794-0.038-0.161 0.028-0.302 0.104-0.387 0.255 0 0.009-0.009 0.009-0.009 0.019h-0.009c-0.076-0.113-0.009-0.255 0.076-0.331 0.076-0.066 0.17-0.113 0.274-0.123 0.161-0.019 0.331-0.047 0.501-0.066 0.227-0.019 0.453-0.047 0.69-0.066 0.406-0.019 0.803-0.038 1.209-0.057 0.038 0 0.057 0 0.085 0.028 0.104 0.113 0.246 0.17 0.387 0.189 0.123 0.019 0.255 0.019 0.387 0.038 0.019 0 0.047 0.009 0.066 0.009 0.246 0.009 0.501-0.009 0.746-0.047 0.142-0.019 0.264-0.085 0.378-0.17 0.028-0.019 0.057-0.028 0.095-0.028 0.151 0.009 0.293 0.009 0.444 0.019 0.189 0.019 0.378 0.028 0.567 0.047s0.387 0.038 0.576 0.057c0.208 0.019 0.406 0.047 0.605 0.085 0.104 0.009 0.198 0.047 0.283 0.113 0.057 0.047 0.085 0.113 0.104 0.189 0.009-0.009-0.009 0.019-0.009 0.057z"></path>
</svg>
