<!-- Generated by IcoMoon.io -->
<svg version="1.1" xmlns="http://www.w3.org/2000/svg" width="100%" height="100%" viewBox="0 0 32 32">
<title>icon_tablet</title>
<path d="M23.84 3.531h-15.746c-1.139 0-2.066 0.927-2.066 2.066v20.806c0 1.139 0.927 2.066 2.066 2.066h15.746c1.139 0 2.066-0.927 2.066-2.066v-20.806c0-1.139-0.927-2.066-2.066-2.066zM8.554 4.969h14.878c0.598 0 1.085 0.486 1.085 1.084v17.978h-17.047v-17.978c0-0.598 0.487-1.084 1.085-1.084zM23.431 27.031h-14.878c-0.598 0-1.085-0.486-1.085-1.084v-0.976h17.047v0.976c0 0.598-0.487 1.084-1.085 1.084z"></path>
<path d="M16.625 26c0 0.345-0.28 0.625-0.625 0.625s-0.625-0.28-0.625-0.625c0-0.345 0.28-0.625 0.625-0.625s0.625 0.28 0.625 0.625z"></path>
</svg>
