<svg xmlns="http://www.w3.org/2000/svg" viewBox="0 0 32 32" width="100%" height="100%"><path d="M26.75 23.506L17.181 7.112c-.244-.419-.694-.675-1.181-.675s-.938.256-1.181.675L5.25 23.506c-.244.425-.25.944-.006 1.369s.694.688 1.188.688h19.137c.488 0 .944-.262 1.188-.688s.244-.944-.006-1.369zM16 22.831c-.756 0-1.369-.613-1.369-1.369s.613-1.369 1.369-1.369 1.369.613 1.369 1.369-.613 1.369-1.369 1.369zm1.369-5.462c0 .756-.613 1.369-1.369 1.369s-1.369-.613-1.369-1.369v-4.1c0-.756.613-1.369 1.369-1.369s1.369.613 1.369 1.369v4.1z"/></svg>