<svg xmlns="http://www.w3.org/2000/svg" viewBox="0 0 32 32" width="100%" height="100%"><path d="M19.557 5l1.644 3.378-17.434 8.419 1.356 2.786 17.434-8.419 1.644 3.378 4.033-7.863z"/><path d="M21.573 17.164c-.171-.412-.159-.877.033-1.279l.5-1.053-1.434-1.434L8.5 19.276v1.192l1.099.391c.419.149.756.469.926.88.171.412.159.877-.033 1.279l-.5 1.053 1.438 1.438 1.053-.5c.402-.191.868-.203 1.279-.033h.001c.411.17.73.507.879.926l.391 1.099h2.033l.388-1.092c.15-.423.473-.763.887-.935.408-.17.868-.158 1.267.032l1.059.503 1.438-1.438-.501-1.053c-.191-.402-.203-.867-.032-1.278.171-.411.508-.731.927-.88l1.098-.39v-2.033l-1.099-.391c-.419-.149-.756-.469-.926-.88zm-5.524 5.056c-1.529 0-2.769-1.239-2.769-2.768s1.24-2.769 2.769-2.769c1.529 0 2.768 1.24 2.768 2.769s-1.239 2.768-2.768 2.768z"/></svg>