<svg xmlns="http://www.w3.org/2000/svg" viewBox="0 0 32 32" width="100%" height="100%"><path d="M16 5.032c-5.143 0-9.313 4.169-9.313 9.313 0 1.748.483 3.383 1.321 4.781.184.169.521.348.977.029 0 0 .532-.173.298-.935-.66-1.141-1.043-2.462-1.043-3.874 0-4.286 3.475-7.76 7.76-7.76s7.76 3.474 7.76 7.76-3.474 7.76-7.76 7.76c-.685 0-1.346-.098-1.979-.264l-.005.006s-.531-.213-.78.532c0 0-.309.681.287.943.789.217 1.618.335 2.476.335 5.143 0 9.313-4.169 9.313-9.312s-4.169-9.313-9.313-9.313z"/><path d="M16 11.24c-1.714 0-3.104 1.39-3.104 3.104 0 .468.104.912.29 1.31-2.262 2.53-3.96 5.575-4.897 8.937-.267.959-.473 1.944-.612 2.951.125.183.291.314.491.368.368.099.768-.082 1.089-.445.124-.815.295-1.615.511-2.396.848-3.076 2.379-5.868 4.42-8.204.51.368 1.136.585 1.812.585 1.714 0 3.104-1.39 3.104-3.104s-1.39-3.104-3.104-3.104z"/></svg>