<svg xmlns="http://www.w3.org/2000/svg" viewBox="0 0 32 32" width="100%" height="100%"><path d="M16.017 20.804h-.01a8.835 8.835 0 0 0-5.919 2.265.463.463 0 0 0-.006.666l1.321 1.321a.46.46 0 0 0 .631.025c1.061-.922 2.457-1.484 3.984-1.484s2.923.562 3.992 1.491a.46.46 0 0 0 .623-.032l1.321-1.321a.463.463 0 0 0-.017-.673 8.824 8.824 0 0 0-5.911-2.259h-.01zM6.137 18.616l1.318 1.321a.465.465 0 0 0 .647.011c2.072-1.921 4.857-3.099 7.917-3.099s5.844 1.178 7.924 3.106a.465.465 0 0 0 .639-.018l1.318-1.318a.467.467 0 0 0-.01-.67c-2.576-2.413-6.05-3.896-9.871-3.896s-7.294 1.482-9.878 3.903a.466.466 0 0 0-.003.66z"/><path d="M2.389 13.299l1.284 1.284a.448.448 0 0 0 .629.008C7.342 11.7 11.463 9.922 16 9.922s8.659 1.778 11.706 4.676a.452.452 0 0 0 .622-.015l1.284-1.284a.454.454 0 0 0-.008-.648C26.071 9.283 21.278 7.211 16 7.211S5.929 9.283 2.388 12.659a.454.454 0 0 0 .001.64z"/></svg>