<!-- Generated by IcoMoon.io -->
<svg version="1.1" xmlns="http://www.w3.org/2000/svg" width="100%" height="100%" viewBox="0 0 32 32">
<title>icon_door_right2_next</title>
<path d="M29.125 16.4c0-0.131 0.012-3.363-1.7-4.994-0.694-0.662-1.563-0.975-2.613-0.919l-2.719 0.281c-0.038 0-3.356 0.006-5.125 0.006-1.95 0-5.494 0-5.713-0.006-0.262-0.006-0.912-0.094-1.544-0.181-0.713-0.1-1.444-0.2-1.831-0.213-0.656-0.025-1.075 0.225-1.344 0.4-0.875 0.019-1.619 0.338-2.206 0.944-1.369 1.406-1.45 3.963-1.45 4.563 0 0.106 0 0.119 0 0.231 0 0.619 0.087 3.15 1.45 4.556 0.612 0.631 1.388 0.95 2.225 0.969 0.225 0.144 0.65 0.4 1.325 0.375 0.394-0.012 1.125-0.113 1.831-0.212 0.631-0.087 1.344-0.175 1.606-0.181v-0.938c-0.313 0.006-1.044 0.1-1.731 0.194-0.656 0.094-1.394 0.194-1.737 0.206-0.388 0.012-0.619-0.125-0.8-0.238-0.1-0.063-0.188-0.119-0.306-0.144l-0.112-0.012c-0.662 0-1.194-0.219-1.625-0.663-1.25-1.288-1.188-3.981-1.188-4.012v-0.031c0-0.025-0.069-2.719 1.188-4.012 0.431-0.444 0.963-0.662 1.625-0.662l0.112-0.012c0.112-0.025 0.206-0.081 0.306-0.144 0.181-0.113 0.412-0.256 0.8-0.238 0.344 0.012 1.087 0.113 1.737 0.206 0.688 0.094 1.338 0.188 1.65 0.194 0.231 0.006 3.775 0.006 5.738 0.006 1.4 0 5.031-0.006 5.175-0.006l2.744-0.281c0.762-0.044 1.381 0.175 1.887 0.656 1.394 1.331 1.413 4.206 1.413 4.319v0c-0.025 0.038 0.006 2.956-1.413 4.313-0.506 0.488-1.125 0.7-1.863 0.663l-2.819-0.288c-0.206 0-5.463 0-7.969-0.006l-0.019 0.019-0.006-0.006-6.063 6.063 0.662 0.663 5.8-5.8c2.938 0 7.525 0 7.55 0l2.794 0.288c1.025 0.050 1.894-0.256 2.587-0.919 1.694-1.637 1.694-4.881 1.688-4.994zM16.469 19.381l2.494 0.294c0.156 0.019 0.306-0.087 0.337-0.244l0.081-0.394c0.369-1.738 0.369-3.537 0-5.275l-0.087-0.4c-0.031-0.156-0.181-0.262-0.337-0.244l-2.5 0.281 0.081 0.662c0.194 1.55 0.194 3.119 0 4.669l-0.069 0.65zM8.537 13.406l-1.125-0.287c-0.156-0.019-0.306 0.088-0.338 0.244l-0.081 0.394c-0.375 1.738-0.375 3.538 0 5.275l0.081 0.4c0.031 0.156 0.181 0.262 0.338 0.244l1.131-0.288-0.081-0.663c-0.194-1.55-0.194-3.119 0-4.669l0.075-0.65z"></path>
</svg>
