<!-- Generated by IcoMoon.io -->
<svg version="1.1" xmlns="http://www.w3.org/2000/svg" width="100%" height="100%" viewBox="0 0 32 32">
<title>icon_question_mark</title>
<path d="M20.445 7.5q-2.088-1.506-5.242-1.506-2.401 0-4.047 1.059-2.611 1.658-2.778 5.629h4.034q0-1.156 0.675-2.229t2.291-1.072q1.641 0 2.262 0.87c0.387 0.529 0.62 1.193 0.62 1.911 0 0.007-0 0.013-0 0.020 0 0.613-0.308 1.174-0.679 1.687-0.227 0.317-0.493 0.588-0.797 0.811s-2.197 1.41-3.159 2.537c-0.557 0.654-0.607 1.633-0.656 3.037-0.004 0.1 0.034 0.306 0.384 0.306h3.138c0.313 0 0.375-0.231 0.381-0.332 0.022-0.511 0.079-0.773 0.173-1.067 0.177-0.558 0.655-1.044 1.194-1.462l1.11-0.761c1-0.781 1.802-1.421 2.155-1.924 0.602-0.828 1.026-1.845 1.026-3.051q0-2.956-2.086-4.459z"></path>
<path d="M13.592 22.379h2.928c0.321 0 0.581 0.26 0.581 0.581v2.928c0 0.321-0.26 0.581-0.581 0.581h-2.928c-0.321 0-0.581-0.26-0.581-0.581v-2.928c0-0.321 0.26-0.581 0.581-0.581z"></path>
</svg>
