<!-- Generated by IcoMoon.io -->
<svg version="1.1" xmlns="http://www.w3.org/2000/svg" width="100%" height="100%" viewBox="0 0 32 32">
<title>icon_electricity-consumption_next</title>
<path d="M27.856 14.45h-4.625v-4.375h4.625c0 0 0.925 0.081 0.925-0.613s-1-0.6-1-0.6l-4.55-0.019v-2.175h-5.544c-2.775 0-4.994 2.019-5.456 4.619l-0.094 0.25c-2.031 0-6.956-0.25-6.956 3.469 0 1.825 1.631 2.981 2.862 3.6 1.387 0.744 2.125 1.4 2.125 2.144 0 0.281-0.244 1.925-7.269 1.925v1.456c2.313 0 8.9 0.219 8.9-3.5 0-1.956-1.506-2.631-2.981-3.381-1.388-0.744-2.063-1.713-2.063-2.456 0-1.863 4.006-1.894 5.394-1.894l0.094 0.281c0.463 2.606 2.681 4.65 5.456 4.65h5.55v-2.144h4.625c0.556 0 0.925-0.113 0.925-0.65s-0.394-0.588-0.944-0.588zM21.988 16.563h-4c-3.019 0-4.5-2.269-4.5-4.313s1.813-4.344 4.5-4.344h4v8.656z"></path>
</svg>
