<!-- Generated by IcoMoon.io -->
<svg version="1.1" xmlns="http://www.w3.org/2000/svg" width="100%" height="100%" viewBox="0 0 32 32">
<title>icon_e-fuel_next</title>
<path d="M25.906 11.2v-2.4h-0.6v-1.8c0-0.331-0.269-0.6-0.6-0.6s-0.6 0.269-0.6 0.6v1.8h-1.2v-1.8c0-0.331-0.269-0.6-0.6-0.6s-0.6 0.269-0.6 0.6v1.8h-0.6v2.4c0 1.119 0.769 2.050 1.8 2.319v1.887c0 1.25 0.325 2.275 0.637 3.263 0.288 0.906 0.563 1.762 0.563 2.738-0.006 0.3-0.106 1.806-1.8 1.806s-1.8-1.506-1.8-1.8v-4.8c0-2.375-1.569-3-2.4-3v-7.219c0-0.662-0.538-1.2-1.2-1.2h-8.412c-0.662 0-1.2 0.537-1.2 1.2v19.212h-1.2v1.2h13.206v-1.2h-1.2v-10.806c0.050 0 1.2 0.019 1.2 1.8v4.8c0 1.038 0.625 3 3 3s3-1.962 3-3c0-1.169-0.313-2.15-0.619-3.106-0.3-0.944-0.581-1.831-0.581-2.9v-1.887c1.038-0.262 1.806-1.194 1.806-2.306zM16.9 25.606h-8.406v-12.006h8.406v12.006zM16.9 12.4h-8.406v-6.006h8.406v6.006zM23.506 12.4c-0.663 0-1.2-0.537-1.2-1.2v-1.2h2.4v1.2c0 0.662-0.538 1.2-1.2 1.2z"></path>
</svg>
