<!-- Generated by IcoMoon.io -->
<svg version="1.1" xmlns="http://www.w3.org/2000/svg" width="100%" height="100%" viewBox="0 0 32 32">
<title>icon_car-connect_next</title>
<path d="M15 11.85c-0.831 0-1.631 0.306-2.25 0.856-0.081 0.075-0.131 0.175-0.131 0.281 0 0.113 0.037 0.219 0.119 0.294l0.469 0.469c0.075 0.075 0.175 0.119 0.281 0.119 0.094 0 0.188-0.031 0.262-0.094 0.35-0.3 0.794-0.469 1.256-0.469s0.906 0.169 1.256 0.469c0.075 0.063 0.163 0.094 0.262 0.094 0.106 0 0.206-0.044 0.281-0.119l0.469-0.469c0.075-0.075 0.119-0.188 0.119-0.294s-0.050-0.213-0.131-0.281c-0.631-0.55-1.431-0.856-2.262-0.856zM13.488 13.644c-0.006 0-0.006-0.006 0 0 0 0 0.006 0 0.012 0-0.006-0.006-0.012 0-0.012 0zM16.512 13.644c-0.006 0-0.006 0-0.012 0 0.006-0.006 0.012-0.006 0.012 0 0.006-0.006 0.006 0 0 0zM17.913 12.012c0.106 0 0.206-0.044 0.281-0.119l0.469-0.469c0.075-0.075 0.119-0.181 0.119-0.287s-0.050-0.213-0.125-0.287c-0.994-0.931-2.294-1.444-3.65-1.444s-2.656 0.512-3.65 1.444c-0.081 0.075-0.125 0.175-0.125 0.287 0 0.106 0.044 0.213 0.119 0.287l0.469 0.469c0.075 0.075 0.175 0.119 0.281 0.119 0.1 0 0.2-0.037 0.269-0.106 0.725-0.669 1.662-1.031 2.644-1.031s1.919 0.369 2.644 1.031c0.056 0.069 0.156 0.106 0.256 0.106zM17.913 11.781c0 0 0 0 0 0-0.006 0-0.012 0-0.019 0 0.006 0 0.012 0 0.019 0zM12.088 11.781c0 0 0 0 0 0 0.006 0 0.012 0 0.019 0-0.006 0-0.012 0-0.019 0zM10.338 9.963c0.075 0.075 0.175 0.119 0.281 0.119 0.1 0 0.2-0.037 0.275-0.106 1.113-1.056 2.575-1.637 4.106-1.637s2.994 0.581 4.106 1.637c0.075 0.069 0.169 0.106 0.275 0.106s0.206-0.044 0.281-0.119l0.469-0.469c0.075-0.075 0.119-0.181 0.119-0.287s-0.044-0.213-0.125-0.287c-1.387-1.319-3.206-2.050-5.125-2.050s-3.738 0.725-5.125 2.050c-0.081 0.075-0.125 0.175-0.125 0.287 0 0.106 0.037 0.213 0.119 0.287l0.469 0.469zM19.381 9.844c0 0 0 0 0 0-0.006 0-0.012 0-0.019 0 0.006 0 0.012 0 0.019 0zM10.637 9.844c-0.006 0-0.012 0-0.019 0 0 0 0 0 0 0 0.006 0 0.012 0 0.019 0zM27.925 19.25c-1.2-0.6-3.575-0.981-6.55-1.25-0.494-0.387-1.956-1.363-4.056-1.869-1.231-0.3-3.113-0.313-3.85-0.313h-0.206c-2.181 0-4.994 0.625-5.925 0.938-1.325 0.444-3.744 1.25-4.369 2.181-0.313 0.469-0.506 1.813-0.594 2.781-0.031 0.337 0.594 1.269 1.219 1.581l1.906 0.275c0.494 0.944 1.475 1.6 2.619 1.6 1 0 1.881-0.488 2.419-1.25h11.975c0.531 0.781 1.431 1.25 2.444 1.25 1.15 0 2.137-0.663 2.631-1.619 1.344-0.288 1.894-0.563 1.894-0.563s0.313-0.938 0.313-2.181c0-0.313-1.244-1.25-1.869-1.563zM28.431 22.056c-0.262 0.081-0.625 0.181-1.106 0.288l-0.575 0.125-0.269 0.525c-0.3 0.581-0.881 0.944-1.519 0.944-0.594 0-1.113-0.256-1.419-0.706l-0.369-0.544h-13.287l-0.375 0.531c-0.325 0.456-0.831 0.719-1.4 0.719-0.631 0-1.213-0.356-1.513-0.931l-0.287-0.569-0.631-0.087-1.638-0.231c-0.144-0.125-0.313-0.331-0.4-0.488 0.112-1.1 0.288-1.831 0.381-2.012 0.169-0.25 0.963-0.756 3.712-1.675 0.769-0.256 3.456-0.875 5.531-0.875h0.206c1.994 0 3.031 0.15 3.556 0.275 2.087 0.506 3.431 1.525 3.581 1.644l0.288 0.225 0.369 0.031c3.131 0.281 5.188 0.663 6.106 1.119 0.331 0.169 0.881 0.563 1.169 0.825-0.025 0.337-0.069 0.631-0.113 0.869z"></path>
</svg>
