<svg xmlns="http://www.w3.org/2000/svg" viewBox="0 0 32 32" width="100%" height="100%"><path d="M6.375 23.712H3.706a.488.488 0 0 1-.156-.025 1.016 1.016 0 0 1-.75-.563l-.019-.038c-.006-.025-.019-.044-.031-.069-.044-.113-.106-.25-.131-.413a5.981 5.981 0 0 1-.131-1.113 64.834 64.834 0 0 1-.05-1.587v-.012c0-.188.006-.369.006-.55 0-.175.006-.35.006-.525v-.019l-.038-1.863a.768.768 0 0 1-.013-.144V15.06a.69.69 0 0 1 .013-.144c0-.181.013-.344.025-.506v-.012c.019-.169.031-.35.05-.519.013-.175.031-.356.05-.537.019-.162.05-.319.081-.469l.038-.206c0-.012.006-.019.006-.031a1.16 1.16 0 0 1 .212-.419c.006-.006.006-.012.013-.019.131-.169.288-.313.438-.444-.006 0-.006-.006-.013-.006h-.006c-.362-.169-.538-.469-.519-.863 0-.069 0-.156.038-.25.125-.456.388-.806.788-1.037a2.257 2.257 0 0 1 1.269-.325h.013a.935.935 0 0 1 .788.506c.075.15.106.275.138.381.006.019.006.031.013.05.013.1.025.194.025.281h.081c.456-.931.9-1.731 1.369-2.431.306-.463.581-.819.856-1.131.2-.231.463-.406.787-.531.175-.069.375-.119.606-.15l.3-.056c.106-.025.219-.044.331-.063.5-.088.956-.144 1.381-.181l.475-.037.494-.037h.006c.419-.025.856-.05 1.294-.063.225-.006.456-.013.675-.013.213 0 .431-.006.644-.013a.604.604 0 0 1 .125-.013h1.156c.05 0 .094.006.125.013l.262.006c.65.013 1.2.025 1.756.056l.087.006.594.037.094.006c.319.025.656.05.988.081h.012c.306.044.6.088.894.125l.425.063h.006c.175.025.344.063.506.094l.031.006c.069.013.131.025.2.044.469.1.856.338 1.156.7.2.244.387.5.569.75.225.313.419.612.6.913.019.037.038.069.056.1.012.025.025.05.044.075.006.012.019.031.025.044l.012.025c.2.338.4.7.619 1.106.1.188.188.363.275.525h.05c0-.037 0-.075.006-.113 0-.1.012-.2.031-.294.019-.1.05-.188.094-.275.125-.3.363-.506.656-.556.106-.019.188-.019.262-.019h.05c.269.031.538.088.788.169.012.006.031.012.044.019a2.284 2.284 0 0 1 .375.2c.337.219.575.55.694.969.05.156.063.3.038.438 0 .012-.006.025-.006.037-.019.069-.038.125-.05.162-.006.012-.006.025-.012.037a.9.9 0 0 1-.331.387c.094.081.188.162.262.238l.012.012.025.025c.288.262.481.6.563 1v.012c.05.262.087.531.119.819.019.188.031.344.044.494.025.363.038.731.05 1.088v.025c.012.144.012.287.012.431 0 .494.012 1.013.025 1.469v.012c0 .131 0 .244.012.356v2.638c0 .044 0 .106-.012.188l-.038.725v.012a9.764 9.764 0 0 1-.131.988 2.89 2.89 0 0 1-.238.769c0 .006-.006.006-.006.012a1.18 1.18 0 0 1-.813.65c-.05.012-.1.019-.137.025h-.025c-.038.006-.069.012-.106.012h-2.456a.425.425 0 0 1-.169-.031 1.043 1.043 0 0 1-.725-.575c-.069-.125-.1-.238-.131-.331-.006-.012-.006-.025-.012-.038a.78.78 0 0 1-.512-.294 2.79 2.79 0 0 0-.575.044c-.475.1-.962.156-1.538.188h-.025c-.425.025-.831.05-1.262.05-.831.012-1.675.012-2.5.012h-1.181c-.762 0-1.55-.006-2.325 0h-.794c-.781 0-1.581.006-2.369-.012h-.019c-.1-.006-.2-.006-.306-.012s-.219-.006-.331-.012c-.363-.025-.738-.05-1.113-.087a6.693 6.693 0 0 1-.35-.044c-.125-.019-.262-.031-.387-.044-.006 0-.019 0-.025-.006l-.113-.019c-.119-.019-.231-.038-.331-.038a6.78 6.78 0 0 1-.537-.025h-.063a.768.768 0 0 1-.519.288c-.05.006-.1 0-.15.006-.019.081-.044.15-.063.219a.043.043 0 0 1-.013.025c-.138.344-.35.581-.638.706a.505.505 0 0 1-.175.031zm19.212-.012zm0 0zm0 0zm-21.824-.925h2.475a.455.455 0 0 0 .081-.144 1.15 1.15 0 0 0 .069-.3c0-.044.006-.119.037-.212a.464.464 0 0 1 .444-.319h.206c.056-.006.106-.012.156-.012a1.24 1.24 0 0 1 .075-.1.47.47 0 0 1 .375-.188h.106c.088 0 .181-.006.287.006.156.012.3.025.456.025.175 0 .338.025.488.05a.511.511 0 0 0 .088.012c.137.012.269.031.4.05.113.012.219.031.331.038.356.038.719.063 1.075.087.094.006.194.006.3.012.106 0 .213.006.325.012.769.019 1.569.019 2.338.012h.787c.775-.006 1.569-.006 2.331 0h1.175c.819 0 1.663 0 2.488-.012h.006c.4 0 .794-.025 1.206-.05h.031a8.8 8.8 0 0 0 1.4-.169c.306-.063.594-.063.869-.063h.125c.206 0 .387.113.481.288.006.006.006.012.012.019.019 0 .038 0 .056.006.05.006.1.006.163.012a.466.466 0 0 1 .387.319c.019.063.038.125.05.181.006.025.012.056.019.081.006.031.019.056.025.087a.602.602 0 0 0 .063.163c.006.012.012.019.012.031a.118.118 0 0 0 .087.075c.012 0 .025.006.031.006h2.35c.031-.006.056-.006.075-.012h.031c.081-.019.131-.044.181-.15a2.27 2.27 0 0 0 .163-.525v-.012c.05-.262.087-.55.119-.881l.038-.756c0-.031.006-.056.012-.081V17.767c-.012-.15-.012-.281-.012-.413a57.856 57.856 0 0 1-.025-1.488c0-.131 0-.25-.012-.356v-.075a29.332 29.332 0 0 0-.05-1.056 7.095 7.095 0 0 0-.038-.456 9.095 9.095 0 0 0-.106-.738.883.883 0 0 0-.275-.494l-.019-.019-.031-.031a6.305 6.305 0 0 0-.831-.662c-.038-.019-.1-.05-.163-.106a.487.487 0 0 1-.15-.356c0-.244.181-.444.425-.469.081-.006.15-.019.219-.025l.113-.012h.006a.649.649 0 0 0 .225-.063c0-.006-.006-.012-.006-.019a.729.729 0 0 0-.3-.444c-.069-.044-.137-.075-.231-.119a2.769 2.769 0 0 0-.544-.119h-.025a.408.408 0 0 0-.019.044c-.012.019-.019.05-.025.075a.71.71 0 0 0-.012.113v.037a2.007 2.007 0 0 0 0 .269v.137a.453.453 0 0 1-.044.287.524.524 0 0 1-.488.331c-.025 0-.044 0-.069-.006a2.888 2.888 0 0 0-.525-.019h-.156a.477.477 0 0 1-.419-.256v-.006c-.012-.025-.038-.069-.056-.119-.1-.2-.212-.412-.331-.65a21.62 21.62 0 0 0-.594-1.069l-.038-.063c-.019-.037-.038-.069-.056-.1a14.417 14.417 0 0 0-1.131-1.631 1.097 1.097 0 0 0-.625-.375 6.17 6.17 0 0 0-.194-.037l-.031-.006c-.15-.031-.306-.063-.462-.088l-.419-.063c-.288-.044-.581-.081-.881-.125-.319-.031-.637-.056-.95-.081l-.081-.006a65.35 65.35 0 0 0-.594-.037l-.081-.006a45.643 45.643 0 0 0-1.725-.05l-.288-.006a.436.436 0 0 1-.113-.013h-1.1a.589.589 0 0 1-.119.013c-.225.006-.45.013-.675.013-.219 0-.444.006-.662.013-.419.013-.85.037-1.262.063l-.488.037-.475.037c-.4.031-.825.088-1.3.169-.1.019-.2.037-.306.063s-.219.044-.331.063h-.012c-.169.025-.3.056-.412.1h-.006a.968.968 0 0 0-.412.269c-.25.281-.5.606-.781 1.031a21.101 21.101 0 0 0-1.394 2.512s0 .006-.006.006c-.019.044-.056.131-.138.213-.1.1-.237.15-.375.131-.112-.012-.206-.019-.3-.012a7.785 7.785 0 0 0-.35.044c-.1.019-.2.006-.294-.044-.119-.063-.325-.213-.325-.581a1.917 1.917 0 0 0 0-.488c-.019-.063-.031-.106-.05-.15l-.006-.006h-.013a1.34 1.34 0 0 0-.75.2.765.765 0 0 0-.362.481V10.923c.156.063.331.1.581.113h.188c.162 0 .313.081.4.225a.456.456 0 0 1 .019.456.599.599 0 0 1-.275.269l-.037.019c-.2.125-.388.244-.556.387-.156.137-.306.262-.413.4a.306.306 0 0 0-.056.088l-.038.2c-.025.137-.05.269-.069.387-.019.169-.031.344-.05.512-.013.175-.031.35-.05.525a5.496 5.496 0 0 0-.025.456c0 .05-.006.088-.013.119v1.725a.54.54 0 0 1 .013.119l.038 1.869v.025c0 .188-.006.369-.006.55 0 .169-.006.35-.006.525.013.512.025 1.044.05 1.563.013.356.05.675.112.962 0 .006.006.019.006.025.013.063.044.137.075.219.006.019.019.044.025.063.019.031.038.044.069.044.038 0 .056 0 .075.006zm24.387-.013s-.006 0 0 0c-.006 0 0 0 0 0zm-4.219-.687zM2.406 16.931zm0-.006zM3.681 10.9zm12.844-5.1zm-1.337 0z"/><path d="M9.456 8.456c.206-.313.556-.5.931-.5 0 0 1.819-.463 5.537-.463 3.563 0 5.475.463 5.475.463.375 0 .725.188.931.5l1.725 2.863H7.736l1.719-2.863zM26.394 15.463c.438-.063 1.25-.125 1.375-.438s0-1.25-.25-1.625c-.269-.406-.587-.669-1.344-.594a3.09 3.09 0 0 0-1.563.625c-.806.619-1.319 1.519-1.281 1.719.063.313.125.313.375.406.369.137 2.688-.094 2.688-.094zM5.506 15.463c-.438-.063-1.25-.125-1.375-.438s0-1.25.25-1.625c.269-.406.588-.669 1.344-.594a3.093 3.093 0 0 1 1.563.625c.806.619 1.319 1.519 1.281 1.719-.063.313-.125.313-.375.406-.375.137-2.688-.094-2.688-.094z"/></svg>