<!-- Generated by IcoMoon.io -->
<svg version="1.1" xmlns="http://www.w3.org/2000/svg" width="100%" height="100%" viewBox="0 0 32 32">
<title>icon_wechat</title>
<path d="M12.348 6.048c-4.864 0-8.848 3.315-8.848 7.525 0 2.431 1.325 4.426 3.541 5.974l-0.885 2.662 3.093-1.551c1.107 0.219 1.995 0.444 3.099 0.444 0.278 0 0.553-0.014 0.826-0.035-0.173-0.591-0.273-1.211-0.273-1.854 0-3.866 3.32-7.003 7.523-7.003 0.287 0 0.57 0.021 0.852 0.052-0.766-3.565-4.577-6.214-8.928-6.214zM9.474 12.021c-0.663 0-1.332-0.444-1.332-1.108 0-0.665 0.669-1.104 1.332-1.104s1.105 0.438 1.105 1.104c-0 0.664-0.441 1.108-1.105 1.108zM15.666 12.021c-0.663 0-1.329-0.444-1.329-1.108 0-0.665 0.665-1.104 1.329-1.104 0.666 0 1.108 0.438 1.108 1.104-0 0.664-0.441 1.108-1.108 1.108z"></path>
<path d="M28.5 19.106c0-3.538-3.54-6.421-7.516-6.421-4.21 0-7.526 2.884-7.526 6.421 0 3.544 3.316 6.421 7.526 6.421 0.881 0 1.77-0.222 2.655-0.444l2.427 1.329-0.666-2.211c1.776-1.332 3.099-3.099 3.099-5.095zM18.544 17.998c-0.441 0-0.885-0.437-0.885-0.885 0-0.441 0.445-0.885 0.885-0.885 0.669 0 1.108 0.444 1.108 0.885 0 0.448-0.438 0.885-1.108 0.885zM23.411 17.998c-0.438 0-0.879-0.437-0.879-0.885 0-0.441 0.441-0.885 0.879-0.885 0.663 0 1.108 0.444 1.108 0.885-0 0.448-0.444 0.885-1.108 0.885z"></path>
</svg>
