<!-- Generated by IcoMoon.io -->
<svg version="1.1" xmlns="http://www.w3.org/2000/svg" width="100%" height="100%" viewBox="0 0 32 32">
<title>icon_lock_next</title>
<path d="M23.8 14.8h-1.8v-4.8c0-3.3-2.7-6-6-6s-6 2.7-6 6v4.8h-1.8v5.4c0 4.319 3.481 7.8 7.8 7.8s7.8-3.481 7.8-7.8v-5.4zM11.2 10c0-2.638 2.162-4.8 4.8-4.8s4.8 2.163 4.8 4.8v4.8h-9.6v-4.8zM22.6 20.2c0 3.663-2.938 6.6-6.6 6.6s-6.6-2.938-6.6-6.6v-4.2h13.2v4.2z"></path>
<path d="M16 19.6c-0.662 0-1.2 0.538-1.2 1.2v1.2c0 0.663 0.537 1.2 1.2 1.2s1.2-0.538 1.2-1.2v-1.2c0-0.663-0.538-1.2-1.2-1.2z"></path>
</svg>
