<svg xmlns="http://www.w3.org/2000/svg" viewBox="0 0 32 32" width="100%" height="100%"><path d="M2.875 15.363c.006-.244.094-.475.263-.65.694-.75 2.538-2.494 2.538-2.494 0-.519.419-.938.938-.938h2.831v.938H6.614v.406l-.294.275c-.019.019-1.825 1.725-2.487 2.444-.013.012-.019.025-.019.044-.013.938-.006 1.262-.006 1.363l.013.044v1.25c0 .031.019.056.044.063l2.712.837.156.444c.313.9 1.256 1.444 2.219 1.206.644-.163 1.125-.694 1.344-1.319l.175-.5h11.363l.181.512c.225.625.712 1.163 1.363 1.313.969.225 1.9-.331 2.206-1.238l.15-.444.444-.15 1.994-.65c.006-.012.025-.063.025-.156v-.913c0-.363-.2-.694-.512-.837-2.2-1.025-6.05-1.188-6.088-1.188l-.212-.006-4.012-2.138c-1.044-.444-2.15-.669-3.287-.669L7.174 8.937l.394-.85 6.719 3.2c.006.006.019.006.025.006 1.188.031 2.362.275 3.463.744l3.844 2.05c.012.006.012.006.019.006.194.006 4.063.181 6.406 1.256.675.313 1.094 1.006 1.094 1.744v.869c0 .544-.256.9-.644 1.025l-1.988.669c-.019.006-.031.019-.038.038-.381 1.1-1.419 1.9-2.65 1.9-1.206 0-2.231-.769-2.625-1.837-.006-.025-.031-.038-.056-.038h-9.956c-.025 0-.05.019-.056.038-.4 1.069-1.419 1.837-2.625 1.837-1.219 0-2.244-.781-2.638-1.863-.006-.019-.019-.031-.037-.038l-2.231-.694c-.419-.131-.706-.519-.706-.956v-1.137c-.025-.094-.013-1.031-.006-1.544z"/></svg>