<!-- Generated by IcoMoon.io -->
<svg version="1.1" xmlns="http://www.w3.org/2000/svg" width="32" height="32" viewBox="0 0 32 32">
<title>icon_sound</title>
<path d="M3.5 20.5v-9h4.5v9h-4.5zM9.5 20.5v-9l6.5-5v19zM19 20.5q0-0.5 0.375-0.813 1.5-1.563 1.5-3.719t-1.5-3.656q-0.375-0.375-0.375-0.875t0.344-0.844 0.844-0.344 0.875 0.375q2.25 2.188 2.25 5.344t-2.25 5.406q-0.375 0.313-0.875 0.313t-0.844-0.344-0.344-0.844zM23.313 22.75q0-0.5 0.313-0.813 2.5-2.5 2.5-5.969t-2.5-5.969q-0.313-0.313-0.313-0.813t0.344-0.844 0.844-0.344 0.813 0.313q3.188 3.188 3.188 7.656t-3.188 7.656q-0.313 0.375-0.813 0.375t-0.844-0.375-0.344-0.875z"></path>
</svg>
