<svg xmlns="http://www.w3.org/2000/svg" width="32" height="32" viewBox="0 0 32 32"><title>icon_qq-share</title><path d="M25.256 16.275c-.411-.846-.881-1.675-1.356-2.343.32-.549.241-1.341 0-1.902-.119-.278-.338-.512-.423-.776-.14-.435-.128-.942-.229-1.356a10.098 10.098 0 0 0-.353-1.198c-.942-2.513-2.944-3.912-6.095-4.21h-1.285c-.984.101-1.893.29-2.608.617-.789.361-1.288.76-1.849 1.321-.946.945-2.002 2.495-2.132 4.209-.012.155.028.296 0 .423-.026.121-.154.211-.212.352-.102.254-.13.521-.141.81-.292.385-.563 1.094-.334 1.727-.821.676-1.633 1.388-2.202 2.484-.445.858-.842 1.962-.723 3.329.033.368.098.901.388.968.149.036.344-.041.475-.105.357-.174.712-.546.934-.898.11-.175.13-.404.299-.529.096.156.119.335.176.493.361.987.93 1.785 1.656 2.378.123.101.306.185.335.318-.765.073-1.382.24-1.655.757-.11.207-.192.654-.159.951.068.614.775.959 1.303 1.127.996.318 2.291.424 3.575.335 1.156-.08 1.908-.338 2.678-.793.121-.072.212-.18.317-.194.082-.011.28.023.458.035.124.009.324 0 .441.018.307.045.647.223.987.335 1.746.57 4.71.704 6.13-.212.204-.131.488-.41.546-.74.088-.494-.263-.795-.529-1.004-.431-.34-.895-.54-1.392-.828a5.786 5.786 0 0 0 1.251-1.955c.096-.242.163-.527.352-.722.146.275.288.547.476.828.158.237.378.604.686.599.184-.003.357-.154.476-.317.234-.322.356-.843.387-1.321.077-1.163-.232-2.147-.651-3.012z"/></svg>