<!-- Generated by IcoMoon.io -->
<svg version="1.1" xmlns="http://www.w3.org/2000/svg" width="32" height="32" viewBox="0 0 32 32">
<title>icon_flash_next</title>
<path d="M7.6 16c0-0.238 0-0.419 0-0.6h-4.8v1.2h4.8c0-0.181 0-0.363 0-0.6z"></path>
<path d="M8.081 19.538l-3.9 2.219 0.6 1.019 3.719-2.163-0.181-0.363c0 0.012-0.119-0.288-0.238-0.712z"></path>
<path d="M4.237 10.181l3.9 2.219c0.063-0.363 0.181-0.662 0.238-0.719l0.181-0.363-3.719-2.162-0.6 1.025z"></path>
<path d="M10 11.8h-0.419l-0.181 0.363c0 0.063-0.662 1.5-0.662 3.837s0.6 3.781 0.662 3.837l0.181 0.363h0.419c2.1 0 4.8-2.038 4.8-4.2s-2.7-4.2-4.8-4.2zM10.419 18.938c-0.181-0.481-0.419-1.563-0.419-2.938s0.238-2.463 0.419-2.938c1.438 0.238 3.181 1.619 3.181 2.938s-1.738 2.7-3.181 2.938z"></path>
<path d="M24.4 15.4c0 0.181 0 0.363 0 0.6s0 0.419 0 0.6h4.8v-1.2h-4.8z"></path>
<path d="M23.619 20.319l-0.181 0.363 3.719 2.163 0.6-1.019-3.9-2.219c-0.056 0.356-0.175 0.656-0.238 0.712z"></path>
<path d="M23.919 12.463l3.9-2.219-0.6-1.019-3.719 2.156 0.181 0.363c0-0.006 0.119 0.294 0.238 0.719z"></path>
<path d="M22.419 11.8h-0.419c-2.1 0-4.8 2.037-4.8 4.2s2.7 4.2 4.8 4.2h0.363l0.181-0.363c0-0.063 0.663-1.5 0.663-3.838s-0.6-3.781-0.663-3.838l-0.125-0.363zM21.581 18.938c-1.438-0.238-3.181-1.619-3.181-2.938s1.738-2.7 3.181-2.938c0.181 0.537 0.419 1.563 0.419 2.938s-0.238 2.462-0.419 2.938z"></path>
</svg>
