<svg xmlns="http://www.w3.org/2000/svg" viewBox="0 0 32 32" width="100%" height="100%"><title>icon_evening_next</title><path d="M15.869 26.194a10.265 10.265 0 0 1-7.294-3.019 10.264 10.264 0 0 1-2.737-4.894c-.112-.462.094-.931.513-1.163s.931-.163 1.269.181l.013.012c1.319 1.319 3.075 2.031 4.944 2s3.6-.794 4.881-2.156a6.822 6.822 0 0 0-.069-9.425c-.031-.031-.063-.069-.1-.1-.337-.338-.413-.844-.181-1.263s.7-.625 1.169-.513a10.363 10.363 0 0 1 4.863 2.7c1.969 1.95 3.063 4.544 3.069 7.3s-1.063 5.356-3.019 7.319a10.229 10.229 0 0 1-7.3 3.031c-.012-.012-.012-.012-.019-.012zm-8.882-7.95a9.16 9.16 0 0 0 2.381 4.125 9.128 9.128 0 0 0 6.5 2.694h.006a9.122 9.122 0 0 0 6.5-2.7c1.744-1.75 2.7-4.063 2.694-6.519s-.981-4.769-2.738-6.506a9.183 9.183 0 0 0-4.094-2.35 7.945 7.945 0 0 1 .025 10.919 7.89 7.89 0 0 1-5.681 2.512 7.842 7.842 0 0 1-5.594-2.175z"/></svg>