<svg xmlns="http://www.w3.org/2000/svg" width="32" height="32" viewBox="0 0 32 32"><title>icon_advisor_not-available</title><path d="M26.5 25.488c0-3.144-6.044-6.606-7.781-6.881-.538-.087-.55-1.569-.55-1.569s.988-1.6 1.806-3.681c.819-2.088 1.894-9.619-3.962-9.619s-4.444 8.387-4.088 9.619c.356 1.225 1.931 3.681 1.931 3.681s-.012 1.488-.55 1.569c-1.744.281-7.806 3.738-7.806 6.881 0 0 1.688.75 10.563.75s10.438-.75 10.438-.75z"/><path d="M7.919 25.45L29.482 3.881V1.919l-26.194 26.2v1.962l3.794-3.8.444-.438z"/></svg>