<svg xmlns="http://www.w3.org/2000/svg" viewBox="0 0 32 32" width="100%" height="100%"><path d="M12.287 11.338c-3.556 0-6.444 2.881-6.444 6.444 0 1.369.431 2.637 1.162 3.681l-2.656 2.656c-.444.444-.444 1.163 0 1.6.444.444 1.156.444 1.6 0l2.656-2.656c1.044.731 2.313 1.163 3.681 1.163 2.569 0 4.781-1.5 5.819-3.675h9.875V18.12h-9.256c.006-.113.006-.225.006-.337 0-1.212-.337-2.344-.919-3.313H27.98v-2.431H15.199c-.875-.45-1.863-.7-2.912-.7zm4.6 6.443c0 2.544-2.063 4.6-4.6 4.6-2.544 0-4.6-2.056-4.6-4.6s2.063-4.6 4.6-4.6c2.544-.006 4.6 2.056 4.6 4.6zM8.512 5.95v2.431h19.469V5.95H8.512z"/></svg>