<!-- Generated by IcoMoon.io -->
<svg version="1.1" xmlns="http://www.w3.org/2000/svg" width="32" height="32" viewBox="0 0 32 32">
<title>icon_car_next</title>
<path d="M27.925 19.225c-1.2-0.6-3.575-0.981-6.55-1.25-0.494-0.387-1.956-1.363-4.056-1.869-1.231-0.3-3.113-0.313-3.85-0.313h-0.206c-2.181 0-4.994 0.625-5.925 0.938-1.325 0.444-3.744 1.25-4.369 2.181-0.313 0.469-0.506 1.813-0.594 2.781-0.031 0.337 0.594 1.269 1.219 1.581l1.906 0.275c0.494 0.944 1.475 1.6 2.619 1.6 1 0 1.881-0.488 2.419-1.25h11.975c0.531 0.781 1.431 1.25 2.444 1.25 1.15 0 2.137-0.663 2.631-1.619 1.344-0.288 1.894-0.563 1.894-0.563s0.313-0.938 0.313-2.181c0-0.313-1.244-1.25-1.869-1.563zM28.431 22.025c-0.262 0.081-0.625 0.181-1.106 0.288l-0.575 0.125-0.269 0.525c-0.3 0.581-0.881 0.944-1.519 0.944-0.594 0-1.113-0.256-1.419-0.706l-0.369-0.544h-13.287l-0.375 0.531c-0.325 0.456-0.831 0.719-1.4 0.719-0.631 0-1.213-0.356-1.513-0.931l-0.294-0.569-0.631-0.087-1.638-0.231c-0.144-0.125-0.313-0.331-0.4-0.488 0.112-1.1 0.288-1.831 0.381-2.012 0.169-0.25 0.963-0.756 3.713-1.675 0.769-0.256 3.456-0.875 5.531-0.875h0.206c1.994 0 3.031 0.15 3.556 0.275 2.087 0.506 3.431 1.525 3.581 1.644l0.288 0.225 0.369 0.031c3.131 0.281 5.188 0.663 6.106 1.119 0.331 0.169 0.881 0.563 1.169 0.825-0.019 0.344-0.063 0.637-0.106 0.869z"></path>
</svg>
