<!-- Generated by IcoMoon.io -->
<svg version="1.1" xmlns="http://www.w3.org/2000/svg" width="100%" height="100%" viewBox="0 0 32 32">
<title>icon_payment</title>
<path d="M26.349 7.599h-20.699c-1.169 0.003-2.116 0.95-2.119 2.119v12.688c0.003 1.169 0.95 2.116 2.119 2.119h20.699c1.169-0.003 2.116-0.95 2.119-2.119v-12.688c-0.003-1.169-0.95-2.116-2.119-2.119zM26.542 22.406c-0.001 0.106-0.087 0.191-0.192 0.192h-20.699c-0.106-0.001-0.191-0.087-0.192-0.192v-6.396h21.084zM26.542 10.141v2.922h-21.084v-3.344c0.002-0.106 0.087-0.191 0.192-0.193h20.699c0.106 0.002 0.191 0.087 0.192 0.192z"></path>
</svg>
