<!-- Generated by IcoMoon.io -->
<svg version="1.1" xmlns="http://www.w3.org/2000/svg" width="100%" height="100%" viewBox="0 0 32 32">
<title>icon_suv-sunroof_pcm</title>
<path d="M2.875 15.363c0.006-0.244 0.094-0.475 0.263-0.65 0.694-0.75 2.538-2.494 2.538-2.494 0-0.519 0.419-0.938 0.938-0.938h2.831v0.938h-2.831v0.406l-0.294 0.275c-0.019 0.019-1.825 1.725-2.487 2.444-0.013 0.012-0.019 0.025-0.019 0.044-0.013 0.938-0.006 1.262-0.006 1.363l0.013 0.044v1.25c0 0.031 0.019 0.056 0.044 0.063l2.712 0.837 0.156 0.444c0.313 0.9 1.256 1.444 2.219 1.206 0.644-0.163 1.125-0.694 1.344-1.319l0.175-0.5h11.363l0.181 0.512c0.225 0.625 0.712 1.163 1.363 1.313 0.969 0.225 1.9-0.331 2.206-1.238l0.15-0.444 0.444-0.15 1.994-0.65c0.006-0.012 0.025-0.063 0.025-0.156v-0.913c0-0.363-0.2-0.694-0.512-0.837-2.2-1.025-6.050-1.188-6.088-1.188l-0.212-0.006-4.012-2.138c-1.044-0.444-2.15-0.669-3.287-0.669v0l-6.912-3.275 0.394-0.85 6.719 3.2c0.006 0.006 0.019 0.006 0.025 0.006 1.188 0.031 2.362 0.275 3.463 0.744l3.844 2.050c0.012 0.006 0.012 0.006 0.019 0.006 0.194 0.006 4.063 0.181 6.406 1.256 0.675 0.313 1.094 1.006 1.094 1.744v0.869c0 0.544-0.256 0.9-0.644 1.025l-1.988 0.669c-0.019 0.006-0.031 0.019-0.038 0.038-0.381 1.1-1.419 1.9-2.65 1.9-1.206 0-2.231-0.769-2.625-1.837-0.006-0.025-0.031-0.038-0.056-0.038h-9.956c-0.025 0-0.050 0.019-0.056 0.038-0.4 1.069-1.419 1.837-2.625 1.837-1.219 0-2.244-0.781-2.638-1.863-0.006-0.019-0.019-0.031-0.037-0.038l-2.231-0.694c-0.419-0.131-0.706-0.519-0.706-0.956v-1.137c-0.025-0.094-0.013-1.031-0.006-1.544z"></path>
</svg>
