<svg xmlns="http://www.w3.org/2000/svg" viewBox="0 0 32 32" width="100%" height="100%"><title>icon_wind-tunnel</title><path d="M15.978 15.918l-.004-.003-.005-.002h-.005l-.004.002-.003.004-.002.005v.005l.002.004.004.003.005.002h.005l.004-.002.003-.004.002-.005v-.005l-.002-.004zM16 5.594c-5.713 0-10.344 4.631-10.344 10.344S10.287 26.282 16 26.282s10.344-4.631 10.344-10.344S21.713 5.594 16 5.594zm6.753 14.267l-6.768-3.906 7.08 6.202h-2.334l-4.759-6.199 4.167 8.44-2.156-.893-2.024-7.548.62 9.392-1.65-1.65 1.018-7.748-3.021 8.914-.893-2.156 3.906-6.768-6.202 7.08v-2.334l6.199-4.759-8.44 4.167.893-2.156 7.548-2.024-9.392.62 1.65-1.65 7.748 1.018-8.914-3.021 2.156-.893 6.768 3.906-7.08-6.202h2.334l4.759 6.199-4.167-8.44 2.156.893 2.024 7.548-.62-9.392 1.65 1.65-1.018 7.748 3.021-8.914.893 2.156-3.906 6.768 6.202-7.08v2.334l-6.199 4.759 8.44-4.167-.893 2.156-7.548 2.024 9.392-.62-1.65 1.65-7.748-1.018 8.914 3.021-2.156.893z"/><path d="M15.996 15.918l-.01-.008.001.008.008.001.001-.001zm.015.003l-.001-.013-.005.006.005.007h.001zm.017.003l-.008.001-.001.008.001.001.009-.01zm-.016.018l-.001-.01-.007-.007-.01.001-.007.007.001.01.007.007.01-.001.006-.007zm-.04.009l.008-.001.001-.008-.001-.001-.009.01zm.005-.018l.007-.005v-.001l-.013.001.006.005zm.012.021l.001.013.005-.006-.005-.007h-.001zM16 5.594c-5.713 0-10.344 4.631-10.344 10.344S10.287 26.282 16 26.282s10.344-4.631 10.344-10.344S21.713 5.594 16 5.594zm.015 10.363l-.001.008 7.081 6.204h-2.334l-4.765-6.207-.007.005.62 9.394-1.65-1.65 1.02-7.759-.008-.001-6.204 7.081v-2.334l6.207-4.765-.005-.007-9.394.62 1.65-1.65 7.759 1.02.001-.008-7.081-6.204h2.334l4.765 6.207.007-.005-.62-9.394 1.65 1.65-1.02 7.759.008.001 6.204-7.081v2.334l-6.207 4.765.005.007 9.394-.62-1.65 1.65-7.759-1.02zm.002-.01v.001l.013-.001-.006-.005-.006.005zm-.012.009l-.001.001.01.008v-.008l-.008-.001z"/></svg>