<!-- Generated by IcoMoon.io -->
<svg version="1.1" xmlns="http://www.w3.org/2000/svg" width="100%" height="100%" viewBox="0 0 32 32">
<title>icon_loader</title>
<path d="M4 16.5h2.063q0.188 4 3.063 6.75t6.875 2.75q4.875 0 7.875-3.75l-2.188-2.188q-0.313 0.5-0.688 0.875-2.063 2.063-4.969 2.063t-4.969-2.063q-1.813-1.813-2-4.438h1.938l-3.5-4.5zM8.125 9.75l2.188 2.125q0.313-0.438 0.688-0.875 2.063-2 4.969-2t4.969 2q1.813 1.875 2 4.5h-1.938l3.5 4.5 3.5-4.5h-2.063q-0.188-4-3.063-6.75t-6.875-2.75q-4.875 0-7.875 3.75z"></path>
</svg>
