<svg xmlns="http://www.w3.org/2000/svg" viewBox="0 0 32 32" width="100%" height="100%"><path d="M5.3 14.563c-.287.194-1.106 1.225-1.119 1.525 0 .15.006.575.025.769.025.262.131.506.319.75l2.225.406.1.238c.319.769 1.056 1.269 1.887 1.269.681 0 1.319-.337 1.7-.906l.137-.206h9.562l.994-.012.144.212c.381.575 1.019.919 1.706.919.706 0 1.356-.363 1.731-.969l.125-.2.231-.019c.012 0 1.419-.131 2.113-.188.044-.019.15-.081.256-.175.181-.15.363-.631.375-1.256-.188-.512-1.269-2.4-7.113-2.956l-.1-.012-.087-.05c-.294-.169-.594-.344-.887-.519-1.313-.775-2.8-1.656-3.631-1.656-2.213 0-4.5.669-7 1.594l-.5-.75-2.563-2.55.662-.662 2.844 2.844c2.125-.688 4.162-1.406 6.563-1.406 1.087 0 2.55.869 4.106 1.781.262.156.525.313.788.463 2.569.256 4.575.8 5.962 1.613 1.337.787 1.75 1.631 1.875 2.063l.019.063v.069c0 .906-.269 1.675-.712 2.05-.194.163-.488.363-.762.387-.519.044-1.481.131-1.913.169-.563.762-1.438 1.212-2.394 1.212-.913 0-1.769-.419-2.331-1.125l-.506.006h-9.069c-.563.706-1.419 1.119-2.325 1.119-1.125 0-2.138-.625-2.65-1.613l-2.063-.381-.106-.125c-.381-.438-.594-.894-.644-1.4-.025-.275-.031-.806-.031-.869 0-.356.237-.844.7-1.438.15-.194.662-.825 1-.956l.356.881zm-.025.012z"/></svg>