<svg xmlns="http://www.w3.org/2000/svg" viewBox="0 0 32 32" width="100%" height="100%"><path d="M22.635 15.639c-.153-.419-.453-.755-.868-.755h-4.861v-1.488c2.004-.455 3.5-2.246 3.5-4.387 0-2.485-2.015-4.5-4.5-4.5s-4.5 2.015-4.5 4.5c0 2.141 1.496 3.932 3.5 4.387v1.488h-4.809c-.415 0-.736.35-.85.755l-2.341 8.637c0 .415.34.755.755.755h16.656c.415 0 .755-.34.755-.755l-2.436-8.637zm-9.76-6.629c0-1.674 1.357-3.031 3.031-3.031s3.031 1.357 3.031 3.031-1.357 3.031-3.031 3.031-3.031-1.357-3.031-3.031z"/></svg>