<!-- Generated by IcoMoon.io -->
<svg version="1.1" xmlns="http://www.w3.org/2000/svg" width="100%" height="100%" viewBox="0 0 32 32">
<title>icon_testdrive</title>
<path d="M15.969 3.104c-7.128 0-12.906 5.778-12.906 12.906s5.778 12.906 12.906 12.906 12.906-5.778 12.906-12.906-5.778-12.906-12.906-12.906zM10.363 24.781c-0.754-0.447-1.596-1.171-2.396-1.969-2.752-2.743-1.693-5.682-1.693-5.682 0.047 0.078 0.661 0.234 0.661 0.234s0.198 1.083 0.26 1.146 0.229 0.094 0.5 0.167c0.271 0.073 0.365-0.052 0.344-0.24s-0.104-0.833-0.104-0.833 0.427 0.083 1.563 0.333 1.396 0.26 1.604 0.823c0.208 0.563 0.635 1.406 1.26 2.073s0.885 0.729 1.073 1.24c0.188 0.51 0.604 3.719 0.615 3.906-0 0-1.625 0.026-3.688-1.198zM24.033 22.813c-0.8 0.797-1.642 1.521-2.396 1.969-2.063 1.224-3.688 1.198-3.688 1.198 0.010-0.188 0.427-3.396 0.615-3.906s0.448-0.573 1.073-1.24 1.052-1.51 1.26-2.073c0.208-0.563 0.469-0.573 1.604-0.823s1.563-0.333 1.563-0.333-0.083 0.646-0.104 0.833c-0.021 0.188 0.073 0.313 0.344 0.24s0.438-0.104 0.5-0.167 0.26-1.146 0.26-1.146 0.615-0.156 0.661-0.234c0 0 1.060 2.94-1.693 5.682zM25.336 13.365c-0.32 0.034-0.451 0.042-0.518 0.104s-0.086 0.172-0.086 0.172l-0.036-0.010c0 0 0.232-0.273-0.221-0.38s-0.94-0.185-1.026-0.13-0.013 0.12 0.047 0.167c0.060 0.047 0.081 0.154 0.081 0.154s-0.685 0.005-1.906-0.005c-1.221-0.010-1.813 0.073-2.466-0.339s-1.622-1.029-3.203-1.029-2.591 0.69-2.917 0.87c-0.325 0.18-0.596 0.331-2.021 0.376 0 0-2.365 0.106-2.508 0.072s0.115-0.138-0.023-0.258c-0.138-0.12-1.104 0.138-1.185 0.203s0.042 0.208 0.042 0.208l-0.036 0.005c0 0-0.026-0.234-0.315-0.258-0.155-0.013-0.833 0.028-1.003-0.372-0.198-0.469 0.069-0.847 0.396-1.25 0.703-0.867 1.367-1.828 1.547-2.125s0.172-0.281 0.094-0.422c0 0 0.102-0.008 0.234-0.211s2.68-3.414 7.695-3.406 7.61 3.305 7.759 3.477c0 0 0.119 0.146 0.174 0.185 0 0-0.063 0.193 0.047 0.354s1.221 1.675 1.706 2.333c0.484 0.659 0.474 0.859 0.383 1.128s-0.412 0.354-0.732 0.388z"></path>
</svg>
