<svg xmlns="http://www.w3.org/2000/svg" viewBox="0 0 32 32" width="100%" height="100%"><path d="M12.348 6.048c-4.864 0-8.848 3.315-8.848 7.525 0 2.431 1.325 4.426 3.541 5.974l-.885 2.662 3.093-1.551c1.107.219 1.995.444 3.099.444.278 0 .553-.014.826-.035a6.582 6.582 0 0 1-.273-1.854c0-3.866 3.32-7.003 7.523-7.003.287 0 .57.021.852.052-.766-3.565-4.577-6.214-8.928-6.214zm-2.874 5.973c-.663 0-1.332-.444-1.332-1.108 0-.665.669-1.104 1.332-1.104s1.105.438 1.105 1.104c0 .664-.441 1.108-1.105 1.108zm6.192 0c-.663 0-1.329-.444-1.329-1.108 0-.665.665-1.104 1.329-1.104.666 0 1.108.438 1.108 1.104 0 .664-.441 1.108-1.108 1.108z"/><path d="M28.5 19.106c0-3.538-3.54-6.421-7.516-6.421-4.21 0-7.526 2.884-7.526 6.421 0 3.544 3.316 6.421 7.526 6.421.881 0 1.77-.222 2.655-.444l2.427 1.329-.666-2.211c1.776-1.332 3.099-3.099 3.099-5.095zm-9.956-1.108c-.441 0-.885-.437-.885-.885 0-.441.445-.885.885-.885.669 0 1.108.444 1.108.885 0 .448-.438.885-1.108.885zm4.867 0c-.438 0-.879-.437-.879-.885 0-.441.441-.885.879-.885.663 0 1.108.444 1.108.885 0 .448-.444.885-1.108.885z"/></svg>