<!-- Generated by IcoMoon.io -->
<svg version="1.1" xmlns="http://www.w3.org/2000/svg" width="32" height="32" viewBox="0 0 32 32">
<title>icon_speed_next</title>
<path d="M11.037 11.769l0.725-0.725-0.706-0.706c1.144-0.988 2.594-1.625 4.188-1.738v1h1.025v-1c1.594 0.113 3.050 0.75 4.188 1.738l-0.706 0.706 0.725 0.725 1.431-1.431c-1.506-1.706-3.7-2.787-6.156-2.787-4.537 0-8.219 3.681-8.219 8.219 0 2.456 1.081 4.65 2.787 6.156l1.431-1.431-0.725-0.725-0.706 0.706c-0.988-1.137-1.625-2.594-1.738-4.188h1v-1.037h-1c0.113-1.594 0.75-3.050 1.738-4.188l0.719 0.706z"></path>
<path d="M15.25 16.275c0 0.569 0.463 1.025 1.025 1.025 0.569 0 1.025-0.462 1.025-1.025 0-0.569-0.462-1.025-1.025-1.025-0.094 0-0.181 0.019-0.262 0.037l-2.969-2.969-0.875-0.15 0.15 0.875 2.969 2.969c-0.025 0.081-0.037 0.169-0.037 0.262z"></path>
<path d="M8.569 8.569v-2.906l-0.725 0.725-1.456-1.45-1.45 1.45 1.45 1.456-0.725 0.725z"></path>
<path d="M27.063 20.9l-1.544-0.512-0.725-1.081c-0.188-0.288-0.512-0.456-0.856-0.456h-6.087c-0.344 0-0.663 0.169-0.856 0.456l-0.725 1.081-1.544 0.512v0.512h0.606c-0.063 0.131-0.094 0.275-0.094 0.425v4.712c0 0.281 0.231 0.512 0.512 0.512h1.025c0.281 0 0.512-0.231 0.512-0.512v-1.025h7.194v1.025c0 0.281 0.231 0.512 0.512 0.512h1.025c0.281 0 0.512-0.231 0.512-0.512v-4.712c0-0.15-0.038-0.294-0.094-0.425h0.606v-0.512zM17.663 20.1c0.094-0.144 0.256-0.231 0.425-0.231h5.613c0.169 0 0.331 0.087 0.425 0.231l0.875 1.313h-8.213l0.875-1.313zM18.331 23.337c0 0.069-0.056 0.131-0.131 0.131h-1.8c-0.069 0-0.131-0.056-0.131-0.131v-0.769c0-0.069 0.056-0.131 0.131-0.131h1.8c0.069 0 0.131 0.056 0.131 0.131v0.769zM25.519 23.337c0 0.069-0.056 0.131-0.131 0.131h-1.8c-0.069 0-0.131-0.056-0.131-0.131v-0.769c0-0.069 0.056-0.131 0.131-0.131h1.8c0.069 0 0.131 0.056 0.131 0.131v0.769z"></path>
</svg>
