<!-- Generated by IcoMoon.io -->
<svg version="1.1" xmlns="http://www.w3.org/2000/svg" width="100%" height="100%" viewBox="0 0 32 32">
<title>icon_phone</title>
<path d="M4.625 8.625l0.813 2.438q1.375 2.5 3.469 4.969t4.063 4.281 3.719 3.219 2.844 2.156l1.094 0.75 2 0.938q0.875 0.25 1.688-0.031t1.281-0.875 0.844-1.281 0.531-1.125 0.156-0.5l0.375-1.5-6.688-2.375q-0.125 0.75-0.188 0.875-0.063 0.25-0.125 0.281t-0.125-0.031q-0.063 0-0.063-0.063-3.313-1-5.25-3l-1-0.938q-2.563-3.063-2.75-5.313 0-0.188 0.125-0.188l1.063-0.5-3.438-6.313-0.625 0.313q-0.188 0-0.5 0.063t-1.094 0.313-1.313 0.625-0.844 1.125-0.063 1.688z"></path>
</svg>
