<!-- Generated by IcoMoon.io -->
<svg version="1.1" xmlns="http://www.w3.org/2000/svg" width="100%" height="100%" viewBox="0 0 32 32">
<title>icon_send</title>
<path d="M16.017 20.804c-0.003 0-0.007 0-0.010 0-2.275 0-4.349 0.857-5.919 2.265-0.085 0.078-0.144 0.2-0.144 0.336 0 0.129 0.053 0.246 0.138 0.33l1.321 1.321c0.084 0.085 0.2 0.137 0.329 0.137 0.115 0 0.221-0.042 0.302-0.112 1.061-0.922 2.457-1.484 3.984-1.484s2.923 0.562 3.992 1.491c0.073 0.063 0.179 0.105 0.294 0.105 0.129 0 0.245-0.052 0.329-0.137l1.321-1.321c0.084-0.084 0.136-0.2 0.136-0.329 0-0.137-0.059-0.259-0.153-0.344-1.562-1.402-3.636-2.259-5.911-2.259-0.003 0-0.007 0-0.010 0z"></path>
<path d="M6.137 18.616l1.318 1.321c0.084 0.084 0.201 0.136 0.329 0.136 0.123 0 0.234-0.047 0.318-0.125 2.072-1.921 4.857-3.099 7.917-3.099s5.844 1.178 7.924 3.106c0.075 0.070 0.187 0.118 0.31 0.118 0.128 0 0.245-0.052 0.329-0.136l1.318-1.318c0.085-0.084 0.137-0.201 0.137-0.33 0-0.134-0.057-0.255-0.147-0.34-2.576-2.413-6.050-3.896-9.871-3.896s-7.294 1.482-9.878 3.903c-0.082 0.078-0.138 0.198-0.138 0.332 0 0.128 0.052 0.244 0.135 0.328z"></path>
<path d="M2.389 13.299l1.284 1.284c0.082 0.082 0.194 0.132 0.319 0.132 0.12 0 0.229-0.047 0.31-0.124 3.040-2.891 7.161-4.669 11.698-4.669s8.659 1.778 11.706 4.676c0.073 0.070 0.183 0.117 0.303 0.117 0.125 0 0.237-0.051 0.319-0.132l1.284-1.284c0.082-0.082 0.132-0.195 0.132-0.32 0-0.129-0.054-0.245-0.14-0.328-3.533-3.368-8.326-5.44-13.604-5.44s-10.071 2.072-13.612 5.448c-0.078 0.075-0.132 0.191-0.132 0.319 0 0.125 0.051 0.239 0.133 0.321z"></path>
</svg>
