<svg xmlns="http://www.w3.org/2000/svg" viewBox="0 0 32 32" width="100%" height="100%"><title>icon_viber</title><path d="M24.719 20.7c-.637-.512-1.325-.981-2-1.45-1.344-.944-2.575-1.019-3.575.5-.563.85-1.35.887-2.175.519-2.269-1.031-4.025-2.619-5.056-4.925-.456-1.019-.45-1.938.613-2.662.563-.381 1.131-.831 1.088-1.669-.056-1.088-2.7-4.725-3.744-5.112a1.898 1.898 0 0 0-1.3 0c-2.45.825-3.463 2.837-2.487 5.219 2.894 7.113 7.994 12.063 15.012 15.081.4.175.844.244 1.069.3 1.6.019 3.469-1.525 4.006-3.05.519-1.469-.581-2.05-1.45-2.75zM16.85 6.631c5.131.787 7.494 3.225 8.15 8.394.063.475-.119 1.194.563 1.206.712.012.538-.694.544-1.169.063-4.869-4.181-9.375-9.113-9.544-.369.056-1.144-.256-1.188.575-.025.563.619.469 1.044.537z"/><path d="M17.856 8.044c-.494-.063-1.144-.294-1.262.394-.119.719.606.644 1.075.75 3.169.706 4.269 1.863 4.794 5.006.075.456-.075 1.169.706 1.056.575-.088.369-.7.419-1.056.019-3.025-2.569-5.769-5.731-6.15z"/><path d="M18.144 10.512c-.331.006-.65.044-.775.394-.181.525.2.65.587.713 1.3.206 1.981.975 2.113 2.269.038.35.256.637.6.594.469-.056.512-.475.5-.875.025-1.444-1.619-3.131-3.025-3.094z"/></svg>