<!-- Generated by IcoMoon.io -->
<svg version="1.1" xmlns="http://www.w3.org/2000/svg" width="100%" height="100%" viewBox="0 0 32 32">
<title>icon_closed_eye</title>
<path d="M28.992 14.164c-1.434-1.212-3.394-2.714-5.774-3.87l4.204-4.204-1.521-1.527-4.829 4.829c-1.5-0.549-3.233-0.885-5.038-0.927l-0.050-0c-5.725 0.111-10.281 3.419-12.977 5.7-0.125 0.111-1.014 0.813-1.026 1.713-0.012 0.637 0.278 1.101 0.68 1.496 1.25 1.25 3.333 3.063 6.053 4.389l-4.151 4.142 1.518 1.533 4.785-4.785c1.523 0.55 3.282 0.873 5.114 0.884l0.036 0c6.306-0.025 11.116-3.957 13.323-6.17 0.408-0.396 0.692-0.859 0.68-1.496-0.011-0.891-0.889-1.596-1.025-1.707zM10.402 16c0-3.209 2.504-5.817 5.601-5.836 1.217 0.007 2.338 0.412 3.241 1.092l-2.62 2.587c-0.182-0.063-0.392-0.101-0.61-0.105l-0.039-0c-1.188 0.031-2.133 1.033-2.133 2.269-0 0.008-0 0.018-0 0.028 0 0.188 0.025 0.37 0.072 0.543l-2.618 2.594c-0.561-0.893-0.894-1.98-0.894-3.144 0-0.010 0-0.019 0-0.029zM16 21.836c-1.221-0.008-2.345-0.415-3.25-1.096l2.611-2.587c0.186 0.065 0.4 0.106 0.622 0.111l0.040 0c1.193-0.025 2.133-1.032 2.133-2.269 0-0.012 0-0.025 0-0.039 0-0.189-0.027-0.371-0.078-0.543l2.61-2.597c0.566 0.899 0.902 1.993 0.902 3.165 0 0.004 0 0.009 0 0.013 0.008 3.214-2.489 5.823-5.59 5.842z"></path>
</svg>
