<svg xmlns="http://www.w3.org/2000/svg" viewBox="0 0 32 32" width="100%" height="100%"><path d="M22.788 12.981c-3.731-3.731-9.844-3.731-13.575 0a9.56 9.56 0 0 0-2.8 7.381h2.375v-1.188H7.6c.125-1.738.762-3.481 2.037-4.919l.85.85.85-.85-.806-.806c1.4-1.231 3.137-1.869 4.919-2.037V12.6h1.188v-1.188c1.738.125 3.481.762 4.919 2.037l-.85.85.85.85.806-.806c1.231 1.4 1.869 3.137 2.038 4.919h-1.188v1.188h2.375c.169-2.719-.762-5.431-2.8-7.469z"/><path d="M16.85 19.769c-.087-.087-.125-.125-.256-.169v-4.919l-.594-.85-.594.85V19.6c-.088.087-.169.087-.256.169a1.203 1.203 0 0 0 1.7 1.7 1.216 1.216 0 0 0 0-1.7z"/></svg>