<svg xmlns="http://www.w3.org/2000/svg" viewBox="0 0 32 32" width="100%" height="100%"><path d="M26.438 10.693c-.054-.036-.109-.072-.165-.107l-.03-.019c-.057-.036-.115-.072-.174-.107l-.003-.002-.17-.098-.044-.024-.181-.098c-.057-.03-.113-.058-.17-.086l-.057-.027-.113-.053-.067-.03-.102-.045-.071-.029-.098-.04-.073-.028-.095-.036-.075-.026-.093-.032-.076-.024-.092-.029-.076-.022-.091-.025-.076-.019-.091-.022-.077-.017-.09-.019-.077-.014-.089-.016-.078-.012-.088-.013-.078-.009-.087-.01-.078-.007-.086-.007-.078-.004-.085-.004-.078-.001-.06-.001h-.049c-.07.001-.139.003-.208.007l-.085.007c-.04.003-.081.005-.121.009l-.113.014-.09.011c-.044.006-.087.014-.131.022l-.069.012c-.048.009-.096.02-.144.031l-.054.012c-.052.012-.104.027-.155.041l-.041.011c-.055.016-.11.033-.164.052l-.029.009c-.057.019-.114.04-.171.062l-.02.007c-.059.023-.118.048-.177.073l-.012.005-.18.084-.006.003c-.061.03-.122.062-.183.095l-.002.001c-.306.168-.603.374-.889.616l-.052.043c-.522.451-1.033.875-1.541 1.269-.109.085-.218.168-.326.249l-.029.022c-.103.077-.205.153-.308.227l-.025.018c-.561.406-1.122.775-1.693 1.103l-.001.001c-.115.066-.23.13-.345.192-1.114.602-2.272 1.047-3.549 1.313l-.188.037-.116.022-.179.031-.138.022-.167.026c-.095.014-.191.027-.288.039l-.121.014-.211.023-.128.012c-.074.007-.148.013-.223.018l-.111.008c-.112.007-.224.014-.338.019h-.001-.001c-.086.004-.172.009-.257.016l-.058.005c-.084.007-.168.016-.252.026l-.034.005c-.076.01-.153.021-.229.033l-.05.008c-.083.014-.165.029-.248.046l-.047.01c-.076.016-.151.033-.226.051l-.033.008c-.082.02-.164.043-.246.066l-.049.014c-.166.049-.33.104-.493.165l-.046.018c-.081.031-.162.063-.242.097l-.015.007c-.077.033-.154.067-.23.103l-.038.017c-.079.038-.158.076-.237.117l-.03.016c-.075.039-.149.079-.223.121l-.022.012c-.078.044-.155.09-.232.138l-.035.021c-.155.096-.308.199-.458.307l-.035.025c-.075.055-.15.111-.225.169-.352.275-.69.584-1.011.925-1.101 1.169-1.634 2.321-1.656 2.369l1.644.754c.004-.008.342-.728 1.024-1.54.052-.062.107-.125.163-.189l.003-.003c.057-.064.116-.127.177-.191.066-.069.132-.135.199-.201l.074-.07c.042-.04.084-.079.127-.117l.095-.084.103-.087.113-.094.042-.033c.109-.086.218-.168.33-.245l.007-.005c.058-.04.117-.079.175-.117l.025-.016c.06-.038.121-.076.182-.111.791-.465 1.645-.72 2.553-.758 1.201-.051 2.305-.227 3.343-.51l.123-.034.192-.056.124-.038c.215-.066.427-.137.636-.212l.131-.048.174-.066.137-.054.191-.077.239-.101c.052-.022.103-.046.155-.069l.149-.067.152-.071.158-.076.137-.067c.089-.044.177-.089.265-.135l.135-.071.161-.086.137-.075.17-.096c.984-.563 1.931-1.228 2.877-1.977l.023-.018.203-.163.093-.075.174-.142.129-.107.15-.124.169-.143.115-.097.29-.249c.038-.033.075-.064.113-.094 1.013-.815 2.146-.912 3.454-.296l.041.019.126.062h.001l.12.063.039.022.079.044.044.026.073.043.044.027.072.044.041.026.078.051.03.02.106.072.016.011.087.061.033.024.068.049.035.026.063.048.033.025.065.051.026.021.081.065.006.005.088.073.004.003.077.066.015.013.063.055.015.013.061.055.011.01.066.061c.255.236.402.401.405.405l1.363-1.189c-.034-.04-.715-.813-1.768-1.515z"/><path d="M24.312 12.767c-.473-.242-.904-.364-1.282-.364-.45 0-.855.169-1.273.531-.374.323-.735.626-1.086.91h3.892v1.313h-5.632c-.863.6-1.687 1.089-2.518 1.5-.13.064-.26.127-.391.187h8.541v1.313H11.53c-.509.069-1.027.116-1.556.138-1.218.052-2.328.594-3.299 1.61-.599.627-.972 1.262-1.111 1.521v4.668h20.875V14.546l-.39-.444c-.031-.034-.764-.837-1.735-1.334zm.251 11.577H7.375v-1.313h17.188v1.313zm0-3.063H7.375v-1.313h17.188v1.313zM7.375 13.844h5.507c1.294-.4 2.478-1.016 3.651-1.813H7.375v-1.313h10.904c.298-.243.599-.497.904-.76.483-.417.992-.747 1.526-.99H7.375V7.655h17.188V8.67c.531.138 1.065.346 1.598.623.094.049.186.1.277.151V5.905H5.563v9.833c.577-.376 1.183-.678 1.813-.902v-.993z"/></svg>