<!-- Generated by IcoMoon.io -->
<svg version="1.1" xmlns="http://www.w3.org/2000/svg" width="100%" height="100%" viewBox="0 0 32 32">
<title>icon_suv-hood_pcm</title>
<path d="M28.075 15.369c-0.781-0.363-1.725-0.625-2.656-0.813-0.288-0.056-0.681-0.137-0.956-0.181v0.95c0.281 0.044 0.669 0.125 0.956 0.188 0.806 0.169 1.606 0.4 2.262 0.706 0.313 0.144 0.519 0.475 0.519 0.837v0.913c0 0.094-0.019 0.144-0.025 0.156l-1.994 0.65-0.444 0.15-0.15 0.444c-0.256 0.769-0.969 1.288-1.769 1.288-0.788 0-1.494-0.506-1.756-1.25l-0.225-0.625h-11.369l-0.225 0.625c-0.269 0.75-0.975 1.25-1.762 1.25s-1.5-0.506-1.763-1.262l-0.156-0.444-0.45-0.144-2.3-0.719v-1.338c-0.006-0.1-0.013-0.431 0.006-1.387 0.656-0.706 2.487-2.444 2.506-2.456l0.294-0.275v-0.406h7.456c1.137 0 2.244 0.225 3.294 0.669l4.012 2.138 0.275-0.025v0.006l6.319-3.787-0.481-0.806-6.006 3.606-3.712-1.975c-1.169-0.5-2.425-0.756-3.694-0.756h-7.469c-0.519 0-0.938 0.419-0.938 0.938 0 0-1.869 1.762-2.55 2.506-0.156 0.169-0.244 0.387-0.25 0.619-0.006 0.506-0.019 1.462 0.006 1.563v1.188c0 0.413 0.269 0.775 0.656 0.894l2.3 0.719c0.381 1.094 1.419 1.887 2.644 1.887s2.256-0.788 2.644-1.875h10.044c0.387 1.087 1.419 1.875 2.644 1.875 1.244 0 2.288-0.813 2.656-1.925l2.019-0.669c0.381-0.125 0.644-0.488 0.644-1.025v-0.913c0-0.738-0.406-1.406-1.056-1.706z"></path>
</svg>
