<!-- Generated by IcoMoon.io -->
<svg version="1.1" xmlns="http://www.w3.org/2000/svg" width="100%" height="100%" viewBox="0 0 32 32">
<title>icon_renren</title>
<path d="M0.5 15.938q0 3.188 2.063 5.688 2.375-1.125 3.813-3.5t1.438-5.313v-5.5q-3.125 0.5-5.219 2.938t-2.094 5.688zM5.063 23.625q1.938 1.063 4.188 1.063t4.25-1.063q-3.438-2.125-4.25-5.5-0.75 3.375-4.188 5.5zM10.75 12.813q0 2.875 1.438 5.25t3.813 3.563q-2.125-2.5-2.125-5.688t2.125-5.688q-2.125-2.438-5.25-2.938v5.5zM16 21.625q2.313-1.188 3.781-3.531t1.469-5.281v-5.5q-3.188 0.5-5.25 2.938 2.125 2.563 2.125 5.688t-2.125 5.688zM18.5 23.625q2 1.063 4.25 1.063t4.188-1.063q-3.438-2.125-4.188-5.5-0.813 3.375-4.25 5.5zM24.188 12.813q0 2.875 1.438 5.25t3.813 3.563q2.063-2.5 2.063-5.688 0-3.25-2.094-5.688t-5.219-2.938v5.5z"></path>
</svg>
