<svg xmlns="http://www.w3.org/2000/svg" width="32" height="32" viewBox="0 0 32 32"><title>icon_car_next</title><path d="M27.925 19.225c-1.2-.6-3.575-.981-6.55-1.25-.494-.387-1.956-1.363-4.056-1.869-1.231-.3-3.113-.313-3.85-.313h-.206c-2.181 0-4.994.625-5.925.938-1.325.444-3.744 1.25-4.369 2.181-.313.469-.506 1.813-.594 2.781-.031.337.594 1.269 1.219 1.581l1.906.275a2.958 2.958 0 0 0 2.619 1.6c1 0 1.881-.488 2.419-1.25h11.975c.531.781 1.431 1.25 2.444 1.25 1.15 0 2.137-.663 2.631-1.619 1.344-.288 1.894-.563 1.894-.563s.313-.938.313-2.181c0-.313-1.244-1.25-1.869-1.563zm.506 2.8c-.262.081-.625.181-1.106.288l-.575.125-.269.525c-.3.581-.881.944-1.519.944-.594 0-1.113-.256-1.419-.706l-.369-.544H9.887l-.375.531a1.694 1.694 0 0 1-1.4.719 1.71 1.71 0 0 1-1.513-.931l-.294-.569-.631-.087-1.638-.231a2.073 2.073 0 0 1-.4-.488c.112-1.1.288-1.831.381-2.012.169-.25.963-.756 3.713-1.675.769-.256 3.456-.875 5.531-.875h.206c1.994 0 3.031.15 3.556.275 2.087.506 3.431 1.525 3.581 1.644l.288.225.369.031c3.131.281 5.188.663 6.106 1.119a6.79 6.79 0 0 1 1.169.825 6.782 6.782 0 0 1-.106.869z"/></svg>