<svg xmlns="http://www.w3.org/2000/svg" width="32" height="32" viewBox="0 0 32 32"><title>icon_e-performance</title><path d="M21.675 21.042h8.569l-.024-.516a14.2 14.2 0 0 0-4.377-9.621C23.183 8.355 19.687 6.95 16 6.95s-7.183 1.405-9.843 3.955a14.203 14.203 0 0 0-4.377 9.621l-.024.516h8.574v-1.671H4.276c.17-1.096.49-2.156.955-3.162l1.533.967a1.06 1.06 0 0 0 1.072-1.829l-1.546-.976a11.878 11.878 0 0 1 2.452-2.566l.999 1.615a1.062 1.062 0 0 0 1.937-.261 1.05 1.05 0 0 0-.104-.804l-1.048-1.697a11.644 11.644 0 0 1 4.369-1.286l-.004 1.992a1.062 1.062 0 0 0 1.058 1.062h.002a1.06 1.06 0 0 0 1.06-1.058l.004-2.004c1.602.137 3.164.598 4.569 1.349l-1.038 1.639c-.142.244-.18.53-.107.804a1.056 1.056 0 0 0 1.296.752c.27-.072.497-.243.639-.482l.983-1.547a11.87 11.87 0 0 1 2.394 2.547l-1.447.905a1.06 1.06 0 0 0 1.066 1.832l1.428-.893c.451.989.762 2.029.928 3.101h-6.05v1.671z"/><path d="M17.965 14.505L16.3 19.343h3.669l-5.99 6.626 1.665-4.838h-3.67z"/></svg>