<!-- Generated by IcoMoon.io -->
<svg version="1.1" xmlns="http://www.w3.org/2000/svg" width="100%" height="100%" viewBox="0 0 32 32">
<title>icon_sport-sunroof_pcm</title>
<path d="M16 10.594c1.087 0 2.55 0.869 4.106 1.781 0.262 0.156 0.525 0.313 0.788 0.463 2.569 0.256 4.575 0.8 5.963 1.613 1.337 0.787 1.75 1.631 1.875 2.063l0.019 0.063v0.069c0 0.906-0.269 1.675-0.712 2.050-0.194 0.163-0.488 0.363-0.762 0.387-0.519 0.044-1.481 0.131-1.913 0.169-0.563 0.762-1.438 1.212-2.394 1.212-0.913 0-1.769-0.419-2.331-1.125l-0.506 0.006h-9.069c-0.563 0.706-1.419 1.119-2.325 1.119-1.125 0-2.138-0.625-2.65-1.613l-2.063-0.381-0.106-0.125c-0.381-0.438-0.594-0.894-0.644-1.4-0.025-0.275-0.031-0.806-0.031-0.869 0-0.356 0.237-0.844 0.7-1.438 0.15-0.194 0.662-0.825 1-0.956 0.381-0.144 0.763-0.294 1.144-0.444 1.669-0.65 3.369-1.313 5.037-1.813l0.287 0.894c-1.637 0.494-3.325 1.15-4.981 1.794-0.375 0.15-0.756 0.294-1.125 0.438-0.287 0.194-1.106 1.225-1.119 1.525 0 0.15 0.006 0.575 0.025 0.769 0.025 0.262 0.131 0.506 0.319 0.75l2.225 0.406 0.1 0.238c0.319 0.769 1.056 1.269 1.887 1.269 0.681 0 1.319-0.337 1.7-0.906l0.137-0.206h9.563l0.994-0.012 0.144 0.212c0.381 0.575 1.019 0.919 1.706 0.919 0.706 0 1.356-0.363 1.731-0.969l0.125-0.2 0.231-0.019c0.012 0 1.419-0.131 2.113-0.188 0.044-0.019 0.15-0.081 0.256-0.175 0.181-0.15 0.363-0.631 0.375-1.256-0.188-0.512-1.269-2.4-7.113-2.956l-0.1-0.012-0.087-0.050c-0.294-0.169-0.594-0.344-0.887-0.519-1.313-0.775-2.8-1.656-3.631-1.656h-0.238l-4.45-2.075 0.394-0.85zM5.275 14.575c0 0 0 0 0 0s0 0 0 0z"></path>
</svg>
