<!-- Generated by IcoMoon.io -->
<svg version="1.1" xmlns="http://www.w3.org/2000/svg" width="32" height="32" viewBox="0 0 32 32">
<title>icon_duration_next</title>
<path d="M11.281 7.356l-0.675-1.231c-0.387 0.213-0.769 0.45-1.137 0.713-0.006 0.006-0.012 0.006-0.012 0.013v0c0 0-0.006 0.006-0.006 0.006s-0.006 0.006-0.006 0.006v0c0 0-0.006 0-0.006 0.006v0c0 0-0.006 0-0.006 0.006v0c0 0-0.006 0-0.006 0.006 0 0 0 0 0 0s0 0 0 0l0.825 1.138c0.325-0.244 0.675-0.463 1.031-0.662z"></path>
<path d="M7.713 10.681l-1.181-0.762c-0.1 0.156-0.194 0.313-0.287 0.469v0c0 0.006-0.006 0.012-0.006 0.012v0c0 0 0 0.006-0.006 0.006 0 0 0 0.006-0.006 0.006 0 0 0 0.006-0.006 0.006 0 0 0 0 0 0s0 0.006-0.006 0.006v0c0 0 0 0.006-0.006 0.006 0 0 0 0 0 0s0 0.006-0.006 0.006v0c0 0 0 0.006-0.006 0.006 0 0 0 0 0 0s0 0.006-0.006 0.006c0 0 0 0 0 0s0 0 0 0.006c0 0 0 0 0 0s0 0 0 0.006c0 0 0 0 0 0s0 0.006 0 0.006c0 0 0 0 0 0s0 0 0 0.006v0c0 0 0 0.006 0 0.006s0 0 0 0.006c0 0 0 0 0 0.006 0 0 0 0 0 0.006 0 0 0 0 0 0.006 0 0 0 0 0 0.006 0 0 0 0 0 0s0 0.006-0.006 0.006c0 0 0 0 0 0s0 0 0 0.006c0 0 0 0 0 0s0 0.006-0.006 0.006c0 0 0 0 0 0 0 0.006-0.006 0.006-0.006 0.012v0c0 0.006-0.006 0.006-0.006 0.012 0 0-0.006 0.006-0.006 0.006v0c-0.1 0.188-0.2 0.375-0.287 0.563l1.269 0.606c0.156-0.344 0.356-0.706 0.575-1.050z"></path>
<path d="M6.181 15.3l-1.4-0.1c-0.031 0.469-0.037 0.938-0.013 1.406l1.406-0.075c-0.025-0.406-0.025-0.825 0.006-1.231z"></path>
<path d="M16 8.969c-0.238 0-0.469 0.012-0.706 0.037v6.994c0 0.094 0.019 0.181 0.056 0.269s0.088 0.163 0.15 0.231l4.925 4.925c0.006 0.006 0.019 0.012 0.031 0.019 0.356-0.294 0.688-0.625 0.981-0.981-0.006-0.006-0.012-0.019-0.019-0.031l-4.719-4.719v-6.706c-0.225-0.025-0.462-0.037-0.7-0.037z"></path>
<path d="M23.956 8.044c-2.2-2.194-5.075-3.294-7.956-3.294h-0.075c-0.006 0-0.012 0-0.012 0v0h-0.037c-0.006 0-0.012 0-0.019 0v0h-0.044c-0.4 0.006-0.794 0.037-1.194 0.088l0.175 1.394c0.406-0.050 0.819-0.075 1.231-0.075 2.631 0 5.1 1.025 6.963 2.881 3.837 3.838 3.837 10.081 0 13.919-1.863 1.856-4.331 2.881-6.962 2.881s-5.1-1.025-6.963-2.881l2.487-2.488h-5.994v5.969l2.487-2.488c2.2 2.2 5.075 3.3 7.956 3.3s5.756-1.1 7.956-3.294c4.394-4.394 4.394-11.519 0-15.912z"></path>
</svg>
