<svg xmlns="http://www.w3.org/2000/svg" width="32" height="32" viewBox="0 0 32 32"><title>icon_eye</title><path d="M16.016 13.723h-.037c-1.183.031-2.138 1.034-2.138 2.28s.954 2.242 2.137 2.274h.037c1.196-.025 2.137-1.034 2.137-2.274s-.942-2.242-2.137-2.28zm13 .438c-2.713-2.28-7.267-5.606-13-5.712h-.031c-5.734.114-10.297 3.435-13.003 5.714-.125.111-1.01.806-1.028 1.716-.012.638.273 1.103.681 1.487 2.212 2.212 7.044 6.151 13.35 6.183h.031c6.319-.025 11.138-3.971 13.35-6.183.409-.396.694-.861.681-1.487-.019-.904-.904-1.611-1.028-1.716zM16 21.845c-3.104-.019-5.606-2.633-5.606-5.848s2.509-5.829 5.606-5.848c3.104.019 5.606 2.633 5.606 5.848S19.107 21.833 16 21.845z"/></svg>