<!-- Generated by IcoMoon.io -->
<svg version="1.1" xmlns="http://www.w3.org/2000/svg" width="32" height="32" viewBox="0 0 32 32">
<title>icon_rfid-card</title>
<path d="M13.438 9.563h5v0.875h-5v-0.875z"></path>
<path d="M17 13.063h6.5v0.875h-6.5v-0.875z"></path>
<path d="M25.387 6.563c-0.163 0-13.419 0-13.719 0-0.738 0-1.106 0.631-1.106 1.106 0 0.419 0 2.625 0 2.625l-3.444 3.444c-1.275 1.275-1.588 2.794-1.469 3.706 0.112 0.875 1.306 7.756 1.356 8.056h0.831c-0.013-0.075-1.237-7.306-1.35-8.163-0.094-0.725 0.175-1.944 1.231-3l2.85-2.863v4.019l-2.488 2.525 0.594 0.6 1.9-1.938 0.844-0.838 2.406-2.381c0 0 0.894 0.625-0.244 2.15s-1.1 1.475-1.1 1.475l-0.688 0.844c0 0-0.156 0.194-0.156 0.444s0.113 0.369 0.194 0.462c0.331 0.4 0.8 1.1 0.8 1.725 0 0.944-0.944 1.95-0.956 1.962l0.306 0.288 0.306 0.294c0.050-0.050 1.188-1.262 1.188-2.544 0-0.931-0.625-1.7-0.994-2.137l0.4-0.494h3.125v2.525c0 1.238-1.563 2.038-1.581 2.044l-0.231 0.119v2.881h0.875v-2.375c0.537-0.325 1.813-1.25 1.813-2.669v-2.519c0 0 8.3 0 8.519 0 0.575 0 1.106-0.481 1.106-1.113 0-0.163 0-9 0-9.156-0.006-0.588-0.469-1.106-1.119-1.106zM25.625 16.9c0 0.063-0.063 0.163-0.169 0.163-0.050 0-11.912 0-11.912 0l0.644-0.919c0.125-0.131 0.825-0.925 0.844-1.919 0.012-0.744-0.55-1.369-0.55-1.369-0.125-0.25-0.381-0.338-0.525-0.363 0 0-0.35-0.075-0.6 0.175-0.056 0.056-1.981 1.956-1.981 1.956s0-7.013 0-7.088 0.069-0.156 0.156-0.156c0.081 0 12.388 0 13.931 0 0.094 0 0.163 0.075 0.163 0.15 0 1.194 0 9.331 0 9.369z"></path>
</svg>
