<svg xmlns="http://www.w3.org/2000/svg" viewBox="0 0 32 32" width="100%" height="100%"><path d="M3.469 21.531h25.063v2.563H3.469v-2.563zM15.781 4.469h.563c.414 0 .75.336.75.75v2.063c0 .414-.336.75-.75.75h-.563c-.414 0-.75-.336-.75-.75V5.219c0-.414.336-.75.75-.75zM6.812 7.773l.398-.398c.293-.293.768-.293 1.061 0l1.458 1.458c.293.293.293.768 0 1.061l-.398.398c-.293.293-.768.293-1.061 0L6.812 8.834c-.293-.293-.293-.768 0-1.061zM5.156 13.906h2.063c.414 0 .75.336.75.75v.563c0 .414-.336.75-.75.75H5.156c-.414 0-.75-.336-.75-.75v-.563c0-.414.336-.75.75-.75zM24.719 13.969h2.063c.414 0 .75.336.75.75v.563c0 .414-.336.75-.75.75h-2.063c-.414 0-.75-.336-.75-.75v-.563c0-.414.336-.75.75-.75zM22.396 8.833l1.458-1.458c.293-.293.768-.293 1.061 0l.398.398c.293.293.293.768 0 1.061l-1.458 1.458c-.293.293-.768.293-1.061 0l-.398-.398c-.293-.293-.293-.768 0-1.061zM22.092 18.469c.337-.764.533-1.654.533-2.59 0-3.624-2.938-6.563-6.563-6.563s-6.563 2.938-6.563 6.563c0 .936.196 1.827.549 2.632z"/></svg>