<!-- Generated by IcoMoon.io -->
<svg version="1.1" xmlns="http://www.w3.org/2000/svg" width="100%" height="100%" viewBox="0 0 32 32">
<title>icon_tumblr</title>
<path d="M11.359 18.51c0-1.469-0.008-2.938 0.007-4.408 0.003-0.284-0.086-0.353-0.357-0.346-0.716 0.018-1.432-0.006-2.148 0.012-0.265 0.006-0.368-0.049-0.36-0.341 0.022-0.752 0.017-1.506 0.002-2.259-0.005-0.232 0.072-0.344 0.282-0.444 1.295-0.613 2.395-1.467 3.21-2.661 0.662-0.971 1.036-2.043 1.069-3.219 0.008-0.288 0.096-0.349 0.363-0.343 0.728 0.017 1.457 0.019 2.185-0.001 0.281-0.007 0.353 0.080 0.352 0.355-0.010 1.679 0.006 3.358-0.008 5.037-0.002 0.307 0.079 0.391 0.385 0.389 1.654-0.012 3.309 0.008 4.963-0.008 0.321-0.003 0.392 0.096 0.387 0.394-0.016 0.926-0.015 1.852 0.004 2.778 0.005 0.273-0.092 0.323-0.339 0.321-1.666-0.010-3.334 0.002-5-0.011-0.292-0.002-0.402 0.049-0.399 0.375 0.016 2.136 0.006 4.272 0.010 6.408 0 0.245 0.020 0.494 0.062 0.736 0.215 1.231 1.121 1.994 2.372 2.025 1.212 0.030 2.334-0.332 3.44-0.77 0.406-0.161 0.407-0.162 0.407 0.259 0.002 0.926-0 1.852 0.005 2.778 0.001 0.16-0.008 0.28-0.202 0.33-2.223 0.573-4.466 0.949-6.772 0.655-0.801-0.102-1.57-0.327-2.26-0.768-1.087-0.694-1.62-1.711-1.646-2.978-0.030-1.431-0.007-2.864-0.007-4.296-0.002-0-0.003-0-0.005-0z"></path>
</svg>
