<svg xmlns="http://www.w3.org/2000/svg" width="32" height="32" viewBox="0 0 32 32"><title>icon_pcm</title><path d="M3.969 8.469v15h24.063v-15H3.969zm22.5 13.5H5.531V10.031h20.938v11.938z"/><path d="M11.742 18.88a.575.575 0 0 1-.574.574H9.637a.575.575 0 0 1-.574-.574v-1.531c0-.316.258-.574.574-.574h1.531c.316 0 .574.258.574.574v1.531zM11.742 14.574a.575.575 0 0 1-.574.574H9.637a.575.575 0 0 1-.574-.574v-1.531c0-.316.258-.574.574-.574h1.531c.316 0 .574.258.574.574v1.531zM15.474 18.88a.575.575 0 0 1-.574.574h-1.531a.575.575 0 0 1-.574-.574v-1.531c0-.316.258-.574.574-.574H14.9c.316 0 .574.258.574.574v1.531zM15.474 14.574a.575.575 0 0 1-.574.574h-1.531a.575.575 0 0 1-.574-.574v-1.531c0-.316.258-.574.574-.574H14.9c.316 0 .574.258.574.574v1.531zM19.206 18.88a.575.575 0 0 1-.574.574h-1.531a.575.575 0 0 1-.574-.574v-1.531c0-.316.258-.574.574-.574h1.531c.316 0 .574.258.574.574v1.531zM19.206 14.574a.575.575 0 0 1-.574.574h-1.531a.575.575 0 0 1-.574-.574v-1.531c0-.316.258-.574.574-.574h1.531c.316 0 .574.258.574.574v1.531zM22.938 18.88a.575.575 0 0 1-.574.574h-1.531a.575.575 0 0 1-.574-.574v-1.531c0-.316.258-.574.574-.574h1.531c.316 0 .574.258.574.574v1.531zM22.938 14.574a.575.575 0 0 1-.574.574h-1.531a.575.575 0 0 1-.574-.574v-1.531c0-.316.258-.574.574-.574h1.531c.316 0 .574.258.574.574v1.531z"/></svg>