<!-- Generated by IcoMoon.io -->
<svg version="1.1" xmlns="http://www.w3.org/2000/svg" width="100%" height="100%" viewBox="0 0 32 32">
<title>icon_climate_next</title>
<path d="M19.512 10.375v-0.938h-1.875v-1.875c0-1.037-0.837-1.875-1.875-1.875s-1.875 0.838-1.875 1.875v12.781c-0.85 0.594-1.406 1.575-1.406 2.688 0 1.813 1.469 3.281 3.281 3.281s3.281-1.469 3.281-3.281c0-1.113-0.556-2.1-1.406-2.688v-2.469h1.875v-0.938h-1.875v-2.813h1.875v-0.938h-1.875v-2.813h1.875zM14.825 7.563c0-0.519 0.419-0.938 0.938-0.938s0.938 0.419 0.938 0.938v7.031h-1.875v-7.031z"></path>
</svg>
