<svg xmlns="http://www.w3.org/2000/svg" viewBox="0 0 32 32" width="100%" height="100%"><path d="M7.6 16v-.6H2.8v1.2h4.8V16zM8.081 19.538l-3.9 2.219.6 1.019L8.5 20.613l-.181-.363c0 .012-.119-.288-.238-.712zM4.237 10.181l3.9 2.219c.063-.363.181-.662.238-.719l.181-.363-3.719-2.162-.6 1.025zM10 11.8h-.419l-.181.363c0 .063-.662 1.5-.662 3.837s.6 3.781.662 3.837l.181.363H10c2.1 0 4.8-2.038 4.8-4.2s-2.7-4.2-4.8-4.2zm.419 7.138C10.238 18.457 10 17.375 10 16s.238-2.463.419-2.938C11.857 13.3 13.6 14.681 13.6 16s-1.738 2.7-3.181 2.938zM24.4 15.4v1.2h4.8v-1.2h-4.8zM23.619 20.319l-.181.363 3.719 2.163.6-1.019-3.9-2.219c-.056.356-.175.656-.238.712zM23.919 12.463l3.9-2.219-.6-1.019-3.719 2.156.181.363c0-.006.119.294.238.719zM22.419 11.8H22c-2.1 0-4.8 2.037-4.8 4.2s2.7 4.2 4.8 4.2h.363l.181-.363c0-.063.663-1.5.663-3.838s-.6-3.781-.663-3.838l-.125-.363zm-.838 7.138C20.143 18.7 18.4 17.319 18.4 16s1.738-2.7 3.181-2.938c.181.537.419 1.563.419 2.938s-.238 2.462-.419 2.938z"/></svg>