<!-- Generated by IcoMoon.io -->
<svg version="1.1" xmlns="http://www.w3.org/2000/svg" width="100%" height="100%" viewBox="0 0 32 32">
<title>icon_porsche-driving-experience</title>
<path d="M12.388 26.277l-7.25-18.93 1.701-0.063 7.25 18.93z"></path>
<path d="M7.246 8.598s1.481-1.567 3.481-2.211l1.528 3.919s-1.974 0.709-3.585 2.222l-1.375-3.785z"></path>
<path d="M12.255 10.306l1.648 4.226s1.296-0.46 2.188-0.46c0.632 0.006 1.248 0.053 1.851 0.139l-1.27-4.502c-0.227-0.030-0.489-0.047-0.755-0.047 0 0 0 0 0 0-1.316 0.012-2.572 0.247-3.74 0.67z"></path>
<path d="M10.275 16.977l1.396 3.961s1.931-1.849 3.769-2.369l-1.537-4.037c-1.771 0.681-3.629 2.446-3.629 2.446z"></path>
<path d="M15.568 5.563l1.105 4.148c0.894 0 3.378 1.216 3.378 1.216l-0.979-4.284c-0.563-0.213-2.033-1.014-3.504-1.081z"></path>
<path d="M17.868 14.201l1.137 4.27c0.573 0 2.215 0.699 2.929 0.699l-0.96-4.198c-0.925-0.24-2.421-0.675-3.107-0.771z"></path>
<path d="M20.050 10.924l0.925 4.049s0.926 0.171 1.563 0.171 1.425-0.144 1.425-0.144l-0.301-3.707c-0.406 0.118-0.873 0.186-1.355 0.188-1.161 0.002-2.257-0.556-2.257-0.556z"></path>
<path d="M23.337 7.277l0.325 4.016s1.511-0.379 3.171-1.633v-4.154c-1.906 1.458-3.496 1.771-3.496 1.771z"></path>
<path d="M23.962 15c1.083-0.235 2.042-0.612 2.918-1.116l-0.049 4.393c-1.506 0.722-2.541 0.852-2.541 0.852z"></path>
</svg>
