<!-- Generated by IcoMoon.io -->
<svg version="1.1" xmlns="http://www.w3.org/2000/svg" width="100%" height="100%" viewBox="0 0 32 32">
<title>icon_suv-trunk_pcm</title>
<path d="M28.719 15.369c-2.4-1.119-6.45-1.275-6.45-1.275l-3.856-2.056c-1.169-0.5-2.425-0.756-3.694-0.756h-7.456c-0.138 0-0.281 0.050-0.419 0.125l-3.962-3.963-0.663 0.662 4.094 4.094 0.388 0.419h0.575v-0.406h7.438c1.137 0 2.244 0.225 3.294 0.669l4.012 2.137 0.212 0.006c0.038 0 3.894 0.162 6.088 1.188 0.313 0.144 0.512 0.475 0.512 0.837v0.913c0 0.094-0.019 0.144-0.025 0.156l-1.994 0.65-0.444 0.15-0.15 0.444c-0.256 0.769-0.969 1.288-1.769 1.288-0.788 0-1.494-0.506-1.762-1.25l-0.219-0.625h-11.35l-0.219 0.625c-0.269 0.75-0.975 1.25-1.762 1.25s-1.5-0.506-1.763-1.262l-0.156-0.444-0.45-0.137-2.3-0.719v-2.131h-0.938v2.131c0 0.413 0.269 0.775 0.656 0.894l2.3 0.719c0.381 1.1 1.419 1.887 2.644 1.887s2.256-0.788 2.644-1.875h10.038c0.387 1.087 1.419 1.875 2.644 1.875 1.244 0 2.288-0.813 2.656-1.925l2.019-0.675c0.381-0.125 0.644-0.488 0.644-1.025v-0.913c0.006-0.712-0.4-1.381-1.056-1.681z"></path>
</svg>
