<svg xmlns="http://www.w3.org/2000/svg" width="32" height="32" viewBox="0 0 32 32"><title>icon_door_left2_next</title><path d="M27.425 11.456c-.694-.662-1.563-.975-2.587-.919l-2.794.287h-7.55l-5.8-5.8-.662.662 6.063 6.062.006-.006.019.019c2.506 0 7.769-.006 7.969-.006l2.819-.287c.744-.037 1.363.175 1.863.662 1.419 1.356 1.387 4.275 1.413 4.313 0 .113-.019 2.981-1.413 4.319-.506.481-1.125.7-1.887.656l-2.744-.281c-.144 0-3.781-.006-5.175-.006-1.963 0-5.506 0-5.738.006-.313.006-.963.094-1.65.194-.656.087-1.394.194-1.737.206-.388.012-.619-.125-.8-.238-.1-.063-.188-.119-.306-.144l-.112-.012c-.662 0-1.194-.219-1.625-.663-1.25-1.288-1.181-3.988-1.188-4.012v-.031c0-.031-.063-2.725 1.188-4.012.431-.45.963-.662 1.625-.662l.112-.012c.112-.031.206-.088.306-.144.181-.113.412-.25.8-.238.344.012 1.087.113 1.737.206.688.094 1.419.188 1.731.194v-.938c-.262-.006-.975-.1-1.606-.181-.713-.1-1.444-.2-1.831-.213-.675-.025-1.1.238-1.325.375a3.127 3.127 0 0 0-2.225.969c-1.362 1.406-1.45 3.938-1.45 4.556v.231c0 .606.081 3.156 1.45 4.563.588.606 1.331.925 2.206.944.263.175.681.425 1.344.4.394-.012 1.125-.113 1.831-.212.631-.087 1.281-.175 1.544-.181.219-.006 3.763-.006 5.713-.006 1.769 0 5.094.006 5.125.006l2.719.281c1.05.056 1.919-.256 2.613-.919 1.712-1.637 1.7-4.869 1.7-4.994.019-.119.019-3.363-1.688-4.994zM16.469 19.45l2.5.281a.308.308 0 0 0 .337-.244l.087-.4a12.706 12.706 0 0 0 0-5.275l-.081-.394a.31.31 0 0 0-.337-.244l-2.494.294.081.65c.194 1.55.2 3.119 0 4.669l-.094.663zm-7.932-5.994l-1.131-.287a.31.31 0 0 0-.338.244l-.081.4a12.508 12.508 0 0 0 0 5.275l.081.394a.31.31 0 0 0 .338.244l1.125-.288-.081-.65c-.2-1.55-.2-3.119 0-4.669l.088-.662z"/></svg>