<!-- Generated by IcoMoon.io -->
<svg version="1.1" xmlns="http://www.w3.org/2000/svg" width="100%" height="100%" viewBox="0 0 32 32">
<title>icon_microphone</title>
<path d="M16.062 21.851c2.136 0 3.868-1.732 3.868-3.868v-9.15c0-2.136-1.732-3.868-3.868-3.868s-3.868 1.732-3.868 3.868v9.15c0 2.136 1.732 3.868 3.868 3.868z"></path>
<path d="M22.092 13.341h-1.147v4.748c0 2.697-2.186 4.882-4.882 4.882s-4.882-2.186-4.882-4.882v-4.748h-2.027v1.521h0.774v3.175c0 2.967 2.125 5.434 4.935 5.971v2.006h-0.507v1.147h3.415v-1.147h-0.507v-2.025c2.757-0.578 4.829-3.022 4.829-5.952v-3.175h0.88v-1.521h-0.88z"></path>
</svg>
