<!-- Generated by IcoMoon.io -->
<svg version="1.1" xmlns="http://www.w3.org/2000/svg" width="100%" height="100%" viewBox="0 0 27 32">
<title>icon_xing</title>
<path d="M8.377 7.178q-0.503-0.871-1.28-0.871h-4.624q-0.445 0-0.619 0.29-0.213 0.29 0.019 0.716l3.115 5.398c0.013 0.013 0.013 0.019 0 0.019l-4.892 8.667c-0.061 0.099-0.097 0.22-0.097 0.348s0.036 0.249 0.098 0.351c0.112 0.195 0.322 0.327 0.563 0.327 0.012 0 0.025-0 0.037-0.001l4.622 0q0.735 0 1.258-0.89 4.778-8.474 4.972-8.822z"></path>
<path d="M27.145 1.006q0.213-0.406 0-0.716-0.176-0.29-0.601-0.29h-4.662q-0.755 0-1.238 0.87-9.926 17.61-10.274 18.225l6.56 12.034q0.464 0.87 1.28 0.87h4.624q0.426 0 0.619-0.29 0.194-0.329-0.019-0.72l-6.506-11.894v-0.019z"></path>
</svg>
