<svg xmlns="http://www.w3.org/2000/svg" width="32" height="32" viewBox="0 0 32 32"><title>icon_heater_next</title><path d="M9.906 9.438h-.938l1.875-3.75 1.875 3.75h-.938c0 1.125.238 2.063.425 3.094.238 1.075.512 2.156.512 3.469 0 1.363-.238 2.438-.512 3.512-.188 1.031-.425 1.969-.425 3.05H9.905c0-1.313.238-2.387.469-3.469.238-1.031.469-1.969.469-3.094s-.238-2.063-.425-3.094c-.281-1.031-.512-2.106-.512-3.469zm11.25-3.75l-1.875 3.75h.938c0 1.075.137 1.969.325 2.813h1.925c-.188-.887-.375-1.781-.375-2.813h.938l-1.875-3.75zM7.563 26.313h16.875v-1.875H7.563v1.875zm9.375-16.875h.938l-1.875-3.75-1.875 3.75h.938c0 1.075.137 1.969.325 2.813h1.925c-.188-.887-.375-1.781-.375-2.813zm7.5 7.262c0 .7-.469 1.175-.938 1.175s-1.175-.238-1.875-.238c-.425 0-.75.094-.938.137v.094c0 .094 0 .137-.05.238.844.05 2.863.375 2.863 2.113 0 1.875-1.875 2.344-2.575 2.344s-1.175-.469-1.175-.938.238-1.175.238-1.875c0-.425-.094-.75-.137-.938h-.094c-.094 0-.137 0-.238-.05-.05.887-.375 2.863-2.113 2.863-1.875 0-2.344-1.875-2.344-2.575s.469-1.175.938-1.175 1.175.238 1.875.238c.425 0 .75-.094.938-.137v-.094c0-.094 0-.137.05-.238-.887-.05-2.863-.375-2.863-2.113 0-1.875 1.875-2.344 2.575-2.344s1.175.469 1.175.938-.238 1.175-.238 1.875c0 .425.094.75.137.938h.094c.094 0 .137 0 .238.05.05-.844.375-2.863 2.113-2.863 1.875 0 2.344 1.875 2.344 2.575zm-4.688 1.5c.188 0 .325-.137.325-.325s-.137-.325-.325-.325-.325.137-.325.325.137.325.325.325z"/></svg>