<svg xmlns="http://www.w3.org/2000/svg" width="32" height="32" viewBox="0 0 32 32"><title>icon_weibo</title><path d="M3.625 19.438q0 2.938 3.156 4.75T14 26.001q4.75 0 7.969-2.25t3.219-4.75q0-1.313-.875-2.156t-2.125-1.219q-.563-.188-.375-.625.625-1.563 0-2.438t-2.125-.875-3.375.813q-.625.25-.625-.125v-.125q.625-2-.25-2.938-1-1-3.375-.063t-4.75 3.25q-3.688 3.688-3.688 6.938zm2.531.968q-.219-2.031 1.813-3.656t5.094-1.938 5.375.906 2.5 3.219-1.844 3.656T14 24.531t-5.344-.906-2.5-3.219zm3.219 1.25q.563 1.281 2 1.719 1.563.5 3.094-.156t2.156-2.094q.625-1.375-.031-2.625t-2.156-1.625q-1.438-.375-2.906.25t-2.094 1.938-.063 2.594zm1.125-.375q-.125-.469.156-.938t.813-.656 1.031.031.625.688-.188.938-.844.656-1-.031-.594-.688zm2.875-1.968q.25-.438.688-.25t.188.625-.688.25-.188-.625zM19.719 7.25q.094.375.406.594t.688.156q2.625-.563 4.438 1.438t1 4.563q-.125.313.031.688t.531.469.75-.063.438-.531q.563-1.625.219-3.344t-1.563-3.063-2.875-1.844-3.344-.188q-.375.125-.594.438t-.125.688zm.812 3.156q.156.781.969.594.875-.188 1.469.5t.344 1.5.5 1.063 1-.563q.563-1.75-.656-3.094t-3.031-.969q-.75.188-.594.969z"/></svg>