<!-- Generated by IcoMoon.io -->
<svg version="1.1" xmlns="http://www.w3.org/2000/svg" width="100%" height="100%" viewBox="0 0 32 32">
<title>icon_customer-administration</title>
<path d="M22.538 24.913c0-2.816-5.418-5.92-6.977-6.168v0c-0.484-0.077-0.495-1.408-0.495-1.408 0.566-0.93 1.11-2.016 1.567-3.147 0.79-2.023 1.754-8.775-3.497-8.775s-3.986 7.523-3.665 8.621 1.732 3.301 1.732 3.301-0.011 1.331-0.495 1.408c-1.563 0.25-6.996 3.352-6.996 6.168 0 0 1.513 0.672 9.469 0.672s9.357-0.672 9.357-0.672z"></path>
<path d="M23.037 21.29c4.568 0 5.375-0.386 5.375-0.386 0-1.617-3.111-3.399-4.006-3.541v0c-0.278-0.044-0.284-0.808-0.284-0.808 0.324-0.534 0.637-1.158 0.898-1.807 0.453-1.162 1.007-5.038-2.007-5.038s-2.288 4.318-2.103 4.949 0.994 1.896 0.994 1.896-0.006 0.764-0.284 0.808c-0.5 0.079-1.688 0.666-2.64 1.449 1.13 0.549 2.541 1.442 3.644 2.476z"></path>
</svg>
