<svg xmlns="http://www.w3.org/2000/svg" viewBox="0 0 32 32" width="100%" height="100%"><path d="M25.063 18.563q-1.032-.745-2.592-.744-1.188 0-2 .524-1.291.82-1.375 2.784h1.995c.003-.411.127-.792.338-1.11q.33-.522 1.128-.522.813 0 1.119.43c.191.262.306.59.306.945v.01c0 .303-.152.581-.336.833-.112.158-.244.292-.394.404s-1.087.698-1.565 1.254c-.276.324-.301.808-.324 1.5 0 .049.017.151.188.151h1.552l.017.001c.092 0 .168-.073.171-.165.002-.19.033-.371.089-.541.084-.263.32-.503.587-.71l.549-.379c.496-.386.891-.703 1.063-.951.315-.415.505-.939.508-1.508q.009-1.461-1.023-2.204zM21.672 25.92h1.449c.158 0 .287.128.287.287v1.449c0 .158-.128.287-.287.287h-1.449c-.158 0-.287-.128-.287-.287v-1.449c0-.158.128-.287.287-.287zM16.188 21.875c0-1.282.688-2.438 1.784-3.258-.576-.273-1.069-.45-1.393-.5-.476-.076-.486-1.383-.486-1.383.555-.913 1.089-1.98 1.537-3.09.775-1.987 1.722-8.615-3.432-8.615s-3.911 7.383-3.597 8.463 1.701 3.241 1.701 3.241-.011 1.307-.486 1.383c-1.531.244-6.868 3.291-6.868 6.055 0 0 1.485.66 9.296.66 1.264 0 2.359-.017 3.308-.046-.849-.784-1.363-1.8-1.363-2.909z"/></svg>