<svg xmlns="http://www.w3.org/2000/svg" viewBox="0 0 32 32" width="100%" height="100%"><path d="M15.782 11.491L16 12.582c.291 0 2.327.291 2.909.436-.145.945-4.073 3.636-4.509 4.291-.8-1.164-3.273-4.218-4.873-6.545.582-.145 2.982-.218 3.418-.364l.145-.8c-.436-.073-4.145-.145-5.745-.073-2.473.073-5.018-.073-5.309.073v.945c.582.145 2.836.364 3.2.436 1.236.945 6.109 7.055 6.327 7.709.073.582.073 1.164.073 1.527v.655c0 1.455.073 1.745-.145 1.964-.509.509-2.691.364-3.2.436l-.145 1.018c.945 0 4.073-.073 5.091-.073h5.745l.073-1.091c-.509-.073-3.127 0-3.491-.073-.073-.509-.218-1.527-.218-2.109l.073-.873c0-.509.073-1.091.145-1.455.364-1.018 5.891-5.309 6.545-5.527.582-.145 2.255-.509 2.691-.509l.655-1.018c-.727-.073-3.418-.073-4.655-.073-1.6 0-4.436-.073-5.018 0zM28.145 11.127c-2.036-.218-1.964-.145-2.473-.291l.073 1.455c0 .727.145 7.564 0 8.436l1.745.145c.145-.436 1.455-6.473 1.964-7.855l.509-1.673c-.364-.073-.582-.073-1.818-.218zM25.309 22.327l.073 2.036.945.145.945.073.291-2.036-1.018-.073z"/></svg>