<!-- Generated by IcoMoon.io -->
<svg version="1.1" xmlns="http://www.w3.org/2000/svg" width="100%" height="100%" viewBox="0 0 32 32">
<title>icon_photo</title>
<path d="M26.268 9.434h-3.981l-2.383-2.422c0 0-0.012-0.012-0.018-0.012l-0.012-0.012c-0.354-0.356-0.832-0.582-1.374-0.582h-5.037c-0.543 0-1.020 0.226-1.374 0.582l-0.012 0.012c-0.006 0-0.018 0.012-0.018 0.012l-2.383 2.422h-3.981c-1.091 0-1.982 0.867-1.982 1.971v11.998c0-0.045 0.001-0.88 0.001-0.872 0.003 0.002 0.006 0.003 0.009 0.004 0.096 1.014 0.945 1.809 1.973 1.809h20.574c1.027 0 1.876-0.795 1.973-1.809 0.003-0.002 0.006-0.003 0.009-0.004 0-0.008 0.001 0.828 0.001 0.872v-11.998c0-1.104-0.891-1.971-1.982-1.971zM15.981 19.844c-2.027 0-3.682-1.658-3.701-3.699 0.019-2.045 1.669-3.77 3.701-3.77s3.682 1.725 3.701 3.77c-0.019 2.040-1.674 3.699-3.701 3.699z"></path>
</svg>
