<!-- Generated by IcoMoon.io -->
<svg version="1.1" xmlns="http://www.w3.org/2000/svg" width="32" height="32" viewBox="0 0 32 32">
<title>icon_oil_next</title>
<path d="M28 16.719c-0.481 0.9-1.2 1.738-1.2 2.4s0.538 1.2 1.2 1.2 1.2-0.538 1.2-1.2c0-0.656-0.719-1.5-1.2-2.4z"></path>
<path d="M27.581 15.338l0.9-0.838-1.381-1.5-10.8 1.262-1.2-1.137h-2.7v-1.2h1.2v-1.2h-3.6v1.2h1.2v1.2h-3.6v-1.019l-4.8-1.619v4.263l3.6 1.2v5.581h12.837l7.262-7.269h0.063l1.019 1.075zM4 13.9v-1.738l2.4 0.781v1.744l-2.4-0.787zM18.762 20.319h-11.162v-6h6.963l1.2 1.2 8.756-1.019-5.756 5.819z"></path>
</svg>
