<svg xmlns="http://www.w3.org/2000/svg" viewBox="0 0 32 32" width="100%" height="100%"><path d="M28.255 21.025h-3.66c-.101 0-.183-.082-.183-.183v-3.66c0-.101-.082-.183-.183-.183h-1.585c-.101 0-.183.082-.183.183v3.661c0 .101-.082.183-.183.183h-3.66c-.101 0-.183.082-.183.183v1.585c0 .101.082.183.183.183h3.661c.101 0 .183.082.183.183v3.661c0 .101.082.183.183.183h1.585c.101 0 .183-.082.183-.183V23.16c0-.101.082-.183.183-.183h3.661c.101 0 .183-.082.183-.183v-1.585c0-.101-.082-.183-.183-.183h-.001zM16.188 21.875c0-1.282.688-2.438 1.784-3.258-.576-.273-1.069-.45-1.393-.5-.476-.076-.486-1.383-.486-1.383.555-.913 1.089-1.98 1.537-3.09.775-1.987 1.722-8.615-3.432-8.615s-3.911 7.383-3.597 8.463 1.701 3.241 1.701 3.241-.011 1.307-.486 1.383c-1.531.244-6.868 3.291-6.868 6.055 0 0 1.485.66 9.296.66 1.264 0 2.359-.017 3.308-.046-.849-.784-1.363-1.8-1.363-2.909z"/></svg>