<svg xmlns="http://www.w3.org/2000/svg" viewBox="0 0 32 32" width="100%" height="100%"><path d="M12.588 21.137c-.613-.075-1.2-.219-1.756-.425.05-.119.131-.256.25-.413l1.15-1.831s.169-.306.431-.587c.8-3.287 3.75-5.731 7.288-5.731.837 0 1.644.144 2.4.4-.488-4.519-4.306-8.037-8.95-8.037-4.969 0-9 4.031-9 9 0 4.831 3.813 8.762 8.594 8.975-.175-.431-.313-.887-.406-1.35zm2.787-14.412l.069-.669c1.806.463 3.356 1.556 4.4 3.044-.038.019-.081.037-.131.056L17.1 10.269s-1.575.494-1.775-.769c-.006.006-.044-2.65.05-2.775zM9.65 15.356s-.494 1.356-2.175 2.881c-1.019-1.306-1.625-2.944-1.625-4.725 0-.094 0-.181.006-.275l2.862.694s1.387.456.931 1.425zm.419-4.937L7.088 9.325c.975-1.506 2.469-2.644 4.219-3.175.05.575.262 3.056.119 3.556 0 0-.056 1.006-1.356.713z"/><path d="M21.681 17.025c-.325-.219-.694-.375-1.087-.456-.256.587-.581 1.137-.962 1.637-.087-.081-.188-.194-.288-.344 0 0-.406-.469-.844-.994-1.006.525-1.706 1.569-1.706 2.781 0 .712.244 1.363.644 1.894 1.894-.956 3.413-2.556 4.244-4.519z"/><path d="M19.944 25.837c-3.413 0-6.188-2.775-6.188-6.188s2.775-6.188 6.188-6.188 6.188 2.775 6.188 6.188-2.775 6.188-6.188 6.188zm0-10.499c-2.375 0-4.313 1.937-4.313 4.312s1.938 4.313 4.313 4.313 4.313-1.938 4.313-4.313-1.931-4.313-4.313-4.313z"/><path d="M26.663 27.488c-.225 0-.456-.081-.663-.275l-.031-.031-.006-.006-2.9-2.9 1.325-1.325 2.931 2.931c.369.375.369.956 0 1.325-.163.169-.4.281-.656.281z"/></svg>