<!-- Generated by IcoMoon.io -->
<svg version="1.1" xmlns="http://www.w3.org/2000/svg" width="32" height="32" viewBox="0 0 32 32">
<title>icon_igoogle</title>
<path d="M28.531 18.568l-0.629 0.605c-0.17 0.145-0.195 0.194-0.242 0.386-0.024 0.219-0.049 0.921-0.049 1.163v2.954l-3.462 0.798c-1.404 0.219-2.663 0.412-3.995 0.412-6.682 0-9.224-4.915-9.224-8.764 0-4.697 3.607-9.055 9.781-9.055 1.307 0 2.566 0.194 3.704 0.508 1.816 0.509 2.663 1.138 3.196 1.502l-2.009 1.912-0.847 0.194 0.605-0.969c-0.823-0.799-2.325-2.276-5.181-2.276-3.826 0-6.707 2.906-6.707 7.143 0 4.552 3.293 8.837 8.57 8.837 1.55 0 2.349-0.314 3.075-0.605v-3.898l-3.655 0.194 1.937-1.041h5.133z"></path>
<path d="M8.958 9.099c-0.389 1.113-1.355 1.788-2.157 1.507s-1.136-1.41-0.747-2.523c0.389-1.113 1.355-1.788 2.157-1.507s1.136 1.41 0.747 2.523z"></path>
<path d="M6.125 21.621c0 0-0.361 1.632 0.392 1.792 0.616 0.131 1.161-0.261 1.52-0.588 0.299-0.272 0.856-0.841 0.856-0.841l0.485 0.003c-0.817 0.768-2.027 2.776-4.031 2.538-2.465-0.293-1.798-2.558-1.798-2.558l1.633-7.095c0 0 0.040-0.864-0.808-1.070-0.608-0.148-0.773-0.186-0.773-0.186v-0.408c0 0 1.447-0.078 3.684-0.471l0.783-0.003z"></path>
</svg>
