<!-- Generated by IcoMoon.io -->
<svg version="1.1" xmlns="http://www.w3.org/2000/svg" width="100%" height="100%" viewBox="0 0 32 32">
<title>icon_baidu</title>
<path d="M12.471 20.188c-0.602 0.179-0.893 0.645-0.957 0.847-0.069 0.201-0.226 0.714-0.089 1.157 0.265 1.001 1.134 1.046 1.134 1.046h1.248l-0-3.050h-1.336z"></path>
<path d="M8.984 16.081c2.383-0.512 2.058-3.363 1.988-3.986-0.117-0.961-1.247-2.639-2.779-2.505-1.929 0.172-2.211 2.959-2.211 2.959-0.261 1.29 0.623 4.045 3.002 3.532z"></path>
<path d="M23.391 19.892c0 0-2.722-2.106-4.31-4.382-2.157-3.357-5.218-1.99-6.241-0.285-1.020 1.709-2.606 2.788-2.833 3.075-0.229 0.281-3.287 1.933-2.609 4.951 0.68 3.015 3.065 2.958 3.065 2.958s1.758 0.172 3.796-0.284c2.043-0.455 3.8 0.112 3.8 0.112s4.765 1.598 6.067-1.477c1.304-3.072-0.736-4.668-0.736-4.668zM15.234 24.467h-3.097c-1.339-0.268-1.872-1.181-1.939-1.338s-0.445-0.892-0.244-2.141c0.577-1.87 2.227-2.007 2.227-2.007h1.65v-2.026l1.402 0.022v7.488zM21.006 24.445h-3.564c-1.384-0.357-1.448-1.339-1.448-1.339v-3.943l1.448 0.052v3.543c0.088 0.302 0.557 0.371 0.557 0.371h1.468v-3.965h1.538v5.282z"></path>
<path d="M26.053 13.916c0-0.681-0.564-2.733-2.663-2.733-2.103 0-2.381 1.936-2.381 3.305 0 1.306 0.109 3.127 2.721 3.071 2.609-0.058 2.323-2.957 2.323-3.643z"></path>
<path d="M19.080 11.525c1.761 0.231 2.889-1.648 3.115-3.071 0.231-1.421-0.907-3.075-2.151-3.358-1.249-0.287-2.809 1.713-2.949 3.017-0.171 1.596 0.227 3.187 1.985 3.412z"></path>
<path d="M13.409 11.302c1.315 0 2.379-1.516 2.379-3.388s-1.063-3.386-2.379-3.386c-1.316 0-2.382 1.513-2.382 3.386s1.066 3.388 2.382 3.388z"></path>
</svg>
