<svg xmlns="http://www.w3.org/2000/svg" viewBox="0 0 32 32" width="100%" height="100%"><path d="M3.98 13.012c-.063-.012-.034-.037-.105-.015s-.168.086-.196.014l-.482.059c-.141.018-.125.063.078.164l-.726.085c-.146.018-.14.08.108.196l-.045.016c-.153.079-.347.165-.546.242-.213.097-.411.148-.621.155-.19.058-.179.2-.086.29-.379.291-.802.711-.946 1.191-.057.192-.011.418.008.625l.031.347c.011.122.017.264.017.407 0 .071-.002.142-.005.212-.012-.008-.022-.006-.032-.004-.018.008-.032.026-.035.048-.004.018-.006.038-.006.059s.002.041.006.061c.007.028.024.054.042.061h.004c-.025.185-.062.349-.111.508.005-.018.005-.014.005-.009 0 .013.004.025.011.035-.005 0 .013.02.013.02.011.014.023.029.033.045-.007.001-.013.002-.019.005-.038.016-.053.062-.046.117s0 .006 0 .009 0 .013.004.021c.03.146.069.274.118.396.043.117.068.189.133.239.026.063.051.101.073.099l.213-.009c.027.002.059.002.091.002.07 0 .139-.004.207-.013.05.037.12.062.194.072.019.007.039.01.059.01h.002l.134.02.015.001.016-.001c.007.003.009 0 .009 0 .033-.012.07-.019.109-.021.761.072 1.78.354 2.52.422.031.003.897.193.897.193.214.373.51.677.864.895.363.215.802.294 1.229.294.321 0 .651-.027.933-.149.233-.101.435-.224.616-.37l.94.18c.006-.056.049-.555.078-.904h.028c.086 0 .046.413.075.413h.295c.047 0 .049-.084.083-.119.25-.262.644-.306 1.277-.359l10.884.125.587.077c.213.341.497.619.832.819.363.211.802.288 1.229.288.321 0 .651-.026.933-.146.288-.121.536-.278.753-.471l.622.085.448.132c.006-.071.009-.161.012-.261.012-.063.025-.108.035-.108.055.003.12.005.186.005.228 0 .451-.023.667-.066.087-.018.198-.085.313-.126.198-.071.469-.188.652-.201.113-.003.221-.015.326-.034l-.013.002h.007c.122-.022.211-.048.324-.058.075-.007.23.049.309.034.146-.027.313-.108.544-.142.133-.019.137-.188.176-.254.027-.049.168-.027.188-.117.021-.108.053-.165-.017-.261-.083-.098-.166-.187-.253-.271.07-.285.2-.751.232-1.149.017-.207.007-.394-.052-.524-.173-.381-.453-.604-.786-.807h.007l-.019-.007-.096-.057c-.688-.401-1.081-.61-1.796-.952-.166-.113-.421-.284-.684-.434-.114-.07-.248-.138-.387-.197-.142-.068-.284-.105-.434-.111-.568-.063-1.293-.111-1.859-.171-.688-.125-1.471-.287-2.158-.412-.137.014-.26.036-.379.066l-.173.01.027-.005-.367-.154-.307-.019c-1.287-.772-2.906-1.793-4.506-2.41l-.096-.087-.031.023c-.041-.032-.087-.061-.137-.083-1.761-.502-3.289-.402-4.974-.189-.609.076-1.405.23-2.059.381-1.77.409-3.362.969-5.091 1.553-.046-.025-.235 0-.285-.01-.137.037-.25.075-.361.12-.091.033.276.038.164.078l-.103.036-.019-.029-.75.011c-.177 0-.135.087.168.227z"/></svg>