<!-- Generated by IcoMoon.io -->
<svg version="1.1" xmlns="http://www.w3.org/2000/svg" width="100%" height="100%" viewBox="0 0 32 32">
<title>icon_park_next</title>
<path d="M16 6.4c-5.281 0-9.6 4.319-9.6 9.6s4.319 9.6 9.6 9.6 9.6-4.319 9.6-9.6-4.319-9.6-9.6-9.6zM16 24.4c-4.619 0-8.4-3.781-8.4-8.4s3.781-8.4 8.4-8.4 8.4 3.781 8.4 8.4-3.781 8.4-8.4 8.4zM29.2 16c0 3.663-1.5 6.962-3.837 9.363l-1.681-1.681c1.919-1.981 3.119-4.681 3.119-7.681s-1.2-5.7-3.181-7.619l1.681-1.681c2.4 2.338 3.9 5.637 3.9 9.3zM8.381 23.619l-1.681 1.681c-2.4-2.337-3.9-5.637-3.9-9.3s1.5-6.963 3.837-9.363l1.681 1.681c-1.919 1.981-3.119 4.681-3.119 7.681s1.2 5.7 3.181 7.619zM19.3 16.481c0.3-0.3 0.538-0.662 0.663-1.081 0.181-0.481 0.238-1.019 0.238-1.738 0-0.662-0.063-1.262-0.181-1.738-0.119-0.481-0.363-0.838-0.6-1.137-0.3-0.3-0.663-0.481-1.081-0.662-0.419-0.119-0.962-0.181-1.563-0.181h-3.775v12h1.381v-4.738h2.337c0.538 0 1.019-0.063 1.438-0.181 0.481-0.063 0.844-0.244 1.144-0.544zM16.719 16.063h-2.338v-4.8h2.4c0.363 0 0.663 0.063 0.962 0.119 0.238 0.063 0.481 0.181 0.6 0.363 0.181 0.181 0.3 0.419 0.363 0.719s0.119 0.719 0.119 1.2-0.063 0.9-0.119 1.2c-0.063 0.3-0.181 0.537-0.363 0.719s-0.363 0.3-0.663 0.363c-0.244 0.119-0.544 0.119-0.962 0.119z"></path>
</svg>
