<svg xmlns="http://www.w3.org/2000/svg" width="32" height="32" viewBox="0 0 32 32"><title>icon_sport-engine_pcm</title><path d="M5.3 14.563c-.287.194-1.106 1.225-1.119 1.525 0 .15.006.575.025.769.025.262.131.506.319.75l2.225.406.1.238a2.044 2.044 0 1 0 3.587.363l.137-.206h9.562l.994-.012.144.212a2.044 2.044 0 0 0 1.706.919 2.03 2.03 0 0 0 1.731-.969l.125-.2.231-.019c.012 0 1.419-.131 2.113-.188.044-.019.15-.081.256-.175.181-.15.363-.631.375-1.256-.188-.512-1.269-2.4-7.113-2.956l-.1-.012-.087-.05a61.94 61.94 0 0 1-.887-.519c-1.313-.775-2.8-1.656-3.631-1.656-2.213 0-4.5.669-7 1.594l-.5-.75-2.563-2.55.662-.662 2.844 2.844c2.125-.688 4.162-1.406 6.563-1.406 1.087 0 2.55.869 4.106 1.781.262.156.525.313.788.463 2.569.256 4.575.8 5.962 1.613 1.337.787 1.75 1.631 1.875 2.063l.019.063v.069c0 .906-.269 1.675-.712 2.05-.194.163-.488.363-.762.387-.519.044-1.481.131-1.913.169a2.96 2.96 0 0 1-2.394 1.212 2.98 2.98 0 0 1-2.331-1.125l-.506.006h-9.069a2.977 2.977 0 0 1-4.975-.494l-2.063-.381-.106-.125c-.381-.438-.594-.894-.644-1.4a13.98 13.98 0 0 1-.031-.869c0-.356.237-.844.7-1.438.15-.194.662-.825 1-.956l.356.881zm-.025.012z"/></svg>