<svg xmlns="http://www.w3.org/2000/svg" viewBox="0 0 32 32" width="100%" height="100%"><path d="M16.353 17.443c-.375-.802-.97-1.39-1.78-1.762-.67-.307-1.362-.537-2.079-.707l-3.285-.89c-.512-.148-1.004-.35-1.413-.707-.273-.239-.444-.53-.444-.905-.001-.818.496-1.477 1.325-1.719.773-.226 1.559-.217 2.345-.071.858.159 1.518.584 1.915 1.397.263.54.276.815.276.815l2.973-.003.001-.108c-.012-.273-.041-.537-.098-.804-.37-1.76-1.345-3.011-3.071-3.618-1.12-.394-2.281-.455-3.454-.394-.837.043-1.658.169-2.448.458-1.103.403-1.966 1.085-2.482 2.161-.367.767-.458 1.582-.425 2.422.028.725.245 1.39.572 2.03.395.775 1.079 1.198 1.839 1.524.948.406 1.969.568 2.957.837.689.187 1.385.345 2.053.6.516.197 1.015.426 1.444.786.459.384.605.86.458 1.44-.165.647-.603 1.039-1.209 1.223-1.208.367-2.466.34-3.643-.141-.498-.203-.907-.53-1.166-1.018-.155-.292-.252-.604-.31-.927 0 0-.029-.164-.027-.216H5.585c-.492 0-1.123.002-1.615-.002l.01.132c.057.816.22 1.605.61 2.329.715 1.326 1.855 2.101 3.29 2.474.989.257 1.998.315 3.013.283.861-.028 1.711-.136 2.535-.404.965-.314 1.808-.809 2.418-1.647.507-.697.768-1.483.858-2.332.093-.874.027-1.73-.35-2.535z"/><path d="M21.353 17.923l8.679-6.278-10.739.003-3.305-10.147-1.883 5.729.112.054c.713.338 1.329.805 1.849 1.397.847.965 1.336 2.091 1.517 3.359.075.523.078 1.048.103 1.573l.007.193c1.749-.006 3.919-.004 5.668-.003l-4.572 3.288 1.552 4.73.196.595s-1.637-1.179-2.438-1.758c-.13.729-.39 1.415-.738 1.998l-.058.099c2.106 1.521 4.324 3.127 6.429 4.65l.94.682-3.316-10.165z"/></svg>