<!-- Generated by IcoMoon.io -->
<svg version="1.1" xmlns="http://www.w3.org/2000/svg" width="32" height="32" viewBox="0 0 32 32">
<title>icon_early-morning_next</title>
<path d="M24.837 13.769c-0.269-0.269-0.712-0.269-0.981 0l-1.962 1.963c-0.269 0.269-0.269 0.713 0 0.981 0.137 0.137 0.313 0.206 0.494 0.206 0.175 0 0.356-0.069 0.494-0.206l1.962-1.963c0.262-0.269 0.262-0.713-0.006-0.981z"></path>
<path d="M16 14.275c0.381 0 0.694-0.313 0.694-0.694v-2.775c0-0.381-0.313-0.694-0.694-0.694s-0.694 0.313-0.694 0.694v2.775c0 0.381 0.313 0.694 0.694 0.694z"></path>
<path d="M10.113 16.712c0.269-0.269 0.269-0.713 0-0.981l-1.963-1.963c-0.269-0.269-0.713-0.269-0.981 0s-0.269 0.713 0 0.981l1.962 1.963c0.137 0.137 0.313 0.206 0.494 0.206 0.175 0 0.35-0.069 0.488-0.206z"></path>
<path d="M20.313 17.206c-1.212-0.994-2.744-1.544-4.319-1.544s-3.106 0.55-4.319 1.544c-1.194 0.981-2.031 2.35-2.35 3.856-0.081 0.369 0.156 0.738 0.531 0.813 0.369 0.081 0.738-0.156 0.813-0.531 0.525-2.494 2.763-4.306 5.319-4.306s4.794 1.813 5.319 4.306c0.069 0.325 0.356 0.544 0.675 0.544 0.050 0 0.094-0.006 0.144-0.012 0.369-0.081 0.606-0.444 0.531-0.813-0.313-1.506-1.144-2.875-2.344-3.856z"></path>
</svg>
