<!-- Generated by IcoMoon.io -->
<svg version="1.1" xmlns="http://www.w3.org/2000/svg" width="32" height="32" viewBox="0 0 32 32">
<title>icon_e-power</title>
<path d="M23.498 10.167h-2.188v-4.74c0-0.604-0.49-1.094-1.094-1.094s-1.094 0.49-1.094 1.094v4.74h-6.245v-4.74c0-0.604-0.49-1.094-1.094-1.094s-1.094 0.49-1.094 1.094v4.74h-2.188v4.74c0 0.278 0.035 0.561 0.087 0.843 0.149 1.906 1.431 3.568 3.327 4.563 0.342 0.194 0.696 0.35 1.058 0.459 0.433 0.154 0.888 0.276 1.361 0.363v6.532h3.329v-6.519c3.337-0.59 5.833-2.947 5.833-5.768 0-0.079-0.011-0.152-0.015-0.229 0.005-0.082 0.015-0.164 0.015-0.245v-4.74z"></path>
</svg>
