<svg xmlns="http://www.w3.org/2000/svg" viewBox="0 0 32 32" width="100%" height="100%"><path d="M27.238 22.206l-1.012-4.075c-.075-.337-.375-.563-.712-.563-.075 0-.113.038-.188.038l-4.15 1.012c-.413.075-.675.488-.563.9.075.413.488.675.9.563l2.806-.675c-1.381 3.587-4.825 5.944-8.719 5.944-5.162 0-9.356-4.188-9.356-9.35s4.188-9.35 9.356-9.35c4.262 0 8.006 2.881 9.094 6.994.075.375.488.637.9.525.375-.075.637-.488.525-.9-1.238-4.787-5.575-8.113-10.512-8.113C9.613 5.156 4.751 10.019 4.751 16s4.863 10.844 10.85 10.844c4.188 0 7.931-2.356 9.725-6.019l.45 1.794c.075.413.488.675.9.563s.637-.525.563-.975z"/><path d="M15.244 9.369c-.431 0-.787.35-.787.787v6.031c0 .325.2.6.475.725.119.075.256.113.406.113h3.825c.431 0 .788-.35.788-.788 0-.431-.35-.787-.788-.787h-3.137v-5.3c.006-.431-.344-.781-.781-.781z"/></svg>