<!-- Generated by IcoMoon.io -->
<svg version="1.1" xmlns="http://www.w3.org/2000/svg" width="100%" height="100%" viewBox="0 0 32 32">
<title>icon_route_next</title>
<path d="M17.225 20.662c-1.223-0.258-2.897-0.61-3.118-1.054-0.055-0.109-0.1-0.265 0.041-0.494 0.303-0.49 1.267-0.997 2.357-0.997v-1.168c-1.409 0-2.786 0.637-3.351 1.551-0.324 0.523-0.356 1.104-0.093 1.631 0.474 0.948 1.996 1.268 3.923 1.674 2.017 0.425 4.527 0.955 4.79 2.268 0.055 0.276-0.009 0.506-0.206 0.747-0.696 0.85-3.424 2.194-13.539 2.553 0 0.387 0.002 1.137 0.002 1.172 8.292-0.285 13.034-1.269 14.44-2.984 0.416-0.507 0.571-1.101 0.448-1.717-0.414-2.069-3.22-2.66-5.695-3.182z"></path>
<path d="M19.016 2.387c-2.872 0-5.208 2.428-5.208 5.413 0 0.755 0.214 2.131 2.060 5.351 0.944 1.647 1.875 3.006 1.915 3.063l1.234 1.797 1.234-1.797c0.039-0.057 0.97-1.417 1.915-3.063 1.846-3.221 2.060-4.596 2.060-5.351 0-2.985-2.337-5.413-5.208-5.413zM19.022 11.079c-1.94 0-3.512-1.572-3.512-3.512s1.572-3.512 3.512-3.512c1.94 0 3.512 1.572 3.512 3.512s-1.572 3.512-3.512 3.512z"></path>
</svg>
