<!-- Generated by IcoMoon.io -->
<svg version="1.1" xmlns="http://www.w3.org/2000/svg" width="100%" height="100%" viewBox="0 0 32 32">
<title>icon_eye</title>
<path d="M16.016 13.723h-0.037c-1.183 0.031-2.138 1.034-2.138 2.28s0.954 2.242 2.137 2.274h0.037c1.196-0.025 2.137-1.034 2.137-2.274s-0.942-2.242-2.137-2.28zM29.016 14.161c-2.713-2.28-7.267-5.606-13-5.712h-0.031c-5.734 0.114-10.297 3.435-13.003 5.714-0.125 0.111-1.010 0.806-1.028 1.716-0.012 0.638 0.273 1.103 0.681 1.487 2.212 2.212 7.044 6.151 13.35 6.183h0.031c6.319-0.025 11.138-3.971 13.35-6.183 0.409-0.396 0.694-0.861 0.681-1.487-0.019-0.904-0.904-1.611-1.028-1.716zM16 21.845c-3.104-0.019-5.606-2.633-5.606-5.848s2.509-5.829 5.606-5.848c3.104 0.019 5.606 2.633 5.606 5.848s-2.499 5.836-5.606 5.848z"></path>
</svg>
