<svg xmlns="http://www.w3.org/2000/svg" width="32" height="32" viewBox="0 0 32 32"><title>icon_desktop</title><path d="M27.17 7.031H4.809c-.98 0-1.777.797-1.777 1.777v13.883c0 .98.797 1.777 1.777 1.777h8.723v2.125c0 .238.193.43.431.43h4.569a.43.43 0 0 0 .43-.43v-2.125h8.208c.98 0 1.777-.797 1.777-1.777V8.808c0-.98-.797-1.777-1.777-1.777zM5.385 8.469h21.209c.505 0 .916.411.916.916v11.647H4.469V9.385c0-.505.411-.916.916-.916zm12.646 17.562h-3.563v-1.563h3.563v1.563zm8.563-3H5.385a.917.917 0 0 1-.916-.916v-.154H27.51v.154a.917.917 0 0 1-.916.916zM20.086 27.969h-8.053c-.238 0-.431.318-.431.555s.193.507.431.507h8.053c.238 0 .43-.269.43-.507s-.193-.555-.43-.555z"/></svg>