<!-- Generated by IcoMoon.io -->
<svg version="1.1" xmlns="http://www.w3.org/2000/svg" width="100%" height="100%" viewBox="0 0 32 32">
<title>icon_tecent</title>
<path d="M16 5.032c-5.143 0-9.313 4.169-9.313 9.313 0 1.748 0.483 3.383 1.321 4.781 0.184 0.169 0.521 0.348 0.977 0.029 0 0 0.532-0.173 0.298-0.935-0.66-1.141-1.043-2.462-1.043-3.874 0-4.286 3.475-7.76 7.76-7.76s7.76 3.474 7.76 7.76-3.474 7.76-7.76 7.76c-0.685 0-1.346-0.098-1.979-0.264-0.001 0-0.005 0.006-0.005 0.006s-0.531-0.213-0.78 0.532c0 0-0.309 0.681 0.287 0.943 0.789 0.217 1.618 0.335 2.476 0.335 5.143 0 9.313-4.169 9.313-9.312s-4.169-9.313-9.313-9.313z"></path>
<path d="M16 11.24c-1.714 0-3.104 1.39-3.104 3.104 0 0.468 0.104 0.912 0.29 1.31-2.262 2.53-3.96 5.575-4.897 8.937-0.267 0.959-0.473 1.944-0.612 2.951 0.125 0.183 0.291 0.314 0.491 0.368 0.368 0.099 0.768-0.082 1.089-0.445 0.124-0.815 0.295-1.615 0.511-2.396 0.848-3.076 2.379-5.868 4.42-8.204 0.51 0.368 1.136 0.585 1.812 0.585 1.714 0 3.104-1.39 3.104-3.104s-1.39-3.104-3.104-3.104z"></path>
</svg>
