<svg xmlns="http://www.w3.org/2000/svg" viewBox="0 0 32 32" width="100%" height="100%"><path d="M24.4 15.4V13c.769-.394 1.2-.6 1.2-.6-.394-4.875-5.819-7.15-6-7.2v1.2c.512.181 3.6 1.531 3.6 6.6v2.4c0 1.25.325 2.275.637 3.263.288.906.563 1.756.563 2.738-.006.3-.106 1.806-1.8 1.806s-1.794-1.5-1.8-1.8v-4.8c0-2.375-1.569-3-2.4-3V6.401c0-.662-.538-1.2-1.2-1.2H8.8c-.662 0-1.2.537-1.2 1.2v19.2H6.4v1.2h13.2v-1.2h-1.2v-10.8c.05 0 1.2.019 1.2 1.8v4.8c0 1.038.625 3 3 3s3-1.962 3-3c0-1.169-.313-2.15-.619-3.106-.3-.938-.581-1.831-.581-2.894zm-7.2-.6v10.8H8.8v-12h8.4v1.2zm0-2.4H8.8v-6h8.4v6z"/></svg>