<svg xmlns="http://www.w3.org/2000/svg" width="32" height="32" viewBox="0 0 32 32"><title>icon_gps</title><path d="M19.728 16.062a3.665 3.665 0 1 1-7.33 0 3.665 3.665 0 0 1 7.33 0z"/><path d="M26.062 14.831h-1.441a8.647 8.647 0 0 0-7.317-7.325V6.064c0-.598-.543-1.082-1.212-1.082h-.057c-.669 0-1.212.484-1.212 1.082v1.442a8.645 8.645 0 0 0-7.317 7.325H6.018c-.572 0-1.036.528-1.036 1.18v.102c0 .652.464 1.18 1.036 1.18h1.488a8.649 8.649 0 0 0 7.327 7.327v1.494c0 .568.528 1.029 1.18 1.029h.103c.652 0 1.18-.461 1.18-1.029V24.62a8.647 8.647 0 0 0 7.327-7.327h1.441c.598 0 1.082-.528 1.082-1.18v-.102c0-.652-.484-1.18-1.082-1.18zm-9.999 7.458a6.227 6.227 0 1 1 0-12.454 6.227 6.227 0 0 1 0 12.454z"/></svg>