<!-- Generated by IcoMoon.io -->
<svg version="1.1" xmlns="http://www.w3.org/2000/svg" width="100%" height="100%" viewBox="0 0 32 32">
<title>icon_picture</title>
<path d="M27.119 6.976h-22.739c-0.504 0-0.912 0.412-0.912 0.919v16.655c0 0.508 0.409 0.919 0.912 0.919h22.739c0.504 0 0.912-0.412 0.912-0.919v-16.655c0-0.508-0.409-0.919-0.912-0.919zM25.498 22.971h-2.043l-4.642-5.569-2.048 2.54-5.151-6.752-3.511 9.781h-2.087v-13.453h19.483v13.453z"></path>
<path d="M22.933 13.154c0 0.849-0.688 1.537-1.537 1.537s-1.537-0.688-1.537-1.537c0-0.849 0.688-1.537 1.537-1.537s1.537 0.688 1.537 1.537z"></path>
</svg>
