<svg xmlns="http://www.w3.org/2000/svg" viewBox="0 0 32 32" width="100%" height="100%"><path d="M24.837 13.769c-.269-.269-.712-.269-.981 0l-1.962 1.963c-.269.269-.269.713 0 .981.137.137.313.206.494.206.175 0 .356-.069.494-.206l1.962-1.963c.262-.269.262-.713-.006-.981zM16 14.275c.381 0 .694-.313.694-.694v-2.775c0-.381-.313-.694-.694-.694s-.694.313-.694.694v2.775c0 .381.313.694.694.694zM10.113 16.712c.269-.269.269-.713 0-.981L8.15 13.768c-.269-.269-.713-.269-.981 0s-.269.713 0 .981l1.962 1.963c.137.137.313.206.494.206.175 0 .35-.069.488-.206zM20.313 17.206c-1.212-.994-2.744-1.544-4.319-1.544s-3.106.55-4.319 1.544c-1.194.981-2.031 2.35-2.35 3.856-.081.369.156.738.531.813.369.081.738-.156.813-.531.525-2.494 2.763-4.306 5.319-4.306s4.794 1.813 5.319 4.306c.069.325.356.544.675.544.05 0 .094-.006.144-.012.369-.081.606-.444.531-.813-.313-1.506-1.144-2.875-2.344-3.856z"/></svg>