<!-- Generated by IcoMoon.io -->
<svg version="1.1" xmlns="http://www.w3.org/2000/svg" width="100%" height="100%" viewBox="0 0 32 32">
<title>icon_callback</title>
<path d="M20.279 19.677s-0.152 0.779-0.199 0.892c-0.117 0.407-0.162 0.25-0.32 0.209 0 0-3.282-1.051-5.26-3.038l-0.949-0.954s-2.59-3.056-2.769-5.313c-0.008-0.105-0.045-0.131-0.063-0.136s-0.008 0 0 0c0.072-0.008 0.138-0.029 0.197-0.060 0.208-0.089 1.059-0.441 1.059-0.441l-3.451-6.338-0.633 0.294s-4.718 0.468-3.806 3.831l0.813 2.443c5.022 8.854 15.188 15.352 15.188 15.352l2.032 0.944c3.142 0.984 4.448-3.775 4.448-3.775l0.402-1.5z"></path>
<path d="M19.031 10.031h6.5v-4.063h-6.5v-3.5l-6.063 5.5 6.063 5.5v-3.438z"></path>
</svg>
