<!-- Generated by IcoMoon.io -->
<svg version="1.1" xmlns="http://www.w3.org/2000/svg" width="100%" height="100%" viewBox="0 0 32 32">
<title>icon_delivery-adress</title>
<path d="M7.031 16h7.5v0.938h-7.5v-0.938z"></path>
<path d="M26.175 11.406h-3.956v-2.625c0-0.675-0.544-1.219-1.219-1.219h-16c-0.675 0-1.219 0.544-1.219 1.219v3.094h-1.719v0.938h1.719v7.906c0 0.675 0.544 1.219 1.219 1.219h2.287c0.325 0.781 1.144 1.844 2.65 1.844 1.456 0 2.306-1.069 2.656-1.844h10.512c0.288 0.613 1.063 1.875 2.613 1.875 1.569 0 2.369-1.075 2.663-1.875 0.106 0 0.238 0 0.4 0 0.644 0 1.094-0.475 1.094-1.156v-4.363l-3.7-5.012zM21.281 21h-9.356l-0.1 0.331c-0.019 0.063-0.481 1.512-1.887 1.512-1.45 0-1.844-1.431-1.856-1.488l-0.088-0.356h-2.994c-0.15 0-0.281-0.131-0.281-0.281v-7.906h7.281v-0.938h-7.281v-3.094c0-0.15 0.131-0.281 0.281-0.281h16c0.15 0 0.281 0.131 0.281 0.281v12.219zM28.938 20.781c0 0.219-0.081 0.219-0.156 0.219-0.563 0-0.75 0-0.75 0h-0.387l-0.075 0.381c-0.012 0.063-0.319 1.5-1.85 1.5-1.319 0-1.837-1.488-1.856-1.55l-0.106-0.325h-1.5c0-0.256 0-0.613 0-1.031 0-0.9 0-2.1 0-3.3 0-1.756 0-3.512 0-4.325h3.444l3.238 4.387v4.044z"></path>
</svg>
