<svg xmlns="http://www.w3.org/2000/svg" viewBox="0 0 32 32" width="100%" height="100%"><path d="M15.969 3.104c-7.128 0-12.906 5.778-12.906 12.906s5.778 12.906 12.906 12.906 12.906-5.778 12.906-12.906S23.097 3.104 15.969 3.104zm-5.606 21.677c-.754-.447-1.596-1.171-2.396-1.969-2.752-2.743-1.693-5.682-1.693-5.682.047.078.661.234.661.234s.198 1.083.26 1.146.229.094.5.167c.271.073.365-.052.344-.24s-.104-.833-.104-.833.427.083 1.563.333 1.396.26 1.604.823c.208.563.635 1.406 1.26 2.073s.885.729 1.073 1.24c.188.51.604 3.719.615 3.906 0 0-1.625.026-3.688-1.198zm13.67-1.968c-.8.797-1.642 1.521-2.396 1.969-2.063 1.224-3.688 1.198-3.688 1.198.01-.188.427-3.396.615-3.906s.448-.573 1.073-1.24 1.052-1.51 1.26-2.073c.208-.563.469-.573 1.604-.823s1.563-.333 1.563-.333-.083.646-.104.833c-.021.188.073.313.344.24s.438-.104.5-.167.26-1.146.26-1.146.615-.156.661-.234c0 0 1.06 2.94-1.693 5.682zm1.303-9.448c-.32.034-.451.042-.518.104s-.086.172-.086.172l-.036-.01s.232-.273-.221-.38-.94-.185-1.026-.13-.013.12.047.167c.06.047.081.154.081.154s-.685.005-1.906-.005c-1.221-.01-1.813.073-2.466-.339s-1.622-1.029-3.203-1.029-2.591.69-2.917.87c-.325.18-.596.331-2.021.376 0 0-2.365.106-2.508.072s.115-.138-.023-.258-1.104.138-1.185.203.042.208.042.208l-.036.005s-.026-.234-.315-.258c-.155-.013-.833.028-1.003-.372-.198-.469.069-.847.396-1.25.703-.867 1.367-1.828 1.547-2.125s.172-.281.094-.422c0 0 .102-.008.234-.211s2.68-3.414 7.695-3.406 7.61 3.305 7.759 3.477c0 0 .119.146.174.185 0 0-.063.193.047.354s1.221 1.675 1.706 2.333c.484.659.474.859.383 1.128s-.412.354-.732.388z"/></svg>