<svg xmlns="http://www.w3.org/2000/svg" viewBox="0 0 32 32" width="100%" height="100%"><path d="M9.925 11.758a1.283 1.283 0 0 0 1.825 0 1.29 1.29 0 0 0 0-1.825L4.192 2.366a1.29 1.29 0 1 0-1.825 1.825l7.558 7.567zM21.592 19.767a1.29 1.29 0 1 0-1.825 1.825l8.042 8.042a1.283 1.283 0 0 0 1.825 0c.45-.517.475-1.325 0-1.825l-8.042-8.042zM12.225 19.767a1.29 1.29 0 0 0-1.825 0L2.367 27.8a1.283 1.283 0 0 0 0 1.825 1.283 1.283 0 0 0 1.825 0l8.033-8.033c.508-.5.508-1.317 0-1.825zM21.6 12.225l8.033-8.033a1.283 1.283 0 0 0 0-1.825 1.283 1.283 0 0 0-1.825 0L19.775 10.4c-.5.5-.5 1.317 0 1.817.5.508 1.317.517 1.825.008z"/></svg>