<svg xmlns="http://www.w3.org/2000/svg" viewBox="0 0 32 32" width="100%" height="100%"><path d="M5.275 14.575zM21.125 13.75l4.275-2.981-.531-.775-4.056 2.819s-.45-.281-.706-.431c-1.556-.919-3.019-1.781-4.106-1.781-3.088 0-6.556 1.35-9.912 2.656-.388.15-.769.3-1.144.444-.338.131-.85.762-1 .956-.462.594-.7 1.081-.7 1.438 0 .063 0 .587.031.869.05.506.263.962.644 1.4l.106.125 2.063.381c.506.988 1.519 1.613 2.65 1.613.912 0 1.762-.413 2.325-1.119l9.587-.006c.563.706 1.419 1.125 2.331 1.125.95 0 1.831-.45 2.394-1.212.431-.038 1.387-.125 1.913-.169.275-.025.563-.225.762-.387.444-.375.712-1.137.712-2.05v-.069l-.019-.063c-.125-.431-.544-1.269-1.875-2.063l-.525.775c1.063.613 1.387 1.231 1.481 1.487-.012.631-.194 1.106-.375 1.256-.106.087-.212.156-.256.175-.694.056-2.1.188-2.113.188l-.231.019-.125.2c-.375.606-1.025.969-1.731.969-.688 0-1.325-.344-1.706-.919l-.144-.212-.994.012h-9.563l-.137.206c-.381.569-1.019.906-1.7.906-.831 0-1.575-.5-1.888-1.269l-.1-.238-2.225-.406c-.188-.244-.294-.494-.319-.75-.019-.194-.025-.625-.025-.769.013-.3.831-1.331 1.119-1.525.375-.144.75-.287 1.125-.438 3.275-1.275 6.662-2.594 9.575-2.594.831 0 2.319.881 3.631 1.656.294.175.975.569.975.569z"/></svg>