<svg xmlns="http://www.w3.org/2000/svg" viewBox="0 0 32 32" width="100%" height="100%"><path d="M11.037 11.769l.725-.725-.706-.706A7.171 7.171 0 0 1 15.244 8.6v1h1.025v-1c1.594.113 3.05.75 4.188 1.738l-.706.706.725.725 1.431-1.431a8.185 8.185 0 0 0-6.156-2.787 8.221 8.221 0 0 0-8.219 8.219 8.185 8.185 0 0 0 2.787 6.156l1.431-1.431-.725-.725-.706.706a7.152 7.152 0 0 1-1.738-4.188h1v-1.037h-1a7.155 7.155 0 0 1 1.738-4.188l.719.706z"/><path d="M15.25 16.275a1.026 1.026 0 1 0 1.025-1.025 1.19 1.19 0 0 0-.262.037l-2.969-2.969-.875-.15.15.875 2.969 2.969a.887.887 0 0 0-.037.262zM8.569 8.569V5.663l-.725.725-1.456-1.45-1.45 1.45 1.45 1.456-.725.725zM27.063 20.9l-1.544-.512-.725-1.081a1.019 1.019 0 0 0-.856-.456h-6.087c-.344 0-.663.169-.856.456l-.725 1.081-1.544.512v.512h.606a.975.975 0 0 0-.094.425v4.712c0 .281.231.512.512.512h1.025a.514.514 0 0 0 .512-.512v-1.025h7.194v1.025c0 .281.231.512.512.512h1.025a.514.514 0 0 0 .512-.512v-4.712c0-.15-.038-.294-.094-.425h.606V20.9zm-9.4-.8a.51.51 0 0 1 .425-.231h5.613a.51.51 0 0 1 .425.231l.875 1.313h-8.213l.875-1.313zm.668 3.237a.131.131 0 0 1-.131.131h-1.8a.131.131 0 0 1-.131-.131v-.769c0-.069.056-.131.131-.131h1.8c.069 0 .131.056.131.131v.769zm7.188 0a.131.131 0 0 1-.131.131h-1.8a.131.131 0 0 1-.131-.131v-.769c0-.069.056-.131.131-.131h1.8c.069 0 .131.056.131.131v.769z"/></svg>