<!-- Generated by IcoMoon.io -->
<svg version="1.1" xmlns="http://www.w3.org/2000/svg" width="32" height="32" viewBox="0 0 32 32">
<title>icon_all-day_next</title>
<path d="M16 10.319c-3.137 0-5.681 2.544-5.681 5.681s2.544 5.681 5.681 5.681c3.137 0 5.681-2.544 5.681-5.681s-2.544-5.681-5.681-5.681zM16.006 20.544v-9.088c2.5 0.006 4.538 2.044 4.538 4.544 0 2.506-2.031 4.544-4.538 4.544z"></path>
<path d="M27.931 15.431h-3.406c-0.313 0-0.569 0.256-0.569 0.569s0.256 0.569 0.569 0.569h3.406c0.313 0 0.569-0.256 0.569-0.569s-0.256-0.569-0.569-0.569z"></path>
<path d="M22.025 10.544c0.144 0 0.294-0.056 0.4-0.169l2.413-2.412c0.225-0.219 0.225-0.581 0-0.806-0.219-0.219-0.581-0.219-0.806 0l-2.406 2.419c-0.225 0.225-0.225 0.581 0 0.806 0.113 0.106 0.256 0.162 0.4 0.162z"></path>
<path d="M16 8.044c0.313 0 0.569-0.256 0.569-0.569v-3.406c0-0.313-0.256-0.569-0.569-0.569s-0.569 0.256-0.569 0.569v3.406c0 0.319 0.256 0.569 0.569 0.569z"></path>
<path d="M9.575 10.375c0.113 0.113 0.256 0.169 0.4 0.169s0.294-0.056 0.4-0.169c0.225-0.225 0.225-0.581 0-0.806l-2.412-2.412c-0.219-0.219-0.581-0.219-0.806 0-0.219 0.225-0.219 0.581 0 0.806l2.419 2.412z"></path>
<path d="M8.044 16c0-0.313-0.256-0.569-0.569-0.569h-3.406c-0.313 0-0.569 0.256-0.569 0.569s0.256 0.569 0.569 0.569h3.406c0.319 0 0.569-0.256 0.569-0.569z"></path>
<path d="M9.575 21.625l-2.412 2.413c-0.219 0.225-0.219 0.581 0 0.806 0.112 0.113 0.256 0.169 0.4 0.169s0.294-0.056 0.4-0.169l2.412-2.413c0.225-0.225 0.225-0.581 0-0.806-0.219-0.225-0.581-0.225-0.8 0z"></path>
<path d="M16 23.956c-0.313 0-0.569 0.256-0.569 0.569v3.406c0 0.313 0.256 0.569 0.569 0.569s0.569-0.256 0.569-0.569v-3.406c0-0.319-0.256-0.569-0.569-0.569z"></path>
<path d="M22.425 21.625c-0.225-0.225-0.581-0.225-0.806 0s-0.225 0.581 0 0.806l2.413 2.413c0.113 0.113 0.256 0.169 0.4 0.169s0.294-0.056 0.4-0.169c0.225-0.219 0.225-0.581 0-0.806l-2.406-2.413z"></path>
</svg>
