<svg xmlns="http://www.w3.org/2000/svg" viewBox="0 0 32 32" width="100%" height="100%"><title>icon_cubic-capacity</title><path d="M26.499 15.225v-.888h1.531v-.794h-1.531v-.887h1.531v-.831h-1.531v-.887h1.531v-.883c0-1.04-.844-1.884-1.884-1.884h-4.357c-1.04 0-1.884.844-1.884 1.884v.895h1.543v.887h-1.543v.831h1.543v.887h-1.543v.794h1.543v.887h-1.543v.943c0 .94.689 1.717 1.59 1.859v-.446c0-.521.422-.942.942-.942h.157l-4.329 6.006a3.383 3.383 0 0 0-3.205-.176l-4.604-8h.106c.521 0 .942.422.942.942v.446c.9-.142 1.59-.919 1.59-1.859v-.955h-1.533v-.887h1.531v-.794h-1.531v-.887h1.531v-.831h-1.531v-.887h1.531v-.883c0-1.04-.844-1.884-1.884-1.884H6.851c-1.04 0-1.884.844-1.884 1.884v.895H6.51v.887H4.967v.831H6.51v.887H4.967v.794H6.51v.887H4.967v.943c0 .94.689 1.717 1.59 1.859v-.446c0-.457.326-.838.758-.924l6.162 9.496a3.404 3.404 0 1 0 6.132.19l6.102-7.509c.418.097.729.47.729.917v.446c.9-.142 1.59-.919 1.59-1.859v-.955h-1.533zM16.498 27.438a1.874 1.874 0 1 1 0-3.748 1.874 1.874 0 0 1 0 3.748z"/></svg>