<!-- Generated by IcoMoon.io -->
<svg version="1.1" xmlns="http://www.w3.org/2000/svg" width="100%" height="100%" viewBox="0 0 32 32">
<title>icon_evening_next</title>
<path d="M15.869 26.194c-2.756 0-5.344-1.075-7.294-3.019v0c-1.35-1.35-2.3-3.044-2.737-4.894-0.112-0.462 0.094-0.931 0.513-1.163s0.931-0.163 1.269 0.181l0.013 0.012c1.319 1.319 3.075 2.031 4.944 2s3.6-0.794 4.881-2.156c2.5-2.662 2.469-6.8-0.069-9.425-0.031-0.031-0.063-0.069-0.1-0.1-0.337-0.338-0.413-0.844-0.181-1.263s0.7-0.625 1.169-0.513c1.831 0.438 3.512 1.369 4.863 2.7 1.969 1.95 3.063 4.544 3.069 7.3s-1.063 5.356-3.019 7.319c-1.95 1.956-4.537 3.031-7.3 3.031-0.012-0.012-0.012-0.012-0.019-0.012zM6.987 18.244c0.412 1.556 1.237 2.981 2.381 4.125v0c1.738 1.738 4.044 2.694 6.5 2.694 0 0 0.006 0 0.006 0 2.456 0 4.769-0.962 6.5-2.7 1.744-1.75 2.7-4.063 2.694-6.519s-0.981-4.769-2.738-6.506c-1.144-1.131-2.55-1.938-4.094-2.35 2.9 3.063 2.919 7.838 0.025 10.919-1.494 1.587-3.506 2.481-5.681 2.512-2.1 0.038-4.075-0.731-5.594-2.175z"></path>
</svg>
