<!-- Generated by IcoMoon.io -->
<svg version="1.1" xmlns="http://www.w3.org/2000/svg" width="100%" height="100%" viewBox="0 0 32 32">
<title>icon_idea</title>
<path d="M4.458 13.82h2.099v2.115h-2.099v-2.115z"></path>
<path d="M25.501 13.837h2.041v2.084h-2.041v-2.084z"></path>
<path d="M17.794 26.335h-3.585c-0.331 0-0.597 0.271-0.597 0.604 0 0.332 0.267 0.603 0.597 0.603 0 0.664 0.536 1.204 1.195 1.204h1.195c0.66 0 1.195-0.54 1.195-1.204 0.331 0 0.597-0.271 0.597-0.603 0.001-0.333-0.265-0.604-0.596-0.604z"></path>
<path d="M14.959 3.254h2.125v3.167h-2.125v-3.167z"></path>
<path d="M8.038 6.199l-1.752 1.843 2.849 2.481 1.752-1.844z"></path>
<path d="M17.794 24.528h-3.585c-0.331 0-0.597 0.269-0.597 0.601 0 0.337 0.267 0.604 0.597 0.604h3.585c0.331 0 0.597-0.268 0.597-0.604 0-0.332-0.267-0.601-0.597-0.601z"></path>
<path d="M23.886 5.888l-2.461 2.873 1.829 1.764 2.461-2.871z"></path>
<path d="M16.001 9.472c-3.3 0-5.976 2.696-5.976 6.020 0 2.225 1.209 4.145 2.988 5.188v2.039c0 0.667 0.536 1.205 1.195 1.205h3.585c0.66 0 1.195-0.539 1.195-1.205v-2.039c1.78-1.041 2.988-2.963 2.988-5.188 0.001-3.324-2.673-6.020-5.975-6.020z"></path>
</svg>
