<!-- Generated by IcoMoon.io -->
<svg version="1.1" xmlns="http://www.w3.org/2000/svg" width="32" height="32" viewBox="0 0 32 32">
<title>icon_cw-value</title>
<path d="M30.408 22.219c0-0.013 0-0.026 0-0.039-0.011-0.009-0.022-0.019-0.034-0.028-0.005-0.008-0.004-0.022-0.011-0.028-0.025-0.020-0.059-0.012-0.062-0.056-0.015-0.017-0.002-0.11 0-0.134 0.017-0.114 0.034-0.228 0.050-0.341 0.002-0.043 0.004-0.086 0.006-0.129 0.002 0 0.004 0 0.006 0 0-0.020 0-0.041 0-0.062 0.002 0 0.004 0 0.006 0 0-0.026 0-0.052 0-0.078 0.012-0.044 0.006-0.115 0.006-0.168-0.002-0.052-0.004-0.104-0.006-0.157 0.009-0.031 0.014-0.075 0.022-0.106 0-0.019 0-0.037 0-0.056 0.002 0 0.004 0 0.006 0 0.006-0.022 0-0.13-0.006-0.145-0.015-0.030-0.030-0.060-0.045-0.090-0.004-0.002-0.007-0.004-0.011-0.006 0-0.004 0-0.007 0-0.011-0.004-0.002-0.007-0.004-0.011-0.006 0-0.004 0-0.007 0-0.011-0.009-0.007-0.019-0.015-0.028-0.022 0-0.004 0-0.007 0-0.011-0.011-0.009-0.022-0.019-0.034-0.028 0-0.004 0-0.007 0-0.011-0.028-0.026-0.056-0.052-0.084-0.078-0.020-0.022-0.041-0.045-0.062-0.067-0.004 0-0.007 0-0.011 0-0.007-0.009-0.015-0.019-0.022-0.028-0.004 0-0.007 0-0.011 0-0.006-0.007-0.011-0.015-0.017-0.022-0.004 0-0.007 0-0.011 0-0.006-0.007-0.011-0.015-0.017-0.022-0.004 0-0.007 0-0.011 0-0.006-0.007-0.011-0.015-0.017-0.022-0.006-0.002-0.011-0.004-0.017-0.006-0.002-0.004-0.004-0.007-0.006-0.011-0.004 0-0.007 0-0.011 0-0.004-0.006-0.007-0.011-0.011-0.017-0.004 0-0.007 0-0.011 0-0.004-0.006-0.007-0.011-0.011-0.017-0.006-0.002-0.011-0.004-0.017-0.006-0.002-0.004-0.004-0.007-0.006-0.011-0.004 0-0.007 0-0.011 0-0.002-0.004-0.004-0.007-0.006-0.011-0.004 0-0.007 0-0.011 0-0.002-0.004-0.004-0.007-0.006-0.011-0.006-0.002-0.011-0.004-0.017-0.006-0.004-0.006-0.007-0.011-0.011-0.017-0.004 0-0.007 0-0.011 0-0.002-0.004-0.004-0.007-0.006-0.011-0.004 0-0.007 0-0.011 0-0.004-0.006-0.007-0.011-0.011-0.017-0.004 0-0.007 0-0.011 0-0.002-0.004-0.004-0.007-0.006-0.011-0.004 0-0.007 0-0.011 0 0-0.002 0-0.004 0-0.006-0.006-0.002-0.011-0.004-0.017-0.006-0.002-0.004-0.004-0.007-0.006-0.011-0.004 0-0.007 0-0.011 0-0.004-0.006-0.007-0.011-0.011-0.017-0.004 0-0.007 0-0.011 0-0.002-0.004-0.004-0.007-0.006-0.011-0.006-0.002-0.011-0.004-0.017-0.006 0-0.002 0-0.004 0-0.006-0.004 0-0.007 0-0.011 0-0.002-0.004-0.004-0.007-0.006-0.011-0.004 0-0.007 0-0.011 0-0.002-0.004-0.004-0.007-0.006-0.011-0.004 0-0.007 0-0.011 0-0.002-0.004-0.004-0.007-0.006-0.011-0.004 0-0.007 0-0.011 0-0.002-0.004-0.004-0.007-0.006-0.011-0.004 0-0.007 0-0.011 0-0.002-0.004-0.004-0.007-0.006-0.011-0.004 0-0.007 0-0.011 0-0.002-0.004-0.004-0.007-0.006-0.011-0.004 0-0.007 0-0.011 0-0.002-0.004-0.004-0.007-0.006-0.011-0.004 0-0.007 0-0.011 0-0.002-0.004-0.004-0.007-0.006-0.011-0.004 0-0.007 0-0.011 0-0.002-0.004-0.004-0.007-0.006-0.011-0.004 0-0.007 0-0.011 0 0-0.002 0-0.004 0-0.006-0.007-0.002-0.015-0.004-0.022-0.006 0-0.002 0-0.004 0-0.006-0.007 0-0.015 0-0.022 0-0.006-0.009-0.011-0.019-0.017-0.028-0.007-0.002-0.015-0.004-0.022-0.006l-0.011-0.011c-0.004 0-0.007 0-0.011 0 0-0.002 0-0.004 0-0.006-0.004 0-0.007 0-0.011 0 0-0.002 0-0.004 0-0.006-0.004 0-0.007 0-0.011 0 0-0.002 0-0.004 0-0.006-0.004 0-0.007 0-0.011 0 0-0.002 0-0.004 0-0.006-0.004 0-0.007 0-0.011 0 0-0.002 0-0.004 0-0.006-0.004 0-0.007 0-0.011 0 0-0.002 0-0.004 0-0.006-0.004 0-0.007 0-0.011 0 0-0.002 0-0.004 0-0.006-0.006 0-0.011 0-0.017 0 0-0.002 0-0.004 0-0.006-0.011-0.004-0.022-0.007-0.034-0.011 0-0.002 0-0.004 0-0.006-0.004 0-0.007 0-0.011 0 0-0.002 0-0.004 0-0.006-0.004 0-0.007 0-0.011 0 0-0.002 0-0.004 0-0.006-0.004 0-0.007 0-0.011 0 0-0.002 0-0.004 0-0.006-0.004 0-0.007 0-0.011 0 0-0.002 0-0.004 0-0.006-0.004 0-0.007 0-0.011 0 0-0.002 0-0.004 0-0.006-0.004 0-0.007 0-0.011 0 0-0.002 0-0.004 0-0.006-0.004 0-0.007 0-0.011 0 0-0.002 0-0.004 0-0.006-0.004 0-0.007 0-0.011 0 0-0.002 0-0.004 0-0.006-0.006 0-0.011 0-0.017 0 0-0.002 0-0.004 0-0.006-0.011-0.004-0.022-0.007-0.034-0.011 0-0.002 0-0.004 0-0.006-0.004 0-0.007 0-0.011 0 0-0.002 0-0.004 0-0.006-0.004 0-0.007 0-0.011 0 0-0.002 0-0.004 0-0.006-0.004 0-0.007 0-0.011 0 0-0.002 0-0.004 0-0.006-0.004 0-0.007 0-0.011 0 0-0.002 0-0.004 0-0.006-0.004 0-0.007 0-0.011 0 0-0.002 0-0.004 0-0.006-0.004 0-0.007 0-0.011 0 0-0.002 0-0.004 0-0.006-0.004 0-0.007 0-0.011 0 0-0.002 0-0.004 0-0.006-0.006 0-0.011 0-0.017 0 0-0.002 0-0.004 0-0.006-0.007-0.002-0.015-0.004-0.022-0.006 0-0.002 0-0.004 0-0.006-0.004 0-0.007 0-0.011 0 0-0.002 0-0.004 0-0.006-0.004 0-0.007 0-0.011 0 0-0.002 0-0.004 0-0.006-0.004 0-0.007 0-0.011 0 0-0.002 0-0.004 0-0.006-0.011-0.004-0.022-0.007-0.034-0.011 0-0.002 0-0.004 0-0.006-0.006 0-0.011 0-0.017 0 0-0.002 0-0.004 0-0.006-0.007-0.002-0.015-0.004-0.022-0.006 0-0.002 0-0.004 0-0.006-0.004 0-0.007 0-0.011 0 0-0.002 0-0.004 0-0.006-0.004 0-0.007 0-0.011 0 0-0.002 0-0.004 0-0.006-0.011-0.004-0.022-0.007-0.034-0.011 0-0.002 0-0.004 0-0.006-0.006 0-0.011 0-0.017 0 0-0.002 0-0.004 0-0.006-0.004 0-0.007 0-0.011 0 0-0.002 0-0.004 0-0.006-0.004 0-0.007 0-0.011 0 0-0.002 0-0.004 0-0.006-0.011-0.004-0.022-0.007-0.034-0.011 0-0.002 0-0.004 0-0.006-0.006 0-0.011 0-0.017 0 0-0.002 0-0.004 0-0.006-0.004 0-0.007 0-0.011 0 0-0.002 0-0.004 0-0.006-0.004 0-0.007 0-0.011 0 0-0.002 0-0.004 0-0.006-0.011-0.004-0.022-0.007-0.034-0.011 0-0.002 0-0.004 0-0.006-0.006 0-0.011 0-0.017 0 0-0.002 0-0.004 0-0.006-0.004 0-0.007 0-0.011 0 0-0.002 0-0.004 0-0.006-0.011-0.004-0.022-0.007-0.034-0.011 0-0.002 0-0.004 0-0.006-0.006 0-0.011 0-0.017 0 0-0.002 0-0.004 0-0.006-0.004 0-0.007 0-0.011 0 0-0.002 0-0.004 0-0.006-0.004 0-0.007 0-0.011 0 0-0.002 0-0.004 0-0.006-0.011-0.004-0.022-0.007-0.034-0.011 0-0.002 0-0.004 0-0.006-0.006 0-0.011 0-0.017 0 0-0.002 0-0.004 0-0.006-0.007-0.002-0.015-0.004-0.022-0.006 0-0.002 0-0.004 0-0.006-0.006 0-0.011 0-0.017 0 0-0.002 0-0.004 0-0.006-0.004 0-0.007 0-0.011 0 0-0.002 0-0.004 0-0.006-0.007-0.002-0.015-0.004-0.022-0.006 0-0.002 0-0.004 0-0.006-0.006 0-0.011 0-0.017 0 0-0.002 0-0.004 0-0.006-0.007-0.002-0.015-0.004-0.022-0.006 0-0.002 0-0.004 0-0.006-0.006 0-0.011 0-0.017 0 0-0.002 0-0.004 0-0.006-0.007-0.002-0.015-0.004-0.022-0.006 0-0.002 0-0.004 0-0.006-0.006 0-0.011 0-0.017 0 0-0.002 0-0.004 0-0.006-0.007-0.002-0.015-0.004-0.022-0.006 0-0.002 0-0.004 0-0.006-0.006 0-0.011 0-0.017 0 0-0.002 0-0.004 0-0.006-0.004 0-0.007 0-0.011 0 0-0.002 0-0.004 0-0.006-0.006 0-0.011 0-0.017 0 0-0.002 0-0.004 0-0.006-0.004 0-0.007 0-0.011 0 0-0.002 0-0.004 0-0.006-0.009-0.002-0.019-0.004-0.028-0.006 0-0.002 0-0.004 0-0.006-0.006 0-0.011 0-0.017 0 0-0.002 0-0.004 0-0.006-0.004 0-0.007 0-0.011 0 0-0.002 0-0.004 0-0.006-0.006 0-0.011 0-0.017 0 0-0.002 0-0.004 0-0.006-0.004 0-0.007 0-0.011 0 0-0.002 0-0.004 0-0.006-0.006 0-0.011 0-0.017 0 0-0.002 0-0.004 0-0.006-0.004 0-0.007 0-0.011 0 0-0.002 0-0.004 0-0.006-0.017-0.004-0.034-0.007-0.050-0.011-0.023-0.010-0.049-0.038-0.067-0.056-0.004-0.006-0.007-0.011-0.011-0.017-0.004 0-0.007 0-0.011 0-0.015-0.017-0.030-0.034-0.045-0.050-0.004 0-0.007 0-0.011 0-0.009-0.011-0.019-0.022-0.028-0.034-0.004 0-0.007 0-0.011 0-0.006-0.007-0.011-0.015-0.017-0.022-0.004 0-0.007 0-0.011 0-0.006-0.007-0.011-0.015-0.017-0.022-0.004 0-0.007 0-0.011 0-0.006-0.007-0.011-0.015-0.017-0.022-0.004 0-0.007 0-0.011 0-0.004-0.006-0.007-0.011-0.011-0.017-0.004 0-0.007 0-0.011 0-0.004-0.006-0.007-0.011-0.011-0.017-0.004 0-0.007 0-0.011 0-0.002-0.004-0.004-0.007-0.006-0.011-0.004 0-0.007 0-0.011 0-0.004-0.006-0.007-0.011-0.011-0.017-0.004 0-0.007 0-0.011 0-0.002-0.004-0.004-0.007-0.006-0.011-0.006-0.002-0.011-0.004-0.017-0.006 0-0.002 0-0.004 0-0.006-0.004 0-0.007 0-0.011 0-0.002-0.004-0.004-0.007-0.006-0.011-0.004 0-0.007 0-0.011 0-0.002-0.004-0.004-0.007-0.006-0.011-0.004 0-0.007 0-0.011 0-0.002-0.004-0.004-0.007-0.006-0.011-0.004 0-0.007 0-0.011 0-0.002-0.004-0.004-0.007-0.006-0.011-0.004 0-0.007 0-0.011 0 0-0.002 0-0.004 0-0.006-0.004 0-0.007 0-0.011 0-0.002-0.004-0.004-0.007-0.006-0.011-0.007-0.002-0.015-0.004-0.022-0.006-0.002-0.004-0.004-0.007-0.006-0.011-0.007-0.002-0.015-0.004-0.022-0.006-0.002-0.004-0.004-0.007-0.006-0.011-0.011-0.004-0.022-0.007-0.034-0.011-0.002-0.004-0.004-0.007-0.006-0.011-0.004 0-0.007 0-0.011 0 0-0.002 0-0.004 0-0.006-0.004 0-0.007 0-0.011 0l-0.011-0.011c-0.004 0-0.007 0-0.011 0-0.114-0.072-0.245-0.128-0.375-0.185-0.017-0.004-0.034-0.007-0.050-0.011 0-0.002 0-0.004 0-0.006-0.006 0-0.011 0-0.017 0 0-0.002 0-0.004 0-0.006-0.006 0-0.011 0-0.017 0 0-0.002 0-0.004 0-0.006-0.006 0-0.011 0-0.017 0 0-0.002 0-0.004 0-0.006-0.006 0-0.011 0-0.017 0 0-0.002 0-0.004 0-0.006-0.013-0.002-0.026-0.004-0.039-0.006 0-0.002 0-0.004 0-0.006-0.015-0.002-0.030-0.004-0.045-0.006 0-0.002 0-0.004 0-0.006-0.009 0-0.019 0-0.028 0 0-0.002 0-0.004 0-0.006-0.007 0-0.015 0-0.022 0 0-0.002 0-0.004 0-0.006-0.007 0-0.015 0-0.022 0 0-0.002 0-0.004 0-0.006-0.009 0-0.019 0-0.028 0 0-0.002 0-0.004 0-0.006-0.017-0.002-0.034-0.004-0.050-0.006 0-0.002 0-0.004 0-0.006-0.009 0-0.019 0-0.028 0 0-0.002 0-0.004 0-0.006-0.009 0-0.019 0-0.028 0 0-0.002 0-0.004 0-0.006-0.009 0-0.019 0-0.028 0 0-0.002 0-0.004 0-0.006-0.009 0-0.019 0-0.028 0 0-0.002 0-0.004 0-0.006-0.020-0.002-0.041-0.004-0.062-0.006 0-0.002 0-0.004 0-0.006-0.009 0-0.019 0-0.028 0 0-0.002 0-0.004 0-0.006-0.011 0-0.022 0-0.034 0 0-0.002 0-0.004 0-0.006-0.006 0-0.015 0.011-0.028 0.006-0.002-0.004-0.004-0.007-0.006-0.011-0.006 0-0.011 0-0.017 0 0-0.002 0-0.004 0-0.006-0.009 0-0.019 0-0.028 0-0.045-0.014-0.106-0.020-0.151-0.034-0.011 0-0.022 0-0.034 0-0.052-0.016-0.121-0.018-0.173-0.034-0.028-0.002-0.056-0.004-0.084-0.006-0.065-0.019-0.152-0.015-0.218-0.034-0.035-0.002-0.071-0.004-0.106-0.006 0-0.002 0-0.004 0-0.006-0.019 0-0.037 0-0.056 0 0-0.002 0-0.004 0-0.006-0.019 0-0.037 0-0.056 0 0-0.002 0-0.004 0-0.006-0.020 0-0.041 0-0.062 0 0-0.002 0-0.004 0-0.006-0.020 0-0.041 0-0.062 0 0-0.002 0-0.004 0-0.006-0.020 0-0.041 0-0.062 0 0-0.002 0-0.004 0-0.006-0.020 0-0.041 0-0.062 0 0-0.002 0-0.004 0-0.006-0.022 0-0.045 0-0.067 0 0-0.002 0-0.004 0-0.006-0.022 0-0.045 0-0.067 0 0-0.002 0-0.004 0-0.006-0.047-0.002-0.093-0.004-0.14-0.006 0-0.002 0-0.004 0-0.006-0.024 0-0.049 0-0.073 0 0-0.002 0-0.004 0-0.006-0.002 0-0.004 0-0.006 0-0.020 0-0.041 0-0.062 0 0-0.002 0-0.004 0-0.006-0.026 0-0.052 0-0.078 0 0-0.002 0-0.004 0-0.006-0.026 0-0.052 0-0.078 0 0-0.002 0-0.004 0-0.006-0.026 0-0.052 0-0.078 0 0-0.002 0-0.004 0-0.006-0.026 0-0.052 0-0.078 0 0-0.002 0-0.004 0-0.006-0.056-0.002-0.112-0.004-0.168-0.006 0-0.002 0-0.004 0-0.006-0.015 0-0.030 0-0.045 0-0.089-0.026-0.202-0.024-0.291-0.050-0.037-0.004-0.075-0.007-0.112-0.011-0.075-0.022-0.171-0.022-0.246-0.045-0.024-0.002-0.049-0.004-0.073-0.006-0.052-0.015-0.121-0.018-0.173-0.034-0.022-0.002-0.045-0.004-0.067-0.006-0.173-0.035-0.347-0.071-0.52-0.106-0.018-0.005-0.046 0.003-0.056 0.006-0.030 0-0.060 0-0.090 0 0 0.002 0 0.004 0 0.006-0.043 0.002-0.086 0.004-0.129 0.006 0 0.002 0 0.004 0 0.006-0.022 0-0.045 0-0.067 0 0 0-0.001 0.005-0.011 0.006-0.020 0-0.041 0-0.062 0-0.020 0.006-0.101 0.014-0.129 0.006 0-0.002 0-0.004 0-0.006-0.017 0-0.034 0-0.050 0-0.002-0.004-0.004-0.007-0.006-0.011-0.007-0.002-0.015-0.004-0.022-0.006 0-0.002 0-0.004 0-0.006-0.011-0.004-0.022-0.007-0.034-0.011 0-0.002 0-0.004 0-0.006-0.006 0-0.011 0-0.017 0 0-0.002 0-0.004 0-0.006-0.007-0.002-0.015-0.004-0.022-0.006 0-0.002 0-0.004 0-0.006-0.009-0.002-0.019-0.004-0.028-0.006 0-0.002 0-0.004 0-0.006-0.020-0.004-0.041-0.007-0.062-0.011-0.004-0.006-0.007-0.011-0.011-0.017-0.007-0.002-0.015-0.004-0.022-0.006 0-0.002 0-0.004 0-0.006-0.011-0.004-0.022-0.007-0.034-0.011 0-0.002 0-0.004 0-0.006-0.009 0-0.019 0-0.028 0-0.009-0.003-0.041-0.017-0.056-0.011-0.002 0.004-0.004 0.007-0.006 0.011-0.013 0-0.026 0-0.039 0-0.002 0.004-0.004 0.007-0.006 0.011-0.009 0.002-0.019 0.004-0.028 0.006 0-0.002 0-0.004 0-0.006-0.007-0.002-0.015-0.004-0.022-0.006-0.002-0.004-0.004-0.007-0.006-0.011-0.004 0-0.007 0-0.011 0 0-0.002 0-0.004 0-0.006-0.004 0-0.007 0-0.011 0 0-0.002 0-0.004 0-0.006-0.004 0-0.007 0-0.011 0-0.002-0.004-0.004-0.007-0.006-0.011-0.004 0-0.007 0-0.011 0l-0.011-0.011c-0.007-0.002-0.015-0.004-0.022-0.006-0.002-0.004-0.004-0.007-0.006-0.011-0.004 0-0.007 0-0.011 0l-0.011-0.011c-0.004 0-0.007 0-0.011 0-0.002-0.004-0.004-0.007-0.006-0.011-0.004 0-0.007 0-0.011 0 0-0.002 0-0.004 0-0.006-0.004 0-0.007 0-0.011 0l-0.011-0.011c-0.004 0-0.007 0-0.011 0-0.002-0.004-0.004-0.007-0.006-0.011-0.004 0-0.007 0-0.011 0 0-0.002 0-0.004 0-0.006-0.004 0-0.007 0-0.011 0 0-0.002 0-0.004 0-0.006-0.004 0-0.007 0-0.011 0l-0.011-0.011c-0.004 0-0.007 0-0.011 0-0.002-0.004-0.004-0.007-0.006-0.011-0.004 0-0.007 0-0.011 0 0-0.002 0-0.004 0-0.006-0.004 0-0.007 0-0.011 0l-0.011-0.011c-0.004 0-0.007 0-0.011 0-0.002-0.004-0.004-0.007-0.006-0.011-0.004 0-0.007 0-0.011 0 0-0.002 0-0.004 0-0.006-0.004 0-0.007 0-0.011 0l-0.011-0.011c-0.004 0-0.007 0-0.011 0-0.002-0.004-0.004-0.007-0.006-0.011-0.004 0-0.007 0-0.011 0 0-0.002 0-0.004 0-0.006-0.004 0-0.007 0-0.011 0l-0.011-0.011c-0.004 0-0.007 0-0.011 0-0.002-0.004-0.004-0.007-0.006-0.011-0.004 0-0.007 0-0.011 0 0-0.002 0-0.004 0-0.006-0.004 0-0.007 0-0.011 0 0-0.002 0-0.004 0-0.006-0.004 0-0.007 0-0.011 0l-0.011-0.011c-0.004 0-0.007 0-0.011 0-0.002-0.004-0.004-0.007-0.006-0.011-0.007-0.002-0.015-0.004-0.022-0.006 0-0.002 0-0.004 0-0.006-0.004 0-0.007 0-0.011 0l-0.011-0.011c-0.004 0-0.007 0-0.011 0-0.002-0.004-0.004-0.007-0.006-0.011-0.004 0-0.007 0-0.011 0 0-0.002 0-0.004 0-0.006-0.004 0-0.007 0-0.011 0 0-0.002 0-0.004 0-0.006-0.004 0-0.007 0-0.011 0l-0.011-0.011c-0.004 0-0.007 0-0.011 0-0.002-0.004-0.004-0.007-0.006-0.011-0.004 0-0.007 0-0.011 0 0-0.002 0-0.004 0-0.006-0.004 0-0.007 0-0.011 0 0-0.002 0-0.004 0-0.006-0.004 0-0.007 0-0.011 0l-0.011-0.011c-0.004 0-0.007 0-0.011 0-0.002-0.004-0.004-0.007-0.006-0.011-0.004 0-0.007 0-0.011 0 0-0.002 0-0.004 0-0.006-0.004 0-0.007 0-0.011 0 0-0.002 0-0.004 0-0.006-0.004 0-0.007 0-0.011 0l-0.011-0.011c-0.004 0-0.007 0-0.011 0-0.002-0.004-0.004-0.007-0.006-0.011-0.004 0-0.007 0-0.011 0l-0.011-0.011c-0.004 0-0.007 0-0.011 0 0-0.002 0-0.004 0-0.006-0.004 0-0.007 0-0.011 0 0-0.002 0-0.004 0-0.006-0.004 0-0.007 0-0.011 0 0-0.002 0-0.004 0-0.006-0.007-0.002-0.015-0.004-0.022-0.006-0.002-0.004-0.004-0.007-0.006-0.011-0.004 0-0.007 0-0.011 0l-0.011-0.011c-0.004 0-0.007 0-0.011 0 0-0.002 0-0.004 0-0.006-0.004 0-0.007 0-0.011 0 0-0.002 0-0.004 0-0.006-0.007-0.002-0.015-0.004-0.022-0.006-0.002-0.004-0.004-0.007-0.006-0.011-0.004 0-0.007 0-0.011 0l-0.011-0.011c-0.004 0-0.007 0-0.011 0 0-0.002 0-0.004 0-0.006-0.004 0-0.007 0-0.011 0 0-0.002 0-0.004 0-0.006-0.004 0-0.007 0-0.011 0 0-0.002 0-0.004 0-0.006-0.007-0.002-0.015-0.004-0.022-0.006-0.002-0.004-0.004-0.007-0.006-0.011-0.004 0-0.007 0-0.011 0l-0.011-0.011c-0.004 0-0.007 0-0.011 0 0-0.002 0-0.004 0-0.006-0.004 0-0.007 0-0.011 0 0-0.002 0-0.004 0-0.006-0.007-0.002-0.015-0.004-0.022-0.006-0.002-0.004-0.004-0.007-0.006-0.011-0.030-0.013-0.060-0.026-0.090-0.039-0.002-0.004-0.004-0.007-0.006-0.011-0.004 0-0.007 0-0.011 0l-0.011-0.011c-0.004 0-0.007 0-0.011 0 0-0.002 0-0.004 0-0.006-0.004 0-0.007 0-0.011 0 0-0.002 0-0.004 0-0.006-0.004 0-0.007 0-0.011 0 0-0.002 0-0.004 0-0.006-0.004 0-0.007 0-0.011 0-0.028-0.017-0.056-0.034-0.084-0.050-0.004 0-0.007 0-0.011 0 0-0.002 0-0.004 0-0.006-0.004 0-0.007 0-0.011 0 0-0.002 0-0.004 0-0.006-0.004 0-0.007 0-0.011 0 0-0.002 0-0.004 0-0.006-0.004 0-0.007 0-0.011 0l-0.011-0.011c-0.004 0-0.007 0-0.011 0-0.002-0.004-0.004-0.007-0.006-0.011-0.004 0-0.007 0-0.011 0l-0.011-0.011c-0.004 0-0.007 0-0.011 0 0-0.002 0-0.004 0-0.006-0.004 0-0.007 0-0.011 0 0-0.002 0-0.004 0-0.006-0.004 0-0.007 0-0.011 0 0-0.002 0-0.004 0-0.006-0.004 0-0.007 0-0.011 0 0-0.002 0-0.004 0-0.006-0.004 0-0.007 0-0.011 0 0-0.002 0-0.004 0-0.006-0.004 0-0.007 0-0.011 0 0-0.002 0-0.004 0-0.006-0.004 0-0.007 0-0.011 0 0-0.002 0-0.004 0-0.006-0.004 0-0.007 0-0.011 0 0-0.002 0-0.004 0-0.006-0.004 0-0.007 0-0.011 0 0-0.002 0-0.004 0-0.006-0.004 0-0.007 0-0.011 0l-0.011-0.011c-0.004 0-0.007 0-0.011 0-0.002-0.004-0.004-0.007-0.006-0.011-0.011-0.004-0.022-0.007-0.034-0.011 0-0.002 0-0.004 0-0.006-0.007-0.002-0.015-0.004-0.022-0.006 0-0.002 0-0.004 0-0.006-0.004 0-0.007 0-0.011 0 0-0.002 0-0.004 0-0.006-0.004 0-0.007 0-0.011 0 0-0.002 0-0.004 0-0.006-0.004 0-0.007 0-0.011 0 0-0.002 0-0.004 0-0.006-0.004 0-0.007 0-0.011 0 0-0.002 0-0.004 0-0.006-0.007-0.002-0.015-0.004-0.022-0.006 0-0.002 0-0.004 0-0.006-0.004 0-0.007 0-0.011 0 0-0.002 0-0.004 0-0.006-0.004 0-0.007 0-0.011 0 0-0.002 0-0.004 0-0.006-0.004 0-0.007 0-0.011 0 0-0.002 0-0.004 0-0.006-0.004 0-0.007 0-0.011 0 0-0.002 0-0.004 0-0.006-0.004 0-0.007 0-0.011 0 0-0.002 0-0.004 0-0.006-0.007-0.002-0.015-0.004-0.022-0.006-0.002-0.004-0.004-0.007-0.006-0.011-0.004 0-0.007 0-0.011 0l-0.011-0.011c-0.004 0-0.007 0-0.011 0 0-0.002 0-0.004 0-0.006-0.004 0-0.007 0-0.011 0 0-0.002 0-0.004 0-0.006-0.011-0.004-0.022-0.007-0.034-0.011 0-0.002 0-0.004 0-0.006-0.007-0.002-0.015-0.004-0.022-0.006 0-0.002 0-0.004 0-0.006-0.007-0.002-0.015-0.004-0.022-0.006 0-0.002 0-0.004 0-0.006-0.004 0-0.007 0-0.011 0 0-0.002 0-0.004 0-0.006-0.004 0-0.007 0-0.011 0 0-0.002 0-0.004 0-0.006-0.004 0-0.007 0-0.011 0 0-0.002 0-0.004 0-0.006-0.004 0-0.007 0-0.011 0 0-0.002 0-0.004 0-0.006-0.004 0-0.007 0-0.011 0 0-0.002 0-0.004 0-0.006-0.004 0-0.007 0-0.011 0 0-0.002 0-0.004 0-0.006-0.004 0-0.007 0-0.011 0 0-0.002 0-0.004 0-0.006-0.004 0-0.007 0-0.011 0 0-0.002 0-0.004 0-0.006-0.004 0-0.007 0-0.011 0 0-0.002 0-0.004 0-0.006-0.007-0.002-0.015-0.004-0.022-0.006 0-0.002 0-0.004 0-0.006-0.007-0.002-0.015-0.004-0.022-0.006 0-0.002 0-0.004 0-0.006-0.007-0.002-0.015-0.004-0.022-0.006 0-0.002 0-0.004 0-0.006-0.004 0-0.007 0-0.011 0 0-0.002 0-0.004 0-0.006-0.004 0-0.007 0-0.011 0 0-0.002 0-0.004 0-0.006-0.004 0-0.007 0-0.011 0 0-0.002 0-0.004 0-0.006-0.004 0-0.007 0-0.011 0 0-0.002 0-0.004 0-0.006-0.011-0.004-0.022-0.007-0.034-0.011 0-0.002 0-0.004 0-0.006-0.007-0.002-0.015-0.004-0.022-0.006 0-0.002 0-0.004 0-0.006-0.006 0-0.011 0-0.017 0 0-0.002 0-0.004 0-0.006-0.011-0.004-0.022-0.007-0.034-0.011 0-0.002 0-0.004 0-0.006-0.004 0-0.007 0-0.011 0 0-0.002 0-0.004 0-0.006-0.004 0-0.007 0-0.011 0 0-0.002 0-0.004 0-0.006-0.004 0-0.007 0-0.011 0 0-0.002 0-0.004 0-0.006-0.030-0.013-0.060-0.026-0.090-0.039 0-0.002 0-0.004 0-0.006-0.007-0.002-0.015-0.004-0.022-0.006 0-0.002 0-0.004 0-0.006-0.006 0-0.011 0-0.017 0 0-0.002 0-0.004 0-0.006-0.011-0.004-0.022-0.007-0.034-0.011 0-0.002 0-0.004 0-0.006-0.004 0-0.007 0-0.011 0 0-0.002 0-0.004 0-0.006-0.004 0-0.007 0-0.011 0 0-0.002 0-0.004 0-0.006-0.004 0-0.007 0-0.011 0 0-0.002 0-0.004 0-0.006-0.004 0-0.007 0-0.011 0 0-0.002 0-0.004 0-0.006-0.004 0-0.007 0-0.011 0 0-0.002 0-0.004 0-0.006-0.004 0-0.007 0-0.011 0 0-0.002 0-0.004 0-0.006-0.004 0-0.007 0-0.011 0 0-0.002 0-0.004 0-0.006-0.004 0-0.007 0-0.011 0 0-0.002 0-0.004 0-0.006-0.006 0-0.011 0-0.017 0 0-0.002 0-0.004 0-0.006-0.007-0.002-0.015-0.004-0.022-0.006 0-0.002 0-0.004 0-0.006-0.004 0-0.007 0-0.011 0 0-0.002 0-0.004 0-0.006-0.004 0-0.007 0-0.011 0 0-0.002 0-0.004 0-0.006-0.011-0.004-0.022-0.007-0.034-0.011 0-0.002 0-0.004 0-0.006-0.006 0-0.011 0-0.017 0 0-0.002 0-0.004 0-0.006-0.007-0.002-0.015-0.004-0.022-0.006 0-0.002 0-0.004 0-0.006-0.004 0-0.007 0-0.011 0 0-0.002 0-0.004 0-0.006-0.004 0-0.007 0-0.011 0 0-0.002 0-0.004 0-0.006-0.004 0-0.007 0-0.011 0 0-0.002 0-0.004 0-0.006-0.011-0.004-0.022-0.007-0.034-0.011 0-0.002 0-0.004 0-0.006-0.006 0-0.011 0-0.017 0 0-0.002 0-0.004 0-0.006-0.004 0-0.007 0-0.011 0 0-0.002 0-0.004 0-0.006-0.004 0-0.007 0-0.011 0 0-0.002 0-0.004 0-0.006-0.004 0-0.007 0-0.011 0 0-0.002 0-0.004 0-0.006-0.011-0.004-0.022-0.007-0.034-0.011 0-0.002 0-0.004 0-0.006-0.006 0-0.011 0-0.017 0 0-0.002 0-0.004 0-0.006-0.004 0-0.007 0-0.011 0 0-0.002 0-0.004 0-0.006-0.004 0-0.007 0-0.011 0 0-0.002 0-0.004 0-0.006-0.004 0-0.007 0-0.011 0 0-0.002 0-0.004 0-0.006-0.011-0.004-0.022-0.007-0.034-0.011 0-0.002 0-0.004 0-0.006-0.006 0-0.011 0-0.017 0 0-0.002 0-0.004 0-0.006-0.004 0-0.007 0-0.011 0 0-0.002 0-0.004 0-0.006-0.011-0.004-0.022-0.007-0.034-0.011 0-0.002 0-0.004 0-0.006-0.006 0-0.011 0-0.017 0 0-0.002 0-0.004 0-0.006-0.004 0-0.007 0-0.011 0 0-0.002 0-0.004 0-0.006-0.004 0-0.007 0-0.011 0 0-0.002 0-0.004 0-0.006-0.011-0.004-0.022-0.007-0.034-0.011 0-0.002 0-0.004 0-0.006-0.006 0-0.011 0-0.017 0 0-0.002 0-0.004 0-0.006-0.004 0-0.007 0-0.011 0 0-0.002 0-0.004 0-0.006-0.011-0.004-0.022-0.007-0.034-0.011 0-0.002 0-0.004 0-0.006-0.006 0-0.011 0-0.017 0 0-0.002 0-0.004 0-0.006-0.007-0.002-0.015-0.004-0.022-0.006 0-0.002 0-0.004 0-0.006-0.007-0.002-0.015-0.004-0.022-0.006 0-0.002 0-0.004 0-0.006-0.004 0-0.007 0-0.011 0 0-0.002 0-0.004 0-0.006-0.006 0-0.011 0-0.017 0 0-0.002 0-0.004 0-0.006-0.004 0-0.007 0-0.011 0 0-0.002 0-0.004 0-0.006-0.007-0.002-0.015-0.004-0.022-0.006 0-0.002 0-0.004 0-0.006-0.006 0-0.011 0-0.017 0 0-0.002 0-0.004 0-0.006-0.004 0-0.007 0-0.011 0 0-0.002 0-0.004 0-0.006-0.011-0.004-0.022-0.007-0.034-0.011 0-0.002 0-0.004 0-0.006-0.006 0-0.011 0-0.017 0 0-0.002 0-0.004 0-0.006-0.004 0-0.007 0-0.011 0 0-0.002 0-0.004 0-0.006-0.011-0.004-0.022-0.007-0.034-0.011 0-0.002 0-0.004 0-0.006-0.006 0-0.011 0-0.017 0 0-0.002 0-0.004 0-0.006-0.004 0-0.007 0-0.011 0 0-0.002 0-0.004 0-0.006-0.007-0.002-0.015-0.004-0.022-0.006 0-0.002 0-0.004 0-0.006-0.006 0-0.011 0-0.017 0 0-0.002 0-0.004 0-0.006-0.004 0-0.007 0-0.011 0 0-0.002 0-0.004 0-0.006-0.007-0.002-0.015-0.004-0.022-0.006 0-0.002 0-0.004 0-0.006-0.006 0-0.011 0-0.017 0 0-0.002 0-0.004 0-0.006-0.004 0-0.007 0-0.011 0 0-0.002 0-0.004 0-0.006-0.004 0-0.007 0-0.011 0 0-0.002 0-0.004 0-0.006-0.004 0-0.007 0-0.011 0 0-0.002 0-0.004 0-0.006-0.009-0.002-0.019-0.004-0.028-0.006 0-0.002 0-0.004 0-0.006-0.007-0.002-0.015-0.004-0.022-0.006 0-0.002 0-0.004 0-0.006-0.006 0-0.011 0-0.017 0 0-0.002 0-0.004 0-0.006-0.004 0-0.007 0-0.011 0 0-0.002 0-0.004 0-0.006-0.007-0.002-0.015-0.004-0.022-0.006 0-0.002 0-0.004 0-0.006-0.006 0-0.011 0-0.017 0 0-0.002 0-0.004 0-0.006-0.004 0-0.007 0-0.011 0 0-0.002 0-0.004 0-0.006-0.007-0.002-0.015-0.004-0.022-0.006 0-0.002 0-0.004 0-0.006-0.006 0-0.011 0-0.017 0 0-0.002 0-0.004 0-0.006-0.007-0.002-0.015-0.004-0.022-0.006 0-0.002 0-0.004 0-0.006-0.006 0-0.011 0-0.017 0 0-0.002 0-0.004 0-0.006-0.004 0-0.007 0-0.011 0 0-0.002 0-0.004 0-0.006-0.007-0.002-0.015-0.004-0.022-0.006 0-0.002 0-0.004 0-0.006-0.006 0-0.011 0-0.017 0 0-0.002 0-0.004 0-0.006-0.007-0.002-0.015-0.004-0.022-0.006 0-0.002 0-0.004 0-0.006-0.006 0-0.011 0-0.017 0 0-0.002 0-0.004 0-0.006-0.007-0.002-0.015-0.004-0.022-0.006 0-0.002 0-0.004 0-0.006-0.006 0-0.011 0-0.017 0 0-0.002 0-0.004 0-0.006-0.007-0.002-0.015-0.004-0.022-0.006 0-0.002 0-0.004 0-0.006-0.006 0-0.011 0-0.017 0 0-0.002 0-0.004 0-0.006-0.004 0-0.007 0-0.011 0 0-0.002 0-0.004 0-0.006-0.007-0.002-0.015-0.004-0.022-0.006 0-0.002 0-0.004 0-0.006-0.006 0-0.011 0-0.017 0 0-0.002 0-0.004 0-0.006-0.007-0.002-0.015-0.004-0.022-0.006 0-0.002 0-0.004 0-0.006-0.006 0-0.011 0-0.017 0 0-0.002 0-0.004 0-0.006-0.007-0.002-0.015-0.004-0.022-0.006 0-0.002 0-0.004 0-0.006-0.006 0-0.011 0-0.017 0 0-0.002 0-0.004 0-0.006-0.007-0.002-0.015-0.004-0.022-0.006 0-0.002 0-0.004 0-0.006-0.006 0-0.011 0-0.017 0 0-0.002 0-0.004 0-0.006-0.007-0.002-0.015-0.004-0.022-0.006 0-0.002 0-0.004 0-0.006-0.006 0-0.011 0-0.017 0 0-0.002 0-0.004 0-0.006-0.004 0-0.007 0-0.011 0 0-0.002 0-0.004 0-0.006-0.006 0-0.011 0-0.017 0 0-0.002 0-0.004 0-0.006-0.007-0.002-0.015-0.004-0.022-0.006 0-0.002 0-0.004 0-0.006-0.006 0-0.011 0-0.017 0 0-0.002 0-0.004 0-0.006-0.007-0.002-0.015-0.004-0.022-0.006 0-0.002 0-0.004 0-0.006-0.019-0.006-0.037-0.011-0.056-0.017-0.006-0.009-0.011-0.019-0.017-0.028-0.006 0-0.011 0-0.017 0 0-0.002 0-0.004 0-0.006-0.006 0-0.011 0-0.017 0 0-0.002 0-0.004 0-0.006-0.006 0-0.011 0-0.017 0 0-0.002 0-0.004 0-0.006-0.006 0-0.011 0-0.017 0 0-0.002 0-0.004 0-0.006-0.006 0-0.011 0-0.017 0 0-0.002 0-0.004 0-0.006-0.035-0.007-0.071-0.015-0.106-0.022-0.104-0.037-0.228-0.055-0.336-0.089-0.009 0-0.019 0-0.028 0 0-0.002 0-0.004 0-0.006-0.009 0-0.019 0-0.028 0 0-0.002 0-0.004 0-0.006-0.009 0-0.019 0-0.028 0 0-0.002 0-0.004 0-0.006-0.009 0-0.019 0-0.028 0 0-0.002 0-0.004 0-0.006-0.009 0-0.019 0-0.028 0-0.054-0.017-0.125-0.023-0.179-0.039-0.024-0.002-0.049-0.004-0.073-0.006-0.040-0.012-0.099-0.016-0.14-0.028-0.015 0-0.030 0-0.045 0 0-0.002 0-0.004 0-0.006-0.028-0.002-0.056-0.004-0.084-0.006 0-0.002 0-0.004 0-0.006-0.017 0-0.034 0-0.050 0 0-0.002 0-0.004 0-0.006-0.017 0-0.034 0-0.050 0 0-0.002 0-0.004 0-0.006-0.017 0-0.034 0-0.050 0 0-0.002 0-0.004 0-0.006-0.020 0-0.041 0-0.062 0 0-0.002 0-0.004 0-0.006-0.020 0-0.041 0-0.062 0 0-0.002 0-0.004 0-0.006-0.022 0-0.045 0-0.067 0 0-0.002 0-0.004 0-0.006-0.022 0-0.045 0-0.067 0 0-0.002 0-0.004 0-0.006-0.035-0.002-0.071-0.004-0.106-0.006-0.019 0-0.037 0-0.056 0 0-0.002 0-0.004 0-0.006-0.106-0.004-0.213-0.007-0.319-0.011-0.050-0.014-0.13-0.006-0.19-0.006-0.019 0-0.037 0-0.056 0-0.060-0.017-0.169-0.006-0.241-0.006-0.040 0-0.092-0.003-0.123 0.006-0.086 0-0.172 0-0.257 0-0.013 0-0.026 0-0.039 0 0 0.002 0 0.004 0 0.006-0.056 0-0.112 0-0.168 0 0 0.002 0 0.004 0 0.006-0.035 0.010-0.094-0.004-0.129 0.006s-0.087-0.003-0.117 0.006c-0.021 0-0.041 0-0.062 0-0.043 0.002-0.086 0.004-0.129 0.006 0 0.002 0 0.004 0 0.006-0.026 0-0.052 0-0.078 0 0 0.002 0 0.004 0 0.006-0.024 0-0.049 0-0.073 0 0 0.002 0 0.004 0 0.006-0.026 0-0.052 0-0.078 0 0 0.002 0 0.004 0 0.006-0.022 0-0.045 0-0.067 0 0 0.002 0 0.004 0 0.006-0.022 0-0.045 0-0.067 0 0 0.002 0 0.004 0 0.006-0.021 0-0.041 0-0.062 0 0 0.002 0 0.004 0 0.006-0.021 0-0.041 0-0.062 0-0.080 0.023-0.188 0.011-0.269 0.034-0.017 0-0.034 0-0.050 0-0.055 0.016-0.13 0.012-0.185 0.028-0.017 0-0.034 0-0.050 0 0 0.002 0 0.004 0 0.006-0.013 0-0.026 0-0.039 0 0 0.002 0 0.004 0 0.006-0.015 0-0.030 0-0.045 0 0 0.002 0 0.004 0 0.006-0.015 0-0.030 0-0.045 0 0 0.002 0 0.004 0 0.006-0.013 0-0.026 0-0.039 0 0 0.002 0 0.004 0 0.006-0.015 0-0.030 0-0.045 0 0 0.002 0 0.004 0 0.006-0.015 0-0.030 0-0.045 0 0 0.002 0 0.004 0 0.006-0.015 0-0.030 0-0.045 0 0 0.002 0 0.004 0 0.006-0.013 0-0.026 0-0.039 0 0 0.002 0 0.004 0 0.006-0.026 0.002-0.052 0.004-0.078 0.006-0.067 0.020-0.152 0.019-0.218 0.039-0.011 0-0.022 0-0.034 0 0 0.002 0 0.004 0 0.006-0.011 0-0.022 0-0.034 0 0 0.002 0 0.004 0 0.006-0.011 0-0.022 0-0.034 0 0 0.002 0 0.004 0 0.006-0.013 0-0.026 0-0.039 0-0.060 0.018-0.136 0.021-0.196 0.039-0.022 0.002-0.045 0.004-0.067 0.006-0.039 0.012-0.090 0.016-0.129 0.028-0.011 0-0.022 0-0.034 0-0.036 0.011-0.086 0.017-0.123 0.028-0.011 0-0.022 0-0.034 0-0.025 0.008-0.064 0.015-0.089 0.022-0.011 0-0.022 0-0.034 0-0.098 0.030-0.216 0.037-0.313 0.067-0.021 0.002-0.041 0.004-0.062 0.006 0 0.002 0 0.004 0 0.006-0.007 0-0.015 0-0.022 0 0 0.002 0 0.004 0 0.006-0.009 0-0.019 0-0.028 0 0 0.002 0 0.004 0 0.006-0.009 0-0.019 0-0.028 0 0 0.002 0 0.004 0 0.006-0.009 0-0.019 0-0.028 0 0 0.002 0 0.004 0 0.006-0.017 0.002-0.034 0.004-0.050 0.006 0 0.002 0 0.004 0 0.006-0.019 0.002-0.037 0.004-0.056 0.006 0 0.002 0 0.004 0 0.006-0.019 0.004-0.037 0.007-0.056 0.011-0.002 0.004-0.004 0.007-0.006 0.011-0.004 0-0.007 0-0.011 0-0.007 0.009-0.015 0.019-0.022 0.028-0.004 0-0.007 0-0.011 0 0 0.002 0 0.004 0 0.006-0.017 0.002-0.034 0.004-0.050 0.006-0.026 0.009-0.063 0.020-0.089 0.028-0.009 0-0.019 0-0.028 0-0.13 0.042-0.28 0.062-0.408 0.106-0.037 0.007-0.075 0.015-0.112 0.022-0.1 0.036-0.22 0.054-0.319 0.090-0.007 0-0.015 0-0.022 0 0 0.002 0 0.004 0 0.006-0.007 0-0.015 0-0.022 0 0 0.002 0 0.004 0 0.006-0.007 0-0.015 0-0.022 0 0 0.002 0 0.004 0 0.006-0.007 0-0.015 0-0.022 0-0.088 0.032-0.192 0.052-0.28 0.084-0.007 0-0.015 0-0.022 0 0 0.002 0 0.004 0 0.006-0.006 0-0.011 0-0.017 0 0 0.002 0 0.004 0 0.006-0.007 0-0.015 0-0.022 0 0 0.002 0 0.004 0 0.006-0.007 0-0.015 0-0.022 0-0.061 0.022-0.135 0.040-0.196 0.062-0.007 0-0.015 0-0.022 0 0 0.002 0 0.004 0 0.006-0.006 0-0.011 0-0.017 0 0 0.002 0 0.004 0 0.006-0.007 0-0.015 0-0.022 0 0 0.002 0 0.004 0 0.006-0.006 0-0.011 0-0.017 0 0 0.002 0 0.004 0 0.006-0.013 0.002-0.026 0.004-0.039 0.006 0 0.002 0 0.004 0 0.006-0.013 0.002-0.026 0.004-0.039 0.006 0 0.002 0 0.004 0 0.006-0.019 0.004-0.037 0.007-0.056 0.011 0 0.002 0 0.004 0 0.006-0.007 0-0.015 0-0.022 0 0 0.002 0 0.004 0 0.006-0.006 0-0.011 0-0.017 0 0 0.002 0 0.004 0 0.006-0.006 0-0.011 0-0.017 0 0 0.002 0 0.004 0 0.006-0.024 0.006-0.049 0.011-0.073 0.017 0 0.002 0 0.004 0 0.006-0.007 0-0.015 0-0.022 0 0 0.002 0 0.004 0 0.006-0.006 0-0.011 0-0.017 0 0 0.002 0 0.004 0 0.006-0.006 0-0.011 0-0.017 0 0 0.002 0 0.004 0 0.006-0.006 0-0.011 0-0.017 0 0 0.002 0 0.004 0 0.006-0.006 0-0.011 0-0.017 0 0 0.002 0 0.004 0 0.006-0.007 0-0.015 0-0.022 0 0 0.002 0 0.004 0 0.006-0.006 0-0.011 0-0.017 0 0 0.002 0 0.004 0 0.006-0.006 0-0.011 0-0.017 0 0 0.002 0 0.004 0 0.006-0.006 0-0.011 0-0.017 0 0 0.002 0 0.004 0 0.006-0.006 0-0.011 0-0.017 0 0 0.002 0 0.004 0 0.006-0.007 0-0.015 0-0.022 0 0 0.002 0 0.004 0 0.006-0.006 0-0.011 0-0.017 0 0 0.002 0 0.004 0 0.006-0.006 0-0.011 0-0.017 0 0 0.002 0 0.004 0 0.006-0.007 0-0.015 0-0.022 0 0 0.002 0 0.004 0 0.006-0.006 0-0.011 0-0.017 0 0 0.002 0 0.004 0 0.006-0.006 0-0.011 0-0.017 0 0 0.002 0 0.004 0 0.006-0.006 0-0.011 0-0.017 0 0 0.002 0 0.004 0 0.006-0.006 0-0.011 0-0.017 0 0 0.002 0 0.004 0 0.006-0.006 0-0.011 0-0.017 0 0 0.002 0 0.004 0 0.006-0.007 0-0.015 0-0.022 0-0.222 0.081-0.466 0.137-0.683 0.224-0.006 0-0.011 0-0.017 0 0 0.002 0 0.004 0 0.006-0.006 0-0.011 0-0.017 0 0 0.002 0 0.004 0 0.006-0.006 0-0.011 0-0.017 0 0 0.002 0 0.004 0 0.006-0.006 0-0.011 0-0.017 0 0 0.002 0 0.004 0 0.006-0.017 0.004-0.034 0.007-0.050 0.011 0 0.002 0 0.004 0 0.006-0.004 0-0.007 0-0.011 0 0 0.002 0 0.004 0 0.006-0.006 0-0.011 0-0.017 0 0 0.002 0 0.004 0 0.006-0.017 0.004-0.034 0.007-0.050 0.011 0 0.002 0 0.004 0 0.006-0.017 0.004-0.034 0.007-0.050 0.011 0 0.002 0 0.004 0 0.006-0.004 0-0.007 0-0.011 0 0 0.002 0 0.004 0 0.006-0.006 0-0.011 0-0.017 0 0 0.002 0 0.004 0 0.006-0.006 0-0.011 0-0.017 0 0 0.002 0 0.004 0 0.006-0.006 0-0.011 0-0.017 0 0 0.002 0 0.004 0 0.006-0.006 0-0.011 0-0.017 0-0.024 0.010-0.054 0.024-0.078 0.034-0.017 0.004-0.034 0.007-0.050 0.011 0 0.002 0 0.004 0 0.006-0.011 0.002-0.022 0.004-0.034 0.006-0.139 0.061-0.298 0.102-0.436 0.162-0.006 0-0.011 0-0.017 0 0 0.002 0 0.004 0 0.006-0.006 0-0.011 0-0.017 0 0 0.002 0 0.004 0 0.006-0.006 0-0.011 0-0.017 0 0 0.002 0 0.004 0 0.006-0.006 0-0.011 0-0.017 0 0 0.002 0 0.004 0 0.006-0.004 0-0.007 0-0.011 0 0 0.002 0 0.004 0 0.006-0.011 0.002-0.022 0.004-0.034 0.006-0.024 0.010-0.054 0.024-0.078 0.034-0.006 0-0.011 0-0.017 0 0 0.002 0 0.004 0 0.006-0.006 0-0.011 0-0.017 0 0 0.002 0 0.004 0 0.006-0.006 0-0.011 0-0.017 0 0 0.002 0 0.004 0 0.006-0.006 0-0.011 0-0.017 0 0 0.002 0 0.004 0 0.006-0.004 0-0.007 0-0.011 0 0 0.002 0 0.004 0 0.006-0.006 0-0.011 0-0.017 0 0 0.002 0 0.004 0 0.006-0.006 0-0.011 0-0.017 0 0 0.002 0 0.004 0 0.006-0.006 0-0.011 0-0.017 0 0 0.002 0 0.004 0 0.006-0.006 0-0.011 0-0.017 0 0 0.002 0 0.004 0 0.006-0.006 0-0.011 0-0.017 0 0 0.002 0 0.004 0 0.006-0.006 0-0.011 0-0.017 0 0 0.002 0 0.004 0 0.006-0.005 0.001-0.041-0.010-0.045-0.011-0.015 0-0.030 0-0.045 0 0-0.002 0-0.004 0-0.006-0.019 0-0.037 0-0.056 0 0-0.002 0-0.004 0-0.006-0.009 0-0.019 0-0.028 0 0 0.002 0 0.004 0 0.006-0.009 0-0.019 0-0.028 0 0 0.002 0 0.004 0 0.006-0.017 0.004-0.034 0.007-0.050 0.011 0 0.002 0 0.004 0 0.006-0.006 0-0.011 0-0.017 0 0 0.002 0 0.004 0 0.006-0.006 0-0.011 0-0.017 0 0 0.002 0 0.004 0 0.006-0.006 0-0.011 0-0.017 0 0 0.002 0 0.004 0 0.006-0.006 0-0.011 0-0.017 0 0 0.002 0 0.004 0 0.006-0.006 0-0.011 0-0.017 0 0 0.002 0 0.004 0 0.006-0.011 0.002-0.022 0.004-0.034 0.006 0 0.002 0 0.004 0 0.006-0.011 0.002-0.022 0.004-0.034 0.006 0 0.002 0 0.004 0 0.006-0.007 0-0.015 0-0.022 0 0 0.002 0 0.004 0 0.006-0.011 0.002-0.022 0.004-0.034 0.006 0 0.002 0 0.004 0 0.006-0.006 0-0.011 0-0.017 0 0 0.002 0 0.004 0 0.006-0.006 0-0.011 0-0.017 0 0 0.002 0 0.004 0 0.006-0.006 0-0.011 0-0.017 0 0 0.002 0 0.004 0 0.006-0.006 0-0.011 0-0.017 0 0 0.002 0 0.004 0 0.006-0.006 0-0.011 0-0.017 0 0 0.002 0 0.004 0 0.006-0.006 0-0.011 0-0.017 0 0 0.002 0 0.004 0 0.006-0.017 0.004-0.034 0.007-0.050 0.011 0 0.002 0 0.004 0 0.006-0.006 0-0.011 0-0.017 0 0 0.002 0 0.004 0 0.006-0.021 0.002-0.041 0.004-0.062 0.006 0 0.002 0 0.004 0 0.006-0.006 0-0.011 0-0.017 0 0 0.002 0 0.004 0 0.006-0.004 0-0.007 0-0.011 0 0 0.002 0 0.004 0 0.006-0.011 0.002-0.022 0.004-0.034 0.006 0 0.002 0 0.004 0 0.006-0.004 0-0.007 0-0.011 0 0 0.002 0 0.004 0 0.006-0.011 0.002-0.022 0.004-0.034 0.006 0 0.002 0 0.004 0 0.006-0.004 0-0.007 0-0.011 0 0 0.002 0 0.004 0 0.006-0.006 0-0.011 0-0.017 0 0 0.002 0 0.004 0 0.006-0.004 0-0.007 0-0.011 0 0 0.002 0 0.004 0 0.006-0.006 0-0.011 0-0.017 0 0 0.002 0 0.004 0 0.006-0.029 0.012-0.068 0.015-0.084 0.039-0.011 0.011-0.011 0.028-0.011 0.050-0.1-0.003-0.171 0.028-0.241 0.056-0.017 0.004-0.034 0.007-0.050 0.011 0 0.002 0 0.004 0 0.006-0.004 0-0.007 0-0.011 0 0 0.002 0 0.004 0 0.006-0.011 0.002-0.022 0.004-0.034 0.006 0 0.002 0 0.004 0 0.006-0.011 0.002-0.022 0.004-0.034 0.006 0 0.002 0 0.004 0 0.006-0.004 0-0.007 0-0.011 0 0 0.002 0 0.004 0 0.006-0.017 0.004-0.034 0.007-0.050 0.011 0 0.002 0 0.004 0 0.006-0.004 0-0.007 0-0.011 0 0 0.002 0 0.004 0 0.006-0.017 0.004-0.034 0.007-0.050 0.011 0 0.002 0 0.004 0 0.006-0.004 0-0.007 0-0.011 0 0 0.002 0 0.004 0 0.006-0.011 0.002-0.022 0.004-0.034 0.006 0 0.002 0 0.004 0 0.006-0.004 0-0.007 0-0.011 0 0 0.002 0 0.004 0 0.006-0.006 0-0.011 0-0.017 0 0 0.002 0 0.004 0 0.006-0.004 0-0.007 0-0.011 0 0 0.002 0 0.004 0 0.006-0.006 0-0.011 0-0.017 0 0 0.002 0 0.004 0 0.006-0.006 0-0.011 0-0.017 0 0 0.002 0 0.004 0 0.006-0.004 0-0.007 0-0.011 0 0 0.002 0 0.004 0 0.006-0.006 0-0.011 0-0.017 0 0 0.002 0 0.004 0 0.006-0.004 0-0.007 0-0.011 0 0 0.002 0 0.004 0 0.006-0.006 0-0.011 0-0.017 0 0 0.002 0 0.004 0 0.006-0.004 0-0.007 0-0.011 0 0 0.002 0 0.004 0 0.006-0.006 0-0.011 0-0.017 0 0 0.002 0 0.004 0 0.006-0.004 0-0.007 0-0.011 0 0 0.002 0 0.004 0 0.006-0.006 0-0.011 0-0.017 0 0 0.002 0 0.004 0 0.006-0.007 0.002-0.015 0.004-0.022 0.006 0 0.002 0 0.004 0 0.006-0.006 0-0.011 0-0.017 0 0 0.002 0 0.004 0 0.006-0.004 0-0.007 0-0.011 0 0 0.002 0 0.004 0 0.006-0.006 0-0.011 0-0.017 0 0 0.002 0 0.004 0 0.006-0.009 0.002-0.019 0.004-0.028 0.006 0 0.002 0 0.004 0 0.006-0.004 0-0.007 0-0.011 0 0 0.002 0 0.004 0 0.006-0.006 0-0.011 0-0.017 0 0 0.002 0 0.004 0 0.006-0.007 0.002-0.015 0.004-0.022 0.006 0 0.002 0 0.004 0 0.006-0.006 0-0.011 0-0.017 0 0 0.002 0 0.004 0 0.006-0.004 0-0.007 0-0.011 0 0 0.002 0 0.004 0 0.006-0.006 0-0.011 0-0.017 0 0 0.002 0 0.004 0 0.006-0.007 0.002-0.015 0.004-0.022 0.006 0 0.002 0 0.004 0 0.006-0.006 0-0.011 0-0.017 0 0 0.002 0 0.004 0 0.006-0.007 0.002-0.015 0.004-0.022 0.006 0 0.002 0 0.004 0 0.006-0.006 0-0.011 0-0.017 0 0 0.002 0 0.004 0 0.006-0.004 0-0.007 0-0.011 0 0 0.002 0 0.004 0 0.006-0.007 0.002-0.015 0.004-0.022 0.006 0 0.002 0 0.004 0 0.006-0.006 0-0.011 0-0.017 0 0 0.002 0 0.004 0 0.006-0.011 0.004-0.022 0.007-0.034 0.011 0 0.002 0 0.004 0 0.006-0.004 0-0.007 0-0.011 0 0 0.002 0 0.004 0 0.006-0.007 0.002-0.015 0.004-0.022 0.006-0.002 0.004-0.004 0.007-0.006 0.011-0.004 0-0.007 0-0.011 0-0.006 0.007-0.011 0.015-0.017 0.022-0.004 0-0.007 0-0.011 0-0.007 0.009-0.015 0.019-0.022 0.028-0.015 0-0.030 0-0.045 0-0.027 0-0.054 0.003-0.073 0.011 0 0.002 0 0.004 0 0.006-0.007 0.002-0.015 0.004-0.022 0.006-0.002 0.004-0.004 0.007-0.006 0.011-0.004 0-0.007 0-0.011 0l-0.011 0.011c-0.004 0-0.007 0-0.011 0 0 0.002 0 0.004 0 0.006-0.004 0-0.007 0-0.011 0 0 0.002 0 0.004 0 0.006-0.004 0-0.007 0-0.011 0 0 0.002 0 0.004 0 0.006-0.004 0-0.007 0-0.011 0 0 0.002 0 0.004 0 0.006-0.004 0-0.007 0-0.011 0 0 0.002 0 0.004 0 0.006-0.011 0.004-0.022 0.007-0.034 0.011 0 0.002 0 0.004 0 0.006-0.009 0.002-0.019 0.004-0.028 0.006 0 0.002 0 0.004 0 0.006-0.007 0.002-0.015 0.004-0.022 0.006 0 0.002 0 0.004 0 0.006-0.007 0.002-0.015 0.004-0.022 0.006 0 0.002 0 0.004 0 0.006-0.007 0.002-0.015 0.004-0.022 0.006 0 0.002 0 0.004 0 0.006-0.004 0-0.007 0-0.011 0 0 0.002 0 0.004 0 0.006-0.004 0-0.007 0-0.011 0 0 0.002 0 0.004 0 0.006-0.004 0-0.007 0-0.011 0 0 0.002 0 0.004 0 0.006-0.004 0-0.007 0-0.011 0 0 0.002 0 0.004 0 0.006-0.004 0-0.007 0-0.011 0 0 0.002 0 0.004 0 0.006-0.004 0-0.007 0-0.011 0 0 0.002 0 0.004 0 0.006-0.004 0-0.007 0-0.011 0 0 0.002 0 0.004 0 0.006-0.004 0-0.007 0-0.011 0 0 0.002 0 0.004 0 0.006-0.004 0-0.007 0-0.011 0 0 0.002 0 0.004 0 0.006-0.011 0.004-0.022 0.007-0.034 0.011 0 0.002 0 0.004 0 0.006-0.006 0-0.011 0-0.017 0 0 0.002 0 0.004 0 0.006-0.007 0.002-0.015 0.004-0.022 0.006 0 0.002 0 0.004 0 0.006-0.006 0-0.011 0-0.017 0 0 0.002 0 0.004 0 0.006-0.004 0-0.007 0-0.011 0 0 0.002 0 0.004 0 0.006-0.011 0.002-0.022 0.004-0.034 0.006-0.103 0.045-0.227 0.073-0.336 0.112-0.050 0.011-0.101 0.022-0.151 0.034-0.004 0.006-0.007 0.011-0.011 0.017-0.011 0.009-0.022 0.019-0.034 0.028 0 0.004 0 0.007 0 0.011-0.007 0.006-0.015 0.011-0.022 0.017-0.009 0.013-0.011 0.024-0.022 0.034 0.001 0.015 0.011 0.050 0.011 0.050-0.002 0-0.004 0-0.006 0-0.034 0.035-0.067 0.071-0.101 0.106-0.004 0-0.007 0-0.011 0-0.022 0.024-0.045 0.049-0.067 0.073-0.011 0.002-0.022 0.004-0.034 0.006-0.004 0.006-0.007 0.011-0.011 0.017-0.021 0.015-0.034 0.005-0.039 0.039-0.006 0-0.011 0-0.017 0-0.008 0.014-0.018 0.016-0.022 0.034-0.004 0-0.007 0-0.011 0-0.006 0.026-0.014 0.009-0.006 0.039-0.009 0.007-0.019 0.015-0.028 0.022-0.022 0.024-0.045 0.049-0.067 0.073-0.004 0-0.007 0-0.011 0-0.004 0.006-0.007 0.011-0.011 0.017-0.004 0-0.007 0-0.011 0 0 0.002 0 0.004 0 0.006-0.004 0.002-0.007 0.004-0.011 0.006 0 0.006 0 0.011 0 0.017-0.004 0.002-0.007 0.004-0.011 0.006 0 0.002 0 0.004 0 0.006-0.004 0-0.007 0-0.011 0-0.002 0.004-0.004 0.007-0.006 0.011-0.006 0.002-0.011 0.004-0.017 0.006-0.002 0.007-0.004 0.015-0.006 0.022-0.006 0.004-0.011 0.007-0.017 0.011 0 0.006 0 0.011 0 0.017-0.004 0.002-0.007 0.004-0.011 0.006 0 0.004 0 0.007 0 0.011-0.006 0.004-0.011 0.007-0.017 0.011-0.006 0.007-0.011 0.015-0.017 0.022-0.004 0.002-0.007 0.004-0.011 0.006 0 0.004 0 0.007 0 0.011-0.011 0.009-0.022 0.019-0.034 0.028 0 0.004 0 0.007 0 0.011-0.009 0.007-0.019 0.015-0.028 0.022 0 0.004 0 0.007 0 0.011-0.004 0.002-0.007 0.004-0.011 0.006-0.002 0.006-0.004 0.011-0.006 0.017-0.007 0.006-0.015 0.011-0.022 0.017 0 0.004 0 0.007 0 0.011-0.006 0.004-0.011 0.007-0.017 0.011 0 0.004 0 0.007 0 0.011-0.002 0-0.004 0-0.006 0-0.002 0.006-0.004 0.011-0.006 0.017-0.004 0.002-0.007 0.004-0.011 0.006 0 0.004 0 0.007 0 0.011-0.006 0.004-0.011 0.007-0.017 0.011-0.002 0.007-0.004 0.015-0.006 0.022-0.002 0-0.004 0-0.006 0-0.002 0.006-0.004 0.011-0.006 0.017-0.004 0.002-0.007 0.004-0.011 0.006-0.002 0.007-0.004 0.015-0.006 0.022-0.004 0.002-0.007 0.004-0.011 0.006-0.013 0.030-0.026 0.060-0.039 0.090-0.004 0.035-0.007 0.071-0.011 0.106-0.002 0-0.004 0-0.006 0 0 0.028 0 0.056 0 0.084-0.011 0.041-0.012 0.206 0 0.246 0 0.026 0 0.052 0 0.078 0.002 0 0.004 0 0.006 0 0 0.020 0 0.041 0 0.062 0.015 0.052 0.013 0.122 0.028 0.173 0 0.013 0 0.026 0 0.039 0.021 0.125 0.041 0.25 0.062 0.375 0.002 0 0.004 0 0.006 0 0 0.007 0 0.015 0 0.022 0.002 0 0.004 0 0.006 0 0 0.009 0 0.019 0 0.028 0.002 0 0.004 0 0.006 0 0 0.007 0 0.015 0 0.022 0.002 0 0.004 0 0.006 0 0 0.006 0 0.011 0 0.017 0.017 0.040 0.042 0.079 0.056 0.123 0.010 0.031-0.013 0.086-0.022 0.101-0.004 0.002-0.007 0.004-0.011 0.006 0 0.004 0 0.007 0 0.011-0.004 0.002-0.007 0.004-0.011 0.006 0 0.004 0 0.007 0 0.011-0.004 0.002-0.007 0.004-0.011 0.006-0.002 0.006-0.004 0.011-0.006 0.017-0.006 0.004-0.011 0.007-0.017 0.011 0 0.004 0 0.007 0 0.011-0.007 0.006-0.015 0.011-0.022 0.017 0 0.004 0 0.007 0 0.011-0.007 0.006-0.015 0.011-0.022 0.017 0 0.004 0 0.007 0 0.011-0.004 0.002-0.007 0.004-0.011 0.006 0 0.004 0 0.007 0 0.011-0.004 0.002-0.007 0.004-0.011 0.006-0.007 0.011-0.017 0.052-0.011 0.073 0.002 0 0.004 0 0.006 0 0 0.007 0 0.015 0 0.022-0.015 0.011-0.030 0.022-0.045 0.034 0 0.004 0 0.007 0 0.011-0.002 0-0.004 0-0.006 0 0 0.011 0 0.022 0 0.034-0.002 0-0.004 0-0.006 0 0 0.006 0 0.011 0 0.017-0.002 0-0.004 0-0.006 0 0 0.004 0 0.007 0 0.011-0.002 0-0.004 0-0.006 0 0 0.004 0 0.007 0 0.011-0.002 0-0.004 0-0.006 0 0.007 0.063 0.015 0.127 0.022 0.19-0.007 0.004-0.007 0.009-0.011 0.011-0.004 0-0.007 0-0.011 0-0.004 0.006-0.007 0.011-0.011 0.017-0.004 0-0.007 0-0.011 0-0.011 0.008-0.015 0.027-0.017 0.045 0.009 0.034 0.019 0.067 0.028 0.101 0.002 0 0.004 0 0.006 0 0 0.006 0 0.011 0 0.017 0.002 0 0.004 0 0.006 0 0 0.006 0 0.011 0 0.017 0.002 0 0.004 0 0.006 0 0 0.006 0 0.011 0 0.017 0.002 0 0.004 0 0.006 0 0 0.006 0 0.011 0 0.017 0.002 0 0.004 0 0.006 0 0 0.006 0 0.011 0 0.017 0.002 0 0.004 0 0.006 0 0.002 0.011 0.004 0.022 0.006 0.034 0.002 0 0.004 0 0.006 0 0 0.004 0 0.007 0 0.011 0.002 0 0.004 0 0.006 0 0.004 0.017 0.007 0.034 0.011 0.050 0.002 0 0.004 0 0.006 0 0.002 0.007 0.004 0.015 0.006 0.022 0.002 0 0.004 0 0.006 0 0 0.004 0 0.007 0 0.011 0.004 0.002 0.007 0.004 0.011 0.006 0 0.004 0 0.007 0 0.011 0.011 0.009 0.022 0.019 0.034 0.028 0.006 0.007 0.011 0.015 0.017 0.022 0.004 0 0.007 0 0.011 0 0.002 0.004 0.004 0.007 0.006 0.011 0.009 0.002 0.019 0.004 0.028 0.006 0 0.002 0 0.004 0 0.006 0.007 0.002 0.015 0.004 0.022 0.006 0 0.002 0 0.004 0 0.006 0.019 0.004 0.037 0.007 0.056 0.011 0 0.002 0 0.004 0 0.006 0.006 0 0.011 0 0.017 0 0 0.002 0 0.004 0 0.006 0.007 0 0.015 0 0.022 0 0 0.002 0 0.004 0 0.006 0.013 0 0.026 0 0.039 0 0 0.002 0 0.004 0 0.006 0.013 0 0.026 0 0.039 0 0 0.002 0 0.004 0 0.006 0.039 0.002 0.078 0.004 0.118 0.006 0 0.002 0 0.004 0 0.006 0.021 0 0.041 0 0.062 0 0 0.002 0 0.004 0 0.006 0.021 0 0.041 0 0.062 0 0 0.002 0 0.004 0 0.006 0.013 0 0.026 0 0.039 0 0 0.002 0 0.004 0 0.006 0.006 0 0.011 0 0.017 0 0 0.002 0 0.004 0 0.006 0.009 0 0.019 0 0.028 0 0 0.002 0 0.004 0 0.006 0.017 0.002 0.034 0.004 0.050 0.006 0 0.002 0 0.004 0 0.006 0.011 0 0.022 0 0.034 0 0 0.002 0 0.004 0 0.006 0.013 0 0.026 0 0.039 0 0 0.002 0 0.004 0 0.006 0.013 0 0.026 0 0.039 0 0 0.002 0 0.004 0 0.006 0.050 0.006 0.101 0.011 0.151 0.017 0 0.002 0 0.004 0 0.006 0.011 0.004 0.022 0.007 0.034 0.011 0 0.002 0 0.004 0 0.006 0.017 0.006 0.034 0.011 0.050 0.017 0 0.002 0 0.004 0 0.006 0.004 0 0.007 0 0.011 0 0 0.002 0 0.004 0 0.006 0.006 0 0.011 0 0.017 0 0 0.002 0 0.004 0 0.006 0.006 0 0.011 0 0.017 0 0 0.002 0 0.004 0 0.006 0.013 0.002 0.026 0.004 0.039 0.006 0 0.002 0 0.004 0 0.006 0.013 0.002 0.026 0.004 0.039 0.006 0 0.002 0 0.004 0 0.006 0.006 0 0.011 0 0.017 0 0 0.002 0 0.004 0 0.006 0.004 0 0.007 0 0.011 0 0 0.002 0 0.004 0 0.006 0.004 0 0.007 0 0.011 0 0.002 0.004 0.004 0.007 0.006 0.011 0.004 0 0.007 0 0.011 0 0.019 0.020 0.037 0.041 0.056 0.062 0.053 0.038 0.121 0.068 0.19 0.090 0.011 0 0.022 0 0.034 0 0 0.002 0 0.004 0 0.006 0.009 0 0.019 0 0.028 0 0 0.002 0 0.004 0 0.006 0.015 0 0.030 0 0.045 0 0 0.002 0 0.004 0 0.006 0.037 0.010 0.104-0.004 0.134-0.006 0.039 0 0.078 0 0.117 0 0-0.002 0-0.004 0-0.006 0.011-0.004 0.022-0.007 0.034-0.011 0-0.002 0-0.004 0-0.006 0.026 0 0.052 0 0.078 0 0-0.002 0-0.004 0-0.006 0.009-0.002 0.019-0.004 0.028-0.006 0.004-0.006 0.007-0.011 0.011-0.017 0.045 0.002 0.090 0.004 0.134 0.006 0 0.002 0 0.004 0 0.006 0.034 0 0.067 0 0.101 0 0.027 0.008 0.076-0.003 0.106 0.006 0.027 0.008 0.076-0.003 0.106 0.006 0 0.002 0 0.004 0 0.006 0.047 0.002 0.093 0.004 0.14 0.006 0.021 0 0.041 0 0.062 0 0 0.002 0 0.004 0 0.006 0.035 0 0.071 0 0.106 0 0 0.002 0 0.004 0 0.006 0.007 0 0.015 0 0.022 0 0 0.002 0 0.004 0 0.006 0.009 0 0.019 0 0.028 0 0 0.002 0 0.004 0 0.006 0.015 0 0.030 0 0.045 0 0 0.002 0 0.004 0 0.006 0.007-0.002 0.015-0.004 0.022-0.006 0.056 0.002 0.112 0.004 0.168 0.006 0.051 0.015 0.116 0.019 0.168 0.034 0.015 0 0.030 0 0.045 0 0 0.002 0 0.004 0 0.006 0.041 0.002 0.082 0.004 0.123 0.006 0 0.002 0 0.004 0 0.006 0.021 0 0.041 0 0.062 0 0 0.002 0 0.004 0 0.006 0.002 0 0.004 0 0.006 0 0.022 0 0.045 0 0.067 0 0.029 0.008 0.076 0.011 0.112 0.011 0.004 0.007 0.009 0.008 0.011 0.011 0.013 0.020 0 0.030 0.034 0.034 0.017 0.015 0.137 0 0.157-0.006 0.011 0 0.022 0 0.034 0 0.013-0.004 0.076-0.023 0.095-0.017 0 0.002 0 0.004 0 0.006 0.004 0 0.007 0 0.011 0 0 0.002 0 0.004 0 0.006 0.004 0 0.007 0 0.011 0 0 0.002 0 0.004 0 0.006 0.006 0 0.011 0 0.017 0 0 0.002 0 0.004 0 0.006 0.006 0 0.011 0 0.017 0 0 0.002 0 0.004 0 0.006 0.006 0 0.011 0 0.017 0 0 0.002 0 0.004 0 0.006 0.007 0 0.015 0 0.022 0 0 0.002 0 0.004 0 0.006 0.056 0.002 0.112 0.004 0.168 0.006 0.005 0.019 0.019 0.035 0.028 0.050 0 0.004 0 0.007 0 0.011 0.004 0.002 0.007 0.004 0.011 0.006 0.002 0.007 0.004 0.015 0.006 0.022 0.004 0.002 0.007 0.004 0.011 0.006 0.002 0.007 0.004 0.015 0.006 0.022 0.002 0 0.004 0 0.006 0 0.002 0.006 0.004 0.011 0.006 0.017 0.004 0.002 0.007 0.004 0.011 0.006 0.002 0.007 0.004 0.015 0.006 0.022 0.006 0.004 0.011 0.007 0.017 0.011 0 0.004 0 0.007 0 0.011 0.004 0.002 0.007 0.004 0.011 0.006 0 0.004 0 0.007 0 0.011 0.002 0 0.004 0 0.006 0 0.002 0.006 0.004 0.011 0.006 0.017 0.004 0.002 0.007 0.004 0.011 0.006 0 0.004 0 0.007 0 0.011 0.006 0.004 0.011 0.007 0.017 0.011 0 0.004 0 0.007 0 0.011 0.006 0.004 0.011 0.007 0.017 0.011 0 0.004 0 0.007 0 0.011 0.007 0.006 0.015 0.011 0.022 0.017 0 0.004 0 0.007 0 0.011 0.007 0.006 0.015 0.011 0.022 0.017 0 0.004 0 0.007 0 0.011 0.007 0.006 0.015 0.011 0.022 0.017 0 0.002 0 0.004 0 0.006 0.004 0.002 0.007 0.004 0.011 0.006 0 0.004 0 0.007 0 0.011 0.017 0.015 0.034 0.030 0.050 0.045 0 0.004 0 0.007 0 0.011 0.009 0.007 0.019 0.015 0.028 0.022 0.015 0.017 0.030 0.034 0.045 0.050 0.004 0 0.007 0 0.011 0 0.017 0.019 0.034 0.037 0.050 0.056 0.004 0 0.007 0 0.011 0 0.009 0.011 0.019 0.022 0.028 0.034 0.004 0 0.007 0 0.011 0 0.006 0.007 0.011 0.015 0.017 0.022 0.004 0 0.007 0 0.011 0 0.006 0.007 0.011 0.015 0.017 0.022 0.004 0 0.007 0 0.011 0 0.004 0.006 0.007 0.011 0.011 0.017 0.004 0 0.007 0 0.011 0 0.004 0.006 0.007 0.011 0.011 0.017 0.006 0.002 0.011 0.004 0.017 0.006 0.002 0.004 0.004 0.007 0.006 0.011 0.004 0 0.007 0 0.011 0 0.002 0.004 0.004 0.007 0.006 0.011 0.004 0 0.007 0 0.011 0 0.004 0.006 0.007 0.011 0.011 0.017 0.007 0.002 0.015 0.004 0.022 0.006 0.002 0.004 0.004 0.007 0.006 0.011 0.004 0 0.007 0 0.011 0 0.002 0.004 0.004 0.007 0.006 0.011 0.004 0 0.007 0 0.011 0 0.002 0.004 0.004 0.007 0.006 0.011 0.004 0 0.007 0 0.011 0 0 0.002 0 0.004 0 0.006 0.004 0 0.007 0 0.011 0 0.002 0.004 0.004 0.007 0.006 0.011 0.007 0.002 0.015 0.004 0.022 0.006 0.002 0.004 0.004 0.007 0.006 0.011 0.011 0.004 0.022 0.007 0.034 0.011 0.108 0.068 0.234 0.122 0.364 0.168 0.015 0.002 0.030 0.004 0.045 0.006 0 0.002 0 0.004 0 0.006 0.006 0 0.011 0 0.017 0 0 0.002 0 0.004 0 0.006 0.017 0.002 0.034 0.004 0.050 0.006 0 0.002 0 0.004 0 0.006 0.007 0 0.015 0 0.022 0 0 0.002 0 0.004 0 0.006 0.007 0 0.015 0 0.022 0 0 0.002 0 0.004 0 0.006 0.009 0 0.019 0 0.028 0 0 0.002 0 0.004 0 0.006 0.009 0 0.019 0 0.028 0 0 0.002 0 0.004 0 0.006 0.032 0.004 0.063 0.007 0.095 0.011 0 0.002 0 0.004 0 0.006 0.026 0.002 0.052 0.004 0.078 0.006 0.057 0.016 0.137 0.011 0.196 0.028 0.022 0 0.045 0 0.067 0 0 0.002 0 0.004 0 0.006 0.026 0 0.052 0 0.078 0 0.035 0.010 0.093-0.004 0.129 0.006 0 0.002 0 0.004 0 0.006 0.028 0.008 0.147 0 0.168-0.006 0.028 0 0.056 0 0.084 0 0-0.002 0-0.004 0-0.006 0.017 0 0.034 0 0.050 0 0.047-0.014 0.111-0.014 0.157-0.028 0.011 0 0.022 0 0.034 0 0-0.002 0-0.004 0-0.006 0.019-0.002 0.037-0.004 0.056-0.006 0-0.002 0-0.004 0-0.006 0.009 0 0.019 0 0.028 0 0-0.002 0-0.004 0-0.006 0.007 0 0.015 0 0.022 0 0-0.002 0-0.004 0-0.006 0.007 0 0.015 0 0.022 0 0-0.002 0-0.004 0-0.006 0.007 0 0.015 0 0.022 0 0-0.002 0-0.004 0-0.006 0.015-0.002 0.030-0.004 0.045-0.006 0-0.002 0-0.004 0-0.006 0.019-0.004 0.037-0.007 0.056-0.011 0-0.002 0-0.004 0-0.006 0.006 0 0.011 0 0.017 0 0-0.002 0-0.004 0-0.006 0.006 0 0.011 0 0.017 0 0-0.002 0-0.004 0-0.006 0.011-0.002 0.022-0.004 0.034-0.006 0-0.002 0-0.004 0-0.006 0.004 0 0.007 0 0.011 0 0-0.002 0-0.004 0-0.006 0.011-0.002 0.022-0.004 0.034-0.006 0-0.002 0-0.004 0-0.006 0.004 0 0.007 0 0.011 0 0-0.002 0-0.004 0-0.006 0.011-0.002 0.022-0.004 0.034-0.006 0-0.002 0-0.004 0-0.006 0.007-0.002 0.015-0.004 0.022-0.006 0-0.002 0-0.004 0-0.006 0.006 0 0.011 0 0.017 0 0-0.002 0-0.004 0-0.006 0.004 0 0.007 0 0.011 0 0-0.002 0-0.004 0-0.006 0.006 0 0.011 0 0.017 0 0-0.002 0-0.004 0-0.006 0.011-0.004 0.022-0.007 0.034-0.011 0-0.002 0-0.004 0-0.006 0.004 0 0.007 0 0.011 0 0-0.002 0-0.004 0-0.006 0.006 0 0.011 0 0.017 0 0-0.002 0-0.004 0-0.006 0.011-0.004 0.022-0.007 0.034-0.011 0-0.002 0-0.004 0-0.006 0.004 0 0.007 0 0.011 0 0-0.002 0-0.004 0-0.006 0.004 0 0.007 0 0.011 0 0-0.002 0-0.004 0-0.006 0.004 0 0.007 0 0.011 0 0-0.002 0-0.004 0-0.006 0.004 0 0.007 0 0.011 0l0.011-0.011c0.004 0 0.007 0 0.011 0 0.002-0.004 0.004-0.007 0.006-0.011 0.004 0 0.007 0 0.011 0 0-0.002 0-0.004 0-0.006 0.004 0 0.007 0 0.011 0l0.011-0.011c0.004 0 0.007 0 0.011 0 0.002-0.004 0.004-0.007 0.006-0.011 0.004 0 0.007 0 0.011 0 0-0.002 0-0.004 0-0.006 0.004 0 0.007 0 0.011 0 0.002-0.004 0.004-0.007 0.006-0.011 0.004 0 0.007 0 0.011 0 0.002-0.004 0.004-0.007 0.006-0.011 0.004 0 0.007 0 0.011 0 0.002-0.004 0.004-0.007 0.006-0.011 0.007-0.002 0.015-0.004 0.022-0.006 0-0.002 0-0.004 0-0.006 0.006-0.002 0.011-0.004 0.017-0.006 0.002-0.004 0.004-0.007 0.006-0.011 0.004 0 0.007 0 0.011 0 0.004-0.006 0.007-0.011 0.011-0.017 0.004 0 0.007 0 0.011 0 0.002-0.004 0.004-0.007 0.006-0.011 0.004 0 0.007 0 0.011 0 0.004-0.006 0.007-0.011 0.011-0.017 0.004 0 0.007 0 0.011 0 0.004-0.006 0.007-0.011 0.011-0.017 0.004 0 0.007 0 0.011 0 0.004-0.006 0.007-0.011 0.011-0.017 0.004 0 0.007 0 0.011 0 0.006-0.007 0.011-0.015 0.017-0.022 0.004 0 0.007 0 0.011 0 0.007-0.009 0.015-0.019 0.022-0.028 0.004 0 0.007 0 0.011 0 0.009-0.011 0.019-0.022 0.028-0.034 0.004 0 0.007 0 0.011 0 0.017-0.019 0.034-0.037 0.050-0.056 0.039-0.028 0.072-0.061 0.106-0.095 0.013-0.015 0.026-0.030 0.039-0.045 0.011-0.004 0.022-0.007 0.034-0.011 0.002-0.004 0.004-0.007 0.006-0.011 0.011-0.004 0.022-0.007 0.034-0.011 0.002-0.004 0.004-0.007 0.006-0.011 0.004 0 0.007 0 0.011 0 0.002-0.004 0.004-0.007 0.006-0.011 0.004 0 0.007 0 0.011 0 0.002-0.004 0.004-0.007 0.006-0.011 0.004 0 0.007 0 0.011 0 0.002-0.004 0.004-0.007 0.006-0.011 0.004 0 0.007 0 0.011 0 0-0.002 0-0.004 0-0.006 0.006-0.002 0.011-0.004 0.017-0.006 0.002-0.004 0.004-0.007 0.006-0.011 0.004 0 0.007 0 0.011 0 0.004-0.006 0.007-0.011 0.011-0.017 0.004 0 0.007 0 0.011 0 0.002-0.004 0.004-0.007 0.006-0.011 0.004 0 0.007 0 0.011 0 0.002-0.004 0.004-0.007 0.006-0.011 0.006-0.002 0.011-0.004 0.017-0.006 0.004-0.006 0.007-0.011 0.011-0.017 0.004 0 0.007 0 0.011 0 0.004-0.006 0.007-0.011 0.011-0.017 0.004 0 0.007 0 0.011 0 0.002-0.004 0.004-0.007 0.006-0.011 0.11 0 0.22 0 0.33 0-0.004 0.075-0.007 0.149-0.011 0.224 0.011 0.009 0.022 0.019 0.034 0.028 0.046 0.001 0.083-0.007 0.117-0.017 0.011 0 0.022 0 0.034 0 0.033-0.010 0.076-0.015 0.106-0.028 0.016-0.037 0.020-0.102 0.022-0.151 0.007-0.006 0.015-0.011 0.022-0.017 0-0.002 0-0.004 0-0.006 0.142 0 0.284 0 0.425 0 0.367 0 0.735 0 1.102 0 0 0.002 0 0.004 0 0.006 0.011 0 0.022 0 0.034 0 0.031 0.009 0.062 0.011 0.106 0.011 0.136 0 0.272 0 0.408 0 0-0.002 0-0.004 0-0.006 0.058-0.004 0.116-0.007 0.173-0.011 0.034 0 0.067 0 0.101 0 0.044-0.012 0.114-0.004 0.168-0.006 0.007 0 0.015 0 0.022 0 0-0.002 0-0.004 0-0.006 0.049 0 0.097 0 0.145 0 0.022 0 0.045 0 0.067 0 0 0.002 0 0.004 0 0.006 0.007 0.002 0.015 0.004 0.022 0.006 0 0.002 0 0.004 0 0.006 0.198-0.002 0.395-0.004 0.593-0.006 0.134 0 0.269 0 0.403 0 0.039-0.011 0.103-0.006 0.151-0.006 0.099 0 0.198 0 0.296 0 0.045 0 0.089 0 0.134 0 0.047-0.013 0.123-0.006 0.179-0.006 0.116 0 0.231 0 0.347 0 0.048 0 0.112 0.005 0.151-0.006 0.306 0 0.612 0 0.918 0 0.050 0 0.116 0.006 0.157-0.006 0.244 0.002 0.489 0.004 0.733 0.006 0.548-0.002 1.097-0.004 1.645-0.006 0.038 0 0.088 0.003 0.117-0.006 0.22 0 0.44 0 0.66 0 0.042 0 0.097-0.006 0.123 0 0.017-0.002 0.034-0.004 0.050-0.006 0 0.002 0 0.004 0 0.006 0.007 0 0.015 0 0.022 0 0-0.002 0-0.004 0-0.006 0.011 0 0.022 0 0.034 0 0 0.002 0 0.004 0 0.006 0.012 0.003 0.017-0.006 0.017-0.006 0.019-0.005 0.031 0.005 0.045 0.006 0.015-0.002 0.030-0.004 0.045-0.006 0 0.002 0 0.004 0 0.006 0.028 0.007 0.136 0 0.157-0.006 0.017 0 0.034 0 0.050 0 0.052 0 0.12 0.006 0.162-0.006 0.056 0 0.112 0 0.168 0 0-0.002 0-0.004 0-0.006 0.047 0 0.093 0 0.14 0 0.030-0.009 0.084 0.004 0.117-0.006 0-0.002 0-0.004 0-0.006 0.030 0 0.060 0 0.090 0 0.037-0.006 0.075-0.011 0.112-0.017 0.005-0.007 0.004-0.007 0.011-0.011 0-0.006 0-0.011 0-0.017 0.192-0.004 0.384-0.007 0.576-0.011 0.021 0.035 0.057 0.055 0.090 0.078 0.004 0.006 0.007 0.011 0.011 0.017 0.004 0 0.007 0 0.011 0 0.002 0.004 0.004 0.007 0.006 0.011 0.004 0 0.007 0 0.011 0 0.002 0.004 0.004 0.007 0.006 0.011 0.004 0 0.007 0 0.011 0 0.002 0.004 0.004 0.007 0.006 0.011 0.006 0.002 0.011 0.004 0.017 0.006 0 0.002 0 0.004 0 0.006 0.007 0.002 0.015 0.004 0.022 0.006 0.002 0.004 0.004 0.007 0.006 0.011 0.004 0 0.007 0 0.011 0 0 0.002 0 0.004 0 0.006 0.004 0 0.007 0 0.011 0 0.002 0.004 0.004 0.007 0.006 0.011 0.004 0 0.007 0 0.011 0 0.013 0.009 0.026 0.019 0.039 0.028 0 0.004 0 0.007 0 0.011 0.006 0.004 0.011 0.007 0.017 0.011 0 0.002 0 0.004 0 0.006 0.004 0.002 0.007 0.004 0.011 0.006 0 0.004 0 0.007 0 0.011 0.017 0.015 0.034 0.030 0.050 0.045 0 0.004 0 0.007 0 0.011 0.009 0.007 0.019 0.015 0.028 0.022 0.015 0.017 0.030 0.034 0.045 0.050 0.004 0 0.007 0 0.011 0 0.017 0.019 0.034 0.037 0.050 0.056 0.004 0 0.007 0 0.011 0 0.007 0.009 0.015 0.019 0.022 0.028 0.004 0 0.007 0 0.011 0 0.007 0.009 0.015 0.019 0.022 0.028 0.004 0 0.007 0 0.011 0 0.004 0.006 0.007 0.011 0.011 0.017 0.004 0 0.007 0 0.011 0 0.004 0.006 0.007 0.011 0.011 0.017 0.004 0 0.007 0 0.011 0 0.004 0.006 0.007 0.011 0.011 0.017 0.004 0 0.007 0 0.011 0 0.004 0.006 0.007 0.011 0.011 0.017 0.004 0 0.007 0 0.011 0 0.002 0.004 0.004 0.007 0.006 0.011 0.004 0 0.007 0 0.011 0 0.004 0.006 0.007 0.011 0.011 0.017 0.004 0 0.007 0 0.011 0 0.002 0.004 0.004 0.007 0.006 0.011 0.004 0 0.007 0 0.011 0 0.002 0.004 0.004 0.007 0.006 0.011 0.006 0.002 0.011 0.004 0.017 0.006 0 0.002 0 0.004 0 0.006 0.007 0.002 0.015 0.004 0.022 0.006 0 0.002 0 0.004 0 0.006 0.006 0.002 0.011 0.004 0.017 0.006 0.002 0.004 0.004 0.007 0.006 0.011 0.004 0 0.007 0 0.011 0 0 0.002 0 0.004 0 0.006 0.004 0 0.007 0 0.011 0 0.002 0.004 0.004 0.007 0.006 0.011 0.004 0 0.007 0 0.011 0 0 0.002 0 0.004 0 0.006 0.004 0 0.007 0 0.011 0l0.011 0.011c0.004 0 0.007 0 0.011 0 0.002 0.004 0.004 0.007 0.006 0.011 0.004 0 0.007 0 0.011 0l0.011 0.011c0.004 0 0.007 0 0.011 0 0 0.002 0 0.004 0 0.006 0.004 0 0.007 0 0.011 0 0 0.002 0 0.004 0 0.006 0.004 0 0.007 0 0.011 0 0 0.002 0 0.004 0 0.006 0.004 0 0.007 0 0.011 0 0 0.002 0 0.004 0 0.006 0.011 0.004 0.022 0.007 0.034 0.011 0 0.002 0 0.004 0 0.006 0.006 0 0.011 0 0.017 0 0 0.002 0 0.004 0 0.006 0.007 0.002 0.015 0.004 0.022 0.006 0 0.002 0 0.004 0 0.006 0.006 0 0.011 0 0.017 0 0 0.002 0 0.004 0 0.006 0.007 0.002 0.015 0.004 0.022 0.006 0 0.002 0 0.004 0 0.006 0.006 0 0.011 0 0.017 0 0 0.002 0 0.004 0 0.006 0.004 0 0.007 0 0.011 0 0 0.002 0 0.004 0 0.006 0.006 0 0.011 0 0.017 0 0 0.002 0 0.004 0 0.006 0.004 0 0.007 0 0.011 0 0 0.002 0 0.004 0 0.006 0.011 0.002 0.022 0.004 0.034 0.006 0 0.002 0 0.004 0 0.006 0.004 0 0.007 0 0.011 0 0 0.002 0 0.004 0 0.006 0.011 0.002 0.022 0.004 0.034 0.006 0 0.002 0 0.004 0 0.006 0.006 0 0.011 0 0.017 0 0 0.002 0 0.004 0 0.006 0.006 0 0.011 0 0.017 0 0 0.002 0 0.004 0 0.006 0.006 0 0.011 0 0.017 0 0 0.002 0 0.004 0 0.006 0.007 0 0.015 0 0.022 0 0 0.002 0 0.004 0 0.006 0.006 0 0.011 0 0.017 0 0 0.002 0 0.004 0 0.006 0.006 0 0.011 0 0.017 0 0 0.002 0 0.004 0 0.006 0.013 0.002 0.026 0.004 0.039 0.006 0 0.002 0 0.004 0 0.006 0.015 0.002 0.030 0.004 0.045 0.006 0 0.002 0 0.004 0 0.006 0.022 0.004 0.045 0.007 0.067 0.011 0 0.002 0 0.004 0 0.006 0.009 0 0.019 0 0.028 0 0.033 0.010 0.079 0.018 0.112 0.028 0.039 0.004 0.078 0.007 0.117 0.011 0 0.002 0 0.004 0 0.006 0.015 0 0.030 0 0.045 0 0 0.002 0 0.004 0 0.006 0.020 0 0.041 0 0.062 0 0 0.002 0 0.004 0 0.006 0.024 0 0.049 0 0.073 0 0.050 0.014 0.13 0.006 0.19 0.006 0.035 0 0.080 0.002 0.106-0.006 0.030 0 0.060 0 0.090 0 0-0.002 0-0.004 0-0.006 0.020 0 0.041 0 0.062 0 0-0.002 0-0.004 0-0.006 0.017 0 0.034 0 0.050 0 0-0.002 0-0.004 0-0.006 0.015 0 0.030 0 0.045 0 0-0.002 0-0.004 0-0.006 0.013 0 0.026 0 0.039 0 0-0.002 0-0.004 0-0.006 0.011 0 0.022 0 0.034 0 0-0.002 0-0.004 0-0.006 0.011 0 0.022 0 0.034 0 0-0.002 0-0.004 0-0.006 0.011 0 0.022 0 0.034 0 0-0.002 0-0.004 0-0.006 0.007 0 0.015 0 0.022 0 0-0.002 0-0.004 0-0.006 0.009 0 0.019 0 0.028 0 0-0.002 0-0.004 0-0.006 0.009 0 0.019 0 0.028 0 0-0.002 0-0.004 0-0.006 0.015-0.002 0.030-0.004 0.045-0.006 0-0.002 0-0.004 0-0.006 0.015-0.002 0.030-0.004 0.045-0.006 0-0.002 0-0.004 0-0.006 0.013-0.002 0.026-0.004 0.039-0.006 0-0.002 0-0.004 0-0.006 0.006 0 0.011 0 0.017 0 0-0.002 0-0.004 0-0.006 0.007 0 0.015 0 0.022 0 0-0.002 0-0.004 0-0.006 0.004 0 0.007 0 0.011 0 0-0.002 0-0.004 0-0.006 0.007 0 0.015 0 0.022 0 0-0.002 0-0.004 0-0.006 0.004 0 0.007 0 0.011 0 0-0.002 0-0.004 0-0.006 0.017-0.004 0.034-0.007 0.050-0.011 0-0.002 0-0.004 0-0.006 0.009-0.002 0.019-0.004 0.028-0.006 0-0.002 0-0.004 0-0.006 0.004 0 0.007 0 0.011 0 0-0.002 0-0.004 0-0.006 0.006 0 0.011 0 0.017 0 0-0.002 0-0.004 0-0.006 0.004 0 0.007 0 0.011 0 0-0.002 0-0.004 0-0.006 0.006 0 0.011 0 0.017 0 0-0.002 0-0.004 0-0.006 0.011-0.004 0.022-0.007 0.034-0.011 0-0.002 0-0.004 0-0.006 0.004 0 0.007 0 0.011 0 0-0.002 0-0.004 0-0.006 0.004 0 0.007 0 0.011 0 0-0.002 0-0.004 0-0.006 0.006 0 0.011 0 0.017 0 0-0.002 0-0.004 0-0.006 0.004 0 0.007 0 0.011 0 0-0.002 0-0.004 0-0.006 0.004 0 0.007 0 0.011 0 0.002-0.004 0.004-0.007 0.006-0.011 0.004 0 0.007 0 0.011 0 0-0.002 0-0.004 0-0.006 0.004 0 0.007 0 0.011 0 0-0.002 0-0.004 0-0.006 0.004 0 0.007 0 0.011 0l0.011-0.011c0.004 0 0.007 0 0.011 0 0.002-0.004 0.004-0.007 0.006-0.011 0.007-0.002 0.015-0.004 0.022-0.006 0.002-0.004 0.004-0.007 0.006-0.011 0.007-0.002 0.015-0.004 0.022-0.006 0.002-0.004 0.004-0.007 0.006-0.011 0.004 0 0.007 0 0.011 0 0.002-0.004 0.004-0.007 0.006-0.011 0.004 0 0.007 0 0.011 0 0.002-0.004 0.004-0.007 0.006-0.011 0.004 0 0.007 0 0.011 0 0.002-0.004 0.004-0.007 0.006-0.011 0.004 0 0.007 0 0.011 0 0.002-0.004 0.004-0.007 0.006-0.011 0.004 0 0.007 0 0.011 0 0.002-0.004 0.004-0.007 0.006-0.011 0.004 0 0.007 0 0.011 0 0.002-0.004 0.004-0.007 0.006-0.011 0.004 0 0.007 0 0.011 0 0-0.002 0-0.004 0-0.006 0.006-0.002 0.011-0.004 0.017-0.006 0.002-0.004 0.004-0.007 0.006-0.011 0.004 0 0.007 0 0.011 0 0.004-0.006 0.007-0.011 0.011-0.017 0.004 0 0.007 0 0.011 0 0.002-0.004 0.004-0.007 0.006-0.011 0.004 0 0.007 0 0.011 0 0.002-0.004 0.004-0.007 0.006-0.011 0.006-0.002 0.011-0.004 0.017-0.006 0.006-0.007 0.011-0.015 0.017-0.022 0.004 0 0.007 0 0.011 0 0.004-0.006 0.007-0.011 0.011-0.017 0.006-0.002 0.011-0.004 0.017-0.006 0.011-0.013 0.022-0.026 0.034-0.039 0.004 0 0.007 0 0.011 0 0.020-0.022 0.041-0.045 0.062-0.067 0.024-0.022 0.049-0.045 0.073-0.067 0.002-0.006 0.004-0.011 0.006-0.017 0.013-0.011 0.026-0.022 0.039-0.034 0-0.004 0-0.007 0-0.011 0.009-0.007 0.019-0.015 0.028-0.022 0-0.004 0-0.007 0-0.011 0.007-0.006 0.015-0.011 0.022-0.017 0-0.004 0-0.007 0-0.011 0.007-0.006 0.015-0.011 0.022-0.017 0-0.004 0-0.007 0-0.011 0.006-0.004 0.011-0.007 0.017-0.011 0.002-0.006 0.004-0.011 0.006-0.017 0.004-0.002 0.007-0.004 0.011-0.006 0-0.004 0-0.007 0-0.011 0.004-0.002 0.007-0.004 0.011-0.006 0.002-0.006 0.004-0.011 0.006-0.017 0.002 0 0.004 0 0.006 0 0-0.004 0-0.007 0-0.011 0.004-0.002 0.007-0.004 0.011-0.006 0.002-0.006 0.004-0.011 0.006-0.017 0.002 0 0.004 0 0.006 0 0.002-0.006 0.004-0.011 0.006-0.017 0.097 0 0.194 0 0.291 0 0.009 0.025 0.006 0.072 0.006 0.106 0.012 0.014 0 0.041 0.006 0.062 0.002 0 0.004 0 0.006 0 0.002 0.022 0.004 0.045 0.006 0.067 0.006 0.017 0.018 0.036 0.022 0.056 0.080 0.007 0.16 0.015 0.241 0.022 0.002 0.009 0.004 0.019 0.006 0.028 0.009-0.001 0.042-0.007 0.045-0.011 0-0.045 0-0.090 0-0.134 0.010-0.004 0.018-0.005 0.034-0.006 0.024 0.025 0.115 0.006 0.151 0.006 0.054-0.001 0.114 0.002 0.157-0.011 0.011 0 0.022 0 0.034 0 0-0.002 0-0.004 0-0.006 0.007 0 0.015 0 0.022 0 0-0.002 0-0.004 0-0.006 0.013-0.002 0.026-0.004 0.039-0.006 0-0.002 0-0.004 0-0.006 0.006 0 0.011 0 0.017 0 0-0.002 0-0.004 0-0.006 0.006 0 0.011 0 0.017 0 0-0.002 0-0.004 0-0.006 0.032-0.007 0.063-0.015 0.095-0.022 0.15-0.057 0.325-0.084 0.481-0.134 0.009 0 0.019 0 0.028 0 0-0.002 0-0.004 0-0.006 0.007 0 0.015 0 0.022 0 0-0.002 0-0.004 0-0.006 0.009 0 0.019 0 0.028 0 0-0.002 0-0.004 0-0.006 0.009 0 0.019 0 0.028 0 0-0.002 0-0.004 0-0.006 0.086-0.007 0.172-0.015 0.257-0.022 0-0.002 0-0.004 0-0.006 0.009 0 0.019 0 0.028 0 0-0.002 0-0.004 0-0.006 0.007 0 0.015 0 0.022 0 0-0.002 0-0.004 0-0.006 0.007 0 0.015 0 0.022 0 0-0.002 0-0.004 0-0.006 0.006 0 0.011 0 0.017 0 0-0.002 0-0.004 0-0.006 0.004 0 0.007 0 0.011 0 0-0.002 0-0.004 0-0.006 0.006 0 0.011 0 0.017 0 0-0.002 0-0.004 0-0.006 0.004 0 0.007 0 0.011 0 0-0.002 0-0.004 0-0.006 0.006 0 0.011 0 0.017 0 0-0.002 0-0.004 0-0.006 0.043-0.004 0.086-0.007 0.129-0.011 0-0.002 0-0.004 0-0.006 0.017 0 0.034 0 0.050 0 0-0.002 0-0.004 0-0.006 0.017 0 0.034 0 0.050 0 0-0.002 0-0.004 0-0.006 0.017 0 0.034 0 0.050 0 0-0.002 0-0.004 0-0.006 0.019-0.002 0.037-0.004 0.056-0.006 0-0.002 0-0.004 0-0.006 0.009 0 0.019 0 0.028 0 0-0.002 0-0.004 0-0.006 0.009 0 0.019 0 0.028 0 0-0.002 0-0.004 0-0.006 0.020-0.002 0.041-0.004 0.062-0.006 0.082-0.025 0.181-0.031 0.263-0.056 0.009 0 0.019 0 0.028 0 0-0.002 0-0.004 0-0.006 0.009 0 0.019 0 0.028 0 0-0.002 0-0.004 0-0.006 0.016-0.005 0.043-0.006 0.050 0 0.016 0.005 0.022 0.013 0.034 0.022 0 0.002 0 0.004 0 0.006 0.004 0 0.007 0 0.011 0 0.002 0.004 0.004 0.007 0.006 0.011 0.004 0 0.007 0 0.011 0 0.002 0.004 0.004 0.007 0.006 0.011 0.022 0.007 0.045 0.015 0.067 0.022 0.013 0 0.026 0 0.039 0 0-0.002 0-0.004 0-0.006 0.002 0 0.004 0 0.006 0 0.045-0.002 0.090-0.004 0.134-0.006 0-0.002 0-0.004 0-0.006 0.039-0.002 0.078-0.004 0.117-0.006 0-0.002 0-0.004 0-0.006 0.013 0 0.026 0 0.039 0 0-0.002 0-0.004 0-0.006 0.011 0 0.022 0 0.034 0 0-0.002 0-0.004 0-0.006 0.013 0 0.026 0 0.039 0 0.057-0.017 0.131-0.021 0.185-0.039 0.007 0 0.015 0 0.022 0 0-0.002 0-0.004 0-0.006 0.006 0 0.011 0 0.017 0 0-0.002 0-0.004 0-0.006 0.007 0 0.015 0 0.022 0 0-0.002 0-0.004 0-0.006 0.004 0 0.007 0 0.011 0 0-0.002 0-0.004 0-0.006 0.006 0 0.011 0 0.017 0 0-0.002 0-0.004 0-0.006 0.004 0 0.007 0 0.011 0 0-0.002 0-0.004 0-0.006 0.004 0 0.007 0 0.011 0 0-0.002 0-0.004 0-0.006 0.007-0.006 0.015-0.011 0.022-0.017 0.006-0.009 0-0.013 0.011-0.022 0-0.015 0-0.030 0-0.045-0.002 0-0.004 0-0.006 0 0-0.004 0-0.007 0-0.011-0.002 0-0.004 0-0.006 0-0.002-0.007-0.004-0.015-0.006-0.022-0.004-0.002-0.007-0.004-0.011-0.006-0.009-0.015-0.010-0.028-0.011-0.050 0.007-0.006 0.008-0.011 0.017-0.017 0-0.002 0-0.004 0-0.006 0.009-0.002 0.019-0.004 0.028-0.006 0-0.002 0-0.004 0-0.006 0.007 0 0.015 0 0.022 0 0-0.002 0-0.004 0-0.006 0.009 0 0.019 0 0.028 0 0-0.002 0-0.004 0-0.006 0.006 0 0.011 0 0.017 0 0.002-0.004 0.004-0.007 0.006-0.011 0.035-0.023 0.067-0.081 0.067-0.14-0.012-0.003-0.014-0.013-0.032-0.018z"></path>
<path d="M30.656 18.656c0 0-2.814-2.163-8.245-2.35 0 0-3.472-2.371-5.854-2.65-2.362-0.277-7.151-0.094-11.526 1.625 0 0 6.156-3.375 11.688-2.688 2.881 0.358 5.938 2.625 5.938 2.625s6.234 0.469 8 3.438z"></path>
<path d="M30.781 16.214c0 0-2.377-2.254-7.808-2.44 0 0-3.472-2.371-5.854-2.65-2.362-0.277-7.151-0.094-11.526 1.625 0 0 6.156-3.375 11.688-2.688 2.881 0.358 5.938 2.625 5.938 2.625s5.797 0.559 7.563 3.528z"></path>
</svg>
