<!-- Generated by IcoMoon.io -->
<svg version="1.1" xmlns="http://www.w3.org/2000/svg" width="32" height="32" viewBox="0 0 32 32">
<title>icon_rss</title>
<path d="M9.141 20.178c-1.467 0.006-2.654 1.197-2.654 2.665 0 1.472 1.193 2.665 2.665 2.665s2.664-1.192 2.665-2.662c-0.005-1.474-1.201-2.668-2.676-2.668 0 0 0 0 0 0z"></path>
<path d="M6.476 5.457v3.849c8.938 0 16.207 7.279 16.207 16.225h3.859c0-11.066-9.003-20.074-20.067-20.074z"></path>
<path d="M6.472 12.277v3.848c5.185 0.007 9.385 4.211 9.385 9.397 0 0.003 0 0.007 0 0.010l3.864-0c0-7.309-5.946-13.254-13.249-13.254z"></path>
</svg>
