<svg xmlns="http://www.w3.org/2000/svg" viewBox="0 0 32 32" width="100%" height="100%"><path d="M16 10.319a5.682 5.682 0 1 0 .001 11.363A5.682 5.682 0 0 0 16 10.32zm.006 10.225v-9.088A4.555 4.555 0 0 1 20.544 16a4.543 4.543 0 0 1-4.538 4.544zM27.931 15.431h-3.406c-.313 0-.569.256-.569.569s.256.569.569.569h3.406c.313 0 .569-.256.569-.569s-.256-.569-.569-.569zM22.025 10.544a.55.55 0 0 0 .4-.169l2.413-2.412a.566.566 0 0 0 0-.806.577.577 0 0 0-.806 0l-2.406 2.419a.566.566 0 0 0 .4.968zM16 8.044a.57.57 0 0 0 .569-.569V4.069c0-.313-.256-.569-.569-.569s-.569.256-.569.569v3.406c0 .319.256.569.569.569zM9.575 10.375c.113.113.256.169.4.169s.294-.056.4-.169a.566.566 0 0 0 0-.806L7.963 7.157a.577.577 0 0 0-.806 0 .577.577 0 0 0 0 .806l2.419 2.412zM8.044 16a.57.57 0 0 0-.569-.569H4.069c-.313 0-.569.256-.569.569s.256.569.569.569h3.406A.567.567 0 0 0 8.044 16zM9.575 21.625l-2.412 2.413a.577.577 0 0 0 0 .806.56.56 0 0 0 .8 0l2.412-2.413a.566.566 0 0 0 0-.806.558.558 0 0 0-.8 0zM16 23.956a.57.57 0 0 0-.569.569v3.406c0 .313.256.569.569.569s.569-.256.569-.569v-3.406a.567.567 0 0 0-.569-.569zM22.425 21.625c-.225-.225-.581-.225-.806 0s-.225.581 0 .806l2.413 2.413c.113.113.256.169.4.169s.294-.056.4-.169a.566.566 0 0 0 0-.806l-2.406-2.413z"/></svg>