<svg xmlns="http://www.w3.org/2000/svg" viewBox="0 0 32 32" width="100%" height="100%"><path d="M16.6 27.325h-1.075v-10.8c-.925-.238-1.606-1.069-1.606-2.069 0-1.188.963-2.144 2.144-2.144 1.188 0 2.144.963 2.144 2.144 0 1-.688 1.831-1.606 2.069v10.8zm-.537-18.237c-2.956 0-5.363 2.406-5.363 5.362 0 1.481.6 2.819 1.575 3.794l.756-.756c-.775-.775-1.256-1.85-1.256-3.031 0-2.369 1.925-4.294 4.294-4.294s4.294 1.925 4.294 4.294c0 1.181-.481 2.256-1.256 3.031l.756.756c.969-.969 1.575-2.313 1.575-3.794-.012-2.956-2.419-5.363-5.375-5.363zm0-2.144c-4.144 0-7.512 3.369-7.512 7.513 0 2.069.844 3.95 2.2 5.306l.756-.756c-1.162-1.163-1.887-2.775-1.887-4.55 0-3.55 2.888-6.438 6.437-6.438s6.438 2.887 6.438 6.438c0 1.775-.725 3.381-1.887 4.55l.756.756c1.363-1.363 2.2-3.238 2.2-5.306.012-4.144-3.356-7.513-7.5-7.513zm0-2.144c-5.325 0-9.656 4.331-9.656 9.656 0 2.663 1.081 5.075 2.831 6.825l.756-.756c-1.556-1.556-2.519-3.7-2.519-6.063 0-4.731 3.85-8.581 8.581-8.581s8.581 3.85 8.581 8.581c0 2.369-.962 4.512-2.519 6.063l.756.756c1.75-1.75 2.831-4.163 2.831-6.825.012-5.325-4.319-9.656-9.644-9.656z"/></svg>