<!-- Generated by IcoMoon.io -->
<svg version="1.1" xmlns="http://www.w3.org/2000/svg" width="100%" height="100%" viewBox="0 0 32 32">
<title>icon_teq_finder_01</title>
<path d="M12.588 21.137c-0.613-0.075-1.2-0.219-1.756-0.425 0.050-0.119 0.131-0.256 0.25-0.413l1.15-1.831c0 0 0.169-0.306 0.431-0.587 0.8-3.287 3.75-5.731 7.288-5.731 0.837 0 1.644 0.144 2.4 0.4-0.488-4.519-4.306-8.037-8.95-8.037-4.969 0-9 4.031-9 9 0 4.831 3.813 8.762 8.594 8.975-0.175-0.431-0.313-0.887-0.406-1.35zM15.375 6.725l0.069-0.669c1.806 0.463 3.356 1.556 4.4 3.044-0.038 0.019-0.081 0.037-0.131 0.056l-2.613 1.113c0 0-1.575 0.494-1.775-0.769-0.006 0.006-0.044-2.65 0.050-2.775zM9.65 15.356c0 0-0.494 1.356-2.175 2.881-1.019-1.306-1.625-2.944-1.625-4.725 0-0.094 0-0.181 0.006-0.275l2.862 0.694c0 0 1.387 0.456 0.931 1.425zM10.069 10.419l-2.981-1.094c0.975-1.506 2.469-2.644 4.219-3.175 0.050 0.575 0.262 3.056 0.119 3.556 0 0-0.056 1.006-1.356 0.713z"></path>
<path d="M21.681 17.025c-0.325-0.219-0.694-0.375-1.087-0.456-0.256 0.587-0.581 1.137-0.962 1.637-0.087-0.081-0.188-0.194-0.288-0.344 0 0-0.406-0.469-0.844-0.994-1.006 0.525-1.706 1.569-1.706 2.781 0 0.712 0.244 1.363 0.644 1.894 1.894-0.956 3.413-2.556 4.244-4.519z"></path>
<path d="M19.944 25.837c-3.413 0-6.188-2.775-6.188-6.188s2.775-6.188 6.188-6.188 6.188 2.775 6.188 6.188-2.775 6.188-6.188 6.188zM19.944 15.338c-2.375 0-4.313 1.937-4.313 4.312s1.938 4.313 4.313 4.313 4.313-1.938 4.313-4.313-1.931-4.313-4.313-4.313z"></path>
<path d="M26.663 27.488c-0.225 0-0.456-0.081-0.663-0.275v0l-0.031-0.031c0 0 0 0-0.006-0.006l-2.9-2.9 1.325-1.325 2.931 2.931c0.369 0.375 0.369 0.956 0 1.325-0.163 0.169-0.4 0.281-0.656 0.281z"></path>
</svg>
