<svg xmlns="http://www.w3.org/2000/svg" viewBox="0 0 32 32" width="100%" height="100%"><path d="M16.17 20.849c-1.223-.258-2.897-.61-3.118-1.054-.055-.109-.1-.265.041-.494.303-.49 1.267-.997 2.357-.997v-1.168c-1.409 0-2.786.637-3.351 1.551-.324.523-.356 1.104-.093 1.631.474.948 1.996 1.268 3.923 1.674 2.017.425 4.527.955 4.79 2.268.055.276-.009.506-.206.747-.696.85-3.424 2.194-13.539 2.553l.002 1.172c8.292-.285 13.034-1.269 14.44-2.984.416-.507.571-1.101.448-1.717-.414-2.069-3.22-2.66-5.695-3.182zM22.175 18.335h-4.414v-4.25c-.198-.043-.392-.092-.556-.15l-.039-.012c-.247-.074-.584-.175-.839-.318-1.395-.735-2.29-1.976-2.396-3.322-.013-.162-.029-.749.002-3.373l.007-.587h1.312V4.641c0-.296.023-.737.22-1.157.292-.621.863-.962 1.606-.962 1.156 0 1.875.812 1.875 2.119v1.682h2.03V4.641c0-.298.024-.743.23-1.165.301-.616.885-.955 1.645-.955.756 0 1.33.336 1.617.946.211.448.21.925.21 1.155v1.701h1.27v3.913c0 1.014-.457 1.933-1.321 2.66-.651.547-1.494.954-2.459 1.189v4.249zm-3.226-1.187h2.039v-4.041l.49-.087c1.637-.29 3.29-1.263 3.29-2.783V7.511h-1.27v-2.89c0-.154 0-.441-.097-.648-.043-.092-.124-.264-.543-.264-.348 0-.687.072-.687.932v2.87h-4.405v-2.87c0-.932-.482-.932-.687-.932-.323 0-.639.072-.639.932v2.87h-1.325c-.012 1.222-.017 2.428-.003 2.64l.001.008.002.031c.073.939.736 1.823 1.772 2.367l.017.009c.139.079.419.163.604.219l.081.025c.237.085.652.161.874.202l.486.09v4.045zm-3.842-7.019l.001.006-.001-.006z"/></svg>