<!-- Generated by IcoMoon.io -->
<svg version="1.1" xmlns="http://www.w3.org/2000/svg" width="100%" height="100%" viewBox="0 0 32 32">
<title>icon_replacement-car_not-available</title>
<path d="M6.375 24.962h-2.669c-0.063 0-0.119-0.012-0.156-0.025-0.325-0.056-0.6-0.256-0.75-0.563-0.006-0.012-0.013-0.025-0.019-0.038-0.006-0.025-0.019-0.044-0.031-0.069-0.044-0.113-0.106-0.25-0.131-0.413-0.075-0.337-0.119-0.712-0.131-1.113-0.025-0.525-0.038-1.063-0.050-1.587 0-0.006 0-0.006 0-0.012 0-0.188 0.006-0.369 0.006-0.55 0-0.175 0.006-0.35 0.006-0.525v-0.019c-0.013-0.619-0.025-1.231-0.038-1.863v0c-0.006-0.031-0.013-0.081-0.013-0.144v-1.731c0-0.063 0.006-0.113 0.013-0.144 0-0.181 0.013-0.344 0.025-0.506 0-0.006 0-0.012 0-0.012 0.019-0.169 0.031-0.35 0.050-0.519 0.013-0.175 0.031-0.356 0.050-0.537 0.019-0.162 0.050-0.319 0.081-0.469 0.013-0.069 0.025-0.137 0.038-0.206 0-0.012 0.006-0.019 0.006-0.031 0.044-0.181 0.131-0.306 0.212-0.419 0.006-0.006 0.006-0.012 0.013-0.019 0.131-0.169 0.288-0.313 0.438-0.444-0.006 0-0.006-0.006-0.013-0.006 0 0-0.006 0-0.006 0-0.362-0.169-0.538-0.469-0.519-0.863 0-0.069 0-0.156 0.038-0.25 0.125-0.456 0.388-0.806 0.788-1.037 0.388-0.231 0.813-0.344 1.269-0.325 0.006 0 0.013 0 0.013 0 0.338 0.025 0.606 0.188 0.775 0.481 0.006 0.006 0.013 0.019 0.013 0.025 0.075 0.15 0.106 0.275 0.138 0.381 0.006 0.019 0.006 0.031 0.013 0.050 0.013 0.1 0.025 0.194 0.025 0.281 0.031 0 0.056 0 0.081 0 0.456-0.931 0.9-1.731 1.369-2.431 0.306-0.463 0.581-0.819 0.856-1.131 0.2-0.231 0.463-0.406 0.787-0.531 0.175-0.069 0.375-0.119 0.606-0.15 0.1-0.019 0.194-0.037 0.3-0.056 0.106-0.025 0.219-0.044 0.331-0.063 0.5-0.088 0.956-0.144 1.381-0.181 0.162-0.013 0.319-0.025 0.475-0.037 0.162-0.013 0.325-0.025 0.494-0.037 0 0 0.006 0 0.006 0 0.419-0.025 0.856-0.050 1.294-0.063 0.225-0.006 0.456-0.013 0.675-0.013 0.213 0 0.431-0.006 0.644-0.013 0.031-0.006 0.069-0.013 0.125-0.013h1.156c0.050 0 0.094 0.006 0.125 0.013l0.262 0.006c0.65 0.013 1.2 0.025 1.756 0.056l0.087 0.006c0.206 0.013 0.4 0.025 0.594 0.037l0.094 0.006c0.319 0.025 0.656 0.050 0.988 0.081 0.006 0 0.012 0 0.012 0 0.306 0.044 0.6 0.088 0.894 0.125l0.425 0.063c0 0 0.006 0 0.006 0 0.175 0.025 0.344 0.063 0.506 0.094l0.031 0.006c0.069 0.013 0.131 0.025 0.2 0.044 0.469 0.1 0.856 0.338 1.156 0.7 0.2 0.244 0.387 0.5 0.569 0.75 0.225 0.313 0.419 0.613 0.6 0.912 0.019 0.037 0.038 0.069 0.056 0.1 0.012 0.025 0.025 0.050 0.044 0.075 0.006 0.012 0.019 0.031 0.025 0.044l0.012 0.025c0.2 0.338 0.4 0.7 0.619 1.106 0.1 0.188 0.188 0.363 0.275 0.525 0.019 0 0.038 0 0.050 0 0-0.037 0-0.075 0.006-0.113 0-0.1 0.012-0.2 0.031-0.294 0.019-0.1 0.050-0.188 0.094-0.275 0.125-0.3 0.363-0.506 0.656-0.556 0.106-0.019 0.188-0.019 0.262-0.019 0.019 0 0.038 0 0.050 0 0.269 0.031 0.538 0.088 0.788 0.169 0.012 0.006 0.031 0.012 0.044 0.019 0.15 0.063 0.262 0.125 0.369 0.194 0 0 0.006 0 0.006 0.006 0.337 0.219 0.575 0.55 0.694 0.969 0.050 0.156 0.063 0.3 0.038 0.438 0 0.012-0.006 0.025-0.006 0.037-0.019 0.069-0.038 0.125-0.050 0.162-0.006 0.012-0.006 0.025-0.012 0.037-0.069 0.156-0.181 0.287-0.331 0.387 0.094 0.081 0.188 0.162 0.262 0.238 0.006 0.006 0.012 0.012 0.012 0.012l0.025 0.025c0.288 0.262 0.481 0.6 0.563 1 0 0.006 0 0.006 0 0.012 0.050 0.262 0.087 0.531 0.119 0.819 0.019 0.188 0.031 0.344 0.044 0.494 0.025 0.363 0.038 0.731 0.050 1.088v0.025c0.012 0.144 0.012 0.288 0.012 0.431 0 0.494 0.012 1.012 0.025 1.469 0 0.006 0 0.006 0 0.012 0 0.131 0 0.244 0.012 0.356 0 0.012 0 0.031 0 0.044v2.594c0 0.044 0 0.106-0.012 0.188l-0.038 0.725c0 0.006 0 0.012 0 0.012-0.031 0.369-0.075 0.688-0.131 0.988-0.044 0.275-0.125 0.525-0.238 0.769 0 0.006-0.006 0.006-0.006 0.012-0.175 0.35-0.45 0.563-0.813 0.65-0.050 0.012-0.1 0.019-0.137 0.025-0.006 0-0.019 0-0.025 0-0.038 0.006-0.069 0.012-0.106 0.012h-2.456c-0.069 0-0.125-0.012-0.169-0.031-0.325-0.075-0.581-0.275-0.725-0.575-0.069-0.125-0.1-0.238-0.131-0.331-0.006-0.012-0.006-0.025-0.012-0.038-0.206-0.031-0.387-0.131-0.512-0.294-0.206 0-0.394 0.006-0.575 0.044-0.475 0.1-0.962 0.156-1.538 0.188h-0.025c-0.425 0.025-0.831 0.050-1.262 0.050-0.831 0.012-1.675 0.012-2.5 0.012-0.394 0-0.788 0-1.181 0-0.762 0-1.55-0.006-2.325 0-0.269 0-0.531 0-0.794 0-0.781 0-1.581 0.006-2.369-0.012-0.006 0-0.012 0-0.019 0-0.1-0.006-0.2-0.006-0.306-0.012s-0.219-0.006-0.331-0.012c-0.363-0.025-0.738-0.050-1.113-0.087-0.113-0.012-0.231-0.025-0.35-0.044-0.125-0.019-0.262-0.031-0.387-0.044-0.006 0-0.019 0-0.025-0.006-0.037-0.006-0.075-0.012-0.113-0.019-0.119-0.019-0.231-0.038-0.331-0.038-0.194 0-0.369-0.012-0.537-0.025-0.006 0-0.013 0-0.013 0-0.013 0-0.031 0-0.050 0-0.125 0.163-0.313 0.262-0.519 0.288-0.050 0.006-0.1 0-0.15 0.006-0.019 0.081-0.044 0.15-0.063 0.219 0 0.006-0.006 0.019-0.013 0.025-0.138 0.344-0.35 0.581-0.638 0.706-0.050 0.019-0.112 0.031-0.175 0.031zM25.587 24.95c0 0 0 0 0 0s0 0 0 0zM25.587 24.95c0 0 0 0 0 0s0 0 0 0zM25.587 24.95v0 0zM3.763 24.025h2.475c0.025-0.025 0.050-0.069 0.081-0.144 0.044-0.125 0.063-0.219 0.069-0.3 0-0.044 0.006-0.119 0.037-0.212 0.063-0.194 0.244-0.319 0.444-0.319h0.206c0.056-0.006 0.106-0.012 0.156-0.012 0.025-0.038 0.050-0.069 0.075-0.1 0.088-0.119 0.231-0.188 0.375-0.188 0.037 0 0.075 0 0.106 0 0.088 0 0.181-0.006 0.287 0.006 0.156 0.012 0.3 0.025 0.456 0.025 0.175 0 0.338 0.025 0.488 0.050 0.031 0.006 0.063 0.012 0.088 0.012 0.137 0.012 0.269 0.031 0.4 0.050 0.113 0.012 0.219 0.031 0.331 0.038 0.356 0.038 0.719 0.063 1.075 0.087 0.094 0.006 0.194 0.006 0.3 0.012 0.106 0 0.213 0.006 0.325 0.012 0.769 0.019 1.569 0.019 2.338 0.012 0.262 0 0.525 0 0.787 0 0.775-0.006 1.569-0.006 2.331 0 0.394 0 0.781 0 1.175 0 0.819 0 1.663 0 2.488-0.012 0 0 0.006 0 0.006 0 0.4 0 0.794-0.025 1.206-0.050h0.031c0.531-0.025 0.975-0.081 1.4-0.169 0.306-0.063 0.594-0.063 0.869-0.063 0.044 0 0.081 0 0.125 0 0.206 0 0.387 0.113 0.481 0.288 0.006 0.006 0.006 0.012 0.012 0.019 0.019 0 0.038 0 0.056 0.006 0.050 0.006 0.1 0.006 0.163 0.012 0.181 0.025 0.331 0.144 0.387 0.319 0.019 0.063 0.038 0.125 0.050 0.181 0.006 0.025 0.012 0.056 0.019 0.081 0.006 0.031 0.019 0.056 0.025 0.087 0.019 0.069 0.038 0.125 0.063 0.163 0.006 0.012 0.012 0.019 0.012 0.031 0.019 0.044 0.044 0.063 0.087 0.075 0.012 0 0.025 0.006 0.031 0.006h2.35c0.031-0.006 0.056-0.006 0.075-0.012 0.006 0 0.019 0 0.025 0 0 0 0.006 0 0.006 0 0.081-0.019 0.131-0.044 0.181-0.15 0.075-0.163 0.125-0.331 0.163-0.525 0-0.006 0-0.012 0-0.012 0.050-0.262 0.087-0.55 0.119-0.881l0.038-0.756c0-0.031 0.006-0.056 0.012-0.081 0-0.006 0-0.012 0-0.019v-2.575c-0.012-0.15-0.012-0.281-0.012-0.413-0.012-0.462-0.025-0.981-0.025-1.488 0-0.131 0-0.25-0.012-0.356 0-0.012 0-0.019 0-0.031v-0.044c-0.012-0.344-0.025-0.706-0.050-1.056-0.006-0.137-0.019-0.281-0.038-0.456-0.025-0.256-0.063-0.5-0.106-0.738-0.044-0.206-0.131-0.363-0.275-0.494-0.006-0.006-0.012-0.012-0.019-0.019l-0.031-0.031c-0.319-0.294-0.575-0.494-0.831-0.662-0.038-0.019-0.1-0.050-0.163-0.106-0.1-0.1-0.15-0.219-0.15-0.356 0-0.244 0.181-0.444 0.425-0.469 0.081-0.006 0.15-0.019 0.219-0.025l0.113-0.012c0 0 0.006 0 0.006 0 0.081-0.006 0.156-0.031 0.225-0.063 0 0 0 0 0 0 0-0.006-0.006-0.012-0.006-0.019-0.056-0.206-0.156-0.35-0.3-0.444-0.069-0.044-0.137-0.075-0.231-0.119-0.175-0.056-0.363-0.1-0.544-0.119-0.012 0-0.019 0-0.025 0-0.006 0.012-0.012 0.025-0.019 0.044-0.012 0.019-0.019 0.050-0.025 0.075-0.006 0.037-0.012 0.075-0.012 0.113 0 0.012 0 0.025 0 0.037-0.006 0.081-0.006 0.169 0 0.269 0 0.044 0 0.088 0 0.137 0.019 0.119-0.006 0.213-0.044 0.287-0.131 0.306-0.406 0.331-0.488 0.331-0.025 0-0.044 0-0.069-0.006-0.163-0.025-0.337-0.025-0.525-0.019-0.050 0-0.106 0-0.156 0-0.175 0-0.337-0.1-0.419-0.256v-0.006c-0.012-0.025-0.038-0.069-0.056-0.119-0.1-0.2-0.212-0.412-0.331-0.65-0.206-0.394-0.4-0.744-0.594-1.069l-0.038-0.063c-0.019-0.037-0.038-0.069-0.056-0.1-0.012-0.025-0.025-0.050-0.044-0.075-0.169-0.281-0.35-0.556-0.556-0.85-0.169-0.238-0.35-0.475-0.531-0.706-0.163-0.194-0.369-0.319-0.625-0.375-0.063-0.012-0.125-0.025-0.194-0.037l-0.031-0.006c-0.15-0.031-0.306-0.063-0.462-0.088l-0.419-0.063c-0.288-0.044-0.581-0.081-0.881-0.125-0.319-0.031-0.637-0.056-0.95-0.081l-0.081-0.006c-0.194-0.012-0.387-0.025-0.594-0.037l-0.081-0.006c-0.544-0.025-1.087-0.044-1.725-0.050l-0.288-0.006c-0.050 0-0.087-0.006-0.113-0.013h-1.1c-0.031 0.006-0.069 0.013-0.119 0.013-0.225 0.006-0.45 0.013-0.675 0.013-0.219 0-0.444 0.006-0.662 0.012-0.419 0.012-0.85 0.037-1.262 0.063-0.162 0.012-0.325 0.025-0.488 0.037-0.156 0.012-0.313 0.025-0.475 0.037-0.4 0.031-0.825 0.088-1.3 0.169-0.1 0.019-0.2 0.037-0.306 0.063s-0.219 0.044-0.331 0.063c-0.006 0-0.012 0-0.012 0-0.169 0.025-0.3 0.056-0.412 0.1 0 0-0.006 0-0.006 0-0.175 0.063-0.306 0.15-0.412 0.269-0.25 0.281-0.5 0.606-0.781 1.031-0.469 0.713-0.925 1.531-1.394 2.512 0 0 0 0.006-0.006 0.006v0c-0.019 0.044-0.056 0.131-0.138 0.213-0.1 0.1-0.237 0.15-0.375 0.131-0.112-0.012-0.206-0.019-0.3-0.012-0.112 0.012-0.225 0.025-0.35 0.044-0.1 0.019-0.2 0.006-0.294-0.044-0.119-0.063-0.325-0.213-0.325-0.581 0-0.019 0-0.044 0.006-0.063 0.013-0.113 0.013-0.256-0.006-0.425-0.019-0.063-0.031-0.106-0.050-0.15 0 0-0.006-0.006-0.006-0.006s-0.006 0-0.013 0c-0.269-0.006-0.513 0.056-0.75 0.2-0.188 0.113-0.3 0.262-0.362 0.481 0 0 0 0 0 0.006s0 0.006 0 0.012c0.156 0.063 0.331 0.1 0.581 0.113h0.188c0.162 0 0.313 0.081 0.4 0.225 0.088 0.137 0.094 0.313 0.019 0.456-0.088 0.169-0.213 0.238-0.275 0.269l-0.037 0.019c-0.2 0.125-0.388 0.244-0.556 0.387-0.156 0.137-0.306 0.262-0.413 0.4-0.031 0.037-0.050 0.069-0.056 0.088-0.013 0.069-0.025 0.131-0.038 0.2-0.025 0.137-0.050 0.269-0.069 0.387-0.019 0.169-0.031 0.344-0.050 0.512-0.013 0.175-0.031 0.35-0.050 0.525-0.013 0.156-0.025 0.306-0.025 0.456 0 0.050-0.006 0.087-0.013 0.119v1.725c0.006 0.025 0.013 0.069 0.013 0.119 0.013 0.631 0.025 1.25 0.038 1.869v0.019c0 0 0 0.006 0 0.006 0 0.188-0.006 0.369-0.006 0.55 0 0.169-0.006 0.35-0.006 0.525 0.013 0.512 0.025 1.044 0.050 1.563 0.013 0.356 0.050 0.675 0.112 0.962 0 0.006 0.006 0.019 0.006 0.025 0.013 0.063 0.044 0.137 0.075 0.219 0.006 0.019 0.019 0.044 0.025 0.063 0.019 0.031 0.038 0.044 0.069 0.044 0.038 0 0.056 0 0.075 0.006zM28.15 24.012c0 0-0.006 0 0 0-0.006 0 0 0 0 0zM23.931 23.325c0 0 0 0 0 0s0 0 0 0zM2.406 18.181c0 0 0 0 0 0s0 0 0 0zM2.406 18.175c0 0 0 0 0 0s0 0 0 0zM3.681 12.15v0 0zM16.525 7.050c0 0 0 0 0 0s0 0 0 0zM15.188 7.050c0 0 0 0 0 0s0 0 0 0z"></path>
<path d="M9.456 9.706c0.206-0.313 0.556-0.5 0.931-0.5 0 0 1.819-0.463 5.537-0.463 3.563 0 5.475 0.463 5.475 0.463 0.375 0 0.725 0.188 0.931 0.5l1.725 2.863h-16.319l1.719-2.863z"></path>
<path d="M26.394 16.712c0.438-0.063 1.25-0.125 1.375-0.438s0-1.25-0.25-1.625c-0.269-0.406-0.587-0.669-1.344-0.594-0.569 0.056-1.113 0.281-1.563 0.625-0.806 0.619-1.319 1.519-1.281 1.719 0.063 0.313 0.125 0.313 0.375 0.406 0.369 0.137 2.688-0.094 2.688-0.094z"></path>
<path d="M5.506 16.712c-0.438-0.063-1.25-0.125-1.375-0.438s0-1.25 0.25-1.625c0.269-0.406 0.588-0.669 1.344-0.594 0.569 0.056 1.112 0.281 1.563 0.625 0.806 0.619 1.319 1.519 1.281 1.719-0.063 0.313-0.125 0.313-0.375 0.406-0.375 0.137-2.688-0.094-2.688-0.094z"></path>
<path d="M7.537 25.45l21.563-21.569v-1.962l-26.2 26.2v1.962l4.237-4.238z"></path>
</svg>
