<svg xmlns="http://www.w3.org/2000/svg" viewBox="0 0 32 32" width="100%" height="100%"><path d="M21.675 21.042h8.569l-.024-.516c-.173-3.664-1.727-7.081-4.377-9.621C23.183 8.355 19.687 6.95 16 6.95s-7.183 1.405-9.843 3.955c-2.65 2.541-4.204 5.957-4.377 9.621l-.024.516h8.574v-1.671H4.276c.17-1.096.49-2.156.955-3.162l1.533.967c.506.293 1.155.12 1.448-.386.142-.244.18-.53.107-.804-.072-.271-.243-.497-.483-.639l-1.546-.976c.68-.969 1.502-1.829 2.452-2.566l.999 1.615c.293.5.939.672 1.443.382.245-.141.42-.369.494-.643s.037-.559-.104-.804l-1.048-1.697c1.362-.713 2.827-1.145 4.369-1.286l-.004 1.992c-.001.584.474 1.061 1.058 1.062h.002c.584 0 1.059-.474 1.06-1.058l.004-2.004c1.602.137 3.164.598 4.569 1.349l-1.038 1.639c-.142.244-.18.53-.107.804s.248.503.492.645c.244.142.53.179.804.107.27-.072.497-.243.639-.482l.983-1.547c.927.734 1.729 1.588 2.394 2.547l-1.447.905c-.5.294-.671.938-.381 1.442.141.245.369.42.643.494s.559.037.804-.104l1.428-.893c.451.989.762 2.029.928 3.101h-6.05v1.671z"/><path d="M17.965 14.505L16.3 19.343h3.669l-5.99 6.626 1.665-4.838h-3.67z"/></svg>