<!-- Generated by IcoMoon.io -->
<svg version="1.1" xmlns="http://www.w3.org/2000/svg" width="100%" height="100%" viewBox="0 0 32 32">
<title>icon_afternoon</title>
<path d="M15.719 3.469h0.563c0.414 0 0.75 0.336 0.75 0.75v2.063c0 0.414-0.336 0.75-0.75 0.75h-0.563c-0.414 0-0.75-0.336-0.75-0.75v-2.063c0-0.414 0.336-0.75 0.75-0.75z"></path>
<path d="M6.94 7.338l0.398-0.398c0.293-0.293 0.768-0.293 1.061 0l1.458 1.458c0.293 0.293 0.293 0.768 0 1.061l-0.398 0.398c-0.293 0.293-0.768 0.293-1.061 0l-1.458-1.458c-0.293-0.293-0.293-0.768 0-1.061z"></path>
<path d="M4.219 14.969h2.063c0.414 0 0.75 0.336 0.75 0.75v0.563c0 0.414-0.336 0.75-0.75 0.75h-2.063c-0.414 0-0.75-0.336-0.75-0.75v-0.563c0-0.414 0.336-0.75 0.75-0.75z"></path>
<path d="M6.94 23.601l1.458-1.458c0.293-0.293 0.768-0.293 1.061 0l0.398 0.398c0.293 0.293 0.293 0.768 0 1.061l-1.458 1.458c-0.293 0.293-0.768 0.293-1.061 0l-0.398-0.398c-0.293-0.293-0.293-0.768 0-1.061z"></path>
<path d="M15.719 24.969h0.563c0.414 0 0.75 0.336 0.75 0.75v2.063c0 0.414-0.336 0.75-0.75 0.75h-0.563c-0.414 0-0.75-0.336-0.75-0.75v-2.063c0-0.414 0.336-0.75 0.75-0.75z"></path>
<path d="M22.143 22.541l0.398-0.398c0.293-0.293 0.768-0.293 1.061 0l1.458 1.458c0.293 0.293 0.293 0.768 0 1.061l-0.398 0.398c-0.293 0.293-0.768 0.293-1.061 0l-1.458-1.458c-0.293-0.293-0.293-0.768 0-1.061z"></path>
<path d="M25.719 14.969h2.063c0.414 0 0.75 0.336 0.75 0.75v0.563c0 0.414-0.336 0.75-0.75 0.75h-2.063c-0.414 0-0.75-0.336-0.75-0.75v-0.563c0-0.414 0.336-0.75 0.75-0.75z"></path>
<path d="M22.143 8.399l1.458-1.458c0.293-0.293 0.768-0.293 1.061 0l0.398 0.398c0.293 0.293 0.293 0.768 0 1.061l-1.458 1.458c-0.293 0.293-0.768 0.293-1.061 0l-0.398-0.398c-0.293-0.293-0.293-0.768 0-1.061z"></path>
<path d="M22.563 16c0 3.624-2.938 6.563-6.563 6.563s-6.563-2.938-6.563-6.563c0-3.624 2.938-6.563 6.563-6.563s6.563 2.938 6.563 6.563z"></path>
</svg>
