<svg xmlns="http://www.w3.org/2000/svg" viewBox="0 0 32 32" width="100%" height="100%"><path d="M15.456 8.369c-4.469 1.188-8.375 3.75-8.375 8.375 0 1.675.481 3.069 1.069 4.1l.825-.825c-.481-.938-.769-1.875-.769-3.275 0-.944.194-1.819.569-2.606.356-.738.881-1.419 1.563-2.031 1.269-1.131 3.144-2.05 5.406-2.65 2.175-.581 7.025-2.069 9.775-2.925-.85 2.938-2.369 8.219-2.788 9.95-.538 2.231-1.438 4.094-2.606 5.387-1.275 1.413-3.012 2.144-4.844 2.125-1.05-.012-2.131-.262-3.444-.962l-.956.744c1.313.85 2.875 1.35 4.556 1.35 4.625 0 7.287-3.881 8.375-8.375.6-2.4 3.375-11.919 3.375-11.919s-8.662 2.719-11.731 3.537z"/><path d="M4.818 26.384l10.973-10.973.796.795L5.614 27.179l-.795-.796z"/></svg>