<svg xmlns="http://www.w3.org/2000/svg" viewBox="0 0 32 32" width="100%" height="100%"><path d="M19.404 18.051l-4.143 3.476a1.061 1.061 0 0 0 .682 1.871c.24 0 .482-.081.68-.247l4.142-3.476c.216-.181.349-.437.374-.72s-.062-.557-.243-.774a1.061 1.061 0 0 0-1.493-.131z"/><path d="M21.675 22.693h8.569l-.024-.516a14.2 14.2 0 0 0-4.377-9.621c-2.66-2.55-6.156-3.955-9.843-3.955s-7.183 1.405-9.843 3.955a14.203 14.203 0 0 0-4.377 9.621l-.024.516h8.574v-1.671H4.276c.17-1.096.49-2.156.955-3.162l1.533.967a1.06 1.06 0 0 0 1.072-1.829l-1.546-.976a11.878 11.878 0 0 1 2.452-2.566l.999 1.615a1.062 1.062 0 0 0 1.937-.261 1.05 1.05 0 0 0-.104-.804l-1.048-1.697a11.644 11.644 0 0 1 4.369-1.286l-.004 1.992a1.062 1.062 0 0 0 1.058 1.062h.002a1.06 1.06 0 0 0 1.06-1.058l.004-2.004c1.602.137 3.164.598 4.569 1.349l-1.038 1.639c-.142.244-.18.53-.107.804a1.056 1.056 0 0 0 1.296.752c.27-.072.497-.243.639-.482l.983-1.547a11.87 11.87 0 0 1 2.394 2.547l-1.447.905a1.06 1.06 0 0 0 1.066 1.832l1.428-.893c.451.989.762 2.029.928 3.101h-6.05v1.671z"/></svg>