<svg xmlns="http://www.w3.org/2000/svg" viewBox="0 0 32 32" width="100%" height="100%"><path d="M9.7 11.75c1.131-.231 2.556-.438 3.769-.438h.169c.725 0 2.419 0 3.6.294a10.55 10.55 0 0 1 3.719 1.688c3.038.256 4.931.631 5.95 1.162.313.156.756.45 1.131.756.712.569.806.85.806 1.069 0 1.188-.294 2.081-.306 2.119l-.063.194-.188.081c-.019.006-.5.219-1.575.488a3.212 3.212 0 0 1-2.725 1.525c-1 0-1.894-.419-2.438-1.125H11.218a3.175 3.175 0 0 1-2.419 1.125c-1.1 0-2.094-.569-2.656-1.5l-1.531-.206-.069-.038c-.65-.319-1.388-1.288-1.388-1.819v-.031c.05-.775.256-2.15.631-2.75l.794.5c-.206.338-.425 1.363-.487 2.262.056.188.431.744.8.969l1.85.244.112.225a2.163 2.163 0 0 0 1.944 1.206c.706 0 1.375-.344 1.819-.938l.144-.188h11.294l.137.225c.35.563 1.019.9 1.794.9.837 0 1.606-.462 2.006-1.212l.1-.188.206-.05a12.67 12.67 0 0 0 1.406-.406c.075-.288.188-.85.2-1.531-.181-.238-.944-.831-1.425-1.075l-.006-.006c-.906-.475-2.775-.825-5.725-1.075l-.137-.012-.113-.069a9.477 9.477 0 0 0-3.481-1.606h-.006c-1.069-.269-2.744-.269-3.375-.269h-.169c-1.537 0-3.431.35-4.544.631L8.686 12 4.873 8.187l.625-.688 4.2 4.25zm-5.606 5.344z"/></svg>