<svg xmlns="http://www.w3.org/2000/svg" viewBox="0 0 32 32" width="100%" height="100%"><path d="M6.375 9.319h13.331a3.193 3.193 0 0 0 3.094 2.406c1.762 0 3.188-1.425 3.188-3.188S24.563 5.349 22.8 5.349a3.193 3.193 0 0 0-3.094 2.406H6.375a.781.781 0 0 0 0 1.562zM22.8 20.456a3.193 3.193 0 0 0-3.094 2.406H6.375a.781.781 0 0 0 0 1.562h13.331A3.193 3.193 0 0 0 22.8 26.83c1.762 0 3.188-1.425 3.188-3.188s-1.425-3.188-3.188-3.188zM12 16.094a3.188 3.188 0 1 1-6.376 0 3.188 3.188 0 0 1 6.376 0zM14.006 16.094a.625.625 0 1 1-1.25 0 .625.625 0 0 1 1.25 0zM15.988 16.094a.625.625 0 1 1-1.25 0 .625.625 0 0 1 1.25 0zM17.969 16.094a.625.625 0 1 1-1.25 0 .625.625 0 0 1 1.25 0zM19.956 16.094a.625.625 0 1 1-1.25 0 .625.625 0 0 1 1.25 0zM21.938 16.094a.625.625 0 1 1-1.25 0 .625.625 0 0 1 1.25 0zM23.919 16.094a.625.625 0 1 1-1.25 0 .625.625 0 0 1 1.25 0z"/></svg>