<!-- Generated by IcoMoon.io -->
<svg version="1.1" xmlns="http://www.w3.org/2000/svg" width="32" height="32" viewBox="0 0 32 32">
<title>icon_fax</title>
<path d="M9.519 6.987h12.983v2.029h-12.983v-2.029z"></path>
<path d="M4.528 10.498v9.505h3.953l0.007-3.008h1.512v8.49l8.001-0.005 3.978-3.978h0.006v-0.006l0.003-0.003-0.003-0.001v-4.498h1.535l-0.003 3.003h3.985v-9.499h-22.973zM8.485 14.509h-1.969v-2h1.969v2zM10.021 12.505h1.969v2h-1.969v-2zM18 23.503l-0-2.001 2.002-0-2.001 2.002zM20.484 20.002h-3.984v3.982h-5v-6.99h8.984v3.008z"></path>
</svg>
