<svg xmlns="http://www.w3.org/2000/svg" viewBox="0 0 32 32" width="100%" height="100%"><path d="M29.938 22.972v-.039l-.034-.028c-.005-.008-.004-.022-.011-.028-.025-.02-.059-.011-.063-.056-.016-.017 0-.11 0-.134l.051-.341.006-.129h.006v-.063h.006v-.078c.005-.033.008-.071.008-.109 0-.021-.001-.041-.003-.062l-.005-.154c.009-.031.014-.075.023-.106v-.056h.006l.002-.05c0-.034-.003-.067-.008-.099l-.045-.086-.011-.006v-.011l-.011-.006v-.011l-.028-.023v-.011l-.034-.028v-.007l-.084-.078-.063-.067h-.011l-.023-.028h-.011l-.017-.023h-.011l-.017-.023h-.011l-.017-.023-.017-.006-.006-.011h-.011l-.011-.017h-.011l-.011-.017-.017-.006-.006-.011h-.011l-.006-.011h-.011l-.006-.011-.017-.006-.011-.017h-.011l-.006-.011h-.011l-.011-.017h-.011l-.006-.011h-.011v-.006l-.017-.006-.006-.011h-.011l-.011-.017h-.012l-.006-.011-.017-.006v-.006h-.011l-.006-.011h-.011l-.006-.011h-.006l-.006-.011h-.011l-.006-.011h-.011l-.006-.011h-.011l-.006-.011h-.011l-.006-.011h-.011l-.006-.011h-.011l-.006-.011h-.011v-.007l-.023-.006v-.006h-.023l-.017-.028-.023-.006-.011-.011h-.011v-.006h-.011v-.006h-.014v-.006h-.011v-.006h-.011v-.006h-.011v-.006h-.011v-.006h-.017v-.006l-.034-.011v-.006h-.011v-.006h-.011v-.001h-.006v-.006h-.011v-.006h-.011v-.006h-.011v-.006h-.011v-.006h-.011v-.006h-.017v-.006l-.034-.011V20.5h-.011v-.006h-.011v-.006h-.011v-.006h-.011v-.006h-.011v-.006h-.011v-.006h-.013v-.006h-.017v-.006l-.023-.006v-.006h-.011v-.006h-.012v-.006h-.011v-.006l-.034-.011v-.006h-.017v-.006l-.023-.006v-.006h-.011v-.006h-.011v-.006l-.034-.011v-.006h-.017v-.006h-.011v-.006h-.011v-.006l-.034-.011v-.006h-.017v-.006h-.011v-.006h-.008v-.006l-.034-.011v-.006h-.017v-.006h-.012v-.006l-.034-.011v-.006h-.017v-.006h-.012v-.006h-.011v-.006l-.034-.011v-.006h-.017v-.006l-.023-.006v-.006h-.017V20.2h-.011v-.006l-.023-.006v-.006h-.017v-.006l-.023-.006v-.003h-.012v-.006l-.023-.006v-.006h-.017v-.006l-.023-.006v-.006h-.017v-.006h-.011v-.006h-.017v-.006h-.011v-.006l-.028-.006v-.006h-.017v-.006h-.011v-.006h-.017v-.006h-.011v-.006h-.017v-.006h-.011v-.006l-.051-.011c-.026-.016-.048-.034-.067-.056l-.012-.017h-.011l-.045-.051h-.011l-.028-.034h-.011l-.017-.023h-.011l-.017-.023h-.011l-.017-.023h-.011l-.011-.017h-.011l-.011-.017h-.011l-.006-.011h-.011l-.011-.017h-.011l-.006-.011-.017-.006v-.006h-.011l-.006-.011h-.011l-.006-.011H27.3l-.006-.011h-.011l-.006-.011h-.011v-.006h-.011l-.006-.011-.023-.006-.006-.011-.023-.006-.006-.011-.034-.011-.006-.011h-.011v-.006h-.011l-.011-.011h-.011c-.105-.064-.228-.127-.356-.181l-.063-.013v-.006h-.017v-.006h-.017v-.006h-.017v-.006h-.017v-.006l-.039-.006v-.006l-.045-.006v-.006h-.028v-.006h-.023v-.006h-.023v-.006h-.028v-.006l-.051-.006v-.006h-.028v-.006h-.028v-.006h-.028V19.3h-.028v-.006l-.063-.006v-.006h-.028v-.006h-.034v-.006c-.006 0-.015.011-.028.006l-.006-.011h-.017v-.006h-.028c-.045-.014-.106-.02-.151-.034h-.034c-.052-.016-.121-.018-.173-.034l-.084-.006c-.063-.019-.152-.014-.218-.034l-.106-.006v-.006h-.056v-.006h-.056v-.006h-.063v-.006h-.063v-.006H25v-.006h-.063v-.006h-.064v-.006h-.063v-.006l-.14-.006v-.002h-.073v-.006h-.067v-.006h-.078v-.006h-.08v-.006h-.078v-.006h-.078v-.006l-.168-.006v-.006h-.045c-.089-.026-.203-.024-.291-.051l-.112-.011c-.075-.023-.171-.023-.246-.045l-.073-.006c-.052-.016-.121-.018-.173-.034l-.067-.006-.521-.106-.016-.001c-.014 0-.028.002-.041.007h-.092v.006l-.129.006v.006h-.067s0 .004-.011.006h-.063c-.024.005-.053.008-.082.008-.017 0-.033-.001-.049-.003l.002-.005h-.051l-.006-.011-.023-.006v-.006l-.034-.011v-.006h-.017v-.006l-.023-.006v-.006l-.028-.006v-.006l-.063-.011-.011-.017-.023-.006v-.006l-.034-.011v-.006h-.028c-.009 0-.041-.017-.056-.011l-.006.011h-.039l-.006.011-.028.006v-.006l-.023-.006-.006-.011h-.011v-.006h-.011v-.006h-.011l-.006-.011h-.011l-.011-.011-.023-.006-.006-.011h-.011l-.011-.011h-.011l-.006-.011h-.011v-.006h-.011l-.011-.011h-.011l-.006-.011h-.011v-.006h-.011v-.006h-.011l-.011-.011h-.011l-.006-.011h-.011v-.006h-.011l-.011-.011h-.011l-.006-.011h-.011v-.006h-.011l-.011-.011h-.011l-.006-.011h-.011v-.006h-.011l-.011-.011h-.011l-.006-.011h-.011v-.006h-.011v-.006h-.011l-.011-.011h-.011l-.006-.011-.023-.006v-.006h-.011l-.011-.011h-.011l-.006-.011h-.011v-.006h-.011v-.006h-.011l-.011-.011h-.011l-.006-.011h-.011v-.006h-.011v-.006h-.011l-.011-.011h-.011l-.006-.011h-.011v-.006h-.011v-.006h.001l-.011-.011h-.011l-.006-.011h-.011l-.011-.011h-.012v-.006h-.011v-.003h-.011v-.006l-.023-.006-.006-.011h-.012l-.011-.011h-.011v-.006h-.011v-.006l-.023-.006-.006-.012h-.011l-.011-.011h-.011v-.006h-.011v-.006h-.011v-.006l-.023-.006-.006-.011h-.011l-.011-.011h-.011v-.006h-.011v-.006l-.023-.006-.006-.011-.089-.039-.006-.011h-.011l-.011-.011h-.011v-.006h-.011v-.006h-.011v-.006h-.011l-.084-.051h-.011v-.006H20.2v-.006h-.011v-.006h-.011l-.011-.011h-.011l-.006-.011h-.011l-.011-.011h-.011v-.006h-.011v-.006h-.011v-.006h-.011v-.006h-.011v-.006h-.007v-.006h-.011v-.006h-.011v-.006h-.011v-.003h-.011l-.011-.011H20l-.006-.011-.034-.011v-.006l-.023-.006v-.006h-.011v-.006h-.011v-.006h-.011v-.006h-.011v-.006l-.023-.006v-.006h-.011v-.006h-.011v-.006h-.011v-.006h-.011v-.006h-.011v-.006l-.023-.006-.006-.011h-.011l-.011-.011h-.009v-.006h-.011v-.006l-.034-.011v-.006l-.023-.006v-.006l-.023-.006v-.006h-.011v-.006h-.011v-.006h-.012v-.006h-.011v-.006h-.011v-.006h-.011v-.006h-.011v-.006h-.011v-.006h-.011v-.006l-.023-.006v-.002l-.023-.006v-.006l-.023-.006v-.006h-.011v-.006h-.011v-.006h-.011v-.006h-.011v-.006l-.034-.011v-.006l-.023-.006v-.006h-.014v-.006l-.034-.011v-.006h-.011v-.006h-.011v-.006h-.011v-.006l-.089-.039v-.006l-.023-.006v-.006h-.017v-.006l-.034-.011v-.006h-.011v-.006h-.011v-.006h-.011v-.006h-.011V17.4h-.011v-.006h-.011v-.006h-.015v-.006h-.011v-.006h-.017v-.006l-.023-.006v-.006h-.012v-.006h-.011v-.006l-.034-.011v-.006h-.017v-.006l-.023-.006v-.006h-.011v-.006h-.011v-.008h-.011v-.006l-.034-.011v-.006h-.017v-.006h-.011v-.006h-.008v-.006h-.011v-.006l-.034-.011v-.006h-.029v-.006h-.011v-.006h-.011v-.006l-.034-.011v-.006h-.017v-.006h-.011v-.006l-.034-.011v-.006h-.017v-.006h-.011v-.006h-.011v-.006l-.034-.011v-.006h-.017v-.006h-.011v-.006l-.034-.011v-.006h-.017v-.006l-.023-.006v-.006l-.023-.006v-.006h-.011v-.006H18.4v-.006h-.011v-.006l-.023-.006v-.006h-.017v-.006h-.011v-.006l-.034-.011v-.006h-.017v-.006h-.011v-.006l-.034-.011v-.006h-.017v-.006h-.011v-.006l-.023-.006v-.006h-.017v-.006h-.011v-.006l-.023-.006v-.006h-.012v-.006h-.011v-.006h-.011v-.006h-.011v-.006l-.029-.006v-.006l-.023-.006v-.006h-.017v-.006h-.011v-.006l-.023-.006v-.006h-.017v-.006h-.011v-.006l-.023-.006v-.006h-.017l-.023-.006v-.006h-.017v-.006h-.008v-.006l-.023-.006v-.006h-.017v-.006l-.023-.006v-.006h-.017v-.006l-.023-.006v-.006h-.017v-.006l-.023-.006v-.006h-.017v-.006h-.011v-.006l-.023-.006v-.006h-.017v-.006l-.023-.006v-.007h-.019v-.006l-.023-.006v-.006h-.017v-.006l-.023-.006v-.006h-.017v-.006l-.023-.006v-.006h-.017v-.006h-.007v-.006h-.017v-.006l-.023-.006v-.006h-.017v-.006l-.023-.006v-.006l-.056-.017-.017-.028h-.017v-.006h-.019v-.006h-.017v-.006h-.017v-.006h-.017v-.006l-.106-.023c-.104-.038-.227-.055-.336-.089h-.028v-.006h-.028v-.006h-.028v-.006h-.028v-.006h-.028c-.054-.017-.125-.023-.179-.039l-.073-.006c-.041-.012-.099-.016-.14-.028h-.045v-.006l-.084-.006v-.006h-.051V16.3h-.046v-.006h-.051v-.006h-.063v-.006h-.063v-.006h-.067v-.006h-.07v-.006l-.106-.006h-.056v-.006l-.319-.011c-.036-.005-.077-.008-.119-.008l-.072.003h-.053c-.044-.006-.095-.009-.147-.009-.033 0-.066.001-.098.004l-.033-.002c-.031 0-.061.003-.091.007h-.293v.006h-.168v.006c-.035.01-.094-.004-.129.006s-.087 0-.117.006h-.063l-.129.006v.006h-.078v.006h-.072v.006h-.076v.006h-.067v.006h-.067v.006h-.063v.006h-.063c-.08.023-.188.011-.269.034h-.051c-.055.016-.13.012-.188.028h-.051v.006h-.039v.006h-.045v.008h-.045v.006h-.039v.006h-.045v.006h-.045v.006h-.045v.006h-.039v.006l-.078.006c-.067.019-.152.019-.218.039h-.034v.006h-.034v.006h-.034v.006h-.039c-.063.018-.136.021-.196.039l-.067.006c-.039.012-.09.016-.129.028h-.034c-.036.011-.086.017-.125.028h-.034c-.025.008-.063.015-.089.023h-.034c-.098.03-.216.037-.313.067l-.063.006v.006h-.023v.006H10.8v.006h-.028v.004h-.028v.006l-.051.006v.006l-.056.006v.006l-.056.011-.006.011h-.011l-.023.028h-.011v.006l-.051.006-.089.028h-.027c-.13.043-.279.063-.408.106l-.112.023c-.099.036-.219.054-.319.089h-.023v.006h-.023v.006h-.023v.006h-.023c-.088.032-.192.052-.28.084h-.023v.006h-.017v.006h-.023v.006h-.023c-.063.022-.135.039-.196.063h-.023v.006H8.83v.006h-.023v.006H8.79v.006l-.039.006v.006l-.039.006v.006l-.056.011v.006h-.023v.006h-.017v.006h-.017v.006l-.072.017v.006h-.023v.006h-.017v.002H8.47v.006h-.017v.006h-.017v.006H8.42v.006h-.017v.006h-.017v.006h-.017v.006h-.017v.006h-.023v.006h-.017v.006h-.018v.006h-.023v.006h-.017v.006h-.017v.006H8.22v.006h-.017v.006h-.017v.006h-.023c-.222.081-.466.137-.683.224h-.017v.006h-.017v.006h-.017v.006h-.017v.006l-.051.011v.006H7.35v.006h-.017v.006l-.051.011v.006l-.051.011v.006H7.22v.006h-.017v.006h-.017v.006h-.017v.006h-.017l-.078.034-.051.011v.006l-.034.006c-.139.063-.298.102-.438.163h-.012v.006h-.017v.006h-.017v.006h-.017v.006h-.012v.006l-.034.006-.078.034h-.017v.006H6.33v.006h-.017v.006h-.017v.006h-.011v.006h-.017v.006h-.017v.003h-.017v.006h-.017v.006H6.2v.006h-.017v.006c-.017-.003-.033-.007-.047-.012l-.043.001v-.006h-.056v-.006h-.028v.006h-.028v.006l-.051.011v.006h-.018v.006h-.017v.006h-.017v.006h-.017v.006h-.012v.006l-.034.006v.006l-.034.006v.006h-.022v.006l-.034.006v.006h-.017v.006h-.017v.006h-.017v.006h-.017v.006H5.64v.007h-.017v.006l-.051.011v.006h-.018v.006l-.063.006v.006h-.019v.006h-.011v.006l-.034.006v.006h-.011v.006l-.034.006v.006h-.011v.006h-.017v.006h-.007v.006H5.33v.006c-.029.012-.068.015-.084.039-.011.011-.011.028-.011.051-.088 0-.17.021-.244.058l-.047.01v.006h-.011v.006l-.034.006v.006l-.034.006v.006h-.011v.006l-.051.011v.003h-.011v.006l-.051.011v.006H4.73v.006l-.034.006v.006h-.011v.006h-.017v.006h-.009v.006h-.017v.006h-.017v.006h-.011v.006h-.018v.006h-.011v.006h-.017v.006h-.011v.006H4.54v.006h-.011v.006h-.017v.006l-.022.006v.006h-.018v.006h-.011v.006h-.017v.006l-.028.006v.006h-.011v.006h-.017v.006l-.022.006v.006h-.017v.006h-.011v.006h-.015v.001l-.022.006v.006h-.015v.006l-.022.006v.006h-.017v.006h-.011v.006l-.022.006v.006h-.017v.006l-.034.011v.006h-.011v.006l-.022.006-.006.011h-.012l-.017.023h-.011l-.022.028H4.01c-.023 0-.046.004-.067.012l.001.005-.022.006-.006.011h-.011l-.011.011h-.011v.006h-.011v.006h-.011v.006h-.01v.006H3.84v.006l-.034.011v.006l-.028.006v.008l-.022.006v.006l-.022.006v.006l-.022.006v.006h-.011v.006H3.69v.006h-.011v.006h-.014v.006h-.011v.006h-.02v.006h-.011v.006h-.011v.006l-.034.011v.006h-.017v.006l-.022.006v.006h-.017v.006h-.011v.006l-.034.006c-.103.045-.227.073-.336.112l-.151.034-.011.017-.034.028v.011l-.022.017c-.009.012-.011.024-.022.034.004.021.01.039.016.057l-.006-.002-.101.106h-.011l-.07.07-.034.006-.011.017c-.021.014-.034.005-.039.039h-.017c-.008.014-.018.016-.022.034h-.011c-.006.026-.014.009-.006.039l-.028.023-.067.073h-.011l-.011.017h-.011v.006l-.011.006v.017l-.011.006v.006h-.011l-.006.011-.017.006-.006.023-.017.011v.017l-.011.006v.011l-.017.011-.017.023-.011.006v.011l-.033.027v.011l-.028.023v.011l-.011.006-.006.017-.022.017v.011l-.017.011v.011h-.006l-.006.017-.011.006v.011l-.017.011-.006.023h-.006l-.006.017-.011.006-.006.023-.011.006-.039.089-.011.106h-.006v.084c-.006.037-.009.08-.009.123s.003.086.009.128l-.001.073h.006v.063c.015.052.013.125.028.173v.039l.063.375h.006v.023h.006v.028h.006v.022h.006v.017c.018.033.037.074.053.116l.004.025c0 .031-.009.06-.024.085l-.011.005v.011l-.011.006v.011l-.011.006-.006.017-.017.011v.011l-.022.017v.011l-.022.017v.009l-.011.006v.011l-.011.006c-.008.017-.012.036-.012.056l.001.017.006-.001v.023l-.045.034v.011h-.003v.034h-.006v.017h-.006v.011h-.006v.011h-.006l.022.188c-.007.004-.007.009-.011.011h-.011l-.011.017h-.011c-.01.011-.017.026-.017.043v.002l.028.101h.006v.017h.006v.017h.006v.017h.006v.017h.006v.017h.006l.006.034h.006v.011h.006l.011.051h.006l.006.023h.006v.011l.011.006v.011l.034.028.017.023h.011l.006.011.028.006v.006l.022.006v.006l.056.011v.006h.017v.006h.022v.003h.039v.006h.039v.006l.118.006v.006h.063v.006h.063v.006h.034v.006h.017v.006h.028v.006l.051.006v.006h.034v.006h.039v.006h.039v.006l.151.017v.006l.034.011v.006l.051.017v.006h.011v.006h.017v.006h.017v.006l.039.006v.006l.039.006v.006h.017v.006h.011v.001h.011l.006.011h.013l.056.063c.054.037.116.068.183.088l.038.001v.006h.028v.006h.045v.006l.046.002c.031 0 .061-.003.091-.008h.114v-.006l.034-.011v-.006h.078v-.006l.028-.006.008-.016.134.006v.006h.103c.027.008.076 0 .106.006s.076 0 .106.006v.006l.14.006h.063v.006h.106v.006h.022v.006h.028v.006H4.9v.006l.022-.006.168.006c.051.014.116.019.168.034h.045v.006l.125.006v.006h.063v.006h.072c.032.007.069.011.106.011h.006c.003.008.008.008.011.011.013.021 0 .03.034.034.019.003.042.005.064.005.033 0 .065-.004.095-.011l.031.001c.028-.011.061-.017.095-.017v.006h.011v.006h.011v.006h.017v.006h.017v.006h.017v.007H6.1l.168.006c.008.019.017.036.029.051v.011l.011.006.006.023.011.006.006.023h.006l.006.017.011.006.006.023.017.011v.011l.011.006v.011h.006l.006.017.011.006v.011l.017.011v.011l.017.011v.011l.022.017v.011l.022.017v.011l.022.017v.006l.011.006v.011l.051.045v.01l.028.023.045.051h.011l.051.056h.011l.028.034h.011l.017.023h.011l.017.023h.011l.011.017h.011l.011.017.017.006.006.011h.011l.006.011h.011l.011.017.022.006.006.011h.011l.006.011h.011l.006.011h.011v.006h-.001l.006.011.022.006.006.011.034.011c.104.064.224.121.351.164l.058.01v.006h.017v.006l.051.006v.006h.022v.006h.022v.006h.028v.006h.028v.006l.095.011v.006l.078.006c.058.016.137.011.196.028h.067v.006h.078c.034.009.093-.004.129.006v.006c.018.002.04.003.062.003.038 0 .075-.003.111-.009l.08.001v-.006h.051c.047-.014.111-.014.157-.028h.034v-.006l.056-.006v-.006h.028v-.006h.023v-.006h.023v-.006h.023v-.006l.045-.006v-.006l.056-.011v-.006h.017v-.006h.017v-.006l.034-.006v-.006h.011v-.006l.034-.006v-.006h.011v-.006l.03-.006v-.006l.023-.006v-.006h.017v-.006h.011v-.006h.017v-.006l.034-.011v-.006h.011v-.006h.017v-.006l.034-.011v-.006h.011v-.006h.013v-.006h.011v-.006h.011l.011-.011h.011l.006-.011h.012v-.006h.011l.011-.011h.011l.006-.011h.011v-.006h.012l.006-.011h.011l.006-.011h.011l.006-.011.023-.006v-.006l.017-.006.006-.011h.011l.011-.017h.011l.006-.011h.011l.011-.017h.011l.011-.017h.011l.011-.017h.011l.017-.023h.011l.023-.028h.011l.028-.034h.011l.051-.056c.039-.03.074-.061.106-.095l.04-.045.034-.011.006-.011.034-.011.006-.011h.011l.006-.011h.011l.006-.011h.011l.006-.011h.011v-.006l.017-.006.006-.011h.011l.011-.017h.011l.006-.011h.011l.006-.011.017-.006.011-.017h.002l.011-.017h.011l.006-.011h.33l-.011.224.034.028h.006c.04 0 .078-.006.114-.018l.031.001c.033-.01.076-.016.106-.028.014-.045.023-.097.023-.151l.023-.017v-.006h1.529v.006h.034c.027.007.058.012.09.012h.424v-.006l.173-.011h.101c.034-.005.072-.008.111-.008l.059.002h.02v-.006h.213v.006l.023.006v.006l.593-.006h.403c.03-.005.065-.008.101-.008l.053.002h.428c.034-.005.074-.008.114-.008.023 0 .045.001.067.003h.343l.05.002c.036 0 .07-.003.105-.008h.914l.053.002c.037 0 .072-.003.108-.008l.729.006 1.645-.006.033.001c.03 0 .059-.002.087-.007h.657c.019-.002.041-.002.063-.002s.044.001.065.003l.048-.006v.006h.023v-.006h.034v.006l.005.001c.005 0 .009-.003.012-.006.019-.004.031.005.045.006l.045-.006v.006c.017.002.037.003.057.003.035 0 .07-.003.104-.009h.047l.056.002c.038 0 .074-.003.11-.008h.164v-.006h.14c.031-.009.084.004.117-.006v-.006h.089l.112-.017c.002-.005.006-.009.011-.011v-.017l.576-.011c.024.032.054.058.088.077l.013.018h.011l.006.011h.011l.006.011h.011l.006.011.017.006v.006l.023.006.006.011h.011v.006h.011l.006.011h.011l.039.028v.018l.017.011v.006l.011.006v.011l.051.045v.011l.028.023.045.051h.011l.051.056h.011l.023.028h.011l.023.028h.011l.011.017h.011l.011.017h.011l.011.017h.011l.011.017h.011l.006.011h.011l.011.017h.011l.006.011h.011l.006.011.017.006v.006l.023.006v.006l.017.006.006.011h.011v.004h.011l.006.011h.011v.006h.011l.011.011h.011l.006.011h.011l.011.011h.011v.006h.011v.006h.011v.001h.011v.006l.034.011v.006h.017v.006l.023.006v.006h.008v.006l.023.006v.006h.017v.006h.011v.006h.017v.006h.011v.006l.034.006v.006h.012v.006l.034.006v.006h.017v.006h.017v.006h.017v.006h.023v.006h.018v.006h.017v.006l.039.006v.006l.045.006v.006l.067.011v.006h.028c.033.01.079.018.112.028l.117.011v.006h.045v.006h.063v.006h.073c.036.005.077.008.119.008.024 0 .048-.001.071-.003l.025.001c.028 0 .055-.002.081-.007h.087v-.006h.063v-.006h.051v-.006h.045v-.006h.039v-.006h.034v-.006h.03v-.006h.034V24.5h.023v-.005h.028v-.006h.028v-.006l.045-.006v-.006l.045-.006v-.006l.039-.006v-.006h.017v-.006h.023v-.006h.011v-.006h.02v-.006h.011v-.006l.051-.011V24.4l.028-.006v-.006h.011v-.006h.017v-.006h.011v-.006h.017v-.006l.034-.011v-.006h.011v-.006h.011v-.006h.017v-.006h.011v-.006h.011l.006-.011h.011v-.006h.011V24.3h.011l.011-.011h.011l.006-.011.023-.006.006-.011.023-.006.006-.011h.009l.006-.011h.011l.006-.011h.011l.006-.011h.011l.006-.011h.011l.006-.011h.011l.006-.011h.011v-.001l.017-.006.006-.011h.011l.011-.017h.011l.006-.011h.011l.006-.011.017-.006.017-.023h.011l.011-.017.017-.006.034-.039h.011l.063-.067.073-.067.006-.017.039-.034v-.011l.028-.023V23.8l.023-.017v-.011l.023-.017v-.011l.017-.011.006-.017.011-.006v-.011l.011-.006.006-.017h.006v-.011l.011-.006.006-.017h.001l.006-.017h.291c.005.022.007.047.007.073l-.002.035c.012.012 0 .039.006.061h.006l.006.067c.007.015.015.034.021.053l.242.026.006.028c.017-.001.032-.005.046-.012l-.001-.134c.009-.004.02-.006.031-.006h.003c.024.025.115.006.151.006l.034.001c.044 0 .086-.004.127-.013l.03.001v-.006h.023v-.006l.039-.006v-.006h.017v-.006h.017v-.006l.095-.023c.15-.057.325-.084.481-.134h.028v-.008h.023v-.006h.028v-.006h.028v-.006l.258-.023v-.006h.028v-.006h.023v-.006h.023v-.006h.017v-.006h.011v-.006h.017v-.006h.011v-.006h.014v-.006l.129-.011v-.006h.051v-.006h.051v-.006h.051v-.006l.056-.006v-.006h.028v-.006h.028v-.006l.063-.006c.082-.025.181-.031.263-.056h.031v-.006h.028v-.006c.007-.003.016-.004.025-.004.023 0 .044.01.059.027v.011h.011l.006.011h.011l.006.011.067.023h.038v-.006h.006l.134-.006v-.006l.117-.006v-.006h.039v-.006h.034v-.006h.039c.057-.017.131-.021.188-.039h.023v-.006h.017v-.006h.023v-.006h.006v-.006h.017v-.006h.011v-.006h.011v-.006l.023-.017c.006-.009 0-.012.011-.023v-.045h-.006v-.011h-.005l-.006-.023-.011-.006c-.007-.013-.011-.028-.011-.045v-.006c.008-.005.008-.011.017-.017v-.006l.028-.006v-.006h.023v-.006h.028v-.006h.017l.006-.011c.041-.033.067-.084.067-.14-.014-.008-.016-.017-.032-.021zM21.35 7.341h-3.116V1.51h-4.357v5.831h-3.159l5.316 6.144 5.317-6.144z"/></svg>