<!-- Generated by IcoMoon.io -->
<svg version="1.1" xmlns="http://www.w3.org/2000/svg" width="32" height="32" viewBox="0 0 32 32">
<title>icon_broadcast</title>
<path d="M16.6 27.325h-1.075v-10.8c-0.925-0.238-1.606-1.069-1.606-2.069 0-1.188 0.963-2.144 2.144-2.144 1.188 0 2.144 0.963 2.144 2.144 0 1-0.688 1.831-1.606 2.069v10.8zM16.063 9.088c-2.956 0-5.363 2.406-5.363 5.362 0 1.481 0.6 2.819 1.575 3.794l0.756-0.756c-0.775-0.775-1.256-1.85-1.256-3.031 0-2.369 1.925-4.294 4.294-4.294s4.294 1.925 4.294 4.294c0 1.181-0.481 2.256-1.256 3.031l0.756 0.756c0.969-0.969 1.575-2.313 1.575-3.794-0.012-2.956-2.419-5.363-5.375-5.363zM16.063 6.944c-4.144 0-7.512 3.369-7.512 7.513 0 2.069 0.844 3.95 2.2 5.306l0.756-0.756c-1.162-1.163-1.887-2.775-1.887-4.55 0-3.55 2.888-6.438 6.437-6.438s6.438 2.887 6.438 6.438c0 1.775-0.725 3.381-1.887 4.55l0.756 0.756c1.363-1.363 2.2-3.238 2.2-5.306 0.012-4.144-3.356-7.513-7.5-7.513zM16.063 4.8c-5.325 0-9.656 4.331-9.656 9.656 0 2.663 1.081 5.075 2.831 6.825l0.756-0.756c-1.556-1.556-2.519-3.7-2.519-6.063 0-4.731 3.85-8.581 8.581-8.581s8.581 3.85 8.581 8.581c0 2.369-0.962 4.512-2.519 6.063l0.756 0.756c1.75-1.75 2.831-4.163 2.831-6.825 0.012-5.325-4.319-9.656-9.644-9.656z"></path>
</svg>
