<svg xmlns="http://www.w3.org/2000/svg" viewBox="0 0 32 32" width="100%" height="100%"><title>icon_afternoon</title><path d="M15.719 3.469h.563a.75.75 0 0 1 .75.75v2.063a.75.75 0 0 1-.75.75h-.563a.75.75 0 0 1-.75-.75V4.219a.75.75 0 0 1 .75-.75zM6.94 7.338l.398-.398a.75.75 0 0 1 1.061 0l1.458 1.458a.75.75 0 0 1 0 1.061l-.398.398a.75.75 0 0 1-1.061 0L6.94 8.399a.75.75 0 0 1 0-1.061zM4.219 14.969h2.063a.75.75 0 0 1 .75.75v.563a.75.75 0 0 1-.75.75H4.219a.75.75 0 0 1-.75-.75v-.563a.75.75 0 0 1 .75-.75zM6.94 23.601l1.458-1.458a.75.75 0 0 1 1.061 0l.398.398a.75.75 0 0 1 0 1.061L8.399 25.06a.75.75 0 0 1-1.061 0l-.398-.398a.75.75 0 0 1 0-1.061zM15.719 24.969h.563a.75.75 0 0 1 .75.75v2.063a.75.75 0 0 1-.75.75h-.563a.75.75 0 0 1-.75-.75v-2.063a.75.75 0 0 1 .75-.75zM22.143 22.541l.398-.398a.75.75 0 0 1 1.061 0l1.458 1.458a.75.75 0 0 1 0 1.061l-.398.398a.75.75 0 0 1-1.061 0l-1.458-1.458a.75.75 0 0 1 0-1.061zM25.719 14.969h2.063a.75.75 0 0 1 .75.75v.563a.75.75 0 0 1-.75.75h-2.063a.75.75 0 0 1-.75-.75v-.563a.75.75 0 0 1 .75-.75zM22.143 8.399l1.458-1.458a.75.75 0 0 1 1.061 0l.398.398a.75.75 0 0 1 0 1.061l-1.458 1.458a.75.75 0 0 1-1.061 0l-.398-.398a.75.75 0 0 1 0-1.061zM22.563 16a6.563 6.563 0 1 1-13.126 0 6.563 6.563 0 0 1 13.126 0z"/></svg>