<svg xmlns="http://www.w3.org/2000/svg" width="32" height="32" viewBox="0 0 32 32"><title>icon_door_right1_next</title><path d="M29.125 16.4c0-.125.012-3.363-1.7-4.994-.694-.662-1.563-.975-2.613-.919l-2.719.281c-.038 0-3.356.006-5.125.006-1.95 0-5.488 0-5.713-.006-.262-.006-.912-.094-1.544-.181-.713-.1-1.444-.2-1.831-.213-.656-.025-1.075.225-1.344.4-.875.019-1.619.338-2.206.944-1.375 1.406-1.456 3.956-1.456 4.563v.231c0 .619.087 3.15 1.45 4.556.612.631 1.388.95 2.225.969.225.144.65.406 1.325.375.394-.012 1.125-.113 1.831-.212.631-.087 1.281-.181 1.544-.181.225-.006 3.762-.006 5.712-.006v-.938c-1.963 0-5.506 0-5.738.006-.313.006-.963.094-1.65.194-.656.087-1.394.194-1.744.206-.388.012-.619-.125-.8-.238a.973.973 0 0 0-.306-.144l-.112-.012c-.662 0-1.194-.219-1.625-.663-1.25-1.288-1.188-3.981-1.188-4.012v-.025c0-.025-.069-2.719 1.188-4.012.431-.444.963-.662 1.625-.662l.112-.012c.112-.025.206-.088.306-.144.181-.113.412-.256.8-.238.344.012 1.088.113 1.744.206.688.094 1.338.188 1.65.194.231.006 3.775.006 5.738.006 1.4 0 5.031-.006 5.175-.006l2.744-.281c.762-.044 1.381.175 1.887.656 1.4 1.331 1.413 4.206 1.413 4.319-.025.038.006 2.956-1.413 4.313-.506.488-1.125.7-1.863.663l-2.819-.288c-.206 0 .125-.006-2.381-.006l-.006.006-.019-.025-6.1 6.1.662.663 5.806-5.806h1.994l2.794.288c1.025.056 1.894-.256 2.587-.919 1.706-1.65 1.706-4.887 1.7-5zm-12.656 2.981l2.494.294a.308.308 0 0 0 .337-.244l.087-.394a12.706 12.706 0 0 0 0-5.275l-.087-.4a.31.31 0 0 0-.337-.244l-2.5.281.087.662a18.8 18.8 0 0 1 0 4.669l-.081.65zM8.537 13.4l-1.125-.287a.31.31 0 0 0-.338.244l-.081.394a12.706 12.706 0 0 0 0 5.275l.081.4a.31.31 0 0 0 .338.244l1.131-.288-.081-.663a18.8 18.8 0 0 1 0-4.669l.075-.65z"/></svg>