<svg xmlns="http://www.w3.org/2000/svg" viewBox="0 0 32 32" width="100%" height="100%"><path d="M16.6 27.325h-1.075v-10.8a2.133 2.133 0 0 1-1.606-2.069 2.143 2.143 0 1 1 4.288 0c0 1-.688 1.831-1.606 2.069v10.8zm-.537-18.237A5.37 5.37 0 0 0 10.7 14.45c0 1.481.6 2.819 1.575 3.794l.756-.756a4.28 4.28 0 0 1-1.256-3.031c0-2.369 1.925-4.294 4.294-4.294s4.294 1.925 4.294 4.294a4.28 4.28 0 0 1-1.256 3.031l.756.756a5.358 5.358 0 0 0 1.575-3.794c-.012-2.956-2.419-5.363-5.375-5.363zm0-2.144c-4.144 0-7.512 3.369-7.512 7.513 0 2.069.844 3.95 2.2 5.306l.756-.756a6.428 6.428 0 0 1-1.887-4.55c0-3.55 2.888-6.438 6.437-6.438s6.438 2.887 6.438 6.438a6.438 6.438 0 0 1-1.887 4.55l.756.756a7.477 7.477 0 0 0 2.2-5.306c.012-4.144-3.356-7.513-7.5-7.513zm0-2.144c-5.325 0-9.656 4.331-9.656 9.656a9.621 9.621 0 0 0 2.831 6.825l.756-.756a8.552 8.552 0 0 1-2.519-6.063c0-4.731 3.85-8.581 8.581-8.581s8.581 3.85 8.581 8.581a8.529 8.529 0 0 1-2.519 6.063l.756.756a9.623 9.623 0 0 0 2.831-6.825c.012-5.325-4.319-9.656-9.644-9.656z"/></svg>