<!-- Generated by IcoMoon.io -->
<svg version="1.1" xmlns="http://www.w3.org/2000/svg" width="100%" height="100%" viewBox="0 0 32 32">
<title>icon_wind-tunnel</title>
<path d="M15.978 15.918l-0.004-0.003-0.005-0.002h-0.005l-0.004 0.002-0.003 0.004-0.002 0.005v0.005l0.002 0.004 0.004 0.003 0.005 0.002h0.005l0.004-0.002 0.003-0.004 0.002-0.005v-0.005l-0.002-0.004zM16 5.594c-5.713 0-10.344 4.631-10.344 10.344s4.631 10.344 10.344 10.344 10.344-4.631 10.344-10.344-4.631-10.344-10.344-10.344zM22.753 19.861l-6.768-3.906 7.080 6.202h-2.334l-4.759-6.199 4.167 8.44-2.156-0.893-2.024-7.548 0.62 9.392-1.65-1.65 1.018-7.748-3.021 8.914-0.893-2.156 3.906-6.768-6.202 7.080v-2.334l6.199-4.759-8.44 4.167 0.893-2.156 7.548-2.024-9.392 0.62 1.65-1.65 7.748 1.018-8.914-3.021 2.156-0.893 6.768 3.906-7.080-6.202h2.334l4.759 6.199-4.167-8.44 2.156 0.893 2.024 7.548-0.62-9.392 1.65 1.65-1.018 7.748 3.021-8.914 0.893 2.156-3.906 6.768 6.202-7.080v2.334l-6.199 4.759 8.44-4.167-0.893 2.156-7.548 2.024 9.392-0.62-1.65 1.65-7.748-1.018 8.914 3.021-2.156 0.893z"></path>
<path d="M15.996 15.918l-0.010-0.008 0.001 0.008 0.008 0.001 0.001-0.001zM16.011 15.921l-0.001-0.013-0.005 0.006 0.005 0.007h0.001zM16.028 15.924l-0.008 0.001-0.001 0.008 0.001 0.001 0.009-0.010zM16.012 15.942l-0.001-0.010-0.007-0.007-0.010 0.001-0.007 0.007 0.001 0.010 0.007 0.007 0.010-0.001 0.006-0.007zM15.972 15.951l0.008-0.001 0.001-0.008-0.001-0.001-0.009 0.010zM15.977 15.933l0.007-0.005v-0.001l-0.013 0.001 0.006 0.005zM15.989 15.954l0.001 0.013 0.005-0.006-0.005-0.007h-0.001zM16 5.594c-5.713 0-10.344 4.631-10.344 10.344s4.631 10.344 10.344 10.344 10.344-4.631 10.344-10.344-4.631-10.344-10.344-10.344zM16.015 15.957l-0.001 0.008 7.081 6.204h-2.334l-4.765-6.207-0.007 0.005 0.62 9.394-1.65-1.65 1.020-7.759-0.008-0.001-6.204 7.081v-2.334l6.207-4.765-0.005-0.007-9.394 0.62 1.65-1.65 7.759 1.020 0.001-0.008-7.081-6.204h2.334l4.765 6.207 0.007-0.005-0.62-9.394 1.65 1.65-1.020 7.759 0.008 0.001 6.204-7.081v2.334l-6.207 4.765 0.005 0.007 9.394-0.62-1.65 1.65-7.759-1.020zM16.017 15.947v0.001l0.013-0.001-0.006-0.005-0.006 0.005zM16.005 15.956l-0.001 0.001 0.010 0.008v-0.008l-0.008-0.001z"></path>
</svg>
