<!-- Generated by IcoMoon.io -->
<svg version="1.1" xmlns="http://www.w3.org/2000/svg" width="32" height="32" viewBox="0 0 32 32">
<title>icon_registration</title>
<path d="M5.031 6.938v20.063h21.938v-20.063zM25.063 25.031h-18.023v-14.031h18.023z"></path>
<path d="M9 5h2v3.021h-2v-3.021z"></path>
<path d="M21 4.989h2v3.021h-2v-3.021z"></path>
<path d="M9 12.989h3.521v3.521h-3.521v-3.521z"></path>
<path d="M14.289 12.989h3.521v3.521h-3.521v-3.521z"></path>
<path d="M19.479 12.989h3.521v3.521h-3.521v-3.521z"></path>
<path d="M9 18h3.521v3.521h-3.521v-3.521z"></path>
<path d="M14.289 18h3.521v3.521h-3.521v-3.521z"></path>
<path d="M19.479 18h3.521v3.521h-3.521v-3.521z"></path>
</svg>
