<svg xmlns="http://www.w3.org/2000/svg" viewBox="0 0 32 32" width="100%" height="100%"><path d="M12.388 26.277l-7.25-18.93 1.701-.063 7.25 18.93z"/><path d="M7.246 8.598s1.481-1.567 3.481-2.211l1.528 3.919s-1.974.709-3.585 2.222L7.295 8.743z"/><path d="M12.255 10.306l1.648 4.226s1.296-.46 2.188-.46a14.03 14.03 0 0 1 1.851.139l-1.27-4.502a5.892 5.892 0 0 0-.755-.047 11.252 11.252 0 0 0-3.74.67zM10.275 16.977l1.396 3.961s1.931-1.849 3.769-2.369l-1.537-4.037c-1.771.681-3.629 2.446-3.629 2.446zM15.568 5.563l1.105 4.148c.894 0 3.378 1.216 3.378 1.216l-.979-4.284c-.563-.213-2.033-1.014-3.504-1.081z"/><path d="M17.868 14.201l1.137 4.27c.573 0 2.215.699 2.929.699l-.96-4.198c-.925-.24-2.421-.675-3.107-.771zM20.05 10.924l.925 4.049s.926.171 1.563.171S23.963 15 23.963 15l-.301-3.707a4.995 4.995 0 0 1-1.355.188c-1.161.002-2.257-.556-2.257-.556z"/><path d="M23.337 7.277l.325 4.016s1.511-.379 3.171-1.633V5.506c-1.906 1.458-3.496 1.771-3.496 1.771zM23.962 15a10.06 10.06 0 0 0 2.918-1.116l-.049 4.393c-1.506.722-2.541.852-2.541.852z"/></svg>