<!-- Generated by IcoMoon.io -->
<svg version="1.1" xmlns="http://www.w3.org/2000/svg" width="100%" height="100%" viewBox="0 0 32 32">
<title>icon_mileage_next</title>
<path d="M22.788 12.981c-3.731-3.731-9.844-3.731-13.575 0-2.037 2.037-2.969 4.75-2.8 7.381h2.375v-1.188h-1.188c0.125-1.738 0.762-3.481 2.037-4.919l0.85 0.85 0.85-0.85-0.806-0.806c1.4-1.231 3.137-1.869 4.919-2.037v1.188h1.188v-1.188c1.738 0.125 3.481 0.762 4.919 2.037l-0.85 0.85 0.85 0.85 0.806-0.806c1.231 1.4 1.869 3.137 2.038 4.919h-1.188v1.188h2.375c0.169-2.719-0.762-5.431-2.8-7.469z"></path>
<path d="M16.85 19.769c-0.087-0.087-0.125-0.125-0.256-0.169v-4.919l-0.594-0.85-0.594 0.85v4.919c-0.088 0.087-0.169 0.087-0.256 0.169-0.469 0.469-0.469 1.231 0 1.7s1.231 0.469 1.7 0c0.462-0.469 0.462-1.231 0-1.7z"></path>
</svg>
