<svg xmlns="http://www.w3.org/2000/svg" viewBox="0 0 32 32" width="100%" height="100%"><path d="M30.408 22.219v-.039l-.034-.028c-.005-.008-.004-.022-.011-.028-.025-.02-.059-.011-.063-.056-.015-.017 0-.11 0-.134l.051-.341q0-.063.006-.129h.006v-.063h.006v-.078c.005-.033.008-.07.008-.109l-.002-.061L30.37 21c.009-.031.014-.075.023-.106v-.056h.006l.002-.05c0-.034-.003-.067-.008-.099l-.045-.086-.011-.006v-.011l-.011-.006v-.011l-.028-.023v-.011l-.034-.028v-.011l-.084-.078-.063-.067h-.011l-.023-.028h-.011l-.017-.023h-.011l-.017-.023h-.011l-.017-.023-.017-.006-.006-.011h-.011l-.011-.017h-.011l-.011-.017-.017-.006-.006-.011h-.011l-.006-.011h-.011l-.006-.011-.017-.006-.011-.017h-.011l-.006-.011h-.011l-.011-.017h-.011l-.006-.011h-.011v-.006l-.017-.006-.006-.011h-.006l-.011-.017h-.011l-.006-.011-.017-.006v-.006h-.011l-.006-.011h-.011l-.006-.011h-.011l-.006-.011h-.011l-.006-.011h-.012l-.006-.011h-.011l-.006-.011h-.011l-.006-.011h-.011l-.006-.011h-.011l-.006-.011h-.011v-.003l-.023-.006v-.006h-.023l-.017-.028-.023-.006-.011-.011h-.011v-.006h-.011v-.006h-.011v-.006H29.4v-.006h-.011v-.006h-.014v-.006h-.011v-.006h-.017v-.006l-.034-.011v-.006h-.011v-.006h-.011v-.006h-.011v-.006h-.011v-.006h-.011v-.006h-.007v-.006h-.011v-.006h-.011v-.006h-.017v-.006l-.034-.011v-.006h-.011v-.006h-.011v-.006h-.011v-.006h-.011v-.006h-.011v-.006h-.011v-.006h-.011v-.006h-.017v-.006l-.023-.006v-.006h-.011v-.006h-.011v-.006h-.011v-.006l-.034-.011v-.006h-.017v-.006l-.023-.006v-.006h-.011v-.006h-.011v-.006l-.034-.011v-.006h-.017v-.006h-.011v-.006h-.011v-.006l-.034-.011v-.006h-.017v-.006h-.011v-.006h-.011v-.007l-.034-.011v-.006h-.017v-.006h-.011v-.006l-.034-.011v-.006h-.017v-.006h-.011v-.006h-.011v-.006l-.034-.011v-.006H28.6v-.006l-.023-.006v-.006h-.012v-.006h-.011v-.006l-.023-.006v-.006h-.017v-.006l-.023-.006v-.006h-.017v-.006l-.023-.006v-.006h-.017v-.006l-.023-.006v-.006h-.017v-.006h-.011v-.006h-.017v-.006h-.011v-.002l-.028-.006v-.006h-.017v-.006h-.011v-.006h-.017v-.006h-.011v-.006h-.017v-.006h-.011v-.006l-.051-.011c-.026-.016-.048-.034-.067-.055l-.012-.017h-.011l-.045-.051h-.011l-.028-.034h-.011l-.017-.023h-.011l-.017-.023h-.011l-.017-.023h-.011l-.011-.017h-.011l-.011-.017h-.011l-.006-.011h-.011l-.011-.017h-.011l-.006-.011-.017-.006v-.006h-.011l-.006-.011h-.011l-.006-.011h-.011l-.006-.011h-.011l-.006-.011h-.011v-.006h-.011l-.006-.011-.023-.006-.006-.011-.023-.006-.006-.011-.034-.011-.006-.011h-.011v-.006h-.011l-.011-.011h-.011c-.105-.064-.228-.127-.356-.181l-.069-.018v-.006h-.017v-.006h-.011v-.006h-.017v-.006h-.017v-.006l-.039-.006v-.006l-.045-.006v-.006h-.028v-.001h-.023v-.006h-.023v-.006h-.028v-.006l-.051-.006v-.006h-.028v-.006h-.028v-.006h-.028v-.006h-.028v-.006l-.063-.006v-.006h-.028v-.006h-.034v-.006c-.006 0-.015.011-.028.006l-.006-.011h-.017v-.006h-.028c-.045-.014-.106-.02-.151-.034h-.034c-.052-.016-.121-.018-.173-.034l-.084-.006c-.063-.019-.152-.014-.218-.034l-.106-.006v-.006h-.056v-.006h-.056v-.006h-.063v-.006h-.063v-.006h-.063v-.006h-.063v-.006h-.067v-.006h-.067v-.008l-.14-.006v-.006h-.069v-.006h-.069v-.006h-.078v-.006h-.078v-.006h-.078v-.006h-.078v-.006l-.168-.006v-.006h-.045c-.089-.026-.202-.024-.291-.051l-.112-.011c-.075-.023-.171-.023-.246-.045l-.073-.006c-.052-.016-.121-.018-.173-.034l-.067-.006-.521-.106-.016-.001c-.014 0-.028.002-.041.007h-.088v.006l-.129.006v.006h-.067s0 .005-.011.006h-.063c-.025.005-.053.008-.082.008-.017 0-.033-.001-.049-.003l.002-.005h-.051l-.006-.011-.023-.006v-.006l-.034-.011v-.006h-.017v-.006l-.023-.006v-.006l-.028-.006v-.006l-.063-.011-.011-.017-.023-.006v-.006l-.034-.011v-.006h-.028c-.009 0-.041-.017-.056-.011l-.006.011h-.039l-.006.011-.028.006v-.006l-.023-.006-.006-.011h-.011v-.006h-.011V17.9h-.011l-.006-.011h-.011l-.011-.011-.023-.006-.006-.011h-.011l-.011-.011h-.011l-.006-.011h-.008v-.006h-.011l-.011-.011h-.011l-.006-.011h-.011v-.006h-.012v-.006h-.011l-.011-.011h-.011l-.006-.011h-.011v-.006h-.012l-.011-.011h-.011l-.006-.011h-.011v-.006h-.011l-.011-.011h-.011l-.006-.011h-.011v-.006h-.011l-.011-.011h-.011l-.006-.011h-.011v-.006h-.011v-.006h-.011l-.011-.011h-.011l-.006-.011-.023-.006v-.006h-.011l-.011-.011h-.011l-.006-.011h-.011v-.006h-.011v-.006h-.011l-.011-.011h-.011l-.006-.011h-.011v-.006h-.011v-.006h-.011l-.011-.011h-.011l-.006-.011h-.011v-.006h-.011v-.006h-.011l-.011-.011h-.011l-.006-.011h-.011l-.011-.011h-.011v-.006h-.011V17.5h-.011v-.006l-.023-.006-.006-.011h-.011l-.011-.011h-.011v-.006h-.006v-.006l-.023-.006-.006-.011h-.011l-.011-.011h-.012v-.006h-.011v-.006h-.011v-.006l-.023-.006-.006-.011h-.012l-.011-.011h-.011v-.006h-.011v-.006l-.023-.006-.006-.011-.089-.039-.006-.011h-.011l-.011-.011h-.008v-.006h-.011v-.006h-.011v-.006h-.011l-.084-.051h-.011v-.006h-.011v-.006h-.011v-.006h-.011l-.011-.011h-.014l-.006-.011h-.011l-.011-.011h-.011v-.006h-.011v-.006h-.012v-.006h-.011v-.006h-.011v-.006h-.011v-.006h-.011v-.001h-.011v-.006H20.5v-.006h-.011l-.011-.011h-.011l-.006-.011-.034-.011v-.006l-.023-.006v-.006h-.011v-.006h-.011v-.006h-.011v-.006h-.011v-.006l-.023-.006v-.006h-.011v-.006h-.013v-.006h-.011v-.006h-.011v-.006h-.011v-.006l-.023-.006-.006-.011h-.011l-.011-.011h-.011v-.006h-.011v-.006l-.034-.011v-.006l-.023-.006v-.001l-.023-.006v-.006h-.011v-.006h-.011v-.006h-.011v-.006h-.011v-.006h-.011v-.006h-.008v-.006h-.011v-.006h-.011v-.006h-.011v-.006l-.023-.006v-.006l-.023-.006v-.006l-.023-.006v-.006h-.011v-.006h-.012v-.006h-.011v-.006h-.011v-.006l-.034-.011v-.006l-.023-.006v-.006h-.017v-.006l-.034-.011v-.006h-.011v-.006h-.011v-.006h-.011v-.007l-.089-.039v-.006l-.023-.006v-.006h-.017v-.006l-.034-.011v-.006h-.011v-.006h-.011v-.006h-.011v-.006h-.011v-.006h-.011v-.006h-.011v-.006h-.011v-.006h-.011v-.006h-.017v-.006l-.023-.006v-.006h-.011v-.006h-.011v-.006l-.034-.011v-.006h-.017v-.006l-.023-.006v-.006h-.011v-.006h-.011v-.006h-.011v-.006l-.034-.011v-.006h-.017v-.006h-.011v-.006h-.011v-.006h-.011v-.006l-.034-.011v-.006h-.017v-.006h-.011v-.006h-.011v-.006h-.008v-.006l-.034-.011v-.006h-.017v-.006h-.012v-.006l-.034-.011v-.006h-.017v-.006h-.011v-.006h-.011v-.006l-.034-.011v-.006h-.017v-.006h-.011v-.006l-.034-.011v-.006h-.017v-.006l-.023-.006v-.006l-.023-.006v-.006h-.011v-.006h-.017v-.006h-.011v-.006l-.023-.006v-.006h-.017v-.006h-.011v-.006l-.034-.011v-.006h-.017v-.006h-.004v-.006l-.034-.011v-.003H18.7v-.006h-.012v-.006l-.023-.006v-.006h-.017v-.006h-.011v-.006l-.023-.006v-.006h-.017v-.006h-.011v-.006h-.011v-.006h-.012v-.006l-.028-.006v-.006l-.023-.006v-.006h-.017v-.006h-.011v-.006l-.023-.006v-.006h-.017v-.006h-.011v-.006l-.023-.006v-.006h-.017v-.006l-.023-.006v-.006h-.017v-.006h-.011v-.006l-.023-.006v-.006h-.017v-.006l-.023-.006v-.006h-.017v-.006l-.023-.006v-.006h-.017v-.006l-.023-.006v-.006h-.015v-.006h-.011v-.006l-.023-.006v-.007h-.017l-.023-.006v-.006h-.017v-.006l-.023-.006v-.006h-.017v-.006l-.023-.006v-.006h-.017v-.006l-.023-.006v-.006h-.017v-.006h-.011v-.006h-.017v-.006l-.023-.006v-.006h-.017v-.006l-.023-.006v-.006l-.056-.017-.017-.028h-.017v-.006h-.017v-.006h-.017v-.006h-.016v-.006h-.017v-.006l-.106-.023c-.104-.037-.227-.055-.336-.089h-.028v-.006h-.028v-.006h-.028v-.009h-.028v-.006h-.028c-.054-.017-.125-.023-.179-.039l-.073-.006c-.041-.012-.099-.016-.14-.028h-.045v-.006l-.084-.006v-.006h-.051v-.006h-.051v-.006h-.051v-.006h-.063v-.006h-.063v-.007h-.134v-.006l-.106-.006h-.051v-.006l-.319-.011c-.036-.005-.077-.008-.119-.008-.024 0-.048.001-.071.003h-.053c-.044-.006-.095-.009-.147-.009-.033 0-.066.001-.098.004l-.033-.002c-.031 0-.061.002-.091.007h-.293v.006h-.168v.006c-.036.01-.094-.004-.129.006s-.087 0-.117.006h-.063l-.129.006v.006h-.151v.006h-.082v.006h-.063v.006h-.067v.006h-.063v.006h-.063c-.08.023-.188.011-.269.034h-.051c-.055.016-.13.012-.188.028h-.051v.006h-.039v.006h-.045v.006h-.041v.006h-.039v.006h-.045v.007h-.045v.006h-.045v.006h-.039v.006l-.078.006c-.067.019-.152.019-.218.039h-.034v.006h-.034v.006h-.034v.006h-.039c-.063.018-.136.021-.196.039l-.067.006c-.039.012-.09.016-.129.028h-.034c-.036.011-.086.017-.125.028h-.034c-.025.008-.063.015-.089.023h-.034c-.098.03-.216.037-.313.067l-.063.006v.006h-.018v.006h-.028v.006h-.028v.006h-.028v.006l-.051.006v.004l-.056.006v.006l-.056.011-.006.011h-.011l-.023.028h-.011v.006l-.051.006-.089.028h-.028c-.129.043-.28.063-.409.106l-.112.023c-.099.036-.219.054-.319.089h-.023v.006h-.023v.006h-.024v.006h-.023c-.088.032-.192.052-.28.084h-.023v.006h-.017v.006h-.023v.006h-.023c-.063.022-.135.04-.196.063h-.023v.006h-.017v.006h-.023v.006h-.017v.006l-.039.006v.006l-.039.006v.006l-.056.011v.006h-.016v.006h-.017v.006h-.017v.006L9 16.562v.006h-.023v.006H8.96v.006h-.017v.006h-.017v.006h-.017v.006h-.023v.006h-.017v.006h-.017v.006h-.017v.006h-.017v.006h-.026v.006h-.017v.006h-.017v.006h-.023v.006h-.017v.006h-.017v.006h-.017v.006h-.017v.006H8.65v.006h-.023c-.221.081-.466.137-.683.224h-.017v.004h-.013v.006h-.017v.006H7.88v.006l-.051.011v.006h-.011v.006h-.017v.006l-.051.011v.006l-.051.011v.006h-.011v.006h-.017v.006h-.017v.006h-.017v.006H7.62l-.078.034-.051.011v.006l-.034.006c-.139.063-.298.102-.438.163h-.017v.006h-.017v.006h-.017v.006h-.017v.006H6.94v.006l-.034.006-.078.034h-.017v.006h-.017v.006h-.017v.006H6.76v.006h-.011v.006h-.017v.006h-.017v.006h-.017v.006h-.017v.004h-.017v.006h-.017v.006c-.017-.003-.033-.007-.047-.012l-.043.001v-.006h-.056v-.006h-.028v.006h-.028v.006l-.051.011v.006h-.017v.006H6.36v.006h-.013v.006H6.33v.006h-.017v.006l-.034.006v.006l-.034.006v.006h-.024v.006l-.034.006v.006H6.17v.006h-.012v.006h-.017v.006h-.017v.006h-.017v.006H6.09v.006l-.051.011v.006h-.017v.006l-.063.006v.006h-.017v.006h-.011v.006l-.034.006v.006h-.011v.006l-.034.006v.006h-.011v.006h-.017v.006h-.011v.006h-.017v.006c-.029.012-.068.015-.084.039-.011.011-.011.028-.011.051-.087 0-.17.021-.243.057l-.047.01v.004H5.4v.006l-.034.006v.006l-.034.006v.006h-.011v.006l-.051.011v.006h-.011v.006l-.051.011v.006h-.011v.006l-.034.006v.006h-.011v.006h-.017v.006h-.011v.006h-.017v.006H5.09v.006h-.011v.007h-.015v.006h-.011v.006h-.02v.006h-.011v.006h-.014v.006h-.011v.006H4.98v.006l-.022.006v.006h-.017v.006H4.93v.006h-.017v.006l-.028.006v.006h-.011v.006h-.017v.006l-.022.006v.006h-.017v.006h-.011v.006H4.79v.006l-.022.006v.006h-.017v.006l-.022.006v.006h-.017v.006h-.011v.006l-.022.006v.006h-.018v.006l-.034.011v.006h-.011v.006l-.022.006-.006.011H4.58l-.017.023h-.011l-.022.028h-.052c-.023 0-.046.004-.067.012l.001.005-.022.006-.006.011h-.011l-.011.011h-.013v.003h-.011v.006h-.011v.006h-.011v.006h-.011v.006l-.034.011v.006l-.028.006v.006l-.022.006v.006l-.022.006v.006l-.022.006v.006h-.011v.006h-.008v.006h-.011v.006h-.011v.006h-.011v.006h-.011v.006h-.011v.006h-.011v.006h-.011v.006l-.034.011v.006H4.03v.006l-.022.006v.006h-.017v.006h-.013v.006l-.034.006c-.103.045-.227.073-.336.112l-.151.034-.011.017-.031.026v.011l-.022.017c-.009.012-.011.024-.022.034.003.019.007.036.012.053l-.006-.002-.101.106h-.011l-.067.075-.034.006-.011.017c-.021.014-.034.005-.039.039h-.017c-.008.014-.018.016-.022.034h-.011c-.006.026-.014.009-.006.039l-.028.023-.067.073h-.011l-.011.017H2.93v.006l-.011.006v.017l-.011.006v.006h-.011l-.006.011-.017.006-.006.023-.017.011v.017l-.011.006v.011l-.017.011-.017.023-.011.006v.011l-.034.028v.011l-.028.023v.011l-.011.006-.006.017-.022.017v.011l-.017.011v.011h-.006l-.004.014-.011.006v.011l-.017.011-.006.023h-.006l-.006.017-.011.006-.006.023-.011.006-.039.089-.011.106h-.006v.084c-.006.037-.009.08-.009.123s.003.086.009.128l-.001.073h.004v.063c.015.052.013.125.028.173v.039l.063.375h.006v.02h.006v.028h.006v.023h.006v.017c.018.033.037.074.053.116l.004.025c0 .031-.009.06-.024.085l-.011.005v.014l-.011.006v.011l-.011.006-.006.017-.017.011v.012l-.022.017v.011l-.022.017v.011l-.011.006v.011l-.011.006c-.008.017-.012.036-.012.056l.001.017.006-.001v.023l-.045.034v.011H2.51v.031h-.004v.017H2.5v.011h-.006v.011h-.006l.022.188c-.007.004-.007.009-.011.011h-.011l-.011.017h-.011c-.01.011-.017.026-.017.043v.002l.028.101h.003v.017h.006v.02h.006v.017h.006v.017h.006v.017h.006l.006.034h.006v.011h.006l.011.051h.006l.006.023h.006v.011l.011.006v.011l.034.028.017.023h.011l.006.011.028.006v.006l.022.006v.006l.056.011v.006h.017v.006h.022v.006h.039v.003h.037v.006l.118.006v.006h.063v.006h.063v.006h.039v.006h.017v.006h.028v.006l.051.006v.006h.034v.006h.039v.006h.039v.006l.151.017v.006l.034.011v.006l.051.017v.006h.011v.006h.013v.006h.017v.006l.039.006v.006l.039.006v.006h.017v.006h.013v.007h.011l.006.011h.011l.056.063c.054.037.116.068.183.088l.038.001v.006h.028v.006h.045v.006l.046.002c.031 0 .061-.003.091-.008h.114v-.006l.034-.011v-.006h.078v-.006l.028-.006.011-.017.134.006v.006h.103c.027.008.076 0 .106.006s.076 0 .106.006v.006l.14.006h.063v.006h.106v.006h.022v.006h.028v.006h.045v.006l.022-.006.168.006c.051.014.116.019.168.034h.045v.006l.125.006v.006h.063v.006h.072c.032.007.069.011.106.011h.006c.003.008.008.008.011.011.013.021 0 .03.034.034.019.003.042.005.064.005.033 0 .065-.004.095-.011l.031.001c.028-.011.061-.017.095-.017v.006h.009v.006h.011v.006h.017v.006h.017v.006h.017v.006h.022v.003l.168.006c.008.019.017.036.029.051v.011l.011.006.006.023.011.006.006.023h.006l.006.017.011.006.006.023.017.011v.008l.011.006v.011h.005l.006.017.011.006v.011l.017.011v.011l.017.011v.011l.022.017v.012l.022.017v.011l.022.017v.006l.011.006v.011l.051.045v.012l.028.023.045.051h.011l.051.056h.011l.028.034h.011l.017.023h.011l.017.023h.011l.011.017h.004l.011.017.017.006.006.011h.011l.006.011h.012l.011.017.022.006.006.011h.011l.006.011h.011l.006.011h.011v.006h.011l.006.011.022.006.006.011.034.011c.104.064.224.12.351.164l.058.01v.006h.017v.006l.051.006v.002h.023v.006h.023v.006h.028v.006h.028v.006l.095.011v.006l.078.006c.057.016.137.011.196.028h.067v.006h.078c.034.009.093-.004.129.006v.006c.018.002.04.003.062.003.038 0 .075-.003.11-.009l.08.001v-.006h.053c.047-.014.111-.014.157-.028h.031v-.006l.056-.006v-.006h.028v-.006h.023v-.006h.023v-.006h.023v-.006l.045-.006v-.006l.056-.011v-.006h.017v-.006h.017v-.006l.034-.006v-.006h.011v-.006l.034-.006v-.006h.009v-.006l.034-.006v-.006l.023-.006v-.006h.017v-.006h.011v-.006h.017v-.006l.034-.011v-.006h.011v-.006h.017v-.006l.034-.011v-.006h.011v-.006h.011v-.006h.011v-.006h.011l.011-.011h.011l.006-.011h.011v-.001h.011l.011-.011h.009l.006-.011h.011v-.006h.011l.006-.011h.011l.006-.011h.012l.006-.011.023-.006v-.006l.017-.006.006-.011h.012l.011-.017h.011l.006-.011h.011l.011-.017h.012l.011-.017h.011l.011-.017h.011l.017-.023h.011l.023-.028h.011l.028-.034h.011l.051-.056c.039-.03.074-.061.106-.095l.04-.045.034-.011.006-.011.034-.011.006-.011h.011l.006-.011h.011l.006-.011h.011l.006-.011h.011v-.006l.017-.006.006-.011h.011l.011-.017h.011l.006-.011h.011l.006-.011.017-.006.011-.017h.011l.011-.017h.011l.006-.011h.33l-.011.224.034.028h.007c.04 0 .078-.006.113-.018l.031.001c.033-.01.076-.016.106-.028.014-.045.023-.097.023-.151v-.001l.023-.017v-.006h1.527v.006h.034c.027.007.058.012.09.012h.425v-.006l.173-.011h.101c.034-.005.072-.008.112-.008l.059.002h.02v-.006h.213v.006l.023.006v.006l.593-.006h.403c.03-.005.065-.008.101-.008l.053.002h.428c.034-.005.074-.008.115-.008.023 0 .045.001.068.003h.344l.043.001c.037 0 .074-.003.109-.009l.914.001.053.002c.037 0 .072-.003.107-.008l.729.006 1.645-.006.033.001c.03 0 .059-.002.087-.007h.657c.019-.002.041-.002.063-.002s.044.001.065.003l.048-.006v.006h.023v-.006h.034v.006l.005.001c.005 0 .009-.003.012-.006.019-.004.031.005.045.006l.045-.006v.006c.017.002.037.003.057.003.035 0 .07-.003.104-.009h.047l.056.002c.038 0 .074-.003.11-.008h.164v-.006h.14c.031-.009.084.004.117-.006v-.006h.089l.112-.017c.002-.005.006-.009.011-.011v-.017l.576-.011c.024.032.054.058.088.077l.013.018h.011l.006.011h.011l.006.011h.011l.006.011.017.006v.006l.023.006.006.011h.011v.006h.011l.006.011h.011l.039.028v.011l.017.011v.006l.011.006v.011l.051.045v.011l.028.023.045.051h.011l.051.056h.011l.023.028h.011l.023.028h.011l.011.017h.011l.011.017h.011l.011.017h.011l.011.017h.011l.006.011h.011l.011.017h.011l.006.011h.011l.006.011.017.006v.006l.023.006v.006l.017.006.006.011h.003v.006h.011l.006.011h.011v.006h.011l.011.011h.011l.006.011h.011l.011.011h.011v.006h.011v.006h.011v.008h.011l.034.011v.006h.017v.006l.023.006v.006h.017v.006l.023.006v.006h.017v.006h.011v.006h.017v.006h.011v.006l.034.006v.006h.011v.006l.034.006v.006h.017v.006h.017v.006h.017v.006h.023v.006h.017v.006h.017v.006l.039.006v.006l.045.006v.006l.067.011v.006h.028c.033.01.079.018.112.028l.117.011v.006h.039v.006h.063v.006h.073c.036.005.077.008.119.008.024 0 .048-.001.071-.003l.025.001c.028 0 .055-.002.081-.007h.087v-.006h.063v-.006h.051v-.006h.045v-.006h.039v-.006h.034v-.006h.034v-.006h.034v-.005h.023v-.006h.028v-.006h.028v-.006l.045-.006v-.006l.045-.006v-.006l.039-.006v-.006h.017v-.006h.02v-.006h.011v-.006h.023v-.006h.011v-.006l.051-.011v-.006l.028-.006v-.006h.011v-.006h.017v-.006h.011v-.006h.017v-.006l.034-.011v-.006h.011v-.006h.011v-.006h.014v-.006h.011v-.006h.011l.006-.011h.011v-.006h.011v-.006h.012l.011-.011h.011l.006-.011.023-.006.006-.011.023-.006.006-.011h.011l.006-.011h.011l.006-.011h.011l.006-.011h.011l.006-.011h.011l.006-.011h.011l.008-.007h.011v-.006l.017-.006.006-.011h.011l.011-.017h.011l.006-.011h.011l.006-.011.017-.006.017-.023h.011l.011-.017.017-.006.034-.039h.011l.063-.067.073-.067.006-.017.039-.034v-.011l.028-.023v-.011l.023-.017v-.011l.023-.017v-.011l.017-.011.006-.017.011-.006v-.011l.011-.006.006-.017h.006v-.011l.011-.006.006-.017h.006l.006-.017h.291c.005.022.007.047.007.073l-.002.035c.012.012 0 .039.006.061h.006l.006.067c.007.015.015.033.021.052l.242.026.006.028c.017-.001.032-.005.046-.012l-.001-.134c.009-.004.02-.006.031-.006h.003c.024.025.115.006.151.006l.034.001c.044 0 .086-.004.127-.013l.03.001v-.004h.023v-.006l.039-.006v-.006h.015v-.006h.017v-.006l.095-.023c.15-.057.325-.084.481-.134h.028v-.006h.023v-.006h.028v-.006h.028v-.006l.258-.023v-.006h.028v-.006h.023v-.009h.023v-.006h.017v-.006h.011v-.006h.017v-.006h.011v-.006h.017v-.006l.129-.011v-.006h.051v-.006h.051v-.006h.051l.056-.006v-.006h.028v-.006h.028v-.006l.063-.006c.082-.025.181-.031.263-.056h.028v-.006h.028v-.006c.007-.003.016-.004.025-.004.023 0 .044.01.059.027v.006h.011l.006.011h.011l.006.011.067.023h.039V22.7h.006l.134-.006v-.006l.117-.006v-.006h.039v-.006h.034v-.007h.039c.057-.017.131-.021.188-.039h.023v-.006h.006v-.006h.023v-.006h.011V22.6h.017v-.006h.012v-.006h.011v-.006l.023-.017c.006-.009 0-.012.011-.023v-.045h-.006v-.011h-.006l-.006-.023-.011-.006c-.007-.013-.011-.028-.011-.045v-.006c.008-.005.008-.011.017-.017v-.006l.028-.006v-.006h.023v-.006h.028v-.006h.017l.007-.014c.041-.033.067-.084.067-.14-.014-.001-.016-.011-.034-.016zM16.045 11.633h-.001c-1.154 0-2.207.434-3.003 1.149-.1.09-.167.224-.171.374v.015c0 .148.06.281.156.378l.625.625c.096.096.229.156.376.156.133 0 .254-.049.347-.129.445-.387 1.032-.623 1.673-.623s1.228.236 1.677.626c.089.077.211.126.343.126.147 0 .28-.06.376-.156l.625-.625c.097-.097.156-.231.156-.378v-.015c-.004-.15-.071-.284-.175-.378-.793-.711-1.845-1.145-2.999-1.145h-.005zm-2.019 2.383h.018zm4.038 0h.004z"/><path d="M19.926 11.848h.001c.146 0 .279-.059.374-.156l.621-.621c.096-.096.156-.23.156-.377 0-.153-.065-.291-.168-.389-1.27-1.19-2.983-1.92-4.866-1.92s-3.595.73-4.869 1.923c-.1.094-.165.232-.165.385 0 .147.06.28.156.377l.621.621c.096.096.229.156.376.156.14 0 .267-.054.362-.142.921-.854 2.159-1.378 3.519-1.378s2.598.524 3.523 1.381c.091.085.218.138.358.138h.001zm0-.312h-.021.024zm-7.764 0h.024-.022z"/><path d="M9.831 9.117c.096.096.229.156.376.156.142 0 .271-.056.366-.146 1.422-1.352 3.35-2.184 5.472-2.184s4.05.832 5.476 2.188c.092.087.221.143.362.143.147 0 .28-.06.376-.156l.625-.625c.096-.096.156-.229.156-.376 0-.152-.063-.288-.165-.385-1.773-1.691-4.18-2.731-6.829-2.731s-5.056 1.04-6.833 2.735c-.098.093-.161.23-.161.382 0 .147.06.28.156.376zm12.053-.157h-.022.022zm-11.655 0h-.022.001l.023-.002z"/></svg>