<!-- Generated by IcoMoon.io -->
<svg version="1.1" xmlns="http://www.w3.org/2000/svg" width="100%" height="100%" viewBox="0 0 32 32">
<title>icon_weibo</title>
<path d="M3.625 19.438q0 2.938 3.156 4.75t7.219 1.813q4.75 0 7.969-2.25t3.219-4.75q0-1.313-0.875-2.156t-2.125-1.219q-0.563-0.188-0.375-0.625 0.625-1.563 0-2.438t-2.125-0.875-3.375 0.813q-0.625 0.25-0.625-0.125v-0.125q0.625-2-0.25-2.938-1-1-3.375-0.063t-4.75 3.25q-3.688 3.688-3.688 6.938zM6.156 20.406q-0.219-2.031 1.813-3.656t5.094-1.938 5.375 0.906 2.5 3.219-1.844 3.656-5.094 1.938-5.344-0.906-2.5-3.219zM9.375 21.656q0.563 1.281 2 1.719 1.563 0.5 3.094-0.156t2.156-2.094q0.625-1.375-0.031-2.625t-2.156-1.625q-1.438-0.375-2.906 0.25t-2.094 1.938-0.063 2.594zM10.5 21.281q-0.125-0.469 0.156-0.938t0.813-0.656 1.031 0.031 0.625 0.688-0.188 0.938-0.844 0.656-1-0.031-0.594-0.688zM13.375 19.313q0.25-0.438 0.688-0.25t0.188 0.625-0.688 0.25-0.188-0.625zM19.719 7.25q0.094 0.375 0.406 0.594t0.688 0.156q2.625-0.563 4.438 1.438t1 4.563q-0.125 0.313 0.031 0.688t0.531 0.469 0.75-0.063 0.438-0.531q0.563-1.625 0.219-3.344t-1.563-3.063-2.875-1.844-3.344-0.188q-0.375 0.125-0.594 0.438t-0.125 0.688zM20.531 10.406q0.156 0.781 0.969 0.594 0.875-0.188 1.469 0.5t0.344 1.5 0.5 1.063 1-0.563q0.563-1.75-0.656-3.094t-3.031-0.969q-0.75 0.188-0.594 0.969z"></path>
</svg>
