<svg id="Default" xmlns="http://www.w3.org/2000/svg" viewBox="0 0 24 24"><path d="M18.38,5.62A8.88,8.88,0,0,0,12.06,3h0a9,9,0,0,0-9,8.92h0A8.78,8.78,0,0,0,4.3,16.42L3,21l4.75-1.24A8.91,8.91,0,0,0,12,20.84h0a9,9,0,0,0,9-8.91v0a8.79,8.79,0,0,0-2.62-6.28ZM12,19.34h0a7.53,7.53,0,0,1-3.83-1.05L8,18.15l-2.82.73.76-2.73-.18-.28a7.28,7.28,0,0,1-1.14-3.94h0a7.45,7.45,0,0,1,14.9,0h0A7.45,7.45,0,0,1,12,19.34Zm4.09-5.55c-.23-.12-1.33-.65-1.53-.73s-.36-.11-.51.11-.58.73-.71.87-.26.17-.48.06A6.1,6.1,0,0,1,11.09,13a6.85,6.85,0,0,1-1.24-1.54A.32.32,0,0,1,10,11a4.77,4.77,0,0,0,.33-.39,1.76,1.76,0,0,0,.23-.37.44.44,0,0,0,0-.39c-.06-.11-.51-1.21-.69-1.66s-.37-.37-.51-.38H8.87a.85.85,0,0,0-.6.28,2.49,2.49,0,0,0-.79,1.86,4.35,4.35,0,0,0,.92,2.31,10,10,0,0,0,3.82,3.36,12,12,0,0,0,1.19.45,3.23,3.23,0,0,0,1,.16,3.1,3.1,0,0,0,.54-.05,2.29,2.29,0,0,0,1.49-1.06A1.78,1.78,0,0,0,16.55,14c-.05-.09-.2-.14-.42-.26h0Z"/></svg>