<?xml version="1.0" encoding="utf-8"?>
<!-- Generator: Adobe Illustrator 25.3.1, SVG Export Plug-In . SVG Version: 6.00 Build 0)  -->
<svg version="1.1" id="reddit" xmlns="http://www.w3.org/2000/svg" xmlns:xlink="http://www.w3.org/1999/xlink" x="0px" y="0px"
	 viewBox="0 0 24 24" style="enable-background:new 0 0 24 24;" xml:space="preserve">
<path d="M17.6,6.65c-0.99-0.64-1.71-1.66-1.93-2.86C15.62,3.54,15.59,3.27,15.59,3h-3.17l0.06,12.34
	c-0.05,1.41-1.22,2.53-2.66,2.53c-1.7,0-2.66-1.42-2.66-2.63c0-1.45,1.19-2.63,2.66-2.63c0.27,0,0.54,0.04,0.79,0.12v-2.45V9.53
	c-0.26-0.03-0.52-0.06-0.79-0.06C6.61,9.47,4,12.06,4,15.24c0,1.95,0.99,3.68,2.49,4.72C7.43,20.61,8.59,21,9.83,21
	c3.21,0,5.83-2.59,5.83-5.76l-0.06-6.15c1.24,0.88,2.76,1.4,4.41,1.4V8.05v-0.7C19.12,7.36,18.29,7.1,17.6,6.65"/>
</svg>
