<svg id="Default" xmlns="http://www.w3.org/2000/svg" viewBox="0 0 24 24"><path d="M5.25,9.47a5.47,5.47,0,0,0,.52,2.44,3,3,0,0,0,1.54,1.5.32.32,0,0,0,.5-.24,2.44,2.44,0,0,1,.08-.44,2,2,0,0,1,.12-.4.56.56,0,0,0-.16-.56,3.13,3.13,0,0,1-.66-2,4.88,4.88,0,0,1,1.38-3.5,4.67,4.67,0,0,1,3.55-1.45,4.19,4.19,0,0,1,3.08,1.1,3.9,3.9,0,0,1,1.11,2.88,7.76,7.76,0,0,1-.9,3.88,2.6,2.6,0,0,1-2.28,1.59,1.61,1.61,0,0,1-1.3-.58,1.52,1.52,0,0,1-.3-1.39c.08-.32.2-.75.35-1.27s.29-1,.39-1.39a4,4,0,0,0,.16-1,1.74,1.74,0,0,0-.35-1.09,1.23,1.23,0,0,0-1-.44,1.69,1.69,0,0,0-1.38.77,3.14,3.14,0,0,0-.56,1.89,4.91,4.91,0,0,0,.08.86,1.43,1.43,0,0,0,.19.58l.08.2Q8.36,16.15,8.16,17a11.2,11.2,0,0,0,0,3.94.09.09,0,0,0,.08.1.16.16,0,0,0,.15,0,10.54,10.54,0,0,0,1.79-3.41c.49-1.75.74-2.69.74-2.82a2.19,2.19,0,0,0,.95.9,2.93,2.93,0,0,0,1.49.39,4.65,4.65,0,0,0,3.88-2,8.25,8.25,0,0,0,1.51-5.11A5.64,5.64,0,0,0,17,4.77,6.19,6.19,0,0,0,12.43,3,6.92,6.92,0,0,0,7.17,5,6.33,6.33,0,0,0,5.25,9.47Z"/></svg>