<svg viewBox="0 0 24 24" xmlns="http://www.w3.org/2000/svg"><path d="m22 7.54c0-.2 0-.4 0-.6 0-.44-.04-.88-.12-1.31-.07-.43-.21-.86-.41-1.25-.4-.79-1.05-1.43-1.84-1.84-.39-.2-.81-.34-1.25-.41-.43-.07-.87-.11-1.31-.12-.2 0-.4 0-.6 0-.24 0-.48 0-.72 0h-7.49c-.24 0-.48 0-.72 0-.2 0-.4 0-.6 0-.44 0-.88.04-1.31.12-.43.07-.85.21-1.25.41-.79.4-1.43 1.05-1.84 1.84-.2.39-.34.81-.41 1.25-.07.43-.11.87-.12 1.31v.6.72 7.49.72.6c0 .44.04.88.12 1.31.07.43.21.86.41 1.25.4.79 1.05 1.43 1.84 1.84.39.2.81.34 1.25.41.43.07.87.11 1.31.12h.6.72 7.49.72.6c.44 0 .88-.04 1.31-.12.43-.07.86-.21 1.25-.41.79-.4 1.43-1.05 1.84-1.84.2-.39.34-.81.41-1.25.07-.43.11-.87.12-1.31 0-.2 0-.4 0-.6 0-.24 0-.48 0-.72v-7.49c0-.24 0-.48 0-.72zm-8.32 8.08c-.05.61-.15 1.43-.28 2.26-.09.59-.17.91-.23 1.14-.11.37-.52.7-1.17.7s-1.06-.32-1.17-.7c-.07-.23-.14-.55-.23-1.14-.13-.83-.23-1.65-.28-2.26-.05-.64-.08-1.05-.03-1.51.03-.24.11-.41.27-.58.3-.32.83-.52 1.45-.52s1.15.2 1.45.52c.16.17.24.33.27.58.05.47.02.87-.03 1.51zm-4.29-1.55c.06.06.1.14.09.23-.01.26 0 .52 0 .8 0 .08-.08.13-.14.08-1.26-.86-2.08-2.31-2.06-3.95.03-2.49 2.03-4.55 4.52-4.65 2.68-.1 4.9 2.05 4.9 4.71 0 1.62-.82 3.04-2.06 3.89-.06.04-.15 0-.14-.08.02-.29.02-.54 0-.8 0-.09.03-.17.09-.23.74-.7 1.2-1.68 1.2-2.78 0-2.15-1.79-3.89-3.96-3.81-2 .08-3.61 1.71-3.66 3.71-.03 1.13.44 2.16 1.2 2.88zm4.24-3.35c0 .9-.73 1.64-1.64 1.64s-1.64-.73-1.64-1.64.73-1.64 1.64-1.64 1.64.73 1.64 1.64zm.69 7.21c-.07.02-.14-.03-.12-.1.04-.24.07-.48.1-.72.01-.08.06-.16.14-.19 2.17-.95 3.69-3.11 3.69-5.62 0-3.4-2.78-6.16-6.18-6.13-3.33.03-6.05 2.74-6.08 6.07-.02 2.54 1.5 4.73 3.69 5.68.08.03.13.11.14.19.03.24.07.48.1.72.01.07-.06.13-.12.1-2.76-.97-4.74-3.62-4.7-6.73.05-3.83 3.18-6.93 7.01-6.94 3.89-.01 7.05 3.15 7.05 7.03 0 3.06-1.97 5.67-4.71 6.64z"/></svg>