<svg height="24" width="24" xmlns="http://www.w3.org/2000/svg"><path d="m16.5 3h-9c-1.1 0-2 .9-2 2v14c0 1.1.9 2 2 2h9.01c1.1 0 2-.9 2-2v-14c0-1.1-.9-2-2-2zm1 16c0 .55-.45 1-1 1h-9c-.55 0-1-.45-1-1v-14c0-.55.45-1 1-1h9.01c.55 0 1 .45 1 1v14zm-7-4h-2c-.55 0-1 .45-1 1v2c0 .55.45 1 1 1h2c.55 0 1-.45 1-1v-2c0-.55-.45-1-1-1zm0 3h-2v-2h2zm0-8h-2c-.55 0-1 .45-1 1v2c0 .55.45 1 1 1h2c.55 0 1-.45 1-1v-2c0-.55-.45-1-1-1zm0 3h-2v-2h2zm5-8h-7c-.55 0-1 .45-1 1v2c0 .55.45 1 1 1h7c.55 0 1-.45 1-1v-2c0-.55-.45-1-1-1zm0 3h-7v-2h7zm0 7h-2c-.55 0-1 .45-1 1v2c0 .55.45 1 1 1h2c.55 0 1-.45 1-1v-2c0-.55-.45-1-1-1zm0 3h-2v-2h2zm0-8h-2c-.55 0-1 .45-1 1v2c0 .55.45 1 1 1h2c.55 0 1-.45 1-1v-2c0-.55-.45-1-1-1zm0 3h-2v-2h2z"/></svg>