<svg xmlns="http://www.w3.org/2000/svg" width="24" height="24">
<path d="M14.1 11.5c.073.355.186.696.33 1.02a3.004 3.004 0 0 0-3.33 2.98c0 1.654 1.346 3 3 3s3-1.346 3-3c0-.131-.012-.26-.028-.388.325.137.668.237 1.024.302l.004.086a4 4 0 1 1-4.124-3.998l.124-.002Zm1.8-7a2 2 0 0 1 1.818 1.166 4.947 4.947 0 0 0-.941.354.997.997 0 0 0-.802-.517L15.9 5.5H3a1 1 0 0 0-.997.925L2 6.5v1h13a4.977 4.977 0 0 0-.9 2H2v4a1 1 0 0 0 .925.997L3 14.5h6.2a5.033 5.033 0 0 0-.096.796L9.1 15.5H3a2 2 0 0 1-1.998-1.9L1 13.5v-7a2 2 0 0 1 1.9-1.998L3 4.5h12.9Zm3.1 2a4 4 0 1 1 0 8 4 4 0 0 1 0-8Zm0 1c-1.654 0-3 1.346-3 3 0 1.655 1.346 3 3 3s3-1.345 3-3c0-1.654-1.346-3-3-3Z"/>
</svg>