<svg id="Default" xmlns="http://www.w3.org/2000/svg" viewBox="0 0 24 24"><path d="M20.13,8.35A11.07,11.07,0,0,0,18.24,7,6.05,6.05,0,0,0,15,6a4.69,4.69,0,0,0-1.12.18L15,7.09a4.76,4.76,0,0,1,2.73.78,10.48,10.48,0,0,1,1.72,1.22A2.25,2.25,0,0,1,20,10.38V16.5l-2.87,2.18L10.9,12.19a.78.78,0,0,1-.29-.49.82.82,0,0,1,.29-.48.82.82,0,0,1,.48-.3.84.84,0,0,1,.49.3l1.57,1.57.71.71h0l.1.1,2.83-2.83L9.3,3,3,9.11,10.83,17l.71-.71-.76-.83h0L4.41,9.11,9.3,4.41l6.36,6.36-1.41,1.42-.1-.11-1.57-1.57a1.77,1.77,0,0,0-1.2-.59,1.71,1.71,0,0,0-1.19.59,1.52,1.52,0,0,0,0,2.39L17,20l4-3V10.27A3.06,3.06,0,0,0,20.13,8.35Z"/></svg>