<svg xmlns="http://www.w3.org/2000/svg" width="24" height="24">
<path d="M20.13 8.35A11.069 11.069 0 0 0 18.24 7 6.05 6.05 0 0 0 15 6a4.69 4.69 0 0 0-1.12.18l1.12.91a4.76 4.76 0 0 1 2.73.78c.613.348 1.19.757 1.72 1.22.316.36.509.812.55 1.29v6.12l-2.87 2.18-6.23-6.49a.78.78 0 0 1-.29-.49.82.82 0 0 1 .29-.48.82.82 0 0 1 .48-.3.84.84 0 0 1 .49.3l1.57 1.57.71.71.1.1 2.83-2.83L9.3 3 3 9.11 10.83 17l.71-.71-.76-.83-6.37-6.35 4.89-4.7 6.36 6.36-1.41 1.42-.1-.11-1.57-1.57a1.77 1.77 0 0 0-1.2-.59 1.71 1.71 0 0 0-1.19.59 1.52 1.52 0 0 0 0 2.39L17 20l4-3v-6.73a3.06 3.06 0 0 0-.87-1.92Z"/>
</svg>