<svg xmlns="http://www.w3.org/2000/svg" width="24" height="24">
<path d="M20.608 15.234c-1.384-.909-2.654-1.494-4.098-2.038-.43.576-1.11.962-1.874 1.156a6.39 6.39 0 0 1-.335.576c.275.109.54.218.795.33.631-.19 1.207-.49 1.674-.888.2.081.985.46.985.46.321.162.672.349 1.021.543l.232.13c1.038.59 1.992 1.207 1.992 1.373 0 .014 1 .024 1 0 0-.469-.486-1.064-1.392-1.642Zm-3.16-9.258C17.323 3.438 16.427 2 13.468 2c-1.793 0-2.828.528-3.394 1.508a9.041 9.041 0 0 1 1.266.036c.483-.372 1.254-.542 2.127-.542.972 0 1.816.21 2.278.674.52.521.653 1.335.704 2.35.008.182.014.358.014.527.105.018.202.069.328.178.301.261.26 1.1.242 1.215-.03.243-.11.411-.243.69-.047.098-.1.21-.161.345-.052.16-.328.87-.6 1.497-.003.176-.01.21-.017.259-.072.58-.297.981-.432 1.22v.001l-.007.012-.048.146-.095.29-.066.2c-.055.162-.105.308-.137.392l-.052.145c.667-.336.997-.832 1.205-1.144l.002-.003c.275-.363.667-1.165.91-1.854.062-.161.195-.566.288-.85l.073-.223a5.36 5.36 0 0 1 .055-.1c.118-.21.264-.47.317-.9.01-.051.012-.522.013-.795v-.261c-.007-.373-.064-.578-.59-1.037Zm.16 11.758c-1.384-.909-2.654-1.494-4.098-2.038-.641.86-1.842 1.296-3.043 1.3-1.2-.004-2.401-.44-3.043-1.3-1.443.544-2.714 1.13-4.097 2.038C2.422 18.312 2 18.907 2 19.376h1c0-.3 3.035-2.052 4.165-2.506.847.724 2.06 1.122 3.302 1.127 1.242-.005 2.455-.403 3.303-1.127.2.081.985.46.985.46 1.356.685 3.245 1.812 3.245 2.046 0 .014 1 .024 1 0 0-.469-.486-1.064-1.392-1.642Zm-3.16-9.258c-.126-2.538-1.021-3.976-3.98-3.976-2.96 0-3.855 1.439-3.98 3.976-.558.485-.59.688-.59 1.105v.265c.001.276.004.676.012.723.054.43.2.69.317.9.02.034.038.067.055.1l.074.223c.093.284.225.689.287.85.243.69.635 1.492.91 1.854l.002.003c.338.508 1 1.501 2.912 1.501 1.914 0 2.575-.993 2.913-1.501l.002-.003c.276-.363.667-1.165.91-1.854.062-.161.195-.566.288-.85l.073-.223c.017-.033.036-.066.055-.1.118-.21.264-.47.317-.9.01-.051.012-.522.013-.795V9.58c-.002-.417-.033-.62-.59-1.104Zm-6.258-2.3c.462-.463 1.306-.675 2.277-.675.972 0 1.816.212 2.278.675.52.521.653 1.335.704 2.35.008.182.014.358.014.527.105.018.202.068.328.178.3.261.26 1.1.242 1.215-.03.243-.11.411-.243.69-.047.098-.1.21-.161.345-.088.268-.809 2.102-1.08 2.462-.231.348-.445.623-.881.841-.294.17-1.057.204-1.2.202-.143.002-.907-.032-1.2-.202-.437-.218-.65-.494-.882-.841-.27-.36-.992-2.194-1.08-2.462-.06-.134-.113-.247-.16-.345-.133-.279-.213-.447-.244-.69-.018-.115-.059-.954.242-1.214.126-.11.223-.161.327-.178 0-.17.007-.346.016-.528.05-1.015.183-1.829.703-2.35Z"/>
</svg>