<svg xmlns="http://www.w3.org/2000/svg" width="24" height="24">
<path d="M15.01 15.696c1.444.544 2.714 1.13 4.098 2.038.905.578 1.392 1.173 1.392 1.642 0 .024-1 .014-1 0 0-.234-1.889-1.361-3.245-2.046 0 0-.784-.379-.985-.46-.848.724-2.06 1.122-3.303 1.127-1.242-.005-2.455-.403-3.302-1.127-1.13.454-4.164 2.206-4.165 2.506h-1c0-.469.421-1.064 1.327-1.642 1.383-.909 2.654-1.494 4.098-2.038.641.86 1.842 1.296 3.042 1.3 1.201-.004 2.402-.44 3.043-1.3ZM11.968 4.5c2.96 0 3.855 1.439 3.98 3.976.558.485.589.688.591 1.105v.193c-.001.273-.004.744-.013.796-.062.5-.249.769-.372.998-.075.225-.28.861-.36 1.074-.244.69-.635 1.492-.911 1.854-.338.508-.998 1.504-2.915 1.504-1.915 0-2.576-.996-2.914-1.504-.275-.363-.667-1.165-.91-1.854-.082-.213-.286-.85-.36-1.073-.124-.23-.31-.499-.373-1-.008-.047-.011-.447-.012-.723V9.58c.001-.417.032-.62.59-1.104.125-2.538 1.02-3.977 3.98-3.977Zm0 1.002c-.97 0-1.815.21-2.277.674-.52.521-.653 1.335-.703 2.35-.01.182-.015.358-.016.527-.104.018-.2.068-.327.178-.3.261-.26 1.1-.242 1.215.041.329.174.521.404 1.035.088.268.81 2.102 1.08 2.462.232.348.446.623.882.841.293.17 1.056.204 1.2.202.143.002.906-.032 1.2-.202.436-.218.65-.494.881-.841.27-.36.992-2.194 1.08-2.462.23-.514.363-.706.404-1.035.019-.115.059-.954-.242-1.214-.126-.11-.223-.161-.328-.178 0-.17-.005-.346-.014-.528-.05-1.015-.184-1.829-.704-2.35-.461-.463-1.306-.675-2.277-.675Z"/>
</svg>