<svg viewBox="0 0 70 36" xmlns="http://www.w3.org/2000/svg">
<path d="m65.7747 16.5399c-.0523 2.082-1.3758 3.7138-3.1924 4.9663h-.0047c-2.6657 1.8305-6.3938 2.8457-8.7512 3.2348-2.8127.4649-7.3806.7114-10.8525-.2563-2.3906-.669-4.3782-1.9971-4.7244-4.3257-.3083-2.0776 1.1904-3.8042 3.2207-5.2412 3.1353-2.2202 6.5647-2.6704 6.5647-2.6704s-1.2429-1.4517-.7732-3.20657c1.385-5.17481 9.8801-6.69776 13.428-6.86817 6.9333-.33007 8.551 3.03662 8.6255 3.19141l.0027.00537c.645 1.19531.3889 2.49023-.2847 3.69043-1.5227 2.70803-5.4404 4.12643-5.4404 4.12643s2.1819 1.0718 2.1819 3.3536zm-2.6944-10.88579c-1.2095-.26563-5.3076-.59766-9.0974 1.60791l.0046.00488c-1.1289.6543-1.7739 1.40381-1.6032 2.24805.1709.84425 1.0056 1.34225 2.125 1.51315 4.2973.6592 8.0161-.9389 9.1213-1.62204 1.1004-.67822 1.6934-1.55615 1.6033-2.21533s-.9346-1.26611-2.1536-1.53662zm-11.4929 15.67629c2.6421-.3272 4.4873-1.0103 5.8342-1.812h-.0046c2.3857-1.4278 2.0017-2.708 2.0017-2.708-.1282-.8921-1.0198-1.5655-2.3955-1.9546-1.3613-.3843-3.2017-.4839-5.2271-.2368-2.2434.27-4.4206 1.0146-5.7487 1.8261-1.3423.8155-2.0918 1.7266-2.0064 2.7271.0806.9345 1.0103 1.5796 2.367 1.9497 1.3422.3696 3.1635.4599 5.1794.2085z"/>
<path d="m7.97803 22.1751c2.12037-3.7139 8.75147-11.6211 19.07277-16.625l-2.6753-3.27294c-2.6799.38916-5.1275.59765-8.22.66894-2.5803.05664-4.6863.10889-6.76854.08545-2.35571-.02686-2.87085.5498-3.49585 1.24951l-.15185.16846s-.84253 1.03857-1.60474 2.05371c-.4292.57178-.83301 1.13623-1.04663 1.50391-.44116.7539.45532 1.1333 1.28052.6831 1.76465-.95361 4.95215-1.59863 9.12619-1.58447.8953 0 1.781-.01758 2.6414-.05664.6345-.02881 1.2551-.06934 1.8552-.12354-8.37182 4.29741-13.81713 10.62501-17.9912 18.01021h3.64746c1.69336.0186 2.94092-.332 4.33057-2.7607z"/>
<path d="m27.6721 23.261 16.3736-18.394-3.344-2.55664c-.5596.26562-4.3543 2.22949-9.4153 3.25879l-3.178 3.62353c3.2253-.05664 6.0713-.11377 6.0713-.11377l-14.2107 15.88529s2.8223-.0142 2.9834-.0191c1.9353-.0615 3.292-.185 4.7197-1.6841z"/>
</svg>