<svg xmlns="http://www.w3.org/2000/svg" viewBox="0 0 87 36" width="100%" height="100%"><path d="m86.09,16.3c-.07-.36-.22-.72-.46-1.08-.24-.35-.57-.69-.97-.99-.4-.29-.89-.54-1.41-.65.31-.34.56-.69.71-1.1.15-.42.16-.78.16-1.2,0-1.65,0-3.09,0-4.76,0-.49-.01-.92-.16-1.4-.14-.46-.39-.86-.72-1.2-.33-.33-.71-.56-1.11-.69-.41-.14-.75-.15-1.14-.15-8.92-.12-17.87-.12-26.55,0-.4,0-.77.02-1.19.17-.41.14-.79.4-1.12.74-.32.35-.56.76-.68,1.2-.13.46-.14.86-.13,1.32.01,1.58,0,3.14.01,4.75,0,.42,0,.79.16,1.21.15.41.4.76.72,1.1-.52.12-1,.36-1.4.65-.4.29-.73.64-.96.99-.24.36-.38.71-.45,1.08-.08.37-.08.71-.08,1.08h-.01c0-4.78,0-9.56,0-14.34-2.07,0-4.14,0-6.22.04-3.7.61-7.94,1.34-11.1,1.87,0-.63,0-1.26,0-1.9-10.66-.05-21.32-.05-31.98,0v6.45c6.25.05,12.5.05,18.75,0-4.61,5.15-9.23,10.3-13.84,15.45,4.38.05,8.77.05,13.15,0,4.17-4.58,8.34-9.17,12.51-13.75,1.77-.25,3.55-.5,5.32-.75v14.5c4.47.05,8.95.05,13.42,0h0v-3.03h0c0,.28,0,.59.13.98.12.38.34.76.66,1.1.32.34.7.58,1.11.73.43.15.8.16,1.2.17,10.22.12,20.39.11,30.66,0,.41,0,.78-.02,1.2-.17.41-.14.78-.39,1.1-.73.31-.33.53-.72.66-1.09.13-.39.14-.69.14-.97,0-1.64,0-3.26,0-4.56,0-.37,0-.71-.07-1.08Zm-25.62-7.6c.36-.27.74-.3.97-.3,4.12-.06,8.44-.07,12.55,0,.22,0,.59.03.95.3.34.26.56.67.57,1.12,0,.46-.2.87-.54,1.13-.36.27-.74.3-.98.31-4.02.08-8.53.06-12.55,0-.23,0-.6-.03-.96-.31-.34-.26-.55-.67-.55-1.12s.22-.86.56-1.12Zm14.49,10.58c-.36.27-.74.3-.99.31-4.14.06-8.45.07-12.58,0-.23,0-.6-.03-.96-.31-.34-.26-.55-.67-.55-1.13,0-.46.22-.87.56-1.13.36-.27.73-.3.96-.3,4.18-.07,8.38-.06,12.56,0,.23,0,.61.03.98.31.35.26.57.67.57,1.13,0,.46-.21.87-.55,1.13Z"/></svg>