<svg xmlns="http://www.w3.org/2000/svg" viewBox="0 0 195 36" width="100%" height="100%"><path d="m193.01,13.7c-.43-.66-.86-1.09-1.35-1.32-.5-.23-1.08-.25-1.86-.12-.68.12-1.62.37-2.85.78-1.58.56-3.55,1.33-5.9,2.3.92-1.05,1.85-2.1,2.77-3.15-1.77.19-3.55.38-5.32.57-1.74,1.97-3.47,3.95-5.21,5.92-4.08,1.69-9.79,2.75-16.65,2.84-.46,0-1.21.01-1.73,0-.57-.02-1.11-.09-1.6-.28,7.68-1.52,14.21-3.31,16.86-4.56.32-.15.62-.31.84-.45.22-.15.37-.29.45-.44.08-.15.09-.32.03-.53-.06-.2-.19-.46-.38-.77-.62-.99-1.52-1.89-2.5-2.52-.38-.25-.77-.45-1.29-.54-.53-.1-1.08-.06-1.69.01-.83.1-1.66.23-2.67.46-4.28,1.02-9.47,3.04-13.05,5.64-.81.59-1.69,1.34-2.2,2.26-2.73.51-7.76,1.45-10.79,1.45-1.05,0-1.86-.13-2.08-.55-.1-.2-.05-.45.09-.71.15-.27.38-.54.6-.8,1.72-1.99,3.67-3.94,5.72-5.86,2.59-.32,5.1-.63,7.53-.95.89-.12,1.71-.24,2.52-.61.83-.38,1.34-.89,1.85-1.5.44-.53.83-1.05,1.19-1.58-2.99.45-6.14.89-9.42,1.35,2.08-1.8,4.21-3.57,6.3-5.29-2.08.22-4.16.45-6.25.67-2.16,1.79-4.35,3.62-6.47,5.5-1.47.2-2.96.4-4.46.61-.83,1-1.66,1.99-2.49,2.99,1.19-.14,2.36-.29,3.53-.43-1.55,1.5-3.02,3.03-4.36,4.59-1.66.73-3.31,1.26-4.94,1.72-.17-.92-1.19-1.66-2.28-2.16-1.75-.79-4.93-1.55-6.57-1.96-.29-.07-.57-.14-.79-.24-.22-.09-.34-.2-.34-.31,0-.11.12-.23.36-.35.24-.12.58-.23.98-.33,2.31-.59,6.68-1,10.51-.7.26-.23.56-.5.87-.83.13-.15.24-.28.3-.41.06-.13.06-.26,0-.37-.12-.24-.48-.37-.95-.46-.88-.18-2.01-.28-3.71-.28-5.01,0-10.14,1.01-12.55,1.98-.64.26-1.15.54-1.5.85-.35.31-.52.64-.52.96,0,.32.19.62.51.89.32.27.75.47,1.19.64,2.05.78,6.22,1.49,7.98,2.09.36.12.66.25.88.4.21.15.33.3.33.46,0,.16-.1.32-.3.46-.1.07-.22.14-.36.21-.14.07-.3.13-.47.18-2.59.83-8.15.44-10.93-.98-1.38.28-2.81.59-4.28.85-.92.16-1.68.26-2.5.12-.79-.14-1.48-.48-2.19-.97-.71-.49-1.5-1.16-2.5-2.13,4.95-2.4,9.74-4.38,13.63-5.56-.89-.21-1.84-.44-2.83-.62-.58-.11-1.26-.18-2.24-.08-.94.1-1.75.32-2.6.59-2.4.77-5.21,1.92-8.21,3.32-.95-1.03-2.05-2.26-3.33-3.72-4.08,1.08-5.36,1.28-10.12,1.66-.5-.44-1.22-.76-2.17-.96-.95-.2-2.05-.27-3.27-.25-5.37.08-11.85,1.75-16.12,4.27-.66.39-1.24.79-1.76,1.24-.51.45-.93.94-1.22,1.46-1.39.3-2.8.57-4.22.82.87-.94,1-1.87.6-2.67-.41-.8-1.31-1.41-2.47-1.91-1.79-.77-4.45-1.43-8.02-1.85,4.96-.47,9.03-1.23,11.76-2.2,1.37-.48,2.53-1.07,3.34-1.73.8-.66,1.18-1.35,1.08-2.01-.09-.67-.65-1.25-1.53-1.73-.89-.49-1.98-.8-2.93-1.01-8.12-1.84-23.82-.93-29.9.32-.68.14-1.26.29-1.88.61-.61.31-1.12.7-1.57,1.08-.58.49-1.09.97-1.59,1.46,2.23-.27,4.37-.5,6.44-.71-4.41,4.15-8.81,8.29-13.22,12.44,2.46-.05,4.92-.09,7.38-.14,1.65-1.68,3.31-3.37,4.96-5.05,6.6.04,13.4.37,17.53,1.21.95.19,1.81.43,2.46.79.63.35.96.78.91,1.22-.05.45-.46.86-1.13,1.21-.69.36-1.5.57-2.23.73-6.6,1.48-15.96,1.67-35.03,1.49-.53,0-1.05,0-1.62.04-.57.05-1.1.14-1.61.28-1.06.3-1.78.76-2.44,1.25-.61.46-1.16.91-1.8,1.47,10.41.4,35.35,1.52,56.42-2.94.25.67.81,1.23,1.68,1.6.88.38,2,.55,3.4.59,6.9.22,15.05-2.58,18.24-5.09,1.1-.87,2.06-2.05,2.26-3.25,2.13-.16,4.3-.36,6.41-.65.84.96,1.6,1.81,2.29,2.58-3.86,1.96-7.85,4.2-11.54,6.43,1.59,0,3.18,0,4.77-.07.86-.04,1.51-.1,2.15-.3.59-.19,1.09-.49,1.63-.79,1.72-.98,3.48-1.94,5.24-2.86,1.26,1.3,2.29,2.23,3.23,2.96.67.52,1.21.85,1.94.98.71.13,1.6.06,2.81-.14,1.55-.25,3.95-.76,5.94-1.23,4.14,1.66,12.67,2.45,21.55-.8-.27.64-.23,1.23.29,1.63.26.2.61.34,1.06.44.46.1.97.14,1.56.16,5.17.2,12.06-1.08,16.22-2.06.31.62.95,1.12,1.94,1.47.99.35,2.25.52,3.72.58,4.7.21,11.59-.58,17.27-2.1-.63.71-1.25,1.42-1.88,2.13.81,0,1.89,0,2.98-.02h-.22c.65-.01,1.28-.05,1.97-.39.33-.16.64-.38.95-.65.31-.28.57-.56.84-.87.99-1.12,1.97-2.24,2.96-3.36,2.64-.99,6.14-2.12,8.2-2.65.84-.21,1.53-.36,2.06-.23.54.13.99.55,1.31,1.51,1.41-.15,2.97-.32,4.81-.53-.38-1.12-.91-2.32-1.44-3.15Zm-165.91-.83c1.85-1.88,3.7-3.77,5.55-5.65,6.8-.47,12.13-.5,15.43-.08,1.01.13,1.79.3,2.33.51.53.21.8.46.8.74,0,.28-.28.57-.78.86-.51.29-1.22.56-2.03.82-3.59,1.12-10.87,2.38-21.29,2.8Zm47.49,5.5c-1.72,1.27-6.15,2.75-9.51,2.7-.83-.01-1.46-.12-1.92-.33-.45-.21-.7-.51-.75-.87-.05-.36.1-.77.39-1.17.3-.41.74-.78,1.23-1.11,2.14-1.42,6.09-2.42,9.19-2.44.56,0,1.12.03,1.61.19.48.15.81.41.94.76.28.72-.33,1.63-1.19,2.27Zm78.45.98c.36-.37,1.01-.81,1.84-1.26,2.54-1.39,6.75-2.97,9.33-3.54.51-.11.84-.16,1.11-.14.28.02.52.11.8.29.17.11.34.23.48.36.21.19.29.31.21.43-.08.12-.31.23-.68.37-2.44.92-8.78,2.46-13.09,3.49Z"/></svg>