<svg xmlns="http://www.w3.org/2000/svg" viewBox="0 0 197 36" width="100%" height="100%"><path d="m195.73,20.64c-.06-.21-.16-.43-.4-.53-.24-.1-.51-.04-.76.03-2.18.61-3.85.86-5.04.9-.7.02-1.26-.03-1.42-.25-.08-.11-.06-.26.04-.46.11-.2.3-.43.54-.72,1.3-1.55,2.85-3.17,3.75-4.47.16-.23.27-.41.31-.59.04-.18,0-.39-.06-.6-.14-.52-.34-.87-.64-1.16-.14-.14-.29-.25-.48-.32-.2-.08-.36-.09-.57-.09-1.18,0-3.01.35-5.4,1.02-2.23.62-5.48,1.69-9.76,3.19,1.09-1.19,2.25-2.46,3.75-4.11-1.87.2-3.73.39-5.6.59-1.74,1.98-3.52,4-5.02,5.7-1.8.66-3.25,1.22-4.88,1.6h0c-.33.08-.55.11-.75.03-.19-.08-.33-.27-.45-.48-.11-.19-.21-.41-.29-.66-.04-.12-.09-.3-.12-.46-.03-.17-.04-.32,0-.48.06-.32.3-.61.51-.86,1.45-1.72,3.23-3.5,4.83-5.21-10.69-.36-19.39,1.83-25.58,4.73-.8.37-1.67.82-2.49,1.47-.8.63-1.41,1.36-1.7,2.13-1.05.26-2.04.42-3,.5-.37.03-.92.07-1.3.06-.41-.01-.68-.07-.77-.23-.09-.16.02-.4.25-.73.21-.31.56-.71.8-.98,1.17-1.37,2.14-2.47,3.08-3.72.14-.18.25-.34.28-.54.03-.18-.02-.37-.08-.57-.13-.39-.33-.74-.69-1.06-.14-.13-.29-.23-.47-.29-.19-.07-.35-.08-.55-.08-.6,0-1.34.11-2.21.3-.84.18-1.94.47-2.91.76-2.25.66-4.41,1.47-6.6,2.3.34-.49.58-.86.71-1.12.07-.14.13-.27.14-.4,0-.13-.03-.27-.07-.4-.11-.35-.26-.65-.6-.94-.15-.13-.31-.22-.51-.29-.2-.06-.37-.08-.58-.08-.55,0-1.32.12-2.24.33-.99.23-2.01.53-3.38.97-2.07.67-4.07,1.36-6.02,2.07l-.02.02c1.05-1.15,2.18-2.39,3.63-3.98-1.87.2-3.73.4-5.6.59-1.96,2.23-3.97,4.52-5.58,6.33-4.11,1.56-9.09,3.91-13.11,6.02,5.39-5.55,9.55-9.61,13.85-13.2-2.13.18-4.25.37-6.38.55-1.43,1.55-2.87,3.1-4.29,4.66-2.55,1.05-5.89,2.16-7.63,2.58-.37.09-.7.16-1,.17-.29.01-.51-.02-.64-.12-.13-.1-.17-.25-.1-.46.07-.22.23-.48.47-.81.98-1.35,2.88-3.47,5.43-6.02-1.82.19-3.64.39-5.45.58-1.65,1.74-3.29,3.58-4.92,5.51-1.67.61-3.06,1.08-4.6,1.5-.33.09-.54.13-.75.03-.19-.09-.33-.28-.45-.49-.11-.19-.21-.41-.29-.66-.04-.12-.09-.3-.12-.46-.03-.17-.04-.32,0-.48.06-.32.3-.61.51-.86,1.45-1.72,3.23-3.5,4.83-5.21-10.69-.36-19.39,1.83-25.58,4.73-.56.26-1.17.57-1.79.97-.61.4-1.17.86-1.62,1.37-17.35,2.01-31.15,2.48-38.94,1.49-.53-.07-1.23-.17-1.88-.41-.64-.23-1.14-.56-1.3-.99-.16-.43.04-.94.71-1.5.68-.57,1.77-1.15,3.29-1.8,9.13-3.89,28.3-8.02,44.97-9.87.32-.39.57-.73.75-1.02.39-.63.51-1.11.21-1.4-.29-.27-.92-.3-1.39-.3-9.15-.03-31.67,3.32-45.95,8.77-3.61,1.37-6.12,2.65-7.84,3.96C1.05,17.53.16,18.82.02,19.99c-.14,1.17.47,2.25,2,3.09,1.54.85,4.01,1.46,7.98,1.82,9.02.8,22.64,0,39.48-2.28.4.67,1.21,1.14,2.23,1.41,1.05.27,2.09.27,2.84.24,5.12-.21,10.2-2.15,14.15-4.26.32.79.59,1.48,1.03,2.3.3.57.66,1.18,1.18,1.45.52.27,1.08.15,1.53.04,1.65-.41,3.29-1.03,5.1-1.68-.18.33-.38.69-.46,1.04-.07.35-.01.64.26.84.27.2.72.3,1.36.29.64,0,1.38-.12,2.17-.27,2.71-.51,6.42-1.54,9.31-2.63-3.55,3.92-7.19,7.92-10.82,11.97.96-.1,1.92-.2,2.88-.3,4.43-3.6,11.04-7.06,18.22-9.92-.33.38-.67.77-1,1.14.79,0,1.6,0,2.37,0,.88,0,1.63,0,2.39-.29.37-.14.7-.33,1.02-.58.32-.26.58-.53.86-.83.84-.91,1.78-1.92,2.69-2.91,3-1.1,5.56-1.97,7.44-2.48.62-.17,1.1-.28,1.39-.32.3-.05.46-.05.51.03.05.08-.01.23-.16.47-.14.23-.39.61-.69,1.03-1.41,2.01-2.93,3.88-4.5,5.88.85,0,1.72,0,2.55,0,.35,0,.71,0,1.12-.06.4-.06.79-.17,1.16-.33.36-.16.67-.37.93-.6.26-.24.45-.47.63-.7.79-1.02,1.57-2.04,2.35-3.07,2.54-.95,4.8-1.76,7.5-2.45,1.16-.3,1.72-.4,1.8-.21.04.1-.03.27-.21.51-.17.24-.44.56-.74.91-.75.86-1.48,1.65-2.4,2.78-.33.41-.74.93-1.01,1.42-.26.49-.35.9-.17,1.2.18.3.62.48,1.28.57.65.09,1.49.08,2.3.04,3-.16,5.96-.87,8.42-1.54.47.63,1.28,1.06,2.26,1.3,1.01.24,2,.25,2.72.22,5.12-.21,10.2-2.15,14.15-4.26.32.79.59,1.48,1.03,2.3.3.57.66,1.18,1.18,1.45.52.27,1.08.15,1.53.04h0c1.54-.39,3.08-.95,4.75-1.55-.57.66-1.2,1.37-1.8,2.05h2.37c.88,0,1.63,0,2.39-.29.37-.14.7-.33,1.02-.58.32-.26.58-.53.86-.83.82-.88,1.73-1.87,2.62-2.83,4.27-1.43,7.96-2.58,10.55-3.2.74-.18,1.37-.31,1.77-.37.42-.06.65-.05.73.03.08.09,0,.26-.19.53-.18.25-.49.62-.82,1.01-1.02,1.19-1.95,2.19-3.17,3.73-.34.43-.65.84-.82,1.22-.17.38-.18.7,0,.95.39.51,1.56.62,2.61.63,3.83.03,8.2-1.14,11.99-2.32-.1-.63-.19-1.06-.27-1.33Zm-136.84.17c-.47.09-1.25.23-1.97.22-.7,0-1.16-.16-1.23-.46-.07-.3.25-.71.84-1.15.6-.44,1.35-.82,1.95-1.1,4.12-1.9,10.32-3.4,13.96-3.49-3.95,3.6-9.49,5.18-13.55,5.97Zm88.71,0c-.47.09-1.25.23-1.97.22-.7,0-1.16-.16-1.23-.46-.07-.3.25-.71.84-1.15.6-.44,1.35-.82,1.95-1.1,4.12-1.9,10.32-3.4,13.96-3.48-3.95,3.6-9.49,5.18-13.55,5.97Z"/></svg>