<?xml version="1.0" encoding="utf-8"?>
<!-- Generator: Adobe Illustrator 20.1.0, SVG Export Plug-In . SVG Version: 6.00 Build 0)  -->
<svg version="1.1" id="Ebene_1" xmlns="http://www.w3.org/2000/svg" xmlns:xlink="http://www.w3.org/1999/xlink" x="0px" y="0px"
	 viewBox="0 0 128 128" style="enable-background:new 0 0 128 128;" xml:space="preserve">
<style type="text/css">
	.st0{fill:#FFFFFF;}
</style>
<g id="Ebene_1_1_">
</g>
<g>
	<path class="st0" d="M116.1,38.6L116.1,38.6L116.1,38.6c-0.3-0.2-0.5-0.3-0.8-0.5c0,0-0.1-0.1-0.1-0.1c-0.3-0.2-0.6-0.3-0.8-0.5
		c0,0,0,0,0,0c-0.3-0.2-0.5-0.3-0.8-0.5c-0.1,0-0.1-0.1-0.2-0.1c-0.3-0.2-0.6-0.3-0.9-0.5c-0.3-0.1-0.5-0.3-0.8-0.4
		c-0.1,0-0.2-0.1-0.3-0.1c-0.2-0.1-0.4-0.2-0.5-0.3c-0.1,0-0.2-0.1-0.3-0.1c-0.2-0.1-0.3-0.1-0.5-0.2c-0.1,0-0.2-0.1-0.3-0.1
		c-0.2-0.1-0.3-0.1-0.5-0.2c-0.1,0-0.2-0.1-0.4-0.1c-0.2-0.1-0.3-0.1-0.5-0.2c-0.1,0-0.2-0.1-0.4-0.1c-0.1-0.1-0.3-0.1-0.4-0.2
		c-0.1,0-0.2-0.1-0.4-0.1c-0.1,0-0.3-0.1-0.4-0.1c-0.1,0-0.2-0.1-0.4-0.1c-0.1,0-0.3-0.1-0.4-0.1c-0.1,0-0.2-0.1-0.4-0.1
		c-0.1,0-0.3-0.1-0.4-0.1c-0.1,0-0.2-0.1-0.4-0.1c-0.1,0-0.3-0.1-0.4-0.1c-0.1,0-0.2,0-0.4-0.1c-0.1,0-0.3-0.1-0.4-0.1
		c-0.1,0-0.2,0-0.4-0.1c-0.1,0-0.3,0-0.4-0.1c-0.1,0-0.2,0-0.4,0c-0.1,0-0.3,0-0.4,0c-0.1,0-0.2,0-0.4,0c-0.1,0-0.3,0-0.4,0
		c-0.1,0-0.2,0-0.4,0c-0.1,0-0.3,0-0.4,0c-0.1,0-0.2,0-0.4,0c-0.1,0-0.2,0-0.3,0c-0.1,0-0.2,0-0.2,0c-0.3,0-0.7,0-1,0
		c-0.1,0-0.3,0-0.4,0c-0.2,0-0.4,0-0.6,0c-0.2,0-0.4,0-0.5,0.1c-0.1,0-0.3,0-0.4,0.1c-0.2,0-0.4,0.1-0.6,0.1c-0.1,0-0.2,0-0.3,0.1
		c-0.2,0-0.5,0.1-0.7,0.1c-0.1,0-0.2,0-0.3,0.1c-0.2,0.1-0.5,0.1-0.7,0.2c-0.1,0-0.1,0-0.2,0.1c-0.3,0.1-0.5,0.2-0.8,0.2
		c0,0-0.1,0-0.1,0c-0.3,0.1-0.5,0.2-0.8,0.3c0,0-0.1,0-0.1,0c-0.3,0.1-0.6,0.2-0.8,0.4c0,0,0,0-0.1,0c-0.3,0.1-0.6,0.3-0.9,0.4
		c0,0,0,0,0,0c-0.3,0.1-0.6,0.3-0.9,0.5c0,0,0,0,0,0c-1.5,0.8-2.9,1.8-4.3,2.9c0,0,0,0,0,0h0c-0.1,0.1-0.2,0.1-0.2,0.2
		c-2.5,2.2-4.9,4.2-7.4,6.1h0c-0.5,0.4-1,0.8-1.6,1.2c0,0-0.1,0.1-0.1,0.1c-0.5,0.4-1,0.7-1.5,1.1c0,0-0.1,0.1-0.1,0.1
		c-2.7,1.9-5.4,3.7-8.1,5.3c0,0,0,0,0,0c-0.5,0.3-1.1,0.6-1.7,0.9h0c-5.3,2.9-10.9,5-17,6.3h0c-0.3,0.1-0.6,0.1-0.9,0.2
		c-0.2,0-0.4,0.1-0.6,0.1c-0.3,0.1-0.6,0.1-0.9,0.2c-0.2,0-0.4,0.1-0.7,0.1c-0.3,0-0.5,0.1-0.8,0.1c-0.5,0.1-0.9,0.1-1.4,0.2
		c-0.2,0-0.4,0-0.6,0.1c-0.3,0-0.7,0.1-1,0.1c-0.2,0-0.4,0-0.6,0.1c-0.4,0-0.7,0.1-1.1,0.1c-0.2,0-0.4,0-0.5,0
		c-0.5,0-1.1,0.1-1.6,0.1c0,0,0,0,0,0l0,0c-0.4,0-0.8,0-1.2,0.1c-0.1,0-0.2,0-0.3,0c-0.4,0-0.8,0.1-1.2,0.1c-0.1,0-0.1,0-0.2,0
		c-0.4,0-0.7,0.1-1.1,0.2c-0.1,0-0.2,0-0.2,0c-0.4,0.1-0.8,0.1-1.2,0.2c-0.1,0-0.1,0-0.2,0c-0.4,0.1-0.7,0.2-1.1,0.2
		c-0.1,0-0.1,0-0.2,0c-0.4,0.1-0.8,0.2-1.2,0.3c-0.1,0-0.2,0-0.2,0.1c-0.8,0.2-1.6,0.5-2.4,0.8c-0.1,0-0.1,0.1-0.2,0.1
		c-0.4,0.1-0.8,0.3-1.2,0.5c0,0,0,0-0.1,0c-0.4,0.2-0.7,0.3-1.1,0.5c-0.1,0-0.1,0.1-0.2,0.1c-0.4,0.2-0.8,0.4-1.1,0.6
		c0,0-0.1,0-0.1,0.1c-0.4,0.2-0.7,0.4-1.1,0.6c0,0-0.1,0-0.1,0.1c-0.4,0.2-0.7,0.4-1.1,0.7c-0.1,0-0.1,0.1-0.2,0.1
		c-0.7,0.5-1.5,1-2.2,1.5c-0.1,0-0.1,0.1-0.2,0.1c-0.4,0.3-0.7,0.5-1.1,0.8l0,0v0c-1.7,1.3-3.3,2.8-4.8,4.4C6,79,3.5,84.6,3.4,84.8
		l7.9,3.6c0,0,1.6-3.5,4.9-7.4c0.3-0.3,0.5-0.6,0.8-0.9c0,0,0,0,0,0c0.3-0.3,0.6-0.6,0.8-0.9c0.3-0.3,0.6-0.6,1-1
		c0.1-0.1,0.2-0.2,0.4-0.3c0.2-0.2,0.4-0.4,0.6-0.6c0.2-0.1,0.3-0.3,0.5-0.4c0.2-0.1,0.3-0.3,0.5-0.4c0.2-0.2,0.4-0.3,0.5-0.4
		c0.1-0.1,0.1-0.1,0.2-0.2c0.5-0.4,1-0.8,1.6-1.2c0,0,0,0,0,0c0.3-0.2,0.6-0.4,0.8-0.6c0,0,0.1-0.1,0.1-0.1c0.3-0.2,0.6-0.4,0.9-0.5
		c3.8-2.2,7.9-3.4,12.2-3.6c5.8-0.2,11-1.1,16-2.4c0.2-0.1,0.4-0.1,0.6-0.2c0.3-0.1,0.6-0.2,0.9-0.3c0.2-0.1,0.4-0.1,0.6-0.2
		c1-0.3,2-0.7,3-1c0.2-0.1,0.4-0.2,0.6-0.2c0.3-0.1,0.6-0.2,0.8-0.3c0.2-0.1,0.4-0.2,0.7-0.3c0.3-0.1,0.6-0.2,0.9-0.4
		c0.4-0.2,0.8-0.3,1.1-0.5c0.2-0.1,0.5-0.2,0.7-0.3c0.2-0.1,0.5-0.2,0.7-0.3c0.2-0.1,0.5-0.2,0.7-0.3c0.3-0.1,0.5-0.2,0.8-0.4
		c0.2-0.1,0.4-0.2,0.7-0.3c0.4-0.2,0.8-0.4,1.3-0.6c0.2-0.1,0.4-0.2,0.6-0.3c0.3-0.1,0.5-0.3,0.8-0.4c0.2-0.1,0.4-0.2,0.7-0.4
		c0.3-0.2,0.5-0.3,0.8-0.5c4.7-2.7,9.3-5.9,13.8-9.5c0,0,0.1-0.1,0.1-0.1c0.3-0.3,0.6-0.5,1-0.8c0.1-0.1,0.3-0.2,0.4-0.4
		c0.3-0.2,0.6-0.5,0.8-0.7c0.2-0.2,0.4-0.3,0.6-0.5c0.2-0.2,0.5-0.4,0.7-0.6c0.3-0.2,0.5-0.5,0.8-0.7c0.2-0.2,0.4-0.3,0.6-0.5
		c0.5-0.4,0.9-0.8,1.4-1.2c0.2-0.2,0.4-0.3,0.5-0.5c4.9-3.9,10.3-4.4,16.5-1.4c0.1,0,0.1,0.1,0.2,0.1c0.2,0.1,0.4,0.2,0.6,0.3
		c0,0,0,0,0,0c0.2,0.1,0.4,0.2,0.6,0.3c0.1,0,0.1,0.1,0.2,0.1c0.1,0.1,0.3,0.1,0.4,0.2c0.1,0,0.1,0.1,0.2,0.1
		c0.1,0.1,0.2,0.1,0.3,0.2c0.1,0,0.1,0.1,0.2,0.1c0.1,0.1,0.2,0.1,0.3,0.2c0.1,0,0.1,0.1,0.2,0.1c0.1,0.1,0.3,0.2,0.4,0.2
		c0,0,0.1,0.1,0.1,0.1c0.2,0.1,0.3,0.2,0.5,0.3c0,0,0.1,0,0.1,0.1c0.1,0.1,0.3,0.2,0.4,0.3c0.1,0,0.1,0.1,0.2,0.1
		c0.1,0.1,0.2,0.2,0.3,0.2c0.1,0,0.1,0.1,0.2,0.1c0.1,0.1,0.2,0.2,0.3,0.2c0.1,0,0.1,0.1,0.2,0.1c0.1,0.1,0.2,0.2,0.3,0.2
		c0,0,0.1,0.1,0.1,0.1c0.1,0.1,0.3,0.2,0.4,0.3c0,0,0,0,0,0c0.1,0.1,0.3,0.2,0.4,0.3c0,0,0,0,0,0c0.1,0.1,0.2,0.2,0.4,0.3
		c0,0,0,0,0.1,0.1c0.1,0.1,0.2,0.2,0.3,0.3c0,0,0,0,0.1,0.1c0.1,0.1,0.2,0.2,0.3,0.3c0,0,0,0,0.1,0c0.1,0.1,0.2,0.2,0.3,0.3l0,0
		c1.2,1.1,1.9,1.9,1.9,1.9l6.5-5.7C124.4,45.6,121.2,41.9,116.1,38.6z"/>
	<path class="st0" d="M106,48.5c-2.3-1.2-4.3-1.7-6.1-1.7c-2.2,0-4.1,0.8-6.1,2.5c-1.8,1.5-3.5,3-5.2,4.4h18.6V60h-27
		c-4.1,2.9-8.1,5.2-12.1,7.2c-0.6,0.3-1.2,0.6-1.9,0.9h40.9v6.3H44.7c-2.4,0.3-4.9,0.6-7.5,0.7c-5.8,0.2-11.2,2.8-15.8,7.7
		c-2.9,3-4.7,6-5.3,7.3v22.4h100V57l-1.9-2.1C114.1,54.7,110.6,50.9,106,48.5z M107.2,104H24.8v-6.3h82.3V104z M107.2,89.3H24.8V83
		h82.3V89.3z"/>
	<path class="st0" d="M24.8,53.7h26.4c6.2-1.9,11.9-4.9,17.5-8.7H24.8v-6.3h52.2c1.4-1.2,2.9-2.4,4.3-3.6c2.3-2,4.8-3.6,7.3-4.7
		H24.8V24h82.3v4.9c2.5,0.7,5.1,1.7,7.7,3c0.5,0.2,0.9,0.5,1.3,0.7v-17h-100v47.1c2.8-1.8,5.7-3.2,8.7-4.3V53.7z"/>
</g>
</svg>
