<svg viewBox="0 0 92 35" xmlns="http://www.w3.org/2000/svg"><path d="m91.05 16.42c-.08-.38-.23-.76-.48-1.13s-.6-.73-1.02-1.04c-.42-.3-.94-.56-1.49-.69.33-.36.59-.72.75-1.16s.17-.82.17-1.26c0-1.73 0-3.25 0-5.01 0-.52-.01-.97-.17-1.47-.15-.48-.41-.91-.75-1.26-.35-.35-.75-.59-1.16-.73-.43-.14-.79-.15-1.2-.16-9.38-.12-18.8-.12-27.92 0-.42 0-.81.02-1.25.18-.43.15-.83.42-1.17.78-.34.37-.58.8-.72 1.26-.14.48-.15.9-.14 1.39.01 1.66 0 3.3.01 5 0 .45 0 .83.17 1.27.16.44.42.8.75 1.16-.55.12-1.06.38-1.48.69s-.77.67-1.01 1.04c-.25.37-.4.75-.47 1.13-.08.39-.08.75-.09 1.14h-.01c0-5.03 0-10.06 0-15.09-2.18 0-4.36 0-6.54.04-3.89.64-8.35 1.41-11.68 1.97 0-.66 0-1.33 0-1.99-11.21-.05-22.43-.05-33.64 0v6.79c6.57.06 13.15.06 19.72 0-4.85 5.42-9.71 10.83-14.56 16.25 4.61.06 9.22.06 13.83 0 4.39-4.82 8.77-9.64 13.16-14.46 1.87-.26 3.73-.53 5.6-.79v15.25c4.7.06 9.41.06 14.11 0v-3.18c0 .29 0 .62.14 1.03.13.4.36.8.69 1.15s.73.61 1.17.77c.45.16.85.17 1.26.18 10.75.12 21.45.12 32.25 0 .43 0 .82-.02 1.26-.18.43-.15.83-.41 1.16-.77.33-.35.56-.76.69-1.15.14-.41.14-.73.14-1.02 0-1.72 0-3.43 0-4.8 0-.39 0-.75-.08-1.14zm-26.95-7.99c.38-.29.78-.32 1.02-.32 4.33-.07 8.88-.07 13.2 0 .23 0 .62.03.99.32.36.27.59.7.6 1.18 0 .48-.21.91-.57 1.18-.38.29-.78.32-1.03.33-4.22.09-8.97.07-13.2 0-.24 0-.63-.03-1.01-.32-.36-.27-.58-.7-.58-1.18s.23-.91.59-1.18zm15.24 11.12c-.38.29-.78.32-1.04.32-4.36.07-8.89.07-13.24 0-.24 0-.63-.03-1.01-.32-.36-.27-.58-.7-.58-1.18s.23-.91.59-1.18c.38-.29.77-.32 1.01-.32 4.4-.07 8.81-.07 13.21 0 .24 0 .64.03 1.03.32.37.27.6.7.6 1.18s-.22.91-.58 1.18z"/></svg>