<svg fill="none" height="28" viewBox="0 0 111 28" width="111" xmlns="http://www.w3.org/2000/svg"><path d="m94.6964 20.9995h-8.2812l-7.51.0005c-1.047 0-1.9053-.7866-1.9053-1.749 0-.9576.86-1.7505 1.9058-1.7505h7.5095l8.2807-.0005c1.0464 0 1.9041.7892 1.9041 1.751 0 1.2516-.8565 1.7485-1.9036 1.7485zm-15.9019-13.99898h7.9781l2.2856-.00052h5.6333c1.0488 0 1.9062.78708 1.9085 1.74948-.0023.96239-.8597 1.75002-1.9085 1.75002h-7.9189l2.2856.0005h-10.1498c-1.0488 0-1.9062-.78708-1.9085-1.75.0023-.9624.7464-1.74948 1.7946-1.74948zm31.8055 11.32438c0-1.8857-1.851-4.0805-3.976-4.4194 0 0 1.018-.4716 1.597-1.3366.378-.5623.699-1.3923.699-2.2321l-.002-6.55441c-.055-2.00234-1.742-3.6824454-3.721-3.7686045l-20.3254-.0137855 1.5627.00057439-17.4129.01378551c-1.9798.0861591-3.6665 1.7668401-3.7217 3.7686001l-.0017 6.55444c.0006.8397.3206 1.6697.698 2.2321.5803.865 1.5983 1.3366 1.5983 1.3366-2.1257.3389-3.9756 2.5336-3.9756 4.4194v-18.2979291l-8.0288.0505467-14.0726 2.3917824.0017-2.4187789h-40.819049v8.2345189h23.926149l-17.66742 19.70916h16.77972l15.964-17.5425 6.7896-.95928v18.50178h17.1267v-3.8099c.0023 2.1511 1.9608 3.8151 3.8883 3.8151h16.7625l2.1654-.0006h20.2761c1.929 0 3.889-1.6663 3.889-3.8197z" fill="#010205"/></svg>