<svg fill="none" height="28" viewBox="0 0 106 28" width="106" xmlns="http://www.w3.org/2000/svg"><path d="m105.7 0v28h-17.6568v-20.11257l-9.3328 1.22202v18.89055h-17.6567v-20.11257l-9.4183 1.23328v15.34579c0 1.8848-1.5015 3.4358-3.3651 3.5122l-.1441.003h-48.1262v-7.1971h35.0037c2.4854 0 2.8244-3.3968.1423-3.512l-.1415-.003h-30.75389c-1.88597 0-4.145325-1.5104-4.24704784-3.3836l-.00356216-.1312v-10.21006c0-1.88491 1.50096-3.43557 3.36518-3.5119245l.1441-.0029463h44.61692c1.6696 0 3.0762 1.1832008 3.4257 2.7539208l.0296.14837 18.5646-2.8830331 8.5643-.0491269v2.91067l18.4251-2.8615431zm-70.6269 6.92533h-22.0996c-1.0708 0-1.9557.88638-1.9557 1.95905 0 1.03903.8184 1.89582 1.8413 1.95572l.1144.0033h22.0996c1.0708 0 1.9558-.88648 1.9558-1.95915 0-1.03891-.8182-1.89571-1.8413-1.95558z" fill="#010205"/></svg>