<svg fill="none" height="24" viewBox="0 0 220 24" width="220" xmlns="http://www.w3.org/2000/svg"><path clip-rule="evenodd" d="m53.1974.00162761c21.2174-.13491861 25.606 8.15485239 1.9354 11.16627239 11.1371 1.0612 11.4742 5.9206 5.5997 8.8911-.0793.0405-.1556.0813-.2369.1206.242-.0212.4931-.0385.73-.0628 1.0802-.0944 2.1296-.2317 3.1817-.4175.2912-.0509.5828-.0994.8767-.1592.1499-.03.3048-.0674.4558-.0998.4265-1.0805 1.4851-2.2632 3.0376-3.4339 2.4046-1.8133 5.9926-3.5946 10.0692-4.8867 4.0769-1.29216 7.878-1.87154 10.8177-1.80254 2.1785.05166 3.885.46374 4.7499 1.23704.8391.3939 3.6512.3954 6.4518.2452l.35-.0195c2.913-.1692 5.723-.4919 6.189-.696l1.448 2.4698c1.871-.707 4.022-1.5986 4.979-1.9267 1.415-.4845 2.972-.93708 4.266-1.18918.773-.15034 1.917-.23476 3.109-.28028l.239-.00859c.16-.0054.32-.01013.48-.01427l.239-.00577c2.15-.04802 4.172.00669 4.172.00669-4.069 1.4991-10.791 4.2168-15.313 6.4414.227.3662.403.6556.577.9355l.116.1861c.233.3722.48.7544.851 1.3069.49.7008 1.121 1.3615 3.782 1.488.446.0216 1.849-.1276 1.849-.1276s.457.2872 1.073.3936c1.793.3091 3.792.5419 7.585.4891 6.3-.0882 8.659-.5123 9.692-1.0188 1.452-.7112-.95-1.1402-5.193-2.2462-.339-.0889-1.081-.2761-1.843-.4636l-.254-.0624c-.508-.1243-1.005-.2439-1.378-.3298-3.852-.8881-3.199-2.4828-3.183-2.5195 1.306-2.9447 13.852-5.35352 21.722-3.83627 1.792.37087.67 1.31487-.413 2.40497-2.812-.1831-5.314-.1495-7.503.0556-1.76.0963-3.549.3989-5.411.9644-1.608.5378-2.108.8003.06 1.2417 7.619 1.5535 11.177 3.642 10.26 5.4368-.045.089-.108.1812-.199.2895 1.713-.0555 3.031-.1106 5.459-.4857.443-.7459 1.172-1.6214 2.187-2.6429 2.275-2.6413 5.594-5.9125 9.167-9.20411-2.813.13553-4.323.20006-5.875.31668l-.233.0179c-.585.0458-1.185.0998-1.871.16847.263-.30923.287-.31341.598-.62604l.072-.07194c.126-.12851.295-.30196.529-.54828.933-.98143 1.599-1.64793 3.605-1.88269 1.5-.17578 3.779-.31995 6.668-.54854 1.194-1.05236 2.365-2.07543 3.484-3.07421 1.756-.11102 3.83-.23822 5.806-.2521-.884.79679-1.978 1.78747-3.223 2.92387 3.064-.1114 7.665-.31879 10.972-.12297-.991.94983-1.384 1.33955-2.328 2.16756-1.402 1.32991-2.182 1.18381-3.34 1.23123-1.127.01807-1.974.02119-2.747.02217l-.23.00024c-.038.00004-.076.00007-.114.0001l-.226.00019c-.15.00014-.299.00033-.449.00066l-.226.00061c-1.247.00411-2.605.02154-5.008.10979-3.258 3.01521-6.571 6.45601-8.916 8.71651-4.664 4.4955-3.038 3.9269 2.996 3.6235 2.249-.1137 4.357-.367 6.598-.6426.436-2.0396 4.772-5.5787 12.529-8.3869.98-.3546 2.323-.7918 3.292-1.02114 1.628-.38625 5.41-1.37925 7.432.52614.658.6187.873 1.1318 1.338 2.023.007.0139.194.4676.253.6665.128.4364-.046 1.0609-.66 1.3982-1.336.7336-4.72 1.911-8.31 3.0346l-.407.127c-.136.0422-.272.0843-.408.1263l-.409.1255c-2.795.8548-5.588 1.6437-7.525 2.1364.595.1241 1.334.2019 2.178.2374 4.512.1901 12.062-.8114 17.204-2.3595l5.906-7.3172 6.219-.6762-2.797 3.348c2.476-.9576 9.292-3.56575 13.046-3.66058 1.055-.02659 1.682.14302 2.275.60718.292.2289 1.203 1.7878 1.388 2.1868.79 1.7081-.572 2.1221-1.345 2.3144l-4.392.9884c-.173.0447-.464-.027-.569-.2964-.539-1.3808-1.605-1.5682-2.305-1.4282-1.231.2532-2.659.508-3.89.8723-1.833.5196-5.231 1.6302-7.679 2.6251l-3.814 3.8945-.164.1484c-.853.7629-1.775 1.4514-3.082 1.4514h-3.044l1.575-1.828c-3.632.7937-7.667 1.685-10.994 1.922-2.431.1724-4.29.2172-5.203.22h-.166c-.137-.0004-.245-.0019-.321-.0041-2.465-.0701-5.625-.4302-6.728-1.397-4.681.6565-9.025.936-11.253 1.0805-3.806.2464-5.838.049-6.879-.636-4.335.3546-7.475.3693-10.928.1866-2.229.2856-4.636.5034-6.424.6634-8.263.7409-14.171-.5416-14.171-.5416l-.025.0027c-.303.0318-3.202.3362-4.138.407-1.946.1469-3.32-.6121-4.02-1.5284-.302-.3938-.674-.9127-1.043-1.438l-.116-.166c-.753-1.0783-1.455-2.1309-1.455-2.1309-.447.2313-.897.4662-1.347.7022l-.54.2836c-2.429 1.277-4.8203 2.5573-6.6354 3.453-1.1915.589-2.5513.7081-4.7148.7178l-4.3165.0185c6.5763-3.9408 10.1855-5.9048 15.3877-8.4162 0 0-.338-.5443-.781-1.2559-3.26.5443-6.429.513-8.7685.3226-.3541.8384-1.091 2.0068-2.2101 2.9034-2.2143 1.7744-5.3324 3.6837-9.4136 5.0676-4.0807 1.385-8.3583 1.9602-11.4903 1.9509-2.0383-.0066-3.7333-.4244-4.83-1.1071-.0054.0008-.012.0015-.0174.0023-.3105-.1665-.5458-.3685-.7288-.5805-2.8804.5154-8.8935 1.0739-15.3955 1.4679-5.7696.3612-12.0061.5852-16.8269.5188-.2304-.0015-.4577-.0034-.6815-.0057-2.8765.0643-5.8659.0929-8.8815.0907-8.5272-.0059-17.24689-.2546-24.104027-.6227l2.670817-1.996c1.02318-.7506 2.405-1.2332 3.80455-1.3249 1.32058.0497 2.68662.0798 4.15936.1141l6.6148.1102c1.6931.0193 3.397.027 5.0947.0243l.4633.0002c6.9473-.0008 13.8113-.1819 19.3492-.5533 20.5919-1.382 16.4344-6.8061-6.8278-6.7217-.6696.0019-1.353.0085-2.0541.0201-.6996.0119-4.1358.1846-4.8832.2004-1.8973 1.3137-5.8293 3.9897-7.6688 5.2969l-7.0606.0675c.0043-.0031.0085-.007.0128-.0097 1.1044-.8465 2.5356-1.9235 4.1112-3.0992 1.4931-1.1145 3.1146-2.3172 4.7183-3.5025.0999-.0739.1997-.1476.2994-.2213l.2987-.2206c4.7723-3.52456 9.1914-6.75351 9.1914-6.75351-.0597.00617-.5208.05551-1.1857.12605-1.6319.1727-4.5242.47453-5.965.59056-.0289.00501-.0123-.02853.0339-.08596.0324-.04025.0813-.09392.1444-.15856l.0824-.08268c.341-.33589.9625-.88298 1.6333-1.4016l.1759-.13449c.2946-.22255.5948-.43577.8814-.61998 1.3745-.88429 2.7637-1.18998 5.3655-1.64408 3.307-.578016 7.6144-.862331 11.9043-1.092589l.7146-.037916c.9522-.049998 1.9007-.097984 2.8343-.146589 1.4077-.073241 2.7529-.1106333 4.0392-.11872839zm36.4292 12.98557239c-.2538-.6619-1.4458-.9159-3.1742-.8003-1.7408.1161-4.0206.6086-6.4752 1.4692-2.455.8599-4.6255 1.93-6.1024 2.9541-1.4881 1.0321-2.2903 2.0194-2.0395 2.7095.2499.6901 1.5129.9449 3.3315.8018 1.8117-.1423 4.3148-.6199 6.7701-1.5068 2.4562-.8878 4.4047-2.0158 5.8122-3.022 1.3939-.9967 2.1314-1.944 1.8775-2.6055zm95.4414-.3346c-.448-.387-1.481-.0307-2.179.1701-4.636 1.3289-9.014 3.6964-10.808 5.7372 3.206-.9328 10.093-3.2417 13.627-4.6489.112-.0508.138-.1224.068-.2823-.076-.1721-.306-.6276-.708-.9761zm-133.7221-9.13262-.5398.00125c-.8757.00397-1.7884.01824-2.7379.0436-2.5973.07016-5.1385.10662-6.6852.20729 0 0-2.3863 1.61898-4.6595 3.17055l-.2062.14082c-.9949.67928-1.9532 1.33567-2.6631 1.82613-.0232.01585-.0502.03448-.0726.05034.7768-.05668 4.045-.13952 4.8558-.16489 32.1981-1.02139 30.3262-5.35945 12.1687-5.27384z" fill="#010205" fill-rule="evenodd"/></svg>