<svg fill="none" height="32" viewBox="0 0 221 32" width="221" xmlns="http://www.w3.org/2000/svg"><path clip-rule="evenodd" d="m62.9963 0c1.5992.0825747 1.8075.30521 2.3349 1.66684.083.21289.2603.57291-.1912.64208-.082.01243-.1626.02314-.2441.03313-.6959.08569-1.4374.1767-2.1682.26663l-.3123.03845c-1.6088.19817-3.1257.38657-3.9398.49582-13.313 1.78717-18.2123 2.84457-30.2815 6.22136-6.7539 1.88949-11.6246 3.66859-14.5399 5.00689-8.2251 3.7757.3336 5.5763 29.4756 4.0685 2.7108-.2109 5.6398-.4645 8.7754-.7797 1.5109-2.0999 5.5706-4.1312 11.8208-5.8981 6.5858-1.86171 14.6561-2.41878 18.9026-2.31623l-4.9193 5.61243c-.1753.2004-.272.4104-.3107.4993-.1395.3203-.0669.6991.0815 1.0852.1674.4355.3656.8596.5118 1.1412.2119.4077.5953.5385 1.2005.3575 1.5522-.5088 4.1589-1.5034 6.1769-2.3941.7309-.8359 1.9048-2.0722 2.9473-3.1323l.1724-.1749c.9405-.9521 1.7438-1.7292 1.9674-1.887 2.1107-.3556 3.6147-.369 6.5297-.67083-1.6554 1.66633-4.5142 4.65683-6.0456 6.62863-.0642.0827-.1334.1717-.2016.2627l-.0509.0686-.0499.069c-.3451.4833-.5804.9665.1572.85 2.8041-.4433 7.5976-2.2522 9.8607-3.4423l4.564-4.44175 6.597-.59946c-.585.50806-1.178 1.02751-1.774 1.55401l-.399.3521c-.199.1765-.399.3537-.598.5315l-.4.3561-.4.3574c-.333.2981-.666.5972-.998.8965l-.398.3592c-4.97 4.4902-9.6786 8.9611-11.7086 10.9898 3.9009-2.0098 7.7046-3.3911 12.4466-4.8953-.561-3.0759 4.804-6.9672 15.473-9.7462 2.209-.57559 7.013-1.61715 8.535-.04263.597.62043.866.92903 1.405 1.81253.136.2175.217.3982.29.6467.128.4321-.069 1.0537-.709 1.3865-1.568.8156-5.258 2.1194-9.024 3.2893l-.389.1205c-2.404.7399-4.81 1.4165-6.686 1.8684 3.792.5573 12.678.0253 18.917-1.6927l6.137-7.1085 6.484-.64547-3.2 3.62477c2.831-.9666 16.254-5.70351 17.336-3.32858l.41.92388c.132.2943.155.7415-.182 1.1332l-3.696 4.2603c-1.868 1.9898-1.078 2.2039.195 1.8887 1.754-.3062 3.657-.7215 5.514-1.2053l5.886-6.6515 6.484-.64547-3.2 3.62477c.368-.1257.915-.315 1.59-.5442l.321-.1085c4.669-1.5749 14.505-4.69457 15.425-2.67588l.41.92388c.131.2943.155.7415-.182 1.1332l-3.216 3.7105c-.043.0504-.92 1.0601-.957 1.1032-1.632 1.8641-1.496 2.2799-.626 2.228 1.299-.0867 3.471-.3105 4.747-.4847.946-2.8214 6.194-6.0204 15.338-8.4022 2.209-.57555 6.997-1.60054 8.535-.0426.63.6367.927.9303 1.424 1.8391.113.2075.183.415.249.6277.134.4301-.047 1.0462-.687 1.3789-1.46.7594-4.76 1.942-8.246 3.0456l-.388.1222c-.065.0204-.13.0406-.195.0609l-.389.121c-2.469.7633-4.954 1.4645-6.88 1.9285 3.647.5361 12.009.0643 18.242-1.5078.479-.1249.837-.124 1.054-.0331.491.2053 1.019 1.1202 1.087 1.289.049.1245.018.2324-.154.3118-1.419.6178-2.66 1.006-4.115 1.3446-3.754.8723-9.494 1.5246-12.957 1.7285-2.039.12-3.691.1506-4.753.1525l-.159.0001c-.488-.0004-.833-.0068-1.012-.0123-1.955-.0607-4.449-.2811-5.443-1.7338-5.328.9433-9.819 1.3068-11.485 1.2992-.366-.0017-.766-.0136-.974-.0346-1.483-.1495-1.967-.7054-1.355-1.726 1.202-2.0064 3.681-4.6839 5.485-6.576.12-.1635.103-.2443-.044-.2424-2 .2495-7.108 1.1804-12.987 3.4399l-3.48 3.3298c-.909.7826-1.942 1.3019-3.253 1.3748l-3.145.0419 1.656-2.0001c-3.486.9103-7.354 1.975-10.547 2.184-2.303.1505-3.163-.3111-2.419-1.5519 1.202-2.0064 3.701-4.6641 5.479-6.576.135-.1454.096-.2443-.051-.2424-2 .2495-7.108 1.1804-12.987 3.4399l-3.48 3.3298c-.909.7826-1.942 1.3446-3.253 1.4176l-3.145-.0009 1.229-1.2197c-3.81.8562-9.561 1.5361-13.023 1.7402-2.04.1202-3.692.1558-4.754.1578h-.234c-.448-.0013-.767-.0089-.936-.0177-1.94-.1014-3.449-.4163-4.701-.9127-3.699 1.0827-13.3152 4.6863-17.2871 6.8853-1.9578 1.0837-3.1481 2.0676-4.7848 2.9742l-2.9745.6898c4.3158-4.7058 8.6268-9.223 12.5652-13.192-2.6673 1.245-7.8116 2.6794-11.2945 3.2497-3.7586.6153-4.3242-.2054-2.9427-2.27.0264-.0394.368-.6014.6953-1.0201-.5058.2383-1.0394.4783-1.5823.7137l-.2722.1173c-2.6367 1.1296-5.4191 2.1279-6.2549 2.2876-.7783.1488-1.4376-.0324-1.7419-.4165-.6248-1.1074-1.1203-2.1292-1.6566-3.3279-.1744.0819-.3531.1642-.5243.2412-1.0472.4713-2.0516.8788-3.0791 1.272-9.3623 3.5141-14.8852 3.0903-16.4414 1.1694-5.0106.6472-9.8531 1.2021-14.7313 1.6381-9.64.8011-16.0558 1.1522-25.2846.7047-23.8694-1.1578-9.50415-16.17003 36.3409-21.79778 6.4361-.789936 11.0129-1.256641 13.8885-1.3479842.392-.0065768.7648-.0197307 1.1316-.0214358zm12.4274 12.1481c-4.1583.4762-8.1101 1.5522-12.0495 2.9977-6.2596 2.4157-7.1323 4.5006-.799 3.0326.9485-.2417 2.1452-.5676 3.5259-1.0165 3.9762-1.3104 6.8927-2.7144 9.3226-5.0138zm135.6583.4933c-.506-.4208-1.589-.0734-2.32.1734-4.937 1.6673-9.627 3.7779-11.537 5.5556 3.414-.9563 10.701-3.2543 14.464-4.696.116-.0442.131-.1568.072-.2897-.077-.1763-.251-.3866-.679-.7433zm-83.627-.2963c-.506-.4208-1.589-.0734-2.32.1734-4.937 1.6673-9.629 3.7776-11.539 5.5556 3.415-.9563 10.703-3.2543 14.467-4.696.115-.0441.124-.1568.072-.2894-.069-.1802-.251-.3869-.68-.7436z" fill="#010205" fill-rule="evenodd"/></svg>