<svg viewBox="0 0 224 35" xmlns="http://www.w3.org/2000/svg"><path d="m221.93 20.14c-.24-.3-.56-.39-.98-.3-.57.15-1.71.36-3.43.65-1.72.28-3.94.56-6.67.81-2.73.26-5.63.39-8.69.39-.77 0-1.36-.06-1.78-.17-.17-.04-.31-.1-.43-.17 3.4-.67 6.51-1.37 9.33-2.09 3.24-.83 5.78-1.59 7.63-2.3 1.85-.7 2.78-1.28 2.78-1.72s-.28-1.04-.83-1.78-1.23-1.4-2.02-1.96c-.79-.57-1.53-.85-2.22-.85-2.05 0-4.79.57-8.22 1.72s-6.44 2.54-9.02 4.19c-1.98 1.26-3.2 2.47-3.66 3.62-.76.19-1.49.35-2.2.45-1.07.16-1.95.22-2.61.19-.67-.04-1-.15-1-.35 0-.17.26-.58.78-1.22s1.09-1.31 1.7-2c.86-.96 1.53-1.75 2-2.35.47-.61.7-1.02.7-1.24 0-.25-.07-.55-.2-.91-.14-.36-.35-.67-.63-.93s-.62-.39-1.02-.39c-1.28 0-3.23.36-5.84 1.09-2.39.67-5.88 1.81-10.45 3.42l4.02-4.4-6 .63-5.71 6.48c-1.53.52-2.91.94-4.13 1.28-1.22.33-2.18.55-2.87.65s-1.04.06-1.04-.11.26-.58.78-1.22 1.09-1.31 1.7-2c.86-.96 1.53-1.75 2-2.35.47-.61.7-1.02.7-1.24 0-.25-.07-.55-.2-.91-.14-.36-.35-.67-.63-.93s-.62-.39-1.02-.39c-1.28 0-3.23.36-5.84 1.09-2.39.67-5.88 1.81-10.45 3.42l4.02-4.4-6 .63-5.54 6.29c-1.05.45-2.29.89-3.72 1.32-1.51.46-3.64.89-6.39 1.3-2.76.41-5.97.61-9.65.61-.77 0-1.36-.06-1.78-.17-.17-.04-.31-.1-.43-.17 3.4-.67 6.51-1.37 9.33-2.09 3.23-.83 5.78-1.59 7.63-2.3 1.85-.7 2.78-1.28 2.78-1.72s-.28-1.04-.83-1.78c-.56-.74-1.23-1.4-2.02-1.96-.79-.57-1.53-.85-2.22-.85-2.05 0-4.79.57-8.22 1.72s-6.44 2.54-9.02 4.19c-2.34 1.49-3.61 2.9-3.83 4.24-1.61.56-3.26 1.17-4.99 1.85-1.99.79-3.88 1.59-5.69 2.41-.45.2-.87.4-1.28.59 1.94-2.01 4.04-4.14 6.3-6.37 3.1-3.06 6.09-5.8 8.98-8.23l-6.89.59-1.33 1.44c-1.09 1.18-2.2 2.38-3.3 3.58-.92.37-1.86.74-2.83 1.08-1.59.57-3.01 1.03-4.24 1.39-1.24.36-2.09.54-2.56.54-.17 0-.3-.05-.37-.15s-.12-.21-.15-.33c-.05-.27.51-1.1 1.67-2.48s2.74-3.07 4.74-5.08l-5.89.63c-1.88 1.97-3.73 4.06-5.57 6.27-1.77.66-3.1 1.13-3.99 1.38-.89.26-1.48.39-1.78.39-.2 0-.38-.12-.56-.37-.17-.25-.31-.54-.43-.87-.11-.33-.17-.62-.17-.87 0-.2.11-.46.33-.78s.69-.86 1.39-1.63 1.6-1.72 2.69-2.85l1.33-1.41h-4.74c-3.33 0-7.18.47-11.52 1.41-4.35.94-8.06 2.16-11.15 3.67-1.87.91-3.17 1.86-3.91 2.83l-1.65.13c-6.69.54-13.1.99-19.23 1.35s-11.75.43-16.88.22-7.69-.97-7.69-2.28c0-1.19 2.54-2.68 7.61-4.48 5.08-1.8 11.7-3.57 19.88-5.3s16.61-3.09 25.3-4.08c.64-.79 1.02-1.4 1.15-1.82.12-.42.04-.71-.24-.87s-.74-.24-1.35-.24c-5.58 0-13.34.87-23.27 2.61s-18.68 4.01-26.25 6.82c-7.56 2.83-11.34 5.78-11.34 8.87 0 2.52 3.19 4.08 9.58 4.67 6.38.59 14.01.55 22.88-.13 7.42-.57 14.44-1.33 21.07-2.27.57 1.09 1.99 1.68 4.28 1.78 3.04.14 6.65-.56 10.84-2.07 1.95-.71 3.78-1.54 5.51-2.48.43 1.09.8 1.91 1.1 2.48.37.68.7 1.14 1 1.37s.64.35 1.04.35c.62 0 2.24-.47 4.87-1.41.62-.22 1.21-.44 1.78-.65-.28.52-.41.92-.39 1.21.02.3.17.52.44.67s.7.22 1.3.22c1.01 0 2.41-.22 4.21-.67 1.79-.44 3.67-1.02 5.65-1.74 1.1-.4 2.1-.8 3.04-1.22-.61.67-1.21 1.32-1.82 1.99-2.91 3.21-6.36 7.03-10.34 11.45l3.22-.33c1.85-1.33 3.73-2.54 5.63-3.63s4.36-2.29 7.37-3.61c2.29-1.01 5.08-2.13 8.37-3.37.04.04.07.08.12.11.62.48 1.51.83 2.69 1.04 1.17.21 2.62.31 4.35.31 2.42 0 5.09-.19 8.02-.57s5.72-.92 8.39-1.61c.33-.08.64-.17.95-.26l-1.95 2.22h2.85c.86 0 1.6-.1 2.2-.3s1.12-.52 1.54-.96l3.32-3.6c2.74-.92 5.11-1.68 7.11-2.27 2.36-.7 4.12-1.17 5.28-1.39s1.74-.23 1.74-.04c0 .07-.2.35-.59.82-.4.47-.84.99-1.33 1.56-1.16 1.31-2.07 2.39-2.74 3.24s-1 1.44-1 1.76c0 .84.99 1.18 2.98 1.02s4.32-.61 6.98-1.35c.79-.22 1.54-.44 2.25-.66l-1.92 2.18h2.85c.86 0 1.6-.1 2.2-.3s1.12-.52 1.54-.96l3.32-3.6c2.74-.92 5.11-1.68 7.11-2.27 2.36-.7 4.12-1.17 5.28-1.39s1.74-.23 1.74-.04c0 .07-.2.35-.59.82-.4.47-.84.99-1.33 1.56-1.16 1.31-2.07 2.39-2.74 3.24s-1 1.44-1 1.76c0 .84.96 1.25 2.89 1.24s4.17-.3 6.72-.85c1.33-.29 2.5-.58 3.54-.88.33.48.86.86 1.61 1.14 1.35.51 3.33.76 5.95.76 1.95 0 4.2-.12 6.76-.37s5.1-.59 7.63-1.04 4.75-.95 6.65-1.52c-.15-.62-.34-1.07-.57-1.37zm-157.79.59c-2.31.37-3.46.25-3.46-.37s1.08-1.41 3.24-2.39 4.73-1.83 7.71-2.56c2.64-.65 4.98-1 7.03-1.08l-.31.28c-1.58 1.46-3.77 2.75-6.56 3.87s-5.34 1.87-7.65 2.24zm54.76-3.02c1.86-.95 3.94-1.82 6.22-2.59 2.29-.78 3.83-1.17 4.65-1.17.17 0 .39.07.67.2.27.14.51.3.7.48.2.19.3.33.3.43 0 .17-.65.47-1.96.89s-3.23.95-5.76 1.59c-2.08.53-4.5 1.12-7.27 1.78.42-.46 1.24-.99 2.45-1.61zm83.18 0c1.86-.95 3.94-1.82 6.22-2.59 2.28-.78 3.83-1.17 4.65-1.17.17 0 .39.07.67.2.27.14.51.3.7.48.2.19.3.33.3.43 0 .25-1.47.78-4.41 1.59-2.59.72-6.12 1.61-10.58 2.67.42-.46 1.23-.99 2.45-1.62z"/></svg>