<svg fill="none" height="40" viewBox="0 0 256 40" width="256" xmlns="http://www.w3.org/2000/svg"><path clip-rule="evenodd" d="m255.109 25.4872c-.067-.2101-.63-1.36-1.216-1.6586-.394-.1383-.82-.1594-1.226-.0608-1.583.3266-3.185.5592-4.795.6966-1.983.1161-2.138-.4091-1.249-1.5812 1.718-2.2723 4.188-4.9039 6.149-7.1873.168-.1913.278-.4262.318-.6777.04-.2514.008-.5091-.092-.7431-.154-.376-.337-.763-.519-1.1555-1.387-2.9689-18.23 2.897-21.793 4.0967l4.463-4.9758-7.126.1493-6.955 7.8783c-2.044.9012-3.315 1.4596-5.254 2.2115-2.132.8846-2.602.4976-3.265-.4865-.513-.763-.734-1.8853-.116-2.6372l5.751-7.0491c-4.972-.1271-14.788.6248-22.506 2.9247-7.303 2.2115-12.578 4.9758-13.982 8.3926-2.491.4422-5.784.9067-6.629.9564-2.016.1161-2.176-.4202-1.27-1.6088 1.839-2.4271 4.513-5.2578 6.546-7.6738.171-.1939.284-.4321.326-.6874.042-.2552.011-.5171-.089-.7556-.16-.4033-.344-.7965-.552-1.1776-1.215-2.3331-13.645 1.6586-20.003 3.7318l.508-.5528c.172-.1933.286-.4315.328-.687s.011-.5177-.091-.756c-.165-.4257-.348-.8017-.552-1.1776-1.414-2.886-12.916 2.3828-17.159 3.9253l4.685-5.114-7.06.1382c-.073.0032-.145.021-.212.0523-.066.0313-.126.0756-.175.1302l-3.01 3.5051c-3.867 1.3435-8.337 2.7644-16.164 6.0816 3.933-3.5715 6.143-5.6116 10.927-9.7028l-7.602.3483-5.59 5.3794c-2.763 1.4374-8.64 3.6268-12.076 4.1631-1.166.1824-.354-.8349.176-1.5094 2.201-2.6808 4.541-5.2441 7.011-7.6793-3.409.1272-4.729.1603-7.375.2764-.553.5031-4.972 4.8653-6.8117 6.8114-1.8562.8293-3.0715 1.3877-4.9719 2.1396-2.1324.879-2.6019.492-3.2648-.4921-.5138-.7574-.7348-1.8853-.116-2.6316l5.7507-7.0491c-4.9718-.1272-14.7885.6192-22.5059 2.9247-7.3197 2.1838-11.601 4.6938-13.3577 7.2923-3.6737.3925-7.5296.5529-10.7061.8459-34.129 1.8631-43.73019-.4257-34.0958-5.0975 5.2929-2.6312 10.8356-4.726 16.5452-6.2529 14.2029-3.8369 19.8045-5.03663 35.4659-7.44713 1.4308-.24879 7.8445-1.07256 7.9163-1.07256.4595-.13365.8531-.43307 1.1048-.84036 1.4198-1.658608 1.6573-2.3331066-.243-2.36075-.4475 0-.8508 0-1.3093 0-3.3698.110574-12.286.868003-19.8266 1.84658-53.69607 6.96061-70.3407 25.43192-42.537 27.14032 10.8.6745 18.324.1216 29.6157-.8736 5.7121-.5528 11.8716-1.2218 17.7384-2.0235 1.823 2.3774 7.8114 3.0298 18.7826-1.3213 1.2098-.481 2.1268-.8404 3.3532-1.4264l1.2927-.6358c.221.5197.7347 1.5204.9889 2.0069 1.1048 2.0733 2.0108 3.4112 5.0105 2.3718 1.6573-.6082 4.0879-1.5923 6.2203-2.5542-1.707 2.5155-1.0165 3.5107 3.5906 2.7643 4.265-.6911 10.568-2.4271 13.811-3.9309-4.823 4.8044-10.767 10.9357-16.0537 16.6358l4.2147-1.0615 8.066-7.2426c6.689-5.1343 14.42-8.7422 22.649-10.5708l-4.27 4.7712-1.657 1.83 3.408.0277h.05c1.554-.1143 3.024-.7515 4.171-1.8079l4.132-3.9807c4.268-1.6235 8.638-2.9644 13.082-4.0138.187 0 .215.0885.082.3041-2.495 2.9926-4.81 6.1311-6.933 9.3988l4.155-.0387c.735-.0016 1.462-.158 2.133-.459s1.271-.7398 1.761-1.2881l4.265-4.7878c.214-.2101.476-.3655.762-.4534 6.077-1.9129 9.944-2.8749 12.076-3.1735.188 0 .21.0996.067.3096-2.513 2.5777-4.772 5.3919-6.745 8.4036-.956 1.5812.199 1.8743 3.121 1.9793 2.513.0711 5.027-.0824 7.513-.4589 2.646-.3704 5.601-.879 7.878-1.349 1.823 2.3774 7.85 3.085 18.81-1.266 1.21-.481 2.127-.8459 3.353-1.4264l1.293-.6414c.221.5197.751 1.526.988 2.0069 1.05 2.1009 2.011 3.4168 5.011 2.3719.9-.3318 2.049-.7796 3.259-1.2827.106-.0261.217-.0203.319.0165.103.0368.192.1031.257.1905s.102.192.108.3008c.006.1087-.021.2167-.076.3104-.063.0762-.103.1689-.116.2671-.012.0982.004.1978.046.2873.043.0894.11.1649.194.2175.083.0526.18.0802.279.0796h2.304.05c1.526-.1163 2.969-.7411 4.099-1.7747l4.563-4.4893c5.231-1.7722 10.606-3.0874 16.064-3.9309.188 0 .243.1161.067.3041-2.449 2.5154-4.647 5.2632-6.563 8.2045-.945 1.5536.193 1.8411 3.066 1.9406 2.47.0749 4.942-.075 7.386-.4478 1.038-.1438 2.889-.4368 3.027-.4589 1.734-.3046 3.447-.722 5.126-1.2495.238-.0995.282-.2267.233-.3815zm-177.0096-4.0912c-1.6572.5529-2.9112.8901-4.0492 1.1887-7.6014 1.8023-6.4966-.8183 1.0219-3.7817 4.661-1.8649 9.5421-3.1228 14.5234-3.7429-2.9168 2.8197-6.7231 4.727-11.4961 6.3359zm132.5106-6.0318c-2.916 2.8196-6.723 4.727-11.496 6.3359-1.657.5528-2.911.8901-4.049 1.1886-7.585 1.8245-6.48-.7961 1.022-3.765 4.66-1.8655 9.539-3.1288 14.518-3.7595z" fill="#010205" fill-rule="evenodd"/></svg>