<svg fill="none" height="28" viewBox="0 0 204 28" width="204" xmlns="http://www.w3.org/2000/svg"><path d="m144.098 22.779c-2.569.3929-3.853.2619-3.853-.3929 0-.6544 1.201-1.4987 3.606-2.5333 2.404-1.0347 5.261-1.9379 8.572-2.7106 2.938-.685 5.544-1.0648 7.822-1.1422l-.341.2975c-1.759 1.5454-4.19 2.9135-7.295 4.105-3.105 1.1919-5.942 1.9836-8.511 2.3765zm-61.9996 0c-2.5697.3929-3.8535.2619-3.8535-.3929 0-.6544 1.2016-1.4987 3.6058-2.5333 2.4042-1.0347 5.2615-1.9379 8.5731-2.7106 2.937-.685 5.5431-1.0648 7.8211-1.1422l-.3408.2975c-1.759 1.5454-4.1902 2.9135-7.2949 4.105-3.1056 1.1919-5.942 1.9836-8.5108 2.3765zm120.8316-.2913c-.099-.3206-.246-.5237-.441-.6074-.196-.0836-.49-.0696-.882.0421-1.371.4188-2.665.7196-3.882.901-1.218.1818-2.204.2514-2.959.2094-.756-.0416-1.134-.1741-1.134-.3981 0-.1953.294-.6562.882-1.3831.587-.7264 1.231-1.4808 1.93-2.2638.98-1.0896 1.735-1.9765 2.267-2.6614.531-.6848.798-1.1529.798-1.4044 0-.279-.078-.6214-.231-1.0272-.154-.4043-.392-.7539-.714-1.0475s-.707-.4406-1.154-.4406c-1.456 0-3.659.4131-6.611 1.2371-2.706.7555-6.655 2.0456-11.838 3.8689l4.554-4.9803-6.8.7129-6.361 7.2181c-2.003.7498-3.507 1.2714-4.511 1.5634-1.007.2936-1.679.4401-2.014.4401-.225 0-.435-.1392-.63-.4193-.196-.2785-.357-.6074-.483-.9846-.126-.3777-.189-.7056-.189-.9851 0-.2235.126-.517.378-.8807.252-.3627.776-.9774 1.574-1.844.798-.8657 1.811-1.9417 3.043-3.2277l1.512-1.5931h-5.373c-3.779 0-8.13.5316-13.055 1.5931-4.926 1.0625-9.138 2.4457-12.635 4.1499-2.047.9976-3.49 2.0285-4.339 3.0926-1.518.465-2.977.8823-4.371 1.2454-1.553.4058-3.463.7758-5.73 1.1109-2.267.3357-4.66.503-7.178.503-1.148 0-2.057-.1185-2.729-.3559-.671-.237-1.007-.7056-1.007-1.4045 0-.8381 1.021-1.7188 3.064-2.6405 2.043-.9223 4.673-1.7817 7.892-2.5782 3.217-.796 6.59-1.4595 10.116-1.9911.392-.3907.706-.7399.945-1.048.237-.307.37-.572.398-.796.057-.5029-.293-.7544-1.049-.7544-3.218 0-7.178.5097-11.879 1.5296-4.702 1.0205-8.767 2.3756-12.194 4.0663-1.928.9504-3.313 1.9469-4.157 2.9897-.971.344-1.764.6059-2.371.7825-1.007.2936-1.679.4401-2.015.4401-.224 0-.434-.1392-.63-.4193-.195-.2785-.356-.6074-.482-.9846-.126-.3777-.189-.7056-.189-.9851 0-.2235.126-.517.378-.8807.252-.3627.776-.9774 1.574-1.844.797-.8657 1.812-1.9417 3.043-3.2277l1.511-1.5931h-5.373c-3.7778 0-8.1294.5316-13.0543 1.5931-4.926 1.0625-9.1376 2.4457-12.6353 4.1499-3.3207 1.618-5.0618 3.3243-5.2303 5.1185-.2576.0171-.779.0857-1.5699.2047-2.2947.3081-4.2256.5029-5.7928.5871-1.5673.0837-2.3504-.0977-2.3504-.545 0-.3913.6358-1.3624 1.9096-2.9134 1.2733-1.5509 2.9175-3.437 4.9323-5.6583 2.0152-2.2217 3.9597-4.3245 5.835-6.30877 1.4272-1.53642 2.6927-2.90605 3.7989-4.10785 1.1052-1.20129 1.6578-1.85804 1.6578-1.97027 0-.27902-.14-.6287-.4194-1.04749-.2804-.41931-.6717-.782498-1.1754-1.090093-.5037-.307076-1.0776-.4608736-1.7213-.4608736-2.4627 0-5.7788 1.0412466-9.9482 3.1227166-4.1705 2.08198-8.1583 4.35933-11.9635 6.83253-3.8062 2.4727-7.766 5.1491-11.8797 8.0271-.8674.6147-1.6021 1.1249-2.2036 1.5297-.6021.4053-.9028.5804-.9028.5243 0-.0562.5942-.6428 1.7842-1.7609 1.189-1.1171 2.5397-2.3751 4.0508-3.7722 3.7781-3.4652 6.7581-6.2387 8.9414-8.32069 2.1823-2.08146 3.2739-3.26248 3.2739-3.54202 0-.30707-.1613-.67702-.4828-1.11087-.3221-.43282-.7556-.810039-1.3014-1.131663-.5453-.320585-1.1406-.481657-1.7837-.481657-2.4913 0-6.7727 1.48134-12.8449 4.44298-6.0734 2.96217-12.719 6.60912-19.9392 10.93992-7.2201 4.3318-13.86632 8.5373-19.939127 12.6171h.881447c2.6308-.0561 4.4707-.133 5.52021-.2307 1.04899-.0982 1.98663-.3076 2.81239-.6287.82528-.3216 1.86798-.901 3.12718-1.7396 5.1768-3.3534 10.3265-6.5182 15.4477-9.4939 5.1211-2.9761 9.3462-5.3164 12.6768-7.02113 3.3302-1.70424 4.9952-2.4166 4.9952-2.13758 0 .02806-.1467.18861-.4407.48166-.294.29356-.665.66403-1.1125 1.11139-5.233 5.14136-11.0258 11.19136-17.378 18.14966 2.854 0 4.8692-.0421 6.0441-.1257 1.1755-.0837 2.2598-.3211 3.2537-.7129.9928-.3907 2.2733-1.1036 3.8406-2.1376l8.4377-5.491c4.337-2.7668 7.9262-5.0155 10.7667-6.7489 2.84-1.73227 4.9811-2.96889 6.4225-3.7093 1.4413-.73989 2.1619-.95708 2.1619-.64948 0 .02754-.2096.27953-.6295.75392-.42.47594-.9236 1.02098-1.5111 1.63514-2.2671 2.48722-4.2397 4.68822-5.9188 6.60182-1.6791 1.9142-3.2255 3.8497-4.6388 5.8054-1.4132 1.9562-2.1198 3.3815-2.1198 4.2757 0 .8381 1.1754 1.3202 3.5263 1.446 2.3509.1257 5.0649-.0146 8.1432-.4193 2.7021-.356 4.8755-.7815 6.5213-1.2767.8232.8122 2.2702 1.2673 4.3511 1.3608 3.442.1528 7.5349-.6287 12.2777-2.3475 2.2052-.7991 4.2819-1.738 6.2419-2.8052.484 1.2283.9023 2.1662 1.2514 2.8052.4194.769.7972 1.2855 1.1333 1.551.3356.265.7275.398 1.1755.398.6988 0 2.5395-.5305 5.5195-1.5925.639-.2276 1.253-.4515 1.851-.6724.191.5711.635 1.061 1.339 1.4684.966.5596 2.239.9706 3.821 1.2366 1.58.2655 3.308.398 5.184.398 2.098 0 4.554-.2447 7.367-.7331 2.812-.489 5.554-1.1109 8.227-1.8653.69-.1949 1.348-.3897 1.977-.5846.342 1.6913 2.038 2.6063 5.095 2.7434 3.443.1528 7.535-.6287 12.279-2.3475 2.204-.7991 4.282-1.738 6.242-2.8052.484 1.2283.902 2.1662 1.251 2.8052.419.769.797 1.2855 1.133 1.551.336.265.728.398 1.175.398.7 0 2.54-.5305 5.52-1.5925.386-.1377.764-.2738 1.136-.4095l-1.912 2.1698h3.232c.979 0 1.812-.1122 2.498-.3351.685-.2234 1.265-.5871 1.742-1.0901l3.766-4.0699c3.106-1.0418 5.793-1.9012 8.05-2.574 2.672-.796 4.667-1.3203 5.982-1.5718s1.973-.2655 1.973-.0421c0 .0837-.224.3918-.672.9223-.448.531-.951 1.1181-1.511 1.7609-1.316 1.4813-2.351 2.7034-3.106 3.6672-.756.9644-1.133 1.6284-1.133 1.9911 0 .9503 1.091 1.4179 3.274 1.4044 2.182-.0145 4.722-.3351 7.618-.9643 2.897-.6287 5.17-1.2782 6.822-1.949-.113-.6983-.217-1.208-.315-1.5302z" fill="#010205"/></svg>