<svg viewBox="0 0 181 35" xmlns="http://www.w3.org/2000/svg"><path d="m180.22 20.55c-.09-.28-.22-.47-.39-.54s-.43-.06-.78.04c-1.22.37-2.36.64-3.44.8s-1.95.22-2.62.19c-.67-.04-1-.15-1-.35 0-.17.26-.58.78-1.23.52-.64 1.09-1.32 1.71-2.01.87-.97 1.54-1.76 2.01-2.36.47-.61.71-1.02.71-1.25 0-.25-.07-.55-.2-.91-.14-.36-.35-.67-.63-.93-.29-.26-.63-.39-1.02-.39-1.29 0-3.24.37-5.86 1.1-2.4.67-5.9 1.82-10.5 3.44l4.04-4.42-6.03.63-5.64 6.41c-1.78.67-3.11 1.13-4 1.39s-1.49.39-1.79.39c-.2 0-.39-.12-.56-.37s-.32-.54-.43-.87c-.11-.34-.17-.63-.17-.87 0-.2.11-.46.33-.78s.69-.87 1.4-1.64 1.61-1.72 2.7-2.87l1.34-1.41h-4.76c-3.35 0-7.21.47-11.58 1.41s-8.1 2.17-11.2 3.68c-1.81.89-3.09 1.8-3.85 2.75-1.35.41-2.64.78-3.88 1.11-1.38.36-3.07.69-5.08.99s-4.13.45-6.36.45c-1.02 0-1.82-.11-2.42-.32s-.89-.63-.89-1.25c0-.74.91-1.53 2.72-2.34 1.81-.82 4.14-1.58 7-2.29 2.85-.71 5.84-1.3 8.97-1.77.35-.35.63-.66.84-.93s.33-.51.35-.71c.05-.45-.26-.67-.93-.67-2.85 0-6.36.45-10.53 1.36s-7.77 2.11-10.81 3.61c-1.71.84-2.94 1.73-3.69 2.66-.86.31-1.56.54-2.1.69-.89.26-1.49.39-1.79.39-.2 0-.38-.12-.56-.37-.17-.25-.32-.54-.43-.87-.11-.34-.17-.63-.17-.87 0-.2.11-.46.33-.78s.69-.87 1.4-1.64 1.61-1.72 2.7-2.87l1.34-1.41h-4.76c-3.35 0-7.21.47-11.58 1.41s-8.1 2.17-11.2 3.68c-2.94 1.44-4.49 2.95-4.64 4.55-.23.02-.69.08-1.39.18-2.03.27-3.75.45-5.14.52s-2.08-.09-2.08-.48c0-.35.56-1.21 1.69-2.59s2.59-3.05 4.37-5.02 3.51-3.84 5.17-5.6c1.27-1.36 2.39-2.58 3.37-3.65s1.47-1.65 1.47-1.75c0-.25-.12-.56-.37-.93s-.6-.69-1.04-.97c-.45-.27-.96-.41-1.53-.41-2.18 0-5.12.92-8.82 2.77s-7.23 3.87-10.61 6.07c-3.37 2.2-6.89 4.57-10.53 7.13-.77.55-1.42 1-1.95 1.36s-.8.52-.8.47.53-.57 1.58-1.56 2.25-2.11 3.59-3.35c3.35-3.08 5.99-5.54 7.93-7.39s2.9-2.9 2.9-3.15c0-.27-.14-.6-.43-.99-.29-.38-.67-.72-1.15-1s-1.01-.43-1.58-.43c-2.21 0-6.01 1.32-11.39 3.95s-11.28 5.87-17.68 9.71c-6.4 3.85-12.3 7.58-17.68 11.2h.78c2.33-.05 3.96-.12 4.89-.2.93-.09 1.76-.27 2.49-.56s1.66-.8 2.77-1.54c4.59-2.98 9.16-5.79 13.7-8.43s8.29-4.72 11.24-6.23 4.43-2.15 4.43-1.9c0 .03-.13.17-.39.43s-.59.59-.99.99c-4.64 4.57-9.78 9.94-15.41 16.12 2.53 0 4.32-.04 5.36-.11s2-.28 2.88-.63 2.02-.98 3.41-1.9l7.48-4.88c3.85-2.46 7.03-4.45 9.55-5.99s4.42-2.64 5.69-3.29c1.28-.66 1.92-.85 1.92-.58 0 .02-.19.25-.56.67s-.82.91-1.34 1.45c-2.01 2.21-3.76 4.16-5.25 5.86s-2.86 3.42-4.11 5.15c-1.25 1.74-1.88 3-1.88 3.8 0 .74 1.04 1.17 3.13 1.28 2.08.11 4.49-.01 7.22-.37 2.4-.32 4.32-.69 5.78-1.13.73.72 2.01 1.13 3.86 1.21 3.05.14 6.68-.56 10.89-2.08 1.95-.71 3.8-1.54 5.53-2.49.43 1.09.8 1.92 1.11 2.49.37.68.71 1.14 1 1.38.3.24.64.35 1.04.35.62 0 2.25-.47 4.89-1.41.57-.2 1.11-.4 1.64-.6.17.51.56.94 1.19 1.3.86.5 1.98.86 3.39 1.1 1.4.24 2.93.35 4.6.35 1.86 0 4.04-.22 6.53-.65s4.93-.99 7.3-1.66c.61-.17 1.2-.35 1.75-.52.3 1.5 1.81 2.31 4.52 2.44 3.05.14 6.68-.56 10.89-2.08 1.95-.71 3.8-1.54 5.53-2.49.43 1.09.8 1.92 1.11 2.49.37.68.71 1.14 1 1.38.3.24.64.35 1.04.35.62 0 2.25-.47 4.89-1.41.34-.12.68-.24 1.01-.36l-1.7 1.93h2.87c.87 0 1.61-.1 2.21-.3.61-.2 1.12-.52 1.54-.97l3.34-3.61c2.75-.92 5.14-1.69 7.14-2.29 2.37-.71 4.14-1.17 5.3-1.4 1.17-.22 1.75-.24 1.75-.04 0 .07-.2.35-.6.82s-.84.99-1.34 1.56c-1.17 1.32-2.08 2.4-2.75 3.26s-1 1.45-1 1.77c0 .84.97 1.26 2.9 1.25 1.94-.01 4.19-.3 6.76-.86s4.58-1.14 6.05-1.73c-.1-.62-.19-1.07-.28-1.36zm-107.2.39c-2.32.37-3.48.25-3.48-.37s1.09-1.42 3.26-2.4 4.75-1.84 7.74-2.57c2.65-.65 5.01-1.01 7.06-1.08l-.31.28c-1.59 1.46-3.78 2.76-6.59 3.89-2.8 1.13-5.37 1.88-7.69 2.25zm55.38 0c-2.32.37-3.48.25-3.48-.37s1.09-1.42 3.26-2.4 4.75-1.84 7.74-2.57c2.65-.65 5.01-1.01 7.06-1.08l-.31.28c-1.59 1.46-3.78 2.76-6.59 3.89-2.8 1.13-5.37 1.88-7.69 2.25z"/></svg>