<svg viewBox="0 0 259 35" xmlns="http://www.w3.org/2000/svg"><path d="m256.22 20.58c-.17-.56-.69-.68-.97-.6-1.47.42-2.96.97-4.74 1.11-.62.05-1.2-.15-1.45-.46-.26-.32-.47-.7-.64-1.12-.36-.92-.28-1.42.23-2.04 1.63-1.98 3.7-4.07 5.55-6.05-10.44-.35-19.18 1.69-25.72 4.36-.37-.94-.81-2-1.41-2.89-.53-.79-1.16-1.3-2.42-1.33-.92-.02-2.17.21-4.39.95-2.1.71-4.46 1.61-7.62 2.89.94-1.03 1.96-2.15 3.19-3.51-2.04.21-4.07.45-6.11.67-1.85 2.12-3.75 4.28-5.37 6.1-5.97 2.13-13.27 3.42-19.05 3.41-1.01 0-2.71-.01-3.25-.2 10.18-2.03 16.84-4.17 18.86-5.31 1.34-.76 1.02-1.27.6-1.99-.54-.92-1.42-1.93-2.57-2.75-.97-.69-1.63-.86-2.39-.85-1.22.02-2.69.23-4.37.64-3.86.95-8.91 2.77-13.05 5.43-2.07 1.33-3.31 2.54-3.73 3.76-1.29.34-2.49.55-3.66.65-.96.08-2.08.15-2.26-.19-.19-.34.53-1.15 1.14-1.86 1.28-1.49 2.33-2.69 3.36-4.06.33-.44.4-.69.22-1.21-.14-.42-.36-.81-.75-1.16-.34-.31-.66-.41-1.12-.41-1.29 0-3.27.47-5.58 1.15-2.45.72-4.81 1.61-7.2 2.51.37-.53.63-.94.78-1.23.19-.35.18-.54.07-.87-.12-.38-.29-.71-.66-1.02-.35-.3-.72-.4-1.18-.4-1.29.02-3.2.48-6.13 1.42-2.25.73-4.44 1.48-6.56 2.26 1.14-1.25 2.37-2.59 3.94-4.31-2.04.21-4.07.43-6.11.65-1.91 2.17-3.86 4.39-5.5 6.24-1.92.71-3.49 1.31-5.24 1.72-.76.17-.99.06-1.31-.49-.12-.21-.23-.45-.31-.72-.22-.66-.08-1.37.42-1.96 1.58-1.87 3.53-3.82 5.27-5.68-11.65-.39-21.16 1.99-27.9 5.16-1.41.66-2.98 1.54-3.99 2.88-1.92.61-3.61 1.06-4.88 1.31-1.82.35-2.03.17-.78-1.32 1.41-1.68 3.11-3.45 4.09-4.87.39-.56.42-.75.27-1.3-.15-.56-.38-.95-.7-1.27-.34-.34-.67-.46-1.14-.46-1.33 0-3.25.37-5.89 1.1-2.43.68-5.98 1.82-10.64 3.46 1.18-1.29 2.45-2.68 4.09-4.47-2.04.21-4.07.42-6.11.63-1.91 2.16-3.86 4.38-5.5 6.22-1.92.7-3.49 1.3-5.24 1.7-.76.18-1 .05-1.31-.5-.12-.21-.23-.45-.31-.72-.21-.66-.08-1.37.42-1.96 1.59-1.87 3.53-3.81 5.27-5.67-11.66-.39-21.14 1.91-27.9 5.07-2.37 1.11-5.07 2.99-4.74 5.27.33 2.3 3.63 2.78 5.86 2.69 5.58-.23 11.11-2.29 15.43-4.59.34.87.64 1.61 1.12 2.52.32.62.72 1.29 1.29 1.59s1.18.17 1.67.05c1.66-.42 3.31-1.01 5.11-1.65-.62.71-1.29 1.47-1.94 2.2h2.59c2.24 0 3.2-.27 4.65-1.84.89-.96 1.88-2.04 2.85-3.08 4.65-1.56 8.68-2.79 11.51-3.47 3.46-.83 3.21-.55 1.62 1.32-1.11 1.3-2.13 2.39-3.46 4.06-.77.97-1.33 1.82-.89 2.4.44.57 1.69.58 2.85.49 3.32-.27 6.87-1.23 10.06-2.24.6 2.07 3.69 2.48 5.8 2.39 5.58-.23 11.12-2.34 15.43-4.64.35.87.64 1.61 1.12 2.51.32.62.72 1.28 1.29 1.58.56.3 1.18.17 1.67.04 1.66-.42 3.31-1.02 5.11-1.67-.62.71-1.29 1.48-1.94 2.21h2.59c2.25 0 3.2-.28 4.65-1.86.91-.99 1.94-2.1 2.93-3.17 3.27-1.2 6.07-2.15 8.11-2.7 2.7-.72 2.47-.58 1.15 1.31-1.53 2.19-3.2 4.24-4.9 6.41h2.78c1.8 0 3.24-.63 4.18-1.84.86-1.11 1.72-2.23 2.56-3.35 2.77-1.03 5.23-1.92 8.18-2.68 2.56-.65 2.37-.34.93 1.32-.82.94-1.62 1.8-2.62 3.04-.81.99-1.69 2.17-1.28 2.86.41.67 2.03.76 3.9.66 3.45-.18 6.84-1.03 9.62-1.8.73.89 3.64 1.97 9.57 1.73 5.16-.21 11.06-1.18 15.82-2.53-.67.77-1.44 1.65-2.17 2.49h2.59c2.26 0 3.2-.29 4.65-1.87 1.14-1.24 2.46-2.67 3.69-4.01 3.88-1.43 8.27-2.57 9.79-2.84 1.15-.21 2.08-.31 2.95 2.15.41-.04.84-.09 1.27-.14-1.98 1.45-2.96 3.36-1.94 4.84 1.07 1.55 3.66 1.79 5.49 1.72 5.49-.22 10.95-2.36 15.23-4.62.47 1.14.9 2.23 1.49 3.15.58.91 1.14 1.29 2.47 1.13 3.41-.41 6.82-1.44 9.89-2.44-.09-.5-.16-.91-.28-1.32zm-201.47.46c-1.13.22-3.31.49-3.49-.26-.17-.73 1.61-1.79 3.04-2.45 4.49-2.07 11.25-3.65 15.22-3.75-4.31 3.92-10.34 5.59-14.77 6.46zm60.25.13c-1.13.22-3.31.49-3.49-.26-.17-.73 1.61-1.79 3.04-2.45 4.49-2.08 11.25-3.7 15.22-3.8-4.31 3.93-10.34 5.64-14.77 6.5zm68.93-2.98c3.65-1.88 8.38-3.46 10.31-3.79.74-.13 1.04-.07 1.43.13.29.14.55.32.78.55.32.31.47.45-.49.84-1.69.68-8.24 2.5-14.53 3.93.46-.5 1.37-1.07 2.5-1.65zm48.22 2.71c-1.13.22-3.32.49-3.49-.26-.17-.73 1.61-1.78 3.05-2.45 4.49-2.08 11.25-3.79 15.22-3.89-4.3 3.94-10.35 5.73-14.77 6.59z"/><path d="m3.58 24.71c1.63-.05 3.5-.48 4.7-1.42 2.44-1.92 5.48-4.29 7.32-5.79 18.04-1.63 29.9-3.37 38.85-6.25 5.4-1.73 8.17-3.67 8.28-6.02.1-2.28-2.26-4.25-10.13-4.73-13.13-.81-34.44 2.32-44.03 5.3-2.46.77-3.8 1.55-4.82 3.27 10.94-2.35 36.88-5.95 46.75-4.95 4.95.5 4.2 2.54 1.05 3.83-7.79 3.19-26.51 5.62-31.46 5.88 2.66-2.22 5.37-4.51 8.11-6.88-3.12.37-6.25.68-9.37 1.05-6.04 5.09-12.77 11.31-18.47 16.73 1.07 0 2.14.01 3.22-.02z"/></svg>