<svg fill="none" height="28" viewBox="0 0 287 28" width="287" xmlns="http://www.w3.org/2000/svg"><path clip-rule="evenodd" d="m27.1104 18.7286c56.7282-5.7133 50.8771-20.88421 18.2815-18.470623-3.5401.262122-10.9254.914153-17.7281 2.009783-6.3787 1.02696-12.1713 2.25119-16.2751 3.52338-2.71217.84059-4.37609 1.71278-5.54322 2.92012s-1.61546 1.66344-1.40375 1.61304c5.92927-1.40623 11.88137-2.46234 17.89407-3.45525 40.791-6.736958 54.173 1.07492 7.0704 7.92445-2.3835.2561-4.9457.6523-7.5114.7782 3.1765-2.7142 6.3492-5.443 9.4726-8.17758-2.6827.33623-7.3777.83377-10.0704 1.22804-8.0405 6.71954-14.67912 12.86764-21.081668 19.03214l4.553448-.0103c1.49444-.0831 3.13021-.7485 4.1885-1.6068 2.64452-2.1444 5.43762-4.1645 7.99992-6.2893 3.3708-.3695 6.9055-.6924 10.1532-1.0193zm195.7916-5.3113c.736.7109 1.056 1.0667 1.606 2.0738.112.2047.225.5097.301.7533.153.493-.054 1.1989-.783 1.5802-1.7.8887-5.585 2.2829-9.652 3.5702l-.453.1425c-2.945.9234-5.946 1.7792-8.248 2.3366 4.322.639 14.453.0289 21.617-1.9318l7.211-8.2691 6.815-.4014-3.249 3.6641c4.108-1.756 17.319-5.8406 19.094-3.2425.217.3179.529 1.1076.639 1.7921.107.6635.098 1.0815.072 1.4901.974-.3634 2.069-.7018 3.231-1.0316 7.508-2.1338 16.708-2.772 21.549-2.6546l-5.312 6.0936c-.573.5128-.5 1.521.014 2.3129.657 1.0132 1.265 1.3466 3.274.574.746-.2937 1.63-.6864 3.252-1.4215.714-.3326 1.432-.1976 1.729.416l.636 1.2047c-2.199 1.4331-7.08 3.4223-10.213 4.5137-2.864.9696-4.221-.175-5.209-2.308-.2-.4477-.409-.912-.634-1.419-.199.0937-.403.1882-.598.2764-3.416 1.5449-7.715 3.1142-11.329 3.8289-14.135 2.7965-14.747-4.2128-4.548-8.8772-1.094.2643-2.26.5035-3.071.6878-2.243.5098-2.977.2108-1.994-1.0407.041-.0524.056-.07.129-.17.129-.1874.11-.28-.058-.2781-2.308.3288-7.341 1.0556-14.8 3.9422l-4.259 4.0726c-1.034.8969-2.211 1.5411-3.705 1.6248l-3.342-.0011 1.713-1.8888c-4.311.9919-10.866 1.7709-14.814 2.0048-2.364.1399-4.272.1798-5.48.181l-.18-.0001c-.524-.0012-.897-.01-1.093-.0202-.237-.0124-.488-.008-.708-.0254-1.733-.1132-4.28-.3973-5.55-1.5336-2.065.4513-4.907.952-7.432 1.3129-2.388.3417-4.479.4891-6.638.4114-2.584-.0923-3.606-.3563-2.758-1.7783 1.371-2.2992 3.906-5.3839 5.956-7.5521.13-.1879.11-.28-.057-.2781-1.892.2693-5.731 1.4039-11.136 3.1704l-3.974 4.3914c-.92 1.0162-1.948 1.489-3.442 1.573l-3.67.0356c1.646-2.6568 4.539-6.6092 6.124-8.4721.119-.1937.094-.2838-.075-.2709-1.797.3659-6.517 1.6888-11.559 3.6088l-3.649 3.5765c-1.036.8969-2.213 1.5412-3.708 1.6249l-3.033-.0267 2.738-3.1555c-2.262 1.0641-4.645 1.9613-6.32 2.5226-2.872.9633-4.229-.1813-5.221-2.2994-.196-.4359-.399-.898-.619-1.3827-.198.0937-.402.1882-.597.2764-1.194.54-2.339 1.0068-3.51 1.4573-10.674 4.0276-16.97 3.5416-18.761 1.3279-1.797.3571-3.658.6861-5.807.9938-2.388.3417-4.479.4886-6.638.4114-2.584-.0926-3.6059-.3565-2.7583-1.7786 1.3713-2.2994 3.8503-5.3345 5.8993-7.5028.159-.173.111-.2799-.057-.278-2.29.326-7.2263 1.2121-14.4335 3.6055l-4.0962 4.1563c-1.036.8966-2.2139 1.5408-3.7078 1.6249l-3.0767-.0152 2.2296-2.7857c-1.9541.8558-4.0126 1.6513-5.5285 2.1801-2.8826.9721-4.2396-.1725-5.2488-2.3039-.2128-.4414-.4149-.8946-.6263-1.3694-.1989.0937-.4027.1882-.5978.2764-1.1938.54-2.3389 1.0068-3.5103 1.4573-4.9933 1.8844-9.0286 2.7808-12.026 2.9739-8.2884.7432-10.4287-4.5767-1.9105-8.8132 1.9993-.9947 5.0973-2.2415 8.9586-3.339 7.5079-2.1336 16.7084-2.7717 21.5494-2.6543l-5.6074 6.4022c-.5903.5511-.5167 1.5927-.0033 2.4107.6566 1.0465 1.2653 1.391 3.3408.5663 1.4729-.5585 3.3538-1.3072 4.9422-1.9646l5.8075-6.8726 6.6776-.4051-4.0099 4.5476c3.2166-1.0997 18.3463-6.4648 19.5933-3.7496.166.3596.33.7109.468 1.0586.137.3428.173.8462-.205 1.2959-1.762 2.0955-3.982 4.5029-5.53 6.5813-.798 1.0708-.66 1.553 1.123 1.4461.789-.0471 2.115-.2163 4.354-.6428.186-.582.567-1.089 1.021-1.6197 1.932-2.2594 6.426-4.4759 13.197-6.4 7.507-2.1336 16.708-2.7717 21.549-2.6543l-5.599 6.4245c-.577.5346-.503 1.5764.01 2.3942.657 1.0463 1.26 1.367 3.318.5541 1.597-.6012 3.711-1.4499 5.398-2.1542l5.448-6.5022 6.638-.3546-4.016 4.5285c3.748-1.3865 13.909-6.122 15.159-3.5305.162.3375.322.6751.47 1.0586.132.3453.178.8498-.208 1.2989l-.452.5001c1.855-.6194 4.294-1.4237 6.767-2.148l.45-.1308c4.877-1.4056 9.761-2.4386 10.46-1.0745.191.3731.335.7034.467 1.0589.13.3461.177.8498-.207 1.2986-1.797 2.1721-4.163 4.7146-5.787 6.8952-.798 1.0708-.66 1.553 1.123 1.4461.704-.0423 2.67-.3126 4.674-.6729l.294-.0534.293-.0545c.049-.0092.098-.0184.146-.0277.173-1.6141 1.943-3.5264 5.318-5.4577 2.838-1.6237 8.573-3.762 13.336-4.9989 2.709-.7037 7.34-1.4631 8.909.1678zm52.302 3.1753c-4.924.5301-9.603 1.7286-14.268 3.3385-7.411 2.6899-8.445 5.0119-.946 3.3769 1.123-.2691 2.54-.6317 4.176-1.1316 4.708-1.4595 8.161-3.0229 11.038-5.5838zm-199.4272-.3457c-4.9236.5304-9.6032 1.7286-14.2671 3.3385-7.4123 2.6903-8.4456 5.012-.9468 3.3767 1.1234-.269 2.5404-.6314 4.1753-1.1316 4.7083-1.4594 8.1614-3.0227 11.0386-5.5836zm66.9362 0c-4.924.5304-9.604 1.7286-14.268 3.3385-7.412 2.6903-8.445 5.012-.946 3.3767 1.123-.269 2.54-.6314 4.175-1.1316 4.708-1.4594 8.162-3.0227 11.039-5.5836zm72.807.389c-5.613 1.7509-10.946 3.9667-13.117 5.8332 3.881-1.0039 12.166-3.4169 16.445-4.9307.131-.0463.14-.1645.082-.304-.079-.1891-.285-.4061-.773-.7806-.575-.442-1.807-.0772-2.637.1821z" fill="#010205" fill-rule="evenodd"/></svg>