<svg fill="none" height="40" viewBox="0 0 186 40" width="186" xmlns="http://www.w3.org/2000/svg"><path clip-rule="evenodd" d="m55.4326 0c-.7363.817155-1.6639 1.68099-2.5143 2.47328-.3205.29841-.6297.58636-.9154.85947-.6532.62476-1.42 1.17665-2.3454 1.57367-.9258.39745-2.0118.64133-3.3038.64962-3.7097.03229-7.4194.20069-11.1248.36168-2.7865.12085-5.5682.23603-8.356.31063-1.471 1.73204-2.9629 3.43702-4.4892 5.12015-1.4383 1.5864-2.8919 3.1583-4.3629 4.7141-1.9609 2.0745-3.9466 4.1281-5.9249 6.186l-.708.7364 12.985-3.1778c6.7575-4.1011 15.0826-6.207 29.2717-6.0757l-5.5452 6.4853c-.4829.565-.0762 1.7731.3615 2.5523.5609.9969.9628 1.2032 2.719.5514 1.8324-.5959 4.7548-1.5645 6.7741-2.4471 1.6935-1.9152 5.411-5.6411 5.9762-6.0359 2.48-.4132 4.2466-.4293 7.6711-.7797-1.9448 1.9363-5.3035 5.4121-7.1024 7.7035-.037.0472-.0755.0961-.1145.1463l-.0589.0759-.0591.0774c-.4624.6097-.8897 1.3024.0618 1.1536 3.2943-.5148 8.9253-2.6172 11.5851-4.0007l5.3609-5.1621 7.7499-.6963c-1.3745 1.1809-2.7859 2.4145-4.1949 3.6621l-.4695.4162c-.4693.4167-.9378.8345-1.4042 1.2519l-.4656.4172c-5.5768 5.0035-10.7662 9.8827-13.0559 12.1463 3.9065-1.9912 11.6273-4.9789 17.0597-6.714-.2757-2.7651 4.6463-6.018 13.8803-8.6789 5.647-1.5994 11.891-2.3393 15.787-2.5649.33-.0179.636-.0222.943-.0209 1.352.0209 1.219.5767.238 1.7634-.235.2784-.419.5441-.797.6134-.021.0039-.043.008-.066.0121l-.138.0241c-1.964.3203-3.983.6627-5.554 1.0026-5.177 1.1378-9.27 2.1347-12.1396 3.3389-1.8533.7774-7.8649 3.9365-.7342 4.7354 3.1148.349 7.8128.6971 17.5868-1.185.587-1.3311 2.792-2.7782 5.088-4.0033 1.387-.7447 5.481-2.4475 9.425-3.5195 7.46-2.0278 16.027-2.5937 20.829-2.4462l-5.606 6.2122c-.63.7744-.519 1.5562-.019 2.3537.64 1.0218 1.976 1.3599 4.26.5288 1.559-.5676 3.12-1.0645 4.77-1.6958l6.133-7.0433 6.627-.3508-4.008 4.4125c1.117-.3673 3.678-1.2324 6.592-2.0897.389-.1162.783-.2323 1.181-.3472l.341-.0981c5.189-1.4838 10.787-2.7167 11.517-1.2855.184.3604.332.6933.457 1.0371.122.3346.171.8307-.214 1.2665-.782.9168-1.67 1.9011-2.559 2.8951l-.532.5971c-.972 1.095-1.918 2.1875-2.696 3.2003-.798 1.0401-.663 1.6287 1.105 1.5427.38-.0178 1.295-.1051 2.259-.2434.825-.1147 1.736-.3006 3.462-.6544.761-.1641 1.429.1178 1.588.767l.363 1.2839c-3.707.99-6.175 1.3429-8.569 1.6156-2.274.2504-4.268.4459-6.566.3529-2.559-.1034-3.575-.3726-2.725-1.7551 1.376-2.2355 3.913-5.3532 5.96-7.4565.195-.1841.132-.2923-.055-.2718-2.274.3028-7.297 1.1662-14.463 3.454l-4.464 4.4126c-.96.9493-2.216 1.4794-3.698 1.551l-3.044-.0158 2.424-2.7424c-2.806.986-4.878 1.4929-6.449 1.968-2.882.8722-4.205-.1972-5.191-2.2848-.209-.4327-.406-.876-.613-1.3415-.198.0899-.401.181-.595.2661-1.188.5192-2.327.9677-3.492 1.3992-4.966 1.8057-8.976 2.6539-11.951 2.8223-2.869.2338-5.413-.1889-6.364-1.209-6.781 1.3063-12.102 1.6134-16.1792 1.7543-6.0912.2103-9.7644-.4446-11.754-1.7311-2.2629.7254-5.4678 1.8941-8.7897 3.1834l-.5254.2046-.5266.2062c-.3513.1381-.7029.2771-1.054.4166l-.5259.2098c-4.552 1.8208-8.9167 3.709-10.9803 4.8383-2.297 1.2569-3.6983 2.3241-5.6213 3.3777l-4.0476.8804c5.07-5.4688 10.2925-10.7975 14.9193-15.4103-3.1336 1.4462-8.782 2.9558-12.8731 3.6181-4.4147.7146-5.0801-.2383-3.4571-2.6382.0313-.0458.4324-.699.8169-1.1854-2.7025 1.2595-6.4004 2.5601-8.5551 3.2149-2.5731.8922-3.7201-.4751-4.7387-2.5064-.2382-.4755-.4498-.9332-.6745-1.4611-3.5068 1.5401-7.5148 3.0614-11.3987 3.8096-9.5692 1.8442-12.0792-.8119-9.9725-3.9776l-12.29218 2.9873c-.3205.2268-.65189.4349-.99721.616-.20989.1095-1.54239.7085-2.75036.7068h-3.709705c1.417865-1.6679 2.828765-3.3415 4.248365-5.0077 1.48667-1.7447 2.97681-3.4867 4.46696-5.2288 1.53373-1.7927 3.06303-3.5884 4.59583-5.382 1.6008-1.8725 3.1989-3.74675 4.7975-5.62058l-1.4553.0794c-2.7182.14877-5.202.28489-7.63234.40967-2.73861.14092-5.47723.27486-8.21671.39614 1.39391-1.42402 2.83876-2.82841 4.24922-4.20357 3.37483-.3307 6.75493-.61995 10.13493-.88826 4.1112-.32722 8.2246-.62476 12.3392-.89307 4.5998-.30016 9.2022-.571094 13.8055-.810612 4.591-.238646 9.1839-.449806 13.7784-.624318zm-9.0907 16.4888c-4.689.4276-8.8912 1.4572-13.3626 3.0073-7.1089 2.5994-8.6865 5.3095-1.2214 3.6687 1.0738-.2509 2.4286-.5912 3.994-1.068 4.5092-1.3935 7.7904-3.0313 10.59-5.608zm96.9321-.0384c-4.824.4961-9.413 1.6609-13.991 3.2359-7.274 2.6347-8.302 4.9444-.949 3.3633 1.101-.2613 2.491-.6138 4.096-1.102 4.619-1.4245 8.01-2.9611 10.844-5.4972z" fill="#010205" fill-rule="evenodd"/></svg>