<svg viewBox="0 0 161 35" xmlns="http://www.w3.org/2000/svg"><path d="m40.53 14.37c-2.41 2.21-5.23 3.62-9.11 4.81-1.35.41-2.51.7-3.43.92-6.42 1.41-5.06-.92 1.05-3.15 3.84-1.33 7.46-2.21 11.49-2.58m83.35-.03c-2.44 2.18-5.35 3.5-9.33 4.72-1.38.42-2.57.72-3.52.95-6.32 1.36-5.44-.62.82-2.89 3.94-1.35 7.88-2.35 12.03-2.78zm-23.45 8.76c.82.88 3.01 1.24 5.47 1.04 2.56-.14 6.01-.87 10.28-2.42 1-.37 1.98-.76 3-1.2.17-.07.34-.15.51-.23.18.4.35.78.53 1.15.85 1.79 1.99 2.71 4.46 1.96 1.35-.41 3.13-.84 5.54-1.69l-2.08 2.35h2.62c1.27-.05 2.35-.5 3.18-1.32l3.84-3.79c6.16-1.96 10.48-2.7 12.44-2.96.16-.02.21.08.05.23-1.76 1.81-3.94 4.48-5.12 6.4-.73 1.19.14 1.42 2.34 1.51 1.98.08 3.69-.09 5.65-.3 2.06-.23 4.18-.54 7.37-1.39l-.31-1.1c-.14-.56-.71-.8-1.37-.66-1.48.3-2.27.46-2.98.56-.83.12-1.62.19-1.94.21-1.52.07-1.64-.43-.95-1.32 1.4-1.82 3.43-3.93 4.98-5.74.33-.37.29-.8.18-1.09-.11-.3-.24-.58-.39-.89-.69-1.35-6.43.06-11.21 1.49-2.5.74-4.71 1.48-5.67 1.79l3.45-3.79-5.7.3-5.27 6.05c-1.42.54-2.76.97-4.1 1.46-1.96.71-3.11.42-3.66-.45-.43-.68-.53-1.36.02-2.02l4.82-5.33c-4.13-.13-11.5.36-17.91 2.1-3.39.92-6.91 2.38-8.11 3.02-1.97 1.05-3.87 2.29-4.37 3.44-8.41 1.62-12.45 1.32-15.12 1.02-6.13-.69-.96-3.4.63-4.06 2.47-1.03 5.99-1.89 10.44-2.87 1.35-.29 3.09-.59 4.78-.86.06 0 .12-.02.18-.03.32-.06.48-.29.68-.53.84-1.02.96-1.5-.2-1.51-.26 0-.53 0-.81.02-3.35.19-8.72.83-13.58 2.2-7.94 2.28-12.17 5.08-11.94 7.45-4.67 1.49-11.31 4.05-14.67 5.76 2.73-2.7 10.28-9.73 16.85-15.36l-6.66.6-4.61 4.43c-2.29 1.19-7.13 2.99-9.96 3.43-.96.15-.29-.69.15-1.25 1.55-1.97 4.43-4.95 6.11-6.61-2.94.3-4.46.31-6.6.67-.49.34-3.68 3.54-5.14 5.18-1.74.76-4.25 1.59-5.82 2.1-1.51.56-1.86.38-2.34-.47-.38-.67-.73-1.71-.31-2.19l4.77-5.57c-12.2-.11-19.36 1.69-25.17 5.21l-11.17 2.73.61-.63c1.7-1.77 3.41-3.53 5.09-5.31 1.26-1.34 2.51-2.68 3.75-4.05 1.31-1.44 2.6-2.91 3.86-4.39 2.4-.06 4.79-.16 7.19-.27 3.19-.14 6.38-.28 9.57-.31 1.11 0 2.04-.22 2.84-.56s1.45-.81 2.02-1.35c.25-.23.51-.48.79-.74.73-.68 1.53-1.42 2.16-2.12-3.95.15-7.9.33-11.85.54-3.96.21-7.92.44-11.87.7-3.54.23-7.08.49-10.61.77-2.91.23-5.81.48-8.72.76-1.21 1.18-2.46 2.39-3.65 3.61 2.36-.1 4.71-.22 7.07-.34 2.09-.11 4.23-.22 6.56-.35l1.25-.07c-1.37 1.61-2.75 3.22-4.13 4.82-1.32 1.54-2.63 3.08-3.95 4.62-1.28 1.5-2.56 2.99-3.84 4.49-1.22 1.43-2.43 2.87-3.65 4.3h3.19c1.04 0 2.18-.51 2.37-.61.3-.16.58-.33.86-.53l10.57-2.56c-1.81 2.72.35 5 8.58 3.41 3.34-.64 6.79-1.95 9.8-3.27.19.45.38.85.58 1.25.88 1.74 1.86 2.92 4.07 2.15 1.85-.56 5.03-1.68 7.36-2.76-.33.42-.68.98-.7 1.02-1.4 2.06-.82 2.88 2.97 2.26 3.52-.57 8.38-1.86 11.07-3.11-3.98 3.96-8.47 8.53-12.83 13.23l3.48-.76c1.65-.9 2.86-1.82 4.83-2.9 3.41-1.86 14.14-6.14 19.26-7.78 1.71 1.1 4.87 1.67 10.11 1.49 3.51-.12 8.08-.38 13.91-1.51z" fill-rule="evenodd"/></svg>