<svg viewBox="0 0 132 35" xmlns="http://www.w3.org/2000/svg"><path d="m131.23 13.87c-.73-1.32-2.86-2.02-5.7-2.02-4.71 0-10.99 1.87-15.39 4.73-2.38 1.55-3.95 3.24-4.31 4.74-1.66.38-2.99.62-3.83.7-.39.04-.68.04-.93-.04s-.49-.28-.65-.46c-.23-.26-.4-.65-.44-1.04-.02-.21 0-.4.13-.56.13-.15.37-.29.56-.4 1.06-.63 1.88-1.13 3.01-2.18.47-.44 1.02-1.01 1.38-1.69.36-.67.47-1.35.22-1.95s-.84-1.05-1.69-1.33c-.86-.29-1.83-.36-2.71-.38-6.52-.1-12.84 2.73-15.07 3.83 3.35-3.72 7.53-8.37 10.95-12.17-1.67.04-4 .09-5.53.12-3.07 3.5-7.46 8.5-10.4 11.86-.31-.76-.68-1.56-1.15-2.26-.23-.34-.51-.68-.91-.93-.39-.23-.88-.35-1.44-.37-.39 0-.93.03-1.66.18-.76.16-1.55.39-2.61.74-2.05.69-4.34 1.57-7.41 2.81.91-1 1.91-2.09 3.11-3.41-1.98.21-3.96.44-5.94.65-2.12 2.42-4.29 4.89-6.01 6.82-1.82.63-4.13 1.36-6.24 1.8-.35.07-.64.13-.86.1-.23-.04-.42-.19-.61-.42-.13-.15-.2-.26-.27-.42-.05-.11-.12-.3-.07-.55.05-.26.18-.44.44-.76 1.86-2.31 3.93-4.69 6.43-7.41-1.89.2-3.78.42-5.67.62-2.02 2.24-4.25 4.81-6.07 7.34-2.38.75-6.6 1.31-9.2 1.34-.47 0-.81-.01-.88-.2-.07-.18.13-.49.37-.82 1.31-1.76 4.88-5.52 7.63-8.29-1.94.2-3.88.43-5.83.64-2.76 2.56-5.86 5.57-8.06 8.48-6.45 1.04-12.72 1.21-17.81.82-.51-.04-.97-.08-1.35-.18-.37-.1-.64-.25-.75-.48-.12-.23-.08-.52.1-.87.18-.36.48-.73.81-1.13 2.83-3.44 6.42-7.07 11.18-10.67 3.76-.07 7.52-.09 11.28-.13.45 0 .88-.01 1.4-.07.51-.06 1.02-.15 1.52-.3s.94-.33 1.31-.53c.38-.2.63-.39.84-.56.97-.76 1.91-1.49 2.69-2.1-4.96.1-9.85.18-14.71.29 1.06-.78 2.93-2.14 3.98-3.01-2.03.02-4.15.03-6.38.05-1.42 1.01-2.85 2.05-4.27 3.13h-.02c-2.87.11-6.25.21-9.1.35-1.18 1.05-2.36 2.11-3.54 3.16 3.06-.12 5.89-.2 8.52-.26-4.01 3.16-8.19 6.85-11.51 10.86-.46.55-.97 1.2-1.29 1.89-.32.68-.4 1.28-.18 1.78s.71.86 1.44 1.11 1.66.39 2.76.49c6.7.64 16.91 0 22.72-1.06.05.38.33.64.94.78.61.15 1.57.19 2.99.15 2.68-.09 7.3-.53 12.73-1.84.2.31.47.7.79 1.03s.68.59 1.1.73c.87.3 1.92.11 3.16-.17 1.13-.26 2.69-.67 4.39-1.14-.44.5-.89 1.02-1.33 1.52h2.52c.94 0 1.72 0 2.54-.31.39-.15.74-.36 1.08-.62.34-.27.62-.57.91-.89 1.11-1.21 2.39-2.6 3.59-3.9 3.78-1.39 8.05-2.5 9.52-2.76.53-.1 1.08-.15 1.55.08.48.24.88.76 1.32 2.01 1.02-.1 2.1-.21 3.22-.32-2.09 2.39-4.1 4.7-5.89 6.74 11.04-.07 16.36-.75 22.8-2.99.24.42.54.92.81 1.37.15.24.35.58.59.84.24.27.53.47.93.58s.91.11 1.53.06c.6-.05 1.34-.17 1.93-.27 1.39-.23 3.22-.62 5.18-1.05.6.59 1.55.99 2.77 1.22 1.21.22 2.72.27 4.36.12 5.18-.47 11.85-2.9 15.6-6.25.95-.85 1.66-1.71 2.02-2.54s.37-1.59 0-2.24zm-32.18 2.92c-.33.36-.82.7-1.37 1.01-3.7 2.14-10.27 3.91-16.39 4.08 5.04-4.25 11.46-5.89 15.31-6.43.5-.07 1.11-.14 1.67-.08.55.05.93.21 1.07.47s.03.6-.29.95zm26.93-.25c-.37.5-1.06 1.1-2.09 1.77-2.88 1.89-6.55 3.11-9.97 3.47-.6.06-1.19.09-1.69.02-.49-.07-.84-.24-.99-.51s-.09-.61.16-1 .67-.79 1.2-1.19c2.57-1.95 7.17-3.55 10.08-4.03 1.61-.27 3.1-.26 3.53.31.21.27.15.67-.23 1.17z"/></svg>