<svg fill="none" height="28" viewBox="0 0 161 28" width="161" xmlns="http://www.w3.org/2000/svg"><path clip-rule="evenodd" d="m144.304 17.216c2.572-.9448 4.973-1.5153 6.813-1.6864 1.825-.1706 3.1.0451 3.393.7019.293.6569-.456 1.6353-1.897 2.6817-1.454 1.0556-3.481 2.2546-6.053 3.2266-2.57.9724-5.207 1.5331-7.122 1.7347-1.923.2026-3.272-.0131-3.561-.6987-.29-.6862.525-1.7054 2.065-2.7914 1.528-1.0773 3.791-2.2242 6.362-3.1684zm-43.787 6.3629c3.166-2.7973 5.981-4.1987 11.164-6.0329 1.799-.5462 2.855-.8465 4.092-1.1401 8.599-1.9367 7.715 1.5044-.443 4.4425-5.134 1.7592-9.394 2.3487-14.813 2.7305zm-76.5658 3.9162c3.1594-.2395 6.5016-.6281 9.5609-1.1871.1414.7604 1.1631 1.0477 3.9816 1.0613 2.6809.0136 8.9121-.4376 16.3734-2.2228.1267.2101.2714.4099.4225.5906 1.2513 1.4907 2.08 1.8543 5.669 1.0586 1.3415-.3113 3.3231-.8317 5.4194-1.4287l-1.3763 1.6877 3.85.012c1.5193-.0892 2.3551-.8986 3.4074-1.8565l4.4394-4.4663c3.3209-1.3503 6.377-2.3132 8.7267-2.9369 1.192-.3532 2.5613-.6814 3.7717-.9808 2.1463-.5312 3.2997.2531 3.7603 1.7831.0326.1094.0495.1703.242.142 1.5503-.2308 3.7037-.6548 5.2742-.9187l-7.9986 9.2194c5.5358-.0566 14.3332-.1622 21.3372-1.6698 1.754-.3772 4.169-.9699 5.978-1.5349.053.1285 1.152 1.9322 1.214 2.0182.948 1.321 1.691 1.7232 4.688 1.3193 1.727-.2329 4.434-.7919 7.396-1.4505 2.182 2.4466 9.154 2.5576 16.78.0692 8.634-2.8172 14.837-7.8996 13.854-11.3509-.983-3.4517-8.779-3.9661-17.412-1.1489-7.294 2.3801-12.853 6.3767-13.803 9.6363-1.293.2978-2.626.5819-3.821.7637-1.936.2944-2.321.1398-2.899-.5498-.446-.5312-.786-1.6992-.154-2.1036.785-.4566 1.771-1.045 2.411-1.5092 6.867-4.9916 5.097-10.03754-9.174-7.1921-2.871.5726-8.151 2.4487-10.928 3.9041l13.375-14.93813-6.765.166-12.0688 13.82833c-.2702-.5655-.7319-1.4521-1.0729-1.9898-.2023-.3195-.4899-.7163-.8205-1.0331-.7075-.6781-1.5906-.8626-3.204-.7179-4.2307.3794-11.4598 2.8934-14.6138 4.222l3.4199-4.0821-7.1878.5617-7.4857 9.2205c-1.9696.6374-4.8376 1.4973-6.0089 1.788-1.8945.4691-2.2605.3472-2.8402-.3435-.4062-.4838-.5438-1.2518-.1343-1.7258 2.5009-2.8961 4.9305-5.8826 8.0198-9.2935l-6.663.4675c-2.5194 3.0202-5.0855 5.8167-7.4238 8.9566-.0892.1197-.1626.2389-.217.3472-3.0773 1.1103-8.7267 1.6236-11.8524 1.5703-1.1223-.0191-.3376-.8018.1708-1.4489 1.7956-2.2854 7.1285-7.9268 9.0698-9.8579-1.7222.1138-4.3894.2335-6.6424.3418-.4306.3005-3.9631 3.7969-5.9892 5.9005-1.6357 1.7047-3.3889 3.6896-4.3438 4.9643-4.2578.8126-9.7969 1.1952-14.7306 1.2132-2.5798.0092-5.0208.0065-7.0007-.1606-3.13389-.1437-3.32421-1.0477-1.7092-3.0321 3.4868-4.2873 7.9159-8.8211 13.841-13.32819 4.4096-.13008 8.823-.16273 13.4158-.17144 2.4166-.04899 4.7756-.35215 6.4629-1.69215l3.427-2.68926c-6.0714.13662-12.0536.2433-18.007.39733 1.2975-.96391 3.5792-2.63429 4.8614-3.69399l-7.8136.0810966c-2.0332 1.4945734-3.5444 2.3915334-5.241 3.8284234-3.5113.15239-7.6511.28955-11.1335.46862l-4.32965 3.88121c3.25021-.16274 7.21065-.26288 10.53855-.34724-5.3699 4.17079-10.10189 8.47709-13.91111 13.03209-3.46773 4.1474-2.951136 6.0708 2.27139 6.6891 2.77767.3282 8.45042.51 14.35112.2259 1.7113-.0822 3.441-.2036 4.9946-.3641z" fill="#010205" fill-rule="evenodd"/></svg>