<svg xmlns="http://www.w3.org/2000/svg" viewBox="0 0 24 24" width="100%" height="100%">
  <path d="M11.9,3C7,3,3,7.1,3,12c0,4,2.6,7.3,6.1,8.5c0.4,0.1,0.6-0.2,0.6-0.4c0-0.2,0-0.9,0-1.7c-2.5,0.5-3-1.1-3-1.1 c-0.4-1.1-1-1.3-1-1.3c-0.8-0.6,0.1-0.6,0.1-0.6c0.9,0.1,1.4,0.9,1.4,0.9c0.8,1.4,2.1,1,2.6,0.8c0.1-0.6,0.3-1,0.6-1.2 c-2-0.2-4.1-1-4.1-4.5c0-1,0.4-1.8,0.9-2.4c-0.2-0.3-0.5-1.2,0-2.4c0,0,0.8-0.2,2.5,0.9c0.7-0.2,1.5-0.3,2.3-0.3s1.5,0.1,2.3,0.3 c1.7-1.2,2.5-0.9,2.5-0.9c0.5,1.2,0.2,2.2,0.1,2.4c0.6,0.6,0.9,1.4,0.9,2.4c0,3.5-2.1,4.3-4.1,4.5c0.3,0.3,0.6,0.8,0.6,1.7v2.5 c0,0.2,0.2,0.5,0.6,0.4C18.4,19.3,21,16,21,12C20.8,7.1,16.8,3,11.9,3z"/>
</svg>
