<svg xmlns="http://www.w3.org/2000/svg" viewBox="0 0 4383 300"><path d="M492 221c48.1 0 74-25.9 74-74V74c0-48.1-25.9-74-74-74H0v300h68v-79h424zm6-143v65c0 7.8-4.2 12-12 12H68V66h418c7.8 0 12 4.2 12 12zm220 222c-48.1 0-74-25.9-74-74V74c0-48.1 25.9-74 74-74h407c48.1 0 74 25.9 74 74v152c0 48.1-25.9 74-74 74H718zm401-66c7.8 0 12-4.2 12-12V78c0-7.8-4.2-12-12-12H724c-7.8 0-12 4.2-12 12v144c0 7.8 4.2 12 12 12h395zm657-36c39.844 16.757 67.853 56.1 68 102h-68c0-54-25-79-79-79h-351v79h-68V0h492c48.1 0 74 25.9 74 74v50.14c0 46.06-23.75 71.76-68 73.86zm-12-43c7.8 0 12-4.2 12-12V78c0-7.8-4.2-12-12-12h-418v89h418zm155-81c0-48.1 25.9-74 74-74h482v56h-476c-7.8 0-12 4.2-12 12v42c0 7.8 4.2 12 12 12h412c48.1 0 74 25.9 74 74v30c0 48.1-25.9 74-74 74h-482v-56h476c7.8 0 12-4.2 12-12v-42c0-7.8-4.2-12-12-12h-412c-48.1 0-74-25.9-74-74V74zm643 0c0-48.1 25.9-74 74-74h470v66h-464c-7.8 0-12 4.2-12 12v144c0 7.8 4.2 12 12 12h464v66h-470c-48.1 0-74-25.9-74-74V74zM3718 0v300h-68V183h-397v117h-68V0h68v117h397V0h68zm148 56v66h517v56h-517v66h517v56h-585V0h585v56h-517z"/></svg>