<svg height="24" width="24" xmlns="http://www.w3.org/2000/svg"><path d="m18 14v-4.58c0-5.1-4.69-5.42-5.84-5.42h-.32c-1.15 0-5.84.32-5.84 5.42v4.58l-2 4h16zm-11.11.45.11-.21v-4.82a3.85 3.85 0 0 1 2-3.74 6.3 6.3 0 0 1 2.84-.68h.32c1.45 0 4.84.43 4.84 4.42v4.82l.11.21 1.27 2.55h-12.76zm5.11 6.55a2 2 0 0 1 -2-2h-1a3 3 0 0 0 6 0h-1a2 2 0 0 1 -2 2z"/><path d="m14.5 4.364a6.992 6.992 0 0 0 -.618-1.186 9.972 9.972 0 0 0 -1.883-.178l-.28.004a9.903 9.903 0 0 0 -1.6.172 6.272 6.272 0 0 0 -.619 1.186z"/></svg>