<svg xmlns="http://www.w3.org/2000/svg" width="24" height="24">
<path d="M15.5 6a4.5 4.5 0 0 1 4.5 4.5c0 .695-.163 1.351-.444 1.939A2.995 2.995 0 0 1 21 15a3 3 0 0 1-2.887 2.998L18 18H6a3 3 0 0 1-.937-5.848A3.5 3.5 0 0 1 11.18 9.25 4.5 4.5 0 0 1 15.5 6Zm0 1a3.5 3.5 0 0 0-3.322 2.405l-.038.123-.52 1.801-1.206-1.435A2.5 2.5 0 0 0 6 11.5c0 .076.07.518.209 1.328l-.834.274a1.999 1.999 0 0 0 .525 3.896L6 17h12a2 2 0 0 0 2-2c0-.666-.329-1.273-.867-1.644l-.87-.533.391-.816c.227-.474.346-.983.346-1.507A3.5 3.5 0 0 0 15.5 7Z"/>
</svg>