<svg xmlns="http://www.w3.org/2000/svg" width="24" height="24">
<path d="M15.375 5.5A4.125 4.125 0 0 1 19.5 9.625a4.11 4.11 0 0 1-1.3 3l-.247.24-.135.136c-.53.532-1.435 1.46-2.375 2.43l-.257.265C13.6 17.336 12 19 12 19s-1.43-1.49-2.928-3.039l-.257-.266-.257-.265c-1.24-1.279-2.417-2.485-2.758-2.805-.8-.75-1.3-1.816-1.3-3A4.125 4.125 0 0 1 8.625 5.5c1.396 0 2.629.696 3.375 1.758A4.118 4.118 0 0 1 15.375 5.5Zm0 1a3.12 3.12 0 0 0-2.557 1.333L12 8.997l-.818-1.164a3.12 3.12 0 0 0-4.767-.418 3.115 3.115 0 0 0 .069 4.48l.069.067.05.051c.502.5 2.301 2.346 5.4 5.542 3.229-3.318 5.039-5.176 5.431-5.576l.037-.037.044-.045a3.115 3.115 0 0 0 .07-4.482 3.115 3.115 0 0 0-2.21-.915Z"/>
</svg>