<svg id="Default" xmlns="http://www.w3.org/2000/svg" viewBox="0 0 24 24"><path d="M20.93,7a7,7,0,0,0-1.69-2.24A7,7,0,0,0,17,3.07a3.39,3.39,0,0,0-.7-.07C14.46,3,13,4.48,12.24,5.23s-1.73,2.6-3,3.89L4.88,13.45c-1.73,1.73-2.16,3-1.72,4.34a5.33,5.33,0,0,0,1.25,1.8,5.27,5.27,0,0,0,1.81,1.25,2.77,2.77,0,0,0,.94.16c1,0,2.08-.56,3.39-1.88l4.33-4.33c1.3-1.29,3.06-2.19,3.9-3S21.38,9.17,20.93,7Zm-2.86,4.06a10.71,10.71,0,0,1-1.4,1.06,18.09,18.09,0,0,0-2.5,2L9.85,18.41A4.3,4.3,0,0,1,7.16,20a1.69,1.69,0,0,1-.62-.11,4.23,4.23,0,0,1-1.42-1,4.49,4.49,0,0,1-1-1.42c-.23-.68-.23-1.6,1.48-3.31L9.92,9.83a17.36,17.36,0,0,0,2-2.49,12.17,12.17,0,0,1,1.06-1.41C13.62,5.26,14.87,4,16.31,4a2.09,2.09,0,0,1,.43,0,6.56,6.56,0,0,1,1.8,1.44A6.57,6.57,0,0,1,20,7.27C20.25,8.89,18.84,10.3,18.07,11.06Z"/><path d="M7.25,13.71l3.05,3.05L19.46,7.6l-3.05-3Zm3.05,1.63L8.66,13.71,10,12.37,11.64,14Zm2-2-1.63-1.64,1.47-1.47,1.64,1.63Zm2.19-2.18L12.89,9.48,14.36,8,16,9.64Zm2.18-2.18L15.07,7.3,16.41,6,18.05,7.6Z"/><path d="M7,15.2l-1.3,1.29a2.26,2.26,0,0,0,.07,1.83,1.23,1.23,0,0,0,.81.21,1.76,1.76,0,0,0,1-.21L8.8,17a2.22,2.22,0,0,0-.59-1.18A2.69,2.69,0,0,0,7,15.2Zm0,2.29a1.76,1.76,0,0,1-.38,0h0a2.43,2.43,0,0,1,0-.47l.7-.7a1.94,1.94,0,0,1,.29.21,1.25,1.25,0,0,1,.15.19Z"/></svg>