<svg id="Default" xmlns="http://www.w3.org/2000/svg" viewBox="0 0 24 24"><path d="M19.12,4.93C18.93,4.74,17.3,3,15.45,3a3,3,0,0,0-2.18,1c-2.83,2.81-4.06,7.74-4.06,7.74L8.58,13,3,18.53,5.48,21l5.58-5.56,1.26-.63s4.94-1.22,7.77-4C22.5,8.37,19.39,5.2,19.12,4.93Zm.26,5.13c-2.59,2.59-7.26,3.77-7.3,3.78l-.11,0-.1.05-1.26.63-.14.07-.11.11L5.48,19.59,4.42,18.53l4.87-4.85.11-.12.07-.14.64-1.25.05-.1,0-.11c0-.05,1.2-4.7,3.79-7.28A2.05,2.05,0,0,1,15.45,4a4.56,4.56,0,0,1,2.93,1.6l0,0h0a5.08,5.08,0,0,1,1.58,3A1.86,1.86,0,0,1,19.38,10.06Z"/><path d="M14.78,7.42l-1.3,1.29a2.22,2.22,0,0,0,.07,1.83,1.27,1.27,0,0,0,.81.2,1.81,1.81,0,0,0,1-.2l1.3-1.3A2.12,2.12,0,0,0,16,8.07,2.69,2.69,0,0,0,14.78,7.42Zm0,2.29a2.89,2.89,0,0,1-.37,0h0a3.57,3.57,0,0,1,0-.47l.7-.7a1.15,1.15,0,0,1,.29.2,1,1,0,0,1,.15.2Z"/><path d="M15.78,4.74a.48.48,0,0,0-.54.42.51.51,0,0,0,.41.57,3.54,3.54,0,0,1,1.58,1.09,3.67,3.67,0,0,1,1.1,1.56h0a.5.5,0,0,0,.5.44h.06a.49.49,0,0,0,.43-.56,4.07,4.07,0,0,0-1.38-2.15A4.06,4.06,0,0,0,15.78,4.74Z"/></svg>