<svg xmlns="http://www.w3.org/2000/svg" width="24" height="24">
<path d="M19.5 8c.788 0 1.431.275 1.872.537C21.77 9.617 22 10.78 22 12c0 1.22-.229 2.383-.628 3.463A3.662 3.662 0 0 1 19.5 16c-2.954 0-7.849-2.425-7.997-2.976L11.5 13H2v-2h9.5c0-.5 5-3 8-3Zm0 1c-1.137 0-2.583.406-3.893.897-.93.349-1.792.746-2.436 1.096a7.468 7.468 0 0 0-.688.412l-.07.051-.615.544c.237.232.447.42.614.544.18.133.44.29.759.463.644.35 1.507.747 2.437 1.096 1.309.49 2.755.897 3.892.897.413 0 .77-.106 1.056-.237A8.905 8.905 0 0 0 21 12c0-.966-.16-1.892-.444-2.763A2.54 2.54 0 0 0 19.5 9Zm.253.969a8.456 8.456 0 0 1 0 4.063.506.506 0 0 1-.64.37.495.495 0 0 1-.337-.585 7.465 7.465 0 0 0 0-3.634.493.493 0 0 1 .337-.584.504.504 0 0 1 .64.37Z"/>
</svg>