<svg xmlns="http://www.w3.org/2000/svg" width="24" height="24">
<path d="M20.498 5.5 20.5 15c0 .197-.003.5-.172.697.38.187 1.32 1.101 2.819 2.742a1.208 1.208 0 0 1-.775 2.058l-.079.003H1.707a1.207 1.207 0 0 1-.918-1.99l.064-.07 2.5-2.5c.07-.07.147-.133.229-.188l.09-.055-.02-.037c-.045-.093-.096-.313-.152-.66V5.502a2 2 0 0 1 2-2L18.497 3.5a2 2 0 0 1 2 2Zm-16.084 11a.5.5 0 0 0-.304.103l-.05.043-2.5 2.5a.207.207 0 0 0 .105.35l.042.004h20.586a.207.207 0 0 0 .207-.207.377.377 0 0 0-.06-.146l-2.5-2.5a.5.5 0 0 0-.288-.143l-.066-.004H4.414ZM19 15.5a.5.5 0 0 0 .497-.442L19.5 15V5.5a1 1 0 0 0-1-1h-13a1 1 0 0 0-1 1V15a.5.5 0 0 0 .442.497L5 15.5h14Z"/>
</svg>