<svg xmlns="http://www.w3.org/2000/svg" width="24" height="24">
<path d="M20.11 3.045c.47.018.848.395.866.866.174 4.477-.092 7.67-1.774 10.473-.648 1.078-1.309 1.947-2.02 2.659a6.717 6.717 0 0 1-4.783 1.978 6.706 6.706 0 0 1-3.95-1.278l-.148-.11.645-.645.087.065a5.808 5.808 0 0 0 3.366 1.066c1.567 0 3.04-.608 4.145-1.714.665-.665 1.28-1.479 1.884-2.486 1.606-2.676 1.812-5.705 1.647-9.973-4.266-.163-7.298.04-9.974 1.648-1.006.604-1.82 1.219-2.485 1.884a5.823 5.823 0 0 0-1.714 4.145 5.81 5.81 0 0 0 1.067 3.365l.063.088-.644.645A6.71 6.71 0 0 1 5 11.623c0-1.808.703-3.507 1.978-4.783.711-.712 1.581-1.372 2.659-2.02 2.803-1.683 5.997-1.947 10.473-1.775Z"/>
<path d="m11.908 12.82-.707-.707L3 20.314l.707.707 8.201-8.2Z"/>
</svg>