<svg id="Default" xmlns="http://www.w3.org/2000/svg" viewBox="0 0 24 24"><path d="M13.26,4a5,5,0,0,0,2,2.34A8.57,8.57,0,0,0,18.46,7l.26.42a7.64,7.64,0,0,0-2,4.8,7,7,0,0,0,2.07,5l-.34.67a12.62,12.62,0,0,0-2-.3A6.19,6.19,0,0,0,12,19.4a6.15,6.15,0,0,0-4.38-1.84,14.32,14.32,0,0,0-2.07.3l-.34-.67a6.76,6.76,0,0,0,2.07-5,7.64,7.64,0,0,0-2-4.78L5.54,7a8.57,8.57,0,0,0,3.19-.68,4.85,4.85,0,0,0,2-2.34h2.54M14,3H10A4,4,0,0,1,8.22,5.49,8.65,8.65,0,0,1,5.32,6,1.17,1.17,0,0,1,5,6L4,7.6a6.56,6.56,0,0,1,2.28,4.67C6.38,14.2,5.35,15.68,4,17l1,2a20.82,20.82,0,0,1,2.62-.44A5.22,5.22,0,0,1,12,21a5.24,5.24,0,0,1,4.42-2.44A19.89,19.89,0,0,1,19,19l1-2a6.31,6.31,0,0,1-2.28-4.73A6.56,6.56,0,0,1,20,7.6L19,6a1.17,1.17,0,0,1-.32,0,8.65,8.65,0,0,1-2.9-.54A4.14,4.14,0,0,1,14,3Z"/></svg>