<svg xmlns="http://www.w3.org/2000/svg" width="24" height="24">
<path d="M13.26 4a5 5 0 0 0 2 2.34 8.57 8.57 0 0 0 3.2.66l.26.42a7.64 7.64 0 0 0-2 4.8 7 7 0 0 0 2.07 5l-.34.67a12.622 12.622 0 0 0-2-.3A6.19 6.19 0 0 0 12 19.4a6.15 6.15 0 0 0-4.38-1.84c-.696.05-1.388.15-2.07.3l-.34-.67a6.76 6.76 0 0 0 2.07-5 7.64 7.64 0 0 0-2-4.78L5.54 7a8.57 8.57 0 0 0 3.19-.68 4.85 4.85 0 0 0 2-2.34h2.54l-.01.02ZM14 3h-4a4 4 0 0 1-1.78 2.49 8.65 8.65 0 0 1-2.9.51A1.17 1.17 0 0 1 5 6L4 7.6a6.56 6.56 0 0 1 2.28 4.67C6.38 14.2 5.35 15.68 4 17l1 2c.863-.202 1.738-.35 2.62-.44A5.22 5.22 0 0 1 12 21a5.24 5.24 0 0 1 4.42-2.44c.869.09 1.73.237 2.58.44l1-2a6.312 6.312 0 0 1-2.28-4.73A6.56 6.56 0 0 1 20 7.6L19 6a1.17 1.17 0 0 1-.32 0 8.65 8.65 0 0 1-2.9-.54A4.14 4.14 0 0 1 14 3Z"/>
</svg>