<svg xmlns="http://www.w3.org/2000/svg" width="24" height="24">
<path d="m17 11 1.4-1.4a4.98 4.98 0 0 0 0-7.05c-1-1-2.25-1.45-3.55-1.45-1.3 0-2.55.5-3.55 1.45L9.15 4.7l.75.65 2.1-2.1c.75-.75 1.75-1.15 2.85-1.15 1.05 0 2.05.4 2.85 1.15.75.75 1.15 1.75 1.15 2.85 0 1.05-.4 2.05-1.15 2.85L15.6 11H7a2 2 0 0 0-2 2v8a2 2 0 0 0 2 2h10a2 2 0 0 0 2-2v-8a2 2 0 0 0-2-2Zm0 11H7a1 1 0 0 1-1-1v-8a1 1 0 0 1 1-1h10a1 1 0 0 1 1 1v8a1 1 0 0 1-1 1Zm-5-3c.55 0 1-.45 1-1v-2c0-.55-.45-1-1-1s-1 .45-1 1v2c0 .55.45 1 1 1Z"/>
</svg>