<svg xmlns="http://www.w3.org/2000/svg" width="24" height="24">
<path d="M22 12.5h-2.134l1.067 1.848-.866.5-1.356-2.348h-5.845l2.923 5.062H18.5v1h-2.134l1.067 1.848-.866.5-1.067-1.848-1.067 1.848-.866-.5 1.355-2.348L12 13l-2.922 5.062 1.355 2.348-.866.5L8.5 19.062 7.433 20.91l-.866-.5 1.067-1.848H5.5v-1h2.711l2.923-5.062H5.289l-1.355 2.348-.867-.5L4.135 12.5H2v-1h2.134L3.067 9.652l.866-.5L5.289 11.5h5.845L8.211 6.438H5.5v-1h2.134L6.567 3.59l.866-.5L8.5 4.938 9.567 3.09l.866.5-1.355 2.348L12 11l2.922-5.062-1.355-2.348.866-.5L15.5 4.938l1.067-1.848.866.5-1.067 1.848H18.5v1h-2.711L12.866 11.5h5.845l1.356-2.348.866.5-1.067 1.848H22v1Z"/>
</svg>