<svg id="Default" xmlns="http://www.w3.org/2000/svg" viewBox="0 0 24 24"><polygon points="19.73 14.24 19.49 13.23 16.8 14 12.5 11.52 16.87 9 19.48 9.75 19.72 8.73 17.41 8.07 17.99 5.74 16.99 5.44 16.32 8.16 11.98 10.66 11.98 5.63 13.97 3.72 13.21 3 11.48 4.67 9.75 3 9 3.72 10.98 5.63 10.98 10.64 6.66 8.14 5.99 5.47 5 5.76 5.58 8.1 3.27 8.76 3.51 9.77 6.16 9.01 10.5 11.52 6.17 14.02 3.52 13.25 3.28 14.27 5.59 14.93 5.01 17.26 6.01 17.56 6.67 14.88 10.98 12.39 10.98 17.4 9.03 19.28 9.79 20 11.52 18.33 13.25 20 14 19.28 11.98 17.34 11.98 12.38 16.35 14.9 17.01 17.53 18 17.23 17.42 14.9 19.73 14.24"/></svg>