<svg id="Default" xmlns="http://www.w3.org/2000/svg" viewBox="0 0 24 24"><path d="M21,10.36A.5.5,0,0,0,20.5,10H14.85L12.47,3.33a.52.52,0,0,0-.94,0L9.15,10H3.5a.5.5,0,0,0-.48.36.5.5,0,0,0,.21.56L7.9,14,6,19.34a.5.5,0,0,0,.71.6L12,17l5.26,3a.5.5,0,0,0,.24.06.49.49,0,0,0,.32-.12.49.49,0,0,0,.15-.54L16.1,14l4.67-3A.5.5,0,0,0,21,10.36Zm-5.75,3a.48.48,0,0,0-.2.58l1.57,4.51L12.24,16a.51.51,0,0,0-.48,0L7.4,18.42,9,13.91a.48.48,0,0,0-.2-.58L5.19,11H9.5a.5.5,0,0,0,.47-.33L12,5l2,5.68a.5.5,0,0,0,.47.33h4.31Z"/></svg>