<svg id="Default" xmlns="http://www.w3.org/2000/svg" viewBox="0 0 24 24"><path d="M11.5,8A3.5,3.5,0,1,0,15,11.5,3.5,3.5,0,0,0,11.5,8Zm0,6A2.5,2.5,0,1,1,14,11.5,2.5,2.5,0,0,1,11.5,14Z"/><rect x="11" y="3" width="1" height="3"/><rect x="11" y="17" width="1" height="3"/><rect x="6.05" y="5.05" width="1" height="3" transform="translate(-2.71 6.55) rotate(-45)"/><rect x="15.95" y="14.95" width="1" height="3" transform="translate(-6.81 16.45) rotate(-45)"/><rect x="3" y="11" width="3" height="1"/><rect x="17" y="11" width="3" height="1"/><rect x="5.05" y="15.95" width="3" height="1" transform="translate(-9.71 9.45) rotate(-45)"/><rect x="14.95" y="6.05" width="3" height="1" transform="translate(0.19 13.55) rotate(-45)"/></svg>