<svg height="24" width="24" xmlns="http://www.w3.org/2000/svg"><path d="m19.25 12a3.25 3.25 0 0 1 3.014 4.462c.446.366.736.916.736 1.538a2 2 0 0 1 -1.9 1.998l-8.6.002a1.995 1.995 0 0 1 -.493-3.931l-.007-.069a2.5 2.5 0 0 1 2.392-2.498l.108-.002c.653 0 1.243.257 1.689.667.431-1.222 1.266-2.167 3.061-2.167zm0 1c-.922 0-1.738.562-2.08 1.399l-.545 1.531-1.114-1.028a1.482 1.482 0 0 0 -1.011-.402 1.5 1.5 0 0 0 -1.498 1.412l.022.93-.77.196a.995.995 0 0 0 .171 1.96h8.626a1 1 0 0 0 .949-.998c0-.356-.313-.766-.938-1.231l.274-.68a2.25 2.25 0 0 0 -2.086-3.089zm-11.25-5a3 3 0 0 1 3 3c0 1.62-1.343 3-3 3a3 3 0 0 1 -3-3c0-1.62 1.343-3 3-3zm0 1a2 2 0 1 0 0 4 2 2 0 0 0 0-4zm.5-5h-1v2.5h1zm0 11.5h-1v2.5h1zm4.803-9.096-.707-.707-1.768 1.767.708.708zm-8.131 8.132-.708-.708-1.767 1.768.707.707 1.768-1.768zm9.828-3.036v-1h-2.5v1zm-11.5 0v-1h-2.5v1zm1.672-4.036-.708.708-1.767-1.768.707-.707z"/></svg>