<svg xmlns="http://www.w3.org/2000/svg" width="24" height="24">
<path d="m20.48 18.58-2.14-10C18.14 7.66 17.33 7 16.38 7h-2.39c.32-.42.51-.93.51-1.5a2.5 2.5 0 0 0-5 0c0 .57.19 1.08.51 1.5H7.62c-.94 0-1.76.66-1.96 1.58l-2.14 10A2 2 0 0 0 5.48 21h13.05c1.27 0 2.22-1.17 1.96-2.42h-.01ZM10.5 5.5c0-.83.67-1.5 1.5-1.5s1.5.67 1.5 1.5S12.83 7 12 7s-1.5-.67-1.5-1.5Zm8.8 14.13c-.19.24-.47.37-.78.37H5.47c-.3 0-.59-.14-.78-.37-.19-.24-.26-.54-.2-.84l2.14-10c.1-.46.51-.79.98-.79h8.77c.47 0 .88.33.98.79l2.14 10c.06.3 0 .6-.2.84Z"/>
</svg>