<svg xmlns="http://www.w3.org/2000/svg" width="24" height="24">
<path d="M17.12 1.5c.631 0 1.26.111 1.868.331l.74.268-3.548 3.547a.497.497 0 0 0 0 .707l1.587 1.587a.5.5 0 0 0 .707-.001l3.547-3.547.267.74c.22.609.332 1.237.332 1.868 0 3.033-2.468 5.5-5.5 5.5a5.45 5.45 0 0 1-1.562-.23l-9.585 9.584a2.605 2.605 0 0 1-1.853.768c-.7 0-1.359-.273-1.854-.768a2.625 2.625 0 0 1 0-3.707l9.585-9.585A5.44 5.44 0 0 1 11.62 7c0-3.033 2.468-5.5 5.5-5.5Zm0 1a4.505 4.505 0 0 0-4.5 4.5c0 .513.092 1.028.273 1.528l.107.299L2.974 18.854a1.624 1.624 0 0 0 0 2.293c.613.612 1.681.612 2.293 0L15.293 11.12l.299.108c.5.18 1.014.272 1.528.272 2.482 0 4.5-2.019 4.5-4.5 0-.245-.02-.489-.062-.731L19.18 8.646a1.502 1.502 0 0 1-2.12 0L15.473 7.06a1.492 1.492 0 0 1-.44-1.06c0-.401.156-.777.44-1.061l2.378-2.377a4.391 4.391 0 0 0-.732-.062Z"/>
</svg>