<svg xmlns="http://www.w3.org/2000/svg" viewBox="0 0 24 24"><defs><style>.cls-1{fill:none;}.cls-2{fill:#010101;}</style></defs><g id="HG"><rect class="cls-1" width="24" height="24"/></g><g id="Default"><path class="cls-2" d="M20.46,6a6.24,6.24,0,0,0-.69-1L16.46,8.37c-.18.18-.3.27-.42.27s-.23-.09-.41-.27c-.36-.36-.36-.47,0-.83l3.31-3.31a5.8,5.8,0,0,0-1-.69h0A3.89,3.89,0,0,0,16.06,3a4.8,4.8,0,0,0-3.32,1.63c-1.49,1.49-2.39,2.7-1.1,5.23h0l-8,8a1.58,1.58,0,0,0,0,2.49A1.77,1.77,0,0,0,4.85,21a1.8,1.8,0,0,0,1.25-.61l8-8a4.09,4.09,0,0,0,2.06.64,4.65,4.65,0,0,0,3.18-1.73C20.85,9.78,21.57,8,20.46,6Zm-1.8,4.53c-1,1-1.73,1.44-2.47,1.44a3,3,0,0,1-1.55-.51L14,11.1l-.55.55-8,8a.87.87,0,0,1-.54.32.91.91,0,0,1-.53-.32A.89.89,0,0,1,4,19.13a1,1,0,0,1,.32-.52l8-8,.53-.53-.36-.66h0c-1-1.89-.48-2.65.92-4.05A3.83,3.83,0,0,1,16.06,4a2.68,2.68,0,0,1,1.3.35h0L14.92,6.84A1.61,1.61,0,0,0,14.36,8a1.61,1.61,0,0,0,.56,1.12A1.61,1.61,0,0,0,16,9.64a1.63,1.63,0,0,0,1.13-.56l2.47-2.47C20,7.17,20.61,8.61,18.66,10.56Z"/></g></svg>