<svg viewBox="0 0 24 24" xmlns="http://www.w3.org/2000/svg"><path d="m17.62 11.81c1.12 0 2.24-.42 3.1-1.28 1.36-1.36 1.63-3.37.85-5.01l-.14-.14-3.11 3.11h-1.2l-.6-.6v-1.2l3.11-3.11-.14-.14c-.6-.29-1.26-.43-1.91-.43-1.12 0-2.24.42-3.1 1.28-1.36 1.36-1.63 3.37-.85 5.01l-1.63 1.63-1.63-1.63c.78-1.64.51-3.65-.85-5.01-.86-.86-1.98-1.28-3.1-1.28-.65 0-1.31.14-1.91.43l-.14.14 3.11 3.11v1.2l-.6.6h-1.2l-3.11-3.11-.14.14c-.78 1.64-.51 3.65.85 5.01.86.86 1.98 1.28 3.1 1.28.65 0 1.31-.14 1.91-.43l1.63 1.63-4.49 4.49c-.57.57-.57 1.51 0 2.08.29.29.66.43 1.04.43s.75-.14 1.04-.43l4.49-4.49 4.49 4.49c.29.29.66.43 1.04.43s.75-.14 1.04-.43c.57-.57.57-1.51 0-2.08l-4.49-4.49 1.63-1.63c.6.29 1.26.43 1.91.43zm-10.82 7.06c-.12.12-.26.14-.33.14s-.21-.02-.33-.14c-.18-.18-.18-.48 0-.67l4.49-4.49.67.67-4.49 4.49zm11.06-.67c.18.18.18.48 0 .67-.12.12-.26.14-.33.14s-.21-.02-.33-.14l-4.49-4.49-.71-.71-.67-.67-.71-.71-1.63-1.63-.5-.5-.64.3c-.46.22-.97.34-1.48.34-.9 0-1.75-.35-2.39-.99-.69-.69-1.04-1.65-.98-2.6l1.97 1.97.29.29h2.03l.29-.29.6-.6.29-.29v-2.03l-.29-.29-1.97-1.97h.21c.9 0 1.75.35 2.39.99 1.01 1.01 1.27 2.57.65 3.88l-.3.64.5.5 1.63 1.63.71.71.67.67.71.71 4.49 4.49zm-2.86-7.53-1.63 1.63-.67-.67 1.63-1.63.5-.5-.3-.64c-.62-1.31-.36-2.86.65-3.88.64-.64 1.49-.99 2.39-.99h.21l-1.97 1.97-.29.29v2.03l.29.29.6.6.29.29h2.03l.29-.29 1.97-1.97c.05.95-.29 1.9-.98 2.6-.64.64-1.49.99-2.39.99-.51 0-1.02-.12-1.48-.34l-.64-.3-.5.5z"/></svg>