<svg viewBox="0 0 48 48" width="1em" height="1em">
    <path d="M16.9 12l1-4 4-1-4-1-1-4-1 4L12 7l3.9 1zM11 27.9l2-7 6.9-2-6.9-2-2-6.9-2 6.9-7 2 7 2zM22.3 14.6l.6 2.3.7-2.3 2.3-.6-2.3-.7-.7-2.3-.6 2.3-2.4.7zM43.5 35.1C37 32.6 30 29.6 24.1 29.6c-2.1 0-5.4 2.2-8.5 4-10.5 1-13 4.4-13.5 6 0 1.4.4 2.5 1 3 .2.2.6.5.9.5 1.2.1 3.8.3 3.8.3.8 1.3 2.2 2.1 3.8 2.1s2.9-.8 3.7-2H33.2c.8 1.2 2.2 2 3.7 2 1.9 0 3.5-1.2 4.1-2.8l3.8-.7c.4-.5.9-1.1.9-2v-1.5c.3-.9-1.7-3.2-2.2-3.4zm.5 4.8c0 .1-.1.3-.1.4l-3 .6-1.1.2-.4 1c-.5.9-1.4 1.5-2.4 1.5-.8 0-1.6-.4-2.1-1.1l-.6-.9H14.3l-.6.9c-.5.7-1.2 1.1-2.1 1.1s-1.6-.4-2.1-1.2l-.5-.8-1-.1s-2.2-.2-3.5-.3c-.1-.2-.3-.6-.3-1.2.4-.8 2.5-3.5 11.6-4.3h.4l.4-.2c.5-.3 1.1-.6 1.6-.9 2-1.2 4.7-2.8 5.9-2.8 5 0 10.9 2.3 16.7 4.6.6.2 1.2.5 1.8.7.4.4 1.2 1.4 1.4 1.9v.9zM28.6 27c1.9 1.9 4.5 2.9 7 2.9s5.1-1 7-2.9c3.9-3.9 3.9-10.2 0-14.1-1.9-1.9-4.5-2.9-7-2.9s-5.1 1-7 2.9c-3.9 3.9-3.9 10.2 0 14.1zM30 14.3c1.5-1.5 3.5-2.3 5.6-2.3s4.1.8 5.6 2.3c3.1 3.1 3.1 8.2 0 11.3-1.5 1.5-3.5 2.3-5.6 2.3s-4.1-.8-5.6-2.3c-3.1-3.1-3.1-8.2 0-11.3zM41.2 30.5c-.7.4-1.5.7-2.3.9.5.2.9.3 1.4.5.6.2 2.5 1 3.1 1.2 1.3.5 2.7 2.5 2.7 2.5v-2.4s-1.2-1.3-2.5-1.8l-2.4-.9zM23.6 25.7c-2.1 0-5.4 2.2-8.5 4-8.5.8-11.8 3.3-13 5v2c1.4-1.4 4-4.1 13.1-5h.4l.4-.2c.5-.3 1.1-.6 1.6-.9 2-1.2 4.7-2.8 5.9-2.8 1 0 2 .1 3.1.2-.6-.7-1.1-1.4-1.5-2.2-.5-.1-1-.1-1.5-.1z" />
    <path d="M33.7 23.9l7-7h-3L33.6 21l-.9-1.1h-3z" />
</svg>
