<svg viewBox="0 0 48 48" width="1em" height="1em">
    <path
        className="snapchat_svg__st0"
        d="M24.2 43.3h-.3-.2c-2.6 0-4.3-1.2-5.8-2.2-.9-.7-1.8-1.2-2.7-1.4-1.4-.2-2.7 0-3.5.1-.4.1-.7.1-1 .1-.7 0-1.3-.4-1.5-1.1-.1-.3-.2-.7-.2-1 0-.1-.1-.4-.1-.6-3.2-.5-4.9-1.3-5.4-2.4-.1-.2-.1-.4-.1-.5 0-.7.4-1.3 1.1-1.4 5.1-.8 7.5-6.2 7.6-6.4.2-.4.3-.8.2-1.1-.2-.5-1.3-.9-1.9-1.1-.2-.1-.4-.1-.6-.2-2.2-.9-2.5-1.9-2.3-2.7.3-1.4 2.2-2.1 3.3-1.6.8.4 1.5.5 1.9.4v-.6c-.2-2.8-.4-6.2.5-8.3 2.8-6.2 8.6-6.7 10.3-6.7h.8c1.7 0 7.6.5 10.4 6.7.9 2.1.7 5.6.5 8.3v.6h.2c.4 0 .9-.2 1.5-.4.4-.2.7-.2 1-.2.4 0 .7.1 1 .2 1 .4 1.5 1.1 1.5 1.8 0 1-.8 1.8-2.3 2.4-.2.1-.4.1-.6.2-.7.2-1.7.5-1.9 1.1-.1.3 0 .7.2 1 .1.3 2.5 5.6 7.6 6.5.7.1 1.1.7 1.1 1.4 0 .2-.1.4-.1.5-.5 1.1-2.2 1.9-5.4 2.4-.1.2-.1.5-.1.6-.1.3-.1.6-.2 1-.2.7-.7 1.1-1.4 1.1-.3 0-.6 0-1-.1-.6-.1-1.2-.2-2-.2-.5 0-1 0-1.4.1-.9.1-1.7.7-2.7 1.4-1.7 1.1-3.3 2.3-6 2.3zm-.3-1.8h.3c2 0 3.3-.9 4.7-1.9 1.1-.8 2.1-1.5 3.4-1.7.6-.1 1.2-.1 1.7-.1 1 0 1.8.1 2.4.2.2 0 .3.1.4.1 0-.2.1-.4.1-.6.2-.9.4-1.8 1.4-2 2.1-.3 3.1-.7 3.7-1-5.5-1.5-7.9-7-8-7.3-.5-.9-.5-1.8-.2-2.5.6-1.3 2.1-1.8 3.1-2.1.2-.1.4-.1.5-.2.8-.3 1.1-.6 1.2-.7-.1-.1-.2-.1-.3-.2-.3-.1-.5-.1-.6-.1-.8.4-1.6.6-2.3.6-1.2 0-1.7-.6-1.8-.7l-.2-.3.1-1.6c.2-2.6.4-5.8-.4-7.5-2.3-5.2-7.2-5.6-8.7-5.6V6l-.1.5h-.7c-1.4 0-6.4.4-8.7 5.6-.8 1.7-.6 4.9-.4 7.5 0 .4.1.8.1 1.2v.4l-.2.3c-.1.1-.7.7-1.9.7-.7 0-1.5-.2-2.4-.6-.3 0-.6.1-.7.2.1.1.4.4 1.2.7.1.1.3.1.5.2 1 .3 2.5.8 3.1 2.1.3.8.2 1.6-.2 2.6-.1.2-2.6 5.8-8 7.3.5.3 1.6.6 3.7 1 1 .1 1.2 1.1 1.4 2 0 .2.1.4.1.6.1 0 .3 0 .4-.1.5-.1 1.4-.3 2.4-.3.6 0 1.2 0 1.7.1 1.3.2 2.3.9 3.4 1.7 1.4 1 2.7 1.9 4.7 1.9 0-.1 0-.1.1-.1zm.5-36.3l-.1.3h.1v-.3z"
    />
</svg>
