<?xml version="1.0" encoding="utf-8"?>
<!-- Generator: Adobe Illustrator 20.1.0, SVG Export Plug-In . SVG Version: 6.00 Build 0)  -->
<svg version="1.1" id="Ebene_1" xmlns="http://www.w3.org/2000/svg" xmlns:xlink="http://www.w3.org/1999/xlink" x="0px" y="0px"
	 viewBox="0 0 128 128" style="enable-background:new 0 0 128 128;" xml:space="preserve">
<style type="text/css">
	.st0{fill:#FFFFFF;}
</style>
<g id="Ebene_1_1_">
</g>
<g>
	<rect x="40" y="102.5" class="st0" width="47.4" height="9.4"/>
	<path class="st0" d="M64,72.1c3.4,0,6.1-2.7,6.1-6.1s-2.7-6-6-6L48.8,48.9l-2.6,2.7L58,66.2v0.2C58.2,69.6,60.8,72.1,64,72.1z"/>
	<path class="st0" d="M64,16.1c-26.6,0-48.2,21.6-48.2,48.2c0,6.4,1.2,12.5,3.5,18l9.6-4.1c-1.7-4.3-2.7-9.1-2.7-14
		c0-20.9,16.9-37.7,37.7-37.7s37.7,16.9,37.7,37.7c0,4.7-0.9,9.3-2.5,13.5l9.5,4.1c2.1-5.2,3.3-11.3,3.3-17.6c0,0,0,0,0-0.1
		C112.2,37.8,90.6,16.1,64,16.1z"/>
</g>
</svg>
