<svg xmlns="http://www.w3.org/2000/svg" viewBox="0 0 32 32" width="100%" height="100%"><path d="M17.632 14.939c.326.076.717-.41.874-1.085s.019-1.284-.307-1.359c-.326-.076-.717.41-.874 1.085s-.019 1.284.307 1.359zm.661-2.026c.015.009.029.021.039.034.217.281-.079.619-.386.441-.015-.009-.029-.021-.039-.034-.217-.281.079-.619.386-.441zM14.424 13.711c.32.097.743-.362.944-1.025s.104-1.279-.216-1.376c-.32-.097-.743.362-.944 1.025s-.104 1.279.216 1.376zm.577-2.078c.159 0 .287.129.287.287s-.129.287-.287.287-.287-.129-.287-.287c0-.159.129-.287.287-.287z"/><path d="M27.752 14.327c-.292-.86-1.558-.925-3.635-1.298s-2.97-.665-2.97-.665-.388-2.313-.665-3.814c-.275-1.488-.454-3.379-1.996-3.375-2.891.006-6.313 4.203-6.313 4.203s-1.834-.049-3.635-1.168c-.865-.538-2.499-1.254-2.596 1.964-.097 3.229 2.353 6.345 2.353 6.345s-.441 1.379-.667 2.889-.129 4.511.78 5.664c.909 1.152 1.542.909 2.807.097s2.856-2.029 2.856-2.029.86.649 2.483 1.85 3.489 2.061 4.836 1.785 1.168-1.688 1.022-3.116c-.146-1.428-.373-3.586-.373-3.586s2.824-.828 4.025-2.093c1.201-1.266 1.98-2.791 1.688-3.651zm-15.334-1.493c.51-1.685 1.711-2.812 2.683-2.518.662.201 1.047 1.01 1.063 2.038.492-.644 1.099-.996 1.662-.866.989.229 1.468 1.861 1.071 3.575s-1.541 2.9-2.53 2.671c-.747-.173-1.193-1.105-1.195-2.29-.571.76-1.292 1.162-1.919.972-.972-.294-1.346-1.899-.836-3.583zm6.392 5.388c-.007 0-3.292 2.767-5.732 2.013-2.366-.731-2.464-4.756-2.464-4.756h-.584s.184-.03.584-.195c.457-.188.633-.325.633-.325l-.454.519c.006.009.341 3.473 2.418 4.236 2.018.741 5.533-1.657 5.533-1.657l.099-.728s.115.448.194.747c.072.273.228.519.228.519l-.454-.373z"/></svg>