<svg enable-background="new 0 0 4383 300" viewBox="0 0 4383 300" xmlns="http://www.w3.org/2000/svg"><path d="m492 221c48.1 0 74-25.9 74-74v-73c0-48.1-25.9-74-74-74h-492v300h68v-79zm6-143v65c0 7.8-4.2 12-12 12h-418v-89h418c7.8 0 12 4.2 12 12zm220 222c-48.1 0-74-25.9-74-74v-152c0-48.1 25.9-74 74-74h407c48.1 0 74 25.9 74 74v152c0 48.1-25.9 74-74 74zm401-66c7.8 0 12-4.2 12-12v-144c0-7.8-4.2-12-12-12h-395c-7.8 0-12 4.2-12 12v144c0 7.8 4.2 12 12 12zm657-36c39.8444 16.7574 67.8527 56.1 68 102h-68c0-54-25-79-79-79h-351v79h-68v-300h492c48.1 0 74 25.9 74 74v50.14c0 46.06-23.75 71.76-68 73.86zm-12-43c7.8 0 12-4.2 12-12v-65c0-7.8-4.2-12-12-12h-418v89zm155-81c0-48.1 25.9-74 74-74h482v56h-476c-7.8 0-12 4.2-12 12v42c0 7.8 4.2 12 12 12h412c48.1 0 74 25.9 74 74v30c0 48.1-25.9 74-74 74h-482v-56h476c7.8 0 12-4.2 12-12v-42c0-7.8-4.2-12-12-12h-412c-48.1 0-74-25.9-74-74zm643 0c0-48.1 25.9-74 74-74h470v66h-464c-7.8 0-12 4.2-12 12v144c0 7.8 4.2 12 12 12h464v66h-470c-48.1 0-74-25.9-74-74zm1156-74v300h-68v-117h-397v117h-68v-300h68v117h397v-117zm148 56v66h517v56h-517v66h517v56h-585v-300h585v56z"/></svg>