<svg xmlns="http://www.w3.org/2000/svg" viewBox="0 0 158 36" >
<path d="m105.6 23.2c1.1 1.9 3.5 2.9 8.1 2.2 2.7-.4 4.2-1.2 6.3-2.2.2.5.8 2.1 3.8 2.4 2.3.2 5.4-.2 7.6-.8l-.7.7h3.1c1.4-.1 3.2-1.5 5-3.2.6-.6 1.1-1.1 2-1.8 6.4-5.6 13.6-5.8 10.4-1.8-.9 1.1-1.6 1.8-2.5 3-2.1 2.6-2.3 4.7 5.1 3.9.5 0 .9-.1 1.4-.2 1-.2 1.7-.9 2.3-1.6.1-.1.3-.4.4-.5.2-.3.1-.7-.6-.6-.3.1-.5.1-.8.1-5.2.8-5.2.6-2.8-2.2.5-.6 1.5-1.8 2.4-2.9.6-.8 1-1.6 1.2-2.4.5-2-1-3-3.2-3.1-2.8-.1-5.6.9-8.3 2.4.3-.6.7-1.4 1-1.9l-3.9.2c-2.3 2.1-4.1 4.2-6.1 6.2-2 1.9-4.4 3.2-7.5 3.8-.8.1-1.7.3-2.7.2-2-.1-2.5-.9-1.5-2.4 1.4-1.4 3.2-2.8 6-4.6 1.3-.5 1 .2 2.1-.2.7-.5.4-1.2.1-1.5-.2-.2-1.2-1.1-1.9-1.4-.5-.2-1.5-.3-2.2.3l-8.6 6.8c-2.3 1.5-4.6 2.2-6.8 2.2-2.4 0-3.1-1.1-1.8-2.8 1.1-1.4 2.8-2.6 4.6-3.4s4-1.4 6.5-1.5h1.8c1.1.1 2.8-1.2 1.3-1.9-3.3-1.1-7.8-.6-13.4 1.7-2.8 1.2-5.6 2.8-6.8 5 0 .1-.5.8-.6 1.2-.9.3-1.2.4-2.9.8-1.6.4-6.7 1.8-11 1.1-3.1-.5-3.6-2.2-1.8-4.2 1.6-1.8 5.1-3.6 9.4-3.9 1.3-.1 3.6-.1 4-.2s.5-.5.2-1c-.4-.7-1-1.4-2.3-1.5-.4 0-.7 0-1.2 0-6.9.2-11.1 2.3-14.3 4.8-1.5 1.3-2.2 2.7-2.3 4.2-1.9.9-5.1 2-7.8 2.3-.5.1-1.1.1-1.6.1-2-.1-2.5-.9-1.5-2.4 1.4-1.4 3.2-2.8 6-4.6 1.3-.5 1 .2 2.1-.2.7-.5.4-1.2.1-1.5-.2-.2-1.2-1.1-1.9-1.4-.5-.2-1.5-.3-2.2.3l-8.6 6.8c-2.3 1.5-4.6 2.2-6.8 2.2-2.4 0-3.1-1.1-1.8-2.8 1.1-1.4 2.8-2.6 4.6-3.4s4-1.4 6.5-1.5h1.8c1.1.1 2.8-1.2 1.3-1.9-3.3-1.1-7.8-.6-13.4 1.7-2.8 1.2-5.4 2.9-6.9 5-.1.1-.8 1.2-.9 2.1-6 1.2-11.9 2.5-6.8-4.8 1.8-2.5 9-10.8 9.6-11.5 1-.5.8-.7.3-1.2-.7-.8-2-1.9-3-1.8-2 .2-5.3 2-8.8 4.2-7.1 4.6-15.4 11.3-15.3 11.1 1.1-2.1 2.3-3.7 3.4-5.2 1.8-2.5 3.5-4.6 5.4-7.1.3-.5.6-.8 0-1.5-.7-.8-1.9-2.1-3.3-1.7-2.6.6-6.7 3-11.3 6-8.7 5.8-18.3 13.4-22.4 17.5h2.9c1.6 0 3.3-.9 4.3-1.6 3.8-2.7 11.9-9 18.3-13.3.7-.5 1.4-.9 2-1.3 1.3-.8 2.4-1.3 2.5-1 0 0-.1.2-.1.3-.3.4-.4.6-.7 1.1-1.5 2.4-4.9 8.3-7.2 13.8h1.4c1.6-.1 2.8-.7 3.7-1.3 7.1-5 15.1-10.7 19.3-13.3.1-.1.2-.1.3-.2.3-.2.6-.3.8-.4s.2 0 .2.1c-.1.2-.2.2-.4.4-2.1 2.2-8 8.2-8.9 11.5-.7 2.6.6 4.3 2.6 4.9 1.8.6 4.7.4 6.8 0 2-.4 3.6-.7 5.7-1.3 1.2 1.5 3.6 2.2 7.7 1.6 2.7-.4 4.2-1.2 6.3-2.2.1.4.6 1.3 1.8 1.9.8.3 2 .6 3.8.6 3.3 0 7.6-1 11-2.5.8 1.2 2.5 1.8 3.8 2 2.7.5 8.2.5 15.1-1.4 1-.2 1.6-.4 2.6-.7z"/>
</svg>