<!-- Generated by IcoMoon.io -->
<svg version="1.1" xmlns="http://www.w3.org/2000/svg" width="32" height="32" viewBox="0 0 32 32">
<title>afternoon-next</title>
<path d="M16 12.364c2.008 0 3.636 1.628 3.636 3.636s-1.628 3.636-3.636 3.636c-2.008 0-3.636-1.628-3.636-3.636s1.628-3.636 3.636-3.636zM16 18.908c1.604 0 2.908-1.304 2.908-2.908s-1.304-2.908-2.908-2.908c-1.604 0-2.908 1.304-2.908 2.908s1.304 2.908 2.908 2.908zM23.636 15.636c0.2 0 0.364 0.164 0.364 0.364s-0.164 0.364-0.364 0.364h-2.18c-0.2 0-0.364-0.164-0.364-0.364s0.164-0.364 0.364-0.364h2.18zM19.856 12.508h0.001c-0.092 0-0.184-0.036-0.256-0.104-0.144-0.144-0.144-0.372 0-0.516l1.54-1.548c0.144-0.14 0.376-0.14 0.516 0 0.144 0.144 0.144 0.376 0 0.516l-1.544 1.544c-0.068 0.072-0.164 0.108-0.256 0.108zM16 10.908c-0.2 0-0.364-0.16-0.364-0.364v-2.18c0-0.2 0.164-0.364 0.364-0.364s0.364 0.164 0.364 0.364v2.18c0 0.2-0.164 0.364-0.364 0.364zM11.888 12.4h0.001l-1.548-1.544c-0.14-0.144-0.14-0.372 0-0.516 0.144-0.14 0.376-0.14 0.516 0l1.544 1.544c0.144 0.144 0.144 0.372 0 0.516-0.068 0.072-0.164 0.108-0.256 0.108s-0.184-0.036-0.256-0.108zM10.908 16c0 0.2-0.16 0.364-0.364 0.364h-2.18c-0.2 0-0.364-0.164-0.364-0.364s0.164-0.364 0.364-0.364h2.18c0.2 0 0.364 0.164 0.364 0.364zM11.888 19.6c0.14-0.144 0.372-0.144 0.512 0 0.144 0.144 0.144 0.372 0 0.516l-1.544 1.544c-0.068 0.072-0.164 0.108-0.256 0.108s-0.184-0.036-0.256-0.108c-0.14-0.144-0.14-0.372 0-0.516l1.544-1.544zM16 21.092c0.2 0 0.364 0.16 0.364 0.364v2.18c0 0.2-0.164 0.364-0.364 0.364s-0.364-0.164-0.364-0.364v-2.18c0-0.2 0.164-0.364 0.364-0.364zM20.112 19.6h0.001l1.54 1.544c0.144 0.144 0.144 0.376 0 0.516-0.068 0.072-0.164 0.108-0.256 0.108s-0.184-0.036-0.256-0.108l-1.544-1.544c-0.144-0.144-0.144-0.372 0-0.516s0.372-0.144 0.516 0z"></path>
</svg>
