<!-- Generated by IcoMoon.io -->
<svg version="1.1" xmlns="http://www.w3.org/2000/svg" width="32" height="32" viewBox="0 0 32 32">
<title>baidu</title>
<path d="M13.159 20.571h1.328v2.968h-1.24c0 0-0.864-0.044-1.127-1.018-0.136-0.431 0.020-0.93 0.088-1.126 0.064-0.197 0.353-0.65 0.951-0.824zM9.694 16.575c-2.364 0.499-3.243-2.182-2.983-3.437 0 0 0.28-2.712 2.197-2.879 1.523-0.13 2.646 1.502 2.762 2.438 0.070 0.606 0.393 3.38-1.976 3.879zM24.012 20.283h-0.001c0 0 2.027 1.553 0.731 4.542-1.294 2.992-6.029 1.437-6.029 1.437s-1.746-0.552-3.777-0.109c-2.025 0.444-3.773 0.276-3.773 0.276s-2.37 0.055-3.046-2.878c-0.674-2.937 2.365-4.544 2.593-4.818 0.226-0.279 1.802-1.329 2.816-2.992 1.017-1.659 4.059-2.989 6.202 0.277 1.578 2.215 4.283 4.264 4.283 4.264zM15.905 24.735l-0.001-0.002v-7.286l-1.393-0.021v1.971h-1.64c0 0-1.64 0.133-2.213 1.953-0.2 1.215 0.176 1.931 0.242 2.083s0.596 1.041 1.927 1.302h3.078zM21.642 24.714l-0.001 0.001v-5.14h-1.529v3.858h-1.459c0 0-0.466-0.067-0.554-0.361v-3.448l-1.439-0.051v3.837c0 0 0.064 0.956 1.439 1.303h3.542zM26.657 14.468c0 0.668 0.284 3.488-2.309 3.545-2.596 0.055-2.704-1.717-2.704-2.988 0-1.332 0.276-3.216 2.366-3.216 2.086 0 2.647 1.997 2.647 2.659zM19.728 12.142c-1.747-0.219-2.143-1.767-1.973-3.32 0.139-1.269 1.689-3.215 2.931-2.936 1.236 0.275 2.367 1.885 2.138 3.268-0.225 1.385-1.346 3.213-3.096 2.988zM14.092 11.925c-1.308 0-2.367-1.474-2.367-3.297s1.059-3.295 2.367-3.295c1.308 0 2.364 1.473 2.364 3.295s-1.057 3.297-2.364 3.297z"></path>
</svg>
