<!-- Generated by IcoMoon.io -->
<svg version="1.1" xmlns="http://www.w3.org/2000/svg" width="32" height="32" viewBox="0 0 32 32">
<title>untitled13</title>
<path d="M1.25 8.875q0 0.188 0.094 0.359t0.25 0.266q1.563 1.125 2.547 2.844t1.109 3.75v0.5q0 1.938-0.781 3.594t-2.094 2.844h-0.031l-0.281 0.25q-0.125 0.125-0.188 0.266t-0.063 0.328q0 0.125 0.031 0.234t0.094 0.234l2.813 3.531q0.094 0.156 0.25 0.219t0.344 0.063q0.063 0 0.141-0.016t0.141-0.016l0.656-0.25q1.344-0.563 2.688-0.531 1.375 0.031 2.594 0.531t2.188 1.438q1 0.938 1.594 2.219 0.094 0.219 0.266 0.344t0.422 0.125q0.219 0 0.406-0.125t0.281-0.313v-0.031q0.813-1.844 2.547-3.016t3.859-1.172q0.719 0 1.391 0.141t1.266 0.391l-0.031-0.031 0.656 0.281q0.063 0 0.141 0.016t0.141 0.016q0.188 0 0.344-0.078t0.25-0.203l2.813-3.531q0.188-0.25 0.156-0.547t-0.25-0.516l-0.313-0.25q-1.344-1.188-2.125-2.844t-0.781-3.594v-0.5q0.125-2.031 1.094-3.75t2.531-2.844q0.156-0.094 0.25-0.266t0.094-0.359q0-0.125-0.031-0.234t-0.094-0.172l-2.563-3.813q-0.094-0.156-0.25-0.25t-0.375-0.094q-0.063 0-0.141 0.016t-0.141 0.047l-0.125 0.031q-0.375 0.156-0.813 0.25t-0.906 0.094q-0.656 0-1.281-0.172t-1.156-0.516l0.031 0.031q-0.938-0.563-1.547-1.438t-0.797-1.969v-0.031q-0.031-0.281-0.234-0.469t-0.484-0.188h-7.625q-0.313 0-0.516 0.188t-0.266 0.469q-0.281 1.75-1.609 2.922t-3.141 1.172q-0.469 0-0.906-0.094t-0.844-0.25h0.031l-0.125-0.031q-0.063-0.031-0.125-0.047t-0.156-0.016q-0.188 0-0.359 0.094t-0.266 0.25l-2.563 3.813q-0.063 0.063-0.094 0.172t-0.031 0.234zM3.063 8.75l1.813-2.719q0.406 0.125 0.875 0.188t0.938 0.063q2.219 0 3.891-1.328t2.203-3.359v-0.031h6.375q0.531 2.063 2.219 3.391t3.875 1.328q0.5 0 0.969-0.063t0.906-0.219l-0.031 0.031 1.781 2.719q-1.594 1.313-2.578 3.188t-1.078 4.063l-0.031 0.031v0.375q0 2.25 0.875 4.188t2.375 3.375l-2 2.531-0.125-0.031q-1.438-0.563-2.938-0.625-1.469-0.031-2.828 0.406t-2.547 1.281q-1.156 0.875-1.969 2.125-1.188-1.719-3.047-2.766t-4.078-1.047q-0.875 0-1.688 0.172t-1.563 0.484l0.063-0.031-0.125 0.031-2.031-2.531q1.5-1.375 2.344-3.281t0.844-4.094v-0.563q-0.125-2.219-1.109-4.094t-2.547-3.188h-0.031zM12.969 9.938q0 1.281 0.891 2.172t2.172 0.891q1.25 0 2.141-0.891t0.891-2.172q0-1.25-0.891-2.141t-2.141-0.891q-1.281 0-2.172 0.891t-0.891 2.141zM14.5 9.938q0-0.625 0.438-1.063t1.094-0.438q0.625 0 1.063 0.438t0.438 1.063q0 0.656-0.438 1.094t-1.063 0.438q-0.656 0-1.094-0.438t-0.438-1.094z"></path>
</svg>
