<svg xmlns="http://www.w3.org/2000/svg" width="100%" height="100%" viewBox="0 0 32 32"><path d="M10.34 21.333H8.769c-.037 0-.07-.007-.092-.015-.191-.033-.353-.152-.441-.335l-.011-.023c-.004-.015-.011-.026-.018-.041-.026-.067-.062-.149-.077-.246-.044-.2-.07-.423-.077-.662-.015-.312-.022-.632-.029-.944v-.007c0-.112.004-.219.004-.327 0-.104.004-.208.004-.312v-.011l-.022-1.108c-.004-.018-.008-.048-.008-.086v-1.029c0-.037.004-.067.008-.086 0-.108.008-.205.015-.301v-.007c.011-.1.018-.208.029-.309.008-.104.018-.212.029-.319.011-.096.029-.19.048-.279l.022-.122c0-.007.004-.011.004-.018.026-.108.077-.182.125-.249l.008-.011c.077-.1.169-.186.258-.264-.004 0-.004-.004-.008-.004h-.004c-.213-.1-.317-.279-.305-.513 0-.041 0-.093.022-.149.074-.271.228-.479.464-.617.228-.137.478-.205.747-.193h.008c.199.015.357.112.456.286.004.004.008.011.008.015.044.089.062.164.081.227.004.011.004.018.008.03.008.059.015.115.015.167h.048c.268-.554.53-1.029.806-1.445.18-.275.342-.487.504-.672.118-.137.272-.241.463-.316.103-.041.221-.071.357-.089l.177-.033c.062-.015.129-.026.195-.037.294-.052.563-.086.813-.108l.28-.022.291-.022h.004c.247-.015.504-.03.761-.037.132-.004.268-.008.397-.008.125 0 .254-.004.379-.008.018-.004.041-.008.074-.008h.68c.029 0 .055.004.074.008l.154.004c.383.008.706.015 1.033.033l.051.004.35.022.055.004c.188.015.386.03.581.048h.007c.18.026.353.052.526.074l.25.037h.004c.103.015.202.037.298.056l.018.004c.041.008.077.015.118.026.276.059.504.201.68.416.118.145.228.297.335.446.132.186.247.364.353.543.011.022.022.041.033.059.007.015.015.03.026.045l.015.026.007.015c.118.201.235.416.364.658.059.112.111.216.162.312h.029c0-.022 0-.045.004-.067 0-.059.007-.119.018-.175.011-.059.029-.112.055-.164.074-.178.214-.301.386-.331.062-.011.111-.011.154-.011h.029c.158.018.317.052.464.1l.026.011c.088.037.154.074.217.115 0 0 .004 0 .004.004.198.13.338.327.408.576.029.093.037.178.022.26 0 .007-.004.015-.004.022-.011.041-.022.074-.029.096-.004.007-.004.015-.007.022-.041.093-.107.171-.195.23.055.048.111.096.154.142l.007.007.015.015c.169.156.283.357.331.595v.007c.029.156.051.316.07.487.011.112.018.205.026.294.015.216.022.435.029.647v.015c.007.086.007.171.007.256 0 .294.007.602.015.873v.007c0 .078 0 .145.007.212v1.568c0 .026 0 .063-.007.112l-.022.431v.007c-.018.219-.044.409-.077.587-.026.163-.074.312-.14.457 0 .004-.004.004-.004.007-.103.208-.265.335-.478.386-.029.007-.059.011-.081.015h-.015c-.022.004-.041.007-.062.007h-1.445c-.041 0-.074-.007-.099-.018-.191-.045-.342-.163-.427-.342-.041-.074-.059-.142-.077-.197-.004-.007-.004-.015-.007-.023-.121-.018-.228-.078-.301-.175-.121 0-.232.004-.338.026-.28.059-.566.093-.905.112h-.015c-.25.015-.489.03-.743.03-.489.007-.986.007-1.471.007h-.695c-.448 0-.912-.004-1.368 0h-.467c-.46 0-.93.004-1.394-.007h-.011c-.059-.004-.118-.004-.18-.007l-.195-.007c-.214-.015-.434-.03-.655-.052-.066-.007-.136-.015-.206-.026-.074-.011-.154-.018-.228-.026-.004 0-.011 0-.015-.004l-.066-.011c-.07-.011-.136-.023-.195-.023-.114 0-.217-.007-.316-.015H11.263c-.074.097-.184.156-.305.171-.029.004-.059 0-.088.004-.011.048-.026.089-.037.13 0 .004-.004.011-.008.015-.081.205-.206.345-.375.42-.029.011-.066.018-.103.018v.002zm-1.537-.557h1.456c.015-.015.029-.041.048-.086.026-.074.037-.13.041-.178 0-.026.004-.071.022-.126.037-.115.144-.19.261-.19h.121c.033-.004.062-.007.092-.007.015-.023.029-.041.044-.059.052-.071.136-.112.221-.112h.062c.052 0 .107-.004.169.004.092.007.177.015.268.015.103 0 .199.015.287.03.018.004.037.007.052.007.081.007.158.018.235.03.066.007.129.018.195.023.21.023.423.037.633.052.055.004.114.004.177.007.062 0 .125.004.191.007.453.011.923.011 1.376.007h.463c.456-.004.923-.004 1.372 0h.691c.482 0 .979 0 1.464-.007h.004c.235 0 .467-.015.71-.03h.018c.312-.015.574-.048.824-.1.18-.037.35-.037.511-.037h.074c.121 0 .228.067.283.171.004.004.004.007.007.011.011 0 .022 0 .033.004.029.004.059.004.096.007.107.015.195.086.228.19.011.037.022.074.029.108l.011.048c.004.018.011.033.015.052.011.041.022.074.037.097.004.007.007.011.007.018.011.026.026.037.051.045.007 0 .015.004.018.004h1.383c.018-.004.033-.004.044-.007h.019c.048-.011.077-.026.107-.089.044-.097.074-.197.096-.312v-.007c.029-.156.051-.327.07-.524l.022-.45c0-.018.004-.033.007-.048V17.802c-.007-.089-.007-.167-.007-.246-.007-.275-.015-.583-.015-.885 0-.078 0-.149-.007-.212v-.044c-.007-.205-.015-.42-.029-.628-.004-.081-.011-.167-.022-.271-.015-.152-.037-.297-.062-.439-.026-.122-.077-.216-.162-.294l-.011-.011-.018-.018c-.188-.175-.338-.294-.489-.394-.022-.011-.059-.03-.096-.063-.059-.059-.088-.13-.088-.212 0-.145.107-.264.25-.279.048-.004.088-.011.129-.015l.067-.007h.004c.048-.004.092-.018.132-.037 0-.004-.004-.007-.004-.011-.033-.122-.092-.208-.177-.264-.041-.026-.081-.045-.136-.071-.103-.033-.214-.059-.32-.071h-.015l-.011.026c-.007.011-.011.03-.015.045-.004.022-.007.045-.007.067v.022c-.004.048-.004.1 0 .16v.081c.011.071-.004.127-.026.171-.077.182-.239.197-.287.197-.015 0-.026 0-.041-.004-.096-.015-.198-.015-.309-.011h-.092c-.103 0-.198-.059-.247-.152v-.004c-.007-.015-.022-.041-.033-.071-.059-.119-.125-.245-.195-.386-.121-.234-.235-.442-.35-.636l-.022-.037c-.011-.022-.022-.041-.033-.059-.007-.015-.015-.03-.026-.045-.099-.167-.206-.331-.327-.505-.099-.142-.206-.282-.312-.42-.096-.115-.217-.19-.368-.223l-.114-.022-.018-.004c-.088-.018-.18-.037-.272-.052l-.247-.037c-.169-.026-.342-.048-.518-.074-.188-.018-.375-.033-.559-.048l-.048-.004-.35-.022-.048-.004c-.32-.015-.64-.026-1.015-.03l-.169-.004c-.029 0-.051-.004-.067-.008h-.647c-.018.004-.041.008-.07.008-.132.004-.265.008-.397.008-.129 0-.261.004-.39.008-.247.008-.5.022-.743.037l-.287.022-.28.022c-.235.018-.486.052-.765.1-.059.011-.118.022-.18.037s-.129.026-.195.037h-.007c-.099.015-.177.033-.242.059h-.004c-.103.037-.18.089-.242.16-.147.167-.294.36-.46.613-.276.424-.544.91-.82 1.494 0 0 0 .004-.004.004-.011.026-.033.078-.081.127-.059.059-.139.089-.221.078-.066-.007-.121-.011-.177-.007-.066.007-.132.015-.206.026-.059.011-.118.004-.173-.026-.07-.037-.191-.127-.191-.345 0-.011 0-.026.004-.037.008-.067.008-.152-.004-.253-.011-.037-.018-.063-.029-.089l-.004-.004h-.008c-.158-.004-.302.033-.441.119-.111.067-.177.156-.213.286v.011c.092.037.195.059.342.067h.111c.095 0 .184.048.235.134.052.081.055.186.011.271-.052.1-.125.142-.162.16l-.022.011c-.118.074-.228.145-.327.23-.092.081-.18.156-.243.238-.018.022-.029.041-.033.052l-.022.119-.041.23c-.011.1-.018.205-.029.304-.008.104-.018.208-.029.312-.008.093-.015.182-.015.271 0 .03-.004.052-.008.071v1.026c.004.015.008.041.008.071l.022 1.111v.015c0 .112-.004.219-.004.327 0 .1-.004.208-.004.312.008.304.015.621.029.929.008.212.029.401.066.572 0 .004.004.011.004.015.008.037.026.081.044.13l.015.037c.011.018.022.026.041.026.022 0 .033 0 .044.004l-.001.001zm3.35-8.514c.121-.186.327-.297.548-.297 0 0 1.07-.275 3.258-.275 2.097 0 3.222.275 3.222.275.221 0 .427.112.548.297l1.015 1.702h-9.603l1.012-1.702zm9.967 4.167v-.001s-1.365.137-1.582.056c-.147-.055-.184-.055-.221-.241-.022-.119.28-.654.754-1.022.265-.205.585-.338.92-.372.445-.045.633.112.791.353.147.223.221.78.147.966s-.551.223-.809.26zm-12.292 0c-.258-.037-.736-.074-.809-.26s0-.743.147-.966c.158-.241.346-.398.791-.353.335.033.654.167.92.372.474.368.776.903.754 1.022-.037.186-.074.186-.221.241-.221.081-1.582-.056-1.582-.056v.001z"/></svg>