<svg xmlns="http://www.w3.org/2000/svg" width="100%" height="100%" viewBox="0 0 32 32"><path d="M21.333 13.893c0-.218-.154-.402-.357-.444v-.009s-1.488-.355-1.875-.725c-.219-.209-.581-.612-.581-1.45s.982-1.315.982-1.315l-.036-.009c.278-.191.437-.412.437-.648 0-.714-1.45-1.291-3.237-1.291s-3.237.579-3.237 1.291c0 .236.16.458.437.648l-.036.009s.982.476.982 1.315-.361 1.241-.581 1.45c-.387.37-1.875.725-1.875.725v.009c-.203.042-.357.226-.357.444v9.065c0 .039.006.077.015.113-.01.022-.015.046-.015.068 0 .476 2.089.861 4.666.861s4.666-.386 4.666-.861c0-.023-.005-.046-.014-.068.009-.036.014-.074.014-.113v-9.065h.001z"/></svg>