<!-- Generated by IcoMoon.io -->
<svg version="1.1" xmlns="http://www.w3.org/2000/svg" width="32" height="32" viewBox="0 0 32 32">
<title>untitled4</title>
<path d="M3.531 16.094q0 0.813 0.719 2.391t2.906 1.578q2.031 0 2.625-1.703t0.625-2.703q0.094 0.031 0.188 0.047t0.219 0.016h0.094q0.094 0.25 0.156 0.609t0.063 0.828q0 0.813-0.156 1.594t-0.156 1.313q0 0.563 0.484 1.016t1.297 0.453h0.281q0-0.531 0.047-1t0.109-0.844q0.094-0.469 0.25-0.844t0.375-0.688q0.25-0.313 0.594-0.531t0.75-0.344q0.344-0.094 0.719-0.156t0.813-0.063q-0.438-1.469-1.938-1.922t-2.375-0.484q0.031-0.094 0.031-0.188v-0.344q0.281-0.063 0.641-0.141t0.828-0.078q0.813 0 1.594 0.172t1.313 0.172q0.563 0 1.016-0.5t0.453-1.281q0-0.813-0.734-2.406t-2.922-1.594q-2 0-2.594 1.719t-0.625 2.719q-0.094-0.031-0.188-0.047t-0.219-0.016h-0.125q-0.063-0.25-0.141-0.625t-0.078-0.813q0-0.813 0.172-1.594t0.172-1.344q0-0.531-0.5-0.984t-1.281-0.453q-0.813 0-2.422 0.719t-1.609 2.906q0 2.031 1.703 2.625t2.703 0.625q-0.031 0.094-0.047 0.188t-0.016 0.219v0.094q-0.25 0.094-0.609 0.156t-0.828 0.063q-0.844 0.031-1.609-0.141t-1.328-0.172q-0.531 0-0.984 0.5t-0.453 1.281zM10.063 14.313q0-0.313 0.219-0.516t0.531-0.203q0.281 0 0.5 0.203t0.219 0.516q0 0.281-0.219 0.5t-0.5 0.219q-0.313 0-0.531-0.219t-0.219-0.5zM14.25 21.531q0 0.469 0.031 0.875t0.094 0.75q0.031 0.344 0.141 0.609t0.234 0.453q0.125 0.219 0.328 0.359t0.484 0.203q0.25 0.094 0.547 0.141t0.672 0.047q0.406 0 0.703-0.047t0.547-0.141q0.25-0.063 0.438-0.203t0.344-0.359q0.125-0.188 0.25-0.453t0.156-0.609 0.078-0.734 0.047-0.891q0-0.531-0.047-0.938t-0.078-0.719-0.156-0.578-0.25-0.422-0.328-0.313-0.453-0.188q-0.25-0.094-0.547-0.141t-0.703-0.047q-0.375 0-0.672 0.047t-0.547 0.141q-0.281 0.031-0.484 0.188t-0.328 0.313-0.234 0.438-0.141 0.563q-0.063 0.344-0.094 0.766t-0.031 0.891zM15.5 21.531v-0.625t0.063-0.5q0.031-0.219 0.078-0.391t0.078-0.297q0.094-0.125 0.188-0.203t0.219-0.141q0.125-0.031 0.281-0.047t0.313-0.016q0.219 0 0.359 0.016t0.266 0.047q0.125 0.063 0.219 0.141t0.188 0.203q0.063 0.125 0.109 0.297t0.047 0.391q0 0.188 0.031 0.484t0.031 0.641v0.719t-0.063 0.563q0 0.281-0.031 0.453t-0.125 0.297-0.188 0.203-0.219 0.141q-0.125 0.031-0.281 0.031h-0.672t-0.266-0.031q-0.125-0.063-0.219-0.141t-0.188-0.203-0.125-0.297-0.031-0.453q0-0.25-0.031-0.563t-0.031-0.719zM20.063 24.844h1.313v-2.75h2.313v-1.063h-2.313v-1.594h2.531v-1.125h-3.844v6.531zM24.625 24.844h1.313v-2.75h2.313v-1.063h-2.313v-1.594h2.531v-1.125h-3.844v6.531z"></path>
</svg>
