<svg xmlns="http://www.w3.org/2000/svg" width="100%" height="100%" viewBox="0 0 32 32"><path d="M26.667 11.167h-3.88l1.94-1.834 1.94 1.834zm0 .915h-3.88l1.94 1.834 1.94-1.834zm-.489 9.398c-.299.428-1.518.705-1.518.705-.231 1.036-1.199 1.814-2.362 1.814-.993 0-1.847-.564-2.218-1.377h-8.099c-.375.808-1.225 1.377-2.218 1.377-1.018 0-1.889-.593-2.248-1.44-1.214 0-2.182-.642-2.182-1.314 0-.915 0-1.401.483-2.063.484-.657 1.456-1.148 6.787-1.6.633-.467 2.392-1.834 3.396-1.834 2.907 0 6.412.034 7.759.458.139.044.237.132.304.233l2.604-1.367v1.046l-1.971 1.036c.766.438.864.496 1.482.885.566.355.489 2.748 0 3.44h.001zm-.664-2.758c-.586-.37-.659-.409-1.775-1.041l-.443-.253-.021-.399c-1.466-.365-5.367-.365-7.281-.365-.221 0-.864.199-2.655 1.533l-.144.107-.226.165-.283.024c-4.878.419-5.809.846-6.077 1.211-.298.404-.309.633-.309 1.508.077.132.515.428 1.214.428h.654l.242.574c.221.525.751.866 1.348.866.576 0 1.102-.326 1.333-.827l.252-.55h9.365l.252.55c.231.501.757.827 1.333.827.679 0 1.271-.457 1.415-1.09l.128-.564.592-.136c.366-.082.808-.253.957-.355.221-.394.293-1.751.128-2.214v-.001z"/></svg>