<svg xmlns="http://www.w3.org/2000/svg" width="100%" height="100%" viewBox="0 0 32 32"><path d="M12.884 8c3.713 0 6.965 2.255 7.619 5.289-.241-.026-.482-.044-.727-.044-3.587 0-6.42 2.67-6.42 5.961 0 .547.085 1.075.233 1.578-.233.018-.468.03-.705.03-.942 0-1.7-.192-2.644-.378l-2.639 1.32.755-2.266c-1.891-1.318-3.022-3.016-3.022-5.085 0-3.583 3.4-6.405 7.55-6.405zm-2.453 5.084c.567 0 .943-.378.943-.943 0-.567-.377-.94-.943-.94s-1.137.374-1.137.94c0 .565.571.943 1.137.943zm5.284 0c.569 0 .945-.378.945-.943 0-.567-.377-.94-.945-.94-.567 0-1.134.374-1.134.94s.568.943 1.134.943zm10.952 6.031h-.001c0 1.699-1.129 3.203-2.644 4.337l.568 1.882-2.071-1.131c-.755.189-1.514.378-2.266.378-3.593 0-6.422-2.449-6.422-5.465 0-3.011 2.83-5.465 6.422-5.465 3.393 0 6.414 2.454 6.414 5.465zm-8.496-.943c.572 0 .945-.372.945-.753 0-.375-.375-.753-.945-.753-.375 0-.755.378-.755.753 0 .381.379.753.755.753zm4.153 0c.567 0 .945-.372.945-.753 0-.375-.38-.753-.945-.753-.374 0-.75.378-.75.753 0 .381.376.753.75.753z"/></svg>