<!-- Generated by IcoMoon.io -->
<svg version="1.1" xmlns="http://www.w3.org/2000/svg" width="32" height="32" viewBox="0 0 32 32">
<title>suv-pcm</title>
<path d="M25.784 15.155c-1.905-0.834-5.043-0.97-5.206-0.974-0.005 0-0.010 0-0.015-0.005l-3.124-1.59c-0.889-0.364-1.844-0.558-2.808-0.577-0.005 0-0.015 0-0.020-0.005l-6.232-0.005c-0.422 0-0.762 0.325-0.762 0.728 0 0-1.503 1.353-2.062 1.934-0.132 0.14-0.208 0.315-0.214 0.504-0.005 0.397-0.015 1.12 0.005 1.198v0.882c0 0.34 0.234 0.64 0.574 0.742l1.803 0.538c0.015 0.005 0.025 0.015 0.030 0.029 0.32 0.838 1.153 1.445 2.144 1.445 0.98 0 1.813-0.596 2.133-1.425 0.005-0.019 0.025-0.029 0.046-0.029h8.090c0.020 0 0.041 0.015 0.046 0.029 0.325 0.829 1.153 1.425 2.133 1.425 1 0 1.844-0.621 2.153-1.474 0.005-0.015 0.015-0.024 0.031-0.029l1.615-0.514c0.31-0.097 0.523-0.378 0.523-0.795v-0.674c0.005-0.577-0.336-1.115-0.883-1.357l0.001-0.001zM25.911 17.187c0 0.073-0.015 0.112-0.020 0.121l-1.62 0.504-0.361 0.116-0.122 0.344c-0.244 0.703-1.006 1.134-1.793 0.96-0.528-0.116-0.924-0.534-1.108-1.018l-0.147-0.397h-9.234l-0.142 0.388c-0.183 0.485-0.574 0.897-1.092 1.023-0.783 0.189-1.549-0.237-1.803-0.935l-0.127-0.344-0.366-0.106-1.833-0.548c-0.025-0.005-0.036-0.024-0.036-0.049v-0.97l-0.011-0.034c-0.005-0.078-0.011-0.33 0.005-1.057 0-0.015 0.005-0.024 0.015-0.034 0.544-0.558 2.006-1.881 2.021-1.896l0.239-0.213v-0.315h6.059c0.924 0 1.824 0.175 2.672 0.519l3.26 1.658 0.172 0.005c0.031 0 3.164 0.126 4.947 0.921 0.254 0.112 0.422 0.368 0.422 0.65v0.708l0.002-0.001z"></path>
</svg>
