<svg xmlns="http://www.w3.org/2000/svg" width="100%" height="100%" viewBox="0 0 32 32"><path d="M25.283 14.74c-.564-.556-1.27-.819-2.103-.772l-2.271.241h-1.621l-4.714-4.876-.538.556 4.958 5.123.015-.021.005.005c2.037 0 1.773-.005 1.935-.005l2.291-.241c.605-.031 1.108.147 1.514.556 1.153 1.139 1.127 3.585 1.149 3.622 0 .095-.01 2.503-1.149 3.627-.411.404-.914.588-1.534.551l-2.23-.236c-.117 0-3.068-.005-4.206-.005-1.596 0-4.475 0-4.664.005-.254.005-.783.084-1.341.163-.533.073-1.133.163-1.418.173-.315.01-.503-.105-.65-.2-.081-.053-.158-.1-.249-.121l-.091-.01c-.538 0-.971-.184-1.321-.557-1.016-1.082-.96-3.349-.966-3.369v-.026c0-.026-.051-2.288.966-3.369.35-.373.783-.556 1.321-.556l.091-.01c.091-.026.167-.074.249-.121.147-.095.335-.21.65-.2.28.01.884.095 1.418.173.559.079 1.088.158 1.341.163.188.005 3.068.005 4.664.005v-.788c-1.585 0-4.461 0-4.644-.005-.213-.005-.741-.079-1.255-.152-.58-.084-1.174-.168-1.488-.179-.549-.021-.894.2-1.077.315-.681.016-1.31.284-1.809.814-1.107 1.181-1.179 3.307-1.179 3.826v.194c0 .509.066 2.65 1.179 3.837.478.509 1.082.777 1.793.793.214.147.554.357 1.092.336.32-.01.914-.095 1.488-.178.513-.073 1.041-.152 1.255-.152.183-.005 3.059-.005 4.644-.005 1.438 0 4.141.005 4.166.005l2.21.236c.849.047 1.56-.215 2.124-.772 1.392-1.375 1.382-4.089 1.382-4.194.005-.105.005-2.829-1.382-4.199h-.002zm-8.906 6.707l2.032.236c.127.016.249-.073.274-.205l.071-.336c.3-1.46.3-2.97 0-4.43l-.071-.331c-.025-.131-.147-.22-.274-.205l-2.027.247.066.546c.163 1.302.163 2.619 0 3.921l-.071.557zM9.93 16.414l-.919-.241c-.127-.016-.249.074-.275.205l-.066.336c-.3 1.46-.3 2.97 0 4.43l.066.331c.025.131.147.22.275.205l.914-.242-.066-.546c-.163-1.302-.163-2.619 0-3.921l.072-.556-.001-.001z"/></svg>