<svg xmlns="http://www.w3.org/2000/svg" width="100%" height="100%" viewBox="0 0 32 32"><path d="M8 16c0 2.214.78 4.1 2.34 5.66S13.787 24 16 24c2.214 0 4.1-.78 5.66-2.34S24 18.213 24 16c0-2.214-.78-4.1-2.34-5.66S18.213 8 16 8c-2.214 0-4.1.78-5.66 2.34S8 13.787 8 16zm2 .96h1.52v-1.92H10c.213-1.28.787-2.387 1.72-3.32s2.04-1.507 3.32-1.72v1.52h1.92V10c1.28.213 2.387.787 3.32 1.72s1.507 2.04 1.72 3.32h-1.52v1.92H22c-.213 1.28-.787 2.387-1.72 3.32s-2.04 1.507-3.32 1.72v-1.52h-1.92V22c-1.28-.213-2.387-.787-3.32-1.72s-1.507-2.04-1.72-3.32z"/></svg>