<svg xmlns="http://www.w3.org/2000/svg" width="100%" height="100%" viewBox="0 0 32 32"><path d="M16.013 20.42l-.001-.001h.008c1.766 0 3.375.699 4.588 1.843.073.069.119.169.119.281 0 .105-.04.2-.106.268l-1.025 1.077c-.065.069-.155.112-.255.112-.089 0-.172-.034-.228-.086-.83-.758-1.913-1.216-3.098-1.216s-2.269.458-3.092 1.21c-.063.057-.145.091-.234.091-.1 0-.19-.042-.255-.112l-1.025-1.077c-.066-.069-.107-.164-.107-.269 0-.111.046-.21.112-.274 1.218-1.148 2.828-1.847 4.594-1.847h.008zm-7.668-1.784h.001c-.064-.069-.105-.163-.105-.268 0-.109.043-.207.107-.271 2.005-1.975 4.701-3.183 7.666-3.183s5.662 1.21 7.661 3.178c.07.069.114.168.114.277 0 .105-.04.201-.106.269l-1.023 1.075c-.065.069-.156.111-.255.111-.095 0-.182-.039-.241-.096-1.614-1.573-3.775-2.533-6.15-2.533s-4.536.961-6.144 2.528c-.065.064-.151.102-.247.102-.099 0-.19-.042-.255-.111l-1.023-1.077zm-2.908-4.337c-.064-.067-.103-.16-.103-.262 0-.104.042-.199.102-.26C8.184 11.023 11.904 9.333 16 9.333s7.816 1.69 10.558 4.437c.067.068.109.162.109.268 0 .102-.039.194-.102.261l-.997 1.047c-.064.066-.151.108-.248.108-.093 0-.178-.038-.235-.095-2.365-2.364-5.564-3.814-9.085-3.814s-6.719 1.45-9.079 3.808c-.063.063-.147.101-.241.101-.097 0-.184-.041-.248-.108l-.997-1.047z"/></svg>