<svg xmlns="http://www.w3.org/2000/svg" width="100%" height="100%" viewBox="0 0 32 32"><path d="M12.903 20.811c.899 0 1.635.717 1.635 1.595s-.736 1.595-1.634 1.595c-.899 0-1.626-.717-1.626-1.595s.728-1.595 1.626-1.595zm.139-2.592h.001c.004.11.094.199.204.199H22.711v1.535h-9.808c-.899 0-1.562-.658-1.562-1.535 0-.279.052-.614.183-.837l1.053-1.88-2.942-5.793H8V8.001h2.672l1.767 3.256H24l-2.685 4.754c-.286.487-.809.814-1.408.814h-6.106l-.735 1.299-.025.096zm8.033 2.592v.001c.899 0 1.634.717 1.634 1.594S21.974 24 21.075 24c-.899 0-1.626-.717-1.626-1.594s.728-1.595 1.626-1.595z"/></svg>