<svg xmlns="http://www.w3.org/2000/svg" width="100%" height="100%" viewBox="0 0 32 32"><path d="M8.745 14.112h5.926c.906 0 1.788.173 2.625.515l3.197 1.646.169.005c.03 0 3.103.125 4.85.915.249.111.408.366.408.645v.703c0 .072-.015.111-.02.12l-1.589.501-.354.116-.119.342c-.204.592-.772.992-1.409.992-.628 0-1.19-.39-1.404-.963l-.174-.481h-9.048l-.175.481c-.214.578-.777.963-1.404.963s-1.195-.39-1.405-.972l-.124-.342-.359-.105-1.833-.554v-1.641h-.747v1.641c0 .318.214.597.523.689l1.833.554c.304.847 1.131 1.453 2.107 1.453s1.797-.607 2.107-1.444h7.998c.308.837 1.131 1.444 2.107 1.444.991 0 1.823-.626 2.116-1.483l1.609-.52c.304-.096.513-.376.513-.789v-.703c0-.554-.323-1.064-.841-1.3-1.912-.862-5.139-.982-5.139-.982l-3.072-1.583c-.931-.385-1.932-.582-2.943-.582H8.733c-.11 0-.224.039-.334.096l-.498.481-2.037-1.968-.528.51 2.142 2.07.309.323h.458v-.313l.503-.477v-.002z"/></svg>