<svg xmlns="http://www.w3.org/2000/svg" width="100%" height="100%" viewBox="0 0 32 32"><path d="M8 12.475v8.804c0 .765.602 1.387 1.342 1.387h13.317c.74 0 1.342-.621 1.342-1.387v-8.804h-16zm14.797 8.804c0 .095-.064.174-.138.174H9.342c-.074 0-.138-.08-.138-.174v-7.591h13.593v7.591zM13.273 10.72c0-.095.064-.174.138-.174h5.179c.074 0 .138.08.138.174v.8h1.203v-.8c0-.766-.601-1.387-1.342-1.387H13.41c-.74 0-1.342.621-1.342 1.387v.8h1.203v-.8zM16 19.484c.844 0 1.563-.462 1.844-1.114h4.044v-1.213h-5.12v.606c0 .239-.316.507-.769.507s-.769-.268-.769-.507v-.606h-5.12v1.213h4.044c.281.651 1.001 1.114 1.845 1.114H16z"/></svg>