<!-- Generated by IcoMoon.io -->
<svg version="1.1" xmlns="http://www.w3.org/2000/svg" width="32" height="32" viewBox="0 0 32 32">
<title>untitled15</title>
<path d="M3.969 15.938q0 2.5 0.938 4.719t2.578 3.875 3.828 2.625q2.156 0.969 4.656 0.969 2.469 0 4.656-0.969t3.828-2.625 2.578-3.875 0.938-4.719q0-2.531-0.938-4.75t-2.578-3.875-3.828-2.625q-2.156-0.938-4.656-0.938-2.469 0-4.656 0.938-2.188 0.969-3.828 2.625t-2.578 3.875-0.938 4.75zM5.094 16.469h4.344q0.031 1.469 0.219 2.719t0.5 2.281h-3.625q-0.625-1.125-1-2.375t-0.438-2.625zM5.094 15.375q0.063-1.375 0.438-2.625t1-2.375h3.656q-0.313 1.031-0.516 2.281t-0.234 2.719h-4.344zM7.25 22.563h3.313q0.594 1.5 1.375 2.5t1.5 1.625q-1.875-0.469-3.453-1.531t-2.734-2.594zM7.25 9.281q1.156-1.531 2.734-2.594t3.453-1.531q-0.719 0.625-1.5 1.625t-1.375 2.5h-3.313zM10.531 16.469h4.906v5h-4.094q-0.344-1-0.563-2.25t-0.25-2.75zM10.531 15.375q0.031-1.5 0.25-2.75t0.531-2.25h4.125v5h-4.906zM11.75 9.281q0.844-1.875 1.922-2.828t1.766-1.328v4.156h-3.688zM11.781 22.563h3.656v4.156q-0.688-0.375-1.75-1.328t-1.906-2.828zM16.5 26.719v-4.156h3.688q-0.844 1.875-1.922 2.828t-1.766 1.328zM16.5 21.469v-5h4.906q-0.031 1.5-0.25 2.75t-0.531 2.25h-4.125zM16.5 15.375v-5h4.094q0.344 1 0.563 2.234t0.25 2.766h-4.906zM16.5 9.281v-4.156q0.688 0.375 1.75 1.328t1.906 2.828h-3.656zM18.5 26.688q0.719-0.625 1.5-1.625t1.375-2.5h3.313q-1.156 1.531-2.734 2.594t-3.453 1.531zM18.5 5.156q1.875 0.469 3.453 1.531t2.734 2.594h-3.313q-0.594-1.5-1.375-2.5t-1.5-1.625zM21.75 21.469q0.313-1.031 0.516-2.281t0.234-2.719h4.344q-0.063 1.375-0.438 2.625t-1 2.375h-3.656zM21.781 10.375h3.625q0.625 1.125 1 2.375t0.438 2.625h-4.344q-0.031-1.469-0.219-2.719t-0.5-2.281z"></path>
</svg>
