<!-- Generated by IcoMoon.io -->
<svg version="1.1" xmlns="http://www.w3.org/2000/svg" width="32" height="32" viewBox="0 0 32 32">
<title>sport-pcm</title>
<path d="M21.841 19.999c-0.764 0-1.48-0.339-1.95-0.911l-0.423 0.005h-7.595c-0.471 0.572-1.187 0.906-1.945 0.906-0.941 0-1.788-0.506-2.216-1.306l-1.726-0.308-0.089-0.101c-0.319-0.355-0.497-0.724-0.539-1.133-0.021-0.223-0.026-0.652-0.026-0.703 0-0.288 0.198-0.683 0.585-1.164 0.125-0.157 0.554-0.668 0.836-0.774 0.319-0.117 0.638-0.238 0.957-0.359 2.807-1.057 5.708-2.15 8.29-2.15 0.909 0 2.133 0.703 3.434 1.442 0.219 0.126 0.439 0.253 0.659 0.375 2.149 0.207 3.827 0.648 4.987 1.306 1.118 0.637 1.464 1.32 1.568 1.67l0.016 0.051v0.056c0 0.733-0.225 1.356-0.596 1.659-0.162 0.132-0.408 0.294-0.637 0.313-0.434 0.036-1.239 0.106-1.6 0.137-0.46 0.627-1.197 0.992-1.991 0.992l-0.001-0.001zM20.299 18.324l0.12 0.172c0.319 0.465 0.852 0.744 1.427 0.744 0.59 0 1.134-0.294 1.448-0.784l0.105-0.162 0.193-0.015c0.010 0 1.187-0.106 1.767-0.152 0.037-0.015 0.125-0.066 0.214-0.142 0.151-0.121 0.304-0.511 0.314-1.017-0.157-0.414-1.061-1.943-5.949-2.393l-0.084-0.010-0.073-0.040c-0.246-0.137-0.497-0.278-0.742-0.42-1.098-0.627-2.342-1.34-3.037-1.34-2.436 0-5.269 1.068-8.009 2.1-0.314 0.121-0.632 0.238-0.941 0.355-0.24 0.157-0.925 0.992-0.936 1.234 0 0.121 0.005 0.465 0.021 0.622 0.021 0.212 0.11 0.41 0.267 0.607l1.861 0.329 0.084 0.193c0.267 0.622 0.883 1.027 1.578 1.027 0.57 0 1.103-0.273 1.422-0.733l0.115-0.167 8.835-0.006z"></path>
</svg>
