<!-- Generated by IcoMoon.io -->
<svg version="1.1" xmlns="http://www.w3.org/2000/svg" width="32" height="32" viewBox="0 0 32 32">
<title>car-next</title>
<path d="M25.212 15.779c-0.934-0.428-2.781-0.699-5.096-0.891-0.384-0.276-1.522-0.971-3.156-1.332-0.958-0.214-2.422-0.223-2.995-0.223h-0.16c-1.697 0-3.885 0.445-4.61 0.668-1.031 0.316-2.913 0.891-3.399 1.554-0.244 0.334-0.394 1.292-0.462 1.982-0.024 0.24 0.462 0.904 0.948 1.127l1.483 0.196c0.384 0.673 1.148 1.14 2.038 1.14 0.778 0 1.463-0.348 1.882-0.891h9.316c0.413 0.556 1.113 0.891 1.901 0.891 0.895 0 1.663-0.472 2.047-1.154 1.046-0.205 1.474-0.401 1.474-0.401s0.244-0.668 0.244-1.554c0-0.223-0.968-0.891-1.454-1.114l-0.001 0.001zM25.605 17.774c-0.204 0.058-0.486 0.129-0.86 0.205l-0.447 0.089-0.209 0.374c-0.233 0.414-0.685 0.673-1.182 0.673-0.462 0-0.866-0.182-1.104-0.503l-0.287-0.388h-10.337l-0.292 0.378c-0.253 0.325-0.646 0.512-1.089 0.512-0.491 0-0.944-0.254-1.177-0.663l-0.229-0.405-0.491-0.062-1.274-0.165c-0.112-0.089-0.244-0.236-0.311-0.348 0.087-0.784 0.224-1.305 0.296-1.434 0.131-0.178 0.749-0.539 2.889-1.194 0.598-0.182 2.689-0.623 4.303-0.623h0.16c1.551 0 2.358 0.107 2.767 0.196 1.624 0.361 2.669 1.087 2.786 1.171l0.224 0.16 0.287 0.022c2.436 0.2 4.036 0.472 4.75 0.797 0.258 0.12 0.685 0.401 0.909 0.588-0.015 0.245-0.049 0.454-0.082 0.619l0.001-0.001z"></path>
</svg>
