<!-- Generated by IcoMoon.io -->
<svg version="1.1" xmlns="http://www.w3.org/2000/svg" width="32" height="32" viewBox="0 0 32 32">
<title>igoogle</title>
<path d="M23.999 18.54l-0.401 0.395c-0.109 0.095-0.124 0.127-0.154 0.252-0.015 0.143-0.031 0.602-0.031 0.76v1.929l-2.21 0.521c-0.896 0.143-1.7 0.269-2.55 0.269-4.265 0-5.888-3.21-5.888-5.724 0-3.068 2.302-5.914 6.244-5.914 0.834 0 1.638 0.127 2.364 0.332 1.159 0.332 1.7 0.743 2.040 0.981l-1.282 1.249-0.541 0.127 0.386-0.633c-0.525-0.522-1.484-1.486-3.307-1.486-2.442 0-4.281 1.898-4.281 4.665 0 2.973 2.102 5.771 5.471 5.771 0.989 0 1.499-0.205 1.963-0.395v-2.546l-2.333 0.127 1.236-0.68h3.276zM11.505 12.356c-0.248 0.727-0.865 1.168-1.377 0.984s-0.725-0.921-0.477-1.648c0.248-0.727 0.865-1.168 1.377-0.984s0.725 0.921 0.477 1.648zM9.697 20.534c0 0-0.23 1.066 0.25 1.17 0.393 0.086 0.741-0.17 0.97-0.384 0.191-0.178 0.546-0.549 0.546-0.549l0.31 0.002c-0.522 0.502-1.294 1.813-2.573 1.658-1.574-0.191-1.148-1.671-1.148-1.671l1.042-4.634c0 0 0.026-0.564-0.516-0.699-0.388-0.097-0.493-0.121-0.493-0.121v-0.266c0 0 0.924-0.051 2.352-0.308l0.5-0.002-1.24 5.804z"></path>
</svg>
