<!-- Generated by IcoMoon.io -->
<svg version="1.1" xmlns="http://www.w3.org/2000/svg" width="32" height="32" viewBox="0 0 32 32">
<title>configurator</title>
<path d="M5.333 19.569c0.071 0.61 0.249 1.273 0.533 1.989 0.391-0.036 0.8-0.090 1.227-0.162 0.178 0.358 0.285 0.556 0.32 0.592l0.374 0.592c-0.249 0.287-0.498 0.609-0.747 0.968 0.427 0.538 0.924 1.022 1.493 1.452l0.96-0.753 0.587 0.377c0.036 0.036 0.231 0.144 0.587 0.323-0.071 0.43-0.107 0.824-0.107 1.183 0.711 0.287 1.386 0.466 2.026 0.538 0.178-0.394 0.338-0.771 0.48-1.129l0.694 0.054 0.64-0.054c0.142 0.358 0.302 0.735 0.48 1.129 0.64-0.072 1.333-0.251 2.080-0.538-0.036-0.358-0.089-0.753-0.16-1.183 0.355-0.179 0.551-0.287 0.587-0.323l0.587-0.377 0.96 0.753c0.569-0.43 1.066-0.914 1.493-1.452-0.213-0.358-0.462-0.681-0.747-0.968 0.036-0.072 0.080-0.134 0.133-0.188s0.097-0.117 0.133-0.188c0.036-0.072 0.071-0.134 0.107-0.188s0.142-0.26 0.32-0.618c0.427 0.072 0.835 0.126 1.227 0.162 0.284-0.717 0.462-1.38 0.533-1.989-0.391-0.179-0.765-0.341-1.12-0.484l0.054-0.645-0.054-0.645c0.32-0.143 0.676-0.287 1.066-0.43 0.355-0.072 0.764-0.197 1.227-0.377-0.036-0.215-0.071-0.466-0.107-0.753 0.249-0.108 0.374-0.179 0.374-0.215l0.16-0.081c0 0 0.071-0.045 0.213-0.134 0.213 0.143 0.427 0.305 0.64 0.484 0.355-0.287 0.675-0.609 0.96-0.968-0.142-0.215-0.302-0.43-0.48-0.645 0.036 0 0.071-0.027 0.107-0.081s0.062-0.108 0.080-0.162c0.018-0.054 0.036-0.090 0.054-0.107s0.098-0.134 0.24-0.349c0.249 0.036 0.498 0.054 0.747 0.054 0.213-0.466 0.338-0.896 0.374-1.29-0.249-0.108-0.498-0.198-0.747-0.269l0.054-0.43-0.054-0.43 0.747-0.323c-0.036-0.394-0.16-0.825-0.374-1.29-0.249 0-0.498 0.036-0.747 0.107-0.142-0.251-0.213-0.394-0.213-0.43l-0.107-0.134c0 0-0.053-0.063-0.16-0.188 0.178-0.215 0.338-0.43 0.48-0.645-0.284-0.358-0.604-0.681-0.96-0.968-0.213 0.179-0.427 0.341-0.64 0.484-0.036-0.036-0.071-0.063-0.107-0.081s-0.080-0.045-0.133-0.081c-0.053-0.036-0.098-0.063-0.133-0.081l-0.374-0.188c0.036-0.287 0.071-0.538 0.107-0.753-0.498-0.179-0.942-0.305-1.333-0.377-0.142 0.251-0.249 0.502-0.32 0.753l-0.427-0.054-0.48 0.054c-0.071-0.251-0.178-0.502-0.32-0.753-0.391 0.072-0.818 0.197-1.28 0.377 0 0.215 0.018 0.466 0.054 0.753-0.213 0.108-0.338 0.179-0.374 0.215l-0.16 0.081c-0.107 0.054-0.178 0.099-0.213 0.134-0.213-0.143-0.427-0.305-0.64-0.484-0.355 0.287-0.675 0.609-0.96 0.968 0.142 0.215 0.302 0.43 0.48 0.645l-0.267 0.323c0 0.036-0.053 0.179-0.16 0.43-0.284-0.072-0.551-0.107-0.8-0.107-0.071 0.143-0.125 0.287-0.16 0.43-0.355-0.108-0.711-0.179-1.066-0.215-0.178 0.394-0.338 0.771-0.48 1.129l-0.64-0.054-0.694 0.054c-0.142-0.358-0.302-0.735-0.48-1.129-0.64 0.072-1.315 0.251-2.026 0.538 0 0.358 0.036 0.753 0.107 1.183-0.355 0.179-0.551 0.287-0.587 0.323l-0.24 0.134c0 0-0.115 0.081-0.346 0.242l-0.96-0.753c-0.569 0.43-1.066 0.914-1.493 1.452 0.213 0.358 0.462 0.681 0.747 0.968l-0.374 0.592c-0.036 0.036-0.142 0.233-0.32 0.592-0.427-0.072-0.835-0.126-1.227-0.162-0.284 0.717-0.462 1.38-0.533 1.989 0.391 0.179 0.765 0.341 1.12 0.484l-0.054 0.645 0.054 0.645c-0.355 0.143-0.729 0.305-1.12 0.484v0zM9.599 18.441c0.036-0.753 0.231-1.416 0.587-1.989 0.355-0.645 0.853-1.147 1.493-1.505 0.569-0.323 1.262-0.502 2.080-0.538 0.782 0.036 1.457 0.215 2.026 0.538 0.64 0.358 1.137 0.86 1.493 1.505 0.355 0.573 0.551 1.236 0.587 1.989-0.036 0.753-0.231 1.416-0.587 1.989-0.355 0.645-0.853 1.147-1.493 1.505-0.569 0.323-1.244 0.502-2.026 0.538-0.818-0.036-1.511-0.215-2.080-0.538-0.64-0.358-1.137-0.86-1.493-1.505s-0.551-1.308-0.587-1.989zM18.504 12.206v-0.162c0.036-0.502 0.16-0.95 0.374-1.344 0.249-0.394 0.587-0.717 1.014-0.968 0.355-0.215 0.8-0.323 1.333-0.323 0.498 0 0.942 0.107 1.333 0.323 0.391 0.251 0.711 0.574 0.96 0.968 0.213 0.394 0.338 0.843 0.374 1.344-0.036 0.466-0.16 0.896-0.374 1.29-0.249 0.394-0.569 0.717-0.96 0.968-0.391 0.215-0.836 0.323-1.333 0.323-0.534 0-0.978-0.107-1.333-0.323-0.036-0.036-0.071-0.054-0.107-0.054 0.213-0.287 0.427-0.591 0.64-0.914-0.427-0.538-0.924-1.022-1.493-1.452-0.107 0.108-0.249 0.215-0.427 0.323l-0.001 0.002z"></path>
</svg>
