<svg xmlns="http://www.w3.org/2000/svg" width="100%" height="100%" viewBox="0 0 32 32"><path d="M10.222 10.303h-.889l1.778-3.636 1.778 3.636H12c0 1.091.226 2.001.403 3 .226 1.042.485 2.091.485 3.364 0 1.322-.226 2.364-.485 3.406-.178 1-.403 1.909-.403 2.958h-1.778c0-1.273.226-2.315.445-3.364.226-1 .445-1.909.445-3s-.226-2.001-.403-3c-.266-1-.485-2.042-.485-3.364v.001zm10.666-3.636l-1.778 3.636h.889c0 1.042.13 1.909.308 2.728h1.825c-.178-.86-.356-1.727-.356-2.728h.889l-1.778-3.636h-.001zM8 26.667h16v-1.818H8v1.818zm8.889-16.364h.889L16 6.667l-1.778 3.636h.889c0 1.042.13 1.909.308 2.728h1.825c-.178-.86-.356-1.727-.356-2.728h-.001zM24 17.345c0 .679-.445 1.139-.889 1.139s-1.114-.231-1.778-.231c-.403 0-.711.091-.889.133v.091c0 .091 0 .133-.047.231.8.049 2.715.364 2.715 2.049 0 1.818-1.778 2.273-2.441 2.273s-1.114-.455-1.114-.91.226-1.139.226-1.818c0-.412-.089-.727-.13-.91h-.089c-.089 0-.13 0-.226-.049-.047.86-.356 2.776-2.003 2.776-1.778 0-2.222-1.818-2.222-2.497s.445-1.139.889-1.139c.445 0 1.114.231 1.778.231.403 0 .711-.091.889-.133v-.091c0-.091 0-.133.047-.231-.841-.049-2.715-.364-2.715-2.049 0-1.818 1.778-2.273 2.441-2.273s1.114.455 1.114.91-.226 1.139-.226 1.818c0 .412.089.727.13.91h.089c.089 0 .13 0 .226.049.047-.818.356-2.776 2.003-2.776 1.778 0 2.222 1.818 2.222 2.497zm-4.445 1.454c.178 0 .308-.133.308-.315s-.13-.315-.308-.315-.308.133-.308.315.13.315.308.315z"/></svg>