<!-- Generated by IcoMoon.io -->
<svg version="1.1" xmlns="http://www.w3.org/2000/svg" width="32" height="32" viewBox="0 0 32 32">
<title>suv-hood-pcm</title>
<path d="M25.809 16.127c-0.634-0.303-1.401-0.521-2.157-0.678-0.234-0.047-0.553-0.114-0.776-0.151v0.792c0.228 0.037 0.543 0.104 0.776 0.157 0.655 0.141 1.304 0.334 1.837 0.589 0.254 0.12 0.422 0.396 0.422 0.698v0.762c0 0.078-0.015 0.12-0.020 0.13l-1.62 0.542-0.361 0.125-0.122 0.37c-0.208 0.641-0.787 1.074-1.437 1.074-0.64 0-1.213-0.422-1.426-1.043l-0.183-0.521h-9.234l-0.183 0.521c-0.219 0.626-0.792 1.043-1.431 1.043s-1.218-0.422-1.432-1.053l-0.127-0.37-0.365-0.12-1.868-0.6v-1.116c-0.005-0.083-0.011-0.36 0.005-1.157 0.533-0.589 2.020-2.039 2.035-2.049l0.239-0.229v-0.339h6.056c0.923 0 1.823 0.188 2.675 0.558l3.259 1.783 0.223-0.021v0.005l5.132-3.159-0.391-0.672-4.878 3.008-3.015-1.647c-0.949-0.417-1.97-0.631-3-0.631h-6.066c-0.422 0-0.762 0.35-0.762 0.782 0 0-1.518 1.47-2.071 2.090-0.127 0.141-0.198 0.323-0.203 0.516-0.005 0.422-0.015 1.22 0.005 1.304v0.991c0 0.345 0.218 0.646 0.533 0.746l1.868 0.6c0.309 0.913 1.153 1.574 2.147 1.574s1.832-0.657 2.148-1.564h8.158c0.314 0.907 1.153 1.564 2.148 1.564 1.010 0 1.858-0.678 2.157-1.606l1.64-0.558c0.309-0.104 0.523-0.407 0.523-0.855v-0.762c0-0.616-0.33-1.173-0.858-1.423v-0.003z"></path>
</svg>
