<svg xmlns="http://www.w3.org/2000/svg" width="100%" height="100%" viewBox="0 0 32 32"><path d="M25.885 15.275c-1.091-.918-2.582-2.056-4.393-2.932l3.199-3.186L23.534 8l-3.674 3.659c-1.141-.416-2.46-.671-3.833-.702h-.038c-4.356.084-7.822 2.591-9.874 4.319-.095.084-.771.616-.781 1.298-.009.483.212.834.517 1.134.951.947 2.536 2.321 4.605 3.326l-3.158 3.139 1.155 1.162 3.641-3.626c1.159.417 2.497.662 3.891.67h.027c4.798-.019 8.458-2.998 10.137-4.675.31-.3.526-.651.517-1.134-.008-.675-.676-1.209-.78-1.293h-.002zm-14.144 1.391c0-2.432 1.905-4.408 4.262-4.422.926.005 1.779.312 2.466.827l-1.993 1.96c-.138-.048-.298-.077-.464-.08h-.03c-.904.024-1.623.783-1.623 1.719v.021c0 .142.019.28.055.411l-1.992 1.966c-.427-.677-.68-1.5-.68-2.382v-.022.001zM16 21.088c-.929-.006-1.784-.314-2.473-.831l1.987-1.96c.142.049.304.08.473.084h.03c.908-.019 1.623-.782 1.623-1.719v-.03c0-.143-.021-.281-.059-.411l1.986-1.968c.431.681.686 1.51.686 2.398v.01c.006 2.435-1.894 4.412-4.253 4.427z"/></svg>