<svg xmlns="http://www.w3.org/2000/svg" width="100%" height="100%" viewBox="0 0 32 32"><path d="M9.895 10.957v-.002c-.31 0-.562-.261-.562-.582s.252-.582.562-.582h9.587c.252-1.029 1.151-1.792 2.225-1.792C22.975 7.999 24 9.06 24 10.374s-1.026 2.375-2.293 2.375c-1.074 0-1.973-.763-2.225-1.792H9.895zm11.812 8.295v-.002c1.268 0 2.293 1.061 2.293 2.375S22.974 24 21.707 24c-1.074 0-1.973-.763-2.225-1.792H9.895c-.31 0-.562-.261-.562-.582s.252-.582.562-.582h9.587c.252-1.029 1.151-1.792 2.225-1.792zm-7.767-3.249c0 1.311-1.026 2.375-2.293 2.375s-2.293-1.063-2.293-2.375c0-1.311 1.026-2.375 2.293-2.375s2.293 1.063 2.293 2.375zm1.443 0c0 .257-.201.466-.449.466s-.449-.209-.449-.466.201-.466.449-.466.449.209.449.466zm1.425 0c0 .257-.201.466-.449.466s-.449-.209-.449-.466.201-.466.449-.466.449.209.449.466zm1.425 0c0 .257-.201.466-.449.466s-.449-.209-.449-.466.201-.466.449-.466.449.209.449.466zm1.429 0c0 .257-.201.466-.449.466s-.449-.209-.449-.466.201-.466.449-.466.449.209.449.466zm1.425 0c0 .257-.201.466-.449.466s-.449-.209-.449-.466.201-.466.449-.466.449.209.449.466zm1.425 0c0 .257-.201.466-.449.466s-.449-.209-.449-.466.201-.466.449-.466.449.209.449.466z"/></svg>