<!-- Generated by IcoMoon.io -->
<svg version="1.1" xmlns="http://www.w3.org/2000/svg" width="32" height="32" viewBox="0 0 32 32">
<title>send</title>
<path d="M16.013 20.42l-0.001-0.001c0.002 0 0.005 0 0.008 0 1.766 0 3.375 0.699 4.588 1.843 0.073 0.069 0.119 0.169 0.119 0.281 0 0.105-0.040 0.2-0.106 0.268l-1.025 1.077c-0.065 0.069-0.155 0.112-0.255 0.112-0.089 0-0.172-0.034-0.228-0.086-0.83-0.758-1.913-1.216-3.098-1.216s-2.269 0.458-3.092 1.21c-0.063 0.057-0.145 0.091-0.234 0.091-0.1 0-0.19-0.042-0.255-0.112l-1.025-1.077c-0.066-0.069-0.107-0.164-0.107-0.269 0-0.111 0.046-0.21 0.112-0.274 1.218-1.148 2.828-1.847 4.594-1.847 0.002 0 0.005 0 0.008 0zM8.345 18.636h0.001c-0.064-0.069-0.105-0.163-0.105-0.268 0-0.109 0.043-0.207 0.107-0.271 2.005-1.975 4.701-3.183 7.666-3.183s5.662 1.21 7.661 3.178c0.070 0.069 0.114 0.168 0.114 0.277 0 0.105-0.040 0.201-0.106 0.269l-1.023 1.075c-0.065 0.069-0.156 0.111-0.255 0.111-0.095 0-0.182-0.039-0.241-0.096-1.614-1.573-3.775-2.533-6.15-2.533s-4.536 0.961-6.144 2.528c-0.065 0.064-0.151 0.102-0.247 0.102-0.099 0-0.19-0.042-0.255-0.111l-1.023-1.077zM5.437 14.299c-0.064-0.067-0.103-0.16-0.103-0.262 0-0.104 0.042-0.199 0.102-0.26 2.748-2.754 6.468-4.444 10.564-4.444s7.816 1.69 10.558 4.437c0.067 0.068 0.109 0.162 0.109 0.268 0 0.102-0.039 0.194-0.102 0.261l-0.997 1.047c-0.064 0.066-0.151 0.108-0.248 0.108-0.093 0-0.178-0.038-0.235-0.095-2.365-2.364-5.564-3.814-9.085-3.814s-6.719 1.45-9.079 3.808c-0.063 0.063-0.147 0.101-0.241 0.101-0.097 0-0.184-0.041-0.248-0.108l-0.997-1.047z"></path>
</svg>
