<!-- Generated by IcoMoon.io -->
<svg version="1.1" xmlns="http://www.w3.org/2000/svg" width="32" height="32" viewBox="0 0 32 32">
<title>car</title>
<path d="M7.827 15.008c-0.043-0.008-0.023-0.024-0.072-0.010s-0.115 0.057-0.134 0.009l-0.329 0.039c-0.096 0.012-0.085 0.042 0.053 0.108l-0.496 0.056c-0.1 0.012-0.096 0.053 0.074 0.129l-0.031 0.011c-0.104 0.052-0.237 0.109-0.373 0.16-0.145 0.064-0.281 0.098-0.424 0.102-0.13 0.038-0.122 0.132-0.059 0.191-0.259 0.192-0.547 0.469-0.646 0.786-0.039 0.127-0.008 0.276 0.005 0.412 0.008 0.082 0.018 0.19 0.021 0.229 0.008 0.081 0.012 0.174 0.012 0.269 0 0.047-0.001 0.094-0.003 0.14-0.008-0.005-0.015-0.004-0.022-0.003-0.012 0.005-0.022 0.017-0.024 0.032-0.003 0.012-0.004 0.025-0.004 0.039s0.001 0.027 0.004 0.040c0.005 0.018 0.016 0.036 0.029 0.040h0.003c-0.017 0.122-0.042 0.23-0.076 0.335 0.003-0.012 0.003-0.009 0.003-0.006 0 0.009 0.003 0.017 0.008 0.023-0.003 0 0.009 0.013 0.009 0.013 0.008 0.009 0.016 0.019 0.023 0.030-0.005 0.001-0.009 0.001-0.013 0.003-0.026 0.011-0.036 0.041-0.031 0.077v0c0 0 0 0.004 0 0.006s0 0.009 0.003 0.014c0.020 0.096 0.047 0.181 0.081 0.261 0.029 0.077 0.046 0.125 0.091 0.158 0.018 0.042 0.035 0.067 0.050 0.065l0.145-0.006c0.018 0.001 0.040 0.001 0.062 0.001 0.048 0 0.095-0.003 0.141-0.009 0.034 0.024 0.082 0.041 0.132 0.048 0.013 0.005 0.027 0.007 0.040 0.007 0.001 0 0.001 0 0.001 0l0.091 0.013c0.003 0.001 0.007 0.001 0.010 0.001s0.008 0 0.011-0.001c0.005 0.002 0.006 0 0.006 0 0.023-0.008 0.048-0.013 0.074-0.014 0.519 0.048 1.215 0.234 1.72 0.279 0.021 0.002 0.612 0.127 0.612 0.127 0.146 0.246 0.348 0.447 0.59 0.591 0.248 0.142 0.547 0.194 0.839 0.194 0.219 0 0.444-0.018 0.637-0.098 0.159-0.067 0.297-0.148 0.42-0.244l0.642 0.119c0.004-0.037 0.033-0.366 0.053-0.597h0.019c0.059 0 0.031 0.273 0.051 0.273h0.201c0.032 0 0.033-0.055 0.057-0.079 0.171-0.173 0.44-0.202 0.872-0.237l7.429 0.082 0.401 0.051c0.145 0.225 0.339 0.409 0.568 0.541 0.248 0.139 0.547 0.19 0.839 0.19 0.219 0 0.444-0.017 0.637-0.096 0.197-0.080 0.366-0.183 0.514-0.311l0.425 0.056 0.306 0.087c0.004-0.047 0.006-0.106 0.008-0.172 0.008-0.042 0.017-0.071 0.024-0.071 0.038 0.002 0.082 0.003 0.127 0.003 0.156 0 0.308-0.015 0.455-0.044 0.059-0.012 0.135-0.056 0.214-0.083 0.135-0.047 0.32-0.124 0.445-0.133 0.077-0.002 0.151-0.010 0.223-0.022l-0.009 0.001h0.005c0.083-0.015 0.144-0.032 0.221-0.038 0.051-0.005 0.157 0.032 0.211 0.022 0.1-0.018 0.214-0.071 0.371-0.094 0.091-0.013 0.093-0.124 0.12-0.168 0.018-0.032 0.115-0.018 0.128-0.077 0.014-0.071 0.036-0.109-0.012-0.172-0.057-0.065-0.113-0.123-0.173-0.179 0.048-0.188 0.137-0.496 0.158-0.758 0.012-0.137 0.005-0.26-0.035-0.346-0.118-0.251-0.309-0.399-0.537-0.533h0.005l-0.013-0.005-0.066-0.038c-0.47-0.265-0.738-0.403-1.226-0.628-0.113-0.075-0.287-0.187-0.467-0.286-0.078-0.046-0.169-0.091-0.264-0.13-0.097-0.045-0.194-0.069-0.296-0.073-0.388-0.042-0.883-0.073-1.269-0.113-0.47-0.082-1.004-0.189-1.473-0.272-0.093 0.009-0.177 0.024-0.259 0.044l-0.118 0.007 0.018-0.003-0.25-0.102-0.21-0.013c-0.878-0.509-1.984-1.183-3.076-1.591l-0.066-0.057-0.021 0.015c-0.028-0.021-0.059-0.040-0.093-0.055-1.202-0.331-2.245-0.265-3.395-0.125-0.416 0.050-0.959 0.152-1.405 0.251-1.208 0.27-2.295 0.639-3.475 1.025-0.031-0.017-0.16 0-0.195-0.007-0.094 0.024-0.171 0.050-0.246 0.079-0.062 0.022 0.188 0.025 0.112 0.051l-0.070 0.024-0.013-0.019-0.512 0.007c-0.121 0-0.092 0.057 0.115 0.15l0.004-0.003z"></path>
</svg>
