<!-- Generated by IcoMoon.io -->
<svg version="1.1" xmlns="http://www.w3.org/2000/svg" width="32" height="32" viewBox="0 0 32 32">
<title>dealer</title>
<path d="M10.667 13.542c0 1.195 0.708 3.028 2.125 5.5 0.639 1.139 1.292 2.181 1.958 3.125l1.25 1.833 1.25-1.833c0.639-0.944 1.292-1.986 1.958-3.125 1.417-2.472 2.125-4.306 2.125-5.5 0-1.528-0.521-2.833-1.562-3.917s-2.298-1.625-3.77-1.625c-1.472-0-2.729 0.541-3.77 1.625s-1.562 2.389-1.562 3.916h-0.001zM12.416 13.312c0-0.986 0.347-1.833 1.042-2.542s1.542-1.063 2.542-1.063c1 0 1.847 0.354 2.542 1.063s1.042 1.556 1.042 2.542c0 0.986-0.347 1.833-1.042 2.542s-1.542 1.063-2.542 1.063c-1 0-1.847-0.354-2.542-1.063s-1.042-1.556-1.042-2.542z"></path>
</svg>
