<!-- Generated by IcoMoon.io -->
<svg version="1.1" xmlns="http://www.w3.org/2000/svg" width="32" height="32" viewBox="0 0 32 32">
<title>viber</title>
<path d="M22.768 19.579l0.001 0.001c0.675 0.533 1.53 0.976 1.127 2.096-0.417 1.162-1.87 2.339-3.113 2.324-0.175-0.043-0.52-0.095-0.831-0.229-5.454-2.3-9.417-6.072-11.666-11.492-0.758-1.815 0.029-3.348 1.933-3.977 0.34-0.114 0.675-0.119 1.010 0 0.811 0.295 2.866 3.066 2.91 3.896 0.033 0.639-0.408 0.982-0.846 1.272-0.826 0.552-0.831 1.252-0.476 2.029 0.801 1.757 2.166 2.967 3.929 3.753 0.641 0.28 1.253 0.252 1.69-0.395 0.777-1.158 1.734-1.1 2.778-0.381 0.525 0.357 1.059 0.715 1.554 1.105zM16.653 8.858v-0.001c-0.33-0.052-0.831 0.020-0.811-0.409 0.034-0.633 0.636-0.396 0.923-0.438 3.833 0.129 7.131 3.563 7.082 7.273-0.005 0.362 0.131 0.9-0.423 0.891-0.53-0.009-0.389-0.557-0.438-0.919-0.51-3.939-2.346-5.797-6.334-6.397zM17.435 9.935h0.001c2.457 0.29 4.469 2.381 4.454 4.687-0.039 0.271 0.121 0.738-0.326 0.805-0.607 0.086-0.49-0.457-0.549-0.805-0.408-2.395-1.263-3.277-3.726-3.815-0.364-0.081-0.928-0.024-0.835-0.572 0.092-0.524 0.597-0.348 0.981-0.3zM17.659 11.815v0.001c1.093-0.028 2.37 1.257 2.351 2.358 0.009 0.305-0.024 0.624-0.389 0.667-0.267 0.033-0.437-0.186-0.466-0.453-0.103-0.986-0.632-1.572-1.642-1.729-0.301-0.048-0.597-0.143-0.456-0.543 0.097-0.267 0.345-0.296 0.602-0.3z"></path>
</svg>
