<!-- Generated by IcoMoon.io -->
<svg version="1.1" xmlns="http://www.w3.org/2000/svg" width="32" height="32" viewBox="0 0 32 32">
<title>globe</title>
<path d="M8 16c0 2.222 0.785 4.111 2.354 5.667s3.458 2.333 5.667 2.333c2.208 0 4.090-0.778 5.646-2.333s2.333-3.444 2.333-5.667c0-2.25-0.75-4.146-2.25-5.687s-3.417-2.312-5.75-2.313c-2.195 0-4.077 0.778-5.646 2.333s-2.354 3.444-2.354 5.667zM9.292 13.917c0.389-0.972 0.889-1.792 1.5-2.459s1.090-1.097 1.437-1.292c0.347-0.195 0.562-0.292 0.646-0.292l0.167 0.75-0.625 0.042-0.292-0.083-0.292 0.417c-0.084 0.167-0.139 0.292-0.167 0.375l0.083 0.375c0.333 0.028 0.5-0.014 0.5-0.125l-0.083-0.209-0.042-0.25 0.083-0.021c0 0 0.132-0.028 0.396-0.083s0.493-0.049 0.687 0.021c0.333 0.028 0.549 0.16 0.646 0.396s0.174 0.368 0.229 0.396c0.084 0.084 0.111 0.16 0.083 0.229s-0.111 0.187-0.25 0.354c-0.139 0.167-0.222 0.278-0.25 0.333-0.084 0.167-0.209 0.056-0.375-0.333 0.167-0.167 0.125-0.278-0.125-0.333-0.222-0.028-0.333 0.055-0.333 0.25 0.028 0.056 0.056 0.097 0.083 0.125 0.084-0.028 0.139-0 0.167 0.083s0.028 0.181 0 0.292c-0.056 0.389-0.125 0.653-0.209 0.792-0.056 0.111-0.153 0.201-0.292 0.271s-0.264 0.104-0.375 0.104h-0.167c0.056 0.139 0.125 0.278 0.209 0.417 0.028 0.084 0.035 0.174 0.021 0.271s-0.028 0.208-0.042 0.333c-0.014 0.125-0.021 0.202-0.021 0.229 0 0.139-0.111 0.056-0.333-0.25-0.084-0.111-0.139-0.222-0.167-0.333-0.028-0.195-0.167-0.264-0.417-0.209-0.417 0.111-0.653 0.097-0.709-0.042 0-0.056-0.056-0.056-0.167 0s-0.257 0.146-0.437 0.271l-0.271 0.187c-0.167 0.111-0.181 0.194-0.042 0.25 0.056 0.028 0.125 0.028 0.209 0 0.139-0.084 0.264-0.098 0.375-0.042s0.139 0.153 0.083 0.292c-0.028 0.111-0.090 0.174-0.187 0.187s-0.139 0.048-0.125 0.104c0.013 0.056 0.076 0.146 0.187 0.271s0.181 0.229 0.209 0.313c0.056 0.167 0.375 0.097 0.959-0.209 0.139-0.056 0.306-0.090 0.5-0.104s0.333 0.049 0.417 0.187c0.028 0.195 0.403 0.389 1.125 0.583 0 0.028 0.090 0.056 0.271 0.083s0.326 0.069 0.437 0.125c0.111 0.056 0.208 0.126 0.292 0.209 0.084 0.111 0.111 0.222 0.083 0.333s-0.084 0.243-0.167 0.396c-0.083 0.153-0.139 0.243-0.167 0.271 0 0.056-0.076 0.194-0.229 0.417s-0.243 0.375-0.271 0.459c-0.111 0.25-0.236 0.431-0.375 0.542l-0.292 0.375 0.042 0.625c0.111 0.25 0.208 0.445 0.292 0.583 0.028 0.028 0.021 0.139-0.021 0.333s-0.090 0.375-0.146 0.542l-0.042 0.25c-0.417-0.084-0.667-0.222-0.75-0.417 0-0.056-0.035-0.139-0.104-0.25s-0.104-0.236-0.104-0.375c0-0.084-0.042-0.188-0.125-0.313s-0.181-0.243-0.292-0.354l-0.209-0.209c-0.167-0.278-0.25-0.486-0.25-0.625 0-0.056-0.028-0.118-0.083-0.187s-0.125-0.118-0.209-0.146l-0.083-0.083c-0.472-0.222-0.75-0.375-0.833-0.459-0.084-0.111-0.167-0.444-0.25-1l0.125-0.875c0.028-0.028 0.049-0.056 0.063-0.083s0.042-0.076 0.083-0.146c0.042-0.070 0.021-0.132-0.063-0.187-0.028-0.028-0.056-0.070-0.083-0.125s-0.048-0.111-0.063-0.167c-0.014-0.056-0.021-0.111-0.021-0.167s-0.014-0.097-0.042-0.125v-0.042l-0.292-0.375c-0.167-0.222-0.264-0.403-0.292-0.542-0.028-0.084-0.014-0.236 0.042-0.459 0-0.056-0.014-0.167-0.042-0.333s-0.042-0.278-0.042-0.333l0.004 0.003zM13.75 9.917c0-0.056 0.014-0.153 0.042-0.292 0.222-0.222 0.542-0.375 0.959-0.459s0.778-0.111 1.083-0.083c0.305 0.028 0.472 0.070 0.5 0.125-0.056 0.111-0.16 0.208-0.313 0.292s-0.243 0.195-0.271 0.333c0 0.084-0.056 0.202-0.167 0.354s-0.215 0.291-0.313 0.417c-0.097 0.125-0.132 0.202-0.104 0.229 0.111 0.222 0.097 0.472-0.042 0.75-0.084 0.167-0.222 0.167-0.417 0-0.667-0.75-0.986-1.306-0.959-1.667v0zM16.583 11.917c-0.028-0.056-0.021-0.104 0.021-0.146s0.090-0.076 0.146-0.104l0.083-0.042c0.195 0.056 0.299 0.153 0.313 0.292s-0.007 0.25-0.063 0.333c-0.028 0.139-0.181 0.056-0.459-0.25-0.028-0.028-0.042-0.056-0.042-0.083h0.001zM16.875 17.125c-0.028-0.306-0.021-0.556 0.021-0.75s0.063-0.375 0.063-0.542c0-0.222 0.188-0.354 0.563-0.396s0.743-0.035 1.104 0.021l0.542 0.083c0.472 0.278 0.827 0.396 1.063 0.354s0.382-0.146 0.437-0.313l0.125-0.25 1.042-0.417 0.083-0.459-0.542-0.667-0.875-0.375c-0.25 0.167-0.25 0.458 0 0.875l-0.021 0.042c-0.014 0.028-0.028 0.084-0.042 0.167s-0.042 0.146-0.083 0.187c-0.041 0.042-0.090 0.084-0.146 0.125s-0.112 0.035-0.167-0.021l-0.875-1.083c-0.195 0.333-0.445 0.597-0.75 0.792-0.195 0.084-0.382 0.125-0.563 0.125s-0.354-0.028-0.521-0.083l-0.209-0.042c-0.195-0.556-0.125-0.917 0.209-1.083h0.75c0-0.028-0.007-0.070-0.021-0.125s-0.035-0.153-0.063-0.292c-0.028-0.139-0.014-0.264 0.042-0.375 0.028-0.139 0.118-0.209 0.271-0.209s0.284-0.042 0.396-0.125c0.139-0.111 0.334-0.056 0.583 0.167s0.458 0.32 0.625 0.292c0.139-0.028 0.243-0.056 0.313-0.083s0.104-0.055 0.104-0.083c0-0.028 0.021-0.063 0.063-0.104s0.104-0.076 0.187-0.104c0.111-0.056 0.222-0.056 0.333 0s0.194 0.139 0.25 0.25l0.083 0.125 0.792 0.083c-0.333-0.861-0.556-1.348-0.667-1.459h-0.042c0-0.028 0.014-0.028 0.042 0 0.278 0.056 0.653 0.604 1.125 1.646s0.598 1.91 0.375 2.604l-0.292-0.125h-0.917l0.542 0.667 0.104 0.104c0 0 0.076 0.062 0.229 0.187s0.264 0.153 0.333 0.083c-0.056 0.889-0.32 1.743-0.792 2.563s-0.917 1.41-1.333 1.771l-0.625 0.583c-0.111-0.111-0.181-0.229-0.209-0.354s-0.028-0.215 0-0.271l0.042-0.083 0.209-0.583 0.083-0.959c-0.028-0.028-0.042-0.063-0.042-0.104s-0.028-0.118-0.083-0.229c-0.056-0.112-0.118-0.188-0.187-0.229s-0.174-0.076-0.313-0.104c-0.139-0.028-0.292 0.014-0.459 0.125-0.278 0.084-0.486 0.16-0.625 0.229s-0.264 0.118-0.375 0.146c-0.111 0.028-0.32 0.056-0.625 0.083-0.667 0-0.889-0.667-0.667-2l0.001 0.001zM17.375 11.709c0-0.111 0.028-0.222 0.083-0.333l0.042-0.167c0.056-0.084 0.194-0.181 0.417-0.292 0.056 0.028 0.083 0.049 0.083 0.063s-0.014 0.090-0.042 0.229c-0.028 0.139-0.042 0.222-0.042 0.25-0.056 0.222 0 0.417 0.167 0.583 0.084 0.084 0.070 0.125-0.042 0.125-0.222 0-0.431-0.070-0.625-0.209-0.028-0.056-0.042-0.139-0.042-0.25h0.001zM18.875 11.209l0.292-0.709c0.084-0.306 0.139-0.556 0.167-0.75 0.167-0.084 0.556 0.194 1.167 0.833-0.084 0.361-0.216 0.632-0.396 0.813s-0.34 0.271-0.479 0.271l-0.209 0.042c-0.028 0-0.077-0.007-0.146-0.021s-0.16-0.062-0.271-0.146c-0.111-0.084-0.153-0.195-0.125-0.333h0.001z"></path>
</svg>
