<!-- Generated by IcoMoon.io -->
<svg version="1.1" xmlns="http://www.w3.org/2000/svg" width="32" height="32" viewBox="0 0 32 32">
<title>digg</title>
<path d="M8.516 13.339v0.001-2.673h2.29v9.326h-5.473v-6.654h3.183zM8.516 18.248h0.001l-0.056-3.109h-0.894v3.109h0.949zM11.699 13.339h2.29v6.654h-2.29v-6.654zM11.699 10.667h2.29v1.8h-2.29v-1.8zM14.882 19.993v0.001-6.654h5.473v9.326h-5.473v-1.8h3.183v-0.873h-3.183zM17.117 15.139v3.109h0.894v-3.109h-0.894zM21.249 13.339v0.001h5.418v9.326h-5.473v-1.8h3.183v-0.873h-3.128v-6.654zM24.377 18.248v-3.109h-0.894v3.109h0.894z"></path>
</svg>
