<!-- Generated by IcoMoon.io -->
<svg version="1.1" xmlns="http://www.w3.org/2000/svg" width="32" height="32" viewBox="0 0 32 32">
<title>qq-share</title>
<path d="M23.487 16.938c-0.319-0.642-0.683-1.27-1.052-1.777 0.248-0.416 0.187-1.017 0-1.442-0.092-0.211-0.262-0.388-0.328-0.588-0.109-0.33-0.099-0.714-0.178-1.028-0.079-0.318-0.161-0.616-0.274-0.909-0.731-1.906-2.284-2.967-4.728-3.193-0.332 0-0.665 0-0.997 0-0.763 0.077-1.469 0.22-2.023 0.468-0.612 0.274-0.999 0.576-1.434 1.002-0.734 0.717-1.553 1.892-1.654 3.192-0.009 0.118 0.022 0.224 0 0.321-0.020 0.092-0.119 0.16-0.164 0.267-0.079 0.193-0.101 0.395-0.109 0.614-0.227 0.292-0.437 0.83-0.259 1.31-0.637 0.513-1.267 1.053-1.708 1.884-0.345 0.651-0.653 1.488-0.561 2.525 0.026 0.279 0.076 0.683 0.301 0.734 0.116 0.027 0.267-0.031 0.368-0.080 0.277-0.132 0.552-0.414 0.725-0.681 0.085-0.133 0.101-0.306 0.232-0.401 0.074 0.118 0.092 0.254 0.137 0.374 0.28 0.749 0.721 1.354 1.285 1.803 0.095 0.077 0.237 0.14 0.26 0.241-0.593 0.055-1.072 0.182-1.284 0.574-0.085 0.157-0.149 0.496-0.123 0.721 0.053 0.466 0.601 0.727 1.011 0.855 0.773 0.241 1.777 0.322 2.773 0.254 0.897-0.061 1.48-0.256 2.078-0.601 0.094-0.055 0.164-0.137 0.246-0.147 0.064-0.008 0.217 0.017 0.355 0.027 0.096 0.007 0.251 0 0.342 0.014 0.238 0.034 0.502 0.169 0.766 0.254 1.355 0.432 3.654 0.534 4.756-0.161 0.158-0.099 0.379-0.311 0.424-0.561 0.068-0.375-0.204-0.603-0.41-0.761-0.334-0.258-0.694-0.41-1.080-0.628 0.412-0.407 0.737-0.908 0.971-1.483 0.074-0.184 0.126-0.4 0.273-0.548 0.113 0.209 0.223 0.415 0.369 0.628 0.123 0.18 0.293 0.458 0.532 0.454 0.143-0.002 0.277-0.117 0.369-0.24 0.182-0.244 0.276-0.639 0.3-1.002 0.060-0.882-0.18-1.628-0.505-2.284l0.002 0.001z"></path>
</svg>
