<svg xmlns="http://www.w3.org/2000/svg" width="100%" height="100%" viewBox="0 0 32 32"><path d="M15.82 8h.359c.264 0 .479.214.479.479v1.317c0 .264-.215.479-.479.479h-.359c-.264 0-.479-.214-.479-.479V8.479c0-.264.214-.479.479-.479zm-5.604 2.47l.254-.254c.187-.187.49-.187.677 0l.931.931c.187.187.187.49 0 .677l-.254.254c-.187.187-.49.187-.677 0l-.931-.931c-.187-.187-.187-.49 0-.677zm-1.737 4.871h1.317c.264 0 .479.214.479.479v.359c0 .264-.214.479-.479.479H8.479c-.264 0-.479-.215-.479-.479v-.359c0-.264.214-.479.479-.479zm1.737 5.511l.931-.931c.187-.187.49-.187.677 0l.254.254c.187.187.187.49 0 .677l-.931.931c-.187.187-.49.187-.677 0l-.254-.254c-.187-.187-.187-.49 0-.677zm5.604.873h.359c.264 0 .479.215.479.479v1.317c0 .264-.215.479-.479.479h-.359c-.264 0-.479-.215-.479-.479v-1.317c0-.264.214-.479.479-.479zm4.101-1.55l.254-.254c.187-.187.49-.187.677 0l.931.931c.187.187.187.49 0 .677l-.254.254c-.187.187-.49.187-.677 0l-.931-.931c-.187-.187-.187-.49 0-.677zm2.283-4.834h1.317c.264 0 .479.214.479.479v.359c0 .264-.215.479-.479.479h-1.317c-.264 0-.479-.215-.479-.479v-.359c0-.264.215-.479.479-.479zm-2.283-4.194l.931-.931c.187-.187.49-.187.677 0l.254.254c.187.187.187.49 0 .677l-.931.931c-.187.187-.49.187-.677 0l-.254-.254c-.187-.187-.187-.49 0-.677zM20.189 16c0 2.314-1.876 4.19-4.19 4.19s-4.19-1.876-4.19-4.19c0-2.314 1.876-4.19 4.19-4.19s4.19 1.876 4.19 4.19z"/></svg>