<svg xmlns="http://www.w3.org/2000/svg" width="100%" height="100%" viewBox="0 0 32 32"><path d="M22.829 16.903c-.157-.436-.465-.785-.892-.785h-4.995v-1.547c2.059-.473 3.596-2.335 3.596-4.56 0-2.583-2.071-4.678-4.624-4.678s-4.624 2.095-4.624 4.678c0 2.226 1.537 4.087 3.596 4.56v1.547H9.944c-.426 0-.756.364-.873.785l-2.406 8.978c0 .431.349.785.776.785h17.115c.426 0 .776-.353.776-.785l-2.503-8.978h-.001zM12.8 10.012c0-1.74 1.394-3.151 3.115-3.151s3.115 1.411 3.115 3.151c0 1.74-1.394 3.151-3.115 3.151S12.8 11.752 12.8 10.012z"/></svg>