<svg xmlns="http://www.w3.org/2000/svg" width="100%" height="100%" viewBox="0 0 32 32"><path d="M19.939 5.333c.769 0 1.394.642 1.394 1.431v18.471c0 .79-.626 1.431-1.394 1.431h-9.211c-.769 0-1.394-.642-1.394-1.431V6.764c0-.79.626-1.431 1.394-1.431h9.211zm-9.461 3.65v14.034h9.712V8.983h-9.712zm.563-2.467c-.363 0-.563.21-.563.514l-.006 1.171h9.718V7.03c0-.304-.175-.514-.476-.514h-8.673zm-.062 18.968h8.673c.297 0 .539-.248.539-.552v-1.144h-9.712v1.144c0 .304.204.552.501.552zm3.25-17.786c-.142 0-.256-.16-.256-.305s.115-.312.256-.312h2.614c.142 0 .256.166.256.312s-.115.305-.256.305h-2.614zm1.29 16.501c.235 0 .426.196.426.437s-.191.437-.426.437-.426-.196-.426-.437.191-.437.426-.437z"/></svg>