<!-- Generated by IcoMoon.io -->
<svg version="1.1" xmlns="http://www.w3.org/2000/svg" width="32" height="32" viewBox="0 0 32 32">
<title>basket</title>
<path d="M12.903 20.811c0.899 0 1.635 0.717 1.635 1.595s-0.736 1.595-1.634 1.595c-0.899 0-1.626-0.717-1.626-1.595s0.728-1.595 1.626-1.595zM13.042 18.219h0.001c0.004 0.11 0.094 0.199 0.204 0.199 0 0 0.001 0 0.001 0h9.463v1.535h-9.808c-0.899 0-1.562-0.658-1.562-1.535 0-0.279 0.052-0.614 0.183-0.837l1.053-1.88-2.942-5.793h-1.635v-1.907h2.672l1.767 3.256h11.561l-2.685 4.754c-0.286 0.487-0.809 0.814-1.408 0.814-0.006 0-0.012 0-0.018 0h-6.088l-0.735 1.299-0.025 0.096zM21.075 20.811v0.001c0.899 0 1.634 0.717 1.634 1.594s-0.735 1.594-1.634 1.594c-0.899 0-1.626-0.717-1.626-1.594s0.728-1.595 1.626-1.595z"></path>
</svg>
