<svg xmlns="http://www.w3.org/2000/svg" width="100%" height="100%" viewBox="0 0 32 32"><path d="M8.001 18.638l1.652 2.723c.464-.279.985-.419 1.565-.419.869 0 1.609.3 2.217.901s.913 1.319.913 2.157h3.261c0-.558.145-1.061.435-1.508.435-.726 1.073-1.201 1.913-1.424s1.637-.126 2.391.294L24 18.639c-.493-.279-.884-.642-1.174-1.089-.435-.726-.537-1.501-.305-2.325s.724-1.445 1.478-1.864l-1.609-2.723c-.493.279-1.029.419-1.609.419-.869 0-1.609-.293-2.217-.88s-.913-1.313-.913-2.178H14.39c0 .558-.145 1.075-.435 1.55-.435.726-1.072 1.194-1.913 1.403s-1.652.105-2.434-.314l-1.609 2.723c.493.279.884.656 1.174 1.131.435.726.537 1.494.305 2.304S8.753 18.22 8 18.639l.001-.001zm4.652-2.639c0-.893.326-1.654.978-2.282s1.442-.942 2.369-.942c.927 0 1.717.314 2.369.942s.978 1.389.978 2.282c0 .894-.326 1.654-.978 2.282s-1.442.942-2.369.942c-.927 0-1.717-.314-2.369-.942s-.978-1.389-.978-2.282z"/></svg>