<!-- Generated by IcoMoon.io -->
<svg version="1.1" xmlns="http://www.w3.org/2000/svg" width="32" height="32" viewBox="0 0 32 32">
<title>e-power</title>
<path d="M21.333 12h-1.362v-3.25c0-0.414-0.305-0.75-0.681-0.75s-0.681 0.336-0.681 0.75v3.25h-3.887v-3.25c0-0.414-0.305-0.75-0.681-0.75s-0.681 0.336-0.681 0.75v3.25h-1.362v3.25c0 0.191 0.022 0.385 0.054 0.578 0.093 1.307 0.891 2.447 2.071 3.129 0.213 0.133 0.433 0.24 0.658 0.315 0.269 0.106 0.553 0.189 0.847 0.249v4.479h2.072v-4.47c2.077-0.405 3.63-2.021 3.63-3.955 0-0.054-0.007-0.104-0.009-0.157 0.003-0.056 0.009-0.112 0.009-0.168v-3.25l0.001 0.001z"></path>
</svg>
