<svg xmlns="http://www.w3.org/2000/svg" width="100%" height="100%" viewBox="0 0 32 32"><path d="M18.336 18.488c0 .642-.123 1.215-.369 1.721s-.582.924-1.011 1.257c-.497.392-1.043.672-1.637.838s-1.35.25-2.264.25H8V9.334h4.445c1.016 0 1.759.035 2.23.107s.938.229 1.401.472c.48.256.836.547 1.07.977s.351.923.351 1.475c0 .642-.161 1.208-.483 1.698s-.776.873-1.363 1.146v.072c.824.172 1.477.529 1.959 1.069s.724 1.253.724 2.139v-.001zm-4.164-5.43c0-.188-.052-.377-.156-.566s-.289-.357-.555-.448c-.237-.081-.532-.143-.884-.151s-.457.006-1.094.006h-.305v2.438h.117c.513 0 .951-.008 1.312-.023s.646-.066.854-.153c.293-.117.485-.269.575-.455s.136-.401.136-.647zm.787 5.386c0-.406-.077-.718-.232-.938s-.419-.384-.79-.493c-.253-.074-.603-.133-1.047-.139s-.909.01-1.394.01h-.319v3.178h-.155c.912 0 1.565-.003 1.959-.009s.757-.08 1.09-.222c.338-.143.57-.333.697-.569s.19-.509.19-.818l.001-.001zM24 9.333l-.389 9.308h-2.759l-.389-9.308h3.538zm-.264 11.886c0 .8-.674 1.448-1.504 1.448s-1.504-.649-1.504-1.448c0-.8.674-1.448 1.504-1.448s1.504.649 1.504 1.448z"/></svg>