<svg xmlns="http://www.w3.org/2000/svg" width="100%" height="100%" viewBox="0 0 32 32"><path d="M6.118 17.719c0 .124.005.475.021.635.021.216.11.418.267.619l1.861.335.084.196c.267.635.883 1.047 1.578 1.047.57 0 1.103-.278 1.422-.748l.115-.17h7.998l.831-.01.12.175c.319.475.852.759 1.427.759.59 0 1.134-.3 1.448-.8l.105-.165.193-.016c.01 0 1.187-.108 1.767-.155.037-.016.125-.067.214-.144.151-.124.304-.521.314-1.037-.157-.423-1.061-1.981-5.949-2.44l-.084-.01-.073-.041c-.246-.139-.497-.284-.742-.428-1.098-.64-2.342-1.367-3.037-1.367-1.851 0-3.764.552-5.855 1.316l-.418-.619-2.144-2.105.554-.546 2.379 2.347c1.777-.568 3.481-1.16 5.489-1.16.909 0 2.133.717 3.434 1.47.219.129.439.258.659.382 2.149.211 3.827.66 4.987 1.331 1.118.65 1.464 1.346 1.568 1.703l.016.052v.057c0 .748-.225 1.383-.596 1.692-.162.135-.408.3-.637.319-.434.036-1.239.108-1.6.14-.471.629-1.203 1-2.002 1-.764 0-1.48-.346-1.95-.929l-.423.005h-7.585c-.471.583-1.187.924-1.945.924-.941 0-1.788-.516-2.216-1.331l-1.726-.314-.089-.103c-.319-.361-.497-.738-.539-1.156-.021-.227-.026-.665-.026-.717 0-.294.198-.697.585-1.187.125-.16.554-.681.836-.789l.298.727c-.239.158-.924 1.009-.935 1.256z"/></svg>