<!-- Generated by IcoMoon.io -->
<svg version="1.1" xmlns="http://www.w3.org/2000/svg" width="32" height="32" viewBox="0 0 32 32">
<title>corporate-sales</title>
<path d="M22.079 10.67h4.588v13.073h-4.588v-13.073zM25.668 22.696h-0.001v-1.868h-2.589v1.868h2.59zM25.668 19.781l-0.011-1.868h-2.579l0.011 1.868h2.579zM25.668 16.866h-0.001v-1.868h-2.589v1.868h2.59zM25.668 13.959h-0.001v-1.877h-2.589v1.877h2.59zM17.514 14.339v0.001c-0.336-0.352-2.797-0.53-2.797-0.53-0.346-0.018-0.696-0.046-1.046-0.052l0.001-7.091 7.219 0.043v10.441c0-0.482-0.846-0.901-0.846-0.901v-1.866h-2.34v0.209c-0.105-0.154-0.061-0.118-0.191-0.254zM17.705 8.59v2.036h2.34v-2.036h-2.34zM17.705 11.513v2.036h2.34v-2.036h-2.34zM14.533 8.59v2.036h2.326v-2.036h-2.326zM14.519 11.513v2.036h2.34v-2.036h-2.34zM21.054 21.88v-0.002c0 0.024 0 0.047 0 0.079 0 0.315 0 0.622 0 0.928 0 0.204 0 0.409 0 0.621 0 0.024 0 0.047-0.007 0.079-0.007 0.157-0.015 0.322-0.022 0.48-0.015 0.197-0.038 0.394-0.075 0.59-0.022 0.142-0.060 0.275-0.12 0.409-0.067 0.142-0.165 0.22-0.3 0.251-0.030 0.008-0.067 0.008-0.098 0.016-0.495 0-0.99 0-1.478 0-0.007 0-0.015-0.008-0.022-0.008-0.12-0.023-0.21-0.094-0.263-0.212-0.037-0.071-0.052-0.142-0.075-0.212-0.015-0.055-0.022-0.11-0.037-0.157-0.060-0.008-0.113-0.008-0.165-0.016-0.075-0.008-0.135-0.047-0.172-0.126 0-0.016-0.008-0.023-0.015-0.039s-0.022-0.023-0.037-0.023c-0.18 0-0.36-0.008-0.54 0.032-0.292 0.062-0.577 0.094-0.877 0.11-0.255 0.016-0.503 0.032-0.758 0.032-0.495 0.008-0.998 0.008-1.493 0.008-0.705 0-1.402-0.008-2.1 0-0.63 0-1.26 0.008-1.883-0.008-0.128-0.008-0.255-0.008-0.383-0.016-0.218-0.016-0.435-0.032-0.653-0.055-0.142-0.016-0.292-0.039-0.442-0.055-0.098-0.016-0.202-0.039-0.307-0.039s-0.202-0.008-0.3-0.016c-0.068-0.008-0.134 0-0.21 0-0.023 0.031-0.045 0.062-0.060 0.094-0.030 0.047-0.075 0.079-0.135 0.087-0.045 0-0.098 0-0.15 0.008-0.044 0-0.090 0-0.142 0-0.007 0.023-0.007 0.039-0.007 0.055-0.008 0.095-0.030 0.181-0.060 0.276-0.045 0.118-0.113 0.228-0.233 0.283-0.533 0-1.065 0-1.598 0-0.015 0-0.023-0.008-0.030-0.008-0.121-0.016-0.21-0.087-0.263-0.197-0.030-0.078-0.067-0.157-0.083-0.251-0.045-0.212-0.068-0.432-0.075-0.653-0.015-0.33-0.023-0.66-0.030-0.991 0-0.228 0.007-0.448 0.007-0.676-0.007-0.394-0.015-0.787-0.022-1.188 0-0.024-0.007-0.047-0.007-0.079 0-0.362 0-0.724 0-1.086 0-0.032 0.007-0.055 0.007-0.071 0-0.11 0.008-0.212 0.015-0.315 0.023-0.221 0.038-0.44 0.060-0.661 0.015-0.134 0.045-0.267 0.067-0.401 0.015-0.062 0.045-0.11 0.083-0.165 0.083-0.11 0.187-0.205 0.292-0.299 0.127-0.111 0.263-0.197 0.405-0.291 0.015-0.008 0.030-0.008 0.045-0.039-0.044 0-0.083 0-0.12 0-0.165-0.008-0.322-0.032-0.472-0.102-0.113-0.055-0.157-0.133-0.15-0.267 0-0.032 0-0.055 0.007-0.071 0.053-0.212 0.165-0.378 0.345-0.488 0.187-0.117 0.39-0.172 0.607-0.165 0.112 0.008 0.187 0.063 0.24 0.157 0.030 0.062 0.045 0.117 0.060 0.181 0.014 0.118 0.022 0.244 0.007 0.362 0 0.047 0.007 0.087 0.037 0.102 0.083-0.016 0.157-0.024 0.233-0.032 0.083-0.008 0.158 0 0.233 0.008 0.015-0.016 0.023-0.039 0.030-0.055 0.255-0.559 0.533-1.102 0.855-1.613 0.15-0.236 0.307-0.464 0.488-0.676 0.097-0.117 0.218-0.197 0.36-0.251 0.098-0.039 0.202-0.062 0.307-0.078 0.128-0.024 0.255-0.056 0.383-0.079 0.263-0.047 0.533-0.087 0.803-0.11 0.195-0.016 0.382-0.032 0.577-0.047 0.256-0.016 0.511-0.032 0.765-0.039 0.27-0.008 0.54-0.008 0.803-0.016 0.022 0 0.037-0.008 0.052-0.008 0.233 0 0.465 0 0.698 0 0.015 0 0.037 0.008 0.052 0.008 0.058 0.001 0.117 0.002 0.175 0.003 0.35 0.007 0.696 0.015 1.043 0.033 0.017 0.001 0.033 0.002 0.050 0.002 0.128 0.008 0.248 0.016 0.368 0.023 0.202 0.016 0.413 0.032 0.623 0.055 0.27 0.039 0.525 0.079 0.788 0.118 0.096 0.016 0.193 0.036 0.29 0.057 0.046 0.010 0.091 0.020 0.137 0.030 0.21 0.047 0.39 0.157 0.533 0.338 0.114 0.15 0.224 0.301 0.329 0.455 0.122 0.179 0.237 0.362 0.346 0.552 0.023 0.039 0.038 0.071 0.060 0.11 0.007 0.012 0.014 0.026 0.021 0.039 0.125 0.223 0.245 0.451 0.362 0.684 0.071 0.141 0.141 0.282 0.209 0.425 0.008 0.024 0.023 0.047 0.030 0.063 0.15 0 0.3-0.008 0.45 0.016 0.022 0 0.030-0.016 0.037-0.039 0.007-0.008 0-0.016 0-0.032 0-0.102-0.007-0.197 0-0.299 0-0.046 0.004-0.091 0.014-0.135 0.009-0.041 0.021-0.080 0.039-0.117 0.037-0.102 0.105-0.165 0.187-0.181 0.037-0.008 0.067-0.008 0.105-0.008 0.135 0.015 0.278 0.047 0.413 0.094 0.067 0.032 0.127 0.063 0.187 0.102 0.15 0.102 0.248 0.251 0.3 0.448 0.015 0.047 0.022 0.094 0.015 0.142-0.007 0.032-0.015 0.056-0.022 0.079-0.023 0.056-0.067 0.102-0.128 0.134-0.075 0.039-0.157 0.063-0.24 0.071-0.067 0.008-0.127 0.016-0.202 0.023 0 0.008-0.001 0.008 0.007 0.016s0.015 0.008 0.030 0.016c0.203 0.133 0.383 0.291 0.563 0.464 0.007 0.008 0.015 0.016 0.022 0.023 0.135 0.126 0.218 0.283 0.255 0.472 0.028 0.163 0.049 0.326 0.066 0.49 0.010 0.098 0.018 0.197 0.024 0.296 0.015 0.236 0.023 0.472 0.030 0.7 0.007 0.078 0.007 0.165 0.007 0.251 0 0.307 0.008 0.622 0.015 0.928 0 0.087 0 0.165 0.007 0.251zM16.007 16.383l0.001-0.003c0-0.032 0.014-0.055 0.007-0.047-0.015-0.063-0.037-0.118-0.083-0.157-0.068-0.055-0.142-0.087-0.225-0.094-0.158-0.032-0.315-0.055-0.48-0.071-0.15-0.016-0.307-0.032-0.457-0.047s-0.3-0.023-0.45-0.039c-0.12-0.008-0.233-0.008-0.353-0.016-0.030 0-0.053 0.008-0.075 0.023-0.091 0.071-0.187 0.126-0.3 0.142-0.195 0.032-0.397 0.047-0.592 0.039-0.015 0-0.037-0.008-0.052-0.008-0.105-0.016-0.21-0.016-0.307-0.032-0.112-0.016-0.225-0.063-0.307-0.157-0.022-0.023-0.037-0.023-0.068-0.023-0.322 0.016-0.638 0.032-0.96 0.047-0.188 0.016-0.368 0.039-0.548 0.055-0.135 0.016-0.27 0.039-0.398 0.055-0.083 0.008-0.157 0.047-0.218 0.102-0.068 0.063-0.121 0.181-0.060 0.276h0.007c0-0.008 0.007-0.008 0.007-0.016 0.068-0.126 0.179-0.189 0.307-0.212 0.21-0.047 0.421-0.023 0.63 0.032 0.121 0.032 0.21 0.095 0.263 0.221 0.015 0.039 0.038 0.079 0.045 0.118 0.045 0.142 0.083 0.283 0.128 0.425 0.037 0.126 0.083 0.244 0.12 0.37 0.022 0 0.037 0 0.052 0 0.075 0 0.157-0.016 0.233 0.008 0.007 0 0.015 0 0.022-0.008 0.044-0.031 0.097-0.023 0.142-0.008 0.060 0.016 0.127 0.008 0.187 0 0.015 0 0.038-0.008 0.060-0.008 0.233 0 0.457-0.008 0.69-0.008 0.285 0 0.57 0 0.855 0 0.165 0 0.322 0 0.488 0.008 0.023 0 0.045-0.008 0.060-0.023 0.008-0.008 0.030-0.016 0.045-0.016 0.037-0.008 0.075-0.008 0.113-0.008 0-0.008 0.007-0.016 0.007-0.023 0.045-0.157 0.091-0.314 0.143-0.464 0.030-0.078 0.052-0.149 0.083-0.228 0.015-0.039 0.030-0.071 0.045-0.11 0.037-0.094 0.112-0.173 0.21-0.212 0.052-0.016 0.098-0.032 0.15-0.039 0.195-0.032 0.397-0.016 0.592 0.023 0.068 0.015 0.135 0.039 0.187 0.094 0.007 0.008 0.022 0.023 0.052 0.039z"></path>
</svg>
