<svg xmlns="http://www.w3.org/2000/svg" width="100%" height="100%" viewBox="0 0 32 32"><path d="M10.667 13.542c0 1.195.708 3.028 2.125 5.5.639 1.139 1.292 2.181 1.958 3.125L16 24l1.25-1.833c.639-.944 1.292-1.986 1.958-3.125 1.417-2.472 2.125-4.306 2.125-5.5 0-1.528-.521-2.833-1.562-3.917S17.473 8 16.001 8s-2.729.541-3.77 1.625-1.562 2.389-1.562 3.916h-.001zm1.749-.23c0-.986.347-1.833 1.042-2.542S15 9.707 16 9.707c1 0 1.847.354 2.542 1.063s1.042 1.556 1.042 2.542c0 .986-.347 1.833-1.042 2.542S17 16.917 16 16.917c-1 0-1.847-.354-2.542-1.063s-1.042-1.556-1.042-2.542z"/></svg>