<svg xmlns="http://www.w3.org/2000/svg" width="100%" height="100%" viewBox="0 0 32 32"><path d="M15.47 18.126l.001.001c.309.646.363 1.333.287 2.034-.074.681-.287 1.312-.702 1.871-.499.672-1.189 1.07-1.979 1.322-.675.215-1.37.302-2.075.324-.831.026-1.657-.021-2.466-.227-1.175-.299-2.108-.921-2.693-1.985-.319-.581-.453-1.214-.499-1.869l-.008-.106c.403.003.919.002 1.322.002h1.303c-.002.042.022.173.022.173.047.259.127.51.254.744.212.392.547.654.954.817.963.386 1.993.408 2.982.113.496-.148.855-.462.99-.981.12-.465.001-.847-.375-1.155-.351-.289-.76-.473-1.182-.631-.547-.205-1.117-.331-1.681-.481-.809-.216-1.645-.346-2.421-.672-.622-.262-1.182-.601-1.505-1.223-.268-.514-.445-1.047-.468-1.629-.027-.674.047-1.328.348-1.943.422-.863 1.129-1.411 2.032-1.734.647-.232 1.319-.333 2.004-.367.96-.049 1.911 0 2.827.316 1.413.487 2.211 1.491 2.514 2.903.047.214.07.426.08.645l-.001.087-2.434.002s-.011-.221-.226-.654c-.325-.652-.865-.993-1.568-1.121-.643-.117-1.287-.124-1.92.057-.679.194-1.085.723-1.085 1.379 0 .301.14.534.363.726.335.286.738.449 1.157.567l2.689.714c.587.136 1.153.321 1.702.567.663.299 1.15.77 1.457 1.414zm4.092.385l.002-.001 2.714 8.157-.769-.547c-1.723-1.222-3.539-2.511-5.263-3.731l.047-.079c.285-.468.498-1.018.604-1.603.656.465 1.996 1.411 1.996 1.411l-.16-.477-1.27-3.795 3.742-2.638c-1.432-.001-3.208-.002-4.64.002l-.006-.155c-.02-.421-.023-.843-.084-1.262-.148-1.017-.548-1.921-1.242-2.695-.426-.475-.93-.85-1.514-1.121l-.092-.043 1.541-4.597 2.705 8.142 8.791-.002-7.104 5.038z"/></svg>