<!-- Generated by IcoMoon.io -->
<svg version="1.1" xmlns="http://www.w3.org/2000/svg" width="32" height="32" viewBox="0 0 32 32">
<title>timer-pcm</title>
<path d="M17.32 8.143c4.528 0.638 8.013 4.519 8.013 9.215 0 5.14-4.175 9.308-9.333 9.308s-9.333-4.167-9.333-9.308c0-4.695 3.485-8.577 8.008-9.215v-1.49h-0.845v-1.32h4.335v1.32h-0.845v1.49zM16 24.924c4.186 0 7.582-3.387 7.582-7.566s-3.396-7.566-7.582-7.566c-4.186 0-7.582 3.387-7.582 7.566s3.396 7.566 7.582 7.566zM14.768 16.748v0.001l1.143-4.877 1.32 4.866c0 0.005 0 0.005 0 0.011-0.006 0.682-0.552 1.226-1.232 1.226-0.674 0-1.226-0.55-1.232-1.226z"></path>
</svg>
