<!-- Generated by IcoMoon.io -->
<svg version="1.1" xmlns="http://www.w3.org/2000/svg" width="32" height="32" viewBox="0 0 32 32">
<title>oil-next</title>
<path d="M25.697 17.267c0.389 0.761 0.97 1.474 0.97 2.028 0 0.559-0.435 1.014-0.97 1.014s-0.97-0.455-0.97-1.014c0-0.559 0.581-1.268 0.97-2.028zM25.358 16.1v-0.001l-0.823-0.909h-0.051l-5.868 6.143h-10.373v-4.717l-2.909-1.014v-3.603l3.879 1.368v0.861h2.909v-1.014h-0.97v-1.014h2.909v1.014h-0.97v1.014h2.182l0.97 0.961 8.727-1.067 1.116 1.268-0.727 0.708zM6.303 14.884l1.939 0.665v-1.474l-1.939-0.66v1.469zM18.232 20.309h0.001l4.651-4.918-7.076 0.861-0.97-1.014h-5.627v5.071h9.020z"></path>
</svg>
