<!-- Generated by IcoMoon.io -->
<svg version="1.1" xmlns="http://www.w3.org/2000/svg" width="32" height="32" viewBox="0 0 32 32">
<title>sound</title>
<path d="M8 19.509v-5.684h2.88v5.684h-2.88zM11.84 19.509v-5.684l4.16-3.158v12l-4.16-3.158zM17.919 19.509c0-0.211 0.080-0.382 0.24-0.513 0.64-0.658 0.96-1.441 0.96-2.349s-0.32-1.677-0.96-2.309c-0.16-0.158-0.24-0.342-0.24-0.553s0.073-0.388 0.22-0.533c0.147-0.145 0.327-0.217 0.54-0.217s0.4 0.079 0.56 0.237c0.96 0.921 1.44 2.046 1.44 3.375s-0.48 2.467-1.44 3.414c-0.16 0.132-0.347 0.198-0.56 0.198s-0.393-0.072-0.54-0.217c-0.147-0.145-0.22-0.323-0.22-0.533v0.001zM20.679 20.93c0-0.211 0.067-0.382 0.2-0.513 1.067-1.053 1.6-2.309 1.6-3.77s-0.533-2.717-1.6-3.77c-0.134-0.132-0.2-0.303-0.2-0.513s0.073-0.388 0.22-0.533c0.147-0.145 0.327-0.217 0.54-0.217s0.387 0.066 0.52 0.198c1.36 1.342 2.040 2.954 2.040 4.835s-0.68 3.493-2.040 4.835c-0.134 0.158-0.307 0.237-0.52 0.237s-0.393-0.079-0.54-0.237c-0.147-0.158-0.22-0.342-0.22-0.553v0.001z"></path>
</svg>
