<!-- Generated by IcoMoon.io -->
<svg version="1.1" xmlns="http://www.w3.org/2000/svg" width="32" height="32" viewBox="0 0 32 32">
<title>phone</title>
<path d="M8.078 10.871l0.566 1.696c0.638 1.16 1.442 2.312 2.414 3.457s1.914 2.138 2.827 2.979c0.913 0.841 1.776 1.587 2.588 2.24s1.471 1.153 1.979 1.5l0.761 0.522 1.392 0.653c0.406 0.116 0.797 0.109 1.175-0.022s0.674-0.333 0.891-0.609c0.217-0.276 0.413-0.573 0.587-0.891s0.298-0.58 0.369-0.783c0.072-0.203 0.108-0.319 0.109-0.348l0.261-1.044-4.654-1.653c-0.058 0.348-0.102 0.551-0.131 0.609-0.029 0.116-0.058 0.181-0.087 0.196s-0.058 0.007-0.087-0.022c-0.029 0-0.044-0.015-0.044-0.044-1.537-0.464-2.755-1.16-3.653-2.087l-0.696-0.653c-1.189-1.421-1.827-2.653-1.913-3.697 0-0.087 0.029-0.131 0.087-0.131l0.74-0.348-2.392-4.393-0.435 0.218c-0.087 0-0.203 0.015-0.348 0.044s-0.398 0.102-0.761 0.218c-0.363 0.116-0.667 0.261-0.914 0.435s-0.442 0.435-0.587 0.783c-0.145 0.348-0.16 0.739-0.044 1.175l0.001-0.001z"></path>
</svg>
