<svg xmlns="http://www.w3.org/2000/svg" width="100%" height="100%" viewBox="0 0 32 32"><path d="M23 15.481v-2.074c.641-.34 1-.518 1-.518-.328-4.213-4.849-6.179-5-6.222v1.037c.427.156 3 1.323 3 5.703v2.074c0 1.08.271 1.966.531 2.82.24.783.469 1.517.469 2.366-.005.259-.088 1.561-1.5 1.561s-1.495-1.296-1.5-1.555v-4.148c0-2.052-1.308-2.592-2-2.592V7.706c0-.572-.448-1.037-1-1.037h-7c-.552 0-1 .464-1 1.037v16.592H8v1.037h11v-1.037h-1v-9.333c.042 0 1 .016 1 1.555v4.148c0 .897.521 2.592 2.5 2.592s2.5-1.695 2.5-2.592c0-1.01-.261-1.858-.516-2.684-.25-.811-.484-1.582-.484-2.501v-.001zm-6-.518v9.333h-7v-10.37h7v1.037zm0-2.074h-7V7.704h7v5.185z"/></svg>