<!-- Generated by IcoMoon.io -->
<svg version="1.1" xmlns="http://www.w3.org/2000/svg" width="32" height="32" viewBox="0 0 32 32">
<title>untitled9</title>
<path d="M5.344 15.906v-8.938h5.406v1.406h-3.875v2.375h3.563v1.313h-3.563v2.594h3.875v1.25h-5.406zM6.031 24.813v-6.375h2.344q1.031 0 1.5 0.453t0.469 1.578q0 1.188-0.5 1.625t-1.5 0.438h-1.219v2.281h-1.094zM7.125 21.594h1.094q0.594 0 0.797-0.203t0.203-0.891q0-0.625-0.219-0.844t-0.781-0.219h-1.094v2.156zM11.125 24.813v-6.375h1.125v5.5h2.688v0.875h-3.813zM11.594 11.406q0-2.688 0.766-3.641t2.828-0.953q2 0 2.594 0.844t0.656 2.656h-1.469q-0.094-1.219-0.422-1.656t-1.359-0.438q-1.25 0-1.609 0.594t-0.359 2.594q0 2.219 0.359 2.813t1.609 0.594q1.031 0 1.359-0.453t0.422-1.703h1.5q-0.094 1.813-0.797 2.609t-2.484 0.797q-2.125 0-2.859-1.016t-0.734-3.641zM15.563 22.75v-4.313h1.094v4.344q0 0.719 0.297 0.984t0.984 0.266q0.656 0 0.953-0.266t0.297-0.984v-4.344h1.094v4.313q0 1.063-0.531 1.609t-1.813 0.547-1.828-0.531-0.547-1.625zM19.375 11.406q0-2.688 0.781-3.641t2.844-0.953 2.828 0.953 0.766 3.641q0 2.625-0.734 3.641t-2.859 1.016-2.875-1.016-0.75-3.641zM21 11.375q0 2.25 0.375 2.844t1.625 0.594q1.219 0 1.594-0.594t0.375-2.844q0-1.969-0.375-2.563t-1.594-0.594q-1.25 0-1.625 0.594t-0.375 2.563zM21.063 22.875h1.094q0.031 0.656 0.281 0.906t0.906 0.25q0.625 0 0.891-0.203t0.266-0.672q0-0.438-0.266-0.625t-0.797-0.313l-0.531-0.125q-0.844-0.219-1.297-0.609t-0.453-1.297q0-0.875 0.5-1.359t1.656-0.484q1.281 0 1.734 0.516t0.484 1.578h-1.031q-0.063-0.656-0.313-0.875t-0.844-0.219q-0.531 0-0.813 0.188t-0.281 0.625q0 0.469 0.266 0.656t0.828 0.313l0.531 0.125q0.844 0.188 1.281 0.625t0.438 1.25q0 0.844-0.516 1.328t-1.734 0.484-1.719-0.484-0.563-1.578z"></path>
</svg>
