<svg xmlns="http://www.w3.org/2000/svg" width="100%" height="100%" viewBox="0 0 32 32"><path d="M9.212 16v.468H5.333v-.935h3.879v.468zm.389 2.756c.096.33.192.564.192.555l.146.283-3.005 1.685-.485-.794 3.152-1.729zm-3.106-7.291l.485-.799 3.005 1.685-.146.283c-.046.044-.141.277-.192.56l-3.152-1.729zm4.657 1.262c1.697 0 3.879 1.588 3.879 3.273s-2.182 3.273-3.879 3.273h-.339l-.146-.283c-.05-.044-.535-1.169-.535-2.99s.535-2.941.535-2.99l.146-.283h.339zm.338 5.562c1.166-.185 2.57-1.262 2.57-2.289s-1.409-2.104-2.57-2.289c-.146.37-.339 1.218-.339 2.289s.192 1.915.339 2.289zm11.298-2.757h3.879v.935h-3.879v-.468-.468zm-.631 3.833c.051-.044.147-.277.192-.555l3.151 1.729-.485.794-3.005-1.685.146-.283zm.242-6.121c-.096-.331-.192-.565-.192-.56l-.146-.283 3.005-1.68.485.794-3.151 1.729zm-1.212-.517v-.002l.101.283c.051.044.536 1.169.536 2.991s-.536 2.942-.536 2.991l-.146.283h-.293c-1.697 0-3.879-1.587-3.879-3.273s2.182-3.273 3.879-3.273h.339zm-.677 5.562c.146-.371.339-1.218.339-2.289s-.192-1.871-.339-2.289c-1.166.185-2.57 1.262-2.57 2.289s1.409 2.104 2.57 2.289z"/></svg>