<svg xmlns="http://www.w3.org/2000/svg" width="100%" height="100%" viewBox="0 0 32 32"><path d="M11.692 21.607l-.234.234L9.334 24v-1.115l1.418-1.439c-.132-.034-.18-.055-.18-.055 0-1.592 2.697-3.325 3.975-3.796l.681-.691c.022-.171.023-.314.023-.314s-.882-1.395-1.081-2.091c-.199-.7-.99-5.465 2.289-5.465 2.43 0 2.729 2.35 2.534 4.049L24.001 8v1.115l-5.335 5.415c-.456 1.167-.999 2.06-.999 2.06s.007.842.308.891c.973.156 4.357 2.123 4.357 3.909h.001s-.875.426-5.845.426c-2.46 0-3.933-.104-4.795-.21z"/></svg>