<!-- Generated by IcoMoon.io -->
<svg version="1.1" xmlns="http://www.w3.org/2000/svg" width="32" height="32" viewBox="0 0 32 32">
<title>e-performance</title>
<path d="M20.25 20.201h0.001v-1.289h4.531c-0.124-0.827-0.357-1.629-0.695-2.391l-1.069 0.689c-0.183 0.109-0.397 0.137-0.602 0.080s-0.376-0.192-0.482-0.381c-0.217-0.389-0.089-0.885 0.285-1.112l1.084-0.698c-0.498-0.74-1.099-1.398-1.793-1.964l-0.736 1.193c-0.106 0.184-0.276 0.316-0.479 0.372-0.205 0.056-0.419 0.027-0.602-0.082s-0.314-0.286-0.368-0.497c-0.055-0.211-0.026-0.432 0.080-0.62l0.777-1.264c-1.052-0.579-2.222-0.935-3.422-1.040l-0.003 1.545c-0.001 0.45-0.356 0.816-0.794 0.816-0.001 0-0.001 0-0.002 0-0.437-0.001-0.793-0.369-0.792-0.819l0.003-1.536c-1.155 0.109-2.252 0.442-3.272 0.992l0.785 1.309c0.106 0.189 0.133 0.409 0.078 0.62s-0.186 0.387-0.37 0.496c-0.377 0.224-0.861 0.091-1.081-0.295l-0.748-1.245c-0.711 0.568-1.327 1.232-1.836 1.979l1.158 0.753c0.18 0.11 0.308 0.284 0.362 0.493 0.055 0.211 0.026 0.432-0.080 0.62-0.219 0.39-0.705 0.524-1.084 0.298l-1.148-0.746c-0.348 0.776-0.588 1.593-0.715 2.438h4.534v1.289h-6.421l0.018-0.398c0.13-2.826 1.293-5.46 3.278-7.419 1.992-1.966 4.61-3.050 7.371-3.050s5.379 1.083 7.371 3.050c1.984 1.959 3.148 4.594 3.278 7.419l0.018 0.398h-6.417zM17.471 15.159l-1.247 3.731h2.748l-4.486 5.11 1.247-3.731h-2.748l4.486-5.11z"></path>
</svg>
