<svg xmlns="http://www.w3.org/2000/svg" width="100%" height="100%" viewBox="0 0 32 32"><path d="M25.697 17.267c.389.761.97 1.474.97 2.028 0 .559-.435 1.014-.97 1.014s-.97-.455-.97-1.014c0-.559.581-1.268.97-2.028zm-.339-1.167v-.001l-.823-.909h-.051l-5.868 6.143H8.243v-4.717l-2.909-1.014v-3.603l3.879 1.368v.861h2.909v-1.014h-.97V12.2h2.909v1.014h-.97v1.014h2.182l.97.961 8.727-1.067 1.116 1.268-.727.708zM6.303 14.884l1.939.665v-1.474l-1.939-.66v1.469zm11.929 5.425h.001l4.651-4.918-7.076.861-.97-1.014H9.211v5.071h9.02z"/></svg>