<svg xmlns="http://www.w3.org/2000/svg" width="100%" height="100%" viewBox="0 0 32 32"><path d="M12.643 9.853l.001.001c-.253.142-.502.297-.733.471l-.587-.809c0-.004.004-.004.004-.004 0-.004.004-.004.004-.004 0-.004.004-.004.004-.004l.004-.004.004-.004c0-.005.004-.005.009-.009.262-.187.533-.356.809-.507l.48.876zm-2.538 2.365l.004-.004c-.156.245-.298.502-.409.747l-.902-.431c.062-.134.133-.267.204-.4l.004-.004c0-.004.004-.004.004-.009s.004-.004.004-.009c.004 0 .004-.004.004-.004V12.1c.004 0 .004-.004.004-.004v-.004-.004-.004-.004-.004-.004-.004-.004-.004-.004c.004 0 .004-.004.004-.004.004 0 .004-.004.004-.004.004 0 .004-.004.004-.004.004 0 .004-.004.004-.004.004 0 .004-.004.004-.004.004 0 .004-.004.004-.004.004 0 .004-.004.004-.004.004 0 .004-.004.004-.004s.004-.004.004-.009c.066-.111.133-.223.204-.334l.84.542zm-1.09 3.285h-.001c-.022.289-.022.587-.004.875l-1 .053c-.017-.333-.013-.666.009-1l.996.071zm6.984-4.502l-.001.001c.169 0 .338.009.498.026v4.769l3.356 3.356c.005.009.009.018.014.022-.208.253-.445.489-.698.698-.009-.005-.018-.009-.022-.014l-3.503-3.503c-.044-.048-.08-.102-.107-.164s-.04-.124-.04-.191v-4.974c.169-.018.333-.026.502-.026zm5.658-.658h-.001c3.125 3.124 3.125 8.192 0 11.317-1.565 1.56-3.609 2.343-5.658 2.343s-4.094-.782-5.658-2.347l-1.769 1.769V19.18h4.263l-1.769 1.769c1.325 1.32 3.081 2.049 4.952 2.049s3.626-.729 4.951-2.049c2.729-2.73 2.729-7.17 0-9.899-1.325-1.32-3.081-2.049-4.952-2.049-.293 0-.587.018-.876.053l-.124-.991c.284-.036.565-.058.849-.063H15.998c2.049 0 4.094.782 5.658 2.343z"/></svg>