<!-- Generated by IcoMoon.io -->
<svg version="1.1" xmlns="http://www.w3.org/2000/svg" width="32" height="32" viewBox="0 0 32 32">
<title>eye</title>
<path d="M16.012 14.858h-0.028c-0.898 0.025-1.623 0.822-1.623 1.812s0.724 1.782 1.623 1.807h0.028c0.908-0.020 1.623-0.822 1.623-1.807s-0.715-1.782-1.623-1.812h0.001zM25.883 15.206c-2.060-1.812-5.518-4.455-9.872-4.539h-0.024c-4.354 0.091-7.819 2.73-9.874 4.541-0.095 0.088-0.767 0.641-0.781 1.364-0.009 0.507 0.207 0.877 0.517 1.182 1.68 1.758 5.349 4.888 10.137 4.914h0.024c4.798-0.020 8.458-3.156 10.137-4.914 0.311-0.315 0.527-0.684 0.517-1.182-0.014-0.718-0.686-1.28-0.781-1.364l-0.002-0.002zM16 21.313c-2.357-0.015-4.257-2.092-4.257-4.647s1.905-4.632 4.257-4.647c2.357 0.015 4.257 2.092 4.257 4.647s-1.898 4.638-4.257 4.647z"></path>
</svg>
