<svg xmlns="http://www.w3.org/2000/svg" width="100%" height="100%" viewBox="0 0 32 32"><path d="M18.645 15.999c0 1.461-1.185 2.646-2.646 2.646s-2.646-1.185-2.646-2.646c0-1.461 1.185-2.646 2.646-2.646s2.646 1.185 2.646 2.646zm4.572-.889h.001c.432 0 .781.381.781.852v.074c0 .471-.349.852-.781.852h-1.04c-.391 2.738-2.552 4.899-5.289 5.289v1.078c0 .41-.381.743-.852.743h-.074c-.471 0-.852-.333-.852-.743v-1.078c-2.737-.391-4.898-2.552-5.289-5.289H8.748c-.413 0-.748-.381-.748-.852v-.074c0-.471.335-.852.748-.852h1.074c.391-2.735 2.548-4.894 5.282-5.288V8.781c0-.432.392-.781.875-.781h.041c.483 0 .875.349.875.781v1.041c2.734.393 4.892 2.553 5.282 5.288h1.04zm-7.218 5.384c2.483 0 4.495-2.013 4.495-4.495s-2.013-4.495-4.495-4.495c-2.483 0-4.495 2.013-4.495 4.495s2.013 4.495 4.495 4.495z"/></svg>