<!-- Generated by IcoMoon.io -->
<svg version="1.1" xmlns="http://www.w3.org/2000/svg" width="32" height="32" viewBox="0 0 32 32">
<title>error</title>
<path d="M23.862 22.423l-6.999-12.572c-0.178-0.321-0.508-0.518-0.864-0.518s-0.686 0.196-0.864 0.518l-6.999 12.572c-0.178 0.326-0.183 0.724-0.004 1.050s0.508 0.528 0.869 0.528h13.997c0.357 0 0.69-0.201 0.869-0.528s0.178-0.724-0.004-1.050v0h-0.001zM15.999 21.905c-0.553 0-1.001-0.47-1.001-1.050s0.448-1.050 1.001-1.050c0.553 0 1.001 0.47 1.001 1.050s-0.448 1.050-1.001 1.050v0zM17 17.716c0 0.58-0.448 1.050-1.001 1.050s-1.001-0.47-1.001-1.050v-3.144c0-0.58 0.448-1.050 1.001-1.050s1.001 0.47 1.001 1.050v3.144z"></path>
</svg>
