<svg xmlns="http://www.w3.org/2000/svg" width="100%" height="100%" viewBox="0 0 32 32"><path d="M17.32 8.143c4.528.638 8.013 4.519 8.013 9.215 0 5.14-4.175 9.308-9.333 9.308s-9.333-4.167-9.333-9.308c0-4.695 3.485-8.577 8.008-9.215v-1.49h-.845v-1.32h4.335v1.32h-.845v1.49zM16 24.924c4.186 0 7.582-3.387 7.582-7.566S20.186 9.792 16 9.792s-7.582 3.387-7.582 7.566 3.396 7.566 7.582 7.566zm-1.232-8.176v.001l1.143-4.877 1.32 4.866v.011c-.006.682-.552 1.226-1.232 1.226-.674 0-1.226-.55-1.232-1.226z"/></svg>