<!-- Generated by IcoMoon.io -->
<svg version="1.1" xmlns="http://www.w3.org/2000/svg" width="32" height="32" viewBox="0 0 32 32">
<title>weibo</title>
<path d="M5.333 19.644c0 1.698 0.908 3.070 2.723 4.117s3.892 1.571 6.229 1.572c2.732 0 5.024-0.65 6.876-1.95s2.777-2.673 2.777-4.117c0-0.759-0.252-1.382-0.755-1.869s-1.114-0.839-1.833-1.057c-0.324-0.109-0.432-0.289-0.324-0.542 0.36-0.903 0.36-1.608 0-2.113s-0.971-0.758-1.833-0.758c-0.863 0-1.833 0.235-2.912 0.705-0.36 0.144-0.539 0.108-0.539-0.108v-0.108c0.36-1.156 0.288-2.005-0.216-2.547-0.575-0.578-1.546-0.596-2.912-0.055s-2.732 1.481-4.098 2.817c-2.121 2.131-3.182 4.136-3.182 6.014zM7.517 20.483c-0.126-1.174 0.395-2.23 1.564-3.169s2.634-1.499 4.395-1.68c1.761-0.181 3.307 0.081 4.638 0.785s2.049 1.635 2.157 2.79c0.108 1.156-0.423 2.212-1.591 3.169s-2.633 1.517-4.395 1.68c-1.762 0.163-3.299-0.099-4.611-0.785s-2.031-1.617-2.157-2.79v0zM10.294 21.567c0.324 0.74 0.899 1.237 1.726 1.49 0.899 0.289 1.789 0.244 2.67-0.135s1.501-0.984 1.86-1.815c0.36-0.795 0.351-1.553-0.027-2.275s-0.997-1.192-1.86-1.409c-0.827-0.217-1.663-0.144-2.507 0.217s-1.447 0.921-1.807 1.68c-0.36 0.759-0.378 1.508-0.054 2.249v-0.001zM11.265 21.242c-0.072-0.271-0.027-0.542 0.135-0.813s0.395-0.461 0.701-0.569c0.306-0.108 0.603-0.099 0.89 0.027s0.467 0.325 0.539 0.596c0.072 0.272 0.018 0.543-0.162 0.813s-0.423 0.46-0.728 0.569c-0.305 0.109-0.592 0.1-0.863-0.027s-0.441-0.325-0.512-0.596h0.001zM13.746 19.536c0.144-0.253 0.342-0.325 0.594-0.217s0.306 0.289 0.162 0.542c-0.144 0.253-0.342 0.325-0.594 0.217s-0.306-0.289-0.162-0.542zM19.219 9.079c0.054 0.217 0.171 0.388 0.35 0.515s0.377 0.172 0.594 0.135c1.51-0.325 2.786 0.090 3.829 1.247s1.33 2.475 0.863 3.955c-0.072 0.181-0.063 0.38 0.027 0.596s0.242 0.352 0.458 0.407c0.216 0.054 0.431 0.036 0.647-0.055s0.342-0.244 0.378-0.46c0.324-0.939 0.387-1.905 0.189-2.899s-0.647-1.878-1.349-2.655c-0.701-0.777-1.528-1.309-2.481-1.598s-1.914-0.343-2.885-0.163c-0.216 0.072-0.387 0.199-0.512 0.38s-0.162 0.38-0.108 0.596v-0.001zM19.92 11.815c0.090 0.451 0.368 0.623 0.836 0.515 0.503-0.109 0.926 0.036 1.267 0.433s0.441 0.831 0.297 1.3c-0.144 0.469 0 0.776 0.431 0.921s0.719-0.018 0.863-0.488c0.324-1.011 0.135-1.905-0.566-2.682s-1.573-1.057-2.615-0.84c-0.431 0.109-0.602 0.389-0.512 0.84h-0.001z"></path>
</svg>
