<svg xmlns="http://www.w3.org/2000/svg" width="100%" height="100%" viewBox="0 0 32 32"><path d="M23.532 5.333c.993 0 1.802.793 1.802 1.767v17.799c0 .974-.808 1.767-1.802 1.767H9.802c-.993 0-1.802-.793-1.802-1.767V7.1c0-.974.808-1.767 1.802-1.767h13.73zm-13.329 1.23h.001c-.521 0-.946.416-.946.927v15.379h14.865V7.49c0-.512-.425-.927-.946-.927H10.204zm12.972 18.874h-.001c.521 0 .946-.416.946-.927v-.835H9.255v.835c0 .512.425.927.946.927h12.973zm-5.935-.882c0 .295-.244.535-.545.535s-.545-.24-.545-.535c0-.295.244-.535.545-.535s.545.24.545.535z"/></svg>