<!-- Generated by IcoMoon.io -->
<svg version="1.1" xmlns="http://www.w3.org/2000/svg" width="32" height="32" viewBox="0 0 32 32">
<title>untitled12</title>
<path d="M5.375 20.375h1.406l0.563-1.781h3.313l0.594 1.781h1.594l-2.875-8.938h-1.781zM7.719 17.25l1.281-4.156 1.344 4.156h-2.625zM13.906 20.375l4.156-8.938h1.156l-4.156 8.938h-1.156zM19.719 15.844q0-2.688 0.766-3.641t2.891-0.953q1.969 0 2.563 0.844t0.688 2.656h-1.469q-0.094-1.188-0.406-1.641t-1.375-0.453q-1.25 0-1.625 0.594t-0.375 2.594q0 2.25 0.375 2.844t1.625 0.594q1 0 1.344-0.453t0.438-1.703h1.469q-0.094 1.813-0.781 2.594t-2.469 0.781q-2.156 0-2.906-1.016t-0.75-3.641z"></path>
</svg>
