<svg xmlns="http://www.w3.org/2000/svg" width="100%" height="100%" viewBox="0 0 32 32"><path d="M22.635 19.999c-.831 0-1.573-.298-2.025-.799h-8.58c-.514.511-1.236.799-2.009.799-.914 0-1.739-.404-2.206-1.066l-1.271-.146-.057-.027c-.54-.227-1.153-.915-1.153-1.293v-.022c.042-.551.213-1.528.524-1.954l.005-.009c.498-.64 2.056-1.128 3.472-1.532.732-.209 2.886-.617 4.563-.617h.14c.602 0 2.009 0 2.99.209 1.463.293 2.533.857 3.089 1.199 2.523.182 4.095.448 4.942.826.26.111.628.32.939.537.591.404.669.604.669.76 0 .844-.244 1.479-.254 1.506l-.052.138-.156.058c-.016.004-.415.156-1.308.347-.488.675-1.34 1.088-2.263 1.088l.002-.001zm-10.99-1.466h9.38l.114.16c.291.4.846.64 1.49.64.695 0 1.334-.328 1.666-.861l.083-.134.171-.036c.591-.12.971-.227 1.168-.288.062-.205.156-.604.166-1.088-.15-.169-.784-.59-1.183-.764l-.005-.004c-.752-.338-2.305-.586-4.755-.764l-.114-.009-.088-.049c-.473-.306-1.479-.857-2.891-1.141h-.005c-.888-.191-2.279-.191-2.803-.191h-.14c-1.588 0-3.624.387-4.314.582-.8.227-2.668.76-3.068 1.266-.171.24-.353.968-.404 1.608.046.134.358.529.664.689l1.536.173.093.16c.306.529.929.857 1.614.857.586 0 1.142-.244 1.511-.667l.114-.138v-.001z"/></svg>