<!-- Generated by IcoMoon.io -->
<svg version="1.1" xmlns="http://www.w3.org/2000/svg" width="32" height="32" viewBox="0 0 32 32">
<title>grad</title>
<path d="M16.819 20.781l-0.978-0.934v-0.605l1.793 1.711-0.208 0.203c-0.001 0-0.002 0-0.004 0l-1.582 1.51v-0.605l0.914-0.873c-0.248 0.008-0.498 0.013-0.75 0.013-2.826 0-5.488-0.508-7.489-1.423-2.054-0.94-3.182-2.205-3.182-3.567 0-0.829 0.42-1.626 1.219-2.333l0.298 0.285c-0.713 0.63-1.091 1.327-1.091 2.048 0 1.194 1.048 2.333 2.943 3.202 1.948 0.889 4.54 1.382 7.302 1.382 0.274 0 0.545-0.005 0.814-0.015zM25.368 13.803c0.852 0.726 1.304 1.545 1.299 2.403 0 1.362-1.128 2.627-3.183 3.567-0.037 0.020-0.074 0.036-0.112 0.051l-0.554-0.208c0.16-0.066 0.325-0.137 0.479-0.208 1.9-0.869 2.943-2.007 2.943-3.202 0-0.757-0.42-1.494-1.219-2.155l0.346-0.249zM9.884 14.687c0.064 0.915 0.421 1.281 1.294 1.281 0.804 0 1.208-0.315 1.208-1.077 0-0.696-0.341-1.068-1.208-1.068h-0.596v-0.58h0.554c0.755 0 1.118-0.356 1.118-0.981 0-0.696-0.431-0.996-1.161-0.996-0.735 0-1.133 0.315-1.202 1.265h-0.655c0.064-1.148 0.564-1.865 1.852-1.865 1.251 0 1.836 0.594 1.836 1.596 0 0.508-0.255 0.986-0.777 1.22 0.564 0.183 0.91 0.594 0.91 1.407 0 0.986-0.655 1.596-1.89 1.596-1.315 0-1.879-0.58-1.937-1.804h0.655v0.005l-0.001 0.001zM14.43 12.95l1.49-2.18h0.735l-1.522 2.206c0.223-0.102 0.463-0.153 0.734-0.153 1.235 0 1.852 0.58 1.852 1.804 0 1.321-0.697 1.865-1.921 1.865-1.251 0-1.932-0.544-1.932-1.865 0.005-0.696 0.208-1.154 0.564-1.677zM15.803 15.969c0.926 0 1.235-0.437 1.235-1.311 0-0.879-0.314-1.291-1.235-1.291s-1.24 0.411-1.24 1.291c0 0.88 0.303 1.311 1.24 1.311zM18.475 13.519c0-2.017 0.458-2.846 1.954-2.846 1.5 0 1.954 0.798 1.954 2.846 0 2.246-0.522 2.973-1.954 2.973s-1.954-0.686-1.954-2.973zM21.679 13.519c0-1.738-0.282-2.246-1.251-2.246-0.984 0-1.251 0.508-1.251 2.246 0 1.916 0.223 2.449 1.251 2.449s1.251-0.533 1.251-2.449zM23.18 11.624c0-0.508 0.421-0.915 0.984-0.915 0.554 0 0.968 0.411 0.968 0.915s-0.416 0.924-0.968 0.924c-0.565 0-0.984-0.422-0.984-0.924zM24.671 11.624c0-0.295-0.213-0.508-0.506-0.508-0.309 0-0.522 0.213-0.522 0.508s0.213 0.508 0.522 0.508c0.293-0.005 0.506-0.219 0.506-0.508z"></path>
</svg>
