<!-- Generated by IcoMoon.io -->
<svg version="1.1" xmlns="http://www.w3.org/2000/svg" width="32" height="32" viewBox="0 0 32 32">
<title>heater-next</title>
<path d="M10.222 10.303h-0.889l1.778-3.636 1.778 3.636h-0.889c0 1.091 0.226 2.001 0.403 3 0.226 1.042 0.485 2.091 0.485 3.364 0 1.322-0.226 2.364-0.485 3.406-0.178 1-0.403 1.909-0.403 2.958h-1.778c0-1.273 0.226-2.315 0.445-3.364 0.226-1 0.445-1.909 0.445-3s-0.226-2.001-0.403-3c-0.266-1-0.485-2.042-0.485-3.364v0.001zM20.888 6.667l-1.778 3.636h0.889c0 1.042 0.13 1.909 0.308 2.728h1.825c-0.178-0.86-0.356-1.727-0.356-2.728h0.889l-1.778-3.636h-0.001zM8 26.667h16v-1.818h-16v1.818zM16.889 10.303h0.889l-1.778-3.636-1.778 3.636h0.889c0 1.042 0.13 1.909 0.308 2.728h1.825c-0.178-0.86-0.356-1.727-0.356-2.728h-0.001zM24 17.345c0 0.679-0.445 1.139-0.889 1.139s-1.114-0.231-1.778-0.231c-0.403 0-0.711 0.091-0.889 0.133 0 0.049 0 0.049 0 0.091 0 0.091 0 0.133-0.047 0.231 0.8 0.049 2.715 0.364 2.715 2.049 0 1.818-1.778 2.273-2.441 2.273s-1.114-0.455-1.114-0.91c0-0.455 0.226-1.139 0.226-1.818 0-0.412-0.089-0.727-0.13-0.91-0.042 0-0.042 0-0.089 0-0.089 0-0.13 0-0.226-0.049-0.047 0.86-0.356 2.776-2.003 2.776-1.778 0-2.222-1.818-2.222-2.497s0.445-1.139 0.889-1.139c0.445 0 1.114 0.231 1.778 0.231 0.403 0 0.711-0.091 0.889-0.133 0-0.049 0-0.049 0-0.091 0-0.091 0-0.133 0.047-0.231-0.841-0.049-2.715-0.364-2.715-2.049 0-1.818 1.778-2.273 2.441-2.273s1.114 0.455 1.114 0.91c0 0.455-0.226 1.139-0.226 1.818 0 0.412 0.089 0.727 0.13 0.91 0.047 0 0.047 0 0.089 0 0.089 0 0.13 0 0.226 0.049 0.047-0.818 0.356-2.776 2.003-2.776 1.778 0 2.222 1.818 2.222 2.497v0zM19.555 18.799c0.178 0 0.308-0.133 0.308-0.315s-0.13-0.315-0.308-0.315c-0.178 0-0.308 0.133-0.308 0.315s0.13 0.315 0.308 0.315z"></path>
</svg>
