<!-- Generated by IcoMoon.io -->
<svg version="1.1" xmlns="http://www.w3.org/2000/svg" width="32" height="32" viewBox="0 0 32 32">
<title>plug-pcm</title>
<path d="M26.661 13.816c0 0.288-0.196 0.484-0.484 0.484h-3.395v1.453h-3.879c-1.986 0-3.586-1.502-3.83-3.395h-0.049c-1.746 0-6.3 0-6.3 2.421 0 1.165 1.262 1.796 2.617 2.471 1.502 0.729 3.199 1.599 3.199 3.346 0.005 3.4-6.926 3.4-9.206 3.4v-0.969c7.177 0 8.243-1.502 8.243-2.421 0-1.164-1.262-1.796-2.617-2.47-1.502-0.729-3.199-1.599-3.199-3.346 0-3.395 5.283-3.395 7.269-3.395h0.049c0.245-1.888 1.888-3.395 3.83-3.395h3.879v1.453h3.395c0.288 0 0.484 0.196 0.484 0.484s-0.196 0.484-0.484 0.484h-3.395v2.911h3.395c0.283 0 0.479 0.196 0.479 0.484h-0.001z"></path>
</svg>
