<!-- Generated by IcoMoon.io -->
<svg version="1.1" xmlns="http://www.w3.org/2000/svg" width="32" height="32" viewBox="0 0 32 32">
<title>crosshair</title>
<path d="M12.532 13.578l-4.315-4.32c-0.285-0.29-0.285-0.756 0.005-1.042 0.285-0.285 0.752-0.285 1.037 0l4.315 4.32c0.285 0.285 0.29 0.752 0 1.042-0.285 0.29-0.752 0.29-1.042 0zM19.192 18.15l4.591 4.591c0.271 0.285 0.257 0.747 0 1.042-0.285 0.29-0.752 0.29-1.042 0l-4.591-4.591c-0.285-0.29-0.285-0.756 0.005-1.042 0.285-0.285 0.752-0.285 1.037 0zM13.845 18.15c0.29 0.29 0.29 0.756 0 1.042l-4.586 4.586c-0.285 0.29-0.752 0.29-1.042 0-0.29-0.285-0.29-0.752 0-1.042l4.586-4.586c0.285-0.285 0.752-0.29 1.042 0zM19.197 13.845c-0.29 0.291-0.756 0.285-1.042-0.005-0.285-0.285-0.285-0.752 0-1.037l4.586-4.586c0.285-0.29 0.752-0.29 1.042 0 0.29 0.285 0.29 0.752 0 1.042l-4.586 4.586z"></path>
</svg>
