<svg xmlns="http://www.w3.org/2000/svg" width="100%" height="100%" viewBox="0 0 32 32"><path d="M16 8c-4.418 0-8 3.582-8 8s3.582 8 8 8 8-3.582 8-8-3.582-8-8-8zm-3.475 13.437c-.467-.277-.989-.726-1.485-1.221-1.706-1.7-1.049-3.522-1.049-3.522.029.048.41.145.41.145s.123.671.161.71c.038.039.142.058.31.104s.226-.032.213-.149c-.013-.117-.064-.516-.064-.516s.265.051.969.206.865.161.994.51.394.872.781 1.285c.387.413.549.452.665.769s.374 2.305.381 2.421c0 0-1.007.016-2.286-.743h.001zm8.474-1.22c-.496.494-1.018.943-1.485 1.221-1.279.759-2.286.743-2.286.743.006-.117.265-2.105.381-2.421s.278-.355.665-.769c.387-.413.652-.936.781-1.285s.291-.355.994-.51c.704-.155.969-.206.969-.206s-.051.4-.064.516c-.013.117.045.194.213.149s.271-.064.31-.104c.038-.039.161-.71.161-.71s.381-.097.41-.145c0 0 .657 1.822-1.049 3.522H21zm.807-5.857c-.198.021-.28.026-.321.064s-.053.107-.053.107l-.022-.006s.144-.169-.137-.236-.583-.115-.636-.081c-.053.034-.008.074.029.104s.05.095.05.095-.425.003-1.181-.003-1.124.045-1.529-.21c-.405-.255-1.005-.638-1.985-.638s-1.606.428-1.808.539c-.201.112-.369.205-1.253.233 0 0-1.466.066-1.555.045s.071-.086-.014-.16c-.086-.074-.684.086-.735.126s.026.129.026.129l-.022.003s-.016-.145-.195-.16c-.096-.008-.516.017-.622-.231-.123-.291.043-.525.245-.775.436-.537.847-1.133.959-1.317s.107-.174.058-.262c0 0 .063-.005.145-.131s1.661-2.116 4.77-2.111c3.109.005 4.717 2.049 4.81 2.155 0 0 .074.091.108.115 0 0-.039.12.029.219s.757 1.038 1.058 1.446c.3.409.294.532.237.699s-.255.219-.454.241l-.002-.001z"/></svg>