<svg xmlns="http://www.w3.org/2000/svg" width="100%" height="100%" viewBox="0 0 32 32"><path d="M12.696 12.646c-3.165 0-5.736 2.484-5.736 5.556 0 1.18.384 2.274 1.034 3.174l-2.364 2.29c-.395.383-.395 1.003 0 1.38.395.383 1.029.383 1.424 0l2.364-2.29c.929.63 2.059 1.003 3.277 1.003 2.287 0 4.256-1.293 5.18-3.169h8.791v-2.096h-8.24c.005-.097.005-.194.005-.291 0-1.045-.3-2.021-.818-2.857h9.052V13.25H15.288c-.779-.388-1.658-.604-2.592-.604v-.001zm4.095 5.555c0 2.194-1.836 3.966-4.095 3.966-2.265 0-4.095-1.773-4.095-3.966s1.836-3.966 4.095-3.966c2.265-.005 4.095 1.773 4.095 3.966zM9.336 8v2.096h17.331V8H9.336z"/></svg>