<!-- Generated by IcoMoon.io -->
<svg version="1.1" xmlns="http://www.w3.org/2000/svg" width="32" height="32" viewBox="0 0 32 32">
<title>replay</title>
<path d="M9.333 16.727c0 2 0.718 3.712 2.154 5.136s3.163 2.137 5.179 2.137c2.016 0 3.743-0.712 5.179-2.137s2.154-3.136 2.154-5.136h-2.2c0 1.394-0.504 2.591-1.513 3.591s-2.215 1.5-3.621 1.5c-1.405 0-2.612-0.5-3.621-1.5s-1.513-2.197-1.513-3.591c0-1.394 0.504-2.591 1.513-3.591s2.215-1.5 3.621-1.5v1.454l3.346-2.545-3.346-2.545v1.454c-2.016 0-3.743 0.712-5.179 2.137s-2.154 3.136-2.154 5.136z"></path>
</svg>
