<svg xmlns="http://www.w3.org/2000/svg" width="100%" height="100%" viewBox="0 0 32 32"><path d="M18.199 15.431c2.283 0 4.135 1.918 4.135 4.285s-1.851 4.285-4.135 4.285c-2.283 0-4.135-1.918-4.135-4.285s1.851-4.285 4.135-4.285zm2.349 7.225l.001.001.608-.629c.149-.155.14-.397-.02-.539l-2.758-2.45c.128-.25.201-.535.201-.838 0-.987-.773-1.787-1.725-1.787-.174 0-.343.027-.501.077l.996 1.032c.149.154.149.407 0 .561l-.608.629c-.149.155-.393.155-.542 0l-.996-1.032c-.048.164-.074.338-.074.519 0 .987.772 1.787 1.725 1.787.292 0 .567-.075.809-.209l2.364 2.858c.137.165.371.175.52.021zm-7.482-2.941h-.001c0 1.064.302 2.055.821 2.886H9.333V8h10.932v6.846c-.632-.289-1.331-.449-2.067-.449-2.835 0-5.133 2.381-5.133 5.318zm.039-10.316v1.086h5.806V9.399h-5.806zm0 2.858v1.101h5.806v-1.101h-5.806zm-2.764-3.178v1.782h1.706V9.079h-1.706zm1.708 4.613v-1.784h-1.715v1.784h1.715z"/></svg>