<!-- Generated by IcoMoon.io -->
<svg version="1.1" xmlns="http://www.w3.org/2000/svg" width="32" height="32" viewBox="0 0 32 32">
<title>vk</title>
<path d="M15.772 22.616h1.275c0 0 0.385-0.042 0.582-0.251 0.181-0.192 0.175-0.553 0.175-0.553s-0.025-1.687 0.769-1.935c0.783-0.245 1.788 1.63 2.853 2.352 0.806 0.546 1.417 0.426 1.417 0.426l2.848-0.039c0 0 1.49-0.091 0.784-1.246-0.058-0.095-0.411-0.854-2.119-2.416-1.787-1.635-1.547-1.37 0.605-4.198 1.31-1.722 1.835-2.774 1.67-3.224-0.156-0.429-1.12-0.316-1.12-0.316l-3.207 0.020c0 0-0.238-0.032-0.415 0.072-0.173 0.101-0.283 0.339-0.283 0.339s-0.508 1.333-1.185 2.466c-1.428 2.392-1.999 2.518-2.233 2.369-0.544-0.346-0.407-1.39-0.407-2.132 0-2.318 0.356-3.284-0.694-3.534-0.349-0.083-0.605-0.138-1.497-0.147-1.144-0.012-2.113 0.003-2.661 0.268-0.365 0.176-0.646 0.568-0.474 0.592 0.212 0.028 0.692 0.128 0.946 0.47 0.329 0.441 0.317 1.431 0.317 1.431s0.189 2.728-0.441 3.067c-0.432 0.233-1.026-0.242-2.299-2.412-0.652-1.111-1.145-2.34-1.145-2.34s-0.095-0.229-0.265-0.352c-0.206-0.149-0.493-0.196-0.493-0.196l-3.048 0.020c0 0-0.458 0.012-0.625 0.209-0.15 0.175-0.012 0.535-0.012 0.535s2.386 5.505 5.088 8.279c2.478 2.544 5.29 2.377 5.29 2.377v0h0.002z"></path>
</svg>
