<!-- Generated by IcoMoon.io -->
<svg version="1.1" xmlns="http://www.w3.org/2000/svg" width="32" height="32" viewBox="0 0 32 32">
<title>performance</title>
<path d="M25.176 12.111l0.001-0.001c0.888 0.603 1.462 1.266 1.49 1.301l-1.149 1.021c-0.003-0.003-0.126-0.145-0.341-0.348-0.018-0.017-0.036-0.034-0.056-0.052-0.003-0.003-0.006-0.006-0.009-0.009-0.017-0.015-0.034-0.032-0.051-0.047-0.004-0.003-0.008-0.008-0.013-0.011-0.017-0.015-0.035-0.031-0.053-0.047-0.004-0.004-0.008-0.008-0.013-0.011-0.021-0.019-0.043-0.038-0.065-0.057-0.001-0.001-0.003-0.002-0.003-0.003-0.024-0.021-0.049-0.041-0.074-0.063-0.002-0.002-0.003-0.003-0.005-0.004-0.022-0.018-0.045-0.037-0.068-0.056-0.008-0.006-0.014-0.012-0.022-0.018-0.018-0.015-0.036-0.029-0.055-0.044-0.009-0.007-0.019-0.015-0.028-0.021-0.018-0.014-0.035-0.027-0.053-0.041-0.010-0.008-0.019-0.015-0.029-0.022-0.019-0.014-0.038-0.028-0.057-0.042-0.009-0.007-0.019-0.014-0.028-0.021-0.024-0.017-0.049-0.035-0.073-0.052-0.004-0.003-0.009-0.006-0.014-0.009-0.029-0.021-0.059-0.041-0.089-0.062-0.008-0.006-0.017-0.011-0.025-0.017-0.022-0.015-0.044-0.029-0.066-0.044-0.012-0.008-0.023-0.015-0.035-0.022-0.020-0.012-0.040-0.025-0.061-0.038-0.012-0.008-0.024-0.015-0.037-0.023-0.020-0.013-0.041-0.025-0.062-0.037-0.012-0.008-0.024-0.015-0.037-0.022-0.022-0.013-0.044-0.025-0.067-0.038-0.011-0.007-0.022-0.013-0.033-0.019-0.034-0.018-0.067-0.036-0.101-0.054 0 0-0.001 0-0.001 0-0.035-0.018-0.071-0.036-0.106-0.053-0.011-0.005-0.023-0.010-0.035-0.016-1.102-0.529-2.057-0.446-2.911 0.254-0.032 0.026-0.063 0.052-0.095 0.081-0.082 0.072-0.163 0.143-0.244 0.214-0.032 0.027-0.065 0.056-0.097 0.083-0.047 0.041-0.095 0.082-0.142 0.123-0.042 0.035-0.084 0.071-0.126 0.106-0.036 0.031-0.073 0.062-0.109 0.092-0.049 0.041-0.098 0.082-0.147 0.122-0.026 0.021-0.052 0.043-0.078 0.064-0.056 0.047-0.114 0.094-0.171 0.14-0.007 0.005-0.013 0.010-0.019 0.015-0.797 0.643-1.596 1.214-2.425 1.697-0.048 0.027-0.095 0.055-0.143 0.082-0.039 0.021-0.077 0.043-0.115 0.064-0.046 0.025-0.090 0.049-0.136 0.074-0.038 0.021-0.076 0.041-0.114 0.061-0.074 0.040-0.148 0.078-0.223 0.116-0.038 0.020-0.077 0.039-0.115 0.058-0.044 0.021-0.088 0.044-0.133 0.065-0.042 0.021-0.085 0.041-0.128 0.061s-0.083 0.039-0.126 0.058c-0.044 0.020-0.087 0.040-0.131 0.059-0.067 0.029-0.134 0.058-0.201 0.087-0.054 0.022-0.107 0.045-0.161 0.066-0.038 0.015-0.077 0.031-0.115 0.046-0.049 0.019-0.098 0.038-0.147 0.057-0.036 0.014-0.073 0.027-0.11 0.041-0.176 0.064-0.355 0.125-0.536 0.182-0.035 0.011-0.070 0.022-0.105 0.033-0.053 0.016-0.108 0.033-0.162 0.048-0.035 0.010-0.069 0.020-0.104 0.029-0.875 0.243-1.805 0.394-2.818 0.438-0.765 0.033-1.485 0.252-2.152 0.651-0.051 0.030-0.103 0.063-0.153 0.095-0.008 0.004-0.014 0.009-0.021 0.014-0.049 0.033-0.099 0.066-0.148 0.1-0.003 0.002-0.004 0.003-0.006 0.004-0.094 0.066-0.186 0.137-0.278 0.21-0.012 0.009-0.024 0.019-0.035 0.028-0.032 0.027-0.063 0.053-0.095 0.081-0.030 0.025-0.058 0.049-0.087 0.075-0.027 0.024-0.054 0.048-0.080 0.072-0.036 0.033-0.072 0.066-0.107 0.1-0.021 0.020-0.042 0.040-0.062 0.060-0.056 0.057-0.112 0.113-0.168 0.173-0.051 0.055-0.101 0.109-0.149 0.164-0.001 0.001-0.002 0.002-0.003 0.003-0.047 0.055-0.094 0.109-0.137 0.162-0.575 0.697-0.86 1.315-0.863 1.322l-1.386-0.647c0.019-0.041 0.468-1.030 1.396-2.034 0.271-0.293 0.555-0.558 0.852-0.794 0.063-0.050 0.126-0.098 0.19-0.145 0.010-0.007 0.020-0.015 0.029-0.021 0.126-0.093 0.255-0.181 0.386-0.264 0.010-0.006 0.019-0.012 0.030-0.018 0.065-0.041 0.13-0.081 0.196-0.118 0.007-0.003 0.013-0.007 0.019-0.010 0.062-0.036 0.125-0.070 0.188-0.104 0.008-0.005 0.017-0.009 0.025-0.014 0.067-0.035 0.133-0.068 0.2-0.1 0.011-0.004 0.021-0.009 0.032-0.015 0.064-0.031 0.129-0.060 0.194-0.088 0.004-0.003 0.008-0.004 0.013-0.006 0.067-0.029 0.136-0.057 0.204-0.083 0.013-0.005 0.025-0.010 0.039-0.015 0.137-0.052 0.276-0.1 0.416-0.142 0.014-0.003 0.027-0.008 0.041-0.012 0.069-0.020 0.138-0.040 0.207-0.057 0.009-0.003 0.019-0.004 0.028-0.007 0.063-0.015 0.126-0.030 0.191-0.044 0.014-0.003 0.026-0.006 0.040-0.009 0.070-0.015 0.139-0.027 0.209-0.040 0.014-0.003 0.028-0.004 0.042-0.007 0.064-0.010 0.129-0.020 0.193-0.028 0.009-0.002 0.019-0.003 0.029-0.004 0.071-0.009 0.142-0.016 0.212-0.022 0.016-0.002 0.033-0.003 0.049-0.004 0.072-0.006 0.144-0.010 0.217-0.014 0.001 0 0.001 0 0.001 0s0.001 0 0.001 0c0.096-0.004 0.191-0.010 0.285-0.016 0.031-0.002 0.062-0.004 0.094-0.007 0.063-0.004 0.126-0.009 0.188-0.015 0.036-0.003 0.072-0.007 0.108-0.010 0.060-0.006 0.119-0.013 0.178-0.020 0.034-0.004 0.068-0.008 0.102-0.012 0.082-0.010 0.163-0.021 0.243-0.033 0.047-0.007 0.094-0.015 0.141-0.022 0.039-0.006 0.078-0.012 0.116-0.019 0.051-0.009 0.101-0.017 0.151-0.027 0.033-0.006 0.065-0.013 0.098-0.019 0.053-0.010 0.106-0.021 0.158-0.032 1.076-0.228 2.052-0.61 2.991-1.127 0.097-0.053 0.194-0.108 0.291-0.165 0 0 0-0.001 0.001-0.001 0.481-0.282 0.954-0.598 1.427-0.947 0.007-0.005 0.014-0.010 0.021-0.015 0.087-0.064 0.173-0.129 0.26-0.195 0.008-0.006 0.016-0.013 0.024-0.019 0.091-0.070 0.183-0.141 0.275-0.214 0.428-0.338 0.859-0.702 1.299-1.089 0.014-0.013 0.029-0.024 0.044-0.037 0.241-0.208 0.491-0.385 0.749-0.529 0.001 0 0.001-0.001 0.002-0.001 0.051-0.028 0.103-0.056 0.154-0.082 0.002-0.001 0.003-0.002 0.005-0.003 0.051-0.025 0.101-0.049 0.152-0.072 0.003-0.002 0.007-0.003 0.010-0.004 0.050-0.021 0.099-0.043 0.149-0.063 0.006-0.002 0.011-0.003 0.017-0.006 0.048-0.019 0.096-0.037 0.144-0.053 0.008-0.003 0.016-0.005 0.024-0.008 0.046-0.016 0.092-0.031 0.138-0.045 0.012-0.003 0.023-0.006 0.035-0.009 0.043-0.012 0.087-0.025 0.131-0.035 0.015-0.003 0.030-0.007 0.046-0.010 0.040-0.009 0.081-0.019 0.121-0.027 0.019-0.004 0.039-0.007 0.058-0.010 0.037-0.007 0.073-0.014 0.11-0.019 0.025-0.003 0.051-0.006 0.076-0.009 0.032-0.004 0.063-0.009 0.095-0.012 0.034-0.003 0.068-0.005 0.102-0.008 0.024-0.003 0.048-0.004 0.072-0.006 0.058-0.003 0.116-0.005 0.175-0.006 0.014 0 0.028 0 0.041 0 0.017 0 0.034 0.001 0.051 0.001 0.022 0 0.044 0 0.066 0.001 0.024 0.001 0.047 0.003 0.072 0.003 0.022 0.001 0.044 0.002 0.066 0.003 0.024 0.002 0.048 0.004 0.073 0.006 0.022 0.002 0.044 0.003 0.066 0.006 0.024 0.003 0.049 0.006 0.073 0.009 0.022 0.003 0.044 0.005 0.066 0.008 0.024 0.003 0.050 0.008 0.074 0.011 0.022 0.003 0.044 0.007 0.066 0.010 0.025 0.004 0.051 0.009 0.075 0.014 0.021 0.003 0.043 0.008 0.065 0.012 0.025 0.005 0.051 0.010 0.076 0.016 0.022 0.005 0.043 0.009 0.065 0.015 0.025 0.006 0.051 0.012 0.077 0.019 0.021 0.005 0.042 0.010 0.064 0.016 0.025 0.007 0.051 0.014 0.077 0.021 0.021 0.007 0.043 0.012 0.064 0.019 0.025 0.008 0.051 0.016 0.078 0.025 0.022 0.007 0.043 0.014 0.064 0.021 0.026 0.009 0.052 0.018 0.078 0.027 0.021 0.008 0.042 0.015 0.063 0.022 0.026 0.010 0.053 0.021 0.080 0.031 0.020 0.009 0.041 0.015 0.062 0.024 0.028 0.011 0.055 0.023 0.083 0.034 0.019 0.008 0.040 0.016 0.060 0.025 0.029 0.012 0.057 0.026 0.086 0.039 0.019 0.009 0.038 0.017 0.056 0.026 0.032 0.015 0.063 0.030 0.095 0.046 0.016 0.008 0.032 0.015 0.048 0.023 0.048 0.024 0.095 0.048 0.143 0.074 0.051 0.027 0.103 0.056 0.153 0.084 0.013 0.007 0.024 0.014 0.037 0.021 0.048 0.027 0.096 0.056 0.143 0.084 0.001 0.001 0.002 0.001 0.003 0.002 0.050 0.030 0.099 0.061 0.147 0.092 0.008 0.005 0.017 0.011 0.025 0.016 0.047 0.030 0.094 0.061 0.139 0.092zM23.384 13.891l0.002 0.001c0.818 0.427 1.436 1.116 1.462 1.145l0.329 0.381v9.915h-17.595v-4.008c0.117-0.222 0.432-0.768 0.936-1.306 0.818-0.872 1.754-1.338 2.781-1.382 0.446-0.019 0.883-0.059 1.312-0.118h10.985v-1.127h-7.199c0.11-0.052 0.22-0.106 0.33-0.161 0.7-0.353 1.395-0.773 2.122-1.288h4.747v-1.127h-3.28c0.296-0.244 0.6-0.504 0.915-0.781 0.352-0.311 0.694-0.456 1.073-0.456 0.319 0 0.682 0.105 1.081 0.313zM23.595 23.831v-1.127h-14.487v1.127h14.487zM23.595 21.201v-1.127h-14.487v1.127h14.487zM9.108 14.816l0.001-0.001v0.853c-0.531 0.192-1.042 0.452-1.528 0.774v-8.442h17.595v3.038c-0.077-0.044-0.154-0.088-0.233-0.13-0.449-0.238-0.899-0.416-1.347-0.535v-0.871h-14.487v1.127h11.239c-0.45 0.209-0.879 0.492-1.286 0.85-0.257 0.226-0.511 0.444-0.762 0.652h-9.191v1.127h7.719c-0.989 0.684-1.987 1.213-3.077 1.557h-4.642z"></path>
</svg>
