<!-- Generated by IcoMoon.io -->
<svg version="1.1" xmlns="http://www.w3.org/2000/svg" width="32" height="32" viewBox="0 0 32 32">
<title>google</title>
<path d="M8.013 15.732c0.041-2.75 2.455-5.155 5.071-5.061 1.255-0.062 2.434 0.511 3.395 1.317-0.408 0.49-0.833 0.961-1.286 1.4-1.155-0.838-2.8-1.074-3.954-0.109-1.652 1.197-1.728 4.031-0.138 5.326 1.545 1.473 4.469 0.744 4.895-1.513-0.971-0.015-1.942 0-2.907-0.037-0.003-0.609-0.003-1.212-0.003-1.817 1.621-0.003 3.236-0.007 4.86 0.003 0.097 1.426-0.083 2.946-0.916 4.121-1.265 1.868-3.802 2.412-5.787 1.614-1.988-0.795-3.395-2.997-3.229-5.245l-0.001 0.001zM21.1 13.704c0.481 0 0.961 0 1.445 0 0.003 0.508 0.003 1.019 0.007 1.52 0.484 0.003 0.971 0.003 1.448 0.007 0 0.504 0 1.009 0 1.517-0.484 0.003-0.968 0.007-1.448 0.015-0.003 0.511-0.007 1.019-0.007 1.52-0.484 0-0.961 0-1.445 0-0.003-0.508-0.003-1.016-0.007-1.52-0.484-0.003-0.971-0.007-1.448-0.015 0-0.504 0-1.009 0-1.517 0.484-0.003 0.968-0.007 1.448-0.007 0-0.504 0.003-1.012 0.007-1.52z"></path>
</svg>
