<svg xmlns="http://www.w3.org/2000/svg" width="100%" height="100%" viewBox="0 0 32 32"><path d="M15.891 23.992c-2.161 0-4.191-.844-5.72-2.37-1.059-1.06-1.804-2.39-2.147-3.842-.088-.363.074-.731.402-.913s.73-.128.995.142l.01.009c1.034 1.035 2.412 1.595 3.877 1.57s2.823-.623 3.828-1.693c1.961-2.09 1.936-5.339-.054-7.399-.024-.024-.049-.054-.078-.079-.264-.265-.324-.663-.142-.992s.549-.491.917-.403c1.436.344 2.754 1.075 3.814 2.12 1.544 1.531 2.402 3.567 2.407 5.731s-.834 4.205-2.368 5.746c-1.529 1.536-3.558 2.38-5.725 2.38-.009-.009-.009-.009-.015-.009l-.002.002zm-6.966-6.241c.323 1.222.97 2.34 1.867 3.238 1.363 1.364 3.172 2.115 5.098 2.115h.005c1.926 0 3.74-.755 5.098-2.12 1.368-1.374 2.118-3.19 2.113-5.118s-.769-3.744-2.147-5.108c-.897-.888-2-1.521-3.211-1.845 2.274 2.405 2.289 6.153.02 8.572-1.172 1.246-2.75 1.948-4.455 1.972-1.647.03-3.196-.574-4.387-1.708h.001z"/></svg>