<svg xmlns="http://www.w3.org/2000/svg" width="100%" height="100%" viewBox="0 0 32 32"><path d="M23.839 12.968s-.156-1.045-.636-1.505c-.609-.604-1.29-.607-1.603-.642-2.239-.153-5.597-.153-5.597-.153h-.007s-3.358 0-5.597.153c-.313.035-.994.038-1.603.642-.48.46-.635 1.505-.635 1.505s-.16 1.227-.16 2.454v1.151c0 1.227.16 2.454.16 2.454s.156 1.045.636 1.505c.609.604 1.408.585 1.764.648 1.28.116 5.44.152 5.44.152s3.362-.005 5.601-.158c.313-.035.994-.038 1.603-.642.48-.46.636-1.505.636-1.505s.16-1.227.16-2.454v-1.151c0-1.227-.16-2.454-.16-2.454h-.001zm-9.491 4.999l-.001-4.261 4.323 2.138-4.322 2.123z"/></svg>