<!-- Generated by IcoMoon.io -->
<svg version="1.1" xmlns="http://www.w3.org/2000/svg" width="32" height="32" viewBox="0 0 32 32">
<title>limousine-sunroof-pcm</title>
<path d="M17.029 13.881c1.463 0.338 2.533 0.99 3.088 1.385 2.523 0.21 4.095 0.518 4.941 0.954 0.26 0.128 0.628 0.369 0.939 0.62 0.591 0.467 0.669 0.698 0.669 0.877 0 0.975-0.244 1.708-0.254 1.739l-0.052 0.159-0.156 0.066c-0.016 0.005-0.415 0.18-1.308 0.4-0.487 0.775-1.34 1.251-2.263 1.251-0.83 0-1.573-0.344-2.025-0.923h-8.579c-0.514 0.59-1.236 0.923-2.009 0.923-0.913 0-1.739-0.467-2.206-1.231l-1.271-0.169-0.057-0.031c-0.54-0.262-1.153-1.057-1.153-1.493v-0.025c0.042-0.636 0.213-1.764 0.524-2.257l0.005-0.010c0.498-0.739 2.055-1.303 3.472-1.769 0.399-0.133 1.23-0.333 2.17-0.487l0.14 0.754c-0.898 0.149-1.682 0.338-2.060 0.462-0.8 0.262-2.668 0.877-3.068 1.461-0.171 0.277-0.353 1.118-0.404 1.856 0.046 0.154 0.358 0.611 0.664 0.795l1.536 0.2 0.093 0.185c0.306 0.61 0.929 0.99 1.614 0.99 0.586 0 1.142-0.282 1.511-0.77l0.12-0.154h9.379l0.114 0.185c0.291 0.462 0.846 0.739 1.49 0.739 0.695 0 1.334-0.379 1.666-0.995l0.083-0.154 0.171-0.041c0.591-0.139 0.971-0.262 1.168-0.333 0.062-0.236 0.156-0.698 0.166-1.256-0.15-0.195-0.784-0.682-1.183-0.882l-0.005-0.005c-0.752-0.39-2.305-0.677-4.754-0.882l-0.114-0.010-0.094-0.057c-0.473-0.354-1.479-0.99-2.891-1.318h-0.005c-0.42-0.103-0.95-0.159-1.448-0.185l-0.187-0.005-3.721-1.723 0.364-0.718 3.582 1.693c0 0 0.618-0.052 1.599 0.19v-0.002z"></path>
</svg>
