<!-- Generated by IcoMoon.io -->
<svg version="1.1" xmlns="http://www.w3.org/2000/svg" width="32" height="32" viewBox="0 0 32 32">
<title>mileage-next</title>
<path d="M21.652 14.244c1.697 1.634 2.472 3.809 2.332 5.99h-1.978v-0.953h0.989c-0.141-1.429-0.672-2.822-1.697-3.945l-0.671 0.646-0.708-0.682 0.708-0.682c-1.197-1.022-2.649-1.533-4.096-1.634v0.953h-0.989v-0.953c-1.484 0.135-2.93 0.646-4.096 1.634l0.671 0.646-0.708 0.682-0.708-0.682c-1.062 1.153-1.592 2.551-1.696 3.945h0.989v0.953h-1.978c-0.141-2.11 0.635-4.286 2.332-5.919 3.107-2.992 8.197-2.992 11.304 0zM16.707 19.688c0.385 0.376 0.385 0.987 0 1.363-0.391 0.376-1.025 0.376-1.416 0s-0.391-0.987 0-1.363c0.072-0.066 0.14-0.066 0.213-0.136v-3.945l0.495-0.682 0.495 0.682v3.945c0.109 0.035 0.141 0.066 0.213 0.136z"></path>
</svg>
