<svg xmlns="http://www.w3.org/2000/svg" width="100%" height="100%" viewBox="0 0 32 32"><path d="M12.977 18.342c-.217.373-.088.66-.023.766.152.249.428.332.65.332H22.52v-1.102h-8.203c.231-.318.53-.715.788-1.061h4.092c.733 0 1.424-.392 1.798-1.023L24 11.016H12.502L10.839 8H8v1.102h2.189l.871 1.577 3.106 6.021c-.383.508-1.051 1.397-1.189 1.641zm.06-6.224h9.06l-2.05 3.574c-.18.3-.498.48-.848.48H15.13l-2.092-4.053zm1.295 8.055c-1.083 0-1.968.858-1.968 1.914s.88 1.914 1.968 1.914c1.083 0 1.968-.858 1.968-1.914s-.885-1.914-1.968-1.914zm0 2.725c-.475 0-.866-.364-.866-.811s.387-.811.866-.811c.475 0 .866.364.866.811s-.392.811-.866.811zm6.469-2.725c-1.083 0-1.968.858-1.968 1.914s.88 1.914 1.968 1.914c1.083 0 1.968-.858 1.968-1.914s-.88-1.914-1.968-1.914zm0 2.725c-.475 0-.866-.364-.866-.811s.387-.811.866-.811c.475 0 .866.364.866.811s-.387.811-.866.811z"/></svg>