<svg xmlns="http://www.w3.org/2000/svg" width="100%" height="100%" viewBox="0 0 32 32"><path d="M16 8c-4.267 0-7.757 3.599-7.757 8s3.49 8 7.757 8c4.267 0 7.757-3.599 7.757-8S20.267 8 16 8zm0 15c-3.732 0-6.788-3.151-6.788-7S12.267 9 16 9c3.732 0 6.788 3.151 6.788 7S19.733 23 16 23zm10.666-7c0 3.053-1.212 5.802-3.101 7.803l-1.358-1.401c1.551-1.651 2.52-3.901 2.52-6.401s-.97-4.75-2.57-6.349l1.358-1.401c1.939 1.948 3.151 4.697 3.151 7.75L26.665 16zM9.843 22.349L8.485 23.75C6.546 21.802 5.334 19.053 5.334 16s1.212-5.803 3.1-7.803l1.358 1.401c-1.551 1.651-2.52 3.901-2.52 6.401s.97 4.75 2.57 6.349l.001.001zm8.823-5.948c.242-.25.435-.552.536-.901.146-.401.192-.849.192-1.448 0-.552-.051-1.052-.146-1.448-.096-.401-.293-.698-.485-.947-.242-.25-.536-.401-.873-.552-.339-.099-.777-.151-1.263-.151h-3.05v10h1.116v-3.948h1.888c.435 0 .823-.052 1.162-.151.389-.052.682-.203.924-.453h-.001zm-2.085-.349h-1.889v-4h1.939c.293 0 .536.053.777.099.192.053.389.151.485.303.146.151.242.349.293.599s.096.599.096 1-.051.75-.096 1c-.051.25-.146.447-.293.599s-.293.25-.536.303c-.197.099-.44.099-.777.099l.001-.002z"/></svg>