<!-- Generated by IcoMoon.io -->
<svg version="1.1" xmlns="http://www.w3.org/2000/svg" width="32" height="32" viewBox="0 0 32 32">
<title>customer-administration</title>
<path d="M20.195 22.222c0 0-0.908 0.444-6.061 0.444s-6.134-0.444-6.134-0.444c0-1.861 3.519-3.912 4.532-4.077 0.314-0.051 0.321-0.931 0.321-0.931s-0.914-1.456-1.122-2.182c-0.208-0.726-1.027-5.699 2.374-5.699s2.777 4.463 2.265 5.801c-0.296 0.748-0.648 1.466-1.015 2.080 0 0 0.007 0.88 0.321 0.931 1.010 0.164 4.519 2.216 4.519 4.077zM20.518 19.827l-0.268-0.001c-0.715-0.684-1.628-1.274-2.361-1.637 0.617-0.518 1.386-0.906 1.71-0.958 0.18-0.029 0.184-0.534 0.184-0.534s-0.524-0.836-0.644-1.253c-0.12-0.417-0.59-3.272 1.362-3.272s1.594 2.562 1.3 3.33c-0.169 0.429-0.372 0.841-0.582 1.195 0 0 0.004 0.505 0.184 0.534 0.58 0.094 2.595 1.272 2.595 2.341 0 0-0.523 0.255-3.482 0.255z"></path>
</svg>
