<!-- Generated by IcoMoon.io -->
<svg version="1.1" xmlns="http://www.w3.org/2000/svg" width="32" height="32" viewBox="0 0 32 32">
<title>extend-duration</title>
<path d="M23.989 20.578l0.001 0.001c0.053 0.332-0.107 0.637-0.4 0.719s-0.587-0.111-0.64-0.415l-0.32-1.323c-1.276 2.702-3.937 4.44-6.915 4.44-4.257 0-7.715-3.588-7.715-8s3.457-8 7.719-8c3.51 0 6.594 2.454 7.475 5.985 0.080 0.304-0.107 0.609-0.373 0.664-0.293 0.083-0.587-0.111-0.64-0.387-0.774-3.034-3.436-5.16-6.466-5.16-3.675 0-6.653 3.090-6.653 6.898s2.982 6.898 6.653 6.898c2.769 0 5.218-1.739 6.2-4.385l-1.995 0.498c-0.293 0.083-0.587-0.111-0.64-0.415-0.080-0.304 0.107-0.609 0.4-0.664l2.951-0.747c0.053 0 0.080-0.028 0.134-0.028 0.24 0 0.453 0.167 0.506 0.415l0.72 3.006zM15.461 11.108h0.001c0.311 0 0.56 0.258 0.555 0.576v3.91h2.231c0.311 0 0.56 0.263 0.56 0.581 0 0.323-0.254 0.581-0.56 0.581h-2.72c-0.107 0-0.204-0.028-0.289-0.083-0.196-0.092-0.338-0.295-0.338-0.535v-4.449c0-0.322 0.253-0.581 0.56-0.581z"></path>
</svg>
