<!-- Generated by IcoMoon.io -->
<svg version="1.1" xmlns="http://www.w3.org/2000/svg" width="32" height="32" viewBox="0 0 32 32">
<title>linkedin</title>
<path d="M8.264 13.313h3.317v10.687h-3.317v-10.687zM9.922 8c1.060 0 1.921 0.863 1.921 1.925s-0.862 1.927-1.921 1.927c-1.063 0-1.922-0.863-1.922-1.927 0-1.062 0.859-1.925 1.922-1.925zM13.66 13.313h3.181v1.46h0.045c0.443-0.84 1.525-1.726 3.138-1.726 3.355 0 3.975 2.213 3.975 5.091v5.862h-3.312v-5.197c0-1.24-0.024-2.834-1.724-2.834-1.725 0-1.989 1.35-1.989 2.744v5.286h-3.315v-10.687l0.001 0.001z"></path>
</svg>
