<!-- Generated by IcoMoon.io -->
<svg version="1.1" xmlns="http://www.w3.org/2000/svg" width="32" height="32" viewBox="0 0 32 32">
<title>youku</title>
<path d="M7.837 11.911l-0.001 0.001c0 0 0.803-1.809 0.929-2.052s0.408-0.724 0.975-0.439c0.567 0.285 0.243 0.975 0.243 0.975l-2.358 5.274c0 0-0.399 0.616-0.911 0.329s-0.262-0.945-0.262-0.945l0.724-1.565c0 0-1.263-2.124-1.697-2.945-0.361-0.685 0.066-1.053 0.066-1.053 0.496-0.312 0.843-0.131 1.117 0.305s1.176 2.115 1.176 2.115zM12.020 9.361v0.001c1.217 0 2.232 1.137 2.232 2.504s-1.015 2.475-2.232 2.475c-1.217 0-2.204-1.123-2.204-2.49s0.987-2.49 2.204-2.49zM12.032 13.153c0.584 0 1.015-0.524 1.015-1.295s-0.417-1.28-1.001-1.28c-0.585 0-1.029 0.509-1.029 1.28s0.431 1.295 1.015 1.295zM14.371 10.18l-0.001 0.002c0-0.296 0.105-0.731 0.617-0.731 0.462 0 0.558 0.41 0.558 0.705s-0.007 1.995-0.007 2.187c0 0.442 0.173 0.996 0.841 0.996s0.812-0.617 0.812-1.011c0-0.235 0-1.843 0-2.151s0.105-0.719 0.573-0.719c0.394 0 0.581 0.335 0.581 0.694s0 1.837 0 2.389c0 0.985-0.524 1.816-1.997 1.816s-1.977-0.92-1.977-1.822c0-0.67 0-2.058 0-2.353zM22.694 10.18v0.002c0-0.296 0.105-0.731 0.617-0.731 0.462 0 0.558 0.41 0.558 0.705s-0.007 1.995-0.007 2.187c0 0.442 0.172 0.996 0.84 0.996s0.812-0.617 0.812-1.011c0-0.235 0-1.843 0-2.151s0.105-0.719 0.573-0.719c0.394 0 0.581 0.335 0.581 0.694s0 1.837 0 2.389c0 0.985-0.524 1.816-1.997 1.816s-1.977-0.92-1.977-1.822c0-0.67 0-2.058 0-2.353zM18.552 13.609v-1.195c0-0.235 0-1.843 0-2.151s0.176-0.719 0.643-0.719c0.394 0 0.652 0.335 0.652 0.694s0 0.702 0 1.254c0 0 1.397-1.485 1.683-1.742s0.65-0.153 0.844 0.046c0.237 0.244 0.262 0.539 0 0.834s-1.185 1.273-1.185 1.273l1.355 1.327c0.262 0.295 0.204 0.63-0.042 0.863-0.265 0.25-0.685 0.231-0.972-0.026s-1.683-1.611-1.683-1.611v1.18c0 0.358-0.258 0.694-0.652 0.694-0.467 0-0.643-0.411-0.643-0.719zM11.074 17.231c-0.255 0.953-0.704 1.822-0.704 1.822l-0.014 4.92h-0.836v-3.458c-0.105 0.173-0.327 0.556-0.45 0.692l-0.759-0.571c0.761-1.145 1.406-2.418 1.873-3.848l0.89 0.442-0.001 0.001zM10.99 24l-0.757-0.656c0.857-0.727 1.814-1.899 1.872-3.788h-1.445v-0.759h1.526v-1.936h0.832v1.936h2.695v0.759l-1.625-0.007v3.465c0 0.101 0.044 0.152 0.133 0.152h0.533c0.101 0 0.174-0.067 0.218-0.199s0.070-0.842 0.077-1.274l0.907 0.273c0 0.264-0.002 0.199-0.002 0.727 0 0.949-0.689 1.293-0.939 1.293l-1.114-0.012c-0.351 0-0.708-0.398-0.708-0.746l-0.006-3.675c0 0-0.034 0.002-0.147 0.002-0.055 2.207-1.253 3.755-2.052 4.445zM15.57 18.025l-0.561 0.634-1.376-1.14 0.58-0.621 1.358 1.126-0.001 0.001zM22.543 19.682h1.409v0.708h-3.639v-0.708h1.476l-0.001-1.023h-0.7c-0.104 0.482-0.12 0.64-0.19 0.811l-0.724-0.111c0.141-0.625 0.228-1.172 0.303-2.132h0.798c0.008 0.177-0.011 0.453-0.057 0.718l0.557-0.006v-1.003h0.778v1.004h1.112v0.718h-1.123l0.001 1.023zM20.466 23.276h0.001c0-0.479 0.004-2.455 0.004-2.455h3.19c0 0 0 2.241 0 2.583s-0.083 0.596-0.649 0.596c-0.566 0-1.622 0-1.972 0s-0.574-0.245-0.574-0.724zM21.289 21.538v1.558c0 0-0.002 0.174 0.231 0.175s0.916 0 1.224 0c0.198 0 0.19-0.175 0.19-0.175l0.002-1.558h-1.647zM19.784 18.512c0.233 0 0.258 0.12 0.258 0.377 0 0.111 0 3.925 0 4.412s-0.316 0.699-0.582 0.699c-0.266 0-1.88 0-2.313 0s-0.762-0.186-0.762-0.664c0-0.479 0-4.259 0-4.549s0.27-0.274 0.27-0.274h0.865v-0.709h-1.135v-0.722h3.65v0.722h-0.981v0.709c0 0 0.497 0 0.73 0zM19.053 19.38l-0.001 0.001v1.056c0 0.091 0.031 0.136 0.093 0.136h0.189v-1.193h-0.281zM18.208 17.803v0.709h0.157v-0.709h-0.157zM17.226 19.38v1.408c0.132-0.144 0.294-0.541 0.294-0.886v-0.522h-0.294zM17.226 21.112v-0.001 0.569h2.109v-0.432h-0.438c-0.361-0.017-0.544-0.308-0.532-0.59v-1.279h-0.157v0.481c-0.005 1.038-0.389 1.355-0.579 1.568l-0.403-0.316zM19.193 23.273c0.185 0 0.141-0.14 0.141-0.14v-0.731h-2.109v0.731c0 0-0.004 0.14 0.156 0.14h1.812z"></path>
</svg>
