<!-- Generated by IcoMoon.io -->
<svg version="1.1" xmlns="http://www.w3.org/2000/svg" width="32" height="32" viewBox="0 0 32 32">
<title>sport-hood-pcm</title>
<path d="M20.281 15.342l3.574-2.653-0.444-0.69-3.391 2.508c0 0-0.376-0.25-0.59-0.383-1.301-0.818-2.524-1.585-3.433-1.585-2.582 0-5.481 1.201-8.287 2.363-0.324 0.133-0.643 0.267-0.956 0.395-0.283 0.117-0.711 0.678-0.836 0.851-0.386 0.529-0.585 0.962-0.585 1.28 0 0.056 0 0.522 0.026 0.773 0.042 0.45 0.22 0.856 0.538 1.246l0.089 0.111 1.725 0.339c0.423 0.879 1.27 1.435 2.215 1.435 0.762 0 1.473-0.367 1.944-0.996l8.015-0.005c0.471 0.628 1.186 1.001 1.949 1.001 0.794 0 1.531-0.4 2.001-1.078 0.36-0.034 1.16-0.111 1.599-0.15 0.23-0.022 0.471-0.2 0.637-0.344 0.371-0.334 0.595-1.012 0.595-1.824v-0.061l-0.016-0.056c-0.105-0.384-0.455-1.129-1.568-1.836l-0.439 0.69c0.889 0.545 1.16 1.095 1.238 1.323-0.010 0.561-0.162 0.984-0.314 1.118-0.089 0.077-0.177 0.139-0.214 0.156-0.58 0.050-1.756 0.167-1.767 0.167l-0.193 0.017-0.105 0.178c-0.314 0.539-0.857 0.862-1.447 0.862-0.575 0-1.108-0.306-1.426-0.818l-0.12-0.189-0.831 0.011h-7.995l-0.115 0.183c-0.319 0.506-0.852 0.806-1.421 0.806-0.695 0-1.317-0.445-1.578-1.129l-0.084-0.212-1.86-0.361c-0.157-0.217-0.246-0.44-0.267-0.667-0.016-0.173-0.021-0.556-0.021-0.684 0.011-0.267 0.695-1.184 0.936-1.357 0.314-0.128 0.627-0.255 0.941-0.39 2.738-1.135 5.569-2.308 8.005-2.308 0.695 0 1.939 0.784 3.036 1.474 0.246 0.156 0.815 0.506 0.815 0.506l0.424-0.016z"></path>
</svg>
