<!-- Generated by IcoMoon.io -->
<svg version="1.1" xmlns="http://www.w3.org/2000/svg" width="32" height="32" viewBox="0 0 32 32">
<title>ar</title>
<path d="M22.641 23.999h-1.122v-1.743h0.742v-0.747h1.732v1.159c0 0.734-0.607 1.332-1.352 1.332v-0.001zM10.487 23.999h-1.087c-0.766 0-1.389-0.597-1.389-1.332v-1.159h1.731v0.747h0.744l0.001 1.744zM24 11.823h-1.732v-0.747h-0.742v-1.743h1.122c0.745 0 1.352 0.597 1.352 1.332v1.159zM9.732 11.845h-1.732v-1.159c0-0.734 0.623-1.33 1.389-1.33h1.087v1.743h-0.744v0.746zM16.002 23.834c-0.156 0-0.303-0.042-0.429-0.115l0.004 0.002-5.537-3.186c-0.262-0.153-0.435-0.434-0.435-0.756 0 0 0-0.001 0-0.001v-6.366c0-0.001 0-0.002 0-0.003 0-0.17 0.049-0.329 0.133-0.462l-0.002 0.004v-0.003c0.009-0.014 0.019-0.027 0.029-0.041 0.071-0.090 0.158-0.165 0.257-0.22l0.004-0.002 0.017-0.009 5.4-2.883c0.117-0.063 0.256-0.1 0.403-0.1 0.141 0 0.273 0.034 0.39 0.093l-0.005-0.002 5.705 2.856c0.184 0.099 0.326 0.257 0.402 0.448l0.002 0.006c0.011 0.027 0.022 0.062 0.032 0.099l0.001 0.006c0.017 0.064 0.026 0.138 0.026 0.214 0 0.006 0 0.013 0 0.020v-0.001 6.347c0 0 0 0.001 0 0.001 0 0.322-0.173 0.602-0.431 0.754l-0.004 0.002-5.521 3.174c-0.039 0.024-0.084 0.046-0.131 0.064l-0.006 0.002c-0.040 0.016-0.088 0.030-0.138 0.040l-0.006 0.001c-0.049 0.010-0.105 0.015-0.163 0.015l-0.001 0.001zM16.87 16.858v4.601l3.8-2.189v-4.417l-3.8 2.005zM11.337 19.273l3.8 2.189v-4.603l-3.8-2.004v4.418zM12.334 13.411l3.67 1.935 3.627-1.914-3.772-1.888-3.525 1.867z"></path>
</svg>
