<!-- Generated by IcoMoon.io -->
<svg version="1.1" xmlns="http://www.w3.org/2000/svg" width="32" height="32" viewBox="0 0 32 32">
<title>untitled7</title>
<path d="M6.031 23.938h1.719l0.094-0.281q0.25-0.75 0.969-1.406 0.75-0.625 1.984-1.172t2.953-1.016q1.719-0.438 3.906-0.781 0.094 0 0.203-0.016t0.172-0.016q0.063-0.031 0.125-0.047t0.156-0.078l-0.406-0.938q1.094 0.344 1.859 0.969t-1.953 1.031q-4.438 0.719-6.594 1.703t-2.5 2.047h6.344q0-1.063 1.953-1.625t3.047-1.188q1.531-0.875 1.313-1.656-0.25-0.75-1.141-1.328t-1.891-0.891l-1-0.344-0.5-1.125-3.563-7.75zM16.031 23.938q0.188-0.281 1.063-0.625t1.438-0.563 1.078-0.406 0.922-0.438q0.938-0.531 1.359-1.156t0.328-1.375q-0.125-0.75-0.813-1.391t-2.031-1.203q-0.406-0.188-1.031-0.422l-0.625-0.234 2.344-5.281 5.906 13.094h-9.938z"></path>
</svg>
