<!-- Generated by IcoMoon.io -->
<svg version="1.1" xmlns="http://www.w3.org/2000/svg" width="32" height="32" viewBox="0 0 32 32">
<title>untitled14</title>
<path d="M6.125 23.938v-15.094h0.938v15.094h-0.938zM8.063 23.938v-0.938q4.406 0 7.25-0.219 2.844-0.25 4.547-0.563t2.453-0.688 1-0.688q0.125-0.125 0.156-0.281t0-0.313q-0.156-0.781-1.391-1.172t-2.422-0.641q-1.156-0.25-2.016-0.516t-1.141-0.859q-0.156-0.313-0.141-0.656t0.234-0.656q0.344-0.531 1.094-0.891t1.594-0.359v0.938q-0.656 0-1.188 0.266t-0.719 0.547q-0.063 0.125-0.063 0.234t0.031 0.172q0.125 0.25 0.938 0.469t1.563 0.375q1.5 0.313 2.906 0.813t1.656 1.75q0.063 0.375-0.031 0.734t-0.344 0.672q-0.5 0.625-1.75 1.063-1.219 0.469-3.219 0.781t-4.75 0.469-6.25 0.156zM8.063 16.375v-7.531l9.344 3.781zM20.188 15.469v-7.563h0.938l4.688 1.906-4.688 1.875v3.781h-0.938z"></path>
</svg>
