<!-- Generated by IcoMoon.io -->
<svg version="1.1" xmlns="http://www.w3.org/2000/svg" width="32" height="32" viewBox="0 0 32 32">
<title>instagram</title>
<path d="M16 9.444c-2.136 0-2.39 0.009-3.233 0.046-0.777 0.033-1.201 0.166-1.483 0.274-0.374 0.146-0.64 0.32-0.918 0.598s-0.453 0.544-0.598 0.918c-0.108 0.278-0.237 0.702-0.274 1.483-0.037 0.844-0.046 1.097-0.046 3.233s0.009 2.39 0.046 3.233c0.033 0.777 0.166 1.201 0.274 1.483 0.146 0.374 0.32 0.64 0.598 0.918s0.544 0.453 0.918 0.598c0.278 0.108 0.702 0.237 1.483 0.275 0.844 0.038 1.097 0.046 3.233 0.046s2.39-0.009 3.233-0.046c0.777-0.033 1.201-0.166 1.483-0.275 0.374-0.146 0.64-0.32 0.918-0.598s0.453-0.544 0.598-0.918c0.108-0.278 0.237-0.702 0.275-1.483 0.038-0.844 0.046-1.097 0.046-3.233s-0.009-2.39-0.046-3.233c-0.033-0.777-0.166-1.201-0.275-1.483-0.146-0.374-0.32-0.64-0.598-0.918s-0.544-0.453-0.918-0.598c-0.278-0.108-0.702-0.237-1.483-0.274-0.844-0.037-1.098-0.046-3.233-0.046zM16 8.001v-0.001c2.174 0 2.444 0.008 3.3 0.050 0.852 0.037 1.434 0.17 1.941 0.37 0.528 0.204 0.973 0.479 1.417 0.923s0.719 0.889 0.922 1.417c0.195 0.507 0.332 1.089 0.37 1.941 0.042 0.856 0.050 1.126 0.050 3.3s-0.013 2.448-0.050 3.3c-0.037 0.852-0.17 1.434-0.37 1.941-0.203 0.528-0.477 0.973-0.922 1.417s-0.889 0.719-1.417 0.922c-0.507 0.195-1.089 0.332-1.941 0.37-0.856 0.042-1.126 0.050-3.3 0.050s-2.448-0.013-3.3-0.050c-0.852-0.037-1.434-0.17-1.941-0.37-0.527-0.203-0.972-0.477-1.417-0.922s-0.719-0.889-0.923-1.417c-0.195-0.507-0.332-1.089-0.37-1.941-0.041-0.856-0.050-1.126-0.050-3.299s0.013-2.447 0.050-3.299c0.037-0.852 0.17-1.434 0.37-1.941 0.204-0.527 0.479-0.972 0.923-1.417s0.889-0.719 1.417-0.923c0.507-0.195 1.089-0.332 1.941-0.37 0.856-0.041 1.126-0.050 3.3-0.050zM16 11.891c2.269 0 4.11 1.841 4.11 4.11s-1.841 4.11-4.11 4.11c-2.269 0-4.11-1.841-4.11-4.11s1.841-4.11 4.11-4.11zM16 18.669c1.471 0 2.668-1.197 2.668-2.668 0-1.475-1.197-2.668-2.668-2.668-1.475 0-2.668 1.196-2.668 2.668 0 1.475 1.196 2.668 2.668 2.668zM21.233 11.729c0 0.53-0.43 0.96-0.96 0.96s-0.96-0.43-0.96-0.96c0-0.53 0.43-0.96 0.96-0.96s0.96 0.43 0.96 0.96z"></path>
</svg>
