<svg xmlns="http://www.w3.org/2000/svg" width="100%" height="100%" viewBox="0 0 32 32"><path d="M18.125 12.453c.535.001.969.434.971.97v6.137c0 .538-.435.974-.971.974h-4.268l-3.754 2.133v-2.129H8.972c-.536 0-.971-.436-.971-.974v-6.137c0-.538.435-.974.971-.974h9.153zm-4.179 6.692v-.778c0-.085-.068-.154-.153-.154h-.771c-.084 0-.153.066-.157.15v.786c.005.083.073.15.157.15h.771c.084 0 .153-.068.153-.154zm1.282-3.018l-.002.005c.176-.235.282-.526.283-.843 0-.543-.191-.952-.572-1.228s-.858-.414-1.435-.414c-.439 0-.809.098-1.11.291-.478.304-.729.817-.76 1.545l1.122.001v-.023c0-.218.063-.421.169-.588.123-.198.333-.297.628-.297.301 0 .507.079.618.236.107.148.171.329.171.526v.007c0 .169-.084.325-.188.469-.06.085-.134.159-.22.223 0 0-.6.385-.865.698-.153.179-.166.372-.18.758-.001.028.009.085.105.085h.86l.01.001c.051 0 .093-.041.095-.092.005-.14.022-.135.047-.216.049-.154.18-.287.328-.402l.305-.212c.275-.215.494-.391.591-.529zm7.799-6.794h-.001c.536.001.971.435.973.972v4.678c-.003.51-.396.927-.898.968l-2.723-.034v-2.918c0-1.071-.759-1.833-1.828-1.833h-3.842l-.003-.861c.003-.537.437-.972.973-.973h7.348z"/></svg>