<svg xmlns="http://www.w3.org/2000/svg" width="100%" height="100%" viewBox="0 0 32 32"><path d="M7.054 16.331c-.24.164-.925 1.038-.936 1.292 0 .127.005.487.021.652.021.222.11.429.267.635l1.861.344.084.202c.267.652.883 1.075 1.578 1.075.57 0 1.103-.286 1.422-.768l.115-.175h7.998l.831-.01.12.18c.319.487.852.779 1.427.779.59 0 1.134-.308 1.448-.821l.105-.169.193-.016c.01 0 1.187-.111 1.767-.159.037-.016.125-.069.214-.148.151-.127.304-.535.314-1.064-.157-.434-1.061-2.034-5.949-2.505l-.084-.01-.073-.042c-.246-.143-.497-.291-.742-.44-1.098-.657-2.342-1.403-3.037-1.403-1.851 0-3.764.567-5.855 1.351l-.418-.635L6.51 11.23l.554-.561 3.45 3.495c1.777-.583 3.481-1.191 5.489-1.191.909 0 2.133.736 3.434 1.509.219.132.439.265.659.392 2.149.217 3.827.678 4.987 1.367 1.118.667 1.464 1.382 1.568 1.748l.016.053v.058c0 .768-.225 1.419-.596 1.737-.162.138-.408.308-.637.328-.434.037-1.239.111-1.6.143-.471.646-1.203 1.027-2.002 1.027-.764 0-1.48-.355-1.95-.953l-.423.005h-7.585c-.471.598-1.187.948-1.945.948-.941 0-1.788-.53-2.216-1.367l-1.726-.323-.089-.106c-.319-.371-.497-.758-.539-1.186-.021-.233-.026-.683-.026-.736 0-.302.198-.715.585-1.218.125-.164.554-.699.836-.81l.298.746.001-.003z"/></svg>