<svg xmlns="http://www.w3.org/2000/svg" width="100%" height="100%" viewBox="0 0 32 32"><path d="M22.641 23.999h-1.122v-1.743h.742v-.747h1.732v1.159c0 .734-.607 1.332-1.352 1.332v-.001zm-12.154 0H9.4c-.766 0-1.389-.597-1.389-1.332v-1.159h1.731v.747h.744l.001 1.744zM24 11.823h-1.732v-.747h-.742V9.333h1.122c.745 0 1.352.597 1.352 1.332v1.159zm-14.268.022H8v-1.159c0-.734.623-1.33 1.389-1.33h1.087v1.743h-.744v.746zm6.27 11.989c-.156 0-.303-.042-.429-.115l.004.002-5.537-3.186c-.262-.153-.435-.434-.435-.756v-6.367-.003c0-.17.049-.329.133-.462l-.002.004v-.003l.029-.041c.071-.09.158-.165.257-.22l.004-.002.017-.009 5.4-2.883c.117-.063.256-.1.403-.1.141 0 .273.034.39.093l-.005-.002 5.705 2.856c.184.099.326.257.402.448l.002.006c.011.027.022.062.032.099l.001.006c.017.064.026.138.026.214v.02-.001V19.78c0 .322-.173.602-.431.754l-.004.002-5.521 3.174c-.039.024-.084.046-.131.064l-.006.002c-.04.016-.088.03-.138.04l-.006.001c-.049.01-.105.015-.163.015l-.001.001zm.868-6.976v4.601l3.8-2.189v-4.417l-3.8 2.005zm-5.533 2.415l3.8 2.189v-4.603l-3.8-2.004v4.418zm.997-5.862l3.67 1.935 3.627-1.914-3.772-1.888-3.525 1.867z"/></svg>