<!-- Generated by IcoMoon.io -->
<svg version="1.1" xmlns="http://www.w3.org/2000/svg" width="32" height="32" viewBox="0 0 32 32">
<title>tumblr</title>
<path d="M13.94 18.119c0-1.061-0.005-2.122 0.005-3.184 0.002-0.205-0.058-0.255-0.242-0.25-0.486 0.013-0.972-0.004-1.458 0.009-0.18 0.004-0.25-0.035-0.244-0.246 0.015-0.543 0.012-1.088 0.001-1.631-0.003-0.168 0.049-0.248 0.191-0.321 0.879-0.443 1.625-1.059 2.178-1.922 0.449-0.701 0.703-1.476 0.726-2.325 0.005-0.208 0.065-0.252 0.246-0.248 0.494 0.012 0.989 0.014 1.483-0.001 0.191-0.005 0.24 0.058 0.239 0.256-0.007 1.213 0.004 2.425-0.005 3.638-0.001 0.222 0.054 0.282 0.261 0.281 1.122-0.009 2.246 0.006 3.368-0.006 0.218-0.002 0.266 0.069 0.263 0.285-0.011 0.669-0.010 1.338 0.003 2.006 0.003 0.197-0.062 0.233-0.23 0.232-1.131-0.007-2.263 0.001-3.393-0.008-0.198-0.001-0.273 0.035-0.271 0.271 0.011 1.543 0.004 3.085 0.007 4.628 0 0.177 0.014 0.357 0.042 0.532 0.146 0.889 0.761 1.44 1.61 1.462 0.823 0.022 1.584-0.24 2.335-0.556 0.276-0.116 0.276-0.117 0.276 0.187 0.001 0.669 0 1.338 0.003 2.006 0.001 0.116-0.005 0.202-0.137 0.238-1.509 0.414-3.031 0.685-4.596 0.473-0.544-0.074-1.066-0.236-1.534-0.555-0.738-0.501-1.099-1.236-1.117-2.151-0.020-1.034-0.005-2.068-0.005-3.103-0.001 0-0.002 0-0.003 0l-0.001 0.001z"></path>
</svg>
