<!-- Generated by IcoMoon.io -->
<svg version="1.1" xmlns="http://www.w3.org/2000/svg" width="32" height="32" viewBox="0 0 32 32">
<title>untitled10</title>
<path d="M5.313 20.344v-8.875h5.375v1.406h-3.844v2.344h3.531v1.25h-3.531v2.594h3.844v1.281h-5.375zM11.438 15.844q0 2.594 0.734 3.609t2.891 1.016q1.75 0 2.438-0.813t0.781-2.563h-1.469q-0.125 1.25-0.438 1.703t-1.313 0.453q-1.25 0-1.609-0.594t-0.359-2.813q0-1.938 0.359-2.547t1.609-0.609q1 0 1.328 0.422t0.422 1.641h1.469q-0.094-1.781-0.688-2.625t-2.531-0.844q-2.031 0-2.828 0.953t-0.797 3.609zM19.438 15.844q0-2.656 0.75-3.609t2.844-0.953q2.031 0.063 2.781 1t0.75 3.563q0 2.594-0.719 3.609t-2.813 1.016q-2.125 0-2.859-1.016t-0.734-3.609zM21.063 15.844q0 2.219 0.375 2.813t1.594 0.594q1.188 0 1.578-0.594t0.391-2.813q0-1.938-0.375-2.547t-1.594-0.609-1.594 0.578-0.375 2.578z"></path>
</svg>
