<!-- Generated by IcoMoon.io -->
<svg version="1.1" xmlns="http://www.w3.org/2000/svg" width="32" height="32" viewBox="0 0 32 32">
<title>locked</title>
<path d="M20.953 14.519v-2.075c0-2.454-1.924-4.444-4.286-4.444-2.367 0-4.286 1.989-4.286 4.444v2.075c-0.947 0.003-1.714 0.794-1.714 1.783v5.915c0 0.985 0.769 1.783 1.719 1.783h8.561c0.95 0 1.719-0.792 1.719-1.783v-5.915c0-0.984-0.767-1.781-1.714-1.783h0.001zM17.115 19.181v1.982c0 0.245-0.201 0.456-0.448 0.456-0.24 0-0.448-0.204-0.448-0.456v-1.982c-0.522-0.191-0.761-0.637-0.761-1.183 0-0.693 0.541-1.254 1.21-1.254s1.21 0.562 1.21 1.254c0 0.546-0.24 0.992-0.762 1.183zM19.239 14.519h-5.143v-2.073c0-1.476 1.151-2.667 2.572-2.667 1.417 0 2.572 1.194 2.572 2.667v2.073h-0.001z"></path>
</svg>
