<!-- Generated by IcoMoon.io -->
<svg version="1.1" xmlns="http://www.w3.org/2000/svg" width="32" height="32" viewBox="0 0 32 32">
<title>untitled8</title>
<path d="M3.531 16.063q0 0.219 0.141 0.375t0.359 0.156h2.125l-0.563 1q-0.125 0.188-0.063 0.391t0.25 0.328q0.063 0.031 0.125 0.047t0.125 0.016q0.125 0 0.25-0.078t0.188-0.203l0.875-1.531h1.469l-1.75 3.031q-0.094 0.188-0.047 0.391t0.234 0.297q0.063 0.063 0.125 0.078t0.125 0.016q0.156 0 0.266-0.078t0.203-0.203l2.031-3.531h1.375q0.125 1 0.609 1.844t1.266 1.406l-0.719 1.219h-4.031q-0.219 0-0.375 0.156t-0.156 0.375 0.156 0.359 0.375 0.141h3.469l-0.75 1.281h-1.75q-0.219 0-0.359 0.141t-0.141 0.359 0.141 0.375 0.359 0.156h1.156l-1.063 1.844q-0.094 0.188-0.031 0.391t0.219 0.328q0.063 0.031 0.125 0.047t0.156 0.016q0.125 0 0.25-0.063t0.188-0.188l1.063-1.875 0.594 1.031q0.063 0.125 0.188 0.188t0.25 0.063q0.063 0 0.125-0.016t0.125-0.047q0.188-0.125 0.25-0.328t-0.063-0.391l-0.875-1.5 0.719-1.281 1.75 3.031q0.063 0.125 0.188 0.188t0.25 0.063q0.063 0 0.125-0.016t0.125-0.047q0.188-0.094 0.25-0.313t-0.063-0.406l-2.031-3.531 0.688-1.219q0.438 0.188 0.906 0.297t0.969 0.109 0.969-0.109 0.906-0.297l0.688 1.219-2.031 3.531q-0.094 0.188-0.047 0.406t0.234 0.313q0.063 0.031 0.125 0.047t0.125 0.016q0.156 0 0.266-0.063t0.203-0.188l1.719-3.031 0.719 1.25-0.875 1.531q-0.094 0.188-0.031 0.406t0.219 0.313q0.063 0.031 0.125 0.047t0.156 0.016q0.125 0 0.25-0.063t0.188-0.188l0.594-1.031 1.063 1.875q0.063 0.125 0.188 0.188t0.25 0.063q0.063 0 0.125-0.016t0.125-0.047q0.188-0.094 0.25-0.313t-0.063-0.406l-1.063-1.844h1.156q0.219 0 0.375-0.156t0.156-0.375q0-0.188-0.156-0.344t-0.375-0.156h-1.75l-0.719-1.281h3.469q0.188 0 0.344-0.141t0.156-0.359-0.156-0.375-0.344-0.156h-4.063l-0.719-1.219q0.75-0.563 1.25-1.406t0.625-1.844h1.375l2.031 3.563q0.063 0.125 0.188 0.188t0.25 0.063q0.063 0 0.125-0.016t0.125-0.047q0.188-0.125 0.25-0.328t-0.063-0.391l-1.719-3h1.438l0.875 1.531q0.094 0.125 0.203 0.188t0.266 0.063q0.063 0 0.125-0.016t0.125-0.047q0.188-0.094 0.234-0.313t-0.047-0.406l-0.594-1h2.125q0.219 0 0.375-0.156t0.156-0.375-0.156-0.375-0.344-0.156h-2.125l0.563-1q0.125-0.188 0.063-0.406t-0.25-0.313-0.391-0.047-0.297 0.234l-0.875 1.531h-1.469l1.75-3q0.094-0.188 0.047-0.406t-0.234-0.313q-0.188-0.125-0.391-0.063t-0.328 0.25l-2.031 3.531h-1.375q-0.125-1-0.625-1.844t-1.25-1.406l0.719-1.219h4.031q0.219 0 0.375-0.141t0.156-0.359-0.156-0.375-0.375-0.156h-3.438l0.719-1.25h1.75q0.219 0 0.375-0.156t0.156-0.375-0.156-0.375-0.375-0.156h-1.156l1.063-1.844q0.094-0.188 0.047-0.391t-0.234-0.328q-0.188-0.094-0.391-0.047t-0.328 0.234l-1.063 1.875-0.563-1.031q-0.125-0.188-0.328-0.234t-0.391 0.047q-0.188 0.125-0.234 0.328t0.047 0.391l0.875 1.531-0.719 1.25-1.75-3q-0.094-0.188-0.297-0.25t-0.391 0.063q-0.188 0.094-0.25 0.313t0.063 0.406l2.031 3.531-0.719 1.219q-0.406-0.188-0.891-0.297t-0.953-0.109q-0.5 0-0.969 0.109t-0.906 0.297l-0.688-1.219 2.031-3.531q0.094-0.188 0.031-0.406t-0.219-0.313q-0.188-0.125-0.406-0.063t-0.313 0.25l-1.719 3-0.719-1.25 0.875-1.531q0.125-0.188 0.063-0.391t-0.25-0.328q-0.188-0.094-0.391-0.047t-0.297 0.234l-0.594 1.031-1.063-1.875q-0.125-0.188-0.328-0.234t-0.391 0.047q-0.188 0.125-0.234 0.328t0.047 0.391l1.063 1.844h-1.156q-0.219 0-0.375 0.156t-0.156 0.375 0.156 0.359 0.375 0.141h1.75l0.719 1.281h-3.438q-0.219 0-0.375 0.141t-0.156 0.359 0.156 0.375 0.375 0.156h4.063l0.688 1.219q-0.75 0.563-1.25 1.406t-0.625 1.844h-1.375l-2.031-3.531q-0.125-0.188-0.328-0.234t-0.391 0.047-0.234 0.313 0.047 0.406l1.75 3h-1.469l-0.875-1.531q-0.094-0.188-0.297-0.234t-0.391 0.047q-0.188 0.125-0.25 0.328t0.063 0.391l0.563 1h-2.125q-0.219 0-0.359 0.156t-0.141 0.375zM12.375 16.063q0-0.125 0.016-0.266t0.047-0.266q0.094-0.688 0.453-1.297t0.891-1.016q0.188-0.156 0.406-0.297t0.469-0.234q0.313-0.125 0.656-0.203t0.688-0.078 0.688 0.078 0.656 0.203q0.25 0.094 0.469 0.234t0.406 0.297q0.531 0.406 0.891 1.016t0.453 1.297q0 0.125 0.031 0.266t0.031 0.266-0.031 0.25-0.031 0.25q-0.094 0.719-0.453 1.313t-0.891 1.031q-0.188 0.156-0.406 0.297t-0.469 0.234q-0.313 0.125-0.656 0.188t-0.688 0.063-0.688-0.063-0.656-0.188q-0.25-0.094-0.469-0.234t-0.406-0.297q-0.531-0.438-0.891-1.031t-0.453-1.313q-0.031-0.125-0.047-0.25t-0.016-0.25z"></path>
</svg>
