<svg xmlns="http://www.w3.org/2000/svg" width="100%" height="100%" viewBox="0 0 32 32"><path d="M24 12.817v-1.925h-.485V9.448c0-.265-.217-.481-.485-.481s-.485.216-.485.481v1.444h-.969V9.448c0-.265-.217-.481-.485-.481s-.485.216-.485.481v1.444h-.485v1.925c0 .897.621 1.644 1.454 1.86v1.513c0 1.003.262 1.825.514 2.617.233.727.455 1.413.455 2.196-.005.241-.086 1.448-1.454 1.448s-1.454-1.208-1.454-1.444v-3.85c0-1.905-1.267-2.406-1.938-2.406v-5.79c0-.531-.434-.962-.969-.962H9.936c-.535 0-.969.431-.969.962v15.408h-.969v.962h10.665v-.962h-.969v-8.667c.04 0 .969.015.969 1.444v3.85c0 .832.505 2.406 2.423 2.406s2.423-1.574 2.423-2.406c0-.938-.253-1.724-.5-2.491-.242-.757-.469-1.468-.469-2.326v-1.513c.838-.21 1.459-.958 1.459-1.849v-.001zm-7.273 11.554H9.938v-9.629h6.789v9.629zm0-10.592H9.938V8.962h6.789v4.817zm5.335 0c-.535 0-.969-.431-.969-.962v-.962h1.938v.962c0 .531-.434.962-.969.962z"/></svg>