<!-- Generated by IcoMoon.io -->
<svg version="1.1" xmlns="http://www.w3.org/2000/svg" width="32" height="32" viewBox="0 0 32 32">
<title>callback</title>
<path d="M19.735 19.001l4.265 1.541-0.256 0.959c0 0-0.833 3.042-2.836 2.413l-1.296-0.604c0 0-6.483-4.154-9.685-9.814l-0.518-1.562c-0.582-2.15 2.427-2.449 2.427-2.449l0.404-0.188 2.201 4.052c0 0-0.543 0.225-0.675 0.282-0.038 0.020-0.080 0.033-0.126 0.038-0.005 0-0.011-0.003 0 0s0.035 0.020 0.040 0.087c0.114 1.443 1.766 3.397 1.766 3.397l0.605 0.61c1.261 1.27 3.354 1.942 3.354 1.942 0.101 0.026 0.129 0.127 0.204-0.134 0.030-0.072 0.127-0.57 0.127-0.57zM18.939 12.835v-0.001 2.198l-3.866-3.516 3.866-3.516v2.238h4.145v2.597h-4.145z"></path>
</svg>
