<!-- Generated by IcoMoon.io -->
<svg version="1.1" xmlns="http://www.w3.org/2000/svg" width="32" height="32" viewBox="0 0 32 32">
<title>youtube</title>
<path d="M23.839 12.968c0 0-0.156-1.045-0.636-1.505-0.609-0.604-1.29-0.607-1.603-0.642-2.239-0.153-5.597-0.153-5.597-0.153h-0.007c0 0-3.358 0-5.597 0.153-0.313 0.035-0.994 0.038-1.603 0.642-0.48 0.46-0.635 1.505-0.635 1.505s-0.16 1.227-0.16 2.454v1.151c0 1.227 0.16 2.454 0.16 2.454s0.156 1.045 0.636 1.505c0.609 0.604 1.408 0.585 1.764 0.648 1.28 0.116 5.44 0.152 5.44 0.152s3.362-0.005 5.601-0.158c0.313-0.035 0.994-0.038 1.603-0.642 0.48-0.46 0.636-1.505 0.636-1.505s0.16-1.227 0.16-2.454v-1.151c0-1.227-0.16-2.454-0.16-2.454h-0.001zM14.348 17.967l-0.001-4.261 4.323 2.138-4.322 2.123z"></path>
</svg>
