<!-- Generated by IcoMoon.io -->
<svg version="1.1" xmlns="http://www.w3.org/2000/svg" width="32" height="32" viewBox="0 0 32 32">
<title>settings</title>
<path d="M9.895 10.957v-0.002c-0.31 0-0.562-0.261-0.562-0.582s0.252-0.582 0.562-0.582h9.587c0.252-1.029 1.151-1.792 2.225-1.792 1.268 0 2.293 1.061 2.293 2.375s-1.026 2.375-2.293 2.375c-1.074 0-1.973-0.763-2.225-1.792h-9.587zM21.707 19.252v-0.002c1.268 0 2.293 1.061 2.293 2.375s-1.026 2.375-2.293 2.375c-1.074 0-1.973-0.763-2.225-1.792h-9.587c-0.31 0-0.562-0.261-0.562-0.582s0.252-0.582 0.562-0.582h9.587c0.252-1.029 1.151-1.792 2.225-1.792zM13.94 16.003c0 1.311-1.026 2.375-2.293 2.375s-2.293-1.063-2.293-2.375c0-1.311 1.026-2.375 2.293-2.375s2.293 1.063 2.293 2.375zM15.383 16.003c0 0.257-0.201 0.466-0.449 0.466s-0.449-0.209-0.449-0.466c0-0.257 0.201-0.466 0.449-0.466s0.449 0.209 0.449 0.466zM16.808 16.003c0 0.257-0.201 0.466-0.449 0.466s-0.449-0.209-0.449-0.466c0-0.257 0.201-0.466 0.449-0.466s0.449 0.209 0.449 0.466zM18.233 16.003c0 0.257-0.201 0.466-0.449 0.466s-0.449-0.209-0.449-0.466c0-0.257 0.201-0.466 0.449-0.466s0.449 0.209 0.449 0.466zM19.662 16.003c0 0.257-0.201 0.466-0.449 0.466s-0.449-0.209-0.449-0.466c0-0.257 0.201-0.466 0.449-0.466s0.449 0.209 0.449 0.466zM21.087 16.003c0 0.257-0.201 0.466-0.449 0.466s-0.449-0.209-0.449-0.466c0-0.257 0.201-0.466 0.449-0.466s0.449 0.209 0.449 0.466zM22.512 16.003c0 0.257-0.201 0.466-0.449 0.466s-0.449-0.209-0.449-0.466c0-0.257 0.201-0.466 0.449-0.466s0.449 0.209 0.449 0.466z"></path>
</svg>
