<!-- Generated by IcoMoon.io -->
<svg version="1.1" xmlns="http://www.w3.org/2000/svg" width="32" height="32" viewBox="0 0 32 32">
<title>sport-engine-pcm</title>
<path d="M6.118 17.719c0 0.124 0.005 0.475 0.021 0.635 0.021 0.216 0.11 0.418 0.267 0.619l1.861 0.335 0.084 0.196c0.267 0.635 0.883 1.047 1.578 1.047 0.57 0 1.103-0.278 1.422-0.748l0.115-0.17h7.998l0.831-0.010 0.12 0.175c0.319 0.475 0.852 0.759 1.427 0.759 0.59 0 1.134-0.3 1.448-0.8l0.105-0.165 0.193-0.016c0.010 0 1.187-0.108 1.767-0.155 0.037-0.016 0.125-0.067 0.214-0.144 0.151-0.124 0.304-0.521 0.314-1.037-0.157-0.423-1.061-1.981-5.949-2.44l-0.084-0.010-0.073-0.041c-0.246-0.139-0.497-0.284-0.742-0.428-1.098-0.64-2.342-1.367-3.037-1.367-1.851 0-3.764 0.552-5.855 1.316l-0.418-0.619-2.144-2.105 0.554-0.546 2.379 2.347c1.777-0.568 3.481-1.16 5.489-1.16 0.909 0 2.133 0.717 3.434 1.47 0.219 0.129 0.439 0.258 0.659 0.382 2.149 0.211 3.827 0.66 4.987 1.331 1.118 0.65 1.464 1.346 1.568 1.703l0.016 0.052v0.057c0 0.748-0.225 1.383-0.596 1.692-0.162 0.135-0.408 0.3-0.637 0.319-0.434 0.036-1.239 0.108-1.6 0.14-0.471 0.629-1.203 1-2.002 1-0.764 0-1.48-0.346-1.95-0.929l-0.423 0.005h-7.585c-0.471 0.583-1.187 0.924-1.945 0.924-0.941 0-1.788-0.516-2.216-1.331l-1.726-0.314-0.089-0.103c-0.319-0.361-0.497-0.738-0.539-1.156-0.021-0.227-0.026-0.665-0.026-0.717 0-0.294 0.198-0.697 0.585-1.187 0.125-0.16 0.554-0.681 0.836-0.789l0.298 0.727c-0.239 0.158-0.924 1.009-0.935 1.256z"></path>
</svg>
