<svg xmlns="http://www.w3.org/2000/svg" width="100%" height="100%" viewBox="0 0 32 32"><path d="M7.827 15.008c-.043-.008-.023-.024-.072-.01s-.115.057-.134.009l-.329.039c-.096.012-.085.042.053.108l-.496.056c-.1.012-.096.053.074.129l-.031.011c-.104.052-.237.109-.373.16-.145.064-.281.098-.424.102-.13.038-.122.132-.059.191-.259.192-.547.469-.646.786-.039.127-.008.276.005.412l.021.229c.008.081.012.174.012.269 0 .047-.001.094-.003.14-.008-.005-.015-.004-.022-.003-.012.005-.022.017-.024.032-.003.012-.004.025-.004.039s.001.027.004.04c.005.018.016.036.029.04h.003c-.017.122-.042.23-.076.335.003-.012.003-.009.003-.006 0 .009.003.017.008.023-.003 0 .009.013.009.013.008.009.016.019.023.03-.005.001-.009.001-.013.003-.026.011-.036.041-.031.077v.006c0 .002 0 .009.003.014.02.096.047.181.081.261.029.077.046.125.091.158.018.042.035.067.05.065l.145-.006.062.001c.048 0 .095-.003.141-.009.034.024.082.041.132.048.013.005.027.007.04.007h.001l.091.013.01.001.011-.001c.005.002.006 0 .006 0 .023-.008.048-.013.074-.014.519.048 1.215.234 1.72.279.021.002.612.127.612.127.146.246.348.447.59.591.248.142.547.194.839.194.219 0 .444-.018.637-.098.159-.067.297-.148.42-.244l.642.119.053-.597h.019c.059 0 .031.273.051.273h.201c.032 0 .033-.055.057-.079.171-.173.44-.202.872-.237l7.429.082.401.051c.145.225.339.409.568.541.248.139.547.19.839.19.219 0 .444-.017.637-.096.197-.08.366-.183.514-.311l.425.056.306.087c.004-.047.006-.106.008-.172.008-.042.017-.071.024-.071.038.002.082.003.127.003.156 0 .308-.015.455-.044.059-.012.135-.056.214-.083.135-.047.32-.124.445-.133.077-.002.151-.01.223-.022l-.009.001h.005c.083-.015.144-.032.221-.038.051-.005.157.032.211.022.1-.018.214-.071.371-.094.091-.013.093-.124.12-.168.018-.032.115-.018.128-.077.014-.071.036-.109-.012-.172-.057-.065-.113-.123-.173-.179.048-.188.137-.496.158-.758.012-.137.005-.26-.035-.346-.118-.251-.309-.399-.537-.533h.005l-.013-.005-.066-.038c-.47-.265-.738-.403-1.226-.628-.113-.075-.287-.187-.467-.286-.078-.046-.169-.091-.264-.13-.097-.045-.194-.069-.296-.073-.388-.042-.883-.073-1.269-.113-.47-.082-1.004-.189-1.473-.272-.093.009-.177.024-.259.044l-.118.007.018-.003-.25-.102-.21-.013c-.878-.509-1.984-1.183-3.076-1.591l-.066-.057-.021.015c-.028-.021-.059-.04-.093-.055-1.202-.331-2.245-.265-3.395-.125-.416.05-.959.152-1.405.251-1.208.27-2.295.639-3.475 1.025-.031-.017-.16 0-.195-.007-.094.024-.171.05-.246.079-.062.022.188.025.112.051l-.07.024-.013-.019-.512.007c-.121 0-.092.057.115.15l.004-.003z"/></svg>