<svg xmlns="http://www.w3.org/2000/svg" width="100%" height="100%" viewBox="0 0 32 32"><path d="M23.47 12l.42.589-3.529 2.355-.535-.035-.088-.059c-.473-.338-1.479-.947-2.891-1.26h-.005c-.888-.211-2.279-.211-2.803-.211h-.14c-1.588 0-3.623.427-4.313.643-.8.25-2.668.839-3.068 1.398-.171.265-.353 1.07-.404 1.775.046.148.358.584.664.761l1.536.192.093.177c.306.584.929.947 1.614.947.586 0 1.142-.27 1.511-.736l.12-.148h9.379l.114.177c.291.442.846.706 1.49.706.695 0 1.334-.363 1.666-.951l.083-.148.171-.039c.591-.133.971-.25 1.168-.319.062-.226.156-.667.166-1.202-.15-.187-.784-.652-1.183-.844l.353-.658c.26.122.628.353.939.593.591.447.669.667.669.839 0 .932-.244 1.633-.254 1.663l-.052.152-.156.064c-.016.005-.415.172-1.308.383-.487.741-1.34 1.197-2.263 1.197-.83 0-1.573-.329-2.025-.883H12.03c-.514.564-1.236.883-2.009.883-.913 0-1.739-.447-2.206-1.177l-1.271-.162-.057-.03c-.54-.25-1.153-1.011-1.153-1.428v-.024c.042-.608.213-1.687.524-2.158l.005-.009c.498-.706 2.055-1.246 3.472-1.692.732-.231 2.886-.682 4.562-.682h.14c.602 0 2.009 0 2.99.231 1.463.323 2.533.947 3.088 1.325l3.355-2.193z"/></svg>