<svg xmlns="http://www.w3.org/2000/svg" width="100%" height="100%" viewBox="0 0 32 32"><path d="M8.078 10.871l.566 1.696c.638 1.16 1.442 2.312 2.414 3.457s1.914 2.138 2.827 2.979c.913.841 1.776 1.587 2.588 2.24s1.471 1.153 1.979 1.5l.761.522 1.392.653c.406.116.797.109 1.175-.022s.674-.333.891-.609c.217-.276.413-.573.587-.891s.298-.58.369-.783c.072-.203.108-.319.109-.348l.261-1.044-4.654-1.653c-.058.348-.102.551-.131.609-.029.116-.058.181-.087.196s-.058.007-.087-.022c-.029 0-.044-.015-.044-.044-1.537-.464-2.755-1.16-3.653-2.087l-.696-.653c-1.189-1.421-1.827-2.653-1.913-3.697 0-.087.029-.131.087-.131l.74-.348-2.392-4.393-.435.218c-.087 0-.203.015-.348.044s-.398.102-.761.218-.667.261-.914.435-.442.435-.587.783c-.145.348-.16.739-.044 1.175l.001-.001z"/></svg>