<!-- Generated by IcoMoon.io -->
<svg version="1.1" xmlns="http://www.w3.org/2000/svg" width="32" height="32" viewBox="0 0 32 32">
<title>forgot-password</title>
<path d="M23.289 17.45l0.001 0.001c0.477 0.346 0.714 0.859 0.71 1.539-0.002 0.397-0.134 0.763-0.352 1.053-0.119 0.173-0.393 0.395-0.738 0.664l-0.381 0.265c-0.185 0.145-0.349 0.312-0.407 0.496-0.039 0.119-0.060 0.245-0.062 0.378-0.002 0.064-0.055 0.115-0.119 0.115-0.004 0-0.008 0-0.012-0.001h-1.077c-0.119 0-0.13-0.071-0.13-0.105 0.016-0.483 0.033-0.821 0.225-1.047 0.332-0.388 0.982-0.797 1.086-0.876s0.196-0.172 0.273-0.282c0.128-0.176 0.233-0.37 0.233-0.582 0-0.002 0-0.005 0-0.007 0-0.248-0.080-0.477-0.212-0.66-0.142-0.2-0.4-0.3-0.776-0.3-0.369 0-0.63 0.122-0.783 0.364-0.146 0.222-0.232 0.488-0.235 0.775h-1.384c0.039-0.914 0.357-1.562 0.954-1.944 0.376-0.244 0.838-0.366 1.388-0.366 0.722-0 1.321 0.173 1.798 0.52zM20.937 22.587h1.005c0.11 0 0.199 0.089 0.199 0.2v1.012c0 0.11-0.089 0.2-0.199 0.2h-1.005c-0.11 0-0.199-0.089-0.199-0.2v-1.012c0-0.11 0.089-0.2 0.199-0.2zM17.132 19.763l0.001 0.001c0 0.774 0.357 1.484 0.946 2.031-0.658 0.020-1.418 0.032-2.295 0.032-5.419 0-6.45-0.461-6.45-0.461 0-1.93 3.703-4.058 4.765-4.228 0.33-0.053 0.337-0.966 0.337-0.966s-0.962-1.509-1.18-2.263c-0.218-0.754-1.080-5.909 2.496-5.909s2.919 4.628 2.381 6.016c-0.311 0.775-0.681 1.52-1.066 2.158 0 0 0.007 0.913 0.337 0.966 0.225 0.035 0.567 0.159 0.966 0.349-0.76 0.573-1.238 1.38-1.238 2.275z"></path>
</svg>
