<!-- Generated by IcoMoon.io -->
<svg version="1.1" xmlns="http://www.w3.org/2000/svg" width="32" height="32" viewBox="0 0 32 32">
<title>speed-next</title>
<path d="M12.411 12.94h0.001l-0.52-0.511c-0.714 0.823-1.175 1.876-1.257 3.029h0.723v0.75h-0.723c0.082 1.153 0.542 2.206 1.257 3.029l0.511-0.511 0.524 0.524-1.035 1.035c-1.234-1.089-2.015-2.676-2.015-4.452 0-3.282 2.663-5.944 5.944-5.944 1.776 0 3.363 0.782 4.452 2.015l-1.035 1.035-0.524-0.524 0.511-0.511c-0.823-0.714-1.876-1.175-3.029-1.257v0.723h-0.741v-0.723c-1.153 0.082-2.201 0.542-3.029 1.257l0.511 0.511-0.524 0.524zM15.457 16.198l0.001-0.001c0-0.067 0.009-0.131 0.027-0.189l-2.147-2.147-0.108-0.633 0.633 0.108 2.147 2.147c0.059-0.013 0.122-0.027 0.189-0.027 0.407 0 0.741 0.33 0.741 0.741 0 0.407-0.33 0.741-0.741 0.741-0.406 0-0.741-0.33-0.741-0.741zM10.626 10.626h-2.101l0.524-0.524-1.049-1.053 1.049-1.049 1.053 1.049 0.524-0.524v2.101zM24 19.543h-0.015v0.37h-0.438c0.041 0.095 0.068 0.199 0.068 0.307v3.408c0 0.203-0.167 0.37-0.37 0.37h-0.741c-0.203 0-0.37-0.167-0.37-0.37v-0.741h-5.202v0.741c0 0.203-0.167 0.37-0.37 0.37h-0.741c-0.203 0-0.37-0.167-0.37-0.37v-3.408c0-0.108 0.022-0.213 0.068-0.307h-0.438v-0.37l1.117-0.37 0.524-0.782c0.14-0.208 0.37-0.33 0.619-0.33h4.402c0.249 0 0.483 0.122 0.619 0.33l0.524 0.782 1.117 0.37zM17.202 18.965l-0.633 0.95h5.939l-0.633-0.95c-0.068-0.104-0.185-0.167-0.307-0.167h-4.059c-0.122 0-0.239 0.063-0.307 0.167zM17.685 21.305v-0.556c0-0.054-0.045-0.095-0.095-0.095h-1.302c-0.054 0-0.095 0.045-0.095 0.095v0.556c0 0.054 0.045 0.095 0.095 0.095h1.302c0.054 0 0.095-0.045 0.095-0.095zM22.883 21.305v-0.556c0-0.054-0.045-0.095-0.095-0.095h-1.302c-0.054 0-0.095 0.045-0.095 0.095v0.556c0 0.054 0.045 0.095 0.095 0.095h1.302c0.054 0 0.095-0.045 0.095-0.095z"></path>
</svg>
