<!-- Generated by IcoMoon.io -->
<svg version="1.1" xmlns="http://www.w3.org/2000/svg" width="32" height="32" viewBox="0 0 32 32">
<title>limousine-engine-pcm</title>
<path d="M10.769 14.215c0.939-0.184 2.123-0.349 3.13-0.349h0.14c0.602 0 2.009 0 2.99 0.234 1.463 0.328 2.533 0.96 3.088 1.344 2.523 0.204 4.095 0.502 4.941 0.925 0.26 0.124 0.628 0.358 0.939 0.602 0.591 0.453 0.669 0.677 0.669 0.851 0 0.946-0.244 1.657-0.254 1.688l-0.052 0.154-0.156 0.064c-0.016 0.005-0.415 0.174-1.308 0.389-0.487 0.752-1.34 1.214-2.263 1.214-0.83 0-1.573-0.334-2.025-0.896h-8.579c-0.514 0.573-1.236 0.896-2.009 0.896-0.913 0-1.739-0.453-2.206-1.195l-1.271-0.164-0.057-0.030c-0.54-0.254-1.153-1.026-1.153-1.449v-0.025c0.042-0.617 0.213-1.712 0.524-2.19l0.659 0.398c-0.171 0.269-0.353 1.085-0.404 1.801 0.046 0.15 0.358 0.593 0.664 0.772l1.536 0.194 0.093 0.179c0.306 0.593 0.929 0.96 1.614 0.96 0.586 0 1.142-0.274 1.511-0.747l0.12-0.15h9.379l0.114 0.179c0.291 0.448 0.846 0.717 1.49 0.717 0.695 0 1.334-0.368 1.666-0.965l0.083-0.15 0.171-0.040c0.591-0.135 0.971-0.254 1.168-0.323 0.062-0.229 0.156-0.677 0.166-1.219-0.15-0.19-0.784-0.662-1.183-0.856l-0.005-0.005c-0.752-0.378-2.305-0.657-4.754-0.856l-0.114-0.010-0.094-0.055c-0.473-0.343-1.479-0.96-2.891-1.279h-0.005c-0.888-0.214-2.279-0.214-2.803-0.214h-0.14c-1.276 0-2.849 0.279-3.774 0.502l-0.198-0.702-1.947-1.867 0.519-0.548 2.27 2.215z"></path>
</svg>
