<!-- Generated by IcoMoon.io -->
<svg version="1.1" xmlns="http://www.w3.org/2000/svg" width="32" height="32" viewBox="0 0 32 32">
<title>video-quali</title>
<path d="M8.001 18.638l1.652 2.723c0.464-0.279 0.985-0.419 1.565-0.419 0.869 0 1.609 0.3 2.217 0.901s0.913 1.319 0.913 2.157h3.261c0-0.558 0.145-1.061 0.435-1.508 0.435-0.726 1.073-1.201 1.913-1.424s1.637-0.126 2.391 0.294l1.652-2.723c-0.493-0.279-0.884-0.642-1.174-1.089-0.435-0.726-0.537-1.501-0.305-2.325s0.724-1.445 1.478-1.864l-1.609-2.723c-0.493 0.279-1.029 0.419-1.609 0.419-0.869 0-1.609-0.293-2.217-0.88s-0.913-1.313-0.913-2.178h-3.261c0 0.558-0.145 1.075-0.435 1.55-0.435 0.726-1.072 1.194-1.913 1.403s-1.652 0.105-2.434-0.314l-1.609 2.723c0.493 0.279 0.884 0.656 1.174 1.131 0.435 0.726 0.537 1.494 0.305 2.304s-0.725 1.424-1.478 1.843l0.001-0.001zM12.653 15.999c0-0.893 0.326-1.654 0.978-2.282s1.442-0.942 2.369-0.942c0.927 0 1.717 0.314 2.369 0.942s0.978 1.389 0.978 2.282c0 0.894-0.326 1.654-0.978 2.282s-1.442 0.942-2.369 0.942c-0.927 0-1.717-0.314-2.369-0.942s-0.978-1.389-0.978-2.282v0z"></path>
</svg>
