<svg xmlns="http://www.w3.org/2000/svg" width="100%" height="100%" viewBox="0 0 32 32"><path d="M20.281 15.342l3.574-2.653-.444-.69-3.391 2.508s-.376-.25-.59-.383c-1.301-.818-2.524-1.585-3.433-1.585-2.582 0-5.481 1.201-8.287 2.363-.324.133-.643.267-.956.395-.283.117-.711.678-.836.851-.386.529-.585.962-.585 1.28 0 .056 0 .522.026.773.042.45.22.856.538 1.246l.089.111 1.725.339c.423.879 1.27 1.435 2.215 1.435.762 0 1.473-.367 1.944-.996l8.015-.005c.471.628 1.186 1.001 1.949 1.001.794 0 1.531-.4 2.001-1.078.36-.034 1.16-.111 1.599-.15.23-.022.471-.2.637-.344.371-.334.595-1.012.595-1.824v-.061l-.016-.056c-.105-.384-.455-1.129-1.568-1.836l-.439.69c.889.545 1.16 1.095 1.238 1.323-.01.561-.162.984-.314 1.118-.089.077-.177.139-.214.156-.58.05-1.756.167-1.767.167l-.193.017-.105.178c-.314.539-.857.862-1.447.862-.575 0-1.108-.306-1.426-.818l-.12-.189-.831.011h-7.995l-.115.183c-.319.506-.852.806-1.421.806-.695 0-1.317-.445-1.578-1.129l-.084-.212-1.86-.361c-.157-.217-.246-.44-.267-.667-.016-.173-.021-.556-.021-.684.011-.267.695-1.184.936-1.357.314-.128.627-.255.941-.39 2.738-1.135 5.569-2.308 8.005-2.308.695 0 1.939.784 3.036 1.474.246.156.815.506.815.506l.424-.016z"/></svg>