<!-- Generated by IcoMoon.io -->
<svg version="1.1" xmlns="http://www.w3.org/2000/svg" width="32" height="32" viewBox="0 0 32 32">
<title>untitled11</title>
<path d="M5.375 15.969h1.406l0.563-1.781h3.375l0.594 1.781h1.594l-2.875-8.938h-1.844zM7.344 24.906l0.25-6.406h1.281l1.656 4.406 1.594-4.406h1.281l0.313 6.406h-1.063l-0.219-4.344-1.594 4.344h-0.688l-1.594-4.344-0.188 4.344h-1.031zM7.719 12.844l1.344-4.156 1.344 4.156h-2.688zM13.906 15.969l4.156-8.938h1.156l-4.156 8.938h-1.156zM14.313 24.906h1.094l0.438-1.281h2.375l0.375 1.281h1.156l-2.063-6.406h-1.344zM16.031 22.656l0.969-2.938 0.938 2.938h-1.906zM19.719 11.438q0-2.688 0.766-3.641t2.891-0.953q1.969 0 2.563 0.844t0.688 2.656h-1.469q-0.094-1.188-0.406-1.641t-1.375-0.453q-1.25 0-1.625 0.578t-0.375 2.609q0 2.25 0.375 2.844t1.625 0.594q1 0 1.344-0.453t0.438-1.703h1.469q-0.094 1.813-0.781 2.594t-2.469 0.781q-2.156 0-2.906-1.016t-0.75-3.641zM20.094 24.906l1.875-3.25-1.813-3.156h1.219l1.344 2.25 1.281-2.25h1.094l-1.781 3.156 1.844 3.25h-1.219l-1.406-2.375-1.344 2.375h-1.094z"></path>
</svg>
