<!-- Generated by IcoMoon.io -->
<svg version="1.1" xmlns="http://www.w3.org/2000/svg" width="32" height="32" viewBox="0 0 32 32">
<title>afternoon</title>
<path d="M15.82 8h0.359c0.264 0 0.479 0.214 0.479 0.479v1.317c0 0.264-0.215 0.479-0.479 0.479h-0.359c-0.264 0-0.479-0.214-0.479-0.479v-1.317c0-0.264 0.214-0.479 0.479-0.479zM10.216 10.47l0.254-0.254c0.187-0.187 0.49-0.187 0.677 0l0.931 0.931c0.187 0.187 0.187 0.49 0 0.677l-0.254 0.254c-0.187 0.187-0.49 0.187-0.677 0l-0.931-0.931c-0.187-0.187-0.187-0.49 0-0.677zM8.479 15.341h1.317c0.264 0 0.479 0.214 0.479 0.479v0.359c0 0.264-0.214 0.479-0.479 0.479h-1.317c-0.264 0-0.479-0.215-0.479-0.479v-0.359c0-0.264 0.214-0.479 0.479-0.479zM10.216 20.852l0.931-0.931c0.187-0.187 0.49-0.187 0.677 0l0.254 0.254c0.187 0.187 0.187 0.49 0 0.677l-0.931 0.931c-0.187 0.187-0.49 0.187-0.677 0l-0.254-0.254c-0.187-0.187-0.187-0.49 0-0.677zM15.82 21.725h0.359c0.264 0 0.479 0.215 0.479 0.479v1.317c0 0.264-0.215 0.479-0.479 0.479h-0.359c-0.264 0-0.479-0.215-0.479-0.479v-1.317c0-0.264 0.214-0.479 0.479-0.479zM19.921 20.175l0.254-0.254c0.187-0.187 0.49-0.187 0.677 0l0.931 0.931c0.187 0.187 0.187 0.49 0 0.677l-0.254 0.254c-0.187 0.187-0.49 0.187-0.677 0l-0.931-0.931c-0.187-0.187-0.187-0.49 0-0.677zM22.204 15.341h1.317c0.264 0 0.479 0.214 0.479 0.479v0.359c0 0.264-0.215 0.479-0.479 0.479h-1.317c-0.264 0-0.479-0.215-0.479-0.479v-0.359c0-0.264 0.215-0.479 0.479-0.479zM19.921 11.147l0.931-0.931c0.187-0.187 0.49-0.187 0.677 0l0.254 0.254c0.187 0.187 0.187 0.49 0 0.677l-0.931 0.931c-0.187 0.187-0.49 0.187-0.677 0l-0.254-0.254c-0.187-0.187-0.187-0.49 0-0.677zM20.189 16c0 2.314-1.876 4.19-4.19 4.19s-4.19-1.876-4.19-4.19c0-2.314 1.876-4.19 4.19-4.19s4.19 1.876 4.19 4.19z"></path>
</svg>
