<svg xmlns="http://www.w3.org/2000/svg" width="100%" height="100%" viewBox="0 0 32 32"><path d="M16.012 14.858h-.028c-.898.025-1.623.822-1.623 1.812s.724 1.782 1.623 1.807h.028c.908-.02 1.623-.822 1.623-1.807s-.715-1.782-1.623-1.812h.001zm9.871.348c-2.06-1.812-5.518-4.455-9.872-4.539h-.024c-4.354.091-7.819 2.73-9.874 4.541-.095.088-.767.641-.781 1.364-.009.507.207.877.517 1.182 1.68 1.758 5.349 4.888 10.137 4.914h.024c4.798-.02 8.458-3.156 10.137-4.914.311-.315.527-.684.517-1.182-.014-.718-.686-1.28-.781-1.364l-.002-.002zM16 21.313c-2.357-.015-4.257-2.092-4.257-4.647s1.905-4.632 4.257-4.647c2.357.015 4.257 2.092 4.257 4.647S18.359 21.304 16 21.313z"/></svg>