<svg xmlns="http://www.w3.org/2000/svg" width="100%" height="100%" viewBox="0 0 32 32"><path d="M13.316 9.837h5.109v.924h-5.109v-.924zm3.639 3.696h6.641v.924h-6.641v-.924zm8.569-6.864l-.001-.002c.664 0 1.137.547 1.143 1.168v9.669c0 .667-.543 1.175-1.13 1.175h-8.704v2.66c0 1.498-1.304 2.475-1.852 2.819v2.508h-.894v-3.042l.236-.126c.018-.006 1.615-.851 1.615-2.159v-2.666h-3.193l-.409.522c.377.461 1.016 1.274 1.016 2.257 0 1.354-1.163 2.634-1.214 2.687l-.313-.31-.313-.304c.012-.013.977-1.075.977-2.072 0-.66-.479-1.399-.817-1.822-.083-.098-.198-.224-.198-.488s.159-.469.159-.469l.703-.891 1.124-1.558c1.163-1.611.249-2.27.249-2.27l-3.321 3.399-1.941 2.047-.607-.634 2.542-2.666v-4.244L7.469 14.88c-1.079 1.115-1.354 2.402-1.258 3.168.115.905 1.366 8.541 1.379 8.62h-.849c-.051-.317-1.271-7.583-1.385-8.507-.122-.963.198-2.567 1.501-3.914l3.519-3.637V7.838c0-.502.376-1.168 1.13-1.168h14.017zm.244 10.916l.001-.001V7.69c0-.079-.07-.158-.167-.158H11.368c-.089 0-.159.086-.159.165v7.485s1.967-2.006 2.024-2.066c.255-.264.613-.185.613-.185.147.026.409.119.536.383 0 0 .574.66.562 1.446-.019 1.05-.735 1.888-.862 2.026l-.658.97h12.171c.108 0 .173-.106.173-.172z"/></svg>