<svg xmlns="http://www.w3.org/2000/svg" width="100%" height="100%" viewBox="0 0 32 32"><path d="M23.989 20.578l.001.001c.053.332-.107.637-.4.719s-.587-.111-.64-.415l-.32-1.323C21.354 22.262 18.693 24 15.715 24 11.458 24 8 20.412 8 16s3.457-8 7.719-8c3.51 0 6.594 2.454 7.475 5.985.08.304-.107.609-.373.664-.293.083-.587-.111-.64-.387-.774-3.034-3.436-5.16-6.466-5.16-3.675 0-6.653 3.09-6.653 6.898s2.982 6.898 6.653 6.898c2.769 0 5.218-1.739 6.2-4.385l-1.995.498c-.293.083-.587-.111-.64-.415-.08-.304.107-.609.4-.664l2.951-.747c.053 0 .08-.028.134-.028.24 0 .453.167.506.415l.72 3.006zm-8.528-9.47h.001c.311 0 .56.258.555.576v3.91h2.231c.311 0 .56.263.56.581 0 .323-.254.581-.56.581h-2.72c-.107 0-.204-.028-.289-.083-.196-.092-.338-.295-.338-.535v-4.449c0-.322.253-.581.56-.581z"/></svg>