<svg xmlns="http://www.w3.org/2000/svg" width="100%" height="100%" viewBox="0 0 32 32"><path d="M22.706 12.692H20.11l-1.554-1.62s-.008-.008-.012-.008l-.008-.008c-.231-.238-.542-.389-.896-.389h-3.284c-.354 0-.665.151-.896.389l-.008.008c-.004 0-.012.008-.012.008l-1.554 1.62H9.29c-.711 0-1.292.58-1.292 1.319v8.026l.001-.583.006.003c.063.678.616 1.21 1.286 1.21h13.414c.67 0 1.223-.532 1.286-1.21l.006-.003.001.583v-8.026c0-.739-.581-1.319-1.292-1.319h-.002zm-6.707 6.964c-1.322 0-2.401-1.109-2.413-2.475.012-1.368 1.088-2.522 2.413-2.522s2.401 1.154 2.413 2.522c-.012 1.365-1.091 2.475-2.413 2.475z"/></svg>