<!-- Generated by IcoMoon.io -->
<svg version="1.1" xmlns="http://www.w3.org/2000/svg" width="32" height="32" viewBox="0 0 32 32">
<title>suv-trunk-pcm</title>
<path d="M25.848 16.643c-1.858-0.844-4.993-0.961-4.993-0.961l-2.985-1.55c-0.905-0.377-1.877-0.57-2.86-0.57h-5.772c-0.107 0-0.218 0.038-0.324 0.094l-3.067-2.988-0.513 0.499 3.169 3.087 0.3 0.316h0.445v-0.306h5.758c0.88 0 1.737 0.17 2.55 0.505l3.106 1.611 0.164 0.005c0.029 0 3.015 0.122 4.713 0.896 0.242 0.109 0.396 0.358 0.396 0.631v0.689c0 0.071-0.015 0.109-0.019 0.118l-1.544 0.49-0.344 0.113-0.116 0.335c-0.198 0.58-0.75 0.971-1.369 0.971-0.61 0-1.157-0.382-1.364-0.943l-0.17-0.471h-8.787l-0.17 0.471c-0.208 0.566-0.755 0.943-1.364 0.943s-1.161-0.382-1.365-0.952l-0.121-0.335-0.348-0.103-1.781-0.542v-1.607h-0.726v1.607c0 0.311 0.208 0.584 0.508 0.674l1.781 0.542c0.295 0.829 1.099 1.423 2.047 1.423s1.746-0.594 2.047-1.414h7.771c0.3 0.82 1.099 1.414 2.047 1.414 0.963 0 1.771-0.613 2.056-1.452l1.563-0.509c0.295-0.094 0.499-0.368 0.499-0.773v-0.689c0.005-0.537-0.31-1.041-0.817-1.268l-0.001-0.001z"></path>
</svg>
