<!-- Generated by IcoMoon.io -->
<svg version="1.1" xmlns="http://www.w3.org/2000/svg" width="32" height="32" viewBox="0 0 32 32">
<title>replacement-car-not-available</title>
<path d="M10.153 22.183h-1.383c-0.037 0-0.070-0.007-0.092-0.015-0.191-0.034-0.353-0.158-0.441-0.347-0.004-0.007-0.008-0.015-0.011-0.023-0.004-0.015-0.011-0.027-0.018-0.042-0.026-0.070-0.062-0.154-0.077-0.254-0.044-0.207-0.070-0.438-0.077-0.685-0.015-0.323-0.022-0.654-0.029-0.977 0-0.004 0-0.004 0-0.007 0-0.116 0.004-0.227 0.004-0.339 0-0.108 0.004-0.215 0.004-0.323v-0.012c-0.008-0.381-0.015-0.758-0.022-1.147-0.004-0.019-0.008-0.050-0.008-0.089v-1.065c0-0.039 0.004-0.070 0.008-0.089 0-0.111 0.008-0.212 0.015-0.311 0-0.004 0-0.007 0-0.007 0.011-0.104 0.018-0.215 0.029-0.319 0.008-0.108 0.018-0.219 0.029-0.331 0.011-0.1 0.029-0.196 0.048-0.289 0.008-0.042 0.015-0.084 0.022-0.127 0-0.007 0.004-0.012 0.004-0.019 0.026-0.111 0.077-0.188 0.125-0.258 0.004-0.004 0.004-0.007 0.008-0.012 0.077-0.104 0.169-0.193 0.258-0.273-0.004 0-0.004-0.004-0.008-0.004 0 0-0.004 0-0.004 0-0.213-0.104-0.317-0.289-0.305-0.531 0-0.042 0-0.096 0.022-0.154 0.074-0.281 0.228-0.496 0.464-0.638 0.228-0.142 0.478-0.212 0.747-0.2 0.004 0 0.008 0 0.008 0 0.199 0.015 0.357 0.116 0.456 0.296 0.004 0.004 0.008 0.012 0.008 0.015 0.044 0.092 0.062 0.169 0.081 0.235 0.004 0.012 0.004 0.019 0.008 0.031 0.008 0.062 0.015 0.119 0.015 0.173 0.018 0 0.033 0 0.048 0 0.268-0.573 0.53-1.065 0.806-1.496 0.18-0.285 0.342-0.504 0.504-0.696 0.118-0.142 0.272-0.25 0.463-0.327 0.103-0.042 0.221-0.073 0.357-0.092 0.059-0.012 0.114-0.023 0.177-0.034 0.062-0.015 0.129-0.027 0.195-0.039 0.294-0.054 0.563-0.089 0.813-0.111 0.095-0.008 0.188-0.015 0.28-0.023 0.095-0.008 0.191-0.015 0.291-0.023 0 0 0.004 0 0.004 0 0.247-0.015 0.504-0.031 0.761-0.039 0.132-0.004 0.268-0.008 0.397-0.008 0.125 0 0.254-0.004 0.379-0.008 0.018-0.004 0.041-0.008 0.074-0.008h0.68c0.029 0 0.055 0.004 0.074 0.008l0.154 0.004c0.383 0.008 0.706 0.015 1.033 0.034l0.051 0.004c0.121 0.008 0.235 0.015 0.35 0.023l0.055 0.004c0.188 0.015 0.386 0.031 0.581 0.050 0.004 0 0.007 0 0.007 0 0.18 0.027 0.353 0.054 0.526 0.077l0.25 0.039c0 0 0.004 0 0.004 0 0.103 0.015 0.202 0.039 0.298 0.058l0.018 0.004c0.041 0.008 0.077 0.015 0.118 0.027 0.16 0.036 0.303 0.1 0.43 0.191l3.501-3.662v1.208l-2.959 3.095c0.014 0.020 0.028 0.041 0.042 0.061 0.132 0.193 0.247 0.377 0.353 0.561 0.011 0.023 0.022 0.042 0.033 0.062 0.007 0.015 0.015 0.031 0.026 0.046 0.004 0.007 0.011 0.019 0.015 0.027l0.007 0.015c0.118 0.208 0.235 0.431 0.364 0.681 0.059 0.116 0.111 0.223 0.162 0.323 0.011 0 0.022 0 0.029 0 0-0.023 0-0.046 0.004-0.070 0-0.062 0.007-0.123 0.018-0.181 0.011-0.062 0.029-0.116 0.055-0.169 0.074-0.185 0.214-0.311 0.386-0.342 0.062-0.012 0.111-0.012 0.154-0.012 0.011 0 0.022 0 0.029 0 0.158 0.019 0.317 0.054 0.464 0.104 0.007 0.004 0.018 0.007 0.026 0.012 0.088 0.039 0.154 0.077 0.217 0.119 0 0 0.004 0 0.004 0.004 0.198 0.135 0.338 0.339 0.408 0.596 0.029 0.096 0.037 0.185 0.022 0.27 0 0.007-0.004 0.015-0.004 0.023-0.011 0.042-0.022 0.077-0.029 0.1-0.004 0.007-0.004 0.015-0.007 0.023-0.041 0.096-0.107 0.177-0.195 0.238 0.055 0.050 0.111 0.1 0.154 0.146 0.004 0.004 0.007 0.007 0.007 0.007l0.015 0.015c0.169 0.161 0.283 0.369 0.331 0.616 0 0.004 0 0.004 0 0.007 0.029 0.161 0.051 0.327 0.070 0.504 0.011 0.116 0.018 0.212 0.026 0.304 0.015 0.223 0.022 0.45 0.029 0.67v0.015c0.007 0.089 0.007 0.177 0.007 0.265 0 0.304 0.007 0.623 0.015 0.904 0 0.004 0 0.004 0 0.007 0 0.081 0 0.15 0.007 0.219 0 0.007 0 0.019 0 0.027v1.597c0 0.027 0 0.065-0.007 0.116l-0.022 0.446c0 0.004 0 0.007 0 0.007-0.018 0.227-0.044 0.423-0.077 0.608-0.026 0.169-0.074 0.323-0.14 0.473 0 0.004-0.004 0.004-0.004 0.007-0.103 0.215-0.265 0.347-0.478 0.4-0.029 0.007-0.059 0.012-0.081 0.015-0.004 0-0.011 0-0.015 0-0.022 0.004-0.041 0.007-0.062 0.007h-1.445c-0.041 0-0.074-0.007-0.099-0.019-0.191-0.046-0.342-0.169-0.427-0.354-0.041-0.077-0.059-0.146-0.077-0.204-0.004-0.007-0.004-0.015-0.007-0.023-0.121-0.019-0.228-0.081-0.301-0.181-0.121 0-0.232 0.004-0.338 0.027-0.28 0.062-0.566 0.096-0.905 0.116h-0.015c-0.25 0.015-0.489 0.031-0.743 0.031-0.489 0.007-0.986 0.007-1.471 0.007-0.232 0-0.464 0-0.695 0-0.448 0-0.912-0.004-1.368 0-0.158 0-0.312 0-0.467 0-0.46 0-0.93 0.004-1.394-0.007-0.004 0-0.007 0-0.011 0-0.059-0.004-0.118-0.004-0.18-0.007s-0.129-0.004-0.195-0.007c-0.214-0.015-0.434-0.031-0.655-0.054-0.066-0.007-0.136-0.015-0.206-0.027-0.037-0.006-0.075-0.011-0.114-0.015l-0.976 1.021-0.235 0.242-2.493 2.608v-1.208l1.858-1.943zM19.801 12.092c-0.041-0.019-0.084-0.033-0.131-0.044-0.037-0.007-0.074-0.015-0.114-0.023l-0.018-0.004c-0.088-0.019-0.18-0.039-0.272-0.054l-0.247-0.039c-0.169-0.027-0.342-0.050-0.518-0.077-0.188-0.019-0.375-0.034-0.559-0.050l-0.048-0.004c-0.114-0.007-0.228-0.015-0.35-0.023l-0.048-0.004c-0.32-0.015-0.64-0.027-1.015-0.031l-0.169-0.004c-0.029 0-0.051-0.004-0.067-0.008h-0.647c-0.018 0.004-0.041 0.008-0.070 0.008-0.132 0.004-0.265 0.008-0.397 0.008-0.129 0-0.261 0.004-0.39 0.007-0.247 0.007-0.5 0.023-0.743 0.039-0.095 0.007-0.191 0.015-0.287 0.023-0.092 0.007-0.184 0.015-0.28 0.023-0.235 0.019-0.486 0.054-0.765 0.104-0.059 0.012-0.118 0.023-0.18 0.039s-0.129 0.027-0.195 0.039c-0.004 0-0.007 0-0.007 0-0.099 0.015-0.177 0.034-0.242 0.062 0 0-0.004 0-0.004 0-0.103 0.039-0.18 0.092-0.242 0.166-0.147 0.173-0.294 0.373-0.46 0.635-0.276 0.439-0.544 0.942-0.82 1.546 0 0 0 0.004-0.004 0.004-0.011 0.027-0.033 0.081-0.081 0.131-0.059 0.062-0.139 0.092-0.221 0.081-0.066-0.007-0.121-0.012-0.177-0.007-0.066 0.007-0.132 0.015-0.206 0.027-0.059 0.012-0.118 0.004-0.173-0.027-0.070-0.039-0.191-0.131-0.191-0.358 0-0.012 0-0.027 0.004-0.039 0.008-0.070 0.008-0.158-0.004-0.262-0.011-0.039-0.018-0.065-0.029-0.092 0 0-0.004-0.004-0.004-0.004s-0.004 0-0.008 0c-0.158-0.004-0.302 0.034-0.441 0.123-0.111 0.070-0.177 0.161-0.213 0.296 0 0 0 0 0 0.004s0 0.004 0 0.007c0.092 0.039 0.195 0.062 0.342 0.070h0.111c0.095 0 0.184 0.050 0.235 0.139 0.052 0.084 0.055 0.193 0.011 0.281-0.052 0.104-0.125 0.146-0.162 0.166l-0.022 0.012c-0.118 0.077-0.228 0.15-0.327 0.238-0.092 0.084-0.18 0.161-0.243 0.246-0.018 0.023-0.029 0.042-0.033 0.054-0.008 0.042-0.015 0.081-0.022 0.123-0.015 0.084-0.029 0.166-0.041 0.238-0.011 0.104-0.018 0.212-0.029 0.315-0.008 0.108-0.018 0.215-0.029 0.323-0.008 0.096-0.015 0.188-0.015 0.281 0 0.031-0.004 0.054-0.008 0.073v1.062c0.004 0.015 0.008 0.042 0.008 0.073 0.008 0.388 0.015 0.769 0.022 1.15v0.012c0 0 0 0.004 0 0.004 0 0.116-0.004 0.227-0.004 0.339 0 0.104-0.004 0.215-0.004 0.323 0.008 0.315 0.015 0.643 0.029 0.962 0.008 0.219 0.029 0.415 0.066 0.592 0 0.004 0.004 0.012 0.004 0.015 0.008 0.039 0.026 0.084 0.044 0.135 0.004 0.012 0.011 0.027 0.015 0.039 0.011 0.019 0.022 0.027 0.041 0.027 0.022 0 0.033 0 0.044 0.004l-0.001 0.001h1.456c0.015-0.015 0.029-0.042 0.048-0.089 0.026-0.077 0.037-0.135 0.041-0.185 0-0.027 0.004-0.073 0.022-0.13 0.037-0.119 0.144-0.196 0.261-0.196h0.121c0.033-0.004 0.062-0.007 0.092-0.007 0.015-0.023 0.029-0.042 0.044-0.062 0.052-0.073 0.136-0.116 0.221-0.116 0.022 0 0.044 0 0.062 0 0.052 0 0.107-0.004 0.169 0.004 0.035 0.003 0.069 0.006 0.103 0.008l6.003-6.278h-6.305l1.012-1.762h0.001c0.121-0.193 0.327-0.308 0.548-0.308 0 0 1.070-0.285 3.258-0.285 2.097 0 3.222 0.285 3.222 0.285 0.072 0 0.143 0.012 0.209 0.036l0.41-0.429zM20.355 12.72l-0.417 0.436 0.806 1.399h-2.142l-6.108 6.39c0.172 0.017 0.345 0.029 0.516 0.041 0.055 0.004 0.114 0.004 0.177 0.007 0.062 0 0.125 0.004 0.191 0.007 0.453 0.012 0.923 0.012 1.376 0.007 0.154 0 0.309 0 0.463 0 0.456-0.004 0.923-0.004 1.372 0 0.232 0 0.46 0 0.691 0 0.482 0 0.979 0 1.464-0.007 0 0 0.004 0 0.004 0 0.235 0 0.467-0.015 0.71-0.031h0.018c0.312-0.015 0.574-0.050 0.824-0.104 0.18-0.039 0.35-0.039 0.511-0.039 0.026 0 0.048 0 0.074 0 0.121 0 0.228 0.070 0.283 0.177 0.004 0.004 0.004 0.007 0.007 0.012 0.011 0 0.022 0 0.033 0.004 0.029 0.004 0.059 0.004 0.096 0.007 0.107 0.015 0.195 0.089 0.228 0.196 0.011 0.039 0.022 0.077 0.029 0.111 0.004 0.015 0.007 0.034 0.011 0.050 0.004 0.019 0.011 0.034 0.015 0.054 0.011 0.042 0.022 0.077 0.037 0.1 0.004 0.007 0.007 0.012 0.007 0.019 0.011 0.027 0.026 0.039 0.051 0.046 0.007 0 0.015 0.004 0.018 0.004h1.383c0.018-0.004 0.033-0.004 0.044-0.007 0.004 0 0.011 0 0.015 0 0 0 0.004 0 0.004 0 0.048-0.012 0.077-0.027 0.107-0.092 0.044-0.1 0.074-0.204 0.096-0.323 0-0.004 0-0.007 0-0.007 0.029-0.161 0.051-0.339 0.070-0.542l0.022-0.465c0-0.019 0.004-0.034 0.007-0.050 0-0.004 0-0.007 0-0.012v-1.585c-0.007-0.092-0.007-0.173-0.007-0.254-0.007-0.284-0.015-0.604-0.015-0.916 0-0.081 0-0.154-0.007-0.219 0-0.007 0-0.012 0-0.019v-0.027c-0.007-0.212-0.015-0.435-0.029-0.65-0.004-0.084-0.011-0.173-0.022-0.281-0.015-0.158-0.037-0.308-0.062-0.454-0.026-0.127-0.077-0.223-0.162-0.304-0.004-0.004-0.007-0.007-0.011-0.012l-0.018-0.019c-0.188-0.181-0.338-0.304-0.489-0.407-0.022-0.012-0.059-0.031-0.096-0.065-0.059-0.062-0.088-0.135-0.088-0.219 0-0.15 0.107-0.273 0.25-0.289 0.048-0.004 0.088-0.012 0.129-0.015l0.067-0.007c0 0 0.004 0 0.004 0 0.048-0.004 0.092-0.019 0.132-0.039 0-0.004-0.004-0.007-0.004-0.012-0.033-0.127-0.092-0.215-0.177-0.273-0.041-0.027-0.081-0.046-0.136-0.073-0.103-0.034-0.214-0.062-0.32-0.073-0.007 0-0.011 0-0.015 0-0.004 0.007-0.007 0.015-0.011 0.027-0.007 0.012-0.011 0.031-0.015 0.046-0.004 0.023-0.007 0.046-0.007 0.070 0 0.007 0 0.015 0 0.023-0.004 0.050-0.004 0.104 0 0.166 0 0.027 0 0.054 0 0.084 0.011 0.073-0.004 0.131-0.026 0.177-0.077 0.188-0.239 0.204-0.287 0.204-0.015 0-0.026 0-0.041-0.004-0.096-0.015-0.198-0.015-0.309-0.012-0.029 0-0.062 0-0.092 0-0.103 0-0.198-0.062-0.247-0.158v-0.004c-0.007-0.015-0.022-0.042-0.033-0.073-0.059-0.123-0.125-0.254-0.195-0.4-0.121-0.242-0.235-0.458-0.35-0.658l-0.022-0.039c-0.011-0.023-0.022-0.042-0.033-0.062-0.007-0.015-0.015-0.031-0.026-0.046-0.098-0.171-0.203-0.338-0.322-0.516zM22.12 17.105v-0.001c0 0-1.365 0.142-1.582 0.058-0.147-0.057-0.184-0.057-0.221-0.25-0.022-0.123 0.28-0.677 0.754-1.058 0.265-0.212 0.585-0.35 0.92-0.385 0.445-0.046 0.633 0.116 0.791 0.366 0.147 0.231 0.221 0.808 0.147 1s-0.551 0.231-0.809 0.27zM9.828 17.105c-0.258-0.039-0.736-0.077-0.809-0.27s0-0.769 0.147-1c0.158-0.25 0.346-0.412 0.791-0.366 0.335 0.034 0.654 0.173 0.92 0.385 0.474 0.381 0.776 0.935 0.754 1.058-0.037 0.193-0.074 0.193-0.221 0.25-0.221 0.084-1.582-0.058-1.582-0.058v0.001z"></path>
</svg>
