<!-- Generated by IcoMoon.io -->
<svg version="1.1" xmlns="http://www.w3.org/2000/svg" width="32" height="32" viewBox="0 0 32 32">
<title>sport-sunroof-pcm</title>
<path d="M16.002 12.467c0.909 0 2.133 0.781 3.434 1.6 0.219 0.14 0.439 0.281 0.659 0.416 2.149 0.23 3.827 0.719 4.987 1.449 1.118 0.707 1.464 1.465 1.568 1.853l0.016 0.057v0.062c0 0.814-0.225 1.505-0.596 1.842-0.162 0.146-0.408 0.326-0.637 0.348-0.434 0.040-1.239 0.118-1.6 0.152-0.471 0.685-1.203 1.089-2.002 1.089-0.764 0-1.48-0.376-1.95-1.011l-0.423 0.005h-7.585c-0.471 0.634-1.187 1.005-1.945 1.005-0.941 0-1.788-0.561-2.216-1.449l-1.726-0.342-0.089-0.112c-0.319-0.393-0.497-0.803-0.539-1.258-0.021-0.247-0.026-0.724-0.026-0.781 0-0.32 0.198-0.758 0.585-1.292 0.125-0.174 0.554-0.741 0.836-0.859 0.319-0.129 0.638-0.264 0.957-0.399 1.396-0.584 2.818-1.179 4.213-1.629l0.24 0.803c-1.369 0.444-2.781 1.033-4.166 1.612-0.314 0.135-0.632 0.264-0.941 0.393-0.24 0.174-0.925 1.1-0.936 1.37 0 0.135 0.005 0.517 0.021 0.691 0.021 0.235 0.11 0.455 0.267 0.674l1.861 0.365 0.084 0.214c0.267 0.691 0.883 1.14 1.578 1.14 0.57 0 1.103-0.303 1.422-0.814l0.115-0.185h7.999l0.831-0.011 0.12 0.19c0.319 0.517 0.852 0.826 1.427 0.826 0.59 0 1.134-0.326 1.448-0.87l0.105-0.18 0.193-0.017c0.010 0 1.187-0.118 1.767-0.169 0.037-0.017 0.125-0.073 0.214-0.157 0.151-0.135 0.304-0.567 0.314-1.128-0.157-0.46-1.061-2.156-5.949-2.655l-0.084-0.011-0.073-0.045c-0.246-0.152-0.497-0.309-0.742-0.466-1.098-0.696-2.342-1.488-3.037-1.488h-0.199l-3.722-1.864 0.33-0.764 3.591 1.8z"></path>
</svg>
