<!-- Generated by IcoMoon.io -->
<svg version="1.1" xmlns="http://www.w3.org/2000/svg" width="32" height="32" viewBox="0 0 32 32">
<title>max-efficiency</title>
<path d="M19.101 6.667l7.566 1.526-3.516 7.148-1.433-3.071-15.201 7.653-1.182-2.533 15.201-7.653-1.433-3.071zM20.859 17.724l-0.001 0.002c0.148 0.374 0.442 0.665 0.807 0.8l0.958 0.355v1.848l-0.957 0.355c-0.365 0.135-0.659 0.426-0.808 0.8s-0.139 0.796 0.028 1.162l0.437 0.957-1.254 1.307-0.923-0.457c-0.348-0.173-0.749-0.184-1.105-0.029-0.361 0.156-0.643 0.465-0.773 0.85l-0.338 0.993h-1.773l-0.341-0.999c-0.13-0.381-0.408-0.687-0.766-0.842-0.001 0-0.001 0-0.001 0-0.358-0.155-0.765-0.144-1.115 0.030l-0.918 0.455-1.254-1.307 0.436-0.957c0.167-0.365 0.178-0.788 0.029-1.163s-0.442-0.665-0.807-0.8l-0.958-0.355v-1.084l10.613-5.343 1.25 1.304-0.436 0.957c-0.167 0.365-0.178 0.788-0.029 1.163zM16.042 22.32c1.333 0 2.413-1.126 2.413-2.516s-1.080-2.517-2.413-2.517c-1.333 0-2.414 1.127-2.414 2.517s1.081 2.516 2.414 2.516z"></path>
</svg>
