<!-- Generated by IcoMoon.io -->
<svg version="1.1" xmlns="http://www.w3.org/2000/svg" width="32" height="32" viewBox="0 0 32 32">
<title>flash-next</title>
<path d="M9.212 16c0 0.185 0 0.327 0 0.468h-3.879v-0.935h3.879c0 0.141 0 0.282 0 0.468zM9.601 18.756c0.096 0.33 0.192 0.564 0.192 0.555l0.146 0.283-3.005 1.685-0.485-0.794 3.152-1.729zM6.495 11.465l0.485-0.799 3.005 1.685-0.146 0.283c-0.046 0.044-0.141 0.277-0.192 0.56l-3.152-1.729zM11.152 12.727c1.697 0 3.879 1.588 3.879 3.273s-2.182 3.273-3.879 3.273h-0.339l-0.146-0.283c-0.050-0.044-0.535-1.169-0.535-2.99s0.535-2.941 0.535-2.99l0.146-0.283h0.339zM11.49 18.289c1.166-0.185 2.57-1.262 2.57-2.289s-1.409-2.104-2.57-2.289c-0.146 0.37-0.339 1.218-0.339 2.289s0.192 1.915 0.339 2.289zM22.788 15.532h3.879v0.935h-3.879c0-0.141 0-0.283 0-0.468s0-0.326 0-0.468zM22.157 19.365c0.051-0.044 0.147-0.277 0.192-0.555l3.151 1.729-0.485 0.794-3.005-1.685 0.146-0.283zM22.399 13.244c-0.096-0.331-0.192-0.565-0.192-0.56l-0.146-0.283 3.005-1.68 0.485 0.794-3.151 1.729zM21.187 12.727v-0.002l0.101 0.283c0.051 0.044 0.536 1.169 0.536 2.991s-0.536 2.942-0.536 2.991l-0.146 0.283h-0.293c-1.697 0-3.879-1.587-3.879-3.273s2.182-3.273 3.879-3.273h0.339zM20.51 18.289c0.146-0.371 0.339-1.218 0.339-2.289s-0.192-1.871-0.339-2.289c-1.166 0.185-2.57 1.262-2.57 2.289s1.409 2.104 2.57 2.289z"></path>
</svg>
