<svg xmlns="http://www.w3.org/2000/svg" width="100%" height="100%" viewBox="0 0 32 32"><path d="M16.819 20.781l-.978-.934v-.605l1.793 1.711-.208.203h-.004l-1.582 1.51v-.605l.914-.873c-.248.008-.498.013-.75.013-2.826 0-5.488-.508-7.489-1.423-2.054-.94-3.182-2.205-3.182-3.567 0-.829.42-1.626 1.219-2.333l.298.285c-.713.63-1.091 1.327-1.091 2.048 0 1.194 1.048 2.333 2.943 3.202 1.948.889 4.54 1.382 7.302 1.382.274 0 .545-.005.814-.015zm8.549-6.978c.852.726 1.304 1.545 1.299 2.403 0 1.362-1.128 2.627-3.183 3.567-.037.02-.074.036-.112.051l-.554-.208c.16-.066.325-.137.479-.208 1.9-.869 2.943-2.007 2.943-3.202 0-.757-.42-1.494-1.219-2.155l.346-.249zm-15.484.884c.064.915.421 1.281 1.294 1.281.804 0 1.208-.315 1.208-1.077 0-.696-.341-1.068-1.208-1.068h-.596v-.58h.554c.755 0 1.118-.356 1.118-.981 0-.696-.431-.996-1.161-.996-.735 0-1.133.315-1.202 1.265h-.655c.064-1.148.564-1.865 1.852-1.865 1.251 0 1.836.594 1.836 1.596 0 .508-.255.986-.777 1.22.564.183.91.594.91 1.407 0 .986-.655 1.596-1.89 1.596-1.315 0-1.879-.58-1.937-1.804h.655v.005l-.001.001zm4.546-1.737l1.49-2.18h.735l-1.522 2.206c.223-.102.463-.153.734-.153 1.235 0 1.852.58 1.852 1.804 0 1.321-.697 1.865-1.921 1.865-1.251 0-1.932-.544-1.932-1.865.005-.696.208-1.154.564-1.677zm1.373 3.019c.926 0 1.235-.437 1.235-1.311 0-.879-.314-1.291-1.235-1.291s-1.24.411-1.24 1.291c0 .88.303 1.311 1.24 1.311zm2.672-2.45c0-2.017.458-2.846 1.954-2.846 1.5 0 1.954.798 1.954 2.846 0 2.246-.522 2.973-1.954 2.973s-1.954-.686-1.954-2.973zm3.204 0c0-1.738-.282-2.246-1.251-2.246-.984 0-1.251.508-1.251 2.246 0 1.916.223 2.449 1.251 2.449s1.251-.533 1.251-2.449zm1.501-1.895c0-.508.421-.915.984-.915.554 0 .968.411.968.915s-.416.924-.968.924c-.565 0-.984-.422-.984-.924zm1.491 0c0-.295-.213-.508-.506-.508-.309 0-.522.213-.522.508s.213.508.522.508c.293-.005.506-.219.506-.508z"/></svg>