<!-- Generated by IcoMoon.io -->
<svg version="1.1" xmlns="http://www.w3.org/2000/svg" width="32" height="32" viewBox="0 0 32 32">
<title>add-user</title>
<path d="M23.874 20.009l0.001 0.001c0 0 0.001 0 0.001 0 0.069 0 0.125 0.055 0.125 0.122v1.058c0 0.067-0.056 0.122-0.125 0.122h-2.493c-0.069 0-0.125 0.055-0.125 0.122v2.443c0 0.067-0.056 0.122-0.125 0.122h-1.080c-0.069 0-0.125-0.055-0.125-0.122v-2.443c0-0.067-0.056-0.122-0.125-0.122h-2.493c-0.069 0-0.125-0.055-0.125-0.122v-1.058c0-0.067 0.056-0.122 0.125-0.122h2.493c0.069 0 0.125-0.055 0.125-0.122v-2.443c0-0.067 0.056-0.122 0.125-0.122h1.080c0.069 0 0.125 0.055 0.125 0.122v2.443c0 0.067 0.056 0.122 0.125 0.122h2.493zM15.655 20.577l0.001 0.001c0 0.74 0.35 1.418 0.928 1.942-0.646 0.019-1.392 0.031-2.253 0.031-5.32 0-6.331-0.441-6.331-0.441 0-1.845 3.635-3.878 4.678-4.041 0.323-0.051 0.331-0.923 0.331-0.923s-0.945-1.442-1.159-2.163c-0.214-0.721-1.060-5.648 2.45-5.648s2.865 4.424 2.337 5.75c-0.305 0.741-0.669 1.453-1.047 2.062 0 0 0.007 0.872 0.331 0.923 0.221 0.033 0.556 0.151 0.949 0.334-0.746 0.547-1.215 1.319-1.215 2.174z"></path>
</svg>
