<svg xmlns="http://www.w3.org/2000/svg" width="100%" height="100%" viewBox="0 0 32 32"><path d="M8 16c0 2.222.785 4.111 2.354 5.667S13.812 24 16.021 24c2.208 0 4.09-.778 5.646-2.333S24 18.223 24 16c0-2.25-.75-4.146-2.25-5.687S18.333 8.001 16 8c-2.195 0-4.077.778-5.646 2.333S8 13.777 8 16zm1.292-2.083c.389-.972.889-1.792 1.5-2.459s1.09-1.097 1.437-1.292c.347-.195.562-.292.646-.292l.167.75-.625.042-.292-.083-.292.417c-.084.167-.139.292-.167.375l.083.375c.333.028.5-.014.5-.125l-.083-.209-.042-.25.083-.021.396-.083c.264-.055.493-.049.687.021.333.028.549.16.646.396s.174.368.229.396c.084.084.111.16.083.229s-.111.187-.25.354c-.139.167-.222.278-.25.333-.084.167-.209.056-.375-.333.167-.167.125-.278-.125-.333-.222-.028-.333.055-.333.25.028.056.056.097.083.125.084-.028.139 0 .167.083s.028.181 0 .292c-.056.389-.125.653-.209.792-.056.111-.153.201-.292.271s-.264.104-.375.104h-.167c.056.139.125.278.209.417.028.084.035.174.021.271s-.028.208-.042.333c-.014.125-.021.202-.021.229 0 .139-.111.056-.333-.25-.084-.111-.139-.222-.167-.333-.028-.195-.167-.264-.417-.209-.417.111-.653.097-.709-.042 0-.056-.056-.056-.167 0s-.257.146-.437.271l-.271.187c-.167.111-.181.194-.042.25.056.028.125.028.209 0 .139-.084.264-.098.375-.042s.139.153.083.292c-.028.111-.09.174-.187.187s-.139.048-.125.104c.013.056.076.146.187.271s.181.229.209.313c.056.167.375.097.959-.209.139-.056.306-.09.5-.104s.333.049.417.187c.028.195.403.389 1.125.583 0 .028.09.056.271.083s.326.069.437.125c.111.056.208.126.292.209.084.111.111.222.083.333s-.084.243-.167.396c-.083.153-.139.243-.167.271 0 .056-.076.194-.229.417s-.243.375-.271.459c-.111.25-.236.431-.375.542l-.292.375.042.625c.111.25.208.445.292.583.028.028.021.139-.021.333s-.09.375-.146.542l-.042.25c-.417-.084-.667-.222-.75-.417 0-.056-.035-.139-.104-.25s-.104-.236-.104-.375c0-.084-.042-.188-.125-.313s-.181-.243-.292-.354l-.209-.209c-.167-.278-.25-.486-.25-.625 0-.056-.028-.118-.083-.187s-.125-.118-.209-.146l-.083-.083c-.472-.222-.75-.375-.833-.459-.084-.111-.167-.444-.25-1l.125-.875c.028-.028.049-.056.063-.083s.042-.076.083-.146c.042-.07.021-.132-.063-.187-.028-.028-.056-.07-.083-.125s-.048-.111-.063-.167c-.014-.056-.021-.111-.021-.167s-.014-.097-.042-.125v-.042l-.292-.375c-.167-.222-.264-.403-.292-.542-.028-.084-.014-.236.042-.459 0-.056-.014-.167-.042-.333s-.042-.278-.042-.333l.004.003zm4.458-4c0-.056.014-.153.042-.292.222-.222.542-.375.959-.459s.778-.111 1.083-.083c.305.028.472.07.5.125-.056.111-.16.208-.313.292s-.243.195-.271.333c0 .084-.056.202-.167.354s-.215.291-.313.417c-.097.125-.132.202-.104.229.111.222.097.472-.042.75-.084.167-.222.167-.417 0-.667-.75-.986-1.306-.959-1.667zm2.833 2c-.028-.056-.021-.104.021-.146s.09-.076.146-.104l.083-.042c.195.056.299.153.313.292s-.007.25-.063.333c-.028.139-.181.056-.459-.25-.028-.028-.042-.056-.042-.083h.001zm.292 5.208c-.028-.306-.021-.556.021-.75s.063-.375.063-.542c0-.222.188-.354.563-.396s.743-.035 1.104.021l.542.083c.472.278.827.396 1.063.354s.382-.146.437-.313l.125-.25 1.042-.417.083-.459-.542-.667-.875-.375c-.25.167-.25.458 0 .875l-.021.042c-.014.028-.028.084-.042.167s-.042.146-.083.187c-.041.042-.09.084-.146.125s-.112.035-.167-.021l-.875-1.083c-.195.333-.445.597-.75.792-.195.084-.382.125-.563.125s-.354-.028-.521-.083l-.209-.042c-.195-.556-.125-.917.209-1.083h.75c0-.028-.007-.07-.021-.125s-.035-.153-.063-.292c-.028-.139-.014-.264.042-.375.028-.139.118-.209.271-.209s.284-.042.396-.125c.139-.111.334-.056.583.167s.458.32.625.292c.139-.028.243-.056.313-.083s.104-.055.104-.083c0-.028.021-.063.063-.104s.104-.076.187-.104c.111-.056.222-.056.333 0s.194.139.25.25l.083.125.792.083c-.333-.861-.556-1.348-.667-1.459h-.042c0-.028.014-.028.042 0 .278.056.653.604 1.125 1.646s.598 1.91.375 2.604l-.292-.125h-.917l.542.667.104.104.229.187c.153.125.264.153.333.083-.056.889-.32 1.743-.792 2.563s-.917 1.41-1.333 1.771l-.625.583c-.111-.111-.181-.229-.209-.354s-.028-.215 0-.271l.042-.083.209-.583.083-.959c-.028-.028-.042-.063-.042-.104s-.028-.118-.083-.229c-.056-.112-.118-.188-.187-.229s-.174-.076-.313-.104c-.139-.028-.292.014-.459.125-.278.084-.486.16-.625.229s-.264.118-.375.146c-.111.028-.32.056-.625.083-.667 0-.889-.667-.667-2l.001.001zm.5-5.416c0-.111.028-.222.083-.333l.042-.167c.056-.084.194-.181.417-.292.056.028.083.049.083.063s-.014.09-.042.229c-.028.139-.042.222-.042.25-.056.222 0 .417.167.583.084.084.07.125-.042.125-.222 0-.431-.07-.625-.209-.028-.056-.042-.139-.042-.25h.001zm1.5-.5l.292-.709c.084-.306.139-.556.167-.75.167-.084.556.194 1.167.833-.084.361-.216.632-.396.813s-.34.271-.479.271l-.209.042c-.028 0-.077-.007-.146-.021s-.16-.062-.271-.146c-.111-.084-.153-.195-.125-.333h.001z"/></svg>