<!-- Generated by IcoMoon.io -->
<svg version="1.1" xmlns="http://www.w3.org/2000/svg" width="32" height="32" viewBox="0 0 32 32">
<title>leaf</title>
<path d="M15.479 8.71c2.927-0.781 11.188-3.377 11.188-3.377s-2.647 9.087-3.219 11.378c-1.038 4.29-3.576 7.995-7.987 7.995-1.603 0-3.093-0.477-4.345-1.289l0.912-0.71c1.252 0.668 2.283 0.907 3.285 0.918 1.747 0.018 3.404-0.68 4.62-2.029 1.114-1.234 1.972-3.013 2.485-5.143 0.4-1.652 1.848-6.694 2.659-9.499-2.623 0.817-7.248 2.238-9.322 2.792-2.157 0.573-3.945 1.45-5.156 2.53-0.65 0.584-1.151 1.234-1.491 1.939-0.358 0.751-0.543 1.587-0.543 2.488 0 1.337 0.275 2.231 0.733 3.126l-0.787 0.788c-0.561-0.984-1.019-2.315-1.019-3.914 0-4.415 3.725-6.861 7.987-7.995zM5.333 25.908l10.465-10.475 0.759 0.759-10.465 10.475-0.758-0.76-0.001 0.001z"></path>
</svg>
