<!-- Generated by IcoMoon.io -->
<svg version="1.1" xmlns="http://www.w3.org/2000/svg" width="32" height="32" viewBox="0 0 32 32">
<title>sport-trunk-pcm</title>
<path d="M7.054 16.331c-0.24 0.164-0.925 1.038-0.936 1.292 0 0.127 0.005 0.487 0.021 0.652 0.021 0.222 0.11 0.429 0.267 0.635l1.861 0.344 0.084 0.202c0.267 0.652 0.883 1.075 1.578 1.075 0.57 0 1.103-0.286 1.422-0.768l0.115-0.175h7.998l0.831-0.010 0.12 0.18c0.319 0.487 0.852 0.779 1.427 0.779 0.59 0 1.134-0.308 1.448-0.821l0.105-0.169 0.193-0.016c0.010 0 1.187-0.111 1.767-0.159 0.037-0.016 0.125-0.069 0.214-0.148 0.151-0.127 0.304-0.535 0.314-1.064-0.157-0.434-1.061-2.034-5.949-2.505l-0.084-0.010-0.073-0.042c-0.246-0.143-0.497-0.291-0.742-0.44-1.098-0.657-2.342-1.403-3.037-1.403-1.851 0-3.764 0.567-5.855 1.351l-0.418-0.635-3.215-3.246 0.554-0.561 3.45 3.495c1.777-0.583 3.481-1.191 5.489-1.191 0.909 0 2.133 0.736 3.434 1.509 0.219 0.132 0.439 0.265 0.659 0.392 2.149 0.217 3.827 0.678 4.987 1.367 1.118 0.667 1.464 1.382 1.568 1.748l0.016 0.053v0.058c0 0.768-0.225 1.419-0.596 1.737-0.162 0.138-0.408 0.308-0.637 0.328-0.434 0.037-1.239 0.111-1.6 0.143-0.471 0.646-1.203 1.027-2.002 1.027-0.764 0-1.48-0.355-1.95-0.953l-0.423 0.005h-7.585c-0.471 0.598-1.187 0.948-1.945 0.948-0.941 0-1.788-0.53-2.216-1.367l-1.726-0.323-0.089-0.106c-0.319-0.371-0.497-0.758-0.539-1.186-0.021-0.233-0.026-0.683-0.026-0.736 0-0.302 0.198-0.715 0.585-1.218 0.125-0.164 0.554-0.699 0.836-0.81l0.298 0.746 0.001-0.003z"></path>
</svg>
