<!-- Generated by IcoMoon.io -->
<svg version="1.1" xmlns="http://www.w3.org/2000/svg" width="32" height="32" viewBox="0 0 32 32">
<title>qq</title>
<path d="M5.333 12.906l5.095 5-1.048 7.381 6.524-3.428 6.333 3.476-0.762-6.048c-1.556 0.317-3.207 0.476-4.952 0.476s-3.095-0.064-4.048-0.19l-1.477-0.238 6.619-4.81c-0.635-0.127-1.627-0.23-2.976-0.309s-2.531-0.135-3.547-0.167h-1.524c6-0.825 9.905-0.873 11.714-0.143l-7 4.857 7.143 0.19-0.143-1.048 5.381-5-7.476-0.905-3.381-6.666-3.476 6.666-6.999 0.906zM21.428 18.953l0.048 0.334 1.238-0.286-1.286-0.048z"></path>
</svg>
