<svg xmlns="http://www.w3.org/2000/svg" width="100%" height="100%" viewBox="0 0 32 32"><path d="M16.667 5.333l-.001.001c4.787 0 8.667 3.884 8.667 8.674s-3.881 8.673-8.667 8.673c-.799 0-1.57-.11-2.304-.312-.555-.244-.267-.878-.267-.878.232-.694.726-.495.726-.495l.005-.006c.589.155 1.204.246 1.842.246 3.989 0 7.222-3.236 7.222-7.228S20.656 6.78 16.668 6.78c-3.988 0-7.222 3.236-7.222 7.228 0 1.315.356 2.546.971 3.608.218.71-.277.871-.277.871-.424.297-.738.13-.909-.027-.78-1.302-1.229-2.825-1.229-4.453 0-4.791 3.881-8.674 8.667-8.674zm0 5.782v.002c1.595 0 2.889 1.295 2.889 2.891s-1.294 2.891-2.889 2.891c-.629 0-1.212-.202-1.686-.545-1.899 2.176-3.324 4.776-4.113 7.641-.201.727-.36 1.473-.476 2.232-.299.338-.671.507-1.013.414-.186-.05-.341-.172-.457-.343.129-.938.321-1.855.57-2.749.872-3.131 2.452-5.967 4.557-8.324-.173-.371-.27-.784-.27-1.22 0-1.596 1.294-2.891 2.889-2.891z"/></svg>