<!-- Generated by IcoMoon.io -->
<svg version="1.1" xmlns="http://www.w3.org/2000/svg" width="32" height="32" viewBox="0 0 32 32">
<title>tablet</title>
<path d="M23.532 5.333c0.993 0 1.802 0.793 1.802 1.767v17.799c0 0.974-0.808 1.767-1.802 1.767h-13.73c-0.993 0-1.802-0.793-1.802-1.767v-17.799c0-0.974 0.808-1.767 1.802-1.767h13.73zM10.203 6.563h0.001c-0.521 0-0.946 0.416-0.946 0.927v15.379h14.865v-15.379c0-0.512-0.425-0.927-0.946-0.927h-12.973zM23.175 25.437h-0.001c0.521 0 0.946-0.416 0.946-0.927v-0.835h-14.865v0.835c0 0.512 0.425 0.927 0.946 0.927h12.973zM17.24 24.555c0 0.295-0.244 0.535-0.545 0.535s-0.545-0.24-0.545-0.535c0-0.295 0.244-0.535 0.545-0.535s0.545 0.24 0.545 0.535z"></path>
</svg>
