<svg xmlns="http://www.w3.org/2000/svg" width="100%" height="100%" viewBox="0 0 32 32"><path d="M21.652 14.244c1.697 1.634 2.472 3.809 2.332 5.99h-1.978v-.953h.989c-.141-1.429-.672-2.822-1.697-3.945l-.671.646-.708-.682.708-.682c-1.197-1.022-2.649-1.533-4.096-1.634v.953h-.989v-.953c-1.484.135-2.93.646-4.096 1.634l.671.646-.708.682-.708-.682c-1.062 1.153-1.592 2.551-1.696 3.945h.989v.953H8.016c-.141-2.11.635-4.286 2.332-5.919 3.107-2.992 8.197-2.992 11.304 0zm-4.945 5.444c.385.376.385.987 0 1.363-.391.376-1.025.376-1.416 0s-.391-.987 0-1.363c.072-.066.14-.066.213-.136v-3.945l.495-.682.495.682v3.945c.109.035.141.066.213.136z"/></svg>