<svg xmlns="http://www.w3.org/2000/svg" width="100%" height="100%" viewBox="0 0 32 32"><path d="M12.532 13.578l-4.315-4.32c-.285-.29-.285-.756.005-1.042.285-.285.752-.285 1.037 0l4.315 4.32c.285.285.29.752 0 1.042-.285.29-.752.29-1.042 0zm6.66 4.572l4.591 4.591c.271.285.257.747 0 1.042-.285.29-.752.29-1.042 0l-4.591-4.591c-.285-.29-.285-.756.005-1.042.285-.285.752-.285 1.037 0zm-5.347 0c.29.29.29.756 0 1.042l-4.586 4.586c-.285.29-.752.29-1.042 0-.29-.285-.29-.752 0-1.042l4.586-4.586c.285-.285.752-.29 1.042 0zm5.352-4.305c-.29.291-.756.285-1.042-.005-.285-.285-.285-.752 0-1.037l4.586-4.586c.285-.29.752-.29 1.042 0 .29.285.29.752 0 1.042l-4.586 4.586z"/></svg>