<!-- Generated by IcoMoon.io -->
<svg version="1.1" xmlns="http://www.w3.org/2000/svg" width="32" height="32" viewBox="0 0 32 32">
<title>fuel-next</title>
<path d="M23 15.481v-2.074c0.641-0.34 1-0.518 1-0.518-0.328-4.213-4.849-6.179-5-6.222v1.037c0.427 0.156 3 1.323 3 5.703v2.074c0 1.080 0.271 1.966 0.531 2.82 0.24 0.783 0.469 1.517 0.469 2.366-0.005 0.259-0.088 1.561-1.5 1.561s-1.495-1.296-1.5-1.555v-4.148c0-2.052-1.308-2.592-2-2.592v-6.227c0-0.572-0.448-1.037-1-1.037h-7c-0.552 0-1 0.464-1 1.037v16.592h-1v1.037h11v-1.037h-1v-9.333c0.042 0 1 0.016 1 1.555v4.148c0 0.897 0.521 2.592 2.5 2.592s2.5-1.695 2.5-2.592c0-1.010-0.261-1.858-0.516-2.684-0.25-0.811-0.484-1.582-0.484-2.501v-0.001zM17 14.963v9.333h-7v-10.37h7v1.037zM17 12.889h-7v-5.185h7v5.185z"></path>
</svg>
