<svg xmlns="http://www.w3.org/2000/svg" width="100%" height="100%" viewBox="0 0 32 32"><path d="M7.837 11.911l-.001.001s.803-1.809.929-2.052.408-.724.975-.439.243.975.243.975L7.625 15.67s-.399.616-.911.329-.262-.945-.262-.945l.724-1.565s-1.263-2.124-1.697-2.945c-.361-.685.066-1.053.066-1.053.496-.312.843-.131 1.117.305s1.176 2.115 1.176 2.115zm4.183-2.55v.001c1.217 0 2.232 1.137 2.232 2.504s-1.015 2.475-2.232 2.475c-1.217 0-2.204-1.123-2.204-2.49s.987-2.49 2.204-2.49zm.012 3.792c.584 0 1.015-.524 1.015-1.295s-.417-1.28-1.001-1.28c-.585 0-1.029.509-1.029 1.28s.431 1.295 1.015 1.295zm2.339-2.973l-.001.002c0-.296.105-.731.617-.731.462 0 .558.41.558.705l-.007 2.187c0 .442.173.996.841.996s.812-.617.812-1.011v-2.151c0-.308.105-.719.573-.719.394 0 .581.335.581.694v2.389c0 .985-.524 1.816-1.997 1.816s-1.977-.92-1.977-1.822v-2.353zm8.323 0v.002c0-.296.105-.731.617-.731.462 0 .558.41.558.705l-.007 2.187c0 .442.172.996.84.996s.812-.617.812-1.011v-2.151c0-.308.105-.719.573-.719.394 0 .581.335.581.694v2.389c0 .985-.524 1.816-1.997 1.816s-1.977-.92-1.977-1.822v-2.353zm-4.142 3.429v-1.195-2.151c0-.308.176-.719.643-.719.394 0 .652.335.652.694v1.254s1.397-1.485 1.683-1.742.65-.153.844.046c.237.244.262.539 0 .834s-1.185 1.273-1.185 1.273l1.355 1.327c.262.295.204.63-.042.863-.265.25-.685.231-.972-.026s-1.683-1.611-1.683-1.611v1.18c0 .358-.258.694-.652.694-.467 0-.643-.411-.643-.719zm-7.478 3.622c-.255.953-.704 1.822-.704 1.822l-.014 4.92H9.52v-3.458c-.105.173-.327.556-.45.692l-.759-.571c.761-1.145 1.406-2.418 1.873-3.848l.89.442-.001.001zM10.99 24l-.757-.656c.857-.727 1.814-1.899 1.872-3.788H10.66v-.759h1.526v-1.936h.832v1.936h2.695v.759l-1.625-.007v3.465c0 .101.044.152.133.152h.533c.101 0 .174-.067.218-.199s.07-.842.077-1.274l.907.273c0 .264-.002.199-.002.727 0 .949-.689 1.293-.939 1.293l-1.114-.012c-.351 0-.708-.398-.708-.746l-.006-3.675s-.034.002-.147.002c-.055 2.207-1.253 3.755-2.052 4.445zm4.58-5.975l-.561.634-1.376-1.14.58-.621 1.358 1.126-.001.001zm6.973 1.657h1.409v.708h-3.639v-.708h1.476l-.001-1.023h-.7c-.104.482-.12.64-.19.811l-.724-.111c.141-.625.228-1.172.303-2.132h.798c.008.177-.011.453-.057.718l.557-.006v-1.003h.778v1.004h1.112v.718h-1.123l.001 1.023zm-2.077 3.594h.001l.004-2.455h3.19v2.583c0 .342-.083.596-.649.596H21.04c-.35 0-.574-.245-.574-.724zm.823-1.738v1.558s-.002.174.231.175.916 0 1.224 0c.198 0 .19-.175.19-.175l.002-1.558h-1.647zm-1.505-3.026c.233 0 .258.12.258.377v4.412c0 .487-.316.699-.582.699h-2.313c-.433 0-.762-.186-.762-.664v-4.549c0-.29.27-.274.27-.274h.865v-.709h-1.135v-.722h3.65v.722h-.981v.709h.73zm-.731.868l-.001.001v1.056c0 .091.031.136.093.136h.189V19.38h-.281zm-.845-1.577v.709h.157v-.709h-.157zm-.982 1.577v1.408c.132-.144.294-.541.294-.886v-.522h-.294zm0 1.732v-.001.569h2.109v-.432h-.438c-.361-.017-.544-.308-.532-.59v-1.279h-.157v.481c-.005 1.038-.389 1.355-.579 1.568l-.403-.316zm1.967 2.161c.185 0 .141-.14.141-.14v-.731h-2.109v.731s-.004.14.156.14h1.812z"/></svg>