<!-- Generated by IcoMoon.io -->
<svg version="1.1" xmlns="http://www.w3.org/2000/svg" width="32" height="32" viewBox="0 0 32 32">
<title>teq-finder-01</title>
<path d="M24.143 22.884l2.269 2.291c0.339 0.348 0.339 0.888 0 1.23-0.15 0.157-0.368 0.261-0.603 0.261-0.207 0-0.419-0.075-0.61-0.255l-0.029-0.029c0 0 0 0-0.006-0.006l-2.266-2.288c-0.926 0.658-2.054 1.045-3.27 1.045-3.139 0-5.691-2.577-5.691-5.746s2.552-5.746 5.691-5.746c3.139 0 5.691 2.577 5.691 5.746 0 1.315-0.439 2.528-1.177 3.497zM12.863 20.769l0.001 0.001c0.086 0.43 0.212 0.853 0.373 1.254-4.397-0.198-7.904-3.848-7.904-8.334 0-4.614 3.707-8.357 8.278-8.357 4.271 0 7.783 3.267 8.232 7.463-0.695-0.238-1.438-0.371-2.207-0.371-3.254 0-5.967 2.269-6.703 5.322-0.241 0.261-0.396 0.545-0.396 0.545l-1.058 1.7c-0.109 0.146-0.184 0.273-0.23 0.384 0.511 0.191 1.051 0.325 1.615 0.395zM15.427 7.387c-0.086 0.116-0.052 2.582-0.046 2.577 0.184 1.173 1.633 0.714 1.633 0.714l2.403-1.033c0.046-0.018 0.086-0.034 0.12-0.052-0.96-1.382-2.386-2.397-4.047-2.826l-0.063 0.621zM10.161 15.402h-0.001c0.419-0.9-0.856-1.323-0.856-1.323l-2.632-0.644c-0.006 0.087-0.006 0.168-0.006 0.255 0 1.654 0.557 3.175 1.495 4.387 1.546-1.416 2-2.675 2-2.675zM10.546 10.817h0.001c1.196 0.272 1.247-0.662 1.247-0.662 0.132-0.464-0.063-2.768-0.109-3.302-1.61 0.493-2.984 1.55-3.88 2.948l2.742 1.016zM21.227 16.951l0.001-0.001c-0.764 1.823-2.161 3.308-3.903 4.196-0.368-0.493-0.592-1.098-0.592-1.759 0-1.125 0.644-2.095 1.569-2.582 0.403 0.488 0.776 0.923 0.776 0.923 0.092 0.139 0.185 0.244 0.265 0.319 0.35-0.464 0.649-0.975 0.885-1.52 0.361 0.075 0.701 0.22 1 0.423zM19.629 15.385c-2.184 0-3.967 1.799-3.967 4.004s1.782 4.005 3.967 4.005c2.184 0 3.967-1.8 3.967-4.005s-1.776-4.005-3.967-4.005v0.001z"></path>
</svg>
