<svg xmlns="http://www.w3.org/2000/svg" width="100%" height="100%" viewBox="0 0 32 32"><path d="M23.999 18.54l-.401.395c-.109.095-.124.127-.154.252-.015.143-.031.602-.031.76v1.929l-2.21.521c-.896.143-1.7.269-2.55.269-4.265 0-5.888-3.21-5.888-5.724 0-3.068 2.302-5.914 6.244-5.914.834 0 1.638.127 2.364.332 1.159.332 1.7.743 2.04.981l-1.282 1.249-.541.127.386-.633c-.525-.522-1.484-1.486-3.307-1.486-2.442 0-4.281 1.898-4.281 4.665 0 2.973 2.102 5.771 5.471 5.771.989 0 1.499-.205 1.963-.395v-2.546l-2.333.127 1.236-.68h3.276zm-12.494-6.184c-.248.727-.865 1.168-1.377.984s-.725-.921-.477-1.648c.248-.727.865-1.168 1.377-.984s.725.921.477 1.648zm-1.808 8.178s-.23 1.066.25 1.17c.393.086.741-.17.97-.384.191-.178.546-.549.546-.549l.31.002c-.522.502-1.294 1.813-2.573 1.658-1.574-.191-1.148-1.671-1.148-1.671l1.042-4.634s.026-.564-.516-.699c-.388-.097-.493-.121-.493-.121v-.266s.924-.051 2.352-.308l.5-.002-1.24 5.804z"/></svg>