<!-- Generated by IcoMoon.io -->
<svg version="1.1" xmlns="http://www.w3.org/2000/svg" width="32" height="32" viewBox="0 0 32 32">
<title>broadcast</title>
<path d="M16.526 26.667h-1.040v-10.229c-0.895-0.225-1.553-1.012-1.553-1.96 0-1.125 0.931-2.031 2.074-2.031 1.149 0 2.074 0.912 2.074 2.031 0 0.947-0.666 1.734-1.553 1.96v10.229h-0.001zM16.007 9.394c-2.859 0-5.188 2.279-5.188 5.078 0 1.403 0.58 2.67 1.523 3.593l0.731-0.716c-0.75-0.734-1.215-1.752-1.215-2.871 0-2.244 1.862-4.067 4.154-4.067s4.154 1.823 4.154 4.067c0 1.119-0.465 2.137-1.215 2.871l0.731 0.716c0.937-0.918 1.523-2.191 1.523-3.593-0.012-2.8-2.34-5.079-5.199-5.079v0.001zM16.007 7.364c-4.008 0-7.266 3.191-7.266 7.116 0 1.96 0.816 3.741 2.128 5.025l0.731-0.716c-1.124-1.101-1.825-2.628-1.825-4.309 0-3.362 2.793-6.097 6.226-6.097s6.227 2.734 6.227 6.097c0 1.681-0.701 3.202-1.825 4.309l0.731 0.716c1.318-1.291 2.128-3.067 2.128-5.025 0.012-3.925-3.246-7.116-7.255-7.116h-0.001zM16.007 5.333c-5.151 0-9.34 4.102-9.34 9.145 0 2.522 1.046 4.806 2.738 6.464l0.731-0.716c-1.505-1.474-2.437-3.504-2.437-5.742 0-4.481 3.724-8.127 8.3-8.127s8.3 3.646 8.3 8.127c0 2.244-0.931 4.273-2.437 5.742l0.731 0.716c1.693-1.657 2.738-3.943 2.738-6.464 0.012-5.043-4.178-9.145-9.328-9.145h0.002z"></path>
</svg>
