<svg xmlns="http://www.w3.org/2000/svg" width="100%" height="100%" viewBox="0 0 32 32"><path d="M10.769 14.215c.939-.184 2.123-.349 3.13-.349h.14c.602 0 2.009 0 2.99.234 1.463.328 2.533.96 3.088 1.344 2.523.204 4.095.502 4.941.925.26.124.628.358.939.602.591.453.669.677.669.851 0 .946-.244 1.657-.254 1.688l-.052.154-.156.064c-.016.005-.415.174-1.308.389-.487.752-1.34 1.214-2.263 1.214-.83 0-1.573-.334-2.025-.896h-8.579c-.514.573-1.236.896-2.009.896-.913 0-1.739-.453-2.206-1.195l-1.271-.164-.057-.03c-.54-.254-1.153-1.026-1.153-1.449v-.025c.042-.617.213-1.712.524-2.19l.659.398c-.171.269-.353 1.085-.404 1.801.046.15.358.593.664.772l1.536.194.093.179c.306.593.929.96 1.614.96.586 0 1.142-.274 1.511-.747l.12-.15h9.379l.114.179c.291.448.846.717 1.49.717.695 0 1.334-.368 1.666-.965l.083-.15.171-.04c.591-.135.971-.254 1.168-.323.062-.229.156-.677.166-1.219-.15-.19-.784-.662-1.183-.856l-.005-.005c-.752-.378-2.305-.657-4.754-.856l-.114-.01-.094-.055c-.473-.343-1.479-.96-2.891-1.279h-.005c-.888-.214-2.279-.214-2.803-.214h-.14c-1.276 0-2.849.279-3.774.502l-.198-.702-1.947-1.867.519-.548 2.27 2.215z"/></svg>