<svg xmlns="http://www.w3.org/2000/svg" width="100%" height="100%" viewBox="0 0 32 32"><path d="M8 19.509v-5.684h2.88v5.684H8zm3.84 0v-5.684L16 10.667v12l-4.16-3.158zm6.079 0c0-.211.08-.382.24-.513.64-.658.96-1.441.96-2.349s-.32-1.677-.96-2.309c-.16-.158-.24-.342-.24-.553s.073-.388.22-.533c.147-.145.327-.217.54-.217s.4.079.56.237c.96.921 1.44 2.046 1.44 3.375s-.48 2.467-1.44 3.414c-.16.132-.347.198-.56.198s-.393-.072-.54-.217c-.147-.145-.22-.323-.22-.533v.001zm2.76 1.421c0-.211.067-.382.2-.513 1.067-1.053 1.6-2.309 1.6-3.77s-.533-2.717-1.6-3.77c-.134-.132-.2-.303-.2-.513s.073-.388.22-.533c.147-.145.327-.217.54-.217s.387.066.52.198c1.36 1.342 2.04 2.954 2.04 4.835s-.68 3.493-2.04 4.835c-.134.158-.307.237-.52.237s-.393-.079-.54-.237c-.147-.158-.22-.342-.22-.553v.001z"/></svg>