<svg xmlns="http://www.w3.org/2000/svg" width="24" height="24">
<path d="M5 17a1 1 0 0 1-1-1V8c0-.127.027-.248.07-.36L12 13.25l7.953-5.537A.974.974 0 0 1 20 8v8a1 1 0 0 1-1 1H5ZM19 7c.061 0 .122.008.18.019C14.534 10.34 12.141 12 12 12c-.142 0-2.497-1.665-7.065-4.994.01 0 .018-.001.027-.003A.278.278 0 0 1 5 7h14ZM3 8v8a2 2 0 0 0 2 2h14a2 2 0 0 0 2-2V8a2 2 0 0 0-2-2H5a2 2 0 0 0-2 2Z"/>
<path d="M5 17a1 1 0 0 1-1-1V8c0-.127.027-.248.07-.36L12 13.25l7.953-5.537A.974.974 0 0 1 20 8v8a1 1 0 0 1-1 1H5ZM19 7c.061 0 .122.008.18.019C14.534 10.34 12.141 12 12 12c-.142 0-2.497-1.665-7.065-4.994.01 0 .018-.001.027-.003A.278.278 0 0 1 5 7h14ZM3 8v8a2 2 0 0 0 2 2h14a2 2 0 0 0 2-2V8a2 2 0 0 0-2-2H5a2 2 0 0 0-2 2Z"/>
</svg>