<svg id="Default" xmlns="http://www.w3.org/2000/svg" viewBox="0 0 24 24"><path d="M5.08,4.28,8.76,8.83l-1,1-.58.58.45.68.36.54A15.52,15.52,0,0,0,12.36,16l.52.35.68.45.58-.58,1-1,4.56,3.69A7.59,7.59,0,0,1,16.17,20H16a8.56,8.56,0,0,1-3.11-.92,17.31,17.31,0,0,1-5.66-4.44A15.39,15.39,0,0,1,4.46,10,6.66,6.66,0,0,1,4,7.46a2.84,2.84,0,0,0,.06-.31,7.76,7.76,0,0,1,1-2.87M5,3H5a.6.6,0,0,0-.46.25A8.76,8.76,0,0,0,3.08,7c0,.08-.05.24-.05.25s0,.06,0,.09a7.52,7.52,0,0,0,.51,3,16.82,16.82,0,0,0,2.93,4.92,18.34,18.34,0,0,0,6,4.7A9.58,9.58,0,0,0,16,21h.27a8.61,8.61,0,0,0,4.51-1.55A.6.6,0,0,0,21,19a.61.61,0,0,0-.22-.49l-5.27-4.26a.59.59,0,0,0-.37-.14.56.56,0,0,0-.42.18l-1.29,1.28-.52-.34A14.62,14.62,0,0,1,8.8,11.1l-.36-.54L9.73,9.28a.61.61,0,0,0,0-.8L5.51,3.22A.6.6,0,0,0,5,3Z"/></svg>