<svg xmlns="http://www.w3.org/2000/svg" width="24" height="24">
<path d="m16.925 15.564-1.06 1.06a1.487 1.487 0 0 1-1.869.221c-2.788-1.743-5.228-4.183-7.057-7.055a1.488 1.488 0 0 1 .218-1.872l1.1-1.1-2.732-3.33c-.368.434-1.579 2.37-1.885 3.379a2.285 2.285 0 0 0 .075 1.745c2.216 5.219 6.42 9.423 11.538 11.547a2.28 2.28 0 0 0 1.74.091 11.784 11.784 0 0 0 2.971-1.581c.154-.106.266-.219.41-.322m-5.522 2.728C9.512 18.859 5.112 14.46 2.8 9.016a3.254 3.254 0 0 1-.11-2.463c.334-1.103.918-2.2 1.725-3.239.085-.129.2-.301.374-.479.386-.455 1.137-.445 1.512.024l2.746 3.345c.323.43.284.954-.083 1.32l-1.1 1.1a.49.49 0 0 0-.08.632c1.747 2.745 4.079 5.077 6.741 6.741.21.13.451.1.632-.08l1.153-1.146c.182-.134.672-.404 1.328.034l3.39 2.78c.458.438.478 1.14-.006 1.527-.19.132-.308.257-.484.375-1.23.835-2.728 1.803-4.304 1.895a3.29 3.29 0 0 1-1.383-.307Z"/>
</svg>