<svg xmlns="http://www.w3.org/2000/svg" width="24" height="24">
<path d="M12 3.5c.544 0 1.032.277 1.302.75l8.277 14.506c.269.47.267 1.029-.004 1.497a1.487 1.487 0 0 1-1.298.747H3.723c-.54 0-1.026-.28-1.297-.747a1.485 1.485 0 0 1-.005-1.497L10.698 4.25A1.52 1.52 0 0 1 12 3.5Zm0 .994c-.217 0-.328.066-.434.252L3.289 19.252a.488.488 0 0 0-.01.476.503.503 0 0 0 .444.272h16.554c.26 0 .417-.206.459-.302a.484.484 0 0 0-.025-.446L12.434 4.746c-.106-.186-.217-.252-.434-.252Z"/>
<path d="M13 16v2h-2v-2h2ZM13 9l-.4 5.5h-1.2L11 9h2Z"/>
</svg>