<?xml version="1.0" encoding="utf-8"?>
<!-- Generator: Adobe Illustrator 21.1.0, SVG Export Plug-In . SVG Version: 6.00 Build 0)  -->
<svg version="1.1" id="Ebene_1" xmlns="http://www.w3.org/2000/svg" xmlns:xlink="http://www.w3.org/1999/xlink" x="0px" y="0px"
	 viewBox="0 0 128 128" style="enable-background:new 0 0 128 128;" xml:space="preserve">
<style type="text/css">
	.st0{fill:#FFFFFF;}
</style>
<g id="Ebene_1_1_">
</g>
<g>
	<path class="st0" d="M64,112.5h-1.9V93.4h4v15c23.7-1,42.5-20.6,42.5-44.5c0-24.5-20-44.5-44.5-44.5c-24.6,0.1-44.5,20-44.5,44.6
		c0,10,3.3,19.5,9.4,27.4l-3.1,2.4C19.1,85.3,15.5,74.9,15.5,64c0-26.8,21.7-48.5,48.5-48.5c26.7,0,48.5,21.7,48.5,48.5
		C112.4,90.7,90.7,112.5,64,112.5L64,112.5z"/>
	<path class="st0" d="M57.3,65.3c-0.2-0.8-0.4-1.6-0.4-2.2c0-4.3,3.5-7.8,7.8-7.8s7.8,3.5,7.8,7.8c0,4.3-3.5,7.8-7.8,7.8
		c-0.8,0-1.6-0.2-2.6-0.5l-0.4-0.2L42.7,83.7l14.8-18L57.3,65.3z"/>
</g>
</svg>
