<?xml version="1.0" encoding="utf-8"?>
<!-- Generator: Adobe Illustrator 21.1.0, SVG Export Plug-In . SVG Version: 6.00 Build 0)  -->
<svg version="1.1" id="Ebene_1" xmlns="http://www.w3.org/2000/svg" xmlns:xlink="http://www.w3.org/1999/xlink" x="0px" y="0px"
	 viewBox="0 0 186 65" style="enable-background:new 0 0 186 65;" xml:space="preserve">
<style type="text/css">
	.st0{fill:#FFFFFF;}
	.st1{fill-rule:evenodd;clip-rule:evenodd;fill:#FFFFFF;}
</style>
<rect x="4.6" y="32.2" width="170.1" height="29.2"/>
<path class="st0" d="M9.1,19.5v0.8c0,1.8,0.5,3.1,2.4,3.1c1.9,0,2.5-1.4,2.5-2.8c0-5.1-10.1-2.2-10.1-11c0-3.7,2-6.9,7.7-6.9
	c5.5,0,7.5,2.8,7.5,6.4v0.6h-5.3c0-1.1-0.1-1.9-0.5-2.5c-0.3-0.6-0.9-0.8-1.7-0.8c-1.4,0-2.2,0.8-2.2,2.5c0,4.9,10.1,2.4,10.1,10.7
	c0,5.3-3,7.5-8,7.5c-4,0-7.7-1.2-7.7-6.1v-1.5H9.1z"/>
<path class="st0" d="M22.1,3.2h5.5V12h4.4V3.2h5.5v23.5h-5.5v-10h-4.4v10h-5.5V3.2z"/>
<path class="st0" d="M48.8,27.1c-7.3,0-8.3-4.7-8.3-12.2c0-7.5,1-12.2,8.3-12.2c7.8,0,8.3,5.7,8.3,12.2C57,21.4,56.6,27.1,48.8,27.1
	z M48.7,23.4c2.2,0,2.6-2.1,2.6-8.5c0-6.4-0.3-8.5-2.6-8.5c-2.2,0-2.5,2.1-2.5,8.5C46.2,21.4,46.6,23.4,48.7,23.4z"/>
<path class="st0" d="M58,3.2h5.5l2,16.7h0.1l2.4-16.7h5.1l2.6,16.7h0.1l2-16.7h5.3l-4.1,23.5H73L70.6,10h-0.1l-2.3,16.7h-6.1L58,3.2
	z"/>
<path class="st0" d="M108,5L108,5l-6.8,21.7h-1.4L93.1,5H93v21.7h-1.4V3.2h2.2l6.7,21.1h0.1l6.5-21.1h2.3v23.5H108V5z"/>
<path class="st0" d="M109.6,26.9h-1.9V6.3l-6.4,20.6h-1.7L93.3,6.3v20.6h-1.9v-24H94l6.5,20.7l6.4-20.7h2.7V26.9z M108.2,26.4h0.9
	v-23h-1.9l-6.5,21.1h-0.4L93.7,3.4h-1.8v23h0.9V4.7h0.5l6.7,21.7h1l6.7-21.7h0.5V26.4z"/>
<path class="st0" d="M113.2,3.2h11.2v1.2h-9.8v9.4h9.2v1.2h-9.2v10.4h10.1v1.2h-11.5V3.2z"/>
<path class="st0" d="M124.9,26.9h-12v-24h11.7v1.7h-9.8v8.9h9.2v1.7h-9.2v9.9h10.1V26.9z M113.4,26.4h11v-0.8h-10.1V14.8h9.2V14
	h-9.2V4.2h9.8V3.4h-10.7V26.4z"/>
<path class="st0" d="M137.7,4.4h-6.3V3.2h13.9v1.2h-6.2v22.2h-1.4V4.4z"/>
<path class="st0" d="M139.3,26.9h-1.9V4.7h-6.3V2.9h14.4v1.7h-6.2V26.9z M137.9,26.4h0.9V4.2h6.2V3.4h-13.4v0.8h6.3V26.4z"/>
<path class="st0" d="M147.4,3.2h1.4v10.3h10.3V3.2h1.4v23.5h-1.4V14.7h-10.3v11.9h-1.4V3.2z"/>
<path class="st0" d="M160.7,26.9h-1.9V15H149v11.9h-1.9v-24h1.9v10.3h9.8V2.9h1.9V26.9z M159.3,26.4h0.9v-23h-0.9v10.3h-10.8V3.4
	h-0.9v23h0.9V14.5h10.8V26.4z"/>
<path class="st0" d="M163.1,3.2h11.2v1.2h-9.8v9.4h9.2v1.2h-9.2v10.4h10.1v1.2h-11.5V3.2z"/>
<path class="st0" d="M174.9,26.9h-12v-24h11.7v1.7h-9.8v8.9h9.2v1.7h-9.2v9.9h10.1V26.9z M163.4,26.4h11v-0.8h-10.1V14.8h9.2V14
	h-9.2V4.2h9.8V3.4h-10.7V26.4z"/>
<path class="st0" d="M19.3,56.7c-5.6,0-8.6-4.2-8.6-9.8c0-6.1,3.6-9.8,8.6-9.8c4.7,0,6.5,2,7.8,5.6l-4.8,1.9
	c-0.7-1.8-1.3-2.9-3.1-2.9c-2.2,0-3.1,2.2-3.1,5.2c0,2.9,0.9,5.2,3.2,5.2c1.6,0,2.4-0.9,3.4-2.7l4.4,2.4
	C25.9,54.3,23.8,56.7,19.3,56.7z"/>
<path class="st0" d="M48.8,48.7h-3.1l0.4-1.2c0.7-2.4,1-3.5,1.2-4.7c0.2,1.3,0.5,2.3,1.2,4.7L48.8,48.7z M56.8,56.2l-6.9-18.9h-5.3
	l-6.9,18.9h5.6l1-3.3H50l1,3.3H56.8z"/>
<path class="st0" d="M78.1,43.7c0,1.4-0.7,2.1-2.4,2.1h-3.1v-4.1h3.2C77.4,41.7,78.1,42.5,78.1,43.7z M83.7,56.3l-3.8-7.2
	c2.1-0.9,3.4-2.7,3.4-5.5c0-4.5-2.9-6.2-7.4-6.2h-8.5v18.9h5.2v-6.4h2.1l3.1,6.4H83.7z"/>
<path class="st0" d="M101.6,41.8v2.6h5.9v4.4h-5.9v7.4h-5.2V37.4h15v4.5H101.6z"/>
<path class="st0" d="M133.8,48.9h-3.1l0.4-1.2c0.7-2.4,1-3.5,1.2-4.7c0.2,1.3,0.5,2.3,1.2,4.7L133.8,48.9z M141.7,56.4l-6.9-18.9
	h-5.3l-6.9,18.9h5.6l1-3.3h5.7l1,3.3H141.7z"/>
<g>
	<path class="st1" d="M173.7,31.3H5.6c-1.1,0-1.9,0.8-1.9,1.9v27.3c0,1,0.9,1.9,1.9,1.9h168.1c1.1,0,1.9-0.8,1.9-1.9V33.2
		C175.6,32.1,174.7,31.3,173.7,31.3z M32.2,61H5.1V32.6h27.1V61z M60.7,61H33.6V32.6h27.1V61z M89,61H61.9V32.6H89V61z M117.5,61
		H90.3V32.6h27.1V61z M145.9,61h-27.1V32.6h27.1V61z M174.2,60.9h-27.1V32.6h27.1V60.9z"/>
	<path class="st1" d="M157.4,52.2l-6.5-9.3h6.7l1.2,1.8c0.7,1.2,1.5,2.4,2,3.4c0.5-1,1.3-2.3,2-3.4l1.2-1.8h6.5l-6.5,9.2l5.7,8.1h4
		V33.3h-25.7v26.9h3.7L157.4,52.2z"/>
	<path class="st1" d="M160.5,56.1c-0.5,1-1.2,2.3-2,3.5l-0.5,0.7h4.9l-0.4-0.7C161.7,58.4,161,57.1,160.5,56.1z"/>
</g>
<path class="st0" d="M183.2,32.5c0,0.7-0.2,1.3-0.7,1.8c-0.5,0.5-1.1,0.7-1.7,0.7c-0.7,0-1.3-0.2-1.8-0.7c-0.5-0.5-0.7-1.1-0.7-1.8
	c0-0.7,0.2-1.3,0.7-1.8c0.5-0.5,1.1-0.7,1.8-0.7c0.7,0,1.3,0.2,1.7,0.7C183,31.2,183.2,31.8,183.2,32.5z M182.8,32.5
	c0-0.6-0.2-1.1-0.6-1.5c-0.4-0.4-0.9-0.6-1.4-0.6c-0.6,0-1.1,0.2-1.5,0.6c-0.4,0.4-0.6,0.9-0.6,1.5c0,0.6,0.2,1.1,0.6,1.5
	c0.4,0.4,0.9,0.6,1.5,0.6c0.6,0,1-0.2,1.5-0.6C182.6,33.6,182.8,33.1,182.8,32.5z M182.1,31.8c0,0.3-0.1,0.5-0.3,0.7
	c-0.2,0.2-0.4,0.2-0.7,0.2l0.9,1.2h-0.6l-0.9-1.2h-0.5v1.2h-0.4v-3h1.5c0.3,0,0.6,0.1,0.8,0.2C182,31.4,182.1,31.6,182.1,31.8z
	 M181.7,31.8c0-0.3-0.2-0.5-0.7-0.5h-0.9v1h0.9C181.4,32.3,181.7,32.2,181.7,31.8z"/>
<path class="st0" d="M180.7,35c-0.7,0-1.3-0.3-1.8-0.7c-0.5-0.5-0.7-1.1-0.7-1.8c0-0.7,0.2-1.3,0.7-1.8s1.1-0.8,1.8-0.8
	c0.7,0,1.3,0.3,1.8,0.8c0.5,0.5,0.7,1.1,0.7,1.8c0,0.7-0.2,1.3-0.7,1.8C182,34.8,181.4,35,180.7,35z M180.7,30
	c-0.7,0-1.3,0.2-1.7,0.7c-0.5,0.5-0.7,1.1-0.7,1.8c0,0.7,0.2,1.3,0.7,1.7c0.5,0.5,1.1,0.7,1.7,0.7c0.7,0,1.2-0.2,1.7-0.7
	c0.5-0.5,0.7-1.1,0.7-1.8c0-0.7-0.2-1.3-0.7-1.8C182,30.2,181.4,30,180.7,30z M180.7,34.7c-0.6,0-1.1-0.2-1.5-0.6
	c-0.4-0.4-0.6-0.9-0.6-1.5c0-0.6,0.2-1.1,0.6-1.6c0.4-0.4,0.9-0.7,1.5-0.7c0.6,0,1.1,0.2,1.5,0.7c0.4,0.4,0.6,1,0.6,1.5
	c0,0.6-0.2,1.1-0.6,1.6C181.8,34.5,181.3,34.7,180.7,34.7z M180.8,30.4c-0.6,0-1.1,0.2-1.5,0.6c-0.4,0.4-0.6,0.9-0.6,1.5
	c0,0.6,0.2,1.1,0.6,1.5c0.4,0.4,0.9,0.6,1.4,0.6c0.5,0,1-0.2,1.4-0.6c0.4-0.4,0.6-0.9,0.6-1.5c0-0.6-0.2-1.1-0.6-1.5
	C181.8,30.6,181.3,30.4,180.8,30.4z M182.2,34h-0.7l0,0l-0.9-1.2h-0.4V34h-0.5v-3.1h1.5c0.3,0,0.6,0.1,0.8,0.3
	c0.2,0.2,0.3,0.4,0.3,0.7c0,0.3-0.1,0.5-0.3,0.7c-0.2,0.2-0.4,0.2-0.6,0.3L182.2,34z M181.5,33.9h0.5l-0.9-1.2h0.1
	c0.2,0,0.5-0.1,0.6-0.2c0.2-0.2,0.3-0.4,0.3-0.6c0-0.2-0.1-0.4-0.2-0.6c-0.2-0.2-0.4-0.2-0.7-0.2h-1.4v2.9h0.4v-1.2h0.6l0,0
	L181.5,33.9z M181,32.4H180v-1.1h0.9c0.5,0,0.7,0.2,0.7,0.5C181.7,32.2,181.5,32.4,181,32.4z M180.1,32.3h0.9c0.4,0,0.6-0.2,0.6-0.5
	c0-0.3-0.2-0.4-0.6-0.4h-0.8V32.3z"/>
</svg>
