<svg width="106" height="28" viewBox="0 0 106 28" fill="none" xmlns="http://www.w3.org/2000/svg">
<path d="M105.7 0V28H88.0432V7.88743L78.7104 9.10945V28H61.0537V7.88743L51.6354 9.12071V24.4665C51.6354 26.3513 50.1339 27.9023 48.2703 27.9787L48.1262 27.9817H0V20.7846H35.0037C37.4891 20.7846 37.8281 17.3878 35.146 17.2726L35.0045 17.2696H4.25061C2.36464 17.2696 0.105285 15.7592 0.00356216 13.886L0 13.7548V3.54474C0 1.65983 1.50096 0.10917 3.36518 0.0328155L3.50928 0.0298692H48.1262C49.7958 0.0298692 51.2024 1.21307 51.5519 2.78379L51.5815 2.93216L70.1461 0.0491269L78.7104 0V2.91067L97.1355 0.0491269L105.7 0ZM35.0731 6.92533H12.9735C11.9027 6.92533 11.0178 7.81171 11.0178 8.88438C11.0178 9.92341 11.8362 10.7802 12.8591 10.8401L12.9735 10.8434H35.0731C36.1439 10.8434 37.0289 9.95692 37.0289 8.88425C37.0289 7.84534 36.2107 6.98854 35.1876 6.92867L35.0731 6.92533Z" fill="#fff"/>
</svg>
