<svg width="218" height="47" viewBox="0 0 218 47" fill="none" xmlns="http://www.w3.org/2000/svg">
<path fill-rule="evenodd" clip-rule="evenodd" d="M64.5575 0C63.6949 0.957212 62.6084 1.96911 61.6122 2.89719C61.2368 3.24675 60.8746 3.58405 60.54 3.90397C59.7748 4.63581 58.8765 5.2823 57.7926 5.74736C56.7081 6.21293 55.4359 6.49862 53.9225 6.50833C49.577 6.54614 45.2314 6.74341 40.891 6.93199C37.6269 7.07356 34.3684 7.20848 31.1027 7.29587C29.3796 9.32477 27.632 11.322 25.8441 13.2936C24.1593 15.1519 22.4565 16.9932 20.7334 18.8156C18.4365 21.2457 16.1104 23.6513 13.793 26.0619L12.9636 26.9246L28.1742 23.202C36.09 18.3981 45.842 15.9312 62.463 16.085L55.9674 23.6819C55.4017 24.3437 55.8782 25.7589 56.3908 26.6716C57.0478 27.8394 57.5187 28.0811 59.5759 27.3176C61.7224 26.6195 65.1457 25.4849 67.511 24.4511C69.4948 22.2075 73.8494 17.8431 74.5116 17.3806C77.4166 16.8966 79.486 16.8777 83.4975 16.4673C81.2194 18.7354 77.285 22.807 75.1777 25.4911C75.1343 25.5464 75.0893 25.6037 75.0436 25.6624L74.9746 25.7514L74.9054 25.842C74.3637 26.5563 73.8632 27.3677 74.9778 27.1934C78.8367 26.5904 85.4328 24.1276 88.5484 22.507L94.8282 16.4602L103.906 15.6445C102.296 17.0278 100.643 18.4729 98.9926 19.9342L98.4426 20.4218C97.8929 20.9099 97.344 21.3993 96.7977 21.8882L96.2523 22.3769C89.7197 28.238 83.6409 33.9535 80.9587 36.605C85.5348 34.2726 94.5788 30.7729 100.942 28.7404C100.619 25.5013 106.385 21.6908 117.202 18.5739C123.817 16.7004 131.13 15.8336 135.694 15.5694C136.081 15.5484 136.439 15.5433 136.799 15.5449C138.382 15.5694 138.227 16.2205 137.078 17.6106C136.802 17.9366 136.587 18.2478 136.145 18.3291C136.12 18.3337 136.094 18.3385 136.067 18.3433L135.905 18.3715C133.605 18.7466 131.24 19.1478 129.4 19.5459C123.335 20.8788 118.541 22.0465 115.179 23.4571C113.008 24.3678 105.966 28.0683 114.319 29.0041C117.967 29.4129 123.471 29.8208 134.92 27.616C135.608 26.0568 138.191 24.3616 140.88 22.9266C142.505 22.0542 147.301 20.0595 151.92 18.8039C160.659 16.4285 170.695 15.7656 176.319 15.9384L169.753 23.2153C169.015 24.1225 169.145 25.0383 169.731 25.9725C170.48 27.1694 172.045 27.5655 174.72 26.5919C176.546 25.927 178.375 25.3449 180.308 24.6054L187.492 16.3549L195.256 15.944L190.56 21.1128C191.869 20.6825 194.869 19.6691 198.282 18.6649C198.738 18.5288 199.2 18.3929 199.666 18.2583L200.066 18.1433C206.143 16.4051 212.701 14.9609 213.556 16.6375C213.771 17.0596 213.945 17.4496 214.092 17.8523C214.234 18.2443 214.291 18.8253 213.84 19.3359C212.925 20.4098 211.884 21.5629 210.844 22.7272L210.22 23.4266C209.081 24.7093 207.973 25.9891 207.062 27.1755C206.127 28.3939 206.285 29.0833 208.357 28.9826C208.801 28.9617 209.874 28.8595 211.002 28.6974C211.969 28.563 213.036 28.3453 215.058 27.9309C215.949 27.7387 216.732 28.0688 216.918 28.8293L217.343 30.3333C213.001 31.4929 210.11 31.9064 207.306 32.2258C204.642 32.5191 202.306 32.7481 199.614 32.6392C196.617 32.5181 195.426 32.2028 196.422 30.5833C198.034 27.9646 201.005 24.3126 203.404 21.8488C203.632 21.6331 203.558 21.5063 203.339 21.5304C200.675 21.885 194.792 22.8964 186.397 25.5764L181.168 30.7453C180.043 31.8573 178.572 32.4783 176.836 32.5621L173.271 32.5437L176.11 29.3312C172.823 30.4861 170.396 31.08 168.556 31.6365C165.179 32.6581 163.63 31.4055 162.474 28.9601C162.231 28.4532 161.999 27.9339 161.757 27.3886C161.525 27.4939 161.287 27.6007 161.06 27.7004C159.669 28.3085 158.334 28.8339 156.969 29.3393C151.152 31.4546 146.455 32.4481 142.97 32.6454C139.609 32.9193 136.629 32.4241 135.515 31.2292C127.572 32.7593 121.339 33.1191 116.563 33.2842C109.428 33.5305 105.125 32.7634 102.794 31.2563C100.144 32.1061 96.3895 33.4751 92.4982 34.9854L91.8828 35.225L91.2659 35.4667C90.8544 35.6283 90.4425 35.7912 90.0313 35.9546L89.4152 36.2003C84.083 38.3333 78.9702 40.545 76.553 41.8679C73.8622 43.3403 72.2207 44.5903 69.9681 45.8245L65.2268 46.8559C71.1658 40.4497 77.2834 34.2077 82.7032 28.8043C79.0326 30.4984 72.4161 32.2667 67.6237 33.0425C62.4523 33.8796 61.6729 32.7634 63.574 29.9521C63.6108 29.8984 64.0806 29.1334 64.531 28.5636C61.3653 30.039 57.0336 31.5624 54.5096 32.3295C51.4954 33.3747 50.1518 31.773 48.9587 29.3935C48.6797 28.8365 48.4318 28.3004 48.1686 27.682C44.0607 29.486 39.3658 31.2681 34.8162 32.1445C23.6068 34.3048 20.6666 31.1935 23.1345 27.4852L8.73543 30.9844C8.35999 31.2502 7.97181 31.494 7.5673 31.706C7.32143 31.8343 5.76054 32.536 4.34553 32.534H0C1.66088 30.5802 3.3136 28.6198 4.97652 26.668C6.71799 24.6243 8.46355 22.5837 10.2091 20.543C12.0057 18.4431 13.7971 16.3396 15.5927 14.2386C17.4678 12.0451 19.3399 9.84962 21.2124 7.65463L19.5077 7.74764C16.3236 7.92191 13.414 8.08136 10.5672 8.22752C7.35918 8.3926 4.15118 8.54949 0.942155 8.69157C2.57498 7.02347 4.26748 5.37838 5.91968 3.76752C9.87294 3.38014 13.8323 3.04131 17.7917 2.72701C22.6076 2.34371 27.4259 1.99517 32.2458 1.68087C37.634 1.32926 43.0252 1.01189 48.4175 0.731324C53.7954 0.451775 59.1755 0.204423 64.5575 0ZM53.9087 19.3149C48.4159 19.8158 43.4935 21.0219 38.2558 22.8377C29.9285 25.8825 28.0804 29.0572 36.825 27.1351C38.0829 26.8413 39.6698 26.4427 41.5036 25.8841C46.7857 24.2518 50.6293 22.3332 53.9087 19.3149ZM167.455 19.27C161.804 19.851 156.428 21.2156 151.066 23.0605C142.544 26.1468 141.341 28.8523 149.954 27.0002C151.244 26.6941 152.872 26.2812 154.752 25.7093C160.162 24.0407 164.135 22.2407 167.455 19.27Z" fill="#fff"/>
</svg>
