<svg id="Default" xmlns="http://www.w3.org/2000/svg" viewBox="0 0 24 24"><path d="M13.46,21h1.83a10.28,10.28,0,0,1,4.78-1c.32,0,.63,0,.93,0V19c-.3,0-.61,0-.93,0A10.51,10.51,0,0,0,13.46,21Z"/><path d="M19,11.16,15,3l-3.55,7.1L9,6,4.81,13.31l-.06,0A4.86,4.86,0,0,0,3,13v1a3.85,3.85,0,0,1,1.37.2,5,5,0,0,1,1.29.8,3.51,3.51,0,0,1,1.18,2.15,25.72,25.72,0,0,0-2.75,3.63A2.06,2.06,0,0,0,4,21H5.13c3.94-6,8.69-8.7,15.87-9V11C20.29,11,19.61,11.09,19,11.16ZM7.67,16.31a4.5,4.5,0,0,0-1.36-2.07,5.79,5.79,0,0,0-.62-.45L9,8l1.91,3.18-2,4.05C8.45,15.57,8.05,15.94,7.67,16.31Zm3-2.38L15,5.24l2.91,6.06A18.66,18.66,0,0,0,10.65,13.93Z"/><path d="M15.62,15.87a14.94,14.94,0,0,0-3.88,1.87l.56.83A14.19,14.19,0,0,1,16,16.79Z"/><path d="M8.23,21h1.3a13.9,13.9,0,0,1,1.74-1.69l-.63-.78A14.83,14.83,0,0,0,8.23,21Z"/><path d="M16.75,15.44l.25,1A13.52,13.52,0,0,1,21,16V15A14.89,14.89,0,0,0,16.75,15.44Z"/></svg>