<svg xmlns="http://www.w3.org/2000/svg" width="24" height="24">
<path d="M16.012 13.216c2.38.91 3.988 2.599 3.988 4.534 0 2.895-3.589 5.25-8 5.25s-8-2.355-8-5.25c0-1.934 1.607-3.624 3.987-4.534.181.29.363.574.545.848C6.426 14.796 5 16.172 5 17.75 5 20.093 8.14 22 12 22s7-1.907 7-4.25c0-1.577-1.425-2.953-3.532-3.687.181-.273.364-.556.544-.848Zm-1.299 1.936C15.508 15.606 16 16.259 16 17c0 1.402-1.757 2.5-4 2.5-2.243 0-4-1.098-4-2.5 0-.74.493-1.394 1.287-1.848l.154.213.3.405.145.19C9.328 16.25 9 16.635 9 17c0 .71 1.232 1.5 3 1.5s3-.79 3-1.5c0-.365-.328-.75-.886-1.04.095-.124.193-.254.293-.389l.306-.419ZM12 1c3.094 0 5.5 2.546 5.5 5.818C17.5 10.818 12 17 12 17S6.5 10.818 6.5 6.818C6.5 3.546 8.906 1 12 1Zm0 1c-1.26 0-2.379.518-3.183 1.369C7.992 4.24 7.5 5.456 7.5 6.819c0 2.87 3.05 6.896 4.5 8.646 1.449-1.75 4.5-5.777 4.5-8.647 0-1.362-.492-2.577-1.316-3.45A4.342 4.342 0 0 0 12 2Zm0 2.5a2 2 0 1 1 0 4 2 2 0 0 1 0-4Z"/>
</svg>