<svg id="Default" xmlns="http://www.w3.org/2000/svg" viewBox="0 0 24 24"><path d="M12,3a9,9,0,1,0,9,9A9,9,0,0,0,12,3Zm7.41,6H15.8a14.34,14.34,0,0,0-1.34-4.61A8,8,0,0,1,19.41,9ZM15,12c0,.7,0,1.37-.09,2H9.09C9,13.37,9,12.7,9,12s0-1.37.09-2h5.82C15,10.63,15,11.3,15,12Zm-3,8a8,8,0,0,1-1.11-.09A11.14,11.14,0,0,1,9.21,15h5.58a11.14,11.14,0,0,1-1.68,4.91A8,8,0,0,1,12,20ZM9.21,9a11.14,11.14,0,0,1,1.68-4.91A8,8,0,0,1,12,4a8,8,0,0,1,1.11.09A11.14,11.14,0,0,1,14.79,9Zm.34-4.61A14.08,14.08,0,0,0,8.2,9H4.59A8,8,0,0,1,9.55,4.39ZM4.26,10H8.1C8,10.65,8,11.31,8,12s0,1.35.1,2H4.26a7.82,7.82,0,0,1,0-4Zm.33,5H8.2a14.08,14.08,0,0,0,1.35,4.61A8,8,0,0,1,4.59,15Zm9.87,4.61A14.34,14.34,0,0,0,15.8,15h3.61A8,8,0,0,1,14.46,19.61ZM19.74,14H15.9c.06-.65.1-1.31.1-2s0-1.35-.1-2h3.84a7.82,7.82,0,0,1,0,4Z"/></svg>