<svg xmlns="http://www.w3.org/2000/svg" width="24" height="24">
<path d="M12.5 2v1.514a8.5 8.5 0 0 1 7.985 7.986H22v1h-1.515a8.5 8.5 0 0 1-7.985 7.985V22h-1v-1.515A8.501 8.501 0 0 1 3.514 12.5H2v-1h1.514A8.501 8.501 0 0 1 11.5 3.514V2h1ZM12 4.5a7.5 7.5 0 1 0 0 15 7.5 7.5 0 0 0 0-15ZM12 9a2.89 2.89 0 0 1 2.121.879 2.89 2.89 0 0 1 .879 2.12c0 .829-.293 1.536-.879 2.122A2.892 2.892 0 0 1 12 15a2.892 2.892 0 0 1-2.121-.879A2.892 2.892 0 0 1 9 12c0-.828.293-1.535.879-2.121A2.89 2.89 0 0 1 12 8.999Zm0 1c-.565 0-1.014.186-1.414.586-.4.4-.586.849-.586 1.414s.186 1.014.586 1.414c.4.4.849.586 1.414.586s1.014-.187 1.414-.586c.4-.4.586-.85.586-1.414 0-.565-.186-1.014-.586-1.414-.4-.4-.849-.586-1.414-.586Z"/>
</svg>