<svg xmlns="http://www.w3.org/2000/svg" height="24" width="24">
<path d="m3.91 5.575a10 10 0 0 0 0 11.74l.78-.625a9 9 0 0 1 0-10.5zm16.18 0-.78.625a9 9 0 0 1 0 10.5l.78.625a10 10 0 0 0 0-11.74z"/>
<path d="m6.25 7.46a7 7 0 0 0 0 7.97l.78-.625a6 6 0 0 1 0-6.72zm10.72.625a6 6 0 0 1 0 6.72l.78.63a7 7 0 0 0 0-8zm-4.97-.01a3.435 3.435 0 0 0 -2.5 1.06 3.635 3.635 0 0 0 -1 2.545c0 .785.425 1.88 1.33 3.45.575 1 1.72 2.655 1.77 2.725l.41.6.41-.6c.05-.07 1.195-1.73 1.775-2.725.9-1.57 1.325-2.665 1.325-3.45a3.635 3.635 0 0 0 -1.02-2.545 3.435 3.435 0 0 0 -2.5-1.06zm1.315 6.55c-.345.6-.925 1.5-1.315 2.06-.39-.585-.97-1.46-1.315-2.055-.795-1.37-1.185-2.365-1.185-2.95a2.655 2.655 0 0 1 .74-1.85 2.45 2.45 0 0 1 3.54 0c.47.5.728 1.163.72 1.85 0 .585-.39 1.58-1.185 2.945z"/>
</svg>