<svg id="Default" xmlns="http://www.w3.org/2000/svg" viewBox="0 0 24 24"><path d="M12,5a4,4,0,1,0,4,4A4,4,0,0,0,12,5Zm0,7a3,3,0,1,1,3-3A3,3,0,0,1,12,12Z"/><path d="M12,2h0C8.14,2,5,4.48,5,8.49c0,1.69.29,2.65,2.77,7,1.27,2.21,2.52,4,2.57,4.11L12,22l1.66-2.42c.05-.07,1.3-1.9,2.57-4.11,2.48-4.33,2.77-5.31,2.77-7C19,4.48,15.86,2,12,2Zm3.36,13c-1.21,2.12-2.4,3.86-2.53,4L12,20.23,11.16,19S9.91,17.2,8.64,15C6.13,10.59,6,9.89,6,8.49,6,5.26,8.47,3,12,3h0c3.53,0,6,2.26,6,5.49C18,9.91,17.8,10.73,15.36,15Z"/></svg>