<svg xmlns="http://www.w3.org/2000/svg" width="24" height="24">
<path d="M15.829 2.762A10.005 10.005 0 0 0 11.998 2L12 12l.575-1.386.383-.924.765-1.848.383-.924.767-1.848.383-.924.573-1.384Z"/>
<path d="M3.514 11.5a8.502 8.502 0 0 1 7.484-7.942v1.008A7.502 7.502 0 0 0 4.516 11.5h2.006A5.503 5.503 0 0 1 11 6.59v1.022A4.504 4.504 0 0 0 7.527 11.5H9.55A2.504 2.504 0 0 1 11 9.708v1.174a1.5 1.5 0 1 0 2.352.468l.45-1.084c.322.335.552.76.648 1.234h2.023a4.497 4.497 0 0 0-1.87-3.17l.392-.944a5.498 5.498 0 0 1 2.483 4.114h2.006a7.5 7.5 0 0 0-3.714-5.985l.386-.931a8.5 8.5 0 0 1 4.33 6.916H22v1h-1.515a8.501 8.501 0 0 1-7.985 7.985V22h-1v-1.515A8.501 8.501 0 0 1 3.514 12.5H2v-1h1.514Zm7.986 5.978v2.006A7.501 7.501 0 0 1 4.516 12.5h2.006a5.502 5.502 0 0 0 4.978 4.978Zm5.978-4.978h2.006a7.501 7.501 0 0 1-6.984 6.984v-2.006a5.502 5.502 0 0 0 4.978-4.978ZM11.5 16.473V14.45a2.503 2.503 0 0 1-1.95-1.95H7.527a4.502 4.502 0 0 0 3.973 3.973Zm4.973-3.973H14.45a2.503 2.503 0 0 1-1.95 1.95v2.023a4.502 4.502 0 0 0 3.973-3.973Z"/>
</svg>