<svg xmlns="http://www.w3.org/2000/svg" width="24" height="24">
<path d="M16 12v1c-.932 0-1.758.434-2.018.853-.12.196-.082.329-.035.423.135.271.905.503 1.715.693l.244.056a54.468 54.468 0 0 0 .988.212l.28.06.14.03.28.063c1.824.418 3.596 1.01 3.896 2.512.106.526-.027 1.035-.383 1.469-1.435 1.75-6.925 2.61-16.78 2.629H4v-1c12.598 0 15.64-1.418 16.334-2.263.169-.206.224-.403.176-.639-.225-1.124-2.373-1.578-4.1-1.941-1.649-.348-2.951-.623-3.357-1.434-.226-.451-.198-.948.08-1.396C13.616 12.546 14.794 12 16 12ZM4 4l9.616 3.801a.5.5 0 0 1 .054.924L5 12.245V20H4V4Zm13 .5 5.109 2.02a.266.266 0 0 1 .028.49l-4.13 1.677L18 13h-1V4.5ZM5 5.47v5.652l7.101-2.845L5 5.47Zm13 .5v1.628l1.952-.856L18 5.971Z"/>
</svg>