<!-- Generated by IcoMoon.io -->
<svg version="1.1" xmlns="http://www.w3.org/2000/svg" width="32" height="32" viewBox="0 0 32 32">
<title>icon_window_next</title>
<path d="M25.9 13.744l-8.669-4.181c-0.813-0.394-1.706-0.594-2.606-0.594h-11.75l1.981 9.544c0.544 2.631 2.938 4.519 5.719 4.519h18.55v-4.256c0-2.131-1.25-4.081-3.225-5.031zM28.188 22.094h-17.613c-2.331 0-4.35-1.587-4.8-3.775l-1.75-8.412h10.6c0.762 0 1.525 0.175 2.2 0.5l8.669 4.181c1.663 0.8 2.694 2.406 2.694 4.188v3.319z"></path>
<path d="M15.169 11.781h-8.544l0.95 4.688h17.8l-8.719-4.344c-0.456-0.225-0.975-0.344-1.488-0.344z"></path>
</svg>
