<!-- Generated by IcoMoon.io -->
<svg version="1.1" xmlns="http://www.w3.org/2000/svg" width="32" height="32" viewBox="0 0 32 32">
<title>icon_leaf</title>
<path d="M15.456 8.369c-4.469 1.188-8.375 3.75-8.375 8.375 0 1.675 0.481 3.069 1.069 4.1l0.825-0.825c-0.481-0.938-0.769-1.875-0.769-3.275 0-0.944 0.194-1.819 0.569-2.606 0.356-0.738 0.881-1.419 1.563-2.031 1.269-1.131 3.144-2.050 5.406-2.65 2.175-0.581 7.025-2.069 9.775-2.925-0.85 2.938-2.369 8.219-2.788 9.95-0.538 2.231-1.438 4.094-2.606 5.387-1.275 1.413-3.012 2.144-4.844 2.125-1.050-0.012-2.131-0.262-3.444-0.962l-0.956 0.744c1.313 0.85 2.875 1.35 4.556 1.35 4.625 0 7.287-3.881 8.375-8.375 0.6-2.4 3.375-11.919 3.375-11.919s-8.662 2.719-11.731 3.537z"></path>
<path d="M4.818 26.384l10.973-10.973 0.796 0.795-10.973 10.973-0.795-0.796z"></path>
</svg>
