<!-- Generated by IcoMoon.io -->
<svg version="1.1" xmlns="http://www.w3.org/2000/svg" width="32" height="32" viewBox="0 0 32 32">
<title>icon_whatsapp</title>
<path d="M27.206 4.651c-2.854-2.873-6.808-4.651-11.176-4.651-0.014 0-0.029 0-0.043 0-8.734 0-15.851 7.113-15.854 15.856 0 0.005 0 0.011 0 0.018 0 2.912 0.786 5.641 2.158 7.984l-2.292 8.142 8.406-2.206c2.189 1.215 4.8 1.93 7.578 1.93h0.006c8.737 0 15.853-7.114 15.857-15.857 0-0.014 0-0.031 0-0.048 0-4.364-1.774-8.314-4.64-11.168zM15.99 29.044h-0.005c-0 0-0 0-0 0-2.474 0-4.789-0.683-6.766-1.87l-0.423-0.247-4.988 1.309 1.332-4.863-0.313-0.499c-1.264-1.984-2.015-4.402-2.015-6.995 0-0.007 0-0.014 0-0.020 0-7.265 5.913-13.177 13.185-13.177 7.275 0.007 13.17 5.906 13.17 13.182 0 0.002 0 0.004 0 0.006 0 7.264-5.913 13.176-13.176 13.176zM23.219 19.173c-0.396-0.199-2.344-1.157-2.707-1.289s-0.627-0.199-0.891 0.199-1.024 1.289-1.255 1.553-0.462 0.297-0.859 0.099-1.677-0.618-3.186-1.966c-1.178-1.051-1.973-2.348-2.206-2.745s-0.025-0.611 0.177-0.808c0.177-0.177 0.396-0.462 0.594-0.695s0.265-0.396 0.396-0.661 0.066-0.496-0.033-0.695-0.891-2.149-1.221-2.942c-0.321-0.772-0.649-0.668-0.891-0.68s-0.495-0.014-0.759-0.014c-0.422 0.011-0.799 0.2-1.058 0.494-0.365 0.399-1.388 1.357-1.388 3.307s1.42 3.834 1.618 4.098 2.794 4.266 6.769 5.982c0.583 0.265 1.331 0.55 2.097 0.796 0.634 0.194 1.177 0.28 1.741 0.28 0.324 0 0.641-0.028 0.949-0.083 0.729-0.109 2.311-0.954 2.641-1.879s0.33-1.719 0.231-1.884-0.362-0.264-0.758-0.462z"></path>
</svg>
