<!-- Generated by IcoMoon.io -->
<svg version="1.1" xmlns="http://www.w3.org/2000/svg" width="32" height="32" viewBox="0 0 32 32">
<title>icon_cubic-capacity</title>
<path d="M26.499 15.225v-0.888h1.531v-0.794h-1.531v-0.887h1.531v-0.831h-1.531v-0.887h1.531v-0.883c0-1.040-0.844-1.884-1.884-1.884h-4.357c-1.040 0-1.884 0.844-1.884 1.884v0.895h1.543v0.887h-1.543v0.831h1.543v0.887h-1.543v0.794h1.543v0.887h-1.543v0.943c0 0.94 0.689 1.717 1.59 1.859v-0.446c0-0.521 0.422-0.942 0.942-0.942h0.157l-4.329 6.006c-0.515-0.314-1.119-0.498-1.767-0.498-0.514 0-1.001 0.117-1.438 0.322l-4.604-8h0.106c0.521 0 0.942 0.422 0.942 0.942v0.446c0.9-0.142 1.59-0.919 1.59-1.859v-0.955c0 0-1.533 0-1.533 0v-0.887h1.531v-0.794h-1.531v-0.887h1.531v-0.831h-1.531v-0.887h1.531v-0.883c0-1.040-0.844-1.884-1.884-1.884h-4.357c-1.040 0-1.884 0.844-1.884 1.884v0.895h1.543v0.887h-1.543v0.831h1.543v0.887h-1.543v0.794h1.543v0.887h-1.543v0.943c0 0.94 0.689 1.717 1.59 1.859v-0.446c0-0.457 0.326-0.838 0.758-0.924l6.162 9.496c-0.244 0.47-0.385 1.003-0.385 1.569 0 1.881 1.524 3.405 3.405 3.405s3.405-1.524 3.405-3.405c0-0.491-0.106-0.957-0.293-1.379 0 0 5.729-7.051 6.102-7.509 0.418 0.097 0.729 0.47 0.729 0.917v0.446c0.9-0.142 1.59-0.919 1.59-1.859v-0.955h-1.533zM16.498 27.438c-1.035 0-1.874-0.839-1.874-1.874s0.839-1.874 1.874-1.874c1.035 0 1.874 0.839 1.874 1.874s-0.838 1.874-1.874 1.874z"></path>
</svg>
