<!-- Generated by IcoMoon.io -->
<svg version="1.1" xmlns="http://www.w3.org/2000/svg" width="32" height="32" viewBox="0 0 32 32">
<title>icon_weight-2</title>
<path d="M22.531 12.594c0-0.301-0.216-0.554-0.5-0.612v-0.013c0 0-2.083-0.49-2.625-1-0.306-0.288-0.813-0.844-0.813-2s1.375-1.813 1.375-1.813l-0.050-0.013c0.389-0.263 0.612-0.568 0.612-0.894 0-0.984-2.029-1.781-4.531-1.781s-4.531 0.798-4.531 1.781c0 0.326 0.224 0.631 0.612 0.894l-0.050 0.013c0 0 1.375 0.656 1.375 1.813s-0.506 1.712-0.813 2c-0.542 0.51-2.625 1-2.625 1v0.013c-0.284 0.058-0.5 0.311-0.5 0.612v12.5c0 0.054 0.008 0.106 0.021 0.156-0.014 0.031-0.021 0.063-0.021 0.094 0 0.656 2.924 1.188 6.531 1.188s6.531-0.532 6.531-1.188c0-0.032-0.007-0.063-0.020-0.094 0.013-0.050 0.020-0.102 0.020-0.156v-12.5z"></path>
</svg>
