<!-- Generated by IcoMoon.io -->
<svg version="1.1" xmlns="http://www.w3.org/2000/svg" width="32" height="32" viewBox="0 0 32 32">
<title>icon_search</title>
<path d="M2.5 14q0 4.375 3.063 7.438t7.438 3.063q3.313 0 6-1.875l4.375 4.313q0.5 0.563 1.281 0.563t1.313-0.531 0.531-1.313-0.563-1.281l-4.313-4.375q1.875-2.688 1.875-6 0-4.375-3.063-7.438t-7.438-3.063-7.438 3.063-3.063 7.438zM5.5 14q0-3.125 2.188-5.313t5.313-2.188 5.313 2.188 2.188 5.313-2.188 5.313-5.313 2.188-5.313-2.188-2.188-5.313z"></path>
</svg>
