<!-- Generated by IcoMoon.io -->
<svg version="1.1" xmlns="http://www.w3.org/2000/svg" width="32" height="32" viewBox="0 0 32 32">
<title>icon_crosshair</title>
<path d="M9.925 11.758c0.508 0.508 1.325 0.508 1.825 0 0.508-0.508 0.5-1.325 0-1.825l-7.558-7.567c-0.5-0.5-1.317-0.5-1.817 0-0.508 0.5-0.508 1.317-0.008 1.825l7.558 7.567z"></path>
<path d="M21.592 19.767c-0.5-0.5-1.317-0.5-1.817 0-0.508 0.5-0.508 1.317-0.008 1.825l8.042 8.042c0.508 0.508 1.325 0.508 1.825 0 0.45-0.517 0.475-1.325 0-1.825l-8.042-8.042z"></path>
<path d="M12.225 19.767c-0.508-0.508-1.325-0.5-1.825 0l-8.033 8.033c-0.508 0.508-0.508 1.325 0 1.825 0.508 0.508 1.325 0.508 1.825 0l8.033-8.033c0.508-0.5 0.508-1.317 0-1.825 0 0 0 0 0 0z"></path>
<path d="M21.6 12.225l8.033-8.033c0.508-0.508 0.508-1.325 0-1.825-0.508-0.508-1.325-0.508-1.825 0l-8.033 8.033c-0.5 0.5-0.5 1.317 0 1.817 0.5 0.508 1.317 0.517 1.825 0.008z"></path>
</svg>
