<!-- Generated by IcoMoon.io -->
<svg version="1.1" xmlns="http://www.w3.org/2000/svg" width="32" height="32" viewBox="0 0 32 32">
<title>icon_suv_pcm</title>
<path d="M28.038 14.912c-2.344-1.075-6.206-1.25-6.406-1.256-0.006 0-0.012 0-0.019-0.006l-3.844-2.050c-1.094-0.469-2.269-0.719-3.456-0.744-0.006 0-0.019 0-0.025-0.006l-7.669-0.006c-0.519 0-0.938 0.419-0.938 0.938 0 0-1.85 1.744-2.538 2.494-0.163 0.181-0.256 0.406-0.263 0.65-0.006 0.512-0.019 1.444 0.006 1.544v1.137c0 0.438 0.288 0.825 0.706 0.956l2.219 0.694c0.019 0.006 0.031 0.019 0.037 0.038 0.394 1.081 1.419 1.863 2.638 1.863 1.206 0 2.231-0.769 2.625-1.837 0.006-0.025 0.031-0.038 0.056-0.038h9.956c0.025 0 0.050 0.019 0.056 0.038 0.4 1.069 1.419 1.837 2.625 1.837 1.231 0 2.269-0.8 2.65-1.9 0.006-0.019 0.019-0.031 0.038-0.038l1.988-0.663c0.381-0.125 0.644-0.488 0.644-1.025v-0.869c0.006-0.744-0.413-1.438-1.087-1.75zM28.194 17.531c0 0.094-0.019 0.144-0.025 0.156l-1.994 0.65-0.444 0.15-0.15 0.444c-0.3 0.906-1.238 1.462-2.206 1.238-0.65-0.15-1.137-0.688-1.363-1.313l-0.181-0.512h-11.363l-0.175 0.5c-0.225 0.625-0.706 1.156-1.344 1.319-0.963 0.244-1.906-0.306-2.219-1.206l-0.156-0.444-0.45-0.137-2.256-0.706c-0.031-0.006-0.044-0.031-0.044-0.063v-1.25l-0.013-0.044c-0.006-0.1-0.013-0.425 0.006-1.363 0-0.019 0.006-0.031 0.019-0.044 0.669-0.719 2.469-2.425 2.487-2.444l0.294-0.275v-0.406h7.456c1.137 0 2.244 0.225 3.288 0.669l4.012 2.137 0.212 0.006c0.038 0 3.894 0.162 6.088 1.188 0.313 0.144 0.519 0.475 0.519 0.838v0.913z"></path>
</svg>
