<!-- Generated by IcoMoon.io -->
<svg version="1.1" xmlns="http://www.w3.org/2000/svg" width="32" height="32" viewBox="0 0 32 32">
<title>icon_ar</title>
<path d="M25.578 26.469h-1.613v-2.489h1.066v-1.066h2.49v1.655c0 1.048-0.872 1.901-1.943 1.901z"></path>
<path d="M8.106 26.469h-1.563c-1.101 0-1.996-0.852-1.996-1.901v-1.655h2.489v1.066h1.069z"></path>
<path d="M27.531 9.086h-2.49v-1.066h-1.066v-2.489h1.613c1.071 0 1.943 0.853 1.943 1.901z"></path>
<path d="M7.021 9.117h-2.49v-1.655c0-1.048 0.896-1.899 1.996-1.899h1.563v2.489h-1.069z"></path>
<path d="M16.034 26.233c-0.224-0-0.435-0.060-0.616-0.164l0.006 0.003-7.959-4.548c-0.376-0.219-0.625-0.62-0.625-1.079 0-0 0-0.001 0-0.001v0-9.088c0-0.001 0-0.003 0-0.004 0-0.243 0.070-0.469 0.191-0.66l-0.003 0.005v-0.004c0.013-0.020 0.027-0.039 0.041-0.059v0 0 0 0 0 0 0 0 0 0 0 0 0 0 0 0 0 0 0 0 0 0 0 0 0 0 0 0c0.102-0.129 0.227-0.235 0.369-0.314l0.006-0.003 0.025-0.013 7.763-4.116c0.168-0.090 0.368-0.143 0.58-0.143 0.202 0 0.393 0.048 0.561 0.133l-0.007-0.003 8.201 4.077c0.265 0.141 0.468 0.367 0.578 0.64l0.003 0.008c0.016 0.039 0.032 0.089 0.046 0.141l0.002 0.009c0.024 0.092 0.038 0.197 0.038 0.305 0 0.009-0 0.018-0 0.028l0-0.001v9.062c0 0 0 0.001 0 0.002 0 0.459-0.249 0.86-0.619 1.076l-0.006 0.003-7.936 4.532c-0.056 0.034-0.121 0.066-0.189 0.092l-0.008 0.003c-0.058 0.023-0.127 0.043-0.199 0.057l-0.008 0.001c-0.070 0.014-0.151 0.022-0.234 0.022v0zM17.281 16.273v6.569l5.462-3.125v-6.306zM9.328 19.721l5.463 3.125v-6.572l-5.463-2.861zM10.761 11.352l5.275 2.763 5.214-2.732-5.422-2.696z"></path>
</svg>
