<!-- Generated by IcoMoon.io -->
<svg version="1.1" xmlns="http://www.w3.org/2000/svg" width="32" height="32" viewBox="0 0 32 32">
<title>icon_e-route</title>
<path d="M16.17 20.849c-1.223-0.258-2.897-0.61-3.118-1.054-0.055-0.109-0.1-0.265 0.041-0.494 0.303-0.49 1.267-0.997 2.357-0.997v-1.168c-1.409 0-2.786 0.637-3.351 1.551-0.324 0.523-0.356 1.104-0.093 1.631 0.474 0.948 1.996 1.268 3.923 1.674 2.017 0.425 4.527 0.955 4.79 2.268 0.055 0.276-0.009 0.506-0.206 0.747-0.696 0.85-3.424 2.194-13.539 2.553 0 0.387 0.002 1.137 0.002 1.172 8.292-0.285 13.034-1.269 14.44-2.984 0.416-0.507 0.571-1.101 0.448-1.717-0.414-2.069-3.22-2.66-5.695-3.182z"></path>
<path d="M22.175 18.335h-4.414v-4.25c-0.198-0.043-0.392-0.092-0.556-0.15l-0.039-0.012c-0.247-0.074-0.584-0.175-0.839-0.318-1.395-0.735-2.29-1.976-2.396-3.322h0c-0.013-0.162-0.029-0.749 0.002-3.373l0.007-0.587h1.312v-1.682c0-0.296 0.023-0.737 0.22-1.157 0.292-0.621 0.863-0.962 1.606-0.962 1.156 0 1.875 0.812 1.875 2.119v1.682h2.030v-1.682c0-0.298 0.024-0.743 0.23-1.165 0.301-0.616 0.885-0.955 1.645-0.955 0.756 0 1.33 0.336 1.617 0.946 0.211 0.448 0.21 0.925 0.21 1.155v1.701h1.27v3.913c0 1.014-0.457 1.933-1.321 2.66-0.651 0.547-1.494 0.954-2.459 1.189v4.249zM18.949 17.148h2.039v-4.041l0.49-0.087c1.637-0.29 3.29-1.263 3.29-2.783v-2.726h-1.27v-2.89c0-0.154 0-0.441-0.097-0.648-0.043-0.092-0.124-0.264-0.543-0.264-0.348 0-0.687 0.072-0.687 0.932v2.87h-4.405v-2.87c0-0.932-0.482-0.932-0.687-0.932-0.323 0-0.639 0.072-0.639 0.932v2.87h-1.325c-0.012 1.222-0.017 2.428-0.003 2.64l0.001 0.008 0.002 0.031c0.073 0.939 0.736 1.823 1.772 2.367l0.017 0.009c0.139 0.079 0.419 0.163 0.604 0.219l0.081 0.025c0.237 0.085 0.652 0.161 0.874 0.202l0.486 0.090v4.045zM15.107 10.129l0.001 0.006c-0-0.002-0.001-0.004-0.001-0.006z"></path>
</svg>
