<!-- Generated by IcoMoon.io -->
<svg version="1.1" xmlns="http://www.w3.org/2000/svg" width="32" height="32" viewBox="0 0 32 32">
<title>icon_instagram</title>
<path d="M16 6.138c3.212 0 3.594 0.013 4.863 0.069 1.175 0.056 1.813 0.25 2.231 0.412 0.563 0.219 0.962 0.481 1.381 0.9s0.681 0.819 0.9 1.381c0.163 0.425 0.363 1.063 0.413 2.231 0.056 1.269 0.069 1.65 0.069 4.863s-0.012 3.594-0.069 4.863c-0.056 1.175-0.25 1.813-0.413 2.231-0.219 0.563-0.481 0.962-0.9 1.381s-0.819 0.681-1.381 0.9c-0.425 0.163-1.063 0.363-2.231 0.413-1.269 0.056-1.65 0.069-4.863 0.069s-3.594-0.012-4.863-0.069c-1.175-0.056-1.813-0.25-2.231-0.413-0.563-0.219-0.963-0.481-1.381-0.9s-0.681-0.819-0.9-1.381c-0.162-0.425-0.362-1.063-0.412-2.231-0.056-1.269-0.069-1.65-0.069-4.863s0.013-3.594 0.069-4.863c0.056-1.175 0.25-1.813 0.412-2.231 0.219-0.563 0.481-0.963 0.9-1.381s0.819-0.681 1.381-0.9c0.425-0.162 1.063-0.362 2.231-0.412 1.269-0.056 1.65-0.069 4.863-0.069zM16 3.969c-3.269 0-3.675 0.013-4.963 0.075-1.281 0.056-2.156 0.263-2.919 0.556-0.794 0.306-1.463 0.719-2.131 1.388s-1.081 1.338-1.388 2.131c-0.3 0.762-0.5 1.637-0.556 2.919s-0.075 1.694-0.075 4.962 0.013 3.675 0.075 4.962c0.056 1.281 0.263 2.156 0.556 2.919 0.306 0.794 0.719 1.462 1.388 2.131s1.338 1.081 2.131 1.387c0.762 0.3 1.637 0.5 2.919 0.556s1.694 0.075 4.963 0.075 3.675-0.012 4.963-0.075c1.281-0.056 2.156-0.262 2.919-0.556 0.794-0.306 1.462-0.719 2.131-1.387s1.081-1.337 1.387-2.131c0.3-0.762 0.5-1.637 0.556-2.919s0.075-1.694 0.075-4.963-0.012-3.675-0.075-4.963c-0.056-1.281-0.262-2.156-0.556-2.919-0.306-0.794-0.719-1.463-1.387-2.131s-1.337-1.081-2.131-1.388c-0.762-0.3-1.637-0.5-2.919-0.556-1.288-0.063-1.694-0.075-4.963-0.075v0z"></path>
<path d="M16 9.819c-3.412 0-6.181 2.769-6.181 6.181s2.769 6.181 6.181 6.181 6.181-2.769 6.181-6.181-2.769-6.181-6.181-6.181zM16 20.012c-2.213 0-4.012-1.794-4.012-4.012 0-2.213 1.794-4.012 4.012-4.012 2.212 0 4.012 1.794 4.012 4.012 0 2.212-1.8 4.012-4.012 4.012z"></path>
<path d="M23.869 9.575c0 0.797-0.646 1.444-1.444 1.444s-1.444-0.646-1.444-1.444c0-0.797 0.646-1.444 1.444-1.444s1.444 0.646 1.444 1.444z"></path>
</svg>
