<!-- Generated by IcoMoon.io -->
<svg version="1.1" xmlns="http://www.w3.org/2000/svg" width="32" height="32" viewBox="0 0 32 32">
<title>icon_emission_next</title>
<path d="M9.238 21.994c-2.825 0-3.569-1.25-3.569-6.194 0-4.5 0.744-5.787 3.569-5.787 2.363 0 3.006 0.988 3.169 3.975h1.594c-0.162-3.731-1.088-5.506-4.756-5.506-4.013 0-5.281 1.994-5.281 7.319 0 5.544 1.25 7.525 5.281 7.525 3.225 0 4.619-1.531 4.781-5.463h-1.575c-0.231 3.006-0.831 4.131-3.213 4.131z"></path>
<path d="M21.156 8.488c-4.012 0-5.281 1.994-5.281 7.319 0 5.544 1.25 7.525 5.281 7.525s5.262-1.975 5.262-7.525c0-5.325-1.294-7.319-5.262-7.319zM21.156 21.994c-2.825 0-3.569-1.25-3.569-6.194 0-4.5 0.744-5.787 3.569-5.787s3.55 1.287 3.55 5.787c0 4.944-0.731 6.194-3.55 6.194z"></path>
<path d="M26.012 26.494c0-0.788 0.425-1.206 0.988-1.581l0.55-0.363c0.45-0.3 0.913-0.606 0.913-1.306 0-0.65-0.356-0.919-0.988-0.919-0.656 0-0.975 0.281-1.031 1.144h-0.556c0.038-1.063 0.45-1.694 1.594-1.694 1.081 0 1.581 0.538 1.581 1.462 0 0.887-0.538 1.3-1.038 1.625l-0.55 0.363c-0.644 0.438-0.881 0.688-0.881 1.169v0.094h2.425v0.475h-2.994v-0.469z"></path>
</svg>
