<!-- Generated by IcoMoon.io -->
<svg version="1.1" xmlns="http://www.w3.org/2000/svg" width="32" height="32" viewBox="0 0 32 32">
<title>iconhelp_and_contact</title>
<path d="M18.894 11.262h-13.552c-0.794 0-1.438 0.644-1.438 1.438v9.063c0 0.794 0.644 1.438 1.438 1.438h1.674v3.144l5.558-3.149h6.319c0.794 0 1.438-0.644 1.438-1.438v-9.063c-0.003-0.792-0.645-1.432-1.437-1.433zM12.707 21.144c0 0.126-0.102 0.227-0.227 0.227h-1.134c-0.002 0-0.005 0-0.008 0-0.125 0-0.226-0.098-0.233-0.221l-0-1.161c0.006-0.124 0.108-0.221 0.233-0.221 0.003 0 0.005 0 0.008 0h1.134c0.126 0 0.227 0.102 0.227 0.227zM14.606 16.688c-0.143 0.204-0.468 0.464-0.875 0.781l-0.451 0.313c-0.219 0.17-0.413 0.367-0.485 0.594-0.038 0.12-0.063 0.113-0.070 0.319-0.002 0.075-0.064 0.136-0.14 0.136-0.005 0-0.010-0-0.015-0.001l-1.273 0c-0.142 0-0.158-0.084-0.156-0.125 0.020-0.57 0.040-0.854 0.266-1.119 0.391-0.461 1.28-1.030 1.28-1.030 0.127-0.094 0.236-0.204 0.325-0.329 0.154-0.212 0.279-0.442 0.279-0.692 0-0.003 0-0.007 0-0.010 0-0.291-0.094-0.559-0.253-0.777q-0.247-0.349-0.915-0.349-0.656 0-0.93 0.438c-0.157 0.246-0.25 0.546-0.25 0.868 0 0.011 0 0.023 0 0.034l-1.661-0.002c0.046-1.075 0.417-1.832 1.125-2.281q0.668-0.429 1.643-0.43 1.281 0 2.125 0.611v0q0.846 0.611 0.847 1.813c-0.002 0.468-0.158 0.898-0.419 1.245z"></path>
<path d="M26.153 6.656h-10.879c-0.794 0.001-1.437 0.644-1.441 1.437l0.004 1.271h5.688c1.584 0 2.707 1.125 2.707 2.707v4.309l4.032 0.050c0.743-0.061 1.324-0.677 1.329-1.43v-6.908c-0.004-0.793-0.647-1.435-1.441-1.436z"></path>
</svg>
