<!-- Generated by IcoMoon.io -->
<svg version="1.1" xmlns="http://www.w3.org/2000/svg" width="32" height="32" viewBox="0 0 32 32">
<title>icon_forgot_password</title>
<path d="M25.063 18.563v0q-1.032-0.745-2.592-0.744-1.188 0-2 0.524-1.291 0.82-1.375 2.784h1.995c0.003-0.411 0.127-0.792 0.338-1.11q0.33-0.522 1.128-0.522 0.813 0 1.119 0.43c0.191 0.262 0.306 0.59 0.306 0.945 0 0.003 0 0.007-0 0.010 0 0.303-0.152 0.581-0.336 0.833-0.112 0.158-0.244 0.292-0.394 0.404s-1.087 0.698-1.565 1.254c-0.276 0.324-0.301 0.808-0.324 1.5 0 0.049 0.017 0.151 0.188 0.151h1.552c0.005 0.001 0.011 0.001 0.017 0.001 0.092 0 0.168-0.073 0.171-0.165 0.002-0.19 0.033-0.371 0.089-0.541 0.084-0.263 0.32-0.503 0.587-0.71l0.549-0.379c0.496-0.386 0.891-0.703 1.063-0.951 0.315-0.415 0.505-0.939 0.508-1.508q0.009-1.461-1.023-2.204z"></path>
<path d="M21.672 25.92h1.449c0.158 0 0.287 0.128 0.287 0.287v1.449c0 0.158-0.128 0.287-0.287 0.287h-1.449c-0.158 0-0.287-0.128-0.287-0.287v-1.449c0-0.158 0.128-0.287 0.287-0.287z"></path>
<path d="M16.188 21.875c0-1.282 0.688-2.438 1.784-3.258-0.576-0.273-1.069-0.45-1.393-0.5v0c-0.476-0.076-0.486-1.383-0.486-1.383 0.555-0.913 1.089-1.98 1.537-3.090 0.775-1.987 1.722-8.615-3.432-8.615s-3.911 7.383-3.597 8.463 1.701 3.241 1.701 3.241-0.011 1.307-0.486 1.383c-1.531 0.244-6.868 3.291-6.868 6.055 0 0 1.485 0.66 9.296 0.66 1.264 0 2.359-0.017 3.308-0.046-0.849-0.784-1.363-1.8-1.363-2.909z"></path>
</svg>
