<!-- Generated by IcoMoon.io -->
<svg version="1.1" xmlns="http://www.w3.org/2000/svg" width="32" height="32" viewBox="0 0 32 32">
<title>icon_advisor_not-available</title>
<path d="M26.5 25.488c0-3.144-6.044-6.606-7.781-6.881v0c-0.538-0.087-0.55-1.569-0.55-1.569s0.988-1.6 1.806-3.681c0.819-2.088 1.894-9.619-3.962-9.619s-4.444 8.387-4.088 9.619c0.356 1.225 1.931 3.681 1.931 3.681s-0.012 1.488-0.55 1.569c-1.744 0.281-7.806 3.738-7.806 6.881 0 0 1.688 0.75 10.563 0.75s10.438-0.75 10.438-0.75z"></path>
<path d="M7.919 25.45l21.563-21.569v-1.962l-26.194 26.2v1.962l3.794-3.8 0.444-0.438z"></path>
</svg>
