<!-- Generated by IcoMoon.io -->
<svg version="1.1" xmlns="http://www.w3.org/2000/svg" width="32" height="32" viewBox="0 0 32 32">
<title>icon-locked</title>
<path d="M21.771 13.072v-2.774c0-3.281-2.665-5.942-5.938-5.942-3.279 0-5.938 2.659-5.938 5.942v2.774c-1.312 0.004-2.375 1.061-2.375 2.384v7.908c0 1.317 1.065 2.384 2.382 2.384h11.861c1.316 0 2.382-1.059 2.382-2.384v-7.908c0-1.315-1.062-2.381-2.375-2.384zM16.454 19.305v2.65c0 0.327-0.278 0.61-0.621 0.61-0.333 0-0.621-0.273-0.621-0.61v-2.65c-0.723-0.256-1.055-0.852-1.055-1.582 0-0.926 0.75-1.677 1.676-1.677s1.676 0.751 1.676 1.677c0 0.73-0.332 1.326-1.055 1.582zM19.396 13.072h-7.125v-2.772c0-1.974 1.595-3.566 3.563-3.566 1.963 0 3.563 1.597 3.563 3.566v2.772z"></path>
</svg>
