<!-- Generated by IcoMoon.io -->
<svg version="1.1" xmlns="http://www.w3.org/2000/svg" width="32" height="32" viewBox="0 0 32 32">
<title>icon_weight</title>
<path d="M22.635 15.639c-0.153-0.419-0.453-0.755-0.868-0.755h-4.861v-1.488c2.004-0.455 3.5-2.246 3.5-4.387 0-2.485-2.015-4.5-4.5-4.5s-4.5 2.015-4.5 4.5c0 2.141 1.496 3.932 3.5 4.387v1.488h-4.809c-0.415 0-0.736 0.35-0.85 0.755l-2.341 8.637c0 0.415 0.34 0.755 0.755 0.755h16.656c0.415 0 0.755-0.34 0.755-0.755l-2.436-8.637zM12.875 9.010c0-1.674 1.357-3.031 3.031-3.031s3.031 1.357 3.031 3.031-1.357 3.031-3.031 3.031-3.031-1.357-3.031-3.031z"></path>
</svg>
