<!-- Generated by IcoMoon.io -->
<svg version="1.1" xmlns="http://www.w3.org/2000/svg" width="32" height="32" viewBox="0 0 32 32">
<title>icon_limousine-trunk_pcm</title>
<path d="M9.7 11.75c1.131-0.231 2.556-0.438 3.769-0.438h0.169c0.725 0 2.419 0 3.6 0.294 1.762 0.412 3.050 1.206 3.719 1.688 3.038 0.256 4.931 0.631 5.95 1.162 0.313 0.156 0.756 0.45 1.131 0.756 0.712 0.569 0.806 0.85 0.806 1.069 0 1.188-0.294 2.081-0.306 2.119l-0.063 0.194-0.188 0.081c-0.019 0.006-0.5 0.219-1.575 0.488-0.587 0.944-1.613 1.525-2.725 1.525-1 0-1.894-0.419-2.438-1.125h-10.331c-0.619 0.719-1.488 1.125-2.419 1.125-1.1 0-2.094-0.569-2.656-1.5l-1.531-0.206-0.069-0.038c-0.65-0.319-1.388-1.288-1.388-1.819v-0.031c0.050-0.775 0.256-2.15 0.631-2.75l0.794 0.5c-0.206 0.338-0.425 1.363-0.487 2.262 0.056 0.188 0.431 0.744 0.8 0.969l1.85 0.244 0.112 0.225c0.369 0.744 1.119 1.206 1.944 1.206 0.706 0 1.375-0.344 1.819-0.938l0.144-0.188h11.294l0.137 0.225c0.35 0.563 1.019 0.9 1.794 0.9 0.837 0 1.606-0.462 2.006-1.212l0.1-0.188 0.206-0.050c0.712-0.169 1.169-0.319 1.406-0.406 0.075-0.288 0.188-0.85 0.2-1.531-0.181-0.238-0.944-0.831-1.425-1.075l-0.006-0.006c-0.906-0.475-2.775-0.825-5.725-1.075l-0.137-0.012-0.113-0.069c-0.569-0.431-1.781-1.206-3.481-1.606h-0.006c-1.069-0.269-2.744-0.269-3.375-0.269h-0.169c-1.537 0-3.431 0.35-4.544 0.631l-0.238-0.881-3.813-3.813 0.625-0.688 4.2 4.25zM4.094 17.094c0 0 0 0 0 0s0 0 0 0z"></path>
</svg>
