<!-- Generated by IcoMoon.io -->
<svg version="1.1" xmlns="http://www.w3.org/2000/svg" width="32" height="32" viewBox="0 0 32 32">
<title>icon_linkedin</title>
<path d="M5.032 12.051h4.703v15.126h-4.703v-15.126zM7.383 4.532c1.503 0 2.724 1.221 2.724 2.725 0 1.505-1.222 2.727-2.724 2.727-1.507 0-2.725-1.222-2.725-2.727 0-1.503 1.218-2.725 2.725-2.725z"></path>
<path d="M12.683 12.051h4.51v2.066h0.064c0.628-1.189 2.162-2.443 4.449-2.443 4.757 0 5.636 3.132 5.636 7.206v8.296h-4.696v-7.355c0-1.755-0.034-4.011-2.444-4.011-2.446 0-2.82 1.911-2.82 3.884v7.482h-4.7v-15.126z"></path>
</svg>
