<!-- Generated by IcoMoon.io -->
<svg version="1.1" xmlns="http://www.w3.org/2000/svg" width="32" height="32" viewBox="0 0 32 32">
<title>icon_map-view</title>
<path d="M14.594 18.482l1.406 2.049 1.407-2.049c0.044-0.063 1.106-1.546 2.183-3.423 2.105-3.671 2.348-5.371 2.348-6.232 0-3.402-2.664-6.171-5.938-6.171s-5.938 2.768-5.938 6.171c0 0.861 0.244 2.563 2.349 6.232 1.076 1.878 2.137 3.357 2.183 3.423zM16.006 4.933c2.003 0.001 3.627 1.625 3.627 3.629s-1.625 3.629-3.629 3.629c-2.004 0-3.628-1.624-3.629-3.628 0-0 0-0 0-0.001 0-2.004 1.625-3.629 3.629-3.629 0.001 0 0.001 0 0.002 0z"></path>
<path d="M5.5 21.531h21v2.469h-21v-2.469z"></path>
</svg>
