<!-- Generated by IcoMoon.io -->
<svg version="1.1" xmlns="http://www.w3.org/2000/svg" width="32" height="32" viewBox="0 0 32 32">
<title>icon_desktop</title>
<path d="M27.17 7.031h-22.361c-0.98 0-1.777 0.797-1.777 1.777v13.883c0 0.98 0.797 1.777 1.777 1.777h8.723v2.125c0 0.238 0.193 0.43 0.431 0.43h4.569c0.238 0 0.43-0.193 0.43-0.43v-2.125h8.208c0.98 0 1.777-0.797 1.777-1.777v-13.883c0-0.98-0.797-1.777-1.777-1.777zM5.385 8.469h21.209c0.505 0 0.916 0.411 0.916 0.916v11.647h-23.041v-11.647c0-0.505 0.411-0.916 0.916-0.916zM18.031 26.031h-3.563v-1.563h3.563v1.563zM26.594 23.031h-21.209c-0.505 0-0.916-0.411-0.916-0.916v-0.154h23.041v0.154c0 0.505-0.411 0.916-0.916 0.916z"></path>
<path d="M20.086 27.969h-8.053c-0.238 0-0.431 0.318-0.431 0.555s0.193 0.507 0.431 0.507h8.053c0.238 0 0.43-0.269 0.43-0.507s-0.193-0.555-0.43-0.555z"></path>
</svg>
