<!-- Generated by IcoMoon.io -->
<svg version="1.1" xmlns="http://www.w3.org/2000/svg" width="32" height="32" viewBox="0 0 32 32">
<title>icon_pcm</title>
<path d="M3.969 8.469v15h24.063v-15h-24.063zM26.469 21.969h-20.938v-11.938h20.938v11.938z"></path>
<path d="M11.742 18.88c0 0.316-0.258 0.574-0.574 0.574h-1.531c-0.316 0-0.574-0.258-0.574-0.574v-1.531c0-0.316 0.258-0.574 0.574-0.574h1.531c0.316 0 0.574 0.258 0.574 0.574v1.531z"></path>
<path d="M11.742 14.574c0 0.316-0.258 0.574-0.574 0.574h-1.531c-0.316 0-0.574-0.258-0.574-0.574v-1.531c0-0.316 0.258-0.574 0.574-0.574h1.531c0.316 0 0.574 0.258 0.574 0.574v1.531z"></path>
<path d="M15.474 18.88c0 0.316-0.258 0.574-0.574 0.574h-1.531c-0.316 0-0.574-0.258-0.574-0.574v-1.531c0-0.316 0.258-0.574 0.574-0.574h1.531c0.316 0 0.574 0.258 0.574 0.574v1.531z"></path>
<path d="M15.474 14.574c0 0.316-0.258 0.574-0.574 0.574h-1.531c-0.316 0-0.574-0.258-0.574-0.574v-1.531c0-0.316 0.258-0.574 0.574-0.574h1.531c0.316 0 0.574 0.258 0.574 0.574v1.531z"></path>
<path d="M19.206 18.88c0 0.316-0.258 0.574-0.574 0.574h-1.531c-0.316 0-0.574-0.258-0.574-0.574v-1.531c0-0.316 0.258-0.574 0.574-0.574h1.531c0.316 0 0.574 0.258 0.574 0.574v1.531z"></path>
<path d="M19.206 14.574c0 0.316-0.258 0.574-0.574 0.574h-1.531c-0.316 0-0.574-0.258-0.574-0.574v-1.531c0-0.316 0.258-0.574 0.574-0.574h1.531c0.316 0 0.574 0.258 0.574 0.574v1.531z"></path>
<path d="M22.938 18.88c0 0.316-0.258 0.574-0.574 0.574h-1.531c-0.316 0-0.574-0.258-0.574-0.574v-1.531c0-0.316 0.258-0.574 0.574-0.574h1.531c0.316 0 0.574 0.258 0.574 0.574v1.531z"></path>
<path d="M22.938 14.574c0 0.316-0.258 0.574-0.574 0.574h-1.531c-0.316 0-0.574-0.258-0.574-0.574v-1.531c0-0.316 0.258-0.574 0.574-0.574h1.531c0.316 0 0.574 0.258 0.574 0.574v1.531z"></path>
</svg>
