<!-- Generated by IcoMoon.io -->
<svg version="1.1" xmlns="http://www.w3.org/2000/svg" width="32" height="32" viewBox="0 0 32 32">
<title>icon_error</title>
<path d="M26.75 23.506l-9.569-16.394c-0.244-0.419-0.694-0.675-1.181-0.675s-0.938 0.256-1.181 0.675l-9.569 16.394c-0.244 0.425-0.25 0.944-0.006 1.369s0.694 0.688 1.188 0.688h19.137c0.488 0 0.944-0.262 1.188-0.688s0.244-0.944-0.006-1.369v0zM16 22.831c-0.756 0-1.369-0.613-1.369-1.369s0.613-1.369 1.369-1.369c0.756 0 1.369 0.613 1.369 1.369s-0.613 1.369-1.369 1.369v0zM17.369 17.369c0 0.756-0.613 1.369-1.369 1.369s-1.369-0.613-1.369-1.369v-4.1c0-0.756 0.613-1.369 1.369-1.369s1.369 0.613 1.369 1.369v4.1z"></path>
</svg>
