<!-- Generated by IcoMoon.io -->
<svg version="1.1" xmlns="http://www.w3.org/2000/svg" width="32" height="32" viewBox="0 0 32 32">
<title>icon_work_next</title>
<path d="M5.862 11.569v11.069c0 0.962 0.763 1.744 1.7 1.744h16.875c0.938 0 1.7-0.781 1.7-1.744v-11.069h-20.275zM24.613 22.637c0 0.119-0.081 0.219-0.175 0.219h-16.875c-0.094 0-0.175-0.1-0.175-0.219v-9.544h17.225v9.544zM12.544 9.363c0-0.119 0.081-0.219 0.175-0.219h6.563c0.094 0 0.175 0.1 0.175 0.219v1.006h1.525v-1.006c0-0.963-0.762-1.744-1.7-1.744h-6.563c-0.938 0-1.7 0.781-1.7 1.744v1.006h1.525v-1.006zM16 20.381c1.069 0 1.981-0.581 2.337-1.4h5.125v-1.525h-6.488v0.762c0 0.3-0.4 0.637-0.975 0.637s-0.975-0.337-0.975-0.637v-0.762h-6.488v1.525h5.125c0.356 0.819 1.269 1.4 2.338 1.4z"></path>
</svg>
