<!-- Generated by IcoMoon.io -->
<svg version="1.1" xmlns="http://www.w3.org/2000/svg" width="32" height="32" viewBox="0 0 32 32">
<title>icon_e-performance</title>
<path d="M21.675 21.042h8.569l-0.024-0.516c-0.173-3.664-1.727-7.081-4.377-9.621-2.66-2.55-6.156-3.955-9.843-3.955s-7.183 1.405-9.843 3.955c-2.65 2.541-4.204 5.957-4.377 9.621l-0.024 0.516h8.574v-1.671h-6.054c0.17-1.096 0.49-2.156 0.955-3.162l1.533 0.967c0.506 0.293 1.155 0.12 1.448-0.386 0.142-0.244 0.18-0.53 0.107-0.804-0.072-0.271-0.243-0.497-0.483-0.639l-1.546-0.976c0.68-0.969 1.502-1.829 2.452-2.566l0.999 1.615c0.293 0.5 0.939 0.672 1.443 0.382 0.245-0.141 0.42-0.369 0.494-0.643s0.037-0.559-0.104-0.804l-1.048-1.697c1.362-0.713 2.827-1.145 4.369-1.286l-0.004 1.992c-0.001 0.584 0.474 1.061 1.058 1.062 0.001 0 0.001 0 0.002 0 0.584 0 1.059-0.474 1.060-1.058l0.004-2.004c1.602 0.137 3.164 0.598 4.569 1.349l-1.038 1.639c-0.142 0.244-0.18 0.53-0.107 0.804s0.248 0.503 0.492 0.645c0.244 0.142 0.53 0.179 0.804 0.107 0.27-0.072 0.497-0.243 0.639-0.482l0.983-1.547c0.927 0.734 1.729 1.588 2.394 2.547l-1.447 0.905c-0.5 0.294-0.671 0.938-0.381 1.442 0.141 0.245 0.369 0.42 0.643 0.494s0.559 0.037 0.804-0.104l1.428-0.893c0.451 0.989 0.762 2.029 0.928 3.101h-6.050v1.671z"></path>
<path d="M17.965 14.505l-1.665 4.838h3.669l-5.99 6.626 1.665-4.838h-3.67z"></path>
</svg>
