<!-- Generated by IcoMoon.io -->
<svg version="1.1" xmlns="http://www.w3.org/2000/svg" width="32" height="32" viewBox="0 0 32 32">
<title>icon_viber</title>
<path d="M24.719 20.7c-0.637-0.512-1.325-0.981-2-1.45-1.344-0.944-2.575-1.019-3.575 0.5-0.563 0.85-1.35 0.887-2.175 0.519-2.269-1.031-4.025-2.619-5.056-4.925-0.456-1.019-0.45-1.938 0.613-2.662 0.563-0.381 1.131-0.831 1.088-1.669-0.056-1.088-2.7-4.725-3.744-5.112-0.431-0.156-0.863-0.15-1.3 0-2.45 0.825-3.463 2.837-2.487 5.219 2.894 7.113 7.994 12.063 15.012 15.081 0.4 0.175 0.844 0.244 1.069 0.3 1.6 0.019 3.469-1.525 4.006-3.050 0.519-1.469-0.581-2.050-1.45-2.75v0zM16.85 6.631c5.131 0.787 7.494 3.225 8.15 8.394 0.063 0.475-0.119 1.194 0.563 1.206 0.712 0.012 0.538-0.694 0.544-1.169 0.063-4.869-4.181-9.375-9.113-9.544-0.369 0.056-1.144-0.256-1.188 0.575-0.025 0.563 0.619 0.469 1.044 0.537v0z"></path>
<path d="M17.856 8.044c-0.494-0.063-1.144-0.294-1.262 0.394-0.119 0.719 0.606 0.644 1.075 0.75 3.169 0.706 4.269 1.863 4.794 5.006 0.075 0.456-0.075 1.169 0.706 1.056 0.575-0.088 0.369-0.7 0.419-1.056 0.019-3.025-2.569-5.769-5.731-6.15v0z"></path>
<path d="M18.144 10.512c-0.331 0.006-0.65 0.044-0.775 0.394-0.181 0.525 0.2 0.65 0.587 0.713 1.3 0.206 1.981 0.975 2.113 2.269 0.038 0.35 0.256 0.637 0.6 0.594 0.469-0.056 0.512-0.475 0.5-0.875 0.025-1.444-1.619-3.131-3.025-3.094v0z"></path>
</svg>
