<!-- Generated by IcoMoon.io -->
<svg version="1.1" xmlns="http://www.w3.org/2000/svg" width="32" height="32" viewBox="0 0 32 32">
<title>icon_youtube</title>
<path d="M28.25 10.981c0 0-0.244-1.723-0.994-2.481-0.951-0.996-2.016-1.001-2.505-1.059-3.498-0.253-8.746-0.253-8.746-0.253h-0.011c0 0-5.248 0-8.746 0.253-0.489 0.058-1.554 0.063-2.505 1.059-0.75 0.759-0.993 2.481-0.993 2.481s-0.25 2.023-0.25 4.046v1.897c0 2.023 0.25 4.046 0.25 4.046s0.244 1.723 0.994 2.481c0.951 0.996 2.2 0.964 2.757 1.069 2 0.192 8.5 0.251 8.5 0.251s5.253-0.008 8.752-0.261c0.489-0.058 1.554-0.063 2.505-1.059 0.75-0.759 0.994-2.481 0.994-2.481s0.25-2.023 0.25-4.046v-1.897c0-2.023-0.25-4.046-0.25-4.046zM13.419 19.222l-0.001-7.024 6.755 3.524-6.754 3.5z"></path>
</svg>
