<!-- Generated by IcoMoon.io -->
<svg version="1.1" xmlns="http://www.w3.org/2000/svg" width="32" height="32" viewBox="0 0 32 32">
<title>icon_video-quali</title>
<path d="M4.5 19.938l2.375 4.063q1-0.625 2.25-0.625 1.875 0 3.188 1.344t1.313 3.219h4.688q0-1.25 0.625-2.25 0.938-1.625 2.75-2.125t3.438 0.438l2.375-4.063q-1.063-0.625-1.688-1.625-0.938-1.625-0.438-3.469t2.125-2.781l-2.313-4.063q-1.063 0.625-2.313 0.625-1.875 0-3.188-1.313t-1.313-3.25h-4.688q0 1.25-0.625 2.313-0.938 1.625-2.75 2.094t-3.5-0.469l-2.313 4.063q1.063 0.625 1.688 1.688 0.938 1.625 0.438 3.438t-2.125 2.75zM11.188 16q0-2 1.406-3.406t3.406-1.406 3.406 1.406 1.406 3.406-1.406 3.406-3.406 1.406-3.406-1.406-1.406-3.406z"></path>
</svg>
