<!-- Generated by IcoMoon.io -->
<svg version="1.1" xmlns="http://www.w3.org/2000/svg" width="32" height="32" viewBox="0 0 32 32">
<title>icon_vk</title>
<path d="M15.385 23.361h1.513c0 0 0.457-0.050 0.691-0.302 0.215-0.231 0.208-0.665 0.208-0.665s-0.030-2.030 0.913-2.329c0.929-0.295 2.122 1.962 3.386 2.83 0.956 0.657 1.682 0.513 1.682 0.513l3.38-0.047c0 0 1.768-0.109 0.93-1.499-0.069-0.114-0.488-1.028-2.514-2.908-2.12-1.967-1.836-1.649 0.718-5.052 1.555-2.072 2.177-3.338 1.982-3.88-0.185-0.516-1.329-0.38-1.329-0.38l-3.806 0.024c0 0-0.282-0.039-0.492 0.087-0.205 0.122-0.336 0.408-0.336 0.408s-0.603 1.604-1.406 2.968c-1.695 2.878-2.372 3.030-2.65 2.851-0.645-0.416-0.483-1.673-0.483-2.566 0-2.789 0.423-3.952-0.824-4.253-0.414-0.1-0.718-0.166-1.777-0.177-1.358-0.014-2.507 0.004-3.158 0.323-0.433 0.212-0.767 0.684-0.563 0.712 0.252 0.034 0.821 0.154 1.123 0.565 0.39 0.531 0.376 1.722 0.376 1.722s0.224 3.283-0.523 3.691c-0.513 0.28-1.217-0.291-2.728-2.902-0.774-1.337-1.359-2.816-1.359-2.816s-0.113-0.276-0.314-0.424c-0.244-0.179-0.585-0.236-0.585-0.236l-3.617 0.024c0 0-0.543 0.015-0.742 0.251-0.178 0.21-0.014 0.644-0.014 0.644s2.831 6.625 6.038 9.963c2.94 3.061 6.278 2.86 6.278 2.86v0z"></path>
</svg>
