<!-- Generated by IcoMoon.io -->
<svg version="1.1" xmlns="http://www.w3.org/2000/svg" width="32" height="32" viewBox="0 0 32 32">
<title>icon_google</title>
<path d="M1.744 15.269c0.075-4.738 4.438-8.881 9.169-8.719 2.269-0.106 4.4 0.881 6.138 2.269-0.738 0.844-1.506 1.656-2.325 2.412-2.088-1.444-5.063-1.85-7.15-0.188-2.987 2.063-3.125 6.944-0.25 9.175 2.794 2.538 8.081 1.281 8.85-2.606-1.756-0.025-3.512 0-5.256-0.063-0.006-1.050-0.006-2.088-0.006-3.131 2.931-0.006 5.85-0.012 8.788 0.006 0.175 2.456-0.15 5.075-1.656 7.1-2.287 3.219-6.875 4.156-10.463 2.781-3.594-1.369-6.138-5.163-5.838-9.037z"></path>
<path d="M25.406 11.775c0.869 0 1.738 0 2.613 0 0.006 0.875 0.006 1.756 0.012 2.619 0.875 0.006 1.756 0.006 2.619 0.012 0 0.869 0 1.738 0 2.613-0.875 0.006-1.75 0.012-2.619 0.025-0.006 0.881-0.012 1.756-0.012 2.619-0.875 0-1.738 0-2.613 0-0.006-0.875-0.006-1.75-0.012-2.619-0.875-0.006-1.756-0.012-2.619-0.025 0-0.869 0-1.738 0-2.613 0.875-0.006 1.75-0.012 2.619-0.012 0-0.869 0.006-1.744 0.012-2.619z"></path>
</svg>
