<svg height="24" width="24" xmlns="http://www.w3.org/2000/svg"><path d="m17.26 15.43c.15-.09.24-.25.24-.43v-6c0-.09-.02-.17-.07-.25-.01-.02-.04-.04-.06-.06-.04-.04-.07-.09-.12-.12l-5-3a.515.515 0 0 0 -.51 0l-5 3-.12.12c-.02.02-.05.04-.06.06a.52.52 0 0 0 -.07.25v6c0 .18.09.34.24.43l5 3a.542.542 0 0 0 .5 0l5-3zm-.76-.71-4 2.4v-4.83l4-2.4zm-4.5-8.13 4.03 2.42-4.03 2.42-4.03-2.42zm-4.5 3.3 4 2.4v4.83l-4-2.4zm-3.5-2.88h-1v-4.01h4v1h-3zm17-4.01v4h-1v-3h-3v-1zm-1 14h1v4h-4v-1h3zm-16 3h3v1h-4v-4h1z"/></svg>