<svg xmlns="http://www.w3.org/2000/svg" width="24" height="24">
<path d="M6.697 2.197A7.477 7.477 0 0 0 4.5 7.5c0 2.071.84 3.946 2.197 5.303l.707-.707A6.48 6.48 0 0 1 5.5 7.5a6.48 6.48 0 0 1 1.904-4.596l-.707-.707ZM16.596 2.904l.707-.707A7.477 7.477 0 0 1 19.5 7.5c0 2.071-.84 3.946-2.197 5.303l-.707-.707A6.48 6.48 0 0 0 18.5 7.5a6.48 6.48 0 0 0-1.904-4.596Z"/>
<path d="M8.11 3.61A5.483 5.483 0 0 0 6.5 7.5c0 1.519.616 2.894 1.61 3.889l.708-.707A4.486 4.486 0 0 1 7.5 7.5c0-1.243.504-2.368 1.318-3.182l-.707-.707ZM15.182 4.318l.707-.707A5.483 5.483 0 0 1 17.5 7.5a5.483 5.483 0 0 1-1.61 3.889l-.708-.707A4.486 4.486 0 0 0 16.5 7.5a4.486 4.486 0 0 0-1.318-3.182Z"/>
<path d="M9.525 5.025A3.49 3.49 0 0 0 8.5 7.5c0 .966.392 1.841 1.025 2.475l.707-.707A2.492 2.492 0 0 1 9.5 7.5c0-.69.28-1.315.732-1.768l-.707-.707ZM13.768 5.732l.707-.707A3.49 3.49 0 0 1 15.5 7.5a3.49 3.49 0 0 1-1.025 2.475l-.707-.707A2.492 2.492 0 0 0 14.5 7.5c0-.69-.28-1.315-.732-1.768Z"/>
<path d="M12.602 8.874a1.5 1.5 0 1 0-1.204 0L7.5 21h2l2.5-3 2.5 3h2L12.602 8.874ZM9.032 20h-.16L12 10.268 15.128 20h-.16L12 16.438 9.032 20Z"/>
</svg>