<svg id="Default" xmlns="http://www.w3.org/2000/svg" viewBox="0 0 24 24"><path d="M14,8a2,2,0,1,0-2.69,1.87L8,20l1,1,3-3,3,3,1-1L12.69,9.87A2,2,0,0,0,14,8ZM11,8a1,1,0,1,1,1,1A1,1,0,0,1,11,8Zm1.71,9.29-.71-.7-.71.7-2,2L12,11l2.71,8.31Z"/><path d="M8,7.62A4,4,0,0,1,8.66,5.5L7.85,5A4.62,4.62,0,0,0,7,7.62,3.94,3.94,0,0,0,7.85,10l.8-.5A3.15,3.15,0,0,1,8,7.62Z"/><path d="M5.54,3A7.22,7.22,0,0,0,4,7.58,7.26,7.26,0,0,0,5.4,12l.8-.56A6.38,6.38,0,0,1,5,7.58a6.27,6.27,0,0,1,1.34-4Z"/><path d="M15.34,5.5A4,4,0,0,1,16,7.62a3.15,3.15,0,0,1-.65,1.88l.8.5A3.94,3.94,0,0,0,17,7.62,4.62,4.62,0,0,0,16.15,5Z"/><path d="M18.46,3l-.8.56a6.27,6.27,0,0,1,1.34,4,6.38,6.38,0,0,1-1.2,3.86l.8.56A7.26,7.26,0,0,0,20,7.58,7.22,7.22,0,0,0,18.46,3Z"/></svg>