<svg xmlns="http://www.w3.org/2000/svg" height="24" width="24">
<path d="m19 5h-14c-1.1 0-2 .9-2 2v10c0 1.1.9 2 2 2h14c1.1 0 2-.9 2-2v-10c0-1.1-.9-2-2-2zm1 12c0 .55-.45 1-1 1h-14c-.55 0-1-.45-1-1v-10c0-.55.45-1 1-1h14c.55 0 1 .45 1 1zm-6.42-5.04c0 2.08.21 2.42 1.29 2.42.87 0 1.08-.38 1.15-1.54h.99c-.07 1.69-.59 2.37-2.13 2.37-1.87 0-2.37-.81-2.37-3.24s.56-3.19 2.37-3.19 2.06.76 2.13 2.43h-1c-.05-1.15-.26-1.49-1.14-1.49-1.08 0-1.29.39-1.29 2.25zm-5.5 0c0 2.08.21 2.42 1.29 2.42.87 0 1.08-.38 1.15-1.54h.99c-.07 1.69-.59 2.37-2.13 2.37-1.87 0-2.37-.81-2.37-3.24s.56-3.19 2.37-3.19 2.06.76 2.13 2.43h-1c-.05-1.15-.26-1.49-1.14-1.49-1.08 0-1.29.39-1.29 2.25z"/>
</svg>