<svg xmlns="http://www.w3.org/2000/svg" width="24" height="24">
<path d="M7.937 12c.188.342.386.677.587 1h-1.97l-3.75 6h18.392l-3.75-6h-1.97c.201-.323.399-.658.588-1H18l5 8H1l5-8h1.937ZM12 3c2.531 0 4.5 2.068 4.5 4.727C16.5 10.977 12 16 12 16s-4.5-5.023-4.5-8.273C7.5 5.068 9.469 3 12 3Zm0 1c-.98 0-1.85.404-2.476 1.067-.641.68-1.024 1.628-1.024 2.69 0 2.238 2.373 5.378 3.5 6.743 1.127-1.365 3.5-4.505 3.5-6.743 0-1.062-.383-2.01-1.024-2.69A3.373 3.373 0 0 0 12 4Zm0 2a1.5 1.5 0 1 1 0 3 1.5 1.5 0 0 1 0-3Z"/>
</svg>