<svg xmlns="http://www.w3.org/2000/svg" width="24" height="24">
<path d="M14.246 3c1.368 0 2.819.638 4.25 1.119 1.018.341 1.832.435 2.418.435.71 0 1.086-.138 1.086-.138v16.447s-.376.137-1.086.137c-.586 0-1.4-.093-2.417-.435-.239-.08-.478-.165-.717-.25l-.478-.17c-1.036-.366-2.067-.698-3.055-.698-.783 0-1.538.209-2.246.775-.71-.567-1.465-.776-2.247-.776-1.368 0-2.819.638-4.25 1.119-1.018.341-1.831.435-2.417.435-.632 0-1-.109-1.073-.133L2 20.862V4.418l.014.004c.074.024.44.133 1.073.132.585 0 1.399-.093 2.416-.434.24-.08.478-.165.718-.25l.478-.17C7.735 3.333 8.765 3 9.754 3c.782 0 1.537.209 2.246.776.709-.567 1.464-.776 2.246-.776ZM9.755 4c-.923 0-2.97.744-3.932 1.066-.963.324-1.97.487-2.822.487V20c.635 0 1.428-.129 2.186-.384.757-.254 3.299-1.17 4.568-1.17.621 0 1.205.112 1.746.332V4.629A2.877 2.877 0 0 0 9.754 4Zm4.492 0c-.631 0-1.27.249-1.746.628V18.78a4.598 4.598 0 0 1 1.746-.332c1.27 0 3.811.916 4.568 1.17.758.254 1.55.383 2.186.383V5.553c-.852 0-1.859-.163-2.822-.487C17.215 4.744 15.169 4 14.246 4ZM17 9.941V15.5h-.882V9.941H17Zm0-2.294v1.037h-.882V7.647H17Z"/>
</svg>