<svg xmlns="http://www.w3.org/2000/svg" viewBox="0 0 24 24"><defs><style>.cls-1{fill:none;}</style></defs><g id="HG"><rect class="cls-1" width="24" height="24"/></g><g id="Default"><path d="M18.74,7,18,7.78A5.48,5.48,0,0,1,20,12a5.8,5.8,0,0,1-1.88,4.23l0,0,.72.74a6.78,6.78,0,0,0-.12-10Z"/><path d="M16.74,9,16,9.77A3.1,3.1,0,0,1,17,12a3.61,3.61,0,0,1-.89,2.25l.76.78A4.5,4.5,0,0,0,18,12a4.23,4.23,0,0,0-1.24-3Z"/><path d="M11,7.92v8.16l-2.7-1.9L8,14H4V10H8l.26-.18L11,7.92M12,6,7.73,9H3v6H7.73L12,18V6Z"/></g></svg>