<svg xmlns="http://www.w3.org/2000/svg" viewBox="0 0 24 24"><defs><style>.cls-1{fill:none;}</style></defs><g id="HG"><rect class="cls-1" width="24" height="24"/></g><g id="Default"><path d="M12,5A12.19,12.19,0,0,0,3,9l.75.68a11.13,11.13,0,0,1,16.5,0L21,9A12.19,12.19,0,0,0,12,5Z"/><path d="M5,11.1l.78.67a8.39,8.39,0,0,1,12.44,0L19,11.1a9.45,9.45,0,0,0-14,0Z"/><path d="M7,13l.83.65A5.37,5.37,0,0,1,12,12a5.37,5.37,0,0,1,4.17,1.65L17,13a6.47,6.47,0,0,0-5-2A6.47,6.47,0,0,0,7,13Z"/><circle cx="12" cy="17" r="2"/></g></svg>