<svg xmlns="http://www.w3.org/2000/svg" width="24" height="24">
<path d="M12 17c.552 0 1.052.224 1.414.586L12 19l-1.414-1.414A1.994 1.994 0 0 1 12 17Zm0-4c1.651 0 3.14.696 4.189 1.811l-.708.707A4.737 4.737 0 0 0 12 14a4.737 4.737 0 0 0-3.481 1.518l-.708-.707A5.734 5.734 0 0 1 12 13Zm0-4a9.475 9.475 0 0 1 6.963 3.037l-.708.707A8.477 8.477 0 0 0 12 10a8.477 8.477 0 0 0-6.255 2.745l-.708-.708A9.474 9.474 0 0 1 12 9Zm0-4c3.855 0 7.333 1.616 9.793 4.207l-.708.708A12.465 12.465 0 0 0 12 6a12.465 12.465 0 0 0-9.085 3.915l-.708-.708A13.462 13.462 0 0 1 12 5Z"/>
</svg>