<svg xmlns="http://www.w3.org/2000/svg" width="24" height="24" viewBox="0 0 24 24"><path d="M19.9933791,9.48283409 C19.9294419,9.06661895 19.4658972,8.8425031 19.1462112,8.63439553 C18.5707765,8.25019694 18.011326,7.88200662 17.4358912,7.49780803 C16.0772258,6.58533637 14.702576,5.67286471 13.3439106,4.76039305 C13.0242246,4.55228548 12.7045386,4.32816963 12.3848526,4.12006206 C12.1610725,3.95997931 11.8573708,3.95997931 11.6176063,4.12006206 C10.7065012,4.7283765 9.77941187,5.35269921 8.86830681,5.96101365 L4.8402634,8.65040381 C4.48860882,8.87451965 4.02506414,9.0986355 4.00907984,9.57888374 C3.99309554,10.1071568 4.00907984,10.6514381 4.00907984,11.1797112 L4.00907984,13.7410352 C4.00907984,14.2052751 3.91317404,14.7495565 4.34475012,15.0377054 C5.36774527,15.7420695 6.40672473,16.4144171 7.44570418,17.1027729 C8.72444812,17.9512114 10.0031921,18.8156583 11.281936,19.6640968 C11.6335906,19.9042209 11.9852452,20.1603533 12.4168212,19.8722044 C12.7844601,19.6320803 13.1361147,19.3919561 13.5037536,19.151832 C14.9263562,18.2073438 16.3489589,17.2468473 17.7715615,16.3023591 L19.3540071,15.245813 C19.4499129,15.1817799 19.561803,15.1177468 19.6577088,15.0377054 C19.881489,14.8776227 19.9773948,14.6535068 19.9773948,14.3813662 L19.9773948,9.97909061 C19.9933791,9.80299959 20.0093634,9.64291684 19.9933791,9.48283409 C19.9933791,9.46682582 19.9933791,9.51485064 19.9933791,9.48283409 Z M12.6885543,5.97702193 L18.0752632,9.57888374 L15.6776183,11.1957195 L12.6885543,9.19468515 L12.6885543,5.97702193 Z M11.3139046,5.97702193 L11.3139046,9.17867687 L8.34082493,11.1797112 L5.92719575,9.57888374 L11.3139046,5.97702193 L11.3139046,5.97702193 Z M5.38372957,10.8595457 L7.09404959,12.0121415 L5.38372957,13.1647373 L5.38372957,10.8595457 Z M11.3139046,18.0472611 L5.92719575,14.4453993 L8.32484064,12.8285635 L11.2979203,14.8295979 L11.2979203,18.0472611 L11.3139046,18.0472611 Z M12.0012295,13.6449855 L9.57161598,12.0121415 L12.0012295,10.3792975 L14.4308429,12.0121415 L12.0012295,13.6449855 Z M12.6885543,18.0472611 L12.6885543,14.8456061 L15.661634,12.8445718 L18.0592789,14.4614075 L12.6885543,18.0472611 L12.6885543,18.0472611 Z M18.6187294,13.1647373 L16.9084093,12.0121415 L18.6347137,10.8595457 L18.6187294,13.1647373 L18.6187294,13.1647373 Z"/></svg>
