<svg xmlns="http://www.w3.org/2000/svg" viewBox="0 0 24 24">
<path d="m12,5c.973,0,1.7062.2438,2.1794.7246.3494.355.7614,1.0509.7405,2.3496l-.0009.0747v.662l.5289.2243c.0181.0287.0521.1043.0521.2666v.2657s0,.6714,0,.6714c.0001.1414-.1193.4339-.2236.6034l-.0776.1231-.0394.1397c-.1423.5043-.623,1.9882-1.1325,2.7883-.5202.817-1.0504,1.1065-2.0278,1.1065-.9755,0-1.5057-.2896-2.0259-1.1065-.5095-.8001-.9902-2.2841-1.1325-2.7884l-.0411-.1395-.0731-.1187c-.1072-.1741-.2266-.4666-.2264-.608v-.6714s0-.2657,0-.2657c0-.1623.034-.2379.0521-.2666l.5289-.2243v-.662l-.0009-.0747c-.0209-1.2987.3912-1.9946.7405-2.3496.4731-.4808,1.2064-.7246,2.1794-.7246m0-1c-4.1418,0-3.9191,3.7541-3.9191,4.1489,0,0-.5809.2464-.5809,1.153,0,.3188.0005.3973,0,.9362-.0005.5388.3781,1.1383.3781,1.1383,0,0,.5488,1.9506,1.2515,3.0543.7028,1.1037,1.5513,1.5694,2.8694,1.5694h.002c1.3181,0,2.1666-.4657,2.8694-1.5694.7028-1.1037,1.2515-3.0543,1.2515-3.0543,0,0,.3786-.5995.3781-1.1383-.0005-.5388,0-.6174,0-.9362,0-.9066-.5809-1.153-.5809-1.153,0-.3948.2227-4.1489-3.9191-4.1489h0Z"/><path d="m8.6775,16.8214c.8284.7328,2.0166,1.1565,3.326,1.161,1.3038-.0045,2.4908-.4282,3.319-1.161,1.2623.5262,2.2728,1.0673,3.2957,1.7599.5939.3912.874,1.214.8818,1.4186h1c0-.4854-.4235-1.6554-1.3317-2.2537-1.3878-.9398-2.6632-1.5464-4.1113-2.1094h0c-.6442.8901-1.8529,1.3414-3.0571,1.3456-1.2042-.0042-2.4128-.4555-3.0571-1.3456-1.4481.563-2.7234,1.1696-4.1113,2.1094-.9082.5983-1.3317,1.7683-1.3317,2.2537h1c.0078-.2078.2879-1.0274.8924-1.4257,1.0138-.6865,2.0229-1.2268,3.2851-1.7529"/>
</svg>