<svg xmlns="http://www.w3.org/2000/svg" viewBox="0 0 24 24">
<path d="m12,4c-4.1418,0-3.9191,3.7541-3.9191,4.1489,0,0-.5809.2464-.5809,1.153,0,.3188.0005.3973,0,.9362-.0005.5388.3781,1.1383.3781,1.1383,0,0,.5488,1.9506,1.2515,3.0543.7028,1.1037,1.5513,1.5694,2.8694,1.5694h.002c1.3181,0,2.1666-.4657,2.8694-1.5694.7028-1.1037,1.2515-3.0543,1.2515-3.0543,0,0,.3786-.5995.3781-1.1383-.0005-.5388,0-.6174,0-.9362,0-.9066-.5809-1.153-.5809-1.153,0-.3948.2227-4.1489-3.9191-4.1489h0Z"/><path d="m20.5,20c0-.4854-.4235-1.6554-1.3317-2.2537-1.3878-.9398-2.6632-1.5464-4.1113-2.1094-.6442.8901-1.8529,1.3414-3.0571,1.3456-1.2042-.0042-2.4128-.4554-3.0571-1.3456-1.4481.563-2.7234,1.1696-4.1113,2.1094-.9082.5983-1.3317,1.7683-1.3317,2.2537h17Z"/>
</svg>