<?xml version="1.0" encoding="utf-8"?>
<!-- Generator: Adobe Illustrator 21.1.0, SVG Export Plug-In . SVG Version: 6.00 Build 0)  -->
<svg version="1.1" id="Ebene_1" xmlns="http://www.w3.org/2000/svg" xmlns:xlink="http://www.w3.org/1999/xlink" x="0px" y="0px"
	 viewBox="0 0 128 128" style="enable-background:new 0 0 128 128;" xml:space="preserve">
<style type="text/css">
	.st0{clip-path:url(#SVGID_2_);fill:#FFFFFF;}
</style>
<g id="Ebene_1_1_">
</g>
<g>
	<defs>
		<rect id="SVGID_1_" x="0" width="128" height="128"/>
	</defs>
	<clipPath id="SVGID_2_">
		<use xlink:href="#SVGID_1_"  style="overflow:visible;"/>
	</clipPath>
	<path class="st0" d="M88,40c0-13.3-10.7-24-24-24c-13.3,0-24,10.7-24,24c0,18.7,24,45.3,24,45.3S88,58.7,88,40 M64,29.3
		c5.9,0,10.7,4.8,10.7,10.7c0,5.9-4.8,10.7-10.7,10.7S53.3,45.9,53.3,40C53.3,34.1,58.1,29.3,64,29.3 M96,64l26.7,42.7H5.3L32,64
		h10.3c1,1.8,2.1,3.6,3.1,5.3H35l-20,32H113l-20-32H82.5c1.1-1.7,2.1-3.5,3.1-5.3H96z"/>
</g>
</svg>
