<?xml version="1.0" encoding="utf-8"?>
<!-- Generator: Adobe Illustrator 21.1.0, SVG Export Plug-In . SVG Version: 6.00 Build 0)  -->
<svg version="1.1" id="Ebene_1" xmlns="http://www.w3.org/2000/svg" xmlns:xlink="http://www.w3.org/1999/xlink" x="0px" y="0px"
	 viewBox="0 0 334.1 304.7" style="enable-background:new 0 0 334.1 304.7;" xml:space="preserve">
<style type="text/css">
	.st0{display:none;}
	.st1{display:inline;}
	.st2{fill:none;stroke:#B35047;}
	.st3{display:inline;opacity:0.5;fill:#E20079;enable-background:new    ;}
	.st4{fill:#626669;}
	.st5{fill:none;}
</style>
<g id="BG" class="st0">
	<rect x="-89" y="-102.3" class="st1" width="512" height="512"/>
</g>
<g id="grid" class="st0">
	<g class="st1">
		<g>
			<line class="st2" x1="-58" y1="-103.3" x2="-58" y2="408.7"/>
			<line class="st2" x1="-26" y1="-103.3" x2="-26" y2="408.7"/>
			<line class="st2" x1="6" y1="-103.3" x2="6" y2="408.7"/>
			<line class="st2" x1="38" y1="-103.3" x2="38" y2="408.7"/>
			<line class="st2" x1="70" y1="-103.3" x2="70" y2="408.7"/>
			<line class="st2" x1="102" y1="-103.3" x2="102" y2="408.7"/>
			<line class="st2" x1="134" y1="-103.3" x2="134" y2="408.7"/>
			<line class="st2" x1="166" y1="-103.3" x2="166" y2="408.7"/>
			<line class="st2" x1="198" y1="-103.3" x2="198" y2="408.7"/>
			<line class="st2" x1="230" y1="-103.3" x2="230" y2="408.7"/>
			<line class="st2" x1="262" y1="-103.3" x2="262" y2="408.7"/>
			<line class="st2" x1="294" y1="-103.3" x2="294" y2="408.7"/>
			<line class="st2" x1="326" y1="-103.3" x2="326" y2="408.7"/>
			<line class="st2" x1="358" y1="-103.3" x2="358" y2="408.7"/>
			<line class="st2" x1="390" y1="-103.3" x2="390" y2="408.7"/>
			<line class="st2" x1="-90" y1="-71.3" x2="422" y2="-71.3"/>
			<line class="st2" x1="-90" y1="-39.3" x2="422" y2="-39.3"/>
			<line class="st2" x1="-90" y1="-7.3" x2="422" y2="-7.3"/>
			<line class="st2" x1="-90" y1="24.7" x2="422" y2="24.7"/>
			<line class="st2" x1="-90" y1="56.7" x2="422" y2="56.7"/>
			<line class="st2" x1="-90" y1="88.7" x2="422" y2="88.7"/>
			<line class="st2" x1="-90" y1="120.7" x2="422" y2="120.7"/>
			<line class="st2" x1="-90" y1="152.7" x2="422" y2="152.7"/>
			<line class="st2" x1="-90" y1="184.7" x2="422" y2="184.7"/>
			<line class="st2" x1="-90" y1="216.7" x2="422" y2="216.7"/>
			<line class="st2" x1="-90" y1="248.7" x2="422" y2="248.7"/>
			<line class="st2" x1="-90" y1="280.7" x2="422" y2="280.7"/>
			<line class="st2" x1="-90" y1="312.7" x2="422" y2="312.7"/>
			<line class="st2" x1="-90" y1="344.7" x2="422" y2="344.7"/>
			<line class="st2" x1="-90" y1="376.7" x2="422" y2="376.7"/>
			<rect x="-90" y="-103.3" class="st2" width="512" height="512"/>
		</g>
		<g>
			<g>
				<line class="st2" x1="-42" y1="-103.3" x2="-42" y2="408.7"/>
				<line class="st2" x1="-26" y1="-71.3" x2="-26" y2="376.7"/>
				<line class="st2" x1="-10" y1="-103.3" x2="-10" y2="408.7"/>
				<line class="st2" x1="6" y1="-71.3" x2="6" y2="376.7"/>
				<line class="st2" x1="22" y1="-103.3" x2="22" y2="408.7"/>
				<line class="st2" x1="38" y1="-71.3" x2="38" y2="376.7"/>
				<line class="st2" x1="54" y1="-103.3" x2="54" y2="408.7"/>
				<line class="st2" x1="70" y1="-71.3" x2="70" y2="376.7"/>
				<line class="st2" x1="86" y1="-103.3" x2="86" y2="408.7"/>
				<line class="st2" x1="102" y1="-71.3" x2="102" y2="376.7"/>
				<line class="st2" x1="118" y1="-103.3" x2="118" y2="408.7"/>
				<line class="st2" x1="134" y1="-71.3" x2="134" y2="376.7"/>
				<line class="st2" x1="150" y1="-103.3" x2="150" y2="408"/>
				<line class="st2" x1="166" y1="-71.3" x2="166" y2="376.7"/>
				<line class="st2" x1="182" y1="-103.3" x2="182" y2="408.7"/>
				<line class="st2" x1="198" y1="-71.3" x2="198" y2="376.7"/>
				<line class="st2" x1="214" y1="-103.3" x2="214" y2="408.7"/>
				<line class="st2" x1="230" y1="-71.3" x2="230" y2="376.7"/>
				<line class="st2" x1="246" y1="-103.3" x2="246" y2="408.7"/>
				<line class="st2" x1="262" y1="-71.3" x2="262" y2="376.7"/>
				<line class="st2" x1="278" y1="-103.3" x2="278" y2="408.7"/>
				<line class="st2" x1="294" y1="-71.3" x2="294" y2="376.7"/>
				<line class="st2" x1="310" y1="-103.3" x2="310" y2="408.7"/>
				<line class="st2" x1="326" y1="-71.3" x2="326" y2="376.7"/>
				<line class="st2" x1="342" y1="-103.3" x2="342" y2="408.7"/>
				<line class="st2" x1="358" y1="-71.3" x2="358" y2="376.7"/>
				<line class="st2" x1="374" y1="-103.3" x2="374" y2="408.7"/>
				<line class="st2" x1="-90" y1="-55.3" x2="422" y2="-55.3"/>
				<line class="st2" x1="-58" y1="-39.3" x2="390" y2="-39.3"/>
				<line class="st2" x1="-90" y1="-23.3" x2="422" y2="-23.3"/>
				<line class="st2" x1="-58" y1="-7.3" x2="390" y2="-7.3"/>
				<line class="st2" x1="-90" y1="8.7" x2="422" y2="8.7"/>
				<line class="st2" x1="-58" y1="24.7" x2="390" y2="24.7"/>
				<line class="st2" x1="-89.7" y1="40.7" x2="422" y2="40.7"/>
				<line class="st2" x1="-58" y1="56.7" x2="390" y2="56.7"/>
				<line class="st2" x1="-90" y1="72.7" x2="422" y2="72.7"/>
				<line class="st2" x1="-58" y1="88.7" x2="390" y2="88.7"/>
				<line class="st2" x1="-90" y1="104.7" x2="422" y2="104.7"/>
				<line class="st2" x1="-58" y1="120.7" x2="390" y2="120.7"/>
				<line class="st2" x1="-90" y1="136.7" x2="422" y2="136.7"/>
				<line class="st2" x1="-58" y1="152.7" x2="390" y2="152.7"/>
				<line class="st2" x1="-90" y1="168.7" x2="422" y2="168.7"/>
				<line class="st2" x1="-58" y1="184.7" x2="390" y2="184.7"/>
				<line class="st2" x1="-90" y1="200.7" x2="422" y2="200.7"/>
				<line class="st2" x1="-58" y1="216.7" x2="390" y2="216.7"/>
				<line class="st2" x1="-90" y1="232.7" x2="422" y2="232.7"/>
				<line class="st2" x1="-58" y1="248.7" x2="390" y2="248.7"/>
				<line class="st2" x1="-90" y1="264.7" x2="422" y2="264.7"/>
				<line class="st2" x1="-58" y1="280.7" x2="390" y2="280.7"/>
				<line class="st2" x1="-90" y1="296.7" x2="422" y2="296.7"/>
				<line class="st2" x1="-58" y1="312.7" x2="390" y2="312.7"/>
				<line class="st2" x1="-90" y1="328.7" x2="422" y2="328.7"/>
				<line class="st2" x1="-58" y1="344.7" x2="390" y2="344.7"/>
				<line class="st2" x1="-90" y1="360.7" x2="422" y2="360.7"/>
				<rect x="-58" y="-71.3" class="st2" width="448" height="448"/>
			</g>
			<line class="st2" x1="406" y1="-103.3" x2="406" y2="408.7"/>
			<line class="st2" x1="-90" y1="-87.3" x2="422" y2="-87.3"/>
			<line class="st2" x1="-74" y1="408.7" x2="-74" y2="-103.3"/>
			<line class="st2" x1="422" y1="392.7" x2="-90" y2="392.7"/>
		</g>
	</g>
	<g class="st1">
		<g>
			<line class="st2" x1="-50" y1="-95.3" x2="-50" y2="400.7"/>
			<line class="st2" x1="-18" y1="-95.3" x2="-18" y2="400.7"/>
			<line class="st2" x1="14" y1="-95.3" x2="14" y2="400.7"/>
			<line class="st2" x1="46" y1="-95.3" x2="46" y2="400.7"/>
			<line class="st2" x1="78" y1="-95.3" x2="78" y2="400.7"/>
			<line class="st2" x1="110" y1="-95.3" x2="110" y2="400.7"/>
			<line class="st2" x1="142" y1="-95.3" x2="142" y2="400.7"/>
			<line class="st2" x1="174" y1="-95.3" x2="174" y2="400.7"/>
			<line class="st2" x1="206" y1="-95.3" x2="206" y2="400.7"/>
			<line class="st2" x1="238" y1="-95.3" x2="238" y2="400.7"/>
			<line class="st2" x1="270" y1="-95.3" x2="270" y2="400.7"/>
			<line class="st2" x1="302" y1="-95.3" x2="302" y2="400.7"/>
			<line class="st2" x1="334" y1="-95.3" x2="334" y2="400.7"/>
			<line class="st2" x1="366" y1="-95.3" x2="366" y2="400.7"/>
			<line class="st2" x1="398" y1="-95.3" x2="398" y2="400.7"/>
			<line class="st2" x1="-82" y1="-63.3" x2="414" y2="-63.3"/>
			<line class="st2" x1="-82" y1="-31.3" x2="414" y2="-31.3"/>
			<line class="st2" x1="-82" y1="0.7" x2="414" y2="0.7"/>
			<line class="st2" x1="-82" y1="32.7" x2="414" y2="32.7"/>
			<line class="st2" x1="-82" y1="64.7" x2="414" y2="64.7"/>
			<line class="st2" x1="-82" y1="96.7" x2="414" y2="96.7"/>
			<line class="st2" x1="-82" y1="128.7" x2="414" y2="128.7"/>
			<line class="st2" x1="-82" y1="160.7" x2="414" y2="160.7"/>
			<line class="st2" x1="-82" y1="192.7" x2="414" y2="192.7"/>
			<line class="st2" x1="-82" y1="224.7" x2="414" y2="224.7"/>
			<line class="st2" x1="-82" y1="256.7" x2="414" y2="256.7"/>
			<line class="st2" x1="-82" y1="288.7" x2="414" y2="288.7"/>
			<line class="st2" x1="-82" y1="320.7" x2="414" y2="320.7"/>
			<line class="st2" x1="-82" y1="352.7" x2="414" y2="352.7"/>
			<line class="st2" x1="-82" y1="384.7" x2="414" y2="384.7"/>
			<rect x="-82" y="-95.3" class="st2" width="496" height="496"/>
		</g>
		<g>
			<g>
				<line class="st2" x1="-34" y1="-95.3" x2="-34" y2="400.7"/>
				<line class="st2" x1="-18" y1="-63.3" x2="-18" y2="384.7"/>
				<line class="st2" x1="-2" y1="-95.3" x2="-2" y2="400.7"/>
				<line class="st2" x1="14" y1="-63.3" x2="14" y2="384.7"/>
				<line class="st2" x1="30" y1="-95.3" x2="30" y2="400.7"/>
				<line class="st2" x1="46" y1="-63.3" x2="46" y2="384.7"/>
				<line class="st2" x1="62" y1="-95.3" x2="62" y2="400.7"/>
				<line class="st2" x1="78" y1="-63.3" x2="78" y2="384.7"/>
				<line class="st2" x1="94" y1="-95.3" x2="94" y2="400.7"/>
				<line class="st2" x1="110" y1="-63.3" x2="110" y2="384.7"/>
				<line class="st2" x1="126" y1="-95.3" x2="126" y2="400.7"/>
				<line class="st2" x1="142" y1="-63.3" x2="142" y2="384.7"/>
				<line class="st2" x1="158" y1="-95.3" x2="158" y2="400.1"/>
				<line class="st2" x1="174" y1="-63.3" x2="174" y2="384.7"/>
				<line class="st2" x1="190" y1="-95.3" x2="190" y2="400.7"/>
				<line class="st2" x1="206" y1="-63.3" x2="206" y2="384.7"/>
				<line class="st2" x1="222" y1="-95.3" x2="222" y2="400.7"/>
				<line class="st2" x1="238" y1="-63.3" x2="238" y2="384.7"/>
				<line class="st2" x1="254" y1="-95.3" x2="254" y2="400.7"/>
				<line class="st2" x1="270" y1="-63.3" x2="270" y2="384.7"/>
				<line class="st2" x1="286" y1="-95.3" x2="286" y2="400.7"/>
				<line class="st2" x1="302" y1="-63.3" x2="302" y2="384.7"/>
				<line class="st2" x1="318" y1="-95.3" x2="318" y2="400.7"/>
				<line class="st2" x1="334" y1="-63.3" x2="334" y2="384.7"/>
				<line class="st2" x1="350" y1="-95.3" x2="350" y2="400.7"/>
				<line class="st2" x1="366" y1="-63.3" x2="366" y2="384.7"/>
				<line class="st2" x1="382" y1="-95.3" x2="382" y2="400.7"/>
				<line class="st2" x1="-82" y1="-47.3" x2="414" y2="-47.3"/>
				<line class="st2" x1="-50" y1="-31.3" x2="398" y2="-31.3"/>
				<line class="st2" x1="-82" y1="-15.3" x2="414" y2="-15.3"/>
				<line class="st2" x1="-50" y1="0.7" x2="398" y2="0.7"/>
				<line class="st2" x1="-82" y1="16.7" x2="414" y2="16.7"/>
				<line class="st2" x1="-50" y1="32.7" x2="398" y2="32.7"/>
				<line class="st2" x1="-81.8" y1="48.7" x2="414" y2="48.7"/>
				<line class="st2" x1="-50" y1="64.7" x2="398" y2="64.7"/>
				<line class="st2" x1="-82" y1="80.7" x2="414" y2="80.7"/>
				<line class="st2" x1="-50" y1="96.7" x2="398" y2="96.7"/>
				<line class="st2" x1="-82" y1="112.7" x2="414" y2="112.7"/>
				<line class="st2" x1="-50" y1="128.7" x2="398" y2="128.7"/>
				<line class="st2" x1="-82" y1="144.7" x2="414" y2="144.7"/>
				<line class="st2" x1="-50" y1="160.7" x2="398" y2="160.7"/>
				<line class="st2" x1="-82" y1="176.7" x2="414" y2="176.7"/>
				<line class="st2" x1="-50" y1="192.7" x2="398" y2="192.7"/>
				<line class="st2" x1="-82" y1="208.7" x2="414" y2="208.7"/>
				<line class="st2" x1="-50" y1="224.7" x2="398" y2="224.7"/>
				<line class="st2" x1="-82" y1="240.7" x2="414" y2="240.7"/>
				<line class="st2" x1="-50" y1="256.7" x2="398" y2="256.7"/>
				<line class="st2" x1="-82" y1="272.7" x2="414" y2="272.7"/>
				<line class="st2" x1="-50" y1="288.7" x2="398" y2="288.7"/>
				<line class="st2" x1="-82" y1="304.7" x2="414" y2="304.7"/>
				<line class="st2" x1="-50" y1="320.7" x2="398" y2="320.7"/>
				<line class="st2" x1="-82" y1="336.7" x2="414" y2="336.7"/>
				<line class="st2" x1="-50" y1="352.7" x2="398" y2="352.7"/>
				<line class="st2" x1="-82" y1="368.7" x2="414" y2="368.7"/>
				<rect x="-50" y="-63.3" class="st2" width="448" height="448"/>
			</g>
			<line class="st2" x1="414" y1="-95.3" x2="414" y2="400.7"/>
			<line class="st2" x1="-82" y1="-79.3" x2="414" y2="-79.3"/>
			<line class="st2" x1="-66" y1="400.7" x2="-66" y2="-95.3"/>
			<line class="st2" x1="414" y1="400.7" x2="-82" y2="400.7"/>
		</g>
	</g>
</g>
<g id="Kreisfläche" class="st0">
	<circle class="st3" cx="166" cy="152.7" r="256"/>
</g>
<g id="vorlage" class="st0">
	<g transform="translate(0 -3)" class="st1">
		<path class="st4" d="M340.3,10.6h-264c-5.2,0.1-9.4,4.3-9.6,9.6v49.5L5.2,133.4c-0.6,1.1-19.7,21.4-24.3,63.1v2.3L-5,332.4
			c0.4,4.9,4.7,8.6,9.6,8.5h1.1c2.5-0.3,4.9-1.6,6.5-3.6s2.3-4.6,2-7.1l-14.1-133c3.9-34.4,18.6-50.7,18.6-50.7l47.4-49v59.8
			L30,191.1c-2.5,2.3-3.6,5.8-2.9,9.1c0.7,3.3,3.2,6,6.5,7s6.8,0.2,9.3-2.1l81.8-76.1c4.4,1.8,7.8,5.2,9.6,9.6
			c2.8,7.9-2.3,18-4.5,22.5l-47.4,46.2c-3.6,3.5-3.8,9.2-0.6,13c25.4,29.9,1.1,62,0,63.1c-1.7,2-2.4,4.6-2.1,7.1
			c0.3,2.6,1.7,4.9,3.8,6.4c1.8,1.3,4,2.1,6.2,2.3c2.8,0.1,5.6-1.2,7.3-3.4c11.3-14.7,25.9-48.5,5.1-80l6.2-5.6h55.8v36.6
			c0,25.9-24.8,36.6-25.9,37.2c-3.4,1.7-5.6,5.2-5.6,9v37.2c0,5.3,4.3,9.6,9.6,9.6s9.6-4.3,9.6-9.6v-32.7
			c10.7-6.2,32.2-22,32.2-51.9V209h157.4c5.2-0.1,9.4-4.3,9.6-9.6V20.1C350,14.9,345.6,11,340.3,10.6z M330.7,189.8H127.6l16.9-16.4
			c0.6-0.6,0.6-1.1,1.1-1.7c1.7-2.3,14.1-20.9,7.9-39.5c-3.4-11.3-12.4-19.2-26.5-23.7c-3.4-1.3-7.1-0.4-9.6,2.3l-31,28.7V29.2
			h244.8v160.7h-0.5V189.8z M141.2,73.7h60.9c5.2-0.1,9.4-4.3,9.6-9.6c-0.1-5.2-4.4-9.4-9.6-9.6h-60.9c-5.2,0.1-9.4,4.3-9.6,9.6
			C131.7,69.3,136,73.5,141.2,73.7L141.2,73.7z M135.5,100.2c0.1,5.2,4.4,9.4,9.6,9.6h119.6c5.3,0,9.6-4.3,9.6-9.6s-4.3-9.6-9.6-9.6
			H145.1C139.9,90.7,135.7,95,135.5,100.2L135.5,100.2z M244.9,158.3c0.1,5.2,4.4,9.4,9.6,9.6h50.8c3.4,0,6.6-1.8,8.3-4.8
			c1.7-3,1.7-6.6,0-9.6s-4.9-4.8-8.3-4.8h-50.8c-2.5,0-5,1-6.8,2.8C245.9,153.3,244.9,155.7,244.9,158.3z"/>
		<rect x="-19" y="-4.2" class="st5" width="370" height="359.9"/>
	</g>
</g>
<g id="icon_x5F_rfid-card" class="st0">
	<g class="st1">
		<rect x="110" y="34" width="89.5" height="13.6"/>
		<rect x="110" y="66.5" width="144" height="13.6"/>
		<rect x="238.5" y="138.6" width="65.1" height="13.6"/>
		<path d="M315.7,1.4c-2.6,0-214.4,0-219.2,0c-11.8,0-17.7,10.1-17.7,17.7c0,6.7,0,41.7,0,41.7l-55.3,55.3C3,136.7-2,161-0.1,175.7
			c1.8,14,20.9,124.5,21.7,129.3h3.5H35c-0.2-1.2-19.9-117.3-21.7-131c-1.5-11.6,2.8-31.2,19.8-48.1L78.8,80v64.5L38.9,185l9.5,9.6
			l30.5-31.1l13.6-13.4l38.6-38.2c0,0,14.3,10.1-3.9,34.5s-17.7,23.7-17.7,23.7l-11,13.6c0,0-2.5,3.1-2.5,7.1s1.8,5.9,3.1,7.5
			c5.3,6.4,12.8,17.7,12.8,27.7c0,15.1-15.2,31.3-15.3,31.5l4.9,4.7l4.9,4.7c0.8-0.8,19-20.3,19-40.8c0-14.9-10.1-27.3-16-34.4
			l6.5-7.9h50.6v40.5c0,19.8-25.3,32.7-25.6,32.8l-3.8,1.9v46.3h13.6v-38.1c8.7-5.2,29.4-20.1,29.4-42.9v-40.5c0,0,132.2,0,135.7,0
			c9.2,0,17.7-7.7,17.7-17.8c0-2.6,0-144.1,0-146.6C333.5,9.7,326.1,1.4,315.7,1.4z M319.9,167.4c0,1-1,2.6-2.7,2.6
			c-0.8,0-190.3,0-190.3,0l10.3-14.7c2-2.1,13.2-14.8,13.5-30.7c0.3-11.9-8.7-21.9-8.7-21.9c-2-4-6.1-5.4-8.4-5.8
			c0,0-5.6-1.2-9.6,2.8c-0.9,0.9-31.6,31.3-31.6,31.3s0-112.2,0-113.4s1.1-2.5,2.5-2.5c1.3,0,197.8,0,222.5,0c1.5,0,2.6,1.2,2.6,2.4
			C319.9,36.6,319.9,166.8,319.9,167.4z"/>
	</g>
</g>
<g id="icon_x5F_rfid-card_neu">
	<g>
		<rect x="125" y="48" width="80" height="14"/>
		<rect x="182" y="104" width="104" height="14"/>
		<path d="M316.2,0c-2.6,0-214.7,0-219.5,0C84.9,0,79,10.1,79,17.7c0,6.7,0,42,0,42l-55.1,55.1C3.5,135.2-1.5,159.5,0.4,174.1
			c1.8,14,20.9,124.1,21.7,128.9h3.5h9.8c-0.2-1.2-19.8-116.9-21.6-130.6c-1.5-11.6,2.8-31.1,19.7-48l45.6-45.8v64.3l-39.8,40.4
			l9.5,9.6l30.4-31l13.5-13.4l38.5-38.1c0,0,14.3,10-3.9,34.4s-17.6,23.6-17.6,23.6l-11,13.5c0,0-2.5,3.1-2.5,7.1s1.8,5.9,3.1,7.4
			c5.3,6.4,12.8,17.6,12.8,27.6c0,15.1-15.1,31.2-15.3,31.4l4.9,4.6l4.9,4.7c0.8-0.8,19-20.2,19-40.7c0-14.9-10-27.2-15.9-34.2
			l6.4-7.9h50v40.4c0,19.8-25,32.6-25.3,32.7l-3.7,1.9V303h14v-38c8.6-5.2,29-20,29-42.7V182c0,0,132.8,0,136.3,0
			c9.2,0,17.7-7.7,17.7-17.8c0-2.6,0-144,0-146.5C334,8.3,326.6,0,316.2,0z M320,165.4c0,1-1,2.6-2.7,2.6c-0.8,0-190.6,0-190.6,0
			l10.3-14.7c2-2.1,13.2-14.8,13.5-30.7c0.2-11.9-8.8-21.9-8.8-21.9c-2-4-6.1-5.4-8.4-5.8c0,0-5.6-1.2-9.6,2.8
			C122.8,98.6,92,129,92,129s0-112.2,0-113.4s1.1-2.5,2.5-2.5c1.3,0,198.2,0,222.9,0c1.5,0,2.6,1.2,2.6,2.4
			C320,34.6,320,164.8,320,165.4z"/>
	</g>
</g>
</svg>
