<?xml version="1.0" encoding="utf-8"?>
<!-- Generator: Adobe Illustrator 21.1.0, SVG Export Plug-In . SVG Version: 6.00 Build 0)  -->
<svg version="1.1" id="Ebene_1" xmlns="http://www.w3.org/2000/svg" xmlns:xlink="http://www.w3.org/1999/xlink" x="0px" y="0px"
	 viewBox="0 0 70 70" style="enable-background:new 0 0 70 70;" xml:space="preserve">
<style type="text/css">
	.st0{display:none;}
	.st1{display:inline;}
	.st2{fill:#D2EB2D;}
	.st3{fill:none;}
	.st4{fill:#FFFFFF;}
</style>
<g id="Ebene_1_1_" class="st0">
	<g transform="translate(0 -3)" class="st1">
		<path class="st2" d="M63.8,5.5l-47,0.2c-0.9,0-1.7,0.8-1.7,1.7v8.8L4.3,27.6C4.2,27.8,0.8,31.4,0,38.8v0.4L2.6,63
			c0.1,0.9,0.8,1.5,1.7,1.5h0.2c0.5-0.1,0.9-0.3,1.1-0.6C6,63.5,6.1,63,6,62.6L3.4,38.9c0.7-6.1,3.3-9,3.3-9l8.4-8.8v10.6l-6.4,6
			c-0.4,0.4-0.6,1-0.5,1.6s0.6,1.1,1.2,1.2c0.6,0.2,1.2,0,1.7-0.4l14.5-13.6c0.8,0.3,1.4,0.9,1.7,1.7c0.5,1.4-0.4,3.2-0.8,4
			l-8.4,8.3c-0.6,0.6-0.7,1.6-0.1,2.3c4.5,5.3,0.2,11,0,11.2c-0.3,0.4-0.4,0.8-0.4,1.3c0.1,0.5,0.3,0.9,0.7,1.1
			c0.3,0.2,0.7,0.4,1.1,0.4c0.5,0,1-0.2,1.3-0.6c2-2.6,4.6-8.6,0.8-14.2l1.1-1h9.9v6.5c0,4.6-4.4,6.5-4.6,6.6c-0.6,0.3-1,0.9-1,1.6
			v6.6c0,0.9,0.8,1.7,1.7,1.7s1.7-0.8,1.7-1.7v-5.8c1.9-1.1,5.7-3.9,5.7-9.2v-6.5l28-0.1c0.9,0,1.7-0.8,1.7-1.7V7.2
			C65.5,6.3,64.7,5.6,63.8,5.5z M62.2,37.4l-36.1,0.1l3-2.9c0.1-0.1,0.1-0.2,0.2-0.3c0.3-0.4,2.5-3.7,1.4-7c-0.6-2-2.2-3.4-4.7-4.2
			c-0.6-0.2-1.3-0.1-1.7,0.4l-5.5,5.1L18.7,9l43.5-0.2V37.4L62.2,37.4z M28.4,16.9h10.8c0.9,0,1.7-0.8,1.7-1.7s-0.8-1.7-1.7-1.7
			H28.4c-0.9,0-1.7,0.8-1.7,1.7S27.5,16.9,28.4,16.9L28.4,16.9z M27.4,21.6c0,0.9,0.8,1.7,1.7,1.7l21.3-0.1c0.9,0,1.7-0.8,1.7-1.7
			c0-0.9-0.8-1.7-1.7-1.7l-21.3,0.1C28.2,19.9,27.5,20.7,27.4,21.6L27.4,21.6z M46.9,31.8c0,0.9,0.8,1.7,1.7,1.7h9
			c0.6,0,1.2-0.3,1.5-0.9c0.3-0.5,0.3-1.2,0-1.7s-0.9-0.8-1.5-0.8h-9c-0.5,0-0.9,0.2-1.2,0.5C47.1,30.9,46.9,31.4,46.9,31.8z"/>
		<rect x="0" y="3" transform="matrix(1 -4.106998e-03 4.106998e-03 1 -0.1435 0.1354)" class="st3" width="65.8" height="64"/>
	</g>
</g>
<g id="Ebene_2" class="st0">
	<g class="st1">
		<path class="st2" d="M0,60.4h3.5V3.6c0-1,0.4-1.8,1.1-2.5S6.1,0,7.1,0H32c1,0,1.8,0.4,2.5,1.1s1,1.6,1,2.5V25
			c1.2,0,2.7,0.6,4.5,1.8s2.6,3.6,2.6,7.1V48c0,0.4,0.3,1.4,0.8,3s2.1,2.4,4.6,2.4s4-0.8,4.5-2.3c0.5-1.6,0.8-2.6,0.8-3
			c0-1.4-0.2-2.8-0.5-4.1c-0.4-1.3-0.7-2.7-1.1-4c-0.4-1.5-0.8-3-1.2-4.6s-0.6-3.4-0.6-5.5v-5.5c-1.5-0.4-2.8-1.3-3.8-2.5
			c-1-1.3-1.5-2.7-1.5-4.4v-7h1.8V5c0-0.5,0.2-0.9,0.5-1.2s0.8-0.5,1.2-0.5s0.9,0.2,1.2,0.5s0.5,0.8,0.5,1.2v5.4h3.5V5
			c0-0.5,0.2-0.9,0.6-1.2c0.4-0.3,0.8-0.5,1.3-0.5s0.9,0.2,1.2,0.5s0.5,0.8,0.5,1.2v5.4h1.8v7c0,1.7-0.5,3.1-1.5,4.4
			s-2.3,2.1-3.8,2.5v5.6c0,1.5,0.2,3,0.6,4.4c0.4,1.4,0.8,2.8,1.2,4.2c0.4,1.5,0.8,3,1.2,4.6c0.4,1.5,0.6,3.2,0.6,4.9
			c0,1.5-0.6,3.4-1.8,5.6s-3.6,3.3-7.1,3.3s-5.9-1.1-7.1-3.3s-1.8-4.1-1.8-5.6V33.8c0-2.7-0.6-4.2-1.8-4.6s-1.8-0.6-1.8-0.6v31.9
			h3.6V64H0V60.4z M32,21.4V3.6H7.1v17.8H32z M32,60.4V24.9H7.1v35.5H32z M49,20.3c0.7,0.7,1.5,1.1,2.5,1.1s1.8-0.4,2.5-1.1
			s1.1-1.6,1.1-2.5v-3.5H48v3.5C48,18.7,48.3,19.6,49,20.3z"/>
	</g>
</g>
<g id="Ebene_2_Kopie">
	<g>
		<path class="st4" d="M9.4,9.3C15.7,3.1,23.2,0,32,0c9.3,0,17,3.1,23,9.2S64,23,64,32c0,8.9-3.1,16.4-9.3,22.7
			C48.4,60.9,40.9,64,32.1,64s-16.4-3.1-22.7-9.3C3.1,48.4,0,40.9,0,32S3.1,15.6,9.4,9.3z M5.3,25c0.1,0.7,0.2,1.1,0.2,1.3
			c-0.2,0.9-0.3,1.5-0.2,1.8c0.1,0.6,0.5,1.3,1.2,2.2l1.2,1.5V32c0.1,0.1,0.2,0.3,0.2,0.5s0,0.4,0.1,0.7c0.1,0.2,0.1,0.4,0.3,0.7
			c0.1,0.2,0.2,0.4,0.3,0.5c0.3,0.2,0.4,0.5,0.2,0.8s-0.3,0.5-0.3,0.6c-0.1,0.1-0.1,0.2-0.2,0.3l-0.5,3.5c0.3,2.2,0.7,3.6,1,4
			c0.3,0.3,1.4,0.9,3.3,1.8l0.3,0.3c0.3,0.1,0.6,0.3,0.8,0.6s0.3,0.5,0.3,0.8c0,0.6,0.3,1.4,1,2.5l0.8,0.8c0.4,0.4,0.8,0.9,1.2,1.4
			S17,52.7,17,53c0,0.6,0.1,1.1,0.4,1.5s0.4,0.8,0.4,1c0.3,0.8,1.3,1.3,3,1.7l0.2-1c0.2-0.7,0.4-1.4,0.6-2.2s0.2-1.2,0.1-1.3
			c-0.3-0.6-0.7-1.3-1.2-2.3l-0.2-2.5l1.2-1.5c0.6-0.4,1.1-1.2,1.5-2.2c0.1-0.3,0.5-0.9,1.1-1.8c0.6-0.9,0.9-1.4,0.9-1.7
			c0.1-0.1,0.3-0.5,0.7-1.1c0.3-0.6,0.6-1.1,0.7-1.6c0.1-0.4,0-0.9-0.3-1.3c-0.3-0.3-0.7-0.6-1.2-0.8c-0.4-0.2-1-0.4-1.8-0.5
			C22.4,35.2,22,35.1,22,35c-2.9-0.8-4.4-1.6-4.5-2.3c-0.3-0.6-0.9-0.8-1.7-0.8c-0.8,0.1-1.4,0.2-2,0.4c-2.3,1.2-3.6,1.5-3.8,0.8
			c-0.1-0.3-0.4-0.8-0.8-1.3c-0.4-0.5-0.7-0.9-0.8-1.1s0.1-0.4,0.5-0.4c0.4-0.1,0.6-0.3,0.8-0.8c0.2-0.6,0.1-0.9-0.3-1.2
			c-0.4-0.2-0.9-0.2-1.5,0.2c-0.3,0.1-0.6,0.1-0.8,0c-0.6-0.2-0.5-0.6,0.2-1l1.1-0.8c0.7-0.5,1.3-0.9,1.8-1.1c0.4-0.2,0.7-0.2,0.7,0
			c0.2,0.6,1.2,0.6,2.8,0.2c1-0.2,1.6,0.1,1.7,0.8c0.1,0.4,0.3,0.9,0.7,1.3c0.9,1.2,1.3,1.6,1.3,1c0-0.1,0-0.4,0.1-0.9
			s0.1-0.9,0.2-1.3s0-0.8-0.1-1.1c-0.3-0.6-0.6-1.1-0.8-1.7h0.7c0.4,0,0.9-0.1,1.5-0.4s0.9-0.6,1.2-1.1c0.3-0.6,0.6-1.6,0.8-3.2
			c0.1-0.4,0.1-0.8,0-1.2c-0.4,0-0.7-0.1-1,0c-0.1-0.1-0.2-0.3-0.3-0.5c0-0.8,0.4-1.1,1.3-1c1,0.2,1.2,0.7,0.5,1.3
			c0.7,1.6,1.2,2,1.5,1.3c0.1-0.2,0.4-0.7,1-1.3c0.6-0.7,0.9-1.1,1-1.4s0-0.6-0.3-0.9c-0.2-0.1-0.5-0.6-0.9-1.6
			c-0.4-0.9-1.2-1.5-2.6-1.6c-0.8-0.3-1.7-0.3-2.8-0.1l-1.6,0.3l-0.3,0.1l0.2,1l0.3,0.8c0,0.4-0.7,0.6-2,0.5l-0.3-1.5
			c0.1-0.3,0.3-0.8,0.7-1.5l1.2-1.7l1.2,0.3l2.5-0.2l-0.7-3c-0.3,0-1.2,0.4-2.6,1.2s-3.3,2.5-5.7,5.2s-4.4,5.9-6,9.8
			C5.2,23.9,5.2,24.3,5.3,25z M26.8,14.3c0.8,0.7,1.3,0.7,1.7,0c0.6-1.1,0.6-2.1,0.2-3c-0.1-0.1,0-0.4,0.4-0.9s0.8-1.1,1.2-1.7
			c0.5-0.6,0.7-1,0.7-1.4c0.1-0.6,0.5-1,1.1-1.3s1-0.7,1.2-1.2c-0.1-0.2-0.8-0.4-2-0.5s-2.7,0-4.3,0.3c-1.7,0.3-2.9,0.9-3.8,1.8
			c-0.1,0.7-0.2,1-0.2,1.3C22.9,9.1,24.2,11.3,26.8,14.3z M34.5,16c1.1,1.2,1.7,1.6,1.8,1c0.2-0.3,0.3-0.8,0.2-1.3
			c-0.1-0.6-0.5-0.9-1.2-1.2L35,14.7c-0.2,0.1-0.4,0.2-0.6,0.4c-0.2,0.2-0.2,0.4-0.1,0.6C34.3,15.8,34.4,15.9,34.5,16z M38.2,44.5
			c1.2-0.1,2.1-0.2,2.5-0.3s0.9-0.3,1.5-0.6s1.4-0.6,2.5-0.9c0.7-0.4,1.3-0.6,1.8-0.5c0.6,0.1,1,0.2,1.2,0.4
			c0.3,0.2,0.5,0.5,0.8,0.9c0.2,0.4,0.3,0.8,0.3,0.9c0,0.2,0.1,0.3,0.2,0.4l-0.3,3.8L47.8,51l-0.2,0.3c-0.1,0.2-0.1,0.6,0,1.1
			s0.4,1,0.8,1.4l2.5-2.3c1.7-1.4,3.4-3.8,5.3-7.1c1.9-3.3,2.9-6.7,3.2-10.2c-0.3,0.3-0.7,0.2-1.3-0.3l-0.9-0.8l-0.4-0.4L54.7,30
			h3.7l1.2,0.5c0.9-2.8,0.4-6.2-1.5-10.4s-3.4-6.4-4.5-6.6c-0.1-0.1-0.2-0.1-0.2,0h0.2c0.4,0.4,1.3,2.4,2.7,5.8L53,19l-0.3-0.5
			c-0.2-0.4-0.6-0.8-1-1s-0.9-0.2-1.3,0c-0.3,0.1-0.6,0.2-0.8,0.4c-0.2,0.2-0.2,0.3-0.2,0.4s-0.1,0.2-0.4,0.3
			c-0.3,0.1-0.7,0.2-1.2,0.3c-0.7,0.1-1.5-0.3-2.5-1.2c-1-0.9-1.8-1.1-2.3-0.7c-0.4,0.3-1,0.5-1.6,0.5s-1,0.3-1.1,0.8
			c-0.2,0.4-0.3,0.9-0.2,1.5s0.2,0.9,0.2,1.2c0.1,0.2,0.1,0.4,0.1,0.5h-3c-1.3,0.7-1.6,2.1-0.8,4.3l0.8,0.2c0.7,0.2,1.4,0.3,2.1,0.3
			c0.7,0,1.5-0.2,2.2-0.5c1.2-0.8,2.2-1.8,3-3.2l3.5,4.3c0.2,0.2,0.4,0.2,0.7,0.1c0.2-0.2,0.4-0.3,0.6-0.5c0.2-0.2,0.3-0.4,0.3-0.8
			s0.1-0.6,0.2-0.7l0.1-0.2c-1-1.7-1-2.8,0-3.5l3.5,1.5l2.2,2.7l-0.3,1.8L51.3,29l-0.5,1c-0.2,0.7-0.8,1.1-1.8,1.2
			c-0.9,0.2-2.4-0.3-4.2-1.4l-2.2-0.3c-1.4-0.2-2.9-0.2-4.4-0.1S36,30.1,36,31c0,0.7-0.1,1.4-0.2,2.2c-0.2,0.8-0.2,1.8-0.1,3
			C34.6,41.8,35.5,44.5,38.2,44.5z M37.7,15.8c0.8,0.6,1.6,0.8,2.5,0.8c0.4,0,0.5-0.2,0.2-0.5c-0.7-0.7-0.9-1.4-0.7-2.3
			c0-0.1,0.1-0.4,0.2-1c0.1-0.6,0.2-0.9,0.2-0.9c0-0.1-0.1-0.1-0.3-0.2c-0.9,0.4-1.4,0.8-1.7,1.2l-0.2,0.7c-0.2,0.4-0.3,0.9-0.3,1.3
			C37.5,15.3,37.6,15.6,37.7,15.8z M44,14.2c0.4,0.3,0.8,0.5,1.1,0.6s0.5,0.1,0.6,0.1l0.8-0.2c0.6,0,1.2-0.4,1.9-1.1
			c0.7-0.7,1.2-1.8,1.6-3.2c-2.4-2.6-4-3.7-4.7-3.3c-0.1,0.8-0.3,1.8-0.7,3l-1.2,2.8C43.4,13.4,43.6,13.8,44,14.2z"/>
	</g>
</g>
</svg>
