<svg id="Default" xmlns="http://www.w3.org/2000/svg" viewBox="0 0 24 24"><path d="M18.1,9.5A4.4,4.4,0,0,1,15.74,7a6.81,6.81,0,0,0-3.87-3.49A6.57,6.57,0,0,0,9.43,3,3,3,0,0,0,9,3L5.45,13.18,3,19.7l.83.3,2.69-7.06a8.39,8.39,0,0,1,1.85.5A4.63,4.63,0,0,1,11,16a6.09,6.09,0,0,0,3.27,3.4A12,12,0,0,0,17,20l4-10A14.54,14.54,0,0,1,18.1,9.5Zm-1.74,9.42a8.6,8.6,0,0,1-1.73-.41,5.07,5.07,0,0,1-2.73-2.86,5.65,5.65,0,0,0-3.12-3.12A9.41,9.41,0,0,0,6.92,12L9.71,4a5.76,5.76,0,0,1,1.78.47,5.74,5.74,0,0,1,3.33,3,5.36,5.36,0,0,0,2.89,3,8.78,8.78,0,0,0,1.87.43Z"/></svg>