<svg xmlns="http://www.w3.org/2000/svg" viewBox="0 0 48.025 48"><path d="M32.6,43.9H8.5V11H23.9a16.352,16.352,0,0,1,.2-2.2H6.3V46.1H34.8V23.9a7.945,7.945,0,0,1-2.2-.6Z"/><path d="M15.1,23H30.5v-.7a17.684,17.684,0,0,1-2.2-1.6H15.1Z"/><path d="M15.1,16.4v2.3H26.4a17.1,17.1,0,0,1-1.3-2.3Z"/><path d="M15.6,33.8h0l-1.2.6-.2-.7,1.5-.8h.8v6.9h-.9Z"/><path d="M20.6,33.8h0l-1.2.6-.2-.7,1.5-.8h.8v6.9h-.9Z"/><path d="M25.6,33.8h0l-1.2.6-.2-.7,1.5-.8h.8v6.9h-.9Z"/><path d="M44.8,3.2a11.106,11.106,0,0,0-15.6,0A10.95,10.95,0,0,0,37,21.9a11.318,11.318,0,0,0,7.8-3.2A10.925,10.925,0,0,0,44.8,3.2Zm-1.6,14a8.692,8.692,0,0,1-12.4,0,8.812,8.812,0,0,1,0-12.4A8.768,8.768,0,0,1,43.2,17.2Z"/><polygon points="34.8 15.1 30.5 10.7 33.7 10.7 34.8 11.9 39.2 7.4 42.5 7.4 34.8 15.1"/></svg>
