<svg viewBox="0 0 48.025 48" width="1em" height="1em">
    <path d="M32.6 43.9H8.5V11h15.4a16.352 16.352 0 01.2-2.2H6.3v37.3h28.5V23.9a7.945 7.945 0 01-2.2-.6z" />
    <path d="M15.1 23h15.4v-.7a17.684 17.684 0 01-2.2-1.6H15.1zm0-6.6v2.3h11.3a17.1 17.1 0 01-1.3-2.3zm.5 17.4l-1.2.6-.2-.7 1.5-.8h.8v6.9h-.9zm5 0l-1.2.6-.2-.7 1.5-.8h.8v6.9h-.9zm5 0l-1.2.6-.2-.7 1.5-.8h.8v6.9h-.9zM44.8 3.2a11.106 11.106 0 00-15.6 0A10.95 10.95 0 0037 21.9a11.318 11.318 0 007.8-3.2 10.925 10.925 0 000-15.5zm-1.6 14a8.692 8.692 0 01-12.4 0 8.812 8.812 0 010-12.4 8.768 8.768 0 0112.4 12.4z" />
    <path d="M34.8 15.1l-4.3-4.4h3.2l1.1 1.2 4.4-4.5h3.3l-7.7 7.7z" />
</svg>
