<?xml version="1.0" encoding="utf-8"?>
<!-- Generator: Adobe Illustrator 22.0.1, SVG Export Plug-In . SVG Version: 6.00 Build 0)  -->
<svg version="1.1" id="information" xmlns="http://www.w3.org/2000/svg" xmlns:xlink="http://www.w3.org/1999/xlink" x="0px"
	 y="0px" viewBox="0 0 48 48" style="enable-background:new 0 0 48 48;" xml:space="preserve">
<style type="text/css">
	.st0{fill:none;}
</style>
<g>
	<g>
		<path d="M24,2C11.8,2,2,11.8,2,24c0,12.1,9.8,22,22,22c12.1,0,22-9.8,22-22S36.1,2,24,2z M24,44C13,44,4,35,4,24
			c0-5.1,2-9.8,5.2-13.4l28.2,28.2C33.8,42,29.1,44,24,44z M38.8,37.4L10.6,9.2C14.1,6,18.8,4,24,4c11,0,20,9,20,20
			C44,29.1,42,33.8,38.8,37.4z"/>
		<path d="M8.6,22.8c0.1,0.3,0.6,0.4,0.6,0.4c0.2,0.1,0.8,0.1,0.8,0.1l0.2,0.3l0,0c0,0-1,0.6-1.4,0.8C8.3,24.8,8.2,25,8.2,25
			C8.1,25.5,8,26.8,8,26.8c0,0.2,0,0.4,0,0.6l0,0c0,1.9,0.3,3.7,0.3,3.7c0.2,1.4,0.6,1.6,0.6,1.6h2.5c0.4,0,0.5-1.1,0.5-1.1
			s4.9,0.2,6.6,0.2c1.6,0,6.6-0.2,6.6-0.2s0.1,1.1,0.5,1.1H28c0,0,0.1-0.1,0.3-0.3l-2-2c-0.3,0-0.5,0.1-0.7,0.1
			c-0.5,0-2.2,0.2-2.2,0.2c-0.5,0-0.4-0.3-0.4-0.3l0.2-1.1c0-0.2,0.2-0.2,0.2-0.2s0.2,0,0.5-0.1c0.2,0,0.5,0,0.8-0.1L19,23.3h-0.6
			l0,0l0,0l-7,0.1c0,0,0.9-2.2,1.4-2.8c0.4-0.5,1.1-0.6,1.1-0.6c0.4,0,1-0.1,1.7-0.1l-0.7-0.7c-0.8,0.1-1.2,0.2-1.2,0.2
			c-0.4,0.1-0.6,0.3-0.6,0.3c-0.5,0.3-1,1.3-1,1.3c-0.2,0.4-0.9,1.7-1,2c0,0-0.1,0.2-0.3,0.3c-0.1,0-0.1,0.1-0.2,0.1
			c-0.1-0.2-0.2-0.4-0.2-0.4c0.1-0.3,0-0.6,0-0.6c0-0.3-0.4-0.3-0.4-0.3c-1.1,0-1.4,0.3-1.4,0.3C8.4,22.4,8.6,22.8,8.6,22.8z
			 M18.4,29.5L18.4,29.5L18.4,29.5c2,0,4.1-0.1,4.1-0.1l-0.3,1.5C20.8,31,18.8,31,18.4,31s-2.4,0-3.8-0.1l-0.3-1.5
			C14.3,29.4,16.4,29.5,18.4,29.5z M13.5,29.1c0,0,0.1,0.1,0.2,0.2l0.2,1.1c0,0,0.1,0.4-0.4,0.3c0,0-1.6-0.1-2.2-0.2
			c-0.7-0.1-2.1-0.2-2.1-0.2s-0.1-0.8,0.1-1.7c0,0,2.7,0.3,3.7,0.3C13.3,29.1,13.5,29.1,13.5,29.1z M10.4,24.1
			c0.8,0,1.5,0.7,1.5,1.5c0,0.9-0.7,1.5-1.5,1.5s-1.5-0.7-1.5-1.5C8.9,24.8,9.6,24.1,10.4,24.1z"/>
		<path d="M40.9,19.3l-2.5-0.8l-1.2-1.7C37,16.2,36.4,16,35.9,16h-5.7h-5.7c-0.5,0-1.1,0.3-1.4,0.7L22.2,18l1.2,1.2l0.8-1.2
			c0.2-0.2,0.4-0.4,0.7-0.4h10.6c0.3,0,0.5,0.1,0.7,0.4l1.4,2.1H24.3l7.4,7.4h5.1v1.6c0,0.5,0.4,0.8,0.8,0.8h1.6
			c0.5,0,0.8-0.4,0.8-0.8v-8.4c0-0.2-0.1-0.5-0.2-0.7h1L40.9,19.3z M38.4,23.2c0,0.1-0.1,0.2-0.2,0.2h-2.9c-0.1,0-0.2-0.1-0.2-0.2
			V22c0-0.1,0.1-0.2,0.2-0.2h2.9c0.1,0,0.2,0.1,0.2,0.2V23.2z"/>
		<rect x="22" y="5.9" width="2" height="7"/>
		<rect x="24.6" y="10" transform="matrix(0.6372 -0.7707 0.7707 0.6372 1.8935 25.9597)" width="7.8" height="2"/>
		<rect x="16.5" y="7.9" transform="matrix(0.7106 -0.7036 0.7036 0.7106 -2.9907 15.6151)" width="2" height="7.1"/>
	</g>
</g>
<rect y="0" class="st0" width="48" height="48"/>
</svg>
