<?xml version="1.0" encoding="utf-8"?>
<!-- Generator: Adobe Illustrator 22.0.1, SVG Export Plug-In . SVG Version: 6.00 Build 0)  -->
<svg version="1.1" id="bin" xmlns="http://www.w3.org/2000/svg" xmlns:xlink="http://www.w3.org/1999/xlink" x="0px" y="0px"
	 viewBox="0 0 48 48" style="enable-background:new 0 0 48 48;" xml:space="preserve">
<style type="text/css">
	.st0{fill:none;}
</style>
<g>
	<path d="M36,6h-8c0-1.1-0.9-2-2-2h-4c-1.1,0-2,0.9-2,2h-8c-1.1,0-2,0.9-2,2v2h28V8C38,6.9,37.1,6,36,6z"/>
	<path d="M13.8,42.2c0.1,1,1,1.8,2,1.8h16.4c1,0,1.9-0.8,2-1.8L38,12H10L13.8,42.2z M29,16h2v24h-2V16z M23,16h2v24h-2V16z M17,16h2
		v24h-2V16z"/>
</g>
<rect y="0" class="st0" width="48" height="48"/>
</svg>
