<?xml version="1.0" encoding="utf-8"?>
<!-- Generator: Adobe Illustrator 22.0.1, SVG Export Plug-In . SVG Version: 6.00 Build 0)  -->
<svg version="1.1" id="date" xmlns="http://www.w3.org/2000/svg" xmlns:xlink="http://www.w3.org/1999/xlink" x="0px" y="0px"
	 viewBox="0 0 48 48" style="enable-background:new 0 0 48 48;" xml:space="preserve">
<style type="text/css">
	.st0{fill:none;}
</style>
<g>
	<path d="M44,12v16H29.6c0.3-0.3,0.5-0.6,0.7-1c0.4-0.8,0.6-1.7,0.6-2.9c0-0.9-0.1-1.7-0.3-2.4c-0.2-0.7-0.6-1.4-1.2-1.9
		c-0.5-0.5-1.2-1-2.1-1.3s-2-0.4-3.3-0.4s-2.4,0.1-3.2,0.4c-0.9,0.3-1.6,0.7-2.2,1.3c-0.5,0.5-0.9,1.2-1.2,1.9
		c-0.2,0.7-0.4,1.5-0.4,2.4c0,1.2,0.2,2.2,0.6,3c0.2,0.4,0.4,0.7,0.7,1H4V12c0-1.1,0.9-2,2-2h2v4h8v-4h16v4h8v-4h2
		C43.1,10,44,10.9,44,12z M24,27.4c1.1,0,1.9-0.2,2.3-0.7s0.6-1.2,0.6-2.1c0-1-0.2-1.7-0.6-2.2s-1.2-0.7-2.3-0.7
		c-1.2,0-1.9,0.2-2.3,0.7s-0.6,1.2-0.6,2.2s0.2,1.7,0.6,2.1C22.1,27.2,22.8,27.4,24,27.4z M14,12L14,12h-4H14z M30.2,30
		c0.1,0.2,0.3,0.3,0.4,0.5c0.4,0.8,0.7,1.8,0.7,3.2c0,2.2-0.6,3.8-1.7,4.8S26.6,40,24,40s-4.4-0.5-5.6-1.5c-1.1-1-1.7-2.6-1.7-4.8
		c0-1.3,0.2-2.4,0.6-3.2c0.1-0.2,0.2-0.4,0.4-0.5H4v12c0,1.1,0.9,2,2,2h36c1.1,0,2-0.9,2-2V30H30.2z M21.5,36
		c0.5,0.5,1.3,0.7,2.5,0.7s2.1-0.2,2.5-0.7s0.7-1.2,0.7-2.3c0-1-0.2-1.8-0.7-2.2c-0.4-0.5-1.3-0.7-2.5-0.7s-2.1,0.2-2.5,0.7
		s-0.7,1.2-0.7,2.2S21,35.5,21.5,36z M34,8v4h4V8V6h-4V8z M10,8v4h4V8V6h-4V8z"/>
</g>
<rect y="0" class="st0" width="48" height="48"/>
</svg>
