<?xml version="1.0" encoding="utf-8"?>
<!-- Generator: Adobe Illustrator 22.0.1, SVG Export Plug-In . SVG Version: 6.00 Build 0)  -->
<svg version="1.1" id="circle_x5F_crossed_x5F_small"
	 xmlns="http://www.w3.org/2000/svg" xmlns:xlink="http://www.w3.org/1999/xlink" x="0px" y="0px" viewBox="0 0 48 48"
	 style="enable-background:new 0 0 48 48;" xml:space="preserve">
<style type="text/css">
	.st0{fill:none;}
</style>
<g>
	<path class="st0" d="M30.9,14.2C29,12.8,26.6,12,24,12c-6.6,0-12,5.4-12,12c0,2.6,0.8,5,2.2,6.9L30.9,14.2z"/>
	<path class="st0" d="M17.1,33.8c2,1.4,4.4,2.2,6.9,2.2c6.6,0,12-5.4,12-12c0-2.6-0.8-5-2.2-6.9L17.1,33.8z"/>
	<path d="M24,8C15.2,8,8,15.2,8,24s7.2,16,16,16s16-7.2,16-16S32.8,8,24,8z M24,12c2.6,0,5,0.8,6.9,2.2L14.2,30.9
		C12.8,29,12,26.6,12,24C12,17.4,17.4,12,24,12z M24,36c-2.6,0-5-0.8-6.9-2.2l16.7-16.7c1.4,2,2.2,4.4,2.2,6.9
		C36,30.6,30.6,36,24,36z"/>
</g>
<rect y="0" class="st0" width="48" height="48"/>
</svg>
