<?xml version="1.0" encoding="utf-8"?>
<!-- Generator: Adobe Illustrator 22.0.1, SVG Export Plug-In . SVG Version: 6.00 Build 0)  -->
<svg version="1.1" id="zeiger" xmlns="http://www.w3.org/2000/svg" xmlns:xlink="http://www.w3.org/1999/xlink" x="0px" y="0px"
	 viewBox="0 0 48 48" style="enable-background:new 0 0 48 48;" xml:space="preserve">
<style type="text/css">
	.st0{fill:none;}
</style>
<path d="M35.3,12.7C32.2,9.6,28.1,8,24,8s-8.2,1.6-11.3,4.7c-6.2,6.2-6.2,16.4,0,22.6C15.8,38.4,19.9,40,24,40s8.2-1.6,11.3-4.7
	C41.6,29.1,41.6,18.9,35.3,12.7z M33.9,33.9C31.3,36.5,27.7,38,24,38s-7.3-1.5-9.9-4.1c-5.5-5.5-5.5-14.3,0-19.8
	c2.6-2.6,6.2-4.1,9.9-4.1s7.3,1.5,9.9,4.1C39.4,19.6,39.4,28.4,33.9,33.9z"/>
<path d="M31.7,30.3L31.7,30.3L25,23.6v-9.5c-0.3,0-0.7-0.1-1-0.1s-0.7,0-1,0.1V24c0,0.1,0,0.3,0.1,0.4s0.1,0.2,0.2,0.3l7,7l0,0
	C30.8,31.3,31.3,30.8,31.7,30.3z"/>
<rect y="0" class="st0" width="48" height="48"/>
</svg>
