<?xml version="1.0" encoding="utf-8"?>
<!-- Generator: Adobe Illustrator 22.0.1, SVG Export Plug-In . SVG Version: 6.00 Build 0)  -->
<svg version="1.1" id="circle" xmlns="http://www.w3.org/2000/svg" xmlns:xlink="http://www.w3.org/1999/xlink" x="0px" y="0px"
	 viewBox="0 0 48 48" style="enable-background:new 0 0 48 48;" xml:space="preserve">
<style type="text/css">
	.st0{fill:none;}
</style>
<path d="M31.7,16.7c-0.4-0.5-0.9-1-1.4-1.4L41.9,3.6v2.8L31.7,16.7z M5.9,39.6v2.8l11.7-11.7c-0.5-0.4-1-0.9-1.4-1.4L5.9,39.6z
	 M36.3,14.9l-1.5,1.5c3.8,2.2,6.8,5.1,8.4,6.7C40.4,26,32.7,33,23.9,33c-1.7,0-3.4-0.3-5-0.7l-1.6,1.6c2.1,0.7,4.3,1.1,6.6,1.1
	c12.2,0,22-12,22-12S42.1,18.4,36.3,14.9z M27.9,23c0-2.2-1.8-4-4-4s-4,1.8-4,4s1.8,4,4,4S27.9,25.2,27.9,23z M23.9,31
	c-4.4,0-8-3.6-8-8s3.6-8,8-8s8,3.6,8,8S28.3,31,23.9,31z M23.9,29c3.3,0,6-2.7,6-6s-2.7-6-6-6s-6,2.7-6,6S20.6,29,23.9,29z M11,31
	l1.5-1.5c-3.8-2.2-6.8-5.1-8.4-6.7c2.8-2.9,10.5-10,19.3-10c1.7,0,3.4,0.3,5,0.7L30,12c-2.1-0.7-4.3-1.1-6.6-1.1
	c-12.2,0-22,12-22,12S5.2,27.5,11,31z"/>
<rect y="0" class="st0" width="48" height="48"/>
</svg>
