<svg viewBox="0 0 48 48" width="1em" height="1em">
    <path d="M31.7 16.7c-.4-.5-.9-1-1.4-1.4L41.9 3.6v2.8L31.7 16.7zM5.9 39.6v2.8l11.7-11.7c-.5-.4-1-.9-1.4-1.4L5.9 39.6zm30.4-24.7l-1.5 1.5c3.8 2.2 6.8 5.1 8.4 6.7C40.4 26 32.7 33 23.9 33c-1.7 0-3.4-.3-5-.7l-1.6 1.6c2.1.7 4.3 1.1 6.6 1.1 12.2 0 22-12 22-12s-3.8-4.6-9.6-8.1zM27.9 23c0-2.2-1.8-4-4-4s-4 1.8-4 4 1.8 4 4 4 4-1.8 4-4zm-4 8c-4.4 0-8-3.6-8-8s3.6-8 8-8 8 3.6 8 8-3.6 8-8 8zm0-2c3.3 0 6-2.7 6-6s-2.7-6-6-6-6 2.7-6 6 2.7 6 6 6zM11 31l1.5-1.5c-3.8-2.2-6.8-5.1-8.4-6.7 2.8-2.9 10.5-10 19.3-10 1.7 0 3.4.3 5 .7L30 12c-2.1-.7-4.3-1.1-6.6-1.1-12.2 0-22 12-22 12S5.2 27.5 11 31z" />
</svg>
