<?xml version="1.0" encoding="utf-8"?>
<!-- Generator: Adobe Illustrator 22.0.1, SVG Export Plug-In . SVG Version: 6.00 Build 0)  -->
<svg version="1.1" id="information" xmlns="http://www.w3.org/2000/svg" xmlns:xlink="http://www.w3.org/1999/xlink" x="0px"
	 y="0px" viewBox="0 0 48 48" style="enable-background:new 0 0 48 48;" xml:space="preserve">
<style type="text/css">
	.st0{fill:none;}
</style>
<path d="M32.4,6H20.8c-1.1,0-2,0.9-2,2v7H9c-1.1,0-2,0.9-2,2v22.5c0,1.1,0.9,2,2,2h17.2c1.1,0,2-0.9,2-2v-7H38c1.1,0,2-0.9,2-2V13.3
	L32.4,6z M32.5,8.9l4.8,4.6h-4.8V8.9z M20.8,17.9l4.8,4.6h-4.8V17.9z M9,39.5V17h9.8v7.5h7.5v15H9z M28.2,30.5v-8.2l-7.5-7.2V8h9.8
	v7.5H38v15H28.2z"/>
<rect y="0" class="st0" width="48" height="48"/>
</svg>
