<svg xmlns="http://www.w3.org/2000/svg" viewBox="0 0 48.025 48"><path d="M43.5,28.3a8.921,8.921,0,0,0-.3-1.7A5.27,5.27,0,0,0,41,23.8a9.439,9.439,0,0,0-.9-.3,15.438,15.438,0,0,1-3,.4,14.469,14.469,0,0,1-5.1-1c-1.9,0-4.5-.1-8-.1h0c-10.8,0-13.1.3-13.1.3C11.6,21.6,13,19,13,19c.3-.5.6-.9.6-.9a3.849,3.849,0,0,1,1.1-.9c1.1-.5,4.8-.5,4.8-.5l4.5-.1h1.3a11.731,11.731,0,0,0-.5-1.1H19.4a32.075,32.075,0,0,0-4.6.5,2.856,2.856,0,0,0-1.7,1.1,13.275,13.275,0,0,0-1.5,2.3l-2,4-.4.1a1.973,1.973,0,0,1-.2-.7,10.416,10.416,0,0,0,.1-1.1s0-.4-.7-.4a8.12,8.12,0,0,0-1.7.2s-1,.2-.9.9c0,0,0,.9,1.2,1.1,0,0,.5.1,1.1.2v.1c-.4.1-.7.2-1,.3a5.251,5.251,0,0,0-2.2,2.8,8.921,8.921,0,0,0-.3,1.7,28.57,28.57,0,0,0-.1,5.3s0,.7.4,5.2a5.127,5.127,0,0,0,.5,2,1.434,1.434,0,0,0,1,.6h4.3s1,0,1-1.8H36.5c0,1.8,1,1.8,1,1.8h4.3a1.161,1.161,0,0,0,1-.6,8.035,8.035,0,0,0,.5-2c.4-4.5.4-5.2.4-5.2C43.7,31.3,43.5,29.7,43.5,28.3Zm-36.9,2v.6l.1,1.5c.1,1.2.2,2,.2,2,0,.5-.8.9-.8.9L6,34.7a17.309,17.309,0,0,1-.4-4.8,11.47,11.47,0,0,1,.3-2.1,1.312,1.312,0,0,1,1.2-.9,14.815,14.815,0,0,1,3.2.4,2.345,2.345,0,0,1,1.2.7,5.835,5.835,0,0,1,.8,1,16.493,16.493,0,0,1,.9,1.6c-.4,0-2.3-.2-2.3-.2s-2.7-.4-3.6-.5C6.6,29.8,6.6,30.3,6.6,30.3ZM30,38.7l-1.3-.9H19.3l-1.3.9H8.1V37.6a1.237,1.237,0,0,1,.4-.9,8.723,8.723,0,0,1,1.3-.6s.6-.2,1.5-.4H36.5a4.864,4.864,0,0,1,1.5.4,8.723,8.723,0,0,1,1.3.6.918.918,0,0,1,.4.9v1.1Zm12-4-.1.7s-.8-.4-.8-.9c0,0,.1-.7.2-2l.1-1.5v-.6s.1-.4-.7-.4c-.9,0-3.7.3-3.7.3s-1.8.2-2.3.2a16.493,16.493,0,0,1,.9-1.6,5.835,5.835,0,0,1,.8-1,2.345,2.345,0,0,1,1.2-.7,14.815,14.815,0,0,1,3.2-.4,1.312,1.312,0,0,1,1.2.9,5.192,5.192,0,0,1,.3,2.1C42.4,29.8,42.6,31.7,42,34.7Z"/><path d="M41.4,6.5s.1,3.9,0,5.1a5.713,5.713,0,0,1-4.3,5.5,6.3,6.3,0,0,1-4.2-5.5c-.2-2.7-.2-4.9-.2-4.9A11.748,11.748,0,0,1,41.4,6.5Z"/><path d="M44.8,3.2a10.9,10.9,0,1,0,0,15.4A10.909,10.909,0,0,0,44.8,3.2ZM43.3,17.1a8.75,8.75,0,1,1,0-12.3A8.775,8.775,0,0,1,43.3,17.1Z"/></svg>
