<svg xmlns="http://www.w3.org/2000/svg" viewBox="0 0 48 48"><defs><style>.a47581c4-1226-434b-8e4e-0d82ee48551e{fill:none;}</style></defs><title>customer_view</title><g id="fdc59d0b-9b5e-4098-b95d-337074049a1c" data-name="Ebene 2"><g id="aa3fa866-9f33-40c0-94e4-ddc0ad71611e" data-name="Ebene 1"><g id="93719358-4ff6-416b-af56-e0bf802b00c0" data-name="61b3c6d6-ac09-4218-9e40-bad727793fdc"><g id="826bfcc3-d5f9-4118-ae92-c2685104761e" data-name="01e6abc4-a24e-473d-a752-9f25f1e87c55"><rect class="a47581c4-1226-434b-8e4e-0d82ee48551e" width="48" height="48"/><rect x="14.182" y="39.273" width="19.636" height="2.182"/><path d="M31.652,21.818a4.6,4.6,0,0,1-3-1.159,22.847,22.847,0,0,0-7.909,2.523v2.727H42.562V23.182a21.977,21.977,0,0,0-7.91-2.523A4.6,4.6,0,0,1,31.652,21.818Z"/><path d="M31.652,5.455c-3.409,0-5.454,2.727-5.454,6.136,0,4.159,2.454,8.864,5.454,8.864s5.455-4.7,5.455-8.864C37.107,8.182,35.062,5.455,31.652,5.455Z"/><path d="M26.2,11.591c0-.115,0-.228.007-.342C26.2,11.363,26.2,11.476,26.2,11.591Z"/><path d="M40.364,28.091v6.818H7.636v-24h16.4a9.575,9.575,0,0,1,.391-2.182H7.636a2.137,2.137,0,0,0-2.181,2.09c0,.031,0,.061,0,.092v24a2.19,2.19,0,0,0,2.181,2.182H40.364a2.263,2.263,0,0,0,2.181-2.182V28.091Z"/></g></g></g></g></svg>