<svg viewBox="0 0 48 48" width="1em" height="1em">
    <path d="M14.182 39.273h19.636v2.182H14.182zM31.652 21.818a4.6 4.6 0 01-3-1.159 22.847 22.847 0 00-7.909 2.523v2.727h21.819v-2.727a21.977 21.977 0 00-7.91-2.523 4.6 4.6 0 01-3 1.159zM31.652 5.455c-3.409 0-5.454 2.727-5.454 6.136 0 4.159 2.454 8.864 5.454 8.864s5.455-4.7 5.455-8.864c0-3.409-2.045-6.136-5.455-6.136z" />
    <path d="M26.2 11.591c0-.115 0-.228.007-.342-.007.114-.007.227-.007.342z" />
    <path d="M40.364 28.091v6.818H7.636v-24h16.4a9.575 9.575 0 01.391-2.182H7.636a2.137 2.137 0 00-2.181 2.09v24.092a2.19 2.19 0 002.181 2.182h32.728a2.263 2.263 0 002.181-2.182v-6.818z" />
</svg>
