<?xml version="1.0" encoding="utf-8"?>
<!-- Generator: Adobe Illustrator 22.0.1, SVG Export Plug-In . SVG Version: 6.00 Build 0)  -->
<svg version="1.1" id="circle" xmlns="http://www.w3.org/2000/svg" xmlns:xlink="http://www.w3.org/1999/xlink" x="0px" y="0px"
	 viewBox="0 0 48 48" style="enable-background:new 0 0 48 48;" xml:space="preserve">
<style type="text/css">
	.st0{fill:none;}
</style>
<path d="M28,23c0-2.2-1.8-4-4-4s-4,1.8-4,4s1.8,4,4,4S28,25.2,28,23z M24,31c-4.4,0-8-3.6-8-8s3.6-8,8-8s8,3.6,8,8S28.4,31,24,31z
	 M24,29c3.3,0,6-2.7,6-6s-2.7-6-6-6s-6,2.7-6,6S20.7,29,24,29z M46,23.1c0,0-9.9-12-22-12S2,23,2,23s10.2,12.1,22,12.1
	S46,23.1,46,23.1z M34,23c0,5.5-4.5,10-10,10s-10-4.5-10-10s4.5-10,10-10S34,17.5,34,23z"/>
<rect class="st0" width="48" height="48"/>
</svg>
