<svg xmlns="http://www.w3.org/2000/svg" viewBox="0 0 48.025 48"><defs><style>.a81f1380-1723-4878-8577-e2653fdfb173{fill:none;}</style></defs><title>full_service_history</title><g id="890e304b-d8f3-43fa-8c39-c79055e7ecd2" data-name="Ebene 2"><g id="ca111432-237c-4695-a4d8-2638041c261d" data-name="information"><rect class="a81f1380-1723-4878-8577-e2653fdfb173" width="48" height="48"/><path d="M32.6,43.9H8.5V11H23.9a16.352,16.352,0,0,1,.2-2.2H6.3V46.1H34.8V23.9a7.945,7.945,0,0,1-2.2-.6Z"/><rect x="10.7" y="25.1" width="2.3" height="2.3"/><rect x="15.1" y="25.1" width="15.4" height="2.3"/><rect x="10.7" y="20.7" width="2.3" height="2.3"/><rect x="10.7" y="16.4" width="2.3" height="2.3"/><path d="M15.1,23H30.5v-.7a17.684,17.684,0,0,1-2.2-1.6H15.1Z"/><path d="M15.1,16.4v2.3H26.4a17.1,17.1,0,0,1-1.3-2.3Z"/><path d="M44.8,3.2a11.106,11.106,0,0,0-15.6,0A10.95,10.95,0,0,0,37,21.9a11.318,11.318,0,0,0,7.8-3.2A10.925,10.925,0,0,0,44.8,3.2Zm-1.6,14a8.692,8.692,0,0,1-12.4,0,8.812,8.812,0,0,1,0-12.4A8.768,8.768,0,0,1,43.2,17.2Z"/><path d="M31.5,8.2a2.689,2.689,0,0,0,2.7,2.7,2.92,2.92,0,0,0,.9-.2l5.4,5.4a1.131,1.131,0,0,0,1.6-1.6L36.7,9.1a1.613,1.613,0,0,0,.3-.9,2.689,2.689,0,0,0-2.7-2.7,2.92,2.92,0,0,0-.9.2L35,7.3a.608.608,0,0,1,0,.8l-.9.9a.608.608,0,0,1-.8,0L31.7,7.4a1.549,1.549,0,0,0-.2.8"/></g></g></svg>