<?xml version="1.0" encoding="utf-8"?>
<!-- Generator: Adobe Illustrator 22.0.1, SVG Export Plug-In . SVG Version: 6.00 Build 0)  -->
<svg version="1.1" id="Ebene_1" xmlns="http://www.w3.org/2000/svg" xmlns:xlink="http://www.w3.org/1999/xlink" x="0px" y="0px"
	 viewBox="0 0 48 48" style="enable-background:new 0 0 48 48;" xml:space="preserve">
<style type="text/css">
	.st0{fill:none;}
</style>
<g>
	<path d="M2.6,22.9C2.7,15.8,9.3,9.6,16.4,9.8c3.4-0.2,6.6,1.3,9.2,3.4c-1.1,1.3-2.3,2.5-3.5,3.6c-3.1-2.2-7.6-2.8-10.7-0.3
		C6.9,19.7,6.7,27,11,30.3c4.2,3.8,12.1,1.9,13.3-3.9c-2.6,0-5.3,0-7.9-0.1c0-1.6,0-3.1,0-4.7c4.4,0,8.8,0,13.2,0
		c0.3,3.7-0.2,7.6-2.5,10.6c-3.4,4.8-10.3,6.2-15.7,4.2C6,34.4,2.2,28.7,2.6,22.9L2.6,22.9z"/>
	<path d="M38.1,17.7c1.3,0,2.6,0,3.9,0c0,1.3,0,2.6,0,3.9c1.3,0,2.6,0,3.9,0c0,1.3,0,2.6,0,3.9c-1.3,0-2.6,0-3.9,0
		c0,1.3,0,2.6,0,3.9c-1.3,0-2.6,0-3.9,0c0-1.3,0-2.6,0-3.9c-1.3,0-2.6,0-3.9,0c0-1.3,0-2.6,0-3.9c1.3,0,2.6,0,3.9,0
		C38.1,20.3,38.1,19,38.1,17.7z"/>
</g>
<rect y="0" class="st0" width="48" height="48"/>
</svg>
