<?xml version="1.0" encoding="utf-8"?>
<!-- Generator: Adobe Illustrator 22.0.1, SVG Export Plug-In . SVG Version: 6.00 Build 0)  -->
<svg version="1.1" id="help" xmlns="http://www.w3.org/2000/svg" xmlns:xlink="http://www.w3.org/1999/xlink" x="0px" y="0px"
	 viewBox="0 0 48 48" style="enable-background:new 0 0 48 48;" xml:space="preserve">
<style type="text/css">
	.st0{fill:none;}
</style>
<path d="M24,8C15.2,8,8,15.2,8,24s7.2,16,16,16s16-7.2,16-16S32.8,8,24,8z M26.1,36H22v-4.6h4.1V36z M30.9,20.7
	c-0.3,0.7-0.6,1.3-1,1.8s-0.8,0.9-1.3,1.3c-0.4,0.4-0.9,0.7-1.3,1.1s-0.7,0.7-1,1.1s-0.4,0.8-0.4,1.4v0.8H22V27c0-1,0.2-1.9,0.7-2.5
	c0.5-0.7,1-1.3,1.6-1.9s1.1-1.1,1.6-1.7s0.7-1.2,0.7-2c0-1-0.3-1.7-0.8-2.1c-0.6-0.4-1.4-0.6-2.6-0.6h-4.3V12h4.4
	c1.4,0,2.5,0.2,3.5,0.5s1.8,0.7,2.4,1.3c0.6,0.5,1.1,1.2,1.4,1.9c0.3,0.8,0.4,1.6,0.4,2.5C31.3,19.2,31.2,20,30.9,20.7z"/>
<rect y="0" class="st0" width="48" height="48"/>
</svg>
