<?xml version="1.0" encoding="utf-8"?>
<!-- Generator: Adobe Illustrator 22.0.1, SVG Export Plug-In . SVG Version: 6.00 Build 0)  -->
<svg version="1.1" id="Ebene_1" xmlns="http://www.w3.org/2000/svg" xmlns:xlink="http://www.w3.org/1999/xlink" x="0px" y="0px"
	 viewBox="0 0 48 48" style="enable-background:new 0 0 48 48;" xml:space="preserve">
<style type="text/css">
	.st0{fill:none;}
</style>
<rect class="st0" width="48" height="48"/>
<g>
	<path d="M23.9,10.8c4.2,0,4.8,0,6.5,0.1c1.6,0.1,2.3,0.4,2.9,0.6c0.7,0.3,1.2,0.7,1.9,1.1c0.6,0.6,0.8,1,1.1,1.9
		c0.2,0.6,0.5,1.4,0.6,2.9c0.1,1.7,0.1,2.3,0.1,6.5s0,4.8-0.1,6.5c0,1.6-0.3,2.4-0.6,3c-0.3,0.8-0.7,1.2-1.1,1.9
		c-0.6,0.6-1,0.8-1.9,1.1c-0.6,0.2-1.4,0.5-2.9,0.6C28.7,37,28.1,37,23.9,37s-4.8,0-6.5-0.1c-1.5,0-2.4-0.3-2.9-0.6
		c-0.7-0.3-1.2-0.7-1.9-1.1c-0.6-0.6-0.8-1-1.1-1.9c-0.3-0.6-0.6-1.4-0.7-2.9c-0.1-1.7-0.1-2.3-0.1-6.5s0-4.8,0.1-6.5
		c0.1-1.5,0.4-2.4,0.7-2.9c0.3-0.8,0.7-1.2,1.1-1.9c0.6-0.6,1-0.8,1.9-1.1c0.6-0.2,1.4-0.5,2.9-0.6C19.1,10.9,19.7,10.8,23.9,10.8
		 M23.9,8c-4.3,0-4.9,0-6.5,0.1s-2.8,0.4-3.9,0.8c-1,0.5-2,0.9-2.8,1.9c-0.8,0.8-1.4,1.8-1.9,2.8c-0.4,0.9-0.7,2.3-0.7,3.9
		c0,1.6,0,2.2,0,6.5s0,4.9,0.1,6.6c0.1,1.7,0.4,2.8,0.7,3.9c0.5,1,0.9,2,1.9,2.8c0.8,0.8,1.8,1.4,2.8,1.9c0.9,0.4,2.2,0.7,3.9,0.8
		C19.1,40,19.7,40,24,40s4.9,0,6.5-0.1c1.7-0.1,2.8-0.4,3.9-0.8c1-0.5,2-0.9,2.8-1.9c0.8-0.8,1.4-1.8,1.9-2.8
		c0.4-0.9,0.7-2.3,0.7-3.9C40,28.8,40,28.3,40,24s0-4.9-0.1-6.6c-0.1-1.7-0.4-2.8-0.7-3.9c-0.5-1-0.9-2-1.9-2.8
		c-0.8-0.8-1.8-1.4-2.8-1.9c-0.9-0.4-2.2-0.7-3.9-0.8C28.8,8,28.2,8,23.9,8L23.9,8z"/>
	<path d="M23.9,15.8c-4.5,0-8.1,3.7-8.1,8.2s3.6,8.2,8.1,8.2S32,28.5,32,24S28.4,15.8,23.9,15.8z M23.9,29.3c-2.9,0-5.3-2.3-5.3-5.3
		s2.3-5.3,5.3-5.3s5.3,2.3,5.3,5.3S26.8,29.3,23.9,29.3z"/>
	<ellipse cx="32.4" cy="15.4" rx="2" ry="2"/>
</g>
</svg>
