<?xml version="1.0" encoding="utf-8"?>
<!-- Generator: Adobe Illustrator 22.0.1, SVG Export Plug-In . SVG Version: 6.00 Build 0)  -->
<svg version="1.1" id="restart" xmlns="http://www.w3.org/2000/svg" xmlns:xlink="http://www.w3.org/1999/xlink" x="0px" y="0px"
	 viewBox="0 0 48 48" style="enable-background:new 0 0 48 48;" xml:space="preserve">
<style type="text/css">
	.st0{fill:none;}
</style>
<path d="M35.3,35.3c-1.7,1.7-3.7,2.9-5.9,3.7c-1.7,0.6-3.5,1-5.4,1c-8.8,0-16-7.2-16-16H3l6-6l6,6h-5c0,7.7,6.3,14,14,14
	c1,0,1.9-0.1,2.8-0.3c2.7-0.6,5.2-1.9,7.1-3.8L35.3,35.3L35.3,35.3L35.3,35.3z M40,24c0-8.8-7.2-16-16-16l0,0
	c-4.4,0-8.4,1.8-11.3,4.7l1.4,1.4c2.5-2.5,6-4.1,9.9-4.1c7.7,0,14,6.3,14,14h-5l6,6l6-6H40z"/>
<rect y="0" class="st0" width="48" height="48"/>
</svg>
