<?xml version="1.0" encoding="utf-8"?>
<!-- Generator: Adobe Illustrator 22.0.1, SVG Export Plug-In . SVG Version: 6.00 Build 0)  -->
<svg version="1.1" id="magnify_x5F_glass" xmlns="http://www.w3.org/2000/svg" xmlns:xlink="http://www.w3.org/1999/xlink" x="0px"
	 y="0px" viewBox="0 0 48 48" style="enable-background:new 0 0 48 48;" xml:space="preserve">
<style type="text/css">
	.st0{fill:none;}
</style>
<path d="M33,2c-7.2,0-13,5.8-13,13c0,2.9,0.9,5.5,2.5,7.7L6.6,38.6l2.8,2.8l15.9-15.9c2.1,1.6,4.8,2.5,7.7,2.5c7.2,0,13-5.8,13-13
	S40.2,2,33,2z M33,26c-6.1,0-11-4.9-11-11S26.9,4,33,4s11,4.9,11,11S39.1,26,33,26z"/>
<rect y="0" class="st0" width="48" height="48"/>
</svg>
