<?xml version="1.0" encoding="utf-8"?>
<!-- Generator: Adobe Illustrator 22.0.1, SVG Export Plug-In . SVG Version: 6.00 Build 0)  -->
<svg version="1.1" id="Ebene_1" xmlns="http://www.w3.org/2000/svg" xmlns:xlink="http://www.w3.org/1999/xlink" x="0px" y="0px"
	 viewBox="0 0 48 48" style="enable-background:new 0 0 48 48;" xml:space="preserve">
<style type="text/css">
	.st0{fill:none;}
</style>
<g>
	<path d="M23.9,10.4c-2.7,0-5.1-2.5-5.1-5.3c0-2.7,2.5-5.1,5.1-5.1s5.3,2.5,5.3,5.1C29.3,8,26.8,10.4,23.9,10.4z"/>
	<path d="M23.9,29.3c-2.7,0-5.1-2.5-5.1-5.3s2.5-5.1,5.1-5.1s5.3,2.5,5.3,5.1S26.8,29.3,23.9,29.3z"/>
	<path d="M23.9,48.1c-2.7,0-5.1-2.5-5.1-5.1c0-2.7,2.5-5.3,5.1-5.3s5.3,2.5,5.3,5.3S26.8,48.1,23.9,48.1z"/>
</g>
<rect class="st0" width="48" height="48"/>
</svg>
