<?xml version="1.0" encoding="utf-8"?>
<!-- Generator: Adobe Illustrator 22.0.1, SVG Export Plug-In . SVG Version: 6.00 Build 0)  -->
<svg version="1.1" id="bin" xmlns="http://www.w3.org/2000/svg" xmlns:xlink="http://www.w3.org/1999/xlink" x="0px" y="0px"
	 viewBox="0 0 48 48" style="enable-background:new 0 0 48 48;" xml:space="preserve">
<style type="text/css">
	.st0{fill:none;}
</style>
<g>
	<path d="M10.5,24c0,2.8-2.4,5.3-5.3,5.3s-5.3-2.4-5.3-5.3s2.4-5.3,5.3-5.3S10.5,21.2,10.5,24z"/>
	<path d="M29.1,24c0,2.8-2.4,5.3-5.3,5.3s-5.3-2.4-5.3-5.3s2.4-5.3,5.3-5.3C26.9,18.7,29.1,21.2,29.1,24z"/>
	<path d="M48,24c0,2.8-2.4,5.3-5.3,5.3c-2.8,0-5.3-2.4-5.3-5.3s2.4-5.3,5.3-5.3C45.8,18.7,48,21.2,48,24z"/>
</g>
<rect class="st0" width="48" height="48"/>
<rect class="st0" width="48" height="48"/>
</svg>
