<?xml version="1.0" encoding="utf-8"?>
<!-- Generator: Adobe Illustrator 22.0.1, SVG Export Plug-In . SVG Version: 6.00 Build 0)  -->
<svg version="1.1" id="Ebene_1" xmlns="http://www.w3.org/2000/svg" xmlns:xlink="http://www.w3.org/1999/xlink" x="0px" y="0px"
	 viewBox="0 0 48 48" style="enable-background:new 0 0 48 48;" xml:space="preserve">
<style type="text/css">
	.st0{fill:none;}
</style>
<title>Element 1</title>
<path d="M27.4,34H10V17.4l11.9,11.9c0.5,0.6,1.3,0.9,2.1,0.9c0.8,0,1.6-0.3,2.1-0.9L38,17.4v6.4c0.7,0,1.3,0.1,2,0.1V16
	c0-1.1-0.9-2-2-2H10c-1.1,0-2,0.9-2,2v18c0,1.1,0.9,2,2,2h17.5c0-0.5,0-1,0-1.6C27.4,34.3,27.4,34.2,27.4,34z M36.6,16L24.7,27.9
	c-0.4,0.4-1,0.4-1.4,0l0,0L11.4,16H36.6z"/>
<path d="M45,30c-0.2-0.9-0.7-1.8-1.4-2.5c-1.6-1.5-4-1.8-6.1-1.7c-2.1,0-4.6,0.2-6.2,1.8c-1.7,1.8-1.9,4.5-1.9,6.9
	c0,2.3,0.2,5,1.8,6.8c1.7,1.7,4.4,2,6.7,2H39v-2h-1c-1.6,0-3.6-0.1-4.9-1.3c-1.3-1.4-1.4-3.6-1.3-5.4c0-1.7,0-3.9,1.3-5.3
	c1.1-1.1,2.9-1.2,4.4-1.1c1.5,0,3.3,0,4.4,1.1c1.2,1.2,1.3,3.2,1.2,4.8c0,0.8,0,1.5-0.1,1.9c0,0.4-0.1,0.7-0.2,1.1
	c-0.1,0.2-0.2,0.4-0.3,0.5s-0.3,0.1-0.5,0.1s-0.4-0.1-0.6-0.3c-0.1-0.3-0.2-0.7-0.2-1V30H39v1c-0.2-0.4-0.5-0.7-0.9-0.9
	c-0.4-0.2-0.8-0.2-1.2-0.2c-0.5,0-1,0.1-1.5,0.2c-0.4,0.2-0.8,0.4-1.1,0.8c-0.8,1-0.9,2.5-0.8,3.7c0,1.2,0.1,2.7,0.8,3.7
	c0.6,0.8,1.6,1,2.5,1c0.5,0,1-0.1,1.5-0.3c0.5-0.3,0.8-0.7,0.9-1.3c0.5,1.7,2.6,1.9,4,1.4c2-0.7,2.2-3.4,2.2-5.2
	C45.4,32.6,45.3,31.3,45,30z M38.8,34.9c0,0.7,0,2.1-0.8,2.5c-0.2,0.1-0.4,0.1-0.6,0.1c-0.2,0-0.5,0-0.7-0.1c-0.9-0.4-0.8-2-0.8-2.8
	c0-0.5,0-0.9,0.1-1.4c0-0.3,0.1-0.6,0.2-0.8c0.1-0.2,0.3-0.3,0.5-0.4c0.2-0.1,0.4-0.1,0.7-0.1c0.2,0,0.4,0,0.7,0.1
	c0.2,0.1,0.3,0.2,0.5,0.4c0.1,0.3,0.2,0.5,0.2,0.8C38.8,33.8,38.8,34.4,38.8,34.9z"/>
<rect y="0" class="st0" width="48" height="48"/>
</svg>
