<?xml version="1.0" encoding="utf-8"?>
<!-- Generator: Adobe Illustrator 22.0.1, SVG Export Plug-In . SVG Version: 6.00 Build 0)  -->
<svg version="1.1" id="message_x5F_outline" xmlns="http://www.w3.org/2000/svg" xmlns:xlink="http://www.w3.org/1999/xlink"
	 x="0px" y="0px" viewBox="0 0 48 48" style="enable-background:new 0 0 48 48;" xml:space="preserve">
<style type="text/css">
	.st0{fill:none;}
</style>
<path d="M38,14H10c-1.1,0-2,0.9-2,2v18c0,1.1,0.9,2,2,2h28c1.1,0,2-0.9,2-2V16C40,14.9,39.1,14,38,14z M36.6,16L24.7,27.9
	c-0.4,0.4-1,0.4-1.4,0L11.4,16H36.6z M10,34V17.4l11.9,11.9c0.6,0.6,1.3,0.9,2.1,0.9s1.6-0.3,2.1-0.9L38,17.4V34H10z"/>
<rect y="0" class="st0" width="48" height="48"/>
</svg>
