<?xml version="1.0" encoding="utf-8"?>
<!-- Generator: Adobe Illustrator 22.0.1, SVG Export Plug-In . SVG Version: 6.00 Build 0)  -->
<svg version="1.1" id="update_x5F_save" xmlns="http://www.w3.org/2000/svg" xmlns:xlink="http://www.w3.org/1999/xlink" x="0px"
	 y="0px" viewBox="0 0 48 48" style="enable-background:new 0 0 48 48;" xml:space="preserve">
<style type="text/css">
	.st0{fill:none;}
</style>
<g>
	<path d="M24,40l-5.9-5.9l5.9-5.9V40z M13.8,30L24,19.8V8L14,18H4v12H13.8z M32,24c0,2.8-1.1,5.3-2.9,7.1l2.8,2.8
		c2.5-2.5,4.1-6,4.1-9.9c0-2.3-0.5-4.4-1.5-6.3l-3,3C31.8,21.8,32,22.9,32,24z M40.4,11.9l-2.9,2.9c1.6,2.7,2.6,5.8,2.6,9.2
		c0,5-2,9.5-5.3,12.7l2.8,2.8c4-4,6.5-9.5,6.5-15.5C44,19.5,42.7,15.4,40.4,11.9z M41.4,8h-2.8l-32,32h2.8L41.4,8z"/>
	<rect class="st0" width="48" height="48"/>
</g>
<rect y="0" class="st0" width="48" height="48"/>
</svg>
