<?xml version="1.0" encoding="utf-8"?>
<!-- Generator: Adobe Illustrator 22.0.1, SVG Export Plug-In . SVG Version: 6.00 Build 0)  -->
<svg version="1.1" id="navigation" xmlns="http://www.w3.org/2000/svg" xmlns:xlink="http://www.w3.org/1999/xlink" x="0px" y="0px"
	 viewBox="0 0 48 48" style="enable-background:new 0 0 48 48;" xml:space="preserve">
<style type="text/css">
	.st0{fill:none;}
</style>
<path d="M33,15c0-5-4-9-9-9s-9,4-9,9c0,7,9,17,9,17S33,22,33,15z M24,11c2.2,0,4,1.8,4,4s-1.8,4-4,4s-4-1.8-4-4S21.8,11,24,11z
	 M36,24l10,16H2l10-16h3.9c0.4,0.7,0.8,1.4,1.2,2h-3.9L5.6,38h36.8l-7.5-12H31c0.4-0.6,0.8-1.3,1.2-2H36z"/>
<rect y="0" class="st0" width="48" height="48"/>
</svg>
