<?xml version="1.0" encoding="utf-8"?>
<!-- Generator: Adobe Illustrator 22.0.1, SVG Export Plug-In . SVG Version: 6.00 Build 0)  -->
<svg version="1.1" id="information" xmlns="http://www.w3.org/2000/svg" xmlns:xlink="http://www.w3.org/1999/xlink" x="0px"
	 y="0px" viewBox="0 0 48 48" style="enable-background:new 0 0 48 48;" xml:space="preserve">
<style type="text/css">
	.st0{fill:none;}
</style>
<g>
	<g>
		<path d="M42.3,5.9c-2-2-4.5-2.9-7.1-2.9s-5.1,1-7.1,2.9c-3.9,3.9-3.9,10.3,0,14.2c2,2,4.5,2.9,7.1,2.9c2.6,0,5.1-1,7.1-2.9
			C46.2,16.2,46.2,9.9,42.3,5.9z M40.9,18.7c-1.5,1.5-3.5,2.4-5.7,2.4c-2.1,0-4.2-0.8-5.7-2.4c-3.1-3.1-3.1-8.2,0-11.4
			C31,5.8,33,5,35.2,5c2.1,0,4.2,0.8,5.7,2.4C44,10.5,44,15.6,40.9,18.7z"/>
		<polygon points="33.2,17.1 29.2,13.1 32.2,13.1 33.2,14.1 37.2,10 40.3,10 		"/>
		<path d="M32.2,24.7c0,0,0.2,4.9-2.1,9.4l3.4,1.6c-2.7,4.5-7.6,7.5-13.2,7.5c-8,0-14.6-6.1-15.3-14h4.7v-2H5c0.1-2,0.5-3.8,1.3-5.5
			l4,2.3l1-1.7l-4-2.3c1-1.7,2.4-3.2,4-4.4l2.7,3.6l1.6-1.2L13,14.5c1.9-1,4-1.7,6.2-1.9V17h2v-4.4c0.7,0,1.3,0.1,2,0.2
			c0-0.7,0.1-1.4,0.2-2c-1-0.2-2-0.3-3-0.3C10.8,10.5,3,18.3,3,27.9s7.8,17.3,17.3,17.3c9.6,0,17.3-7.8,17.3-17.3c0-1-0.1-2-0.3-3
			C34.9,25.5,32.2,24.7,32.2,24.7z"/>
		<path d="M22.4,33L22,31.4c0.4-0.3,0.6-0.7,0.8-1.1c0.5-1.4-0.2-2.9-1.5-3.4c-0.2-0.1-0.4-0.1-0.6-0.1l-3-11l-2,0.5l3,11
			c-0.4,0.3-0.7,0.7-0.8,1.1c-0.5,1.4,0.2,2.9,1.5,3.4c0.2,0.1,0.4,0.1,0.6,0.2l0.4,1.6L22.4,33z"/>
	</g>
</g>
<rect y="0" class="st0" width="48" height="48"/>
</svg>
