<?xml version="1.0" encoding="utf-8"?>
<!-- Generator: Adobe Illustrator 22.0.1, SVG Export Plug-In . SVG Version: 6.00 Build 0)  -->
<svg version="1.1" id="information" xmlns="http://www.w3.org/2000/svg" xmlns:xlink="http://www.w3.org/1999/xlink" x="0px"
	 y="0px" viewBox="0 0 48 48" style="enable-background:new 0 0 48 48;" xml:space="preserve">
<style type="text/css">
	.st0{fill:none;}
</style>
<g>
	<g>
		<polygon points="16.9,12 17.9,8 21.9,7 17.9,6 16.9,2 15.9,6 12,7 15.9,8 		"/>
		<polygon points="11,27.9 13,20.9 19.9,18.9 13,16.9 11,10 9,16.9 2,18.9 9,20.9 		"/>
		<polygon points="22.3,14.6 22.9,16.9 23.6,14.6 25.9,14 23.6,13.3 22.9,11 22.3,13.3 19.9,14 		"/>
		<path d="M43.5,35.1C37,32.6,30,29.6,24.1,29.6c-2.1,0-5.4,2.2-8.5,4c-10.5,1-13,4.4-13.5,6c0,1.4,0.4,2.5,1,3
			c0.2,0.2,0.6,0.5,0.9,0.5c1.2,0.1,3.8,0.3,3.8,0.3c0.8,1.3,2.2,2.1,3.8,2.1s2.9-0.8,3.7-2h1.3h16.6c0.8,1.2,2.2,2,3.7,2
			c1.9,0,3.5-1.2,4.1-2.8l3.8-0.7c0.4-0.5,0.9-1.1,0.9-2c0-0.5,0-1.5,0-1.5C46,37.6,44,35.3,43.5,35.1z M44,39.9
			c0,0.1-0.1,0.3-0.1,0.4l-3,0.6l-1.1,0.2l-0.4,1C38.9,43,38,43.6,37,43.6c-0.8,0-1.6-0.4-2.1-1.1l-0.6-0.9h-1.1H16.7h-1.3h-1.1
			l-0.6,0.9c-0.5,0.7-1.2,1.1-2.1,1.1s-1.6-0.4-2.1-1.2L9,41.6l-1-0.1c0,0-2.2-0.2-3.5-0.3l0,0C4.4,41,4.2,40.6,4.2,40
			c0.4-0.8,2.5-3.5,11.6-4.3h0.4l0.4-0.2c0.5-0.3,1.1-0.6,1.6-0.9c2-1.2,4.7-2.8,5.9-2.8c5,0,10.9,2.3,16.7,4.6
			c0.6,0.2,1.2,0.5,1.8,0.7c0.4,0.4,1.2,1.4,1.4,1.9C44,39.2,44,39.7,44,39.9z"/>
		<path d="M28.6,27c1.9,1.9,4.5,2.9,7,2.9s5.1-1,7-2.9c3.9-3.9,3.9-10.2,0-14.1c-1.9-1.9-4.5-2.9-7-2.9s-5.1,1-7,2.9
			C24.7,16.8,24.7,23.1,28.6,27z M30,14.3c1.5-1.5,3.5-2.3,5.6-2.3s4.1,0.8,5.6,2.3c3.1,3.1,3.1,8.2,0,11.3
			c-1.5,1.5-3.5,2.3-5.6,2.3s-4.1-0.8-5.6-2.3C26.9,22.5,26.9,17.4,30,14.3z"/>
		<path d="M41.2,30.5c-0.7,0.4-1.5,0.7-2.3,0.9c0.5,0.2,0.9,0.3,1.4,0.5c0.6,0.2,2.5,1,3.1,1.2c1.3,0.5,2.7,2.5,2.7,2.5v-2.4
			c0,0-1.2-1.3-2.5-1.8C42.8,31.1,42,30.8,41.2,30.5z"/>
		<path d="M23.6,25.7c-2.1,0-5.4,2.2-8.5,4c-8.5,0.8-11.8,3.3-13,5v2c1.4-1.4,4-4.1,13.1-5h0.4l0.4-0.2c0.5-0.3,1.1-0.6,1.6-0.9
			c2-1.2,4.7-2.8,5.9-2.8c1,0,2,0.1,3.1,0.2c-0.6-0.7-1.1-1.4-1.5-2.2C24.6,25.7,24.1,25.7,23.6,25.7z"/>
		<polygon points="33.7,23.9 40.7,16.9 37.7,16.9 33.6,21 32.7,19.9 29.7,19.9 		"/>
	</g>
</g>
<rect y="0" class="st0" width="48" height="48"/>
</svg>
