<?xml version="1.0" encoding="utf-8"?>
<!-- Generator: Adobe Illustrator 22.0.1, SVG Export Plug-In . SVG Version: 6.00 Build 0)  -->
<svg version="1.1" id="cancel" xmlns="http://www.w3.org/2000/svg" xmlns:xlink="http://www.w3.org/1999/xlink" x="0px" y="0px"
	 viewBox="0 0 48 48" style="enable-background:new 0 0 48 48;" xml:space="preserve">
<style type="text/css">
	.st0{fill:none;}
</style>
<g>
	<path d="M24.4,34.3c4.1,0.5,8,1.8,11.6,3.7v4H4v-4c3.5-1.9,7.4-3.2,11.6-3.7c1.3,1.1,2.8,1.7,4.4,1.7S23.1,35.4,24.4,34.3z M20,12
		c-5,0-8,4-8,9c0,6.1,3.6,13,8,13s8-6.9,8-13C28,16,25,12,20,12z M38,2h-2v6h-6v2h6v6h2v-6h6V8h-6V2z"/>
	<rect class="st0" width="48" height="48"/>
</g>
<rect y="0" class="st0" width="48" height="48"/>
</svg>
