<?xml version="1.0" encoding="utf-8"?>
<!-- Generator: Adobe Illustrator 22.0.1, SVG Export Plug-In . SVG Version: 6.00 Build 0)  -->
<svg version="1.1" id="person_x5F_outline" xmlns="http://www.w3.org/2000/svg" xmlns:xlink="http://www.w3.org/1999/xlink" x="0px"
	 y="0px" viewBox="0 0 48 48" style="enable-background:new 0 0 48 48;" xml:space="preserve">
<style type="text/css">
	.st0{fill:none;}
</style>
<g>
	<path d="M29,32.4c3.2,0.5,6.2,1.4,9,2.8V38H10v-2.8c2.9-1.4,5.9-2.3,9-2.8c1.6,1.1,3.2,1.6,5,1.6S27.4,33.5,29,32.4 M28.4,30.3
		C27.1,31.4,25.6,32,24,32s-3.1-0.6-4.4-1.7c-4.1,0.5-8,1.8-11.6,3.7v6h32v-6C36.5,32.1,32.6,30.8,28.4,30.3L28.4,30.3z"/>
	<path d="M24,10c4.1,0,6,3.5,6,7c0,5.3-3.1,11-6,11s-6-5.7-6-11C18,13.5,19.9,10,24,10 M24,8c-5,0-8,4-8,9c0,6.1,3.6,13,8,13
		s8-6.9,8-13C32,12,29,8,24,8L24,8z"/>
</g>
<rect class="st0" width="48" height="48"/>
</svg>
