<?xml version="1.0" encoding="utf-8"?>
<!-- Generator: Adobe Illustrator 22.0.1, SVG Export Plug-In . SVG Version: 6.00 Build 0)  -->
<svg version="1.1" id="phone_x5F_receiver" xmlns="http://www.w3.org/2000/svg" xmlns:xlink="http://www.w3.org/1999/xlink" x="0px"
	 y="0px" viewBox="0 0 48 48" style="enable-background:new 0 0 48 48;" xml:space="preserve">
<style type="text/css">
	.st0{fill:none;}
</style>
<path d="M30.2,33.8L28,36c-0.7,0.7-1.7,0.8-2.5,0.3C20,32.7,15.3,28,11.7,22.4c-0.5-0.8-0.4-1.8,0.3-2.5l2.2-2.2
	c0.4-0.4,0.4-0.9,0.1-1.3L8.8,9.7c-0.4-0.5-1.1-0.5-1.5,0C7,10,6.8,10.3,6.6,10.6c-1.4,1.8-2.6,3.9-3.3,6.2
	c-0.5,1.4-0.4,2.9,0.2,4.2c4.5,10.6,13,19.2,23.6,23.6c1.3,0.6,2.8,0.7,4.2,0.2c2.2-0.8,4.3-1.9,6.2-3.3c0.3-0.2,0.6-0.5,0.9-0.7
	c0.5-0.4,0.4-1.1,0-1.5l-6.7-5.5C31.1,33.4,30.6,33.4,30.2,33.8z"/>
<rect y="0" class="st0" width="48" height="48"/>
</svg>
