<?xml version="1.0" encoding="utf-8"?>
<!-- Generator: Adobe Illustrator 22.0.1, SVG Export Plug-In . SVG Version: 6.00 Build 0)  -->
<svg version="1.1" id="picture" xmlns="http://www.w3.org/2000/svg" xmlns:xlink="http://www.w3.org/1999/xlink" x="0px" y="0px"
	 viewBox="0 0 48 48" style="enable-background:new 0 0 48 48;" xml:space="preserve">
<style type="text/css">
	.st0{fill:none;}
</style>
<polygon points="34,36 14,16 6,24 6,36 "/>
<polygon points="29.5,28.5 37,36 42,36 42,32 34,24 "/>
<circle cx="37" cy="17" r="3"/>
<path d="M44,40c1.1,0,2-0.9,2-2V10c0-1.1-0.9-2-2-2H4c-1.1,0-2,0.9-2,2v28c0,1.1,0.9,2,2,2H44z M4,10h40v28h-8H4V10z"/>
<rect y="0" class="st0" width="48" height="48"/>
</svg>
