<?xml version="1.0" encoding="utf-8"?>
<!-- Generator: Adobe Illustrator 22.0.1, SVG Export Plug-In . SVG Version: 6.00 Build 0)  -->
<svg version="1.1" id="picture_x5F_import" xmlns="http://www.w3.org/2000/svg" xmlns:xlink="http://www.w3.org/1999/xlink" x="0px"
	 y="0px" viewBox="0 0 48 48" style="enable-background:new 0 0 48 48;" xml:space="preserve">
<style type="text/css">
	.st0{fill:none;}
</style>
<path d="M14,16l20,20H6V24L14,16z M42,36v-4l-8-8l-4.5,4.5L37,36H42z M44,38h-8H4V10h24V8H4c-1.1,0-2,0.9-2,2v28c0,1.1,0.9,2,2,2h40
	c1.1,0,2-0.9,2-2V18h-2V38z M38,12l4-4h-3V2h-2v6h-3L38,12z M42,4v2h2v4v4H32V6h2V4h-4v12h16v-6V4H42z"/>
<rect y="0" class="st0" width="48" height="48"/>
</svg>
