<?xml version="1.0" encoding="utf-8"?>
<!-- Generator: Adobe Illustrator 22.0.1, SVG Export Plug-In . SVG Version: 6.00 Build 0)  -->
<svg version="1.1" id="Ebene_1" xmlns="http://www.w3.org/2000/svg" xmlns:xlink="http://www.w3.org/1999/xlink" x="0px" y="0px"
	 viewBox="0 0 48 48" style="enable-background:new 0 0 48 48;" xml:space="preserve">
<style type="text/css">
	.st0{clip-path:url(#SVGID_2_);}
	.st1{fill:none;}
</style>
<g>
	<g>
		<defs>
			<rect id="SVGID_1_" width="48" height="48"/>
		</defs>
		<clipPath id="SVGID_2_">
			<use xlink:href="#SVGID_1_"  style="overflow:visible;"/>
		</clipPath>
		<path class="st0" d="M7.7,18.1c0,2.1,0.4,4,1.3,5.7c0.8,1.7,2.1,2.8,3.7,3.5c0.6,0.2,1,0.1,1.2-0.6c0-0.2,0.1-0.5,0.2-1
			s0.2-0.8,0.3-0.9c0.1-0.5,0-0.9-0.4-1.3c-1.1-1.2-1.6-2.8-1.6-4.8c0-3.2,1.1-5.9,3.3-8.2s5.1-3.4,8.6-3.4c3.2,0,5.7,0.9,7.5,2.6
			s2.7,4,2.7,6.7c0,3.6-0.7,6.6-2.2,9c-1.4,2.5-3.3,3.7-5.5,3.7c-1.3,0-2.4-0.5-3.1-1.4c-0.8-0.9-1-2-0.7-3.2c0.2-0.8,0.5-1.7,0.8-3
			c0.4-1.2,0.7-2.3,0.9-3.2s0.4-1.7,0.4-2.4c0-1-0.3-1.8-0.8-2.5s-1.4-1-2.4-1c-1.3,0-2.4,0.6-3.3,1.8s-1.4,2.7-1.4,4.4
			c0,0.7,0.1,1.4,0.2,2c0.1,0.7,0.3,1.1,0.5,1.4l0.2,0.5c-1.8,7.5-2.9,11.9-3.2,13.1c-0.6,2.4-0.6,5.4,0,9.2c0,0.1,0.1,0.2,0.2,0.2
			c0.1,0,0.2,0,0.4,0c2.2-3,3.7-5.7,4.3-8c1.2-4.1,1.8-6.3,1.8-6.6c0.4,0.8,1.2,1.5,2.3,2.1c1.1,0.6,2.3,0.9,3.6,0.9
			c3.8,0,6.9-1.6,9.4-4.7c2.4-3.1,3.7-7.1,3.7-11.9c0-3.7-1.4-6.9-4.3-9.7S29.5,3,25,3c-5.4,0-9.6,1.6-12.7,4.7S7.7,14.3,7.7,18.1
			L7.7,18.1z"/>
	</g>
</g>
<rect y="0" class="st1" width="48" height="48"/>
</svg>
