<?xml version="1.0" encoding="utf-8"?>
<!-- Generator: Adobe Illustrator 22.0.1, SVG Export Plug-In . SVG Version: 6.00 Build 0)  -->
<svg version="1.1" id="information" xmlns="http://www.w3.org/2000/svg" xmlns:xlink="http://www.w3.org/1999/xlink" x="0px"
	 y="0px" viewBox="0 0 48 48" style="enable-background:new 0 0 48 48;" xml:space="preserve">
<style type="text/css">
	.st0{fill:none;}
</style>
<g>
	<g>
		<g id="XMLID_1_">
			<g>
				<path d="M38.1,10c0,0,0.1,3.6,0,4.7s-0.4,4-4,5.1c0,0-3.6-1.1-3.8-5.1c-0.2-2.5-0.2-4.5-0.2-4.5S33.4,8.4,38.1,10z"/>
			</g>
		</g>
	</g>
	<g>
		<g>
			<path d="M34.2,26.1c-0.8,0-1.7-0.1-2.5-0.3c0,0.2-0.1,0.3-0.2,0.5c-0.3,0.4-0.8,0.7-1.3,0.6l-7.4-0.8c-0.3,0-0.6-0.1-0.8-0.3
				c-0.9-0.5-1.9-0.8-3-0.8s-2.1,0.3-3,0.8c-0.3,0.1-0.5,0.3-0.8,0.3L7.8,27c-0.5,0.1-1-0.2-1.3-0.6c-0.4-0.6-0.3-1.4,0.3-1.9
				c1.5-1.1,3.3-3.5,4.3-5.2l0.9-1.6c0.5-0.8,1.2-1.4,2-1.8c1.5-0.6,3.2-0.9,4.9-0.9c1.1,0,2.1,0.1,3.1,0.4c0-0.4-0.1-0.9-0.1-1.3
				c0-0.2,0-0.5,0-0.7c-1-0.2-2-0.3-3.1-0.3c-8.9,0-16,7.2-16,16c0,8.9,7.2,16,16,16c8.9,0,16-7.2,16-16c0-1-0.1-2-0.3-2.9
				C34.6,26.1,34.4,26.1,34.2,26.1z M12.6,41.5c-2.2-1.1-4-2.8-5.3-4.8c-0.2-0.3-0.3-0.6-0.3-1v-3.4c0-0.6,0.5-1.1,1.1-1l3.7,0.5
				c0.7,0.1,1.3,0.6,1.5,1.3c0.3,0.9,0.9,1.7,1.6,2.4c0.3,0.3,0.5,0.7,0.6,1.1l1.1,5.4C15.2,41.9,13.8,41.7,12.6,41.5z M15,31.1
				c0-2.2,1.8-4,4-4s4,1.8,4,4s-1.8,4-4,4S15,33.3,15,31.1z M31.1,35.7c0,0.4-0.1,0.8-0.3,1.1c-1.3,2-3.2,3.7-5.3,4.8
				c-1.1,0.2-2.5,0.3-4,0.5l1.1-5.4c0.1-0.4,0.3-0.8,0.6-1.1c0.7-0.7,1.2-1.5,1.6-2.4c0.2-0.7,0.8-1.2,1.5-1.3l3.7-0.5
				c0.6-0.1,1.1,0.4,1.1,1C31.1,32.4,31.1,35.7,31.1,35.7z"/>
			<path d="M41.3,6.9c-2-2-4.5-2.9-7.1-2.9s-5.1,1-7.1,2.9c-3.9,3.9-3.9,10.3,0,14.2c2,2,4.5,2.9,7.1,2.9s5.1-1,7.1-2.9
				C45.2,17.2,45.2,10.9,41.3,6.9z M39.9,19.7c-1.5,1.5-3.5,2.4-5.7,2.4c-2.1,0-4.2-0.8-5.7-2.4c-3.1-3.1-3.1-8.2,0-11.4
				C30,6.8,32,6,34.2,6c2.1,0,4.2,0.8,5.7,2.4C43,11.5,43,16.6,39.9,19.7z"/>
		</g>
	</g>
</g>
<rect y="0" class="st0" width="48" height="48"/>
</svg>
