<?xml version="1.0" encoding="utf-8"?>
<!-- Generator: Adobe Illustrator 22.0.1, SVG Export Plug-In . SVG Version: 6.00 Build 0)  -->
<svg version="1.1" id="information" xmlns="http://www.w3.org/2000/svg" xmlns:xlink="http://www.w3.org/1999/xlink" x="0px"
	 y="0px" viewBox="0 0 48 48" style="enable-background:new 0 0 48 48;" xml:space="preserve">
<style type="text/css">
	.st0{fill:none;}
</style>
<g>
	<g>
		<path d="M36.5,28c2.4,0,4.9-0.9,6.7-2.8c3.7-3.7,3.7-9.7,0-13.5C41.4,9.9,38.9,9,36.5,9s-4.9,0.9-6.7,2.8c-3.7,3.7-3.7,9.7,0,13.5
			C31.6,27.1,34.1,28,36.5,28z M31.1,13.1c1.4-1.4,3.3-2.2,5.4-2.2c2,0,3.9,0.8,5.4,2.2c3,3,3,7.8,0,10.8c-1.4,1.4-3.3,2.2-5.4,2.2
			c-2,0-3.9-0.8-5.4-2.2C28.1,20.9,28.1,16.1,31.1,13.1z"/>
		<path d="M33.1,17.4c-0.1,0.1-0.1,0.1-0.2,0.2c-0.1,0.1-0.2,0.1-0.3,0.2L32,18.2c-0.3,0.2-0.6,0.4-0.7,0.7
			c-0.2,0.2-0.2,0.5-0.2,0.9v0.5h3.1v-0.8H32c0-0.2,0.1-0.3,0.2-0.4c0.1-0.1,0.3-0.3,0.6-0.4l0.6-0.4c0.1-0.1,0.3-0.2,0.4-0.3
			c0.1-0.1,0.2-0.2,0.3-0.3c0.1-0.1,0.2-0.3,0.2-0.4c0-0.2,0.1-0.3,0.1-0.5s0-0.4-0.1-0.6s-0.2-0.3-0.3-0.5s-0.3-0.2-0.5-0.3
			s-0.5-0.1-0.8-0.1s-0.6,0-0.8,0.1s-0.4,0.2-0.5,0.3s-0.2,0.3-0.3,0.5C31,16.4,31,16.7,31,16.9h0.9c0-0.2,0-0.3,0.1-0.4
			c0-0.1,0.1-0.2,0.1-0.2c0.1-0.1,0.1-0.1,0.2-0.1c0.1,0,0.2,0,0.3,0c0.2,0,0.4,0,0.5,0.1s0.2,0.3,0.2,0.5c0,0.1,0,0.3-0.1,0.4
			C33.2,17.3,33.2,17.4,33.1,17.4z"/>
		<path d="M36.5,20.3h0.9v-1H38v-0.8h-0.6v-3.2h-1.3l-1.7,3.2v0.7h2.1V20.3z M35.3,18.5l1.2-2.4v2.4H35.3z"/>
		<path d="M39.9,18.2c0-0.2,0-0.4,0.1-0.5s0.2-0.1,0.4-0.1s0.3,0,0.4,0.1c0.1,0.1,0.1,0.3,0.1,0.5v2.1h0.9V18c0-0.4-0.1-0.7-0.3-1
			c-0.2-0.2-0.5-0.3-0.8-0.3c-0.4,0-0.7,0.1-0.8,0.4v-1.8H39v5h0.9V18.2z"/>
		<path d="M22.7,32.5h1.9l-3.8-3.8L17,32.5h1.9c0.1,4.6,4.6,5.7,6.7,5.7v-0.5C24.6,37.5,22.8,36.5,22.7,32.5z"/>
		<path d="M41.5,29c-0.1,0-0.1-0.1-0.2-0.1c-0.9,0.4-1.9,0.7-3,0.9c0.2,0.1,0.4,0.1,0.5,0.2c0.6,0.2,1.2,0.5,1.8,0.7
			C41,31,41.8,32,42,32.5c0,0.4,0,0.8,0,1c0,0.1-0.1,0.3-0.1,0.4L39,34.4l-1,0.2l-0.4,1c-0.4,0.9-1.2,1.5-2.2,1.5
			c-0.8,0-1.5-0.4-2-1.1l-0.6-0.8h-1h-6.5c0.2,1.4,2.2,1.9,2.2,1.9h4.3c0.8,1.1,2.1,1.9,3.6,1.9c1.8,0,3.3-1.1,4-2.7l3.7-0.7
			c0.4-0.4,0.8-1.1,0.9-1.9c0-0.4,0-1.4,0-1.4C43.9,31.4,41.9,29.1,41.5,29z"/>
		<path d="M25.3,28.6h-1.9l3.8,3.8l3.8-3.8h-1.9c-0.1-4.6-4.6-5.7-6.7-5.7v0.5C23.4,23.6,25.2,24.7,25.3,28.6z"/>
		<path d="M15.9,35.2h-1.3h-1L13,36c-0.4,0.7-1.2,1.1-2,1.1S9.4,36.7,9,36l-0.5-0.8L7.6,35c0,0-2.1-0.2-3.4-0.3l0,0
			c-0.1-0.1-0.2-0.5-0.3-1.1c0.4-0.8,2.4-3.3,11.1-4.1h0.4l0.4-0.2c0.5-0.3,1-0.6,1.5-0.9c1.7-1,4.1-2.4,5.3-2.6c0,0,0,0,0-0.1
			c-0.1-0.3-0.7-1.4-1.8-1.4c-1.7,0.8-4,2.2-6,3.3c-10,1-12.4,4.2-12.8,5.7c0,1.3,0.4,2.4,0.9,2.9c0.2,0.2,0.6,0.5,0.8,0.5
			C4.9,36.8,7.3,37,7.3,37c0.8,1.2,2.1,2,3.6,2s2.8-0.8,3.6-1.9h1.3h2.8c-0.5-0.5-0.8-1.2-1.1-1.9C17.5,35.2,15.9,35.2,15.9,35.2z"
			/>
	</g>
</g>
<rect y="0" class="st0" width="48" height="48"/>
</svg>
