<svg xmlns="http://www.w3.org/2000/svg" viewBox="0 0 48.025 48"><path d="M16.2,7.5a3.727,3.727,0,0,0-3.5,3.3h.4l3.8,2.6H15.1l-2.2-1.5h-.3v3.3h.5l3.8,2.6H15.1l-2.2-1.5h-.3v3.3h.5l3.8,2.6H15.1l-2.2-1.5h-.3v3.2h.5l3.8,2.6H15.1L12.8,25h-.3v3.3H13l3.8,2.6H15l-2.2-1.5h-.3v3.3H13l3.8,2.6H15l-2.2-1.5h-.3v3.4H13l3.8,2.6H15l-2.2-1.5h-.3v3.3H13l3.8,2.6H15l-2.2-1.5h-.2A3.81,3.81,0,0,0,16.1,46H18V7.5Z"/><polygon points="34.9 12 33.9 10.9 30.6 10.9 35 15.2 42.6 7.6 39.4 7.6 34.9 12"/><path d="M44.8,3.2a10.9,10.9,0,1,0,0,15.4A10.909,10.909,0,0,0,44.8,3.2ZM43.3,17a8.75,8.75,0,1,1,0-12.3A8.775,8.775,0,0,1,43.3,17Z"/><path d="M24.6,14.7V45.9h2.2V19A12.552,12.552,0,0,1,24.6,14.7Z"/><path d="M34.3,23.9v-.2a11.621,11.621,0,0,1-3.8-1.5l-.3-.2a14.629,14.629,0,0,1-1.3-.9V45.9h1.8a3.727,3.727,0,0,0,3.5-3.3H34L31.8,44H30l3.8-2.6h.5V38.1H34l-2.2,1.5H30L33.8,37h.5V33.6H34l-2.2,1.5H30l3.8-2.6h.5V29.2H34l-2.2,1.5H30l3.8-2.6h.5V25H34l-2.2,1.5H30l3.8-2.6Z"/></svg>
