<svg viewBox="0 0 48.025 48" width="1em" height="1em">
    <path d="M16.2 7.5a3.727 3.727 0 00-3.5 3.3h.4l3.8 2.6h-1.8l-2.2-1.5h-.3v3.3h.5l3.8 2.6h-1.8l-2.2-1.5h-.3v3.3h.5l3.8 2.6h-1.8l-2.2-1.5h-.3v3.2h.5l3.8 2.6h-1.8L12.8 25h-.3v3.3h.5l3.8 2.6H15l-2.2-1.5h-.3v3.3h.5l3.8 2.6H15l-2.2-1.5h-.3v3.4h.5l3.8 2.6H15l-2.2-1.5h-.3v3.3h.5l3.8 2.6H15l-2.2-1.5h-.2a3.81 3.81 0 003.5 3.3H18V7.5zM34.9 12l-1-1.1h-3.3l4.4 4.3 7.6-7.6h-3.2L34.9 12z" />
    <path d="M44.8 3.2a10.9 10.9 0 100 15.4 10.909 10.909 0 000-15.4zM43.3 17a8.75 8.75 0 110-12.3 8.775 8.775 0 010 12.3zM24.6 14.7v31.2h2.2V19a12.552 12.552 0 01-2.2-4.3zM34.3 23.9v-.2a11.621 11.621 0 01-3.8-1.5l-.3-.2a14.629 14.629 0 01-1.3-.9v24.8h1.8a3.727 3.727 0 003.5-3.3H34L31.8 44H30l3.8-2.6h.5v-3.3H34l-2.2 1.5H30l3.8-2.6h.5v-3.4H34l-2.2 1.5H30l3.8-2.6h.5v-3.3H34l-2.2 1.5H30l3.8-2.6h.5V25H34l-2.2 1.5H30l3.8-2.6z" />
</svg>
