<svg xmlns="http://www.w3.org/2000/svg" viewBox="0 0 48 48"><path d="M19.6,29.2c.1.9.2,1.7.3,2.3a5.226,5.226,0,0,0,.7,1.5,2.871,2.871,0,0,0,1.3.8A6.19,6.19,0,0,0,24,34a5.145,5.145,0,0,0,3.2-.8,3.616,3.616,0,0,0,.9-2.8,5.212,5.212,0,0,0-.2-1.4,2.286,2.286,0,0,0-.7-1,3.458,3.458,0,0,0-1.2-.7,14.5,14.5,0,0,0-1.9-.6L22,26.1A19.844,19.844,0,0,1,18.8,25a7.853,7.853,0,0,1-2.3-1.6A7.217,7.217,0,0,1,15.1,21a11.3,11.3,0,0,1-.5-3.5,8.866,8.866,0,0,1,1.6-5.6c1.1-1.4,2.9-2.3,5.6-2.6V5.4h4.7V9.2a13.065,13.065,0,0,1,3.3.9A7.871,7.871,0,0,1,32,11.9a10.275,10.275,0,0,1,1.2,2.8,20.148,20.148,0,0,1,.4,3.8H28.3c-.1-.9-.2-1.7-.3-2.3a3.088,3.088,0,0,0-.7-1.4,3.458,3.458,0,0,0-1.2-.7c-.6,0-1.3-.1-2.1-.1a4.738,4.738,0,0,0-3,.7,3.3,3.3,0,0,0-1,2.6,6.959,6.959,0,0,0,.2,1.6,2.589,2.589,0,0,0,.7,1.1,3.162,3.162,0,0,0,1.3.7,16.7,16.7,0,0,0,2,.6l2.2.6a11.376,11.376,0,0,1,5.5,2.8,7.854,7.854,0,0,1,1.8,5.6A8.9,8.9,0,0,1,32,35.9c-1.1,1.4-3.1,2.2-5.7,2.5v3.8H21.6V38.4a10.623,10.623,0,0,1-3.4-.8A5.43,5.43,0,0,1,16,35.9a6.806,6.806,0,0,1-1.3-2.7,20.03,20.03,0,0,1-.6-3.9h5.5Z"/></svg>
