<svg xmlns="http://www.w3.org/2000/svg" viewBox="0 0 48 48"><defs><style>.e0709a80-60c8-4632-97cc-61306f9032ce{fill:none;}</style></defs><title>recondition_costs</title><g id="f0012eec-2623-4f2b-b59a-fa07853bbf67" data-name="Ebene 2"><g id="0646e76e-bf22-4175-990e-387220d74101" data-name="Ebene 1"><rect class="e0709a80-60c8-4632-97cc-61306f9032ce" width="48" height="48"/><path d="M31.11,34.668l-.438-.32H21.233l-1.257.919H10.1l0-1.146a1.058,1.058,0,0,1,.422-.916,10.029,10.029,0,0,1,1.346-.626,6.148,6.148,0,0,1,1.5-.352l12.575-.018,5.163.007V20.7a7,7,0,0,1-1.386-1.055c-.047-.047-.09-.1-.136-.142-1.089-.01-2.3-.018-3.634-.022h0c-10.814.035-13.13.277-13.13.277.687-1.507,2.085-4.142,2.085-4.142a9.317,9.317,0,0,1,.62-.92,2.989,2.989,0,0,1,1.066-.858c1.107-.537,4.84-.507,4.84-.507l4.512-.05,1.2.013a8.643,8.643,0,0,1,.1-1.134l-1.3-.009h0s-4.536.03-4.644.034a27.711,27.711,0,0,0-4.618.474,3.155,3.155,0,0,0-1.743,1.067,12.539,12.539,0,0,0-1.489,2.253L11.47,19.934l-.444.108c-.012-.034-.152-.449-.245-.728a5.808,5.808,0,0,0,.053-1.14s-.044-.406-.655-.4a7.586,7.586,0,0,0-1.653.231s-1.009.231-.934.913c0,0,.035.852,1.176,1.089a8.845,8.845,0,0,0,1.149.167l.006.054a4.686,4.686,0,0,0-.969.291A5.038,5.038,0,0,0,6.79,23.29,11.631,11.631,0,0,0,6.5,24.949a40.029,40.029,0,0,0-.131,5.329s-.031.676.378,5.218a6.07,6.07,0,0,0,.471,1.986,1.275,1.275,0,0,0,1.015.551l4.269-.006s1.04,0,1.04-1.846l12.408-.03,5.162.013ZM8.593,26.875c0,.149.04.64.04.64L8.74,29c.107,1.229.165,1.97.165,1.97,0,.546-.822.946-.822.946l-.114-.654a19.03,19.03,0,0,1-.425-4.807,7.745,7.745,0,0,1,.347-2.081,1.339,1.339,0,0,1,1.2-.939,11.553,11.553,0,0,1,3.208.4,2.5,2.5,0,0,1,1.17.709,8.462,8.462,0,0,1,.807.987,17.729,17.729,0,0,1,.922,1.6c-.415-.041-2.261-.21-2.261-.21s-2.743-.333-3.665-.422C8.538,26.43,8.593,26.875,8.593,26.875Z"/><path d="M40.469,8.9a7.2,7.2,0,0,0-1.84-1.472v5.521a1.258,1.258,0,0,1-1.289,1.288H34.4a1.258,1.258,0,0,1-1.289-1.288V7.432A7.2,7.2,0,0,0,31.267,8.9a6.443,6.443,0,0,0,0,9.2A7.576,7.576,0,0,0,33.291,19.4V37.431a2.761,2.761,0,0,0,5.522,0l-.184-17.852a7.576,7.576,0,0,0,2.024-1.289A6.84,6.84,0,0,0,40.469,8.9Z"/></g></g></svg>