<svg viewBox="0 0 48 48" width="1em" height="1em">
    <path d="M31.11 34.668l-.438-.32h-9.439l-1.257.919H10.1v-1.146a1.058 1.058 0 01.422-.916 10.029 10.029 0 011.346-.626 6.148 6.148 0 011.5-.352l12.575-.018 5.163.007V20.7a7 7 0 01-1.386-1.055c-.047-.047-.09-.1-.136-.142-1.089-.01-2.3-.018-3.634-.022-10.814.035-13.13.277-13.13.277.687-1.507 2.085-4.142 2.085-4.142a9.317 9.317 0 01.62-.92 2.989 2.989 0 011.066-.858c1.107-.537 4.84-.507 4.84-.507l4.512-.05 1.2.013a8.643 8.643 0 01.1-1.134l-1.3-.009s-4.536.03-4.644.034a27.711 27.711 0 00-4.618.474 3.155 3.155 0 00-1.743 1.067 12.539 12.539 0 00-1.489 2.253l-1.979 3.955-.444.108-.245-.728a5.808 5.808 0 00.053-1.14s-.044-.406-.655-.4a7.586 7.586 0 00-1.653.231s-1.009.231-.934.913c0 0 .035.852 1.176 1.089a8.845 8.845 0 001.149.167l.006.054a4.686 4.686 0 00-.969.291A5.038 5.038 0 006.79 23.29a11.631 11.631 0 00-.29 1.659 40.029 40.029 0 00-.131 5.329s-.031.676.378 5.218a6.07 6.07 0 00.471 1.986 1.275 1.275 0 001.015.551l4.269-.006s1.04 0 1.04-1.846l12.408-.03 5.162.013zM8.593 26.875c0 .149.04.64.04.64L8.74 29c.107 1.229.165 1.97.165 1.97 0 .546-.822.946-.822.946l-.114-.654a19.03 19.03 0 01-.425-4.807 7.745 7.745 0 01.347-2.081 1.339 1.339 0 011.2-.939 11.553 11.553 0 013.208.4 2.5 2.5 0 011.17.709 8.462 8.462 0 01.807.987 17.729 17.729 0 01.922 1.6c-.415-.041-2.261-.21-2.261-.21s-2.743-.333-3.665-.422c-.734-.069-.679.376-.679.376z" />
    <path d="M40.469 8.9a7.2 7.2 0 00-1.84-1.472v5.521a1.258 1.258 0 01-1.289 1.288H34.4a1.258 1.258 0 01-1.289-1.288V7.432A7.2 7.2 0 0031.267 8.9a6.443 6.443 0 000 9.2 7.576 7.576 0 002.024 1.3v18.031a2.761 2.761 0 005.522 0l-.184-17.852a7.576 7.576 0 002.024-1.289 6.84 6.84 0 00-.184-9.39z" />
</svg>
