<?xml version="1.0" encoding="utf-8"?>
<!-- Generator: Adobe Illustrator 22.0.1, SVG Export Plug-In . SVG Version: 6.00 Build 0)  -->
<svg version="1.1" id="Ebene_1" xmlns="http://www.w3.org/2000/svg" xmlns:xlink="http://www.w3.org/1999/xlink" x="0px" y="0px"
	 viewBox="0 0 48 48" style="enable-background:new 0 0 48 48;" xml:space="preserve">
<style type="text/css">
	.st0{clip-path:url(#SVGID_2_);}
	.st1{fill:none;}
</style>
<g>
	<g>
		<defs>
			<rect id="SVGID_1_" width="48" height="48"/>
		</defs>
		<clipPath id="SVGID_2_">
			<use xlink:href="#SVGID_1_"  style="overflow:visible;"/>
		</clipPath>
		<path class="st0" d="M8.2,25.5c0,2.3,0.8,4.2,2.4,5.9s3.6,2.4,5.8,2.4c2,0,3.8-0.7,5.2-2l4.2,3.6c-0.3,0.6-0.5,1.3-0.5,2.1
			c0,1.4,0.5,2.7,1.5,3.7s2.3,1.5,3.7,1.5s2.7-0.5,3.7-1.5s1.5-2.3,1.5-3.7s-0.5-2.7-1.5-3.7s-2.3-1.5-3.7-1.5c-1.1,0-2,0.3-2.9,0.8
			l-4.1-3.5c0.7-1.2,1-2.6,1-4c0-1.9-0.6-3.6-1.7-5.1l5.4-6c0.7,0.3,1.4,0.5,2.2,0.5c1.4,0,2.7-0.5,3.7-1.5s1.5-2.3,1.5-3.7
			S35.5,7.1,34.5,6c-1-1-2.3-1.5-3.7-1.5S28.1,5,27,6c-1,1-1.5,2.3-1.5,3.7c0,1,0.2,1.9,0.8,2.7l-5.4,6.1c-1.3-0.8-2.8-1.2-4.3-1.2
			c-2.2,0-4.2,0.8-5.8,2.4C9.1,21.3,8.2,23.3,8.2,25.5z"/>
	</g>
</g>
<rect y="0" class="st1" width="48" height="48"/>
</svg>
