<svg viewBox="0 0 48 48" width="1em" height="1em">
    <path d="M24 2C11.8 2 2 11.8 2 24s9.8 22 22 22 22-9.8 22-22S36.2 2 24 2zm20 22c0 5.2-2 9.8-5.2 13.4l-7.9-7.9 9.6-3.5-2.1-5.6-12.2 4.4-5.9-5.9c.4-.8.7-1.7.7-2.9 0-2.3-2.1-4.5-2.3-4.7l-1.4 1.4c.5.5 1.7 2 1.7 3.3 0 .5-.1 1-.2 1.4l-8.2-8.2C14.2 6 18.8 4 24 4c11 0 20 9 20 20zm-16.2 2.4l9.5-3.4.7 1.9-8.6 3.1-1.6-1.6zm-.5 2.3l-4.4 1.6-.7-1.9 3.5-1.3 1.6 1.6zM4 24c0-5.2 2-9.8 5.2-13.4l3.1 3.1c.5.5 1.7 2 1.7 3.3 0 .6-.3 1.2-.7 1.9-.6 1-1.3 2.2-1.3 4.1 0 2 1.6 5.3 2 6.2l2.1 5.6 1.9-.7-2-5.6c-.8-1.4-2-4.2-2-5.5 0-1.4.5-2.2 1-3.1.4-.7.8-1.5.9-2.5l1.9 1.9c-.1.1-.1.2-.2.2-.6.9-1.2 1.8-1.6 3.2-.7 2.2.6 5.4.8 5.7l2 5.5 1.9-.7-2.1-5.6h-.1c-.5-1.1-1.1-3.1-.7-4.2.4-1.1.9-1.9 1.3-2.6l4.8 4.8-4.5 1.6 2.1 5.6 7.1-2.6 8.6 8.6C33.8 42 29.2 44 24 44 13 44 4 35 4 24z" />
</svg>
