<?xml version="1.0" encoding="utf-8"?>
<!-- Generator: Adobe Illustrator 22.0.1, SVG Export Plug-In . SVG Version: 6.00 Build 0)  -->
<svg version="1.1" id="smoking_x5F_forbidden" xmlns="http://www.w3.org/2000/svg" xmlns:xlink="http://www.w3.org/1999/xlink"
	 x="0px" y="0px" viewBox="0 0 48 48" style="enable-background:new 0 0 48 48;" xml:space="preserve">
<style type="text/css">
	.st0{fill:none;}
</style>
<g id="smoke">
	<path d="M24,2C11.8,2,2,11.8,2,24s9.8,22,22,22s22-9.8,22-22S36.2,2,24,2z M44,24c0,5.2-2,9.8-5.2,13.4l-7.9-7.9l9.6-3.5l-2.1-5.6
		l-12.2,4.4l-5.9-5.9c0.4-0.8,0.7-1.7,0.7-2.9c0-2.3-2.1-4.5-2.3-4.7l-1.4,1.4c0.5,0.5,1.7,2,1.7,3.3c0,0.5-0.1,1-0.2,1.4l-8.2-8.2
		C14.2,6,18.8,4,24,4C35,4,44,13,44,24z M27.8,26.4l9.5-3.4l0.7,1.9L29.4,28L27.8,26.4z M27.3,28.7l-4.4,1.6l-0.7-1.9l3.5-1.3
		L27.3,28.7z M4,24c0-5.2,2-9.8,5.2-13.4l3.1,3.1c0.5,0.5,1.7,2,1.7,3.3c0,0.6-0.3,1.2-0.7,1.9c-0.6,1-1.3,2.2-1.3,4.1
		c0,2,1.6,5.3,2,6.2l0,0l2.1,5.6l1.9-0.7l-2-5.6l0,0c-0.8-1.4-2-4.2-2-5.5c0-1.4,0.5-2.2,1-3.1c0.4-0.7,0.8-1.5,0.9-2.5l1.9,1.9
		c-0.1,0.1-0.1,0.2-0.2,0.2c-0.6,0.9-1.2,1.8-1.6,3.2c-0.7,2.2,0.6,5.4,0.8,5.7l0,0l2,5.5l1.9-0.7l-2.1-5.6h-0.1
		c-0.5-1.1-1.1-3.1-0.7-4.2c0.4-1.1,0.9-1.9,1.3-2.6l4.8,4.8l-4.5,1.6l2.1,5.6l7.1-2.6l8.6,8.6C33.8,42,29.2,44,24,44
		C13,44,4,35,4,24z"/>
</g>
<rect y="0" class="st0" width="48" height="48"/>
</svg>
