<?xml version="1.0" encoding="utf-8"?>
<!-- Generator: Adobe Illustrator 22.0.1, SVG Export Plug-In . SVG Version: 6.00 Build 0)  -->
<svg version="1.1" id="smoking" xmlns="http://www.w3.org/2000/svg" xmlns:xlink="http://www.w3.org/1999/xlink" x="0px" y="0px"
	 viewBox="0 0 48 48" style="enable-background:new 0 0 48 48;" xml:space="preserve">
<style type="text/css">
	.st0{fill:none;}
</style>
<g id="smoke">
	<path d="M38.4,20.3l-18.8,6.8l2.1,5.6L40.5,26L38.4,20.3z M22.9,30.3l-0.7-1.9l15-5.5l0.7,1.9L22.9,30.3z"/>
	<path d="M18.6,27.5c-0.5-1.1-1.1-3.1-0.7-4.2s0.9-1.9,1.4-2.7c0.8-1.2,1.6-2.5,1.6-4.6c0-2.3-2.1-4.5-2.3-4.7l-1.4,1.4
		c0.5,0.5,1.7,2,1.7,3.3c0,1.5-0.6,2.4-1.3,3.5c-0.6,0.9-1.2,1.8-1.6,3.2c-0.7,2.2,0.6,5.4,0.8,5.7l0,0l2,5.5l1.9-0.7L18.6,27.5
		L18.6,27.5z"/>
	<path d="M15.9,28.6C15.2,27.1,14,24.3,14,23c0-1.4,0.5-2.2,1-3.1c0.5-0.8,1-1.7,1-2.9c0-2.3-2.1-4.5-2.3-4.7l-1.4,1.4
		c0.5,0.5,1.7,2,1.7,3.3c0,0.6-0.3,1.2-0.7,1.9c-0.6,1-1.3,2.2-1.3,4.1c0,2,1.6,5.3,2,6.2l0,0l2.1,5.6l1.9-0.7L15.9,28.6L15.9,28.6z
		"/>
</g>
<rect y="0" class="st0" width="48" height="48"/>
</svg>
