<?xml version="1.0" encoding="utf-8"?>
<!-- Generator: Adobe Illustrator 22.0.1, SVG Export Plug-In . SVG Version: 6.00 Build 0)  -->
<svg version="1.1" id="Ebene_1" xmlns="http://www.w3.org/2000/svg" xmlns:xlink="http://www.w3.org/1999/xlink" x="0px" y="0px"
	 viewBox="0 0 48 48" style="enable-background:new 0 0 48 48;" xml:space="preserve">
    <path class="st0" d="M24.2,43.3c-0.1,0-0.2,0-0.3,0c0,0-0.1,0-0.2,0c-2.6,0-4.3-1.2-5.8-2.2c-0.9-0.7-1.8-1.2-2.7-1.4
        c-1.4-0.2-2.7,0-3.5,0.1c-0.4,0.1-0.7,0.1-1,0.1c-0.7,0-1.3-0.4-1.5-1.1c-0.1-0.3-0.2-0.7-0.2-1c0-0.1-0.1-0.4-0.1-0.6
        c-3.2-0.5-4.9-1.3-5.4-2.4c-0.1-0.2-0.1-0.4-0.1-0.5c0-0.7,0.4-1.3,1.1-1.4c5.1-0.8,7.5-6.2,7.6-6.4c0.2-0.4,0.3-0.8,0.2-1.1
        c-0.2-0.5-1.3-0.9-1.9-1.1c-0.2-0.1-0.4-0.1-0.6-0.2c-2.2-0.9-2.5-1.9-2.3-2.7c0.3-1.4,2.2-2.1,3.3-1.6
        c0.8,0.4,1.5,0.5,1.9,0.4l0-0.6c-0.2-2.8-0.4-6.2,0.5-8.3c2.8-6.2,8.6-6.7,10.3-6.7l0.8,0c1.7,0,7.6,0.5,10.4,6.7
        c0.9,2.1,0.7,5.6,0.5,8.3l0,0.6c0.1,0,0.1,0,0.2,0c0.4,0,0.9-0.2,1.5-0.4c0.4-0.2,0.7-0.2,1-0.2c0.4,0,0.7,0.1,1,0.2l0,0
        c1,0.4,1.5,1.1,1.5,1.8c0,1-0.8,1.8-2.3,2.4c-0.2,0.1-0.4,0.1-0.6,0.2c-0.7,0.2-1.7,0.5-1.9,1.1c-0.1,0.3,0,0.7,0.2,1
        c0.1,0.3,2.5,5.6,7.6,6.5c0.7,0.1,1.1,0.7,1.1,1.4c0,0.2-0.1,0.4-0.1,0.5c-0.5,1.1-2.2,1.9-5.4,2.4c-0.1,0.2-0.1,0.5-0.1,0.6
        c-0.1,0.3-0.1,0.6-0.2,1c-0.2,0.7-0.7,1.1-1.4,1.1c-0.3,0-0.6,0-1-0.1c-0.6-0.1-1.2-0.2-2-0.2c-0.5,0-1,0-1.4,0.1
        c-0.9,0.1-1.7,0.7-2.7,1.4C28.5,42.1,26.9,43.3,24.2,43.3z M23.9,41.5L23.9,41.5c0.2,0,0.3,0,0.3,0c2,0,3.3-0.9,4.7-1.9
        c1.1-0.8,2.1-1.5,3.4-1.7c0.6-0.1,1.2-0.1,1.7-0.1c1,0,1.8,0.1,2.4,0.2c0.2,0,0.3,0.1,0.4,0.1c0-0.2,0.1-0.4,0.1-0.6
        c0.2-0.9,0.4-1.8,1.4-2c2.1-0.3,3.1-0.7,3.7-1c-5.5-1.5-7.9-7-8-7.3c-0.5-0.9-0.5-1.8-0.2-2.5c0.6-1.3,2.1-1.8,3.1-2.1
        c0.2-0.1,0.4-0.1,0.5-0.2c0.8-0.3,1.1-0.6,1.2-0.7c-0.1-0.1-0.2-0.1-0.3-0.2c-0.3-0.1-0.5-0.1-0.6-0.1
        c-0.8,0.4-1.6,0.6-2.3,0.6c-1.2,0-1.7-0.6-1.8-0.7l-0.2-0.3l0.1-1.6c0.2-2.6,0.4-5.8-0.4-7.5c-2.3-5.2-7.2-5.6-8.7-5.6V6
        l-0.1,0.5l-0.7,0c-1.4,0-6.4,0.4-8.7,5.6c-0.8,1.7-0.6,4.9-0.4,7.5c0,0.4,0.1,0.8,0.1,1.2l0,0.4l-0.2,0.3
        c-0.1,0.1-0.7,0.7-1.9,0.7c-0.7,0-1.5-0.2-2.4-0.6c0,0,0,0,0,0c-0.3,0-0.6,0.1-0.7,0.2c0.1,0.1,0.4,0.4,1.2,0.7
        c0.1,0.1,0.3,0.1,0.5,0.2c1,0.3,2.5,0.8,3.1,2.1c0.3,0.8,0.2,1.6-0.2,2.6c-0.1,0.2-2.6,5.8-8,7.3c0.5,0.3,1.6,0.6,3.7,1
        c1,0.1,1.2,1.1,1.4,2c0,0.2,0.1,0.4,0.1,0.6c0.1,0,0.3,0,0.4-0.1c0.5-0.1,1.4-0.3,2.4-0.3c0.6,0,1.2,0,1.7,0.1
        c1.3,0.2,2.3,0.9,3.4,1.7c1.4,1,2.7,1.9,4.7,1.9C23.8,41.5,23.8,41.5,23.9,41.5L23.9,41.5z M24.4,5.2l-0.1,0.3l0.1,0V5.2z"/>
</svg>
