<?xml version="1.0" encoding="utf-8"?>
<!-- Generator: Adobe Illustrator 22.0.1, SVG Export Plug-In . SVG Version: 6.00 Build 0)  -->
<svg version="1.1" id="star_x5F_outline" xmlns="http://www.w3.org/2000/svg" xmlns:xlink="http://www.w3.org/1999/xlink" x="0px"
	 y="0px" viewBox="0 0 48 48" style="enable-background:new 0 0 48 48;" xml:space="preserve">
<style type="text/css">
	.st0{fill:none;}
</style>
<path d="M24,11.6l2.9,6.3l0.9,2l2.2,0.3l6.8,0.8l-5.1,4.6L30,27.2l0.5,2.3l1.5,6.6l-6-3.6l-2-1.1l-2,1.1L15.9,36l1.5-6.6l0.5-2.3
	l-1.7-1.6L11.1,21l6.8-0.8l2.2-0.3l0.9-2L24,11.6 M24,2l-6.5,14.2L2,18l11.5,10.6L10,44l14-8l14,8l-3.5-15.4L46,18l-15.5-1.8L24,2
	L24,2z"/>
<rect y="0" class="st0" width="48" height="48"/>
</svg>
