<svg xmlns="http://www.w3.org/2000/svg" viewBox="0 0 48 48"><defs><style>.ca6d4b3d-16ac-4047-bb84-d12186a442bc{fill:none;}</style></defs><title>stock_view</title><g id="5323c4e7-7228-42e0-bb4d-5a932bc63c6f" data-name="Ebene 2"><g id="b56a6622-8087-420c-aead-56073a51afae" data-name="bin"><rect class="ca6d4b3d-16ac-4047-bb84-d12186a442bc" width="48" height="48"/><path d="M43.2,28.3a8.921,8.921,0,0,0-.3-1.7,5.27,5.27,0,0,0-2.2-2.8,6.214,6.214,0,0,0-1-.3v-.1a3.3,3.3,0,0,0,1.1-.2A1.36,1.36,0,0,0,42,22.1c.1-.7-.9-.9-.9-.9a8.12,8.12,0,0,0-1.7-.2c-.6,0-.7.4-.7.4a10.416,10.416,0,0,0,.1,1.1c-.1.3-.2.7-.2.7l-.4-.1-2-4a13.275,13.275,0,0,0-1.5-2.3A3.158,3.158,0,0,0,33,15.7a32.075,32.075,0,0,0-4.6-.5H19.2a32.075,32.075,0,0,0-4.6.5,2.856,2.856,0,0,0-1.7,1.1,13.275,13.275,0,0,0-1.5,2.3l-2,4-.4.1a1.973,1.973,0,0,1-.2-.7,10.416,10.416,0,0,0,.1-1.1s0-.4-.7-.4a8.12,8.12,0,0,0-1.7.2s-1,.2-.9.9c0,0,0,.9,1.2,1.1,0,0,.5.1,1.1.2v.1c-.4.1-.7.2-1,.3a5.251,5.251,0,0,0-2.2,2.8,8.921,8.921,0,0,0-.3,1.7,28.57,28.57,0,0,0-.1,5.3s0,.7.4,5.2a5.127,5.127,0,0,0,.5,2,1.434,1.434,0,0,0,1,.6h4.3s1,0,1-1.8H36.3c0,1.8,1,1.8,1,1.8h4.3a1.161,1.161,0,0,0,1-.6,8.035,8.035,0,0,0,.5-2c.4-4.5.4-5.2.4-5.2C43.5,31.3,43.3,29.7,43.2,28.3ZM12.7,19c.3-.5.6-.9.6-.9a3.849,3.849,0,0,1,1.1-.9c1.1-.5,4.8-.5,4.8-.5l4.5-.1h0l4.5.1s3.7,0,4.8.5a2.478,2.478,0,0,1,1.1.9s.3.4.6.9c0,0,1.4,2.6,2.1,4.1,0,0-2.3-.2-13.1-.3h0c-10.8,0-13.1.3-13.1.3C11.3,21.6,12.7,19,12.7,19ZM6.4,30.3v.6l.1,1.5c.1,1.2.2,2,.2,2,0,.5-.8.9-.8.9l-.1-.7a17.309,17.309,0,0,1-.4-4.8,11.47,11.47,0,0,1,.3-2.1,1.312,1.312,0,0,1,1.2-.9,14.815,14.815,0,0,1,3.2.4,2.345,2.345,0,0,1,1.2.7,5.835,5.835,0,0,1,.8,1,16.493,16.493,0,0,1,.9,1.6c-.4,0-2.3-.2-2.3-.2l-3.6-.4C6.3,29.8,6.4,30.3,6.4,30.3Zm23.3,8.4-1.3-.9H19l-1.3.9H7.9V37.6a1.237,1.237,0,0,1,.4-.9,8.723,8.723,0,0,1,1.3-.6s.6-.2,1.5-.4H36.3a4.864,4.864,0,0,1,1.5.4,8.723,8.723,0,0,1,1.3.6.918.918,0,0,1,.4.9v1.1Zm12-4-.1.7s-.8-.4-.8-.9c0,0,.1-.7.2-2l.1-1.5v-.6s.1-.4-.7-.4c-.9.1-3.7.4-3.7.4s-1.8.2-2.3.2a16.493,16.493,0,0,1,.9-1.6,5.835,5.835,0,0,1,.8-1,2.345,2.345,0,0,1,1.2-.7,14.815,14.815,0,0,1,3.2-.4,1.312,1.312,0,0,1,1.2.9,5.192,5.192,0,0,1,.3,2.1C42.2,29.8,42.3,31.7,41.7,34.7Z"/><path d="M46.8,15.1a5.384,5.384,0,0,0-.1-.8,2.4,2.4,0,0,0-1.1-1.4.749.749,0,0,0-.5-.1h0a2.18,2.18,0,0,0,.6-.1c.6-.1.6-.5.6-.5,0-.3-.5-.5-.5-.5a3.746,3.746,0,0,0-.8-.1c-.3,0-.3.2-.3.2v.6c0,.1-.1.3-.1.4l-.2-.1-1-2a11.617,11.617,0,0,0-.7-1.1,1.786,1.786,0,0,0-1-.6,13.385,13.385,0,0,0-2.3-.2H34.8a13.385,13.385,0,0,0-2.3.2,1.956,1.956,0,0,0-.9.5,11.617,11.617,0,0,0-.7,1.1l-1,2-.2.1a1.034,1.034,0,0,1-.1-.4,1.056,1.056,0,0,0,0-.6s0-.2-.3-.2a3.746,3.746,0,0,0-.8.1s-.5.1-.5.5c0,0,0,.4.6.5a2.18,2.18,0,0,0,.6.1h0a4.331,4.331,0,0,0-.5.1,4.432,4.432,0,0,0-.6.5h.4a33.2,33.2,0,0,1,5,.5,5.828,5.828,0,0,1,3,1.8,18.7,18.7,0,0,1,1.7,2.6h0l.2.4h5a7.347,7.347,0,0,1,.8.2,5.946,5.946,0,0,0,.7.3c.2.1.2.5.2.5v.6H43.6a2.666,2.666,0,0,1,.7,1.4H46a.69.69,0,0,0,.5-.3,2.4,2.4,0,0,0,.2-1c.2-2.3.2-2.6.2-2.6A19.34,19.34,0,0,0,46.8,15.1Zm-9.7-2.7h0c-5.4,0-6.6.1-6.6.1a22.83,22.83,0,0,1,1-2.1,1.409,1.409,0,0,1,.3-.5,2.22,2.22,0,0,1,.5-.4,8.443,8.443,0,0,1,2.4-.3h4.6a8.1,8.1,0,0,1,2.4.3,1.076,1.076,0,0,1,.5.4,1.409,1.409,0,0,1,.3.5,22.83,22.83,0,0,1,1,2.1C43.7,12.5,42.5,12.4,37.1,12.4Zm9,5.9-.1.3s-.4-.2-.4-.5a6.734,6.734,0,0,1,.1-1l.1-.7v-.3s0-.2-.3-.2c-.5,0-1.8.2-1.8.2s-.9.1-1.1.1a4.454,4.454,0,0,1,.5-.8,3.609,3.609,0,0,0,.4-.5,1.082,1.082,0,0,1,.6-.4,4.758,4.758,0,0,1,1.6-.2.7.7,0,0,1,.6.5,6.468,6.468,0,0,1,.2,1C46.3,15.9,46.4,16.8,46.1,18.3Z"/><path d="M3.3,21.7A3.694,3.694,0,0,1,4,20.3H3v-.6a.781.781,0,0,1,.2-.5,5.946,5.946,0,0,0,.7-.3,7.347,7.347,0,0,1,.8-.2H9.2l.2-.4h0a18.7,18.7,0,0,1,1.7-2.6,5.18,5.18,0,0,1,3-1.8,23.971,23.971,0,0,1,5-.5H20a4.432,4.432,0,0,0-.6-.5.749.749,0,0,0-.5-.1h0a2.18,2.18,0,0,0,.6-.1c.6-.1.6-.5.6-.5,0-.3-.5-.5-.5-.5a3.746,3.746,0,0,0-.8-.1c-.3,0-.3.2-.3.2v.6c0,.1-.1.3-.1.4l-.2-.1-1-2a11.617,11.617,0,0,0-.7-1.1,1.786,1.786,0,0,0-1-.6,13.385,13.385,0,0,0-2.3-.2H8.6A13.385,13.385,0,0,0,6.3,9a1.956,1.956,0,0,0-.9.5,11.617,11.617,0,0,0-.7,1.1l-1,2-.2.1a1.034,1.034,0,0,1-.1-.4,1.056,1.056,0,0,0,0-.6s0-.2-.3-.2a3.746,3.746,0,0,0-.8.1s-.5.1-.5.5c0,0,0,.4.6.5a2.18,2.18,0,0,0,.6.1H3a4.331,4.331,0,0,0-.5.1,2.4,2.4,0,0,0-1.1,1.4,5.384,5.384,0,0,0-.1.8c0,.7-.1,1.5-.1,2.7,0,0,0,.3.2,2.6a8.376,8.376,0,0,0,.2,1,.69.69,0,0,0,.5.3ZM5.4,10.5a1.409,1.409,0,0,1,.3-.5,2.22,2.22,0,0,1,.5-.4,8.443,8.443,0,0,1,2.4-.3h4.6a8.1,8.1,0,0,1,2.4.3,1.076,1.076,0,0,1,.5.4,1.409,1.409,0,0,1,.3.5,22.83,22.83,0,0,1,1,2.1s-1.2-.1-6.6-.1h0c-5.4,0-6.6.1-6.6.1C4.7,11.8,5.4,10.5,5.4,10.5ZM1.9,18.3a8.654,8.654,0,0,1-.2-2.4,1.925,1.925,0,0,1,.2-1,.7.7,0,0,1,.6-.5,4.758,4.758,0,0,1,1.6.2,1.082,1.082,0,0,1,.6.4,3.609,3.609,0,0,0,.4.5,4.454,4.454,0,0,1,.5.8c-.2,0-1.1-.1-1.1-.1s-1.5-.3-1.9-.3-.3.2-.3.2v.3l.1.7a6.734,6.734,0,0,1,.1,1c0,.3-.4.5-.4.5Z"/></g></g></svg>