<?xml version="1.0" encoding="utf-8"?>
<!-- Generator: Adobe Illustrator 22.0.1, SVG Export Plug-In . SVG Version: 6.00 Build 0)  -->
<svg version="1.1" id="timer_1_" xmlns="http://www.w3.org/2000/svg" xmlns:xlink="http://www.w3.org/1999/xlink" x="0px" y="0px"
	 viewBox="0 0 48 48" style="enable-background:new 0 0 48 48;" xml:space="preserve">
<style type="text/css">
	.st0{fill:none;}
</style>
<g>
	<path d="M37.2,15l1.9-1.9l-4.2-4.2L33,10.8c-2.4-1.6-5.2-2.5-8-2.7V6h3V4h-8v2h3v2c-3.8,0.2-7.4,1.8-10.3,4.6
		c-6.2,6.2-6.2,16.4,0,22.6C15.8,38.4,19.9,40,24,40s8.2-1.6,11.3-4.7C40.8,29.8,41.5,21.2,37.2,15z M33.9,33.9
		C31.3,36.5,27.7,38,24,38s-7.3-1.5-9.9-4.1c-5.5-5.5-5.5-14.3,0-19.8c2.6-2.6,6.2-4.1,9.9-4.1s7.3,1.5,9.9,4.1
		C39.4,19.6,39.4,28.4,33.9,33.9z"/>
	<path d="M23,14.1V24c0,0.6,0.4,1,1,1s1-0.4,1-1v-9.9c-0.3,0-0.7-0.1-1-0.1S23.3,14,23,14.1z"/>
</g>
<rect y="0" class="st0" width="48" height="48"/>
</svg>
