<?xml version="1.0" encoding="utf-8"?>
<!-- Generator: Adobe Illustrator 22.0.1, SVG Export Plug-In . SVG Version: 6.00 Build 0)  -->
<svg version="1.1" id="Ebene_1" xmlns="http://www.w3.org/2000/svg" xmlns:xlink="http://www.w3.org/1999/xlink" x="0px" y="0px"
	 viewBox="0 0 48 48" style="enable-background:new 0 0 48 48;" xml:space="preserve">
<style type="text/css">
	.st0{clip-path:url(#SVGID_2_);}
	.st1{fill:none;}
</style>
<g>
	<g>
		<defs>
			<rect id="SVGID_1_" width="48" height="48"/>
		</defs>
		<clipPath id="SVGID_2_">
			<use xlink:href="#SVGID_1_"  style="overflow:visible;"/>
		</clipPath>
		<path class="st0" d="M6,35.3c3.6,2.2,7.5,3.3,11.6,3.3c6,0,11-2.1,15.1-6.4c4.1-4.2,6-9.3,5.7-15.3v-0.3c1.4-1,2.6-2.3,3.6-3.8
			c-1.1,0.6-2.5,1-4.1,1.2c0.6-0.3,1.2-0.9,1.8-1.7c0.7-0.8,1.1-1.6,1.3-2.3c-0.6,0.4-1.3,0.7-2.3,1.1c-1,0.3-1.7,0.5-2.3,0.5
			c-1.5-1.5-3.3-2.2-5.4-2.2c-2,0-3.7,0.7-5.2,2.2c-1.5,1.4-2.2,3.2-2.2,5.2c0,0.6,0.1,1.1,0.2,1.7c-2.9-0.1-5.8-0.8-8.7-2.2
			S9.8,13.1,8,10.8c-0.9,2-1.1,3.9-0.6,5.7s1.5,3.2,2.9,4c-1.4,0.1-2.5-0.2-3.2-0.8c-0.1,1.6,0.4,3,1.3,4.4s2.4,2.3,4.5,2.9
			c-0.7,0.4-1.7,0.4-3.1,0.2c0.1,1.2,0.9,2.3,2.2,3.4s2.8,1.6,4.5,1.6c-0.8,0.9-2.2,1.8-4.1,2.5S8.3,35.7,6,35.3L6,35.3z"/>
	</g>
</g>
<rect y="0" class="st1" width="48" height="48"/>
</svg>
