<svg viewBox="0 0 48 48" width="1em" height="1em">
    <path d="M32.8 6.4a8.7 8.7 0 11-8.8 8.7 8.706 8.706 0 018.8-8.7m0-2.2a10.9 10.9 0 1010.9 10.9A10.926 10.926 0 0032.8 4.2z" />
    <path d="M31.4 19.5L27 15.1h3.3l1 1.2 4.4-4.5 3.3.1-7.6 7.6zM28.5 27.5a13.116 13.116 0 01-8.8-12.4 12.413 12.413 0 01.3-2.7 8.814 8.814 0 00-7.2-3.9 10.206 10.206 0 00-3 .3l5 5a1.521 1.521 0 010 2.3L12.1 19a1.521 1.521 0 01-2.3 0l-5-5a10.206 10.206 0 00-.3 3 8.323 8.323 0 008.4 8.4 8.19 8.19 0 003-.7l16.4 16.4a3.536 3.536 0 005-5z" />
</svg>
