<svg xmlns="http://www.w3.org/2000/svg" viewBox="0 0 48 48"><path d="M32.8,6.4A8.7,8.7,0,1,1,24,15.1a8.706,8.706,0,0,1,8.8-8.7m0-2.2A10.9,10.9,0,1,0,43.7,15.1,10.926,10.926,0,0,0,32.8,4.2Z"/><polygon points="31.4 19.5 27 15.1 30.3 15.1 31.3 16.3 35.7 11.8 39 11.9 31.4 19.5"/><path d="M28.5,27.5a13.116,13.116,0,0,1-8.8-12.4,12.413,12.413,0,0,1,.3-2.7,8.814,8.814,0,0,0-7.2-3.9,10.206,10.206,0,0,0-3,.3l5,5a1.521,1.521,0,0,1,0,2.3L12.1,19a1.521,1.521,0,0,1-2.3,0l-5-5a10.206,10.206,0,0,0-.3,3,8.323,8.323,0,0,0,8.4,8.4,8.19,8.19,0,0,0,3-.7L32.3,41.1a3.536,3.536,0,0,0,5-5Z"/></svg>
