<?xml version="1.0" encoding="utf-8"?>
<!-- Generator: Adobe Illustrator 22.0.1, SVG Export Plug-In . SVG Version: 6.00 Build 0)  -->
<svg version="1.1" id="Ebene_1" xmlns="http://www.w3.org/2000/svg" xmlns:xlink="http://www.w3.org/1999/xlink" x="0px" y="0px"
	 viewBox="0 0 48 48" style="enable-background:new 0 0 48 48;" xml:space="preserve">
<style type="text/css">
	.st0{clip-path:url(#SVGID_2_);}
	.st1{clip-path:url(#SVGID_4_);}
	.st2{fill:none;}
</style>
<g>
	<g>
		<defs>
			<rect id="SVGID_1_" width="48" height="48"/>
		</defs>
		<clipPath id="SVGID_2_">
			<use xlink:href="#SVGID_1_"  style="overflow:visible;"/>
		</clipPath>
		<path class="st0" d="M18.5,9.1c-7.3,0-13.3,5-13.3,11.3c0,3.6,2,6.6,5.3,9l-1.3,4l4.6-2.3c1.7,0.3,3,0.7,4.6,0.7
			c0.4,0,0.8,0,1.2-0.1c-0.3-0.9-0.4-1.8-0.4-2.8c0-5.8,5-10.5,11.3-10.5c0.4,0,0.9,0,1.3,0.1C30.8,13,25,9.1,18.5,9.1z M14.2,18
			c-1,0-2-0.7-2-1.7s1-1.7,2-1.7s1.7,0.7,1.7,1.7C15.9,17.4,15.2,18,14.2,18z M23.5,18c-1,0-2-0.7-2-1.7s1-1.7,2-1.7
			s1.7,0.7,1.7,1.7C25.2,17.4,24.5,18,23.5,18z"/>
	</g>
	<g>
		<defs>
			<rect id="SVGID_3_" width="48" height="48"/>
		</defs>
		<clipPath id="SVGID_4_">
			<use xlink:href="#SVGID_3_"  style="overflow:visible;"/>
		</clipPath>
		<path class="st1" d="M42.8,28.7c0-5.3-5.3-9.6-11.3-9.6c-6.3,0-11.3,4.3-11.3,9.6s5,9.6,11.3,9.6c1.3,0,2.7-0.3,4-0.7l3.6,2
			l-1-3.3C40.8,34.3,42.7,31.7,42.8,28.7L42.8,28.7z M27.8,27c-0.7,0-1.3-0.7-1.3-1.3c0-0.7,0.7-1.3,1.3-1.3c1,0,1.7,0.7,1.7,1.3
			S28.8,27,27.8,27z M35.1,27c-0.7,0-1.3-0.7-1.3-1.3c0-0.7,0.7-1.3,1.3-1.3c1,0,1.7,0.7,1.7,1.3S36.1,27,35.1,27z"/>
	</g>
</g>
<rect y="0" class="st2" width="48" height="48"/>
</svg>
