<?xml version="1.0" encoding="utf-8"?>
<!-- Generator: Adobe Illustrator 22.0.1, SVG Export Plug-In . SVG Version: 6.00 Build 0)  -->
<svg version="1.1" id="Ebene_1" xmlns="http://www.w3.org/2000/svg" xmlns:xlink="http://www.w3.org/1999/xlink" x="0px" y="0px"
	 viewBox="0 0 48 48" style="enable-background:new 0 0 48 48;" xml:space="preserve">
<style type="text/css">
	.st0{fill:none;}
</style>
<path d="M34,14c-2.5-2.5-6-4.1-9.9-4.1l0,0c-7.7,0-14,6.3-14,14l0,0c0,2.6,0.7,5,1.9,7.1l-2,7.2l7.4-2c1.9,1.1,4.2,1.7,6.7,1.7l0,0
	c7.7,0,14-6.3,14-14l0,0C38.1,20,36.5,16.5,34,14z M24.1,35.5L24.1,35.5L24.1,35.5c-2.2,0-4.2-0.6-6-1.7l-0.4-0.2l-4.4,1.2l1.2-4.3
	l-0.3-0.4c-1.1-1.8-1.8-3.9-1.8-6.2l0,0c0-6.4,5.2-11.6,11.7-11.6c6.4,0,11.6,5.2,11.6,11.7l0,0C35.7,30.3,30.5,35.5,24.1,35.5
	L24.1,35.5z M30.5,26.8c-0.4-0.2-2.1-1-2.4-1.1s-0.6-0.2-0.8,0.2c-0.2,0.4-0.9,1.1-1.1,1.4c-0.2,0.2-0.4,0.3-0.8,0.1
	c-0.4-0.2-1.5-0.5-2.8-1.7c-1-0.9-1.7-2.1-2-2.4s0-0.5,0.2-0.7s0.4-0.4,0.5-0.6c0.2-0.2,0.2-0.4,0.4-0.6c0.1-0.2,0.1-0.4,0-0.6
	s-0.8-1.9-1.1-2.6c-0.3-0.7-0.6-0.6-0.8-0.6c-0.2,0-0.4,0-0.7,0c-0.4,0-0.7,0.2-0.9,0.4c-0.3,0.4-1.2,1.2-1.2,2.9s1.3,3.4,1.4,3.6
	s2.5,3.8,6,5.3c0.5,0.2,1.2,0.5,1.9,0.7c0.6,0.2,1,0.2,1.5,0.2c0.3,0,0.6,0,0.8-0.1c0.6-0.1,2-0.8,2.3-1.7c0.3-0.8,0.3-1.5,0.2-1.7
	C31,27.1,30.8,27,30.5,26.8L30.5,26.8z"/>
<rect y="0" class="st0" width="48" height="48"/>
</svg>
