<?xml version="1.0" encoding="utf-8"?>
<!-- Generator: Adobe Illustrator 22.0.1, SVG Export Plug-In . SVG Version: 6.00 Build 0)  -->
<svg version="1.1" id="Ebene_1" xmlns="http://www.w3.org/2000/svg" xmlns:xlink="http://www.w3.org/1999/xlink" x="0px" y="0px"
	 viewBox="0 0 48 48" style="enable-background:new 0 0 48 48;" xml:space="preserve">
<style type="text/css">
	.st0{fill:none;}
</style>
<rect class="st0" width="48" height="48"/>
<g>
	<path d="M41.2,15.3c-0.4-1.6-1.6-2.8-3.2-3.2c-2.7-0.8-14-0.8-14-0.8s-11.3,0-14.1,0.8c-1.5,0.4-2.8,1.6-3.2,3.2C6,18.1,6,24,6,24
		s0,5.9,0.8,8.7c0.4,1.6,1.6,2.8,3.2,3.2c2.8,0.8,14.1,0.8,14.1,0.8s11.3,0,14.1-0.8c1.5-0.4,2.8-1.6,3.2-3.2C42,29.9,42,24,42,24
		S42,18.1,41.2,15.3z M20.3,29.4V18.6l9.4,5.4L20.3,29.4z"/>
</g>
</svg>
