<svg viewBox="0 0 24 24" xmlns="http://www.w3.org/2000/svg">
<path d="m12 7h1v-2c0-1.1046-.8954-2-2-2h-.5v-1h-4v1h-.5c-1.1046 0-2 .8954-2 2v15c0 1.1046.8954 2 2 2h5c1.1046 0 2-.8954 2-2v-3h-1v3c0 .5514-.4486 1-1 1h-5c-.5514 0-1-.4486-1-1v-15c0-.5514.4486-1 1-1h5c.5514 0 1 .4486 1 1zm-1 13h-5v-1h5zm-.8628-10.985c.9459 0 1.211.385 1.2684 1.631h1.1107c-.0788-1.8199-.4371-2.646-2.3791-2.646s-2.6372.791-2.6372 3.5.5518 3.5 2.6372 3.5c1.727 0 2.3003-.7421 2.3791-2.576h-1.1036c-.0645 1.2669-.3009 1.6729-1.2755 1.6729-1.204 0-1.4333-.3709-1.4333-2.632-.0071-2.023.2293-2.45 1.4333-2.45zm5.7328-1.015c-2.0136 0-2.6371.791-2.6371 3.5s.5518 3.5 2.6371 3.5 2.63-.882 2.63-3.5-.6234-3.5-2.63-3.5zm0 6.0969c-1.2039 0-1.4332-.3709-1.4332-2.632 0-2.023.2365-2.45 1.4332-2.45s1.4333.427 1.4333 2.45c0 2.261-.2365 2.632-1.4333 2.632zm4.2033.9423.3396-.2092c.1772-.0831.3268-.2139.4301-.3772.1043-.1631.1588-.352.1569-.5443 0-.5621-.2603-.9085-.9933-.9085s-1.0067.3857-1.0067.9805h.56c0-.3726.1266-.4641.4399-.4641s.4204.0981.4204.3922-.18.464-.4336.6209l-.3467.2091c-.1797.0838-.3312.2164-.4363.3821-.1052.1656-.1597.3574-.1569.5526v.3268h1.9136v-.4575h-1.3336c-.0066-.1961.1533-.3203.4467-.5033z"/>
</svg>