<svg xmlns="http://www.w3.org/2000/svg" viewBox="0 0 24 24">
<path d="m4 18h3v1h-3zm18.996-8.5-1 .5v8.748c0 1.246-.5 2.252-1.999 2.252-1.458 0-1.971-.95-1.998-2.148l-.003-5.852c-.023-.723-.335-.979-.995-.999v8.999h-7v-15c0-2 1-3 3-3h1c2 0 3 1 3 3v5c1.248.001 1.997.751 1.997 2v6c0 .75.25 1 1 1s1-.25 1-1v-9c-.018-1.45-.268-2.618-.75-3.5-.482-.884-1.232-1.55-2.249-2v-1c1.589.774 2.756 1.607 3.499 2.5.743.891 1.243 2.058 1.5 3.5zm-6.996 10.5v-8h-.002v-1.001h.002v-5c0-1.439-.561-2-2-2h-1c-1.439 0-2 .561-2 2v14h5zm-7-14v13c0 1.105-.895 2-2 2h-3c-1.105 0-2-.895-2-2v-13c0-1.105.895-2 2-2v-1h3v1c1.105 0 2 .895 2 2zm-1 0c0-.551-.449-1-1-1h-3c-.551 0-1 .449-1 1v13c0 .551.449 1 1 1h3c.551 0 1-.449 1-1z"/>
</svg>