<svg xmlns="http://www.w3.org/2000/svg" viewBox="0 0 24 24">
<path d="m5 18h3v1h-3zm5-12v13c0 1.105-.895 2-2 2h-3c-1.105 0-2-.895-2-2v-13c0-1.105.895-2 2-2v-1h3v1c1.105 0 2 .895 2 2zm-1 0c0-.551-.449-1-1-1h-3c-.551 0-1 .449-1 1v13c0 .551.449 1 1 1h3c.551 0 1-.449 1-1zm9.762 11h-6.762v3h6.762l1.8-1.5zm.059-1c.197 0 .39.073.555.21l2.124 1.77c.297.247.297.793 0 1.04l-2.124 1.77c-.164.137-.357.21-.555.21h-7.321c-.276 0-.5-.155-.5-.5v-4c0-.345.224-.5.5-.5zm.679-4.02-2.124-1.77c-.164-.137-.357-.21-.555-.21h-5.321c-.276 0-.5.155-.5.5v4c0 .345.224.5.5.5h5.321c.197 0 .39-.073.555-.21l2.124-1.77c.297-.247.297-.793 0-1.04zm-2.738 2.02h-4.762v-3h4.762l1.8 1.5zm.238-8.02-2.124-1.77c-.164-.137-.357-.21-.555-.21h-2.821c-.276 0-.5.155-.5.5v4c0 .345.224.5.5.5h2.821c.197 0 .39-.073.555-.21l2.124-1.77c.297-.247.297-.793 0-1.04zm-2.738 2.02h-2.262v-3h2.262l1.8 1.5z"/>
</svg>