<svg id="Default" xmlns="http://www.w3.org/2000/svg" viewBox="0 0 24 24"><rect x="5" y="19" width="14" height="1"/><path d="M7,6a7.84,7.84,0,0,0,.53,2.66A7,7,0,0,1,8,11a7,7,0,0,1-.47,2.34A7.84,7.84,0,0,0,7,16v1H8V16a7,7,0,0,1,.47-2.34A7.84,7.84,0,0,0,9,11a7.84,7.84,0,0,0-.53-2.66A7,7,0,0,1,8,6V5H9L7.5,3,6,5H7Z"/><path d="M11.9,9.17c-.37.13-1.93,1-1.15,2.39A2.61,2.61,0,0,0,13,12.73v.68c-1.24.22-2.13-.29-2.64-.1s-.32,1.42-.19,1.79,1,1.93,2.39,1.15A2.61,2.61,0,0,0,13.73,14h.68c.22,1.24-.29,2.13-.1,2.64s1.42.32,1.79.19,1.93-1,1.15-2.39A2.61,2.61,0,0,0,15,13.27v-.68c1.24-.22,2.13.29,2.64.1s.32-1.42.19-1.79-1-1.93-2.39-1.15A2.61,2.61,0,0,0,14.27,12h-.68c-.22-1.24.29-2.13.1-2.64S12.27,9,11.9,9.17Z"/><path d="M15,6a6.54,6.54,0,0,0,.32,2h1l-.05-.15A6,6,0,0,1,16,6V5h1L15.5,3,14,5h1Z"/><path d="M11,6a6.6,6.6,0,0,0,.32,2h1A6.42,6.42,0,0,1,12,6V5h1L11.5,3,10,5h1Z"/></svg>