<svg viewBox="0 0 24 24" xmlns="http://www.w3.org/2000/svg">
<path d="m11.8314 4 .8571.75-.8571.75h-6.8314v-1.5zm.1686-1h-7.5c-.2761 0-.5.1959-.5.4375v2.625c0 .2416.2239.4375.5.4375h7.5c.1326 0 .2598-.0461.3535-.1281l1.5-1.3125c.1953-.1709.1953-.4479 0-.6187l-1.5-1.3125c-.0938-.082-.2209-.1281-.3535-.1281zm2.3536 8.2052 1.5-1.3125c.1953-.1709.1953-.4479 0-.6187l-1.5-1.3125c-.0938-.082-.2209-.1281-.3536-.1281h-9.5c-.2761 0-.5.1959-.5.4375v2.625c0 .2416.2239.4375.5.4375h9.5c.1326 0 .2598-.0461.3536-.1281zm4.4778 7.2948.8571.75-.8571.75h-13.8314v-1.5zm.1686-1h-14.5c-.2761 0-.5.1959-.5.4375v2.625c0 .2416.2239.4375.5.4375h14.5c.1326 0 .2598-.0461.3535-.1281l1.5-1.3125c.1953-.1709.1953-.4479 0-.6187l-1.5-1.3125c-.0938-.082-.2209-.1281-.3535-.1281zm-2.1686-3.8333.8571.75-.8571.75h-11.8314v-1.5zm.1686-1h-12.5c-.2761 0-.5.1959-.5.4375v2.625c0 .2416.2239.4375.5.4375h12.5c.1326 0 .2598-.0461.3535-.1281l1.5-1.3125c.1953-.1709.1953-.4479 0-.6187l-1.5-1.3125c-.0938-.082-.2209-.1281-.3535-.1281z"/>
</svg>