<svg xmlns="http://www.w3.org/2000/svg" viewBox="0 0 24 24">
<path d="m11.565 4 1.8 1.5-1.8 1.5h-7.565v-3zm.059-1h-8.124c-.276 0-.5.155-.5.5v4c0 .345.224.5.5.5h8.124c.197 0 .39-.073.555-.21l2.124-1.77c.297-.247.297-.793 0-1.04l-2.124-1.77c-.164-.137-.357-.21-.555-.21zm3.539 7.5 1.8 1.5-1.8 1.5h-11.163v-3zm.059-1h-11.722c-.276 0-.5.155-.5.5v4c0 .345.224.5.5.5h11.723c.197 0 .39-.073.555-.21l2.124-1.77c.297-.247.297-.793 0-1.04l-2.124-1.77c-.164-.137-.357-.21-.555-.21zm3.039 7.5 1.8 1.5-1.8 1.5h-14.261v-3h14.262m.059-1h-14.821c-.276 0-.5.155-.5.5v4c0 .345.224.5.5.5h14.821c.197 0 .39-.073.555-.21l2.124-1.77c.297-.247.297-.793 0-1.04l-2.124-1.77c-.164-.137-.357-.21-.555-.21z"/>
</svg>