<svg id="Default" xmlns="http://www.w3.org/2000/svg" viewBox="0 0 24 24"><rect x="5" y="19" width="14" height="1"/><path d="M15,6a7.84,7.84,0,0,0,.53,2.66A7,7,0,0,1,16,11a7,7,0,0,1-.47,2.34A7.84,7.84,0,0,0,15,16v1h1V16a7,7,0,0,1,.47-2.34A7.84,7.84,0,0,0,17,11a7.84,7.84,0,0,0-.53-2.66A7,7,0,0,1,16,6V5h1L15.5,3,14,5h1Z"/><path d="M7,6a7.84,7.84,0,0,0,.53,2.66A7,7,0,0,1,8,11a7,7,0,0,1-.47,2.34A7.84,7.84,0,0,0,7,16v1H8V16a7,7,0,0,1,.47-2.34A7.84,7.84,0,0,0,9,11a7.84,7.84,0,0,0-.53-2.66A7,7,0,0,1,8,6V5H9L7.5,3,6,5H7Z"/><path d="M11,6a7.84,7.84,0,0,0,.53,2.66A7,7,0,0,1,12,11a7,7,0,0,1-.47,2.34A7.84,7.84,0,0,0,11,16v1h1V16a7,7,0,0,1,.47-2.34A7.84,7.84,0,0,0,13,11a7.84,7.84,0,0,0-.53-2.66A7,7,0,0,1,12,6V5h1L11.5,3,10,5h1Z"/></svg>