<svg id="Default" xmlns="http://www.w3.org/2000/svg" viewBox="0 0 24 24"><rect x="19" y="11" width="3" height="1"/><rect x="18.06" y="6.64" width="2.87" height="1" transform="translate(-0.96 10.7) rotate(-30)"/><rect x="18.99" y="14.39" width="1" height="2.87" transform="translate(-3.96 24.79) rotate(-60)"/><rect x="2" y="11" width="3" height="1"/><rect x="4.01" y="5.71" width="1" height="2.87" transform="translate(-3.93 7.47) rotate(-60)"/><rect x="3.07" y="15.33" width="2.87" height="1" transform="translate(-7.31 4.37) rotate(-30)"/><path d="M16.31,8a3.51,3.51,0,0,0,0,7c.14,0,.24,0,.27-.06A8.71,8.71,0,0,0,17,11.5a8.84,8.84,0,0,0-.43-3.44S16.45,8,16.31,8Zm-.46,5.91A2.39,2.39,0,0,1,14,11.5a2.39,2.39,0,0,1,1.84-2.4A16.11,16.11,0,0,1,16,11.5,17.3,17.3,0,0,1,15.85,13.91Z"/><path d="M7.69,8c-.14,0-.23,0-.26.06A8.84,8.84,0,0,0,7,11.5a8.71,8.71,0,0,0,.43,3.44s.13.06.27.06a3.51,3.51,0,0,0,0-7Zm.46,5.9A17.13,17.13,0,0,1,8,11.5a16.11,16.11,0,0,1,.16-2.4A2.39,2.39,0,0,1,10,11.5,2.37,2.37,0,0,1,8.15,13.9Z"/></svg>