<svg id="Default" xmlns="http://www.w3.org/2000/svg" viewBox="0 0 24 24"><path d="M14.85,9.26l-2,2A1.92,1.92,0,0,0,12,11a2,2,0,1,0,1.75,1.05l1.95-2ZM12,14a1,1,0,1,1,1-1A1,1,0,0,1,12,14Z"/><path d="M12,4A9,9,0,0,0,6,19.71L8.11,17.6l-.71-.71L6,18.28a8,8,0,0,1-1.59-2.73L6.33,15l-.25-1-1.91.51A7.5,7.5,0,0,1,4,13a8.22,8.22,0,0,1,.16-1.58l1.92.51.25-1-1.91-.51A8,8,0,0,1,6,7.72L7.4,9.11l.71-.71L6.72,7A8,8,0,0,1,9.45,5.42L10,7.33l1-.25-.51-1.92a7.88,7.88,0,0,1,3.16,0l-.51,1.92,1,.25.51-1.91A8,8,0,0,1,17.28,7L15.89,8.4l.71.71L18,7.72a8,8,0,0,1,1.59,2.73L17.67,11c.06.16.25,1,.25,1l1.92-.51A8.22,8.22,0,0,1,20,13a7.5,7.5,0,0,1-.17,1.58l-1.91-.51-.25,1,1.91.51A8,8,0,0,1,18,18.28L16.6,16.89c-.11.13-.71.71-.71.71L18,19.71A9,9,0,0,0,12,4Z"/></svg>