<svg xmlns="http://www.w3.org/2000/svg" viewBox="0 0 24 24">
<path d="m14,3h-4c-1.6569,0-3,1.3431-3,3v12c0,1.6569,1.3431,3,3,3h4c1.6569,0,3-1.3431,3-3V6c0-1.6569-1.3431-3-3-3Zm-4,17c-1.1028,0-2-.8972-2-2v-.1393l1.8418.614.3164-.9492-2.1582-.7194v-1.9453l1.8418.614.3164-.9492-2.1582-.7194v-1.9456l1.8418.6143.3164-.9487-2.1582-.7194v-1.9463l1.8418.614.3164-.9482-2.1582-.7194v-1.8065c0-.0463.0106-.0897.0137-.1353l1.8281.6094.3164-.9482-1.8336-.6112c.3569-.5491.9731-.9147,1.6754-.9147h1.5v16h-1.5Zm6-9.1935l-2.1582.7194.3164.9487,1.8418-.6143v1.9456l-2.1582.7194.3164.9492,1.8418-.614v1.9453l-2.1582.7194.3164.9492,1.8418-.614v.1393c0,1.1028-.8972,2-2,2h-1.5V4h1.5c.7023,0,1.3185.3656,1.6754.9147l-1.8336.6112.3164.9482,1.8281-.6094c.0031.0455.0137.0889.0137.1353v1.8065l-2.1582.7194.3164.9482,1.8418-.614v1.9463Z"/>
</svg>