<svg width="111" height="28" viewBox="0 0 111 28" fill="none" xmlns="http://www.w3.org/2000/svg">
<path d="M94.6964 20.9995H86.4152L78.9052 21C77.8582 21 76.9999 20.2134 76.9999 19.251C76.9999 18.2934 77.8599 17.5005 78.9057 17.5005H86.4152L94.6959 17.5C95.7423 17.5 96.6 18.2892 96.6 19.251C96.6 20.5026 95.7435 20.9995 94.6964 20.9995ZM78.7945 7.00052H86.7726L89.0582 7H94.6915C95.7403 7 96.5977 7.78708 96.6 8.74948C96.5977 9.71187 95.7403 10.4995 94.6915 10.4995H86.7726L89.0582 10.5H78.9084C77.8596 10.5 77.0022 9.71292 76.9999 8.75C77.0022 7.7876 77.7463 7.00052 78.7945 7.00052ZM110.6 18.3249C110.6 16.4392 108.749 14.2444 106.624 13.9055C106.624 13.9055 107.642 13.4339 108.221 12.5689C108.599 12.0066 108.92 11.1766 108.92 10.3368L108.918 3.78239C108.863 1.78005 107.176 0.0999446 105.197 0.0137855L84.8716 0L86.4343 0.000574394L69.0214 0.0143599C67.0416 0.100519 65.3549 1.7812 65.2997 3.78296L65.298 10.3374C65.2986 11.1771 65.6186 12.0071 65.996 12.5695C66.5763 13.4345 67.5943 13.9061 67.5943 13.9061C65.4686 14.245 63.6187 16.4397 63.6187 18.3255V0.0275709L55.5899 0.0781176L41.5173 2.4699L41.519 0.0511211H0.699951V8.28564H24.6261L6.95868 27.9948H23.7384L39.7024 10.4523L46.492 9.49302V27.9948H63.6187V24.1849C63.621 26.336 65.5795 28 67.507 28H84.2695L86.4349 27.9994H106.711C108.64 27.9994 110.6 26.3331 110.6 24.1797V18.3249Z" fill="#010205"/>
</svg>
