<svg  xmlns="http://www.w3.org/2000/svg" viewBox="0 0 89 35" width="100%" height="100%"><path class="cls-1" d="m73.45,8.94v16.64h14.63V2.42l-7.1.04-15.27,2.37v-2.41l-7.1.04-15.38,2.38c-.24-1.36-1.44-2.4-2.86-2.4H3.41c-1.6,0-2.91,1.31-2.91,2.91v8.45c0,1.6,1.92,2.91,3.52,2.91h25.48c2.35,0,2.09,2.91,0,2.91H.5v5.95h39.87c1.6,0,2.91-1.31,2.91-2.91v-12.69l7.8-1.02v16.64h14.63v-15.63l7.73-1.01h0Zm-62.2-.8h18.31c.89,0,1.62.73,1.62,1.62s-.73,1.62-1.62,1.62H11.25c-.89,0-1.62-.73-1.62-1.62s.73-1.62,1.62-1.62Z"/></svg>