<svg xmlns="http://www.w3.org/2000/svg" viewBox="0 0 217 35" width="100%" height="100%"><path d="m214.9,13.43c-.48-.74-.96-1.22-1.5-1.46-.56-.25-1.2-.28-2.07-.13-.75.13-1.79.41-3.16.86-1.76.62-3.94,1.48-6.55,2.56,1.03-1.17,2.05-2.33,3.08-3.5-1.97.21-3.94.42-5.91.63-1.93,2.19-3.86,4.38-5.79,6.58-4.53,1.88-10.88,3.05-18.5,3.15-.51,0-1.34.02-1.92,0-.64-.03-1.23-.1-1.78-.32,8.53-1.68,15.78-3.67,18.73-5.06.36-.17.69-.34.93-.5.25-.16.41-.32.5-.49.09-.17.1-.36.03-.59-.06-.23-.21-.51-.42-.85-.69-1.1-1.69-2.1-2.78-2.8-.42-.27-.85-.5-1.44-.6-.59-.11-1.2-.06-1.88.01-.92.11-1.85.25-2.97.51-4.75,1.13-10.52,3.38-14.49,6.27-.9.66-1.88,1.49-2.44,2.51-3.04.57-8.62,1.61-11.99,1.61-1.16,0-2.07-.14-2.31-.61-.11-.22-.06-.49.1-.79.16-.3.42-.6.66-.89,1.91-2.21,4.07-4.38,6.36-6.51,2.87-.35,5.67-.7,8.36-1.06.99-.13,1.9-.26,2.8-.68.92-.42,1.49-.98,2.06-1.67.49-.58.92-1.17,1.32-1.75-3.32.5-6.82.99-10.46,1.5,2.31-2,4.68-3.96,7-5.88-2.31.25-4.62.49-6.94.74-2.4,1.98-4.84,4.02-7.19,6.11-1.63.22-3.28.45-4.95.67-.92,1.11-1.85,2.22-2.77,3.32,1.32-.16,2.62-.32,3.92-.48-1.72,1.67-3.35,3.37-4.84,5.1-1.84.81-3.68,1.4-5.49,1.91-.19-1.02-1.32-1.85-2.53-2.4-1.94-.88-5.47-1.73-7.3-2.17-.32-.08-.63-.16-.88-.26-.24-.1-.38-.22-.38-.34,0-.13.14-.26.4-.39.27-.13.64-.25,1.09-.36,2.56-.65,7.42-1.11,11.67-.78.29-.26.62-.55.96-.93.15-.16.27-.31.33-.46.06-.15.07-.29,0-.41-.14-.27-.53-.41-1.05-.52-.98-.2-2.23-.31-4.12-.31-5.57,0-11.26,1.13-13.94,2.2-.71.29-1.28.6-1.67.94-.39.34-.58.71-.57,1.06,0,.36.22.69.57.99.36.3.83.52,1.32.71,2.28.87,6.91,1.66,8.86,2.32.4.14.73.28.97.44.24.16.36.34.37.51,0,.18-.11.35-.33.52-.11.08-.25.16-.4.23-.16.07-.33.14-.52.2-2.88.93-9.06.49-12.14-1.09-1.54.31-3.12.65-4.76.94-1.03.18-1.87.29-2.78.14-.88-.15-1.64-.54-2.43-1.08-.79-.54-1.67-1.29-2.77-2.37,5.5-2.67,10.82-4.87,15.14-6.18-.98-.23-2.04-.49-3.14-.69-.64-.12-1.4-.2-2.49-.09-1.04.11-1.94.36-2.89.66-2.66.85-5.79,2.14-9.12,3.69-1.06-1.14-2.27-2.51-3.69-4.14-4.54,1.2-5.95,1.42-11.24,1.84-.55-.49-1.36-.85-2.41-1.07-1.06-.22-2.28-.29-3.63-.27-5.97.09-13.17,1.94-17.91,4.74-.73.43-1.38.87-1.96,1.38-.57.5-1.03,1.04-1.35,1.62-1.55.33-3.11.64-4.69.92.97-1.05,1.11-2.08.67-2.96-.45-.89-1.46-1.57-2.75-2.12-1.98-.85-4.95-1.59-8.91-2.06,5.51-.52,10.03-1.37,13.07-2.44,1.52-.54,2.81-1.18,3.71-1.92.89-.73,1.31-1.5,1.2-2.23-.1-.74-.73-1.39-1.7-1.92-.99-.54-2.2-.89-3.25-1.12-9.02-2.04-26.46-1.03-33.21.35-.75.15-1.4.32-2.09.67-.68.34-1.24.78-1.74,1.2-.64.54-1.22,1.08-1.77,1.62,2.47-.3,4.86-.56,7.16-.79-4.89,4.61-9.79,9.21-14.68,13.81,2.73-.05,5.47-.1,8.2-.15,1.84-1.87,3.67-3.74,5.51-5.61,7.34.04,14.88.41,19.47,1.34,1.06.22,2.01.48,2.73.88.7.39,1.07.86,1.01,1.36-.05.49-.51.96-1.25,1.34-.77.4-1.67.63-2.48.82-7.33,1.65-17.73,1.85-38.91,1.65-.59,0-1.16,0-1.8.04-.63.05-1.22.15-1.79.31-1.18.33-1.98.84-2.71,1.38-.68.51-1.28,1.02-2,1.64,11.57.44,39.26,1.69,62.67-3.26.28.75.9,1.36,1.86,1.78.98.42,2.22.61,3.77.66,7.67.24,16.71-2.87,20.26-5.65,1.23-.96,2.29-2.28,2.52-3.61,2.36-.18,4.78-.4,7.12-.72.93,1.06,1.78,2.01,2.55,2.87-4.28,2.18-8.72,4.66-12.81,7.14,1.76,0,3.53,0,5.29-.08.96-.04,1.67-.11,2.38-.34.65-.21,1.21-.54,1.81-.88,1.91-1.09,3.87-2.15,5.82-3.17,1.4,1.44,2.54,2.48,3.59,3.29.74.57,1.34.94,2.16,1.09.79.14,1.78.06,3.12-.15,1.72-.27,4.38-.84,6.6-1.37,4.6,1.84,14.07,2.73,23.94-.89-.3.71-.26,1.36.32,1.82.28.22.68.38,1.18.49.51.11,1.08.15,1.74.18,5.74.22,13.4-1.21,18.01-2.29.34.69,1.05,1.25,2.15,1.63,1.1.39,2.5.57,4.13.65,5.22.24,12.87-.64,19.19-2.34-.69.79-1.39,1.58-2.08,2.37.9,0,2.1,0,3.3-.02h-.25c.72-.01,1.42-.05,2.19-.43.37-.18.72-.42,1.05-.72.34-.31.63-.63.93-.97,1.1-1.24,2.19-2.49,3.29-3.73,2.93-1.1,6.82-2.36,9.11-2.94.93-.24,1.7-.4,2.29-.26.6.14,1.1.61,1.46,1.68,1.57-.17,3.3-.36,5.35-.58-.42-1.24-1.01-2.58-1.6-3.5Zm-184.29-.92c2.05-2.09,4.11-4.18,6.16-6.27,7.55-.52,13.48-.56,17.14-.09,1.12.14,1.99.33,2.58.57.59.24.89.52.89.82,0,.31-.31.63-.87.95-.57.32-1.35.63-2.26.91-3.99,1.24-12.08,2.64-23.64,3.11Zm52.75,6.11c-1.91,1.41-6.83,3.05-10.56,3-.92-.01-1.62-.13-2.13-.36-.5-.23-.77-.57-.83-.97-.06-.4.11-.85.44-1.3.34-.45.82-.87,1.36-1.23,2.38-1.58,6.76-2.69,10.2-2.71.62,0,1.25.03,1.79.21.53.17.9.46,1.05.84.31.8-.37,1.82-1.33,2.53Zm87.14,1.09c.4-.41,1.12-.9,2.05-1.4,2.82-1.54,7.49-3.3,10.36-3.93.57-.13.93-.18,1.23-.16.31.02.58.12.89.32.19.12.37.25.54.4.24.22.32.35.23.48-.09.14-.34.26-.75.41-2.71,1.03-9.75,2.73-14.55,3.88Z"/></svg>