<svg width="220" height="24" viewBox="0 0 220 24" fill="none" xmlns="http://www.w3.org/2000/svg">
<path fill-rule="evenodd" clip-rule="evenodd" d="M53.1974 0.00162761C74.4148 -0.133291 78.8034 8.15648 55.1328 11.1679C66.2699 12.2291 66.607 17.0885 60.7325 20.059C60.6532 20.0995 60.5769 20.1403 60.4956 20.1796C60.7376 20.1584 60.9887 20.1411 61.2256 20.1168C62.3058 20.0224 63.3552 19.8851 64.4073 19.6993C64.6985 19.6484 64.9901 19.5999 65.284 19.5401C65.4339 19.5101 65.5888 19.4727 65.7398 19.4403C66.1663 18.3598 67.2249 17.1771 68.7774 16.0064C71.182 14.1931 74.77 12.4118 78.8466 11.1197C82.9235 9.82754 86.7246 9.24816 89.6643 9.31716C91.8428 9.36882 93.5493 9.7809 94.4142 10.5542C95.2533 10.9481 98.0654 10.9496 100.866 10.7994L101.216 10.7799C104.129 10.6107 106.939 10.288 107.405 10.0839L108.853 12.5537C110.724 11.8467 112.875 10.9551 113.832 10.627C115.247 10.1425 116.804 9.68992 118.098 9.43782C118.871 9.28748 120.015 9.20306 121.207 9.15754L121.446 9.14895C121.606 9.14355 121.766 9.13882 121.926 9.13468L122.165 9.12891C124.315 9.08089 126.337 9.1356 126.337 9.1356C122.268 10.6347 115.546 13.3524 111.024 15.577C111.251 15.9432 111.427 16.2326 111.601 16.5125L111.717 16.6986C111.95 17.0708 112.197 17.453 112.568 18.0055C113.058 18.7063 113.689 19.367 116.35 19.4935C116.796 19.5151 118.199 19.3659 118.199 19.3659C118.199 19.3659 118.656 19.6531 119.272 19.7595C121.065 20.0686 123.064 20.3014 126.857 20.2486C133.157 20.1604 135.516 19.7363 136.549 19.2298C138.001 18.5186 135.599 18.0896 131.356 16.9836C131.017 16.8947 130.275 16.7075 129.513 16.52L129.259 16.4576C128.751 16.3333 128.254 16.2137 127.881 16.1278C124.029 15.2397 124.682 13.645 124.698 13.6083C126.004 10.6636 138.55 8.25478 146.42 9.77203C148.212 10.1429 147.09 11.0869 146.007 12.177C143.195 11.9939 140.693 12.0275 138.504 12.2326C136.744 12.3289 134.955 12.6315 133.093 13.197C131.485 13.7348 130.985 13.9973 133.153 14.4387C140.772 15.9922 144.33 18.0807 143.413 19.8755C143.368 19.9645 143.305 20.0567 143.214 20.165C144.927 20.1095 146.245 20.0544 148.673 19.6793C149.116 18.9334 149.845 18.0579 150.86 17.0364C153.135 14.3951 156.454 11.1239 160.027 7.83229C157.214 7.96782 155.704 8.03235 154.152 8.14897L153.919 8.16687C153.334 8.21267 152.734 8.26667 152.048 8.33534C152.311 8.02611 152.335 8.02193 152.646 7.7093L152.718 7.63736C152.844 7.50885 153.013 7.3354 153.247 7.08908C154.18 6.10765 154.846 5.44115 156.852 5.20639C158.352 5.03061 160.631 4.88644 163.52 4.65785C164.714 3.60549 165.885 2.58242 167.004 1.58364C168.76 1.47262 170.834 1.34542 172.81 1.33154C171.926 2.12833 170.832 3.11901 169.587 4.25541C172.651 4.14401 177.252 3.93662 180.559 4.13244C179.568 5.08227 179.175 5.47199 178.231 6.3C176.829 7.62991 176.049 7.48381 174.891 7.53123C173.764 7.5493 172.917 7.55242 172.144 7.5534L171.914 7.55364C171.876 7.55368 171.838 7.55371 171.8 7.55374L171.574 7.55393C171.424 7.55407 171.275 7.55426 171.125 7.55459L170.899 7.5552C169.652 7.55931 168.294 7.57674 165.891 7.66499C162.633 10.6802 159.32 14.121 156.975 16.3815C152.311 20.877 153.937 20.3084 159.971 20.005C162.22 19.8913 164.328 19.638 166.569 19.3624C167.005 17.3228 171.341 13.7837 179.098 10.9755C180.078 10.6209 181.421 10.1837 182.39 9.95436C184.018 9.56811 187.8 8.57511 189.822 10.4805C190.48 11.0992 190.695 11.6123 191.16 12.5035C191.167 12.5174 191.354 12.9711 191.413 13.17C191.541 13.6064 191.367 14.2309 190.753 14.5682C189.417 15.3018 186.033 16.4792 182.443 17.6028L182.036 17.7298C181.9 17.772 181.764 17.8141 181.628 17.8561L181.219 17.9816C178.424 18.8364 175.631 19.6253 173.694 20.118C174.289 20.2421 175.028 20.3199 175.872 20.3554C180.384 20.5455 187.934 19.544 193.076 17.9959L198.982 10.6787L205.201 10.0025L202.404 13.3505C204.88 12.3929 211.696 9.78475 215.45 9.68992C216.505 9.66333 217.132 9.83294 217.725 10.2971C218.017 10.526 218.928 12.0849 219.113 12.4839C219.903 14.192 218.541 14.606 217.768 14.7983L213.376 15.7867C213.203 15.8314 212.912 15.7597 212.807 15.4903C212.268 14.1095 211.202 13.9221 210.502 14.0621C209.271 14.3153 207.843 14.5701 206.612 14.9344C204.779 15.454 201.381 16.5646 198.933 17.5595L195.119 21.454L194.955 21.6024C194.102 22.3653 193.18 23.0538 191.873 23.0538H188.829L190.404 21.2258C186.772 22.0195 182.737 22.9108 179.41 23.1478C176.979 23.3202 175.12 23.365 174.207 23.3678L174.041 23.3678C173.904 23.3674 173.796 23.3659 173.72 23.3637C171.255 23.2936 168.095 22.9335 166.992 21.9667C162.311 22.6232 157.967 22.9027 155.739 23.0472C151.933 23.2936 149.901 23.0962 148.86 22.4112C144.525 22.7658 141.385 22.7805 137.932 22.5978C135.703 22.8834 133.296 23.1012 131.508 23.2612C123.245 24.0021 117.337 22.7196 117.337 22.7196L117.312 22.7223C117.009 22.7541 114.11 23.0585 113.174 23.1293C111.228 23.2762 109.854 22.5172 109.154 21.6009C108.852 21.2071 108.48 20.6882 108.111 20.1629L107.995 19.9969C107.242 18.9186 106.54 17.866 106.54 17.866C106.093 18.0973 105.643 18.3322 105.193 18.5682L104.653 18.8518C102.224 20.1288 99.8327 21.4091 98.0176 22.3048C96.8261 22.8938 95.4663 23.0129 93.3028 23.0226L88.9863 23.0411C95.5626 19.1003 99.1718 17.1363 104.374 14.6249C104.374 14.6249 104.036 14.0806 103.593 13.369C100.333 13.9133 97.164 13.882 94.8245 13.6916C94.4704 14.53 93.7335 15.6984 92.6144 16.595C90.4001 18.3694 87.282 20.2787 83.2008 21.6626C79.1201 23.0476 74.8425 23.6228 71.7105 23.6135C69.6722 23.6069 67.9772 23.1891 66.8805 22.5064C66.8751 22.5072 66.8685 22.5079 66.8631 22.5087C66.5526 22.3422 66.3173 22.1402 66.1343 21.9282C63.2539 22.4436 57.2408 23.0021 50.7388 23.3961C44.9692 23.7573 38.7327 23.9813 33.9119 23.9149C33.6815 23.9134 33.4542 23.9115 33.2304 23.9092C30.3539 23.9735 27.3645 24.0021 24.3489 23.9999C15.8217 23.994 7.10201 23.7453 0.244873 23.3772L2.91569 21.3812C3.93887 20.6306 5.32069 20.148 6.72024 20.0563C8.04082 20.106 9.40686 20.1361 10.8796 20.1704L17.4944 20.2806C19.1875 20.2999 20.8914 20.3076 22.5891 20.3049L23.0524 20.3051C29.9997 20.3043 36.8637 20.1232 42.4016 19.7518C62.9935 18.3698 58.836 12.9457 35.5738 13.0301C34.9042 13.032 34.2208 13.0386 33.5197 13.0502C32.8201 13.0621 29.3839 13.2348 28.6365 13.2506C26.7392 14.5643 22.8072 17.2403 20.9677 18.5475L13.9071 18.615C13.9114 18.6119 13.9156 18.608 13.9199 18.6053C15.0243 17.7588 16.4555 16.6818 18.0311 15.5061C19.5242 14.3916 21.1457 13.1889 22.7494 12.0036C22.8493 11.9297 22.9491 11.856 23.0488 11.7823L23.3475 11.5617C28.1198 8.03714 32.5389 4.80819 32.5389 4.80819C32.4792 4.81436 32.0181 4.8637 31.3532 4.93424C29.7213 5.10694 26.829 5.40877 25.3882 5.5248C25.3593 5.52981 25.3759 5.49627 25.4221 5.43884C25.4545 5.39859 25.5034 5.34492 25.5665 5.28028L25.6489 5.1976C25.9899 4.86171 26.6114 4.31462 27.2822 3.796L27.4581 3.66151C27.7527 3.43896 28.0529 3.22574 28.3395 3.04153C29.714 2.15724 31.1032 1.85155 33.705 1.39745C37.012 0.819434 41.3194 0.535119 45.6093 0.304861L46.3239 0.266945C47.2761 0.216947 48.2246 0.168961 49.1582 0.120356C50.5659 0.047115 51.9111 0.0097227 53.1974 0.00162761ZM89.6266 12.9872C89.3728 12.3253 88.1808 12.0713 86.4524 12.1869C84.7116 12.303 82.4318 12.7955 79.9772 13.6561C77.5222 14.516 75.3517 15.5861 73.8748 16.6102C72.3867 17.6423 71.5845 18.6296 71.8353 19.3197C72.0852 20.0098 73.3482 20.2646 75.1668 20.1215C76.9785 19.9792 79.4816 19.5016 81.9369 18.6147C84.3931 17.7269 86.3416 16.5989 87.7491 15.5927C89.143 14.596 89.8805 13.6487 89.6266 12.9872ZM185.068 12.6526C184.62 12.2656 183.587 12.6219 182.889 12.8227C178.253 14.1516 173.875 16.5191 172.081 18.5599C175.287 17.6271 182.174 15.3182 185.708 13.911C185.82 13.8602 185.846 13.7886 185.776 13.6287C185.7 13.4566 185.47 13.0011 185.068 12.6526ZM51.3459 3.51998L50.8061 3.52123C49.9304 3.5252 49.0177 3.53947 48.0682 3.56483C45.4709 3.63499 42.9297 3.67145 41.383 3.77212C41.383 3.77212 38.9967 5.3911 36.7235 6.94267L36.5173 7.08349C35.5224 7.76277 34.5641 8.41916 33.8542 8.90962C33.831 8.92547 33.804 8.9441 33.7816 8.95996C34.5584 8.90328 37.8266 8.82044 38.6374 8.79507C70.8355 7.77368 68.9636 3.43562 50.8061 3.52123L51.3459 3.51998Z" fill="#010205"/>
</svg>
