<svg width="221" height="32" viewBox="0 0 221 32" fill="none" xmlns="http://www.w3.org/2000/svg">
<path fill-rule="evenodd" clip-rule="evenodd" d="M62.9963 0C64.5955 0.0825747 64.8038 0.30521 65.3312 1.66684C65.4142 1.87973 65.5915 2.23975 65.14 2.30892C65.058 2.32135 64.9774 2.33206 64.8959 2.34205C64.2 2.42774 63.4585 2.51875 62.7277 2.60868L62.4154 2.64713C60.8066 2.8453 59.2897 3.0337 58.4756 3.14295C45.1626 4.93012 40.2633 5.98752 28.1941 9.36431C21.4402 11.2538 16.5695 13.0329 13.6542 14.3712C5.4291 18.1469 13.9878 19.9475 43.1298 18.4397C45.8406 18.2288 48.7696 17.9752 51.9052 17.66C53.4161 15.5601 57.4758 13.5288 63.726 11.7619C70.3118 9.90019 78.3821 9.34312 82.6286 9.44567L77.7093 15.0581C77.534 15.2585 77.4373 15.4685 77.3986 15.5574C77.2591 15.8777 77.3317 16.2565 77.4801 16.6426C77.6475 17.0781 77.8457 17.5022 77.9919 17.7838C78.2038 18.1915 78.5872 18.3223 79.1924 18.1413C80.7446 17.6325 83.3513 16.6379 85.3693 15.7472C86.1002 14.9113 87.2741 13.675 88.3166 12.6149L88.489 12.44C89.4295 11.4879 90.2328 10.7108 90.4564 10.553C92.5671 10.1974 94.0711 10.184 96.9861 9.88217C95.3307 11.5485 92.4719 14.539 90.9405 16.5108C90.8763 16.5935 90.8071 16.6825 90.7389 16.7735L90.688 16.8421L90.6381 16.9111C90.293 17.3944 90.0577 17.8776 90.7953 17.7611C93.5994 17.3178 98.3929 15.5089 100.656 14.3188L105.22 9.87705L111.817 9.27759C111.232 9.78565 110.639 10.3051 110.043 10.8316L109.644 11.1837C109.445 11.3602 109.245 11.5374 109.046 11.7152L108.646 12.0713L108.246 12.4287C107.913 12.7268 107.58 13.0259 107.248 13.3252L106.85 13.6844C101.88 18.1746 97.1714 22.6455 95.1414 24.6742C99.0423 22.6644 102.846 21.2831 107.588 19.7789C107.027 16.703 112.392 12.8117 123.061 10.0327C125.27 9.45711 130.074 8.41555 131.596 9.99007C132.193 10.6105 132.462 10.9191 133.001 11.8026C133.137 12.0201 133.218 12.2008 133.291 12.4493C133.419 12.8814 133.222 13.503 132.582 13.8358C131.014 14.6514 127.324 15.9552 123.558 17.1251L123.169 17.2456C120.765 17.9855 118.359 18.6621 116.483 19.114C120.275 19.6713 129.161 19.1393 135.4 17.4213L141.537 10.3128L148.021 9.66733L144.821 13.2921C147.652 12.3255 161.075 7.58859 162.157 9.96352L162.567 10.8874C162.699 11.1817 162.722 11.6289 162.385 12.0206L158.689 16.2809C156.821 18.2707 157.611 18.4848 158.884 18.1696C160.638 17.8634 162.541 17.4481 164.398 16.9643L170.284 10.3128L176.768 9.66733L173.568 13.2921C173.936 13.1664 174.483 12.9771 175.158 12.7479L175.479 12.6394C180.148 11.0645 189.984 7.94483 190.904 9.96352L191.314 10.8874C191.445 11.1817 191.469 11.6289 191.132 12.0206L187.916 15.7311C187.873 15.7815 186.996 16.7912 186.959 16.8343C185.327 18.6984 185.463 19.1142 186.333 19.0623C187.632 18.9756 189.804 18.7518 191.08 18.5776C192.026 15.7562 197.274 12.5572 206.418 10.1754C208.627 9.59985 213.415 8.57486 214.953 10.1328C215.583 10.7695 215.88 11.0631 216.377 11.9719C216.49 12.1794 216.56 12.3869 216.626 12.5996C216.76 13.0297 216.579 13.6458 215.939 13.9785C214.479 14.7379 211.179 15.9205 207.693 17.0241L207.305 17.1463C207.24 17.1667 207.175 17.1869 207.11 17.2072L206.721 17.3282C204.252 18.0915 201.767 18.7927 199.841 19.2567C203.488 19.7928 211.85 19.321 218.083 17.7489C218.562 17.624 218.92 17.6249 219.137 17.7158C219.628 17.9211 220.156 18.836 220.224 19.0048C220.273 19.1293 220.242 19.2372 220.07 19.3166C218.651 19.9344 217.41 20.3226 215.955 20.6612C212.201 21.5335 206.461 22.1858 202.998 22.3897C200.959 22.5097 199.307 22.5403 198.245 22.5422L198.086 22.5423C197.598 22.5419 197.253 22.5355 197.074 22.53C195.119 22.4693 192.625 22.2489 191.631 20.7962C186.303 21.7395 181.812 22.103 180.146 22.0954C179.78 22.0937 179.38 22.0818 179.172 22.0608C177.689 21.9113 177.205 21.3554 177.817 20.3348C179.019 18.3284 181.498 15.6509 183.302 13.7588C183.422 13.5953 183.405 13.5145 183.258 13.5164C181.258 13.7659 176.15 14.6968 170.271 16.9563L166.791 20.2861C165.882 21.0687 164.849 21.588 163.538 21.6609L160.393 21.7028L162.049 19.7027C158.563 20.613 154.695 21.6777 151.502 21.8867C149.199 22.0372 148.339 21.5756 149.083 20.3348C150.285 18.3284 152.784 15.6707 154.562 13.7588C154.697 13.6134 154.658 13.5145 154.511 13.5164C152.511 13.7659 147.403 14.6968 141.524 16.9563L138.044 20.2861C137.135 21.0687 136.102 21.6307 134.791 21.7037L131.646 21.7028L132.875 20.4831C129.065 21.3393 123.314 22.0192 119.852 22.2233C117.812 22.3435 116.16 22.3791 115.098 22.3811L114.864 22.3811C114.416 22.3798 114.097 22.3722 113.928 22.3634C111.988 22.262 110.479 21.9471 109.227 21.4507C105.528 22.5334 95.9118 26.137 91.9399 28.336C89.9821 29.4197 88.7918 30.4036 87.1551 31.3102L84.1806 32C88.4964 27.2942 92.8074 22.777 96.7458 18.808C94.0785 20.053 88.9342 21.4874 85.4513 22.0577C81.6927 22.673 81.1271 21.8523 82.5086 19.7877C82.535 19.7483 82.8766 19.1863 83.2039 18.7676C82.6981 19.0059 82.1645 19.2459 81.6216 19.4813L81.3494 19.5986C78.7127 20.7282 75.9303 21.7265 75.0945 21.8862C74.3162 22.035 73.6569 21.8538 73.3526 21.4697C72.7278 20.3623 72.2323 19.3405 71.696 18.1418C71.5216 18.2237 71.3429 18.306 71.1717 18.383C70.1245 18.8543 69.1201 19.2618 68.0926 19.655C58.7303 23.1691 53.2074 22.7453 51.6512 20.8244C46.6406 21.4716 41.7981 22.0265 36.9199 22.4625C27.2799 23.2636 20.8641 23.6147 11.6353 23.1672C-12.2341 22.0094 2.13115 6.99717 47.9762 1.36942C54.4123 0.579484 58.9891 0.112779 61.8647 0.0214358C62.2567 0.014859 62.6295 0.0017051 62.9963 0ZM75.4237 12.1481C71.2654 12.6243 67.3136 13.7003 63.3742 15.1458C57.1146 17.5615 56.2419 19.6464 62.5752 18.1784C63.5237 17.9367 64.7204 17.6108 66.1011 17.1619C70.0773 15.8515 72.9938 14.4475 75.4237 12.1481ZM211.082 12.6414C210.576 12.2206 209.493 12.568 208.762 12.8148C203.825 14.4821 199.135 16.5927 197.225 18.3704C200.639 17.4141 207.926 15.1161 211.689 13.6744C211.805 13.6302 211.82 13.5176 211.761 13.3847C211.684 13.2084 211.51 12.9981 211.082 12.6414ZM127.455 12.3451C126.949 11.9243 125.866 12.2717 125.135 12.5185C120.198 14.1858 115.506 16.2961 113.596 18.0741C117.011 17.1178 124.299 14.8198 128.063 13.3781C128.178 13.334 128.187 13.2213 128.135 13.0887C128.066 12.9085 127.884 12.7018 127.455 12.3451Z" fill="#010205"/>
</svg>
