<svg width="256" height="40" viewBox="0 0 256 40" fill="none" xmlns="http://www.w3.org/2000/svg">
<path fill-rule="evenodd" clip-rule="evenodd" d="M255.109 25.4872C255.042 25.2771 254.479 24.1272 253.893 23.8286C253.499 23.6903 253.073 23.6692 252.667 23.7678C251.084 24.0944 249.482 24.327 247.872 24.4644C245.889 24.5805 245.734 24.0553 246.623 22.8832C248.341 20.6109 250.811 17.9793 252.772 15.6959C252.94 15.5046 253.05 15.2697 253.09 15.0182C253.13 14.7668 253.098 14.5091 252.998 14.2751C252.844 13.8991 252.661 13.5121 252.479 13.1196C251.092 10.1507 234.249 16.0166 230.686 17.2163L235.149 12.2405L228.023 12.3898L221.068 20.2681C219.024 21.1693 217.753 21.7277 215.814 22.4796C213.682 23.3642 213.212 22.9772 212.549 21.9931C212.036 21.2301 211.815 20.1078 212.433 19.3559L218.184 12.3068C213.212 12.1797 203.396 12.9316 195.678 15.2315C188.375 17.443 183.1 20.2073 181.696 23.6241C179.205 24.0663 175.912 24.5308 175.067 24.5805C173.051 24.6966 172.891 24.1603 173.797 22.9717C175.636 20.5446 178.31 17.7139 180.343 15.2979C180.514 15.104 180.627 14.8658 180.669 14.6105C180.711 14.3553 180.68 14.0934 180.58 13.8549C180.42 13.4516 180.236 13.0584 180.028 12.6773C178.813 10.3442 166.383 14.3359 160.025 16.4091L160.533 15.8563C160.705 15.663 160.819 15.4248 160.861 15.1693C160.903 14.9138 160.872 14.6516 160.77 14.4133C160.605 13.9876 160.422 13.6116 160.218 13.2357C158.804 10.3497 147.302 15.6185 143.059 17.161L147.744 12.047L140.684 12.1852C140.611 12.1884 140.539 12.2062 140.472 12.2375C140.406 12.2688 140.346 12.3131 140.297 12.3677L137.287 15.8728C133.42 17.2163 128.95 18.6372 121.123 21.9544C125.056 18.3829 127.266 16.3428 132.05 12.2516L124.448 12.5999L118.858 17.9793C116.095 19.4167 110.218 21.6061 106.782 22.1424C105.616 22.3248 106.428 21.3075 106.958 20.633C109.159 17.9522 111.499 15.3889 113.969 12.9537C110.56 13.0809 109.24 13.114 106.594 13.2301C106.041 13.7332 101.622 18.0954 99.7823 20.0415C97.9261 20.8708 96.7108 21.4292 94.8104 22.1811C92.678 23.0601 92.2085 22.6731 91.5456 21.689C91.0318 20.9316 90.8108 19.8037 91.4296 19.0574L97.1803 12.0083C92.2085 11.8811 82.3918 12.6275 74.6744 14.933C67.3547 17.1168 63.0734 19.6268 61.3167 22.2253C57.643 22.6178 53.7871 22.7782 50.6106 23.0712C16.4816 24.9343 6.88041 22.6455 16.5148 17.9737C21.8077 15.3425 27.3504 13.2477 33.06 11.7208C47.2629 7.8839 52.8645 6.68417 68.5259 4.27367C69.9567 4.02488 76.3704 3.20111 76.4422 3.20111C76.9017 3.06746 77.2953 2.76804 77.547 2.36075C78.9668 0.702142 79.2043 0.0276434 77.304 0C76.8565 0 76.4532 0 75.9947 0C72.6249 0.110574 63.7087 0.868003 56.1681 1.84658C2.47203 8.80719 -14.1726 27.2785 13.6311 28.9869C24.4311 29.6614 31.9551 29.1085 43.2468 28.1133C48.9589 27.5605 55.1184 26.8915 60.9852 26.0898C62.8082 28.4672 68.7966 29.1196 79.7678 24.7685C80.9776 24.2875 81.8946 23.9281 83.121 23.3421L84.4137 22.7063C84.6347 23.226 85.1484 24.2267 85.4026 24.7132C86.5074 26.7865 87.4134 28.1244 90.4131 27.085C92.0704 26.4768 94.501 25.4927 96.6334 24.5308C94.9264 27.0463 95.6169 28.0415 100.224 27.2951C104.489 26.604 110.792 24.868 114.035 23.3642C109.212 28.1686 103.268 34.2999 97.9813 40L102.196 38.9385L110.262 31.6959C116.951 26.5616 124.682 22.9537 132.911 21.1251L128.641 25.8963L126.984 27.7263L130.392 27.754H130.442C131.996 27.6397 133.466 27.0025 134.613 25.9461L138.745 21.9654C143.013 20.3419 147.383 19.001 151.827 17.9516C152.014 17.9516 152.042 18.0401 151.909 18.2557C149.414 21.2483 147.099 24.3868 144.976 27.6545L149.131 27.6158C149.866 27.6142 150.593 27.4578 151.264 27.1568C151.935 26.8558 152.535 26.417 153.025 25.8687L157.29 21.0809C157.504 20.8708 157.766 20.7154 158.052 20.6275C164.129 18.7146 167.996 17.7526 170.128 17.454C170.316 17.454 170.338 17.5536 170.195 17.7636C167.682 20.3413 165.423 23.1555 163.45 26.1672C162.494 27.7484 163.649 28.0415 166.571 28.1465C169.084 28.2176 171.598 28.0641 174.084 27.6876C176.73 27.3172 179.685 26.8086 181.962 26.3386C183.785 28.716 189.812 29.4236 200.772 25.0726C201.982 24.5916 202.899 24.2267 204.125 23.6462L205.418 23.0048C205.639 23.5245 206.169 24.5308 206.406 25.0117C207.456 27.1126 208.417 28.4285 211.417 27.3836C212.317 27.0518 213.466 26.604 214.676 26.1009C214.782 26.0748 214.893 26.0806 214.995 26.1174C215.098 26.1542 215.187 26.2205 215.252 26.3079C215.317 26.3953 215.354 26.4999 215.36 26.6087C215.366 26.7174 215.339 26.8254 215.284 26.9191C215.221 26.9953 215.181 27.088 215.168 27.1862C215.156 27.2844 215.172 27.384 215.214 27.4735C215.257 27.5629 215.324 27.6384 215.408 27.691C215.491 27.7436 215.588 27.7712 215.687 27.7706H217.991H218.041C219.567 27.6543 221.01 27.0295 222.14 25.9959L226.703 21.5066C231.934 19.7344 237.309 18.4192 242.767 17.5757C242.955 17.5757 243.01 17.6918 242.834 17.8798C240.385 20.3952 238.187 23.143 236.271 26.0843C235.326 27.6379 236.464 27.9254 239.337 28.0249C241.807 28.0998 244.279 27.9499 246.723 27.5771C247.761 27.4333 249.612 27.1403 249.75 27.1182C251.484 26.8136 253.197 26.3962 254.876 25.8687C255.114 25.7692 255.158 25.642 255.109 25.4872ZM78.0994 21.396C76.4422 21.9489 75.1882 22.2861 74.0502 22.5847C66.4488 24.387 67.5536 21.7664 75.0721 18.803C79.7331 16.9381 84.6142 15.6802 89.5955 15.0601C86.6787 17.8798 82.8724 19.7871 78.0994 21.396ZM210.61 15.3642C207.694 18.1838 203.887 20.0912 199.114 21.7001C197.457 22.2529 196.203 22.5902 195.065 22.8887C187.48 24.7132 188.585 22.0926 196.087 19.1237C200.747 17.2582 205.626 15.9949 210.605 15.3642H210.61Z" fill="#010205"/>
</svg>
