<svg xmlns="http://www.w3.org/2000/svg" viewBox="0 0 208 35" width="100%" height="100%"><path d="m206.93,20.55c-.07-.22-.17-.45-.42-.56-.25-.11-.54-.04-.81.03-2.3.64-4.07.91-5.33.95-.74.02-1.33-.03-1.5-.27-.08-.12-.07-.28.05-.49.11-.21.31-.46.57-.76,1.37-1.63,3.02-3.35,3.97-4.73.16-.24.29-.43.33-.63.04-.19,0-.41-.07-.63-.15-.54-.36-.92-.68-1.23-.15-.15-.31-.26-.51-.34-.21-.08-.38-.1-.6-.1-1.25,0-3.18.37-5.7,1.08-2.36.66-5.79,1.78-10.31,3.37,1.15-1.26,2.38-2.6,3.96-4.34-1.97.21-3.95.41-5.92.62-1.84,2.09-3.72,4.23-5.3,6.02-1.9.69-3.43,1.29-5.15,1.69h0c-.34.08-.58.12-.79.03-.2-.09-.35-.28-.48-.5-.12-.2-.22-.44-.31-.69-.04-.13-.1-.31-.13-.48-.03-.18-.04-.34,0-.51.07-.34.31-.64.54-.91,1.53-1.81,3.42-3.7,5.1-5.5-11.29-.38-20.49,1.93-27.03,5-.84.39-1.76.87-2.63,1.55-.84.67-1.49,1.44-1.8,2.24-1.11.27-2.15.45-3.17.53-.39.03-.97.07-1.38.06-.43-.01-.72-.08-.81-.24-.09-.17.02-.43.26-.77.23-.32.59-.75.84-1.04,1.24-1.45,2.26-2.61,3.26-3.93.15-.19.27-.36.3-.57.03-.19-.02-.39-.09-.6-.14-.41-.35-.79-.72-1.12-.15-.14-.31-.24-.5-.31-.2-.07-.37-.09-.58-.09-.64,0-1.42.11-2.33.31-.89.19-2.04.5-3.07.8-2.37.7-4.66,1.56-6.97,2.43.36-.51.61-.91.75-1.19.08-.15.14-.28.15-.42,0-.13-.03-.29-.08-.43-.12-.37-.28-.69-.64-.99-.16-.14-.33-.24-.53-.3-.21-.07-.39-.08-.61-.08-.58,0-1.39.13-2.37.35-1.05.24-2.12.56-3.57,1.02-2.18.7-4.3,1.43-6.36,2.19l-.02.03c1.11-1.22,2.31-2.53,3.84-4.2-1.97.21-3.95.42-5.92.63-2.07,2.36-4.2,4.78-5.89,6.69-4.34,1.65-9.6,4.13-13.85,6.36,5.69-5.86,10.09-10.15,14.63-13.94-2.25.19-4.49.39-6.74.58-1.51,1.64-3.03,3.28-4.54,4.92-2.69,1.11-6.22,2.28-8.06,2.73-.39.1-.74.16-1.05.18-.3.02-.53-.02-.67-.12-.14-.1-.18-.26-.11-.49.07-.23.24-.5.5-.86,1.03-1.43,3.04-3.66,5.74-6.36-1.92.21-3.84.41-5.76.62-1.75,1.84-3.48,3.78-5.19,5.82-1.76.65-3.23,1.14-4.86,1.58-.34.09-.57.14-.79.04-.2-.09-.35-.3-.48-.52-.12-.2-.22-.44-.3-.69-.04-.13-.1-.31-.13-.48-.03-.18-.04-.34,0-.51.07-.34.31-.64.54-.91,1.53-1.81,3.42-3.7,5.1-5.5-11.29-.38-20.49,1.93-27.03,5-.59.28-1.24.6-1.89,1.02-.65.42-1.24.9-1.71,1.45-18.32,2.13-32.9,2.62-41.13,1.57-.56-.07-1.3-.18-1.99-.43-.67-.24-1.21-.59-1.38-1.04-.17-.46.04-.99.75-1.58.72-.61,1.87-1.22,3.48-1.9,9.64-4.11,29.89-8.48,47.51-10.43.34-.41.6-.77.8-1.08.41-.67.54-1.17.22-1.47-.31-.29-.97-.31-1.46-.32-9.67-.03-33.46,3.51-48.54,9.27-3.81,1.44-6.46,2.8-8.28,4.18-1.79,1.36-2.74,2.72-2.89,3.96-.15,1.24.5,2.38,2.11,3.26,1.63.9,4.24,1.55,8.43,1.92,9.53.84,23.92,0,41.71-2.41.42.71,1.28,1.21,2.36,1.48,1.1.28,2.21.29,3,.26,5.4-.22,10.77-2.28,14.95-4.5.34.84.62,1.56,1.08,2.43.31.6.7,1.24,1.25,1.53.55.29,1.14.16,1.61.04,1.74-.44,3.47-1.09,5.38-1.77-.19.35-.4.73-.48,1.1-.08.37-.01.68.27.89.28.22.77.32,1.43.31.68,0,1.46-.12,2.29-.28,2.86-.54,6.79-1.62,9.84-2.78-3.75,4.14-7.59,8.37-11.43,12.64,1.01-.1,2.03-.21,3.04-.31,4.68-3.8,11.67-7.46,19.25-10.48-.35.4-.71.81-1.06,1.21.83,0,1.69,0,2.51,0,.93,0,1.72,0,2.53-.31.39-.15.74-.35,1.07-.61.34-.27.61-.56.91-.88.89-.96,1.88-2.03,2.84-3.07,3.17-1.17,5.88-2.08,7.86-2.62.65-.17,1.17-.29,1.47-.34.32-.05.49-.05.54.03.05.08-.01.24-.17.5-.15.24-.41.64-.73,1.09-1.48,2.12-3.1,4.1-4.75,6.21.9,0,1.82,0,2.69,0,.37,0,.74,0,1.18-.07.43-.06.84-.18,1.22-.35.38-.17.71-.39.98-.63.28-.25.47-.49.66-.74.83-1.08,1.66-2.16,2.48-3.25,2.68-1,5.07-1.86,7.93-2.59,1.22-.31,1.82-.42,1.91-.22.05.1-.04.28-.22.54-.18.26-.46.59-.78.96-.79.91-1.57,1.75-2.54,2.94-.35.43-.79.98-1.06,1.5-.28.52-.37.95-.18,1.27.19.32.66.51,1.36.6.69.09,1.58.09,2.43.04,3.17-.16,6.29-.91,8.9-1.63.49.66,1.35,1.12,2.39,1.37,1.06.26,2.11.26,2.87.23,5.4-.22,10.77-2.28,14.95-4.5.34.84.62,1.56,1.08,2.43.31.6.7,1.24,1.25,1.53.55.29,1.14.16,1.61.04h0c1.63-.41,3.25-1.01,5.02-1.64-.6.69-1.27,1.45-1.9,2.16h2.51c.93,0,1.72,0,2.53-.31.39-.15.74-.35,1.07-.61.34-.27.61-.56.91-.88.86-.93,1.83-1.98,2.77-2.99,4.51-1.51,8.41-2.72,11.15-3.38.79-.19,1.45-.33,1.87-.39.44-.06.69-.06.77.04.08.09,0,.28-.2.56-.19.26-.52.66-.87,1.07-1.08,1.26-2.06,2.32-3.35,3.94-.36.45-.69.89-.87,1.29-.18.4-.19.74,0,1,.41.54,1.65.65,2.76.66,4.05.04,8.66-1.21,12.67-2.45-.11-.66-.2-1.12-.28-1.41Zm-144.56.18c-.5.1-1.32.24-2.08.23-.74,0-1.22-.17-1.3-.49-.08-.32.27-.75.89-1.21.64-.47,1.42-.87,2.06-1.16,4.35-2.01,10.9-3.59,14.75-3.68-4.17,3.8-10.02,5.47-14.31,6.3Zm93.71,0c-.5.1-1.32.24-2.08.23-.74,0-1.22-.16-1.3-.49-.08-.32.27-.75.89-1.21.64-.47,1.42-.87,2.06-1.16,4.35-2.01,10.9-3.59,14.75-3.68-4.17,3.8-10.02,5.47-14.31,6.3Z"/></svg>