<svg xmlns="http://www.w3.org/2000/svg" viewBox="0 0 181 35"  width="100%" height="100%"><path d="m180.22,20.55c-.09-.28-.22-.47-.39-.54-.17-.07-.43-.06-.78.04-1.22.37-2.36.64-3.44.8-1.08.16-1.95.22-2.62.19-.67-.04-1-.15-1-.35,0-.17.26-.58.78-1.23.52-.64,1.09-1.32,1.71-2.01.87-.97,1.54-1.76,2.01-2.36.47-.61.71-1.02.71-1.25,0-.25-.07-.55-.2-.91-.14-.36-.35-.67-.63-.93-.29-.26-.63-.39-1.02-.39-1.29,0-3.24.37-5.86,1.1-2.4.67-5.9,1.82-10.5,3.44l4.04-4.42-6.03.63-5.64,6.41c-1.78.67-3.11,1.13-4,1.39-.89.26-1.49.39-1.79.39-.2,0-.39-.12-.56-.37-.17-.25-.32-.54-.43-.87-.11-.34-.17-.63-.17-.87,0-.2.11-.46.33-.78.22-.32.69-.87,1.4-1.64.71-.77,1.61-1.72,2.7-2.87l1.34-1.41h-4.76c-3.35,0-7.21.47-11.58,1.41-4.37.94-8.1,2.17-11.2,3.68-1.81.89-3.09,1.8-3.85,2.75-1.35.41-2.64.78-3.88,1.11-1.38.36-3.07.69-5.08.99-2.01.3-4.13.45-6.36.45-1.02,0-1.82-.11-2.42-.32-.6-.21-.89-.63-.89-1.25,0-.74.91-1.53,2.72-2.34,1.81-.82,4.14-1.58,7-2.29,2.85-.71,5.84-1.3,8.97-1.77.35-.35.63-.66.84-.93.21-.27.33-.51.35-.71.05-.45-.26-.67-.93-.67-2.85,0-6.36.45-10.53,1.36-4.17.91-7.77,2.11-10.81,3.61-1.71.84-2.94,1.73-3.69,2.66-.86.31-1.56.54-2.1.69-.89.26-1.49.39-1.79.39-.2,0-.38-.12-.56-.37-.17-.25-.32-.54-.43-.87-.11-.34-.17-.63-.17-.87,0-.2.11-.46.33-.78.22-.32.69-.87,1.4-1.64.71-.77,1.61-1.72,2.7-2.87l1.34-1.41h-4.76c-3.35,0-7.21.47-11.58,1.41-4.37.94-8.1,2.17-11.2,3.68-2.94,1.44-4.49,2.95-4.64,4.55-.23.02-.69.08-1.39.18-2.03.27-3.75.45-5.14.52-1.39.07-2.08-.09-2.08-.48,0-.35.56-1.21,1.69-2.59,1.13-1.38,2.59-3.05,4.37-5.02s3.51-3.84,5.17-5.6c1.27-1.36,2.39-2.58,3.37-3.65.98-1.07,1.47-1.65,1.47-1.75,0-.25-.12-.56-.37-.93-.25-.37-.6-.69-1.04-.97-.45-.27-.96-.41-1.53-.41-2.18,0-5.12.92-8.82,2.77-3.7,1.85-7.23,3.87-10.61,6.07-3.37,2.2-6.89,4.57-10.53,7.13-.77.55-1.42,1-1.95,1.36-.53.36-.8.52-.8.47s.53-.57,1.58-1.56c1.05-.99,2.25-2.11,3.59-3.35,3.35-3.08,5.99-5.54,7.93-7.39,1.94-1.85,2.9-2.9,2.9-3.15,0-.27-.14-.6-.43-.99-.29-.38-.67-.72-1.15-1-.48-.28-1.01-.43-1.58-.43-2.21,0-6.01,1.32-11.39,3.95-5.38,2.63-11.28,5.87-17.68,9.71-6.4,3.85-12.3,7.58-17.68,11.2h.78c2.33-.05,3.96-.12,4.89-.2.93-.09,1.76-.27,2.49-.56.73-.29,1.66-.8,2.77-1.54,4.59-2.98,9.16-5.79,13.7-8.43,4.54-2.64,8.29-4.72,11.24-6.23,2.95-1.51,4.43-2.15,4.43-1.9,0,.03-.13.17-.39.43-.26.26-.59.59-.99.99-4.64,4.57-9.78,9.94-15.41,16.12,2.53,0,4.32-.04,5.36-.11s2-.28,2.88-.63c.88-.35,2.02-.98,3.41-1.9l7.48-4.88c3.85-2.46,7.03-4.45,9.55-5.99,2.52-1.54,4.42-2.64,5.69-3.29,1.28-.66,1.92-.85,1.92-.58,0,.02-.19.25-.56.67-.37.42-.82.91-1.34,1.45-2.01,2.21-3.76,4.16-5.25,5.86-1.49,1.7-2.86,3.42-4.11,5.15-1.25,1.74-1.88,3-1.88,3.8,0,.74,1.04,1.17,3.13,1.28,2.08.11,4.49-.01,7.22-.37,2.4-.32,4.32-.69,5.78-1.13.73.72,2.01,1.13,3.86,1.21,3.05.14,6.68-.56,10.89-2.08,1.95-.71,3.8-1.54,5.53-2.49.43,1.09.8,1.92,1.11,2.49.37.68.71,1.14,1,1.38.3.24.64.35,1.04.35.62,0,2.25-.47,4.89-1.41.57-.2,1.11-.4,1.64-.6.17.51.56.94,1.19,1.3.86.5,1.98.86,3.39,1.1,1.4.24,2.93.35,4.6.35,1.86,0,4.04-.22,6.53-.65,2.49-.43,4.93-.99,7.3-1.66.61-.17,1.2-.35,1.75-.52.3,1.5,1.81,2.31,4.52,2.44,3.05.14,6.68-.56,10.89-2.08,1.95-.71,3.8-1.54,5.53-2.49.43,1.09.8,1.92,1.11,2.49.37.68.71,1.14,1,1.38.3.24.64.35,1.04.35.62,0,2.25-.47,4.89-1.41.34-.12.68-.24,1.01-.36l-1.7,1.93h2.87c.87,0,1.61-.1,2.21-.3.61-.2,1.12-.52,1.54-.97l3.34-3.61c2.75-.92,5.14-1.69,7.14-2.29,2.37-.71,4.14-1.17,5.3-1.4,1.17-.22,1.75-.24,1.75-.04,0,.07-.2.35-.6.82-.4.47-.84.99-1.34,1.56-1.17,1.32-2.08,2.4-2.75,3.26-.67.86-1,1.45-1,1.77,0,.84.97,1.26,2.9,1.25,1.94-.01,4.19-.3,6.76-.86,2.57-.56,4.58-1.14,6.05-1.73-.1-.62-.19-1.07-.28-1.36Zm-107.2.39c-2.32.37-3.48.25-3.48-.37s1.09-1.42,3.26-2.4c2.17-.98,4.75-1.84,7.74-2.57,2.65-.65,5.01-1.01,7.06-1.08l-.31.28c-1.59,1.46-3.78,2.76-6.59,3.89-2.8,1.13-5.37,1.88-7.69,2.25Zm55.38,0c-2.32.37-3.48.25-3.48-.37s1.09-1.42,3.26-2.4c2.17-.98,4.75-1.84,7.74-2.57,2.65-.65,5.01-1.01,7.06-1.08l-.31.28c-1.59,1.46-3.78,2.76-6.59,3.89-2.8,1.13-5.37,1.88-7.69,2.25Z"/></svg>