<svg width="204" height="28" viewBox="0 0 204 28" fill="none" xmlns="http://www.w3.org/2000/svg">
<path d="M144.098 22.779C141.529 23.1719 140.245 23.0409 140.245 22.3861C140.245 21.7317 141.446 20.8874 143.851 19.8528C146.255 18.8181 149.112 17.9149 152.423 17.1422C155.361 16.4572 157.967 16.0774 160.245 16L159.904 16.2975C158.145 17.8429 155.714 19.211 152.609 20.4025C149.504 21.5944 146.667 22.3861 144.098 22.779ZM82.0984 22.779C79.5287 23.1719 78.2449 23.0409 78.2449 22.3861C78.2449 21.7317 79.4465 20.8874 81.8507 19.8528C84.2549 18.8181 87.1122 17.9149 90.4238 17.1422C93.3608 16.4572 95.9669 16.0774 98.2449 16L97.9041 16.2975C96.1451 17.8429 93.7139 19.211 90.6092 20.4025C87.5036 21.5944 84.6672 22.3861 82.0984 22.779ZM202.93 22.4877C202.831 22.1671 202.684 21.964 202.489 21.8803C202.293 21.7967 201.999 21.8107 201.607 21.9224C200.236 22.3412 198.942 22.642 197.725 22.8234C196.507 23.0052 195.521 23.0748 194.766 23.0328C194.01 22.9912 193.632 22.8587 193.632 22.6347C193.632 22.4394 193.926 21.9785 194.514 21.2516C195.101 20.5252 195.745 19.7708 196.444 18.9878C197.424 17.8982 198.179 17.0113 198.711 16.3264C199.242 15.6416 199.509 15.1735 199.509 14.922C199.509 14.643 199.431 14.3006 199.278 13.8948C199.124 13.4905 198.886 13.1409 198.564 12.8473C198.242 12.5537 197.857 12.4067 197.41 12.4067C195.954 12.4067 193.751 12.8198 190.799 13.6438C188.093 14.3993 184.144 15.6894 178.961 17.5127L183.515 12.5324L176.715 13.2453L170.354 20.4634C168.351 21.2132 166.847 21.7348 165.843 22.0268C164.836 22.3204 164.164 22.4669 163.829 22.4669C163.604 22.4669 163.394 22.3277 163.199 22.0476C163.003 21.7691 162.842 21.4402 162.716 21.063C162.59 20.6853 162.527 20.3574 162.527 20.0779C162.527 19.8544 162.653 19.5609 162.905 19.1972C163.157 18.8345 163.681 18.2198 164.479 17.3532C165.277 16.4875 166.29 15.4115 167.522 14.1255L169.034 12.5324H163.661C159.882 12.5324 155.531 13.064 150.606 14.1255C145.68 15.188 141.468 16.5712 137.971 18.2754C135.924 19.273 134.481 20.3039 133.632 21.368C132.114 21.833 130.655 22.2503 129.261 22.6134C127.708 23.0192 125.798 23.3892 123.531 23.7243C121.264 24.06 118.871 24.2273 116.353 24.2273C115.205 24.2273 114.296 24.1088 113.624 23.8714C112.953 23.6344 112.617 23.1658 112.617 22.4669C112.617 21.6288 113.638 20.7481 115.681 19.8264C117.724 18.9041 120.354 18.0447 123.573 17.2482C126.79 16.4522 130.163 15.7887 133.689 15.2571C134.081 14.8664 134.395 14.5172 134.634 14.2091C134.871 13.9021 135.004 13.6371 135.032 13.4131C135.089 12.9102 134.739 12.6587 133.983 12.6587C130.765 12.6587 126.805 13.1684 122.104 14.1883C117.402 15.2088 113.337 16.5639 109.91 18.2546C107.982 19.205 106.597 20.2015 105.753 21.2443C104.782 21.5883 103.989 21.8502 103.382 22.0268C102.375 22.3204 101.703 22.4669 101.367 22.4669C101.143 22.4669 100.933 22.3277 100.737 22.0476C100.542 21.7691 100.381 21.4402 100.255 21.063C100.129 20.6853 100.066 20.3574 100.066 20.0779C100.066 19.8544 100.192 19.5609 100.444 19.1972C100.696 18.8345 101.22 18.2198 102.018 17.3532C102.815 16.4875 103.83 15.4115 105.061 14.1255L106.572 12.5324H101.199C97.4212 12.5324 93.0696 13.064 88.1447 14.1255C83.2187 15.188 79.0071 16.5712 75.5094 18.2754C72.1887 19.8934 70.4476 21.5997 70.2791 23.3939C70.0215 23.411 69.5001 23.4796 68.7092 23.5986C66.4145 23.9067 64.4836 24.1015 62.9164 24.1857C61.3491 24.2694 60.566 24.088 60.566 23.6407C60.566 23.2494 61.2018 22.2783 62.4756 20.7273C63.7489 19.1764 65.3931 17.2903 67.4079 15.069C69.4231 12.8473 71.3676 10.7445 73.2429 8.76023C74.6701 7.22381 75.9356 5.85418 77.0418 4.65238C78.147 3.45109 78.6996 2.79434 78.6996 2.68211C78.6996 2.40309 78.5596 2.05341 78.2802 1.63462C77.9998 1.21531 77.6085 0.852122 77.1048 0.544527C76.6011 0.237451 76.0272 0.0836534 75.3835 0.0836534C72.9208 0.0836534 69.6047 1.1249 65.4353 3.20637C61.2648 5.28835 57.277 7.5657 53.4718 10.0389C49.6656 12.5116 45.7058 15.188 41.5921 18.066C40.7247 18.6807 39.99 19.1909 39.3885 19.5957C38.7864 20.001 38.4857 20.1761 38.4857 20.12C38.4857 20.0638 39.0799 19.4772 40.2699 18.3591C41.4589 17.242 42.8096 15.984 44.3207 14.5869C48.0988 11.1217 51.0788 8.3482 53.2621 6.26621C55.4444 4.18475 56.536 3.00373 56.536 2.72419C56.536 2.41712 56.3747 2.04717 56.0532 1.61332C55.7311 1.1805 55.2976 0.803281 54.7518 0.481657C54.2065 0.161072 53.6112 0 52.9681 0C50.4768 0 46.1954 1.48134 40.1232 4.44298C34.0498 7.40515 27.4042 11.0521 20.184 15.3829C12.9639 19.7147 6.31768 23.9202 0.244873 28H1.12632C3.75712 27.9439 5.59702 27.867 6.64653 27.7693C7.69552 27.6711 8.63316 27.4617 9.45892 27.1406C10.2842 26.819 11.3269 26.2396 12.5861 25.401C17.7629 22.0476 22.9126 18.8828 28.0338 15.9071C33.1549 12.931 37.38 10.5907 40.7106 8.88597C44.0408 7.18173 45.7058 6.46937 45.7058 6.74839C45.7058 6.77645 45.5591 6.937 45.2651 7.23005C44.9711 7.52361 44.6001 7.89408 44.1526 8.34144C38.9196 13.4828 33.1268 19.5328 26.7746 26.4911C29.6286 26.4911 31.6438 26.449 32.8187 26.3654C33.9942 26.2817 35.0785 26.0443 36.0724 25.6525C37.0652 25.2618 38.3457 24.5489 39.913 23.5149L48.3507 18.0239C52.6877 15.2571 56.2769 13.0084 59.1174 11.275C61.9574 9.54273 64.0985 8.30611 65.5399 7.5657C66.9812 6.82581 67.7018 6.60862 67.7018 6.91622C67.7018 6.94376 67.4922 7.19575 67.0723 7.67014C66.6523 8.14608 66.1487 8.69112 65.5612 9.30528C63.2941 11.7925 61.3215 13.9935 59.6424 15.9071C57.9633 17.8213 56.4169 19.7568 55.0036 21.7125C53.5904 23.6687 52.8838 25.094 52.8838 25.9882C52.8838 26.8263 54.0592 27.3084 56.4101 27.4342C58.761 27.5599 61.475 27.4196 64.5533 27.0149C67.2554 26.6589 69.4288 26.2334 71.0746 25.7382C71.8978 26.5504 73.3448 27.0055 75.4257 27.099C78.8677 27.2518 82.9606 26.4703 87.7034 24.7515C89.9086 23.9524 91.9853 23.0135 93.9453 21.9463C94.4293 23.1746 94.8476 24.1125 95.1967 24.7515C95.6161 25.5205 95.9939 26.037 96.33 26.3025C96.6656 26.5675 97.0575 26.7005 97.5055 26.7005C98.2043 26.7005 100.045 26.17 103.025 25.108C103.664 24.8804 104.278 24.6565 104.876 24.4356C105.067 25.0067 105.511 25.4966 106.215 25.904C107.181 26.4636 108.454 26.8746 110.036 27.1406C111.616 27.4061 113.344 27.5386 115.22 27.5386C117.318 27.5386 119.774 27.2939 122.587 26.8055C125.399 26.3165 128.141 25.6946 130.814 24.9402C131.504 24.7453 132.162 24.5505 132.791 24.3556C133.133 26.0469 134.829 26.9619 137.886 27.099C141.329 27.2518 145.421 26.4703 150.165 24.7515C152.369 23.9524 154.447 23.0135 156.407 21.9463C156.891 23.1746 157.309 24.1125 157.658 24.7515C158.077 25.5205 158.455 26.037 158.791 26.3025C159.127 26.5675 159.519 26.7005 159.966 26.7005C160.666 26.7005 162.506 26.17 165.486 25.108C165.872 24.9703 166.25 24.8342 166.622 24.6985L164.71 26.8683H167.942C168.921 26.8683 169.754 26.7561 170.44 26.5332C171.125 26.3098 171.705 25.9461 172.182 25.4431L175.948 21.3732C179.054 20.3314 181.741 19.472 183.998 18.7992C186.67 18.0032 188.665 17.4789 189.98 17.2274C191.295 16.9759 191.953 16.9619 191.953 17.1853C191.953 17.269 191.729 17.5771 191.281 18.1076C190.833 18.6386 190.33 19.2257 189.77 19.8685C188.454 21.3498 187.419 22.5719 186.664 23.5357C185.908 24.5001 185.531 25.1641 185.531 25.5268C185.531 26.4771 186.622 26.9447 188.805 26.9312C190.987 26.9167 193.527 26.5961 196.423 25.9669C199.32 25.3382 201.593 24.6887 203.245 24.0179C203.132 23.3196 203.028 22.8099 202.93 22.4877Z" fill="#010205"/>
</svg>
