<svg width="287" height="28" viewBox="0 0 287 28" fill="none" xmlns="http://www.w3.org/2000/svg">
<path fill-rule="evenodd" clip-rule="evenodd" d="M27.1104 18.7286C83.8386 13.0153 77.9875 -2.15561 45.3919 0.257977C41.8518 0.520099 34.4665 1.17213 27.6638 2.26776C21.2851 3.29472 15.4925 4.51895 11.3887 5.79114C8.67653 6.63173 7.01261 7.50392 5.84548 8.71126C4.67835 9.9186 4.23002 10.3747 4.44173 10.3243C10.371 8.91807 16.3231 7.86196 22.3358 6.86905C63.1268 0.132092 76.5088 7.94397 29.4062 14.7935C27.0227 15.0496 24.4605 15.4458 21.8948 15.5717C25.0713 12.8575 28.244 10.1287 31.3674 7.39412C28.6847 7.73035 23.9897 8.22789 21.297 8.62216C13.2565 15.3417 6.61788 21.4898 0.215332 27.6543L4.76878 27.644C6.26322 27.5609 7.89899 26.8955 8.95728 26.0372C11.6018 23.8928 14.3949 21.8727 16.9572 19.7479C20.328 19.3784 23.8627 19.0555 27.1104 18.7286ZM222.902 13.4173C223.638 14.1282 223.958 14.484 224.508 15.4911C224.62 15.6958 224.733 16.0008 224.809 16.2444C224.962 16.7374 224.755 17.4433 224.026 17.8246C222.326 18.7133 218.441 20.1075 214.374 21.3948L213.921 21.5373C210.976 22.4607 207.975 23.3165 205.673 23.8739C209.995 24.5129 220.126 23.9028 227.29 21.9421L234.501 13.673L241.316 13.2716L238.067 16.9357C242.175 15.1797 255.386 11.0951 257.161 13.6932C257.378 14.0111 257.69 14.8008 257.8 15.4853C257.907 16.1488 257.898 16.5668 257.872 16.9754C258.846 16.612 259.941 16.2736 261.103 15.9438C268.611 13.81 277.811 13.1718 282.652 13.2892L277.34 19.3828C276.767 19.8956 276.84 20.9038 277.354 21.6957C278.011 22.7089 278.619 23.0423 280.628 22.2697C281.374 21.976 282.258 21.5833 283.88 20.8482C284.594 20.5156 285.312 20.6506 285.609 21.2642L286.245 22.4689C284.046 23.902 279.165 25.8912 276.032 26.9826C273.168 27.9522 271.811 26.8076 270.823 24.6746C270.623 24.2269 270.414 23.7626 270.189 23.2556C269.99 23.3493 269.786 23.4438 269.591 23.532C266.175 25.0769 261.876 26.6462 258.262 27.3609C244.127 30.1574 243.515 23.1481 253.714 18.4837C252.62 18.748 251.454 18.9872 250.643 19.1715C248.4 19.6813 247.666 19.3823 248.649 18.1308C248.69 18.0784 248.705 18.0608 248.778 17.9608C248.907 17.7734 248.888 17.6808 248.72 17.6827C246.412 18.0115 241.379 18.7383 233.92 21.6249L229.661 25.6975C228.627 26.5944 227.45 27.2386 225.956 27.3223L222.614 27.3212L224.327 25.4324C220.016 26.4243 213.461 27.2033 209.513 27.4372C207.149 27.5771 205.241 27.617 204.033 27.6182L203.853 27.6181C203.329 27.6169 202.956 27.6081 202.76 27.5979C202.523 27.5855 202.272 27.5899 202.052 27.5725C200.319 27.4593 197.772 27.1752 196.502 26.0389C194.437 26.4902 191.595 26.9909 189.07 27.3518C186.682 27.6935 184.591 27.8409 182.432 27.7632C179.848 27.6709 178.826 27.4069 179.674 25.9849C181.045 23.6857 183.58 20.601 185.63 18.4328C185.76 18.2449 185.74 18.1528 185.573 18.1547C183.681 18.424 179.842 19.5586 174.437 21.3251L170.463 25.7165C169.543 26.7327 168.515 27.2055 167.021 27.2895L163.351 27.3251C164.997 24.6683 167.89 20.7159 169.475 18.853C169.594 18.6593 169.569 18.5692 169.4 18.5821C167.603 18.948 162.883 20.2709 157.841 22.1909L154.192 25.7674C153.156 26.6643 151.979 27.3086 150.484 27.3923L147.451 27.3656L150.189 24.2101C147.927 25.2742 145.544 26.1714 143.869 26.7327C140.997 27.696 139.64 26.5514 138.648 24.4333C138.452 23.9974 138.249 23.5353 138.029 23.0506C137.831 23.1443 137.627 23.2388 137.432 23.327C136.238 23.867 135.093 24.3338 133.922 24.7843C123.248 28.8119 116.952 28.3259 115.161 26.1122C113.364 26.4693 111.503 26.7983 109.354 27.106C106.966 27.4477 104.875 27.5946 102.716 27.5174C100.132 27.4248 99.1101 27.1609 99.9577 25.7388C101.329 23.4394 103.808 20.4043 105.857 18.236C106.016 18.063 105.968 17.9561 105.8 17.958C103.51 18.284 98.5737 19.1701 91.3665 21.5635L87.2703 25.7198C86.2343 26.6164 85.0564 27.2606 83.5625 27.3447L80.4858 27.3295L82.7154 24.5438C80.7613 25.3996 78.7028 26.1951 77.1869 26.7239C74.3043 27.696 72.9473 26.5514 71.9381 24.42C71.7253 23.9786 71.5232 23.5254 71.3118 23.0506C71.1129 23.1443 70.9091 23.2388 70.714 23.327C69.5202 23.867 68.3751 24.3338 67.2037 24.7843C62.2104 26.6687 58.1751 27.5651 55.1777 27.7582C46.8893 28.5014 44.749 23.1815 53.2672 18.945C55.2665 17.9503 58.3645 16.7035 62.2258 15.606C69.7337 13.4724 78.9342 12.8343 83.7752 12.9517L78.1678 19.3539C77.5775 19.905 77.6511 20.9466 78.1645 21.7646C78.8211 22.8111 79.4298 23.1556 81.5053 22.3309C82.9782 21.7724 84.8591 21.0237 86.4475 20.3663L92.255 13.4937L98.9326 13.0886L94.9227 17.6362C98.1393 16.5365 113.269 11.1714 114.516 13.8866C114.682 14.2462 114.846 14.5975 114.984 14.9452C115.121 15.288 115.157 15.7914 114.779 16.2411C113.017 18.3366 110.797 20.744 109.249 22.8224C108.451 23.8932 108.589 24.3754 110.372 24.2685C111.161 24.2214 112.487 24.0522 114.726 23.6257C114.912 23.0437 115.293 22.5367 115.747 22.006C117.679 19.7466 122.173 17.5301 128.944 15.606C136.451 13.4724 145.652 12.8343 150.493 12.9517L144.894 19.3762C144.317 19.9108 144.391 20.9526 144.904 21.7704C145.561 22.8167 146.164 23.1374 148.222 22.3245C149.819 21.7233 151.933 20.8746 153.62 20.1703L159.068 13.6681L165.706 13.3135L161.69 17.842C165.438 16.4555 175.599 11.72 176.849 14.3115C177.011 14.649 177.171 14.9866 177.319 15.3701C177.451 15.7154 177.497 16.2199 177.111 16.669L176.659 17.1691C178.514 16.5497 180.953 15.7454 183.426 15.0211L183.876 14.8903C188.753 13.4847 193.637 12.4517 194.336 13.8158C194.527 14.1889 194.671 14.5192 194.803 14.8747C194.933 15.2208 194.98 15.7245 194.596 16.1733C192.799 18.3454 190.433 20.8879 188.809 23.0685C188.011 24.1393 188.149 24.6215 189.932 24.5146C190.636 24.4723 192.602 24.202 194.606 23.8417L194.9 23.7883L195.193 23.7338C195.242 23.7246 195.291 23.7154 195.339 23.7061C195.512 22.092 197.282 20.1797 200.657 18.2484C203.495 16.6247 209.23 14.4864 213.993 13.2495C216.702 12.5458 221.333 11.7864 222.902 13.4173ZM275.204 16.5926C270.28 17.1227 265.601 18.3212 260.936 19.9311C253.525 22.621 252.491 24.943 259.99 23.308C261.113 23.0389 262.53 22.6763 264.166 22.1764C268.874 20.7169 272.327 19.1535 275.204 16.5926ZM75.7768 16.2469C70.8532 16.7773 66.1736 17.9755 61.5097 19.5854C54.0974 22.2757 53.0641 24.5974 60.5629 22.9621C61.6863 22.6931 63.1033 22.3307 64.7382 21.8305C69.4465 20.3711 72.8996 18.8078 75.7768 16.2469ZM142.713 16.2469C137.789 16.7773 133.109 17.9755 128.445 19.5854C121.033 22.2757 120 24.5974 127.499 22.9621C128.622 22.6931 130.039 22.3307 131.674 21.8305C136.382 20.3711 139.836 18.8078 142.713 16.2469ZM215.52 16.6359C209.907 18.3868 204.574 20.6026 202.403 22.4691C206.284 21.4652 214.569 19.0522 218.848 17.5384C218.979 17.4921 218.988 17.3739 218.93 17.2344C218.851 17.0453 218.645 16.8283 218.157 16.4538C217.582 16.0118 216.35 16.3766 215.52 16.6359Z" fill="#010205"/>
</svg>
