<svg width="186" height="40" viewBox="0 0 186 40" fill="none" xmlns="http://www.w3.org/2000/svg">
<path fill-rule="evenodd" clip-rule="evenodd" d="M55.4326 0C54.6963 0.817155 53.7687 1.68099 52.9183 2.47328C52.5978 2.77169 52.2886 3.05964 52.0029 3.33275C51.3497 3.95751 50.5829 4.5094 49.6575 4.90642C48.7317 5.30387 47.6457 5.54775 46.3537 5.55604C42.644 5.58833 38.9343 5.75673 35.2289 5.91772C32.4424 6.03857 29.6607 6.15375 26.8729 6.22835C25.4019 7.96039 23.91 9.66537 22.3837 11.3485C20.9454 12.9349 19.4918 14.5068 18.0208 16.0626C16.0599 18.1371 14.0742 20.1907 12.0959 22.2486L11.3879 22.985L24.3729 19.8072C31.1304 15.7061 39.4555 13.6002 53.6446 13.7315L48.0994 20.2168C47.6165 20.7818 48.0232 21.9899 48.4609 22.7691C49.0218 23.766 49.4237 23.9723 51.1799 23.3205C53.0123 22.7246 55.9347 21.756 57.954 20.8734C59.6475 18.9582 63.365 15.2323 63.9302 14.8375C66.4102 14.4243 68.1768 14.4082 71.6013 14.0578C69.6565 15.9941 66.2978 19.4699 64.4989 21.7613C64.4619 21.8085 64.4234 21.8574 64.3844 21.9076L64.3255 21.9835L64.2664 22.0609C63.804 22.6706 63.3767 23.3633 64.3282 23.2145C67.6225 22.6997 73.2535 20.5973 75.9133 19.2138L81.2742 14.0517L89.0241 13.3554C87.6496 14.5363 86.2382 15.7699 84.8292 17.0175L84.3597 17.4337C83.8904 17.8504 83.4219 18.2682 82.9555 18.6856L82.4899 19.1028C76.9131 24.1063 71.7237 28.9855 69.434 31.2491C73.3405 29.2579 81.0613 26.2702 86.4937 24.5351C86.218 21.77 91.14 18.5171 100.374 15.8562C106.021 14.2568 112.265 13.5169 116.161 13.2913C116.491 13.2734 116.797 13.2691 117.104 13.2704C118.456 13.2913 118.323 13.8471 117.342 15.0338C117.107 15.3122 116.923 15.5779 116.545 15.6472C116.524 15.6511 116.502 15.6552 116.479 15.6593L116.341 15.6834C114.377 16.0037 112.358 16.3461 110.787 16.686C105.61 17.8238 101.517 18.8207 98.6474 20.0249C96.7941 20.8023 90.7825 23.9614 97.9132 24.7603C101.028 25.1093 105.726 25.4574 115.5 23.5753C116.087 22.2442 118.292 20.7971 120.588 19.572C121.975 18.8273 126.069 17.1245 130.013 16.0525C137.473 14.0247 146.04 13.4588 150.842 13.6063L145.236 19.8185C144.606 20.5929 144.717 21.3747 145.217 22.1722C145.857 23.194 147.193 23.5321 149.477 22.701C151.036 22.1334 152.597 21.6365 154.247 21.0052L160.38 13.9619L167.007 13.6111L162.999 18.0236C164.116 17.6563 166.677 16.7912 169.591 15.9339C169.98 15.8177 170.374 15.7016 170.772 15.5867L171.113 15.4886C176.302 14.0048 181.9 12.7719 182.63 14.2031C182.814 14.5635 182.962 14.8964 183.087 15.2402C183.209 15.5748 183.258 16.0709 182.873 16.5067C182.091 17.4235 181.203 18.4078 180.314 19.4018L179.782 19.9989C178.81 21.0939 177.864 22.1864 177.086 23.1992C176.288 24.2393 176.423 24.8279 178.191 24.7419C178.571 24.7241 179.486 24.6368 180.45 24.4985C181.275 24.3838 182.186 24.1979 183.912 23.8441C184.673 23.68 185.341 23.9619 185.5 24.6111L185.863 25.895C182.156 26.885 179.688 27.2379 177.294 27.5106C175.02 27.761 173.026 27.9565 170.728 27.8635C168.169 27.7601 167.153 27.4909 168.003 26.1084C169.379 23.8729 171.916 20.7552 173.963 18.6519C174.158 18.4678 174.095 18.3596 173.908 18.3801C171.634 18.6829 166.611 19.5463 159.445 21.8341L154.981 26.2467C154.021 27.196 152.765 27.7261 151.283 27.7977L148.239 27.7819L150.663 25.0395C147.857 26.0255 145.785 26.5324 144.214 27.0075C141.332 27.8797 140.009 26.8103 139.023 24.7227C138.814 24.29 138.617 23.8467 138.41 23.3812C138.212 23.4711 138.009 23.5622 137.815 23.6473C136.627 24.1665 135.488 24.615 134.323 25.0465C129.357 26.8522 125.347 27.7004 122.372 27.8688C119.503 28.1026 116.959 27.6799 116.008 26.6598C109.227 27.9661 103.906 28.2732 99.8288 28.4141C93.7376 28.6244 90.0644 27.9695 88.0748 26.683C85.8119 27.4084 82.607 28.5771 79.2851 29.8664L78.7597 30.071L78.2331 30.2772C77.8818 30.4153 77.5302 30.5543 77.1791 30.6938L76.6532 30.9036C72.1012 32.7244 67.7365 34.6126 65.6729 35.7419C63.3759 36.9988 61.9746 38.066 60.0516 39.1196L56.004 40C61.074 34.5312 66.2965 29.2025 70.9233 24.5897C67.7897 26.0359 62.1413 27.5455 58.0502 28.2078C53.6355 28.9224 52.9701 27.9695 54.5931 25.5696C54.6244 25.5238 55.0255 24.8706 55.41 24.3842C52.7075 25.6437 49.0096 26.9443 46.8549 27.5991C44.2818 28.4913 43.1348 27.124 42.1162 25.0927C41.878 24.6172 41.6664 24.1595 41.4417 23.6316C37.9349 25.1717 33.9269 26.693 30.043 27.4412C20.4738 29.2854 17.9638 26.6293 20.0705 23.4636L7.77832 26.4509C7.45782 26.6777 7.12643 26.8858 6.78111 27.0669C6.57122 27.1764 5.23872 27.7754 4.03075 27.7737H0.321045C1.73891 26.1058 3.14981 24.4322 4.56941 22.766C6.05608 21.0213 7.54622 19.2793 9.03637 17.5372C10.5701 15.7445 12.0994 13.9488 13.6322 12.1552C15.233 10.2827 16.8311 8.40845 18.4297 6.53462L16.9744 6.61402C14.2562 6.76279 11.7724 6.89891 9.34206 7.02369C6.60345 7.16461 3.86483 7.29855 1.12535 7.41983C2.51926 5.99581 3.96411 4.59142 5.37457 3.21626C8.7494 2.88556 12.1295 2.59631 15.5095 2.328C19.6207 2.00078 23.7341 1.70324 27.8487 1.43493C32.4485 1.13477 37.0509 0.863836 41.6542 0.624318C46.2452 0.385672 50.8381 0.174512 55.4326 0ZM46.3419 16.4888C41.6529 16.9164 37.4507 17.946 32.9793 19.4961C25.8704 22.0955 24.2928 24.8056 31.7579 23.1648C32.8317 22.9139 34.1865 22.5736 35.7519 22.0968C40.2611 20.7033 43.5423 19.0655 46.3419 16.4888ZM143.274 16.4504C138.45 16.9465 133.861 18.1113 129.283 19.6863C122.009 22.321 120.981 24.6307 128.334 23.0496C129.435 22.7883 130.825 22.4358 132.43 21.9476C137.049 20.5231 140.44 18.9865 143.274 16.4504Z" fill="#010205"/>
</svg>
