<svg xmlns="http://www.w3.org/2000/svg" viewBox="0 0 183 35"  width="100%" height="100%"><path d="m182.46,6.82c-.07-.13-.2-.22-.43-.28-.24-.07-.54-.09-1.01-.13-.94-.08-1.63-.13-2.57-.16-.76-.03-1.81-.06-2.58-.07-6.83-.12-13.24.61-18.35,1.97-1.51.4-3.3.97-4.81,1.75-1.48.76-2.44,1.61-2.66,2.45-.22.84.32,1.59,1.48,2.21,1.18.63,2.83,1.04,4.7,1.4,2.83.54,7.1,1.17,10.64,1.88,1.11.23,2.19.47,3,.74.8.27,1.26.55,1.27.83.02.28-.4.54-1.17.78-.78.24-1.87.44-3.08.61-6.32.9-16.47,1.13-28.41.64-.89.97-1.94,2.17-2.93,3.22,18.26.66,31.35.31,38.79-1.06,1.64-.3,3.16-.68,4.34-1.25,1.16-.56,1.83-1.23,1.92-1.97.09-.74-.41-1.48-1.31-2.15-.91-.68-2.09-1.19-3.13-1.59-4.65-1.76-9.61-2.52-14.5-3.28-.8-.12-1.48-.24-2-.41-.51-.17-.78-.38-.76-.62.02-.24.32-.49.81-.72.51-.24,1.13-.42,1.68-.56,6.94-1.84,13.29-1.75,18.75-1.83.1,0,.24,0,.36,0,.13,0,.24-.02.35-.06.21-.08.4-.28.55-.45.19-.2.4-.45.6-.69.21-.27.36-.48.44-.68.08-.19.08-.35.02-.48Z"/><path d="m126.02,11.86c-4.72,0-11.02,1.88-15.42,4.74-2.39,1.55-3.96,3.25-4.32,4.75-1.66.38-2.99.62-3.84.7-.39.04-.68.04-.93-.04-.25-.08-.49-.28-.65-.47-.23-.26-.4-.65-.44-1.04-.02-.21,0-.4.13-.56.13-.15.37-.29.56-.4,1.07-.63,1.89-1.13,3.01-2.18.47-.44,1.02-1.01,1.39-1.7.36-.68.47-1.36.22-1.96-.25-.6-.84-1.05-1.69-1.33-.86-.29-1.84-.36-2.71-.38-6.53-.1-12.86,2.73-15.1,3.83,3.36-3.73,7.55-8.39,10.97-12.2-1.67.04-4.01.09-5.54.12-3.08,3.51-7.47,8.52-10.42,11.88-.31-.76-.68-1.57-1.15-2.26-.23-.34-.51-.69-.92-.93-.39-.23-.88-.36-1.45-.37-.39,0-.94.03-1.66.18-.76.16-1.56.39-2.61.74-2.05.69-4.35,1.57-7.42,2.81.91-1,1.91-2.1,3.11-3.42-1.99.21-3.97.44-5.95.65-2.12,2.42-4.3,4.9-6.03,6.84-1.82.63-4.14,1.37-6.25,1.8-.35.07-.64.13-.86.1-.23-.04-.42-.19-.61-.42-.13-.16-.2-.26-.27-.42-.05-.11-.12-.3-.07-.55.05-.26.18-.44.44-.76,1.87-2.31,3.94-4.7,6.44-7.43-1.9.2-3.79.42-5.68.62-2.03,2.25-4.26,4.81-6.08,7.36-2.38.76-6.62,1.31-9.22,1.34-.47,0-.81-.01-.88-.2-.07-.18.13-.49.37-.82,1.31-1.76,4.89-5.53,7.65-8.3-1.95.2-3.89.43-5.84.64-2.77,2.56-5.88,5.58-8.08,8.5-6.46,1.04-12.74,1.22-17.85.82-.51-.04-.97-.08-1.35-.18-.37-.1-.64-.25-.75-.48-.12-.23-.08-.52.1-.87.18-.36.48-.74.81-1.14,2.84-3.45,6.43-7.08,11.2-10.69,3.77-.07,7.53-.09,11.3-.13.45,0,.88-.01,1.41-.07.51-.06,1.02-.15,1.52-.3.5-.15.94-.33,1.31-.53.38-.2.63-.39.85-.56.97-.76,1.91-1.49,2.69-2.1-4.97.1-9.87.18-14.74.29,1.06-.79,2.93-2.15,3.99-3.01-2.04.02-4.16.03-6.4.05-1.43,1.01-2.86,2.06-4.28,3.13h-.02c-2.87.11-6.26.21-9.12.35-1.18,1.06-2.37,2.11-3.55,3.17,3.07-.12,5.9-.2,8.53-.26-4.02,3.17-8.21,6.87-11.53,10.88-.46.55-.97,1.21-1.29,1.9-.32.68-.4,1.29-.18,1.79.22.5.71.86,1.44,1.11.74.25,1.67.39,2.77.49,6.71.65,16.94,0,22.76-1.07.05.38.33.64.95.79.61.15,1.57.19,2.99.15,2.69-.09,7.32-.53,12.76-1.84.2.31.47.7.79,1.03.32.33.68.59,1.11.74.87.3,1.93.11,3.16-.17,1.13-.26,2.7-.67,4.4-1.14-.44.5-.89,1.02-1.33,1.52.84,0,1.7,0,2.52,0,.94,0,1.73,0,2.54-.31.39-.15.75-.36,1.08-.63.34-.27.62-.57.91-.89,1.12-1.21,2.4-2.6,3.59-3.91,3.78-1.4,8.07-2.5,9.54-2.77.54-.1,1.08-.15,1.55.08.49.24.88.76,1.33,2.01,1.02-.1,2.11-.21,3.23-.33-2.09,2.4-4.11,4.71-5.9,6.76,11.06-.07,16.4-.75,22.85-3,.24.42.54.92.82,1.37.15.24.35.58.59.84.25.27.53.47.93.58.41.11.91.11,1.53.06.6-.05,1.35-.17,1.94-.27,1.39-.23,3.23-.62,5.19-1.05.6.59,1.56,1,2.78,1.22,1.21.22,2.72.27,4.37.12,5.19-.47,11.87-2.9,15.63-6.26.95-.85,1.66-1.71,2.03-2.55.36-.83.37-1.6,0-2.25-.73-1.32-2.87-2.02-5.71-2.03Zm-26.54,4.95c-.33.36-.82.7-1.38,1.02-3.71,2.14-10.29,3.92-16.42,4.09,5.05-4.26,11.48-5.9,15.34-6.44.5-.07,1.11-.14,1.68-.08.55.05.93.21,1.07.47.14.26.03.6-.29.95Zm26.98-.25c-.37.5-1.06,1.1-2.09,1.78-2.89,1.89-6.57,3.12-9.99,3.48-.6.06-1.19.09-1.69.02-.49-.07-.84-.24-.99-.51-.15-.27-.09-.61.16-1,.25-.39.68-.8,1.2-1.2,2.58-1.96,7.18-3.55,10.1-4.04,1.61-.27,3.11-.26,3.54.31.21.27.15.67-.23,1.17Z"/></svg>