<svg width="161" height="28" viewBox="0 0 161 28" fill="none" xmlns="http://www.w3.org/2000/svg">
<path fill-rule="evenodd" clip-rule="evenodd" d="M144.304 17.216C146.876 16.2712 149.277 15.7007 151.117 15.5296C152.942 15.359 154.217 15.5747 154.51 16.2315C154.803 16.8884 154.054 17.8668 152.613 18.9132C151.159 19.9688 149.132 21.1678 146.56 22.1398C143.99 23.1122 141.353 23.6729 139.438 23.8745C137.515 24.0771 136.166 23.8614 135.877 23.1758C135.587 22.4896 136.402 21.4704 137.942 20.3844C139.47 19.3071 141.733 18.1602 144.304 17.216ZM100.517 23.5789C103.683 20.7816 106.498 19.3802 111.681 17.546C113.48 16.9998 114.536 16.6995 115.773 16.4059C124.372 14.4692 123.488 17.9103 115.33 20.8484C110.196 22.6076 105.936 23.1971 100.517 23.5789ZM23.9512 27.4951C27.1106 27.2556 30.4528 26.867 33.5121 26.308C33.6535 27.0684 34.6752 27.3557 37.4937 27.3693C40.1746 27.3829 46.4058 26.9317 53.8671 25.1465C53.9938 25.3566 54.1385 25.5564 54.2896 25.7371C55.5409 27.2278 56.3696 27.5914 59.9586 26.7957C61.3001 26.4844 63.2817 25.964 65.378 25.367L64.0017 27.0547L67.8517 27.0667C69.371 26.9775 70.2068 26.1681 71.2591 25.2102L75.6985 20.7439C79.0194 19.3936 82.0755 18.4307 84.4252 17.807C85.6172 17.4538 86.9865 17.1256 88.1969 16.8262C90.3432 16.295 91.4966 17.0793 91.9572 18.6093C91.9898 18.7187 92.0067 18.7796 92.1992 18.7513C93.7495 18.5205 95.9029 18.0965 97.4734 17.8326L89.4748 27.052C95.0106 26.9954 103.808 26.8898 110.812 25.3822C112.566 25.005 114.981 24.4123 116.79 23.8473C116.843 23.9758 117.942 25.7795 118.004 25.8655C118.952 27.1865 119.695 27.5887 122.692 27.1848C124.419 26.9519 127.126 26.3929 130.088 25.7343C132.27 28.1809 139.242 28.2919 146.868 25.8035C155.502 22.9863 161.705 17.9039 160.722 14.4526C159.739 11.0009 151.943 10.4865 143.31 13.3037C136.016 15.6838 130.457 19.6804 129.507 22.94C128.214 23.2378 126.881 23.5219 125.686 23.7037C123.75 23.9981 123.365 23.8435 122.787 23.1539C122.341 22.6227 122.001 21.4547 122.633 21.0503C123.418 20.5937 124.404 20.0053 125.044 19.5411C131.911 14.5495 130.141 9.50356 115.87 12.349C112.999 12.9216 107.719 14.7977 104.942 16.2531L118.317 1.31497L111.552 1.48097L99.4832 15.3093C99.213 14.7438 98.7513 13.8572 98.4103 13.3195C98.208 13 97.9204 12.6032 97.5898 12.2864C96.8823 11.6083 95.9992 11.4238 94.3858 11.5685C90.1551 11.9479 82.926 14.4619 79.772 15.7905L83.1919 11.7084L76.0041 12.2701L68.5184 21.4906C66.5488 22.128 63.6808 22.9879 62.5095 23.2786C60.615 23.7477 60.249 23.6258 59.6693 22.9351C59.2631 22.4513 59.1255 21.6833 59.535 21.2093C62.0359 18.3132 64.4655 15.3267 67.5548 11.9158L60.8918 12.3833C58.3724 15.4035 55.8063 18.2 53.468 21.3399C53.3788 21.4596 53.3054 21.5788 53.251 21.6871C50.1737 22.7974 44.5243 23.3107 41.3986 23.2574C40.2763 23.2383 41.061 22.4556 41.5694 21.8085C43.365 19.5231 48.6979 13.8817 50.6392 11.9506C48.917 12.0644 46.2498 12.1841 43.9968 12.2924C43.5662 12.5929 40.0337 16.0893 38.0076 18.1929C36.3719 19.8976 34.6187 21.8825 33.6638 23.1572C29.406 23.9698 23.8669 24.3524 18.9332 24.3704C16.3534 24.3796 13.9124 24.3769 11.9325 24.2098C8.79861 24.0661 8.60829 23.1621 10.2233 21.1777C13.7101 16.8904 18.1392 12.3566 24.0643 7.84951C28.4739 7.71943 32.8873 7.68678 37.4801 7.67807C39.8967 7.62908 42.2557 7.32592 43.943 5.98592L47.37 3.29666C41.2986 3.43328 35.3164 3.53996 29.363 3.69399C30.6605 2.73008 32.9422 1.0597 34.2244 0L26.4108 0.0810966C24.3776 1.57567 22.8664 2.47263 21.1698 3.90952C17.6585 4.06191 13.5187 4.19907 10.0363 4.37814L5.70665 8.25935C8.95686 8.09661 12.9173 7.99647 16.2452 7.91211C10.8753 12.0829 6.14331 16.3892 2.33409 20.9442C-1.13364 25.0916 -0.617046 27.015 4.60548 27.6333C7.38315 27.9615 13.0559 28.1433 18.9566 27.8592C20.6679 27.777 22.3976 27.6556 23.9512 27.4951Z" fill="#010205"/>
</svg>
