<svg xmlns="http://www.w3.org/2000/svg" viewBox="0 0 129 36" width="100%" height="100%"><path d="m127.84,13.73c-.71-1.29-2.8-1.97-5.57-1.98-4.6,0-10.75,1.83-15.05,4.63-2.33,1.51-3.87,3.17-4.21,4.63-1.62.37-2.92.61-3.75.69-.38.04-.67.04-.91-.04-.24-.08-.48-.27-.64-.45-.22-.26-.39-.64-.43-1.02-.02-.21,0-.39.13-.55.12-.15.36-.28.55-.39,1.04-.62,1.84-1.1,2.94-2.13.46-.43,1-.98,1.35-1.66.35-.66.46-1.32.21-1.91-.25-.59-.82-1.02-1.65-1.3-.84-.28-1.79-.35-2.65-.37-6.38-.1-12.55,2.67-14.74,3.74,3.28-3.64,7.37-8.19,10.71-11.9-1.63.04-3.92.09-5.41.12-3,3.42-7.29,8.31-10.17,11.6-.31-.75-.67-1.53-1.13-2.21-.22-.33-.5-.67-.89-.91-.38-.23-.86-.35-1.41-.36-.38,0-.91.03-1.62.18-.74.15-1.52.38-2.55.73-2,.67-4.25,1.54-7.25,2.75.89-.98,1.87-2.05,3.04-3.34-1.94.2-3.87.43-5.81.64-2.07,2.36-4.19,4.78-5.88,6.67-1.78.61-4.04,1.33-6.1,1.76-.34.07-.63.13-.84.1-.23-.04-.41-.19-.6-.41-.13-.15-.19-.26-.27-.41-.05-.11-.12-.29-.07-.53.05-.25.18-.43.43-.74,1.82-2.26,3.85-4.59,6.29-7.25-1.85.19-3.7.41-5.55.61-1.98,2.19-4.16,4.7-5.93,7.18-2.33.74-6.46,1.28-9,1.31-.46,0-.79-.01-.86-.19-.07-.18.13-.48.36-.8,1.28-1.72,4.77-5.39,7.46-8.1-1.9.2-3.8.42-5.7.62-2.7,2.5-5.74,5.45-7.88,8.3-6.31,1.01-12.44,1.19-17.42.8-.5-.04-.95-.08-1.32-.18-.36-.1-.62-.24-.73-.47-.11-.22-.07-.51.1-.85.18-.35.47-.72.79-1.11,2.77-3.36,6.27-6.91,10.93-10.43,3.68-.07,7.35-.09,11.03-.12.44,0,.86-.01,1.37-.07.5-.05,1-.15,1.49-.29.49-.14.92-.32,1.28-.51.37-.2.61-.38.83-.55.95-.74,1.87-1.46,2.63-2.05-4.85.1-9.63.17-14.39.29,1.04-.77,2.86-2.1,3.89-2.94-1.99.02-4.06.03-6.24.05-1.39.99-2.79,2.01-4.18,3.06h-.02c-2.81.1-6.11.21-8.9.34-1.16,1.03-2.31,2.06-3.47,3.09,2.99-.12,5.76-.2,8.33-.25-3.93,3.09-8.01,6.7-11.25,10.62-.45.54-.94,1.18-1.26,1.85-.31.66-.39,1.25-.18,1.74.21.49.7.84,1.41,1.09.72.25,1.63.38,2.7.48,6.55.63,16.53,0,22.21-1.04.05.38.32.62.92.77.6.14,1.53.19,2.92.14,2.62-.09,7.14-.52,12.45-1.8.2.3.46.68.77,1.01.32.33.66.57,1.08.72.85.29,1.88.11,3.09-.17,1.11-.25,2.63-.65,4.29-1.12-.43.49-.87,1-1.3,1.49.82,0,1.66,0,2.46,0,.92,0,1.69,0,2.48-.3.38-.15.73-.35,1.05-.61.34-.27.6-.55.89-.87,1.09-1.18,2.34-2.54,3.51-3.82,3.69-1.36,7.87-2.44,9.31-2.7.52-.09,1.06-.15,1.51.08.47.23.86.74,1.3,1.97,1-.1,2.06-.21,3.15-.32-2.04,2.34-4.01,4.59-5.76,6.6,10.8-.07,16-.73,22.3-2.93.23.41.53.9.8,1.34.14.23.35.57.57.82.24.27.52.46.91.57.4.1.89.11,1.5.06.58-.05,1.31-.16,1.89-.26,1.36-.23,3.15-.6,5.07-1.02.58.58,1.52.97,2.71,1.19,1.19.22,2.66.26,4.26.12,5.07-.46,11.59-2.84,15.25-6.11.93-.83,1.62-1.67,1.98-2.49.36-.81.36-1.56,0-2.19Zm-31.47,2.85c-.32.36-.8.68-1.34.99-3.62,2.09-10.05,3.82-16.02,3.99,4.93-4.16,11.2-5.76,14.97-6.29.49-.07,1.09-.13,1.63-.08.53.05.91.2,1.05.46.14.25.03.58-.29.93Zm26.33-.24c-.37.49-1.04,1.07-2.04,1.73-2.82,1.84-6.41,3.04-9.75,3.39-.59.06-1.16.09-1.65.02-.48-.07-.82-.24-.97-.5-.15-.26-.09-.6.15-.98.25-.38.66-.78,1.17-1.17,2.51-1.91,7.01-3.47,9.86-3.94,1.57-.26,3.03-.25,3.45.3.2.27.14.65-.22,1.14Z"/></svg>