<svg height="100%" viewBox="0 0 40 40" width="100%" xmlns="http://www.w3.org/2000/svg"><path d="m0 0h40v40h-40z" fill="none"/><path d="m27.64 10a2.74 2.74 0 0 1 1.7 1c1.23 1.27 1.22 2.16 0 3.39l-14.45 14-4.71 1.23 1.32-4.62 14.5-14.09a2.81 2.81 0 0 1 1.64-.91m0-2a4.52 4.52 0 0 0 -3.09 1.48l-14.83 14.42-1.94 6.69a1.1 1.1 0 0 0 1.06 1.41.84.84 0 0 0 .27 0l6.76-1.76 14.82-14.45c1.74-1.69 2.39-3.84.08-6.22a4.41 4.41 0 0 0 -3.13-1.57z"/><path d="m22.67 11.85 5.33 5.48" fill="none" stroke="#000" stroke-miterlimit="10" stroke-width="2"/></svg>