<svg height="100%" viewBox="0 0 48 48" width="100%" xmlns="http://www.w3.org/2000/svg"><path d="m0 0h48v48h-48z" fill="none"/><path d="m35.46 8a4.81 4.81 0 0 1 3.27 1.75c2.27 2.32 2.27 4.25-.09 6.5l-21.85 21.25-9 2.36 2.6-8.95 21.84-21.26a4.85 4.85 0 0 1 3.23-1.65m0-2a6.81 6.81 0 0 0 -4.63 2.22l-22.24 21.63-2.92 10a1.67 1.67 0 0 0 .4 1.61 1.69 1.69 0 0 0 1.19.5 1.84 1.84 0 0 0 .41 0l10.13-2.65 22.2-21.62c2.61-2.54 3.58-5.77.12-9.33a6.61 6.61 0 0 0 -4.66-2.36z"/><path d="m31 10.15h2v11.48h-2z" transform="matrix(.71703227 -.69703997 .69703997 .71703227 -2.02 26.8)"/></svg>