<svg height="100%" viewBox="0 0 32 32" width="100%" xmlns="http://www.w3.org/2000/svg"><path d="m0 0h32v32h-32z" fill="none"/><path d="m23.63 6a2.74 2.74 0 0 1 1.7 1c1.23 1.27 1.22 2.15 0 3.38l-14.43 14-4.7 1.23 1.31-4.61 14.43-14a2.81 2.81 0 0 1 1.69-1m0-2a4.54 4.54 0 0 0 -3.08 1.48l-14.81 14.41-1.95 6.69a1.11 1.11 0 0 0 1.06 1.42.9.9 0 0 0 .28 0l6.74-1.76 14.81-14.44c1.74-1.69 2.39-3.84.08-6.22a4.39 4.39 0 0 0 -3.13-1.58z"/><path d="m20.33 6.77h2v7.64h-2z" transform="matrix(.71691061 -.6971651 .6971651 .71691061 -1.35 17.87)"/></svg>