<svg height="24" viewBox="0 0 24 24" width="24" xmlns="http://www.w3.org/2000/svg"><path d="m13.6367624 191.463345c-1.6348634-.959969-2.7620053-.30999-3.4728155.869973l-6.09265893 10.084678-.07108103 3.949874c-.00585046.225112.1127081.435648.30971017.549983.19873965.109529.44098953.109529.63972918 0l3.49312444-1.964938 6.09265887-10.079678c.7108102-1.174963.7463507-2.449922-.8986672-3.409892zm-5.92003353 12.759593-2.68076991 1.499953.05584937-3.024904 4.91982207-8.14974 2.6198433 1.529951zm5.94034243-9.854685-.5077216.849973-2.6198433-1.499953.5077216-.849973c.5584937-.92497 1.1423735-1.069965 2.0867356-.499984.9443622.569982 1.1017559 1.064966.5331077 1.999937z" fill-rule="evenodd" transform="translate(3 -187)"/></svg>