<svg id="Default" xmlns="http://www.w3.org/2000/svg" viewBox="0 0 24 24"><path d="M6.39,11.88a1.71,1.71,0,0,0,1-1.63C7.34,8.87,6.67,8,5,8S2.56,9,2.5,10.57H3.7c.06-1.09.41-1.41,1.23-1.41s1.2.32,1.2,1.16-.36,1.11-1.19,1.11H4.31v1.12H5c1,0,1.29.38,1.29,1.24S5.87,15,5,15s-1.27-.38-1.33-1.47H2.5C2.57,15.28,3.26,16,5,16s2.48-.83,2.48-2.25A1.76,1.76,0,0,0,6.39,11.88Z"/><path d="M11.15,10.8a1.57,1.57,0,0,0-.65.13L12.3,8H10.94l-1.7,2.81a4.41,4.41,0,0,0-.75,2.57C8.49,15.29,9.36,16,11,16s2.52-.71,2.52-2.62S12.69,10.8,11.15,10.8ZM11,15c-1,0-1.28-.41-1.28-1.55s.32-1.51,1.28-1.51,1.27.42,1.27,1.51S12,15,11,15Z"/><path d="M17,8C15,8,14.47,9.09,14.47,12c0,3.12.63,4.05,2.51,4.05S19.5,15,19.5,12C19.5,9.07,19,8,17,8Zm0,7c-1.06,0-1.24-.54-1.24-3,0-2.28.25-2.79,1.24-2.79s1.25.51,1.25,2.79C18.23,14.43,18.05,15,17,15Z"/><path d="M21,8a1,1,0,1,0,1,1A1,1,0,0,0,21,8Zm0,1.47a.47.47,0,0,1,0-.94.47.47,0,0,1,0,.94Z"/></svg>