<svg height="24" width="24" xmlns="http://www.w3.org/2000/svg"><path d="m7.14 11.218a1.71 1.71 0 0 1 -.75.662 1.76 1.76 0 0 1 1.09 1.87c0 1.42-.74 2.25-2.48 2.25s-2.43-.72-2.5-2.47h1.17c.06 1.09.46 1.47 1.33 1.47s1.29-.35 1.29-1.21-.29-1.24-1.29-1.24h-.69v-1.12h.63c.83 0 1.19-.27 1.19-1.11s-.38-1.16-1.2-1.16-1.17.32-1.23 1.41h-1.2c.06-1.57.83-2.57 2.5-2.57s2.34.87 2.39 2.25a1.71 1.71 0 0 1 -.25.968z"/><path d="m10.5 10.93a1.57 1.57 0 0 1 .65-.13c1.54 0 2.37.67 2.37 2.58s-.88 2.62-2.52 2.62-2.51-.71-2.51-2.62a4.41 4.41 0 0 1 .75-2.57l1.7-2.81h1.36zm-.78 2.52c0 1.14.28 1.55 1.28 1.55s1.27-.46 1.27-1.55-.31-1.51-1.27-1.51-1.28.37-1.28 1.51zm7.28-5.45c-2 0-2.53 1.09-2.53 4 0 3.12.63 4.05 2.51 4.05s2.52-1.05 2.52-4.05c0-2.93-.5-4-2.5-4zm0 7c-1.06 0-1.24-.54-1.24-3 0-2.28.25-2.79 1.24-2.79s1.25.51 1.25 2.79c-.02 2.43-.2 3-1.25 3zm3.444-6.831a1 1 0 1 1 1.112 1.663 1 1 0 0 1 -1.112-1.663zm.224 1.163a.47.47 0 1 0 .664-.664.47.47 0 0 0 -.664.664z"/></svg>