<svg xmlns="http://www.w3.org/2000/svg" viewBox="0 0 24 24"><defs><style>.cls-1{fill:none;}</style></defs><g id="HG"><rect class="cls-1" width="24" height="24"/></g><g id="Default"><path d="M8.07,11.91a1.29,1.29,0,0,0,.75-1.22c0-1-.53-1.69-1.89-1.69S5.07,9.72,5,10.92H6c0-.81.32-1.05,1-1.05s.94.24.94.87-.28.84-.94.84H6.43v.84H7c.74,0,1,.28,1,.93s-.3.88-1,.88-1-.29-1-1.1H5C5.06,14.46,5.6,15,7,15s2-.62,2-1.69A1.31,1.31,0,0,0,8.07,11.91Z"/><path d="M11.66,11.16a1.21,1.21,0,0,0-.5.1l1.4-2.16H11.5l-1.31,2.07a3.11,3.11,0,0,0-.59,1.9c0,1.41.68,1.93,2,1.93s1.95-.52,1.95-1.93S12.86,11.16,11.66,11.16Zm-.1,3.07c-.78,0-1-.31-1-1.15s.26-1.11,1-1.11,1,.31,1,1.11S12.32,14.23,11.56,14.23Z"/><path d="M16,9c-1.56,0-2,.82-2,3,0,2.34.5,3,2,3s2-.72,2-3C18,9.8,17.54,9,16,9Zm0,5.23c-.84,0-1-.4-1-2.27,0-1.7.2-2.09,1-2.09s1,.39,1,2.09C17,13.83,16.82,14.23,16,14.23Z"/><path d="M20,9.05a1,1,0,1,0,1,1A1,1,0,0,0,20,9.05Zm0,1.44a.43.43,0,0,1-.44-.47A.42.42,0,0,1,20,9.57a.43.43,0,0,1,.44.45A.44.44,0,0,1,20,10.49Z"/></g></svg>
