<?xml version="1.0" encoding="utf-8"?>
<!-- Generator: Adobe Illustrator 25.3.0, SVG Export Plug-In . SVG Version: 6.00 Build 0)  -->
<svg version="1.1" id="Ebene_1" xmlns="http://www.w3.org/2000/svg" xmlns:xlink="http://www.w3.org/1999/xlink" x="0px" y="0px"
	 viewBox="0 0 24 24" style="enable-background:new 0 0 24 24;" xml:space="preserve">
<g id="icon_default">
	<path d="M12,3c-5,0-9,4-9,9s4,9,9,9s9-4,9-9S17,3,12,3z M12,20c-4.4,0-8-3.6-8-8s3.6-8,8-8s8,3.6,8,8S16.4,20,12,20z"/>
	<polygon points="11,10 7,10 7,11 11,11 11,13.5 8.6,16.7 9.4,17.3 12,13.8 14.6,17.3 15.4,16.7 13,13.5 13,11 17,11 17,10 13,10 	
		"/>
</g>
<path d="M12,9c0.7,0,1-0.3,1-1V7c0-0.7-0.3-1-1-1s-1,0.3-1,1v1C11,8.7,11.3,9,12,9z"/>
</svg>
