<svg xmlns="http://www.w3.org/2000/svg" width="24" height="24">
<path d="M12 9a3 3 0 1 0 0 6 3 3 0 0 0 0-6Zm-4 3a4 4 0 1 1 8 0 4 4 0 0 1-8 0Z"/>
<path d="m14 3 .61 3.05c.366.16.713.356 1.04.58l.193.136 2.951-.998 2 3.464-2.335 2.053a6.185 6.185 0 0 1 .022 1.195l-.023.236 2.336 2.053-2 3.464-2.951-.999a6.562 6.562 0 0 1-1.016.616l-.217.101L14 21h-4l-.61-3.05a6.4 6.4 0 0 1-1.04-.58l-.193-.137-2.951.999-2-3.464 2.335-2.053a6.19 6.19 0 0 1-.022-1.195l.022-.236-2.335-2.053 2-3.463 2.951.998a6.56 6.56 0 0 1 1.016-.616l.217-.101L10 3h4Zm-.82 1h-2.36l-.558 2.786a5.414 5.414 0 0 0-1.755.973l-.153.13-2.692-.911-1.18 2.044 2.125 1.867A6.634 6.634 0 0 0 6.5 12c0 .303.03.599.073.891l.034.22-2.125 1.867 1.18 2.044 2.692-.91c.503.436 1.076.799 1.715 1.035l.193.067L10.82 20h2.36l.558-2.786a5.416 5.416 0 0 0 1.755-.973l.153-.13 2.692.912 1.18-2.044-2.125-1.868c.061-.366.107-.733.107-1.111 0-.303-.03-.599-.073-.891l-.034-.22 2.125-1.867-1.18-2.044-2.692.91a5.571 5.571 0 0 0-1.715-1.035l-.193-.067L13.18 4Z"/>
</svg>