<svg xmlns="http://www.w3.org/2000/svg" width="24" height="24">
<path d="M12.5 4v1H6a1 1 0 0 0-.997.926L5 6v12a1 1 0 0 0 .925.998L6 19h12a1 1 0 0 0 .997-.925L19 18v-6.5h1V18a2 2 0 0 1-1.9 1.998L18 20H6a2 2 0 0 1-1.998-1.9L4 18V6a2 2 0 0 1 1.9-1.998L6 4h6.5ZM20 4v5.5h-1V5.702L12.75 12l-.75-.75L18.298 5H14.5V4H20Z"/>
<path d="M12.5 4v1H6a1 1 0 0 0-.997.926L5 6v12a1 1 0 0 0 .925.998L6 19h12a1 1 0 0 0 .997-.925L19 18v-6.5h1V18a2 2 0 0 1-1.9 1.998L18 20H6a2 2 0 0 1-1.998-1.9L4 18V6a2 2 0 0 1 1.9-1.998L6 4h6.5ZM20 4v5.5h-1V5.702L12.75 12l-.75-.75L18.298 5H14.5V4H20Z"/>
</svg>