<svg xmlns="http://www.w3.org/2000/svg" viewBox="0 0 24 24">
<path d="m18.501,9.5186c-.2021,0-.3926-.123-.4678-.3232-.9922-2.6289-2.4375-3.9834-4.833-4.5298-3.0078-.6841-5.8257,1.6909-5.854,1.7148-.209.1792-.5259.1567-.7051-.0527-.1802-.2095-.1567-.5249.0527-.7051.1299-.1118,3.2236-2.7339,6.729-1.9316,2.7256.6211,4.4355,2.21,5.5459,5.1509.0977.2583-.0332.5469-.291.6445-.0586.022-.1182.0322-.1768.0322Z"/><path d="m6.9976,18.5176c-.2764,0-.5-.2236-.5-.5,0-3.6904,1.8667-8.8374,4.9067-8.8374,1.4688,0,3.0547,1.2725,3.0547,3.3276,0,.6514-.3594,1.5645-.7061,2.4463-.2266.5752-.5078,1.291-.5078,1.5586,0,.9805.6914.9805.9189.9805,1.6904,0,2.2588-3.4473,2.2588-5.0195,0-.2129-.0498-5.2236-4.4053-5.2236-5.1562,0-6.5488,6.7344-6.562,6.8027-.0537.2715-.3179.4512-.5874.3936-.2705-.0537-.4473-.3154-.394-.5869.0151-.0762,1.5625-7.6094,7.5435-7.6094,4.2754,0,5.4053,4.0708,5.4053,6.2236,0,1.6738-.585,6.0195-3.2588,6.0195-1.416,0-1.9189-1.0664-1.9189-1.9805,0-.458.2676-1.1377.5771-1.9238.2832-.7217.6367-1.6191.6367-2.0811,0-1.4375-1.0664-2.3276-2.0547-2.3276-2.104,0-3.9067,4.3091-3.9067,7.8374,0,.2764-.2236.5-.5.5Z"/><path d="m10.9785,21.002c-.1108,0-.2222-.0371-.3149-.1123-.0586-.0479-1.4346-1.1895-1.4346-2.8604,0-2.0664,1.7344-6.0327,1.8081-6.2002.1113-.2534.4077-.3657.6587-.2563.2529.1108.3677.4062.2563.6587-.0171.0391-1.7231,3.9404-1.7231,5.7979,0,1.1904,1.0571,2.0771,1.0679,2.0859.2124.1758.2432.4902.0684.7031-.0986.1211-.2422.1836-.3867.1836Z"/>
</svg>