<svg xmlns="http://www.w3.org/2000/svg" viewBox="0 0 24 24">
<path d="m15.6,5.5c1.8748,0,3.4,1.6075,3.4,3.5833,0,1.0013-.386,1.9317-1.0868,2.6197-.6824.6698-4.3234,4.6024-5.9129,6.3226-1.5892-1.7209-5.2304-5.6559-5.9153-6.3245-.6996-.683-1.085-1.6127-1.085-2.6178,0-1.9759,1.5252-3.5833,3.4-3.5833,1.0961,0,2.132.5653,2.7711,1.5123l.8289,1.2283.8289-1.2283c.6391-.947,1.675-1.5123,2.7711-1.5123m0-1c-1.4896,0-2.804.7733-3.6,1.9529-.7961-1.1796-2.1104-1.9529-3.6-1.9529-2.43,0-4.4,2.0521-4.4,4.5833,0,1.315.5328,2.5,1.3864,3.3333.8536.8333,6.6136,7.0833,6.6136,7.0833,0,0,5.762-6.2474,6.6136-7.0833.8515-.8359,1.3864-2.0183,1.3864-3.3333,0-2.5312-1.97-4.5833-4.4-4.5833h0Z"/>
</svg>