<svg height="24" width="24" xmlns="http://www.w3.org/2000/svg"><path d="m19 3a2 2 0 0 1 2 2v12.5a3.5 3.5 0 0 1 -3.308 3.495l-.192.005h-12.112a2.504 2.504 0 0 1 -2.383-2.333l-.005-.167v-6.5h4v-7a2 2 0 0 1 2-2zm-12 10h-3v5.5a1.5 1.5 0 0 0 1.215 1.473l.14.02.145.007c.14 0 .275-.02.403-.055l.132-.043.067-.028.07-.032a1.5 1.5 0 0 0 .821-1.197l.007-.145zm13-7.75c0-.69-.56-1.25-1.25-1.25h-9.5c-.69 0-1.25.56-1.25 1.25v13.25l-.002.095-.007.123-.009.08-.018.124-.036.176c-.03.12-.068.238-.114.351l-.1.214-.061.109-.063.1-.07.1-.022.028h10.002a2.5 2.5 0 0 0 2.479-2.174l.016-.162.005-.164z"/><path d="m12 11v-1h-2v1zm6 0v-1h-5v1zm0-3v-1h-8v1zm-6 9v-1h-2v1zm6 0v-1h-5v1zm-6-3v-1h-2v1zm6 0v-1h-5v1z"/></svg>