<svg xmlns="http://www.w3.org/2000/svg" width="24" height="24">
<path d="M13.5 5a5 5 0 1 0-10 0c0 1.019.477 2.21 1 3l-4.537 4.537.75.75L5.25 8.75l.107.07C6.165 9.334 7.525 10 8.5 10a5 5 0 0 0 5-5Zm-9 0c0-2.205 1.795-4 4-4 2.206 0 4 1.795 4 4s-1.794 4-4 4c-2.205 0-4-1.795-4-4ZM8 12c0-.349.007-.694.021-1.034.16.022.321.034.479.034.176 0 .35-.008.521-.022A24.194 24.194 0 0 0 9.084 14h5.832A23.63 23.63 0 0 0 15 12c0-.689-.029-1.359-.084-2h-3.098a6.03 6.03 0 0 0 1.154-1h1.836a16.35 16.35 0 0 0-.508-2.458 6.01 6.01 0 0 0 .088-2.702A8.5 8.5 0 1 1 3.5 11.914l1.092-1.092A7.556 7.556 0 0 0 4.77 14h3.31A24.69 24.69 0 0 1 8 12Zm11.5 0c0 .693-.094 1.363-.27 2h-3.31a24.695 24.695 0 0 0 0-4h3.31c.176.637.27 1.307.27 2Zm-3.684-3h3.06a7.526 7.526 0 0 0-4.046-3.948c.083.195.161.397.234.605.336.952.593 2.09.752 3.343Zm-7.632 6h-3.06a7.526 7.526 0 0 0 4.046 3.948 10.065 10.065 0 0 1-.234-.605c-.336-.952-.593-2.09-.752-3.343Zm2.307 4.348C9.9 18.371 9.437 16.838 9.192 15h5.616c-.245 1.837-.708 3.371-1.3 4.348a7.538 7.538 0 0 1-3.017 0Zm4.339-.4A7.526 7.526 0 0 0 18.876 15h-3.06c-.159 1.253-.416 2.39-.752 3.343-.073.208-.151.41-.234.605Z"/> 

</svg>