<svg id="Default" xmlns="http://www.w3.org/2000/svg" xmlns:xlink="http://www.w3.org/1999/xlink" viewBox="0 0 24 24"><defs><style>.cls-1{clip-path:url(#clip-path);}</style><clipPath id="clip-path"><path d="M12,18a11.49,11.49,0,0,1-9.74-5.5L2,12l.27-.5A11.49,11.49,0,0,1,12,6a11.5,11.5,0,0,1,9.75,5.5L22,12l-.27.5A11.69,11.69,0,0,1,12,18ZM3.13,12v0A10.64,10.64,0,0,0,12,17a10.62,10.62,0,0,0,8.86-5l0,0,0,0A10.63,10.63,0,0,0,12,7a10.63,10.63,0,0,0-8.85,5Z"/></clipPath></defs><path d="M12,18a11.49,11.49,0,0,1-9.74-5.5L2,12l.27-.5A11.49,11.49,0,0,1,12,6a11.5,11.5,0,0,1,9.75,5.5L22,12l-.27.5A11.69,11.69,0,0,1,12,18ZM3.13,12v0A10.64,10.64,0,0,0,12,17a10.62,10.62,0,0,0,8.86-5l0,0,0,0A10.63,10.63,0,0,0,12,7a10.63,10.63,0,0,0-8.85,5Z"/><g class="cls-1"><path d="M27.22,23.73H-3.22V.27H27.22Zm-29.44-1H26.22V1.27H-2.22Zm28.41-.07H-2.19V1.34H26.19Zm-27.38-1H25.19V2.34H-1.19Z"/></g><path d="M12,10a2,2,0,1,1-2,2,2,2,0,0,1,2-2m0-1a3,3,0,1,0,3,3,3,3,0,0,0-3-3Z"/></svg>