<svg id="Default" xmlns="http://www.w3.org/2000/svg" viewBox="0 0 24 24"><polygon points="19.5 20 21 20 5 4 3.5 4 19.5 20"/><path d="M21.74,12.5,22,12l-.27-.5A11.5,11.5,0,0,0,12,6,11,11,0,0,0,6.77,7.27L7.53,8A10,10,0,0,1,12,7a10.63,10.63,0,0,1,8.87,5l0,0,0,0a10.94,10.94,0,0,1-5.08,4.26l.76.76A12.17,12.17,0,0,0,21.74,12.5Z"/><path d="M2.26,12.5A11.49,11.49,0,0,0,12,18a11.26,11.26,0,0,0,3.46-.54l-.81-.81A10.42,10.42,0,0,1,12,17a10.64,10.64,0,0,1-8.86-5v0A11,11,0,0,1,6.56,8.56l-.73-.73A11.81,11.81,0,0,0,2.26,11.5L2,12Z"/><path d="M10.36,10.86a2,2,0,1,1,2.78,2.78l.71.71a3,3,0,1,0-4.2-4.2Z"/><path d="M12,14a2,2,0,0,1-2-2l-.86-.86A3,3,0,0,0,9,12a3,3,0,0,0,3,3,3,3,0,0,0,.86-.14Z"/></svg>