<svg xmlns="http://www.w3.org/2000/svg" width="24" height="24">
  <path d="m21.7,12c-.8-.8-2.3-2.2-4.2-3.3l.7-.7c2.9,1.7,4.8,4,4.8,4,0,0-4.9,6-11,6-1.2,0-2.3-.2-3.3-.6l.8-.8c.8.2,1.6.4,2.5.4,4.4,0,8.2-3.5,9.7-5Z"/>
  <path d="m12,8c.6,0,1.1.1,1.6.3l1.7-1.7c-1-.4-2.1-.6-3.3-.6C5.9,6,1,12,1,12c0,0,1.9,2.3,4.8,4.1l2.5-2.5c-.2-.5-.3-1-.3-1.6,0-2.2,1.8-4,4-4Z"/>
  <path d="m21.9,2.8l-.7-.7-7.44,7.48c-.5-.36-1.1-.58-1.76-.58-1.66,0-3,1.34-3,3,0,.67.22,1.27.59,1.77l-7.49,7.53.7.7,7.5-7.53c.48.34,1.07.53,1.7.53,1.66,0,3-1.34,3-3,0-.64-.2-1.23-.54-1.72l7.44-7.48Zm-7.9,9.2c0,1.1-.9,2-2,2-.36,0-.69-.1-.98-.27l2.71-2.72c.17.29.27.63.27.99Z"/>
</svg>