<svg xmlns="http://www.w3.org/2000/svg" viewBox="0 0 24 24"><defs><style>.cls-1{fill:none;}</style></defs><g id="HG"><rect class="cls-1" width="24" height="24"/></g><g id="Default"><path d="M21.74,11.5A11.5,11.5,0,0,0,12,6a10.9,10.9,0,0,0-3.82.67L7.5,6H6L7.11,7.11A11.76,11.76,0,0,0,2.26,11.5L2,12l.27.5A11.49,11.49,0,0,0,12,18a10.94,10.94,0,0,0,3.82-.68L15,16.54A9.85,9.85,0,0,1,12,17a10.64,10.64,0,0,1-8.86-5v0A11.06,11.06,0,0,1,7.87,7.87l2,2,.71.71,2.82,2.82.71.71,2,2,.75.75L18,18h1.5l-1.66-1.66a12.13,12.13,0,0,0,3.9-3.84L22,12ZM11.55,10.05A2.3,2.3,0,0,1,12,10a2,2,0,0,1,2,2,2.3,2.3,0,0,1-.05.45Zm9.31,2a11,11,0,0,1-3.74,3.6l-2.39-2.39a3,3,0,0,0-4-4L9,7.45A10.27,10.27,0,0,1,12,7a10.63,10.63,0,0,1,8.87,5l0,0Z"/><path d="M9.27,10.77a3,3,0,0,0,4,4L12.45,14A2.3,2.3,0,0,1,12,14a2,2,0,0,1-2-2,2.3,2.3,0,0,1,.05-.45Z"/></g></svg>