<svg viewBox="0 0 163 36" xmlns="http://www.w3.org/2000/svg"><path d="m40.32 14.44c-2.45 2.25-5.33 3.69-9.28 4.9-1.37.42-2.56.71-3.5.93-6.54 1.43-5.16-.93 1.07-3.21 3.92-1.36 7.6-2.26 11.71-2.63m84.92-.03c-2.48 2.22-5.45 3.56-9.5 4.81-1.41.43-2.62.73-3.59.96-6.44 1.38-5.54-.64.83-2.94 4.01-1.38 8.03-2.4 12.26-2.83zm-23.89 8.93c.83.89 3.06 1.26 5.58 1.06 2.61-.15 6.12-.89 10.47-2.47 1.02-.38 2.02-.77 3.06-1.22.17-.07.35-.15.52-.23.18.41.35.79.54 1.17.86 1.83 2.02 2.76 4.55 2 1.38-.42 3.19-.86 5.65-1.72l-2.12 2.4h2.67c1.3-.05 2.4-.51 3.24-1.34l3.91-3.86c6.28-2 10.68-2.76 12.67-3.02.16-.02.22.08.05.24-1.79 1.84-4.02 4.57-5.22 6.52-.75 1.21.15 1.44 2.39 1.53 2.01.08 3.76-.09 5.75-.31 2.1-.24 4.26-.55 7.51-1.41l-.32-1.12c-.14-.57-.72-.81-1.39-.67-1.51.31-2.31.47-3.03.57-.84.12-1.65.2-1.98.21-1.55.07-1.67-.44-.97-1.35 1.42-1.85 3.5-4.01 5.07-5.85.34-.38.29-.81.19-1.11-.11-.3-.24-.59-.4-.91-.7-1.38-6.56.06-11.42 1.51-2.55.75-4.8 1.51-5.77 1.83l3.51-3.86-5.81.31-5.37 6.16c-1.45.55-2.81.99-4.18 1.48-2 .73-3.17.43-3.73-.46-.44-.7-.54-1.38.02-2.06l4.91-5.43c-4.21-.13-11.71.37-18.25 2.14-3.46.94-7.04 2.43-8.26 3.08-2.01 1.07-3.94 2.34-4.46 3.5-8.56 1.65-12.68 1.34-15.41 1.04-6.25-.7-.98-3.46.64-4.14 2.51-1.05 6.1-1.92 10.64-2.92 1.38-.3 3.15-.6 4.87-.88.06 0 .12-.02.18-.03.33-.06.49-.29.7-.54.86-1.04.98-1.52-.21-1.54-.27 0-.54 0-.83.02-3.41.2-8.88.84-13.83 2.24-8.09 2.33-12.4 5.17-12.16 7.59-4.76 1.52-11.52 4.13-14.95 5.87 2.79-2.75 10.47-9.91 17.16-15.65l-6.79.61-4.7 4.51c-2.33 1.21-7.26 3.05-10.15 3.5-.98.15-.3-.7.15-1.27 1.58-2 4.52-5.04 6.22-6.74-3 .31-4.55.32-6.72.68-.5.34-3.75 3.6-5.24 5.28-1.77.77-4.33 1.62-5.93 2.14-1.54.57-1.89.39-2.38-.48-.38-.68-.74-1.74-.32-2.23l4.86-5.67c-12.43-.11-19.72 1.73-25.64 5.31l-11.38 2.78.62-.64c1.73-1.8 3.47-3.6 5.19-5.41 1.29-1.36 2.56-2.74 3.82-4.12 1.34-1.47 2.64-2.96 3.93-4.48 2.44-.07 4.88-.17 7.32-.27 3.25-.14 6.5-.29 9.75-.32 1.13 0 2.08-.22 2.89-.57s1.48-.83 2.05-1.38c.25-.24.52-.49.8-.75.75-.69 1.56-1.45 2.2-2.16-4.02.15-8.05.34-12.07.55-4.03.21-8.06.45-12.09.71-3.61.23-7.21.5-10.81.78-2.96.23-5.92.49-8.88.78-1.24 1.2-2.5 2.43-3.72 3.68 2.4-.11 4.8-.22 7.2-.35 2.13-.11 4.31-.23 6.69-.36l1.27-.07c-1.4 1.64-2.8 3.28-4.2 4.92-1.34 1.57-2.68 3.14-4.03 4.71-1.31 1.52-2.61 3.05-3.91 4.57-1.24 1.46-2.48 2.92-3.72 4.38h3.25c1.06 0 2.23-.52 2.41-.62.3-.16.59-.34.87-.54l10.77-2.61c-1.85 2.77.35 5.09 8.74 3.48 3.4-.65 6.91-1.98 9.99-3.33.2.46.38.86.59 1.28.89 1.78 1.9 2.97 4.15 2.19 1.89-.57 5.13-1.71 7.5-2.81-.34.43-.69 1-.72 1.04-1.42 2.1-.84 2.93 3.03 2.31 3.58-.58 8.53-1.9 11.28-3.16-4.05 4.03-8.63 8.69-13.07 13.48l3.55-.77c1.68-.92 2.91-1.85 4.92-2.95 3.48-1.9 14.41-6.25 19.63-7.92 1.74 1.13 4.96 1.7 10.3 1.51 3.57-.12 8.23-.39 14.17-1.53z"/></svg>