<svg xmlns="http://www.w3.org/2000/svg" width="24" height="24">
<path d="M21 5a2 2 0 0 1 1.998 1.9L23 7v12a2 2 0 0 1-1.9 1.998L21 21H3a2 2 0 0 1-1.998-1.9L1 19V7a2 2 0 0 1 1.9-1.998L3 5v1l-.075.003a1 1 0 0 0-.922.919L2 7v12a1 1 0 0 0 .925.997L3 20h18a1 1 0 0 0 .997-.925L22 19V7a1 1 0 0 0-.925-.997L21 6V5Zm-4 0v1H7V5h10Zm3-2v3h-2V3h2ZM9.5 9.015c1.665 0 2.448.827 2.448 2.228 0 .705-.341 1.378-1.036 1.698.75.254 1.213.827 1.213 1.963 0 1.38-.871 2.228-2.515 2.228-1.753 0-2.503-.805-2.58-2.514h.86c.088 1.28.562 1.786 1.72 1.786 1.07 0 1.61-.44 1.61-1.5 0-.97-.452-1.489-1.61-1.489h-.794v-.805h.74c1.003 0 1.488-.496 1.488-1.367 0-.97-.573-1.39-1.544-1.39-.982 0-1.511.441-1.6 1.765h-.87c.088-1.6.75-2.603 2.47-2.603Zm7.078.132V17h-.915v-6.904l-2.173.816v-.839l2.327-.926h.76ZM6 3v3H4V3h2Z"/>
</svg>