<svg xmlns="http://www.w3.org/2000/svg" viewBox="0 0 24 24"><defs><style>.cls-1{fill:none;}</style></defs><g id="HG"><rect class="cls-1" width="24" height="24"/></g><g id="Default"><path d="M20.87,10.58A7.94,7.94,0,0,0,12.75,4c-.47,0-1.17.13-1.17.13a6.73,6.73,0,0,0-.77.21l.29,1A6.89,6.89,0,0,1,12.66,5a7,7,0,1,1-6.55,8.22c0-.1,0-.21,0-.31L7.62,14l1.62-.3L5.16,11l-2.81,3.9L4,14.65,5.06,13h0c0,.13,0,.25.06.38a8,8,0,1,0,15.74-2.84Z"/><path d="M10.16,5.59l-.29-1A7.92,7.92,0,0,0,8,5.77l.67.74A7.47,7.47,0,0,1,10.16,5.59Z"/><path d="M7.89,7.19l-.68-.73A7.83,7.83,0,0,0,6,8.24l.93.38A6.59,6.59,0,0,1,7.89,7.19Z"/><path d="M6.24,10.23a5.75,5.75,0,0,1,.23-.7l-.93-.38c-.1.28-.21.55-.29.84l.65.17Z"/></g></svg>