<svg xmlns="http://www.w3.org/2000/svg" width="24" height="24">
<path d="M12 3.5a8.5 8.5 0 1 1-6.698 13.734L4 18.535V15h3.536l-1.521 1.52a7.5 7.5 0 1 0 5.199-11.98l-.104-.994c.292-.03.59-.046.89-.046Zm.5 3.5v4.793l3.354 3.353-.707.707-3.5-3.5a.505.505 0 0 1-.143-.288L11.5 12l.004-5h.996Zm-8.976 4.363.996.09c-.009.12-.014.426-.014.65v.148c0 .042 0 .074.002.093l-1 .028a3.02 3.02 0 0 1-.002-.092v-.149c0-.254.007-.623.018-.768ZM4.81 7.465l.839.544c-.141.224-.271.457-.388.696l-.892-.454c.133-.27.28-.533.44-.786Zm2.913-2.812.496.868a7.514 7.514 0 0 0-.697.462l-.589-.808a8.51 8.51 0 0 1 .79-.522Z"/>

</svg>