<!-- Generated by IcoMoon.io -->
<svg version="1.1" xmlns="http://www.w3.org/2000/svg" width="32" height="32" viewBox="0 0 32 32">
<title>icon_add-user</title>
<path d="M28.255 21.025h-3.66c-0.101 0-0.183-0.082-0.183-0.183v-3.66c0-0.101-0.082-0.183-0.183-0.183h-1.585c-0.101 0-0.183 0.082-0.183 0.183v3.661c0 0.101-0.082 0.183-0.183 0.183h-3.66c-0.101 0-0.183 0.082-0.183 0.183v1.585c0 0.101 0.082 0.183 0.183 0.183h3.661c0.101 0 0.183 0.082 0.183 0.183v3.661c0 0.101 0.082 0.183 0.183 0.183h1.585c0.101 0 0.183-0.082 0.183-0.183v-3.661c0-0.101 0.082-0.183 0.183-0.183h3.661c0.101 0 0.183-0.082 0.183-0.183v-1.585c0 0 0 0 0 0 0-0.101-0.082-0.183-0.183-0.183-0 0-0.001 0-0.001 0z"></path>
<path d="M16.188 21.875c0-1.282 0.688-2.438 1.784-3.258-0.576-0.273-1.069-0.45-1.393-0.5v0c-0.476-0.076-0.486-1.383-0.486-1.383 0.555-0.913 1.089-1.98 1.537-3.090 0.775-1.987 1.722-8.615-3.432-8.615s-3.911 7.383-3.597 8.463 1.701 3.241 1.701 3.241-0.011 1.307-0.486 1.383c-1.531 0.244-6.868 3.291-6.868 6.055 0 0 1.485 0.66 9.296 0.66 1.264 0 2.359-0.017 3.308-0.046-0.849-0.784-1.363-1.8-1.363-2.909z"></path>
</svg>
