<!-- Generated by IcoMoon.io -->
<svg version="1.1" xmlns="http://www.w3.org/2000/svg" width="32" height="32" viewBox="0 0 32 32">
<title>icon_details_next</title>
<path d="M12.287 11.338c-3.556 0-6.444 2.881-6.444 6.444 0 1.369 0.431 2.637 1.162 3.681l-2.656 2.656c-0.444 0.444-0.444 1.163 0 1.6 0.444 0.444 1.156 0.444 1.6 0l2.656-2.656c1.044 0.731 2.313 1.163 3.681 1.163 2.569 0 4.781-1.5 5.819-3.675h9.875v-2.431h-9.256c0.006-0.113 0.006-0.225 0.006-0.337 0-1.212-0.337-2.344-0.919-3.313h10.169v-2.431h-12.781c-0.875-0.45-1.863-0.7-2.912-0.7zM16.887 17.781c0 2.544-2.063 4.6-4.6 4.6-2.544 0-4.6-2.056-4.6-4.6s2.063-4.6 4.6-4.6c2.544-0.006 4.6 2.056 4.6 4.6zM8.512 5.95v2.431h19.469v-2.431h-19.469z"></path>
</svg>
