<!-- Generated by IcoMoon.io -->
<svg version="1.1" xmlns="http://www.w3.org/2000/svg" width="32" height="32" viewBox="0 0 32 32">
<title>icon_heater_next</title>
<path d="M9.906 9.438h-0.938l1.875-3.75 1.875 3.75h-0.938c0 1.125 0.238 2.063 0.425 3.094 0.238 1.075 0.512 2.156 0.512 3.469 0 1.363-0.238 2.438-0.512 3.512-0.188 1.031-0.425 1.969-0.425 3.050h-1.875c0-1.313 0.238-2.387 0.469-3.469 0.238-1.031 0.469-1.969 0.469-3.094s-0.238-2.063-0.425-3.094c-0.281-1.031-0.512-2.106-0.512-3.469zM21.156 5.688l-1.875 3.75h0.938c0 1.075 0.137 1.969 0.325 2.813h1.925c-0.188-0.887-0.375-1.781-0.375-2.813h0.938l-1.875-3.75zM7.563 26.313h16.875v-1.875h-16.875v1.875zM16.938 9.438h0.938l-1.875-3.75-1.875 3.75h0.938c0 1.075 0.137 1.969 0.325 2.813h1.925c-0.188-0.887-0.375-1.781-0.375-2.813zM24.438 16.7c0 0.7-0.469 1.175-0.938 1.175s-1.175-0.238-1.875-0.238c-0.425 0-0.75 0.094-0.938 0.137 0 0.050 0 0.050 0 0.094 0 0.094 0 0.137-0.050 0.238 0.844 0.050 2.863 0.375 2.863 2.113 0 1.875-1.875 2.344-2.575 2.344s-1.175-0.469-1.175-0.938 0.238-1.175 0.238-1.875c0-0.425-0.094-0.75-0.137-0.938-0.044 0-0.044 0-0.094 0-0.094 0-0.137 0-0.238-0.050-0.050 0.887-0.375 2.863-2.113 2.863-1.875 0-2.344-1.875-2.344-2.575s0.469-1.175 0.938-1.175 1.175 0.238 1.875 0.238c0.425 0 0.75-0.094 0.938-0.137 0-0.050 0-0.050 0-0.094 0-0.094 0-0.137 0.050-0.238-0.887-0.050-2.863-0.375-2.863-2.113 0-1.875 1.875-2.344 2.575-2.344s1.175 0.469 1.175 0.938-0.238 1.175-0.238 1.875c0 0.425 0.094 0.75 0.137 0.938 0.050 0 0.050 0 0.094 0 0.094 0 0.137 0 0.238 0.050 0.050-0.844 0.375-2.863 2.113-2.863 1.875 0 2.344 1.875 2.344 2.575zM19.75 18.2c0.188 0 0.325-0.137 0.325-0.325s-0.137-0.325-0.325-0.325-0.325 0.137-0.325 0.325 0.137 0.325 0.325 0.325z"></path>
</svg>
