<!-- Generated by IcoMoon.io -->
<svg version="1.1" xmlns="http://www.w3.org/2000/svg" width="32" height="32" viewBox="0 0 32 32">
<title>icon_kaixin</title>
<path d="M17.632 14.939c0.326 0.076 0.717-0.41 0.874-1.085s0.019-1.284-0.307-1.359c-0.326-0.076-0.717 0.41-0.874 1.085s-0.019 1.284 0.307 1.359zM18.293 12.913c0.015 0.009 0.029 0.021 0.039 0.034 0.217 0.281-0.079 0.619-0.386 0.441-0.015-0.009-0.029-0.021-0.039-0.034-0.217-0.281 0.079-0.619 0.386-0.441z"></path>
<path d="M14.424 13.711c0.32 0.097 0.743-0.362 0.944-1.025s0.104-1.279-0.216-1.376c-0.32-0.097-0.743 0.362-0.944 1.025s-0.104 1.279 0.216 1.376zM15.001 11.633c0.159 0 0.287 0.129 0.287 0.287s-0.129 0.287-0.287 0.287-0.287-0.129-0.287-0.287c-0-0.159 0.129-0.287 0.287-0.287z"></path>
<path d="M27.752 14.327c-0.292-0.86-1.558-0.925-3.635-1.298s-2.97-0.665-2.97-0.665-0.388-2.313-0.665-3.814c-0.275-1.488-0.454-3.379-1.996-3.375-2.891 0.006-6.313 4.203-6.313 4.203s-1.834-0.049-3.635-1.168c-0.865-0.538-2.499-1.254-2.596 1.964-0.097 3.229 2.353 6.345 2.353 6.345s-0.441 1.379-0.667 2.889-0.129 4.511 0.78 5.664c0.909 1.152 1.542 0.909 2.807 0.097s2.856-2.029 2.856-2.029 0.86 0.649 2.483 1.85 3.489 2.061 4.836 1.785 1.168-1.688 1.022-3.116c-0.146-1.428-0.373-3.586-0.373-3.586s2.824-0.828 4.025-2.093c1.201-1.266 1.98-2.791 1.688-3.651zM12.418 12.834c0.51-1.685 1.711-2.812 2.683-2.518 0.662 0.201 1.047 1.010 1.063 2.038 0.492-0.644 1.099-0.996 1.662-0.866 0.989 0.229 1.468 1.861 1.071 3.575s-1.541 2.9-2.53 2.671c-0.747-0.173-1.193-1.105-1.195-2.29-0.571 0.76-1.292 1.162-1.919 0.972-0.972-0.294-1.346-1.899-0.836-3.583zM18.81 18.222c-0.007 0-3.292 2.767-5.732 2.013-2.366-0.731-2.464-4.756-2.464-4.756h-0.584c0 0 0.184-0.030 0.584-0.195 0.457-0.188 0.633-0.325 0.633-0.325l-0.454 0.519c0.006 0.009 0.341 3.473 2.418 4.236 2.018 0.741 5.533-1.657 5.533-1.657l0.099-0.728c0 0 0.115 0.448 0.194 0.747 0.072 0.273 0.228 0.519 0.228 0.519l-0.454-0.373z"></path>
</svg>
