<!-- Generated by IcoMoon.io -->
<svg version="1.1" xmlns="http://www.w3.org/2000/svg" width="32" height="32" viewBox="0 0 32 32">
<title>icon_door_left2_next</title>
<path d="M27.425 11.456c-0.694-0.662-1.563-0.975-2.587-0.919l-2.794 0.287c-0.025 0-4.613 0-7.55 0l-5.8-5.8-0.662 0.662 6.063 6.062 0.006-0.006 0.019 0.019c2.506 0 7.769-0.006 7.969-0.006l2.819-0.287c0.744-0.037 1.363 0.175 1.863 0.662 1.419 1.356 1.387 4.275 1.413 4.313v0c0 0.113-0.019 2.981-1.413 4.319-0.506 0.481-1.125 0.7-1.887 0.656l-2.744-0.281c-0.144 0-3.781-0.006-5.175-0.006-1.963 0-5.506 0-5.738 0.006-0.313 0.006-0.963 0.094-1.65 0.194-0.656 0.087-1.394 0.194-1.737 0.206-0.388 0.012-0.619-0.125-0.8-0.238-0.1-0.063-0.188-0.119-0.306-0.144l-0.112-0.012c-0.662 0-1.194-0.219-1.625-0.663-1.25-1.288-1.181-3.988-1.188-4.012v-0.031c0-0.031-0.063-2.725 1.188-4.012 0.431-0.45 0.963-0.662 1.625-0.662l0.112-0.012c0.112-0.031 0.206-0.088 0.306-0.144 0.181-0.113 0.412-0.25 0.8-0.238 0.344 0.012 1.087 0.113 1.737 0.206 0.688 0.094 1.419 0.188 1.731 0.194v-0.938c-0.262-0.006-0.975-0.1-1.606-0.181-0.713-0.1-1.444-0.2-1.831-0.213-0.675-0.025-1.1 0.238-1.325 0.375-0.844 0.019-1.612 0.338-2.225 0.969-1.362 1.406-1.45 3.938-1.45 4.556 0 0.113 0 0.125 0 0.231 0 0.606 0.081 3.156 1.45 4.563 0.588 0.606 1.331 0.925 2.206 0.944 0.263 0.175 0.681 0.425 1.344 0.4 0.394-0.012 1.125-0.113 1.831-0.212 0.631-0.087 1.281-0.175 1.544-0.181 0.219-0.006 3.763-0.006 5.713-0.006 1.769 0 5.094 0.006 5.125 0.006l2.719 0.281c1.050 0.056 1.919-0.256 2.613-0.919 1.712-1.637 1.7-4.869 1.7-4.994 0.019-0.119 0.019-3.363-1.688-4.994zM16.469 19.45l2.5 0.281c0.156 0.019 0.306-0.087 0.337-0.244l0.087-0.4c0.369-1.738 0.369-3.537 0-5.275l-0.081-0.394c-0.031-0.156-0.181-0.262-0.337-0.244l-2.494 0.294 0.081 0.65c0.194 1.55 0.2 3.119 0 4.669l-0.094 0.663zM8.537 13.456l-1.131-0.287c-0.156-0.019-0.306 0.088-0.338 0.244l-0.081 0.4c-0.375 1.738-0.375 3.537 0 5.275l0.081 0.394c0.031 0.156 0.181 0.262 0.338 0.244l1.125-0.288-0.081-0.65c-0.2-1.55-0.2-3.119 0-4.669l0.088-0.662z"></path>
</svg>
