<!-- Generated by IcoMoon.io -->
<svg version="1.1" xmlns="http://www.w3.org/2000/svg" width="32" height="32" viewBox="0 0 32 32">
<title>icon_360_Grad</title>
<path d="M17.363 21.344l-1.363 1.363v0.744l2.106-2.106-2.106-2.106v0.744l1.363 1.363"></path>
<path d="M27.188 12.55l-0.406 0.306c0.938 0.813 1.431 1.719 1.431 2.65 0 1.469-1.225 2.869-3.456 3.938-0.181 0.087-0.375 0.175-0.563 0.256l0.65 0.256c0.044-0.019 0.087-0.038 0.131-0.063 2.413-1.156 3.738-2.712 3.738-4.387 0.006-1.056-0.525-2.063-1.525-2.956z"></path>
<path d="M18.106 21.344l-0.25-0.25c-0.55 0.038-1.1 0.056-1.663 0.056-3.244 0-6.287-0.606-8.575-1.7-2.225-1.069-3.456-2.469-3.456-3.938 0-0.887 0.444-1.744 1.281-2.519l-0.35-0.35c-0.938 0.869-1.431 1.85-1.431 2.869 0 1.675 1.325 3.231 3.737 4.387 2.35 1.125 5.475 1.75 8.794 1.75 0.563 0 1.119-0.019 1.669-0.056l0.244-0.25z"></path>
<path d="M9.006 13.637c0.075 1.125 0.494 1.575 1.519 1.575 0.944 0 1.419-0.387 1.419-1.325 0-0.856-0.4-1.313-1.419-1.313h-0.7v-0.713h0.65c0.887 0 1.313-0.438 1.313-1.206 0-0.856-0.506-1.225-1.363-1.225-0.863 0-1.331 0.387-1.412 1.556h-0.769c0.075-1.412 0.662-2.294 2.175-2.294 1.469 0 2.156 0.731 2.156 1.963 0 0.625-0.3 1.213-0.912 1.5 0.662 0.225 1.069 0.731 1.069 1.731 0 1.213-0.769 1.963-2.219 1.963-1.544 0-2.206-0.713-2.275-2.219h0.769v0.006z"></path>
<path d="M14.344 11.5l1.75-2.681h0.863l-1.787 2.713c0.262-0.125 0.544-0.188 0.862-0.188 1.45 0 2.175 0.713 2.175 2.219 0 1.625-0.819 2.294-2.256 2.294-1.469 0-2.269-0.669-2.269-2.294 0.006-0.856 0.244-1.419 0.662-2.063zM15.956 15.213c1.087 0 1.45-0.537 1.45-1.613 0-1.081-0.369-1.588-1.45-1.588s-1.456 0.506-1.456 1.588 0.356 1.613 1.456 1.613z"></path>
<path d="M19.094 12.2c0-2.481 0.538-3.5 2.294-3.5 1.762 0 2.294 0.981 2.294 3.5 0 2.762-0.613 3.656-2.294 3.656s-2.294-0.844-2.294-3.656zM22.856 12.2c0-2.137-0.331-2.762-1.469-2.762-1.156 0-1.469 0.625-1.469 2.762 0 2.356 0.262 3.012 1.469 3.012s1.469-0.656 1.469-3.012z"></path>
<path d="M24.619 9.869c0-0.625 0.494-1.125 1.156-1.125 0.65 0 1.137 0.506 1.137 1.125s-0.488 1.137-1.137 1.137c-0.663 0-1.156-0.519-1.156-1.137zM26.369 9.869c0-0.363-0.25-0.625-0.594-0.625-0.363 0-0.613 0.262-0.613 0.625s0.25 0.625 0.613 0.625c0.344-0.006 0.594-0.269 0.594-0.625z"></path>
</svg>
