<!-- Generated by IcoMoon.io -->
<svg version="1.1" xmlns="http://www.w3.org/2000/svg" width="32" height="32" viewBox="0 0 32 32">
<title>icon_sohu</title>
<path d="M7.274 16.662l-1.573 0.497v3.767c0 1.283-0.524 1.531-2.525 1.504-0.041-0.331-0.207-0.897-0.373-1.256 0.317 0.014 0.621 0.014 0.869 0.014h0.538c0.193 0 0.248-0.069 0.248-0.262v-3.38c-0.51 0.166-0.966 0.303-1.352 0.414-0.014 0.124-0.11 0.207-0.221 0.235l-0.386-1.476c0.538-0.124 1.214-0.29 1.959-0.483v-2.746h-1.794v-1.2h1.794v-2.773l1.559 0.069c-0.014 0.124-0.097 0.207-0.317 0.235v2.47h1.49v1.2h-1.49v2.428l1.421-0.386 0.152 1.131zM14.131 17.104l0.842 0.386c-0.028 0.069-0.097 0.11-0.152 0.152-0.538 1.173-1.38 2.097-2.414 2.814 0.98 0.4 2.083 0.69 3.256 0.855-0.276 0.276-0.635 0.786-0.814 1.145-1.366-0.262-2.635-0.676-3.739-1.256-1.255 0.593-2.69 0.98-4.208 1.228-0.11-0.317-0.372-0.814-0.593-1.090 1.283-0.166 2.525-0.442 3.615-0.869-0.731-0.538-1.366-1.173-1.863-1.89l0.828-0.331h-1.656v-1.104h6.691l0.207-0.041zM10.571 16.869v-0.938h-2.98v-5.27l0.635 0.207c0.579-0.262 1.145-0.579 1.504-0.883l0.842 0.773v-1.255l1.476 0.097c-0.014 0.11-0.097 0.179-0.303 0.207v5.077h1.973v-1.145h-1.435v-0.966h1.435v-1.104h-1.476v-1.062h2.649v5.326h-3.146v0.938h-1.173zM8.736 14.883h1.835v-3.932h-0.124c-0.428 0.262-1.076 0.538-1.711 0.773v1.049h1.325v0.966h-1.325v1.145zM9.288 18.249c0.469 0.621 1.117 1.159 1.904 1.614 0.759-0.428 1.407-0.966 1.876-1.614h-3.78z"></path>
<path d="M17.386 9.598c0.538 0.497 0.98 0.993 1.338 1.504 0.386-0.497 0.704-1.007 0.966-1.504l1.324 0.649c-0.041 0.083-0.138 0.138-0.303 0.124-0.345 0.607-0.8 1.255-1.324 1.876 0.704 1.531 0.828 3.132 0.828 4.815 0 2.014-0.124 3.946-0.718 4.76-0.29 0.359-0.648 0.593-1.849 0.593-0.193 0-0.372 0-0.566-0.014-0.014-0.414-0.124-0.883-0.345-1.256 0.331 0.028 0.635 0.028 0.883 0.028 0.51 0 0.717 0 0.924-0.248 0.441-0.566 0.441-3.187 0.441-4.056-0.593 0.814-1.283 1.573-1.931 2.097-0.193-0.303-0.552-0.745-0.855-0.98 0.966-0.621 2.042-1.849 2.677-2.98-0.069-0.607-0.193-1.187-0.4-1.752-0.428 0.428-0.869 0.828-1.325 1.187-0.207-0.262-0.607-0.635-0.897-0.842 0.579-0.428 1.145-0.952 1.669-1.531-0.359-0.607-0.828-1.2-1.462-1.78l0.924-0.69zM22.339 10.84c1.904-0.345 3.946-0.828 5.132-1.338l1.228 0.952c-0.069 0.069-0.193 0.069-0.331 0.069-0.276 0.097-0.579 0.193-0.924 0.29 0.235 4.346 0.704 8.568 2.056 10.693-0.303 0.207-0.759 0.635-0.98 0.966-1.421-2.442-1.876-6.691-2.139-11.369-1.159 0.29-2.47 0.552-3.711 0.759v3.394c0 1.393-0.097 3.215-0.593 4.884l1.904-0.11v-8.319l1.393 0.083c-0.014 0.11-0.083 0.179-0.29 0.207v7.961l1.021-0.069c-0.152-0.593-0.331-1.186-0.511-1.711l0.869-0.235c0.428 1.2 0.855 2.746 1.021 3.794l-0.924 0.262c-0.041-0.317-0.11-0.69-0.193-1.076-1.449 0.166-2.87 0.317-3.808 0.4-0.028 0.11-0.124 0.179-0.221 0.193l-0.331-1.173c-0.248 0.773-0.593 1.504-1.049 2.152-0.166-0.262-0.621-0.662-0.924-0.814 1.324-1.89 1.449-4.456 1.449-6.443v-4.65l0.855 0.248z"></path>
</svg>
