<!-- Generated by IcoMoon.io -->
<svg version="1.1" xmlns="http://www.w3.org/2000/svg" width="32" height="32" viewBox="0 0 32 32">
<title>icon_smartphone</title>
<path d="M21.765 2.531h-11.494c-0.959 0-1.74 0.78-1.74 1.74v22.458c0 0.959 0.781 1.74 1.74 1.74h11.494c0.959 0 1.74-0.78 1.74-1.74v-22.458c0-0.959-0.781-1.74-1.74-1.74zM9.959 6.969h12.119v17.063h-12.119v-17.063zM10.662 3.969h10.822c0.375 0 0.594 0.255 0.594 0.625v1.424h-12.127l0.008-1.424c0-0.37 0.25-0.625 0.703-0.625zM10.584 27.031c-0.37 0-0.625-0.301-0.625-0.671v-1.391h12.119v1.391c0 0.37-0.301 0.671-0.672 0.671h-10.822z"></path>
<path d="M14.64 5.406h3.262c0.177 0 0.32-0.194 0.32-0.371s-0.143-0.379-0.32-0.379h-3.262c-0.177 0-0.32 0.202-0.32 0.379s0.143 0.371 0.32 0.371z"></path>
<path d="M16.25 25.469c-0.293 0-0.531 0.238-0.531 0.531s0.238 0.531 0.531 0.531 0.531-0.238 0.531-0.531-0.238-0.531-0.531-0.531z"></path>
</svg>
