<!-- Generated by IcoMoon.io -->
<svg version="1.1" xmlns="http://www.w3.org/2000/svg" width="32" height="32" viewBox="0 0 32 32">
<title>icon_horn_next</title>
<path d="M28 13.6c0 0 0 1.2-1.2 1.2h-15.6c-3.963 0-7.2-3.237-7.2-7.2h-1.2v16.8h1.2c0-3.9 3.119-7.081 6.963-7.2-0.6 0.719-0.963 1.5-0.963 2.4 0 2.762 3.362 4.8 7.8 4.8s7.8-2.038 7.8-4.8c0-0.9-0.363-1.681-0.962-2.4h2.163c1.2 0 1.2 1.2 1.2 1.2h1.2v-4.8h-1.2zM23.2 19.6c0 0.962-2.1 2.4-5.4 2.4s-5.4-1.438-5.4-2.4c0-0.962 2.1-2.4 5.4-2.4s5.4 1.438 5.4 2.4z"></path>
</svg>
