<!-- Generated by IcoMoon.io -->
<svg version="1.1" xmlns="http://www.w3.org/2000/svg" width="32" height="32" viewBox="0 0 32 32">
<title>icon_morning-afternoon_next</title>
<path d="M22.944 21.9c0 0.381-0.313 0.694-0.694 0.694s-0.694-0.313-0.694-0.694c0-3.063-2.494-5.556-5.556-5.556s-5.556 2.494-5.556 5.556c0 0.381-0.313 0.694-0.694 0.694s-0.694-0.313-0.694-0.694c0-3.825 3.113-6.944 6.944-6.944 3.825 0 6.944 3.119 6.944 6.944zM27.8 21.206h-2.775c-0.381 0-0.694 0.313-0.694 0.694s0.313 0.694 0.694 0.694h2.775c0.381 0 0.694-0.313 0.694-0.694s-0.306-0.694-0.694-0.694zM22.381 16.212c0.175 0 0.356-0.069 0.494-0.206l1.962-1.963c0.269-0.269 0.269-0.713 0-0.981s-0.712-0.269-0.981 0l-1.962 1.963c-0.269 0.269-0.269 0.713 0 0.981 0.131 0.137 0.313 0.206 0.488 0.206zM16 13.569c0.381 0 0.694-0.313 0.694-0.694v-2.775c0-0.381-0.313-0.694-0.694-0.694s-0.694 0.313-0.694 0.694v2.775c0 0.381 0.313 0.694 0.694 0.694zM9.131 16.012c0.137 0.137 0.313 0.206 0.494 0.206 0.175 0 0.356-0.069 0.494-0.206 0.269-0.269 0.269-0.713 0-0.981l-1.975-1.969c-0.269-0.269-0.713-0.269-0.981 0s-0.269 0.713 0 0.981l1.969 1.969zM6.975 21.206h-2.775c-0.381 0-0.694 0.313-0.694 0.694s0.313 0.694 0.694 0.694h2.775c0.381 0 0.694-0.313 0.694-0.694s-0.313-0.694-0.694-0.694z"></path>
</svg>
