<!-- Generated by IcoMoon.io -->
<svg version="1.1" xmlns="http://www.w3.org/2000/svg" width="32" height="32" viewBox="0 0 32 32">
<title>icon_morning</title>
<path d="M3.469 21.531h25.063v2.563h-25.063v-2.563z"></path>
<path d="M15.781 4.469h0.563c0.414 0 0.75 0.336 0.75 0.75v2.063c0 0.414-0.336 0.75-0.75 0.75h-0.563c-0.414 0-0.75-0.336-0.75-0.75v-2.063c0-0.414 0.336-0.75 0.75-0.75z"></path>
<path d="M6.812 7.773l0.398-0.398c0.293-0.293 0.768-0.293 1.061 0l1.458 1.458c0.293 0.293 0.293 0.768 0 1.061l-0.398 0.398c-0.293 0.293-0.768 0.293-1.061 0l-1.458-1.458c-0.293-0.293-0.293-0.768 0-1.061z"></path>
<path d="M5.156 13.906h2.063c0.414 0 0.75 0.336 0.75 0.75v0.563c0 0.414-0.336 0.75-0.75 0.75h-2.063c-0.414 0-0.75-0.336-0.75-0.75v-0.563c0-0.414 0.336-0.75 0.75-0.75z"></path>
<path d="M24.719 13.969h2.063c0.414 0 0.75 0.336 0.75 0.75v0.563c0 0.414-0.336 0.75-0.75 0.75h-2.063c-0.414 0-0.75-0.336-0.75-0.75v-0.563c0-0.414 0.336-0.75 0.75-0.75z"></path>
<path d="M22.396 8.833l1.458-1.458c0.293-0.293 0.768-0.293 1.061 0l0.398 0.398c0.293 0.293 0.293 0.768 0 1.061l-1.458 1.458c-0.293 0.293-0.768 0.293-1.061 0l-0.398-0.398c-0.293-0.293-0.293-0.768 0-1.061z"></path>
<path d="M22.092 18.469c0.337-0.764 0.533-1.654 0.533-2.59 0-3.624-2.938-6.563-6.563-6.563s-6.563 2.938-6.563 6.563c0 0.936 0.196 1.827 0.549 2.632z"></path>
</svg>
