<svg xmlns="http://www.w3.org/2000/svg" width="335" height="303">
  <path fill="#959899" d="M125 48h80v14h-80V48zm57 56h104v14H182v-14z"/>
  <path fill="#959899" d="M316.2 0H96.7C84.9 0 79 10.1 79 17.7v42l-55.1 55.1C3.5 135.2-1.5 159.5.4 174.1c1.8 14 20.9 124.1 21.7 128.9h13.3c-.2-1.2-19.8-116.9-21.6-130.6-1.5-11.6 2.8-31.1 19.7-48l45.6-45.8v64.3l-39.8 40.4 9.5 9.6 30.4-31 13.5-13.4 38.5-38.1s14.3 10-3.9 34.4-17.6 23.6-17.6 23.6l-11 13.5s-2.5 3.1-2.5 7.1c0 4 1.8 5.9 3.1 7.4 5.3 6.4 12.8 17.6 12.8 27.6 0 15.1-15.1 31.2-15.3 31.4l4.9 4.6 4.9 4.7c.8-.8 19-20.2 19-40.7 0-14.9-10-27.2-15.9-34.2l6.4-7.9h50v40.4c0 19.8-25 32.6-25.3 32.7l-3.7 1.9V303h14v-38c8.6-5.2 29-20 29-42.7V182h136.3c9.2 0 17.7-7.7 17.7-17.8V17.7C334 8.3 326.6 0 316.2 0zm3.8 165.4c0 1-1 2.6-2.7 2.6H126.7l10.3-14.7c2-2.1 13.2-14.8 13.5-30.7.2-11.9-8.8-21.9-8.8-21.9-2-4-6.1-5.4-8.4-5.8 0 0-5.6-1.2-9.6 2.8-.9.9-31.7 31.3-31.7 31.3V15.6c0-1.2 1.1-2.5 2.5-2.5h222.9c1.5 0 2.6 1.2 2.6 2.4v149.9z"/>
</svg>
